<?xml version="1.0" encoding="UTF-8" standalone="no"?>
<!DOCTYPE svg PUBLIC "-//W3C//DTD SVG 1.1//EN"
 "http://www.w3.org/Graphics/SVG/1.1/DTD/svg11.dtd">
<!-- Generated by graphviz version 2.38.0 (20140413.2041)
 -->
<!-- Title: scram::gui::diagram::Event::units Pages: 1 -->
<!--zoomable 544 -->
<svg id="main" version="1.1" xmlns="http://www.w3.org/2000/svg" xmlns:xlink="http://www.w3.org/1999/xlink" xml:space="preserve" onload="init(evt)">
<style type="text/css"><![CDATA[
.edge:hover path { stroke: red; }
.edge:hover polygon { stroke: red; fill: red; }
]]></style>
<script type="text/javascript"><![CDATA[
var edges = document.getElementsByTagName('g');
if (edges && edges.length) {
  for (var i=0;i<edges.length;i++) {
    if (edges[i].id.substr(0,4)=='edge') {
      edges[i].setAttribute('class','edge');
    }
  }
}
]]></script>
        <defs>
                <circle id="rim" cx="0" cy="0" r="7"/>
                <circle id="rim2" cx="0" cy="0" r="3.5"/>
                <g id="zoomPlus">
                        <use xlink:href="#rim" fill="#404040">
                                <set attributeName="fill" to="#808080" begin="zoomplus.mouseover" end="zoomplus.mouseout"/>
                        </use>
                        <path d="M-4,0h8M0,-4v8" fill="none" stroke="white" stroke-width="1.5" pointer-events="none"/>
                </g>
                <g id="zoomMin">
                        <use xlink:href="#rim" fill="#404040">
                                <set attributeName="fill" to="#808080" begin="zoomminus.mouseover" end="zoomminus.mouseout"/>
                        </use>
                        <path d="M-4,0h8" fill="none" stroke="white" stroke-width="1.5" pointer-events="none"/>
                </g>
                <g id="dirArrow">
                        <path fill="none" stroke="white" stroke-width="1.5" d="M0,-3.0v7 M-2.5,-0.5L0,-3.0L2.5,-0.5"/>
                </g>
               <g id="resetDef">
                       <use xlink:href="#rim2" fill="#404040">
                               <set attributeName="fill" to="#808080" begin="reset.mouseover" end="reset.mouseout"/>
                       </use>
               </g>
        </defs>

<script type="text/javascript">
var viewWidth = 652;
var viewHeight = 544;
var sectionId = 'dynsection-6';
</script>
<script xlink:href="svgpan.js"/>
<svg id="graph" class="graph">
<g id="viewport">
<title>scram::gui::diagram::Event::units</title>
<polygon fill="white" stroke="none" points="-4,4 -4,-540.013 648,-540.013 648,4 -4,4"/>
<!-- Node1 -->
<g id="node1" class="node"><title>Node1</title>
<polygon fill="#bfbfbf" stroke="black" points="0,-252.5 0,-282.5 113,-282.5 113,-252.5 0,-252.5"/>
<text text-anchor="start" x="8" y="-270.5" font-family="Helvetica,sans-Serif" font-size="10.00">scram::gui::diagram</text>
<text text-anchor="middle" x="56.5" y="-259.5" font-family="Helvetica,sans-Serif" font-size="10.00">::Event::units</text>
</g>
<!-- Node2 -->
<g id="node2" class="node"><title>Node2</title>
<g id="a_node2"><a xlink:href="classscram_1_1gui_1_1diagram_1_1Gate.xhtml#a0d59d686a63ffaa23f6c121860354d4b" target="_top" xlink:title="Adds the transfer&#45;out symbol besides the gate shape. ">
<polygon fill="white" stroke="black" points="519,-371.5 519,-401.5 644,-401.5 644,-371.5 519,-371.5"/>
<text text-anchor="start" x="527" y="-389.5" font-family="Helvetica,sans-Serif" font-size="10.00">scram::gui::diagram</text>
<text text-anchor="middle" x="581.5" y="-378.5" font-family="Helvetica,sans-Serif" font-size="10.00">::Gate::addTransferOut</text>
</a>
</g>
</g>
<!-- Node1&#45;&gt;Node2 -->
<g id="edge1" class="edge"><title>Node1&#45;&gt;Node2</title>
<path fill="none" stroke="midnightblue" d="M59.069,-292.784C63.6061,-341.34 81.1824,-446.868 149,-492.5 272.592,-575.66 346.651,-524.497 483,-464.5 516.929,-449.57 549.034,-419.784 566.613,-401.649"/>
<polygon fill="midnightblue" stroke="midnightblue" points="62.5555,-292.474 58.2472,-282.795 55.579,-293.048 62.5555,-292.474"/>
</g>
<!-- Node3 -->
<g id="node3" class="node"><title>Node3</title>
<g id="a_node3"><a xlink:href="classscram_1_1gui_1_1diagram_1_1BasicEvent.xhtml#a8d42e9b3c6a1f1dc7c764da03aa2134e" target="_top" xlink:title="Assigns an event to a presentation view. ">
<polygon fill="white" stroke="black" points="344,-424.5 344,-454.5 478,-454.5 478,-424.5 344,-424.5"/>
<text text-anchor="start" x="352" y="-442.5" font-family="Helvetica,sans-Serif" font-size="10.00">scram::gui::diagram</text>
<text text-anchor="middle" x="411" y="-431.5" font-family="Helvetica,sans-Serif" font-size="10.00">::BasicEvent::BasicEvent</text>
</a>
</g>
</g>
<!-- Node1&#45;&gt;Node3 -->
<g id="edge2" class="edge"><title>Node1&#45;&gt;Node3</title>
<path fill="none" stroke="midnightblue" d="M60.4044,-292.493C67.054,-336.822 87.8558,-428.234 149,-467.5 220.708,-513.55 326.92,-477.383 378.966,-454.542"/>
<polygon fill="midnightblue" stroke="midnightblue" points="63.8659,-291.972 59.0335,-282.544 56.9314,-292.928 63.8659,-291.972"/>
</g>
<!-- Node4 -->
<g id="node4" class="node"><title>Node4</title>
<g id="a_node4"><a xlink:href="classscram_1_1gui_1_1diagram_1_1Event.xhtml#a95018bb65f073fc16894750d0557d58f" target="_top" xlink:title="Required standard member functions of QGraphicsItem interface. ">
<polygon fill="white" stroke="black" points="166,-427.5 166,-457.5 286,-457.5 286,-427.5 166,-427.5"/>
<text text-anchor="start" x="174" y="-445.5" font-family="Helvetica,sans-Serif" font-size="10.00">scram::gui::diagram</text>
<text text-anchor="middle" x="226" y="-434.5" font-family="Helvetica,sans-Serif" font-size="10.00">::Event::boundingRect</text>
</a>
</g>
</g>
<!-- Node1&#45;&gt;Node4 -->
<g id="edge3" class="edge"><title>Node1&#45;&gt;Node4</title>
<path fill="none" stroke="midnightblue" d="M66.2382,-292.111C79.2358,-325.276 106.761,-384.007 149,-417.5 154.115,-421.556 159.914,-424.966 165.973,-427.829"/>
<polygon fill="midnightblue" stroke="midnightblue" points="69.4869,-290.807 62.6707,-282.696 62.941,-293.287 69.4869,-290.807"/>
</g>
<!-- Node5 -->
<g id="node5" class="node"><title>Node5</title>
<g id="a_node5"><a xlink:href="classscram_1_1gui_1_1diagram_1_1ConditionalEvent.xhtml#a87f483e907b2feecb3b44989dbce44d1" target="_top" xlink:title="Assigns an event to a presentation view. ">
<polygon fill="white" stroke="black" points="354.5,-283 354.5,-324 467.5,-324 467.5,-283 354.5,-283"/>
<text text-anchor="start" x="362.5" y="-312" font-family="Helvetica,sans-Serif" font-size="10.00">scram::gui::diagram</text>
<text text-anchor="start" x="362.5" y="-301" font-family="Helvetica,sans-Serif" font-size="10.00">::ConditionalEvent::</text>
<text text-anchor="middle" x="411" y="-290" font-family="Helvetica,sans-Serif" font-size="10.00">ConditionalEvent</text>
</a>
</g>
</g>
<!-- Node1&#45;&gt;Node5 -->
<g id="edge4" class="edge"><title>Node1&#45;&gt;Node5</title>
<path fill="none" stroke="midnightblue" d="M116.965,-285.028C127.554,-287.595 138.542,-289.906 149,-291.5 219.291,-302.212 301.356,-304.305 354.424,-304.318"/>
<polygon fill="midnightblue" stroke="midnightblue" points="117.517,-281.558 106.964,-282.504 115.804,-288.345 117.517,-281.558"/>
</g>
<!-- Node6 -->
<g id="node6" class="node"><title>Node6</title>
<g id="a_node6"><a xlink:href="classscram_1_1gui_1_1diagram_1_1Gate.xhtml#a2111abee08814f57bc5cdfd0452b8ec0" target="_top" xlink:title="Constructs the graph with the transfer symbols for gates. ">
<polygon fill="white" stroke="black" points="354.5,-342.5 354.5,-372.5 467.5,-372.5 467.5,-342.5 354.5,-342.5"/>
<text text-anchor="start" x="362.5" y="-360.5" font-family="Helvetica,sans-Serif" font-size="10.00">scram::gui::diagram</text>
<text text-anchor="middle" x="411" y="-349.5" font-family="Helvetica,sans-Serif" font-size="10.00">::Gate::Gate</text>
</a>
</g>
</g>
<!-- Node1&#45;&gt;Node6 -->
<g id="edge5" class="edge"><title>Node1&#45;&gt;Node6</title>
<path fill="none" stroke="midnightblue" d="M93.2061,-287.483C109.746,-295.997 129.924,-305.361 149,-311.5 217.983,-333.699 300.877,-345.995 354.453,-352.17"/>
<polygon fill="midnightblue" stroke="midnightblue" points="94.4037,-284.159 83.9242,-282.599 91.1442,-290.353 94.4037,-284.159"/>
</g>
<!-- Node7 -->
<g id="node7" class="node"><title>Node7</title>
<g id="a_node7"><a xlink:href="classscram_1_1gui_1_1diagram_1_1Gate.xhtml#a02600d1e3655e693056bb5277ff35a20" target="_top" xlink:title="Constructs graphics object representing the given gate type. ">
<polygon fill="white" stroke="black" points="149,-378.5 149,-408.5 303,-408.5 303,-378.5 149,-378.5"/>
<text text-anchor="start" x="157" y="-396.5" font-family="Helvetica,sans-Serif" font-size="10.00">scram::gui::diagram</text>
<text text-anchor="middle" x="226" y="-385.5" font-family="Helvetica,sans-Serif" font-size="10.00">::Gate::getGateGraphicsType</text>
</a>
</g>
</g>
<!-- Node1&#45;&gt;Node7 -->
<g id="edge6" class="edge"><title>Node1&#45;&gt;Node7</title>
<path fill="none" stroke="midnightblue" d="M74.7562,-290.711C91.6567,-312.074 119.159,-343.404 149,-363.5 157.707,-369.363 167.73,-374.344 177.582,-378.462"/>
<polygon fill="midnightblue" stroke="midnightblue" points="77.4998,-288.538 68.6057,-282.78 71.9683,-292.827 77.4998,-288.538"/>
</g>
<!-- Node8 -->
<g id="node8" class="node"><title>Node8</title>
<g id="a_node8"><a xlink:href="classscram_1_1gui_1_1diagram_1_1Event.xhtml#a0cec58c01e850dc2571dcecfe1261c8e" target="_top" xlink:title="scram::gui::diagram\l::Event::getTypeGraphics">
<polygon fill="white" stroke="black" points="344,-234.5 344,-264.5 478,-264.5 478,-234.5 344,-234.5"/>
<text text-anchor="start" x="352" y="-252.5" font-family="Helvetica,sans-Serif" font-size="10.00">scram::gui::diagram</text>
<text text-anchor="middle" x="411" y="-241.5" font-family="Helvetica,sans-Serif" font-size="10.00">::Event::getTypeGraphics</text>
</a>
</g>
</g>
<!-- Node1&#45;&gt;Node8 -->
<g id="edge8" class="edge"><title>Node1&#45;&gt;Node8</title>
<path fill="none" stroke="midnightblue" d="M112.825,-249.846C124.644,-246.792 137.141,-244.091 149,-242.5 214.929,-233.655 291.038,-237.251 343.991,-241.931"/>
<polygon fill="midnightblue" stroke="midnightblue" points="111.827,-246.49 103.086,-252.477 113.653,-253.248 111.827,-246.49"/>
</g>
<!-- Node9 -->
<g id="node9" class="node"><title>Node9</title>
<g id="a_node9"><a xlink:href="classscram_1_1gui_1_1diagram_1_1HouseEvent.xhtml#aa0e8d4250c50e7795f15e7e67fd8da5c" target="_top" xlink:title="Assigns an event to a presentation view. ">
<polygon fill="white" stroke="black" points="339,-181.5 339,-211.5 483,-211.5 483,-181.5 339,-181.5"/>
<text text-anchor="start" x="347" y="-199.5" font-family="Helvetica,sans-Serif" font-size="10.00">scram::gui::diagram</text>
<text text-anchor="middle" x="411" y="-188.5" font-family="Helvetica,sans-Serif" font-size="10.00">::HouseEvent::HouseEvent</text>
</a>
</g>
</g>
<!-- Node1&#45;&gt;Node9 -->
<g id="edge10" class="edge"><title>Node1&#45;&gt;Node9</title>
<path fill="none" stroke="midnightblue" d="M68.8899,-243.179C83.2227,-215.805 110.684,-172.777 149,-154.5 210.777,-125.033 235.749,-141.774 303,-154.5 317.314,-157.209 350.104,-170.489 375.639,-181.401"/>
<polygon fill="midnightblue" stroke="midnightblue" points="65.7477,-241.637 64.3715,-252.142 71.9984,-244.788 65.7477,-241.637"/>
</g>
<!-- Node10 -->
<g id="node10" class="node"><title>Node10</title>
<g id="a_node10"><a xlink:href="classscram_1_1gui_1_1diagram_1_1Event.xhtml#ab9341662591da72ff584e8a741cdee75" target="_top" xlink:title="Required standard member functions of QGraphicsItem interface. ">
<polygon fill="white" stroke="black" points="169.5,-164.5 169.5,-194.5 282.5,-194.5 282.5,-164.5 169.5,-164.5"/>
<text text-anchor="start" x="177.5" y="-182.5" font-family="Helvetica,sans-Serif" font-size="10.00">scram::gui::diagram</text>
<text text-anchor="middle" x="226" y="-171.5" font-family="Helvetica,sans-Serif" font-size="10.00">::Event::paint</text>
</a>
</g>
</g>
<!-- Node1&#45;&gt;Node10 -->
<g id="edge11" class="edge"><title>Node1&#45;&gt;Node10</title>
<path fill="none" stroke="midnightblue" d="M87.265,-246.611C104.761,-234.853 127.586,-220.39 149,-209.5 159.621,-204.099 171.455,-199.012 182.562,-194.615"/>
<polygon fill="midnightblue" stroke="midnightblue" points="84.9367,-243.962 78.637,-252.481 88.8739,-249.75 84.9367,-243.962"/>
</g>
<!-- Node11 -->
<g id="node11" class="node"><title>Node11</title>
<g id="a_node11"><a xlink:href="classscram_1_1gui_1_1diagram_1_1Event.xhtml#a689aedbf5244a97df88a76993241991d" target="_top" xlink:title="Releases the current derived class item, and sets the new one. ">
<polygon fill="white" stroke="black" points="159,-252.5 159,-282.5 293,-282.5 293,-252.5 159,-252.5"/>
<text text-anchor="start" x="167" y="-270.5" font-family="Helvetica,sans-Serif" font-size="10.00">scram::gui::diagram</text>
<text text-anchor="middle" x="226" y="-259.5" font-family="Helvetica,sans-Serif" font-size="10.00">::Event::setTypeGraphics</text>
</a>
</g>
</g>
<!-- Node1&#45;&gt;Node11 -->
<g id="edge12" class="edge"><title>Node1&#45;&gt;Node11</title>
<path fill="none" stroke="midnightblue" d="M123.344,-267.5C134.971,-267.5 147.08,-267.5 158.719,-267.5"/>
<polygon fill="midnightblue" stroke="midnightblue" points="123.275,-264 113.275,-267.5 123.275,-271 123.275,-264"/>
</g>
<!-- Node12 -->
<g id="node12" class="node"><title>Node12</title>
<g id="a_node12"><a xlink:href="classscram_1_1gui_1_1diagram_1_1TransferIn.xhtml#a2730a1fcb6263bbe58286e9b6082f642" target="_top" xlink:title="Assigns an event to a presentation view. ">
<polygon fill="white" stroke="black" points="351,-125.5 351,-155.5 471,-155.5 471,-125.5 351,-125.5"/>
<text text-anchor="start" x="359" y="-143.5" font-family="Helvetica,sans-Serif" font-size="10.00">scram::gui::diagram</text>
<text text-anchor="middle" x="411" y="-132.5" font-family="Helvetica,sans-Serif" font-size="10.00">::TransferIn::TransferIn</text>
</a>
</g>
</g>
<!-- Node1&#45;&gt;Node12 -->
<g id="edge20" class="edge"><title>Node1&#45;&gt;Node12</title>
<path fill="none" stroke="midnightblue" d="M66.1343,-242.866C78.754,-211.13 105.575,-157.334 149,-134.5 214.992,-99.7998 303.942,-112.172 359.098,-125.45"/>
<polygon fill="midnightblue" stroke="midnightblue" points="62.8191,-241.737 62.5329,-252.328 69.3613,-244.227 62.8191,-241.737"/>
</g>
<!-- Node13 -->
<g id="node13" class="node"><title>Node13</title>
<g id="a_node13"><a xlink:href="classscram_1_1gui_1_1diagram_1_1UndevelopedEvent.xhtml#a5047cec2da3a7af805982b9acf10d063" target="_top" xlink:title="Assigns an event to a presentation view. ">
<polygon fill="white" stroke="black" points="351.5,-51 351.5,-92 470.5,-92 470.5,-51 351.5,-51"/>
<text text-anchor="start" x="359.5" y="-80" font-family="Helvetica,sans-Serif" font-size="10.00">scram::gui::diagram</text>
<text text-anchor="start" x="359.5" y="-69" font-family="Helvetica,sans-Serif" font-size="10.00">::UndevelopedEvent::</text>
<text text-anchor="middle" x="411" y="-58" font-family="Helvetica,sans-Serif" font-size="10.00">UndevelopedEvent</text>
</a>
</g>
</g>
<!-- Node1&#45;&gt;Node13 -->
<g id="edge21" class="edge"><title>Node1&#45;&gt;Node13</title>
<path fill="none" stroke="midnightblue" d="M64.3102,-242.399C75.5089,-206.332 101.459,-140.657 149,-108.5 209.084,-67.8587 294.818,-63.3593 351.407,-65.8273"/>
<polygon fill="midnightblue" stroke="midnightblue" points="60.905,-241.572 61.4185,-252.154 67.6164,-243.561 60.905,-241.572"/>
</g>
<!-- Node14 -->
<g id="node14" class="node"><title>Node14</title>
<g id="a_node14"><a xlink:href="classscram_1_1gui_1_1diagram_1_1Event.xhtml#a15522fb056ce3877d83d27c4f1465a9b" target="_top" xlink:title="scram::gui::diagram\l::Event::width">
<polygon fill="white" stroke="black" points="169.5,-0.5 169.5,-30.5 282.5,-30.5 282.5,-0.5 169.5,-0.5"/>
<text text-anchor="start" x="177.5" y="-18.5" font-family="Helvetica,sans-Serif" font-size="10.00">scram::gui::diagram</text>
<text text-anchor="middle" x="226" y="-7.5" font-family="Helvetica,sans-Serif" font-size="10.00">::Event::width</text>
</a>
</g>
</g>
<!-- Node1&#45;&gt;Node14 -->
<g id="edge22" class="edge"><title>Node1&#45;&gt;Node14</title>
<path fill="none" stroke="midnightblue" d="M61.2674,-242.433C69.3318,-197.162 92.3642,-101.293 149,-45.5 155.164,-39.4274 162.706,-34.5455 170.619,-30.6316"/>
<polygon fill="midnightblue" stroke="midnightblue" points="57.8153,-241.857 59.6068,-252.299 64.7182,-243.019 57.8153,-241.857"/>
</g>
<!-- Node7&#45;&gt;Node6 -->
<g id="edge7" class="edge"><title>Node7&#45;&gt;Node6</title>
<path fill="none" stroke="midnightblue" d="M313.155,-376.551C327.142,-373.8 341.297,-371.015 354.305,-368.456"/>
<polygon fill="midnightblue" stroke="midnightblue" points="312.155,-373.181 303.019,-378.546 313.506,-380.049 312.155,-373.181"/>
</g>
<!-- Node8&#45;&gt;Node2 -->
<g id="edge9" class="edge"><title>Node8&#45;&gt;Node2</title>
<path fill="none" stroke="midnightblue" d="M475.554,-268.986C478.127,-270.396 480.622,-271.899 483,-273.5 522.767,-300.267 555.976,-347.359 571.338,-371.422"/>
<polygon fill="midnightblue" stroke="midnightblue" points="477.071,-265.832 466.555,-264.542 473.971,-272.108 477.071,-265.832"/>
</g>
<!-- Node11&#45;&gt;Node3 -->
<g id="edge13" class="edge"><title>Node11&#45;&gt;Node3</title>
<path fill="none" stroke="midnightblue" d="M247.896,-290.192C269.89,-313.732 305.854,-351.258 339,-381.5 355.696,-396.733 375.715,-412.912 390.234,-424.301"/>
<polygon fill="midnightblue" stroke="midnightblue" points="250.371,-287.714 240.998,-282.777 245.246,-292.482 250.371,-287.714"/>
</g>
<!-- Node11&#45;&gt;Node5 -->
<g id="edge14" class="edge"><title>Node11&#45;&gt;Node5</title>
<path fill="none" stroke="midnightblue" d="M303.068,-282.464C320.231,-285.841 338.141,-289.364 354.286,-292.54"/>
<polygon fill="midnightblue" stroke="midnightblue" points="303.555,-278.993 293.067,-280.497 302.204,-285.861 303.555,-278.993"/>
</g>
<!-- Node11&#45;&gt;Node6 -->
<g id="edge15" class="edge"><title>Node11&#45;&gt;Node6</title>
<path fill="none" stroke="midnightblue" d="M257.987,-288.115C279.965,-302.143 310.502,-320.456 339,-333.5 345.98,-336.695 353.515,-339.692 360.976,-342.413"/>
<polygon fill="midnightblue" stroke="midnightblue" points="259.718,-285.067 249.418,-282.586 255.923,-290.949 259.718,-285.067"/>
</g>
<!-- Node11&#45;&gt;Node8 -->
<g id="edge16" class="edge"><title>Node11&#45;&gt;Node8</title>
<path fill="none" stroke="midnightblue" d="M303.24,-260.001C316.683,-258.679 330.58,-257.312 343.723,-256.019"/>
<polygon fill="midnightblue" stroke="midnightblue" points="302.677,-256.539 293.067,-261.002 303.362,-263.506 302.677,-256.539"/>
</g>
<!-- Node11&#45;&gt;Node9 -->
<g id="edge17" class="edge"><title>Node11&#45;&gt;Node9</title>
<path fill="none" stroke="midnightblue" d="M275.237,-248.785C305.213,-237.155 343.237,-222.403 371.246,-211.536"/>
<polygon fill="midnightblue" stroke="midnightblue" points="273.867,-245.563 265.81,-252.443 276.399,-252.089 273.867,-245.563"/>
</g>
<!-- Node11&#45;&gt;Node12 -->
<g id="edge18" class="edge"><title>Node11&#45;&gt;Node12</title>
<path fill="none" stroke="midnightblue" d="M252.978,-245.916C267.729,-233.588 286.49,-217.785 303,-203.5 319.189,-189.493 320.967,-183.037 339,-171.5 348.404,-165.484 359.173,-160.11 369.434,-155.594"/>
<polygon fill="midnightblue" stroke="midnightblue" points="250.672,-243.283 245.235,-252.377 255.156,-248.657 250.672,-243.283"/>
</g>
<!-- Node11&#45;&gt;Node13 -->
<g id="edge19" class="edge"><title>Node11&#45;&gt;Node13</title>
<path fill="none" stroke="midnightblue" d="M259.046,-246.062C273.969,-234.801 291.028,-219.933 303,-203.5 327.882,-169.345 311.707,-147.761 339,-115.5 346.774,-106.311 356.97,-98.4553 367.201,-92.0343"/>
<polygon fill="midnightblue" stroke="midnightblue" points="256.572,-243.535 250.561,-252.259 260.7,-249.187 256.572,-243.535"/>
</g>
</g>
</svg>
        <g id="navigator" transform="translate(0 0)" fill="#404254">
                <rect fill="#f2f5e9" fill-opacity="0.5" stroke="#606060" stroke-width=".5" x="0" y="0" width="60" height="60"/>
                <use id="zoomplus" xlink:href="#zoomPlus" x="17" y="9" onmousedown="handleZoom(evt,'in')"/>
                <use id="zoomminus" xlink:href="#zoomMin" x="42" y="9" onmousedown="handleZoom(evt,'out')"/>
                <use id="reset" xlink:href="#resetDef" x="30" y="36" onmousedown="handleReset()"/>
                <g id="arrowUp" xlink:href="#dirArrow" transform="translate(30 24)" onmousedown="handlePan(0,-1)">
                  <use xlink:href="#rim" fill="#404040">
                        <set attributeName="fill" to="#808080" begin="arrowUp.mouseover" end="arrowUp.mouseout"/>
                  </use>
                  <path fill="none" stroke="white" stroke-width="1.5" d="M0,-3.0v7 M-2.5,-0.5L0,-3.0L2.5,-0.5"/>
                </g>
                <g id="arrowRight" xlink:href="#dirArrow" transform="rotate(90) translate(36 -43)" onmousedown="handlePan(1,0)">
                  <use xlink:href="#rim" fill="#404040">
                        <set attributeName="fill" to="#808080" begin="arrowRight.mouseover" end="arrowRight.mouseout"/>
                  </use>
                  <path fill="none" stroke="white" stroke-width="1.5" d="M0,-3.0v7 M-2.5,-0.5L0,-3.0L2.5,-0.5"/>
                </g>
                <g id="arrowDown" xlink:href="#dirArrow" transform="rotate(180) translate(-30 -48)" onmousedown="handlePan(0,1)">
                  <use xlink:href="#rim" fill="#404040">
                        <set attributeName="fill" to="#808080" begin="arrowDown.mouseover" end="arrowDown.mouseout"/>
                  </use>
                  <path fill="none" stroke="white" stroke-width="1.5" d="M0,-3.0v7 M-2.5,-0.5L0,-3.0L2.5,-0.5"/>
                </g>
                <g id="arrowLeft" xlink:href="#dirArrow" transform="rotate(270) translate(-36 17)" onmousedown="handlePan(-1,0)">
                  <use xlink:href="#rim" fill="#404040">
                        <set attributeName="fill" to="#808080" begin="arrowLeft.mouseover" end="arrowLeft.mouseout"/>
                  </use>
                  <path fill="none" stroke="white" stroke-width="1.5" d="M0,-3.0v7 M-2.5,-0.5L0,-3.0L2.5,-0.5"/>
                </g>
        </g>
        <svg viewBox="0 0 15 15" width="100%" height="30px" preserveAspectRatio="xMaxYMin meet">
         <g id="arrow_out" transform="scale(0.3 0.3)">
          <a xlink:href="classscram_1_1gui_1_1diagram_1_1Event_a29eb38d7ae8c6258de2a2bcc69f79046_icgraph_org.svg" target="_base">
           <rect id="button" ry="5" rx="5" y="6" x="6" height="38" width="38"
                fill="#f2f5e9" fill-opacity="0.5" stroke="#606060" stroke-width="1.0"/>
           <path id="arrow"
             d="M 11.500037,31.436501 C 11.940474,20.09759 22.043105,11.32322 32.158766,21.979434 L 37.068811,17.246167 C 37.068811,17.246167 37.088388,32 37.088388,32 L 22.160133,31.978069 C 22.160133,31.978069 26.997745,27.140456 26.997745,27.140456 C 18.528582,18.264221 13.291696,25.230495 11.500037,31.436501 z"
             style="fill:#404040;"/>
          </a>
         </g>
        </svg>
</svg>
