<?xml version="1.0" encoding="UTF-8" standalone="no"?>
<!DOCTYPE svg PUBLIC "-//W3C//DTD SVG 1.1//EN"
 "http://www.w3.org/Graphics/SVG/1.1/DTD/svg11.dtd">
<!-- Generated by graphviz version 2.38.0 (20140413.2041)
 -->
<!-- Title: scram::gui::model::Proxy&lt; E, T &gt; Pages: 1 -->
<svg width="626pt" height="618pt"
 viewBox="0.00 0.00 626.00 618.00" xmlns="http://www.w3.org/2000/svg" xmlns:xlink="http://www.w3.org/1999/xlink">
<g id="graph0" class="graph" transform="scale(1 1) rotate(0) translate(4 614)">
<title>scram::gui::model::Proxy&lt; E, T &gt;</title>
<polygon fill="white" stroke="none" points="-4,4 -4,-614 622,-614 622,4 -4,4"/>
<!-- Node1 -->
<g id="node1" class="node"><title>Node1</title>
<polygon fill="#bfbfbf" stroke="black" points="243,-508.5 243,-609.5 352,-609.5 352,-508.5 243,-508.5"/>
<text text-anchor="start" x="251" y="-597.5" font-family="Helvetica,sans-Serif" font-size="10.00">scram::gui::model::</text>
<text text-anchor="middle" x="297.5" y="-586.5" font-family="Helvetica,sans-Serif" font-size="10.00">Proxy&lt; E, T &gt;</text>
<polyline fill="none" stroke="black" points="243,-579.5 352,-579.5 "/>
<text text-anchor="middle" x="297.5" y="-567.5" font-family="Helvetica,sans-Serif" font-size="10.00"> </text>
<polyline fill="none" stroke="black" points="243,-560.5 352,-560.5 "/>
<text text-anchor="start" x="251" y="-548.5" font-family="Helvetica,sans-Serif" font-size="10.00">+ data()</text>
<text text-anchor="start" x="251" y="-537.5" font-family="Helvetica,sans-Serif" font-size="10.00">+ data()</text>
<text text-anchor="start" x="251" y="-526.5" font-family="Helvetica,sans-Serif" font-size="10.00">* data()</text>
<text text-anchor="start" x="251" y="-515.5" font-family="Helvetica,sans-Serif" font-size="10.00">* data()</text>
</g>
<!-- Node2 -->
<g id="node2" class="node"><title>Node2</title>
<g id="a_node2"><a xlink:href="classscram_1_1gui_1_1model_1_1Proxy.xhtml" target="_top" xlink:title="{scram::gui::model::\lProxy\&lt; HouseEvent, mef\l::HouseEvent \&gt;\n||+ data()\l+ data()\l* data()\l* data()\l}">
<polygon fill="white" stroke="black" points="0,-337.5 0,-449.5 137,-449.5 137,-337.5 0,-337.5"/>
<text text-anchor="start" x="8" y="-437.5" font-family="Helvetica,sans-Serif" font-size="10.00">scram::gui::model::</text>
<text text-anchor="start" x="8" y="-426.5" font-family="Helvetica,sans-Serif" font-size="10.00">Proxy&lt; HouseEvent, mef</text>
<text text-anchor="middle" x="68.5" y="-415.5" font-family="Helvetica,sans-Serif" font-size="10.00">::HouseEvent &gt;</text>
<polyline fill="none" stroke="black" points="0,-408.5 137,-408.5 "/>
<text text-anchor="middle" x="68.5" y="-396.5" font-family="Helvetica,sans-Serif" font-size="10.00"> </text>
<polyline fill="none" stroke="black" points="0,-389.5 137,-389.5 "/>
<text text-anchor="start" x="8" y="-377.5" font-family="Helvetica,sans-Serif" font-size="10.00">+ data()</text>
<text text-anchor="start" x="8" y="-366.5" font-family="Helvetica,sans-Serif" font-size="10.00">+ data()</text>
<text text-anchor="start" x="8" y="-355.5" font-family="Helvetica,sans-Serif" font-size="10.00">* data()</text>
<text text-anchor="start" x="8" y="-344.5" font-family="Helvetica,sans-Serif" font-size="10.00">* data()</text>
</a>
</g>
</g>
<!-- Node1&#45;&gt;Node2 -->
<g id="edge1" class="edge"><title>Node1&#45;&gt;Node2</title>
<path fill="none" stroke="orange" d="M233.126,-541.557C200.19,-530.821 160.947,-514.215 131.5,-490 118,-478.898 106.336,-464.144 96.8425,-449.561"/>
<polygon fill="orange" stroke="orange" points="232.091,-544.9 242.68,-544.567 234.194,-538.224 232.091,-544.9"/>
<text text-anchor="start" x="131.5" y="-482" font-family="Helvetica,sans-Serif" font-size="10.00"> &lt; HouseEvent, mef::</text>
<text text-anchor="middle" x="183" y="-471" font-family="Helvetica,sans-Serif" font-size="10.00">HouseEvent &gt;</text>
</g>
<!-- Node4 -->
<g id="node4" class="node"><title>Node4</title>
<g id="a_node4"><a xlink:href="classscram_1_1gui_1_1model_1_1Proxy.xhtml" target="_top" xlink:title="{scram::gui::model::\lProxy\&lt; BasicEvent, mef\l::BasicEvent \&gt;\n||+ data()\l+ data()\l* data()\l* data()\l}">
<polygon fill="white" stroke="black" points="155,-337.5 155,-449.5 286,-449.5 286,-337.5 155,-337.5"/>
<text text-anchor="start" x="163" y="-437.5" font-family="Helvetica,sans-Serif" font-size="10.00">scram::gui::model::</text>
<text text-anchor="start" x="163" y="-426.5" font-family="Helvetica,sans-Serif" font-size="10.00">Proxy&lt; BasicEvent, mef</text>
<text text-anchor="middle" x="220.5" y="-415.5" font-family="Helvetica,sans-Serif" font-size="10.00">::BasicEvent &gt;</text>
<polyline fill="none" stroke="black" points="155,-408.5 286,-408.5 "/>
<text text-anchor="middle" x="220.5" y="-396.5" font-family="Helvetica,sans-Serif" font-size="10.00"> </text>
<polyline fill="none" stroke="black" points="155,-389.5 286,-389.5 "/>
<text text-anchor="start" x="163" y="-377.5" font-family="Helvetica,sans-Serif" font-size="10.00">+ data()</text>
<text text-anchor="start" x="163" y="-366.5" font-family="Helvetica,sans-Serif" font-size="10.00">+ data()</text>
<text text-anchor="start" x="163" y="-355.5" font-family="Helvetica,sans-Serif" font-size="10.00">* data()</text>
<text text-anchor="start" x="163" y="-344.5" font-family="Helvetica,sans-Serif" font-size="10.00">* data()</text>
</a>
</g>
</g>
<!-- Node1&#45;&gt;Node4 -->
<g id="edge3" class="edge"><title>Node1&#45;&gt;Node4</title>
<path fill="none" stroke="orange" d="M251.814,-499.903C249.906,-496.622 248.118,-493.31 246.5,-490 240.388,-477.495 235.54,-463.343 231.769,-449.838"/>
<polygon fill="orange" stroke="orange" points="248.886,-501.822 257.116,-508.494 254.843,-498.146 248.886,-501.822"/>
<text text-anchor="start" x="246.5" y="-482" font-family="Helvetica,sans-Serif" font-size="10.00"> &lt; BasicEvent, mef::</text>
<text text-anchor="middle" x="295.5" y="-471" font-family="Helvetica,sans-Serif" font-size="10.00">BasicEvent &gt;</text>
</g>
<!-- Node6 -->
<g id="node6" class="node"><title>Node6</title>
<g id="a_node6"><a xlink:href="classscram_1_1gui_1_1model_1_1Proxy.xhtml" target="_top" xlink:title="{scram::gui::model::\lProxy\&lt; Gate, mef::Gate \&gt;\n||+ data()\l+ data()\l* data()\l* data()\l}">
<polygon fill="white" stroke="black" points="304,-343 304,-444 447,-444 447,-343 304,-343"/>
<text text-anchor="start" x="312" y="-432" font-family="Helvetica,sans-Serif" font-size="10.00">scram::gui::model::</text>
<text text-anchor="middle" x="375.5" y="-421" font-family="Helvetica,sans-Serif" font-size="10.00">Proxy&lt; Gate, mef::Gate &gt;</text>
<polyline fill="none" stroke="black" points="304,-414 447,-414 "/>
<text text-anchor="middle" x="375.5" y="-402" font-family="Helvetica,sans-Serif" font-size="10.00"> </text>
<polyline fill="none" stroke="black" points="304,-395 447,-395 "/>
<text text-anchor="start" x="312" y="-383" font-family="Helvetica,sans-Serif" font-size="10.00">+ data()</text>
<text text-anchor="start" x="312" y="-372" font-family="Helvetica,sans-Serif" font-size="10.00">+ data()</text>
<text text-anchor="start" x="312" y="-361" font-family="Helvetica,sans-Serif" font-size="10.00">* data()</text>
<text text-anchor="start" x="312" y="-350" font-family="Helvetica,sans-Serif" font-size="10.00">* data()</text>
</a>
</g>
</g>
<!-- Node1&#45;&gt;Node6 -->
<g id="edge5" class="edge"><title>Node1&#45;&gt;Node6</title>
<path fill="none" stroke="orange" d="M339.525,-499.378C341.287,-496.254 342.958,-493.117 344.5,-490 351.61,-475.625 357.613,-459.248 362.387,-444.165"/>
<polygon fill="orange" stroke="orange" points="336.43,-497.735 334.35,-508.124 342.454,-501.3 336.43,-497.735"/>
<text text-anchor="middle" x="405" y="-476.5" font-family="Helvetica,sans-Serif" font-size="10.00"> &lt; Gate, mef::Gate &gt;</text>
</g>
<!-- Node8 -->
<g id="node8" class="node"><title>Node8</title>
<g id="a_node8"><a xlink:href="classscram_1_1gui_1_1model_1_1Proxy.xhtml" target="_top" xlink:title="{scram::gui::model::\lProxy\&lt; Model, mef::Model \&gt;\n||+ data()\l+ data()\l* data()\l* data()\l}">
<polygon fill="white" stroke="black" points="465,-343 465,-444 618,-444 618,-343 465,-343"/>
<text text-anchor="start" x="473" y="-432" font-family="Helvetica,sans-Serif" font-size="10.00">scram::gui::model::</text>
<text text-anchor="middle" x="541.5" y="-421" font-family="Helvetica,sans-Serif" font-size="10.00">Proxy&lt; Model, mef::Model &gt;</text>
<polyline fill="none" stroke="black" points="465,-414 618,-414 "/>
<text text-anchor="middle" x="541.5" y="-402" font-family="Helvetica,sans-Serif" font-size="10.00"> </text>
<polyline fill="none" stroke="black" points="465,-395 618,-395 "/>
<text text-anchor="start" x="473" y="-383" font-family="Helvetica,sans-Serif" font-size="10.00">+ data()</text>
<text text-anchor="start" x="473" y="-372" font-family="Helvetica,sans-Serif" font-size="10.00">+ data()</text>
<text text-anchor="start" x="473" y="-361" font-family="Helvetica,sans-Serif" font-size="10.00">* data()</text>
<text text-anchor="start" x="473" y="-350" font-family="Helvetica,sans-Serif" font-size="10.00">* data()</text>
</a>
</g>
</g>
<!-- Node1&#45;&gt;Node8 -->
<g id="edge7" class="edge"><title>Node1&#45;&gt;Node8</title>
<path fill="none" stroke="orange" d="M361.778,-539.098C393.36,-527.913 430.89,-511.648 460.5,-490 477.699,-477.426 493.6,-460.483 506.677,-444.36"/>
<polygon fill="orange" stroke="orange" points="360.496,-535.838 352.183,-542.407 362.778,-542.456 360.496,-535.838"/>
<text text-anchor="middle" x="541.5" y="-476.5" font-family="Helvetica,sans-Serif" font-size="10.00"> &lt; Model, mef::Model &gt;</text>
</g>
<!-- Node3 -->
<g id="node3" class="node"><title>Node3</title>
<g id="a_node3"><a xlink:href="classscram_1_1gui_1_1model_1_1HouseEvent.xhtml" target="_top" xlink:title="The proxy to manage mef::HouseEvent. ">
<polygon fill="white" stroke="black" points="14,-110.5 14,-189.5 123,-189.5 123,-110.5 14,-110.5"/>
<text text-anchor="start" x="22" y="-177.5" font-family="Helvetica,sans-Serif" font-size="10.00">scram::gui::model::</text>
<text text-anchor="middle" x="68.5" y="-166.5" font-family="Helvetica,sans-Serif" font-size="10.00">HouseEvent</text>
<polyline fill="none" stroke="black" points="14,-159.5 123,-159.5 "/>
<text text-anchor="middle" x="68.5" y="-147.5" font-family="Helvetica,sans-Serif" font-size="10.00"> </text>
<polyline fill="none" stroke="black" points="14,-140.5 123,-140.5 "/>
<text text-anchor="start" x="22" y="-128.5" font-family="Helvetica,sans-Serif" font-size="10.00">+ HouseEvent()</text>
<text text-anchor="start" x="22" y="-117.5" font-family="Helvetica,sans-Serif" font-size="10.00">+ state()</text>
</a>
</g>
</g>
<!-- Node2&#45;&gt;Node3 -->
<g id="edge2" class="edge"><title>Node2&#45;&gt;Node3</title>
<path fill="none" stroke="midnightblue" d="M68.5,-327.359C68.5,-283.355 68.5,-226.745 68.5,-189.694"/>
<polygon fill="none" stroke="midnightblue" points="65.0001,-327.398 68.5,-337.398 72.0001,-327.398 65.0001,-327.398"/>
</g>
<!-- Node5 -->
<g id="node5" class="node"><title>Node5</title>
<g id="a_node5"><a xlink:href="classscram_1_1gui_1_1model_1_1BasicEvent.xhtml" target="_top" xlink:title="The proxy to manage mef::BasicEvent. ">
<polygon fill="white" stroke="black" points="166,-94 166,-206 275,-206 275,-94 166,-94"/>
<text text-anchor="start" x="174" y="-194" font-family="Helvetica,sans-Serif" font-size="10.00">scram::gui::model::</text>
<text text-anchor="middle" x="220.5" y="-183" font-family="Helvetica,sans-Serif" font-size="10.00">BasicEvent</text>
<polyline fill="none" stroke="black" points="166,-176 275,-176 "/>
<text text-anchor="middle" x="220.5" y="-164" font-family="Helvetica,sans-Serif" font-size="10.00"> </text>
<polyline fill="none" stroke="black" points="166,-157 275,-157 "/>
<text text-anchor="start" x="174" y="-145" font-family="Helvetica,sans-Serif" font-size="10.00">+ BasicEvent()</text>
<text text-anchor="start" x="174" y="-134" font-family="Helvetica,sans-Serif" font-size="10.00">+ flavor()</text>
<text text-anchor="start" x="174" y="-123" font-family="Helvetica,sans-Serif" font-size="10.00">+ expression()</text>
<text text-anchor="start" x="174" y="-112" font-family="Helvetica,sans-Serif" font-size="10.00">+ probability()</text>
<text text-anchor="start" x="174" y="-101" font-family="Helvetica,sans-Serif" font-size="10.00">+ flavorToString()</text>
</a>
</g>
</g>
<!-- Node4&#45;&gt;Node5 -->
<g id="edge4" class="edge"><title>Node4&#45;&gt;Node5</title>
<path fill="none" stroke="midnightblue" d="M220.5,-326.999C220.5,-289.204 220.5,-242.204 220.5,-206.283"/>
<polygon fill="none" stroke="midnightblue" points="217,-327.398 220.5,-337.398 224,-327.398 217,-327.398"/>
</g>
<!-- Node7 -->
<g id="node7" class="node"><title>Node7</title>
<g id="a_node7"><a xlink:href="classscram_1_1gui_1_1model_1_1Gate.xhtml" target="_top" xlink:title="The proxy to manage mef::Gate. ">
<polygon fill="white" stroke="black" points="309.5,-99.5 309.5,-200.5 441.5,-200.5 441.5,-99.5 309.5,-99.5"/>
<text text-anchor="middle" x="375.5" y="-188.5" font-family="Helvetica,sans-Serif" font-size="10.00">scram::gui::model::Gate</text>
<polyline fill="none" stroke="black" points="309.5,-181.5 441.5,-181.5 "/>
<text text-anchor="middle" x="375.5" y="-169.5" font-family="Helvetica,sans-Serif" font-size="10.00"> </text>
<polyline fill="none" stroke="black" points="309.5,-162.5 441.5,-162.5 "/>
<text text-anchor="start" x="317.5" y="-150.5" font-family="Helvetica,sans-Serif" font-size="10.00">+ Gate()</text>
<text text-anchor="start" x="317.5" y="-139.5" font-family="Helvetica,sans-Serif" font-size="10.00">+ type()</text>
<text text-anchor="start" x="317.5" y="-128.5" font-family="Helvetica,sans-Serif" font-size="10.00">+ numArgs()</text>
<text text-anchor="start" x="317.5" y="-117.5" font-family="Helvetica,sans-Serif" font-size="10.00">+ voteNumber()</text>
<text text-anchor="start" x="317.5" y="-106.5" font-family="Helvetica,sans-Serif" font-size="10.00">+ args()</text>
</a>
</g>
</g>
<!-- Node6&#45;&gt;Node7 -->
<g id="edge6" class="edge"><title>Node6&#45;&gt;Node7</title>
<path fill="none" stroke="midnightblue" d="M375.5,-332.711C375.5,-292.085 375.5,-238.979 375.5,-200.682"/>
<polygon fill="none" stroke="midnightblue" points="372,-332.754 375.5,-342.754 379,-332.754 372,-332.754"/>
</g>
<!-- Node9 -->
<g id="node9" class="node"><title>Node9</title>
<g id="a_node9"><a xlink:href="classscram_1_1gui_1_1model_1_1Model.xhtml" target="_top" xlink:title="The wrapper around the MEF Model. ">
<polygon fill="white" stroke="black" points="487,-0.5 487,-299.5 596,-299.5 596,-0.5 487,-0.5"/>
<text text-anchor="start" x="495" y="-287.5" font-family="Helvetica,sans-Serif" font-size="10.00">scram::gui::model::</text>
<text text-anchor="middle" x="541.5" y="-276.5" font-family="Helvetica,sans-Serif" font-size="10.00">Model</text>
<polyline fill="none" stroke="black" points="487,-269.5 596,-269.5 "/>
<text text-anchor="middle" x="541.5" y="-257.5" font-family="Helvetica,sans-Serif" font-size="10.00"> </text>
<polyline fill="none" stroke="black" points="487,-250.5 596,-250.5 "/>
<text text-anchor="start" x="495" y="-238.5" font-family="Helvetica,sans-Serif" font-size="10.00">+ Model()</text>
<text text-anchor="start" x="495" y="-227.5" font-family="Helvetica,sans-Serif" font-size="10.00">+ table()</text>
<text text-anchor="start" x="495" y="-216.5" font-family="Helvetica,sans-Serif" font-size="10.00">+ parents()</text>
<text text-anchor="start" x="495" y="-205.5" font-family="Helvetica,sans-Serif" font-size="10.00">+ houseEvents()</text>
<text text-anchor="start" x="495" y="-194.5" font-family="Helvetica,sans-Serif" font-size="10.00">+ basicEvents()</text>
<text text-anchor="start" x="495" y="-183.5" font-family="Helvetica,sans-Serif" font-size="10.00">+ gates()</text>
<text text-anchor="start" x="495" y="-172.5" font-family="Helvetica,sans-Serif" font-size="10.00">+ faultTrees()</text>
<text text-anchor="start" x="495" y="-161.5" font-family="Helvetica,sans-Serif" font-size="10.00">* houseEvents()</text>
<text text-anchor="start" x="495" y="-150.5" font-family="Helvetica,sans-Serif" font-size="10.00">* basicEvents()</text>
<text text-anchor="start" x="495" y="-139.5" font-family="Helvetica,sans-Serif" font-size="10.00">* gates()</text>
<text text-anchor="start" x="495" y="-128.5" font-family="Helvetica,sans-Serif" font-size="10.00">* faultTrees()</text>
<text text-anchor="start" x="495" y="-117.5" font-family="Helvetica,sans-Serif" font-size="10.00">* added()</text>
<text text-anchor="start" x="495" y="-106.5" font-family="Helvetica,sans-Serif" font-size="10.00">* added()</text>
<text text-anchor="start" x="495" y="-95.5" font-family="Helvetica,sans-Serif" font-size="10.00">* added()</text>
<text text-anchor="start" x="495" y="-84.5" font-family="Helvetica,sans-Serif" font-size="10.00">* added()</text>
<text text-anchor="start" x="495" y="-73.5" font-family="Helvetica,sans-Serif" font-size="10.00">* removed()</text>
<text text-anchor="start" x="495" y="-62.5" font-family="Helvetica,sans-Serif" font-size="10.00">* removed()</text>
<text text-anchor="start" x="495" y="-51.5" font-family="Helvetica,sans-Serif" font-size="10.00">* removed()</text>
<text text-anchor="start" x="495" y="-40.5" font-family="Helvetica,sans-Serif" font-size="10.00">* removed()</text>
<text text-anchor="start" x="495" y="-29.5" font-family="Helvetica,sans-Serif" font-size="10.00">* m_houseEvents</text>
<text text-anchor="start" x="495" y="-18.5" font-family="Helvetica,sans-Serif" font-size="10.00">* m_basicEvents</text>
<text text-anchor="start" x="495" y="-7.5" font-family="Helvetica,sans-Serif" font-size="10.00">* m_gates</text>
</a>
</g>
</g>
<!-- Node8&#45;&gt;Node9 -->
<g id="edge8" class="edge"><title>Node8&#45;&gt;Node9</title>
<path fill="none" stroke="midnightblue" d="M541.5,-332.718C541.5,-322.396 541.5,-311.269 541.5,-299.784"/>
<polygon fill="none" stroke="midnightblue" points="538,-332.754 541.5,-342.754 545,-332.754 538,-332.754"/>
</g>
</g>
</svg>
