<?xml version="1.0" encoding="UTF-8" standalone="no"?>
<!DOCTYPE svg PUBLIC "-//W3C//DTD SVG 1.1//EN"
 "http://www.w3.org/Graphics/SVG/1.1/DTD/svg11.dtd">
<!-- Generated by graphviz version 2.38.0 (20140413.2041)
 -->
<!-- Title: scram::gui::diagram::Event::setTypeGraphics Pages: 1 -->
<svg width="483pt" height="354pt"
 viewBox="0.00 0.00 483.00 353.50" xmlns="http://www.w3.org/2000/svg" xmlns:xlink="http://www.w3.org/1999/xlink">
<g id="graph0" class="graph" transform="scale(1 1) rotate(0) translate(4 349.5)">
<title>scram::gui::diagram::Event::setTypeGraphics</title>
<polygon fill="white" stroke="none" points="-4,4 -4,-349.5 479,-349.5 479,4 -4,4"/>
<!-- Node1 -->
<g id="node1" class="node"><title>Node1</title>
<polygon fill="#bfbfbf" stroke="black" points="0,-158 0,-188 134,-188 134,-158 0,-158"/>
<text text-anchor="start" x="8" y="-176" font-family="Helvetica,sans-Serif" font-size="10.00">scram::gui::diagram</text>
<text text-anchor="middle" x="67" y="-165" font-family="Helvetica,sans-Serif" font-size="10.00">::Event::setTypeGraphics</text>
</g>
<!-- Node2 -->
<g id="node2" class="node"><title>Node2</title>
<g id="a_node2"><a xlink:href="classscram_1_1gui_1_1diagram_1_1BasicEvent.xhtml#a8d42e9b3c6a1f1dc7c764da03aa2134e" target="_top" xlink:title="Assigns an event to a presentation view. ">
<polygon fill="white" stroke="black" points="175,-315 175,-345 309,-345 309,-315 175,-315"/>
<text text-anchor="start" x="183" y="-333" font-family="Helvetica,sans-Serif" font-size="10.00">scram::gui::diagram</text>
<text text-anchor="middle" x="242" y="-322" font-family="Helvetica,sans-Serif" font-size="10.00">::BasicEvent::BasicEvent</text>
</a>
</g>
</g>
<!-- Node1&#45;&gt;Node2 -->
<g id="edge1" class="edge"><title>Node1&#45;&gt;Node2</title>
<path fill="none" stroke="midnightblue" d="M80.4928,-196.972C97.118,-226.641 129.22,-276.809 170,-306 174.761,-309.408 180.042,-312.36 185.513,-314.91"/>
<polygon fill="midnightblue" stroke="midnightblue" points="83.5164,-195.206 75.6474,-188.112 77.3748,-198.565 83.5164,-195.206"/>
</g>
<!-- Node3 -->
<g id="node3" class="node"><title>Node3</title>
<g id="a_node3"><a xlink:href="classscram_1_1gui_1_1diagram_1_1ConditionalEvent.xhtml#a87f483e907b2feecb3b44989dbce44d1" target="_top" xlink:title="Assigns an event to a presentation view. ">
<polygon fill="white" stroke="black" points="185.5,-255.5 185.5,-296.5 298.5,-296.5 298.5,-255.5 185.5,-255.5"/>
<text text-anchor="start" x="193.5" y="-284.5" font-family="Helvetica,sans-Serif" font-size="10.00">scram::gui::diagram</text>
<text text-anchor="start" x="193.5" y="-273.5" font-family="Helvetica,sans-Serif" font-size="10.00">::ConditionalEvent::</text>
<text text-anchor="middle" x="242" y="-262.5" font-family="Helvetica,sans-Serif" font-size="10.00">ConditionalEvent</text>
</a>
</g>
</g>
<!-- Node1&#45;&gt;Node3 -->
<g id="edge2" class="edge"><title>Node1&#45;&gt;Node3</title>
<path fill="none" stroke="midnightblue" d="M93.8872,-194.469C113.838,-210.333 142.565,-231.737 170,-247 175.352,-249.978 181.074,-252.822 186.858,-255.484"/>
<polygon fill="midnightblue" stroke="midnightblue" points="95.8883,-191.587 85.9036,-188.044 91.4993,-197.04 95.8883,-191.587"/>
</g>
<!-- Node4 -->
<g id="node4" class="node"><title>Node4</title>
<g id="a_node4"><a xlink:href="classscram_1_1gui_1_1diagram_1_1Gate.xhtml#a2111abee08814f57bc5cdfd0452b8ec0" target="_top" xlink:title="Constructs the graph with the transfer symbols for gates. ">
<polygon fill="white" stroke="black" points="185.5,-207 185.5,-237 298.5,-237 298.5,-207 185.5,-207"/>
<text text-anchor="start" x="193.5" y="-225" font-family="Helvetica,sans-Serif" font-size="10.00">scram::gui::diagram</text>
<text text-anchor="middle" x="242" y="-214" font-family="Helvetica,sans-Serif" font-size="10.00">::Gate::Gate</text>
</a>
</g>
</g>
<!-- Node1&#45;&gt;Node4 -->
<g id="edge3" class="edge"><title>Node1&#45;&gt;Node4</title>
<path fill="none" stroke="midnightblue" d="M131.177,-190.894C149.785,-196.164 169.948,-201.876 187.859,-206.948"/>
<polygon fill="midnightblue" stroke="midnightblue" points="131.893,-187.459 121.317,-188.101 129.985,-194.194 131.893,-187.459"/>
</g>
<!-- Node5 -->
<g id="node5" class="node"><title>Node5</title>
<g id="a_node5"><a xlink:href="classscram_1_1gui_1_1diagram_1_1Event.xhtml#a0cec58c01e850dc2571dcecfe1261c8e" target="_top" xlink:title="scram::gui::diagram\l::Event::getTypeGraphics">
<polygon fill="white" stroke="black" points="175,-158 175,-188 309,-188 309,-158 175,-158"/>
<text text-anchor="start" x="183" y="-176" font-family="Helvetica,sans-Serif" font-size="10.00">scram::gui::diagram</text>
<text text-anchor="middle" x="242" y="-165" font-family="Helvetica,sans-Serif" font-size="10.00">::Event::getTypeGraphics</text>
</a>
</g>
</g>
<!-- Node1&#45;&gt;Node5 -->
<g id="edge4" class="edge"><title>Node1&#45;&gt;Node5</title>
<path fill="none" stroke="midnightblue" d="M144.429,-173C154.55,-173 164.857,-173 174.786,-173"/>
<polygon fill="midnightblue" stroke="midnightblue" points="144.392,-169.5 134.392,-173 144.392,-176.5 144.392,-169.5"/>
</g>
<!-- Node7 -->
<g id="node7" class="node"><title>Node7</title>
<g id="a_node7"><a xlink:href="classscram_1_1gui_1_1diagram_1_1HouseEvent.xhtml#aa0e8d4250c50e7795f15e7e67fd8da5c" target="_top" xlink:title="Assigns an event to a presentation view. ">
<polygon fill="white" stroke="black" points="170,-109 170,-139 314,-139 314,-109 170,-109"/>
<text text-anchor="start" x="178" y="-127" font-family="Helvetica,sans-Serif" font-size="10.00">scram::gui::diagram</text>
<text text-anchor="middle" x="242" y="-116" font-family="Helvetica,sans-Serif" font-size="10.00">::HouseEvent::HouseEvent</text>
</a>
</g>
</g>
<!-- Node1&#45;&gt;Node7 -->
<g id="edge6" class="edge"><title>Node1&#45;&gt;Node7</title>
<path fill="none" stroke="midnightblue" d="M131.177,-155.106C149.785,-149.836 169.948,-144.124 187.859,-139.052"/>
<polygon fill="midnightblue" stroke="midnightblue" points="129.985,-151.806 121.317,-157.899 131.893,-158.541 129.985,-151.806"/>
</g>
<!-- Node8 -->
<g id="node8" class="node"><title>Node8</title>
<g id="a_node8"><a xlink:href="classscram_1_1gui_1_1diagram_1_1TransferIn.xhtml#a2730a1fcb6263bbe58286e9b6082f642" target="_top" xlink:title="Assigns an event to a presentation view. ">
<polygon fill="white" stroke="black" points="182,-60 182,-90 302,-90 302,-60 182,-60"/>
<text text-anchor="start" x="190" y="-78" font-family="Helvetica,sans-Serif" font-size="10.00">scram::gui::diagram</text>
<text text-anchor="middle" x="242" y="-67" font-family="Helvetica,sans-Serif" font-size="10.00">::TransferIn::TransferIn</text>
</a>
</g>
</g>
<!-- Node1&#45;&gt;Node8 -->
<g id="edge7" class="edge"><title>Node1&#45;&gt;Node8</title>
<path fill="none" stroke="midnightblue" d="M93.7221,-151.456C113.587,-135.617 142.28,-114.426 170,-100 177.071,-96.3198 184.804,-92.974 192.481,-90.0122"/>
<polygon fill="midnightblue" stroke="midnightblue" points="91.3521,-148.871 85.7774,-157.88 95.7538,-154.314 91.3521,-148.871"/>
</g>
<!-- Node9 -->
<g id="node9" class="node"><title>Node9</title>
<g id="a_node9"><a xlink:href="classscram_1_1gui_1_1diagram_1_1UndevelopedEvent.xhtml#a5047cec2da3a7af805982b9acf10d063" target="_top" xlink:title="Assigns an event to a presentation view. ">
<polygon fill="white" stroke="black" points="182.5,-0.5 182.5,-41.5 301.5,-41.5 301.5,-0.5 182.5,-0.5"/>
<text text-anchor="start" x="190.5" y="-29.5" font-family="Helvetica,sans-Serif" font-size="10.00">scram::gui::diagram</text>
<text text-anchor="start" x="190.5" y="-18.5" font-family="Helvetica,sans-Serif" font-size="10.00">::UndevelopedEvent::</text>
<text text-anchor="middle" x="242" y="-7.5" font-family="Helvetica,sans-Serif" font-size="10.00">UndevelopedEvent</text>
</a>
</g>
</g>
<!-- Node1&#45;&gt;Node9 -->
<g id="edge8" class="edge"><title>Node1&#45;&gt;Node9</title>
<path fill="none" stroke="midnightblue" d="M82.6532,-149.448C100.438,-122.514 132.716,-78.5926 170,-51 174.625,-47.577 179.7,-44.4575 184.942,-41.6362"/>
<polygon fill="midnightblue" stroke="midnightblue" points="79.689,-147.586 77.1913,-157.882 85.5647,-151.391 79.689,-147.586"/>
</g>
<!-- Node6 -->
<g id="node6" class="node"><title>Node6</title>
<g id="a_node6"><a xlink:href="classscram_1_1gui_1_1diagram_1_1Gate.xhtml#a0d59d686a63ffaa23f6c121860354d4b" target="_top" xlink:title="Adds the transfer&#45;out symbol besides the gate shape. ">
<polygon fill="white" stroke="black" points="350,-158 350,-188 475,-188 475,-158 350,-158"/>
<text text-anchor="start" x="358" y="-176" font-family="Helvetica,sans-Serif" font-size="10.00">scram::gui::diagram</text>
<text text-anchor="middle" x="412.5" y="-165" font-family="Helvetica,sans-Serif" font-size="10.00">::Gate::addTransferOut</text>
</a>
</g>
</g>
<!-- Node5&#45;&gt;Node6 -->
<g id="edge5" class="edge"><title>Node5&#45;&gt;Node6</title>
<path fill="none" stroke="midnightblue" d="M319.307,-173C329.577,-173 340.006,-173 349.977,-173"/>
<polygon fill="midnightblue" stroke="midnightblue" points="319.112,-169.5 309.112,-173 319.112,-176.5 319.112,-169.5"/>
</g>
</g>
</svg>
