<?xml version="1.0" encoding="UTF-8" standalone="no"?>
<!DOCTYPE svg PUBLIC "-//W3C//DTD SVG 1.1//EN"
 "http://www.w3.org/Graphics/SVG/1.1/DTD/svg11.dtd">
<!-- Generated by graphviz version 2.38.0 (20140413.2041)
 -->
<!-- Title: scram::gui::MainWindow::setConfig Pages: 1 -->
<svg width="666pt" height="39pt"
 viewBox="0.00 0.00 666.00 39.00" xmlns="http://www.w3.org/2000/svg" xmlns:xlink="http://www.w3.org/1999/xlink">
<g id="graph0" class="graph" transform="scale(1 1) rotate(0) translate(4 35)">
<title>scram::gui::MainWindow::setConfig</title>
<polygon fill="white" stroke="none" points="-4,4 -4,-35 662,-35 662,4 -4,4"/>
<!-- Node1 -->
<g id="node1" class="node"><title>Node1</title>
<polygon fill="#bfbfbf" stroke="black" points="0,-0.5 0,-30.5 131,-30.5 131,-0.5 0,-0.5"/>
<text text-anchor="start" x="8" y="-18.5" font-family="Helvetica,sans-Serif" font-size="10.00">scram::gui::MainWindow</text>
<text text-anchor="middle" x="65.5" y="-7.5" font-family="Helvetica,sans-Serif" font-size="10.00">::setConfig</text>
</g>
<!-- Node2 -->
<g id="node2" class="node"><title>Node2</title>
<g id="a_node2"><a xlink:href="classscram_1_1gui_1_1MainWindow.xhtml#ad25ffda8b13e4743312f9a3cad96d271" target="_top" xlink:title="Adds a new set of model elements from input files. ">
<polygon fill="white" stroke="black" points="167,-0.5 167,-30.5 298,-30.5 298,-0.5 167,-0.5"/>
<text text-anchor="start" x="175" y="-18.5" font-family="Helvetica,sans-Serif" font-size="10.00">scram::gui::MainWindow</text>
<text text-anchor="middle" x="232.5" y="-7.5" font-family="Helvetica,sans-Serif" font-size="10.00">::addInputFiles</text>
</a>
</g>
</g>
<!-- Node1&#45;&gt;Node2 -->
<g id="edge1" class="edge"><title>Node1&#45;&gt;Node2</title>
<path fill="none" stroke="midnightblue" d="M131.239,-15.5C139.583,-15.5 148.182,-15.5 156.671,-15.5"/>
<polygon fill="midnightblue" stroke="midnightblue" points="156.948,-19.0001 166.948,-15.5 156.948,-12.0001 156.948,-19.0001"/>
</g>
<!-- Node3 -->
<g id="node3" class="node"><title>Node3</title>
<g id="a_node3"><a xlink:href="classscram_1_1gui_1_1ZoomableView.xhtml#a859d676e6600e263ae4487bc1845385d" target="_top" xlink:title="Automatically adjusts the zoom to fit the view into the current scene. ">
<polygon fill="white" stroke="black" points="334,-0.5 334,-30.5 478,-30.5 478,-0.5 334,-0.5"/>
<text text-anchor="start" x="342" y="-18.5" font-family="Helvetica,sans-Serif" font-size="10.00">scram::gui::ZoomableView</text>
<text text-anchor="middle" x="406" y="-7.5" font-family="Helvetica,sans-Serif" font-size="10.00">::zoomBestFit</text>
</a>
</g>
</g>
<!-- Node2&#45;&gt;Node3 -->
<g id="edge2" class="edge"><title>Node2&#45;&gt;Node3</title>
<path fill="none" stroke="midnightblue" d="M298.337,-15.5C306.564,-15.5 315.065,-15.5 323.51,-15.5"/>
<polygon fill="midnightblue" stroke="midnightblue" points="323.762,-19.0001 333.762,-15.5 323.762,-12.0001 323.762,-19.0001"/>
</g>
<!-- Node4 -->
<g id="node4" class="node"><title>Node4</title>
<g id="a_node4"><a xlink:href="classscram_1_1gui_1_1ZoomableView.xhtml#ace3d3caf7b6043cceaf2dfb176df9c8a" target="_top" xlink:title="Accepts requests to change the zoom to the given level. ">
<polygon fill="white" stroke="black" points="514,-0.5 514,-30.5 658,-30.5 658,-0.5 514,-0.5"/>
<text text-anchor="start" x="522" y="-18.5" font-family="Helvetica,sans-Serif" font-size="10.00">scram::gui::ZoomableView</text>
<text text-anchor="middle" x="586" y="-7.5" font-family="Helvetica,sans-Serif" font-size="10.00">::setZoom</text>
</a>
</g>
</g>
<!-- Node3&#45;&gt;Node4 -->
<g id="edge3" class="edge"><title>Node3&#45;&gt;Node4</title>
<path fill="none" stroke="midnightblue" d="M478.118,-15.5C486.609,-15.5 495.327,-15.5 503.944,-15.5"/>
<polygon fill="midnightblue" stroke="midnightblue" points="503.995,-19.0001 513.995,-15.5 503.995,-12.0001 503.995,-19.0001"/>
</g>
</g>
</svg>
