<?xml version="1.0" encoding="UTF-8" standalone="no"?>
<!DOCTYPE svg PUBLIC "-//W3C//DTD SVG 1.1//EN"
 "http://www.w3.org/Graphics/SVG/1.1/DTD/svg11.dtd">
<!-- Generated by graphviz version 2.38.0 (20140413.2041)
 -->
<!-- Title: scram::gui::EventDialog::faultTree Pages: 1 -->
<svg width="449pt" height="186pt"
 viewBox="0.00 0.00 449.00 186.00" xmlns="http://www.w3.org/2000/svg" xmlns:xlink="http://www.w3.org/1999/xlink">
<g id="graph0" class="graph" transform="scale(1 1) rotate(0) translate(4 182)">
<title>scram::gui::EventDialog::faultTree</title>
<polygon fill="white" stroke="none" points="-4,4 -4,-182 445,-182 445,4 -4,4"/>
<!-- Node1 -->
<g id="node1" class="node"><title>Node1</title>
<polygon fill="#bfbfbf" stroke="black" points="0,-73.5 0,-103.5 130,-103.5 130,-73.5 0,-73.5"/>
<text text-anchor="start" x="8" y="-91.5" font-family="Helvetica,sans-Serif" font-size="10.00">scram::gui::EventDialog</text>
<text text-anchor="middle" x="65" y="-80.5" font-family="Helvetica,sans-Serif" font-size="10.00">::faultTree</text>
</g>
<!-- Node2 -->
<g id="node2" class="node"><title>Node2</title>
<g id="a_node2"><a xlink:href="classscram_1_1gui_1_1EventDialog.xhtml#a0c144e53e44d5b9524d60698cb356653" target="_top" xlink:title="scram::gui::EventDialog\l::name">
<polygon fill="white" stroke="black" points="166,-122.5 166,-152.5 296,-152.5 296,-122.5 166,-122.5"/>
<text text-anchor="start" x="174" y="-140.5" font-family="Helvetica,sans-Serif" font-size="10.00">scram::gui::EventDialog</text>
<text text-anchor="middle" x="231" y="-129.5" font-family="Helvetica,sans-Serif" font-size="10.00">::name</text>
</a>
</g>
</g>
<!-- Node1&#45;&gt;Node2 -->
<g id="edge1" class="edge"><title>Node1&#45;&gt;Node2</title>
<path fill="none" stroke="midnightblue" d="M116.544,-103.601C133.458,-108.655 152.477,-114.338 170.039,-119.585"/>
<polygon fill="midnightblue" stroke="midnightblue" points="169.04,-122.939 179.623,-122.448 171.044,-116.232 169.04,-122.939"/>
</g>
<!-- Node3 -->
<g id="node3" class="node"><title>Node3</title>
<g id="a_node3"><a xlink:href="classscram_1_1gui_1_1EventDialog.xhtml#abe5bf2e13a1fbb54ce0d8c5a03ad3a05" target="_top" xlink:title="Sets up the dialog with element data. ">
<polygon fill="white" stroke="black" points="166,-73.5 166,-103.5 296,-103.5 296,-73.5 166,-73.5"/>
<text text-anchor="start" x="174" y="-91.5" font-family="Helvetica,sans-Serif" font-size="10.00">scram::gui::EventDialog</text>
<text text-anchor="middle" x="231" y="-80.5" font-family="Helvetica,sans-Serif" font-size="10.00">::setupData</text>
</a>
</g>
</g>
<!-- Node1&#45;&gt;Node3 -->
<g id="edge2" class="edge"><title>Node1&#45;&gt;Node3</title>
<path fill="none" stroke="midnightblue" d="M130.346,-88.5C138.64,-88.5 147.187,-88.5 155.625,-88.5"/>
<polygon fill="midnightblue" stroke="midnightblue" points="155.839,-92.0001 165.839,-88.5 155.839,-85.0001 155.839,-92.0001"/>
</g>
<!-- Node8 -->
<g id="node8" class="node"><title>Node8</title>
<g id="a_node8"><a xlink:href="classscram_1_1gui_1_1EventDialog.xhtml#a38bf6ffaa2fb4575a8ddeb52a1a953a4" target="_top" xlink:title="Triggers validation of the current data. ">
<polygon fill="white" stroke="black" points="166,-24.5 166,-54.5 296,-54.5 296,-24.5 166,-24.5"/>
<text text-anchor="start" x="174" y="-42.5" font-family="Helvetica,sans-Serif" font-size="10.00">scram::gui::EventDialog</text>
<text text-anchor="middle" x="231" y="-31.5" font-family="Helvetica,sans-Serif" font-size="10.00">::validate</text>
</a>
</g>
</g>
<!-- Node1&#45;&gt;Node8 -->
<g id="edge7" class="edge"><title>Node1&#45;&gt;Node8</title>
<path fill="none" stroke="midnightblue" d="M116.544,-73.3986C133.458,-68.3449 152.477,-62.6624 170.039,-57.4152"/>
<polygon fill="midnightblue" stroke="midnightblue" points="171.044,-60.7679 179.623,-54.5516 169.04,-54.0609 171.044,-60.7679"/>
</g>
<!-- Node4 -->
<g id="node4" class="node"><title>Node4</title>
<g id="a_node4"><a xlink:href="classscram_1_1gui_1_1model_1_1Gate.xhtml#a14671d156e58b060ac84a58410543f64" target="_top" xlink:title="scram::gui::model::\lGate::args">
<polygon fill="white" stroke="black" points="332,-147.5 332,-177.5 441,-177.5 441,-147.5 332,-147.5"/>
<text text-anchor="start" x="340" y="-165.5" font-family="Helvetica,sans-Serif" font-size="10.00">scram::gui::model::</text>
<text text-anchor="middle" x="386.5" y="-154.5" font-family="Helvetica,sans-Serif" font-size="10.00">Gate::args</text>
</a>
</g>
</g>
<!-- Node3&#45;&gt;Node4 -->
<g id="edge3" class="edge"><title>Node3&#45;&gt;Node4</title>
<path fill="none" stroke="midnightblue" d="M274.631,-103.534C281.894,-106.551 289.263,-109.909 296,-113.5 313.19,-122.662 315.041,-128.917 332,-138.5 334.662,-140.004 337.435,-141.485 340.257,-142.929"/>
<polygon fill="midnightblue" stroke="midnightblue" points="338.841,-146.132 349.361,-147.391 341.922,-139.847 338.841,-146.132"/>
</g>
<!-- Node5 -->
<g id="node5" class="node"><title>Node5</title>
<g id="a_node5"><a xlink:href="classscram_1_1gui_1_1model_1_1Proxy.xhtml#a9302e19d5f845a33bdc31e13b09731c4" target="_top" xlink:title="scram::gui::model::\lProxy::data">
<polygon fill="white" stroke="black" points="332,-98.5 332,-128.5 441,-128.5 441,-98.5 332,-98.5"/>
<text text-anchor="start" x="340" y="-116.5" font-family="Helvetica,sans-Serif" font-size="10.00">scram::gui::model::</text>
<text text-anchor="middle" x="386.5" y="-105.5" font-family="Helvetica,sans-Serif" font-size="10.00">Proxy::data</text>
</a>
</g>
</g>
<!-- Node3&#45;&gt;Node5 -->
<g id="edge4" class="edge"><title>Node3&#45;&gt;Node5</title>
<path fill="none" stroke="midnightblue" d="M296.208,-98.9574C304.619,-100.327 313.236,-101.731 321.641,-103.099"/>
<polygon fill="midnightblue" stroke="midnightblue" points="321.327,-106.594 331.759,-104.747 322.452,-99.6854 321.327,-106.594"/>
</g>
<!-- Node6 -->
<g id="node6" class="node"><title>Node6</title>
<g id="a_node6"><a xlink:href="classscram_1_1gui_1_1model_1_1Gate.xhtml#af6bdef0f594fd764a96912a4df8eb2f2" target="_top" xlink:title="scram::gui::model::\lGate::type">
<polygon fill="white" stroke="black" points="332,-49.5 332,-79.5 441,-79.5 441,-49.5 332,-49.5"/>
<text text-anchor="start" x="340" y="-67.5" font-family="Helvetica,sans-Serif" font-size="10.00">scram::gui::model::</text>
<text text-anchor="middle" x="386.5" y="-56.5" font-family="Helvetica,sans-Serif" font-size="10.00">Gate::type</text>
</a>
</g>
</g>
<!-- Node3&#45;&gt;Node6 -->
<g id="edge5" class="edge"><title>Node3&#45;&gt;Node6</title>
<path fill="none" stroke="midnightblue" d="M296.208,-78.4609C304.619,-77.1459 313.236,-75.7986 321.641,-74.4845"/>
<polygon fill="midnightblue" stroke="midnightblue" points="322.42,-77.9053 331.759,-72.9025 321.339,-70.9893 322.42,-77.9053"/>
</g>
<!-- Node7 -->
<g id="node7" class="node"><title>Node7</title>
<g id="a_node7"><a xlink:href="classscram_1_1gui_1_1model_1_1Gate.xhtml#a2b68382b9c692bac26eb4775ebb366c9" target="_top" xlink:title="scram::gui::model::\lGate::voteNumber">
<polygon fill="white" stroke="black" points="332,-0.5 332,-30.5 441,-30.5 441,-0.5 332,-0.5"/>
<text text-anchor="start" x="340" y="-18.5" font-family="Helvetica,sans-Serif" font-size="10.00">scram::gui::model::</text>
<text text-anchor="middle" x="386.5" y="-7.5" font-family="Helvetica,sans-Serif" font-size="10.00">Gate::voteNumber</text>
</a>
</g>
</g>
<!-- Node3&#45;&gt;Node7 -->
<g id="edge6" class="edge"><title>Node3&#45;&gt;Node7</title>
<path fill="none" stroke="midnightblue" d="M276.298,-73.4073C283.01,-70.6874 289.769,-67.6919 296,-64.5 313.115,-55.7332 315.242,-49.9306 332,-40.5 335.228,-38.6837 338.61,-36.8821 342.038,-35.1274"/>
<polygon fill="midnightblue" stroke="midnightblue" points="343.742,-38.1894 351.149,-30.6137 340.634,-31.917 343.742,-38.1894"/>
</g>
</g>
</svg>
