<?xml version="1.0" encoding="UTF-8" standalone="no"?>
<!DOCTYPE svg PUBLIC "-//W3C//DTD SVG 1.1//EN"
 "http://www.w3.org/Graphics/SVG/1.1/DTD/svg11.dtd">
<!-- Generated by graphviz version 2.38.0 (20140413.2041)
 -->
<!-- Title: scram::gui::diagram::Event Pages: 1 -->
<svg width="816pt" height="463pt"
 viewBox="0.00 0.00 816.00 463.00" xmlns="http://www.w3.org/2000/svg" xmlns:xlink="http://www.w3.org/1999/xlink">
<g id="graph0" class="graph" transform="scale(1 1) rotate(0) translate(4 459)">
<title>scram::gui::diagram::Event</title>
<polygon fill="white" stroke="none" points="-4,4 -4,-459 812,-459 812,4 -4,4"/>
<!-- Node1 -->
<g id="node1" class="node"><title>Node1</title>
<polygon fill="#bfbfbf" stroke="black" points="348,-138.5 348,-360.5 463,-360.5 463,-138.5 348,-138.5"/>
<text text-anchor="start" x="356" y="-348.5" font-family="Helvetica,sans-Serif" font-size="10.00">scram::gui::diagram</text>
<text text-anchor="middle" x="405.5" y="-337.5" font-family="Helvetica,sans-Serif" font-size="10.00">::Event</text>
<polyline fill="none" stroke="black" points="348,-330.5 463,-330.5 "/>
<text text-anchor="start" x="356" y="-318.5" font-family="Helvetica,sans-Serif" font-size="10.00"># m_event</text>
<text text-anchor="start" x="356" y="-307.5" font-family="Helvetica,sans-Serif" font-size="10.00"># m_size</text>
<text text-anchor="start" x="356" y="-296.5" font-family="Helvetica,sans-Serif" font-size="10.00"># m_baseHeight</text>
<text text-anchor="start" x="356" y="-285.5" font-family="Helvetica,sans-Serif" font-size="10.00"># m_idBoxLength</text>
<text text-anchor="start" x="356" y="-274.5" font-family="Helvetica,sans-Serif" font-size="10.00"># m_labelBoxHeight</text>
<polyline fill="none" stroke="black" points="348,-267.5 463,-267.5 "/>
<text text-anchor="start" x="356" y="-255.5" font-family="Helvetica,sans-Serif" font-size="10.00">+ ~Event()</text>
<text text-anchor="start" x="356" y="-244.5" font-family="Helvetica,sans-Serif" font-size="10.00">+ width()</text>
<text text-anchor="start" x="356" y="-233.5" font-family="Helvetica,sans-Serif" font-size="10.00">+ data()</text>
<text text-anchor="start" x="356" y="-222.5" font-family="Helvetica,sans-Serif" font-size="10.00">+ boundingRect()</text>
<text text-anchor="start" x="356" y="-211.5" font-family="Helvetica,sans-Serif" font-size="10.00">+ paint()</text>
<text text-anchor="start" x="356" y="-200.5" font-family="Helvetica,sans-Serif" font-size="10.00"># Event()</text>
<text text-anchor="start" x="356" y="-189.5" font-family="Helvetica,sans-Serif" font-size="10.00"># getTypeGraphics()</text>
<text text-anchor="start" x="356" y="-178.5" font-family="Helvetica,sans-Serif" font-size="10.00"># setTypeGraphics()</text>
<text text-anchor="start" x="356" y="-167.5" font-family="Helvetica,sans-Serif" font-size="10.00"># units()</text>
<text text-anchor="start" x="356" y="-156.5" font-family="Helvetica,sans-Serif" font-size="10.00">* boundingRect()</text>
<text text-anchor="start" x="356" y="-145.5" font-family="Helvetica,sans-Serif" font-size="10.00">* paint()</text>
</g>
<!-- Node3 -->
<g id="node3" class="node"><title>Node3</title>
<g id="a_node3"><a xlink:href="classscram_1_1gui_1_1diagram_1_1BasicEvent.xhtml" target="_top" xlink:title="Representation of a fault tree basic event. ">
<polygon fill="white" stroke="black" points="0,-17 0,-85 113,-85 113,-17 0,-17"/>
<text text-anchor="start" x="8" y="-73" font-family="Helvetica,sans-Serif" font-size="10.00">scram::gui::diagram</text>
<text text-anchor="middle" x="56.5" y="-62" font-family="Helvetica,sans-Serif" font-size="10.00">::BasicEvent</text>
<polyline fill="none" stroke="black" points="0,-55 113,-55 "/>
<text text-anchor="middle" x="56.5" y="-43" font-family="Helvetica,sans-Serif" font-size="10.00"> </text>
<polyline fill="none" stroke="black" points="0,-36 113,-36 "/>
<text text-anchor="start" x="8" y="-24" font-family="Helvetica,sans-Serif" font-size="10.00">+ BasicEvent()</text>
</a>
</g>
</g>
<!-- Node1&#45;&gt;Node3 -->
<g id="edge2" class="edge"><title>Node1&#45;&gt;Node3</title>
<path fill="none" stroke="midnightblue" d="M338.67,-217.894C280.177,-190.179 193.667,-146.917 122.5,-102 114.355,-96.8594 105.953,-90.9848 97.9858,-85.1125"/>
<polygon fill="none" stroke="midnightblue" points="337.273,-221.105 347.811,-222.207 340.26,-214.774 337.273,-221.105"/>
</g>
<!-- Node4 -->
<g id="node4" class="node"><title>Node4</title>
<g id="a_node4"><a xlink:href="classscram_1_1gui_1_1diagram_1_1ConditionalEvent.xhtml" target="_top" xlink:title="The event used in Inhibit gates. ">
<polygon fill="white" stroke="black" points="131.5,-17 131.5,-85 247.5,-85 247.5,-17 131.5,-17"/>
<text text-anchor="start" x="139.5" y="-73" font-family="Helvetica,sans-Serif" font-size="10.00">scram::gui::diagram</text>
<text text-anchor="middle" x="189.5" y="-62" font-family="Helvetica,sans-Serif" font-size="10.00">::ConditionalEvent</text>
<polyline fill="none" stroke="black" points="131.5,-55 247.5,-55 "/>
<text text-anchor="middle" x="189.5" y="-43" font-family="Helvetica,sans-Serif" font-size="10.00"> </text>
<polyline fill="none" stroke="black" points="131.5,-36 247.5,-36 "/>
<text text-anchor="start" x="139.5" y="-24" font-family="Helvetica,sans-Serif" font-size="10.00">+ ConditionalEvent()</text>
</a>
</g>
</g>
<!-- Node1&#45;&gt;Node4 -->
<g id="edge3" class="edge"><title>Node1&#45;&gt;Node4</title>
<path fill="none" stroke="midnightblue" d="M340.042,-188.952C302.604,-154.893 257.048,-113.45 225.921,-85.133"/>
<polygon fill="none" stroke="midnightblue" points="338.147,-191.959 347.9,-196.1 342.858,-186.781 338.147,-191.959"/>
</g>
<!-- Node5 -->
<g id="node5" class="node"><title>Node5</title>
<g id="a_node5"><a xlink:href="classscram_1_1gui_1_1diagram_1_1Gate.xhtml" target="_top" xlink:title="Fault tree intermediate events or gates. ">
<polygon fill="white" stroke="black" points="266,-0.5 266,-101.5 403,-101.5 403,-0.5 266,-0.5"/>
<text text-anchor="start" x="274" y="-89.5" font-family="Helvetica,sans-Serif" font-size="10.00">scram::gui::diagram</text>
<text text-anchor="middle" x="334.5" y="-78.5" font-family="Helvetica,sans-Serif" font-size="10.00">::Gate</text>
<polyline fill="none" stroke="black" points="266,-71.5 403,-71.5 "/>
<text text-anchor="middle" x="334.5" y="-59.5" font-family="Helvetica,sans-Serif" font-size="10.00"> </text>
<polyline fill="none" stroke="black" points="266,-52.5 403,-52.5 "/>
<text text-anchor="start" x="274" y="-40.5" font-family="Helvetica,sans-Serif" font-size="10.00">+ Gate()</text>
<text text-anchor="start" x="274" y="-29.5" font-family="Helvetica,sans-Serif" font-size="10.00">+ getGateGraphicsType()</text>
<text text-anchor="start" x="274" y="-18.5" font-family="Helvetica,sans-Serif" font-size="10.00">+ width()</text>
<text text-anchor="start" x="274" y="-7.5" font-family="Helvetica,sans-Serif" font-size="10.00">+ addTransferOut()</text>
</a>
</g>
</g>
<!-- Node1&#45;&gt;Node5 -->
<g id="edge4" class="edge"><title>Node1&#45;&gt;Node5</title>
<path fill="none" stroke="midnightblue" d="M362.299,-128.935C358.88,-119.476 355.562,-110.293 352.48,-101.761"/>
<polygon fill="none" stroke="midnightblue" points="359.055,-130.258 365.745,-138.474 365.638,-127.879 359.055,-130.258"/>
</g>
<!-- Node6 -->
<g id="node6" class="node"><title>Node6</title>
<g id="a_node6"><a xlink:href="classscram_1_1gui_1_1diagram_1_1HouseEvent.xhtml" target="_top" xlink:title="Representation of a fault tree house events. ">
<polygon fill="white" stroke="black" points="421,-17 421,-85 534,-85 534,-17 421,-17"/>
<text text-anchor="start" x="429" y="-73" font-family="Helvetica,sans-Serif" font-size="10.00">scram::gui::diagram</text>
<text text-anchor="middle" x="477.5" y="-62" font-family="Helvetica,sans-Serif" font-size="10.00">::HouseEvent</text>
<polyline fill="none" stroke="black" points="421,-55 534,-55 "/>
<text text-anchor="middle" x="477.5" y="-43" font-family="Helvetica,sans-Serif" font-size="10.00"> </text>
<polyline fill="none" stroke="black" points="421,-36 534,-36 "/>
<text text-anchor="start" x="429" y="-24" font-family="Helvetica,sans-Serif" font-size="10.00">+ HouseEvent()</text>
</a>
</g>
</g>
<!-- Node1&#45;&gt;Node6 -->
<g id="edge5" class="edge"><title>Node1&#45;&gt;Node6</title>
<path fill="none" stroke="midnightblue" d="M449.303,-128.956C455.177,-112.923 460.761,-97.6844 465.386,-85.0619"/>
<polygon fill="none" stroke="midnightblue" points="445.969,-127.88 445.815,-138.474 452.542,-130.288 445.969,-127.88"/>
</g>
<!-- Node7 -->
<g id="node7" class="node"><title>Node7</title>
<g id="a_node7"><a xlink:href="classscram_1_1gui_1_1diagram_1_1TransferIn.xhtml" target="_top" xlink:title="An alias pointer to a gate. ">
<polygon fill="white" stroke="black" points="552,-17 552,-85 665,-85 665,-17 552,-17"/>
<text text-anchor="start" x="560" y="-73" font-family="Helvetica,sans-Serif" font-size="10.00">scram::gui::diagram</text>
<text text-anchor="middle" x="608.5" y="-62" font-family="Helvetica,sans-Serif" font-size="10.00">::TransferIn</text>
<polyline fill="none" stroke="black" points="552,-55 665,-55 "/>
<text text-anchor="middle" x="608.5" y="-43" font-family="Helvetica,sans-Serif" font-size="10.00"> </text>
<polyline fill="none" stroke="black" points="552,-36 665,-36 "/>
<text text-anchor="start" x="560" y="-24" font-family="Helvetica,sans-Serif" font-size="10.00">+ TransferIn()</text>
</a>
</g>
</g>
<!-- Node1&#45;&gt;Node7 -->
<g id="edge6" class="edge"><title>Node1&#45;&gt;Node7</title>
<path fill="none" stroke="midnightblue" d="M470.387,-185.69C504.899,-152.284 545.932,-112.564 574.258,-85.146"/>
<polygon fill="none" stroke="midnightblue" points="467.88,-183.247 463.129,-192.717 472.748,-188.276 467.88,-183.247"/>
</g>
<!-- Node8 -->
<g id="node8" class="node"><title>Node8</title>
<g id="a_node8"><a xlink:href="classscram_1_1gui_1_1diagram_1_1UndevelopedEvent.xhtml" target="_top" xlink:title="Placeholder for events with a potential to become a gate. ">
<polygon fill="white" stroke="black" points="683,-17 683,-85 808,-85 808,-17 683,-17"/>
<text text-anchor="start" x="691" y="-73" font-family="Helvetica,sans-Serif" font-size="10.00">scram::gui::diagram</text>
<text text-anchor="middle" x="745.5" y="-62" font-family="Helvetica,sans-Serif" font-size="10.00">::UndevelopedEvent</text>
<polyline fill="none" stroke="black" points="683,-55 808,-55 "/>
<text text-anchor="middle" x="745.5" y="-43" font-family="Helvetica,sans-Serif" font-size="10.00"> </text>
<polyline fill="none" stroke="black" points="683,-36 808,-36 "/>
<text text-anchor="start" x="691" y="-24" font-family="Helvetica,sans-Serif" font-size="10.00">+ UndevelopedEvent()</text>
</a>
</g>
</g>
<!-- Node1&#45;&gt;Node8 -->
<g id="edge7" class="edge"><title>Node1&#45;&gt;Node8</title>
<path fill="none" stroke="midnightblue" d="M472.239,-214.876C527.419,-186.434 607.331,-143.75 674.5,-102 682.951,-96.7472 691.763,-90.8796 700.189,-85.0632"/>
<polygon fill="none" stroke="midnightblue" points="470.554,-211.807 463.26,-219.492 473.754,-218.033 470.554,-211.807"/>
</g>
<!-- Node2 -->
<g id="node2" class="node"><title>Node2</title>
<polygon fill="white" stroke="#bfbfbf" points="361.5,-397.5 361.5,-454.5 449.5,-454.5 449.5,-397.5 361.5,-397.5"/>
<text text-anchor="middle" x="405.5" y="-442.5" font-family="Helvetica,sans-Serif" font-size="10.00">QGraphicsItem</text>
<polyline fill="none" stroke="#bfbfbf" points="361.5,-435.5 449.5,-435.5 "/>
<text text-anchor="middle" x="405.5" y="-423.5" font-family="Helvetica,sans-Serif" font-size="10.00"> </text>
<polyline fill="none" stroke="#bfbfbf" points="361.5,-416.5 449.5,-416.5 "/>
<text text-anchor="middle" x="405.5" y="-404.5" font-family="Helvetica,sans-Serif" font-size="10.00"> </text>
</g>
<!-- Node2&#45;&gt;Node1 -->
<g id="edge1" class="edge"><title>Node2&#45;&gt;Node1</title>
<path fill="none" stroke="midnightblue" d="M405.5,-387.203C405.5,-379.081 405.5,-370.104 405.5,-360.748"/>
<polygon fill="none" stroke="midnightblue" points="402,-387.35 405.5,-397.35 409,-387.35 402,-387.35"/>
</g>
</g>
</svg>
