<?xml version="1.0" encoding="UTF-8" standalone="no"?>
<!DOCTYPE svg PUBLIC "-//W3C//DTD SVG 1.1//EN"
 "http://www.w3.org/Graphics/SVG/1.1/DTD/svg11.dtd">
<!-- Generated by graphviz version 2.38.0 (20140413.2041)
 -->
<!-- Title: scram::gui::diagram::ConditionalEvent::ConditionalEvent Pages: 1 -->
<svg width="440pt" height="67pt"
 viewBox="0.00 0.00 440.00 66.50" xmlns="http://www.w3.org/2000/svg" xmlns:xlink="http://www.w3.org/1999/xlink">
<g id="graph0" class="graph" transform="scale(1 1) rotate(0) translate(4 62.5)">
<title>scram::gui::diagram::ConditionalEvent::ConditionalEvent</title>
<polygon fill="white" stroke="none" points="-4,4 -4,-62.5 436,-62.5 436,4 -4,4"/>
<!-- Node1 -->
<g id="node1" class="node"><title>Node1</title>
<polygon fill="#bfbfbf" stroke="black" points="0,-0.5 0,-41.5 113,-41.5 113,-0.5 0,-0.5"/>
<text text-anchor="start" x="8" y="-29.5" font-family="Helvetica,sans-Serif" font-size="10.00">scram::gui::diagram</text>
<text text-anchor="start" x="8" y="-18.5" font-family="Helvetica,sans-Serif" font-size="10.00">::ConditionalEvent::</text>
<text text-anchor="middle" x="56.5" y="-7.5" font-family="Helvetica,sans-Serif" font-size="10.00">ConditionalEvent</text>
</g>
<!-- Node2 -->
<g id="node2" class="node"><title>Node2</title>
<g id="a_node2"><a xlink:href="classscram_1_1gui_1_1diagram_1_1Event.xhtml#a689aedbf5244a97df88a76993241991d" target="_top" xlink:title="Releases the current derived class item, and sets the new one. ">
<polygon fill="white" stroke="black" points="149,-28 149,-58 283,-58 283,-28 149,-28"/>
<text text-anchor="start" x="157" y="-46" font-family="Helvetica,sans-Serif" font-size="10.00">scram::gui::diagram</text>
<text text-anchor="middle" x="216" y="-35" font-family="Helvetica,sans-Serif" font-size="10.00">::Event::setTypeGraphics</text>
</a>
</g>
</g>
<!-- Node1&#45;&gt;Node2 -->
<g id="edge1" class="edge"><title>Node1&#45;&gt;Node2</title>
<path fill="none" stroke="midnightblue" d="M113.029,-28.7564C121.368,-29.9212 130.088,-31.1393 138.768,-32.3517"/>
<polygon fill="midnightblue" stroke="midnightblue" points="138.525,-35.8516 148.913,-33.7688 139.493,-28.9189 138.525,-35.8516"/>
</g>
<!-- Node3 -->
<g id="node3" class="node"><title>Node3</title>
<g id="a_node3"><a xlink:href="classscram_1_1gui_1_1diagram_1_1Event.xhtml#a29eb38d7ae8c6258de2a2bcc69f79046" target="_top" xlink:title="scram::gui::diagram\l::Event::units">
<polygon fill="white" stroke="black" points="319,-6 319,-36 432,-36 432,-6 319,-6"/>
<text text-anchor="start" x="327" y="-24" font-family="Helvetica,sans-Serif" font-size="10.00">scram::gui::diagram</text>
<text text-anchor="middle" x="375.5" y="-13" font-family="Helvetica,sans-Serif" font-size="10.00">::Event::units</text>
</a>
</g>
</g>
<!-- Node1&#45;&gt;Node3 -->
<g id="edge3" class="edge"><title>Node1&#45;&gt;Node3</title>
<path fill="none" stroke="midnightblue" d="M113.142,-19.5894C124.978,-19.3438 137.402,-19.1267 149,-19 208.552,-18.3492 223.448,-18.3492 283,-19 291.336,-19.0911 300.099,-19.2289 308.763,-19.3903"/>
<polygon fill="midnightblue" stroke="midnightblue" points="308.791,-22.8915 318.858,-19.5894 308.929,-15.8928 308.791,-22.8915"/>
</g>
<!-- Node2&#45;&gt;Node3 -->
<g id="edge2" class="edge"><title>Node2&#45;&gt;Node3</title>
<path fill="none" stroke="midnightblue" d="M283.338,-33.7338C291.705,-32.565 300.265,-31.3694 308.625,-30.2016"/>
<polygon fill="midnightblue" stroke="midnightblue" points="309.278,-33.6444 318.698,-28.7946 308.31,-26.7117 309.278,-33.6444"/>
</g>
</g>
</svg>
