<?xml version="1.0" encoding="UTF-8" standalone="no"?>
<!DOCTYPE svg PUBLIC "-//W3C//DTD SVG 1.1//EN"
 "http://www.w3.org/Graphics/SVG/1.1/DTD/svg11.dtd">
<!-- Generated by graphviz version 2.38.0 (20140413.2041)
 -->
<!-- Title: scram::gui::model::Model Pages: 1 -->
<!--zoomable 596 -->
<svg id="main" version="1.1" xmlns="http://www.w3.org/2000/svg" xmlns:xlink="http://www.w3.org/1999/xlink" xml:space="preserve" onload="init(evt)">
<style type="text/css"><![CDATA[
.edge:hover path { stroke: red; }
.edge:hover polygon { stroke: red; fill: red; }
]]></style>
<script type="text/javascript"><![CDATA[
var edges = document.getElementsByTagName('g');
if (edges && edges.length) {
  for (var i=0;i<edges.length;i++) {
    if (edges[i].id.substr(0,4)=='edge') {
      edges[i].setAttribute('class','edge');
    }
  }
}
]]></script>
        <defs>
                <circle id="rim" cx="0" cy="0" r="7"/>
                <circle id="rim2" cx="0" cy="0" r="3.5"/>
                <g id="zoomPlus">
                        <use xlink:href="#rim" fill="#404040">
                                <set attributeName="fill" to="#808080" begin="zoomplus.mouseover" end="zoomplus.mouseout"/>
                        </use>
                        <path d="M-4,0h8M0,-4v8" fill="none" stroke="white" stroke-width="1.5" pointer-events="none"/>
                </g>
                <g id="zoomMin">
                        <use xlink:href="#rim" fill="#404040">
                                <set attributeName="fill" to="#808080" begin="zoomminus.mouseover" end="zoomminus.mouseout"/>
                        </use>
                        <path d="M-4,0h8" fill="none" stroke="white" stroke-width="1.5" pointer-events="none"/>
                </g>
                <g id="dirArrow">
                        <path fill="none" stroke="white" stroke-width="1.5" d="M0,-3.0v7 M-2.5,-0.5L0,-3.0L2.5,-0.5"/>
                </g>
               <g id="resetDef">
                       <use xlink:href="#rim2" fill="#404040">
                               <set attributeName="fill" to="#808080" begin="reset.mouseover" end="reset.mouseout"/>
                       </use>
               </g>
        </defs>

<script type="text/javascript">
var viewWidth = 326;
var viewHeight = 596;
var sectionId = 'dynsection-0';
</script>
<script xlink:href="svgpan.js"/>
<svg id="graph" class="graph">
<g id="viewport">
<title>scram::gui::model::Model</title>
<polygon fill="white" stroke="none" points="-4,4 -4,-592 321.5,-592 321.5,4 -4,4"/>
<!-- Node1 -->
<g id="node1" class="node"><title>Node1</title>
<polygon fill="#bfbfbf" stroke="black" points="90,-0.5 90,-299.5 199,-299.5 199,-0.5 90,-0.5"/>
<text text-anchor="start" x="98" y="-287.5" font-family="Helvetica,sans-Serif" font-size="10.00">scram::gui::model::</text>
<text text-anchor="middle" x="144.5" y="-276.5" font-family="Helvetica,sans-Serif" font-size="10.00">Model</text>
<polyline fill="none" stroke="black" points="90,-269.5 199,-269.5 "/>
<text text-anchor="middle" x="144.5" y="-257.5" font-family="Helvetica,sans-Serif" font-size="10.00"> </text>
<polyline fill="none" stroke="black" points="90,-250.5 199,-250.5 "/>
<text text-anchor="start" x="98" y="-238.5" font-family="Helvetica,sans-Serif" font-size="10.00">+ Model()</text>
<text text-anchor="start" x="98" y="-227.5" font-family="Helvetica,sans-Serif" font-size="10.00">+ table()</text>
<text text-anchor="start" x="98" y="-216.5" font-family="Helvetica,sans-Serif" font-size="10.00">+ parents()</text>
<text text-anchor="start" x="98" y="-205.5" font-family="Helvetica,sans-Serif" font-size="10.00">+ houseEvents()</text>
<text text-anchor="start" x="98" y="-194.5" font-family="Helvetica,sans-Serif" font-size="10.00">+ basicEvents()</text>
<text text-anchor="start" x="98" y="-183.5" font-family="Helvetica,sans-Serif" font-size="10.00">+ gates()</text>
<text text-anchor="start" x="98" y="-172.5" font-family="Helvetica,sans-Serif" font-size="10.00">+ faultTrees()</text>
<text text-anchor="start" x="98" y="-161.5" font-family="Helvetica,sans-Serif" font-size="10.00">* m_houseEvents</text>
<text text-anchor="start" x="98" y="-150.5" font-family="Helvetica,sans-Serif" font-size="10.00">* m_basicEvents</text>
<text text-anchor="start" x="98" y="-139.5" font-family="Helvetica,sans-Serif" font-size="10.00">* m_gates</text>
<text text-anchor="start" x="98" y="-128.5" font-family="Helvetica,sans-Serif" font-size="10.00">* houseEvents()</text>
<text text-anchor="start" x="98" y="-117.5" font-family="Helvetica,sans-Serif" font-size="10.00">* basicEvents()</text>
<text text-anchor="start" x="98" y="-106.5" font-family="Helvetica,sans-Serif" font-size="10.00">* gates()</text>
<text text-anchor="start" x="98" y="-95.5" font-family="Helvetica,sans-Serif" font-size="10.00">* faultTrees()</text>
<text text-anchor="start" x="98" y="-84.5" font-family="Helvetica,sans-Serif" font-size="10.00">* added()</text>
<text text-anchor="start" x="98" y="-73.5" font-family="Helvetica,sans-Serif" font-size="10.00">* added()</text>
<text text-anchor="start" x="98" y="-62.5" font-family="Helvetica,sans-Serif" font-size="10.00">* added()</text>
<text text-anchor="start" x="98" y="-51.5" font-family="Helvetica,sans-Serif" font-size="10.00">* added()</text>
<text text-anchor="start" x="98" y="-40.5" font-family="Helvetica,sans-Serif" font-size="10.00">* removed()</text>
<text text-anchor="start" x="98" y="-29.5" font-family="Helvetica,sans-Serif" font-size="10.00">* removed()</text>
<text text-anchor="start" x="98" y="-18.5" font-family="Helvetica,sans-Serif" font-size="10.00">* removed()</text>
<text text-anchor="start" x="98" y="-7.5" font-family="Helvetica,sans-Serif" font-size="10.00">* removed()</text>
</g>
<!-- Node2 -->
<g id="node2" class="node"><title>Node2</title>
<g id="a_node2"><a xlink:href="classscram_1_1gui_1_1model_1_1Element.xhtml" target="_top" xlink:title="The base proxy Element model for mef::Element. ">
<polygon fill="white" stroke="black" points="0,-343 0,-433 109,-433 109,-343 0,-343"/>
<text text-anchor="start" x="8" y="-421" font-family="Helvetica,sans-Serif" font-size="10.00">scram::gui::model::</text>
<text text-anchor="middle" x="54.5" y="-410" font-family="Helvetica,sans-Serif" font-size="10.00">Element</text>
<polyline fill="none" stroke="black" points="0,-403 109,-403 "/>
<text text-anchor="middle" x="54.5" y="-391" font-family="Helvetica,sans-Serif" font-size="10.00"> </text>
<polyline fill="none" stroke="black" points="0,-384 109,-384 "/>
<text text-anchor="start" x="8" y="-372" font-family="Helvetica,sans-Serif" font-size="10.00">+ id()</text>
<text text-anchor="start" x="8" y="-361" font-family="Helvetica,sans-Serif" font-size="10.00">+ label()</text>
<text text-anchor="start" x="8" y="-350" font-family="Helvetica,sans-Serif" font-size="10.00"># Element()</text>
</a>
</g>
</g>
<!-- Node2&#45;&gt;Node1 -->
<g id="edge1" class="edge"><title>Node2&#45;&gt;Node1</title>
<path fill="none" stroke="midnightblue" d="M74.9191,-333.457C79.5445,-321.328 84.6698,-307.888 89.9805,-293.962"/>
<polygon fill="none" stroke="midnightblue" points="71.6158,-332.296 71.3227,-342.887 78.1563,-334.791 71.6158,-332.296"/>
</g>
<!-- Node3 -->
<g id="node3" class="node"><title>Node3</title>
<polygon fill="white" stroke="#bfbfbf" points="27,-508.5 27,-565.5 82,-565.5 82,-508.5 27,-508.5"/>
<text text-anchor="middle" x="54.5" y="-553.5" font-family="Helvetica,sans-Serif" font-size="10.00">QObject</text>
<polyline fill="none" stroke="#bfbfbf" points="27,-546.5 82,-546.5 "/>
<text text-anchor="middle" x="54.5" y="-534.5" font-family="Helvetica,sans-Serif" font-size="10.00"> </text>
<polyline fill="none" stroke="#bfbfbf" points="27,-527.5 82,-527.5 "/>
<text text-anchor="middle" x="54.5" y="-515.5" font-family="Helvetica,sans-Serif" font-size="10.00"> </text>
</g>
<!-- Node3&#45;&gt;Node2 -->
<g id="edge2" class="edge"><title>Node3&#45;&gt;Node2</title>
<path fill="none" stroke="midnightblue" d="M54.5,-498.158C54.5,-478.345 54.5,-453.969 54.5,-433.282"/>
<polygon fill="none" stroke="midnightblue" points="51.0001,-498.35 54.5,-508.35 58.0001,-498.35 51.0001,-498.35"/>
</g>
<!-- Node4 -->
<g id="node4" class="node"><title>Node4</title>
<g id="a_node4"><a xlink:href="classscram_1_1gui_1_1model_1_1Proxy.xhtml" target="_top" xlink:title="{scram::gui::model::\lProxy\&lt; Model, mef::Model \&gt;\n||+ data()\l+ data()\l* data()\l* data()\l}">
<polygon fill="white" stroke="black" points="127,-337.5 127,-438.5 280,-438.5 280,-337.5 127,-337.5"/>
<text text-anchor="start" x="135" y="-426.5" font-family="Helvetica,sans-Serif" font-size="10.00">scram::gui::model::</text>
<text text-anchor="middle" x="203.5" y="-415.5" font-family="Helvetica,sans-Serif" font-size="10.00">Proxy&lt; Model, mef::Model &gt;</text>
<polyline fill="none" stroke="black" points="127,-408.5 280,-408.5 "/>
<text text-anchor="middle" x="203.5" y="-396.5" font-family="Helvetica,sans-Serif" font-size="10.00"> </text>
<polyline fill="none" stroke="black" points="127,-389.5 280,-389.5 "/>
<text text-anchor="start" x="135" y="-377.5" font-family="Helvetica,sans-Serif" font-size="10.00">+ data()</text>
<text text-anchor="start" x="135" y="-366.5" font-family="Helvetica,sans-Serif" font-size="10.00">+ data()</text>
<text text-anchor="start" x="135" y="-355.5" font-family="Helvetica,sans-Serif" font-size="10.00">* data()</text>
<text text-anchor="start" x="135" y="-344.5" font-family="Helvetica,sans-Serif" font-size="10.00">* data()</text>
</a>
</g>
</g>
<!-- Node4&#45;&gt;Node1 -->
<g id="edge3" class="edge"><title>Node4&#45;&gt;Node1</title>
<path fill="none" stroke="midnightblue" d="M188.632,-327.53C186.424,-318.696 184.069,-309.276 181.64,-299.559"/>
<polygon fill="none" stroke="midnightblue" points="185.239,-328.386 191.06,-337.239 192.03,-326.689 185.239,-328.386"/>
</g>
<!-- Node5 -->
<g id="node5" class="node"><title>Node5</title>
<g id="a_node5"><a xlink:href="classscram_1_1gui_1_1model_1_1Proxy.xhtml" target="_top" xlink:title="Provides the type and data of the origin for Proxy Elements. ">
<polygon fill="white" stroke="black" points="149,-486.5 149,-587.5 258,-587.5 258,-486.5 149,-486.5"/>
<text text-anchor="start" x="157" y="-575.5" font-family="Helvetica,sans-Serif" font-size="10.00">scram::gui::model::</text>
<text text-anchor="middle" x="203.5" y="-564.5" font-family="Helvetica,sans-Serif" font-size="10.00">Proxy&lt; E, T &gt;</text>
<polyline fill="none" stroke="black" points="149,-557.5 258,-557.5 "/>
<text text-anchor="middle" x="203.5" y="-545.5" font-family="Helvetica,sans-Serif" font-size="10.00"> </text>
<polyline fill="none" stroke="black" points="149,-538.5 258,-538.5 "/>
<text text-anchor="start" x="157" y="-526.5" font-family="Helvetica,sans-Serif" font-size="10.00">+ data()</text>
<text text-anchor="start" x="157" y="-515.5" font-family="Helvetica,sans-Serif" font-size="10.00">+ data()</text>
<text text-anchor="start" x="157" y="-504.5" font-family="Helvetica,sans-Serif" font-size="10.00">* data()</text>
<text text-anchor="start" x="157" y="-493.5" font-family="Helvetica,sans-Serif" font-size="10.00">* data()</text>
</a>
</g>
</g>
<!-- Node5&#45;&gt;Node4 -->
<g id="edge4" class="edge"><title>Node5&#45;&gt;Node4</title>
<path fill="none" stroke="orange" d="M203.5,-475.986C203.5,-463.601 203.5,-450.687 203.5,-438.716"/>
<polygon fill="orange" stroke="orange" points="200,-476.232 203.5,-486.233 207,-476.233 200,-476.232"/>
<text text-anchor="middle" x="260.5" y="-460" font-family="Helvetica,sans-Serif" font-size="10.00"> &lt; Model, mef::Model &gt;</text>
</g>
</g>
</svg>
        <g id="navigator" transform="translate(0 0)" fill="#404254">
                <rect fill="#f2f5e9" fill-opacity="0.5" stroke="#606060" stroke-width=".5" x="0" y="0" width="60" height="60"/>
                <use id="zoomplus" xlink:href="#zoomPlus" x="17" y="9" onmousedown="handleZoom(evt,'in')"/>
                <use id="zoomminus" xlink:href="#zoomMin" x="42" y="9" onmousedown="handleZoom(evt,'out')"/>
                <use id="reset" xlink:href="#resetDef" x="30" y="36" onmousedown="handleReset()"/>
                <g id="arrowUp" xlink:href="#dirArrow" transform="translate(30 24)" onmousedown="handlePan(0,-1)">
                  <use xlink:href="#rim" fill="#404040">
                        <set attributeName="fill" to="#808080" begin="arrowUp.mouseover" end="arrowUp.mouseout"/>
                  </use>
                  <path fill="none" stroke="white" stroke-width="1.5" d="M0,-3.0v7 M-2.5,-0.5L0,-3.0L2.5,-0.5"/>
                </g>
                <g id="arrowRight" xlink:href="#dirArrow" transform="rotate(90) translate(36 -43)" onmousedown="handlePan(1,0)">
                  <use xlink:href="#rim" fill="#404040">
                        <set attributeName="fill" to="#808080" begin="arrowRight.mouseover" end="arrowRight.mouseout"/>
                  </use>
                  <path fill="none" stroke="white" stroke-width="1.5" d="M0,-3.0v7 M-2.5,-0.5L0,-3.0L2.5,-0.5"/>
                </g>
                <g id="arrowDown" xlink:href="#dirArrow" transform="rotate(180) translate(-30 -48)" onmousedown="handlePan(0,1)">
                  <use xlink:href="#rim" fill="#404040">
                        <set attributeName="fill" to="#808080" begin="arrowDown.mouseover" end="arrowDown.mouseout"/>
                  </use>
                  <path fill="none" stroke="white" stroke-width="1.5" d="M0,-3.0v7 M-2.5,-0.5L0,-3.0L2.5,-0.5"/>
                </g>
                <g id="arrowLeft" xlink:href="#dirArrow" transform="rotate(270) translate(-36 17)" onmousedown="handlePan(-1,0)">
                  <use xlink:href="#rim" fill="#404040">
                        <set attributeName="fill" to="#808080" begin="arrowLeft.mouseover" end="arrowLeft.mouseout"/>
                  </use>
                  <path fill="none" stroke="white" stroke-width="1.5" d="M0,-3.0v7 M-2.5,-0.5L0,-3.0L2.5,-0.5"/>
                </g>
        </g>
        <svg viewBox="0 0 15 15" width="100%" height="30px" preserveAspectRatio="xMaxYMin meet">
         <g id="arrow_out" transform="scale(0.3 0.3)">
          <a xlink:href="classscram_1_1gui_1_1model_1_1Model__inherit__graph_org.svg" target="_base">
           <rect id="button" ry="5" rx="5" y="6" x="6" height="38" width="38"
                fill="#f2f5e9" fill-opacity="0.5" stroke="#606060" stroke-width="1.0"/>
           <path id="arrow"
             d="M 11.500037,31.436501 C 11.940474,20.09759 22.043105,11.32322 32.158766,21.979434 L 37.068811,17.246167 C 37.068811,17.246167 37.088388,32 37.088388,32 L 22.160133,31.978069 C 22.160133,31.978069 26.997745,27.140456 26.997745,27.140456 C 18.528582,18.264221 13.291696,25.230495 11.500037,31.436501 z"
             style="fill:#404040;"/>
          </a>
         </g>
        </svg>
</svg>
