<?xml version="1.0" encoding="UTF-8" standalone="no"?>
<!DOCTYPE svg PUBLIC "-//W3C//DTD SVG 1.1//EN"
 "http://www.w3.org/Graphics/SVG/1.1/DTD/svg11.dtd">
<!-- Generated by graphviz version 2.38.0 (20140413.2041)
 -->
<!-- Title: scram::gui::EventDialog::EventDialog Pages: 1 -->
<svg width="304pt" height="235pt"
 viewBox="0.00 0.00 304.00 235.00" xmlns="http://www.w3.org/2000/svg" xmlns:xlink="http://www.w3.org/1999/xlink">
<g id="graph0" class="graph" transform="scale(1 1) rotate(0) translate(4 231)">
<title>scram::gui::EventDialog::EventDialog</title>
<polygon fill="white" stroke="none" points="-4,4 -4,-231 300,-231 300,4 -4,4"/>
<!-- Node1 -->
<g id="node1" class="node"><title>Node1</title>
<polygon fill="#bfbfbf" stroke="black" points="0,-98.5 0,-128.5 130,-128.5 130,-98.5 0,-98.5"/>
<text text-anchor="start" x="8" y="-116.5" font-family="Helvetica,sans-Serif" font-size="10.00">scram::gui::EventDialog</text>
<text text-anchor="middle" x="65" y="-105.5" font-family="Helvetica,sans-Serif" font-size="10.00">::EventDialog</text>
</g>
<!-- Node2 -->
<g id="node2" class="node"><title>Node2</title>
<g id="a_node2"><a xlink:href="classscram_1_1gui_1_1Validator.xhtml#ade5c7bef2410bb4bc6bb05d88ee99793" target="_top" xlink:title="scram::gui::Validator\l::name">
<polygon fill="white" stroke="black" points="173.5,-196.5 173.5,-226.5 288.5,-226.5 288.5,-196.5 173.5,-196.5"/>
<text text-anchor="start" x="181.5" y="-214.5" font-family="Helvetica,sans-Serif" font-size="10.00">scram::gui::Validator</text>
<text text-anchor="middle" x="231" y="-203.5" font-family="Helvetica,sans-Serif" font-size="10.00">::name</text>
</a>
</g>
</g>
<!-- Node1&#45;&gt;Node2 -->
<g id="edge1" class="edge"><title>Node1&#45;&gt;Node2</title>
<path fill="none" stroke="midnightblue" d="M83.4052,-128.748C102.593,-144.972 134.881,-170.583 166,-187.5 169.064,-189.166 172.268,-190.765 175.54,-192.292"/>
<polygon fill="midnightblue" stroke="midnightblue" points="174.315,-195.577 184.879,-196.396 177.132,-189.168 174.315,-195.577"/>
</g>
<!-- Node3 -->
<g id="node3" class="node"><title>Node3</title>
<g id="a_node3"><a xlink:href="classscram_1_1gui_1_1EventDialog.xhtml#a0c144e53e44d5b9524d60698cb356653" target="_top" xlink:title="scram::gui::EventDialog\l::name">
<polygon fill="white" stroke="black" points="166,-147.5 166,-177.5 296,-177.5 296,-147.5 166,-147.5"/>
<text text-anchor="start" x="174" y="-165.5" font-family="Helvetica,sans-Serif" font-size="10.00">scram::gui::EventDialog</text>
<text text-anchor="middle" x="231" y="-154.5" font-family="Helvetica,sans-Serif" font-size="10.00">::name</text>
</a>
</g>
</g>
<!-- Node1&#45;&gt;Node3 -->
<g id="edge2" class="edge"><title>Node1&#45;&gt;Node3</title>
<path fill="none" stroke="midnightblue" d="M116.544,-128.601C133.458,-133.655 152.477,-139.338 170.039,-144.585"/>
<polygon fill="midnightblue" stroke="midnightblue" points="169.04,-147.939 179.623,-147.448 171.044,-141.232 169.04,-147.939"/>
</g>
<!-- Node4 -->
<g id="node4" class="node"><title>Node4</title>
<g id="a_node4"><a xlink:href="classscram_1_1gui_1_1Validator.xhtml#a5faf89430d1d02672239887e5fe3d0f7" target="_top" xlink:title="scram::gui::Validator\l::nonNegative">
<polygon fill="white" stroke="black" points="173.5,-98.5 173.5,-128.5 288.5,-128.5 288.5,-98.5 173.5,-98.5"/>
<text text-anchor="start" x="181.5" y="-116.5" font-family="Helvetica,sans-Serif" font-size="10.00">scram::gui::Validator</text>
<text text-anchor="middle" x="231" y="-105.5" font-family="Helvetica,sans-Serif" font-size="10.00">::nonNegative</text>
</a>
</g>
</g>
<!-- Node1&#45;&gt;Node4 -->
<g id="edge3" class="edge"><title>Node1&#45;&gt;Node4</title>
<path fill="none" stroke="midnightblue" d="M130.346,-113.5C141.091,-113.5 152.26,-113.5 163.068,-113.5"/>
<polygon fill="midnightblue" stroke="midnightblue" points="163.293,-117 173.293,-113.5 163.293,-110 163.293,-117"/>
</g>
<!-- Node5 -->
<g id="node5" class="node"><title>Node5</title>
<g id="a_node5"><a xlink:href="classscram_1_1gui_1_1Validator.xhtml#a212add9e7bae0f86c226e7183d8fa04e" target="_top" xlink:title="scram::gui::Validator\l::probability">
<polygon fill="white" stroke="black" points="173.5,-49.5 173.5,-79.5 288.5,-79.5 288.5,-49.5 173.5,-49.5"/>
<text text-anchor="start" x="181.5" y="-67.5" font-family="Helvetica,sans-Serif" font-size="10.00">scram::gui::Validator</text>
<text text-anchor="middle" x="231" y="-56.5" font-family="Helvetica,sans-Serif" font-size="10.00">::probability</text>
</a>
</g>
</g>
<!-- Node1&#45;&gt;Node5 -->
<g id="edge4" class="edge"><title>Node1&#45;&gt;Node5</title>
<path fill="none" stroke="midnightblue" d="M116.544,-98.3986C133.458,-93.3449 152.477,-87.6624 170.039,-82.4152"/>
<polygon fill="midnightblue" stroke="midnightblue" points="171.044,-85.7679 179.623,-79.5516 169.04,-79.0609 171.044,-85.7679"/>
</g>
<!-- Node6 -->
<g id="node6" class="node"><title>Node6</title>
<g id="a_node6"><a xlink:href="classscram_1_1gui_1_1EventDialog.xhtml#a38bf6ffaa2fb4575a8ddeb52a1a953a4" target="_top" xlink:title="Triggers validation of the current data. ">
<polygon fill="white" stroke="black" points="166,-0.5 166,-30.5 296,-30.5 296,-0.5 166,-0.5"/>
<text text-anchor="start" x="174" y="-18.5" font-family="Helvetica,sans-Serif" font-size="10.00">scram::gui::EventDialog</text>
<text text-anchor="middle" x="231" y="-7.5" font-family="Helvetica,sans-Serif" font-size="10.00">::validate</text>
</a>
</g>
</g>
<!-- Node1&#45;&gt;Node6 -->
<g id="edge5" class="edge"><title>Node1&#45;&gt;Node6</title>
<path fill="none" stroke="midnightblue" d="M83.8397,-98.2661C103.137,-82.3326 135.278,-57.3432 166,-40.5 169.707,-38.4678 173.614,-36.5192 177.594,-34.67"/>
<polygon fill="midnightblue" stroke="midnightblue" points="179.218,-37.7792 186.957,-30.5429 176.394,-31.374 179.218,-37.7792"/>
</g>
</g>
</svg>
