<?xml version="1.0" encoding="UTF-8" standalone="no"?>
<!DOCTYPE svg PUBLIC "-//W3C//DTD SVG 1.1//EN"
 "http://www.w3.org/Graphics/SVG/1.1/DTD/svg11.dtd">
<!-- Generated by graphviz version 2.38.0 (20140413.2041)
 -->
<!-- Title: scram::gui::model::Element Pages: 1 -->
<svg width="522pt" height="529pt"
 viewBox="0.00 0.00 522.00 529.00" xmlns="http://www.w3.org/2000/svg" xmlns:xlink="http://www.w3.org/1999/xlink">
<g id="graph0" class="graph" transform="scale(1 1) rotate(0) translate(4 525)">
<title>scram::gui::model::Element</title>
<polygon fill="white" stroke="none" points="-4,4 -4,-525 518,-525 518,4 -4,4"/>
<!-- Node1 -->
<g id="node1" class="node"><title>Node1</title>
<polygon fill="#bfbfbf" stroke="black" points="208,-336.5 208,-426.5 317,-426.5 317,-336.5 208,-336.5"/>
<text text-anchor="start" x="216" y="-414.5" font-family="Helvetica,sans-Serif" font-size="10.00">scram::gui::model::</text>
<text text-anchor="middle" x="262.5" y="-403.5" font-family="Helvetica,sans-Serif" font-size="10.00">Element</text>
<polyline fill="none" stroke="black" points="208,-396.5 317,-396.5 "/>
<text text-anchor="middle" x="262.5" y="-384.5" font-family="Helvetica,sans-Serif" font-size="10.00"> </text>
<polyline fill="none" stroke="black" points="208,-377.5 317,-377.5 "/>
<text text-anchor="start" x="216" y="-365.5" font-family="Helvetica,sans-Serif" font-size="10.00">+ id()</text>
<text text-anchor="start" x="216" y="-354.5" font-family="Helvetica,sans-Serif" font-size="10.00">+ label()</text>
<text text-anchor="start" x="216" y="-343.5" font-family="Helvetica,sans-Serif" font-size="10.00"># Element()</text>
</g>
<!-- Node3 -->
<g id="node3" class="node"><title>Node3</title>
<g id="a_node3"><a xlink:href="classscram_1_1gui_1_1model_1_1BasicEvent.xhtml" target="_top" xlink:title="The proxy to manage mef::BasicEvent. ">
<polygon fill="white" stroke="black" points="0,-94 0,-206 109,-206 109,-94 0,-94"/>
<text text-anchor="start" x="8" y="-194" font-family="Helvetica,sans-Serif" font-size="10.00">scram::gui::model::</text>
<text text-anchor="middle" x="54.5" y="-183" font-family="Helvetica,sans-Serif" font-size="10.00">BasicEvent</text>
<polyline fill="none" stroke="black" points="0,-176 109,-176 "/>
<text text-anchor="middle" x="54.5" y="-164" font-family="Helvetica,sans-Serif" font-size="10.00"> </text>
<polyline fill="none" stroke="black" points="0,-157 109,-157 "/>
<text text-anchor="start" x="8" y="-145" font-family="Helvetica,sans-Serif" font-size="10.00">+ BasicEvent()</text>
<text text-anchor="start" x="8" y="-134" font-family="Helvetica,sans-Serif" font-size="10.00">+ flavor()</text>
<text text-anchor="start" x="8" y="-123" font-family="Helvetica,sans-Serif" font-size="10.00">+ expression()</text>
<text text-anchor="start" x="8" y="-112" font-family="Helvetica,sans-Serif" font-size="10.00">+ probability()</text>
<text text-anchor="start" x="8" y="-101" font-family="Helvetica,sans-Serif" font-size="10.00">+ flavorToString()</text>
</a>
</g>
</g>
<!-- Node1&#45;&gt;Node3 -->
<g id="edge2" class="edge"><title>Node1&#45;&gt;Node3</title>
<path fill="none" stroke="midnightblue" d="M198.656,-355.942C171.113,-342.76 140.289,-324.183 118.5,-300 94.5664,-273.437 78.6285,-236.559 68.6432,-206.138"/>
<polygon fill="none" stroke="midnightblue" points="197.308,-359.175 207.853,-360.206 200.252,-352.824 197.308,-359.175"/>
</g>
<!-- Node4 -->
<g id="node4" class="node"><title>Node4</title>
<g id="a_node4"><a xlink:href="classscram_1_1gui_1_1model_1_1Gate.xhtml" target="_top" xlink:title="The proxy to manage mef::Gate. ">
<polygon fill="white" stroke="black" points="127.5,-99.5 127.5,-200.5 259.5,-200.5 259.5,-99.5 127.5,-99.5"/>
<text text-anchor="middle" x="193.5" y="-188.5" font-family="Helvetica,sans-Serif" font-size="10.00">scram::gui::model::Gate</text>
<polyline fill="none" stroke="black" points="127.5,-181.5 259.5,-181.5 "/>
<text text-anchor="middle" x="193.5" y="-169.5" font-family="Helvetica,sans-Serif" font-size="10.00"> </text>
<polyline fill="none" stroke="black" points="127.5,-162.5 259.5,-162.5 "/>
<text text-anchor="start" x="135.5" y="-150.5" font-family="Helvetica,sans-Serif" font-size="10.00">+ Gate()</text>
<text text-anchor="start" x="135.5" y="-139.5" font-family="Helvetica,sans-Serif" font-size="10.00">+ type()</text>
<text text-anchor="start" x="135.5" y="-128.5" font-family="Helvetica,sans-Serif" font-size="10.00">+ numArgs()</text>
<text text-anchor="start" x="135.5" y="-117.5" font-family="Helvetica,sans-Serif" font-size="10.00">+ voteNumber()</text>
<text text-anchor="start" x="135.5" y="-106.5" font-family="Helvetica,sans-Serif" font-size="10.00">+ args()</text>
</a>
</g>
</g>
<!-- Node1&#45;&gt;Node4 -->
<g id="edge3" class="edge"><title>Node1&#45;&gt;Node4</title>
<path fill="none" stroke="midnightblue" d="M246.223,-326.362C234.777,-288.291 219.578,-237.737 208.44,-200.692"/>
<polygon fill="none" stroke="midnightblue" points="242.965,-327.681 249.196,-336.25 249.669,-325.666 242.965,-327.681"/>
</g>
<!-- Node5 -->
<g id="node5" class="node"><title>Node5</title>
<g id="a_node5"><a xlink:href="classscram_1_1gui_1_1model_1_1HouseEvent.xhtml" target="_top" xlink:title="The proxy to manage mef::HouseEvent. ">
<polygon fill="white" stroke="black" points="278,-110.5 278,-189.5 387,-189.5 387,-110.5 278,-110.5"/>
<text text-anchor="start" x="286" y="-177.5" font-family="Helvetica,sans-Serif" font-size="10.00">scram::gui::model::</text>
<text text-anchor="middle" x="332.5" y="-166.5" font-family="Helvetica,sans-Serif" font-size="10.00">HouseEvent</text>
<polyline fill="none" stroke="black" points="278,-159.5 387,-159.5 "/>
<text text-anchor="middle" x="332.5" y="-147.5" font-family="Helvetica,sans-Serif" font-size="10.00"> </text>
<polyline fill="none" stroke="black" points="278,-140.5 387,-140.5 "/>
<text text-anchor="start" x="286" y="-128.5" font-family="Helvetica,sans-Serif" font-size="10.00">+ HouseEvent()</text>
<text text-anchor="start" x="286" y="-117.5" font-family="Helvetica,sans-Serif" font-size="10.00">+ state()</text>
</a>
</g>
</g>
<!-- Node1&#45;&gt;Node5 -->
<g id="edge4" class="edge"><title>Node1&#45;&gt;Node5</title>
<path fill="none" stroke="midnightblue" d="M278.981,-326.466C291.784,-284.489 309.231,-227.288 320.675,-189.769"/>
<polygon fill="none" stroke="midnightblue" points="275.566,-325.664 275.997,-336.25 282.262,-327.706 275.566,-325.664"/>
</g>
<!-- Node6 -->
<g id="node6" class="node"><title>Node6</title>
<g id="a_node6"><a xlink:href="classscram_1_1gui_1_1model_1_1Model.xhtml" target="_top" xlink:title="The wrapper around the MEF Model. ">
<polygon fill="white" stroke="black" points="405,-0.5 405,-299.5 514,-299.5 514,-0.5 405,-0.5"/>
<text text-anchor="start" x="413" y="-287.5" font-family="Helvetica,sans-Serif" font-size="10.00">scram::gui::model::</text>
<text text-anchor="middle" x="459.5" y="-276.5" font-family="Helvetica,sans-Serif" font-size="10.00">Model</text>
<polyline fill="none" stroke="black" points="405,-269.5 514,-269.5 "/>
<text text-anchor="middle" x="459.5" y="-257.5" font-family="Helvetica,sans-Serif" font-size="10.00"> </text>
<polyline fill="none" stroke="black" points="405,-250.5 514,-250.5 "/>
<text text-anchor="start" x="413" y="-238.5" font-family="Helvetica,sans-Serif" font-size="10.00">+ Model()</text>
<text text-anchor="start" x="413" y="-227.5" font-family="Helvetica,sans-Serif" font-size="10.00">+ table()</text>
<text text-anchor="start" x="413" y="-216.5" font-family="Helvetica,sans-Serif" font-size="10.00">+ parents()</text>
<text text-anchor="start" x="413" y="-205.5" font-family="Helvetica,sans-Serif" font-size="10.00">+ houseEvents()</text>
<text text-anchor="start" x="413" y="-194.5" font-family="Helvetica,sans-Serif" font-size="10.00">+ basicEvents()</text>
<text text-anchor="start" x="413" y="-183.5" font-family="Helvetica,sans-Serif" font-size="10.00">+ gates()</text>
<text text-anchor="start" x="413" y="-172.5" font-family="Helvetica,sans-Serif" font-size="10.00">+ faultTrees()</text>
<text text-anchor="start" x="413" y="-161.5" font-family="Helvetica,sans-Serif" font-size="10.00">* m_houseEvents</text>
<text text-anchor="start" x="413" y="-150.5" font-family="Helvetica,sans-Serif" font-size="10.00">* m_basicEvents</text>
<text text-anchor="start" x="413" y="-139.5" font-family="Helvetica,sans-Serif" font-size="10.00">* m_gates</text>
<text text-anchor="start" x="413" y="-128.5" font-family="Helvetica,sans-Serif" font-size="10.00">* houseEvents()</text>
<text text-anchor="start" x="413" y="-117.5" font-family="Helvetica,sans-Serif" font-size="10.00">* basicEvents()</text>
<text text-anchor="start" x="413" y="-106.5" font-family="Helvetica,sans-Serif" font-size="10.00">* gates()</text>
<text text-anchor="start" x="413" y="-95.5" font-family="Helvetica,sans-Serif" font-size="10.00">* faultTrees()</text>
<text text-anchor="start" x="413" y="-84.5" font-family="Helvetica,sans-Serif" font-size="10.00">* added()</text>
<text text-anchor="start" x="413" y="-73.5" font-family="Helvetica,sans-Serif" font-size="10.00">* added()</text>
<text text-anchor="start" x="413" y="-62.5" font-family="Helvetica,sans-Serif" font-size="10.00">* added()</text>
<text text-anchor="start" x="413" y="-51.5" font-family="Helvetica,sans-Serif" font-size="10.00">* added()</text>
<text text-anchor="start" x="413" y="-40.5" font-family="Helvetica,sans-Serif" font-size="10.00">* removed()</text>
<text text-anchor="start" x="413" y="-29.5" font-family="Helvetica,sans-Serif" font-size="10.00">* removed()</text>
<text text-anchor="start" x="413" y="-18.5" font-family="Helvetica,sans-Serif" font-size="10.00">* removed()</text>
<text text-anchor="start" x="413" y="-7.5" font-family="Helvetica,sans-Serif" font-size="10.00">* removed()</text>
</a>
</g>
</g>
<!-- Node1&#45;&gt;Node6 -->
<g id="edge5" class="edge"><title>Node1&#45;&gt;Node6</title>
<path fill="none" stroke="midnightblue" d="M325.969,-353C350.55,-339.842 377.327,-322.085 396.5,-300 399.446,-296.607 402.27,-293.055 404.975,-289.379"/>
<polygon fill="none" stroke="midnightblue" points="324.294,-349.926 317.031,-357.64 327.519,-356.139 324.294,-349.926"/>
</g>
<!-- Node2 -->
<g id="node2" class="node"><title>Node2</title>
<polygon fill="white" stroke="#bfbfbf" points="235,-463.5 235,-520.5 290,-520.5 290,-463.5 235,-463.5"/>
<text text-anchor="middle" x="262.5" y="-508.5" font-family="Helvetica,sans-Serif" font-size="10.00">QObject</text>
<polyline fill="none" stroke="#bfbfbf" points="235,-501.5 290,-501.5 "/>
<text text-anchor="middle" x="262.5" y="-489.5" font-family="Helvetica,sans-Serif" font-size="10.00"> </text>
<polyline fill="none" stroke="#bfbfbf" points="235,-482.5 290,-482.5 "/>
<text text-anchor="middle" x="262.5" y="-470.5" font-family="Helvetica,sans-Serif" font-size="10.00"> </text>
</g>
<!-- Node2&#45;&gt;Node1 -->
<g id="edge1" class="edge"><title>Node2&#45;&gt;Node1</title>
<path fill="none" stroke="midnightblue" d="M262.5,-453.214C262.5,-444.609 262.5,-435.394 262.5,-426.554"/>
<polygon fill="none" stroke="midnightblue" points="259,-453.34 262.5,-463.34 266,-453.34 259,-453.34"/>
</g>
</g>
</svg>
