<?xml version="1.0" encoding="UTF-8" standalone="no"?>
<!DOCTYPE svg PUBLIC "-//W3C//DTD SVG 1.1//EN"
 "http://www.w3.org/Graphics/SVG/1.1/DTD/svg11.dtd">
<!-- Generated by graphviz version 2.38.0 (20140413.2041)
 -->
<!-- Title: scram::gui::ModelTree::data Pages: 1 -->
<svg width="278pt" height="186pt"
 viewBox="0.00 0.00 278.00 186.00" xmlns="http://www.w3.org/2000/svg" xmlns:xlink="http://www.w3.org/1999/xlink">
<g id="graph0" class="graph" transform="scale(1 1) rotate(0) translate(4 182)">
<title>scram::gui::ModelTree::data</title>
<polygon fill="white" stroke="none" points="-4,4 -4,-182 274,-182 274,4 -4,4"/>
<!-- Node1 -->
<g id="node1" class="node"><title>Node1</title>
<polygon fill="#bfbfbf" stroke="black" points="0,-73.5 0,-103.5 121,-103.5 121,-73.5 0,-73.5"/>
<text text-anchor="start" x="8" y="-91.5" font-family="Helvetica,sans-Serif" font-size="10.00">scram::gui::ModelTree</text>
<text text-anchor="middle" x="60.5" y="-80.5" font-family="Helvetica,sans-Serif" font-size="10.00">::data</text>
</g>
<!-- Node2 -->
<g id="node2" class="node"><title>Node2</title>
<g id="a_node2"><a xlink:href="classscram_1_1gui_1_1model_1_1Model.xhtml#ab2765dbdbbecacce8685c74c60228377" target="_top" xlink:title="The proxy element tables of the model. ">
<polygon fill="white" stroke="black" points="159,-147.5 159,-177.5 268,-177.5 268,-147.5 159,-147.5"/>
<text text-anchor="start" x="167" y="-165.5" font-family="Helvetica,sans-Serif" font-size="10.00">scram::gui::model::</text>
<text text-anchor="middle" x="213.5" y="-154.5" font-family="Helvetica,sans-Serif" font-size="10.00">Model::basicEvents</text>
</a>
</g>
</g>
<!-- Node1&#45;&gt;Node2 -->
<g id="edge1" class="edge"><title>Node1&#45;&gt;Node2</title>
<path fill="none" stroke="midnightblue" d="M89.2221,-103.71C108.137,-113.915 133.86,-127.458 157,-138.5 160.322,-140.085 163.775,-141.686 167.261,-143.269"/>
<polygon fill="midnightblue" stroke="midnightblue" points="165.94,-146.513 176.498,-147.394 168.794,-140.121 165.94,-146.513"/>
</g>
<!-- Node3 -->
<g id="node3" class="node"><title>Node3</title>
<g id="a_node3"><a xlink:href="classscram_1_1gui_1_1model_1_1Model.xhtml#a4818a52843b98d6ea4fcbde026405ffe" target="_top" xlink:title="The proxy element tables of the model. ">
<polygon fill="white" stroke="black" points="159,-98.5 159,-128.5 268,-128.5 268,-98.5 159,-98.5"/>
<text text-anchor="start" x="167" y="-116.5" font-family="Helvetica,sans-Serif" font-size="10.00">scram::gui::model::</text>
<text text-anchor="middle" x="213.5" y="-105.5" font-family="Helvetica,sans-Serif" font-size="10.00">Model::faultTrees</text>
</a>
</g>
</g>
<!-- Node1&#45;&gt;Node3 -->
<g id="edge2" class="edge"><title>Node1&#45;&gt;Node3</title>
<path fill="none" stroke="midnightblue" d="M121.179,-98.3807C130.163,-99.8681 139.461,-101.407 148.53,-102.909"/>
<polygon fill="midnightblue" stroke="midnightblue" points="148.208,-106.403 158.645,-104.584 149.351,-99.4971 148.208,-106.403"/>
</g>
<!-- Node4 -->
<g id="node4" class="node"><title>Node4</title>
<g id="a_node4"><a xlink:href="classscram_1_1gui_1_1model_1_1Model.xhtml#a49da2565500081e227483c22ff7012a6" target="_top" xlink:title="The proxy element tables of the model. ">
<polygon fill="white" stroke="black" points="159,-49.5 159,-79.5 268,-79.5 268,-49.5 159,-49.5"/>
<text text-anchor="start" x="167" y="-67.5" font-family="Helvetica,sans-Serif" font-size="10.00">scram::gui::model::</text>
<text text-anchor="middle" x="213.5" y="-56.5" font-family="Helvetica,sans-Serif" font-size="10.00">Model::gates</text>
</a>
</g>
</g>
<!-- Node1&#45;&gt;Node4 -->
<g id="edge3" class="edge"><title>Node1&#45;&gt;Node4</title>
<path fill="none" stroke="midnightblue" d="M121.179,-79.0146C130.163,-77.5866 139.461,-76.1089 148.53,-74.6674"/>
<polygon fill="midnightblue" stroke="midnightblue" points="149.318,-78.0861 158.645,-73.0597 148.22,-71.1729 149.318,-78.0861"/>
</g>
<!-- Node5 -->
<g id="node5" class="node"><title>Node5</title>
<g id="a_node5"><a xlink:href="classscram_1_1gui_1_1model_1_1Model.xhtml#afa74624b4e4b7e996d07541e9951b228" target="_top" xlink:title="The proxy element tables of the model. ">
<polygon fill="white" stroke="black" points="157,-0.5 157,-30.5 270,-30.5 270,-0.5 157,-0.5"/>
<text text-anchor="start" x="165" y="-18.5" font-family="Helvetica,sans-Serif" font-size="10.00">scram::gui::model::</text>
<text text-anchor="middle" x="213.5" y="-7.5" font-family="Helvetica,sans-Serif" font-size="10.00">Model::houseEvents</text>
</a>
</g>
</g>
<!-- Node1&#45;&gt;Node5 -->
<g id="edge4" class="edge"><title>Node1&#45;&gt;Node5</title>
<path fill="none" stroke="midnightblue" d="M90.5995,-73.4711C109.437,-63.8421 134.551,-51.1919 157,-40.5 160.864,-38.6596 164.895,-36.7759 168.942,-34.9085"/>
<polygon fill="midnightblue" stroke="midnightblue" points="170.708,-37.9499 178.347,-30.6092 167.797,-31.5835 170.708,-37.9499"/>
</g>
</g>
</svg>
