<?xml version="1.0" encoding="UTF-8" standalone="no"?>
<!DOCTYPE svg PUBLIC "-//W3C//DTD SVG 1.1//EN"
 "http://www.w3.org/Graphics/SVG/1.1/DTD/svg11.dtd">
<!-- Generated by graphviz version 2.38.0 (20140413.2041)
 -->
<!-- Title: diagram.h Pages: 1 -->
<svg width="1393pt" height="207pt"
 viewBox="0.00 0.00 1392.50 207.00" xmlns="http://www.w3.org/2000/svg" xmlns:xlink="http://www.w3.org/1999/xlink">
<g id="graph0" class="graph" transform="scale(1 1) rotate(0) translate(4 203)">
<title>diagram.h</title>
<polygon fill="white" stroke="none" points="-4,4 -4,-203 1388.5,-203 1388.5,4 -4,4"/>
<!-- Node1 -->
<g id="node1" class="node"><title>Node1</title>
<polygon fill="#bfbfbf" stroke="black" points="735,-179.5 735,-198.5 800,-198.5 800,-179.5 735,-179.5"/>
<text text-anchor="middle" x="767.5" y="-186.5" font-family="Helvetica,sans-Serif" font-size="10.00">diagram.h</text>
</g>
<!-- Node2 -->
<g id="node2" class="node"><title>Node2</title>
<polygon fill="white" stroke="#bfbfbf" points="0,-62 0,-81 57,-81 57,-62 0,-62"/>
<text text-anchor="middle" x="28.5" y="-69" font-family="Helvetica,sans-Serif" font-size="10.00">memory</text>
</g>
<!-- Node1&#45;&gt;Node2 -->
<g id="edge1" class="edge"><title>Node1&#45;&gt;Node2</title>
<path fill="none" stroke="midnightblue" d="M734.958,-185.782C662.525,-180.593 482.624,-166.306 333.5,-143 213.705,-124.278 182.836,-121.164 66.5,-87 63.9212,-86.2427 61.2693,-85.3901 58.6228,-84.4872"/>
<polygon fill="midnightblue" stroke="midnightblue" points="59.7981,-81.1904 49.2039,-81.0777 57.4155,-87.7725 59.7981,-81.1904"/>
</g>
<!-- Node3 -->
<g id="node3" class="node"><title>Node3</title>
<polygon fill="white" stroke="#bfbfbf" points="721,-123.5 721,-142.5 814,-142.5 814,-123.5 721,-123.5"/>
<text text-anchor="middle" x="767.5" y="-130.5" font-family="Helvetica,sans-Serif" font-size="10.00">unordered_map</text>
</g>
<!-- Node1&#45;&gt;Node3 -->
<g id="edge2" class="edge"><title>Node1&#45;&gt;Node3</title>
<path fill="none" stroke="midnightblue" d="M767.5,-179.083C767.5,-172.006 767.5,-161.861 767.5,-152.986"/>
<polygon fill="midnightblue" stroke="midnightblue" points="771,-152.751 767.5,-142.751 764,-152.751 771,-152.751"/>
</g>
<!-- Node4 -->
<g id="node4" class="node"><title>Node4</title>
<polygon fill="white" stroke="#bfbfbf" points="831.5,-123.5 831.5,-142.5 919.5,-142.5 919.5,-123.5 831.5,-123.5"/>
<text text-anchor="middle" x="875.5" y="-130.5" font-family="Helvetica,sans-Serif" font-size="10.00">QGraphicsItem</text>
</g>
<!-- Node1&#45;&gt;Node4 -->
<g id="edge3" class="edge"><title>Node1&#45;&gt;Node4</title>
<path fill="none" stroke="midnightblue" d="M784.852,-179.324C802.172,-170.664 829.015,-157.242 849.002,-147.249"/>
<polygon fill="midnightblue" stroke="midnightblue" points="850.812,-150.257 858.191,-142.655 847.681,-143.996 850.812,-150.257"/>
</g>
<!-- Node5 -->
<g id="node5" class="node"><title>Node5</title>
<polygon fill="white" stroke="#bfbfbf" points="937.5,-123.5 937.5,-142.5 1033.5,-142.5 1033.5,-123.5 937.5,-123.5"/>
<text text-anchor="middle" x="985.5" y="-130.5" font-family="Helvetica,sans-Serif" font-size="10.00">QGraphicsScene</text>
</g>
<!-- Node1&#45;&gt;Node5 -->
<g id="edge4" class="edge"><title>Node1&#45;&gt;Node5</title>
<path fill="none" stroke="midnightblue" d="M800.137,-179.916C837.555,-170.647 899.101,-155.401 940.919,-145.043"/>
<polygon fill="midnightblue" stroke="midnightblue" points="941.971,-148.388 950.836,-142.587 940.288,-141.594 941.971,-148.388"/>
</g>
<!-- Node6 -->
<g id="node6" class="node"><title>Node6</title>
<polygon fill="white" stroke="#bfbfbf" points="1051.5,-123.5 1051.5,-142.5 1095.5,-142.5 1095.5,-123.5 1051.5,-123.5"/>
<text text-anchor="middle" x="1073.5" y="-130.5" font-family="Helvetica,sans-Serif" font-size="10.00">QSize</text>
</g>
<!-- Node1&#45;&gt;Node6 -->
<g id="edge5" class="edge"><title>Node1&#45;&gt;Node6</title>
<path fill="none" stroke="midnightblue" d="M800.342,-183.928C850.391,-177.44 948.881,-163.57 1041.43,-143.019"/>
<polygon fill="midnightblue" stroke="midnightblue" points="1042.25,-146.424 1051.23,-140.812 1040.71,-139.595 1042.25,-146.424"/>
</g>
<!-- Node7 -->
<g id="node7" class="node"><title>Node7</title>
<polygon fill="white" stroke="#bfbfbf" points="75.5,-62 75.5,-81 145.5,-81 145.5,-62 75.5,-62"/>
<text text-anchor="middle" x="110.5" y="-69" font-family="Helvetica,sans-Serif" font-size="10.00">src/event.h</text>
</g>
<!-- Node1&#45;&gt;Node7 -->
<g id="edge6" class="edge"><title>Node1&#45;&gt;Node7</title>
<path fill="none" stroke="midnightblue" d="M734.907,-184.436C642.815,-173.98 373.157,-140.698 154.5,-87 151.036,-86.1494 147.452,-85.1584 143.894,-84.1012"/>
<polygon fill="midnightblue" stroke="midnightblue" points="144.642,-80.6676 134.053,-81.0079 142.543,-87.3455 144.642,-80.6676"/>
</g>
<!-- Node8 -->
<g id="node8" class="node"><title>Node8</title>
<g id="a_node8"><a xlink:href="model_8h.xhtml" target="_top" xlink:title="Wrapper Model classes for the MEF data. ">
<polygon fill="white" stroke="black" points="647.5,-123.5 647.5,-142.5 703.5,-142.5 703.5,-123.5 647.5,-123.5"/>
<text text-anchor="middle" x="675.5" y="-130.5" font-family="Helvetica,sans-Serif" font-size="10.00">model.h</text>
</a>
</g>
</g>
<!-- Node1&#45;&gt;Node8 -->
<g id="edge7" class="edge"><title>Node1&#45;&gt;Node8</title>
<path fill="none" stroke="midnightblue" d="M752.719,-179.324C738.233,-170.822 715.927,-157.729 699.007,-147.797"/>
<polygon fill="midnightblue" stroke="midnightblue" points="700.641,-144.698 690.245,-142.655 697.097,-150.735 700.641,-144.698"/>
</g>
<!-- Node8&#45;&gt;Node2 -->
<g id="edge8" class="edge"><title>Node8&#45;&gt;Node2</title>
<path fill="none" stroke="midnightblue" d="M647.403,-131.007C543.271,-127.159 179.554,-112.179 66.5,-87 63.4954,-86.3308 60.4121,-85.4691 57.3642,-84.4997"/>
<polygon fill="midnightblue" stroke="midnightblue" points="58.4825,-81.1828 47.8877,-81.141 56.1439,-87.7807 58.4825,-81.1828"/>
</g>
<!-- Node8&#45;&gt;Node7 -->
<g id="edge19" class="edge"><title>Node8&#45;&gt;Node7</title>
<path fill="none" stroke="midnightblue" d="M647.375,-130.434C553.309,-125.063 250.219,-106.627 154.5,-87 150.622,-86.2048 146.609,-85.1794 142.656,-84.0417"/>
<polygon fill="midnightblue" stroke="midnightblue" points="143.653,-80.6865 133.064,-81.0495 141.568,-87.3689 143.653,-80.6865"/>
</g>
<!-- Node9 -->
<g id="node9" class="node"><title>Node9</title>
<polygon fill="white" stroke="#bfbfbf" points="948.5,-62 948.5,-81 992.5,-81 992.5,-62 948.5,-62"/>
<text text-anchor="middle" x="970.5" y="-69" font-family="Helvetica,sans-Serif" font-size="10.00">string</text>
</g>
<!-- Node8&#45;&gt;Node9 -->
<g id="edge9" class="edge"><title>Node8&#45;&gt;Node9</title>
<path fill="none" stroke="midnightblue" d="M703.729,-124.883C706.683,-124.213 709.648,-123.572 712.5,-123 812.655,-102.912 841.834,-116.933 939.5,-87 941.375,-86.4254 943.281,-85.7581 945.18,-85.0314"/>
<polygon fill="midnightblue" stroke="midnightblue" points="946.623,-88.2209 954.43,-81.0583 943.86,-81.7892 946.623,-88.2209"/>
</g>
<!-- Node10 -->
<g id="node10" class="node"><title>Node10</title>
<polygon fill="white" stroke="#bfbfbf" points="993.5,-0.5 993.5,-19.5 1061.5,-19.5 1061.5,-0.5 993.5,-0.5"/>
<text text-anchor="middle" x="1027.5" y="-7.5" font-family="Helvetica,sans-Serif" font-size="10.00">type_traits</text>
</g>
<!-- Node8&#45;&gt;Node10 -->
<g id="edge10" class="edge"><title>Node8&#45;&gt;Node10</title>
<path fill="none" stroke="midnightblue" d="M703.71,-124.785C706.668,-124.134 709.639,-123.524 712.5,-123 776.158,-111.333 951.281,-127.823 1001.5,-87 1018.62,-73.0799 1024.51,-47.328 1026.51,-29.6915"/>
<polygon fill="midnightblue" stroke="midnightblue" points="1030,-29.9614 1027.33,-19.7083 1023.03,-29.3881 1030,-29.9614"/>
</g>
<!-- Node11 -->
<g id="node11" class="node"><title>Node11</title>
<polygon fill="white" stroke="#bfbfbf" points="1179,-62 1179,-81 1226,-81 1226,-62 1179,-62"/>
<text text-anchor="middle" x="1202.5" y="-69" font-family="Helvetica,sans-Serif" font-size="10.00">vector</text>
</g>
<!-- Node8&#45;&gt;Node11 -->
<g id="edge11" class="edge"><title>Node8&#45;&gt;Node11</title>
<path fill="none" stroke="midnightblue" d="M703.688,-124.654C706.65,-124.029 709.628,-123.461 712.5,-123 911.482,-91.0836 967.921,-131.372 1164.5,-87 1167.5,-86.3222 1170.58,-85.4548 1173.63,-84.482"/>
<polygon fill="midnightblue" stroke="midnightblue" points="1174.85,-87.7622 1183.11,-81.1186 1172.51,-81.1654 1174.85,-87.7622"/>
</g>
<!-- Node12 -->
<g id="node12" class="node"><title>Node12</title>
<polygon fill="white" stroke="#bfbfbf" points="1244.5,-56.5 1244.5,-86.5 1384.5,-86.5 1384.5,-56.5 1244.5,-56.5"/>
<text text-anchor="start" x="1252.5" y="-74.5" font-family="Helvetica,sans-Serif" font-size="10.00">boost/multi_index/hashed</text>
<text text-anchor="middle" x="1314.5" y="-63.5" font-family="Helvetica,sans-Serif" font-size="10.00">_index.hpp</text>
</g>
<!-- Node8&#45;&gt;Node12 -->
<g id="edge12" class="edge"><title>Node8&#45;&gt;Node12</title>
<path fill="none" stroke="midnightblue" d="M703.683,-124.622C706.646,-124.003 709.625,-123.445 712.5,-123 939.489,-87.8421 1002.55,-115.276 1234.26,-87.0505"/>
<polygon fill="midnightblue" stroke="midnightblue" points="1234.86,-90.5034 1244.35,-85.7994 1234,-83.5566 1234.86,-90.5034"/>
</g>
<!-- Node13 -->
<g id="node13" class="node"><title>Node13</title>
<polygon fill="white" stroke="#bfbfbf" points="163.5,-56.5 163.5,-86.5 293.5,-86.5 293.5,-56.5 163.5,-56.5"/>
<text text-anchor="start" x="171.5" y="-74.5" font-family="Helvetica,sans-Serif" font-size="10.00">boost/multi_index/mem</text>
<text text-anchor="middle" x="228.5" y="-63.5" font-family="Helvetica,sans-Serif" font-size="10.00">_fun.hpp</text>
</g>
<!-- Node8&#45;&gt;Node13 -->
<g id="edge13" class="edge"><title>Node8&#45;&gt;Node13</title>
<path fill="none" stroke="midnightblue" d="M647.327,-129.315C586.505,-123.366 438.187,-108.04 303.879,-87.1488"/>
<polygon fill="midnightblue" stroke="midnightblue" points="304.246,-83.6635 293.824,-85.57 303.16,-90.5788 304.246,-83.6635"/>
</g>
<!-- Node14 -->
<g id="node14" class="node"><title>Node14</title>
<polygon fill="white" stroke="#bfbfbf" points="311.5,-62 311.5,-81 483.5,-81 483.5,-62 311.5,-62"/>
<text text-anchor="middle" x="397.5" y="-69" font-family="Helvetica,sans-Serif" font-size="10.00">boost/multi_index_container.hpp</text>
</g>
<!-- Node8&#45;&gt;Node14 -->
<g id="edge14" class="edge"><title>Node8&#45;&gt;Node14</title>
<path fill="none" stroke="midnightblue" d="M647.314,-125.967C600.435,-115.934 505.836,-95.687 447.447,-83.1902"/>
<polygon fill="midnightblue" stroke="midnightblue" points="447.851,-79.6974 437.34,-81.0269 446.386,-86.5423 447.851,-79.6974"/>
</g>
<!-- Node15 -->
<g id="node15" class="node"><title>Node15</title>
<polygon fill="white" stroke="#bfbfbf" points="502,-62 502,-81 557,-81 557,-62 502,-62"/>
<text text-anchor="middle" x="529.5" y="-69" font-family="Helvetica,sans-Serif" font-size="10.00">QObject</text>
</g>
<!-- Node8&#45;&gt;Node15 -->
<g id="edge15" class="edge"><title>Node8&#45;&gt;Node15</title>
<path fill="none" stroke="midnightblue" d="M654.582,-123.475C629.754,-113.357 588.157,-96.4046 559.806,-84.8507"/>
<polygon fill="midnightblue" stroke="midnightblue" points="560.961,-81.5419 550.379,-81.0091 558.319,-88.0243 560.961,-81.5419"/>
</g>
<!-- Node16 -->
<g id="node16" class="node"><title>Node16</title>
<polygon fill="white" stroke="#bfbfbf" points="575,-62 575,-81 628,-81 628,-62 575,-62"/>
<text text-anchor="middle" x="601.5" y="-69" font-family="Helvetica,sans-Serif" font-size="10.00">QString</text>
</g>
<!-- Node8&#45;&gt;Node16 -->
<g id="edge16" class="edge"><title>Node8&#45;&gt;Node16</title>
<path fill="none" stroke="midnightblue" d="M664.898,-123.475C653.248,-114.108 634.314,-98.8839 620.165,-87.5081"/>
<polygon fill="midnightblue" stroke="midnightblue" points="622.069,-84.5477 612.083,-81.0091 617.683,-90.003 622.069,-84.5477"/>
</g>
<!-- Node17 -->
<g id="node17" class="node"><title>Node17</title>
<polygon fill="white" stroke="#bfbfbf" points="1093.5,-0.5 1093.5,-19.5 1193.5,-19.5 1193.5,-0.5 1093.5,-0.5"/>
<text text-anchor="middle" x="1143.5" y="-7.5" font-family="Helvetica,sans-Serif" font-size="10.00">QUndoCommand</text>
</g>
<!-- Node8&#45;&gt;Node17 -->
<g id="edge17" class="edge"><title>Node8&#45;&gt;Node17</title>
<path fill="none" stroke="midnightblue" d="M703.691,-124.672C706.652,-124.044 709.629,-123.47 712.5,-123 758.614,-115.456 1097.31,-118.849 1131.5,-87 1146.89,-72.66 1147.89,-47.1979 1146.37,-29.727"/>
<polygon fill="midnightblue" stroke="midnightblue" points="1149.82,-29.102 1145.14,-19.5973 1142.88,-29.9465 1149.82,-29.102"/>
</g>
<!-- Node18 -->
<g id="node18" class="node"><title>Node18</title>
<polygon fill="white" stroke="#bfbfbf" points="646.5,-62 646.5,-81 704.5,-81 704.5,-62 646.5,-62"/>
<text text-anchor="middle" x="675.5" y="-69" font-family="Helvetica,sans-Serif" font-size="10.00">QVariant</text>
</g>
<!-- Node8&#45;&gt;Node18 -->
<g id="edge18" class="edge"><title>Node8&#45;&gt;Node18</title>
<path fill="none" stroke="midnightblue" d="M675.5,-123.475C675.5,-115.08 675.5,-101.981 675.5,-91.1631"/>
<polygon fill="midnightblue" stroke="midnightblue" points="679,-91.0091 675.5,-81.0091 672,-91.0091 679,-91.0091"/>
</g>
<!-- Node19 -->
<g id="node19" class="node"><title>Node19</title>
<polygon fill="white" stroke="#bfbfbf" points="722.5,-62 722.5,-81 838.5,-81 838.5,-62 722.5,-62"/>
<text text-anchor="middle" x="780.5" y="-69" font-family="Helvetica,sans-Serif" font-size="10.00">src/ext/multi_index.h</text>
</g>
<!-- Node8&#45;&gt;Node19 -->
<g id="edge20" class="edge"><title>Node8&#45;&gt;Node19</title>
<path fill="none" stroke="midnightblue" d="M690.544,-123.475C707.775,-113.711 736.24,-97.5807 756.534,-86.0808"/>
<polygon fill="midnightblue" stroke="midnightblue" points="758.509,-88.9843 765.484,-81.0091 755.058,-82.8942 758.509,-88.9843"/>
</g>
<!-- Node20 -->
<g id="node20" class="node"><title>Node20</title>
<polygon fill="white" stroke="#bfbfbf" points="857,-62 857,-81 930,-81 930,-62 857,-62"/>
<text text-anchor="middle" x="893.5" y="-69" font-family="Helvetica,sans-Serif" font-size="10.00">src/model.h</text>
</g>
<!-- Node8&#45;&gt;Node20 -->
<g id="edge21" class="edge"><title>Node8&#45;&gt;Node20</title>
<path fill="none" stroke="midnightblue" d="M703.621,-125.097C737.776,-116.608 797.08,-101.533 847.5,-87 850.819,-86.0434 854.263,-85.0186 857.705,-83.9724"/>
<polygon fill="midnightblue" stroke="midnightblue" points="858.777,-87.3045 867.296,-81.0062 856.708,-80.617 858.777,-87.3045"/>
</g>
<!-- Node21 -->
<g id="node21" class="node"><title>Node21</title>
<g id="a_node21"><a xlink:href="command_8h.xhtml" target="_top" xlink:title="Undo&#45;redo helper facilities based on the Qt Undo framework. ">
<polygon fill="white" stroke="black" points="1048.5,-62 1048.5,-81 1122.5,-81 1122.5,-62 1048.5,-62"/>
<text text-anchor="middle" x="1085.5" y="-69" font-family="Helvetica,sans-Serif" font-size="10.00">command.h</text>
</a>
</g>
</g>
<!-- Node8&#45;&gt;Node21 -->
<g id="edge22" class="edge"><title>Node8&#45;&gt;Node21</title>
<path fill="none" stroke="midnightblue" d="M703.704,-124.748C706.663,-124.105 709.636,-123.506 712.5,-123 854.304,-97.9316 893.203,-114.786 1034.5,-87 1039.22,-86.072 1044.14,-84.9187 1048.97,-83.6709"/>
<polygon fill="midnightblue" stroke="midnightblue" points="1049.98,-87.0253 1058.71,-81.0184 1048.14,-80.2717 1049.98,-87.0253"/>
</g>
<!-- Node21&#45;&gt;Node10 -->
<g id="edge23" class="edge"><title>Node21&#45;&gt;Node10</title>
<path fill="none" stroke="midnightblue" d="M1077.19,-61.9751C1068.32,-52.8733 1054.05,-38.241 1043.08,-26.983"/>
<polygon fill="midnightblue" stroke="midnightblue" points="1045.28,-24.2268 1035.79,-19.5091 1040.27,-29.113 1045.28,-24.2268"/>
</g>
<!-- Node21&#45;&gt;Node17 -->
<g id="edge24" class="edge"><title>Node21&#45;&gt;Node17</title>
<path fill="none" stroke="midnightblue" d="M1093.81,-61.9751C1102.68,-52.8733 1116.95,-38.241 1127.92,-26.983"/>
<polygon fill="midnightblue" stroke="midnightblue" points="1130.73,-29.113 1135.21,-19.5091 1125.72,-24.2268 1130.73,-29.113"/>
</g>
</g>
</svg>
