<?xml version="1.0" encoding="UTF-8" standalone="no"?>
<!DOCTYPE svg PUBLIC "-//W3C//DTD SVG 1.1//EN"
 "http://www.w3.org/Graphics/SVG/1.1/DTD/svg11.dtd">
<!-- Generated by graphviz version 2.38.0 (20140413.2041)
 -->
<!-- Title: elementcontainermodel.h Pages: 1 -->
<svg width="1392pt" height="207pt"
 viewBox="0.00 0.00 1391.50 207.00" xmlns="http://www.w3.org/2000/svg" xmlns:xlink="http://www.w3.org/1999/xlink">
<g id="graph0" class="graph" transform="scale(1 1) rotate(0) translate(4 203)">
<title>elementcontainermodel.h</title>
<polygon fill="white" stroke="none" points="-4,4 -4,-203 1387.5,-203 1387.5,4 -4,4"/>
<!-- Node1 -->
<g id="node1" class="node"><title>Node1</title>
<polygon fill="#bfbfbf" stroke="black" points="567.5,-179.5 567.5,-198.5 707.5,-198.5 707.5,-179.5 567.5,-179.5"/>
<text text-anchor="middle" x="637.5" y="-186.5" font-family="Helvetica,sans-Serif" font-size="10.00">elementcontainermodel.h</text>
</g>
<!-- Node2 -->
<g id="node2" class="node"><title>Node2</title>
<polygon fill="white" stroke="#bfbfbf" points="383,-123.5 383,-142.5 432,-142.5 432,-123.5 383,-123.5"/>
<text text-anchor="middle" x="407.5" y="-130.5" font-family="Helvetica,sans-Serif" font-size="10.00">cstdint</text>
</g>
<!-- Node1&#45;&gt;Node2 -->
<g id="edge1" class="edge"><title>Node1&#45;&gt;Node2</title>
<path fill="none" stroke="midnightblue" d="M597.765,-179.433C559.997,-171.177 501.372,-158.069 442.218,-143.363"/>
<polygon fill="midnightblue" stroke="midnightblue" points="442.887,-139.923 432.337,-140.893 441.19,-146.714 442.887,-139.923"/>
</g>
<!-- Node3 -->
<g id="node3" class="node"><title>Node3</title>
<polygon fill="white" stroke="#bfbfbf" points="450,-123.5 450,-142.5 543,-142.5 543,-123.5 450,-123.5"/>
<text text-anchor="middle" x="496.5" y="-130.5" font-family="Helvetica,sans-Serif" font-size="10.00">unordered_map</text>
</g>
<!-- Node1&#45;&gt;Node3 -->
<g id="edge2" class="edge"><title>Node1&#45;&gt;Node3</title>
<path fill="none" stroke="midnightblue" d="M615.158,-179.444C591.747,-170.478 554.764,-156.314 528.31,-146.183"/>
<polygon fill="midnightblue" stroke="midnightblue" points="529.328,-142.824 518.737,-142.516 526.824,-149.361 529.328,-142.824"/>
</g>
<!-- Node4 -->
<g id="node4" class="node"><title>Node4</title>
<polygon fill="white" stroke="#bfbfbf" points="0,-62 0,-81 47,-81 47,-62 0,-62"/>
<text text-anchor="middle" x="23.5" y="-69" font-family="Helvetica,sans-Serif" font-size="10.00">vector</text>
</g>
<!-- Node1&#45;&gt;Node4 -->
<g id="edge3" class="edge"><title>Node1&#45;&gt;Node4</title>
<path fill="none" stroke="midnightblue" d="M627.51,-179.284C608.7,-163.075 568.403,-129.361 551.5,-123 345.052,-45.3145 270.585,-140.139 56.5,-87 54.1427,-86.4149 51.7417,-85.6739 49.3643,-84.8377"/>
<polygon fill="midnightblue" stroke="midnightblue" points="50.4812,-81.5143 39.8979,-81.0203 47.8632,-88.0063 50.4812,-81.5143"/>
</g>
<!-- Node5 -->
<g id="node5" class="node"><title>Node5</title>
<polygon fill="white" stroke="#bfbfbf" points="711,-123.5 711,-142.5 826,-142.5 826,-123.5 711,-123.5"/>
<text text-anchor="middle" x="768.5" y="-130.5" font-family="Helvetica,sans-Serif" font-size="10.00">QAbstractItemModel</text>
</g>
<!-- Node1&#45;&gt;Node5 -->
<g id="edge4" class="edge"><title>Node1&#45;&gt;Node5</title>
<path fill="none" stroke="midnightblue" d="M658.257,-179.444C679.816,-170.557 713.763,-156.563 738.294,-146.451"/>
<polygon fill="midnightblue" stroke="midnightblue" points="739.928,-149.563 747.84,-142.516 737.261,-143.092 739.928,-149.563"/>
</g>
<!-- Node6 -->
<g id="node6" class="node"><title>Node6</title>
<polygon fill="white" stroke="#bfbfbf" points="844.5,-123.5 844.5,-142.5 966.5,-142.5 966.5,-123.5 844.5,-123.5"/>
<text text-anchor="middle" x="905.5" y="-130.5" font-family="Helvetica,sans-Serif" font-size="10.00">QSortFilterProxyModel</text>
</g>
<!-- Node1&#45;&gt;Node6 -->
<g id="edge5" class="edge"><title>Node1&#45;&gt;Node6</title>
<path fill="none" stroke="midnightblue" d="M679.965,-179.444C726.913,-169.984 802.576,-154.738 853.154,-144.547"/>
<polygon fill="midnightblue" stroke="midnightblue" points="854.122,-147.923 863.233,-142.516 852.739,-141.061 854.122,-147.923"/>
</g>
<!-- Node7 -->
<g id="node7" class="node"><title>Node7</title>
<polygon fill="white" stroke="#bfbfbf" points="985,-123.5 985,-142.5 1068,-142.5 1068,-123.5 985,-123.5"/>
<text text-anchor="middle" x="1026.5" y="-130.5" font-family="Helvetica,sans-Serif" font-size="10.00">src/element.h</text>
</g>
<!-- Node1&#45;&gt;Node7 -->
<g id="edge6" class="edge"><title>Node1&#45;&gt;Node7</title>
<path fill="none" stroke="midnightblue" d="M707.537,-179.553C773.707,-171.373 875.998,-158.212 974.628,-143.078"/>
<polygon fill="midnightblue" stroke="midnightblue" points="975.426,-146.496 984.775,-141.511 974.358,-139.578 975.426,-146.496"/>
</g>
<!-- Node8 -->
<g id="node8" class="node"><title>Node8</title>
<polygon fill="white" stroke="#bfbfbf" points="65.5,-62 65.5,-81 135.5,-81 135.5,-62 65.5,-62"/>
<text text-anchor="middle" x="100.5" y="-69" font-family="Helvetica,sans-Serif" font-size="10.00">src/event.h</text>
</g>
<!-- Node1&#45;&gt;Node8 -->
<g id="edge7" class="edge"><title>Node1&#45;&gt;Node8</title>
<path fill="none" stroke="midnightblue" d="M633.52,-179.378C626.287,-164.832 609.488,-135.756 585.5,-123 498.686,-76.8334 240.868,-106.524 144.5,-87 140.62,-86.2139 136.606,-85.1942 132.652,-84.0596"/>
<polygon fill="midnightblue" stroke="midnightblue" points="133.648,-80.7041 123.06,-81.0706 131.566,-87.3872 133.648,-80.7041"/>
</g>
<!-- Node9 -->
<g id="node9" class="node"><title>Node9</title>
<g id="a_node9"><a xlink:href="model_8h.xhtml" target="_top" xlink:title="Wrapper Model classes for the MEF data. ">
<polygon fill="white" stroke="black" points="637.5,-123.5 637.5,-142.5 693.5,-142.5 693.5,-123.5 637.5,-123.5"/>
<text text-anchor="middle" x="665.5" y="-130.5" font-family="Helvetica,sans-Serif" font-size="10.00">model.h</text>
</a>
</g>
</g>
<!-- Node1&#45;&gt;Node9 -->
<g id="edge8" class="edge"><title>Node1&#45;&gt;Node9</title>
<path fill="none" stroke="midnightblue" d="M642.124,-179.083C645.956,-171.691 651.524,-160.953 656.265,-151.811"/>
<polygon fill="midnightblue" stroke="midnightblue" points="659.466,-153.24 660.962,-142.751 653.252,-150.018 659.466,-153.24"/>
</g>
<!-- Node9&#45;&gt;Node4 -->
<g id="edge12" class="edge"><title>Node9&#45;&gt;Node4</title>
<path fill="none" stroke="midnightblue" d="M637.393,-128.531C622.07,-126.718 602.761,-124.557 585.5,-123 350.799,-101.822 285.346,-143.239 56.5,-87 54.1414,-86.4204 51.7394,-85.6832 49.3614,-84.8496"/>
<polygon fill="midnightblue" stroke="midnightblue" points="50.4775,-81.5259 39.8939,-81.0363 47.8622,-88.019 50.4775,-81.5259"/>
</g>
<!-- Node9&#45;&gt;Node8 -->
<g id="edge20" class="edge"><title>Node9&#45;&gt;Node8</title>
<path fill="none" stroke="midnightblue" d="M637.128,-125.373C632.588,-124.471 627.929,-123.638 623.5,-123 412.191,-92.5635 353.874,-128.718 144.5,-87 140.618,-86.2264 136.602,-85.2143 132.647,-84.084"/>
<polygon fill="midnightblue" stroke="midnightblue" points="133.642,-80.7283 123.054,-81.0994 131.563,-87.4122 133.642,-80.7283"/>
</g>
<!-- Node10 -->
<g id="node10" class="node"><title>Node10</title>
<polygon fill="white" stroke="#bfbfbf" points="938,-62 938,-81 995,-81 995,-62 938,-62"/>
<text text-anchor="middle" x="966.5" y="-69" font-family="Helvetica,sans-Serif" font-size="10.00">memory</text>
</g>
<!-- Node9&#45;&gt;Node10 -->
<g id="edge9" class="edge"><title>Node9&#45;&gt;Node10</title>
<path fill="none" stroke="midnightblue" d="M693.745,-124.69C696.36,-124.088 698.975,-123.515 701.5,-123 801.591,-102.593 829.807,-113.35 928.5,-87 931.159,-86.2902 933.888,-85.4605 936.606,-84.5639"/>
<polygon fill="midnightblue" stroke="midnightblue" points="938.007,-87.7798 946.246,-81.118 935.651,-81.1882 938.007,-87.7798"/>
</g>
<!-- Node11 -->
<g id="node11" class="node"><title>Node11</title>
<polygon fill="white" stroke="#bfbfbf" points="1013.5,-62 1013.5,-81 1057.5,-81 1057.5,-62 1013.5,-62"/>
<text text-anchor="middle" x="1035.5" y="-69" font-family="Helvetica,sans-Serif" font-size="10.00">string</text>
</g>
<!-- Node9&#45;&gt;Node11 -->
<g id="edge10" class="edge"><title>Node9&#45;&gt;Node11</title>
<path fill="none" stroke="midnightblue" d="M693.725,-124.586C696.344,-124.006 698.966,-123.466 701.5,-123 834.445,-98.5592 873.299,-123.321 1003.5,-87 1005.65,-86.4008 1007.84,-85.6769 1010.01,-84.8763"/>
<polygon fill="midnightblue" stroke="midnightblue" points="1011.37,-88.1002 1019.25,-81.0231 1008.68,-81.6387 1011.37,-88.1002"/>
</g>
<!-- Node12 -->
<g id="node12" class="node"><title>Node12</title>
<polygon fill="white" stroke="#bfbfbf" points="1058.5,-0.5 1058.5,-19.5 1126.5,-19.5 1126.5,-0.5 1058.5,-0.5"/>
<text text-anchor="middle" x="1092.5" y="-7.5" font-family="Helvetica,sans-Serif" font-size="10.00">type_traits</text>
</g>
<!-- Node9&#45;&gt;Node12 -->
<g id="edge11" class="edge"><title>Node9&#45;&gt;Node12</title>
<path fill="none" stroke="midnightblue" d="M693.715,-124.531C696.336,-123.962 698.961,-123.44 701.5,-123 781.807,-109.079 1002.6,-137.597 1066.5,-87 1083.8,-73.3004 1089.65,-47.4963 1091.59,-29.7879"/>
<polygon fill="midnightblue" stroke="midnightblue" points="1095.08,-30.0007 1092.37,-19.7585 1088.11,-29.4556 1095.08,-30.0007"/>
</g>
<!-- Node13 -->
<g id="node13" class="node"><title>Node13</title>
<polygon fill="white" stroke="#bfbfbf" points="1243.5,-56.5 1243.5,-86.5 1383.5,-86.5 1383.5,-56.5 1243.5,-56.5"/>
<text text-anchor="start" x="1251.5" y="-74.5" font-family="Helvetica,sans-Serif" font-size="10.00">boost/multi_index/hashed</text>
<text text-anchor="middle" x="1313.5" y="-63.5" font-family="Helvetica,sans-Serif" font-size="10.00">_index.hpp</text>
</g>
<!-- Node9&#45;&gt;Node13 -->
<g id="edge13" class="edge"><title>Node9&#45;&gt;Node13</title>
<path fill="none" stroke="midnightblue" d="M693.702,-124.448C696.326,-123.898 698.955,-123.402 701.5,-123 933.836,-86.3331 995.966,-115.042 1229.5,-87 1230.78,-86.8462 1232.07,-86.686 1233.37,-86.5201"/>
<polygon fill="midnightblue" stroke="midnightblue" points="1234.02,-89.9646 1243.45,-85.1461 1233.07,-83.0287 1234.02,-89.9646"/>
</g>
<!-- Node14 -->
<g id="node14" class="node"><title>Node14</title>
<polygon fill="white" stroke="#bfbfbf" points="153.5,-56.5 153.5,-86.5 283.5,-86.5 283.5,-56.5 153.5,-56.5"/>
<text text-anchor="start" x="161.5" y="-74.5" font-family="Helvetica,sans-Serif" font-size="10.00">boost/multi_index/mem</text>
<text text-anchor="middle" x="218.5" y="-63.5" font-family="Helvetica,sans-Serif" font-size="10.00">_fun.hpp</text>
</g>
<!-- Node9&#45;&gt;Node14 -->
<g id="edge14" class="edge"><title>Node9&#45;&gt;Node14</title>
<path fill="none" stroke="midnightblue" d="M637.108,-125.503C632.571,-124.584 627.917,-123.712 623.5,-123 480.686,-99.9946 440.585,-108.825 294.087,-87.1546"/>
<polygon fill="midnightblue" stroke="midnightblue" points="294.226,-83.6364 283.817,-85.6118 293.186,-90.5587 294.226,-83.6364"/>
</g>
<!-- Node15 -->
<g id="node15" class="node"><title>Node15</title>
<polygon fill="white" stroke="#bfbfbf" points="301.5,-62 301.5,-81 473.5,-81 473.5,-62 301.5,-62"/>
<text text-anchor="middle" x="387.5" y="-69" font-family="Helvetica,sans-Serif" font-size="10.00">boost/multi_index_container.hpp</text>
</g>
<!-- Node9&#45;&gt;Node15 -->
<g id="edge15" class="edge"><title>Node9&#45;&gt;Node15</title>
<path fill="none" stroke="midnightblue" d="M637.486,-125.996C632.816,-124.995 628.021,-123.968 623.5,-123 559.24,-109.24 485.134,-93.3845 437.368,-83.1665"/>
<polygon fill="midnightblue" stroke="midnightblue" points="438.099,-79.7438 427.588,-81.0744 436.635,-86.5889 438.099,-79.7438"/>
</g>
<!-- Node16 -->
<g id="node16" class="node"><title>Node16</title>
<polygon fill="white" stroke="#bfbfbf" points="492,-62 492,-81 547,-81 547,-62 492,-62"/>
<text text-anchor="middle" x="519.5" y="-69" font-family="Helvetica,sans-Serif" font-size="10.00">QObject</text>
</g>
<!-- Node9&#45;&gt;Node16 -->
<g id="edge16" class="edge"><title>Node9&#45;&gt;Node16</title>
<path fill="none" stroke="midnightblue" d="M644.582,-123.475C619.754,-113.357 578.157,-96.4046 549.806,-84.8507"/>
<polygon fill="midnightblue" stroke="midnightblue" points="550.961,-81.5419 540.379,-81.0091 548.319,-88.0243 550.961,-81.5419"/>
</g>
<!-- Node17 -->
<g id="node17" class="node"><title>Node17</title>
<polygon fill="white" stroke="#bfbfbf" points="565,-62 565,-81 618,-81 618,-62 565,-62"/>
<text text-anchor="middle" x="591.5" y="-69" font-family="Helvetica,sans-Serif" font-size="10.00">QString</text>
</g>
<!-- Node9&#45;&gt;Node17 -->
<g id="edge17" class="edge"><title>Node9&#45;&gt;Node17</title>
<path fill="none" stroke="midnightblue" d="M654.898,-123.475C643.248,-114.108 624.314,-98.8839 610.165,-87.5081"/>
<polygon fill="midnightblue" stroke="midnightblue" points="612.069,-84.5477 602.083,-81.0091 607.683,-90.003 612.069,-84.5477"/>
</g>
<!-- Node18 -->
<g id="node18" class="node"><title>Node18</title>
<polygon fill="white" stroke="#bfbfbf" points="1158.5,-0.5 1158.5,-19.5 1258.5,-19.5 1258.5,-0.5 1158.5,-0.5"/>
<text text-anchor="middle" x="1208.5" y="-7.5" font-family="Helvetica,sans-Serif" font-size="10.00">QUndoCommand</text>
</g>
<!-- Node9&#45;&gt;Node18 -->
<g id="edge18" class="edge"><title>Node9&#45;&gt;Node18</title>
<path fill="none" stroke="midnightblue" d="M693.703,-124.461C696.327,-123.907 698.955,-123.407 701.5,-123 755.952,-114.28 1155.9,-124.322 1196.5,-87 1211.99,-72.7612 1212.96,-47.2758 1211.42,-29.7719"/>
<polygon fill="midnightblue" stroke="midnightblue" points="1214.86,-29.1172 1210.17,-19.6204 1207.91,-29.9735 1214.86,-29.1172"/>
</g>
<!-- Node19 -->
<g id="node19" class="node"><title>Node19</title>
<polygon fill="white" stroke="#bfbfbf" points="636.5,-62 636.5,-81 694.5,-81 694.5,-62 636.5,-62"/>
<text text-anchor="middle" x="665.5" y="-69" font-family="Helvetica,sans-Serif" font-size="10.00">QVariant</text>
</g>
<!-- Node9&#45;&gt;Node19 -->
<g id="edge19" class="edge"><title>Node9&#45;&gt;Node19</title>
<path fill="none" stroke="midnightblue" d="M665.5,-123.475C665.5,-115.08 665.5,-101.981 665.5,-91.1631"/>
<polygon fill="midnightblue" stroke="midnightblue" points="669,-91.0091 665.5,-81.0091 662,-91.0091 669,-91.0091"/>
</g>
<!-- Node20 -->
<g id="node20" class="node"><title>Node20</title>
<polygon fill="white" stroke="#bfbfbf" points="712.5,-62 712.5,-81 828.5,-81 828.5,-62 712.5,-62"/>
<text text-anchor="middle" x="770.5" y="-69" font-family="Helvetica,sans-Serif" font-size="10.00">src/ext/multi_index.h</text>
</g>
<!-- Node9&#45;&gt;Node20 -->
<g id="edge21" class="edge"><title>Node9&#45;&gt;Node20</title>
<path fill="none" stroke="midnightblue" d="M680.544,-123.475C697.775,-113.711 726.24,-97.5807 746.534,-86.0808"/>
<polygon fill="midnightblue" stroke="midnightblue" points="748.509,-88.9843 755.484,-81.0091 745.058,-82.8942 748.509,-88.9843"/>
</g>
<!-- Node21 -->
<g id="node21" class="node"><title>Node21</title>
<polygon fill="white" stroke="#bfbfbf" points="847,-62 847,-81 920,-81 920,-62 847,-62"/>
<text text-anchor="middle" x="883.5" y="-69" font-family="Helvetica,sans-Serif" font-size="10.00">src/model.h</text>
</g>
<!-- Node9&#45;&gt;Node21 -->
<g id="edge22" class="edge"><title>Node9&#45;&gt;Node21</title>
<path fill="none" stroke="midnightblue" d="M693.541,-124.844C734.962,-114.242 810.511,-94.7792 837.5,-87 840.819,-86.0434 844.263,-85.0186 847.705,-83.9724"/>
<polygon fill="midnightblue" stroke="midnightblue" points="848.777,-87.3045 857.296,-81.0062 846.708,-80.617 848.777,-87.3045"/>
</g>
<!-- Node22 -->
<g id="node22" class="node"><title>Node22</title>
<g id="a_node22"><a xlink:href="command_8h.xhtml" target="_top" xlink:title="Undo&#45;redo helper facilities based on the Qt Undo framework. ">
<polygon fill="white" stroke="black" points="1113.5,-62 1113.5,-81 1187.5,-81 1187.5,-62 1113.5,-62"/>
<text text-anchor="middle" x="1150.5" y="-69" font-family="Helvetica,sans-Serif" font-size="10.00">command.h</text>
</a>
</g>
</g>
<!-- Node9&#45;&gt;Node22 -->
<g id="edge23" class="edge"><title>Node9&#45;&gt;Node22</title>
<path fill="none" stroke="midnightblue" d="M693.711,-124.509C696.333,-123.945 698.959,-123.43 701.5,-123 876.623,-93.3728 924.874,-119.427 1099.5,-87 1104.28,-86.1119 1109.26,-84.9726 1114.16,-83.7237"/>
<polygon fill="midnightblue" stroke="midnightblue" points="1115.26,-87.0518 1123.99,-81.0514 1113.42,-80.2968 1115.26,-87.0518"/>
</g>
<!-- Node22&#45;&gt;Node12 -->
<g id="edge24" class="edge"><title>Node22&#45;&gt;Node12</title>
<path fill="none" stroke="midnightblue" d="M1142.19,-61.9751C1133.32,-52.8733 1119.05,-38.241 1108.08,-26.983"/>
<polygon fill="midnightblue" stroke="midnightblue" points="1110.28,-24.2268 1100.79,-19.5091 1105.27,-29.113 1110.28,-24.2268"/>
</g>
<!-- Node22&#45;&gt;Node18 -->
<g id="edge25" class="edge"><title>Node22&#45;&gt;Node18</title>
<path fill="none" stroke="midnightblue" d="M1158.81,-61.9751C1167.68,-52.8733 1181.95,-38.241 1192.92,-26.983"/>
<polygon fill="midnightblue" stroke="midnightblue" points="1195.73,-29.113 1200.21,-19.5091 1190.72,-24.2268 1195.73,-29.113"/>
</g>
</g>
</svg>
