<?xml version="1.0" encoding="UTF-8" standalone="no"?>
<!DOCTYPE svg PUBLIC "-//W3C//DTD SVG 1.1//EN"
 "http://www.w3.org/Graphics/SVG/1.1/DTD/svg11.dtd">
<!-- Generated by graphviz version 2.38.0 (20140413.2041)
 -->
<!-- Title: elementcontainermodel.cpp Pages: 1 -->
<svg width="1666pt" height="263pt"
 viewBox="0.00 0.00 1665.50 263.00" xmlns="http://www.w3.org/2000/svg" xmlns:xlink="http://www.w3.org/1999/xlink">
<g id="graph0" class="graph" transform="scale(1 1) rotate(0) translate(4 259)">
<title>elementcontainermodel.cpp</title>
<polygon fill="white" stroke="none" points="-4,4 -4,-259 1661.5,-259 1661.5,4 -4,4"/>
<!-- Node1 -->
<g id="node1" class="node"><title>Node1</title>
<polygon fill="#bfbfbf" stroke="black" points="1308,-235.5 1308,-254.5 1460,-254.5 1460,-235.5 1308,-235.5"/>
<text text-anchor="middle" x="1384" y="-242.5" font-family="Helvetica,sans-Serif" font-size="10.00">elementcontainermodel.cpp</text>
</g>
<!-- Node2 -->
<g id="node2" class="node"><title>Node2</title>
<g id="a_node2"><a xlink:href="elementcontainermodel_8h.xhtml" target="_top" xlink:title="The table model for elements. ">
<polygon fill="white" stroke="black" points="669,-179.5 669,-198.5 809,-198.5 809,-179.5 669,-179.5"/>
<text text-anchor="middle" x="739" y="-186.5" font-family="Helvetica,sans-Serif" font-size="10.00">elementcontainermodel.h</text>
</a>
</g>
</g>
<!-- Node1&#45;&gt;Node2 -->
<g id="edge1" class="edge"><title>Node1&#45;&gt;Node2</title>
<path fill="none" stroke="midnightblue" d="M1307.8,-237.62C1185.07,-227.345 944.754,-207.226 819.405,-196.732"/>
<polygon fill="midnightblue" stroke="midnightblue" points="819.368,-193.216 809.111,-195.87 818.784,-200.192 819.368,-193.216"/>
</g>
<!-- Node9 -->
<g id="node9" class="node"><title>Node9</title>
<polygon fill="white" stroke="#bfbfbf" points="0,-62 0,-81 70,-81 70,-62 0,-62"/>
<text text-anchor="middle" x="35" y="-69" font-family="Helvetica,sans-Serif" font-size="10.00">src/event.h</text>
</g>
<!-- Node1&#45;&gt;Node9 -->
<g id="edge27" class="edge"><title>Node1&#45;&gt;Node9</title>
<path fill="none" stroke="midnightblue" d="M1307.7,-240.768C1081.78,-230.674 419.056,-197.136 210,-143 155.166,-128.801 94.5594,-101.615 61.0003,-85.467"/>
<polygon fill="midnightblue" stroke="midnightblue" points="62.4077,-82.2595 51.8844,-81.0308 59.3446,-88.5538 62.4077,-82.2595"/>
</g>
<!-- Node22 -->
<g id="node22" class="node"><title>Node22</title>
<polygon fill="white" stroke="#bfbfbf" points="1322.5,-62 1322.5,-81 1395.5,-81 1395.5,-62 1322.5,-62"/>
<text text-anchor="middle" x="1359" y="-69" font-family="Helvetica,sans-Serif" font-size="10.00">src/model.h</text>
</g>
<!-- Node1&#45;&gt;Node22 -->
<g id="edge29" class="edge"><title>Node1&#45;&gt;Node22</title>
<path fill="none" stroke="midnightblue" d="M1382.73,-235.26C1378.85,-208.651 1367.12,-128.215 1361.75,-91.3382"/>
<polygon fill="midnightblue" stroke="midnightblue" points="1365.15,-90.4099 1360.24,-81.0194 1358.22,-91.4197 1365.15,-90.4099"/>
</g>
<!-- Node24 -->
<g id="node24" class="node"><title>Node24</title>
<polygon fill="white" stroke="#bfbfbf" points="1412,-179.5 1412,-198.5 1506,-198.5 1506,-179.5 1412,-179.5"/>
<text text-anchor="middle" x="1459" y="-186.5" font-family="Helvetica,sans-Serif" font-size="10.00">src/ext/variant.h</text>
</g>
<!-- Node1&#45;&gt;Node24 -->
<g id="edge28" class="edge"><title>Node1&#45;&gt;Node24</title>
<path fill="none" stroke="midnightblue" d="M1396.05,-235.324C1407.46,-227.107 1424.83,-214.602 1438.43,-204.807"/>
<polygon fill="midnightblue" stroke="midnightblue" points="1440.66,-207.517 1446.73,-198.834 1436.57,-201.837 1440.66,-207.517"/>
</g>
<!-- Node25 -->
<g id="node25" class="node"><title>Node25</title>
<g id="a_node25"><a xlink:href="align_8h.xhtml" target="_top" xlink:title="Text alignment common conventions. ">
<polygon fill="white" stroke="black" points="1524,-179.5 1524,-198.5 1572,-198.5 1572,-179.5 1524,-179.5"/>
<text text-anchor="middle" x="1548" y="-186.5" font-family="Helvetica,sans-Serif" font-size="10.00">align.h</text>
</a>
</g>
</g>
<!-- Node1&#45;&gt;Node25 -->
<g id="edge30" class="edge"><title>Node1&#45;&gt;Node25</title>
<path fill="none" stroke="midnightblue" d="M1409.99,-235.444C1438.19,-226.159 1483.31,-211.3 1514.24,-201.117"/>
<polygon fill="midnightblue" stroke="midnightblue" points="1515.34,-204.44 1523.74,-197.988 1513.15,-197.791 1515.34,-204.44"/>
</g>
<!-- Node27 -->
<g id="node27" class="node"><title>Node27</title>
<g id="a_node27"><a xlink:href="guiassert_8h.xhtml" target="_top" xlink:title="GUI assertions that should not crash the program by default. ">
<polygon fill="white" stroke="black" points="1204,-179.5 1204,-198.5 1274,-198.5 1274,-179.5 1204,-179.5"/>
<text text-anchor="middle" x="1239" y="-186.5" font-family="Helvetica,sans-Serif" font-size="10.00">guiassert.h</text>
</a>
</g>
</g>
<!-- Node1&#45;&gt;Node27 -->
<g id="edge32" class="edge"><title>Node1&#45;&gt;Node27</title>
<path fill="none" stroke="midnightblue" d="M1361.02,-235.444C1336.84,-226.438 1298.58,-212.189 1271.35,-202.049"/>
<polygon fill="midnightblue" stroke="midnightblue" points="1272.46,-198.727 1261.87,-198.516 1270.02,-205.286 1272.46,-198.727"/>
</g>
<!-- Node30 -->
<g id="node30" class="node"><title>Node30</title>
<g id="a_node30"><a xlink:href="overload_8h.xhtml" target="_top" xlink:title="Facilities to help with pointers to overloaded functions. ">
<polygon fill="white" stroke="black" points="1590.5,-179.5 1590.5,-198.5 1657.5,-198.5 1657.5,-179.5 1590.5,-179.5"/>
<text text-anchor="middle" x="1624" y="-186.5" font-family="Helvetica,sans-Serif" font-size="10.00">overload.h</text>
</a>
</g>
</g>
<!-- Node1&#45;&gt;Node30 -->
<g id="edge36" class="edge"><title>Node1&#45;&gt;Node30</title>
<path fill="none" stroke="midnightblue" d="M1422.03,-235.444C1465.16,-225.739 1535.35,-209.945 1580.6,-199.766"/>
<polygon fill="midnightblue" stroke="midnightblue" points="1581.42,-203.168 1590.41,-197.558 1579.88,-196.339 1581.42,-203.168"/>
</g>
<!-- Node3 -->
<g id="node3" class="node"><title>Node3</title>
<polygon fill="white" stroke="#bfbfbf" points="919.5,-123.5 919.5,-142.5 968.5,-142.5 968.5,-123.5 919.5,-123.5"/>
<text text-anchor="middle" x="944" y="-130.5" font-family="Helvetica,sans-Serif" font-size="10.00">cstdint</text>
</g>
<!-- Node2&#45;&gt;Node3 -->
<g id="edge2" class="edge"><title>Node2&#45;&gt;Node3</title>
<path fill="none" stroke="midnightblue" d="M771.467,-179.471C803.918,-170.943 855.504,-157.377 909.7,-143.076"/>
<polygon fill="midnightblue" stroke="midnightblue" points="910.711,-146.429 919.487,-140.493 908.925,-139.661 910.711,-146.429"/>
</g>
<!-- Node4 -->
<g id="node4" class="node"><title>Node4</title>
<polygon fill="white" stroke="#bfbfbf" points="986.5,-123.5 986.5,-142.5 1079.5,-142.5 1079.5,-123.5 986.5,-123.5"/>
<text text-anchor="middle" x="1033" y="-130.5" font-family="Helvetica,sans-Serif" font-size="10.00">unordered_map</text>
</g>
<!-- Node2&#45;&gt;Node4 -->
<g id="edge3" class="edge"><title>Node2&#45;&gt;Node4</title>
<path fill="none" stroke="midnightblue" d="M785.585,-179.444C837.41,-169.925 921.132,-154.547 976.615,-144.356"/>
<polygon fill="midnightblue" stroke="midnightblue" points="977.43,-147.765 986.633,-142.516 976.165,-140.881 977.43,-147.765"/>
</g>
<!-- Node5 -->
<g id="node5" class="node"><title>Node5</title>
<polygon fill="white" stroke="#bfbfbf" points="88.5,-62 88.5,-81 135.5,-81 135.5,-62 88.5,-62"/>
<text text-anchor="middle" x="112" y="-69" font-family="Helvetica,sans-Serif" font-size="10.00">vector</text>
</g>
<!-- Node2&#45;&gt;Node5 -->
<g id="edge4" class="edge"><title>Node2&#45;&gt;Node5</title>
<path fill="none" stroke="midnightblue" d="M677.103,-179.493C546.001,-161.147 244.228,-117.09 145,-87 143.069,-86.4144 141.1,-85.7461 139.135,-85.0255"/>
<polygon fill="midnightblue" stroke="midnightblue" points="140.099,-81.6395 129.516,-81.1242 137.468,-88.1263 140.099,-81.6395"/>
</g>
<!-- Node6 -->
<g id="node6" class="node"><title>Node6</title>
<polygon fill="white" stroke="#bfbfbf" points="544.5,-123.5 544.5,-142.5 659.5,-142.5 659.5,-123.5 544.5,-123.5"/>
<text text-anchor="middle" x="602" y="-130.5" font-family="Helvetica,sans-Serif" font-size="10.00">QAbstractItemModel</text>
</g>
<!-- Node2&#45;&gt;Node6 -->
<g id="edge5" class="edge"><title>Node2&#45;&gt;Node6</title>
<path fill="none" stroke="midnightblue" d="M717.292,-179.444C694.645,-170.517 658.928,-156.439 633.248,-146.317"/>
<polygon fill="midnightblue" stroke="midnightblue" points="634.193,-142.927 623.606,-142.516 631.626,-149.44 634.193,-142.927"/>
</g>
<!-- Node7 -->
<g id="node7" class="node"><title>Node7</title>
<polygon fill="white" stroke="#bfbfbf" points="678,-123.5 678,-142.5 800,-142.5 800,-123.5 678,-123.5"/>
<text text-anchor="middle" x="739" y="-130.5" font-family="Helvetica,sans-Serif" font-size="10.00">QSortFilterProxyModel</text>
</g>
<!-- Node2&#45;&gt;Node7 -->
<g id="edge6" class="edge"><title>Node2&#45;&gt;Node7</title>
<path fill="none" stroke="midnightblue" d="M739,-179.083C739,-172.006 739,-161.861 739,-152.986"/>
<polygon fill="midnightblue" stroke="midnightblue" points="742.5,-152.751 739,-142.751 735.5,-152.751 742.5,-152.751"/>
</g>
<!-- Node8 -->
<g id="node8" class="node"><title>Node8</title>
<polygon fill="white" stroke="#bfbfbf" points="818.5,-123.5 818.5,-142.5 901.5,-142.5 901.5,-123.5 818.5,-123.5"/>
<text text-anchor="middle" x="860" y="-130.5" font-family="Helvetica,sans-Serif" font-size="10.00">src/element.h</text>
</g>
<!-- Node2&#45;&gt;Node8 -->
<g id="edge7" class="edge"><title>Node2&#45;&gt;Node8</title>
<path fill="none" stroke="midnightblue" d="M758.173,-179.444C777.909,-170.636 808.885,-156.812 831.493,-146.722"/>
<polygon fill="midnightblue" stroke="midnightblue" points="833.211,-149.788 840.917,-142.516 830.359,-143.396 833.211,-149.788"/>
</g>
<!-- Node2&#45;&gt;Node9 -->
<g id="edge8" class="edge"><title>Node2&#45;&gt;Node9</title>
<path fill="none" stroke="midnightblue" d="M668.925,-183.486C583.836,-177.349 436.167,-164.589 311,-143 206.471,-124.971 181.012,-116.068 79,-87 76.0027,-86.1459 72.9046,-85.2181 69.8049,-84.2586"/>
<polygon fill="midnightblue" stroke="midnightblue" points="70.6112,-80.8421 60.0204,-81.1367 68.4833,-87.5108 70.6112,-80.8421"/>
</g>
<!-- Node10 -->
<g id="node10" class="node"><title>Node10</title>
<g id="a_node10"><a xlink:href="model_8h.xhtml" target="_top" xlink:title="Wrapper Model classes for the MEF data. ">
<polygon fill="white" stroke="black" points="471,-123.5 471,-142.5 527,-142.5 527,-123.5 471,-123.5"/>
<text text-anchor="middle" x="499" y="-130.5" font-family="Helvetica,sans-Serif" font-size="10.00">model.h</text>
</a>
</g>
</g>
<!-- Node2&#45;&gt;Node10 -->
<g id="edge9" class="edge"><title>Node2&#45;&gt;Node10</title>
<path fill="none" stroke="midnightblue" d="M698.669,-179.45C659.555,-171.081 598.283,-157.768 537.096,-143.454"/>
<polygon fill="midnightblue" stroke="midnightblue" points="537.816,-140.028 527.281,-141.149 536.215,-146.843 537.816,-140.028"/>
</g>
<!-- Node10&#45;&gt;Node5 -->
<g id="edge13" class="edge"><title>Node10&#45;&gt;Node5</title>
<path fill="none" stroke="midnightblue" d="M470.916,-128.653C389.931,-118.972 160.71,-91.3515 145,-87 142.844,-86.4028 140.647,-85.6896 138.461,-84.9045"/>
<polygon fill="midnightblue" stroke="midnightblue" points="139.709,-81.6338 129.126,-81.1385 137.09,-88.1255 139.709,-81.6338"/>
</g>
<!-- Node10&#45;&gt;Node9 -->
<g id="edge21" class="edge"><title>Node10&#45;&gt;Node9</title>
<path fill="none" stroke="midnightblue" d="M470.908,-131.04C402.909,-128.274 224.339,-118.364 79,-87 75.3245,-86.2068 71.5241,-85.2198 67.7669,-84.1362"/>
<polygon fill="midnightblue" stroke="midnightblue" points="68.6264,-80.7382 58.0381,-81.1089 66.5465,-87.422 68.6264,-80.7382"/>
</g>
<!-- Node11 -->
<g id="node11" class="node"><title>Node11</title>
<polygon fill="white" stroke="#bfbfbf" points="364.5,-62 364.5,-81 421.5,-81 421.5,-62 364.5,-62"/>
<text text-anchor="middle" x="393" y="-69" font-family="Helvetica,sans-Serif" font-size="10.00">memory</text>
</g>
<!-- Node10&#45;&gt;Node11 -->
<g id="edge10" class="edge"><title>Node10&#45;&gt;Node11</title>
<path fill="none" stroke="midnightblue" d="M483.813,-123.475C466.338,-113.666 437.421,-97.4346 416.917,-85.925"/>
<polygon fill="midnightblue" stroke="midnightblue" points="418.592,-82.8519 408.159,-81.0091 415.166,-88.956 418.592,-82.8519"/>
</g>
<!-- Node12 -->
<g id="node12" class="node"><title>Node12</title>
<polygon fill="white" stroke="#bfbfbf" points="440,-62 440,-81 484,-81 484,-62 440,-62"/>
<text text-anchor="middle" x="462" y="-69" font-family="Helvetica,sans-Serif" font-size="10.00">string</text>
</g>
<!-- Node10&#45;&gt;Node12 -->
<g id="edge11" class="edge"><title>Node10&#45;&gt;Node12</title>
<path fill="none" stroke="midnightblue" d="M493.699,-123.475C488.259,-114.727 479.641,-100.869 472.764,-89.8093"/>
<polygon fill="midnightblue" stroke="midnightblue" points="475.544,-87.6528 467.291,-81.0091 469.6,-91.3494 475.544,-87.6528"/>
</g>
<!-- Node13 -->
<g id="node13" class="node"><title>Node13</title>
<polygon fill="white" stroke="#bfbfbf" points="485,-0.5 485,-19.5 553,-19.5 553,-0.5 485,-0.5"/>
<text text-anchor="middle" x="519" y="-7.5" font-family="Helvetica,sans-Serif" font-size="10.00">type_traits</text>
</g>
<!-- Node10&#45;&gt;Node13 -->
<g id="edge12" class="edge"><title>Node10&#45;&gt;Node13</title>
<path fill="none" stroke="midnightblue" d="M500.438,-123.298C503.667,-103.763 511.551,-56.0646 515.934,-29.5471"/>
<polygon fill="midnightblue" stroke="midnightblue" points="519.397,-30.0601 517.575,-19.6232 512.491,-28.9185 519.397,-30.0601"/>
</g>
<!-- Node14 -->
<g id="node14" class="node"><title>Node14</title>
<polygon fill="white" stroke="#bfbfbf" points="670,-56.5 670,-86.5 810,-86.5 810,-56.5 670,-56.5"/>
<text text-anchor="start" x="678" y="-74.5" font-family="Helvetica,sans-Serif" font-size="10.00">boost/multi_index/hashed</text>
<text text-anchor="middle" x="740" y="-63.5" font-family="Helvetica,sans-Serif" font-size="10.00">_index.hpp</text>
</g>
<!-- Node10&#45;&gt;Node14 -->
<g id="edge14" class="edge"><title>Node10&#45;&gt;Node14</title>
<path fill="none" stroke="midnightblue" d="M527.296,-124.916C529.901,-124.267 532.499,-123.621 535,-123 580.914,-111.605 632.637,-98.8646 672.643,-89.031"/>
<polygon fill="midnightblue" stroke="midnightblue" points="673.674,-92.3816 682.55,-86.5962 672.004,-85.5839 673.674,-92.3816"/>
</g>
<!-- Node15 -->
<g id="node15" class="node"><title>Node15</title>
<polygon fill="white" stroke="#bfbfbf" points="828,-56.5 828,-86.5 958,-86.5 958,-56.5 828,-56.5"/>
<text text-anchor="start" x="836" y="-74.5" font-family="Helvetica,sans-Serif" font-size="10.00">boost/multi_index/mem</text>
<text text-anchor="middle" x="893" y="-63.5" font-family="Helvetica,sans-Serif" font-size="10.00">_fun.hpp</text>
</g>
<!-- Node10&#45;&gt;Node15 -->
<g id="edge15" class="edge"><title>Node10&#45;&gt;Node15</title>
<path fill="none" stroke="midnightblue" d="M527.229,-124.606C529.847,-124.022 532.467,-123.475 535,-123 656.874,-100.125 691.636,-106.873 817.636,-87.1452"/>
<polygon fill="midnightblue" stroke="midnightblue" points="818.347,-90.5762 827.673,-85.5485 817.247,-83.6632 818.347,-90.5762"/>
</g>
<!-- Node16 -->
<g id="node16" class="node"><title>Node16</title>
<polygon fill="white" stroke="#bfbfbf" points="976,-62 976,-81 1148,-81 1148,-62 976,-62"/>
<text text-anchor="middle" x="1062" y="-69" font-family="Helvetica,sans-Serif" font-size="10.00">boost/multi_index_container.hpp</text>
</g>
<!-- Node10&#45;&gt;Node16 -->
<g id="edge16" class="edge"><title>Node10&#45;&gt;Node16</title>
<path fill="none" stroke="midnightblue" d="M527.208,-124.489C529.831,-123.93 532.458,-123.421 535,-123 725.078,-91.5329 775.658,-109.548 967,-87 977.783,-85.7293 989.223,-84.1676 1000.29,-82.545"/>
<polygon fill="midnightblue" stroke="midnightblue" points="1000.95,-85.9859 1010.32,-81.0443 999.909,-79.063 1000.95,-85.9859"/>
</g>
<!-- Node17 -->
<g id="node17" class="node"><title>Node17</title>
<polygon fill="white" stroke="#bfbfbf" points="1166.5,-62 1166.5,-81 1221.5,-81 1221.5,-62 1166.5,-62"/>
<text text-anchor="middle" x="1194" y="-69" font-family="Helvetica,sans-Serif" font-size="10.00">QObject</text>
</g>
<!-- Node10&#45;&gt;Node17 -->
<g id="edge17" class="edge"><title>Node10&#45;&gt;Node17</title>
<path fill="none" stroke="midnightblue" d="M527.197,-124.421C529.822,-123.876 532.453,-123.389 535,-123 808.74,-81.2373 886.507,-146.255 1157,-87 1160,-86.3421 1163.08,-85.4739 1166.12,-84.4885"/>
<polygon fill="midnightblue" stroke="midnightblue" points="1167.34,-87.7693 1175.53,-81.0557 1164.94,-81.1928 1167.34,-87.7693"/>
</g>
<!-- Node18 -->
<g id="node18" class="node"><title>Node18</title>
<polygon fill="white" stroke="#bfbfbf" points="1239.5,-62 1239.5,-81 1292.5,-81 1292.5,-62 1239.5,-62"/>
<text text-anchor="middle" x="1266" y="-69" font-family="Helvetica,sans-Serif" font-size="10.00">QString</text>
</g>
<!-- Node10&#45;&gt;Node18 -->
<g id="edge18" class="edge"><title>Node10&#45;&gt;Node18</title>
<path fill="none" stroke="midnightblue" d="M527.195,-124.404C529.82,-123.863 532.451,-123.381 535,-123 840.905,-77.2783 927.973,-153.692 1230,-87 1232.84,-86.3735 1235.74,-85.5465 1238.61,-84.6045"/>
<polygon fill="midnightblue" stroke="midnightblue" points="1239.91,-87.8538 1248.06,-81.0823 1237.47,-81.2943 1239.91,-87.8538"/>
</g>
<!-- Node19 -->
<g id="node19" class="node"><title>Node19</title>
<polygon fill="white" stroke="#bfbfbf" points="585,-0.5 585,-19.5 685,-19.5 685,-0.5 585,-0.5"/>
<text text-anchor="middle" x="635" y="-7.5" font-family="Helvetica,sans-Serif" font-size="10.00">QUndoCommand</text>
</g>
<!-- Node10&#45;&gt;Node19 -->
<g id="edge19" class="edge"><title>Node10&#45;&gt;Node19</title>
<path fill="none" stroke="midnightblue" d="M527.066,-123.472C561.654,-112.712 616.661,-94.6856 623,-87 636.12,-71.0912 637.781,-46.7325 637.031,-29.9"/>
<polygon fill="midnightblue" stroke="midnightblue" points="640.499,-29.346 636.238,-19.6455 633.52,-29.8856 640.499,-29.346"/>
</g>
<!-- Node20 -->
<g id="node20" class="node"><title>Node20</title>
<polygon fill="white" stroke="#bfbfbf" points="154,-62 154,-81 212,-81 212,-62 154,-62"/>
<text text-anchor="middle" x="183" y="-69" font-family="Helvetica,sans-Serif" font-size="10.00">QVariant</text>
</g>
<!-- Node10&#45;&gt;Node20 -->
<g id="edge20" class="edge"><title>Node10&#45;&gt;Node20</title>
<path fill="none" stroke="midnightblue" d="M470.778,-128.178C409.906,-119.813 267.981,-99.624 221,-87 218.343,-86.286 215.614,-85.4533 212.897,-84.5547"/>
<polygon fill="midnightblue" stroke="midnightblue" points="213.852,-81.1793 203.257,-81.1056 211.494,-87.7701 213.852,-81.1793"/>
</g>
<!-- Node21 -->
<g id="node21" class="node"><title>Node21</title>
<polygon fill="white" stroke="#bfbfbf" points="230,-62 230,-81 346,-81 346,-62 230,-62"/>
<text text-anchor="middle" x="288" y="-69" font-family="Helvetica,sans-Serif" font-size="10.00">src/ext/multi_index.h</text>
</g>
<!-- Node10&#45;&gt;Node21 -->
<g id="edge22" class="edge"><title>Node10&#45;&gt;Node21</title>
<path fill="none" stroke="midnightblue" d="M470.981,-124.099C434.32,-113.761 369.838,-95.5776 328.034,-83.7891"/>
<polygon fill="midnightblue" stroke="midnightblue" points="328.758,-80.3571 318.184,-81.0116 326.859,-87.0943 328.758,-80.3571"/>
</g>
<!-- Node10&#45;&gt;Node22 -->
<g id="edge23" class="edge"><title>Node10&#45;&gt;Node22</title>
<path fill="none" stroke="midnightblue" d="M527.193,-124.391C529.819,-123.852 532.45,-123.375 535,-123 872.196,-73.4267 963.804,-136.573 1301,-87 1307.05,-86.1102 1313.39,-84.8616 1319.57,-83.4665"/>
<polygon fill="midnightblue" stroke="midnightblue" points="1320.82,-86.7647 1329.72,-81.0179 1319.18,-79.9598 1320.82,-86.7647"/>
</g>
<!-- Node23 -->
<g id="node23" class="node"><title>Node23</title>
<g id="a_node23"><a xlink:href="command_8h.xhtml" target="_top" xlink:title="Undo&#45;redo helper facilities based on the Qt Undo framework. ">
<polygon fill="white" stroke="black" points="540,-62 540,-81 614,-81 614,-62 540,-62"/>
<text text-anchor="middle" x="577" y="-69" font-family="Helvetica,sans-Serif" font-size="10.00">command.h</text>
</a>
</g>
</g>
<!-- Node10&#45;&gt;Node23 -->
<g id="edge24" class="edge"><title>Node10&#45;&gt;Node23</title>
<path fill="none" stroke="midnightblue" d="M510.175,-123.475C522.571,-114.02 542.79,-98.5961 557.746,-87.1871"/>
<polygon fill="midnightblue" stroke="midnightblue" points="560.017,-89.857 565.845,-81.0091 555.772,-84.2914 560.017,-89.857"/>
</g>
<!-- Node23&#45;&gt;Node13 -->
<g id="edge25" class="edge"><title>Node23&#45;&gt;Node13</title>
<path fill="none" stroke="midnightblue" d="M568.69,-61.9751C559.818,-52.8733 545.554,-38.241 534.58,-26.983"/>
<polygon fill="midnightblue" stroke="midnightblue" points="536.781,-24.2268 527.295,-19.5091 531.769,-29.113 536.781,-24.2268"/>
</g>
<!-- Node23&#45;&gt;Node19 -->
<g id="edge26" class="edge"><title>Node23&#45;&gt;Node19</title>
<path fill="none" stroke="midnightblue" d="M585.31,-61.9751C594.182,-52.8733 608.446,-38.241 619.42,-26.983"/>
<polygon fill="midnightblue" stroke="midnightblue" points="622.231,-29.113 626.705,-19.5091 617.219,-24.2268 622.231,-29.113"/>
</g>
<!-- Node26 -->
<g id="node26" class="node"><title>Node26</title>
<polygon fill="white" stroke="#bfbfbf" points="1533.5,-123.5 1533.5,-142.5 1562.5,-142.5 1562.5,-123.5 1533.5,-123.5"/>
<text text-anchor="middle" x="1548" y="-130.5" font-family="Helvetica,sans-Serif" font-size="10.00">Qt</text>
</g>
<!-- Node25&#45;&gt;Node26 -->
<g id="edge31" class="edge"><title>Node25&#45;&gt;Node26</title>
<path fill="none" stroke="midnightblue" d="M1548,-179.083C1548,-172.006 1548,-161.861 1548,-152.986"/>
<polygon fill="midnightblue" stroke="midnightblue" points="1551.5,-152.751 1548,-142.751 1544.5,-152.751 1551.5,-152.751"/>
</g>
<!-- Node27&#45;&gt;Node18 -->
<g id="edge34" class="edge"><title>Node27&#45;&gt;Node18</title>
<path fill="none" stroke="midnightblue" d="M1203.86,-181.859C1163.21,-173.143 1104.55,-154.624 1127,-123 1155.07,-83.4557 1184.61,-104.063 1230,-87 1231.84,-86.3065 1233.74,-85.5822 1235.64,-84.8432"/>
<polygon fill="midnightblue" stroke="midnightblue" points="1237.11,-88.028 1245.12,-81.0998 1234.54,-81.5171 1237.11,-88.028"/>
</g>
<!-- Node28 -->
<g id="node28" class="node"><title>Node28</title>
<polygon fill="white" stroke="#bfbfbf" points="1136.5,-123.5 1136.5,-142.5 1221.5,-142.5 1221.5,-123.5 1136.5,-123.5"/>
<text text-anchor="middle" x="1179" y="-130.5" font-family="Helvetica,sans-Serif" font-size="10.00">QMessageBox</text>
</g>
<!-- Node27&#45;&gt;Node28 -->
<g id="edge33" class="edge"><title>Node27&#45;&gt;Node28</title>
<path fill="none" stroke="midnightblue" d="M1229.36,-179.324C1220.49,-171.341 1207.13,-159.313 1196.39,-149.653"/>
<polygon fill="midnightblue" stroke="midnightblue" points="1198.59,-146.922 1188.82,-142.834 1193.91,-152.125 1198.59,-146.922"/>
</g>
<!-- Node29 -->
<g id="node29" class="node"><title>Node29</title>
<polygon fill="white" stroke="#bfbfbf" points="1240,-123.5 1240,-142.5 1356,-142.5 1356,-123.5 1240,-123.5"/>
<text text-anchor="middle" x="1298" y="-130.5" font-family="Helvetica,sans-Serif" font-size="10.00">src/ext/source_info.h</text>
</g>
<!-- Node27&#45;&gt;Node29 -->
<g id="edge35" class="edge"><title>Node27&#45;&gt;Node29</title>
<path fill="none" stroke="midnightblue" d="M1248.48,-179.324C1257.2,-171.341 1270.34,-159.313 1280.9,-149.653"/>
<polygon fill="midnightblue" stroke="midnightblue" points="1283.33,-152.167 1288.35,-142.834 1278.61,-147.004 1283.33,-152.167"/>
</g>
</g>
</svg>
