<?xml version="1.0" encoding="UTF-8" standalone="no"?>
<!DOCTYPE svg PUBLIC "-//W3C//DTD SVG 1.1//EN"
 "http://www.w3.org/Graphics/SVG/1.1/DTD/svg11.dtd">
<!-- Generated by graphviz version 2.38.0 (20140413.2041)
 -->
<!-- Title: eventdialog.cpp Pages: 1 -->
<!--zoomable 263 -->
<svg id="main" version="1.1" xmlns="http://www.w3.org/2000/svg" xmlns:xlink="http://www.w3.org/1999/xlink" xml:space="preserve" onload="init(evt)">
<style type="text/css"><![CDATA[
.edge:hover path { stroke: red; }
.edge:hover polygon { stroke: red; fill: red; }
]]></style>
<script type="text/javascript"><![CDATA[
var edges = document.getElementsByTagName('g');
if (edges && edges.length) {
  for (var i=0;i<edges.length;i++) {
    if (edges[i].id.substr(0,4)=='edge') {
      edges[i].setAttribute('class','edge');
    }
  }
}
]]></script>
        <defs>
                <circle id="rim" cx="0" cy="0" r="7"/>
                <circle id="rim2" cx="0" cy="0" r="3.5"/>
                <g id="zoomPlus">
                        <use xlink:href="#rim" fill="#404040">
                                <set attributeName="fill" to="#808080" begin="zoomplus.mouseover" end="zoomplus.mouseout"/>
                        </use>
                        <path d="M-4,0h8M0,-4v8" fill="none" stroke="white" stroke-width="1.5" pointer-events="none"/>
                </g>
                <g id="zoomMin">
                        <use xlink:href="#rim" fill="#404040">
                                <set attributeName="fill" to="#808080" begin="zoomminus.mouseover" end="zoomminus.mouseout"/>
                        </use>
                        <path d="M-4,0h8" fill="none" stroke="white" stroke-width="1.5" pointer-events="none"/>
                </g>
                <g id="dirArrow">
                        <path fill="none" stroke="white" stroke-width="1.5" d="M0,-3.0v7 M-2.5,-0.5L0,-3.0L2.5,-0.5"/>
                </g>
               <g id="resetDef">
                       <use xlink:href="#rim2" fill="#404040">
                               <set attributeName="fill" to="#808080" begin="reset.mouseover" end="reset.mouseout"/>
                       </use>
               </g>
        </defs>

<script type="text/javascript">
var viewWidth = 2753;
var viewHeight = 263;
var sectionId = 'dynsection-0';
</script>
<script xlink:href="svgpan.js"/>
<svg id="graph" class="graph">
<g id="viewport">
<title>eventdialog.cpp</title>
<polygon fill="white" stroke="none" points="-4,4 -4,-259 2748.5,-259 2748.5,4 -4,4"/>
<!-- Node1 -->
<g id="node1" class="node"><title>Node1</title>
<polygon fill="#bfbfbf" stroke="black" points="1557.5,-235.5 1557.5,-254.5 1649.5,-254.5 1649.5,-235.5 1557.5,-235.5"/>
<text text-anchor="middle" x="1603.5" y="-242.5" font-family="Helvetica,sans-Serif" font-size="10.00">eventdialog.cpp</text>
</g>
<!-- Node2 -->
<g id="node2" class="node"><title>Node2</title>
<g id="a_node2"><a xlink:href="eventdialog_8h.xhtml" target="_top" xlink:title="Dialog to edit and validate events. ">
<polygon fill="white" stroke="black" points="704,-179.5 704,-198.5 785,-198.5 785,-179.5 704,-179.5"/>
<text text-anchor="middle" x="744.5" y="-186.5" font-family="Helvetica,sans-Serif" font-size="10.00">eventdialog.h</text>
</a>
</g>
</g>
<!-- Node1&#45;&gt;Node2 -->
<g id="edge1" class="edge"><title>Node1&#45;&gt;Node2</title>
<path fill="none" stroke="midnightblue" d="M1557.32,-241.097C1409.64,-231.813 949.617,-202.894 795.444,-193.203"/>
<polygon fill="midnightblue" stroke="midnightblue" points="795.508,-189.7 785.308,-192.565 795.069,-196.686 795.508,-189.7"/>
</g>
<!-- Node4 -->
<g id="node4" class="node"><title>Node4</title>
<polygon fill="white" stroke="#bfbfbf" points="0,-62 0,-81 57,-81 57,-62 0,-62"/>
<text text-anchor="middle" x="28.5" y="-69" font-family="Helvetica,sans-Serif" font-size="10.00">memory</text>
</g>
<!-- Node1&#45;&gt;Node4 -->
<g id="edge42" class="edge"><title>Node1&#45;&gt;Node4</title>
<path fill="none" stroke="midnightblue" d="M1557.5,-243.405C1423.86,-241.315 1024.22,-232.503 694.5,-199 532.094,-182.498 492.085,-172.331 331.5,-143 213.08,-121.37 181.976,-121.006 66.5,-87 63.9218,-86.2408 61.2702,-85.3867 58.6241,-84.4829"/>
<polygon fill="midnightblue" stroke="midnightblue" points="59.7998,-81.1863 49.2056,-81.0719 57.4161,-87.768 59.7998,-81.1863"/>
</g>
<!-- Node8 -->
<g id="node8" class="node"><title>Node8</title>
<polygon fill="white" stroke="#bfbfbf" points="924.5,-123.5 924.5,-142.5 996.5,-142.5 996.5,-123.5 924.5,-123.5"/>
<text text-anchor="middle" x="960.5" y="-130.5" font-family="Helvetica,sans-Serif" font-size="10.00">QStatusBar</text>
</g>
<!-- Node1&#45;&gt;Node8 -->
<g id="edge36" class="edge"><title>Node1&#45;&gt;Node8</title>
<path fill="none" stroke="midnightblue" d="M1557.35,-244.067C1470.82,-243.234 1278.81,-236.826 1122.5,-199 1072.8,-186.973 1018.24,-162.561 986.812,-147.316"/>
<polygon fill="midnightblue" stroke="midnightblue" points="987.976,-143.988 977.458,-142.716 984.887,-150.27 987.976,-143.988"/>
</g>
<!-- Node12 -->
<g id="node12" class="node"><title>Node12</title>
<polygon fill="white" stroke="#bfbfbf" points="1015,-123.5 1015,-142.5 1110,-142.5 1110,-123.5 1015,-123.5"/>
<text text-anchor="middle" x="1062.5" y="-130.5" font-family="Helvetica,sans-Serif" font-size="10.00">src/expression.h</text>
</g>
<!-- Node1&#45;&gt;Node12 -->
<g id="edge40" class="edge"><title>Node1&#45;&gt;Node12</title>
<path fill="none" stroke="midnightblue" d="M1557.25,-241.923C1459.93,-237.118 1237.03,-223.714 1165.5,-199 1132.92,-187.742 1100.06,-164.462 1080.49,-149.037"/>
<polygon fill="midnightblue" stroke="midnightblue" points="1082.47,-146.132 1072.49,-142.574 1078.07,-151.579 1082.47,-146.132"/>
</g>
<!-- Node19 -->
<g id="node19" class="node"><title>Node19</title>
<polygon fill="white" stroke="#bfbfbf" points="1358,-62 1358,-81 1413,-81 1413,-62 1358,-62"/>
<text text-anchor="middle" x="1385.5" y="-69" font-family="Helvetica,sans-Serif" font-size="10.00">QObject</text>
</g>
<!-- Node1&#45;&gt;Node19 -->
<g id="edge33" class="edge"><title>Node1&#45;&gt;Node19</title>
<path fill="none" stroke="midnightblue" d="M1557.22,-244.398C1478.87,-243.975 1325.31,-238.041 1291.5,-199 1285.68,-192.281 1286.34,-186.241 1291.5,-179 1319.87,-139.156 1367.13,-182.844 1395.5,-143 1406.34,-127.782 1400.89,-105.962 1394.62,-90.6391"/>
<polygon fill="midnightblue" stroke="midnightblue" points="1397.66,-88.8765 1390.33,-81.2295 1391.29,-91.7804 1397.66,-88.8765"/>
</g>
<!-- Node24 -->
<g id="node24" class="node"><title>Node24</title>
<polygon fill="white" stroke="#bfbfbf" points="1300.5,-179.5 1300.5,-198.5 1374.5,-198.5 1374.5,-179.5 1300.5,-179.5"/>
<text text-anchor="middle" x="1337.5" y="-186.5" font-family="Helvetica,sans-Serif" font-size="10.00">QCompleter</text>
</g>
<!-- Node1&#45;&gt;Node24 -->
<g id="edge31" class="edge"><title>Node1&#45;&gt;Node24</title>
<path fill="none" stroke="midnightblue" d="M1561.35,-235.444C1513.25,-225.678 1434.77,-209.746 1384.66,-199.574"/>
<polygon fill="midnightblue" stroke="midnightblue" points="1385.23,-196.118 1374.73,-197.558 1383.83,-202.978 1385.23,-196.118"/>
</g>
<!-- Node25 -->
<g id="node25" class="node"><title>Node25</title>
<polygon fill="white" stroke="#bfbfbf" points="1392.5,-179.5 1392.5,-198.5 1454.5,-198.5 1454.5,-179.5 1392.5,-179.5"/>
<text text-anchor="middle" x="1423.5" y="-186.5" font-family="Helvetica,sans-Serif" font-size="10.00">QListView</text>
</g>
<!-- Node1&#45;&gt;Node25 -->
<g id="edge32" class="edge"><title>Node1&#45;&gt;Node25</title>
<path fill="none" stroke="midnightblue" d="M1574.98,-235.444C1544.43,-226.28 1495.79,-211.688 1461.9,-201.519"/>
<polygon fill="midnightblue" stroke="midnightblue" points="1462.47,-198.038 1451.89,-198.516 1460.46,-204.742 1462.47,-198.038"/>
</g>
<!-- Node26 -->
<g id="node26" class="node"><title>Node26</title>
<polygon fill="white" stroke="#bfbfbf" points="1472.5,-179.5 1472.5,-198.5 1552.5,-198.5 1552.5,-179.5 1472.5,-179.5"/>
<text text-anchor="middle" x="1512.5" y="-186.5" font-family="Helvetica,sans-Serif" font-size="10.00">QPushButton</text>
</g>
<!-- Node1&#45;&gt;Node26 -->
<g id="edge34" class="edge"><title>Node1&#45;&gt;Node26</title>
<path fill="none" stroke="midnightblue" d="M1588.88,-235.324C1574.55,-226.822 1552.49,-213.729 1535.75,-203.797"/>
<polygon fill="midnightblue" stroke="midnightblue" points="1537.47,-200.748 1527.08,-198.655 1533.9,-206.768 1537.47,-200.748"/>
</g>
<!-- Node27 -->
<g id="node27" class="node"><title>Node27</title>
<polygon fill="white" stroke="#bfbfbf" points="1571,-179.5 1571,-198.5 1636,-198.5 1636,-179.5 1571,-179.5"/>
<text text-anchor="middle" x="1603.5" y="-186.5" font-family="Helvetica,sans-Serif" font-size="10.00">QShortcut</text>
</g>
<!-- Node1&#45;&gt;Node27 -->
<g id="edge35" class="edge"><title>Node1&#45;&gt;Node27</title>
<path fill="none" stroke="midnightblue" d="M1603.5,-235.083C1603.5,-228.006 1603.5,-217.861 1603.5,-208.986"/>
<polygon fill="midnightblue" stroke="midnightblue" points="1607,-208.751 1603.5,-198.751 1600,-208.751 1607,-208.751"/>
</g>
<!-- Node28 -->
<g id="node28" class="node"><title>Node28</title>
<polygon fill="white" stroke="#bfbfbf" points="1654.5,-179.5 1654.5,-198.5 1798.5,-198.5 1798.5,-179.5 1654.5,-179.5"/>
<text text-anchor="middle" x="1726.5" y="-186.5" font-family="Helvetica,sans-Serif" font-size="10.00">boost/range/algorithm.hpp</text>
</g>
<!-- Node1&#45;&gt;Node28 -->
<g id="edge37" class="edge"><title>Node1&#45;&gt;Node28</title>
<path fill="none" stroke="midnightblue" d="M1622.99,-235.444C1643.14,-226.596 1674.82,-212.687 1697.83,-202.586"/>
<polygon fill="midnightblue" stroke="midnightblue" points="1699.35,-205.741 1707.1,-198.516 1696.54,-199.332 1699.35,-205.741"/>
</g>
<!-- Node29 -->
<g id="node29" class="node"><title>Node29</title>
<polygon fill="white" stroke="#bfbfbf" points="1817,-179.5 1817,-198.5 1900,-198.5 1900,-179.5 1817,-179.5"/>
<text text-anchor="middle" x="1858.5" y="-186.5" font-family="Helvetica,sans-Serif" font-size="10.00">src/element.h</text>
</g>
<!-- Node1&#45;&gt;Node29 -->
<g id="edge38" class="edge"><title>Node1&#45;&gt;Node29</title>
<path fill="none" stroke="midnightblue" d="M1643.91,-235.444C1688.48,-226.004 1760.27,-210.802 1808.39,-200.611"/>
<polygon fill="midnightblue" stroke="midnightblue" points="1809.23,-204.012 1818.28,-198.516 1807.78,-197.164 1809.23,-204.012"/>
</g>
<!-- Node30 -->
<g id="node30" class="node"><title>Node30</title>
<polygon fill="white" stroke="#bfbfbf" points="1918.5,-179.5 1918.5,-198.5 2058.5,-198.5 2058.5,-179.5 1918.5,-179.5"/>
<text text-anchor="middle" x="1988.5" y="-186.5" font-family="Helvetica,sans-Serif" font-size="10.00">src/expression/constant.h</text>
</g>
<!-- Node1&#45;&gt;Node30 -->
<g id="edge39" class="edge"><title>Node1&#45;&gt;Node30</title>
<path fill="none" stroke="midnightblue" d="M1649.56,-237.54C1716.03,-228.216 1839.44,-210.907 1917.59,-199.946"/>
<polygon fill="midnightblue" stroke="midnightblue" points="1918.41,-203.365 1927.83,-198.509 1917.44,-196.432 1918.41,-203.365"/>
</g>
<!-- Node31 -->
<g id="node31" class="node"><title>Node31</title>
<polygon fill="white" stroke="#bfbfbf" points="2077,-179.5 2077,-198.5 2230,-198.5 2230,-179.5 2077,-179.5"/>
<text text-anchor="middle" x="2153.5" y="-186.5" font-family="Helvetica,sans-Serif" font-size="10.00">src/expression/exponential.h</text>
</g>
<!-- Node1&#45;&gt;Node31 -->
<g id="edge41" class="edge"><title>Node1&#45;&gt;Node31</title>
<path fill="none" stroke="midnightblue" d="M1649.61,-239.645C1731.31,-231.903 1907.1,-215.131 2066.61,-199.083"/>
<polygon fill="midnightblue" stroke="midnightblue" points="2067.01,-202.561 2076.61,-198.076 2066.31,-195.596 2067.01,-202.561"/>
</g>
<!-- Node32 -->
<g id="node32" class="node"><title>Node32</title>
<polygon fill="white" stroke="#bfbfbf" points="2248.5,-179.5 2248.5,-198.5 2326.5,-198.5 2326.5,-179.5 2248.5,-179.5"/>
<text text-anchor="middle" x="2287.5" y="-186.5" font-family="Helvetica,sans-Serif" font-size="10.00">src/ext/bits.h</text>
</g>
<!-- Node1&#45;&gt;Node32 -->
<g id="edge43" class="edge"><title>Node1&#45;&gt;Node32</title>
<path fill="none" stroke="midnightblue" d="M1649.88,-242.476C1753.45,-238.694 2011.51,-227.165 2238.16,-198.879"/>
<polygon fill="midnightblue" stroke="midnightblue" points="2238.76,-202.33 2248.24,-197.606 2237.89,-195.385 2238.76,-202.33"/>
</g>
<!-- Node33 -->
<g id="node33" class="node"><title>Node33</title>
<polygon fill="white" stroke="#bfbfbf" points="2344.5,-179.5 2344.5,-198.5 2462.5,-198.5 2462.5,-179.5 2344.5,-179.5"/>
<text text-anchor="middle" x="2403.5" y="-186.5" font-family="Helvetica,sans-Serif" font-size="10.00">src/ext/find_iterator.h</text>
</g>
<!-- Node1&#45;&gt;Node33 -->
<g id="edge44" class="edge"><title>Node1&#45;&gt;Node33</title>
<path fill="none" stroke="midnightblue" d="M1649.84,-242.282C1764.17,-237.799 2069.1,-224.371 2333.99,-199.081"/>
<polygon fill="midnightblue" stroke="midnightblue" points="2334.57,-202.541 2344.19,-198.099 2333.9,-195.573 2334.57,-202.541"/>
</g>
<!-- Node34 -->
<g id="node34" class="node"><title>Node34</title>
<polygon fill="white" stroke="#bfbfbf" points="2480.5,-179.5 2480.5,-198.5 2574.5,-198.5 2574.5,-179.5 2480.5,-179.5"/>
<text text-anchor="middle" x="2527.5" y="-186.5" font-family="Helvetica,sans-Serif" font-size="10.00">src/ext/variant.h</text>
</g>
<!-- Node1&#45;&gt;Node34 -->
<g id="edge45" class="edge"><title>Node1&#45;&gt;Node34</title>
<path fill="none" stroke="midnightblue" d="M1649.75,-243.351C1778.23,-241.177 2150.52,-232.347 2470.1,-199.025"/>
<polygon fill="midnightblue" stroke="midnightblue" points="2470.92,-202.458 2480.5,-197.93 2470.18,-195.497 2470.92,-202.458"/>
</g>
<!-- Node35 -->
<g id="node35" class="node"><title>Node35</title>
<g id="a_node35"><a xlink:href="guiassert_8h.xhtml" target="_top" xlink:title="GUI assertions that should not crash the program by default. ">
<polygon fill="white" stroke="black" points="1174.5,-179.5 1174.5,-198.5 1244.5,-198.5 1244.5,-179.5 1174.5,-179.5"/>
<text text-anchor="middle" x="1209.5" y="-186.5" font-family="Helvetica,sans-Serif" font-size="10.00">guiassert.h</text>
</a>
</g>
</g>
<!-- Node1&#45;&gt;Node35 -->
<g id="edge46" class="edge"><title>Node1&#45;&gt;Node35</title>
<path fill="none" stroke="midnightblue" d="M1557.35,-238.753C1491.08,-231.043 1365.17,-215.741 1258.5,-199 1257.23,-198.8 1255.93,-198.593 1254.63,-198.38"/>
<polygon fill="midnightblue" stroke="midnightblue" points="1254.97,-194.888 1244.53,-196.662 1253.8,-201.789 1254.97,-194.888"/>
</g>
<!-- Node38 -->
<g id="node38" class="node"><title>Node38</title>
<g id="a_node38"><a xlink:href="overload_8h.xhtml" target="_top" xlink:title="Facilities to help with pointers to overloaded functions. ">
<polygon fill="white" stroke="black" points="2593,-179.5 2593,-198.5 2660,-198.5 2660,-179.5 2593,-179.5"/>
<text text-anchor="middle" x="2626.5" y="-186.5" font-family="Helvetica,sans-Serif" font-size="10.00">overload.h</text>
</a>
</g>
</g>
<!-- Node1&#45;&gt;Node38 -->
<g id="edge50" class="edge"><title>Node1&#45;&gt;Node38</title>
<path fill="none" stroke="midnightblue" d="M1649.65,-244.5C1789.08,-245.457 2218.29,-244.326 2582.83,-198.845"/>
<polygon fill="midnightblue" stroke="midnightblue" points="2583.3,-202.314 2592.79,-197.59 2582.43,-195.368 2583.3,-202.314"/>
</g>
<!-- Node39 -->
<g id="node39" class="node"><title>Node39</title>
<g id="a_node39"><a xlink:href="validator_8h.xhtml" target="_top" xlink:title="Collection of validators. ">
<polygon fill="white" stroke="black" points="2678.5,-179.5 2678.5,-198.5 2744.5,-198.5 2744.5,-179.5 2678.5,-179.5"/>
<text text-anchor="middle" x="2711.5" y="-186.5" font-family="Helvetica,sans-Serif" font-size="10.00">validator.h</text>
</a>
</g>
</g>
<!-- Node1&#45;&gt;Node39 -->
<g id="edge51" class="edge"><title>Node1&#45;&gt;Node39</title>
<path fill="none" stroke="midnightblue" d="M1649.68,-243.058C1824.57,-239.338 2446.98,-224.659 2668.04,-198.762"/>
<polygon fill="midnightblue" stroke="midnightblue" points="2668.75,-202.201 2678.26,-197.52 2667.91,-195.252 2668.75,-202.201"/>
</g>
<!-- Node3 -->
<g id="node3" class="node"><title>Node3</title>
<polygon fill="white" stroke="#bfbfbf" points="341,-123.5 341,-142.5 418,-142.5 418,-123.5 341,-123.5"/>
<text text-anchor="middle" x="379.5" y="-130.5" font-family="Helvetica,sans-Serif" font-size="10.00">initializer_list</text>
</g>
<!-- Node2&#45;&gt;Node3 -->
<g id="edge2" class="edge"><title>Node2&#45;&gt;Node3</title>
<path fill="none" stroke="midnightblue" d="M703.566,-182.428C643.893,-174.23 529.547,-158.236 432.5,-143 431.203,-142.796 429.889,-142.588 428.564,-142.376"/>
<polygon fill="midnightblue" stroke="midnightblue" points="428.702,-138.852 418.269,-140.698 427.576,-145.761 428.702,-138.852"/>
</g>
<!-- Node2&#45;&gt;Node4 -->
<g id="edge3" class="edge"><title>Node2&#45;&gt;Node4</title>
<path fill="none" stroke="midnightblue" d="M703.817,-186.313C647.596,-182.926 543.67,-172.836 460.5,-143 443.998,-137.08 443.165,-128.443 426.5,-123 273.649,-73.0757 222.986,-123.987 66.5,-87 63.5043,-86.2919 60.4269,-85.4046 57.3826,-84.4195"/>
<polygon fill="midnightblue" stroke="midnightblue" points="58.5056,-81.1041 47.9109,-81.0397 56.153,-87.697 58.5056,-81.1041"/>
</g>
<!-- Node5 -->
<g id="node5" class="node"><title>Node5</title>
<polygon fill="white" stroke="#bfbfbf" points="1129.5,-62 1129.5,-81 1173.5,-81 1173.5,-62 1129.5,-62"/>
<text text-anchor="middle" x="1151.5" y="-69" font-family="Helvetica,sans-Serif" font-size="10.00">string</text>
</g>
<!-- Node2&#45;&gt;Node5 -->
<g id="edge4" class="edge"><title>Node2&#45;&gt;Node5</title>
<path fill="none" stroke="midnightblue" d="M754.46,-179.297C771.556,-164.9 808.167,-136.388 844.5,-123 960.576,-80.2286 1001.74,-121.615 1120.5,-87 1122.38,-86.4514 1124.29,-85.8032 1126.2,-85.0903"/>
<polygon fill="midnightblue" stroke="midnightblue" points="1127.63,-88.2858 1135.46,-81.1475 1124.88,-81.8455 1127.63,-88.2858"/>
</g>
<!-- Node6 -->
<g id="node6" class="node"><title>Node6</title>
<polygon fill="white" stroke="#bfbfbf" points="1192,-62 1192,-81 1239,-81 1239,-62 1192,-62"/>
<text text-anchor="middle" x="1215.5" y="-69" font-family="Helvetica,sans-Serif" font-size="10.00">vector</text>
</g>
<!-- Node2&#45;&gt;Node6 -->
<g id="edge5" class="edge"><title>Node2&#45;&gt;Node6</title>
<path fill="none" stroke="midnightblue" d="M762.579,-179.439C799.646,-161.894 880.929,-123.451 882.5,-123 1011.57,-85.9127 1052.96,-122.394 1182.5,-87 1184.79,-86.3738 1187.13,-85.6143 1189.45,-84.775"/>
<polygon fill="midnightblue" stroke="midnightblue" points="1190.77,-88.0157 1198.72,-81.0112 1188.14,-81.5298 1190.77,-88.0157"/>
</g>
<!-- Node7 -->
<g id="node7" class="node"><title>Node7</title>
<polygon fill="white" stroke="#bfbfbf" points="624.5,-123.5 624.5,-142.5 678.5,-142.5 678.5,-123.5 624.5,-123.5"/>
<text text-anchor="middle" x="651.5" y="-130.5" font-family="Helvetica,sans-Serif" font-size="10.00">QDialog</text>
</g>
<!-- Node2&#45;&gt;Node7 -->
<g id="edge6" class="edge"><title>Node2&#45;&gt;Node7</title>
<path fill="none" stroke="midnightblue" d="M729.558,-179.324C714.915,-170.822 692.366,-157.729 675.262,-147.797"/>
<polygon fill="midnightblue" stroke="midnightblue" points="676.81,-144.649 666.405,-142.655 673.295,-150.703 676.81,-144.649"/>
</g>
<!-- Node2&#45;&gt;Node8 -->
<g id="edge7" class="edge"><title>Node2&#45;&gt;Node8</title>
<path fill="none" stroke="midnightblue" d="M778.726,-179.444C816.012,-170.122 875.769,-155.183 916.511,-144.997"/>
<polygon fill="midnightblue" stroke="midnightblue" points="917.582,-148.337 926.434,-142.516 915.884,-141.546 917.582,-148.337"/>
</g>
<!-- Node9 -->
<g id="node9" class="node"><title>Node9</title>
<polygon fill="white" stroke="#bfbfbf" points="1257,-62 1257,-81 1310,-81 1310,-62 1257,-62"/>
<text text-anchor="middle" x="1283.5" y="-69" font-family="Helvetica,sans-Serif" font-size="10.00">QString</text>
</g>
<!-- Node2&#45;&gt;Node9 -->
<g id="edge8" class="edge"><title>Node2&#45;&gt;Node9</title>
<path fill="none" stroke="midnightblue" d="M773.533,-179.437C800.584,-171.147 841.84,-157.703 876.5,-143 894.433,-135.393 896.839,-128.588 915.5,-123 1057.68,-80.4264 1103.53,-123.066 1247.5,-87 1250.17,-86.3323 1252.9,-85.5093 1255.6,-84.5976"/>
<polygon fill="midnightblue" stroke="midnightblue" points="1257,-87.8101 1265.14,-81.0249 1254.55,-81.2548 1257,-87.8101"/>
</g>
<!-- Node10 -->
<g id="node10" class="node"><title>Node10</title>
<polygon fill="white" stroke="#bfbfbf" points="697,-123.5 697,-142.5 792,-142.5 792,-123.5 697,-123.5"/>
<text text-anchor="middle" x="744.5" y="-130.5" font-family="Helvetica,sans-Serif" font-size="10.00">ui_eventdialog.h</text>
</g>
<!-- Node2&#45;&gt;Node10 -->
<g id="edge9" class="edge"><title>Node2&#45;&gt;Node10</title>
<path fill="none" stroke="midnightblue" d="M744.5,-179.083C744.5,-172.006 744.5,-161.861 744.5,-152.986"/>
<polygon fill="midnightblue" stroke="midnightblue" points="748,-152.751 744.5,-142.751 741,-152.751 748,-152.751"/>
</g>
<!-- Node11 -->
<g id="node11" class="node"><title>Node11</title>
<polygon fill="white" stroke="#bfbfbf" points="75.5,-62 75.5,-81 145.5,-81 145.5,-62 75.5,-62"/>
<text text-anchor="middle" x="110.5" y="-69" font-family="Helvetica,sans-Serif" font-size="10.00">src/event.h</text>
</g>
<!-- Node2&#45;&gt;Node11 -->
<g id="edge10" class="edge"><title>Node2&#45;&gt;Node11</title>
<path fill="none" stroke="midnightblue" d="M703.922,-184.385C654.355,-179.11 568.467,-167.177 498.5,-143 480.461,-136.767 478.728,-128.655 460.5,-123 329.71,-82.4283 288.205,-116.58 154.5,-87 150.829,-86.1878 147.031,-85.1887 143.275,-84.098"/>
<polygon fill="midnightblue" stroke="midnightblue" points="144.137,-80.7005 133.548,-81.0625 142.052,-87.3826 144.137,-80.7005"/>
</g>
<!-- Node2&#45;&gt;Node12 -->
<g id="edge11" class="edge"><title>Node2&#45;&gt;Node12</title>
<path fill="none" stroke="midnightblue" d="M785.098,-181.106C840.885,-171.633 941.534,-154.541 1005.04,-143.758"/>
<polygon fill="midnightblue" stroke="midnightblue" points="1005.62,-147.209 1014.9,-142.084 1004.45,-140.307 1005.62,-147.209"/>
</g>
<!-- Node13 -->
<g id="node13" class="node"><title>Node13</title>
<polygon fill="white" stroke="#bfbfbf" points="164,-62 164,-81 237,-81 237,-62 164,-62"/>
<text text-anchor="middle" x="200.5" y="-69" font-family="Helvetica,sans-Serif" font-size="10.00">src/model.h</text>
</g>
<!-- Node2&#45;&gt;Node13 -->
<g id="edge12" class="edge"><title>Node2&#45;&gt;Node13</title>
<path fill="none" stroke="midnightblue" d="M703.735,-181.649C662.233,-174.563 596.373,-161.596 541.5,-143 521.538,-136.235 518.705,-128.999 498.5,-123 390.043,-90.7973 356.82,-112.09 246.5,-87 242.66,-86.1266 238.678,-85.0848 234.737,-83.9658"/>
<polygon fill="midnightblue" stroke="midnightblue" points="235.709,-80.6034 225.125,-81.0776 233.694,-87.3073 235.709,-80.6034"/>
</g>
<!-- Node14 -->
<g id="node14" class="node"><title>Node14</title>
<g id="a_node14"><a xlink:href="model_8h.xhtml" target="_top" xlink:title="Wrapper Model classes for the MEF data. ">
<polygon fill="white" stroke="black" points="550.5,-123.5 550.5,-142.5 606.5,-142.5 606.5,-123.5 550.5,-123.5"/>
<text text-anchor="middle" x="578.5" y="-130.5" font-family="Helvetica,sans-Serif" font-size="10.00">model.h</text>
</a>
</g>
</g>
<!-- Node2&#45;&gt;Node14 -->
<g id="edge13" class="edge"><title>Node2&#45;&gt;Node14</title>
<path fill="none" stroke="midnightblue" d="M718.197,-179.444C690.149,-170.32 645.556,-155.813 614.316,-145.651"/>
<polygon fill="midnightblue" stroke="midnightblue" points="615.272,-142.282 604.68,-142.516 613.107,-148.938 615.272,-142.282"/>
</g>
<!-- Node14&#45;&gt;Node4 -->
<g id="edge14" class="edge"><title>Node14&#45;&gt;Node4</title>
<path fill="none" stroke="midnightblue" d="M550.289,-129.738C446.445,-121.383 90.2511,-92.4634 66.5,-87 63.5001,-86.3099 60.42,-85.4344 57.3739,-84.4566"/>
<polygon fill="midnightblue" stroke="midnightblue" points="58.4947,-81.1405 47.9,-81.0866 56.1487,-87.7357 58.4947,-81.1405"/>
</g>
<!-- Node14&#45;&gt;Node5 -->
<g id="edge15" class="edge"><title>Node14&#45;&gt;Node5</title>
<path fill="none" stroke="midnightblue" d="M606.684,-124.629C609.647,-124.009 612.626,-123.449 615.5,-123 837.82,-88.2872 902.725,-143.615 1120.5,-87 1122.48,-86.4842 1124.5,-85.8442 1126.49,-85.1226"/>
<polygon fill="midnightblue" stroke="midnightblue" points="1128.3,-88.157 1136.15,-81.0346 1125.57,-81.7111 1128.3,-88.157"/>
</g>
<!-- Node14&#45;&gt;Node6 -->
<g id="edge17" class="edge"><title>Node14&#45;&gt;Node6</title>
<path fill="none" stroke="midnightblue" d="M606.68,-124.606C609.644,-123.991 612.624,-123.438 615.5,-123 865.134,-85.0141 937.152,-146.704 1182.5,-87 1184.86,-86.4257 1187.26,-85.6923 1189.64,-84.8611"/>
<polygon fill="midnightblue" stroke="midnightblue" points="1191.14,-88.0314 1199.11,-81.052 1188.53,-81.5372 1191.14,-88.0314"/>
</g>
<!-- Node14&#45;&gt;Node9 -->
<g id="edge22" class="edge"><title>Node14&#45;&gt;Node9</title>
<path fill="none" stroke="midnightblue" d="M606.677,-124.587C609.642,-123.975 612.623,-123.428 615.5,-123 893.779,-81.5811 972.931,-148.37 1247.5,-87 1250.34,-86.3662 1253.24,-85.5344 1256.1,-84.5894"/>
<polygon fill="midnightblue" stroke="midnightblue" points="1257.41,-87.8379 1265.55,-81.0631 1254.96,-81.2795 1257.41,-87.8379"/>
</g>
<!-- Node14&#45;&gt;Node11 -->
<g id="edge25" class="edge"><title>Node14&#45;&gt;Node11</title>
<path fill="none" stroke="midnightblue" d="M550.368,-128.781C535.038,-127.041 515.73,-124.871 498.5,-123 345.674,-106.407 304.805,-119.241 154.5,-87 150.824,-86.2114 147.022,-85.2272 143.265,-84.1453"/>
<polygon fill="midnightblue" stroke="midnightblue" points="144.124,-80.7471 133.536,-81.1199 142.045,-87.4314 144.124,-80.7471"/>
</g>
<!-- Node14&#45;&gt;Node13 -->
<g id="edge27" class="edge"><title>Node14&#45;&gt;Node13</title>
<path fill="none" stroke="midnightblue" d="M550.098,-125.562C545.563,-124.635 540.912,-123.745 536.5,-123 408.435,-101.373 373.404,-114.637 246.5,-87 242.563,-86.1425 238.48,-85.095 234.446,-83.9592"/>
<polygon fill="midnightblue" stroke="midnightblue" points="235.212,-80.535 224.628,-81.012 233.199,-87.2394 235.212,-80.535"/>
</g>
<!-- Node15 -->
<g id="node15" class="node"><title>Node15</title>
<polygon fill="white" stroke="#bfbfbf" points="372.5,-0.5 372.5,-19.5 440.5,-19.5 440.5,-0.5 372.5,-0.5"/>
<text text-anchor="middle" x="406.5" y="-7.5" font-family="Helvetica,sans-Serif" font-size="10.00">type_traits</text>
</g>
<!-- Node14&#45;&gt;Node15 -->
<g id="edge16" class="edge"><title>Node14&#45;&gt;Node15</title>
<path fill="none" stroke="midnightblue" d="M550.451,-125.838C506.975,-116.033 427.366,-96.9749 418.5,-87 404.8,-71.5871 403.26,-47.1262 404.195,-30.1345"/>
<polygon fill="midnightblue" stroke="midnightblue" points="407.717,-30.0386 405.119,-19.7673 400.745,-29.4169 407.717,-30.0386"/>
</g>
<!-- Node16 -->
<g id="node16" class="node"><title>Node16</title>
<polygon fill="white" stroke="#bfbfbf" points="557.5,-56.5 557.5,-86.5 697.5,-86.5 697.5,-56.5 557.5,-56.5"/>
<text text-anchor="start" x="565.5" y="-74.5" font-family="Helvetica,sans-Serif" font-size="10.00">boost/multi_index/hashed</text>
<text text-anchor="middle" x="627.5" y="-63.5" font-family="Helvetica,sans-Serif" font-size="10.00">_index.hpp</text>
</g>
<!-- Node14&#45;&gt;Node16 -->
<g id="edge18" class="edge"><title>Node14&#45;&gt;Node16</title>
<path fill="none" stroke="midnightblue" d="M585.521,-123.475C591.785,-115.869 601.23,-104.399 609.576,-94.2649"/>
<polygon fill="midnightblue" stroke="midnightblue" points="612.296,-96.4673 615.952,-86.523 606.893,-92.0173 612.296,-96.4673"/>
</g>
<!-- Node17 -->
<g id="node17" class="node"><title>Node17</title>
<polygon fill="white" stroke="#bfbfbf" points="715.5,-56.5 715.5,-86.5 845.5,-86.5 845.5,-56.5 715.5,-56.5"/>
<text text-anchor="start" x="723.5" y="-74.5" font-family="Helvetica,sans-Serif" font-size="10.00">boost/multi_index/mem</text>
<text text-anchor="middle" x="780.5" y="-63.5" font-family="Helvetica,sans-Serif" font-size="10.00">_fun.hpp</text>
</g>
<!-- Node14&#45;&gt;Node17 -->
<g id="edge19" class="edge"><title>Node14&#45;&gt;Node17</title>
<path fill="none" stroke="midnightblue" d="M606.587,-123.727C636.541,-114.904 684.815,-100.685 722.912,-89.4629"/>
<polygon fill="midnightblue" stroke="midnightblue" points="724.257,-92.7154 732.861,-86.5324 722.279,-86.0006 724.257,-92.7154"/>
</g>
<!-- Node18 -->
<g id="node18" class="node"><title>Node18</title>
<polygon fill="white" stroke="#bfbfbf" points="863.5,-62 863.5,-81 1035.5,-81 1035.5,-62 863.5,-62"/>
<text text-anchor="middle" x="949.5" y="-69" font-family="Helvetica,sans-Serif" font-size="10.00">boost/multi_index_container.hpp</text>
</g>
<!-- Node14&#45;&gt;Node18 -->
<g id="edge20" class="edge"><title>Node14&#45;&gt;Node18</title>
<path fill="none" stroke="midnightblue" d="M606.725,-124.86C609.68,-124.195 612.646,-123.561 615.5,-123 720.904,-102.285 748.294,-103.104 854.5,-87 863.927,-85.5706 873.879,-84.0568 883.653,-82.5675"/>
<polygon fill="midnightblue" stroke="midnightblue" points="884.385,-85.9964 893.743,-81.0289 883.33,-79.0763 884.385,-85.9964"/>
</g>
<!-- Node14&#45;&gt;Node19 -->
<g id="edge21" class="edge"><title>Node14&#45;&gt;Node19</title>
<path fill="none" stroke="midnightblue" d="M606.675,-124.57C609.64,-123.961 612.622,-123.42 615.5,-123 925.076,-77.83 1008.37,-128.223 1318.5,-87 1328.12,-85.7217 1338.4,-83.7873 1347.96,-81.7443"/>
<polygon fill="midnightblue" stroke="midnightblue" points="1348.97,-85.104 1357.97,-79.5106 1347.45,-78.2719 1348.97,-85.104"/>
</g>
<!-- Node20 -->
<g id="node20" class="node"><title>Node20</title>
<polygon fill="white" stroke="#bfbfbf" points="472.5,-0.5 472.5,-19.5 572.5,-19.5 572.5,-0.5 472.5,-0.5"/>
<text text-anchor="middle" x="522.5" y="-7.5" font-family="Helvetica,sans-Serif" font-size="10.00">QUndoCommand</text>
</g>
<!-- Node14&#45;&gt;Node20 -->
<g id="edge23" class="edge"><title>Node14&#45;&gt;Node20</title>
<path fill="none" stroke="midnightblue" d="M571.815,-123.444C565.209,-114.68 555.154,-100.469 548.5,-87 539.256,-68.2866 531.934,-45.4765 527.446,-29.7567"/>
<polygon fill="midnightblue" stroke="midnightblue" points="530.714,-28.4402 524.692,-19.7233 523.964,-30.293 530.714,-28.4402"/>
</g>
<!-- Node21 -->
<g id="node21" class="node"><title>Node21</title>
<polygon fill="white" stroke="#bfbfbf" points="1053.5,-62 1053.5,-81 1111.5,-81 1111.5,-62 1053.5,-62"/>
<text text-anchor="middle" x="1082.5" y="-69" font-family="Helvetica,sans-Serif" font-size="10.00">QVariant</text>
</g>
<!-- Node14&#45;&gt;Node21 -->
<g id="edge24" class="edge"><title>Node14&#45;&gt;Node21</title>
<path fill="none" stroke="midnightblue" d="M606.69,-124.667C609.652,-124.039 612.629,-123.467 615.5,-123 804.357,-92.2966 857.949,-129.525 1044.5,-87 1047.5,-86.3159 1050.58,-85.4442 1053.63,-84.4689"/>
<polygon fill="midnightblue" stroke="midnightblue" points="1054.85,-87.7484 1063.1,-81.102 1052.51,-81.1525 1054.85,-87.7484"/>
</g>
<!-- Node22 -->
<g id="node22" class="node"><title>Node22</title>
<polygon fill="white" stroke="#bfbfbf" points="255.5,-62 255.5,-81 371.5,-81 371.5,-62 255.5,-62"/>
<text text-anchor="middle" x="313.5" y="-69" font-family="Helvetica,sans-Serif" font-size="10.00">src/ext/multi_index.h</text>
</g>
<!-- Node14&#45;&gt;Node22 -->
<g id="edge26" class="edge"><title>Node14&#45;&gt;Node22</title>
<path fill="none" stroke="midnightblue" d="M550.14,-125.632C505.015,-115.501 416.355,-95.5939 361.296,-83.2315"/>
<polygon fill="midnightblue" stroke="midnightblue" points="361.948,-79.7909 351.424,-81.015 360.414,-86.6208 361.948,-79.7909"/>
</g>
<!-- Node23 -->
<g id="node23" class="node"><title>Node23</title>
<g id="a_node23"><a xlink:href="command_8h.xhtml" target="_top" xlink:title="Undo&#45;redo helper facilities based on the Qt Undo framework. ">
<polygon fill="white" stroke="black" points="427.5,-62 427.5,-81 501.5,-81 501.5,-62 427.5,-62"/>
<text text-anchor="middle" x="464.5" y="-69" font-family="Helvetica,sans-Serif" font-size="10.00">command.h</text>
</a>
</g>
</g>
<!-- Node14&#45;&gt;Node23 -->
<g id="edge28" class="edge"><title>Node14&#45;&gt;Node23</title>
<path fill="none" stroke="midnightblue" d="M562.167,-123.475C543.289,-113.622 511.993,-97.2883 489.924,-85.7697"/>
<polygon fill="midnightblue" stroke="midnightblue" points="491.288,-82.5333 480.803,-81.0091 488.049,-88.7389 491.288,-82.5333"/>
</g>
<!-- Node23&#45;&gt;Node15 -->
<g id="edge29" class="edge"><title>Node23&#45;&gt;Node15</title>
<path fill="none" stroke="midnightblue" d="M456.19,-61.9751C447.318,-52.8733 433.054,-38.241 422.08,-26.983"/>
<polygon fill="midnightblue" stroke="midnightblue" points="424.281,-24.2268 414.795,-19.5091 419.269,-29.113 424.281,-24.2268"/>
</g>
<!-- Node23&#45;&gt;Node20 -->
<g id="edge30" class="edge"><title>Node23&#45;&gt;Node20</title>
<path fill="none" stroke="midnightblue" d="M472.81,-61.9751C481.682,-52.8733 495.946,-38.241 506.92,-26.983"/>
<polygon fill="midnightblue" stroke="midnightblue" points="509.731,-29.113 514.205,-19.5091 504.719,-24.2268 509.731,-29.113"/>
</g>
<!-- Node35&#45;&gt;Node9 -->
<g id="edge48" class="edge"><title>Node35&#45;&gt;Node9</title>
<path fill="none" stroke="midnightblue" d="M1193.6,-179.302C1173.51,-167.146 1143.16,-144.181 1157.5,-123 1181.65,-87.3258 1207.52,-103.048 1247.5,-87 1249.13,-86.3443 1250.81,-85.6714 1252.5,-84.9917"/>
<polygon fill="midnightblue" stroke="midnightblue" points="1254.21,-88.0755 1262.18,-81.0958 1251.6,-81.5814 1254.21,-88.0755"/>
</g>
<!-- Node36 -->
<g id="node36" class="node"><title>Node36</title>
<polygon fill="white" stroke="#bfbfbf" points="1167,-123.5 1167,-142.5 1252,-142.5 1252,-123.5 1167,-123.5"/>
<text text-anchor="middle" x="1209.5" y="-130.5" font-family="Helvetica,sans-Serif" font-size="10.00">QMessageBox</text>
</g>
<!-- Node35&#45;&gt;Node36 -->
<g id="edge47" class="edge"><title>Node35&#45;&gt;Node36</title>
<path fill="none" stroke="midnightblue" d="M1209.5,-179.083C1209.5,-172.006 1209.5,-161.861 1209.5,-152.986"/>
<polygon fill="midnightblue" stroke="midnightblue" points="1213,-152.751 1209.5,-142.751 1206,-152.751 1213,-152.751"/>
</g>
<!-- Node37 -->
<g id="node37" class="node"><title>Node37</title>
<polygon fill="white" stroke="#bfbfbf" points="1270.5,-123.5 1270.5,-142.5 1386.5,-142.5 1386.5,-123.5 1270.5,-123.5"/>
<text text-anchor="middle" x="1328.5" y="-130.5" font-family="Helvetica,sans-Serif" font-size="10.00">src/ext/source_info.h</text>
</g>
<!-- Node35&#45;&gt;Node37 -->
<g id="edge49" class="edge"><title>Node35&#45;&gt;Node37</title>
<path fill="none" stroke="midnightblue" d="M1228.36,-179.444C1247.77,-170.636 1278.23,-156.812 1300.46,-146.722"/>
<polygon fill="midnightblue" stroke="midnightblue" points="1302.07,-149.836 1309.73,-142.516 1299.18,-143.462 1302.07,-149.836"/>
</g>
<!-- Node40 -->
<g id="node40" class="node"><title>Node40</title>
<polygon fill="white" stroke="#bfbfbf" points="2678.5,-123.5 2678.5,-142.5 2744.5,-142.5 2744.5,-123.5 2678.5,-123.5"/>
<text text-anchor="middle" x="2711.5" y="-130.5" font-family="Helvetica,sans-Serif" font-size="10.00">QValidator</text>
</g>
<!-- Node39&#45;&gt;Node40 -->
<g id="edge52" class="edge"><title>Node39&#45;&gt;Node40</title>
<path fill="none" stroke="midnightblue" d="M2711.5,-179.083C2711.5,-172.006 2711.5,-161.861 2711.5,-152.986"/>
<polygon fill="midnightblue" stroke="midnightblue" points="2715,-152.751 2711.5,-142.751 2708,-152.751 2715,-152.751"/>
</g>
</g>
</svg>
        <g id="navigator" transform="translate(0 0)" fill="#404254">
                <rect fill="#f2f5e9" fill-opacity="0.5" stroke="#606060" stroke-width=".5" x="0" y="0" width="60" height="60"/>
                <use id="zoomplus" xlink:href="#zoomPlus" x="17" y="9" onmousedown="handleZoom(evt,'in')"/>
                <use id="zoomminus" xlink:href="#zoomMin" x="42" y="9" onmousedown="handleZoom(evt,'out')"/>
                <use id="reset" xlink:href="#resetDef" x="30" y="36" onmousedown="handleReset()"/>
                <g id="arrowUp" xlink:href="#dirArrow" transform="translate(30 24)" onmousedown="handlePan(0,-1)">
                  <use xlink:href="#rim" fill="#404040">
                        <set attributeName="fill" to="#808080" begin="arrowUp.mouseover" end="arrowUp.mouseout"/>
                  </use>
                  <path fill="none" stroke="white" stroke-width="1.5" d="M0,-3.0v7 M-2.5,-0.5L0,-3.0L2.5,-0.5"/>
                </g>
                <g id="arrowRight" xlink:href="#dirArrow" transform="rotate(90) translate(36 -43)" onmousedown="handlePan(1,0)">
                  <use xlink:href="#rim" fill="#404040">
                        <set attributeName="fill" to="#808080" begin="arrowRight.mouseover" end="arrowRight.mouseout"/>
                  </use>
                  <path fill="none" stroke="white" stroke-width="1.5" d="M0,-3.0v7 M-2.5,-0.5L0,-3.0L2.5,-0.5"/>
                </g>
                <g id="arrowDown" xlink:href="#dirArrow" transform="rotate(180) translate(-30 -48)" onmousedown="handlePan(0,1)">
                  <use xlink:href="#rim" fill="#404040">
                        <set attributeName="fill" to="#808080" begin="arrowDown.mouseover" end="arrowDown.mouseout"/>
                  </use>
                  <path fill="none" stroke="white" stroke-width="1.5" d="M0,-3.0v7 M-2.5,-0.5L0,-3.0L2.5,-0.5"/>
                </g>
                <g id="arrowLeft" xlink:href="#dirArrow" transform="rotate(270) translate(-36 17)" onmousedown="handlePan(-1,0)">
                  <use xlink:href="#rim" fill="#404040">
                        <set attributeName="fill" to="#808080" begin="arrowLeft.mouseover" end="arrowLeft.mouseout"/>
                  </use>
                  <path fill="none" stroke="white" stroke-width="1.5" d="M0,-3.0v7 M-2.5,-0.5L0,-3.0L2.5,-0.5"/>
                </g>
        </g>
        <svg viewBox="0 0 15 15" width="100%" height="30px" preserveAspectRatio="xMaxYMin meet">
         <g id="arrow_out" transform="scale(0.3 0.3)">
          <a xlink:href="eventdialog_8cpp__incl_org.svg" target="_base">
           <rect id="button" ry="5" rx="5" y="6" x="6" height="38" width="38"
                fill="#f2f5e9" fill-opacity="0.5" stroke="#606060" stroke-width="1.0"/>
           <path id="arrow"
             d="M 11.500037,31.436501 C 11.940474,20.09759 22.043105,11.32322 32.158766,21.979434 L 37.068811,17.246167 C 37.068811,17.246167 37.088388,32 37.088388,32 L 22.160133,31.978069 C 22.160133,31.978069 26.997745,27.140456 26.997745,27.140456 C 18.528582,18.264221 13.291696,25.230495 11.500037,31.436501 z"
             style="fill:#404040;"/>
          </a>
         </g>
        </svg>
</svg>
