<?xml version="1.0" encoding="UTF-8" standalone="no"?>
<!DOCTYPE svg PUBLIC "-//W3C//DTD SVG 1.1//EN"
 "http://www.w3.org/Graphics/SVG/1.1/DTD/svg11.dtd">
<!-- Generated by graphviz version 2.38.0 (20140413.2041)
 -->
<!-- Title: eventdialog.h Pages: 1 -->
<svg width="1393pt" height="207pt"
 viewBox="0.00 0.00 1392.50 207.00" xmlns="http://www.w3.org/2000/svg" xmlns:xlink="http://www.w3.org/1999/xlink">
<g id="graph0" class="graph" transform="scale(1 1) rotate(0) translate(4 203)">
<title>eventdialog.h</title>
<polygon fill="white" stroke="none" points="-4,4 -4,-203 1388.5,-203 1388.5,4 -4,4"/>
<!-- Node1 -->
<g id="node1" class="node"><title>Node1</title>
<polygon fill="#bfbfbf" stroke="black" points="288,-179.5 288,-198.5 369,-198.5 369,-179.5 288,-179.5"/>
<text text-anchor="middle" x="328.5" y="-186.5" font-family="Helvetica,sans-Serif" font-size="10.00">eventdialog.h</text>
</g>
<!-- Node2 -->
<g id="node2" class="node"><title>Node2</title>
<polygon fill="white" stroke="#bfbfbf" points="52,-123.5 52,-142.5 129,-142.5 129,-123.5 52,-123.5"/>
<text text-anchor="middle" x="90.5" y="-130.5" font-family="Helvetica,sans-Serif" font-size="10.00">initializer_list</text>
</g>
<!-- Node1&#45;&gt;Node2 -->
<g id="edge1" class="edge"><title>Node1&#45;&gt;Node2</title>
<path fill="none" stroke="midnightblue" d="M290.788,-179.444C249.357,-170.043 182.743,-154.929 137.833,-144.739"/>
<polygon fill="midnightblue" stroke="midnightblue" points="138.562,-141.316 128.035,-142.516 137.013,-148.142 138.562,-141.316"/>
</g>
<!-- Node3 -->
<g id="node3" class="node"><title>Node3</title>
<polygon fill="white" stroke="#bfbfbf" points="0,-62 0,-81 57,-81 57,-62 0,-62"/>
<text text-anchor="middle" x="28.5" y="-69" font-family="Helvetica,sans-Serif" font-size="10.00">memory</text>
</g>
<!-- Node1&#45;&gt;Node3 -->
<g id="edge2" class="edge"><title>Node1&#45;&gt;Node3</title>
<path fill="none" stroke="midnightblue" d="M299.678,-179.478C271.566,-170.961 227.724,-157.132 190.5,-143 142.423,-124.748 87.8357,-100.165 55.8857,-85.3717"/>
<polygon fill="midnightblue" stroke="midnightblue" points="57.2725,-82.1567 46.7292,-81.1129 54.3203,-88.5038 57.2725,-82.1567"/>
</g>
<!-- Node4 -->
<g id="node4" class="node"><title>Node4</title>
<polygon fill="white" stroke="#bfbfbf" points="75.5,-62 75.5,-81 119.5,-81 119.5,-62 75.5,-62"/>
<text text-anchor="middle" x="97.5" y="-69" font-family="Helvetica,sans-Serif" font-size="10.00">string</text>
</g>
<!-- Node1&#45;&gt;Node4 -->
<g id="edge3" class="edge"><title>Node1&#45;&gt;Node4</title>
<path fill="none" stroke="midnightblue" d="M309.408,-179.483C289.749,-170.634 258.29,-156.251 231.5,-143 192.887,-123.901 148.8,-100.365 122.069,-85.8985"/>
<polygon fill="midnightblue" stroke="midnightblue" points="123.507,-82.6968 113.048,-81.0042 120.169,-88.8496 123.507,-82.6968"/>
</g>
<!-- Node5 -->
<g id="node5" class="node"><title>Node5</title>
<polygon fill="white" stroke="#bfbfbf" points="138,-62 138,-81 185,-81 185,-62 138,-62"/>
<text text-anchor="middle" x="161.5" y="-69" font-family="Helvetica,sans-Serif" font-size="10.00">vector</text>
</g>
<!-- Node1&#45;&gt;Node5 -->
<g id="edge4" class="edge"><title>Node1&#45;&gt;Node5</title>
<path fill="none" stroke="midnightblue" d="M315.948,-179.319C287.538,-159.67 218.047,-111.609 182.779,-87.2169"/>
<polygon fill="midnightblue" stroke="midnightblue" points="184.413,-84.0917 174.198,-81.282 180.431,-89.8489 184.413,-84.0917"/>
</g>
<!-- Node6 -->
<g id="node6" class="node"><title>Node6</title>
<polygon fill="white" stroke="#bfbfbf" points="449.5,-123.5 449.5,-142.5 503.5,-142.5 503.5,-123.5 449.5,-123.5"/>
<text text-anchor="middle" x="476.5" y="-130.5" font-family="Helvetica,sans-Serif" font-size="10.00">QDialog</text>
</g>
<!-- Node1&#45;&gt;Node6 -->
<g id="edge5" class="edge"><title>Node1&#45;&gt;Node6</title>
<path fill="none" stroke="midnightblue" d="M351.951,-179.444C376.633,-170.438 415.685,-156.189 443.477,-146.049"/>
<polygon fill="midnightblue" stroke="midnightblue" points="444.964,-149.232 453.159,-142.516 442.565,-142.656 444.964,-149.232"/>
</g>
<!-- Node7 -->
<g id="node7" class="node"><title>Node7</title>
<polygon fill="white" stroke="#bfbfbf" points="521.5,-123.5 521.5,-142.5 593.5,-142.5 593.5,-123.5 521.5,-123.5"/>
<text text-anchor="middle" x="557.5" y="-130.5" font-family="Helvetica,sans-Serif" font-size="10.00">QStatusBar</text>
</g>
<!-- Node1&#45;&gt;Node7 -->
<g id="edge6" class="edge"><title>Node1&#45;&gt;Node7</title>
<path fill="none" stroke="midnightblue" d="M364.786,-179.444C404.483,-170.083 468.207,-155.056 511.412,-144.868"/>
<polygon fill="midnightblue" stroke="midnightblue" points="512.454,-148.218 521.384,-142.516 510.848,-141.405 512.454,-148.218"/>
</g>
<!-- Node8 -->
<g id="node8" class="node"><title>Node8</title>
<polygon fill="white" stroke="#bfbfbf" points="203,-62 203,-81 256,-81 256,-62 203,-62"/>
<text text-anchor="middle" x="229.5" y="-69" font-family="Helvetica,sans-Serif" font-size="10.00">QString</text>
</g>
<!-- Node1&#45;&gt;Node8 -->
<g id="edge7" class="edge"><title>Node1&#45;&gt;Node8</title>
<path fill="none" stroke="midnightblue" d="M321.059,-179.319C304.647,-160.172 265.109,-114.044 243.755,-89.1306"/>
<polygon fill="midnightblue" stroke="midnightblue" points="246.193,-86.5968 237.027,-81.282 240.878,-91.1524 246.193,-86.5968"/>
</g>
<!-- Node9 -->
<g id="node9" class="node"><title>Node9</title>
<polygon fill="white" stroke="#bfbfbf" points="612,-123.5 612,-142.5 707,-142.5 707,-123.5 612,-123.5"/>
<text text-anchor="middle" x="659.5" y="-130.5" font-family="Helvetica,sans-Serif" font-size="10.00">ui_eventdialog.h</text>
</g>
<!-- Node1&#45;&gt;Node9 -->
<g id="edge8" class="edge"><title>Node1&#45;&gt;Node9</title>
<path fill="none" stroke="midnightblue" d="M369.087,-181.379C427.46,-171.855 535.4,-154.246 601.975,-143.385"/>
<polygon fill="midnightblue" stroke="midnightblue" points="602.583,-146.832 611.889,-141.767 601.456,-139.923 602.583,-146.832"/>
</g>
<!-- Node10 -->
<g id="node10" class="node"><title>Node10</title>
<polygon fill="white" stroke="#bfbfbf" points="274.5,-62 274.5,-81 344.5,-81 344.5,-62 274.5,-62"/>
<text text-anchor="middle" x="309.5" y="-69" font-family="Helvetica,sans-Serif" font-size="10.00">src/event.h</text>
</g>
<!-- Node1&#45;&gt;Node10 -->
<g id="edge9" class="edge"><title>Node1&#45;&gt;Node10</title>
<path fill="none" stroke="midnightblue" d="M327.072,-179.319C324.018,-160.757 316.794,-116.839 312.621,-91.4734"/>
<polygon fill="midnightblue" stroke="midnightblue" points="316.022,-90.5812 310.945,-81.282 309.114,-91.7175 316.022,-90.5812"/>
</g>
<!-- Node11 -->
<g id="node11" class="node"><title>Node11</title>
<polygon fill="white" stroke="#bfbfbf" points="725,-123.5 725,-142.5 820,-142.5 820,-123.5 725,-123.5"/>
<text text-anchor="middle" x="772.5" y="-130.5" font-family="Helvetica,sans-Serif" font-size="10.00">src/expression.h</text>
</g>
<!-- Node1&#45;&gt;Node11 -->
<g id="edge10" class="edge"><title>Node1&#45;&gt;Node11</title>
<path fill="none" stroke="midnightblue" d="M369.071,-183.887C437.966,-176.774 582.466,-161.298 714.565,-143.22"/>
<polygon fill="midnightblue" stroke="midnightblue" points="715.433,-146.633 724.862,-141.802 714.478,-139.699 715.433,-146.633"/>
</g>
<!-- Node12 -->
<g id="node12" class="node"><title>Node12</title>
<polygon fill="white" stroke="#bfbfbf" points="363,-62 363,-81 436,-81 436,-62 363,-62"/>
<text text-anchor="middle" x="399.5" y="-69" font-family="Helvetica,sans-Serif" font-size="10.00">src/model.h</text>
</g>
<!-- Node1&#45;&gt;Node12 -->
<g id="edge11" class="edge"><title>Node1&#45;&gt;Node12</title>
<path fill="none" stroke="midnightblue" d="M333.525,-179.086C340.67,-166.483 354.261,-142.788 366.5,-123 373.43,-111.795 381.518,-99.408 387.952,-89.7063"/>
<polygon fill="midnightblue" stroke="midnightblue" points="390.886,-91.6153 393.523,-81.3537 385.062,-87.7313 390.886,-91.6153"/>
</g>
<!-- Node13 -->
<g id="node13" class="node"><title>Node13</title>
<g id="a_node13"><a xlink:href="model_8h.xhtml" target="_top" xlink:title="Wrapper Model classes for the MEF data. ">
<polygon fill="white" stroke="black" points="375.5,-123.5 375.5,-142.5 431.5,-142.5 431.5,-123.5 375.5,-123.5"/>
<text text-anchor="middle" x="403.5" y="-130.5" font-family="Helvetica,sans-Serif" font-size="10.00">model.h</text>
</a>
</g>
</g>
<!-- Node1&#45;&gt;Node13 -->
<g id="edge12" class="edge"><title>Node1&#45;&gt;Node13</title>
<path fill="none" stroke="midnightblue" d="M340.55,-179.324C351.963,-171.107 369.331,-158.602 382.935,-148.807"/>
<polygon fill="midnightblue" stroke="midnightblue" points="385.16,-151.517 391.231,-142.834 381.07,-145.837 385.16,-151.517"/>
</g>
<!-- Node13&#45;&gt;Node3 -->
<g id="edge13" class="edge"><title>Node13&#45;&gt;Node3</title>
<path fill="none" stroke="midnightblue" d="M375.121,-130.435C316.606,-126.723 178.634,-115.47 66.5,-87 63.6768,-86.2832 60.7768,-85.421 57.8981,-84.4787"/>
<polygon fill="midnightblue" stroke="midnightblue" points="58.9296,-81.1306 48.335,-81.0622 56.5745,-87.7226 58.9296,-81.1306"/>
</g>
<!-- Node13&#45;&gt;Node4 -->
<g id="edge14" class="edge"><title>Node13&#45;&gt;Node4</title>
<path fill="none" stroke="midnightblue" d="M375.202,-129.95C324.689,-125.726 216.086,-114.079 128.5,-87 126.627,-86.4208 124.721,-85.7501 122.823,-85.0209"/>
<polygon fill="midnightblue" stroke="midnightblue" points="124.144,-81.7792 113.575,-81.0424 121.378,-88.2094 124.144,-81.7792"/>
</g>
<!-- Node13&#45;&gt;Node5 -->
<g id="edge16" class="edge"><title>Node13&#45;&gt;Node5</title>
<path fill="none" stroke="midnightblue" d="M375.479,-127.957C334.736,-121.641 257.067,-107.944 193.5,-87 191.632,-86.3845 189.726,-85.6939 187.823,-84.957"/>
<polygon fill="midnightblue" stroke="midnightblue" points="189.075,-81.6866 178.502,-81.0188 186.351,-88.1348 189.075,-81.6866"/>
</g>
<!-- Node13&#45;&gt;Node8 -->
<g id="edge21" class="edge"><title>Node13&#45;&gt;Node8</title>
<path fill="none" stroke="midnightblue" d="M375.557,-123.498C347.545,-114.832 303.27,-100.747 265.5,-87 263.601,-86.3087 261.652,-85.5802 259.692,-84.8329"/>
<polygon fill="midnightblue" stroke="midnightblue" points="260.556,-81.4124 249.968,-81.0229 258.002,-87.93 260.556,-81.4124"/>
</g>
<!-- Node13&#45;&gt;Node10 -->
<g id="edge24" class="edge"><title>Node13&#45;&gt;Node10</title>
<path fill="none" stroke="midnightblue" d="M390.032,-123.475C374.815,-113.843 349.813,-98.0175 331.699,-86.5517"/>
<polygon fill="midnightblue" stroke="midnightblue" points="333.264,-83.4002 322.943,-81.0091 329.521,-89.3149 333.264,-83.4002"/>
</g>
<!-- Node13&#45;&gt;Node12 -->
<g id="edge26" class="edge"><title>Node13&#45;&gt;Node12</title>
<path fill="none" stroke="midnightblue" d="M402.927,-123.475C402.363,-115.08 401.482,-101.981 400.755,-91.1631"/>
<polygon fill="midnightblue" stroke="midnightblue" points="404.235,-90.7518 400.072,-81.0091 397.251,-91.2214 404.235,-90.7518"/>
</g>
<!-- Node14 -->
<g id="node14" class="node"><title>Node14</title>
<polygon fill="white" stroke="#bfbfbf" points="437.5,-0.5 437.5,-19.5 505.5,-19.5 505.5,-0.5 437.5,-0.5"/>
<text text-anchor="middle" x="471.5" y="-7.5" font-family="Helvetica,sans-Serif" font-size="10.00">type_traits</text>
</g>
<!-- Node13&#45;&gt;Node14 -->
<g id="edge15" class="edge"><title>Node13&#45;&gt;Node14</title>
<path fill="none" stroke="midnightblue" d="M413.794,-123.31C423.204,-114.879 436.925,-101.297 445.5,-87 456.34,-68.9271 463.443,-45.7068 467.443,-29.7148"/>
<polygon fill="midnightblue" stroke="midnightblue" points="470.857,-30.4843 469.724,-19.9502 464.04,-28.8917 470.857,-30.4843"/>
</g>
<!-- Node15 -->
<g id="node15" class="node"><title>Node15</title>
<polygon fill="white" stroke="#bfbfbf" points="622.5,-56.5 622.5,-86.5 762.5,-86.5 762.5,-56.5 622.5,-56.5"/>
<text text-anchor="start" x="630.5" y="-74.5" font-family="Helvetica,sans-Serif" font-size="10.00">boost/multi_index/hashed</text>
<text text-anchor="middle" x="692.5" y="-63.5" font-family="Helvetica,sans-Serif" font-size="10.00">_index.hpp</text>
</g>
<!-- Node13&#45;&gt;Node15 -->
<g id="edge17" class="edge"><title>Node13&#45;&gt;Node15</title>
<path fill="none" stroke="midnightblue" d="M431.754,-125.002C434.704,-124.309 437.66,-123.63 440.5,-123 497.76,-110.304 562.655,-97.3323 612.249,-87.7148"/>
<polygon fill="midnightblue" stroke="midnightblue" points="613.121,-91.1112 622.274,-85.776 611.791,-84.2386 613.121,-91.1112"/>
</g>
<!-- Node16 -->
<g id="node16" class="node"><title>Node16</title>
<polygon fill="white" stroke="#bfbfbf" points="780.5,-56.5 780.5,-86.5 910.5,-86.5 910.5,-56.5 780.5,-56.5"/>
<text text-anchor="start" x="788.5" y="-74.5" font-family="Helvetica,sans-Serif" font-size="10.00">boost/multi_index/mem</text>
<text text-anchor="middle" x="845.5" y="-63.5" font-family="Helvetica,sans-Serif" font-size="10.00">_fun.hpp</text>
</g>
<!-- Node13&#45;&gt;Node16 -->
<g id="edge18" class="edge"><title>Node13&#45;&gt;Node16</title>
<path fill="none" stroke="midnightblue" d="M431.702,-124.739C434.662,-124.097 437.635,-123.502 440.5,-123 582.984,-98.032 623.4,-108.737 769.913,-87.1517"/>
<polygon fill="midnightblue" stroke="midnightblue" points="770.812,-90.556 780.183,-85.6118 769.774,-83.6334 770.812,-90.556"/>
</g>
<!-- Node17 -->
<g id="node17" class="node"><title>Node17</title>
<polygon fill="white" stroke="#bfbfbf" points="928.5,-62 928.5,-81 1100.5,-81 1100.5,-62 928.5,-62"/>
<text text-anchor="middle" x="1014.5" y="-69" font-family="Helvetica,sans-Serif" font-size="10.00">boost/multi_index_container.hpp</text>
</g>
<!-- Node13&#45;&gt;Node17 -->
<g id="edge19" class="edge"><title>Node13&#45;&gt;Node17</title>
<path fill="none" stroke="midnightblue" d="M431.686,-124.641C434.648,-124.018 437.627,-123.454 440.5,-123 651.37,-89.6593 707.378,-111.124 919.5,-87 930.415,-85.7587 942,-84.1967 953.188,-82.5611"/>
<polygon fill="midnightblue" stroke="midnightblue" points="953.948,-85.9864 963.32,-81.0454 952.913,-79.0634 953.948,-85.9864"/>
</g>
<!-- Node18 -->
<g id="node18" class="node"><title>Node18</title>
<polygon fill="white" stroke="#bfbfbf" points="1119,-62 1119,-81 1174,-81 1174,-62 1119,-62"/>
<text text-anchor="middle" x="1146.5" y="-69" font-family="Helvetica,sans-Serif" font-size="10.00">QObject</text>
</g>
<!-- Node13&#45;&gt;Node18 -->
<g id="edge20" class="edge"><title>Node13&#45;&gt;Node18</title>
<path fill="none" stroke="midnightblue" d="M431.676,-124.578C434.641,-123.968 437.622,-123.424 440.5,-123 735.088,-79.6264 818.505,-150.128 1109.5,-87 1112.5,-86.3482 1115.58,-85.4839 1118.62,-84.5009"/>
<polygon fill="midnightblue" stroke="midnightblue" points="1119.84,-87.7823 1128.04,-81.0711 1117.44,-81.205 1119.84,-87.7823"/>
</g>
<!-- Node19 -->
<g id="node19" class="node"><title>Node19</title>
<polygon fill="white" stroke="#bfbfbf" points="537.5,-0.5 537.5,-19.5 637.5,-19.5 637.5,-0.5 537.5,-0.5"/>
<text text-anchor="middle" x="587.5" y="-7.5" font-family="Helvetica,sans-Serif" font-size="10.00">QUndoCommand</text>
</g>
<!-- Node13&#45;&gt;Node19 -->
<g id="edge22" class="edge"><title>Node13&#45;&gt;Node19</title>
<path fill="none" stroke="midnightblue" d="M431.792,-125.017C479.978,-113.066 573.046,-89.7101 575.5,-87 589.34,-71.7129 590.852,-47.2261 589.871,-30.194"/>
<polygon fill="midnightblue" stroke="midnightblue" points="593.316,-29.4355 588.915,-19.7981 586.346,-30.0767 593.316,-29.4355"/>
</g>
<!-- Node20 -->
<g id="node20" class="node"><title>Node20</title>
<polygon fill="white" stroke="#bfbfbf" points="1192.5,-62 1192.5,-81 1250.5,-81 1250.5,-62 1192.5,-62"/>
<text text-anchor="middle" x="1221.5" y="-69" font-family="Helvetica,sans-Serif" font-size="10.00">QVariant</text>
</g>
<!-- Node13&#45;&gt;Node20 -->
<g id="edge23" class="edge"><title>Node13&#45;&gt;Node20</title>
<path fill="none" stroke="midnightblue" d="M431.674,-124.562C434.639,-123.955 437.621,-123.416 440.5,-123 767.711,-75.7163 859.912,-154.777 1183.5,-87 1186.58,-86.3549 1189.74,-85.4951 1192.86,-84.5147"/>
<polygon fill="midnightblue" stroke="midnightblue" points="1194.27,-87.7278 1202.52,-81.0883 1191.93,-81.13 1194.27,-87.7278"/>
</g>
<!-- Node21 -->
<g id="node21" class="node"><title>Node21</title>
<polygon fill="white" stroke="#bfbfbf" points="1268.5,-62 1268.5,-81 1384.5,-81 1384.5,-62 1268.5,-62"/>
<text text-anchor="middle" x="1326.5" y="-69" font-family="Helvetica,sans-Serif" font-size="10.00">src/ext/multi_index.h</text>
</g>
<!-- Node13&#45;&gt;Node21 -->
<g id="edge25" class="edge"><title>Node13&#45;&gt;Node21</title>
<path fill="none" stroke="midnightblue" d="M431.672,-124.549C434.637,-123.944 437.62,-123.41 440.5,-123 801.222,-71.6996 898.154,-133.701 1259.5,-87 1267.05,-86.0242 1275.01,-84.6307 1282.7,-83.0891"/>
<polygon fill="midnightblue" stroke="midnightblue" points="1283.55,-86.4886 1292.61,-81.0001 1282.1,-79.6393 1283.55,-86.4886"/>
</g>
<!-- Node22 -->
<g id="node22" class="node"><title>Node22</title>
<g id="a_node22"><a xlink:href="command_8h.xhtml" target="_top" xlink:title="Undo&#45;redo helper facilities based on the Qt Undo framework. ">
<polygon fill="white" stroke="black" points="492.5,-62 492.5,-81 566.5,-81 566.5,-62 492.5,-62"/>
<text text-anchor="middle" x="529.5" y="-69" font-family="Helvetica,sans-Serif" font-size="10.00">command.h</text>
</a>
</g>
</g>
<!-- Node13&#45;&gt;Node22 -->
<g id="edge27" class="edge"><title>Node13&#45;&gt;Node22</title>
<path fill="none" stroke="midnightblue" d="M421.553,-123.475C442.698,-113.49 477.94,-96.8476 502.378,-85.3075"/>
<polygon fill="midnightblue" stroke="midnightblue" points="503.933,-88.4441 511.481,-81.0091 500.944,-82.1143 503.933,-88.4441"/>
</g>
<!-- Node22&#45;&gt;Node14 -->
<g id="edge28" class="edge"><title>Node22&#45;&gt;Node14</title>
<path fill="none" stroke="midnightblue" d="M521.19,-61.9751C512.318,-52.8733 498.054,-38.241 487.08,-26.983"/>
<polygon fill="midnightblue" stroke="midnightblue" points="489.281,-24.2268 479.795,-19.5091 484.269,-29.113 489.281,-24.2268"/>
</g>
<!-- Node22&#45;&gt;Node19 -->
<g id="edge29" class="edge"><title>Node22&#45;&gt;Node19</title>
<path fill="none" stroke="midnightblue" d="M537.81,-61.9751C546.682,-52.8733 560.946,-38.241 571.92,-26.983"/>
<polygon fill="midnightblue" stroke="midnightblue" points="574.731,-29.113 579.205,-19.5091 569.719,-24.2268 574.731,-29.113"/>
</g>
</g>
</svg>
