<?xml version="1.0" encoding="UTF-8" standalone="no"?>
<!DOCTYPE svg PUBLIC "-//W3C//DTD SVG 1.1//EN"
 "http://www.w3.org/Graphics/SVG/1.1/DTD/svg11.dtd">
<!-- Generated by graphviz version 2.38.0 (20140413.2041)
 -->
<!-- Title: importancetablemodel.cpp Pages: 1 -->
<svg width="4673pt" height="151pt"
 viewBox="0.00 0.00 4672.50 151.00" xmlns="http://www.w3.org/2000/svg" xmlns:xlink="http://www.w3.org/1999/xlink">
<g id="graph0" class="graph" transform="scale(1 1) rotate(0) translate(4 147)">
<title>importancetablemodel.cpp</title>
<polygon fill="white" stroke="none" points="-4,4 -4,-147 4668.5,-147 4668.5,4 -4,4"/>
<!-- Node1 -->
<g id="node1" class="node"><title>Node1</title>
<polygon fill="#bfbfbf" stroke="black" points="2165.5,-123.5 2165.5,-142.5 2311.5,-142.5 2311.5,-123.5 2165.5,-123.5"/>
<text text-anchor="middle" x="2238.5" y="-130.5" font-family="Helvetica,sans-Serif" font-size="10.00">importancetablemodel.cpp</text>
</g>
<!-- Node2 -->
<g id="node2" class="node"><title>Node2</title>
<g id="a_node2"><a xlink:href="importancetablemodel_8h.xhtml" target="_top" xlink:title="Table model for reporting importance factors. ">
<polygon fill="white" stroke="black" points="54.5,-62 54.5,-81 188.5,-81 188.5,-62 54.5,-62"/>
<text text-anchor="middle" x="121.5" y="-69" font-family="Helvetica,sans-Serif" font-size="10.00">importancetablemodel.h</text>
</a>
</g>
</g>
<!-- Node1&#45;&gt;Node2 -->
<g id="edge1" class="edge"><title>Node1&#45;&gt;Node2</title>
<path fill="none" stroke="midnightblue" d="M2165.36,-132.02C1848.24,-131.855 590.607,-128.542 197.5,-87 188.377,-86.0359 178.712,-84.5542 169.445,-82.8997"/>
<polygon fill="midnightblue" stroke="midnightblue" points="170.062,-79.4545 159.588,-81.0529 168.773,-86.3348 170.062,-79.4545"/>
</g>
<!-- Node3 -->
<g id="node3" class="node"><title>Node3</title>
<polygon fill="white" stroke="#bfbfbf" points="0,-0.5 0,-19.5 47,-19.5 47,-0.5 0,-0.5"/>
<text text-anchor="middle" x="23.5" y="-7.5" font-family="Helvetica,sans-Serif" font-size="10.00">vector</text>
</g>
<!-- Node1&#45;&gt;Node3 -->
<g id="edge5" class="edge"><title>Node1&#45;&gt;Node3</title>
<path fill="none" stroke="midnightblue" d="M2165.23,-131.68C1788.82,-129.891 88.4718,-119.992 45.5,-87 28.2581,-73.7624 23.9261,-47.8492 23.1317,-29.99"/>
<polygon fill="midnightblue" stroke="midnightblue" points="26.6301,-29.8226 23.0152,-19.8636 19.6305,-29.9032 26.6301,-29.8226"/>
</g>
<!-- Node6 -->
<g id="node6" class="node"><title>Node6</title>
<polygon fill="white" stroke="#bfbfbf" points="207,-62 207,-81 304,-81 304,-62 207,-62"/>
<text text-anchor="middle" x="255.5" y="-69" font-family="Helvetica,sans-Serif" font-size="10.00">/scram/src/bdd.h</text>
</g>
<!-- Node1&#45;&gt;Node6 -->
<g id="edge6" class="edge"><title>Node1&#45;&gt;Node6</title>
<path fill="none" stroke="midnightblue" d="M2165.27,-131.267C1835.72,-127.838 498.221,-112.459 312.5,-87 306.259,-86.1445 299.717,-84.8594 293.38,-83.4014"/>
<polygon fill="midnightblue" stroke="midnightblue" points="294.211,-80.0017 283.664,-81.0047 292.535,-86.7979 294.211,-80.0017"/>
</g>
<!-- Node7 -->
<g id="node7" class="node"><title>Node7</title>
<polygon fill="white" stroke="#bfbfbf" points="322,-62 322,-81 369,-81 369,-62 322,-62"/>
<text text-anchor="middle" x="345.5" y="-69" font-family="Helvetica,sans-Serif" font-size="10.00">cmath</text>
</g>
<!-- Node1&#45;&gt;Node7 -->
<g id="edge7" class="edge"><title>Node1&#45;&gt;Node7</title>
<path fill="none" stroke="midnightblue" d="M2165.24,-131.906C1842.38,-131.265 554.767,-126.249 378.5,-87 375.988,-86.4407 373.431,-85.6868 370.909,-84.8154"/>
<polygon fill="midnightblue" stroke="midnightblue" points="372.105,-81.5239 361.522,-81.0348 369.49,-88.0171 372.105,-81.5239"/>
</g>
<!-- Node8 -->
<g id="node8" class="node"><title>Node8</title>
<polygon fill="white" stroke="#bfbfbf" points="387.5,-62 387.5,-81 449.5,-81 449.5,-62 387.5,-62"/>
<text text-anchor="middle" x="418.5" y="-69" font-family="Helvetica,sans-Serif" font-size="10.00">algorithm</text>
</g>
<!-- Node1&#45;&gt;Node8 -->
<g id="edge8" class="edge"><title>Node1&#45;&gt;Node8</title>
<path fill="none" stroke="midnightblue" d="M2165.31,-131.539C1851.46,-129.374 627.754,-118.941 458.5,-87 454.982,-86.3361 451.362,-85.4038 447.805,-84.3286"/>
<polygon fill="midnightblue" stroke="midnightblue" points="448.679,-80.9289 438.084,-81.0239 446.426,-87.5564 448.679,-80.9289"/>
</g>
<!-- Node9 -->
<g id="node9" class="node"><title>Node9</title>
<polygon fill="white" stroke="#bfbfbf" points="468,-62 468,-81 539,-81 539,-62 468,-62"/>
<text text-anchor="middle" x="503.5" y="-69" font-family="Helvetica,sans-Serif" font-size="10.00">forward_list</text>
</g>
<!-- Node1&#45;&gt;Node9 -->
<g id="edge9" class="edge"><title>Node1&#45;&gt;Node9</title>
<path fill="none" stroke="midnightblue" d="M2165.44,-131.31C1861.81,-128.271 708.074,-114.972 547.5,-87 543.31,-86.2702 538.974,-85.2232 534.731,-84.0213"/>
<polygon fill="midnightblue" stroke="midnightblue" points="535.7,-80.6573 525.111,-81.012 533.61,-87.3381 535.7,-80.6573"/>
</g>
<!-- Node10 -->
<g id="node10" class="node"><title>Node10</title>
<polygon fill="white" stroke="#bfbfbf" points="557,-62 557,-81 614,-81 614,-62 557,-62"/>
<text text-anchor="middle" x="585.5" y="-69" font-family="Helvetica,sans-Serif" font-size="10.00">memory</text>
</g>
<!-- Node1&#45;&gt;Node10 -->
<g id="edge10" class="edge"><title>Node1&#45;&gt;Node10</title>
<path fill="none" stroke="midnightblue" d="M2165.41,-131.446C1870.24,-129.007 774.584,-117.935 622.5,-87 619.422,-86.3739 616.268,-85.5118 613.163,-84.5175"/>
<polygon fill="midnightblue" stroke="midnightblue" points="614.157,-81.1545 603.563,-81.0178 611.759,-87.7311 614.157,-81.1545"/>
</g>
<!-- Node11 -->
<g id="node11" class="node"><title>Node11</title>
<polygon fill="white" stroke="#bfbfbf" points="632,-62 632,-81 725,-81 725,-62 632,-62"/>
<text text-anchor="middle" x="678.5" y="-69" font-family="Helvetica,sans-Serif" font-size="10.00">unordered_map</text>
</g>
<!-- Node1&#45;&gt;Node11 -->
<g id="edge11" class="edge"><title>Node1&#45;&gt;Node11</title>
<path fill="none" stroke="midnightblue" d="M2165.26,-132.017C1903.46,-131.734 1014.68,-127.723 733.5,-87 727.677,-86.1567 721.586,-84.9206 715.667,-83.5202"/>
<polygon fill="midnightblue" stroke="midnightblue" points="716.498,-80.1203 705.944,-81.0485 714.773,-86.9045 716.498,-80.1203"/>
</g>
<!-- Node12 -->
<g id="node12" class="node"><title>Node12</title>
<polygon fill="white" stroke="#bfbfbf" points="742.5,-62 742.5,-81 784.5,-81 784.5,-62 742.5,-62"/>
<text text-anchor="middle" x="763.5" y="-69" font-family="Helvetica,sans-Serif" font-size="10.00">utility</text>
</g>
<!-- Node1&#45;&gt;Node12 -->
<g id="edge12" class="edge"><title>Node1&#45;&gt;Node12</title>
<path fill="none" stroke="midnightblue" d="M2165.03,-131.504C1889.57,-129.4 926.956,-119.755 793.5,-87 791.52,-86.5139 789.516,-85.8868 787.533,-85.1667"/>
<polygon fill="midnightblue" stroke="midnightblue" points="788.558,-81.7957 777.992,-81.0136 785.764,-88.214 788.558,-81.7957"/>
</g>
<!-- Node13 -->
<g id="node13" class="node"><title>Node13</title>
<polygon fill="white" stroke="#bfbfbf" points="802.5,-62 802.5,-81 942.5,-81 942.5,-62 802.5,-62"/>
<text text-anchor="middle" x="872.5" y="-69" font-family="Helvetica,sans-Serif" font-size="10.00">boost/functional/hash.hpp</text>
</g>
<!-- Node1&#45;&gt;Node13 -->
<g id="edge13" class="edge"><title>Node1&#45;&gt;Node13</title>
<path fill="none" stroke="midnightblue" d="M2165.15,-130.85C1928.88,-126.925 1189.32,-112.842 951.5,-87 942.034,-85.9714 931.998,-84.46 922.369,-82.7965"/>
<polygon fill="midnightblue" stroke="midnightblue" points="922.985,-79.3512 912.522,-81.0217 921.743,-86.2402 922.985,-79.3512"/>
</g>
<!-- Node14 -->
<g id="node14" class="node"><title>Node14</title>
<polygon fill="white" stroke="#bfbfbf" points="960.5,-62 960.5,-81 1088.5,-81 1088.5,-62 960.5,-62"/>
<text text-anchor="middle" x="1024.5" y="-69" font-family="Helvetica,sans-Serif" font-size="10.00">boost/noncopyable.hpp</text>
</g>
<!-- Node1&#45;&gt;Node14 -->
<g id="edge14" class="edge"><title>Node1&#45;&gt;Node14</title>
<path fill="none" stroke="midnightblue" d="M2165.16,-130.611C1947.16,-126.243 1305.45,-111.599 1097.5,-87 1089.02,-85.9963 1080.04,-84.5436 1071.4,-82.941"/>
<polygon fill="midnightblue" stroke="midnightblue" points="1071.94,-79.4806 1061.46,-81.0086 1070.61,-86.3521 1071.94,-79.4806"/>
</g>
<!-- Node15 -->
<g id="node15" class="node"><title>Node15</title>
<polygon fill="white" stroke="#bfbfbf" points="1107,-56.5 1107,-86.5 1244,-86.5 1244,-56.5 1107,-56.5"/>
<text text-anchor="start" x="1115" y="-74.5" font-family="Helvetica,sans-Serif" font-size="10.00">boost/smart_ptr/intrusive</text>
<text text-anchor="middle" x="1175.5" y="-63.5" font-family="Helvetica,sans-Serif" font-size="10.00">_ptr.hpp</text>
</g>
<!-- Node1&#45;&gt;Node15 -->
<g id="edge15" class="edge"><title>Node1&#45;&gt;Node15</title>
<path fill="none" stroke="midnightblue" d="M2165.24,-132.167C2002.75,-131.778 1599.84,-126.622 1254.22,-87.0959"/>
<polygon fill="midnightblue" stroke="midnightblue" points="1254.61,-83.6171 1244.27,-85.9464 1253.81,-90.5709 1254.61,-83.6171"/>
</g>
<!-- Node16 -->
<g id="node16" class="node"><title>Node16</title>
<polygon fill="white" stroke="#bfbfbf" points="1262,-62 1262,-81 1365,-81 1365,-62 1262,-62"/>
<text text-anchor="middle" x="1313.5" y="-69" font-family="Helvetica,sans-Serif" font-size="10.00">/scram/src/pdag.h</text>
</g>
<!-- Node1&#45;&gt;Node16 -->
<g id="edge16" class="edge"><title>Node1&#45;&gt;Node16</title>
<path fill="none" stroke="midnightblue" d="M2165.43,-132.742C2015.92,-133.265 1664.61,-129.374 1373.5,-87 1367.17,-86.0781 1360.52,-84.7973 1354.06,-83.3752"/>
<polygon fill="midnightblue" stroke="midnightblue" points="1354.65,-79.9196 1344.12,-81.0553 1353.06,-86.7365 1354.65,-79.9196"/>
</g>
<!-- Node17 -->
<g id="node17" class="node"><title>Node17</title>
<polygon fill="white" stroke="#bfbfbf" points="1383,-62 1383,-81 1432,-81 1432,-62 1383,-62"/>
<text text-anchor="middle" x="1407.5" y="-69" font-family="Helvetica,sans-Serif" font-size="10.00">cstdint</text>
</g>
<!-- Node1&#45;&gt;Node17 -->
<g id="edge17" class="edge"><title>Node1&#45;&gt;Node17</title>
<path fill="none" stroke="midnightblue" d="M2165.47,-131.201C1995.37,-128.806 1576.88,-119.676 1440.5,-87 1438.14,-86.4341 1435.73,-85.7065 1433.35,-84.8792"/>
<polygon fill="midnightblue" stroke="midnightblue" points="1434.47,-81.5549 1423.88,-81.0764 1431.86,-88.0508 1434.47,-81.5549"/>
</g>
<!-- Node18 -->
<g id="node18" class="node"><title>Node18</title>
<polygon fill="white" stroke="#bfbfbf" points="1450,-62 1450,-81 1497,-81 1497,-62 1450,-62"/>
<text text-anchor="middle" x="1473.5" y="-69" font-family="Helvetica,sans-Serif" font-size="10.00">cstdlib</text>
</g>
<!-- Node1&#45;&gt;Node18 -->
<g id="edge18" class="edge"><title>Node1&#45;&gt;Node18</title>
<path fill="none" stroke="midnightblue" d="M2165.31,-130.762C2005.53,-127.529 1629.93,-116.905 1506.5,-87 1504.14,-86.4281 1501.74,-85.6963 1499.36,-84.8663"/>
<polygon fill="midnightblue" stroke="midnightblue" points="1500.47,-81.5423 1489.89,-81.0589 1497.86,-88.0369 1500.47,-81.5423"/>
</g>
<!-- Node19 -->
<g id="node19" class="node"><title>Node19</title>
<polygon fill="white" stroke="#bfbfbf" points="1515.5,-62 1515.5,-81 1561.5,-81 1561.5,-62 1515.5,-62"/>
<text text-anchor="middle" x="1538.5" y="-69" font-family="Helvetica,sans-Serif" font-size="10.00">iosfwd</text>
</g>
<!-- Node1&#45;&gt;Node19 -->
<g id="edge19" class="edge"><title>Node1&#45;&gt;Node19</title>
<path fill="none" stroke="midnightblue" d="M2165.25,-130.358C2015.98,-126.474 1681.32,-114.868 1570.5,-87 1568.29,-86.4441 1566.04,-85.7414 1563.82,-84.9467"/>
<polygon fill="midnightblue" stroke="midnightblue" points="1564.95,-81.6286 1554.37,-81.0431 1562.28,-88.0977 1564.95,-81.6286"/>
</g>
<!-- Node20 -->
<g id="node20" class="node"><title>Node20</title>
<polygon fill="white" stroke="#bfbfbf" points="1579.5,-62 1579.5,-81 1647.5,-81 1647.5,-62 1579.5,-62"/>
<text text-anchor="middle" x="1613.5" y="-69" font-family="Helvetica,sans-Serif" font-size="10.00">type_traits</text>
</g>
<!-- Node1&#45;&gt;Node20 -->
<g id="edge20" class="edge"><title>Node1&#45;&gt;Node20</title>
<path fill="none" stroke="midnightblue" d="M2165.11,-132.124C2053.95,-131.015 1836.73,-123.759 1656.5,-87 1652.81,-86.2472 1649,-85.2698 1645.24,-84.178"/>
<polygon fill="midnightblue" stroke="midnightblue" points="1646.12,-80.7859 1635.53,-81.0962 1644,-87.4578 1646.12,-80.7859"/>
</g>
<!-- Node21 -->
<g id="node21" class="node"><title>Node21</title>
<polygon fill="white" stroke="#bfbfbf" points="1665.5,-56.5 1665.5,-86.5 1775.5,-86.5 1775.5,-56.5 1665.5,-56.5"/>
<text text-anchor="start" x="1673.5" y="-74.5" font-family="Helvetica,sans-Serif" font-size="10.00">boost/container/flat</text>
<text text-anchor="middle" x="1720.5" y="-63.5" font-family="Helvetica,sans-Serif" font-size="10.00">_set.hpp</text>
</g>
<!-- Node1&#45;&gt;Node21 -->
<g id="edge21" class="edge"><title>Node1&#45;&gt;Node21</title>
<path fill="none" stroke="midnightblue" d="M2165.41,-127.557C2077.5,-121.584 1925.34,-109.249 1785.61,-87.0488"/>
<polygon fill="midnightblue" stroke="midnightblue" points="1786,-83.5668 1775.57,-85.4332 1784.89,-90.4778 1786,-83.5668"/>
</g>
<!-- Node22 -->
<g id="node22" class="node"><title>Node22</title>
<polygon fill="white" stroke="#bfbfbf" points="1794,-56.5 1794,-86.5 1909,-86.5 1909,-56.5 1794,-56.5"/>
<text text-anchor="start" x="1802" y="-74.5" font-family="Helvetica,sans-Serif" font-size="10.00">boost/range/adaptor</text>
<text text-anchor="middle" x="1851.5" y="-63.5" font-family="Helvetica,sans-Serif" font-size="10.00">/transformed.hpp</text>
</g>
<!-- Node1&#45;&gt;Node22 -->
<g id="edge22" class="edge"><title>Node1&#45;&gt;Node22</title>
<path fill="none" stroke="midnightblue" d="M2166.22,-123.481C2103.28,-115.695 2009.4,-103.193 1918.92,-87.1792"/>
<polygon fill="midnightblue" stroke="midnightblue" points="1919.5,-83.7281 1909.04,-85.4148 1918.27,-90.619 1919.5,-83.7281"/>
</g>
<!-- Node23 -->
<g id="node23" class="node"><title>Node23</title>
<polygon fill="white" stroke="#bfbfbf" points="1927,-56.5 1927,-86.5 2032,-86.5 2032,-56.5 1927,-56.5"/>
<text text-anchor="start" x="1935" y="-74.5" font-family="Helvetica,sans-Serif" font-size="10.00">/scram/src/ext/find</text>
<text text-anchor="middle" x="1979.5" y="-63.5" font-family="Helvetica,sans-Serif" font-size="10.00">_iterator.h</text>
</g>
<!-- Node1&#45;&gt;Node23 -->
<g id="edge23" class="edge"><title>Node1&#45;&gt;Node23</title>
<path fill="none" stroke="midnightblue" d="M2200.52,-123.485C2162.66,-114.972 2102.61,-101.399 2041.82,-87.2968"/>
<polygon fill="midnightblue" stroke="midnightblue" points="2042.6,-83.8833 2032.06,-85.0297 2041.01,-90.7018 2042.6,-83.8833"/>
</g>
<!-- Node24 -->
<g id="node24" class="node"><title>Node24</title>
<polygon fill="white" stroke="#bfbfbf" points="2050,-56.5 2050,-86.5 2163,-86.5 2163,-56.5 2050,-56.5"/>
<text text-anchor="start" x="2058" y="-74.5" font-family="Helvetica,sans-Serif" font-size="10.00">/scram/src/ext/index</text>
<text text-anchor="middle" x="2106.5" y="-63.5" font-family="Helvetica,sans-Serif" font-size="10.00">_map.h</text>
</g>
<!-- Node1&#45;&gt;Node24 -->
<g id="edge24" class="edge"><title>Node1&#45;&gt;Node24</title>
<path fill="none" stroke="midnightblue" d="M2219.59,-123.475C2200.71,-114.965 2171.1,-101.619 2146.92,-90.718"/>
<polygon fill="midnightblue" stroke="midnightblue" points="2148.16,-87.4416 2137.61,-86.523 2145.29,-93.8232 2148.16,-87.4416"/>
</g>
<!-- Node25 -->
<g id="node25" class="node"><title>Node25</title>
<polygon fill="white" stroke="#bfbfbf" points="2181.5,-56.5 2181.5,-86.5 2295.5,-86.5 2295.5,-56.5 2181.5,-56.5"/>
<text text-anchor="start" x="2189.5" y="-74.5" font-family="Helvetica,sans-Serif" font-size="10.00">/scram/src/ext/linear</text>
<text text-anchor="middle" x="2238.5" y="-63.5" font-family="Helvetica,sans-Serif" font-size="10.00">_map.h</text>
</g>
<!-- Node1&#45;&gt;Node25 -->
<g id="edge25" class="edge"><title>Node1&#45;&gt;Node25</title>
<path fill="none" stroke="midnightblue" d="M2238.5,-123.475C2238.5,-116.471 2238.5,-106.192 2238.5,-96.6956"/>
<polygon fill="midnightblue" stroke="midnightblue" points="2242,-96.5229 2238.5,-86.523 2235,-96.523 2242,-96.5229"/>
</g>
<!-- Node26 -->
<g id="node26" class="node"><title>Node26</title>
<polygon fill="white" stroke="#bfbfbf" points="2313.5,-62 2313.5,-81 2365.5,-81 2365.5,-62 2313.5,-62"/>
<text text-anchor="middle" x="2339.5" y="-69" font-family="Helvetica,sans-Serif" font-size="10.00">cassert</text>
</g>
<!-- Node1&#45;&gt;Node26 -->
<g id="edge26" class="edge"><title>Node1&#45;&gt;Node26</title>
<path fill="none" stroke="midnightblue" d="M2252.97,-123.475C2269.47,-113.755 2296.68,-97.7266 2316.18,-86.2372"/>
<polygon fill="midnightblue" stroke="midnightblue" points="2318.22,-89.1005 2325.06,-81.0091 2314.66,-83.0693 2318.22,-89.1005"/>
</g>
<!-- Node27 -->
<g id="node27" class="node"><title>Node27</title>
<polygon fill="white" stroke="#bfbfbf" points="2384,-62 2384,-81 2461,-81 2461,-62 2384,-62"/>
<text text-anchor="middle" x="2422.5" y="-69" font-family="Helvetica,sans-Serif" font-size="10.00">initializer_list</text>
</g>
<!-- Node1&#45;&gt;Node27 -->
<g id="edge27" class="edge"><title>Node1&#45;&gt;Node27</title>
<path fill="none" stroke="midnightblue" d="M2264.86,-123.475C2296.84,-113.136 2350.88,-95.6611 2386.62,-84.1017"/>
<polygon fill="midnightblue" stroke="midnightblue" points="2387.75,-87.4162 2396.19,-81.0091 2385.59,-80.7558 2387.75,-87.4162"/>
</g>
<!-- Node28 -->
<g id="node28" class="node"><title>Node28</title>
<polygon fill="white" stroke="#bfbfbf" points="2479.5,-62 2479.5,-81 2543.5,-81 2543.5,-62 2479.5,-62"/>
<text text-anchor="middle" x="2511.5" y="-69" font-family="Helvetica,sans-Serif" font-size="10.00">stdexcept</text>
</g>
<!-- Node1&#45;&gt;Node28 -->
<g id="edge28" class="edge"><title>Node1&#45;&gt;Node28</title>
<path fill="none" stroke="midnightblue" d="M2293.6,-123.499C2340.72,-115.7 2410.11,-102.951 2469.5,-87 2472.53,-86.1858 2475.66,-85.2641 2478.78,-84.2897"/>
<polygon fill="midnightblue" stroke="midnightblue" points="2480.17,-87.5166 2488.57,-81.0647 2477.98,-80.8677 2480.17,-87.5166"/>
</g>
<!-- Node29 -->
<g id="node29" class="node"><title>Node29</title>
<polygon fill="white" stroke="#bfbfbf" points="2562,-62 2562,-81 2679,-81 2679,-62 2562,-62"/>
<text text-anchor="middle" x="2620.5" y="-69" font-family="Helvetica,sans-Serif" font-size="10.00">/scram/src/settings.h</text>
</g>
<!-- Node1&#45;&gt;Node29 -->
<g id="edge29" class="edge"><title>Node1&#45;&gt;Node29</title>
<path fill="none" stroke="midnightblue" d="M2307.63,-123.462C2371.39,-115.261 2468.6,-101.94 2552.5,-87 2559.13,-85.8199 2566.09,-84.4659 2572.94,-83.0698"/>
<polygon fill="midnightblue" stroke="midnightblue" points="2573.75,-86.4763 2582.82,-81.0094 2572.32,-79.6236 2573.75,-86.4763"/>
</g>
<!-- Node30 -->
<g id="node30" class="node"><title>Node30</title>
<polygon fill="white" stroke="#bfbfbf" points="2697,-62 2697,-81 2766,-81 2766,-62 2697,-62"/>
<text text-anchor="middle" x="2731.5" y="-69" font-family="Helvetica,sans-Serif" font-size="10.00">string_view</text>
</g>
<!-- Node1&#45;&gt;Node30 -->
<g id="edge30" class="edge"><title>Node1&#45;&gt;Node30</title>
<path fill="none" stroke="midnightblue" d="M2311.57,-129.573C2401.06,-125.483 2556.84,-114.729 2687.5,-87 2691.18,-86.2194 2694.98,-85.2404 2698.74,-84.1614"/>
<polygon fill="midnightblue" stroke="midnightblue" points="2699.96,-87.4481 2708.47,-81.1395 2697.88,-80.7631 2699.96,-87.4481"/>
</g>
<!-- Node31 -->
<g id="node31" class="node"><title>Node31</title>
<polygon fill="white" stroke="#bfbfbf" points="2784,-56.5 2784,-86.5 2903,-86.5 2903,-56.5 2784,-56.5"/>
<text text-anchor="start" x="2792" y="-74.5" font-family="Helvetica,sans-Serif" font-size="10.00">/scram/src/probability</text>
<text text-anchor="middle" x="2843.5" y="-63.5" font-family="Helvetica,sans-Serif" font-size="10.00">_analysis.h</text>
</g>
<!-- Node1&#45;&gt;Node31 -->
<g id="edge31" class="edge"><title>Node1&#45;&gt;Node31</title>
<path fill="none" stroke="midnightblue" d="M2311.65,-128.722C2413.17,-123.537 2602.64,-111.559 2773.8,-86.9748"/>
<polygon fill="midnightblue" stroke="midnightblue" points="2774.35,-90.4312 2783.74,-85.5288 2773.34,-83.504 2774.35,-90.4312"/>
</g>
<!-- Node32 -->
<g id="node32" class="node"><title>Node32</title>
<polygon fill="white" stroke="#bfbfbf" points="2921,-62 2921,-81 3038,-81 3038,-62 2921,-62"/>
<text text-anchor="middle" x="2979.5" y="-69" font-family="Helvetica,sans-Serif" font-size="10.00">/scram/src/analysis.h</text>
</g>
<!-- Node1&#45;&gt;Node32 -->
<g id="edge32" class="edge"><title>Node1&#45;&gt;Node32</title>
<path fill="none" stroke="midnightblue" d="M2311.55,-130.54C2435.48,-127.3 2694.62,-117.216 2911.5,-87 2918.82,-85.9809 2926.52,-84.6205 2934.01,-83.1404"/>
<polygon fill="midnightblue" stroke="midnightblue" points="2934.94,-86.5209 2944.03,-81.0684 2933.52,-79.666 2934.94,-86.5209"/>
</g>
<!-- Node33 -->
<g id="node33" class="node"><title>Node33</title>
<polygon fill="white" stroke="#bfbfbf" points="3056.5,-62 3056.5,-81 3100.5,-81 3100.5,-62 3056.5,-62"/>
<text text-anchor="middle" x="3078.5" y="-69" font-family="Helvetica,sans-Serif" font-size="10.00">string</text>
</g>
<!-- Node1&#45;&gt;Node33 -->
<g id="edge33" class="edge"><title>Node1&#45;&gt;Node33</title>
<path fill="none" stroke="midnightblue" d="M2311.52,-131.366C2483.18,-129.321 2908.34,-120.888 3046.5,-87 3048.71,-86.4569 3050.96,-85.7634 3053.19,-84.9748"/>
<polygon fill="midnightblue" stroke="midnightblue" points="3054.73,-88.1281 3062.64,-81.0821 3052.06,-81.6561 3054.73,-88.1281"/>
</g>
<!-- Node34 -->
<g id="node34" class="node"><title>Node34</title>
<polygon fill="white" stroke="#bfbfbf" points="3118.5,-56.5 3118.5,-86.5 3234.5,-86.5 3234.5,-56.5 3118.5,-56.5"/>
<text text-anchor="start" x="3126.5" y="-74.5" font-family="Helvetica,sans-Serif" font-size="10.00">/scram/src/fault_tree</text>
<text text-anchor="middle" x="3176.5" y="-63.5" font-family="Helvetica,sans-Serif" font-size="10.00">_analysis.h</text>
</g>
<!-- Node1&#45;&gt;Node34 -->
<g id="edge34" class="edge"><title>Node1&#45;&gt;Node34</title>
<path fill="none" stroke="midnightblue" d="M2311.7,-132.196C2460.25,-131.731 2807.77,-126.246 3108.28,-87.0032"/>
<polygon fill="midnightblue" stroke="midnightblue" points="3109.04,-90.4326 3118.5,-85.6529 3108.12,-83.4929 3109.04,-90.4326"/>
</g>
<!-- Node35 -->
<g id="node35" class="node"><title>Node35</title>
<polygon fill="white" stroke="#bfbfbf" points="3252.5,-62 3252.5,-81 3338.5,-81 3338.5,-62 3252.5,-62"/>
<text text-anchor="middle" x="3295.5" y="-69" font-family="Helvetica,sans-Serif" font-size="10.00">unordered_set</text>
</g>
<!-- Node1&#45;&gt;Node35 -->
<g id="edge35" class="edge"><title>Node1&#45;&gt;Node35</title>
<path fill="none" stroke="midnightblue" d="M2311.61,-130.88C2511.45,-127.476 3063.92,-115.676 3243.5,-87 3248.69,-86.1715 3254.1,-85.0105 3259.38,-83.7023"/>
<polygon fill="midnightblue" stroke="midnightblue" points="3260.54,-87.015 3269.3,-81.054 3258.74,-80.2519 3260.54,-87.015"/>
</g>
<!-- Node36 -->
<g id="node36" class="node"><title>Node36</title>
<polygon fill="white" stroke="#bfbfbf" points="3356.5,-56.5 3356.5,-86.5 3476.5,-86.5 3476.5,-56.5 3356.5,-56.5"/>
<text text-anchor="start" x="3364.5" y="-74.5" font-family="Helvetica,sans-Serif" font-size="10.00">boost/iterator/iterator</text>
<text text-anchor="middle" x="3416.5" y="-63.5" font-family="Helvetica,sans-Serif" font-size="10.00">_facade.hpp</text>
</g>
<!-- Node1&#45;&gt;Node36 -->
<g id="edge36" class="edge"><title>Node1&#45;&gt;Node36</title>
<path fill="none" stroke="midnightblue" d="M2311.69,-130.623C2522.07,-126.415 3126.83,-112.511 3346.23,-86.9724"/>
<polygon fill="midnightblue" stroke="midnightblue" points="3346.88,-90.42 3356.39,-85.7474 3346.04,-83.4704 3346.88,-90.42"/>
</g>
<!-- Node37 -->
<g id="node37" class="node"><title>Node37</title>
<polygon fill="white" stroke="#bfbfbf" points="3494.5,-56.5 3494.5,-86.5 3626.5,-86.5 3626.5,-56.5 3494.5,-56.5"/>
<text text-anchor="start" x="3502.5" y="-74.5" font-family="Helvetica,sans-Serif" font-size="10.00">boost/iterator/transform</text>
<text text-anchor="middle" x="3560.5" y="-63.5" font-family="Helvetica,sans-Serif" font-size="10.00">_iterator.hpp</text>
</g>
<!-- Node1&#45;&gt;Node37 -->
<g id="edge37" class="edge"><title>Node1&#45;&gt;Node37</title>
<path fill="none" stroke="midnightblue" d="M2311.6,-130.85C2539.56,-127.034 3236.46,-113.557 3484.29,-86.9814"/>
<polygon fill="midnightblue" stroke="midnightblue" points="3484.78,-90.4485 3494.33,-85.8687 3484.01,-83.4911 3484.78,-90.4485"/>
</g>
<!-- Node38 -->
<g id="node38" class="node"><title>Node38</title>
<polygon fill="white" stroke="#bfbfbf" points="3645,-62 3645,-81 3786,-81 3786,-62 3645,-62"/>
<text text-anchor="middle" x="3715.5" y="-69" font-family="Helvetica,sans-Serif" font-size="10.00">/scram/src/preprocessor.h</text>
</g>
<!-- Node1&#45;&gt;Node38 -->
<g id="edge38" class="edge"><title>Node1&#45;&gt;Node38</title>
<path fill="none" stroke="midnightblue" d="M2311.51,-131.068C2560.46,-127.666 3375.04,-114.647 3635.5,-87 3645.08,-85.9827 3655.25,-84.4765 3665,-82.8146"/>
<polygon fill="midnightblue" stroke="midnightblue" points="3665.74,-86.2382 3674.97,-81.0403 3664.51,-79.3464 3665.74,-86.2382"/>
</g>
<!-- Node39 -->
<g id="node39" class="node"><title>Node39</title>
<polygon fill="white" stroke="#bfbfbf" points="3804.5,-62 3804.5,-81 3836.5,-81 3836.5,-62 3804.5,-62"/>
<text text-anchor="middle" x="3820.5" y="-69" font-family="Helvetica,sans-Serif" font-size="10.00">set</text>
</g>
<!-- Node1&#45;&gt;Node39 -->
<g id="edge39" class="edge"><title>Node1&#45;&gt;Node39</title>
<path fill="none" stroke="midnightblue" d="M2311.68,-131.927C2600.29,-131.359 3650.87,-126.567 3794.5,-87 3795.96,-86.5968 3797.43,-86.0952 3798.89,-85.5231"/>
<polygon fill="midnightblue" stroke="midnightblue" points="3800.63,-88.5667 3808.07,-81.0206 3797.55,-82.282 3800.63,-88.5667"/>
</g>
<!-- Node40 -->
<g id="node40" class="node"><title>Node40</title>
<polygon fill="white" stroke="#bfbfbf" points="3854.5,-62 3854.5,-81 3998.5,-81 3998.5,-62 3854.5,-62"/>
<text text-anchor="middle" x="3926.5" y="-69" font-family="Helvetica,sans-Serif" font-size="10.00">boost/unordered_map.hpp</text>
</g>
<!-- Node1&#45;&gt;Node40 -->
<g id="edge40" class="edge"><title>Node1&#45;&gt;Node40</title>
<path fill="none" stroke="midnightblue" d="M2311.85,-131.4C2584.86,-128.941 3542.01,-118.237 3845.5,-87 3855.2,-86.0013 3865.49,-84.5037 3875.37,-82.8446"/>
<polygon fill="midnightblue" stroke="midnightblue" points="3876.22,-86.2486 3885.46,-81.0712 3875.01,-79.3542 3876.22,-86.2486"/>
</g>
<!-- Node41 -->
<g id="node41" class="node"><title>Node41</title>
<polygon fill="white" stroke="#bfbfbf" points="4016.5,-62 4016.5,-81 4118.5,-81 4118.5,-62 4016.5,-62"/>
<text text-anchor="middle" x="4067.5" y="-69" font-family="Helvetica,sans-Serif" font-size="10.00">/scram/src/zbdd.h</text>
</g>
<!-- Node1&#45;&gt;Node41 -->
<g id="edge41" class="edge"><title>Node1&#45;&gt;Node41</title>
<path fill="none" stroke="midnightblue" d="M2311.75,-132.202C2601.97,-132.681 3671.71,-131.337 4007.5,-87 4013.98,-86.1439 4020.79,-84.8718 4027.39,-83.4308"/>
<polygon fill="midnightblue" stroke="midnightblue" points="4028.58,-86.7469 4037.52,-81.0628 4026.98,-79.9306 4028.58,-86.7469"/>
</g>
<!-- Node42 -->
<g id="node42" class="node"><title>Node42</title>
<polygon fill="white" stroke="#bfbfbf" points="4137,-62 4137,-81 4178,-81 4178,-62 4137,-62"/>
<text text-anchor="middle" x="4157.5" y="-69" font-family="Helvetica,sans-Serif" font-size="10.00">array</text>
</g>
<!-- Node1&#45;&gt;Node42 -->
<g id="edge42" class="edge"><title>Node1&#45;&gt;Node42</title>
<path fill="none" stroke="midnightblue" d="M2311.57,-132.089C2637.32,-132.236 3948.98,-130.123 4127.5,-87 4129.48,-86.5212 4131.49,-85.8993 4133.47,-85.1829"/>
<polygon fill="midnightblue" stroke="midnightblue" points="4135.24,-88.2319 4143.01,-81.0368 4132.45,-81.8117 4135.24,-88.2319"/>
</g>
<!-- Node43 -->
<g id="node43" class="node"><title>Node43</title>
<polygon fill="white" stroke="#bfbfbf" points="4196.5,-62 4196.5,-81 4234.5,-81 4234.5,-62 4196.5,-62"/>
<text text-anchor="middle" x="4215.5" y="-69" font-family="Helvetica,sans-Serif" font-size="10.00">map</text>
</g>
<!-- Node1&#45;&gt;Node43 -->
<g id="edge43" class="edge"><title>Node1&#45;&gt;Node43</title>
<path fill="none" stroke="midnightblue" d="M2311.63,-132.202C2643.81,-132.866 4002.28,-132.74 4186.5,-87 4188.43,-86.5218 4190.37,-85.9005 4192.29,-85.1843"/>
<polygon fill="midnightblue" stroke="midnightblue" points="4193.84,-88.3275 4201.53,-81.0389 4190.97,-81.9415 4193.84,-88.3275"/>
</g>
<!-- Node44 -->
<g id="node44" class="node"><title>Node44</title>
<polygon fill="white" stroke="#bfbfbf" points="4252.5,-62 4252.5,-81 4322.5,-81 4322.5,-62 4252.5,-62"/>
<text text-anchor="middle" x="4287.5" y="-69" font-family="Helvetica,sans-Serif" font-size="10.00">src/event.h</text>
</g>
<!-- Node1&#45;&gt;Node44 -->
<g id="edge44" class="edge"><title>Node1&#45;&gt;Node44</title>
<path fill="none" stroke="midnightblue" d="M2311.65,-131.638C2649.5,-129.794 4050.59,-120.191 4243.5,-87 4247.69,-86.2789 4252.03,-85.2371 4256.27,-84.0378"/>
<polygon fill="midnightblue" stroke="midnightblue" points="4257.39,-87.3549 4265.89,-81.0306 4255.3,-80.6737 4257.39,-87.3549"/>
</g>
<!-- Node45 -->
<g id="node45" class="node"><title>Node45</title>
<g id="a_node45"><a xlink:href="align_8h.xhtml" target="_top" xlink:title="Text alignment common conventions. ">
<polygon fill="white" stroke="black" points="4340.5,-62 4340.5,-81 4388.5,-81 4388.5,-62 4340.5,-62"/>
<text text-anchor="middle" x="4364.5" y="-69" font-family="Helvetica,sans-Serif" font-size="10.00">align.h</text>
</a>
</g>
</g>
<!-- Node1&#45;&gt;Node45 -->
<g id="edge45" class="edge"><title>Node1&#45;&gt;Node45</title>
<path fill="none" stroke="midnightblue" d="M2311.74,-132.121C2659.03,-132.464 4131.39,-131.276 4331.5,-87 4334.01,-86.444 4336.57,-85.6925 4339.09,-84.8226"/>
<polygon fill="midnightblue" stroke="midnightblue" points="4340.51,-88.0247 4348.48,-81.0441 4337.9,-81.5309 4340.51,-88.0247"/>
</g>
<!-- Node47 -->
<g id="node47" class="node"><title>Node47</title>
<g id="a_node47"><a xlink:href="guiassert_8h.xhtml" target="_top" xlink:title="GUI assertions that should not crash the program by default. ">
<polygon fill="white" stroke="black" points="4448.5,-62 4448.5,-81 4518.5,-81 4518.5,-62 4448.5,-62"/>
<text text-anchor="middle" x="4483.5" y="-69" font-family="Helvetica,sans-Serif" font-size="10.00">guiassert.h</text>
</a>
</g>
</g>
<!-- Node1&#45;&gt;Node47 -->
<g id="edge47" class="edge"><title>Node1&#45;&gt;Node47</title>
<path fill="none" stroke="midnightblue" d="M2311.67,-131.913C2640,-131.3 3979.45,-126.386 4397.5,-87 4410.7,-85.7561 4424.94,-83.666 4437.95,-81.4544"/>
<polygon fill="midnightblue" stroke="midnightblue" points="4438.85,-84.8511 4448.09,-79.6686 4437.63,-77.9573 4438.85,-84.8511"/>
</g>
<!-- Node2&#45;&gt;Node3 -->
<g id="edge2" class="edge"><title>Node2&#45;&gt;Node3</title>
<path fill="none" stroke="midnightblue" d="M107.459,-61.9751C91.449,-52.2548 65.0496,-36.2266 46.126,-24.7372"/>
<polygon fill="midnightblue" stroke="midnightblue" points="47.8793,-21.7072 37.515,-19.5091 44.2464,-27.6907 47.8793,-21.7072"/>
</g>
<!-- Node4 -->
<g id="node4" class="node"><title>Node4</title>
<polygon fill="white" stroke="#bfbfbf" points="65,-0.5 65,-19.5 182,-19.5 182,-0.5 65,-0.5"/>
<text text-anchor="middle" x="123.5" y="-7.5" font-family="Helvetica,sans-Serif" font-size="10.00">QAbstractTableModel</text>
</g>
<!-- Node2&#45;&gt;Node4 -->
<g id="edge3" class="edge"><title>Node2&#45;&gt;Node4</title>
<path fill="none" stroke="midnightblue" d="M121.787,-61.9751C122.069,-53.5803 122.509,-40.4806 122.873,-29.6631"/>
<polygon fill="midnightblue" stroke="midnightblue" points="126.376,-29.6211 123.214,-19.5091 119.38,-29.3858 126.376,-29.6211"/>
</g>
<!-- Node5 -->
<g id="node5" class="node"><title>Node5</title>
<polygon fill="white" stroke="#bfbfbf" points="200,-0.5 200,-19.5 341,-19.5 341,-0.5 200,-0.5"/>
<text text-anchor="middle" x="270.5" y="-7.5" font-family="Helvetica,sans-Serif" font-size="10.00">src/importance_analysis.h</text>
</g>
<!-- Node2&#45;&gt;Node5 -->
<g id="edge4" class="edge"><title>Node2&#45;&gt;Node5</title>
<path fill="none" stroke="midnightblue" d="M142.848,-61.9751C168.186,-51.8571 210.638,-34.9046 239.571,-23.3507"/>
<polygon fill="midnightblue" stroke="midnightblue" points="241.203,-26.4681 249.192,-19.5091 238.607,-19.9673 241.203,-26.4681"/>
</g>
<!-- Node46 -->
<g id="node46" class="node"><title>Node46</title>
<polygon fill="white" stroke="#bfbfbf" points="4328,-0.5 4328,-19.5 4357,-19.5 4357,-0.5 4328,-0.5"/>
<text text-anchor="middle" x="4342.5" y="-7.5" font-family="Helvetica,sans-Serif" font-size="10.00">Qt</text>
</g>
<!-- Node45&#45;&gt;Node46 -->
<g id="edge46" class="edge"><title>Node45&#45;&gt;Node46</title>
<path fill="none" stroke="midnightblue" d="M4361.35,-61.9751C4358.18,-53.4035 4353.2,-39.9269 4349.15,-28.983"/>
<polygon fill="midnightblue" stroke="midnightblue" points="4352.4,-27.6747 4345.65,-19.5091 4345.83,-30.1023 4352.4,-27.6747"/>
</g>
<!-- Node48 -->
<g id="node48" class="node"><title>Node48</title>
<polygon fill="white" stroke="#bfbfbf" points="4375,-0.5 4375,-19.5 4460,-19.5 4460,-0.5 4375,-0.5"/>
<text text-anchor="middle" x="4417.5" y="-7.5" font-family="Helvetica,sans-Serif" font-size="10.00">QMessageBox</text>
</g>
<!-- Node47&#45;&gt;Node48 -->
<g id="edge48" class="edge"><title>Node47&#45;&gt;Node48</title>
<path fill="none" stroke="midnightblue" d="M4474.04,-61.9751C4463.75,-52.6966 4447.08,-37.6706 4434.51,-26.331"/>
<polygon fill="midnightblue" stroke="midnightblue" points="4436.71,-23.6054 4426.94,-19.5091 4432.02,-28.8046 4436.71,-23.6054"/>
</g>
<!-- Node49 -->
<g id="node49" class="node"><title>Node49</title>
<polygon fill="white" stroke="#bfbfbf" points="4478,-0.5 4478,-19.5 4531,-19.5 4531,-0.5 4478,-0.5"/>
<text text-anchor="middle" x="4504.5" y="-7.5" font-family="Helvetica,sans-Serif" font-size="10.00">QString</text>
</g>
<!-- Node47&#45;&gt;Node49 -->
<g id="edge49" class="edge"><title>Node47&#45;&gt;Node49</title>
<path fill="none" stroke="midnightblue" d="M4486.51,-61.9751C4489.53,-53.4035 4494.29,-39.9269 4498.15,-28.983"/>
<polygon fill="midnightblue" stroke="midnightblue" points="4501.47,-30.1039 4501.5,-19.5091 4494.87,-27.7741 4501.47,-30.1039"/>
</g>
<!-- Node50 -->
<g id="node50" class="node"><title>Node50</title>
<polygon fill="white" stroke="#bfbfbf" points="4548.5,-0.5 4548.5,-19.5 4664.5,-19.5 4664.5,-0.5 4548.5,-0.5"/>
<text text-anchor="middle" x="4606.5" y="-7.5" font-family="Helvetica,sans-Serif" font-size="10.00">src/ext/source_info.h</text>
</g>
<!-- Node47&#45;&gt;Node50 -->
<g id="edge50" class="edge"><title>Node47&#45;&gt;Node50</title>
<path fill="none" stroke="midnightblue" d="M4501.12,-61.9751C4521.67,-52.0338 4555.86,-35.4947 4579.71,-23.961"/>
<polygon fill="midnightblue" stroke="midnightblue" points="4581.43,-27.0145 4588.91,-19.5091 4578.38,-20.7131 4581.43,-27.0145"/>
</g>
</g>
</svg>
