<?xml version="1.0" encoding="UTF-8" standalone="no"?>
<!DOCTYPE svg PUBLIC "-//W3C//DTD SVG 1.1//EN"
 "http://www.w3.org/Graphics/SVG/1.1/DTD/svg11.dtd">
<!-- Generated by graphviz version 2.38.0 (20140413.2041)
 -->
<!-- Title: Graphical Class Hierarchy Pages: 1 -->
<svg width="394pt" height="284pt"
 viewBox="0.00 0.00 394.00 284.00" xmlns="http://www.w3.org/2000/svg" xmlns:xlink="http://www.w3.org/1999/xlink">
<g id="graph0" class="graph" transform="scale(1 1) rotate(0) translate(4 280)">
<title>Graphical Class Hierarchy</title>
<polygon fill="white" stroke="none" points="-4,4 -4,-280 390,-280 390,4 -4,4"/>
<!-- Node1 -->
<g id="node1" class="node"><title>Node1</title>
<polygon fill="white" stroke="#bfbfbf" points="0,-128 0,-147 88,-147 88,-128 0,-128"/>
<text text-anchor="middle" x="44" y="-135" font-family="Helvetica,sans-Serif" font-size="10.00">QGraphicsItem</text>
</g>
<!-- Node2 -->
<g id="node2" class="node"><title>Node2</title>
<g id="a_node2"><a xlink:href="classscram_1_1gui_1_1diagram_1_1Event.xhtml" target="_top" xlink:title="The base class for probabilistic events in a fault tree. ">
<polygon fill="white" stroke="black" points="124,-122.5 124,-152.5 237,-152.5 237,-122.5 124,-122.5"/>
<text text-anchor="start" x="132" y="-140.5" font-family="Helvetica,sans-Serif" font-size="10.00">scram::gui::diagram</text>
<text text-anchor="middle" x="180.5" y="-129.5" font-family="Helvetica,sans-Serif" font-size="10.00">::Event</text>
</a>
</g>
</g>
<!-- Node1&#45;&gt;Node2 -->
<g id="edge1" class="edge"><title>Node1&#45;&gt;Node2</title>
<path fill="none" stroke="midnightblue" d="M98.3786,-137.5C106.798,-137.5 115.52,-137.5 123.987,-137.5"/>
<polygon fill="midnightblue" stroke="midnightblue" points="98.297,-134 88.297,-137.5 98.297,-141 98.297,-134"/>
</g>
<!-- Node3 -->
<g id="node3" class="node"><title>Node3</title>
<g id="a_node3"><a xlink:href="classscram_1_1gui_1_1diagram_1_1BasicEvent.xhtml" target="_top" xlink:title="Representation of a fault tree basic event. ">
<polygon fill="white" stroke="black" points="273,-245.5 273,-275.5 386,-275.5 386,-245.5 273,-245.5"/>
<text text-anchor="start" x="281" y="-263.5" font-family="Helvetica,sans-Serif" font-size="10.00">scram::gui::diagram</text>
<text text-anchor="middle" x="329.5" y="-252.5" font-family="Helvetica,sans-Serif" font-size="10.00">::BasicEvent</text>
</a>
</g>
</g>
<!-- Node2&#45;&gt;Node3 -->
<g id="edge2" class="edge"><title>Node2&#45;&gt;Node3</title>
<path fill="none" stroke="midnightblue" d="M198.472,-160.876C215.347,-182.776 242.992,-215.237 273,-236.5 277.625,-239.777 282.769,-242.74 288.006,-245.375"/>
<polygon fill="midnightblue" stroke="midnightblue" points="201.162,-158.631 192.34,-152.764 195.578,-162.852 201.162,-158.631"/>
</g>
<!-- Node4 -->
<g id="node4" class="node"><title>Node4</title>
<g id="a_node4"><a xlink:href="classscram_1_1gui_1_1diagram_1_1ConditionalEvent.xhtml" target="_top" xlink:title="The event used in Inhibit gates. ">
<polygon fill="white" stroke="black" points="273,-196.5 273,-226.5 386,-226.5 386,-196.5 273,-196.5"/>
<text text-anchor="start" x="281" y="-214.5" font-family="Helvetica,sans-Serif" font-size="10.00">scram::gui::diagram</text>
<text text-anchor="middle" x="329.5" y="-203.5" font-family="Helvetica,sans-Serif" font-size="10.00">::ConditionalEvent</text>
</a>
</g>
</g>
<!-- Node2&#45;&gt;Node4 -->
<g id="edge3" class="edge"><title>Node2&#45;&gt;Node4</title>
<path fill="none" stroke="midnightblue" d="M216.543,-157.634C233.418,-167.075 254.058,-178.253 273,-187.5 279.226,-190.539 285.931,-193.607 292.454,-196.486"/>
<polygon fill="midnightblue" stroke="midnightblue" points="218.021,-154.449 207.591,-152.591 214.586,-160.548 218.021,-154.449"/>
</g>
<!-- Node5 -->
<g id="node5" class="node"><title>Node5</title>
<g id="a_node5"><a xlink:href="classscram_1_1gui_1_1diagram_1_1Gate.xhtml" target="_top" xlink:title="Fault tree intermediate events or gates. ">
<polygon fill="white" stroke="black" points="273,-147.5 273,-177.5 386,-177.5 386,-147.5 273,-147.5"/>
<text text-anchor="start" x="281" y="-165.5" font-family="Helvetica,sans-Serif" font-size="10.00">scram::gui::diagram</text>
<text text-anchor="middle" x="329.5" y="-154.5" font-family="Helvetica,sans-Serif" font-size="10.00">::Gate</text>
</a>
</g>
</g>
<!-- Node2&#45;&gt;Node5 -->
<g id="edge4" class="edge"><title>Node2&#45;&gt;Node5</title>
<path fill="none" stroke="midnightblue" d="M247.078,-148.653C255.681,-150.116 264.43,-151.604 272.847,-153.035"/>
<polygon fill="midnightblue" stroke="midnightblue" points="247.52,-145.178 237.074,-146.951 246.346,-152.079 247.52,-145.178"/>
</g>
<!-- Node6 -->
<g id="node6" class="node"><title>Node6</title>
<g id="a_node6"><a xlink:href="classscram_1_1gui_1_1diagram_1_1HouseEvent.xhtml" target="_top" xlink:title="Representation of a fault tree house events. ">
<polygon fill="white" stroke="black" points="273,-98.5 273,-128.5 386,-128.5 386,-98.5 273,-98.5"/>
<text text-anchor="start" x="281" y="-116.5" font-family="Helvetica,sans-Serif" font-size="10.00">scram::gui::diagram</text>
<text text-anchor="middle" x="329.5" y="-105.5" font-family="Helvetica,sans-Serif" font-size="10.00">::HouseEvent</text>
</a>
</g>
</g>
<!-- Node2&#45;&gt;Node6 -->
<g id="edge5" class="edge"><title>Node2&#45;&gt;Node6</title>
<path fill="none" stroke="midnightblue" d="M247.078,-126.793C255.681,-125.389 264.43,-123.96 272.847,-122.586"/>
<polygon fill="midnightblue" stroke="midnightblue" points="246.38,-123.361 237.074,-128.427 247.508,-130.269 246.38,-123.361"/>
</g>
<!-- Node7 -->
<g id="node7" class="node"><title>Node7</title>
<g id="a_node7"><a xlink:href="classscram_1_1gui_1_1diagram_1_1TransferIn.xhtml" target="_top" xlink:title="An alias pointer to a gate. ">
<polygon fill="white" stroke="black" points="273,-49.5 273,-79.5 386,-79.5 386,-49.5 273,-49.5"/>
<text text-anchor="start" x="281" y="-67.5" font-family="Helvetica,sans-Serif" font-size="10.00">scram::gui::diagram</text>
<text text-anchor="middle" x="329.5" y="-56.5" font-family="Helvetica,sans-Serif" font-size="10.00">::TransferIn</text>
</a>
</g>
</g>
<!-- Node2&#45;&gt;Node7 -->
<g id="edge6" class="edge"><title>Node2&#45;&gt;Node7</title>
<path fill="none" stroke="midnightblue" d="M218.168,-117.623C234.79,-108.779 254.765,-98.3798 273,-89.5 279.841,-86.1687 287.224,-82.7337 294.303,-79.5168"/>
<polygon fill="midnightblue" stroke="midnightblue" points="216.481,-114.556 209.311,-122.357 219.78,-120.73 216.481,-114.556"/>
</g>
<!-- Node8 -->
<g id="node8" class="node"><title>Node8</title>
<g id="a_node8"><a xlink:href="classscram_1_1gui_1_1diagram_1_1UndevelopedEvent.xhtml" target="_top" xlink:title="Placeholder for events with a potential to become a gate. ">
<polygon fill="white" stroke="black" points="273,-0.5 273,-30.5 386,-30.5 386,-0.5 273,-0.5"/>
<text text-anchor="start" x="281" y="-18.5" font-family="Helvetica,sans-Serif" font-size="10.00">scram::gui::diagram</text>
<text text-anchor="middle" x="329.5" y="-7.5" font-family="Helvetica,sans-Serif" font-size="10.00">::UndevelopedEvent</text>
</a>
</g>
</g>
<!-- Node2&#45;&gt;Node8 -->
<g id="edge7" class="edge"><title>Node2&#45;&gt;Node8</title>
<path fill="none" stroke="midnightblue" d="M198.928,-114.357C215.95,-92.992 243.535,-61.4861 273,-40.5 278.165,-36.8215 283.957,-33.494 289.799,-30.5551"/>
<polygon fill="midnightblue" stroke="midnightblue" points="196.134,-112.248 192.728,-122.281 201.647,-116.562 196.134,-112.248"/>
</g>
</g>
</svg>
