<?xml version="1.0" encoding="UTF-8" standalone="no"?>
<!DOCTYPE svg PUBLIC "-//W3C//DTD SVG 1.1//EN"
 "http://www.w3.org/Graphics/SVG/1.1/DTD/svg11.dtd">
<!-- Generated by graphviz version 2.38.0 (20140413.2041)
 -->
<!-- Title: main Pages: 1 -->
<svg width="743pt" height="61pt"
 viewBox="0.00 0.00 743.00 61.00" xmlns="http://www.w3.org/2000/svg" xmlns:xlink="http://www.w3.org/1999/xlink">
<g id="graph0" class="graph" transform="scale(1 1) rotate(0) translate(4 57)">
<title>main</title>
<polygon fill="white" stroke="none" points="-4,4 -4,-57 739,-57 739,4 -4,4"/>
<!-- Node1 -->
<g id="node1" class="node"><title>Node1</title>
<polygon fill="#bfbfbf" stroke="black" points="0,-28 0,-47 41,-47 41,-28 0,-28"/>
<text text-anchor="middle" x="20.5" y="-35" font-family="Helvetica,sans-Serif" font-size="10.00">main</text>
</g>
<!-- Node2 -->
<g id="node2" class="node"><title>Node2</title>
<g id="a_node2"><a xlink:href="classscram_1_1gui_1_1MainWindow.xhtml#ad25ffda8b13e4743312f9a3cad96d271" target="_top" xlink:title="Adds a new set of model elements from input files. ">
<polygon fill="white" stroke="black" points="244,-22.5 244,-52.5 375,-52.5 375,-22.5 244,-22.5"/>
<text text-anchor="start" x="252" y="-40.5" font-family="Helvetica,sans-Serif" font-size="10.00">scram::gui::MainWindow</text>
<text text-anchor="middle" x="309.5" y="-29.5" font-family="Helvetica,sans-Serif" font-size="10.00">::addInputFiles</text>
</a>
</g>
</g>
<!-- Node1&#45;&gt;Node2 -->
<g id="edge1" class="edge"><title>Node1&#45;&gt;Node2</title>
<path fill="none" stroke="midnightblue" d="M41.0102,-38.8126C51.6439,-39.463 65.039,-40.177 77,-40.5 129.296,-41.9124 188.257,-41.1131 233.587,-39.986"/>
<polygon fill="midnightblue" stroke="midnightblue" points="233.723,-43.4837 243.629,-39.7255 233.541,-36.4861 233.723,-43.4837"/>
</g>
<!-- Node5 -->
<g id="node5" class="node"><title>Node5</title>
<g id="a_node5"><a xlink:href="classscram_1_1gui_1_1MainWindow.xhtml#a19cf5f94f4b040cf6f2ba685ff439b59" target="_top" xlink:title="Loads a model and analysis configuration from a file. ">
<polygon fill="white" stroke="black" points="77,-0.5 77,-30.5 208,-30.5 208,-0.5 77,-0.5"/>
<text text-anchor="start" x="85" y="-18.5" font-family="Helvetica,sans-Serif" font-size="10.00">scram::gui::MainWindow</text>
<text text-anchor="middle" x="142.5" y="-7.5" font-family="Helvetica,sans-Serif" font-size="10.00">::setConfig</text>
</a>
</g>
</g>
<!-- Node1&#45;&gt;Node5 -->
<g id="edge4" class="edge"><title>Node1&#45;&gt;Node5</title>
<path fill="none" stroke="midnightblue" d="M41.0471,-33.9164C48.4408,-32.5609 57.3684,-30.9241 66.8134,-29.1925"/>
<polygon fill="midnightblue" stroke="midnightblue" points="67.5959,-32.6075 76.8008,-27.3615 66.3335,-25.7223 67.5959,-32.6075"/>
</g>
<!-- Node3 -->
<g id="node3" class="node"><title>Node3</title>
<g id="a_node3"><a xlink:href="classscram_1_1gui_1_1ZoomableView.xhtml#a859d676e6600e263ae4487bc1845385d" target="_top" xlink:title="Automatically adjusts the zoom to fit the view into the current scene. ">
<polygon fill="white" stroke="black" points="411,-22.5 411,-52.5 555,-52.5 555,-22.5 411,-22.5"/>
<text text-anchor="start" x="419" y="-40.5" font-family="Helvetica,sans-Serif" font-size="10.00">scram::gui::ZoomableView</text>
<text text-anchor="middle" x="483" y="-29.5" font-family="Helvetica,sans-Serif" font-size="10.00">::zoomBestFit</text>
</a>
</g>
</g>
<!-- Node2&#45;&gt;Node3 -->
<g id="edge2" class="edge"><title>Node2&#45;&gt;Node3</title>
<path fill="none" stroke="midnightblue" d="M375.337,-37.5C383.564,-37.5 392.065,-37.5 400.51,-37.5"/>
<polygon fill="midnightblue" stroke="midnightblue" points="400.762,-41.0001 410.762,-37.5 400.762,-34.0001 400.762,-41.0001"/>
</g>
<!-- Node4 -->
<g id="node4" class="node"><title>Node4</title>
<g id="a_node4"><a xlink:href="classscram_1_1gui_1_1ZoomableView.xhtml#ace3d3caf7b6043cceaf2dfb176df9c8a" target="_top" xlink:title="Accepts requests to change the zoom to the given level. ">
<polygon fill="white" stroke="black" points="591,-22.5 591,-52.5 735,-52.5 735,-22.5 591,-22.5"/>
<text text-anchor="start" x="599" y="-40.5" font-family="Helvetica,sans-Serif" font-size="10.00">scram::gui::ZoomableView</text>
<text text-anchor="middle" x="663" y="-29.5" font-family="Helvetica,sans-Serif" font-size="10.00">::setZoom</text>
</a>
</g>
</g>
<!-- Node3&#45;&gt;Node4 -->
<g id="edge3" class="edge"><title>Node3&#45;&gt;Node4</title>
<path fill="none" stroke="midnightblue" d="M555.118,-37.5C563.609,-37.5 572.327,-37.5 580.944,-37.5"/>
<polygon fill="midnightblue" stroke="midnightblue" points="580.995,-41.0001 590.995,-37.5 580.995,-34.0001 580.995,-41.0001"/>
</g>
<!-- Node5&#45;&gt;Node2 -->
<g id="edge5" class="edge"><title>Node5&#45;&gt;Node2</title>
<path fill="none" stroke="midnightblue" d="M208.239,-24.1318C216.675,-25.2566 225.371,-26.4161 233.951,-27.5601"/>
<polygon fill="midnightblue" stroke="midnightblue" points="233.573,-31.0406 243.948,-28.8931 234.498,-24.102 233.573,-31.0406"/>
</g>
</g>
</svg>
