<?xml version="1.0" encoding="UTF-8" standalone="no"?>
<!DOCTYPE svg PUBLIC "-//W3C//DTD SVG 1.1//EN"
 "http://www.w3.org/Graphics/SVG/1.1/DTD/svg11.dtd">
<!-- Generated by graphviz version 2.38.0 (20140413.2041)
 -->
<!-- Title: mainwindow.h Pages: 1 -->
<!--zoomable 207 -->
<svg id="main" version="1.1" xmlns="http://www.w3.org/2000/svg" xmlns:xlink="http://www.w3.org/1999/xlink" xml:space="preserve" onload="init(evt)">
<style type="text/css"><![CDATA[
.edge:hover path { stroke: red; }
.edge:hover polygon { stroke: red; fill: red; }
]]></style>
<script type="text/javascript"><![CDATA[
var edges = document.getElementsByTagName('g');
if (edges && edges.length) {
  for (var i=0;i<edges.length;i++) {
    if (edges[i].id.substr(0,4)=='edge') {
      edges[i].setAttribute('class','edge');
    }
  }
}
]]></script>
        <defs>
                <circle id="rim" cx="0" cy="0" r="7"/>
                <circle id="rim2" cx="0" cy="0" r="3.5"/>
                <g id="zoomPlus">
                        <use xlink:href="#rim" fill="#404040">
                                <set attributeName="fill" to="#808080" begin="zoomplus.mouseover" end="zoomplus.mouseout"/>
                        </use>
                        <path d="M-4,0h8M0,-4v8" fill="none" stroke="white" stroke-width="1.5" pointer-events="none"/>
                </g>
                <g id="zoomMin">
                        <use xlink:href="#rim" fill="#404040">
                                <set attributeName="fill" to="#808080" begin="zoomminus.mouseover" end="zoomminus.mouseout"/>
                        </use>
                        <path d="M-4,0h8" fill="none" stroke="white" stroke-width="1.5" pointer-events="none"/>
                </g>
                <g id="dirArrow">
                        <path fill="none" stroke="white" stroke-width="1.5" d="M0,-3.0v7 M-2.5,-0.5L0,-3.0L2.5,-0.5"/>
                </g>
               <g id="resetDef">
                       <use xlink:href="#rim2" fill="#404040">
                               <set attributeName="fill" to="#808080" begin="reset.mouseover" end="reset.mouseout"/>
                       </use>
               </g>
        </defs>

<script type="text/javascript">
var viewWidth = 1675;
var viewHeight = 207;
var sectionId = 'dynsection-0';
</script>
<script xlink:href="svgpan.js"/>
<svg id="graph" class="graph">
<g id="viewport">
<title>mainwindow.h</title>
<polygon fill="white" stroke="none" points="-4,4 -4,-203 1670.5,-203 1670.5,4 -4,4"/>
<!-- Node1 -->
<g id="node1" class="node"><title>Node1</title>
<polygon fill="#bfbfbf" stroke="black" points="674,-179.5 674,-198.5 757,-198.5 757,-179.5 674,-179.5"/>
<text text-anchor="middle" x="715.5" y="-186.5" font-family="Helvetica,sans-Serif" font-size="10.00">mainwindow.h</text>
</g>
<!-- Node2 -->
<g id="node2" class="node"><title>Node2</title>
<polygon fill="white" stroke="#bfbfbf" points="74,-123.5 74,-142.5 115,-142.5 115,-123.5 74,-123.5"/>
<text text-anchor="middle" x="94.5" y="-130.5" font-family="Helvetica,sans-Serif" font-size="10.00">array</text>
</g>
<!-- Node1&#45;&gt;Node2 -->
<g id="edge1" class="edge"><title>Node1&#45;&gt;Node2</title>
<path fill="none" stroke="midnightblue" d="M673.81,-188.036C578.037,-187.437 335.019,-182.022 125.231,-142.945"/>
<polygon fill="midnightblue" stroke="midnightblue" points="125.743,-139.48 115.267,-141.059 124.441,-146.358 125.743,-139.48"/>
</g>
<!-- Node3 -->
<g id="node3" class="node"><title>Node3</title>
<polygon fill="white" stroke="#bfbfbf" points="133,-123.5 133,-142.5 196,-142.5 196,-123.5 133,-123.5"/>
<text text-anchor="middle" x="164.5" y="-130.5" font-family="Helvetica,sans-Serif" font-size="10.00">functional</text>
</g>
<!-- Node1&#45;&gt;Node3 -->
<g id="edge2" class="edge"><title>Node1&#45;&gt;Node3</title>
<path fill="none" stroke="midnightblue" d="M673.762,-185.759C587.112,-180.781 381.526,-167.283 210.5,-143 209.04,-142.793 207.556,-142.57 206.058,-142.334"/>
<polygon fill="midnightblue" stroke="midnightblue" points="206.547,-138.867 196.1,-140.633 205.368,-145.767 206.547,-138.867"/>
</g>
<!-- Node4 -->
<g id="node4" class="node"><title>Node4</title>
<polygon fill="white" stroke="#bfbfbf" points="0,-62 0,-81 57,-81 57,-62 0,-62"/>
<text text-anchor="middle" x="28.5" y="-69" font-family="Helvetica,sans-Serif" font-size="10.00">memory</text>
</g>
<!-- Node1&#45;&gt;Node4 -->
<g id="edge3" class="edge"><title>Node1&#45;&gt;Node4</title>
<path fill="none" stroke="midnightblue" d="M673.705,-186.386C572.945,-182.121 319.027,-169.052 238.5,-143 221.82,-137.604 220.692,-129.721 204.5,-123 145.957,-98.6991 126.867,-106.328 66.5,-87 64.0874,-86.2276 61.6048,-85.3869 59.1191,-84.5122"/>
<polygon fill="midnightblue" stroke="midnightblue" points="60.2523,-81.1999 49.6587,-81.043 57.8423,-87.772 60.2523,-81.1999"/>
</g>
<!-- Node5 -->
<g id="node5" class="node"><title>Node5</title>
<polygon fill="white" stroke="#bfbfbf" points="75.5,-62 75.5,-81 119.5,-81 119.5,-62 75.5,-62"/>
<text text-anchor="middle" x="97.5" y="-69" font-family="Helvetica,sans-Serif" font-size="10.00">string</text>
</g>
<!-- Node1&#45;&gt;Node5 -->
<g id="edge4" class="edge"><title>Node1&#45;&gt;Node5</title>
<path fill="none" stroke="midnightblue" d="M673.928,-188.938C594.766,-189.599 417.684,-185.641 276.5,-143 258.23,-137.482 256.076,-130.439 238.5,-123 191.128,-102.95 176.33,-105.932 128.5,-87 127.084,-86.4397 125.641,-85.8462 124.191,-85.2319"/>
<polygon fill="midnightblue" stroke="midnightblue" points="125.276,-81.8833 114.717,-81.0048 122.423,-88.2758 125.276,-81.8833"/>
</g>
<!-- Node6 -->
<g id="node6" class="node"><title>Node6</title>
<polygon fill="white" stroke="#bfbfbf" points="138,-62 138,-81 185,-81 185,-62 138,-62"/>
<text text-anchor="middle" x="161.5" y="-69" font-family="Helvetica,sans-Serif" font-size="10.00">vector</text>
</g>
<!-- Node1&#45;&gt;Node6 -->
<g id="edge5" class="edge"><title>Node1&#45;&gt;Node6</title>
<path fill="none" stroke="midnightblue" d="M673.923,-188.207C600.13,-187.508 442.119,-181.19 315.5,-143 296.85,-137.375 294.111,-131.324 276.5,-123 240.147,-105.817 230.258,-103.298 193.5,-87 192.308,-86.4716 191.092,-85.9303 189.865,-85.382"/>
<polygon fill="midnightblue" stroke="midnightblue" points="190.984,-82.0479 180.429,-81.1382 188.113,-88.432 190.984,-82.0479"/>
</g>
<!-- Node7 -->
<g id="node7" class="node"><title>Node7</title>
<polygon fill="white" stroke="#bfbfbf" points="440.5,-123.5 440.5,-142.5 548.5,-142.5 548.5,-123.5 440.5,-123.5"/>
<text text-anchor="middle" x="494.5" y="-130.5" font-family="Helvetica,sans-Serif" font-size="10.00">QAbstractItemView</text>
</g>
<!-- Node1&#45;&gt;Node7 -->
<g id="edge6" class="edge"><title>Node1&#45;&gt;Node7</title>
<path fill="none" stroke="midnightblue" d="M680.482,-179.444C642.252,-170.102 580.933,-155.119 539.243,-144.933"/>
<polygon fill="midnightblue" stroke="midnightblue" points="539.899,-141.49 529.354,-142.516 538.238,-148.29 539.899,-141.49"/>
</g>
<!-- Node8 -->
<g id="node8" class="node"><title>Node8</title>
<polygon fill="white" stroke="#bfbfbf" points="566.5,-123.5 566.5,-142.5 620.5,-142.5 620.5,-123.5 566.5,-123.5"/>
<text text-anchor="middle" x="593.5" y="-130.5" font-family="Helvetica,sans-Serif" font-size="10.00">QAction</text>
</g>
<!-- Node1&#45;&gt;Node8 -->
<g id="edge7" class="edge"><title>Node1&#45;&gt;Node8</title>
<path fill="none" stroke="midnightblue" d="M696.169,-179.444C676.18,-170.596 644.757,-156.687 621.936,-146.586"/>
<polygon fill="midnightblue" stroke="midnightblue" points="623.302,-143.363 612.741,-142.516 620.468,-149.764 623.302,-143.363"/>
</g>
<!-- Node9 -->
<g id="node9" class="node"><title>Node9</title>
<polygon fill="white" stroke="#bfbfbf" points="639,-123.5 639,-142.5 716,-142.5 716,-123.5 639,-123.5"/>
<text text-anchor="middle" x="677.5" y="-130.5" font-family="Helvetica,sans-Serif" font-size="10.00">QComboBox</text>
</g>
<!-- Node1&#45;&gt;Node9 -->
<g id="edge8" class="edge"><title>Node1&#45;&gt;Node9</title>
<path fill="none" stroke="midnightblue" d="M709.225,-179.083C703.858,-171.455 695.982,-160.264 689.421,-150.941"/>
<polygon fill="midnightblue" stroke="midnightblue" points="692.275,-148.915 683.658,-142.751 686.551,-152.943 692.275,-148.915"/>
</g>
<!-- Node10 -->
<g id="node10" class="node"><title>Node10</title>
<polygon fill="white" stroke="#bfbfbf" points="734.5,-123.5 734.5,-142.5 772.5,-142.5 772.5,-123.5 734.5,-123.5"/>
<text text-anchor="middle" x="753.5" y="-130.5" font-family="Helvetica,sans-Serif" font-size="10.00">QDir</text>
</g>
<!-- Node1&#45;&gt;Node10 -->
<g id="edge9" class="edge"><title>Node1&#45;&gt;Node10</title>
<path fill="none" stroke="midnightblue" d="M721.775,-179.083C727.142,-171.455 735.018,-160.264 741.579,-150.941"/>
<polygon fill="midnightblue" stroke="midnightblue" points="744.449,-152.943 747.342,-142.751 738.725,-148.915 744.449,-152.943"/>
</g>
<!-- Node11 -->
<g id="node11" class="node"><title>Node11</title>
<polygon fill="white" stroke="#bfbfbf" points="790.5,-123.5 790.5,-142.5 852.5,-142.5 852.5,-123.5 790.5,-123.5"/>
<text text-anchor="middle" x="821.5" y="-130.5" font-family="Helvetica,sans-Serif" font-size="10.00">QLineEdit</text>
</g>
<!-- Node1&#45;&gt;Node11 -->
<g id="edge10" class="edge"><title>Node1&#45;&gt;Node11</title>
<path fill="none" stroke="midnightblue" d="M732.531,-179.324C749.53,-170.664 775.876,-157.242 795.493,-147.249"/>
<polygon fill="midnightblue" stroke="midnightblue" points="797.19,-150.312 804.512,-142.655 794.012,-144.075 797.19,-150.312"/>
</g>
<!-- Node12 -->
<g id="node12" class="node"><title>Node12</title>
<polygon fill="white" stroke="#bfbfbf" points="870.5,-123.5 870.5,-142.5 952.5,-142.5 952.5,-123.5 870.5,-123.5"/>
<text text-anchor="middle" x="911.5" y="-130.5" font-family="Helvetica,sans-Serif" font-size="10.00">QMainWindow</text>
</g>
<!-- Node1&#45;&gt;Node12 -->
<g id="edge11" class="edge"><title>Node1&#45;&gt;Node12</title>
<path fill="none" stroke="midnightblue" d="M746.557,-179.444C780.103,-170.201 833.697,-155.436 870.641,-145.257"/>
<polygon fill="midnightblue" stroke="midnightblue" points="871.877,-148.547 880.589,-142.516 870.018,-141.798 871.877,-148.547"/>
</g>
<!-- Node13 -->
<g id="node13" class="node"><title>Node13</title>
<polygon fill="white" stroke="#bfbfbf" points="970.5,-123.5 970.5,-142.5 1034.5,-142.5 1034.5,-123.5 970.5,-123.5"/>
<text text-anchor="middle" x="1002.5" y="-130.5" font-family="Helvetica,sans-Serif" font-size="10.00">QSettings</text>
</g>
<!-- Node1&#45;&gt;Node13 -->
<g id="edge12" class="edge"><title>Node1&#45;&gt;Node13</title>
<path fill="none" stroke="midnightblue" d="M757.371,-180.803C804.384,-172.619 883.192,-158.595 960.399,-143.168"/>
<polygon fill="midnightblue" stroke="midnightblue" points="961.178,-146.582 970.294,-141.182 959.8,-139.719 961.178,-146.582"/>
</g>
<!-- Node14 -->
<g id="node14" class="node"><title>Node14</title>
<polygon fill="white" stroke="#bfbfbf" points="1052.5,-123.5 1052.5,-142.5 1122.5,-142.5 1122.5,-123.5 1052.5,-123.5"/>
<text text-anchor="middle" x="1087.5" y="-130.5" font-family="Helvetica,sans-Serif" font-size="10.00">QTableView</text>
</g>
<!-- Node1&#45;&gt;Node14 -->
<g id="edge13" class="edge"><title>Node1&#45;&gt;Node14</title>
<path fill="none" stroke="midnightblue" d="M757.056,-183.183C817.557,-175.976 933.646,-161.42 1042.32,-143.106"/>
<polygon fill="midnightblue" stroke="midnightblue" points="1043.2,-146.506 1052.47,-141.379 1042.03,-139.605 1043.2,-146.506"/>
</g>
<!-- Node15 -->
<g id="node15" class="node"><title>Node15</title>
<polygon fill="white" stroke="#bfbfbf" points="1141,-123.5 1141,-142.5 1192,-142.5 1192,-123.5 1141,-123.5"/>
<text text-anchor="middle" x="1166.5" y="-130.5" font-family="Helvetica,sans-Serif" font-size="10.00">QTimer</text>
</g>
<!-- Node1&#45;&gt;Node15 -->
<g id="edge14" class="edge"><title>Node1&#45;&gt;Node15</title>
<path fill="none" stroke="midnightblue" d="M757.115,-185.489C830.565,-180.626 988.091,-168.27 1130.74,-142.866"/>
<polygon fill="midnightblue" stroke="midnightblue" points="1131.76,-146.238 1140.98,-141.015 1130.52,-139.35 1131.76,-146.238"/>
</g>
<!-- Node16 -->
<g id="node16" class="node"><title>Node16</title>
<polygon fill="white" stroke="#bfbfbf" points="1210,-123.5 1210,-142.5 1287,-142.5 1287,-123.5 1210,-123.5"/>
<text text-anchor="middle" x="1248.5" y="-130.5" font-family="Helvetica,sans-Serif" font-size="10.00">QUndoStack</text>
</g>
<!-- Node1&#45;&gt;Node16 -->
<g id="edge15" class="edge"><title>Node1&#45;&gt;Node16</title>
<path fill="none" stroke="midnightblue" d="M757.265,-185.501C839.903,-180.262 1030.27,-166.725 1199.72,-143.136"/>
<polygon fill="midnightblue" stroke="midnightblue" points="1200.41,-146.574 1209.82,-141.714 1199.43,-139.642 1200.41,-146.574"/>
</g>
<!-- Node17 -->
<g id="node17" class="node"><title>Node17</title>
<polygon fill="white" stroke="#bfbfbf" points="203,-62 203,-81 276,-81 276,-62 203,-62"/>
<text text-anchor="middle" x="239.5" y="-69" font-family="Helvetica,sans-Serif" font-size="10.00">src/model.h</text>
</g>
<!-- Node1&#45;&gt;Node17 -->
<g id="edge16" class="edge"><title>Node1&#45;&gt;Node17</title>
<path fill="none" stroke="midnightblue" d="M673.998,-188.253C605.981,-187.475 467.363,-180.851 357.5,-143 337.548,-136.126 288.845,-105.101 260.639,-86.5763"/>
<polygon fill="midnightblue" stroke="midnightblue" points="262.537,-83.6359 252.264,-81.0473 258.681,-89.4777 262.537,-83.6359"/>
</g>
<!-- Node18 -->
<g id="node18" class="node"><title>Node18</title>
<polygon fill="white" stroke="#bfbfbf" points="1305,-123.5 1305,-142.5 1408,-142.5 1408,-123.5 1305,-123.5"/>
<text text-anchor="middle" x="1356.5" y="-130.5" font-family="Helvetica,sans-Serif" font-size="10.00">src/risk_analysis.h</text>
</g>
<!-- Node1&#45;&gt;Node18 -->
<g id="edge17" class="edge"><title>Node1&#45;&gt;Node18</title>
<path fill="none" stroke="midnightblue" d="M757.163,-185.8C851.18,-180.614 1087.18,-166.361 1294.65,-143.14"/>
<polygon fill="midnightblue" stroke="midnightblue" points="1295.28,-146.592 1304.82,-141.992 1294.49,-139.636 1295.28,-146.592"/>
</g>
<!-- Node19 -->
<g id="node19" class="node"><title>Node19</title>
<polygon fill="white" stroke="#bfbfbf" points="1426,-123.5 1426,-142.5 1507,-142.5 1507,-123.5 1426,-123.5"/>
<text text-anchor="middle" x="1466.5" y="-130.5" font-family="Helvetica,sans-Serif" font-size="10.00">src/settings.h</text>
</g>
<!-- Node1&#45;&gt;Node19 -->
<g id="edge18" class="edge"><title>Node1&#45;&gt;Node19</title>
<path fill="none" stroke="midnightblue" d="M757.199,-187.038C864.705,-184.192 1160.19,-174.059 1415.7,-143.087"/>
<polygon fill="midnightblue" stroke="midnightblue" points="1416.41,-146.525 1425.91,-141.834 1415.56,-139.577 1416.41,-146.525"/>
</g>
<!-- Node20 -->
<g id="node20" class="node"><title>Node20</title>
<g id="a_node20"><a xlink:href="model_8h.xhtml" target="_top" xlink:title="Wrapper Model classes for the MEF data. ">
<polygon fill="white" stroke="black" points="366.5,-123.5 366.5,-142.5 422.5,-142.5 422.5,-123.5 366.5,-123.5"/>
<text text-anchor="middle" x="394.5" y="-130.5" font-family="Helvetica,sans-Serif" font-size="10.00">model.h</text>
</a>
</g>
</g>
<!-- Node1&#45;&gt;Node20 -->
<g id="edge19" class="edge"><title>Node1&#45;&gt;Node20</title>
<path fill="none" stroke="midnightblue" d="M673.922,-182.494C620.369,-175.164 524.22,-161.201 432.711,-143.111"/>
<polygon fill="midnightblue" stroke="midnightblue" points="433.221,-139.644 422.729,-141.117 431.85,-146.508 433.221,-139.644"/>
</g>
<!-- Node32 -->
<g id="node32" class="node"><title>Node32</title>
<g id="a_node32"><a xlink:href="zoomableview_8h.xhtml" target="_top" xlink:title="Provides a GraphicsView with zoom in/out and other convenience features. ">
<polygon fill="white" stroke="black" points="1525.5,-123.5 1525.5,-142.5 1617.5,-142.5 1617.5,-123.5 1525.5,-123.5"/>
<text text-anchor="middle" x="1571.5" y="-130.5" font-family="Helvetica,sans-Serif" font-size="10.00">zoomableview.h</text>
</a>
</g>
</g>
<!-- Node1&#45;&gt;Node32 -->
<g id="edge37" class="edge"><title>Node1&#45;&gt;Node32</title>
<path fill="none" stroke="midnightblue" d="M757.323,-187.213C875.03,-184.667 1219.28,-174.935 1515.27,-143.015"/>
<polygon fill="midnightblue" stroke="midnightblue" points="1515.77,-146.481 1525.34,-141.919 1515.02,-139.522 1515.77,-146.481"/>
</g>
<!-- Node20&#45;&gt;Node4 -->
<g id="edge20" class="edge"><title>Node20&#45;&gt;Node4</title>
<path fill="none" stroke="midnightblue" d="M366.442,-130.314C309.243,-126.406 175.364,-114.848 66.5,-87 63.6781,-86.2781 60.779,-85.4125 57.9008,-84.468"/>
<polygon fill="midnightblue" stroke="midnightblue" points="58.9331,-81.1201 48.3385,-81.0482 56.5759,-87.7113 58.9331,-81.1201"/>
</g>
<!-- Node20&#45;&gt;Node5 -->
<g id="edge21" class="edge"><title>Node20&#45;&gt;Node5</title>
<path fill="none" stroke="midnightblue" d="M366.351,-129.751C317.163,-125.27 212.777,-113.305 128.5,-87 126.628,-86.4158 124.724,-85.7413 122.827,-85.0094"/>
<polygon fill="midnightblue" stroke="midnightblue" points="124.149,-81.7683 113.581,-81.025 121.379,-88.1968 124.149,-81.7683"/>
</g>
<!-- Node20&#45;&gt;Node6 -->
<g id="edge23" class="edge"><title>Node20&#45;&gt;Node6</title>
<path fill="none" stroke="midnightblue" d="M366.372,-127.582C327.046,-120.984 253.694,-107.138 193.5,-87 191.83,-86.4412 190.129,-85.824 188.427,-85.1687"/>
<polygon fill="midnightblue" stroke="midnightblue" points="189.42,-81.7897 178.845,-81.1397 186.707,-88.2424 189.42,-81.7897"/>
</g>
<!-- Node20&#45;&gt;Node17 -->
<g id="edge33" class="edge"><title>Node20&#45;&gt;Node17</title>
<path fill="none" stroke="midnightblue" d="M372.292,-123.475C345.819,-113.313 301.386,-96.2564 271.28,-84.6996"/>
<polygon fill="midnightblue" stroke="midnightblue" points="272.257,-81.3254 261.667,-81.0091 269.748,-87.8604 272.257,-81.3254"/>
</g>
<!-- Node21 -->
<g id="node21" class="node"><title>Node21</title>
<polygon fill="white" stroke="#bfbfbf" points="646.5,-0.5 646.5,-19.5 714.5,-19.5 714.5,-0.5 646.5,-0.5"/>
<text text-anchor="middle" x="680.5" y="-7.5" font-family="Helvetica,sans-Serif" font-size="10.00">type_traits</text>
</g>
<!-- Node20&#45;&gt;Node21 -->
<g id="edge22" class="edge"><title>Node20&#45;&gt;Node21</title>
<path fill="none" stroke="midnightblue" d="M422.731,-124.891C425.685,-124.22 428.649,-123.576 431.5,-123 529.906,-103.12 577.754,-151.723 654.5,-87 671.29,-72.8403 677.262,-47.3367 679.372,-29.8071"/>
<polygon fill="midnightblue" stroke="midnightblue" points="682.876,-29.9091 680.275,-19.6385 675.904,-29.2894 682.876,-29.9091"/>
</g>
<!-- Node22 -->
<g id="node22" class="node"><title>Node22</title>
<polygon fill="white" stroke="#bfbfbf" points="831.5,-56.5 831.5,-86.5 971.5,-86.5 971.5,-56.5 831.5,-56.5"/>
<text text-anchor="start" x="839.5" y="-74.5" font-family="Helvetica,sans-Serif" font-size="10.00">boost/multi_index/hashed</text>
<text text-anchor="middle" x="901.5" y="-63.5" font-family="Helvetica,sans-Serif" font-size="10.00">_index.hpp</text>
</g>
<!-- Node20&#45;&gt;Node22 -->
<g id="edge24" class="edge"><title>Node20&#45;&gt;Node22</title>
<path fill="none" stroke="midnightblue" d="M422.694,-124.694C425.655,-124.061 428.631,-123.48 431.5,-123 601.437,-94.563 646.698,-109.672 817.5,-87 818.779,-86.8302 820.068,-86.6552 821.366,-86.4755"/>
<polygon fill="midnightblue" stroke="midnightblue" points="822.042,-89.9141 831.436,-85.0147 821.037,-82.9866 822.042,-89.9141"/>
</g>
<!-- Node23 -->
<g id="node23" class="node"><title>Node23</title>
<polygon fill="white" stroke="#bfbfbf" points="989.5,-56.5 989.5,-86.5 1119.5,-86.5 1119.5,-56.5 989.5,-56.5"/>
<text text-anchor="start" x="997.5" y="-74.5" font-family="Helvetica,sans-Serif" font-size="10.00">boost/multi_index/mem</text>
<text text-anchor="middle" x="1054.5" y="-63.5" font-family="Helvetica,sans-Serif" font-size="10.00">_fun.hpp</text>
</g>
<!-- Node20&#45;&gt;Node23 -->
<g id="edge25" class="edge"><title>Node20&#45;&gt;Node23</title>
<path fill="none" stroke="midnightblue" d="M422.681,-124.613C425.645,-123.996 428.625,-123.441 431.5,-123 669.899,-86.4708 736.218,-117.696 979.006,-87.0743"/>
<polygon fill="midnightblue" stroke="midnightblue" points="979.731,-90.5099 989.204,-85.765 978.84,-83.5669 979.731,-90.5099"/>
</g>
<!-- Node24 -->
<g id="node24" class="node"><title>Node24</title>
<polygon fill="white" stroke="#bfbfbf" points="1137.5,-62 1137.5,-81 1309.5,-81 1309.5,-62 1137.5,-62"/>
<text text-anchor="middle" x="1223.5" y="-69" font-family="Helvetica,sans-Serif" font-size="10.00">boost/multi_index_container.hpp</text>
</g>
<!-- Node20&#45;&gt;Node24 -->
<g id="edge26" class="edge"><title>Node20&#45;&gt;Node24</title>
<path fill="none" stroke="midnightblue" d="M422.675,-124.572C425.64,-123.962 428.622,-123.421 431.5,-123 738.431,-78.147 819.907,-118.441 1128.5,-87 1139.93,-85.8359 1152.08,-84.2495 1163.73,-82.552"/>
<polygon fill="midnightblue" stroke="midnightblue" points="1164.45,-85.9836 1173.82,-81.0395 1163.41,-79.061 1164.45,-85.9836"/>
</g>
<!-- Node25 -->
<g id="node25" class="node"><title>Node25</title>
<polygon fill="white" stroke="#bfbfbf" points="1328,-62 1328,-81 1383,-81 1383,-62 1328,-62"/>
<text text-anchor="middle" x="1355.5" y="-69" font-family="Helvetica,sans-Serif" font-size="10.00">QObject</text>
</g>
<!-- Node20&#45;&gt;Node25 -->
<g id="edge27" class="edge"><title>Node20&#45;&gt;Node25</title>
<path fill="none" stroke="midnightblue" d="M422.67,-124.539C425.636,-123.936 428.619,-123.405 431.5,-123 822.209,-68.1052 932.379,-168.101 1318.5,-87 1321.51,-86.368 1324.59,-85.5167 1327.63,-84.5415"/>
<polygon fill="midnightblue" stroke="midnightblue" points="1328.84,-87.8246 1337.05,-81.1216 1326.45,-81.2449 1328.84,-87.8246"/>
</g>
<!-- Node26 -->
<g id="node26" class="node"><title>Node26</title>
<polygon fill="white" stroke="#bfbfbf" points="294,-62 294,-81 347,-81 347,-62 294,-62"/>
<text text-anchor="middle" x="320.5" y="-69" font-family="Helvetica,sans-Serif" font-size="10.00">QString</text>
</g>
<!-- Node20&#45;&gt;Node26 -->
<g id="edge28" class="edge"><title>Node20&#45;&gt;Node26</title>
<path fill="none" stroke="midnightblue" d="M383.898,-123.475C372.248,-114.108 353.314,-98.8839 339.165,-87.5081"/>
<polygon fill="midnightblue" stroke="midnightblue" points="341.069,-84.5477 331.083,-81.0091 336.683,-90.003 341.069,-84.5477"/>
</g>
<!-- Node27 -->
<g id="node27" class="node"><title>Node27</title>
<polygon fill="white" stroke="#bfbfbf" points="746.5,-0.5 746.5,-19.5 846.5,-19.5 846.5,-0.5 746.5,-0.5"/>
<text text-anchor="middle" x="796.5" y="-7.5" font-family="Helvetica,sans-Serif" font-size="10.00">QUndoCommand</text>
</g>
<!-- Node20&#45;&gt;Node27 -->
<g id="edge29" class="edge"><title>Node20&#45;&gt;Node27</title>
<path fill="none" stroke="midnightblue" d="M422.699,-124.719C425.659,-124.082 428.633,-123.492 431.5,-123 509.213,-109.65 727.232,-141.203 784.5,-87 799.78,-72.5378 800.8,-47.1039 799.324,-29.6727"/>
<polygon fill="midnightblue" stroke="midnightblue" points="802.778,-29.0839 798.118,-19.5694 795.828,-29.9138 802.778,-29.0839"/>
</g>
<!-- Node28 -->
<g id="node28" class="node"><title>Node28</title>
<polygon fill="white" stroke="#bfbfbf" points="365.5,-62 365.5,-81 423.5,-81 423.5,-62 365.5,-62"/>
<text text-anchor="middle" x="394.5" y="-69" font-family="Helvetica,sans-Serif" font-size="10.00">QVariant</text>
</g>
<!-- Node20&#45;&gt;Node28 -->
<g id="edge30" class="edge"><title>Node20&#45;&gt;Node28</title>
<path fill="none" stroke="midnightblue" d="M394.5,-123.475C394.5,-115.08 394.5,-101.981 394.5,-91.1631"/>
<polygon fill="midnightblue" stroke="midnightblue" points="398,-91.0091 394.5,-81.0091 391,-91.0091 398,-91.0091"/>
</g>
<!-- Node29 -->
<g id="node29" class="node"><title>Node29</title>
<polygon fill="white" stroke="#bfbfbf" points="441.5,-62 441.5,-81 511.5,-81 511.5,-62 441.5,-62"/>
<text text-anchor="middle" x="476.5" y="-69" font-family="Helvetica,sans-Serif" font-size="10.00">src/event.h</text>
</g>
<!-- Node20&#45;&gt;Node29 -->
<g id="edge31" class="edge"><title>Node20&#45;&gt;Node29</title>
<path fill="none" stroke="midnightblue" d="M406.249,-123.475C419.279,-114.02 440.536,-98.5961 456.259,-87.1871"/>
<polygon fill="midnightblue" stroke="midnightblue" points="458.735,-89.7149 464.773,-81.0091 454.624,-84.0492 458.735,-89.7149"/>
</g>
<!-- Node30 -->
<g id="node30" class="node"><title>Node30</title>
<polygon fill="white" stroke="#bfbfbf" points="529.5,-62 529.5,-81 645.5,-81 645.5,-62 529.5,-62"/>
<text text-anchor="middle" x="587.5" y="-69" font-family="Helvetica,sans-Serif" font-size="10.00">src/ext/multi_index.h</text>
</g>
<!-- Node20&#45;&gt;Node30 -->
<g id="edge32" class="edge"><title>Node20&#45;&gt;Node30</title>
<path fill="none" stroke="midnightblue" d="M422.152,-123.475C455.688,-113.136 512.373,-95.6611 549.868,-84.1017"/>
<polygon fill="midnightblue" stroke="midnightblue" points="551.374,-87.2999 559.899,-81.0091 549.312,-80.6106 551.374,-87.2999"/>
</g>
<!-- Node31 -->
<g id="node31" class="node"><title>Node31</title>
<g id="a_node31"><a xlink:href="command_8h.xhtml" target="_top" xlink:title="Undo&#45;redo helper facilities based on the Qt Undo framework. ">
<polygon fill="white" stroke="black" points="701.5,-62 701.5,-81 775.5,-81 775.5,-62 701.5,-62"/>
<text text-anchor="middle" x="738.5" y="-69" font-family="Helvetica,sans-Serif" font-size="10.00">command.h</text>
</a>
</g>
</g>
<!-- Node20&#45;&gt;Node31 -->
<g id="edge34" class="edge"><title>Node20&#45;&gt;Node31</title>
<path fill="none" stroke="midnightblue" d="M422.719,-124.831C425.675,-124.172 428.643,-123.547 431.5,-123 544.348,-101.396 575.088,-110.767 687.5,-87 691.978,-86.0533 696.64,-84.9274 701.246,-83.7276"/>
<polygon fill="midnightblue" stroke="midnightblue" points="702.421,-87.0348 711.146,-81.024 700.577,-80.2821 702.421,-87.0348"/>
</g>
<!-- Node31&#45;&gt;Node21 -->
<g id="edge35" class="edge"><title>Node31&#45;&gt;Node21</title>
<path fill="none" stroke="midnightblue" d="M730.19,-61.9751C721.318,-52.8733 707.054,-38.241 696.08,-26.983"/>
<polygon fill="midnightblue" stroke="midnightblue" points="698.281,-24.2268 688.795,-19.5091 693.269,-29.113 698.281,-24.2268"/>
</g>
<!-- Node31&#45;&gt;Node27 -->
<g id="edge36" class="edge"><title>Node31&#45;&gt;Node27</title>
<path fill="none" stroke="midnightblue" d="M746.81,-61.9751C755.682,-52.8733 769.946,-38.241 780.92,-26.983"/>
<polygon fill="midnightblue" stroke="midnightblue" points="783.731,-29.113 788.205,-19.5091 778.719,-24.2268 783.731,-29.113"/>
</g>
<!-- Node33 -->
<g id="node33" class="node"><title>Node33</title>
<polygon fill="white" stroke="#bfbfbf" points="1578.5,-62 1578.5,-81 1666.5,-81 1666.5,-62 1578.5,-62"/>
<text text-anchor="middle" x="1622.5" y="-69" font-family="Helvetica,sans-Serif" font-size="10.00">QGraphicsView</text>
</g>
<!-- Node32&#45;&gt;Node33 -->
<g id="edge38" class="edge"><title>Node32&#45;&gt;Node33</title>
<path fill="none" stroke="midnightblue" d="M1578.81,-123.475C1586.53,-114.462 1598.91,-100.025 1608.52,-88.8118"/>
<polygon fill="midnightblue" stroke="midnightblue" points="1611.36,-90.8795 1615.21,-81.0091 1606.04,-86.3239 1611.36,-90.8795"/>
</g>
<!-- Node34 -->
<g id="node34" class="node"><title>Node34</title>
<polygon fill="white" stroke="#bfbfbf" points="1480.5,-62 1480.5,-81 1560.5,-81 1560.5,-62 1480.5,-62"/>
<text text-anchor="middle" x="1520.5" y="-69" font-family="Helvetica,sans-Serif" font-size="10.00">QWheelEvent</text>
</g>
<!-- Node32&#45;&gt;Node34 -->
<g id="edge39" class="edge"><title>Node32&#45;&gt;Node34</title>
<path fill="none" stroke="midnightblue" d="M1564.19,-123.475C1556.47,-114.462 1544.09,-100.025 1534.48,-88.8118"/>
<polygon fill="midnightblue" stroke="midnightblue" points="1536.96,-86.3239 1527.79,-81.0091 1531.64,-90.8795 1536.96,-86.3239"/>
</g>
</g>
</svg>
        <g id="navigator" transform="translate(0 0)" fill="#404254">
                <rect fill="#f2f5e9" fill-opacity="0.5" stroke="#606060" stroke-width=".5" x="0" y="0" width="60" height="60"/>
                <use id="zoomplus" xlink:href="#zoomPlus" x="17" y="9" onmousedown="handleZoom(evt,'in')"/>
                <use id="zoomminus" xlink:href="#zoomMin" x="42" y="9" onmousedown="handleZoom(evt,'out')"/>
                <use id="reset" xlink:href="#resetDef" x="30" y="36" onmousedown="handleReset()"/>
                <g id="arrowUp" xlink:href="#dirArrow" transform="translate(30 24)" onmousedown="handlePan(0,-1)">
                  <use xlink:href="#rim" fill="#404040">
                        <set attributeName="fill" to="#808080" begin="arrowUp.mouseover" end="arrowUp.mouseout"/>
                  </use>
                  <path fill="none" stroke="white" stroke-width="1.5" d="M0,-3.0v7 M-2.5,-0.5L0,-3.0L2.5,-0.5"/>
                </g>
                <g id="arrowRight" xlink:href="#dirArrow" transform="rotate(90) translate(36 -43)" onmousedown="handlePan(1,0)">
                  <use xlink:href="#rim" fill="#404040">
                        <set attributeName="fill" to="#808080" begin="arrowRight.mouseover" end="arrowRight.mouseout"/>
                  </use>
                  <path fill="none" stroke="white" stroke-width="1.5" d="M0,-3.0v7 M-2.5,-0.5L0,-3.0L2.5,-0.5"/>
                </g>
                <g id="arrowDown" xlink:href="#dirArrow" transform="rotate(180) translate(-30 -48)" onmousedown="handlePan(0,1)">
                  <use xlink:href="#rim" fill="#404040">
                        <set attributeName="fill" to="#808080" begin="arrowDown.mouseover" end="arrowDown.mouseout"/>
                  </use>
                  <path fill="none" stroke="white" stroke-width="1.5" d="M0,-3.0v7 M-2.5,-0.5L0,-3.0L2.5,-0.5"/>
                </g>
                <g id="arrowLeft" xlink:href="#dirArrow" transform="rotate(270) translate(-36 17)" onmousedown="handlePan(-1,0)">
                  <use xlink:href="#rim" fill="#404040">
                        <set attributeName="fill" to="#808080" begin="arrowLeft.mouseover" end="arrowLeft.mouseout"/>
                  </use>
                  <path fill="none" stroke="white" stroke-width="1.5" d="M0,-3.0v7 M-2.5,-0.5L0,-3.0L2.5,-0.5"/>
                </g>
        </g>
        <svg viewBox="0 0 15 15" width="100%" height="30px" preserveAspectRatio="xMaxYMin meet">
         <g id="arrow_out" transform="scale(0.3 0.3)">
          <a xlink:href="mainwindow_8h__incl_org.svg" target="_base">
           <rect id="button" ry="5" rx="5" y="6" x="6" height="38" width="38"
                fill="#f2f5e9" fill-opacity="0.5" stroke="#606060" stroke-width="1.0"/>
           <path id="arrow"
             d="M 11.500037,31.436501 C 11.940474,20.09759 22.043105,11.32322 32.158766,21.979434 L 37.068811,17.246167 C 37.068811,17.246167 37.088388,32 37.088388,32 L 22.160133,31.978069 C 22.160133,31.978069 26.997745,27.140456 26.997745,27.140456 C 18.528582,18.264221 13.291696,25.230495 11.500037,31.436501 z"
             style="fill:#404040;"/>
          </a>
         </g>
        </svg>
</svg>
