<?xml version="1.0" encoding="UTF-8" standalone="no"?>
<!DOCTYPE svg PUBLIC "-//W3C//DTD SVG 1.1//EN"
 "http://www.w3.org/Graphics/SVG/1.1/DTD/svg11.dtd">
<!-- Generated by graphviz version 2.38.0 (20140413.2041)
 -->
<!-- Title: modeltree.cpp Pages: 1 -->
<!--zoomable 274 -->
<svg id="main" version="1.1" xmlns="http://www.w3.org/2000/svg" xmlns:xlink="http://www.w3.org/1999/xlink" xml:space="preserve" onload="init(evt)">
<style type="text/css"><![CDATA[
.edge:hover path { stroke: red; }
.edge:hover polygon { stroke: red; fill: red; }
]]></style>
<script type="text/javascript"><![CDATA[
var edges = document.getElementsByTagName('g');
if (edges && edges.length) {
  for (var i=0;i<edges.length;i++) {
    if (edges[i].id.substr(0,4)=='edge') {
      edges[i].setAttribute('class','edge');
    }
  }
}
]]></script>
        <defs>
                <circle id="rim" cx="0" cy="0" r="7"/>
                <circle id="rim2" cx="0" cy="0" r="3.5"/>
                <g id="zoomPlus">
                        <use xlink:href="#rim" fill="#404040">
                                <set attributeName="fill" to="#808080" begin="zoomplus.mouseover" end="zoomplus.mouseout"/>
                        </use>
                        <path d="M-4,0h8M0,-4v8" fill="none" stroke="white" stroke-width="1.5" pointer-events="none"/>
                </g>
                <g id="zoomMin">
                        <use xlink:href="#rim" fill="#404040">
                                <set attributeName="fill" to="#808080" begin="zoomminus.mouseover" end="zoomminus.mouseout"/>
                        </use>
                        <path d="M-4,0h8" fill="none" stroke="white" stroke-width="1.5" pointer-events="none"/>
                </g>
                <g id="dirArrow">
                        <path fill="none" stroke="white" stroke-width="1.5" d="M0,-3.0v7 M-2.5,-0.5L0,-3.0L2.5,-0.5"/>
                </g>
               <g id="resetDef">
                       <use xlink:href="#rim2" fill="#404040">
                               <set attributeName="fill" to="#808080" begin="reset.mouseover" end="reset.mouseout"/>
                       </use>
               </g>
        </defs>

<script type="text/javascript">
var viewWidth = 1472;
var viewHeight = 274;
var sectionId = 'dynsection-0';
</script>
<script xlink:href="svgpan.js"/>
<svg id="graph" class="graph">
<g id="viewport">
<title>modeltree.cpp</title>
<polygon fill="white" stroke="none" points="-4,4 -4,-270 1467.5,-270 1467.5,4 -4,4"/>
<!-- Node1 -->
<g id="node1" class="node"><title>Node1</title>
<polygon fill="#bfbfbf" stroke="black" points="1264,-246.5 1264,-265.5 1350,-265.5 1350,-246.5 1264,-246.5"/>
<text text-anchor="middle" x="1307" y="-253.5" font-family="Helvetica,sans-Serif" font-size="10.00">modeltree.cpp</text>
</g>
<!-- Node2 -->
<g id="node2" class="node"><title>Node2</title>
<g id="a_node2"><a xlink:href="modeltree_8h.xhtml" target="_top" xlink:title="The main tree representation of the Model. ">
<polygon fill="white" stroke="black" points="912.5,-190.5 912.5,-209.5 987.5,-209.5 987.5,-190.5 912.5,-190.5"/>
<text text-anchor="middle" x="950" y="-197.5" font-family="Helvetica,sans-Serif" font-size="10.00">modeltree.h</text>
</a>
</g>
</g>
<!-- Node1&#45;&gt;Node2 -->
<g id="edge1" class="edge"><title>Node1&#45;&gt;Node2</title>
<path fill="none" stroke="midnightblue" d="M1263.94,-248.486C1196.82,-238.334 1067.72,-218.807 997.808,-208.231"/>
<polygon fill="midnightblue" stroke="midnightblue" points="997.936,-204.711 987.525,-206.676 996.889,-211.632 997.936,-204.711"/>
</g>
<!-- Node23 -->
<g id="node23" class="node"><title>Node23</title>
<g id="a_node23"><a xlink:href="guiassert_8h.xhtml" target="_top" xlink:title="GUI assertions that should not crash the program by default. ">
<polygon fill="white" stroke="black" points="1272,-190.5 1272,-209.5 1342,-209.5 1342,-190.5 1272,-190.5"/>
<text text-anchor="middle" x="1307" y="-197.5" font-family="Helvetica,sans-Serif" font-size="10.00">guiassert.h</text>
</a>
</g>
</g>
<!-- Node1&#45;&gt;Node23 -->
<g id="edge24" class="edge"><title>Node1&#45;&gt;Node23</title>
<path fill="none" stroke="midnightblue" d="M1307,-246.083C1307,-239.006 1307,-228.861 1307,-219.986"/>
<polygon fill="midnightblue" stroke="midnightblue" points="1310.5,-219.751 1307,-209.751 1303.5,-219.751 1310.5,-219.751"/>
</g>
<!-- Node26 -->
<g id="node26" class="node"><title>Node26</title>
<g id="a_node26"><a xlink:href="overload_8h.xhtml" target="_top" xlink:title="Facilities to help with pointers to overloaded functions. ">
<polygon fill="white" stroke="black" points="1360.5,-190.5 1360.5,-209.5 1427.5,-209.5 1427.5,-190.5 1360.5,-190.5"/>
<text text-anchor="middle" x="1394" y="-197.5" font-family="Helvetica,sans-Serif" font-size="10.00">overload.h</text>
</a>
</g>
</g>
<!-- Node1&#45;&gt;Node26 -->
<g id="edge28" class="edge"><title>Node1&#45;&gt;Node26</title>
<path fill="none" stroke="midnightblue" d="M1320.98,-246.324C1334.55,-237.9 1355.38,-224.971 1371.32,-215.074"/>
<polygon fill="midnightblue" stroke="midnightblue" points="1373.41,-217.902 1380.06,-209.655 1369.71,-211.954 1373.41,-217.902"/>
</g>
<!-- Node3 -->
<g id="node3" class="node"><title>Node3</title>
<polygon fill="white" stroke="#bfbfbf" points="826.5,-129 826.5,-148 941.5,-148 941.5,-129 826.5,-129"/>
<text text-anchor="middle" x="884" y="-136" font-family="Helvetica,sans-Serif" font-size="10.00">QAbstractItemModel</text>
</g>
<!-- Node2&#45;&gt;Node3 -->
<g id="edge2" class="edge"><title>Node2&#45;&gt;Node3</title>
<path fill="none" stroke="midnightblue" d="M940.544,-190.475C930.252,-181.197 913.584,-166.171 901.006,-154.831"/>
<polygon fill="midnightblue" stroke="midnightblue" points="903.21,-152.105 893.439,-148.009 898.522,-157.305 903.21,-152.105"/>
</g>
<!-- Node4 -->
<g id="node4" class="node"><title>Node4</title>
<polygon fill="white" stroke="#bfbfbf" points="960,-123.5 960,-153.5 1070,-153.5 1070,-123.5 960,-123.5"/>
<text text-anchor="start" x="968" y="-141.5" font-family="Helvetica,sans-Serif" font-size="10.00">boost/container/flat</text>
<text text-anchor="middle" x="1015" y="-130.5" font-family="Helvetica,sans-Serif" font-size="10.00">_set.hpp</text>
</g>
<!-- Node2&#45;&gt;Node4 -->
<g id="edge3" class="edge"><title>Node2&#45;&gt;Node4</title>
<path fill="none" stroke="midnightblue" d="M959.313,-190.475C967.869,-182.643 980.9,-170.714 992.206,-160.366"/>
<polygon fill="midnightblue" stroke="midnightblue" points="994.668,-162.857 999.681,-153.523 989.941,-157.693 994.668,-162.857"/>
</g>
<!-- Node5 -->
<g id="node5" class="node"><title>Node5</title>
<polygon fill="white" stroke="#bfbfbf" points="1088.5,-129 1088.5,-148 1171.5,-148 1171.5,-129 1088.5,-129"/>
<text text-anchor="middle" x="1130" y="-136" font-family="Helvetica,sans-Serif" font-size="10.00">src/element.h</text>
</g>
<!-- Node2&#45;&gt;Node5 -->
<g id="edge4" class="edge"><title>Node2&#45;&gt;Node5</title>
<path fill="none" stroke="midnightblue" d="M975.79,-190.475C1006.93,-180.18 1059.48,-162.81 1094.45,-151.25"/>
<polygon fill="midnightblue" stroke="midnightblue" points="1095.86,-154.471 1104.26,-148.009 1093.66,-147.825 1095.86,-154.471"/>
</g>
<!-- Node6 -->
<g id="node6" class="node"><title>Node6</title>
<polygon fill="white" stroke="#bfbfbf" points="646.5,-129 646.5,-148 735.5,-148 735.5,-129 646.5,-129"/>
<text text-anchor="middle" x="691" y="-136" font-family="Helvetica,sans-Serif" font-size="10.00">src/fault_tree.h</text>
</g>
<!-- Node2&#45;&gt;Node6 -->
<g id="edge5" class="edge"><title>Node2&#45;&gt;Node6</title>
<path fill="none" stroke="midnightblue" d="M912.274,-191.373C870.861,-182.857 802.478,-168.376 744,-154 739.831,-152.975 735.491,-151.863 731.167,-150.725"/>
<polygon fill="midnightblue" stroke="midnightblue" points="731.764,-147.261 721.199,-148.054 729.952,-154.023 731.764,-147.261"/>
</g>
<!-- Node7 -->
<g id="node7" class="node"><title>Node7</title>
<g id="a_node7"><a xlink:href="model_8h.xhtml" target="_top" xlink:title="Wrapper Model classes for the MEF data. ">
<polygon fill="white" stroke="black" points="753,-129 753,-148 809,-148 809,-129 753,-129"/>
<text text-anchor="middle" x="781" y="-136" font-family="Helvetica,sans-Serif" font-size="10.00">model.h</text>
</a>
</g>
</g>
<!-- Node2&#45;&gt;Node7 -->
<g id="edge6" class="edge"><title>Node2&#45;&gt;Node7</title>
<path fill="none" stroke="midnightblue" d="M923.348,-190.474C896.385,-181.734 853.576,-167.541 817,-154 815.152,-153.316 813.256,-152.599 811.347,-151.865"/>
<polygon fill="midnightblue" stroke="midnightblue" points="812.449,-148.537 801.862,-148.135 809.888,-155.052 812.449,-148.537"/>
</g>
<!-- Node8 -->
<g id="node8" class="node"><title>Node8</title>
<polygon fill="white" stroke="#bfbfbf" points="1256.5,-62 1256.5,-81 1313.5,-81 1313.5,-62 1256.5,-62"/>
<text text-anchor="middle" x="1285" y="-69" font-family="Helvetica,sans-Serif" font-size="10.00">memory</text>
</g>
<!-- Node7&#45;&gt;Node8 -->
<g id="edge7" class="edge"><title>Node7&#45;&gt;Node8</title>
<path fill="none" stroke="midnightblue" d="M799.339,-128.888C804.9,-126.613 811.101,-124.404 817,-123 1001.41,-79.1005 1056.4,-125.565 1242,-87 1245.69,-86.2337 1249.5,-85.2478 1253.26,-84.1512"/>
<polygon fill="midnightblue" stroke="midnightblue" points="1254.5,-87.4302 1262.96,-81.0641 1252.37,-80.7593 1254.5,-87.4302"/>
</g>
<!-- Node9 -->
<g id="node9" class="node"><title>Node9</title>
<polygon fill="white" stroke="#bfbfbf" points="0,-62 0,-81 44,-81 44,-62 0,-62"/>
<text text-anchor="middle" x="22" y="-69" font-family="Helvetica,sans-Serif" font-size="10.00">string</text>
</g>
<!-- Node7&#45;&gt;Node9 -->
<g id="edge8" class="edge"><title>Node7&#45;&gt;Node9</title>
<path fill="none" stroke="midnightblue" d="M762.539,-128.924C756.727,-126.592 750.204,-124.342 744,-123 445.589,-58.4708 356.105,-152.931 58,-87 55.1628,-86.3725 52.2599,-85.545 49.394,-84.6025"/>
<polygon fill="midnightblue" stroke="midnightblue" points="50.5342,-81.2924 39.9415,-81.0798 48.0897,-87.8517 50.5342,-81.2924"/>
</g>
<!-- Node10 -->
<g id="node10" class="node"><title>Node10</title>
<polygon fill="white" stroke="#bfbfbf" points="538,-0.5 538,-19.5 606,-19.5 606,-0.5 538,-0.5"/>
<text text-anchor="middle" x="572" y="-7.5" font-family="Helvetica,sans-Serif" font-size="10.00">type_traits</text>
</g>
<!-- Node7&#45;&gt;Node10 -->
<g id="edge9" class="edge"><title>Node7&#45;&gt;Node10</title>
<path fill="none" stroke="midnightblue" d="M762.537,-128.934C756.725,-126.602 750.202,-124.35 744,-123 672.996,-107.548 140.948,-139.778 91,-87 81.5296,-76.9931 81.7225,-66.186 91,-56 120.095,-24.0561 414.01,-14.3812 527.561,-11.8223"/>
<polygon fill="midnightblue" stroke="midnightblue" points="527.733,-15.3195 537.654,-11.603 527.581,-8.32113 527.733,-15.3195"/>
</g>
<!-- Node11 -->
<g id="node11" class="node"><title>Node11</title>
<polygon fill="white" stroke="#bfbfbf" points="100.5,-62 100.5,-81 147.5,-81 147.5,-62 100.5,-62"/>
<text text-anchor="middle" x="124" y="-69" font-family="Helvetica,sans-Serif" font-size="10.00">vector</text>
</g>
<!-- Node7&#45;&gt;Node11 -->
<g id="edge10" class="edge"><title>Node7&#45;&gt;Node11</title>
<path fill="none" stroke="midnightblue" d="M762.532,-128.957C756.72,-126.627 750.198,-124.369 744,-123 488.772,-66.6292 411.034,-148.527 157,-87 154.639,-86.4283 152.236,-85.6966 149.857,-84.8666"/>
<polygon fill="midnightblue" stroke="midnightblue" points="150.972,-81.5426 140.388,-81.0594 148.361,-88.0373 150.972,-81.5426"/>
</g>
<!-- Node12 -->
<g id="node12" class="node"><title>Node12</title>
<polygon fill="white" stroke="#bfbfbf" points="166,-56.5 166,-86.5 306,-86.5 306,-56.5 166,-56.5"/>
<text text-anchor="start" x="174" y="-74.5" font-family="Helvetica,sans-Serif" font-size="10.00">boost/multi_index/hashed</text>
<text text-anchor="middle" x="236" y="-63.5" font-family="Helvetica,sans-Serif" font-size="10.00">_index.hpp</text>
</g>
<!-- Node7&#45;&gt;Node12 -->
<g id="edge11" class="edge"><title>Node7&#45;&gt;Node12</title>
<path fill="none" stroke="midnightblue" d="M762.133,-128.891C756.416,-126.617 750.048,-124.407 744,-123 560.826,-80.3798 506.507,-111.207 316.206,-87.0547"/>
<polygon fill="midnightblue" stroke="midnightblue" points="316.523,-83.5666 306.155,-85.7444 315.618,-90.5079 316.523,-83.5666"/>
</g>
<!-- Node13 -->
<g id="node13" class="node"><title>Node13</title>
<polygon fill="white" stroke="#bfbfbf" points="324,-56.5 324,-86.5 454,-86.5 454,-56.5 324,-56.5"/>
<text text-anchor="start" x="332" y="-74.5" font-family="Helvetica,sans-Serif" font-size="10.00">boost/multi_index/mem</text>
<text text-anchor="middle" x="389" y="-63.5" font-family="Helvetica,sans-Serif" font-size="10.00">_fun.hpp</text>
</g>
<!-- Node7&#45;&gt;Node13 -->
<g id="edge12" class="edge"><title>Node7&#45;&gt;Node13</title>
<path fill="none" stroke="midnightblue" d="M761.71,-128.906C756.092,-126.688 749.882,-124.505 744,-123 625.116,-92.5859 589.112,-106.368 464.269,-87.117"/>
<polygon fill="midnightblue" stroke="midnightblue" points="464.752,-83.65 454.328,-85.5437 463.658,-90.5639 464.752,-83.65"/>
</g>
<!-- Node14 -->
<g id="node14" class="node"><title>Node14</title>
<polygon fill="white" stroke="#bfbfbf" points="472,-62 472,-81 644,-81 644,-62 472,-62"/>
<text text-anchor="middle" x="558" y="-69" font-family="Helvetica,sans-Serif" font-size="10.00">boost/multi_index_container.hpp</text>
</g>
<!-- Node7&#45;&gt;Node14 -->
<g id="edge13" class="edge"><title>Node7&#45;&gt;Node14</title>
<path fill="none" stroke="midnightblue" d="M760.401,-128.971C755.098,-126.902 749.371,-124.776 744,-123 696.755,-107.38 641.635,-92.8663 603.731,-83.4445"/>
<polygon fill="midnightblue" stroke="midnightblue" points="604.547,-80.041 594,-81.0435 602.87,-86.8372 604.547,-80.041"/>
</g>
<!-- Node15 -->
<g id="node15" class="node"><title>Node15</title>
<polygon fill="white" stroke="#bfbfbf" points="662.5,-62 662.5,-81 717.5,-81 717.5,-62 662.5,-62"/>
<text text-anchor="middle" x="690" y="-69" font-family="Helvetica,sans-Serif" font-size="10.00">QObject</text>
</g>
<!-- Node7&#45;&gt;Node15 -->
<g id="edge14" class="edge"><title>Node7&#45;&gt;Node15</title>
<path fill="none" stroke="midnightblue" d="M768.727,-128.734C753.855,-118.111 728.568,-100.049 710.67,-87.2642"/>
<polygon fill="midnightblue" stroke="midnightblue" points="712.25,-84.0917 702.078,-81.1273 708.181,-89.7878 712.25,-84.0917"/>
</g>
<!-- Node16 -->
<g id="node16" class="node"><title>Node16</title>
<polygon fill="white" stroke="#bfbfbf" points="1331.5,-62 1331.5,-81 1384.5,-81 1384.5,-62 1331.5,-62"/>
<text text-anchor="middle" x="1358" y="-69" font-family="Helvetica,sans-Serif" font-size="10.00">QString</text>
</g>
<!-- Node7&#45;&gt;Node16 -->
<g id="edge15" class="edge"><title>Node7&#45;&gt;Node16</title>
<path fill="none" stroke="midnightblue" d="M798.957,-128.99C804.612,-126.66 810.96,-124.395 817,-123 1036.24,-72.3522 1102.76,-137.648 1322,-87 1324.83,-86.346 1327.73,-85.5008 1330.59,-84.5475"/>
<polygon fill="midnightblue" stroke="midnightblue" points="1331.9,-87.794 1340.04,-81.0101 1329.45,-81.2383 1331.9,-87.794"/>
</g>
<!-- Node17 -->
<g id="node17" class="node"><title>Node17</title>
<polygon fill="white" stroke="#bfbfbf" points="923,-0.5 923,-19.5 1023,-19.5 1023,-0.5 923,-0.5"/>
<text text-anchor="middle" x="973" y="-7.5" font-family="Helvetica,sans-Serif" font-size="10.00">QUndoCommand</text>
</g>
<!-- Node7&#45;&gt;Node17 -->
<g id="edge16" class="edge"><title>Node7&#45;&gt;Node17</title>
<path fill="none" stroke="midnightblue" d="M799.345,-128.915C804.907,-126.641 811.106,-124.426 817,-123 901.81,-102.483 1149.2,-151.466 1208,-87 1260.69,-29.2361 1119.1,-15.2021 1033.26,-11.9084"/>
<polygon fill="midnightblue" stroke="midnightblue" points="1033.2,-8.40431 1023.09,-11.5577 1032.96,-15.4002 1033.2,-8.40431"/>
</g>
<!-- Node18 -->
<g id="node18" class="node"><title>Node18</title>
<polygon fill="white" stroke="#bfbfbf" points="828,-62 828,-81 886,-81 886,-62 828,-62"/>
<text text-anchor="middle" x="857" y="-69" font-family="Helvetica,sans-Serif" font-size="10.00">QVariant</text>
</g>
<!-- Node7&#45;&gt;Node18 -->
<g id="edge17" class="edge"><title>Node7&#45;&gt;Node18</title>
<path fill="none" stroke="midnightblue" d="M791.25,-128.734C803.443,-118.305 824.017,-100.709 838.908,-87.9732"/>
<polygon fill="midnightblue" stroke="midnightblue" points="841.588,-90.2869 846.913,-81.1273 837.038,-84.9671 841.588,-90.2869"/>
</g>
<!-- Node19 -->
<g id="node19" class="node"><title>Node19</title>
<polygon fill="white" stroke="#bfbfbf" points="904,-62 904,-81 974,-81 974,-62 904,-62"/>
<text text-anchor="middle" x="939" y="-69" font-family="Helvetica,sans-Serif" font-size="10.00">src/event.h</text>
</g>
<!-- Node7&#45;&gt;Node19 -->
<g id="edge18" class="edge"><title>Node7&#45;&gt;Node19</title>
<path fill="none" stroke="midnightblue" d="M801.981,-128.869C829.25,-117.65 877.072,-97.9766 908.391,-85.0925"/>
<polygon fill="midnightblue" stroke="midnightblue" points="910.016,-88.2086 917.932,-81.1672 907.352,-81.735 910.016,-88.2086"/>
</g>
<!-- Node20 -->
<g id="node20" class="node"><title>Node20</title>
<polygon fill="white" stroke="#bfbfbf" points="992,-62 992,-81 1108,-81 1108,-62 992,-62"/>
<text text-anchor="middle" x="1050" y="-69" font-family="Helvetica,sans-Serif" font-size="10.00">src/ext/multi_index.h</text>
</g>
<!-- Node7&#45;&gt;Node20 -->
<g id="edge19" class="edge"><title>Node7&#45;&gt;Node20</title>
<path fill="none" stroke="midnightblue" d="M800.589,-128.911C805.854,-126.795 811.59,-124.663 817,-123 817.556,-122.829 932.23,-97.9952 1000.47,-83.2208"/>
<polygon fill="midnightblue" stroke="midnightblue" points="1001.56,-86.5665 1010.59,-81.0297 1000.08,-79.7249 1001.56,-86.5665"/>
</g>
<!-- Node21 -->
<g id="node21" class="node"><title>Node21</title>
<polygon fill="white" stroke="#bfbfbf" points="1126.5,-62 1126.5,-81 1199.5,-81 1199.5,-62 1126.5,-62"/>
<text text-anchor="middle" x="1163" y="-69" font-family="Helvetica,sans-Serif" font-size="10.00">src/model.h</text>
</g>
<!-- Node7&#45;&gt;Node21 -->
<g id="edge20" class="edge"><title>Node7&#45;&gt;Node21</title>
<path fill="none" stroke="midnightblue" d="M799.743,-128.866C805.208,-126.648 811.257,-124.474 817,-123 947.076,-89.6247 985.728,-115.308 1117,-87 1120.94,-86.1505 1125.02,-85.108 1129.06,-83.9751"/>
<polygon fill="midnightblue" stroke="midnightblue" points="1130.3,-87.2558 1138.88,-81.0309 1128.29,-80.5507 1130.3,-87.2558"/>
</g>
<!-- Node22 -->
<g id="node22" class="node"><title>Node22</title>
<g id="a_node22"><a xlink:href="command_8h.xhtml" target="_top" xlink:title="Undo&#45;redo helper facilities based on the Qt Undo framework. ">
<polygon fill="white" stroke="black" points="736,-62 736,-81 810,-81 810,-62 736,-62"/>
<text text-anchor="middle" x="773" y="-69" font-family="Helvetica,sans-Serif" font-size="10.00">command.h</text>
</a>
</g>
</g>
<!-- Node7&#45;&gt;Node22 -->
<g id="edge21" class="edge"><title>Node7&#45;&gt;Node22</title>
<path fill="none" stroke="midnightblue" d="M779.921,-128.734C778.746,-119.183 776.83,-103.618 775.312,-91.2829"/>
<polygon fill="midnightblue" stroke="midnightblue" points="778.757,-90.6248 774.062,-81.1273 771.81,-91.48 778.757,-90.6248"/>
</g>
<!-- Node22&#45;&gt;Node10 -->
<g id="edge22" class="edge"><title>Node22&#45;&gt;Node10</title>
<path fill="none" stroke="midnightblue" d="M745.683,-61.9968C739.234,-60.0104 732.379,-57.9159 726,-56 687.124,-44.324 642.605,-31.359 611.466,-22.3561"/>
<polygon fill="midnightblue" stroke="midnightblue" points="612.428,-18.9911 601.849,-19.579 610.486,-25.7163 612.428,-18.9911"/>
</g>
<!-- Node22&#45;&gt;Node17 -->
<g id="edge23" class="edge"><title>Node22&#45;&gt;Node17</title>
<path fill="none" stroke="midnightblue" d="M799.727,-61.9706C806.039,-59.9853 812.75,-57.8978 819,-56 857.84,-44.2052 902.364,-31.2567 933.515,-22.29"/>
<polygon fill="midnightblue" stroke="midnightblue" points="934.49,-25.6514 943.134,-19.5252 932.557,-18.9237 934.49,-25.6514"/>
</g>
<!-- Node23&#45;&gt;Node16 -->
<g id="edge26" class="edge"><title>Node23&#45;&gt;Node16</title>
<path fill="none" stroke="midnightblue" d="M1312.24,-190.255C1317.44,-181.344 1325.42,-167.021 1331,-154 1340.06,-132.872 1348,-107.623 1352.88,-90.8853"/>
<polygon fill="midnightblue" stroke="midnightblue" points="1356.26,-91.8209 1355.63,-81.2444 1349.53,-89.9011 1356.26,-91.8209"/>
</g>
<!-- Node24 -->
<g id="node24" class="node"><title>Node24</title>
<polygon fill="white" stroke="#bfbfbf" points="1378.5,-129 1378.5,-148 1463.5,-148 1463.5,-129 1378.5,-129"/>
<text text-anchor="middle" x="1421" y="-136" font-family="Helvetica,sans-Serif" font-size="10.00">QMessageBox</text>
</g>
<!-- Node23&#45;&gt;Node24 -->
<g id="edge25" class="edge"><title>Node23&#45;&gt;Node24</title>
<path fill="none" stroke="midnightblue" d="M1323.33,-190.475C1342.21,-180.622 1373.51,-164.288 1395.58,-152.77"/>
<polygon fill="midnightblue" stroke="midnightblue" points="1397.45,-155.739 1404.7,-148.009 1394.21,-149.533 1397.45,-155.739"/>
</g>
<!-- Node25 -->
<g id="node25" class="node"><title>Node25</title>
<polygon fill="white" stroke="#bfbfbf" points="1206,-129 1206,-148 1322,-148 1322,-129 1206,-129"/>
<text text-anchor="middle" x="1264" y="-136" font-family="Helvetica,sans-Serif" font-size="10.00">src/ext/source_info.h</text>
</g>
<!-- Node23&#45;&gt;Node25 -->
<g id="edge27" class="edge"><title>Node23&#45;&gt;Node25</title>
<path fill="none" stroke="midnightblue" d="M1300.84,-190.475C1294.39,-181.55 1284.1,-167.307 1276.03,-156.143"/>
<polygon fill="midnightblue" stroke="midnightblue" points="1278.84,-154.064 1270.15,-148.009 1273.17,-158.164 1278.84,-154.064"/>
</g>
</g>
</svg>
        <g id="navigator" transform="translate(0 0)" fill="#404254">
                <rect fill="#f2f5e9" fill-opacity="0.5" stroke="#606060" stroke-width=".5" x="0" y="0" width="60" height="60"/>
                <use id="zoomplus" xlink:href="#zoomPlus" x="17" y="9" onmousedown="handleZoom(evt,'in')"/>
                <use id="zoomminus" xlink:href="#zoomMin" x="42" y="9" onmousedown="handleZoom(evt,'out')"/>
                <use id="reset" xlink:href="#resetDef" x="30" y="36" onmousedown="handleReset()"/>
                <g id="arrowUp" xlink:href="#dirArrow" transform="translate(30 24)" onmousedown="handlePan(0,-1)">
                  <use xlink:href="#rim" fill="#404040">
                        <set attributeName="fill" to="#808080" begin="arrowUp.mouseover" end="arrowUp.mouseout"/>
                  </use>
                  <path fill="none" stroke="white" stroke-width="1.5" d="M0,-3.0v7 M-2.5,-0.5L0,-3.0L2.5,-0.5"/>
                </g>
                <g id="arrowRight" xlink:href="#dirArrow" transform="rotate(90) translate(36 -43)" onmousedown="handlePan(1,0)">
                  <use xlink:href="#rim" fill="#404040">
                        <set attributeName="fill" to="#808080" begin="arrowRight.mouseover" end="arrowRight.mouseout"/>
                  </use>
                  <path fill="none" stroke="white" stroke-width="1.5" d="M0,-3.0v7 M-2.5,-0.5L0,-3.0L2.5,-0.5"/>
                </g>
                <g id="arrowDown" xlink:href="#dirArrow" transform="rotate(180) translate(-30 -48)" onmousedown="handlePan(0,1)">
                  <use xlink:href="#rim" fill="#404040">
                        <set attributeName="fill" to="#808080" begin="arrowDown.mouseover" end="arrowDown.mouseout"/>
                  </use>
                  <path fill="none" stroke="white" stroke-width="1.5" d="M0,-3.0v7 M-2.5,-0.5L0,-3.0L2.5,-0.5"/>
                </g>
                <g id="arrowLeft" xlink:href="#dirArrow" transform="rotate(270) translate(-36 17)" onmousedown="handlePan(-1,0)">
                  <use xlink:href="#rim" fill="#404040">
                        <set attributeName="fill" to="#808080" begin="arrowLeft.mouseover" end="arrowLeft.mouseout"/>
                  </use>
                  <path fill="none" stroke="white" stroke-width="1.5" d="M0,-3.0v7 M-2.5,-0.5L0,-3.0L2.5,-0.5"/>
                </g>
        </g>
        <svg viewBox="0 0 15 15" width="100%" height="30px" preserveAspectRatio="xMaxYMin meet">
         <g id="arrow_out" transform="scale(0.3 0.3)">
          <a xlink:href="modeltree_8cpp__incl_org.svg" target="_base">
           <rect id="button" ry="5" rx="5" y="6" x="6" height="38" width="38"
                fill="#f2f5e9" fill-opacity="0.5" stroke="#606060" stroke-width="1.0"/>
           <path id="arrow"
             d="M 11.500037,31.436501 C 11.940474,20.09759 22.043105,11.32322 32.158766,21.979434 L 37.068811,17.246167 C 37.068811,17.246167 37.088388,32 37.088388,32 L 22.160133,31.978069 C 22.160133,31.978069 26.997745,27.140456 26.997745,27.140456 C 18.528582,18.264221 13.291696,25.230495 11.500037,31.436501 z"
             style="fill:#404040;"/>
          </a>
         </g>
        </svg>
</svg>
