<?xml version="1.0" encoding="UTF-8" standalone="no"?>
<!DOCTYPE svg PUBLIC "-//W3C//DTD SVG 1.1//EN"
 "http://www.w3.org/Graphics/SVG/1.1/DTD/svg11.dtd">
<!-- Generated by graphviz version 2.38.0 (20140413.2041)
 -->
<!-- Title: modeltree.h Pages: 1 -->
<!--zoomable 218 -->
<svg id="main" version="1.1" xmlns="http://www.w3.org/2000/svg" xmlns:xlink="http://www.w3.org/1999/xlink" xml:space="preserve" onload="init(evt)">
<style type="text/css"><![CDATA[
.edge:hover path { stroke: red; }
.edge:hover polygon { stroke: red; fill: red; }
]]></style>
<script type="text/javascript"><![CDATA[
var edges = document.getElementsByTagName('g');
if (edges && edges.length) {
  for (var i=0;i<edges.length;i++) {
    if (edges[i].id.substr(0,4)=='edge') {
      edges[i].setAttribute('class','edge');
    }
  }
}
]]></script>
        <defs>
                <circle id="rim" cx="0" cy="0" r="7"/>
                <circle id="rim2" cx="0" cy="0" r="3.5"/>
                <g id="zoomPlus">
                        <use xlink:href="#rim" fill="#404040">
                                <set attributeName="fill" to="#808080" begin="zoomplus.mouseover" end="zoomplus.mouseout"/>
                        </use>
                        <path d="M-4,0h8M0,-4v8" fill="none" stroke="white" stroke-width="1.5" pointer-events="none"/>
                </g>
                <g id="zoomMin">
                        <use xlink:href="#rim" fill="#404040">
                                <set attributeName="fill" to="#808080" begin="zoomminus.mouseover" end="zoomminus.mouseout"/>
                        </use>
                        <path d="M-4,0h8" fill="none" stroke="white" stroke-width="1.5" pointer-events="none"/>
                </g>
                <g id="dirArrow">
                        <path fill="none" stroke="white" stroke-width="1.5" d="M0,-3.0v7 M-2.5,-0.5L0,-3.0L2.5,-0.5"/>
                </g>
               <g id="resetDef">
                       <use xlink:href="#rim2" fill="#404040">
                               <set attributeName="fill" to="#808080" begin="reset.mouseover" end="reset.mouseout"/>
                       </use>
               </g>
        </defs>

<script type="text/javascript">
var viewWidth = 1373;
var viewHeight = 218;
var sectionId = 'dynsection-0';
</script>
<script xlink:href="svgpan.js"/>
<svg id="graph" class="graph">
<g id="viewport">
<title>modeltree.h</title>
<polygon fill="white" stroke="none" points="-4,4 -4,-214 1369.04,-214 1369.04,4 -4,4"/>
<!-- Node1 -->
<g id="node1" class="node"><title>Node1</title>
<polygon fill="#bfbfbf" stroke="black" points="534,-190.5 534,-209.5 609,-209.5 609,-190.5 534,-190.5"/>
<text text-anchor="middle" x="571.5" y="-197.5" font-family="Helvetica,sans-Serif" font-size="10.00">modeltree.h</text>
</g>
<!-- Node2 -->
<g id="node2" class="node"><title>Node2</title>
<polygon fill="white" stroke="#bfbfbf" points="268,-129 268,-148 383,-148 383,-129 268,-129"/>
<text text-anchor="middle" x="325.5" y="-136" font-family="Helvetica,sans-Serif" font-size="10.00">QAbstractItemModel</text>
</g>
<!-- Node1&#45;&gt;Node2 -->
<g id="edge1" class="edge"><title>Node1&#45;&gt;Node2</title>
<path fill="none" stroke="midnightblue" d="M536.254,-190.475C492.595,-179.915 418.157,-161.911 370.437,-150.369"/>
<polygon fill="midnightblue" stroke="midnightblue" points="371.223,-146.958 360.68,-148.009 369.577,-153.762 371.223,-146.958"/>
</g>
<!-- Node3 -->
<g id="node3" class="node"><title>Node3</title>
<polygon fill="white" stroke="#bfbfbf" points="401.5,-123.5 401.5,-153.5 511.5,-153.5 511.5,-123.5 401.5,-123.5"/>
<text text-anchor="start" x="409.5" y="-141.5" font-family="Helvetica,sans-Serif" font-size="10.00">boost/container/flat</text>
<text text-anchor="middle" x="456.5" y="-130.5" font-family="Helvetica,sans-Serif" font-size="10.00">_set.hpp</text>
</g>
<!-- Node1&#45;&gt;Node3 -->
<g id="edge2" class="edge"><title>Node1&#45;&gt;Node3</title>
<path fill="none" stroke="midnightblue" d="M555.023,-190.475C538.793,-182.078 513.464,-168.973 492.553,-158.153"/>
<polygon fill="midnightblue" stroke="midnightblue" points="494.093,-155.01 483.603,-153.523 490.877,-161.227 494.093,-155.01"/>
</g>
<!-- Node4 -->
<g id="node4" class="node"><title>Node4</title>
<polygon fill="white" stroke="#bfbfbf" points="530,-129 530,-148 613,-148 613,-129 530,-129"/>
<text text-anchor="middle" x="571.5" y="-136" font-family="Helvetica,sans-Serif" font-size="10.00">src/element.h</text>
</g>
<!-- Node1&#45;&gt;Node4 -->
<g id="edge3" class="edge"><title>Node1&#45;&gt;Node4</title>
<path fill="none" stroke="midnightblue" d="M571.5,-190.475C571.5,-182.08 571.5,-168.981 571.5,-158.163"/>
<polygon fill="midnightblue" stroke="midnightblue" points="575,-158.009 571.5,-148.009 568,-158.009 575,-158.009"/>
</g>
<!-- Node5 -->
<g id="node5" class="node"><title>Node5</title>
<polygon fill="white" stroke="#bfbfbf" points="631,-129 631,-148 720,-148 720,-129 631,-129"/>
<text text-anchor="middle" x="675.5" y="-136" font-family="Helvetica,sans-Serif" font-size="10.00">src/fault_tree.h</text>
</g>
<!-- Node1&#45;&gt;Node5 -->
<g id="edge4" class="edge"><title>Node1&#45;&gt;Node5</title>
<path fill="none" stroke="midnightblue" d="M586.401,-190.475C603.468,-180.711 631.661,-164.581 651.762,-153.081"/>
<polygon fill="midnightblue" stroke="midnightblue" points="653.685,-156.013 660.627,-148.009 650.209,-149.937 653.685,-156.013"/>
</g>
<!-- Node6 -->
<g id="node6" class="node"><title>Node6</title>
<g id="a_node6"><a xlink:href="model_8h.xhtml" target="_top" xlink:title="Wrapper Model classes for the MEF data. ">
<polygon fill="white" stroke="black" points="737.5,-129 737.5,-148 793.5,-148 793.5,-129 737.5,-129"/>
<text text-anchor="middle" x="765.5" y="-136" font-family="Helvetica,sans-Serif" font-size="10.00">model.h</text>
</a>
</g>
</g>
<!-- Node1&#45;&gt;Node6 -->
<g id="edge5" class="edge"><title>Node1&#45;&gt;Node6</title>
<path fill="none" stroke="midnightblue" d="M604.555,-190.499C636.521,-182.049 686.198,-168.316 728.5,-154 730.624,-153.281 732.805,-152.511 734.994,-151.715"/>
<polygon fill="midnightblue" stroke="midnightblue" points="736.375,-154.934 744.495,-148.128 733.903,-148.386 736.375,-154.934"/>
</g>
<!-- Node7 -->
<g id="node7" class="node"><title>Node7</title>
<polygon fill="white" stroke="#bfbfbf" points="0,-62 0,-81 57,-81 57,-62 0,-62"/>
<text text-anchor="middle" x="28.5" y="-69" font-family="Helvetica,sans-Serif" font-size="10.00">memory</text>
</g>
<!-- Node6&#45;&gt;Node7 -->
<g id="edge6" class="edge"><title>Node6&#45;&gt;Node7</title>
<path fill="none" stroke="midnightblue" d="M747.038,-128.931C741.226,-126.599 734.703,-124.347 728.5,-123 440.559,-60.4489 354.719,-148.259 66.5,-87 63.4221,-86.3458 60.2643,-85.48 57.1477,-84.4961"/>
<polygon fill="midnightblue" stroke="midnightblue" points="58.0755,-81.1115 47.4808,-81.0651 55.7341,-87.7084 58.0755,-81.1115"/>
</g>
<!-- Node8 -->
<g id="node8" class="node"><title>Node8</title>
<polygon fill="white" stroke="#bfbfbf" points="75.5,-62 75.5,-81 119.5,-81 119.5,-62 75.5,-62"/>
<text text-anchor="middle" x="97.5" y="-69" font-family="Helvetica,sans-Serif" font-size="10.00">string</text>
</g>
<!-- Node6&#45;&gt;Node8 -->
<g id="edge7" class="edge"><title>Node6&#45;&gt;Node8</title>
<path fill="none" stroke="midnightblue" d="M747.033,-128.954C741.22,-126.623 734.699,-124.366 728.5,-123 469.783,-65.9701 391.946,-145.245 133.5,-87 130.665,-86.3612 127.764,-85.5261 124.899,-84.579"/>
<polygon fill="midnightblue" stroke="midnightblue" points="126.041,-81.2693 115.448,-81.05 123.592,-87.827 126.041,-81.2693"/>
</g>
<!-- Node9 -->
<g id="node9" class="node"><title>Node9</title>
<polygon fill="white" stroke="#bfbfbf" points="448.5,-0.5 448.5,-19.5 516.5,-19.5 516.5,-0.5 448.5,-0.5"/>
<text text-anchor="middle" x="482.5" y="-7.5" font-family="Helvetica,sans-Serif" font-size="10.00">type_traits</text>
</g>
<!-- Node6&#45;&gt;Node9 -->
<g id="edge8" class="edge"><title>Node6&#45;&gt;Node9</title>
<path fill="none" stroke="midnightblue" d="M747.03,-128.968C741.217,-126.637 734.696,-124.377 728.5,-123 667.418,-109.422 209.308,-132.638 166.5,-87 157.074,-76.9511 157.47,-66.4065 166.5,-56 201.17,-16.0435 359.895,-10.6565 438.348,-10.4995"/>
<polygon fill="midnightblue" stroke="midnightblue" points="438.408,-13.9994 448.411,-10.5073 438.414,-6.99943 438.408,-13.9994"/>
</g>
<!-- Node10 -->
<g id="node10" class="node"><title>Node10</title>
<polygon fill="white" stroke="#bfbfbf" points="176,-62 176,-81 223,-81 223,-62 176,-62"/>
<text text-anchor="middle" x="199.5" y="-69" font-family="Helvetica,sans-Serif" font-size="10.00">vector</text>
</g>
<!-- Node6&#45;&gt;Node10 -->
<g id="edge9" class="edge"><title>Node6&#45;&gt;Node10</title>
<path fill="none" stroke="midnightblue" d="M746.642,-128.848C740.926,-126.573 734.556,-124.373 728.5,-123 512.947,-74.1244 447.019,-140.23 232.5,-87 230.143,-86.4151 227.742,-85.6742 225.364,-84.8381"/>
<polygon fill="midnightblue" stroke="midnightblue" points="226.481,-81.5147 215.898,-81.0208 223.863,-88.0067 226.481,-81.5147"/>
</g>
<!-- Node11 -->
<g id="node11" class="node"><title>Node11</title>
<polygon fill="white" stroke="#bfbfbf" points="241.5,-56.5 241.5,-86.5 381.5,-86.5 381.5,-56.5 241.5,-56.5"/>
<text text-anchor="start" x="249.5" y="-74.5" font-family="Helvetica,sans-Serif" font-size="10.00">boost/multi_index/hashed</text>
<text text-anchor="middle" x="311.5" y="-63.5" font-family="Helvetica,sans-Serif" font-size="10.00">_index.hpp</text>
</g>
<!-- Node6&#45;&gt;Node11 -->
<g id="edge10" class="edge"><title>Node6&#45;&gt;Node11</title>
<path fill="none" stroke="midnightblue" d="M746.612,-128.977C740.895,-126.705 734.532,-124.475 728.5,-123 584.904,-87.8896 541.854,-107.753 391.713,-87.0834"/>
<polygon fill="midnightblue" stroke="midnightblue" points="392.058,-83.5975 381.666,-85.6623 391.077,-90.5285 392.058,-83.5975"/>
</g>
<!-- Node12 -->
<g id="node12" class="node"><title>Node12</title>
<polygon fill="white" stroke="#bfbfbf" points="399.5,-56.5 399.5,-86.5 529.5,-86.5 529.5,-56.5 399.5,-56.5"/>
<text text-anchor="start" x="407.5" y="-74.5" font-family="Helvetica,sans-Serif" font-size="10.00">boost/multi_index/mem</text>
<text text-anchor="middle" x="464.5" y="-63.5" font-family="Helvetica,sans-Serif" font-size="10.00">_fun.hpp</text>
</g>
<!-- Node6&#45;&gt;Node12 -->
<g id="edge11" class="edge"><title>Node6&#45;&gt;Node12</title>
<path fill="none" stroke="midnightblue" d="M745.764,-128.982C740.248,-126.817 734.202,-124.642 728.5,-123 648.974,-100.1 624.684,-103.001 539.94,-87.2392"/>
<polygon fill="midnightblue" stroke="midnightblue" points="540.342,-83.7533 529.866,-85.3311 539.04,-90.631 540.342,-83.7533"/>
</g>
<!-- Node13 -->
<g id="node13" class="node"><title>Node13</title>
<polygon fill="white" stroke="#bfbfbf" points="547.5,-62 547.5,-81 719.5,-81 719.5,-62 547.5,-62"/>
<text text-anchor="middle" x="633.5" y="-69" font-family="Helvetica,sans-Serif" font-size="10.00">boost/multi_index_container.hpp</text>
</g>
<!-- Node6&#45;&gt;Node13 -->
<g id="edge12" class="edge"><title>Node6&#45;&gt;Node13</title>
<path fill="none" stroke="midnightblue" d="M747.971,-128.869C725.486,-117.796 686.272,-98.4862 660.099,-85.5978"/>
<polygon fill="midnightblue" stroke="midnightblue" points="661.619,-82.445 651.101,-81.1672 658.526,-88.7249 661.619,-82.445"/>
</g>
<!-- Node14 -->
<g id="node14" class="node"><title>Node14</title>
<polygon fill="white" stroke="#bfbfbf" points="738,-62 738,-81 793,-81 793,-62 738,-62"/>
<text text-anchor="middle" x="765.5" y="-69" font-family="Helvetica,sans-Serif" font-size="10.00">QObject</text>
</g>
<!-- Node6&#45;&gt;Node14 -->
<g id="edge13" class="edge"><title>Node6&#45;&gt;Node14</title>
<path fill="none" stroke="midnightblue" d="M765.5,-128.734C765.5,-119.183 765.5,-103.618 765.5,-91.2829"/>
<polygon fill="midnightblue" stroke="midnightblue" points="769,-91.1273 765.5,-81.1273 762,-91.1273 769,-91.1273"/>
</g>
<!-- Node15 -->
<g id="node15" class="node"><title>Node15</title>
<polygon fill="white" stroke="#bfbfbf" points="811,-62 811,-81 864,-81 864,-62 811,-62"/>
<text text-anchor="middle" x="837.5" y="-69" font-family="Helvetica,sans-Serif" font-size="10.00">QString</text>
</g>
<!-- Node6&#45;&gt;Node15 -->
<g id="edge14" class="edge"><title>Node6&#45;&gt;Node15</title>
<path fill="none" stroke="midnightblue" d="M775.21,-128.734C786.762,-118.305 806.253,-100.709 820.36,-87.9732"/>
<polygon fill="midnightblue" stroke="midnightblue" points="822.866,-90.4263 827.944,-81.1273 818.176,-85.2304 822.866,-90.4263"/>
</g>
<!-- Node16 -->
<g id="node16" class="node"><title>Node16</title>
<polygon fill="white" stroke="#bfbfbf" points="1096.5,-0.5 1096.5,-19.5 1196.5,-19.5 1196.5,-0.5 1096.5,-0.5"/>
<text text-anchor="middle" x="1146.5" y="-7.5" font-family="Helvetica,sans-Serif" font-size="10.00">QUndoCommand</text>
</g>
<!-- Node6&#45;&gt;Node16 -->
<g id="edge15" class="edge"><title>Node6&#45;&gt;Node16</title>
<path fill="none" stroke="midnightblue" d="M793.748,-137.265C905.99,-136.041 1316.2,-128.726 1354.5,-87 1400.53,-36.8541 1283.4,-19.7184 1206.78,-13.9185"/>
<polygon fill="midnightblue" stroke="midnightblue" points="1206.94,-10.4215 1196.72,-13.2039 1206.45,-17.4039 1206.94,-10.4215"/>
</g>
<!-- Node17 -->
<g id="node17" class="node"><title>Node17</title>
<polygon fill="white" stroke="#bfbfbf" points="974.5,-62 974.5,-81 1032.5,-81 1032.5,-62 974.5,-62"/>
<text text-anchor="middle" x="1003.5" y="-69" font-family="Helvetica,sans-Serif" font-size="10.00">QVariant</text>
</g>
<!-- Node6&#45;&gt;Node17 -->
<g id="edge16" class="edge"><title>Node6&#45;&gt;Node17</title>
<path fill="none" stroke="midnightblue" d="M793.615,-131.495C832.586,-122.924 905.056,-106.091 965.5,-87 967.916,-86.2371 970.4,-85.4032 972.888,-84.5333"/>
<polygon fill="midnightblue" stroke="midnightblue" points="974.161,-87.7944 982.351,-81.0731 971.757,-81.2201 974.161,-87.7944"/>
</g>
<!-- Node18 -->
<g id="node18" class="node"><title>Node18</title>
<polygon fill="white" stroke="#bfbfbf" points="1050.5,-62 1050.5,-81 1120.5,-81 1120.5,-62 1050.5,-62"/>
<text text-anchor="middle" x="1085.5" y="-69" font-family="Helvetica,sans-Serif" font-size="10.00">src/event.h</text>
</g>
<!-- Node6&#45;&gt;Node18 -->
<g id="edge17" class="edge"><title>Node6&#45;&gt;Node18</title>
<path fill="none" stroke="midnightblue" d="M793.589,-133.664C843.796,-126.52 952.052,-109.807 1041.5,-87 1044.88,-86.1393 1048.37,-85.1548 1051.84,-84.113"/>
<polygon fill="midnightblue" stroke="midnightblue" points="1052.98,-87.4234 1061.47,-81.0805 1050.88,-80.7469 1052.98,-87.4234"/>
</g>
<!-- Node19 -->
<g id="node19" class="node"><title>Node19</title>
<polygon fill="white" stroke="#bfbfbf" points="1138.5,-62 1138.5,-81 1254.5,-81 1254.5,-62 1138.5,-62"/>
<text text-anchor="middle" x="1196.5" y="-69" font-family="Helvetica,sans-Serif" font-size="10.00">src/ext/multi_index.h</text>
</g>
<!-- Node6&#45;&gt;Node19 -->
<g id="edge18" class="edge"><title>Node6&#45;&gt;Node19</title>
<path fill="none" stroke="midnightblue" d="M793.933,-134.294C855.392,-127.203 1005.12,-109.055 1129.5,-87 1135.88,-85.8682 1142.58,-84.5616 1149.18,-83.2058"/>
<polygon fill="midnightblue" stroke="midnightblue" points="1150.32,-86.5407 1159.39,-81.0529 1148.88,-79.6912 1150.32,-86.5407"/>
</g>
<!-- Node20 -->
<g id="node20" class="node"><title>Node20</title>
<polygon fill="white" stroke="#bfbfbf" points="1273,-62 1273,-81 1346,-81 1346,-62 1273,-62"/>
<text text-anchor="middle" x="1309.5" y="-69" font-family="Helvetica,sans-Serif" font-size="10.00">src/model.h</text>
</g>
<!-- Node6&#45;&gt;Node20 -->
<g id="edge19" class="edge"><title>Node6&#45;&gt;Node20</title>
<path fill="none" stroke="midnightblue" d="M793.609,-136.658C869.926,-133.941 1087.1,-123.347 1263.5,-87 1267.45,-86.1867 1271.54,-85.1668 1275.57,-84.0467"/>
<polygon fill="midnightblue" stroke="midnightblue" points="1276.81,-87.3295 1285.39,-81.1165 1274.81,-80.6217 1276.81,-87.3295"/>
</g>
<!-- Node21 -->
<g id="node21" class="node"><title>Node21</title>
<g id="a_node21"><a xlink:href="command_8h.xhtml" target="_top" xlink:title="Undo&#45;redo helper facilities based on the Qt Undo framework. ">
<polygon fill="white" stroke="black" points="882.5,-62 882.5,-81 956.5,-81 956.5,-62 882.5,-62"/>
<text text-anchor="middle" x="919.5" y="-69" font-family="Helvetica,sans-Serif" font-size="10.00">command.h</text>
</a>
</g>
</g>
<!-- Node6&#45;&gt;Node21 -->
<g id="edge20" class="edge"><title>Node6&#45;&gt;Node21</title>
<path fill="none" stroke="midnightblue" d="M785.95,-128.869C812.528,-117.65 859.14,-97.9766 889.666,-85.0925"/>
<polygon fill="midnightblue" stroke="midnightblue" points="891.113,-88.2804 898.965,-81.1672 888.391,-81.8313 891.113,-88.2804"/>
</g>
<!-- Node21&#45;&gt;Node9 -->
<g id="edge21" class="edge"><title>Node21&#45;&gt;Node9</title>
<path fill="none" stroke="midnightblue" d="M894.844,-61.9581C887.706,-59.741 879.854,-57.5449 872.5,-56 748.847,-30.0238 599.767,-18.0712 526.929,-13.4536"/>
<polygon fill="midnightblue" stroke="midnightblue" points="526.944,-9.94799 516.747,-12.8247 526.513,-16.9347 526.944,-9.94799"/>
</g>
<!-- Node21&#45;&gt;Node16 -->
<g id="edge22" class="edge"><title>Node21&#45;&gt;Node16</title>
<path fill="none" stroke="midnightblue" d="M945.688,-61.938C952.142,-59.9129 959.052,-57.8159 965.5,-56 1010.66,-43.2829 1062.67,-30.5472 1099.32,-21.8871"/>
<polygon fill="midnightblue" stroke="midnightblue" points="1100.3,-25.2526 1109.23,-19.5559 1098.7,-18.4386 1100.3,-25.2526"/>
</g>
</g>
</svg>
        <g id="navigator" transform="translate(0 0)" fill="#404254">
                <rect fill="#f2f5e9" fill-opacity="0.5" stroke="#606060" stroke-width=".5" x="0" y="0" width="60" height="60"/>
                <use id="zoomplus" xlink:href="#zoomPlus" x="17" y="9" onmousedown="handleZoom(evt,'in')"/>
                <use id="zoomminus" xlink:href="#zoomMin" x="42" y="9" onmousedown="handleZoom(evt,'out')"/>
                <use id="reset" xlink:href="#resetDef" x="30" y="36" onmousedown="handleReset()"/>
                <g id="arrowUp" xlink:href="#dirArrow" transform="translate(30 24)" onmousedown="handlePan(0,-1)">
                  <use xlink:href="#rim" fill="#404040">
                        <set attributeName="fill" to="#808080" begin="arrowUp.mouseover" end="arrowUp.mouseout"/>
                  </use>
                  <path fill="none" stroke="white" stroke-width="1.5" d="M0,-3.0v7 M-2.5,-0.5L0,-3.0L2.5,-0.5"/>
                </g>
                <g id="arrowRight" xlink:href="#dirArrow" transform="rotate(90) translate(36 -43)" onmousedown="handlePan(1,0)">
                  <use xlink:href="#rim" fill="#404040">
                        <set attributeName="fill" to="#808080" begin="arrowRight.mouseover" end="arrowRight.mouseout"/>
                  </use>
                  <path fill="none" stroke="white" stroke-width="1.5" d="M0,-3.0v7 M-2.5,-0.5L0,-3.0L2.5,-0.5"/>
                </g>
                <g id="arrowDown" xlink:href="#dirArrow" transform="rotate(180) translate(-30 -48)" onmousedown="handlePan(0,1)">
                  <use xlink:href="#rim" fill="#404040">
                        <set attributeName="fill" to="#808080" begin="arrowDown.mouseover" end="arrowDown.mouseout"/>
                  </use>
                  <path fill="none" stroke="white" stroke-width="1.5" d="M0,-3.0v7 M-2.5,-0.5L0,-3.0L2.5,-0.5"/>
                </g>
                <g id="arrowLeft" xlink:href="#dirArrow" transform="rotate(270) translate(-36 17)" onmousedown="handlePan(-1,0)">
                  <use xlink:href="#rim" fill="#404040">
                        <set attributeName="fill" to="#808080" begin="arrowLeft.mouseover" end="arrowLeft.mouseout"/>
                  </use>
                  <path fill="none" stroke="white" stroke-width="1.5" d="M0,-3.0v7 M-2.5,-0.5L0,-3.0L2.5,-0.5"/>
                </g>
        </g>
        <svg viewBox="0 0 15 15" width="100%" height="30px" preserveAspectRatio="xMaxYMin meet">
         <g id="arrow_out" transform="scale(0.3 0.3)">
          <a xlink:href="modeltree_8h__incl_org.svg" target="_base">
           <rect id="button" ry="5" rx="5" y="6" x="6" height="38" width="38"
                fill="#f2f5e9" fill-opacity="0.5" stroke="#606060" stroke-width="1.0"/>
           <path id="arrow"
             d="M 11.500037,31.436501 C 11.940474,20.09759 22.043105,11.32322 32.158766,21.979434 L 37.068811,17.246167 C 37.068811,17.246167 37.088388,32 37.088388,32 L 22.160133,31.978069 C 22.160133,31.978069 26.997745,27.140456 26.997745,27.140456 C 18.528582,18.264221 13.291696,25.230495 11.500037,31.436501 z"
             style="fill:#404040;"/>
          </a>
         </g>
        </svg>
</svg>
