<?xml version="1.0" encoding="UTF-8" standalone="no"?>
<!DOCTYPE svg PUBLIC "-//W3C//DTD SVG 1.1//EN"
 "http://www.w3.org/Graphics/SVG/1.1/DTD/svg11.dtd">
<!-- Generated by graphviz version 2.38.0 (20140413.2041)
 -->
<!-- Title: model.cpp Pages: 1 -->
<!--zoomable 207 -->
<svg id="main" version="1.1" xmlns="http://www.w3.org/2000/svg" xmlns:xlink="http://www.w3.org/1999/xlink" xml:space="preserve" onload="init(evt)">
<style type="text/css"><![CDATA[
.edge:hover path { stroke: red; }
.edge:hover polygon { stroke: red; fill: red; }
]]></style>
<script type="text/javascript"><![CDATA[
var edges = document.getElementsByTagName('g');
if (edges && edges.length) {
  for (var i=0;i<edges.length;i++) {
    if (edges[i].id.substr(0,4)=='edge') {
      edges[i].setAttribute('class','edge');
    }
  }
}
]]></script>
        <defs>
                <circle id="rim" cx="0" cy="0" r="7"/>
                <circle id="rim2" cx="0" cy="0" r="3.5"/>
                <g id="zoomPlus">
                        <use xlink:href="#rim" fill="#404040">
                                <set attributeName="fill" to="#808080" begin="zoomplus.mouseover" end="zoomplus.mouseout"/>
                        </use>
                        <path d="M-4,0h8M0,-4v8" fill="none" stroke="white" stroke-width="1.5" pointer-events="none"/>
                </g>
                <g id="zoomMin">
                        <use xlink:href="#rim" fill="#404040">
                                <set attributeName="fill" to="#808080" begin="zoomminus.mouseover" end="zoomminus.mouseout"/>
                        </use>
                        <path d="M-4,0h8" fill="none" stroke="white" stroke-width="1.5" pointer-events="none"/>
                </g>
                <g id="dirArrow">
                        <path fill="none" stroke="white" stroke-width="1.5" d="M0,-3.0v7 M-2.5,-0.5L0,-3.0L2.5,-0.5"/>
                </g>
               <g id="resetDef">
                       <use xlink:href="#rim2" fill="#404040">
                               <set attributeName="fill" to="#808080" begin="reset.mouseover" end="reset.mouseout"/>
                       </use>
               </g>
        </defs>

<script type="text/javascript">
var viewWidth = 1630;
var viewHeight = 207;
var sectionId = 'dynsection-0';
</script>
<script xlink:href="svgpan.js"/>
<svg id="graph" class="graph">
<g id="viewport">
<title>model.cpp</title>
<polygon fill="white" stroke="none" points="-4,4 -4,-203 1626,-203 1626,4 -4,4"/>
<!-- Node1 -->
<g id="node1" class="node"><title>Node1</title>
<polygon fill="#bfbfbf" stroke="black" points="1102,-179.5 1102,-198.5 1169,-198.5 1169,-179.5 1102,-179.5"/>
<text text-anchor="middle" x="1135.5" y="-186.5" font-family="Helvetica,sans-Serif" font-size="10.00">model.cpp</text>
</g>
<!-- Node2 -->
<g id="node2" class="node"><title>Node2</title>
<g id="a_node2"><a xlink:href="model_8h.xhtml" target="_top" xlink:title="Wrapper Model classes for the MEF data. ">
<polygon fill="white" stroke="black" points="811.5,-123.5 811.5,-142.5 867.5,-142.5 867.5,-123.5 811.5,-123.5"/>
<text text-anchor="middle" x="839.5" y="-130.5" font-family="Helvetica,sans-Serif" font-size="10.00">model.h</text>
</a>
</g>
</g>
<!-- Node1&#45;&gt;Node2 -->
<g id="edge1" class="edge"><title>Node1&#45;&gt;Node2</title>
<path fill="none" stroke="midnightblue" d="M1101.83,-181.858C1046.37,-171.74 936.138,-151.63 877.789,-140.985"/>
<polygon fill="midnightblue" stroke="midnightblue" points="878.329,-137.526 867.863,-139.174 877.072,-144.412 878.329,-137.526"/>
</g>
<!-- Node18 -->
<g id="node18" class="node"><title>Node18</title>
<polygon fill="white" stroke="#bfbfbf" points="996.5,-123.5 996.5,-142.5 1140.5,-142.5 1140.5,-123.5 996.5,-123.5"/>
<text text-anchor="middle" x="1068.5" y="-130.5" font-family="Helvetica,sans-Serif" font-size="10.00">boost/range/algorithm.hpp</text>
</g>
<!-- Node1&#45;&gt;Node18 -->
<g id="edge19" class="edge"><title>Node1&#45;&gt;Node18</title>
<path fill="none" stroke="midnightblue" d="M1124.74,-179.324C1114.73,-171.263 1099.61,-159.077 1087.57,-149.369"/>
<polygon fill="midnightblue" stroke="midnightblue" points="1089.44,-146.384 1079.46,-142.834 1085.05,-151.834 1089.44,-146.384"/>
</g>
<!-- Node19 -->
<g id="node19" class="node"><title>Node19</title>
<polygon fill="white" stroke="#bfbfbf" points="1159,-123.5 1159,-142.5 1248,-142.5 1248,-123.5 1159,-123.5"/>
<text text-anchor="middle" x="1203.5" y="-130.5" font-family="Helvetica,sans-Serif" font-size="10.00">src/fault_tree.h</text>
</g>
<!-- Node1&#45;&gt;Node19 -->
<g id="edge20" class="edge"><title>Node1&#45;&gt;Node19</title>
<path fill="none" stroke="midnightblue" d="M1146.43,-179.324C1156.67,-171.185 1172.22,-158.839 1184.5,-149.087"/>
<polygon fill="midnightblue" stroke="midnightblue" points="1186.72,-151.794 1192.38,-142.834 1182.37,-146.312 1186.72,-151.794"/>
</g>
<!-- Node20 -->
<g id="node20" class="node"><title>Node20</title>
<g id="a_node20"><a xlink:href="guiassert_8h.xhtml" target="_top" xlink:title="GUI assertions that should not crash the program by default. ">
<polygon fill="white" stroke="black" points="1374.5,-123.5 1374.5,-142.5 1444.5,-142.5 1444.5,-123.5 1374.5,-123.5"/>
<text text-anchor="middle" x="1409.5" y="-130.5" font-family="Helvetica,sans-Serif" font-size="10.00">guiassert.h</text>
</a>
</g>
</g>
<!-- Node1&#45;&gt;Node20 -->
<g id="edge21" class="edge"><title>Node1&#45;&gt;Node20</title>
<path fill="none" stroke="midnightblue" d="M1169.1,-181.379C1218.1,-171.721 1309.29,-153.749 1364.19,-142.93"/>
<polygon fill="midnightblue" stroke="midnightblue" points="1365.19,-146.299 1374.33,-140.932 1363.84,-139.432 1365.19,-146.299"/>
</g>
<!-- Node3 -->
<g id="node3" class="node"><title>Node3</title>
<polygon fill="white" stroke="#bfbfbf" points="1156,-62 1156,-81 1213,-81 1213,-62 1156,-62"/>
<text text-anchor="middle" x="1184.5" y="-69" font-family="Helvetica,sans-Serif" font-size="10.00">memory</text>
</g>
<!-- Node2&#45;&gt;Node3 -->
<g id="edge2" class="edge"><title>Node2&#45;&gt;Node3</title>
<path fill="none" stroke="midnightblue" d="M867.849,-129.931C922.494,-125.486 1045.9,-113.228 1146.5,-87 1149.32,-86.2652 1152.22,-85.3907 1155.09,-84.4406"/>
<polygon fill="midnightblue" stroke="midnightblue" points="1156.42,-87.6825 1164.65,-81.0125 1154.06,-81.0934 1156.42,-87.6825"/>
</g>
<!-- Node4 -->
<g id="node4" class="node"><title>Node4</title>
<polygon fill="white" stroke="#bfbfbf" points="1231.5,-62 1231.5,-81 1275.5,-81 1275.5,-62 1231.5,-62"/>
<text text-anchor="middle" x="1253.5" y="-69" font-family="Helvetica,sans-Serif" font-size="10.00">string</text>
</g>
<!-- Node2&#45;&gt;Node4 -->
<g id="edge3" class="edge"><title>Node2&#45;&gt;Node4</title>
<path fill="none" stroke="midnightblue" d="M867.696,-129.81C944.23,-123.688 1154.59,-105.615 1221.5,-87 1223.65,-86.4023 1225.84,-85.6795 1228.01,-84.8796"/>
<polygon fill="midnightblue" stroke="midnightblue" points="1229.37,-88.1037 1237.26,-81.0277 1226.68,-81.6418 1229.37,-88.1037"/>
</g>
<!-- Node5 -->
<g id="node5" class="node"><title>Node5</title>
<polygon fill="white" stroke="#bfbfbf" points="1167.5,-0.5 1167.5,-19.5 1235.5,-19.5 1235.5,-0.5 1167.5,-0.5"/>
<text text-anchor="middle" x="1201.5" y="-7.5" font-family="Helvetica,sans-Serif" font-size="10.00">type_traits</text>
</g>
<!-- Node2&#45;&gt;Node5 -->
<g id="edge4" class="edge"><title>Node2&#45;&gt;Node5</title>
<path fill="none" stroke="midnightblue" d="M867.668,-130.187C963.305,-123.896 1270.44,-102.553 1284.5,-87 1293.74,-76.7793 1291.55,-67.8386 1284.5,-56 1275.4,-40.7208 1259.11,-30.3102 1243.36,-23.3857"/>
<polygon fill="midnightblue" stroke="midnightblue" points="1244.27,-19.9811 1233.68,-19.5124 1241.67,-26.4794 1244.27,-19.9811"/>
</g>
<!-- Node6 -->
<g id="node6" class="node"><title>Node6</title>
<polygon fill="white" stroke="#bfbfbf" points="0,-62 0,-81 47,-81 47,-62 0,-62"/>
<text text-anchor="middle" x="23.5" y="-69" font-family="Helvetica,sans-Serif" font-size="10.00">vector</text>
</g>
<!-- Node2&#45;&gt;Node6 -->
<g id="edge5" class="edge"><title>Node2&#45;&gt;Node6</title>
<path fill="none" stroke="midnightblue" d="M811.181,-131.717C688.703,-130.287 204.123,-122.454 56.5,-87 54.1383,-86.4328 51.7342,-85.7043 49.3549,-84.8764"/>
<polygon fill="midnightblue" stroke="midnightblue" points="50.4691,-81.5522 39.8851,-81.0726 47.8599,-88.0478 50.4691,-81.5522"/>
</g>
<!-- Node7 -->
<g id="node7" class="node"><title>Node7</title>
<polygon fill="white" stroke="#bfbfbf" points="65.5,-56.5 65.5,-86.5 205.5,-86.5 205.5,-56.5 65.5,-56.5"/>
<text text-anchor="start" x="73.5" y="-74.5" font-family="Helvetica,sans-Serif" font-size="10.00">boost/multi_index/hashed</text>
<text text-anchor="middle" x="135.5" y="-63.5" font-family="Helvetica,sans-Serif" font-size="10.00">_index.hpp</text>
</g>
<!-- Node2&#45;&gt;Node7 -->
<g id="edge6" class="edge"><title>Node2&#45;&gt;Node7</title>
<path fill="none" stroke="midnightblue" d="M811.359,-131.074C724.327,-127.978 451.691,-116.542 215.791,-87.0691"/>
<polygon fill="midnightblue" stroke="midnightblue" points="216.009,-83.5689 205.649,-85.7879 215.131,-90.5137 216.009,-83.5689"/>
</g>
<!-- Node8 -->
<g id="node8" class="node"><title>Node8</title>
<polygon fill="white" stroke="#bfbfbf" points="223.5,-56.5 223.5,-86.5 353.5,-86.5 353.5,-56.5 223.5,-56.5"/>
<text text-anchor="start" x="231.5" y="-74.5" font-family="Helvetica,sans-Serif" font-size="10.00">boost/multi_index/mem</text>
<text text-anchor="middle" x="288.5" y="-63.5" font-family="Helvetica,sans-Serif" font-size="10.00">_fun.hpp</text>
</g>
<!-- Node2&#45;&gt;Node8 -->
<g id="edge7" class="edge"><title>Node2&#45;&gt;Node8</title>
<path fill="none" stroke="midnightblue" d="M811.427,-130.33C738.981,-125.814 539.665,-112.075 363.76,-87.0918"/>
<polygon fill="midnightblue" stroke="midnightblue" points="364.206,-83.6199 353.81,-85.6628 363.211,-90.5488 364.206,-83.6199"/>
</g>
<!-- Node9 -->
<g id="node9" class="node"><title>Node9</title>
<polygon fill="white" stroke="#bfbfbf" points="371.5,-62 371.5,-81 543.5,-81 543.5,-62 371.5,-62"/>
<text text-anchor="middle" x="457.5" y="-69" font-family="Helvetica,sans-Serif" font-size="10.00">boost/multi_index_container.hpp</text>
</g>
<!-- Node2&#45;&gt;Node9 -->
<g id="edge8" class="edge"><title>Node2&#45;&gt;Node9</title>
<path fill="none" stroke="midnightblue" d="M811.411,-127.625C750.895,-118.199 606.864,-95.7649 522.375,-82.6049"/>
<polygon fill="midnightblue" stroke="midnightblue" points="522.796,-79.1283 512.377,-81.0475 521.719,-86.0449 522.796,-79.1283"/>
</g>
<!-- Node10 -->
<g id="node10" class="node"><title>Node10</title>
<polygon fill="white" stroke="#bfbfbf" points="562,-62 562,-81 617,-81 617,-62 562,-62"/>
<text text-anchor="middle" x="589.5" y="-69" font-family="Helvetica,sans-Serif" font-size="10.00">QObject</text>
</g>
<!-- Node2&#45;&gt;Node10 -->
<g id="edge9" class="edge"><title>Node2&#45;&gt;Node10</title>
<path fill="none" stroke="midnightblue" d="M811.316,-127.009C771.08,-119.634 695.012,-104.765 631.5,-87 628.549,-86.1747 625.503,-85.2564 622.462,-84.2939"/>
<polygon fill="midnightblue" stroke="midnightblue" points="623.484,-80.9452 612.89,-81.1284 621.286,-87.5913 623.484,-80.9452"/>
</g>
<!-- Node11 -->
<g id="node11" class="node"><title>Node11</title>
<polygon fill="white" stroke="#bfbfbf" points="1332,-62 1332,-81 1385,-81 1385,-62 1332,-62"/>
<text text-anchor="middle" x="1358.5" y="-69" font-family="Helvetica,sans-Serif" font-size="10.00">QString</text>
</g>
<!-- Node2&#45;&gt;Node11 -->
<g id="edge10" class="edge"><title>Node2&#45;&gt;Node11</title>
<path fill="none" stroke="midnightblue" d="M867.776,-130.255C956.827,-124.613 1230.71,-106.126 1317.5,-87 1320.92,-86.246 1324.45,-85.2889 1327.93,-84.2271"/>
<polygon fill="midnightblue" stroke="midnightblue" points="1329.13,-87.5187 1337.51,-81.0391 1326.92,-80.8771 1329.13,-87.5187"/>
</g>
<!-- Node12 -->
<g id="node12" class="node"><title>Node12</title>
<polygon fill="white" stroke="#bfbfbf" points="873.5,-0.5 873.5,-19.5 973.5,-19.5 973.5,-0.5 873.5,-0.5"/>
<text text-anchor="middle" x="923.5" y="-7.5" font-family="Helvetica,sans-Serif" font-size="10.00">QUndoCommand</text>
</g>
<!-- Node2&#45;&gt;Node12 -->
<g id="edge11" class="edge"><title>Node2&#45;&gt;Node12</title>
<path fill="none" stroke="midnightblue" d="M811.474,-129.918C752.001,-124.476 621.961,-106.568 664.5,-56 689.371,-26.4348 794.631,-16.2932 863.069,-12.815"/>
<polygon fill="midnightblue" stroke="midnightblue" points="863.479,-16.2996 873.302,-12.3302 863.147,-9.30741 863.479,-16.2996"/>
</g>
<!-- Node13 -->
<g id="node13" class="node"><title>Node13</title>
<polygon fill="white" stroke="#bfbfbf" points="673.5,-62 673.5,-81 731.5,-81 731.5,-62 673.5,-62"/>
<text text-anchor="middle" x="702.5" y="-69" font-family="Helvetica,sans-Serif" font-size="10.00">QVariant</text>
</g>
<!-- Node2&#45;&gt;Node13 -->
<g id="edge12" class="edge"><title>Node2&#45;&gt;Node13</title>
<path fill="none" stroke="midnightblue" d="M819.871,-123.475C796.676,-113.401 757.881,-96.5525 731.287,-85.0023"/>
<polygon fill="midnightblue" stroke="midnightblue" points="732.659,-81.7824 722.092,-81.0091 729.87,-88.203 732.659,-81.7824"/>
</g>
<!-- Node14 -->
<g id="node14" class="node"><title>Node14</title>
<polygon fill="white" stroke="#bfbfbf" points="749.5,-62 749.5,-81 819.5,-81 819.5,-62 749.5,-62"/>
<text text-anchor="middle" x="784.5" y="-69" font-family="Helvetica,sans-Serif" font-size="10.00">src/event.h</text>
</g>
<!-- Node2&#45;&gt;Node14 -->
<g id="edge13" class="edge"><title>Node2&#45;&gt;Node14</title>
<path fill="none" stroke="midnightblue" d="M831.62,-123.475C823.206,-114.373 809.681,-99.741 799.274,-88.483"/>
<polygon fill="midnightblue" stroke="midnightblue" points="801.724,-85.9766 792.366,-81.0091 796.583,-90.7282 801.724,-85.9766"/>
</g>
<!-- Node15 -->
<g id="node15" class="node"><title>Node15</title>
<polygon fill="white" stroke="#bfbfbf" points="837.5,-62 837.5,-81 953.5,-81 953.5,-62 837.5,-62"/>
<text text-anchor="middle" x="895.5" y="-69" font-family="Helvetica,sans-Serif" font-size="10.00">src/ext/multi_index.h</text>
</g>
<!-- Node2&#45;&gt;Node15 -->
<g id="edge14" class="edge"><title>Node2&#45;&gt;Node15</title>
<path fill="none" stroke="midnightblue" d="M847.523,-123.475C856.09,-114.373 869.861,-99.741 880.457,-88.483"/>
<polygon fill="midnightblue" stroke="midnightblue" points="883.186,-90.6899 887.491,-81.0091 878.089,-85.8923 883.186,-90.6899"/>
</g>
<!-- Node16 -->
<g id="node16" class="node"><title>Node16</title>
<polygon fill="white" stroke="#bfbfbf" points="972,-62 972,-81 1045,-81 1045,-62 972,-62"/>
<text text-anchor="middle" x="1008.5" y="-69" font-family="Helvetica,sans-Serif" font-size="10.00">src/model.h</text>
</g>
<!-- Node2&#45;&gt;Node16 -->
<g id="edge15" class="edge"><title>Node2&#45;&gt;Node16</title>
<path fill="none" stroke="midnightblue" d="M863.714,-123.475C892.829,-113.225 941.868,-95.9593 974.702,-84.3994"/>
<polygon fill="midnightblue" stroke="midnightblue" points="976.061,-87.6314 984.331,-81.0091 973.737,-81.0287 976.061,-87.6314"/>
</g>
<!-- Node17 -->
<g id="node17" class="node"><title>Node17</title>
<g id="a_node17"><a xlink:href="command_8h.xhtml" target="_top" xlink:title="Undo&#45;redo helper facilities based on the Qt Undo framework. ">
<polygon fill="white" stroke="black" points="1063.5,-62 1063.5,-81 1137.5,-81 1137.5,-62 1063.5,-62"/>
<text text-anchor="middle" x="1100.5" y="-69" font-family="Helvetica,sans-Serif" font-size="10.00">command.h</text>
</a>
</g>
</g>
<!-- Node2&#45;&gt;Node17 -->
<g id="edge16" class="edge"><title>Node2&#45;&gt;Node17</title>
<path fill="none" stroke="midnightblue" d="M867.734,-126.921C908.859,-119.329 987.526,-104.075 1053.5,-87 1057.1,-86.068 1060.84,-85.0333 1064.56,-83.9578"/>
<polygon fill="midnightblue" stroke="midnightblue" points="1065.69,-87.2726 1074.27,-81.0585 1063.69,-80.5651 1065.69,-87.2726"/>
</g>
<!-- Node17&#45;&gt;Node5 -->
<g id="edge17" class="edge"><title>Node17&#45;&gt;Node5</title>
<path fill="none" stroke="midnightblue" d="M1114.97,-61.9751C1131.47,-52.2548 1158.68,-36.2266 1178.18,-24.7372"/>
<polygon fill="midnightblue" stroke="midnightblue" points="1180.22,-27.6005 1187.06,-19.5091 1176.66,-21.5693 1180.22,-27.6005"/>
</g>
<!-- Node17&#45;&gt;Node12 -->
<g id="edge18" class="edge"><title>Node17&#45;&gt;Node12</title>
<path fill="none" stroke="midnightblue" d="M1075.14,-61.9751C1044.52,-51.6804 992.843,-34.3103 958.454,-22.7502"/>
<polygon fill="midnightblue" stroke="midnightblue" points="959.407,-19.3779 948.813,-19.5091 957.176,-26.0131 959.407,-19.3779"/>
</g>
<!-- Node20&#45;&gt;Node11 -->
<g id="edge23" class="edge"><title>Node20&#45;&gt;Node11</title>
<path fill="none" stroke="midnightblue" d="M1402.19,-123.475C1394.47,-114.462 1382.09,-100.025 1372.48,-88.8118"/>
<polygon fill="midnightblue" stroke="midnightblue" points="1374.96,-86.3239 1365.79,-81.0091 1369.64,-90.8795 1374.96,-86.3239"/>
</g>
<!-- Node21 -->
<g id="node21" class="node"><title>Node21</title>
<polygon fill="white" stroke="#bfbfbf" points="1537,-62 1537,-81 1622,-81 1622,-62 1537,-62"/>
<text text-anchor="middle" x="1579.5" y="-69" font-family="Helvetica,sans-Serif" font-size="10.00">QMessageBox</text>
</g>
<!-- Node20&#45;&gt;Node21 -->
<g id="edge22" class="edge"><title>Node20&#45;&gt;Node21</title>
<path fill="none" stroke="midnightblue" d="M1433.86,-123.475C1463.14,-113.225 1512.47,-95.9593 1545.5,-84.3994"/>
<polygon fill="midnightblue" stroke="midnightblue" points="1546.91,-87.6162 1555.19,-81.0091 1544.59,-81.0091 1546.91,-87.6162"/>
</g>
<!-- Node22 -->
<g id="node22" class="node"><title>Node22</title>
<polygon fill="white" stroke="#bfbfbf" points="1402.5,-62 1402.5,-81 1518.5,-81 1518.5,-62 1402.5,-62"/>
<text text-anchor="middle" x="1460.5" y="-69" font-family="Helvetica,sans-Serif" font-size="10.00">src/ext/source_info.h</text>
</g>
<!-- Node20&#45;&gt;Node22 -->
<g id="edge24" class="edge"><title>Node20&#45;&gt;Node22</title>
<path fill="none" stroke="midnightblue" d="M1416.81,-123.475C1424.53,-114.462 1436.91,-100.025 1446.52,-88.8118"/>
<polygon fill="midnightblue" stroke="midnightblue" points="1449.36,-90.8795 1453.21,-81.0091 1444.04,-86.3239 1449.36,-90.8795"/>
</g>
</g>
</svg>
        <g id="navigator" transform="translate(0 0)" fill="#404254">
                <rect fill="#f2f5e9" fill-opacity="0.5" stroke="#606060" stroke-width=".5" x="0" y="0" width="60" height="60"/>
                <use id="zoomplus" xlink:href="#zoomPlus" x="17" y="9" onmousedown="handleZoom(evt,'in')"/>
                <use id="zoomminus" xlink:href="#zoomMin" x="42" y="9" onmousedown="handleZoom(evt,'out')"/>
                <use id="reset" xlink:href="#resetDef" x="30" y="36" onmousedown="handleReset()"/>
                <g id="arrowUp" xlink:href="#dirArrow" transform="translate(30 24)" onmousedown="handlePan(0,-1)">
                  <use xlink:href="#rim" fill="#404040">
                        <set attributeName="fill" to="#808080" begin="arrowUp.mouseover" end="arrowUp.mouseout"/>
                  </use>
                  <path fill="none" stroke="white" stroke-width="1.5" d="M0,-3.0v7 M-2.5,-0.5L0,-3.0L2.5,-0.5"/>
                </g>
                <g id="arrowRight" xlink:href="#dirArrow" transform="rotate(90) translate(36 -43)" onmousedown="handlePan(1,0)">
                  <use xlink:href="#rim" fill="#404040">
                        <set attributeName="fill" to="#808080" begin="arrowRight.mouseover" end="arrowRight.mouseout"/>
                  </use>
                  <path fill="none" stroke="white" stroke-width="1.5" d="M0,-3.0v7 M-2.5,-0.5L0,-3.0L2.5,-0.5"/>
                </g>
                <g id="arrowDown" xlink:href="#dirArrow" transform="rotate(180) translate(-30 -48)" onmousedown="handlePan(0,1)">
                  <use xlink:href="#rim" fill="#404040">
                        <set attributeName="fill" to="#808080" begin="arrowDown.mouseover" end="arrowDown.mouseout"/>
                  </use>
                  <path fill="none" stroke="white" stroke-width="1.5" d="M0,-3.0v7 M-2.5,-0.5L0,-3.0L2.5,-0.5"/>
                </g>
                <g id="arrowLeft" xlink:href="#dirArrow" transform="rotate(270) translate(-36 17)" onmousedown="handlePan(-1,0)">
                  <use xlink:href="#rim" fill="#404040">
                        <set attributeName="fill" to="#808080" begin="arrowLeft.mouseover" end="arrowLeft.mouseout"/>
                  </use>
                  <path fill="none" stroke="white" stroke-width="1.5" d="M0,-3.0v7 M-2.5,-0.5L0,-3.0L2.5,-0.5"/>
                </g>
        </g>
        <svg viewBox="0 0 15 15" width="100%" height="30px" preserveAspectRatio="xMaxYMin meet">
         <g id="arrow_out" transform="scale(0.3 0.3)">
          <a xlink:href="model_8cpp__incl_org.svg" target="_base">
           <rect id="button" ry="5" rx="5" y="6" x="6" height="38" width="38"
                fill="#f2f5e9" fill-opacity="0.5" stroke="#606060" stroke-width="1.0"/>
           <path id="arrow"
             d="M 11.500037,31.436501 C 11.940474,20.09759 22.043105,11.32322 32.158766,21.979434 L 37.068811,17.246167 C 37.068811,17.246167 37.088388,32 37.088388,32 L 22.160133,31.978069 C 22.160133,31.978069 26.997745,27.140456 26.997745,27.140456 C 18.528582,18.264221 13.291696,25.230495 11.500037,31.436501 z"
             style="fill:#404040;"/>
          </a>
         </g>
        </svg>
</svg>
