<?xml version="1.0" encoding="UTF-8" standalone="no"?>
<!DOCTYPE svg PUBLIC "-//W3C//DTD SVG 1.1//EN"
 "http://www.w3.org/Graphics/SVG/1.1/DTD/svg11.dtd">
<!-- Generated by graphviz version 2.38.0 (20140413.2041)
 -->
<!-- Title: model.h Pages: 1 -->
<svg width="1374pt" height="151pt"
 viewBox="0.00 0.00 1374.17 151.00" xmlns="http://www.w3.org/2000/svg" xmlns:xlink="http://www.w3.org/1999/xlink">
<g id="graph0" class="graph" transform="scale(1 1) rotate(0) translate(4 147)">
<title>model.h</title>
<polygon fill="white" stroke="none" points="-4,4 -4,-147 1370.17,-147 1370.17,4 -4,4"/>
<!-- Node1 -->
<g id="node1" class="node"><title>Node1</title>
<polygon fill="#bfbfbf" stroke="black" points="737.5,-123.5 737.5,-142.5 793.5,-142.5 793.5,-123.5 737.5,-123.5"/>
<text text-anchor="middle" x="765.5" y="-130.5" font-family="Helvetica,sans-Serif" font-size="10.00">model.h</text>
</g>
<!-- Node2 -->
<g id="node2" class="node"><title>Node2</title>
<polygon fill="white" stroke="#bfbfbf" points="0,-62 0,-81 57,-81 57,-62 0,-62"/>
<text text-anchor="middle" x="28.5" y="-69" font-family="Helvetica,sans-Serif" font-size="10.00">memory</text>
</g>
<!-- Node1&#45;&gt;Node2 -->
<g id="edge1" class="edge"><title>Node1&#45;&gt;Node2</title>
<path fill="none" stroke="midnightblue" d="M737.238,-131.31C623.334,-128.354 197.797,-115.591 66.5,-87 63.4254,-86.3305 60.2698,-85.4547 57.1545,-84.4647"/>
<polygon fill="midnightblue" stroke="midnightblue" points="58.0839,-81.0805 47.4892,-81.0262 55.7375,-87.6756 58.0839,-81.0805"/>
</g>
<!-- Node3 -->
<g id="node3" class="node"><title>Node3</title>
<polygon fill="white" stroke="#bfbfbf" points="75.5,-62 75.5,-81 119.5,-81 119.5,-62 75.5,-62"/>
<text text-anchor="middle" x="97.5" y="-69" font-family="Helvetica,sans-Serif" font-size="10.00">string</text>
</g>
<!-- Node1&#45;&gt;Node3 -->
<g id="edge2" class="edge"><title>Node1&#45;&gt;Node3</title>
<path fill="none" stroke="midnightblue" d="M737.431,-131.162C630.805,-127.799 250.994,-114.138 133.5,-87 130.669,-86.3461 127.77,-85.501 124.906,-84.5477"/>
<polygon fill="midnightblue" stroke="midnightblue" points="126.05,-81.2385 115.457,-81.0104 123.595,-87.7942 126.05,-81.2385"/>
</g>
<!-- Node4 -->
<g id="node4" class="node"><title>Node4</title>
<polygon fill="white" stroke="#bfbfbf" points="448.5,-0.5 448.5,-19.5 516.5,-19.5 516.5,-0.5 448.5,-0.5"/>
<text text-anchor="middle" x="482.5" y="-7.5" font-family="Helvetica,sans-Serif" font-size="10.00">type_traits</text>
</g>
<!-- Node1&#45;&gt;Node4 -->
<g id="edge3" class="edge"><title>Node1&#45;&gt;Node4</title>
<path fill="none" stroke="midnightblue" d="M737.169,-132.075C623.622,-132.087 205.686,-129.241 166.5,-87 157.13,-76.8993 157.47,-66.4065 166.5,-56 201.17,-16.0435 359.895,-10.6565 438.348,-10.4995"/>
<polygon fill="midnightblue" stroke="midnightblue" points="438.408,-13.9994 448.411,-10.5073 438.414,-6.99943 438.408,-13.9994"/>
</g>
<!-- Node5 -->
<g id="node5" class="node"><title>Node5</title>
<polygon fill="white" stroke="#bfbfbf" points="176,-62 176,-81 223,-81 223,-62 176,-62"/>
<text text-anchor="middle" x="199.5" y="-69" font-family="Helvetica,sans-Serif" font-size="10.00">vector</text>
</g>
<!-- Node1&#45;&gt;Node5 -->
<g id="edge4" class="edge"><title>Node1&#45;&gt;Node5</title>
<path fill="none" stroke="midnightblue" d="M737.315,-130.844C641.601,-126.728 329.585,-111.698 232.5,-87 230.197,-86.4142 227.852,-85.6832 225.527,-84.863"/>
<polygon fill="midnightblue" stroke="midnightblue" points="226.831,-81.615 216.247,-81.1321 224.219,-88.1097 226.831,-81.615"/>
</g>
<!-- Node6 -->
<g id="node6" class="node"><title>Node6</title>
<polygon fill="white" stroke="#bfbfbf" points="241.5,-56.5 241.5,-86.5 381.5,-86.5 381.5,-56.5 241.5,-56.5"/>
<text text-anchor="start" x="249.5" y="-74.5" font-family="Helvetica,sans-Serif" font-size="10.00">boost/multi_index/hashed</text>
<text text-anchor="middle" x="311.5" y="-63.5" font-family="Helvetica,sans-Serif" font-size="10.00">_index.hpp</text>
</g>
<!-- Node1&#45;&gt;Node6 -->
<g id="edge5" class="edge"><title>Node1&#45;&gt;Node6</title>
<path fill="none" stroke="midnightblue" d="M737.194,-129.21C676.079,-123.057 527.027,-107.353 391.798,-87.1395"/>
<polygon fill="midnightblue" stroke="midnightblue" points="392.083,-83.643 381.673,-85.6135 391.04,-90.5648 392.083,-83.643"/>
</g>
<!-- Node7 -->
<g id="node7" class="node"><title>Node7</title>
<polygon fill="white" stroke="#bfbfbf" points="399.5,-56.5 399.5,-86.5 529.5,-86.5 529.5,-56.5 399.5,-56.5"/>
<text text-anchor="start" x="407.5" y="-74.5" font-family="Helvetica,sans-Serif" font-size="10.00">boost/multi_index/mem</text>
<text text-anchor="middle" x="464.5" y="-63.5" font-family="Helvetica,sans-Serif" font-size="10.00">_fun.hpp</text>
</g>
<!-- Node1&#45;&gt;Node7 -->
<g id="edge6" class="edge"><title>Node1&#45;&gt;Node7</title>
<path fill="none" stroke="midnightblue" d="M737.453,-126.456C692.776,-117.624 603.948,-100.065 539.736,-87.3722"/>
<polygon fill="midnightblue" stroke="midnightblue" points="540.141,-83.8846 529.652,-85.3789 538.784,-90.7518 540.141,-83.8846"/>
</g>
<!-- Node8 -->
<g id="node8" class="node"><title>Node8</title>
<polygon fill="white" stroke="#bfbfbf" points="547.5,-62 547.5,-81 719.5,-81 719.5,-62 547.5,-62"/>
<text text-anchor="middle" x="633.5" y="-69" font-family="Helvetica,sans-Serif" font-size="10.00">boost/multi_index_container.hpp</text>
</g>
<!-- Node1&#45;&gt;Node8 -->
<g id="edge7" class="edge"><title>Node1&#45;&gt;Node8</title>
<path fill="none" stroke="midnightblue" d="M746.588,-123.475C724.337,-113.445 687.188,-96.7002 661.574,-85.1546"/>
<polygon fill="midnightblue" stroke="midnightblue" points="662.932,-81.9277 652.377,-81.0091 660.056,-88.3094 662.932,-81.9277"/>
</g>
<!-- Node9 -->
<g id="node9" class="node"><title>Node9</title>
<polygon fill="white" stroke="#bfbfbf" points="738,-62 738,-81 793,-81 793,-62 738,-62"/>
<text text-anchor="middle" x="765.5" y="-69" font-family="Helvetica,sans-Serif" font-size="10.00">QObject</text>
</g>
<!-- Node1&#45;&gt;Node9 -->
<g id="edge8" class="edge"><title>Node1&#45;&gt;Node9</title>
<path fill="none" stroke="midnightblue" d="M765.5,-123.475C765.5,-115.08 765.5,-101.981 765.5,-91.1631"/>
<polygon fill="midnightblue" stroke="midnightblue" points="769,-91.0091 765.5,-81.0091 762,-91.0091 769,-91.0091"/>
</g>
<!-- Node10 -->
<g id="node10" class="node"><title>Node10</title>
<polygon fill="white" stroke="#bfbfbf" points="811,-62 811,-81 864,-81 864,-62 811,-62"/>
<text text-anchor="middle" x="837.5" y="-69" font-family="Helvetica,sans-Serif" font-size="10.00">QString</text>
</g>
<!-- Node1&#45;&gt;Node10 -->
<g id="edge9" class="edge"><title>Node1&#45;&gt;Node10</title>
<path fill="none" stroke="midnightblue" d="M775.816,-123.475C787.151,-114.108 805.573,-98.8839 819.339,-87.5081"/>
<polygon fill="midnightblue" stroke="midnightblue" points="821.724,-90.0773 827.203,-81.0091 817.265,-84.6813 821.724,-90.0773"/>
</g>
<!-- Node11 -->
<g id="node11" class="node"><title>Node11</title>
<polygon fill="white" stroke="#bfbfbf" points="1096.5,-0.5 1096.5,-19.5 1196.5,-19.5 1196.5,-0.5 1096.5,-0.5"/>
<text text-anchor="middle" x="1146.5" y="-7.5" font-family="Helvetica,sans-Serif" font-size="10.00">QUndoCommand</text>
</g>
<!-- Node1&#45;&gt;Node11 -->
<g id="edge10" class="edge"><title>Node1&#45;&gt;Node11</title>
<path fill="none" stroke="midnightblue" d="M793.787,-132.041C906.182,-131.913 1316.97,-128.584 1355.5,-87 1402.02,-36.7915 1283.87,-19.6753 1206.82,-13.8965"/>
<polygon fill="midnightblue" stroke="midnightblue" points="1206.93,-10.3957 1196.71,-13.1847 1206.43,-17.3784 1206.93,-10.3957"/>
</g>
<!-- Node12 -->
<g id="node12" class="node"><title>Node12</title>
<polygon fill="white" stroke="#bfbfbf" points="974.5,-62 974.5,-81 1032.5,-81 1032.5,-62 974.5,-62"/>
<text text-anchor="middle" x="1003.5" y="-69" font-family="Helvetica,sans-Serif" font-size="10.00">QVariant</text>
</g>
<!-- Node1&#45;&gt;Node12 -->
<g id="edge11" class="edge"><title>Node1&#45;&gt;Node12</title>
<path fill="none" stroke="midnightblue" d="M793.653,-126.985C832.668,-119.738 905.188,-105.19 965.5,-87 968.073,-86.2239 970.721,-85.3581 973.365,-84.4464"/>
<polygon fill="midnightblue" stroke="midnightblue" points="974.578,-87.7294 982.779,-81.0216 972.185,-81.1511 974.578,-87.7294"/>
</g>
<!-- Node13 -->
<g id="node13" class="node"><title>Node13</title>
<polygon fill="white" stroke="#bfbfbf" points="1050.5,-62 1050.5,-81 1120.5,-81 1120.5,-62 1050.5,-62"/>
<text text-anchor="middle" x="1085.5" y="-69" font-family="Helvetica,sans-Serif" font-size="10.00">src/event.h</text>
</g>
<!-- Node1&#45;&gt;Node13 -->
<g id="edge12" class="edge"><title>Node1&#45;&gt;Node13</title>
<path fill="none" stroke="midnightblue" d="M793.606,-128.895C843.839,-123.018 952.135,-108.867 1041.5,-87 1044.96,-86.1523 1048.55,-85.1632 1052.11,-84.1071"/>
<polygon fill="midnightblue" stroke="midnightblue" points="1053.46,-87.3517 1061.95,-81.0153 1051.36,-80.6735 1053.46,-87.3517"/>
</g>
<!-- Node14 -->
<g id="node14" class="node"><title>Node14</title>
<polygon fill="white" stroke="#bfbfbf" points="1138.5,-62 1138.5,-81 1254.5,-81 1254.5,-62 1138.5,-62"/>
<text text-anchor="middle" x="1196.5" y="-69" font-family="Helvetica,sans-Serif" font-size="10.00">src/ext/multi_index.h</text>
</g>
<!-- Node1&#45;&gt;Node14 -->
<g id="edge13" class="edge"><title>Node1&#45;&gt;Node14</title>
<path fill="none" stroke="midnightblue" d="M793.945,-129.365C855.429,-123.476 1005.2,-108.09 1129.5,-87 1136.2,-85.8631 1143.25,-84.5118 1150.15,-83.0984"/>
<polygon fill="midnightblue" stroke="midnightblue" points="1151.04,-86.4875 1160.1,-81.0008 1149.6,-79.6379 1151.04,-86.4875"/>
</g>
<!-- Node15 -->
<g id="node15" class="node"><title>Node15</title>
<polygon fill="white" stroke="#bfbfbf" points="1273,-62 1273,-81 1346,-81 1346,-62 1273,-62"/>
<text text-anchor="middle" x="1309.5" y="-69" font-family="Helvetica,sans-Serif" font-size="10.00">src/model.h</text>
</g>
<!-- Node1&#45;&gt;Node15 -->
<g id="edge14" class="edge"><title>Node1&#45;&gt;Node15</title>
<path fill="none" stroke="midnightblue" d="M793.608,-131.571C869.922,-129.954 1087.09,-122.345 1263.5,-87 1267.66,-86.1672 1271.97,-85.0968 1276.21,-83.9152"/>
<polygon fill="midnightblue" stroke="midnightblue" points="1277.31,-87.2407 1285.88,-81.0162 1275.3,-80.5356 1277.31,-87.2407"/>
</g>
<!-- Node16 -->
<g id="node16" class="node"><title>Node16</title>
<g id="a_node16"><a xlink:href="command_8h.xhtml" target="_top" xlink:title="Undo&#45;redo helper facilities based on the Qt Undo framework. ">
<polygon fill="white" stroke="black" points="882.5,-62 882.5,-81 956.5,-81 956.5,-62 882.5,-62"/>
<text text-anchor="middle" x="919.5" y="-69" font-family="Helvetica,sans-Serif" font-size="10.00">command.h</text>
</a>
</g>
</g>
<!-- Node1&#45;&gt;Node16 -->
<g id="edge15" class="edge"><title>Node1&#45;&gt;Node16</title>
<path fill="none" stroke="midnightblue" d="M787.564,-123.475C813.867,-113.313 858.013,-96.2564 887.925,-84.6996"/>
<polygon fill="midnightblue" stroke="midnightblue" points="889.41,-87.8779 897.476,-81.0091 886.887,-81.3483 889.41,-87.8779"/>
</g>
<!-- Node16&#45;&gt;Node4 -->
<g id="edge16" class="edge"><title>Node16&#45;&gt;Node4</title>
<path fill="none" stroke="midnightblue" d="M894.844,-61.9581C887.706,-59.741 879.854,-57.5449 872.5,-56 748.847,-30.0238 599.767,-18.0712 526.929,-13.4536"/>
<polygon fill="midnightblue" stroke="midnightblue" points="526.944,-9.94799 516.747,-12.8247 526.513,-16.9347 526.944,-9.94799"/>
</g>
<!-- Node16&#45;&gt;Node11 -->
<g id="edge17" class="edge"><title>Node16&#45;&gt;Node11</title>
<path fill="none" stroke="midnightblue" d="M945.688,-61.938C952.142,-59.9129 959.052,-57.8159 965.5,-56 1010.66,-43.2829 1062.67,-30.5472 1099.32,-21.8871"/>
<polygon fill="midnightblue" stroke="midnightblue" points="1100.3,-25.2526 1109.23,-19.5559 1098.7,-18.4386 1100.3,-25.2526"/>
</g>
</g>
</svg>
