<?xml version="1.0" encoding="UTF-8" standalone="no"?>
<!DOCTYPE svg PUBLIC "-//W3C//DTD SVG 1.1//EN"
 "http://www.w3.org/Graphics/SVG/1.1/DTD/svg11.dtd">
<!-- Generated by graphviz version 2.38.0 (20140413.2041)
 -->
<!-- Title: overload.h Pages: 1 -->
<svg width="722pt" height="84pt"
 viewBox="0.00 0.00 721.50 84.00" xmlns="http://www.w3.org/2000/svg" xmlns:xlink="http://www.w3.org/1999/xlink">
<g id="graph0" class="graph" transform="scale(1 1) rotate(0) translate(4 80)">
<title>overload.h</title>
<polygon fill="white" stroke="none" points="-4,4 -4,-80 717.5,-80 717.5,4 -4,4"/>
<!-- Node1 -->
<g id="node1" class="node"><title>Node1</title>
<polygon fill="#bfbfbf" stroke="black" points="333,-56.5 333,-75.5 400,-75.5 400,-56.5 333,-56.5"/>
<text text-anchor="middle" x="366.5" y="-63.5" font-family="Helvetica,sans-Serif" font-size="10.00">overload.h</text>
</g>
<!-- Node2 -->
<g id="node2" class="node"><title>Node2</title>
<g id="a_node2"><a xlink:href="diagram_8cpp.xhtml" target="_top" xlink:title="Implementation of diagram graphics. ">
<polygon fill="white" stroke="black" points="0,-0.5 0,-19.5 77,-19.5 77,-0.5 0,-0.5"/>
<text text-anchor="middle" x="38.5" y="-7.5" font-family="Helvetica,sans-Serif" font-size="10.00">diagram.cpp</text>
</a>
</g>
</g>
<!-- Node1&#45;&gt;Node2 -->
<g id="edge1" class="edge"><title>Node1&#45;&gt;Node2</title>
<path fill="none" stroke="midnightblue" d="M322.715,-58.3237C267.556,-49.8303 169.891,-34.5164 86.5,-20 83.4929,-19.4765 80.3824,-18.9223 77.2569,-18.3564"/>
<polygon fill="midnightblue" stroke="midnightblue" points="322.419,-61.8192 332.835,-59.8788 323.482,-54.9005 322.419,-61.8192"/>
</g>
<!-- Node3 -->
<g id="node3" class="node"><title>Node3</title>
<g id="a_node3"><a xlink:href="elementcontainermodel_8cpp.xhtml" target="_top" xlink:title="elementcontainermodel.cpp">
<polygon fill="white" stroke="black" points="95.5,-0.5 95.5,-19.5 247.5,-19.5 247.5,-0.5 95.5,-0.5"/>
<text text-anchor="middle" x="171.5" y="-7.5" font-family="Helvetica,sans-Serif" font-size="10.00">elementcontainermodel.cpp</text>
</a>
</g>
</g>
<!-- Node1&#45;&gt;Node3 -->
<g id="edge2" class="edge"><title>Node1&#45;&gt;Node3</title>
<path fill="none" stroke="midnightblue" d="M325.69,-53.6986C288.887,-43.507 235.571,-28.7429 202.254,-19.5164"/>
<polygon fill="midnightblue" stroke="midnightblue" points="325.03,-57.1477 335.602,-56.4435 326.898,-50.4016 325.03,-57.1477"/>
</g>
<!-- Node4 -->
<g id="node4" class="node"><title>Node4</title>
<g id="a_node4"><a xlink:href="eventdialog_8cpp.xhtml" target="_top" xlink:title="eventdialog.cpp">
<polygon fill="white" stroke="black" points="265.5,-0.5 265.5,-19.5 357.5,-19.5 357.5,-0.5 265.5,-0.5"/>
<text text-anchor="middle" x="311.5" y="-7.5" font-family="Helvetica,sans-Serif" font-size="10.00">eventdialog.cpp</text>
</a>
</g>
</g>
<!-- Node1&#45;&gt;Node4 -->
<g id="edge3" class="edge"><title>Node1&#45;&gt;Node4</title>
<path fill="none" stroke="midnightblue" d="M350.206,-49.0024C340.459,-39.4329 328.447,-27.6389 320.413,-19.7511"/>
<polygon fill="midnightblue" stroke="midnightblue" points="347.83,-51.5746 357.418,-56.083 352.734,-46.5796 347.83,-51.5746"/>
</g>
<!-- Node5 -->
<g id="node5" class="node"><title>Node5</title>
<g id="a_node5"><a xlink:href="mainwindow_8cpp.xhtml" target="_top" xlink:title="mainwindow.cpp">
<polygon fill="white" stroke="black" points="375.5,-0.5 375.5,-19.5 469.5,-19.5 469.5,-0.5 375.5,-0.5"/>
<text text-anchor="middle" x="422.5" y="-7.5" font-family="Helvetica,sans-Serif" font-size="10.00">mainwindow.cpp</text>
</a>
</g>
</g>
<!-- Node1&#45;&gt;Node5 -->
<g id="edge4" class="edge"><title>Node1&#45;&gt;Node5</title>
<path fill="none" stroke="midnightblue" d="M382.83,-49.2533C392.765,-39.6731 405.088,-27.7906 413.339,-19.8339"/>
<polygon fill="midnightblue" stroke="midnightblue" points="380.266,-46.8631 375.497,-56.324 385.125,-51.902 380.266,-46.8631"/>
</g>
<!-- Node6 -->
<g id="node6" class="node"><title>Node6</title>
<g id="a_node6"><a xlink:href="modeltree_8cpp.xhtml" target="_top" xlink:title="modeltree.cpp">
<polygon fill="white" stroke="black" points="487.5,-0.5 487.5,-19.5 573.5,-19.5 573.5,-0.5 487.5,-0.5"/>
<text text-anchor="middle" x="530.5" y="-7.5" font-family="Helvetica,sans-Serif" font-size="10.00">modeltree.cpp</text>
</a>
</g>
</g>
<!-- Node1&#45;&gt;Node6 -->
<g id="edge5" class="edge"><title>Node1&#45;&gt;Node6</title>
<path fill="none" stroke="midnightblue" d="M402.02,-53.3044C432.922,-43.1294 476.973,-28.6246 504.635,-19.5164"/>
<polygon fill="midnightblue" stroke="midnightblue" points="400.89,-49.9915 392.486,-56.4435 403.079,-56.6404 400.89,-49.9915"/>
</g>
<!-- Node7 -->
<g id="node7" class="node"><title>Node7</title>
<g id="a_node7"><a xlink:href="preferencesdialog_8cpp.xhtml" target="_top" xlink:title="preferencesdialog.cpp">
<polygon fill="white" stroke="black" points="591.5,-0.5 591.5,-19.5 713.5,-19.5 713.5,-0.5 591.5,-0.5"/>
<text text-anchor="middle" x="652.5" y="-7.5" font-family="Helvetica,sans-Serif" font-size="10.00">preferencesdialog.cpp</text>
</a>
</g>
</g>
<!-- Node1&#45;&gt;Node7 -->
<g id="edge6" class="edge"><title>Node1&#45;&gt;Node7</title>
<path fill="none" stroke="midnightblue" d="M409.977,-56.791C463.267,-46.7294 553.134,-29.7614 607.229,-19.5476"/>
<polygon fill="midnightblue" stroke="midnightblue" points="409.326,-53.3521 400.149,-58.6467 410.625,-60.2305 409.326,-53.3521"/>
</g>
</g>
</svg>
