<?xml version="1.0" encoding="UTF-8" standalone="no"?>
<!DOCTYPE svg PUBLIC "-//W3C//DTD SVG 1.1//EN"
 "http://www.w3.org/Graphics/SVG/1.1/DTD/svg11.dtd">
<!-- Generated by graphviz version 2.38.0 (20140413.2041)
 -->
<!-- Title: preferencesdialog.cpp Pages: 1 -->
<!--zoomable 140 -->
<svg id="main" version="1.1" xmlns="http://www.w3.org/2000/svg" xmlns:xlink="http://www.w3.org/1999/xlink" xml:space="preserve" onload="init(evt)">
<style type="text/css"><![CDATA[
.edge:hover path { stroke: red; }
.edge:hover polygon { stroke: red; fill: red; }
]]></style>
<script type="text/javascript"><![CDATA[
var edges = document.getElementsByTagName('g');
if (edges && edges.length) {
  for (var i=0;i<edges.length;i++) {
    if (edges[i].id.substr(0,4)=='edge') {
      edges[i].setAttribute('class','edge');
    }
  }
}
]]></script>
        <defs>
                <circle id="rim" cx="0" cy="0" r="7"/>
                <circle id="rim2" cx="0" cy="0" r="3.5"/>
                <g id="zoomPlus">
                        <use xlink:href="#rim" fill="#404040">
                                <set attributeName="fill" to="#808080" begin="zoomplus.mouseover" end="zoomplus.mouseout"/>
                        </use>
                        <path d="M-4,0h8M0,-4v8" fill="none" stroke="white" stroke-width="1.5" pointer-events="none"/>
                </g>
                <g id="zoomMin">
                        <use xlink:href="#rim" fill="#404040">
                                <set attributeName="fill" to="#808080" begin="zoomminus.mouseover" end="zoomminus.mouseout"/>
                        </use>
                        <path d="M-4,0h8" fill="none" stroke="white" stroke-width="1.5" pointer-events="none"/>
                </g>
                <g id="dirArrow">
                        <path fill="none" stroke="white" stroke-width="1.5" d="M0,-3.0v7 M-2.5,-0.5L0,-3.0L2.5,-0.5"/>
                </g>
               <g id="resetDef">
                       <use xlink:href="#rim2" fill="#404040">
                               <set attributeName="fill" to="#808080" begin="reset.mouseover" end="reset.mouseout"/>
                       </use>
               </g>
        </defs>

<script type="text/javascript">
var viewWidth = 1203;
var viewHeight = 140;
var sectionId = 'dynsection-0';
</script>
<script xlink:href="svgpan.js"/>
<svg id="graph" class="graph">
<g id="viewport">
<title>preferencesdialog.cpp</title>
<polygon fill="white" stroke="none" points="-4,4 -4,-136 1199,-136 1199,4 -4,4"/>
<!-- Node1 -->
<g id="node1" class="node"><title>Node1</title>
<polygon fill="#bfbfbf" stroke="black" points="557.5,-112.5 557.5,-131.5 679.5,-131.5 679.5,-112.5 557.5,-112.5"/>
<text text-anchor="middle" x="618.5" y="-119.5" font-family="Helvetica,sans-Serif" font-size="10.00">preferencesdialog.cpp</text>
</g>
<!-- Node2 -->
<g id="node2" class="node"><title>Node2</title>
<g id="a_node2"><a xlink:href="preferencesdialog_8h.xhtml" target="_top" xlink:title="Dialog to manage the application&#39;s persistent preferences. ">
<polygon fill="white" stroke="black" points="129,-56.5 129,-75.5 240,-75.5 240,-56.5 129,-56.5"/>
<text text-anchor="middle" x="184.5" y="-63.5" font-family="Helvetica,sans-Serif" font-size="10.00">preferencesdialog.h</text>
</a>
</g>
</g>
<!-- Node1&#45;&gt;Node2 -->
<g id="edge1" class="edge"><title>Node1&#45;&gt;Node2</title>
<path fill="none" stroke="midnightblue" d="M557.239,-113.378C476.154,-103.289 333.752,-85.5705 250.402,-75.1998"/>
<polygon fill="midnightblue" stroke="midnightblue" points="250.645,-71.7032 240.29,-73.9416 249.781,-78.6496 250.645,-71.7032"/>
</g>
<!-- Node8 -->
<g id="node8" class="node"><title>Node8</title>
<polygon fill="white" stroke="#bfbfbf" points="276,-56.5 276,-75.5 401,-75.5 401,-56.5 276,-56.5"/>
<text text-anchor="middle" x="338.5" y="-63.5" font-family="Helvetica,sans-Serif" font-size="10.00">ui_preferencesdialog.h</text>
</g>
<!-- Node1&#45;&gt;Node8 -->
<g id="edge7" class="edge"><title>Node1&#45;&gt;Node8</title>
<path fill="none" stroke="midnightblue" d="M574.133,-112.444C524.878,-102.944 445.372,-87.611 392.529,-77.4198"/>
<polygon fill="midnightblue" stroke="midnightblue" points="393.141,-73.9735 382.659,-75.5164 391.816,-80.8469 393.141,-73.9735"/>
</g>
<!-- Node9 -->
<g id="node9" class="node"><title>Node9</title>
<polygon fill="white" stroke="#bfbfbf" points="394.5,-0.5 394.5,-19.5 438.5,-19.5 438.5,-0.5 394.5,-0.5"/>
<text text-anchor="middle" x="416.5" y="-7.5" font-family="Helvetica,sans-Serif" font-size="10.00">string</text>
</g>
<!-- Node1&#45;&gt;Node9 -->
<g id="edge8" class="edge"><title>Node1&#45;&gt;Node9</title>
<path fill="none" stroke="midnightblue" d="M568.986,-112.434C539.806,-105.764 503.119,-94.4479 474.5,-76 455.104,-63.4976 438.225,-42.8086 427.753,-28.1327"/>
<polygon fill="midnightblue" stroke="midnightblue" points="430.377,-25.7704 421.835,-19.5034 424.604,-29.7297 430.377,-25.7704"/>
</g>
<!-- Node10 -->
<g id="node10" class="node"><title>Node10</title>
<polygon fill="white" stroke="#bfbfbf" points="457,-0.5 457,-19.5 504,-19.5 504,-0.5 457,-0.5"/>
<text text-anchor="middle" x="480.5" y="-7.5" font-family="Helvetica,sans-Serif" font-size="10.00">vector</text>
</g>
<!-- Node1&#45;&gt;Node10 -->
<g id="edge9" class="edge"><title>Node1&#45;&gt;Node10</title>
<path fill="none" stroke="midnightblue" d="M557.479,-114.838C531.622,-108.979 503.578,-97.6834 486.5,-76 476.319,-63.0741 475.757,-43.9028 477.177,-29.7276"/>
<polygon fill="midnightblue" stroke="midnightblue" points="480.668,-30.0354 478.595,-19.6453 473.736,-29.0602 480.668,-30.0354"/>
</g>
<!-- Node11 -->
<g id="node11" class="node"><title>Node11</title>
<polygon fill="white" stroke="#bfbfbf" points="727,-0.5 727,-19.5 812,-19.5 812,-0.5 727,-0.5"/>
<text text-anchor="middle" x="769.5" y="-7.5" font-family="Helvetica,sans-Serif" font-size="10.00">QMessageBox</text>
</g>
<!-- Node1&#45;&gt;Node11 -->
<g id="edge10" class="edge"><title>Node1&#45;&gt;Node11</title>
<path fill="none" stroke="midnightblue" d="M628.62,-112.479C643.874,-99.7513 673.817,-75.214 700.5,-56 715.587,-45.1357 733.145,-33.7011 746.773,-25.0771"/>
<polygon fill="midnightblue" stroke="midnightblue" points="748.894,-27.8786 755.502,-19.5972 745.172,-21.9501 748.894,-27.8786"/>
</g>
<!-- Node12 -->
<g id="node12" class="node"><title>Node12</title>
<polygon fill="white" stroke="#bfbfbf" points="709.5,-56.5 709.5,-75.5 831.5,-75.5 831.5,-56.5 709.5,-56.5"/>
<text text-anchor="middle" x="770.5" y="-63.5" font-family="Helvetica,sans-Serif" font-size="10.00">QSortFilterProxyModel</text>
</g>
<!-- Node1&#45;&gt;Node12 -->
<g id="edge11" class="edge"><title>Node1&#45;&gt;Node12</title>
<path fill="none" stroke="midnightblue" d="M642.585,-112.444C668.045,-103.399 708.394,-89.064 736.959,-78.9158"/>
<polygon fill="midnightblue" stroke="midnightblue" points="738.277,-82.1622 746.528,-75.5164 735.933,-75.5661 738.277,-82.1622"/>
</g>
<!-- Node13 -->
<g id="node13" class="node"><title>Node13</title>
<polygon fill="white" stroke="#bfbfbf" points="849.5,-56.5 849.5,-75.5 947.5,-75.5 947.5,-56.5 849.5,-56.5"/>
<text text-anchor="middle" x="898.5" y="-63.5" font-family="Helvetica,sans-Serif" font-size="10.00">QStringListModel</text>
</g>
<!-- Node1&#45;&gt;Node13 -->
<g id="edge12" class="edge"><title>Node1&#45;&gt;Node13</title>
<path fill="none" stroke="midnightblue" d="M662.867,-112.444C712.122,-102.944 791.628,-87.611 844.471,-77.4198"/>
<polygon fill="midnightblue" stroke="midnightblue" points="845.184,-80.8469 854.341,-75.5164 843.859,-73.9735 845.184,-80.8469"/>
</g>
<!-- Node14 -->
<g id="node14" class="node"><title>Node14</title>
<polygon fill="white" stroke="#bfbfbf" points="965.5,-56.5 965.5,-75.5 1109.5,-75.5 1109.5,-56.5 965.5,-56.5"/>
<text text-anchor="middle" x="1037.5" y="-63.5" font-family="Helvetica,sans-Serif" font-size="10.00">boost/range/algorithm.hpp</text>
</g>
<!-- Node1&#45;&gt;Node14 -->
<g id="edge13" class="edge"><title>Node1&#45;&gt;Node14</title>
<path fill="none" stroke="midnightblue" d="M679.875,-113.09C754.534,-103.468 880.579,-87.2237 961.356,-76.8133"/>
<polygon fill="midnightblue" stroke="midnightblue" points="961.994,-80.2601 971.464,-75.5106 961.099,-73.3176 961.994,-80.2601"/>
</g>
<!-- Node15 -->
<g id="node15" class="node"><title>Node15</title>
<g id="a_node15"><a xlink:href="guiassert_8h.xhtml" target="_top" xlink:title="GUI assertions that should not crash the program by default. ">
<polygon fill="white" stroke="black" points="583.5,-56.5 583.5,-75.5 653.5,-75.5 653.5,-56.5 583.5,-56.5"/>
<text text-anchor="middle" x="618.5" y="-63.5" font-family="Helvetica,sans-Serif" font-size="10.00">guiassert.h</text>
</a>
</g>
</g>
<!-- Node1&#45;&gt;Node15 -->
<g id="edge14" class="edge"><title>Node1&#45;&gt;Node15</title>
<path fill="none" stroke="midnightblue" d="M618.5,-112.083C618.5,-105.006 618.5,-94.8611 618.5,-85.9865"/>
<polygon fill="midnightblue" stroke="midnightblue" points="622,-85.751 618.5,-75.7511 615,-85.7511 622,-85.751"/>
</g>
<!-- Node18 -->
<g id="node18" class="node"><title>Node18</title>
<g id="a_node18"><a xlink:href="language_8h.xhtml" target="_top" xlink:title="Localization and translation facilities. ">
<polygon fill="white" stroke="black" points="495.5,-56.5 495.5,-75.5 565.5,-75.5 565.5,-56.5 495.5,-56.5"/>
<text text-anchor="middle" x="530.5" y="-63.5" font-family="Helvetica,sans-Serif" font-size="10.00">language.h</text>
</a>
</g>
</g>
<!-- Node1&#45;&gt;Node18 -->
<g id="edge18" class="edge"><title>Node1&#45;&gt;Node18</title>
<path fill="none" stroke="midnightblue" d="M604.361,-112.324C590.634,-103.9 569.564,-90.9709 553.436,-81.0741"/>
<polygon fill="midnightblue" stroke="midnightblue" points="554.957,-77.9016 544.604,-75.6545 551.296,-83.8678 554.957,-77.9016"/>
</g>
<!-- Node19 -->
<g id="node19" class="node"><title>Node19</title>
<g id="a_node19"><a xlink:href="overload_8h.xhtml" target="_top" xlink:title="Facilities to help with pointers to overloaded functions. ">
<polygon fill="white" stroke="black" points="1128,-56.5 1128,-75.5 1195,-75.5 1195,-56.5 1128,-56.5"/>
<text text-anchor="middle" x="1161.5" y="-63.5" font-family="Helvetica,sans-Serif" font-size="10.00">overload.h</text>
</a>
</g>
</g>
<!-- Node1&#45;&gt;Node19 -->
<g id="edge22" class="edge"><title>Node1&#45;&gt;Node19</title>
<path fill="none" stroke="midnightblue" d="M679.576,-117.804C772.119,-112.454 953.543,-99.9867 1117.49,-75.972"/>
<polygon fill="midnightblue" stroke="midnightblue" points="1118.39,-79.3776 1127.77,-74.4484 1117.36,-72.4533 1118.39,-79.3776"/>
</g>
<!-- Node3 -->
<g id="node3" class="node"><title>Node3</title>
<polygon fill="white" stroke="#bfbfbf" points="0,-0.5 0,-19.5 57,-19.5 57,-0.5 0,-0.5"/>
<text text-anchor="middle" x="28.5" y="-7.5" font-family="Helvetica,sans-Serif" font-size="10.00">memory</text>
</g>
<!-- Node2&#45;&gt;Node3 -->
<g id="edge2" class="edge"><title>Node2&#45;&gt;Node3</title>
<path fill="none" stroke="midnightblue" d="M159.781,-56.4435C133.652,-47.3986 92.2406,-33.064 62.9236,-22.9158"/>
<polygon fill="midnightblue" stroke="midnightblue" points="63.6978,-19.4801 53.103,-19.5164 61.408,-26.0951 63.6978,-19.4801"/>
</g>
<!-- Node4 -->
<g id="node4" class="node"><title>Node4</title>
<polygon fill="white" stroke="#bfbfbf" points="75.5,-0.5 75.5,-19.5 129.5,-19.5 129.5,-0.5 75.5,-0.5"/>
<text text-anchor="middle" x="102.5" y="-7.5" font-family="Helvetica,sans-Serif" font-size="10.00">QDialog</text>
</g>
<!-- Node2&#45;&gt;Node4 -->
<g id="edge3" class="edge"><title>Node2&#45;&gt;Node4</title>
<path fill="none" stroke="midnightblue" d="M171.325,-56.324C158.653,-47.979 139.267,-35.2122 124.294,-25.3524"/>
<polygon fill="midnightblue" stroke="midnightblue" points="125.919,-22.2313 115.642,-19.6545 122.069,-28.0776 125.919,-22.2313"/>
</g>
<!-- Node5 -->
<g id="node5" class="node"><title>Node5</title>
<polygon fill="white" stroke="#bfbfbf" points="147.5,-0.5 147.5,-19.5 211.5,-19.5 211.5,-0.5 147.5,-0.5"/>
<text text-anchor="middle" x="179.5" y="-7.5" font-family="Helvetica,sans-Serif" font-size="10.00">QSettings</text>
</g>
<!-- Node2&#45;&gt;Node5 -->
<g id="edge4" class="edge"><title>Node2&#45;&gt;Node5</title>
<path fill="none" stroke="midnightblue" d="M183.674,-56.083C183.019,-49.0059 182.08,-38.8611 181.258,-29.9865"/>
<polygon fill="midnightblue" stroke="midnightblue" points="184.717,-29.3858 180.31,-19.7511 177.747,-30.0312 184.717,-29.3858"/>
</g>
<!-- Node6 -->
<g id="node6" class="node"><title>Node6</title>
<polygon fill="white" stroke="#bfbfbf" points="230,-0.5 230,-19.5 281,-19.5 281,-0.5 230,-0.5"/>
<text text-anchor="middle" x="255.5" y="-7.5" font-family="Helvetica,sans-Serif" font-size="10.00">QTimer</text>
</g>
<!-- Node2&#45;&gt;Node6 -->
<g id="edge5" class="edge"><title>Node2&#45;&gt;Node6</title>
<path fill="none" stroke="midnightblue" d="M195.907,-56.324C206.609,-48.1849 222.841,-35.8395 235.663,-26.0874"/>
<polygon fill="midnightblue" stroke="midnightblue" points="238.044,-28.6734 243.885,-19.8339 233.807,-23.1018 238.044,-28.6734"/>
</g>
<!-- Node7 -->
<g id="node7" class="node"><title>Node7</title>
<polygon fill="white" stroke="#bfbfbf" points="299,-0.5 299,-19.5 376,-19.5 376,-0.5 299,-0.5"/>
<text text-anchor="middle" x="337.5" y="-7.5" font-family="Helvetica,sans-Serif" font-size="10.00">QUndoStack</text>
</g>
<!-- Node2&#45;&gt;Node7 -->
<g id="edge6" class="edge"><title>Node2&#45;&gt;Node7</title>
<path fill="none" stroke="midnightblue" d="M208.743,-56.4435C234.371,-47.3986 274.985,-33.064 303.738,-22.9158"/>
<polygon fill="midnightblue" stroke="midnightblue" points="305.105,-26.1452 313.37,-19.5164 302.775,-19.5442 305.105,-26.1452"/>
</g>
<!-- Node15&#45;&gt;Node11 -->
<g id="edge15" class="edge"><title>Node15&#45;&gt;Node11</title>
<path fill="none" stroke="midnightblue" d="M642.426,-56.4435C667.719,-47.3986 707.802,-33.064 736.18,-22.9158"/>
<polygon fill="midnightblue" stroke="midnightblue" points="737.448,-26.1794 745.686,-19.5164 735.091,-19.5882 737.448,-26.1794"/>
</g>
<!-- Node16 -->
<g id="node16" class="node"><title>Node16</title>
<polygon fill="white" stroke="#bfbfbf" points="522,-0.5 522,-19.5 575,-19.5 575,-0.5 522,-0.5"/>
<text text-anchor="middle" x="548.5" y="-7.5" font-family="Helvetica,sans-Serif" font-size="10.00">QString</text>
</g>
<!-- Node15&#45;&gt;Node16 -->
<g id="edge16" class="edge"><title>Node15&#45;&gt;Node16</title>
<path fill="none" stroke="midnightblue" d="M607.253,-56.324C596.703,-48.1849 580.699,-35.8395 568.058,-26.0874"/>
<polygon fill="midnightblue" stroke="midnightblue" points="570.007,-23.1707 559.951,-19.8339 565.731,-28.7132 570.007,-23.1707"/>
</g>
<!-- Node17 -->
<g id="node17" class="node"><title>Node17</title>
<polygon fill="white" stroke="#bfbfbf" points="592.5,-0.5 592.5,-19.5 708.5,-19.5 708.5,-0.5 592.5,-0.5"/>
<text text-anchor="middle" x="650.5" y="-7.5" font-family="Helvetica,sans-Serif" font-size="10.00">src/ext/source_info.h</text>
</g>
<!-- Node15&#45;&gt;Node17 -->
<g id="edge17" class="edge"><title>Node15&#45;&gt;Node17</title>
<path fill="none" stroke="midnightblue" d="M623.784,-56.083C628.211,-48.6127 634.663,-37.7244 640.118,-28.5199"/>
<polygon fill="midnightblue" stroke="midnightblue" points="643.227,-30.1383 645.314,-19.7511 637.205,-26.5697 643.227,-30.1383"/>
</g>
<!-- Node18&#45;&gt;Node9 -->
<g id="edge19" class="edge"><title>Node18&#45;&gt;Node9</title>
<path fill="none" stroke="midnightblue" d="M512.436,-56.4435C493.925,-47.6751 464.919,-33.9355 443.645,-23.8579"/>
<polygon fill="midnightblue" stroke="midnightblue" points="445.015,-20.6343 434.479,-19.5164 442.018,-26.9604 445.015,-20.6343"/>
</g>
<!-- Node18&#45;&gt;Node10 -->
<g id="edge20" class="edge"><title>Node18&#45;&gt;Node10</title>
<path fill="none" stroke="midnightblue" d="M522.244,-56.083C515.035,-48.2982 504.39,-36.8015 495.654,-27.3665"/>
<polygon fill="midnightblue" stroke="midnightblue" points="497.965,-24.7108 488.603,-19.7511 492.829,-29.4666 497.965,-24.7108"/>
</g>
<!-- Node18&#45;&gt;Node16 -->
<g id="edge21" class="edge"><title>Node18&#45;&gt;Node16</title>
<path fill="none" stroke="midnightblue" d="M533.472,-56.083C535.884,-48.8486 539.364,-38.4087 542.368,-29.3968"/>
<polygon fill="midnightblue" stroke="midnightblue" points="545.741,-30.3447 545.583,-19.7511 539.1,-28.1311 545.741,-30.3447"/>
</g>
</g>
</svg>
        <g id="navigator" transform="translate(0 0)" fill="#404254">
                <rect fill="#f2f5e9" fill-opacity="0.5" stroke="#606060" stroke-width=".5" x="0" y="0" width="60" height="60"/>
                <use id="zoomplus" xlink:href="#zoomPlus" x="17" y="9" onmousedown="handleZoom(evt,'in')"/>
                <use id="zoomminus" xlink:href="#zoomMin" x="42" y="9" onmousedown="handleZoom(evt,'out')"/>
                <use id="reset" xlink:href="#resetDef" x="30" y="36" onmousedown="handleReset()"/>
                <g id="arrowUp" xlink:href="#dirArrow" transform="translate(30 24)" onmousedown="handlePan(0,-1)">
                  <use xlink:href="#rim" fill="#404040">
                        <set attributeName="fill" to="#808080" begin="arrowUp.mouseover" end="arrowUp.mouseout"/>
                  </use>
                  <path fill="none" stroke="white" stroke-width="1.5" d="M0,-3.0v7 M-2.5,-0.5L0,-3.0L2.5,-0.5"/>
                </g>
                <g id="arrowRight" xlink:href="#dirArrow" transform="rotate(90) translate(36 -43)" onmousedown="handlePan(1,0)">
                  <use xlink:href="#rim" fill="#404040">
                        <set attributeName="fill" to="#808080" begin="arrowRight.mouseover" end="arrowRight.mouseout"/>
                  </use>
                  <path fill="none" stroke="white" stroke-width="1.5" d="M0,-3.0v7 M-2.5,-0.5L0,-3.0L2.5,-0.5"/>
                </g>
                <g id="arrowDown" xlink:href="#dirArrow" transform="rotate(180) translate(-30 -48)" onmousedown="handlePan(0,1)">
                  <use xlink:href="#rim" fill="#404040">
                        <set attributeName="fill" to="#808080" begin="arrowDown.mouseover" end="arrowDown.mouseout"/>
                  </use>
                  <path fill="none" stroke="white" stroke-width="1.5" d="M0,-3.0v7 M-2.5,-0.5L0,-3.0L2.5,-0.5"/>
                </g>
                <g id="arrowLeft" xlink:href="#dirArrow" transform="rotate(270) translate(-36 17)" onmousedown="handlePan(-1,0)">
                  <use xlink:href="#rim" fill="#404040">
                        <set attributeName="fill" to="#808080" begin="arrowLeft.mouseover" end="arrowLeft.mouseout"/>
                  </use>
                  <path fill="none" stroke="white" stroke-width="1.5" d="M0,-3.0v7 M-2.5,-0.5L0,-3.0L2.5,-0.5"/>
                </g>
        </g>
        <svg viewBox="0 0 15 15" width="100%" height="30px" preserveAspectRatio="xMaxYMin meet">
         <g id="arrow_out" transform="scale(0.3 0.3)">
          <a xlink:href="preferencesdialog_8cpp__incl_org.svg" target="_base">
           <rect id="button" ry="5" rx="5" y="6" x="6" height="38" width="38"
                fill="#f2f5e9" fill-opacity="0.5" stroke="#606060" stroke-width="1.0"/>
           <path id="arrow"
             d="M 11.500037,31.436501 C 11.940474,20.09759 22.043105,11.32322 32.158766,21.979434 L 37.068811,17.246167 C 37.068811,17.246167 37.088388,32 37.088388,32 L 22.160133,31.978069 C 22.160133,31.978069 26.997745,27.140456 26.997745,27.140456 C 18.528582,18.264221 13.291696,25.230495 11.500037,31.436501 z"
             style="fill:#404040;"/>
          </a>
         </g>
        </svg>
</svg>
