<?xml version="1.0" encoding="UTF-8" standalone="no"?>
<!DOCTYPE svg PUBLIC "-//W3C//DTD SVG 1.1//EN"
 "http://www.w3.org/Graphics/SVG/1.1/DTD/svg11.dtd">
<!-- Generated by graphviz version 2.38.0 (20140413.2041)
 -->
<!-- Title: producttablemodel.cpp Pages: 1 -->
<svg width="696pt" height="140pt"
 viewBox="0.00 0.00 695.50 140.00" xmlns="http://www.w3.org/2000/svg" xmlns:xlink="http://www.w3.org/1999/xlink">
<g id="graph0" class="graph" transform="scale(1 1) rotate(0) translate(4 136)">
<title>producttablemodel.cpp</title>
<polygon fill="white" stroke="none" points="-4,4 -4,-136 691.5,-136 691.5,4 -4,4"/>
<!-- Node1 -->
<g id="node1" class="node"><title>Node1</title>
<polygon fill="#bfbfbf" stroke="black" points="262.5,-112.5 262.5,-131.5 390.5,-131.5 390.5,-112.5 262.5,-112.5"/>
<text text-anchor="middle" x="326.5" y="-119.5" font-family="Helvetica,sans-Serif" font-size="10.00">producttablemodel.cpp</text>
</g>
<!-- Node2 -->
<g id="node2" class="node"><title>Node2</title>
<g id="a_node2"><a xlink:href="producttablemodel_8h.xhtml" target="_top" xlink:title="Table model for reporting products. ">
<polygon fill="white" stroke="black" points="92.5,-56.5 92.5,-75.5 208.5,-75.5 208.5,-56.5 92.5,-56.5"/>
<text text-anchor="middle" x="150.5" y="-63.5" font-family="Helvetica,sans-Serif" font-size="10.00">producttablemodel.h</text>
</a>
</g>
</g>
<!-- Node1&#45;&gt;Node2 -->
<g id="edge1" class="edge"><title>Node1&#45;&gt;Node2</title>
<path fill="none" stroke="midnightblue" d="M298.612,-112.444C268.746,-103.28 221.185,-88.6876 188.044,-78.5192"/>
<polygon fill="midnightblue" stroke="midnightblue" points="188.844,-75.1037 178.257,-75.5164 186.791,-81.7958 188.844,-75.1037"/>
</g>
<!-- Node6 -->
<g id="node6" class="node"><title>Node6</title>
<polygon fill="white" stroke="#bfbfbf" points="253.5,-56.5 253.5,-75.5 323.5,-75.5 323.5,-56.5 253.5,-56.5"/>
<text text-anchor="middle" x="288.5" y="-63.5" font-family="Helvetica,sans-Serif" font-size="10.00">src/event.h</text>
</g>
<!-- Node1&#45;&gt;Node6 -->
<g id="edge5" class="edge"><title>Node1&#45;&gt;Node6</title>
<path fill="none" stroke="midnightblue" d="M320.225,-112.083C314.858,-104.455 306.982,-93.2645 300.421,-83.9408"/>
<polygon fill="midnightblue" stroke="midnightblue" points="303.275,-81.9149 294.658,-75.7511 297.551,-85.9434 303.275,-81.9149"/>
</g>
<!-- Node7 -->
<g id="node7" class="node"><title>Node7</title>
<g id="a_node7"><a xlink:href="align_8h.xhtml" target="_top" xlink:title="Text alignment common conventions. ">
<polygon fill="white" stroke="black" points="341.5,-56.5 341.5,-75.5 389.5,-75.5 389.5,-56.5 341.5,-56.5"/>
<text text-anchor="middle" x="365.5" y="-63.5" font-family="Helvetica,sans-Serif" font-size="10.00">align.h</text>
</a>
</g>
</g>
<!-- Node1&#45;&gt;Node7 -->
<g id="edge6" class="edge"><title>Node1&#45;&gt;Node7</title>
<path fill="none" stroke="midnightblue" d="M332.94,-112.083C338.449,-104.455 346.531,-93.2645 353.265,-83.9408"/>
<polygon fill="midnightblue" stroke="midnightblue" points="356.162,-85.9071 359.18,-75.7511 350.487,-81.8087 356.162,-85.9071"/>
</g>
<!-- Node9 -->
<g id="node9" class="node"><title>Node9</title>
<g id="a_node9"><a xlink:href="guiassert_8h.xhtml" target="_top" xlink:title="GUI assertions that should not crash the program by default. ">
<polygon fill="white" stroke="black" points="449.5,-56.5 449.5,-75.5 519.5,-75.5 519.5,-56.5 449.5,-56.5"/>
<text text-anchor="middle" x="484.5" y="-63.5" font-family="Helvetica,sans-Serif" font-size="10.00">guiassert.h</text>
</a>
</g>
</g>
<!-- Node1&#45;&gt;Node9 -->
<g id="edge8" class="edge"><title>Node1&#45;&gt;Node9</title>
<path fill="none" stroke="midnightblue" d="M351.536,-112.444C378.116,-103.359 420.309,-88.9388 450.023,-78.7831"/>
<polygon fill="midnightblue" stroke="midnightblue" points="451.251,-82.0625 459.582,-75.5164 448.987,-75.4386 451.251,-82.0625"/>
</g>
<!-- Node3 -->
<g id="node3" class="node"><title>Node3</title>
<polygon fill="white" stroke="#bfbfbf" points="0,-0.5 0,-19.5 47,-19.5 47,-0.5 0,-0.5"/>
<text text-anchor="middle" x="23.5" y="-7.5" font-family="Helvetica,sans-Serif" font-size="10.00">vector</text>
</g>
<!-- Node2&#45;&gt;Node3 -->
<g id="edge2" class="edge"><title>Node2&#45;&gt;Node3</title>
<path fill="none" stroke="midnightblue" d="M130.376,-56.4435C109.476,-47.5566 76.5653,-33.5632 52.7839,-23.4514"/>
<polygon fill="midnightblue" stroke="midnightblue" points="54.1016,-20.2085 43.5294,-19.5164 51.3625,-26.6504 54.1016,-20.2085"/>
</g>
<!-- Node4 -->
<g id="node4" class="node"><title>Node4</title>
<polygon fill="white" stroke="#bfbfbf" points="65,-0.5 65,-19.5 182,-19.5 182,-0.5 65,-0.5"/>
<text text-anchor="middle" x="123.5" y="-7.5" font-family="Helvetica,sans-Serif" font-size="10.00">QAbstractTableModel</text>
</g>
<!-- Node2&#45;&gt;Node4 -->
<g id="edge3" class="edge"><title>Node2&#45;&gt;Node4</title>
<path fill="none" stroke="midnightblue" d="M146.041,-56.083C142.346,-48.6913 136.977,-37.9533 132.406,-28.8111"/>
<polygon fill="midnightblue" stroke="midnightblue" points="135.478,-27.1301 127.876,-19.7511 129.217,-30.2606 135.478,-27.1301"/>
</g>
<!-- Node5 -->
<g id="node5" class="node"><title>Node5</title>
<polygon fill="white" stroke="#bfbfbf" points="200.5,-0.5 200.5,-19.5 332.5,-19.5 332.5,-0.5 200.5,-0.5"/>
<text text-anchor="middle" x="266.5" y="-7.5" font-family="Helvetica,sans-Serif" font-size="10.00">src/fault_tree_analysis.h</text>
</g>
<!-- Node2&#45;&gt;Node5 -->
<g id="edge4" class="edge"><title>Node2&#45;&gt;Node5</title>
<path fill="none" stroke="midnightblue" d="M168.881,-56.4435C187.716,-47.6751 217.231,-33.9355 238.879,-23.8579"/>
<polygon fill="midnightblue" stroke="midnightblue" points="240.617,-26.9098 248.205,-19.5164 237.662,-20.5637 240.617,-26.9098"/>
</g>
<!-- Node8 -->
<g id="node8" class="node"><title>Node8</title>
<polygon fill="white" stroke="#bfbfbf" points="351,-0.5 351,-19.5 380,-19.5 380,-0.5 351,-0.5"/>
<text text-anchor="middle" x="365.5" y="-7.5" font-family="Helvetica,sans-Serif" font-size="10.00">Qt</text>
</g>
<!-- Node7&#45;&gt;Node8 -->
<g id="edge7" class="edge"><title>Node7&#45;&gt;Node8</title>
<path fill="none" stroke="midnightblue" d="M365.5,-56.083C365.5,-49.0059 365.5,-38.8611 365.5,-29.9865"/>
<polygon fill="midnightblue" stroke="midnightblue" points="369,-29.751 365.5,-19.7511 362,-29.7511 369,-29.751"/>
</g>
<!-- Node10 -->
<g id="node10" class="node"><title>Node10</title>
<polygon fill="white" stroke="#bfbfbf" points="398,-0.5 398,-19.5 483,-19.5 483,-0.5 398,-0.5"/>
<text text-anchor="middle" x="440.5" y="-7.5" font-family="Helvetica,sans-Serif" font-size="10.00">QMessageBox</text>
</g>
<!-- Node9&#45;&gt;Node10 -->
<g id="edge9" class="edge"><title>Node9&#45;&gt;Node10</title>
<path fill="none" stroke="midnightblue" d="M477.234,-56.083C470.955,-48.3768 461.712,-37.0333 454.069,-27.6531"/>
<polygon fill="midnightblue" stroke="midnightblue" points="456.661,-25.2926 447.631,-19.7511 451.234,-29.7143 456.661,-25.2926"/>
</g>
<!-- Node11 -->
<g id="node11" class="node"><title>Node11</title>
<polygon fill="white" stroke="#bfbfbf" points="501,-0.5 501,-19.5 554,-19.5 554,-0.5 501,-0.5"/>
<text text-anchor="middle" x="527.5" y="-7.5" font-family="Helvetica,sans-Serif" font-size="10.00">QString</text>
</g>
<!-- Node9&#45;&gt;Node11 -->
<g id="edge10" class="edge"><title>Node9&#45;&gt;Node11</title>
<path fill="none" stroke="midnightblue" d="M491.601,-56.083C497.737,-48.3768 506.77,-37.0333 514.239,-27.6531"/>
<polygon fill="midnightblue" stroke="midnightblue" points="517.04,-29.7542 520.532,-19.7511 511.564,-25.3936 517.04,-29.7542"/>
</g>
<!-- Node12 -->
<g id="node12" class="node"><title>Node12</title>
<polygon fill="white" stroke="#bfbfbf" points="571.5,-0.5 571.5,-19.5 687.5,-19.5 687.5,-0.5 571.5,-0.5"/>
<text text-anchor="middle" x="629.5" y="-7.5" font-family="Helvetica,sans-Serif" font-size="10.00">src/ext/source_info.h</text>
</g>
<!-- Node9&#45;&gt;Node12 -->
<g id="edge11" class="edge"><title>Node9&#45;&gt;Node12</title>
<path fill="none" stroke="midnightblue" d="M507.476,-56.4435C531.657,-47.4381 569.918,-33.1891 597.146,-23.049"/>
<polygon fill="midnightblue" stroke="midnightblue" points="598.482,-26.2864 606.632,-19.5164 596.039,-19.7265 598.482,-26.2864"/>
</g>
</g>
</svg>
