<?xml version="1.0" encoding="UTF-8" standalone="no"?>
<!DOCTYPE svg PUBLIC "-//W3C//DTD SVG 1.1//EN"
 "http://www.w3.org/Graphics/SVG/1.1/DTD/svg11.dtd">
<!-- Generated by graphviz version 2.38.0 (20140413.2041)
 -->
<!-- Title: reporttree.cpp Pages: 1 -->
<svg width="617pt" height="140pt"
 viewBox="0.00 0.00 616.50 140.00" xmlns="http://www.w3.org/2000/svg" xmlns:xlink="http://www.w3.org/1999/xlink">
<g id="graph0" class="graph" transform="scale(1 1) rotate(0) translate(4 136)">
<title>reporttree.cpp</title>
<polygon fill="white" stroke="none" points="-4,4 -4,-136 612.5,-136 612.5,4 -4,4"/>
<!-- Node1 -->
<g id="node1" class="node"><title>Node1</title>
<polygon fill="#bfbfbf" stroke="black" points="142.5,-112.5 142.5,-131.5 228.5,-131.5 228.5,-112.5 142.5,-112.5"/>
<text text-anchor="middle" x="185.5" y="-119.5" font-family="Helvetica,sans-Serif" font-size="10.00">reporttree.cpp</text>
</g>
<!-- Node2 -->
<g id="node2" class="node"><title>Node2</title>
<polygon fill="white" stroke="#bfbfbf" points="81,-56.5 81,-75.5 130,-75.5 130,-56.5 81,-56.5"/>
<text text-anchor="middle" x="105.5" y="-63.5" font-family="Helvetica,sans-Serif" font-size="10.00">cstdint</text>
</g>
<!-- Node1&#45;&gt;Node2 -->
<g id="edge1" class="edge"><title>Node1&#45;&gt;Node2</title>
<path fill="none" stroke="midnightblue" d="M172.647,-112.324C160.284,-103.979 141.37,-91.2122 126.763,-81.3524"/>
<polygon fill="midnightblue" stroke="midnightblue" points="128.568,-78.3483 118.321,-75.6545 124.652,-84.1503 128.568,-78.3483"/>
</g>
<!-- Node3 -->
<g id="node3" class="node"><title>Node3</title>
<g id="a_node3"><a xlink:href="reporttree_8h.xhtml" target="_top" xlink:title="Report tree model to represent the analysis results. ">
<polygon fill="white" stroke="black" points="148.5,-56.5 148.5,-75.5 222.5,-75.5 222.5,-56.5 148.5,-56.5"/>
<text text-anchor="middle" x="185.5" y="-63.5" font-family="Helvetica,sans-Serif" font-size="10.00">reporttree.h</text>
</a>
</g>
</g>
<!-- Node1&#45;&gt;Node3 -->
<g id="edge2" class="edge"><title>Node1&#45;&gt;Node3</title>
<path fill="none" stroke="midnightblue" d="M185.5,-112.083C185.5,-105.006 185.5,-94.8611 185.5,-85.9865"/>
<polygon fill="midnightblue" stroke="midnightblue" points="189,-85.751 185.5,-75.7511 182,-85.7511 189,-85.751"/>
</g>
<!-- Node7 -->
<g id="node7" class="node"><title>Node7</title>
<g id="a_node7"><a xlink:href="guiassert_8h.xhtml" target="_top" xlink:title="GUI assertions that should not crash the program by default. ">
<polygon fill="white" stroke="black" points="369.5,-56.5 369.5,-75.5 439.5,-75.5 439.5,-56.5 369.5,-56.5"/>
<text text-anchor="middle" x="404.5" y="-63.5" font-family="Helvetica,sans-Serif" font-size="10.00">guiassert.h</text>
</a>
</g>
</g>
<!-- Node1&#45;&gt;Node7 -->
<g id="edge6" class="edge"><title>Node1&#45;&gt;Node7</title>
<path fill="none" stroke="midnightblue" d="M220.201,-112.444C258.085,-103.102 318.849,-88.1194 360.162,-77.9326"/>
<polygon fill="midnightblue" stroke="midnightblue" points="361.09,-81.3088 369.961,-75.5164 359.414,-74.5123 361.09,-81.3088"/>
</g>
<!-- Node4 -->
<g id="node4" class="node"><title>Node4</title>
<polygon fill="white" stroke="#bfbfbf" points="0,-0.5 0,-19.5 47,-19.5 47,-0.5 0,-0.5"/>
<text text-anchor="middle" x="23.5" y="-7.5" font-family="Helvetica,sans-Serif" font-size="10.00">vector</text>
</g>
<!-- Node3&#45;&gt;Node4 -->
<g id="edge3" class="edge"><title>Node3&#45;&gt;Node4</title>
<path fill="none" stroke="midnightblue" d="M159.831,-56.4435C132.016,-47.1721 87.5281,-32.3427 56.9842,-22.1614"/>
<polygon fill="midnightblue" stroke="midnightblue" points="57.7982,-18.7435 47.2046,-18.9015 55.5846,-25.3843 57.7982,-18.7435"/>
</g>
<!-- Node5 -->
<g id="node5" class="node"><title>Node5</title>
<polygon fill="white" stroke="#bfbfbf" points="65,-0.5 65,-19.5 180,-19.5 180,-0.5 65,-0.5"/>
<text text-anchor="middle" x="122.5" y="-7.5" font-family="Helvetica,sans-Serif" font-size="10.00">QAbstractItemModel</text>
</g>
<!-- Node3&#45;&gt;Node5 -->
<g id="edge4" class="edge"><title>Node3&#45;&gt;Node5</title>
<path fill="none" stroke="midnightblue" d="M175.378,-56.324C165.974,-48.2631 151.756,-36.0765 140.431,-26.3695"/>
<polygon fill="midnightblue" stroke="midnightblue" points="142.677,-23.6844 132.806,-19.8339 138.121,-28.9993 142.677,-23.6844"/>
</g>
<!-- Node6 -->
<g id="node6" class="node"><title>Node6</title>
<polygon fill="white" stroke="#bfbfbf" points="198,-0.5 198,-19.5 301,-19.5 301,-0.5 198,-0.5"/>
<text text-anchor="middle" x="249.5" y="-7.5" font-family="Helvetica,sans-Serif" font-size="10.00">src/risk_analysis.h</text>
</g>
<!-- Node3&#45;&gt;Node6 -->
<g id="edge5" class="edge"><title>Node3&#45;&gt;Node6</title>
<path fill="none" stroke="midnightblue" d="M195.783,-56.324C205.336,-48.2631 219.78,-36.0765 231.284,-26.3695"/>
<polygon fill="midnightblue" stroke="midnightblue" points="233.644,-28.9577 239.03,-19.8339 229.13,-23.6076 233.644,-28.9577"/>
</g>
<!-- Node8 -->
<g id="node8" class="node"><title>Node8</title>
<polygon fill="white" stroke="#bfbfbf" points="319,-0.5 319,-19.5 404,-19.5 404,-0.5 319,-0.5"/>
<text text-anchor="middle" x="361.5" y="-7.5" font-family="Helvetica,sans-Serif" font-size="10.00">QMessageBox</text>
</g>
<!-- Node7&#45;&gt;Node8 -->
<g id="edge7" class="edge"><title>Node7&#45;&gt;Node8</title>
<path fill="none" stroke="midnightblue" d="M397.399,-56.083C391.263,-48.3768 382.23,-37.0333 374.761,-27.6531"/>
<polygon fill="midnightblue" stroke="midnightblue" points="377.436,-25.3936 368.468,-19.7511 371.96,-29.7542 377.436,-25.3936"/>
</g>
<!-- Node9 -->
<g id="node9" class="node"><title>Node9</title>
<polygon fill="white" stroke="#bfbfbf" points="422,-0.5 422,-19.5 475,-19.5 475,-0.5 422,-0.5"/>
<text text-anchor="middle" x="448.5" y="-7.5" font-family="Helvetica,sans-Serif" font-size="10.00">QString</text>
</g>
<!-- Node7&#45;&gt;Node9 -->
<g id="edge8" class="edge"><title>Node7&#45;&gt;Node9</title>
<path fill="none" stroke="midnightblue" d="M411.766,-56.083C418.045,-48.3768 427.288,-37.0333 434.931,-27.6531"/>
<polygon fill="midnightblue" stroke="midnightblue" points="437.766,-29.7143 441.369,-19.7511 432.339,-25.2926 437.766,-29.7143"/>
</g>
<!-- Node10 -->
<g id="node10" class="node"><title>Node10</title>
<polygon fill="white" stroke="#bfbfbf" points="492.5,-0.5 492.5,-19.5 608.5,-19.5 608.5,-0.5 492.5,-0.5"/>
<text text-anchor="middle" x="550.5" y="-7.5" font-family="Helvetica,sans-Serif" font-size="10.00">src/ext/source_info.h</text>
</g>
<!-- Node7&#45;&gt;Node10 -->
<g id="edge9" class="edge"><title>Node7&#45;&gt;Node10</title>
<path fill="none" stroke="midnightblue" d="M427.634,-56.4435C451.982,-47.4381 490.507,-33.1891 517.923,-23.049"/>
<polygon fill="midnightblue" stroke="midnightblue" points="519.309,-26.2681 527.474,-19.5164 516.881,-19.7028 519.309,-26.2681"/>
</g>
</g>
</svg>
