<?xml version="1.0" encoding="UTF-8" standalone="no"?>
<!DOCTYPE svg PUBLIC "-//W3C//DTD SVG 1.1//EN"
 "http://www.w3.org/Graphics/SVG/1.1/DTD/svg11.dtd">
<!-- Generated by graphviz version 2.38.0 (20140413.2041)
 -->
<!-- Title: %3 Pages: 1 -->
<svg width="1516pt" height="332pt"
 viewBox="0.00 0.00 1516.04 332.00" xmlns="http://www.w3.org/2000/svg" xmlns:xlink="http://www.w3.org/1999/xlink">
<g id="graph0" class="graph" transform="scale(1 1) rotate(0) translate(4 328)">
<title>%3</title>
<polygon fill="white" stroke="none" points="-4,4 -4,-328 1512.04,-328 1512.04,4 -4,4"/>
<!-- diagram -->
<g id="node1" class="node"><title>diagram</title>
<ellipse fill="none" stroke="black" cx="196.994" cy="-234" rx="49.2915" ry="18"/>
<text text-anchor="middle" x="196.994" y="-230.3" font-family="Times,serif" font-size="14.00">diagram</text>
</g>
<!-- model -->
<g id="node5" class="node"><title>model</title>
<ellipse fill="none" stroke="black" cx="204.994" cy="-162" rx="38.9931" ry="18"/>
<text text-anchor="middle" x="204.994" y="-158.3" font-family="Times,serif" font-size="14.00">model</text>
</g>
<!-- diagram&#45;&gt;model -->
<g id="edge2" class="edge"><title>diagram&#45;&gt;model</title>
<path fill="none" stroke="black" d="M198.972,-215.697C199.853,-207.983 200.913,-198.712 201.896,-190.112"/>
<polygon fill="black" stroke="black" points="205.381,-190.437 203.039,-180.104 198.427,-189.642 205.381,-190.437"/>
</g>
<!-- overload -->
<g id="node13" class="node"><title>overload</title>
<ellipse fill="none" stroke="black" cx="312.994" cy="-162" rx="50.8918" ry="18"/>
<text text-anchor="middle" x="312.994" y="-158.3" font-family="Times,serif" font-size="14.00">overload</text>
</g>
<!-- diagram&#45;&gt;overload -->
<g id="edge1" class="edge"><title>diagram&#45;&gt;overload</title>
<path fill="none" stroke="black" d="M221.312,-218.326C238.211,-208.128 260.949,-194.407 279.553,-183.18"/>
<polygon fill="black" stroke="black" points="281.556,-186.059 288.309,-177.896 277.939,-180.066 281.556,-186.059"/>
</g>
<!-- ext -->
<g id="node2" class="node"><title>ext</title>
<ellipse fill="none" stroke="black" cx="769.994" cy="-18" rx="27" ry="18"/>
<text text-anchor="middle" x="769.994" y="-14.3" font-family="Times,serif" font-size="14.00">ext</text>
</g>
<!-- Boost -->
<g id="node3" class="node"><title>Boost</title>
<ellipse fill="none" stroke="black" cx="442.994" cy="-90" rx="37.0935" ry="18"/>
<text text-anchor="middle" x="442.994" y="-86.3" font-family="Times,serif" font-size="14.00">Boost</text>
</g>
<!-- printable -->
<g id="node4" class="node"><title>printable</title>
<ellipse fill="none" stroke="black" cx="1244.99" cy="-90" rx="53.0913" ry="18"/>
<text text-anchor="middle" x="1244.99" y="-86.3" font-family="Times,serif" font-size="14.00">printable</text>
</g>
<!-- Qt5 -->
<g id="node12" class="node"><title>Qt5</title>
<ellipse fill="none" stroke="black" cx="877.994" cy="-18" rx="27.8951" ry="18"/>
<text text-anchor="middle" x="877.994" y="-14.3" font-family="Times,serif" font-size="14.00">Qt5</text>
</g>
<!-- printable&#45;&gt;Qt5 -->
<g id="edge3" class="edge"><title>printable&#45;&gt;Qt5</title>
<path fill="none" stroke="black" d="M1199.62,-80.3464C1126.08,-66.3189 982.273,-38.8896 914.713,-26.0036"/>
<polygon fill="black" stroke="black" points="915.026,-22.5002 904.547,-24.0646 913.714,-29.3763 915.026,-22.5002"/>
</g>
<!-- model&#45;&gt;Boost -->
<g id="edge4" class="edge"><title>model&#45;&gt;Boost</title>
<path fill="none" stroke="black" d="M234.55,-150.035C240.616,-147.925 246.984,-145.811 252.994,-144 316.158,-124.966 333.961,-127.463 396.994,-108 399.74,-107.152 402.561,-106.233 405.39,-105.275"/>
<polygon fill="black" stroke="black" points="406.666,-108.536 414.941,-101.919 404.346,-101.932 406.666,-108.536"/>
</g>
<!-- command -->
<g id="node8" class="node"><title>command</title>
<ellipse fill="none" stroke="black" cx="331.994" cy="-90" rx="55.7903" ry="18"/>
<text text-anchor="middle" x="331.994" y="-86.3" font-family="Times,serif" font-size="14.00">command</text>
</g>
<!-- model&#45;&gt;command -->
<g id="edge7" class="edge"><title>model&#45;&gt;command</title>
<path fill="none" stroke="black" d="M229.181,-147.669C248.073,-137.256 274.618,-122.625 296.003,-110.837"/>
<polygon fill="black" stroke="black" points="297.747,-113.873 304.815,-105.981 294.368,-107.742 297.747,-113.873"/>
</g>
<!-- core -->
<g id="node21" class="node"><title>core</title>
<ellipse fill="none" stroke="black" cx="628.994" cy="-90" rx="31.3957" ry="18"/>
<text text-anchor="middle" x="628.994" y="-86.3" font-family="Times,serif" font-size="14.00">core</text>
</g>
<!-- model&#45;&gt;core -->
<g id="edge5" class="edge"><title>model&#45;&gt;core</title>
<path fill="none" stroke="black" d="M233.902,-149.712C240.129,-147.577 246.726,-145.535 252.994,-144 285.137,-136.127 498.187,-107.997 588.571,-96.2318"/>
<polygon fill="black" stroke="black" points="589.246,-99.6736 598.711,-94.9136 588.343,-92.732 589.246,-99.6736"/>
</g>
<!-- guiassert -->
<g id="node22" class="node"><title>guiassert</title>
<ellipse fill="none" stroke="black" cx="769.994" cy="-90" rx="53.8905" ry="18"/>
<text text-anchor="middle" x="769.994" y="-86.3" font-family="Times,serif" font-size="14.00">guiassert</text>
</g>
<!-- model&#45;&gt;guiassert -->
<g id="edge6" class="edge"><title>model&#45;&gt;guiassert</title>
<path fill="none" stroke="black" d="M233.331,-149.628C239.711,-147.444 246.514,-145.404 252.994,-144 434.366,-104.706 484.898,-131.42 668.994,-108 683.684,-106.131 699.506,-103.679 714.167,-101.221"/>
<polygon fill="black" stroke="black" points="714.835,-104.658 724.104,-99.5255 713.658,-97.7575 714.835,-104.658"/>
</g>
<!-- mainwindow -->
<g id="node6" class="node"><title>mainwindow</title>
<ellipse fill="none" stroke="black" cx="875.994" cy="-306" rx="69.5877" ry="18"/>
<text text-anchor="middle" x="875.994" y="-302.3" font-family="Times,serif" font-size="14.00">mainwindow</text>
</g>
<!-- mainwindow&#45;&gt;diagram -->
<g id="edge8" class="edge"><title>mainwindow&#45;&gt;diagram</title>
<path fill="none" stroke="black" d="M806.93,-303.602C691.64,-300.268 453.081,-289.096 254.994,-252 250.875,-251.229 246.63,-250.284 242.398,-249.239"/>
<polygon fill="black" stroke="black" points="243.175,-245.825 232.612,-246.654 241.386,-252.592 243.175,-245.825"/>
</g>
<!-- mainwindow&#45;&gt;printable -->
<g id="edge9" class="edge"><title>mainwindow&#45;&gt;printable</title>
<path fill="none" stroke="black" d="M935.606,-296.66C1043.43,-280.222 1263.9,-239.951 1308.99,-180 1318.61,-167.213 1315.8,-158.479 1308.99,-144 1302.82,-130.869 1291.62,-119.874 1280.29,-111.364"/>
<polygon fill="black" stroke="black" points="1282.29,-108.49 1272.09,-105.612 1278.27,-114.22 1282.29,-108.49"/>
</g>
<!-- producttablemodel -->
<g id="node7" class="node"><title>producttablemodel</title>
<ellipse fill="none" stroke="black" cx="912.994" cy="-162" rx="98.5829" ry="18"/>
<text text-anchor="middle" x="912.994" y="-158.3" font-family="Times,serif" font-size="14.00">producttablemodel</text>
</g>
<!-- mainwindow&#45;&gt;producttablemodel -->
<g id="edge11" class="edge"><title>mainwindow&#45;&gt;producttablemodel</title>
<path fill="none" stroke="black" d="M898.66,-288.833C909.758,-279.486 921.996,-266.677 927.994,-252 936.196,-231.929 931.149,-207.553 924.779,-189.389"/>
<polygon fill="black" stroke="black" points="928.029,-188.088 921.18,-180.005 921.493,-190.595 928.029,-188.088"/>
</g>
<!-- preferencesdialog -->
<g id="node9" class="node"><title>preferencesdialog</title>
<ellipse fill="none" stroke="black" cx="752.994" cy="-234" rx="94.7833" ry="18"/>
<text text-anchor="middle" x="752.994" y="-230.3" font-family="Times,serif" font-size="14.00">preferencesdialog</text>
</g>
<!-- mainwindow&#45;&gt;preferencesdialog -->
<g id="edge18" class="edge"><title>mainwindow&#45;&gt;preferencesdialog</title>
<path fill="none" stroke="black" d="M848.391,-289.291C831.347,-279.591 809.253,-267.017 790.62,-256.413"/>
<polygon fill="black" stroke="black" points="792.211,-253.291 781.789,-251.387 788.749,-259.375 792.211,-253.291"/>
</g>
<!-- eventdialog -->
<g id="node10" class="node"><title>eventdialog</title>
<ellipse fill="none" stroke="black" cx="64.9942" cy="-234" rx="64.9885" ry="18"/>
<text text-anchor="middle" x="64.9942" y="-230.3" font-family="Times,serif" font-size="14.00">eventdialog</text>
</g>
<!-- mainwindow&#45;&gt;eventdialog -->
<g id="edge17" class="edge"><title>mainwindow&#45;&gt;eventdialog</title>
<path fill="none" stroke="black" d="M807.021,-303.579C676.109,-300.1 382.891,-288.562 138.994,-252 133.232,-251.136 127.253,-250.064 121.305,-248.881"/>
<polygon fill="black" stroke="black" points="121.87,-245.423 111.366,-246.802 120.438,-252.275 121.87,-245.423"/>
</g>
<!-- zoomableview -->
<g id="node14" class="node"><title>zoomableview</title>
<ellipse fill="none" stroke="black" cx="1431.99" cy="-234" rx="76.0865" ry="18"/>
<text text-anchor="middle" x="1431.99" y="-230.3" font-family="Times,serif" font-size="14.00">zoomableview</text>
</g>
<!-- mainwindow&#45;&gt;zoomableview -->
<g id="edge14" class="edge"><title>mainwindow&#45;&gt;zoomableview</title>
<path fill="none" stroke="black" d="M940.643,-299.161C1030.8,-290.674 1199.29,-273.563 1341.99,-252 1349.73,-250.831 1357.82,-249.483 1365.84,-248.068"/>
<polygon fill="black" stroke="black" points="1366.71,-251.468 1375.93,-246.248 1365.47,-244.579 1366.71,-251.468"/>
</g>
<!-- settingsdialog -->
<g id="node15" class="node"><title>settingsdialog</title>
<ellipse fill="none" stroke="black" cx="582.994" cy="-162" rx="76.8869" ry="18"/>
<text text-anchor="middle" x="582.994" y="-158.3" font-family="Times,serif" font-size="14.00">settingsdialog</text>
</g>
<!-- mainwindow&#45;&gt;settingsdialog -->
<g id="edge15" class="edge"><title>mainwindow&#45;&gt;settingsdialog</title>
<path fill="none" stroke="black" d="M877.5,-287.978C878.267,-267.872 876.186,-234.791 856.994,-216 796.206,-156.483 752.502,-196.249 668.994,-180 662.72,-178.779 656.189,-177.501 649.656,-176.218"/>
<polygon fill="black" stroke="black" points="649.91,-172.701 639.422,-174.204 648.558,-179.569 649.91,-172.701"/>
</g>
<!-- reporttree -->
<g id="node18" class="node"><title>reporttree</title>
<ellipse fill="none" stroke="black" cx="736.994" cy="-162" rx="59.2899" ry="18"/>
<text text-anchor="middle" x="736.994" y="-158.3" font-family="Times,serif" font-size="14.00">reporttree</text>
</g>
<!-- mainwindow&#45;&gt;reporttree -->
<g id="edge16" class="edge"><title>mainwindow&#45;&gt;reporttree</title>
<path fill="none" stroke="black" d="M885.387,-287.924C894.57,-268.67 905.143,-237.28 889.994,-216 883.787,-207.281 830.82,-190.179 788.923,-177.754"/>
<polygon fill="black" stroke="black" points="789.671,-174.326 779.09,-174.863 787.696,-181.042 789.671,-174.326"/>
</g>
<!-- elementcontainermodel -->
<g id="node19" class="node"><title>elementcontainermodel</title>
<ellipse fill="none" stroke="black" cx="518.994" cy="-234" rx="120.779" ry="18"/>
<text text-anchor="middle" x="518.994" y="-230.3" font-family="Times,serif" font-size="14.00">elementcontainermodel</text>
</g>
<!-- mainwindow&#45;&gt;elementcontainermodel -->
<g id="edge10" class="edge"><title>mainwindow&#45;&gt;elementcontainermodel</title>
<path fill="none" stroke="black" d="M822.161,-294.445C762.844,-282.814 666.841,-263.989 598.775,-250.643"/>
<polygon fill="black" stroke="black" points="599.429,-247.205 588.943,-248.715 598.082,-254.074 599.429,-247.205"/>
</g>
<!-- importancetablemodel -->
<g id="node23" class="node"><title>importancetablemodel</title>
<ellipse fill="none" stroke="black" cx="1183.99" cy="-162" rx="115.88" ry="18"/>
<text text-anchor="middle" x="1183.99" y="-158.3" font-family="Times,serif" font-size="14.00">importancetablemodel</text>
</g>
<!-- mainwindow&#45;&gt;importancetablemodel -->
<g id="edge13" class="edge"><title>mainwindow&#45;&gt;importancetablemodel</title>
<path fill="none" stroke="black" d="M908.664,-289.938C964.181,-264.342 1076.99,-212.334 1139.6,-183.465"/>
<polygon fill="black" stroke="black" points="1141.22,-186.574 1148.84,-179.209 1138.29,-180.217 1141.22,-186.574"/>
</g>
<!-- modeltree -->
<g id="node24" class="node"><title>modeltree</title>
<ellipse fill="none" stroke="black" cx="321.994" cy="-234" rx="57.6901" ry="18"/>
<text text-anchor="middle" x="321.994" y="-230.3" font-family="Times,serif" font-size="14.00">modeltree</text>
</g>
<!-- mainwindow&#45;&gt;modeltree -->
<g id="edge12" class="edge"><title>mainwindow&#45;&gt;modeltree</title>
<path fill="none" stroke="black" d="M809.405,-300.721C715.224,-293.998 537.976,-278.871 388.994,-252 383.957,-251.091 378.737,-250.014 373.537,-248.848"/>
<polygon fill="black" stroke="black" points="374.148,-245.397 363.613,-246.521 372.55,-252.212 374.148,-245.397"/>
</g>
<!-- align -->
<g id="node17" class="node"><title>align</title>
<ellipse fill="none" stroke="black" cx="925.994" cy="-90" rx="33.5952" ry="18"/>
<text text-anchor="middle" x="925.994" y="-86.3" font-family="Times,serif" font-size="14.00">align</text>
</g>
<!-- producttablemodel&#45;&gt;align -->
<g id="edge19" class="edge"><title>producttablemodel&#45;&gt;align</title>
<path fill="none" stroke="black" d="M916.208,-143.697C917.64,-135.983 919.362,-126.712 920.959,-118.112"/>
<polygon fill="black" stroke="black" points="924.433,-118.575 922.818,-108.104 917.551,-117.297 924.433,-118.575"/>
</g>
<!-- STL -->
<g id="node20" class="node"><title>STL</title>
<ellipse fill="none" stroke="black" cx="569.994" cy="-18" rx="28.6953" ry="18"/>
<text text-anchor="middle" x="569.994" y="-14.3" font-family="Times,serif" font-size="14.00">STL</text>
</g>
<!-- producttablemodel&#45;&gt;STL -->
<g id="edge21" class="edge"><title>producttablemodel&#45;&gt;STL</title>
<path fill="none" stroke="black" d="M902.597,-143.906C889.177,-123.407 863.848,-89.6136 832.994,-72 794.964,-50.2897 670.914,-31.8788 607.724,-23.633"/>
<polygon fill="black" stroke="black" points="608.127,-20.1561 597.762,-22.3516 607.234,-27.0989 608.127,-20.1561"/>
</g>
<!-- producttablemodel&#45;&gt;core -->
<g id="edge20" class="edge"><title>producttablemodel&#45;&gt;core</title>
<path fill="none" stroke="black" d="M856.885,-147.17C800.743,-133.333 715.91,-112.423 667.141,-100.402"/>
<polygon fill="black" stroke="black" points="667.851,-96.9728 657.304,-97.9779 666.176,-103.769 667.851,-96.9728"/>
</g>
<!-- producttablemodel&#45;&gt;guiassert -->
<g id="edge22" class="edge"><title>producttablemodel&#45;&gt;guiassert</title>
<path fill="none" stroke="black" d="M880.187,-144.941C858.831,-134.486 830.883,-120.806 808.478,-109.838"/>
<polygon fill="black" stroke="black" points="809.771,-106.574 799.25,-105.321 806.693,-112.861 809.771,-106.574"/>
</g>
<!-- command&#45;&gt;Qt5 -->
<g id="edge23" class="edge"><title>command&#45;&gt;Qt5</title>
<path fill="none" stroke="black" d="M371.984,-77.4157C380.201,-75.3539 388.835,-73.4158 396.994,-72 576.788,-40.8037 625.839,-65.0417 805.994,-36 818.155,-34.0396 831.31,-31.1621 843.006,-28.3298"/>
<polygon fill="black" stroke="black" points="843.992,-31.6914 852.848,-25.8767 842.299,-24.8992 843.992,-31.6914"/>
</g>
<!-- command&#45;&gt;STL -->
<g id="edge24" class="edge"><title>command&#45;&gt;STL</title>
<path fill="none" stroke="black" d="M371.83,-77.2836C417.403,-63.8797 491.326,-42.1378 534.841,-29.3393"/>
<polygon fill="black" stroke="black" points="536.084,-32.622 544.69,-26.4425 534.108,-25.9065 536.084,-32.622"/>
</g>
<!-- language -->
<g id="node11" class="node"><title>language</title>
<ellipse fill="none" stroke="black" cx="434.994" cy="-162" rx="53.0913" ry="18"/>
<text text-anchor="middle" x="434.994" y="-158.3" font-family="Times,serif" font-size="14.00">language</text>
</g>
<!-- preferencesdialog&#45;&gt;language -->
<g id="edge25" class="edge"><title>preferencesdialog&#45;&gt;language</title>
<path fill="none" stroke="black" d="M688.301,-220.786C636.392,-210.702 561.755,-195.566 496.994,-180 492.904,-179.017 488.675,-177.955 484.436,-176.858"/>
<polygon fill="black" stroke="black" points="485.15,-173.427 474.588,-174.259 483.363,-180.195 485.15,-173.427"/>
</g>
<!-- preferencesdialog&#45;&gt;overload -->
<g id="edge26" class="edge"><title>preferencesdialog&#45;&gt;overload</title>
<path fill="none" stroke="black" d="M684.514,-221.483C672.679,-219.585 660.488,-217.689 648.994,-216 526.602,-198.02 494.162,-204.928 372.994,-180 368.641,-179.104 364.142,-178.059 359.655,-176.935"/>
<polygon fill="black" stroke="black" points="360.474,-173.531 349.913,-174.376 358.695,-180.302 360.474,-173.531"/>
</g>
<!-- eventdialog&#45;&gt;model -->
<g id="edge29" class="edge"><title>eventdialog&#45;&gt;model</title>
<path fill="none" stroke="black" d="M95.0277,-217.983C117.06,-206.967 147.036,-191.979 170.126,-180.434"/>
<polygon fill="black" stroke="black" points="171.861,-183.48 179.24,-175.877 168.73,-177.219 171.861,-183.48"/>
</g>
<!-- eventdialog&#45;&gt;overload -->
<g id="edge27" class="edge"><title>eventdialog&#45;&gt;overload</title>
<path fill="none" stroke="black" d="M109.062,-220.594C147.165,-209.864 203.719,-193.926 252.994,-180 256.812,-178.921 260.765,-177.803 264.738,-176.678"/>
<polygon fill="black" stroke="black" points="265.918,-179.982 274.587,-173.89 264.011,-173.247 265.918,-179.982"/>
</g>
<!-- validator -->
<g id="node16" class="node"><title>validator</title>
<ellipse fill="none" stroke="black" cx="205.994" cy="-90" rx="51.9908" ry="18"/>
<text text-anchor="middle" x="205.994" y="-86.3" font-family="Times,serif" font-size="14.00">validator</text>
</g>
<!-- eventdialog&#45;&gt;validator -->
<g id="edge28" class="edge"><title>eventdialog&#45;&gt;validator</title>
<path fill="none" stroke="black" d="M81.4447,-216.433C106.385,-191.315 153.88,-143.484 182.467,-114.694"/>
<polygon fill="black" stroke="black" points="185.086,-117.024 189.649,-107.462 180.119,-112.092 185.086,-117.024"/>
</g>
<!-- language&#45;&gt;Boost -->
<g id="edge33" class="edge"><title>language&#45;&gt;Boost</title>
<path fill="none" stroke="black" d="M436.972,-143.697C437.853,-135.983 438.913,-126.712 439.896,-118.112"/>
<polygon fill="black" stroke="black" points="443.381,-118.437 441.039,-108.104 436.427,-117.642 443.381,-118.437"/>
</g>
<!-- language&#45;&gt;STL -->
<g id="edge32" class="edge"><title>language&#45;&gt;STL</title>
<path fill="none" stroke="black" d="M452.263,-144.533C462.985,-134.191 476.966,-120.49 488.994,-108 510.233,-85.9451 533.701,-59.9739 549.885,-41.7986"/>
<polygon fill="black" stroke="black" points="552.752,-43.8404 556.774,-34.0384 547.517,-39.1932 552.752,-43.8404"/>
</g>
<!-- language&#45;&gt;core -->
<g id="edge30" class="edge"><title>language&#45;&gt;core</title>
<path fill="none" stroke="black" d="M470.126,-148.324C505.009,-135.737 558.211,-116.54 593.292,-103.882"/>
<polygon fill="black" stroke="black" points="594.897,-107.024 603.116,-100.338 592.521,-100.439 594.897,-107.024"/>
</g>
<!-- language&#45;&gt;guiassert -->
<g id="edge31" class="edge"><title>language&#45;&gt;guiassert</title>
<path fill="none" stroke="black" d="M474.238,-149.757C481.765,-147.737 489.604,-145.728 496.994,-144 571.127,-126.667 657.512,-110.578 712.929,-100.777"/>
<polygon fill="black" stroke="black" points="713.664,-104.202 722.906,-99.0216 712.451,-97.3078 713.664,-104.202"/>
</g>
<!-- zoomableview&#45;&gt;Qt5 -->
<g id="edge34" class="edge"><title>zoomableview&#45;&gt;Qt5</title>
<path fill="none" stroke="black" d="M1424.43,-216.001C1408.32,-182.05 1367.14,-106.181 1306.99,-72 1240.55,-34.239 1008.26,-23.015 916.093,-20.0046"/>
<polygon fill="black" stroke="black" points="915.928,-16.4978 905.824,-19.6845 915.71,-23.4944 915.928,-16.4978"/>
</g>
<!-- settingsdialog&#45;&gt;STL -->
<g id="edge37" class="edge"><title>settingsdialog&#45;&gt;STL</title>
<path fill="none" stroke="black" d="M581.426,-143.871C579.211,-119.67 575.14,-75.2108 572.502,-46.3932"/>
<polygon fill="black" stroke="black" points="575.965,-45.8285 571.568,-36.1893 568.994,-46.4667 575.965,-45.8285"/>
</g>
<!-- settingsdialog&#45;&gt;core -->
<g id="edge35" class="edge"><title>settingsdialog&#45;&gt;core</title>
<path fill="none" stroke="black" d="M594.13,-144.055C599.691,-135.592 606.527,-125.19 612.668,-115.845"/>
<polygon fill="black" stroke="black" points="615.711,-117.586 618.278,-107.307 609.861,-113.742 615.711,-117.586"/>
</g>
<!-- settingsdialog&#45;&gt;guiassert -->
<g id="edge36" class="edge"><title>settingsdialog&#45;&gt;guiassert</title>
<path fill="none" stroke="black" d="M622.196,-146.326C652.575,-134.954 694.657,-119.201 726.151,-107.412"/>
<polygon fill="black" stroke="black" points="727.422,-110.673 735.56,-103.89 724.968,-104.118 727.422,-110.673"/>
</g>
<!-- validator&#45;&gt;Qt5 -->
<g id="edge38" class="edge"><title>validator&#45;&gt;Qt5</title>
<path fill="none" stroke="black" d="M243.141,-77.3441C250.953,-75.2613 259.192,-73.3333 266.994,-72 503.653,-31.5606 568.575,-71.7071 805.994,-36 818.175,-34.168 831.335,-31.3227 843.03,-28.4805"/>
<polygon fill="black" stroke="black" points="844.023,-31.8398 852.869,-26.0091 842.317,-25.0507 844.023,-31.8398"/>
</g>
<!-- validator&#45;&gt;STL -->
<g id="edge39" class="edge"><title>validator&#45;&gt;STL</title>
<path fill="none" stroke="black" d="M244.245,-77.7186C251.754,-75.6803 259.595,-73.6738 266.994,-72 361.631,-50.5909 474.561,-32.8741 532.148,-24.3927"/>
<polygon fill="black" stroke="black" points="532.851,-27.8272 542.239,-22.9177 531.838,-20.9008 532.851,-27.8272"/>
</g>
<!-- align&#45;&gt;Qt5 -->
<g id="edge40" class="edge"><title>align&#45;&gt;Qt5</title>
<path fill="none" stroke="black" d="M914.861,-72.7646C908.84,-63.9828 901.283,-52.9632 894.582,-43.1903"/>
<polygon fill="black" stroke="black" points="897.278,-40.9337 888.736,-34.6658 891.505,-44.8925 897.278,-40.9337"/>
</g>
<!-- reporttree&#45;&gt;STL -->
<g id="edge42" class="edge"><title>reporttree&#45;&gt;STL</title>
<path fill="none" stroke="black" d="M727.233,-144.184C715.385,-124.883 693.876,-93.1687 668.994,-72 649.254,-55.205 623.317,-41.5603 602.943,-32.3233"/>
<polygon fill="black" stroke="black" points="604.292,-29.0929 593.729,-28.2713 601.474,-35.5007 604.292,-29.0929"/>
</g>
<!-- reporttree&#45;&gt;core -->
<g id="edge41" class="edge"><title>reporttree&#45;&gt;core</title>
<path fill="none" stroke="black" d="M713.026,-145.465C696.621,-134.832 674.793,-120.685 657.497,-109.474"/>
<polygon fill="black" stroke="black" points="659.212,-106.415 648.917,-103.913 655.405,-112.289 659.212,-106.415"/>
</g>
<!-- reporttree&#45;&gt;guiassert -->
<g id="edge43" class="edge"><title>reporttree&#45;&gt;guiassert</title>
<path fill="none" stroke="black" d="M744.983,-144.055C748.737,-136.091 753.301,-126.411 757.497,-117.51"/>
<polygon fill="black" stroke="black" points="760.752,-118.813 761.85,-108.275 754.42,-115.828 760.752,-118.813"/>
</g>
<!-- elementcontainermodel&#45;&gt;model -->
<g id="edge46" class="edge"><title>elementcontainermodel&#45;&gt;model</title>
<path fill="none" stroke="black" d="M440.026,-220.334C386.738,-211.04 315.08,-197.084 252.994,-180 250.022,-179.182 246.968,-178.271 243.911,-177.309"/>
<polygon fill="black" stroke="black" points="244.821,-173.923 234.228,-174.105 242.623,-180.569 244.821,-173.923"/>
</g>
<!-- elementcontainermodel&#45;&gt;overload -->
<g id="edge44" class="edge"><title>elementcontainermodel&#45;&gt;overload</title>
<path fill="none" stroke="black" d="M472.764,-217.291C438.538,-205.661 392.151,-189.898 358.177,-178.354"/>
<polygon fill="black" stroke="black" points="359.097,-174.97 348.503,-175.066 356.845,-181.597 359.097,-174.97"/>
</g>
<!-- elementcontainermodel&#45;&gt;align -->
<g id="edge45" class="edge"><title>elementcontainermodel&#45;&gt;align</title>
<path fill="none" stroke="black" d="M605.305,-221.301C619.878,-219.444 634.859,-217.608 648.994,-216 690.255,-211.307 993.081,-210.745 1020.99,-180 1031.75,-168.154 1029.1,-157.797 1020.99,-144 1008.94,-123.473 985.728,-110.312 965.267,-102.239"/>
<polygon fill="black" stroke="black" points="966.401,-98.9268 955.807,-98.7768 963.995,-105.5 966.401,-98.9268"/>
</g>
<!-- guiassert&#45;&gt;ext -->
<g id="edge47" class="edge"><title>guiassert&#45;&gt;ext</title>
<path fill="none" stroke="black" d="M769.994,-71.6966C769.994,-63.9827 769.994,-54.7125 769.994,-46.1124"/>
<polygon fill="black" stroke="black" points="773.494,-46.1043 769.994,-36.1043 766.494,-46.1044 773.494,-46.1043"/>
</g>
<!-- guiassert&#45;&gt;Qt5 -->
<g id="edge48" class="edge"><title>guiassert&#45;&gt;Qt5</title>
<path fill="none" stroke="black" d="M793.695,-73.6382C810.404,-62.8084 832.835,-48.2697 850.358,-36.9123"/>
<polygon fill="black" stroke="black" points="852.53,-39.6755 859.018,-31.2995 848.723,-33.8015 852.53,-39.6755"/>
</g>
<!-- importancetablemodel&#45;&gt;align -->
<g id="edge49" class="edge"><title>importancetablemodel&#45;&gt;align</title>
<path fill="none" stroke="black" d="M1128.96,-146.069C1079.81,-132.733 1009.02,-113.526 965.345,-101.677"/>
<polygon fill="black" stroke="black" points="966.224,-98.2885 955.656,-99.0478 964.391,-105.044 966.224,-98.2885"/>
</g>
<!-- importancetablemodel&#45;&gt;STL -->
<g id="edge51" class="edge"><title>importancetablemodel&#45;&gt;STL</title>
<path fill="none" stroke="black" d="M1151.78,-144.538C1110.52,-124.196 1036.3,-90.0678 968.994,-72 901.21,-53.8033 694.142,-31.5316 608.104,-22.7833"/>
<polygon fill="black" stroke="black" points="608.29,-19.2843 597.989,-21.7605 607.586,-26.2488 608.29,-19.2843"/>
</g>
<!-- importancetablemodel&#45;&gt;core -->
<g id="edge50" class="edge"><title>importancetablemodel&#45;&gt;core</title>
<path fill="none" stroke="black" d="M1091.28,-151.224C963.254,-137.642 743.866,-114.05 706.994,-108 694.065,-105.879 680.049,-103.006 667.512,-100.226"/>
<polygon fill="black" stroke="black" points="667.91,-96.7278 657.384,-97.9313 666.363,-103.555 667.91,-96.7278"/>
</g>
<!-- importancetablemodel&#45;&gt;guiassert -->
<g id="edge52" class="edge"><title>importancetablemodel&#45;&gt;guiassert</title>
<path fill="none" stroke="black" d="M1108.54,-148.242C1027.35,-134.514 900.054,-112.991 826.886,-100.619"/>
<polygon fill="black" stroke="black" points="827.375,-97.1524 816.931,-98.9362 826.208,-104.054 827.375,-97.1524"/>
</g>
<!-- modeltree&#45;&gt;model -->
<g id="edge54" class="edge"><title>modeltree&#45;&gt;model</title>
<path fill="none" stroke="black" d="M296.607,-217.811C279.049,-207.306 255.557,-193.251 236.758,-182.004"/>
<polygon fill="black" stroke="black" points="238.331,-178.867 227.953,-176.736 234.737,-184.874 238.331,-178.867"/>
</g>
<!-- modeltree&#45;&gt;overload -->
<g id="edge53" class="edge"><title>modeltree&#45;&gt;overload</title>
<path fill="none" stroke="black" d="M319.77,-215.697C318.778,-207.983 317.586,-198.712 316.48,-190.112"/>
<polygon fill="black" stroke="black" points="319.94,-189.576 315.193,-180.104 312.997,-190.469 319.94,-189.576"/>
</g>
</g>
</svg>
