<?xml version="1.0" encoding="UTF-8" standalone="no"?>
<!DOCTYPE svg PUBLIC "-//W3C//DTD SVG 1.1//EN"
 "http://www.w3.org/Graphics/SVG/1.1/DTD/svg11.dtd">
<!-- Generated by graphviz version 2.38.0 (20140413.2041)
 -->
<!-- Title: algorithm.h Pages: 1 -->
<svg width="923pt" height="84pt"
 viewBox="0.00 0.00 923.00 84.00" xmlns="http://www.w3.org/2000/svg" xmlns:xlink="http://www.w3.org/1999/xlink">
<g id="graph0" class="graph" transform="scale(1 1) rotate(0) translate(4 80)">
<title>algorithm.h</title>
<polygon fill="white" stroke="none" points="-4,4 -4,-80 919,-80 919,4 -4,4"/>
<!-- Node1 -->
<g id="node1" class="node"><title>Node1</title>
<polygon fill="#bfbfbf" stroke="black" points="438,-56.5 438,-75.5 509,-75.5 509,-56.5 438,-56.5"/>
<text text-anchor="middle" x="473.5" y="-63.5" font-family="Helvetica,sans-Serif" font-size="10.00">algorithm.h</text>
</g>
<!-- Node2 -->
<g id="node2" class="node"><title>Node2</title>
<g id="a_node2"><a xlink:href="ccf__group_8cc.xhtml" target="_top" xlink:title="Implementation of various common cause failure models. ">
<polygon fill="white" stroke="black" points="0,-0.5 0,-19.5 77,-19.5 77,-0.5 0,-0.5"/>
<text text-anchor="middle" x="38.5" y="-7.5" font-family="Helvetica,sans-Serif" font-size="10.00">ccf_group.cc</text>
</a>
</g>
</g>
<!-- Node1&#45;&gt;Node2 -->
<g id="edge1" class="edge"><title>Node1&#45;&gt;Node2</title>
<path fill="none" stroke="midnightblue" d="M427.746,-60.7207C355.188,-53.7004 209.359,-38.638 86.5,-20 83.4822,-19.5422 80.364,-19.0352 77.2333,-18.5018"/>
<polygon fill="midnightblue" stroke="midnightblue" points="427.619,-64.2245 437.908,-61.6975 428.289,-57.2566 427.619,-64.2245"/>
</g>
<!-- Node3 -->
<g id="node3" class="node"><title>Node3</title>
<g id="a_node3"><a xlink:href="element_8cc.xhtml" target="_top" xlink:title="Implementation of helper features for all elements of the analysis. ">
<polygon fill="white" stroke="black" points="95.5,-0.5 95.5,-19.5 165.5,-19.5 165.5,-0.5 95.5,-0.5"/>
<text text-anchor="middle" x="130.5" y="-7.5" font-family="Helvetica,sans-Serif" font-size="10.00">element.cc</text>
</a>
</g>
</g>
<!-- Node1&#45;&gt;Node3 -->
<g id="edge2" class="edge"><title>Node1&#45;&gt;Node3</title>
<path fill="none" stroke="midnightblue" d="M427.897,-58.8936C369.159,-50.8551 263.974,-35.8725 174.5,-20 171.583,-19.4825 168.562,-18.9203 165.533,-18.3381"/>
<polygon fill="midnightblue" stroke="midnightblue" points="427.58,-62.3827 437.961,-60.2651 428.525,-55.4468 427.58,-62.3827"/>
</g>
<!-- Node4 -->
<g id="node4" class="node"><title>Node4</title>
<g id="a_node4"><a xlink:href="event_8cc.xhtml" target="_top" xlink:title="Implementation of Event Class and its derived classes. ">
<polygon fill="white" stroke="black" points="184,-0.5 184,-19.5 241,-19.5 241,-0.5 184,-0.5"/>
<text text-anchor="middle" x="212.5" y="-7.5" font-family="Helvetica,sans-Serif" font-size="10.00">event.cc</text>
</a>
</g>
</g>
<!-- Node1&#45;&gt;Node4 -->
<g id="edge3" class="edge"><title>Node1&#45;&gt;Node4</title>
<path fill="none" stroke="midnightblue" d="M427.829,-56.2476C382.689,-47.4877 311.703,-33.419 250.5,-20 247.454,-19.3321 244.275,-18.6136 241.11,-17.8843"/>
<polygon fill="midnightblue" stroke="midnightblue" points="427.408,-59.7309 437.891,-58.1952 428.738,-52.8585 427.408,-59.7309"/>
</g>
<!-- Node5 -->
<g id="node5" class="node"><title>Node5</title>
<g id="a_node5"><a xlink:href="random__deviate_8cc.xhtml" target="_top" xlink:title="Implementations of random deviate expressions. ">
<polygon fill="white" stroke="black" points="259.5,-0.5 259.5,-19.5 367.5,-19.5 367.5,-0.5 259.5,-0.5"/>
<text text-anchor="middle" x="313.5" y="-7.5" font-family="Helvetica,sans-Serif" font-size="10.00">random_deviate.cc</text>
</a>
</g>
</g>
<!-- Node1&#45;&gt;Node5 -->
<g id="edge4" class="edge"><title>Node1&#45;&gt;Node5</title>
<path fill="none" stroke="midnightblue" d="M438.454,-53.172C408.326,-43.0039 365.604,-28.5852 338.734,-19.5164"/>
<polygon fill="midnightblue" stroke="midnightblue" points="437.553,-56.5619 448.148,-56.4435 439.792,-49.9295 437.553,-56.5619"/>
</g>
<!-- Node6 -->
<g id="node6" class="node"><title>Node6</title>
<g id="a_node6"><a xlink:href="expression_8cc.xhtml" target="_top" xlink:title="Implementation of the expression base class. ">
<polygon fill="white" stroke="black" points="385.5,-0.5 385.5,-19.5 467.5,-19.5 467.5,-0.5 385.5,-0.5"/>
<text text-anchor="middle" x="426.5" y="-7.5" font-family="Helvetica,sans-Serif" font-size="10.00">expression.cc</text>
</a>
</g>
</g>
<!-- Node1&#45;&gt;Node6 -->
<g id="edge5" class="edge"><title>Node1&#45;&gt;Node6</title>
<path fill="none" stroke="midnightblue" d="M459.079,-48.4314C450.842,-38.9673 440.846,-27.4827 434.117,-19.7511"/>
<polygon fill="midnightblue" stroke="midnightblue" points="456.534,-50.8378 465.739,-56.083 461.814,-46.2421 456.534,-50.8378"/>
</g>
<!-- Node7 -->
<g id="node7" class="node"><title>Node7</title>
<g id="a_node7"><a xlink:href="initializer_8cc.xhtml" target="_top" xlink:title="Implementation of input file processing into analysis constructs. ">
<polygon fill="white" stroke="black" points="486,-0.5 486,-19.5 557,-19.5 557,-0.5 486,-0.5"/>
<text text-anchor="middle" x="521.5" y="-7.5" font-family="Helvetica,sans-Serif" font-size="10.00">initializer.cc</text>
</a>
</g>
</g>
<!-- Node1&#45;&gt;Node7 -->
<g id="edge6" class="edge"><title>Node1&#45;&gt;Node7</title>
<path fill="none" stroke="midnightblue" d="M488.228,-48.4314C496.64,-38.9673 506.849,-27.4827 513.721,-19.7511"/>
<polygon fill="midnightblue" stroke="midnightblue" points="485.454,-46.2836 481.426,-56.083 490.686,-50.9342 485.454,-46.2836"/>
</g>
<!-- Node8 -->
<g id="node8" class="node"><title>Node8</title>
<g id="a_node8"><a xlink:href="pdag_8cc.xhtml" target="_top" xlink:title="Implementation of a Propositional Directed Acyclic Graph with indexed nodes, variables, and gates. ">
<polygon fill="white" stroke="black" points="575.5,-0.5 575.5,-19.5 629.5,-19.5 629.5,-0.5 575.5,-0.5"/>
<text text-anchor="middle" x="602.5" y="-7.5" font-family="Helvetica,sans-Serif" font-size="10.00">pdag.cc</text>
</a>
</g>
</g>
<!-- Node1&#45;&gt;Node8 -->
<g id="edge7" class="edge"><title>Node1&#45;&gt;Node8</title>
<path fill="none" stroke="midnightblue" d="M503.354,-52.503C527.538,-42.3795 560.962,-28.388 582.155,-19.5164"/>
<polygon fill="midnightblue" stroke="midnightblue" points="501.813,-49.3536 493.94,-56.4435 504.516,-55.8106 501.813,-49.3536"/>
</g>
<!-- Node9 -->
<g id="node9" class="node"><title>Node9</title>
<g id="a_node9"><a xlink:href="preprocessor_8cc.xhtml" target="_top" xlink:title="Implementation of preprocessing algorithms. ">
<polygon fill="white" stroke="black" points="647.5,-0.5 647.5,-19.5 739.5,-19.5 739.5,-0.5 647.5,-0.5"/>
<text text-anchor="middle" x="693.5" y="-7.5" font-family="Helvetica,sans-Serif" font-size="10.00">preprocessor.cc</text>
</a>
</g>
</g>
<!-- Node1&#45;&gt;Node9 -->
<g id="edge8" class="edge"><title>Node1&#45;&gt;Node9</title>
<path fill="none" stroke="midnightblue" d="M518.218,-54.0237C559.776,-43.8232 620.813,-28.8414 658.803,-19.5164"/>
<polygon fill="midnightblue" stroke="midnightblue" points="517.237,-50.6606 508.36,-56.4435 518.906,-57.4588 517.237,-50.6606"/>
</g>
<!-- Node10 -->
<g id="node10" class="node"><title>Node10</title>
<g id="a_node10"><a xlink:href="substitution_8cc.xhtml" target="_top" xlink:title="Implementation of Substitution members. ">
<polygon fill="white" stroke="black" points="757.5,-0.5 757.5,-19.5 843.5,-19.5 843.5,-0.5 757.5,-0.5"/>
<text text-anchor="middle" x="800.5" y="-7.5" font-family="Helvetica,sans-Serif" font-size="10.00">substitution.cc</text>
</a>
</g>
</g>
<!-- Node1&#45;&gt;Node10 -->
<g id="edge9" class="edge"><title>Node1&#45;&gt;Node10</title>
<path fill="none" stroke="midnightblue" d="M519.162,-57.6596C573.741,-48.8553 667.827,-33.5815 748.5,-20 751.391,-19.5133 754.372,-19.0076 757.375,-18.4953"/>
<polygon fill="midnightblue" stroke="midnightblue" points="518.431,-54.2321 509.115,-59.2791 519.545,-61.1429 518.431,-54.2321"/>
</g>
<!-- Node11 -->
<g id="node11" class="node"><title>Node11</title>
<g id="a_node11"><a xlink:href="zbdd_8cc.xhtml" target="_top" xlink:title="Implementation of Zero&#45;Suppressed BDD algorithms. ">
<polygon fill="white" stroke="black" points="862,-0.5 862,-19.5 915,-19.5 915,-0.5 862,-0.5"/>
<text text-anchor="middle" x="888.5" y="-7.5" font-family="Helvetica,sans-Serif" font-size="10.00">zbdd.cc</text>
</a>
</g>
</g>
<!-- Node1&#45;&gt;Node11 -->
<g id="edge10" class="edge"><title>Node1&#45;&gt;Node11</title>
<path fill="none" stroke="midnightblue" d="M519.285,-61.4511C590.813,-55.4832 733.236,-41.897 852.5,-20 855.541,-19.4416 858.708,-18.7762 861.846,-18.0635"/>
<polygon fill="midnightblue" stroke="midnightblue" points="518.936,-57.9678 509.257,-62.2764 519.51,-64.9442 518.936,-57.9678"/>
</g>
</g>
</svg>
