<?xml version="1.0" encoding="UTF-8" standalone="no"?>
<!DOCTYPE svg PUBLIC "-//W3C//DTD SVG 1.1//EN"
 "http://www.w3.org/Graphics/SVG/1.1/DTD/svg11.dtd">
<!-- Generated by graphviz version 2.38.0 (20140413.2041)
 -->
<!-- Title: alignment.h Pages: 1 -->
<svg width="1113pt" height="263pt"
 viewBox="0.00 0.00 1112.50 263.00" xmlns="http://www.w3.org/2000/svg" xmlns:xlink="http://www.w3.org/1999/xlink">
<g id="graph0" class="graph" transform="scale(1 1) rotate(0) translate(4 259)">
<title>alignment.h</title>
<polygon fill="white" stroke="none" points="-4,4 -4,-259 1108.5,-259 1108.5,4 -4,4"/>
<!-- Node1 -->
<g id="node1" class="node"><title>Node1</title>
<polygon fill="#bfbfbf" stroke="black" points="762,-235.5 762,-254.5 836,-254.5 836,-235.5 762,-235.5"/>
<text text-anchor="middle" x="799" y="-242.5" font-family="Helvetica,sans-Serif" font-size="10.00">alignment.h</text>
</g>
<!-- Node2 -->
<g id="node2" class="node"><title>Node2</title>
<polygon fill="white" stroke="#bfbfbf" points="995.5,-67.5 995.5,-86.5 1052.5,-86.5 1052.5,-67.5 995.5,-67.5"/>
<text text-anchor="middle" x="1024" y="-74.5" font-family="Helvetica,sans-Serif" font-size="10.00">memory</text>
</g>
<!-- Node1&#45;&gt;Node2 -->
<g id="edge1" class="edge"><title>Node1&#45;&gt;Node2</title>
<path fill="none" stroke="midnightblue" d="M810.78,-235.309C847.231,-208.416 958.463,-126.352 1004.12,-92.6665"/>
<polygon fill="midnightblue" stroke="midnightblue" points="1006.37,-95.3585 1012.34,-86.6051 1002.21,-89.7256 1006.37,-95.3585"/>
</g>
<!-- Node3 -->
<g id="node3" class="node"><title>Node3</title>
<polygon fill="white" stroke="#bfbfbf" points="710,-6 710,-25 754,-25 754,-6 710,-6"/>
<text text-anchor="middle" x="732" y="-13" font-family="Helvetica,sans-Serif" font-size="10.00">string</text>
</g>
<!-- Node1&#45;&gt;Node3 -->
<g id="edge2" class="edge"><title>Node1&#45;&gt;Node3</title>
<path fill="none" stroke="midnightblue" d="M799.585,-235.42C801.043,-208.977 802.965,-126.904 776,-67 770.034,-53.7455 759.403,-41.3947 750.086,-32.2252"/>
<polygon fill="midnightblue" stroke="midnightblue" points="752.396,-29.5928 742.7,-25.3211 747.615,-34.7067 752.396,-29.5928"/>
</g>
<!-- Node4 -->
<g id="node4" class="node"><title>Node4</title>
<polygon fill="white" stroke="#bfbfbf" points="1057.5,-6 1057.5,-25 1104.5,-25 1104.5,-6 1057.5,-6"/>
<text text-anchor="middle" x="1081" y="-13" font-family="Helvetica,sans-Serif" font-size="10.00">vector</text>
</g>
<!-- Node1&#45;&gt;Node4 -->
<g id="edge3" class="edge"><title>Node1&#45;&gt;Node4</title>
<path fill="none" stroke="midnightblue" d="M836.247,-237.329C901.883,-223.233 1035.5,-183.409 1081,-87 1088.66,-70.7702 1087.54,-50.0045 1085.19,-35.2229"/>
<polygon fill="midnightblue" stroke="midnightblue" points="1088.6,-34.4203 1083.28,-25.26 1081.73,-35.7407 1088.6,-34.4203"/>
</g>
<!-- Node5 -->
<g id="node5" class="node"><title>Node5</title>
<g id="a_node5"><a xlink:href="element_8h.xhtml" target="_top" xlink:title="Helper classes, structs, and properties common to all other classes. ">
<polygon fill="white" stroke="black" points="443.5,-67.5 443.5,-86.5 508.5,-86.5 508.5,-67.5 443.5,-67.5"/>
<text text-anchor="middle" x="476" y="-74.5" font-family="Helvetica,sans-Serif" font-size="10.00">element.h</text>
</a>
</g>
</g>
<!-- Node1&#45;&gt;Node5 -->
<g id="edge4" class="edge"><title>Node1&#45;&gt;Node5</title>
<path fill="none" stroke="midnightblue" d="M761.597,-237.341C705.581,-225.893 598.626,-198.194 525,-143 508.095,-130.327 494.224,-110.288 485.608,-95.8088"/>
<polygon fill="midnightblue" stroke="midnightblue" points="488.492,-93.7989 480.51,-86.8314 482.405,-97.2555 488.492,-93.7989"/>
</g>
<!-- Node11 -->
<g id="node11" class="node"><title>Node11</title>
<g id="a_node11"><a xlink:href="instruction_8h.xhtml" target="_top" xlink:title="Model and event tree modifier instructions. ">
<polygon fill="white" stroke="black" points="682,-179.5 682,-198.5 758,-198.5 758,-179.5 682,-179.5"/>
<text text-anchor="middle" x="720" y="-186.5" font-family="Helvetica,sans-Serif" font-size="10.00">instruction.h</text>
</a>
</g>
</g>
<!-- Node1&#45;&gt;Node11 -->
<g id="edge12" class="edge"><title>Node1&#45;&gt;Node11</title>
<path fill="none" stroke="midnightblue" d="M786.307,-235.324C774.099,-226.979 755.422,-214.212 740.997,-204.352"/>
<polygon fill="midnightblue" stroke="midnightblue" points="742.892,-201.408 732.661,-198.655 738.942,-207.187 742.892,-201.408"/>
</g>
<!-- Node5&#45;&gt;Node3 -->
<g id="edge6" class="edge"><title>Node5&#45;&gt;Node3</title>
<path fill="none" stroke="midnightblue" d="M508.671,-71.9746C553.022,-65.9477 634.392,-52.8851 701,-31 702.669,-30.4517 704.365,-29.8367 706.061,-29.1777"/>
<polygon fill="midnightblue" stroke="midnightblue" points="707.769,-32.2529 715.567,-25.0802 704.998,-25.8246 707.769,-32.2529"/>
</g>
<!-- Node5&#45;&gt;Node4 -->
<g id="edge7" class="edge"><title>Node5&#45;&gt;Node4</title>
<path fill="none" stroke="midnightblue" d="M508.79,-74.8618C614.373,-70.9712 944.63,-56.9826 1048,-31 1050.36,-30.4079 1052.76,-29.6621 1055.13,-28.8227"/>
<polygon fill="midnightblue" stroke="midnightblue" points="1056.64,-31.9902 1064.6,-25 1054.01,-25.4996 1056.64,-31.9902"/>
</g>
<!-- Node6 -->
<g id="node6" class="node"><title>Node6</title>
<polygon fill="white" stroke="#bfbfbf" points="496.5,-6 496.5,-25 545.5,-25 545.5,-6 496.5,-6"/>
<text text-anchor="middle" x="521" y="-13" font-family="Helvetica,sans-Serif" font-size="10.00">cstdint</text>
</g>
<!-- Node5&#45;&gt;Node6 -->
<g id="edge5" class="edge"><title>Node5&#45;&gt;Node6</title>
<path fill="none" stroke="midnightblue" d="M482.447,-67.4751C489.197,-58.5501 499.969,-44.3071 508.413,-33.1425"/>
<polygon fill="midnightblue" stroke="midnightblue" points="511.324,-35.0962 514.565,-25.0091 505.741,-30.8737 511.324,-35.0962"/>
</g>
<!-- Node7 -->
<g id="node7" class="node"><title>Node7</title>
<polygon fill="white" stroke="#bfbfbf" points="0,-0.5 0,-30.5 140,-30.5 140,-0.5 0,-0.5"/>
<text text-anchor="start" x="8" y="-18.5" font-family="Helvetica,sans-Serif" font-size="10.00">boost/multi_index/hashed</text>
<text text-anchor="middle" x="70" y="-7.5" font-family="Helvetica,sans-Serif" font-size="10.00">_index.hpp</text>
</g>
<!-- Node5&#45;&gt;Node7 -->
<g id="edge8" class="edge"><title>Node5&#45;&gt;Node7</title>
<path fill="none" stroke="midnightblue" d="M443.439,-72.0097C386.225,-64.8921 263.703,-49.1776 150.092,-31.1337"/>
<polygon fill="midnightblue" stroke="midnightblue" points="150.61,-27.6721 140.183,-29.5502 149.506,-34.5844 150.61,-27.6721"/>
</g>
<!-- Node8 -->
<g id="node8" class="node"><title>Node8</title>
<polygon fill="white" stroke="#bfbfbf" points="158,-0.5 158,-30.5 288,-30.5 288,-0.5 158,-0.5"/>
<text text-anchor="start" x="166" y="-18.5" font-family="Helvetica,sans-Serif" font-size="10.00">boost/multi_index/mem</text>
<text text-anchor="middle" x="223" y="-7.5" font-family="Helvetica,sans-Serif" font-size="10.00">_fun.hpp</text>
</g>
<!-- Node5&#45;&gt;Node8 -->
<g id="edge9" class="edge"><title>Node5&#45;&gt;Node8</title>
<path fill="none" stroke="midnightblue" d="M443.443,-68.3432C405.611,-59.446 342.098,-44.5091 292.937,-32.9476"/>
<polygon fill="midnightblue" stroke="midnightblue" points="293.53,-29.4916 282.994,-30.6092 291.927,-36.3057 293.53,-29.4916"/>
</g>
<!-- Node9 -->
<g id="node9" class="node"><title>Node9</title>
<polygon fill="white" stroke="#bfbfbf" points="306,-6 306,-25 478,-25 478,-6 306,-6"/>
<text text-anchor="middle" x="392" y="-13" font-family="Helvetica,sans-Serif" font-size="10.00">boost/multi_index_container.hpp</text>
</g>
<!-- Node5&#45;&gt;Node9 -->
<g id="edge10" class="edge"><title>Node5&#45;&gt;Node9</title>
<path fill="none" stroke="midnightblue" d="M463.965,-67.4751C450.492,-57.9315 428.434,-42.3073 412.285,-30.8683"/>
<polygon fill="midnightblue" stroke="midnightblue" points="414.196,-27.9332 404.013,-25.0091 410.15,-33.6454 414.196,-27.9332"/>
</g>
<!-- Node10 -->
<g id="node10" class="node"><title>Node10</title>
<polygon fill="white" stroke="#bfbfbf" points="564,-6 564,-25 692,-25 692,-6 564,-6"/>
<text text-anchor="middle" x="628" y="-13" font-family="Helvetica,sans-Serif" font-size="10.00">boost/noncopyable.hpp</text>
</g>
<!-- Node5&#45;&gt;Node10 -->
<g id="edge11" class="edge"><title>Node5&#45;&gt;Node10</title>
<path fill="none" stroke="midnightblue" d="M497.778,-67.4751C523.738,-57.3129 567.311,-40.2564 596.835,-28.6996"/>
<polygon fill="midnightblue" stroke="midnightblue" points="598.226,-31.9135 606.263,-25.0091 595.675,-25.3951 598.226,-31.9135"/>
</g>
<!-- Node11&#45;&gt;Node2 -->
<g id="edge13" class="edge"><title>Node11&#45;&gt;Node2</title>
<path fill="none" stroke="midnightblue" d="M743.601,-179.46C797.253,-160.047 928.513,-112.551 990.518,-90.1153"/>
<polygon fill="midnightblue" stroke="midnightblue" points="991.992,-93.3041 1000.2,-86.6104 989.61,-86.7218 991.992,-93.3041"/>
</g>
<!-- Node11&#45;&gt;Node3 -->
<g id="edge14" class="edge"><title>Node11&#45;&gt;Node3</title>
<path fill="none" stroke="midnightblue" d="M705.048,-179.474C693.068,-171.702 677.127,-159.002 670,-143 666.384,-134.88 667.719,-131.591 670,-123 679.238,-88.2128 703.11,-53.1537 718.392,-33.2035"/>
<polygon fill="midnightblue" stroke="midnightblue" points="721.292,-35.1785 724.726,-25.1556 715.791,-30.8493 721.292,-35.1785"/>
</g>
<!-- Node11&#45;&gt;Node4 -->
<g id="edge15" class="edge"><title>Node11&#45;&gt;Node4</title>
<path fill="none" stroke="midnightblue" d="M758.102,-188.188C828.37,-186.38 978.688,-172.098 1061,-87 1074.38,-73.1659 1078.93,-51.0626 1080.42,-35.2944"/>
<polygon fill="midnightblue" stroke="midnightblue" points="1083.92,-35.3361 1081.04,-25.1411 1076.93,-34.9089 1083.92,-35.3361"/>
</g>
<!-- Node11&#45;&gt;Node5 -->
<g id="edge17" class="edge"><title>Node11&#45;&gt;Node5</title>
<path fill="none" stroke="midnightblue" d="M681.902,-181.423C648.733,-174.731 599.989,-162.528 561,-143 534.974,-129.965 508.964,-108.536 492.701,-93.8717"/>
<polygon fill="midnightblue" stroke="midnightblue" points="494.862,-91.1033 485.136,-86.9001 490.118,-96.2508 494.862,-91.1033"/>
</g>
<!-- Node11&#45;&gt;Node10 -->
<g id="edge16" class="edge"><title>Node11&#45;&gt;Node10</title>
<path fill="none" stroke="midnightblue" d="M704.719,-179.42C692.022,-171.531 674.409,-158.695 664,-143 641.575,-109.184 632.936,-61.361 629.749,-35.2713"/>
<polygon fill="midnightblue" stroke="midnightblue" points="633.219,-34.7992 628.666,-25.2325 626.259,-35.5504 633.219,-34.7992"/>
</g>
<!-- Node12 -->
<g id="node12" class="node"><title>Node12</title>
<g id="a_node12"><a xlink:href="event_8h.xhtml" target="_top" xlink:title="Contains event classes for fault trees. ">
<polygon fill="white" stroke="black" points="679.5,-123.5 679.5,-142.5 732.5,-142.5 732.5,-123.5 679.5,-123.5"/>
<text text-anchor="middle" x="706" y="-130.5" font-family="Helvetica,sans-Serif" font-size="10.00">event.h</text>
</a>
</g>
</g>
<!-- Node11&#45;&gt;Node12 -->
<g id="edge18" class="edge"><title>Node11&#45;&gt;Node12</title>
<path fill="none" stroke="midnightblue" d="M717.688,-179.083C715.833,-171.927 713.165,-161.635 710.846,-152.691"/>
<polygon fill="midnightblue" stroke="midnightblue" points="714.166,-151.553 708.269,-142.751 707.391,-153.309 714.166,-151.553"/>
</g>
<!-- Node15 -->
<g id="node15" class="node"><title>Node15</title>
<g id="a_node15"><a xlink:href="expression_8h.xhtml" target="_top" xlink:title="Provides the base class for all expressions and units for expression values. ">
<polygon fill="white" stroke="black" points="861.5,-67.5 861.5,-86.5 938.5,-86.5 938.5,-67.5 861.5,-67.5"/>
<text text-anchor="middle" x="900" y="-74.5" font-family="Helvetica,sans-Serif" font-size="10.00">expression.h</text>
</a>
</g>
</g>
<!-- Node11&#45;&gt;Node15 -->
<g id="edge34" class="edge"><title>Node11&#45;&gt;Node15</title>
<path fill="none" stroke="midnightblue" d="M734.124,-179.368C765.144,-160.412 839.454,-115.001 877.185,-91.9424"/>
<polygon fill="midnightblue" stroke="midnightblue" points="879.234,-94.7925 885.941,-86.5914 875.583,-88.8195 879.234,-94.7925"/>
</g>
<!-- Node12&#45;&gt;Node2 -->
<g id="edge20" class="edge"><title>Node12&#45;&gt;Node2</title>
<path fill="none" stroke="midnightblue" d="M732.615,-128.044C781.791,-120.647 890.162,-103.93 981,-87 982.453,-86.7292 983.932,-86.4479 985.425,-86.1592"/>
<polygon fill="midnightblue" stroke="midnightblue" points="986.231,-89.5674 995.354,-84.1793 984.862,-82.7026 986.231,-89.5674"/>
</g>
<!-- Node12&#45;&gt;Node3 -->
<g id="edge21" class="edge"><title>Node12&#45;&gt;Node3</title>
<path fill="none" stroke="midnightblue" d="M705.162,-123.438C704.176,-110.863 703.225,-86.7531 708,-67 710.81,-55.3754 716.474,-43.2433 721.594,-33.7846"/>
<polygon fill="midnightblue" stroke="midnightblue" points="724.674,-35.4488 726.591,-25.0287 718.595,-31.9795 724.674,-35.4488"/>
</g>
<!-- Node12&#45;&gt;Node4 -->
<g id="edge24" class="edge"><title>Node12&#45;&gt;Node4</title>
<path fill="none" stroke="midnightblue" d="M732.7,-129.649C777.878,-125.096 871.817,-113.127 947,-87 949.854,-86.0081 1017.77,-50.055 1055.79,-29.8859"/>
<polygon fill="midnightblue" stroke="midnightblue" points="1057.56,-32.9082 1064.75,-25.1291 1054.28,-26.7248 1057.56,-32.9082"/>
</g>
<!-- Node12&#45;&gt;Node5 -->
<g id="edge26" class="edge"><title>Node12&#45;&gt;Node5</title>
<path fill="none" stroke="midnightblue" d="M679.166,-125.7C639.643,-116.421 565.399,-98.9894 518.442,-87.9645"/>
<polygon fill="midnightblue" stroke="midnightblue" points="519.105,-84.5253 508.57,-85.6469 517.505,-91.34 519.105,-84.5253"/>
</g>
<!-- Node12&#45;&gt;Node6 -->
<g id="edge19" class="edge"><title>Node12&#45;&gt;Node6</title>
<path fill="none" stroke="midnightblue" d="M692.095,-123.319C660.355,-103.503 582.328,-54.7885 543.583,-30.5993"/>
<polygon fill="midnightblue" stroke="midnightblue" points="545.403,-27.609 535.066,-25.282 541.695,-33.5468 545.403,-27.609"/>
</g>
<!-- Node12&#45;&gt;Node10 -->
<g id="edge25" class="edge"><title>Node12&#45;&gt;Node10</title>
<path fill="none" stroke="midnightblue" d="M700.137,-123.319C687.32,-104.339 656.599,-58.848 639.675,-33.7882"/>
<polygon fill="midnightblue" stroke="midnightblue" points="642.428,-31.6105 633.931,-25.282 636.627,-35.5281 642.428,-31.6105"/>
</g>
<!-- Node13 -->
<g id="node13" class="node"><title>Node13</title>
<polygon fill="white" stroke="#bfbfbf" points="787,-6 787,-25 829,-25 829,-6 787,-6"/>
<text text-anchor="middle" x="808" y="-13" font-family="Helvetica,sans-Serif" font-size="10.00">utility</text>
</g>
<!-- Node12&#45;&gt;Node13 -->
<g id="edge22" class="edge"><title>Node12&#45;&gt;Node13</title>
<path fill="none" stroke="midnightblue" d="M725.398,-123.368C740.806,-115.689 762.018,-103.177 776,-87 789.156,-71.7797 797.867,-50.2582 802.833,-35.0062"/>
<polygon fill="midnightblue" stroke="midnightblue" points="806.258,-35.773 805.798,-25.1882 799.557,-33.7495 806.258,-35.773"/>
</g>
<!-- Node14 -->
<g id="node14" class="node"><title>Node14</title>
<polygon fill="white" stroke="#bfbfbf" points="717,-67.5 717,-86.5 767,-86.5 767,-67.5 717,-67.5"/>
<text text-anchor="middle" x="742" y="-74.5" font-family="Helvetica,sans-Serif" font-size="10.00">variant</text>
</g>
<!-- Node12&#45;&gt;Node14 -->
<g id="edge23" class="edge"><title>Node12&#45;&gt;Node14</title>
<path fill="none" stroke="midnightblue" d="M711.945,-123.083C716.977,-115.534 724.337,-104.495 730.513,-95.2298"/>
<polygon fill="midnightblue" stroke="midnightblue" points="733.531,-97.0131 736.166,-86.7511 727.707,-93.1301 733.531,-97.0131"/>
</g>
<!-- Node12&#45;&gt;Node15 -->
<g id="edge27" class="edge"><title>Node12&#45;&gt;Node15</title>
<path fill="none" stroke="midnightblue" d="M732.568,-124.605C765.338,-115.483 821.375,-99.8852 859.514,-89.2693"/>
<polygon fill="midnightblue" stroke="midnightblue" points="860.585,-92.6043 869.28,-86.5509 858.708,-85.8607 860.585,-92.6043"/>
</g>
<!-- Node15&#45;&gt;Node3 -->
<g id="edge29" class="edge"><title>Node15&#45;&gt;Node3</title>
<path fill="none" stroke="midnightblue" d="M875.93,-67.4751C846.411,-57.0207 796.291,-39.2698 763.67,-27.7166"/>
<polygon fill="midnightblue" stroke="midnightblue" points="764.745,-24.3844 754.151,-24.345 762.408,-30.9828 764.745,-24.3844"/>
</g>
<!-- Node15&#45;&gt;Node4 -->
<g id="edge31" class="edge"><title>Node15&#45;&gt;Node4</title>
<path fill="none" stroke="midnightblue" d="M932.121,-67.4237C962.348,-59.0743 1008.71,-45.5461 1048,-31 1049.65,-30.3876 1051.34,-29.7342 1053.04,-29.0563"/>
<polygon fill="midnightblue" stroke="midnightblue" points="1054.79,-32.118 1062.66,-25.0207 1052.08,-25.6634 1054.79,-32.118"/>
</g>
<!-- Node15&#45;&gt;Node10 -->
<g id="edge33" class="edge"><title>Node15&#45;&gt;Node10</title>
<path fill="none" stroke="midnightblue" d="M861.318,-67.5383C812.816,-56.9286 729.637,-38.7332 676.808,-27.1767"/>
<polygon fill="midnightblue" stroke="midnightblue" points="677.506,-23.7468 666.989,-25.0289 676.01,-30.5851 677.506,-23.7468"/>
</g>
<!-- Node15&#45;&gt;Node13 -->
<g id="edge30" class="edge"><title>Node15&#45;&gt;Node13</title>
<path fill="none" stroke="midnightblue" d="M886.819,-67.4751C871.926,-57.8431 847.456,-42.0175 829.727,-30.5517"/>
<polygon fill="midnightblue" stroke="midnightblue" points="831.455,-27.5008 821.157,-25.0091 827.653,-33.3787 831.455,-27.5008"/>
</g>
<!-- Node16 -->
<g id="node16" class="node"><title>Node16</title>
<polygon fill="white" stroke="#bfbfbf" points="847,-6 847,-25 909,-25 909,-6 847,-6"/>
<text text-anchor="middle" x="878" y="-13" font-family="Helvetica,sans-Serif" font-size="10.00">algorithm</text>
</g>
<!-- Node15&#45;&gt;Node16 -->
<g id="edge28" class="edge"><title>Node15&#45;&gt;Node16</title>
<path fill="none" stroke="midnightblue" d="M896.848,-67.4751C893.679,-58.9035 888.696,-45.4269 884.649,-34.483"/>
<polygon fill="midnightblue" stroke="midnightblue" points="887.897,-33.1747 881.146,-25.0091 881.332,-35.6023 887.897,-33.1747"/>
</g>
<!-- Node17 -->
<g id="node17" class="node"><title>Node17</title>
<polygon fill="white" stroke="#bfbfbf" points="927,-0.5 927,-30.5 1039,-30.5 1039,-0.5 927,-0.5"/>
<text text-anchor="start" x="935" y="-18.5" font-family="Helvetica,sans-Serif" font-size="10.00">boost/icl/continuous</text>
<text text-anchor="middle" x="983" y="-7.5" font-family="Helvetica,sans-Serif" font-size="10.00">_interval.hpp</text>
</g>
<!-- Node15&#45;&gt;Node17 -->
<g id="edge32" class="edge"><title>Node15&#45;&gt;Node17</title>
<path fill="none" stroke="midnightblue" d="M911.892,-67.4751C923.133,-59.4167 940.422,-47.0229 955.137,-36.4741"/>
<polygon fill="midnightblue" stroke="midnightblue" points="957.35,-39.1939 963.439,-30.523 953.272,-33.5047 957.35,-39.1939"/>
</g>
</g>
</svg>
