<?xml version="1.0" encoding="UTF-8" standalone="no"?>
<!DOCTYPE svg PUBLIC "-//W3C//DTD SVG 1.1//EN"
 "http://www.w3.org/Graphics/SVG/1.1/DTD/svg11.dtd">
<!-- Generated by graphviz version 2.38.0 (20140413.2041)
 -->
<!-- Title: alignment.cc Pages: 1 -->
<svg width="1975pt" height="319pt"
 viewBox="0.00 0.00 1975.00 319.00" xmlns="http://www.w3.org/2000/svg" xmlns:xlink="http://www.w3.org/1999/xlink">
<g id="graph0" class="graph" transform="scale(1 1) rotate(0) translate(4 315)">
<title>alignment.cc</title>
<polygon fill="white" stroke="none" points="-4,4 -4,-315 1971,-315 1971,4 -4,4"/>
<!-- Node1 -->
<g id="node1" class="node"><title>Node1</title>
<polygon fill="#bfbfbf" stroke="black" points="1355,-291.5 1355,-310.5 1433,-310.5 1433,-291.5 1355,-291.5"/>
<text text-anchor="middle" x="1394" y="-298.5" font-family="Helvetica,sans-Serif" font-size="10.00">alignment.cc</text>
</g>
<!-- Node2 -->
<g id="node2" class="node"><title>Node2</title>
<g id="a_node2"><a xlink:href="alignment_8h.xhtml" target="_top" xlink:title="Mission and phase constructs. ">
<polygon fill="white" stroke="black" points="857,-235.5 857,-254.5 931,-254.5 931,-235.5 857,-235.5"/>
<text text-anchor="middle" x="894" y="-242.5" font-family="Helvetica,sans-Serif" font-size="10.00">alignment.h</text>
</a>
</g>
</g>
<!-- Node1&#45;&gt;Node2 -->
<g id="edge1" class="edge"><title>Node1&#45;&gt;Node2</title>
<path fill="none" stroke="midnightblue" d="M1354.77,-295.763C1263.92,-285.951 1039.39,-261.703 941.223,-251.1"/>
<polygon fill="midnightblue" stroke="midnightblue" points="941.325,-247.591 931.007,-249.997 940.574,-254.55 941.325,-247.591"/>
</g>
<!-- Node19 -->
<g id="node19" class="node"><title>Node19</title>
<g id="a_node19"><a xlink:href="error_8h.xhtml" target="_top" xlink:title="Exceptions for SCRAM. ">
<polygon fill="white" stroke="black" points="1370,-235.5 1370,-254.5 1418,-254.5 1418,-235.5 1370,-235.5"/>
<text text-anchor="middle" x="1394" y="-242.5" font-family="Helvetica,sans-Serif" font-size="10.00">error.h</text>
</a>
</g>
</g>
<!-- Node1&#45;&gt;Node19 -->
<g id="edge36" class="edge"><title>Node1&#45;&gt;Node19</title>
<path fill="none" stroke="midnightblue" d="M1394,-291.083C1394,-284.006 1394,-273.861 1394,-264.986"/>
<polygon fill="midnightblue" stroke="midnightblue" points="1397.5,-264.751 1394,-254.751 1390.5,-264.751 1397.5,-264.751"/>
</g>
<!-- Node25 -->
<g id="node25" class="node"><title>Node25</title>
<g id="a_node25"><a xlink:href="float__compare_8h.xhtml" target="_top" xlink:title="Floating pointing comparison helper functions. ">
<polygon fill="white" stroke="black" points="1816.5,-235.5 1816.5,-254.5 1929.5,-254.5 1929.5,-235.5 1816.5,-235.5"/>
<text text-anchor="middle" x="1873" y="-242.5" font-family="Helvetica,sans-Serif" font-size="10.00">ext/float_compare.h</text>
</a>
</g>
</g>
<!-- Node1&#45;&gt;Node25 -->
<g id="edge43" class="edge"><title>Node1&#45;&gt;Node25</title>
<path fill="none" stroke="midnightblue" d="M1433.2,-295.581C1514.96,-286.363 1704.51,-264.995 1806,-253.553"/>
<polygon fill="midnightblue" stroke="midnightblue" points="1806.6,-257.008 1816.14,-252.41 1805.81,-250.052 1806.6,-257.008"/>
</g>
<!-- Node3 -->
<g id="node3" class="node"><title>Node3</title>
<polygon fill="white" stroke="#bfbfbf" points="963.5,-67.5 963.5,-86.5 1020.5,-86.5 1020.5,-67.5 963.5,-67.5"/>
<text text-anchor="middle" x="992" y="-74.5" font-family="Helvetica,sans-Serif" font-size="10.00">memory</text>
</g>
<!-- Node2&#45;&gt;Node3 -->
<g id="edge2" class="edge"><title>Node2&#45;&gt;Node3</title>
<path fill="none" stroke="midnightblue" d="M899.269,-235.075C914.895,-208.606 961.178,-130.209 981.84,-95.2097"/>
<polygon fill="midnightblue" stroke="midnightblue" points="984.872,-96.9588 986.942,-86.5681 978.844,-93.4001 984.872,-96.9588"/>
</g>
<!-- Node4 -->
<g id="node4" class="node"><title>Node4</title>
<polygon fill="white" stroke="#bfbfbf" points="1045,-6 1045,-25 1089,-25 1089,-6 1045,-6"/>
<text text-anchor="middle" x="1067" y="-13" font-family="Helvetica,sans-Serif" font-size="10.00">string</text>
</g>
<!-- Node2&#45;&gt;Node4 -->
<g id="edge3" class="edge"><title>Node2&#45;&gt;Node4</title>
<path fill="none" stroke="midnightblue" d="M906.56,-235.419C936.687,-214.124 1013.34,-155.595 1051,-87 1059.86,-70.8682 1063.82,-50.0882 1065.58,-35.2765"/>
<polygon fill="midnightblue" stroke="midnightblue" points="1069.07,-35.5804 1066.55,-25.2892 1062.1,-34.9044 1069.07,-35.5804"/>
</g>
<!-- Node5 -->
<g id="node5" class="node"><title>Node5</title>
<polygon fill="white" stroke="#bfbfbf" points="563.5,-6 563.5,-25 610.5,-25 610.5,-6 563.5,-6"/>
<text text-anchor="middle" x="587" y="-13" font-family="Helvetica,sans-Serif" font-size="10.00">vector</text>
</g>
<!-- Node2&#45;&gt;Node5 -->
<g id="edge4" class="edge"><title>Node2&#45;&gt;Node5</title>
<path fill="none" stroke="midnightblue" d="M856.819,-236.798C825.565,-229.832 780.306,-217.576 744,-199 677.887,-165.174 661.209,-148.781 620,-87 608.897,-70.354 599.598,-49.38 593.731,-34.6527"/>
<polygon fill="midnightblue" stroke="midnightblue" points="596.946,-33.2606 590.088,-25.1841 590.412,-35.774 596.946,-33.2606"/>
</g>
<!-- Node6 -->
<g id="node6" class="node"><title>Node6</title>
<g id="a_node6"><a xlink:href="element_8h.xhtml" target="_top" xlink:title="Helper classes, structs, and properties common to all other classes. ">
<polygon fill="white" stroke="black" points="411.5,-67.5 411.5,-86.5 476.5,-86.5 476.5,-67.5 411.5,-67.5"/>
<text text-anchor="middle" x="444" y="-74.5" font-family="Helvetica,sans-Serif" font-size="10.00">element.h</text>
</a>
</g>
</g>
<!-- Node2&#45;&gt;Node6 -->
<g id="edge5" class="edge"><title>Node2&#45;&gt;Node6</title>
<path fill="none" stroke="midnightblue" d="M856.942,-244.612C768.399,-245.344 547.705,-242.624 491,-199 458.804,-174.231 448.646,-124.355 445.453,-97.0071"/>
<polygon fill="midnightblue" stroke="midnightblue" points="448.913,-96.4218 444.467,-86.8048 441.946,-97.0951 448.913,-96.4218"/>
</g>
<!-- Node12 -->
<g id="node12" class="node"><title>Node12</title>
<g id="a_node12"><a xlink:href="instruction_8h.xhtml" target="_top" xlink:title="Model and event tree modifier instructions. ">
<polygon fill="white" stroke="black" points="753,-179.5 753,-198.5 829,-198.5 829,-179.5 753,-179.5"/>
<text text-anchor="middle" x="791" y="-186.5" font-family="Helvetica,sans-Serif" font-size="10.00">instruction.h</text>
</a>
</g>
</g>
<!-- Node2&#45;&gt;Node12 -->
<g id="edge13" class="edge"><title>Node2&#45;&gt;Node12</title>
<path fill="none" stroke="midnightblue" d="M877.451,-235.324C861.008,-226.703 835.565,-213.364 816.532,-203.386"/>
<polygon fill="midnightblue" stroke="midnightblue" points="817.989,-200.198 807.508,-198.655 814.739,-206.398 817.989,-200.198"/>
</g>
<!-- Node6&#45;&gt;Node4 -->
<g id="edge7" class="edge"><title>Node6&#45;&gt;Node4</title>
<path fill="none" stroke="midnightblue" d="M476.82,-75.06C584.912,-71.7215 928.95,-59.0983 1036,-31 1037.98,-30.4796 1039.99,-29.8361 1041.99,-29.1122"/>
<polygon fill="midnightblue" stroke="midnightblue" points="1043.8,-32.1454 1051.64,-25.0193 1041.07,-25.7007 1043.8,-32.1454"/>
</g>
<!-- Node6&#45;&gt;Node5 -->
<g id="edge8" class="edge"><title>Node6&#45;&gt;Node5</title>
<path fill="none" stroke="midnightblue" d="M465.567,-67.3675C487.795,-58.4261 523.418,-43.9719 554,-31 555.404,-30.4044 556.84,-29.7907 558.289,-29.1679"/>
<polygon fill="midnightblue" stroke="midnightblue" points="560.064,-32.2128 567.841,-25.0176 557.275,-25.7926 560.064,-32.2128"/>
</g>
<!-- Node7 -->
<g id="node7" class="node"><title>Node7</title>
<polygon fill="white" stroke="#bfbfbf" points="496.5,-6 496.5,-25 545.5,-25 545.5,-6 496.5,-6"/>
<text text-anchor="middle" x="521" y="-13" font-family="Helvetica,sans-Serif" font-size="10.00">cstdint</text>
</g>
<!-- Node6&#45;&gt;Node7 -->
<g id="edge6" class="edge"><title>Node6&#45;&gt;Node7</title>
<path fill="none" stroke="midnightblue" d="M455.032,-67.4751C467.268,-58.0199 487.229,-42.5961 501.993,-31.1871"/>
<polygon fill="midnightblue" stroke="midnightblue" points="504.215,-33.8931 509.988,-25.0091 499.935,-28.3541 504.215,-33.8931"/>
</g>
<!-- Node8 -->
<g id="node8" class="node"><title>Node8</title>
<polygon fill="white" stroke="#bfbfbf" points="190,-0.5 190,-30.5 330,-30.5 330,-0.5 190,-0.5"/>
<text text-anchor="start" x="198" y="-18.5" font-family="Helvetica,sans-Serif" font-size="10.00">boost/multi_index/hashed</text>
<text text-anchor="middle" x="260" y="-7.5" font-family="Helvetica,sans-Serif" font-size="10.00">_index.hpp</text>
</g>
<!-- Node6&#45;&gt;Node8 -->
<g id="edge9" class="edge"><title>Node6&#45;&gt;Node8</title>
<path fill="none" stroke="midnightblue" d="M417.637,-67.4751C390.505,-58.7012 347.479,-44.788 313.228,-33.7123"/>
<polygon fill="midnightblue" stroke="midnightblue" points="313.957,-30.2697 303.365,-30.523 311.803,-36.9301 313.957,-30.2697"/>
</g>
<!-- Node9 -->
<g id="node9" class="node"><title>Node9</title>
<polygon fill="white" stroke="#bfbfbf" points="348,-0.5 348,-30.5 478,-30.5 478,-0.5 348,-0.5"/>
<text text-anchor="start" x="356" y="-18.5" font-family="Helvetica,sans-Serif" font-size="10.00">boost/multi_index/mem</text>
<text text-anchor="middle" x="413" y="-7.5" font-family="Helvetica,sans-Serif" font-size="10.00">_fun.hpp</text>
</g>
<!-- Node6&#45;&gt;Node9 -->
<g id="edge10" class="edge"><title>Node6&#45;&gt;Node9</title>
<path fill="none" stroke="midnightblue" d="M439.558,-67.4751C435.752,-60.1698 430.09,-49.3016 424.97,-39.475"/>
<polygon fill="midnightblue" stroke="midnightblue" points="428.031,-37.7743 420.306,-30.523 421.823,-41.0087 428.031,-37.7743"/>
</g>
<!-- Node10 -->
<g id="node10" class="node"><title>Node10</title>
<polygon fill="white" stroke="#bfbfbf" points="0,-6 0,-25 172,-25 172,-6 0,-6"/>
<text text-anchor="middle" x="86" y="-13" font-family="Helvetica,sans-Serif" font-size="10.00">boost/multi_index_container.hpp</text>
</g>
<!-- Node6&#45;&gt;Node10 -->
<g id="edge11" class="edge"><title>Node6&#45;&gt;Node10</title>
<path fill="none" stroke="midnightblue" d="M411.281,-70.562C351.481,-60.6232 223.676,-39.382 147.278,-26.6844"/>
<polygon fill="midnightblue" stroke="midnightblue" points="147.748,-23.2146 137.309,-25.0276 146.6,-30.1199 147.748,-23.2146"/>
</g>
<!-- Node11 -->
<g id="node11" class="node"><title>Node11</title>
<polygon fill="white" stroke="#bfbfbf" points="629,-6 629,-25 757,-25 757,-6 629,-6"/>
<text text-anchor="middle" x="693" y="-13" font-family="Helvetica,sans-Serif" font-size="10.00">boost/noncopyable.hpp</text>
</g>
<!-- Node6&#45;&gt;Node11 -->
<g id="edge12" class="edge"><title>Node6&#45;&gt;Node11</title>
<path fill="none" stroke="midnightblue" d="M476.552,-68.2214C520.211,-57.789 597.952,-39.2123 647.416,-27.3925"/>
<polygon fill="midnightblue" stroke="midnightblue" points="648.304,-30.779 657.217,-25.0506 646.677,-23.9707 648.304,-30.779"/>
</g>
<!-- Node12&#45;&gt;Node3 -->
<g id="edge14" class="edge"><title>Node12&#45;&gt;Node3</title>
<path fill="none" stroke="midnightblue" d="M806.772,-179.368C841.631,-160.292 925.447,-114.422 967.322,-91.5054"/>
<polygon fill="midnightblue" stroke="midnightblue" points="969.209,-94.4625 976.301,-86.5914 965.849,-88.3219 969.209,-94.4625"/>
</g>
<!-- Node12&#45;&gt;Node4 -->
<g id="edge15" class="edge"><title>Node12&#45;&gt;Node4</title>
<path fill="none" stroke="midnightblue" d="M829.295,-180.382C880.443,-168.46 971.296,-140.955 1029,-87 1044.51,-72.4942 1055.04,-50.1992 1061.01,-34.5747"/>
<polygon fill="midnightblue" stroke="midnightblue" points="1064.36,-35.5958 1064.42,-25.0012 1057.77,-33.2472 1064.36,-35.5958"/>
</g>
<!-- Node12&#45;&gt;Node5 -->
<g id="edge16" class="edge"><title>Node12&#45;&gt;Node5</title>
<path fill="none" stroke="midnightblue" d="M766.301,-179.392C746.393,-171.727 718.305,-159.222 697,-143 654.723,-110.81 616.798,-60.1914 598.522,-33.8042"/>
<polygon fill="midnightblue" stroke="midnightblue" points="601.226,-31.5559 592.706,-25.2579 595.438,-35.4942 601.226,-31.5559"/>
</g>
<!-- Node12&#45;&gt;Node6 -->
<g id="edge18" class="edge"><title>Node12&#45;&gt;Node6</title>
<path fill="none" stroke="midnightblue" d="M752.852,-183.735C707.542,-177.901 630.148,-165.495 567,-143 529.64,-129.692 489.603,-106.714 465.693,-91.9458"/>
<polygon fill="midnightblue" stroke="midnightblue" points="467.4,-88.8852 457.068,-86.5407 463.683,-94.8167 467.4,-88.8852"/>
</g>
<!-- Node12&#45;&gt;Node11 -->
<g id="edge17" class="edge"><title>Node12&#45;&gt;Node11</title>
<path fill="none" stroke="midnightblue" d="M774.016,-179.351C747.227,-164.62 696.138,-131.844 676,-87 668.289,-69.8292 675.382,-48.6702 682.618,-34.037"/>
<polygon fill="midnightblue" stroke="midnightblue" points="685.785,-35.5381 687.47,-25.0781 679.63,-32.2044 685.785,-35.5381"/>
</g>
<!-- Node13 -->
<g id="node13" class="node"><title>Node13</title>
<g id="a_node13"><a xlink:href="event_8h.xhtml" target="_top" xlink:title="Contains event classes for fault trees. ">
<polygon fill="white" stroke="black" points="748.5,-123.5 748.5,-142.5 801.5,-142.5 801.5,-123.5 748.5,-123.5"/>
<text text-anchor="middle" x="775" y="-130.5" font-family="Helvetica,sans-Serif" font-size="10.00">event.h</text>
</a>
</g>
</g>
<!-- Node12&#45;&gt;Node13 -->
<g id="edge19" class="edge"><title>Node12&#45;&gt;Node13</title>
<path fill="none" stroke="midnightblue" d="M788.358,-179.083C786.214,-171.849 783.121,-161.409 780.451,-152.397"/>
<polygon fill="midnightblue" stroke="midnightblue" points="783.79,-151.345 777.593,-142.751 777.078,-153.333 783.79,-151.345"/>
</g>
<!-- Node16 -->
<g id="node16" class="node"><title>Node16</title>
<g id="a_node16"><a xlink:href="expression_8h.xhtml" target="_top" xlink:title="Provides the base class for all expressions and units for expression values. ">
<polygon fill="white" stroke="black" points="829.5,-67.5 829.5,-86.5 906.5,-86.5 906.5,-67.5 829.5,-67.5"/>
<text text-anchor="middle" x="868" y="-74.5" font-family="Helvetica,sans-Serif" font-size="10.00">expression.h</text>
</a>
</g>
</g>
<!-- Node12&#45;&gt;Node16 -->
<g id="edge35" class="edge"><title>Node12&#45;&gt;Node16</title>
<path fill="none" stroke="midnightblue" d="M797.042,-179.368C809.749,-161.215 839.439,-118.802 856.107,-94.9902"/>
<polygon fill="midnightblue" stroke="midnightblue" points="859.119,-96.7909 861.986,-86.5914 853.384,-92.7766 859.119,-96.7909"/>
</g>
<!-- Node13&#45;&gt;Node3 -->
<g id="edge21" class="edge"><title>Node13&#45;&gt;Node3</title>
<path fill="none" stroke="midnightblue" d="M801.608,-125.379C839.642,-115.914 909.771,-98.4625 953.478,-87.5862"/>
<polygon fill="midnightblue" stroke="midnightblue" points="954.591,-90.916 963.45,-85.1047 952.901,-84.1231 954.591,-90.916"/>
</g>
<!-- Node13&#45;&gt;Node4 -->
<g id="edge22" class="edge"><title>Node13&#45;&gt;Node4</title>
<path fill="none" stroke="midnightblue" d="M801.519,-124.873C830.022,-116.892 876.431,-102.963 915,-87 932.999,-79.5504 936.407,-75.3635 954,-67 989.947,-49.9111 999.749,-47.4329 1036,-31 1037.19,-30.4619 1038.4,-29.9095 1039.62,-29.3492"/>
<polygon fill="midnightblue" stroke="midnightblue" points="1041.4,-32.3839 1049,-25.0068 1038.46,-26.0314 1041.4,-32.3839"/>
</g>
<!-- Node13&#45;&gt;Node5 -->
<g id="edge25" class="edge"><title>Node13&#45;&gt;Node5</title>
<path fill="none" stroke="midnightblue" d="M752.192,-123.479C731.599,-115.361 700.813,-102.154 676,-87 649.11,-70.5775 621.102,-47.1778 603.856,-31.9163"/>
<polygon fill="midnightblue" stroke="midnightblue" points="606.087,-29.216 596.306,-25.1444 601.413,-34.427 606.087,-29.216"/>
</g>
<!-- Node13&#45;&gt;Node6 -->
<g id="edge27" class="edge"><title>Node13&#45;&gt;Node6</title>
<path fill="none" stroke="midnightblue" d="M748.472,-127.672C691.346,-118.352 556.256,-96.3137 486.829,-84.9873"/>
<polygon fill="midnightblue" stroke="midnightblue" points="487.109,-81.4867 476.676,-83.3308 485.982,-88.3954 487.109,-81.4867"/>
</g>
<!-- Node13&#45;&gt;Node7 -->
<g id="edge20" class="edge"><title>Node13&#45;&gt;Node7</title>
<path fill="none" stroke="midnightblue" d="M748.334,-124.464C721.454,-116.494 679.042,-102.888 644,-87 607.191,-70.3111 566.998,-46.0264 542.905,-30.7562"/>
<polygon fill="midnightblue" stroke="midnightblue" points="544.517,-27.6325 534.208,-25.1905 540.744,-33.5286 544.517,-27.6325"/>
</g>
<!-- Node13&#45;&gt;Node11 -->
<g id="edge26" class="edge"><title>Node13&#45;&gt;Node11</title>
<path fill="none" stroke="midnightblue" d="M772.03,-123.496C767.287,-110.577 757.178,-85.5501 744,-67 734.776,-54.015 722.047,-41.4065 711.614,-32.036"/>
<polygon fill="midnightblue" stroke="midnightblue" points="713.689,-29.2011 703.85,-25.2699 709.09,-34.4785 713.689,-29.2011"/>
</g>
<!-- Node14 -->
<g id="node14" class="node"><title>Node14</title>
<polygon fill="white" stroke="#bfbfbf" points="775,-6 775,-25 817,-25 817,-6 775,-6"/>
<text text-anchor="middle" x="796" y="-13" font-family="Helvetica,sans-Serif" font-size="10.00">utility</text>
</g>
<!-- Node13&#45;&gt;Node14 -->
<g id="edge23" class="edge"><title>Node13&#45;&gt;Node14</title>
<path fill="none" stroke="midnightblue" d="M776.578,-123.319C779.969,-104.673 788.01,-60.443 792.612,-35.1317"/>
<polygon fill="midnightblue" stroke="midnightblue" points="796.058,-35.7468 794.403,-25.282 789.171,-34.4946 796.058,-35.7468"/>
</g>
<!-- Node15 -->
<g id="node15" class="node"><title>Node15</title>
<polygon fill="white" stroke="#bfbfbf" points="685,-67.5 685,-86.5 735,-86.5 735,-67.5 685,-67.5"/>
<text text-anchor="middle" x="710" y="-74.5" font-family="Helvetica,sans-Serif" font-size="10.00">variant</text>
</g>
<!-- Node13&#45;&gt;Node15 -->
<g id="edge24" class="edge"><title>Node13&#45;&gt;Node15</title>
<path fill="none" stroke="midnightblue" d="M764.557,-123.324C754.854,-115.263 740.185,-103.077 728.5,-93.3695"/>
<polygon fill="midnightblue" stroke="midnightblue" points="730.562,-90.532 720.633,-86.8339 726.089,-95.9163 730.562,-90.532"/>
</g>
<!-- Node13&#45;&gt;Node16 -->
<g id="edge28" class="edge"><title>Node13&#45;&gt;Node16</title>
<path fill="none" stroke="midnightblue" d="M789.942,-123.324C804.585,-114.822 827.134,-101.729 844.238,-91.7975"/>
<polygon fill="midnightblue" stroke="midnightblue" points="846.205,-94.7027 853.095,-86.6545 842.69,-88.6491 846.205,-94.7027"/>
</g>
<!-- Node16&#45;&gt;Node4 -->
<g id="edge30" class="edge"><title>Node16&#45;&gt;Node4</title>
<path fill="none" stroke="midnightblue" d="M906.625,-67.693C941.065,-59.8074 992.597,-46.8244 1036,-31 1037.61,-30.4123 1039.25,-29.7728 1040.9,-29.1005"/>
<polygon fill="midnightblue" stroke="midnightblue" points="1042.43,-32.2533 1050.17,-25.0259 1039.61,-25.8448 1042.43,-32.2533"/>
</g>
<!-- Node16&#45;&gt;Node5 -->
<g id="edge32" class="edge"><title>Node16&#45;&gt;Node5</title>
<path fill="none" stroke="midnightblue" d="M829.098,-71.8054C779.692,-65.8308 692.184,-53.0724 620,-31 618.07,-30.4099 616.103,-29.7383 614.138,-29.0152"/>
<polygon fill="midnightblue" stroke="midnightblue" points="615.103,-25.6296 604.521,-25.1084 612.468,-32.1149 615.103,-25.6296"/>
</g>
<!-- Node16&#45;&gt;Node11 -->
<g id="edge34" class="edge"><title>Node16&#45;&gt;Node11</title>
<path fill="none" stroke="midnightblue" d="M842.927,-67.4751C812.648,-57.1804 761.56,-39.8103 727.559,-28.2502"/>
<polygon fill="midnightblue" stroke="midnightblue" points="728.621,-24.9145 718.027,-25.0091 726.368,-31.5419 728.621,-24.9145"/>
</g>
<!-- Node16&#45;&gt;Node14 -->
<g id="edge31" class="edge"><title>Node16&#45;&gt;Node14</title>
<path fill="none" stroke="midnightblue" d="M857.684,-67.4751C846.349,-58.1082 827.927,-42.8839 814.161,-31.5081"/>
<polygon fill="midnightblue" stroke="midnightblue" points="816.235,-28.6813 806.297,-25.0091 811.776,-34.0773 816.235,-28.6813"/>
</g>
<!-- Node17 -->
<g id="node17" class="node"><title>Node17</title>
<polygon fill="white" stroke="#bfbfbf" points="965,-6 965,-25 1027,-25 1027,-6 965,-6"/>
<text text-anchor="middle" x="996" y="-13" font-family="Helvetica,sans-Serif" font-size="10.00">algorithm</text>
</g>
<!-- Node16&#45;&gt;Node17 -->
<g id="edge29" class="edge"><title>Node16&#45;&gt;Node17</title>
<path fill="none" stroke="midnightblue" d="M886.339,-67.4751C907.821,-57.4897 943.622,-40.8476 968.448,-29.3075"/>
<polygon fill="midnightblue" stroke="midnightblue" points="970.102,-32.3983 977.695,-25.0091 967.151,-26.0506 970.102,-32.3983"/>
</g>
<!-- Node18 -->
<g id="node18" class="node"><title>Node18</title>
<polygon fill="white" stroke="#bfbfbf" points="835,-0.5 835,-30.5 947,-30.5 947,-0.5 835,-0.5"/>
<text text-anchor="start" x="843" y="-18.5" font-family="Helvetica,sans-Serif" font-size="10.00">boost/icl/continuous</text>
<text text-anchor="middle" x="891" y="-7.5" font-family="Helvetica,sans-Serif" font-size="10.00">_interval.hpp</text>
</g>
<!-- Node16&#45;&gt;Node18 -->
<g id="edge33" class="edge"><title>Node16&#45;&gt;Node18</title>
<path fill="none" stroke="midnightblue" d="M871.295,-67.4751C874.061,-60.3204 878.148,-49.7483 881.883,-40.0841"/>
<polygon fill="midnightblue" stroke="midnightblue" points="885.238,-41.1123 885.579,-30.523 878.709,-38.5884 885.238,-41.1123"/>
</g>
<!-- Node19&#45;&gt;Node4 -->
<g id="edge38" class="edge"><title>Node19&#45;&gt;Node4</title>
<path fill="none" stroke="midnightblue" d="M1369.96,-242.552C1314.33,-238.758 1178.78,-226.827 1144,-199 1091.44,-156.944 1074.24,-72.4988 1069.05,-35.0795"/>
<polygon fill="midnightblue" stroke="midnightblue" points="1072.52,-34.5647 1067.8,-25.0754 1065.57,-35.4321 1072.52,-34.5647"/>
</g>
<!-- Node20 -->
<g id="node20" class="node"><title>Node20</title>
<polygon fill="white" stroke="#bfbfbf" points="1153.5,-179.5 1153.5,-198.5 1216.5,-198.5 1216.5,-179.5 1153.5,-179.5"/>
<text text-anchor="middle" x="1185" y="-186.5" font-family="Helvetica,sans-Serif" font-size="10.00">exception</text>
</g>
<!-- Node19&#45;&gt;Node20 -->
<g id="edge37" class="edge"><title>Node19&#45;&gt;Node20</title>
<path fill="none" stroke="midnightblue" d="M1369.62,-237.7C1334.53,-228.633 1269.32,-211.785 1226.54,-200.733"/>
<polygon fill="midnightblue" stroke="midnightblue" points="1227.27,-197.307 1216.71,-198.194 1225.52,-204.084 1227.27,-197.307"/>
</g>
<!-- Node21 -->
<g id="node21" class="node"><title>Node21</title>
<polygon fill="white" stroke="#bfbfbf" points="1235,-179.5 1235,-198.5 1381,-198.5 1381,-179.5 1235,-179.5"/>
<text text-anchor="middle" x="1308" y="-186.5" font-family="Helvetica,sans-Serif" font-size="10.00">boost/current_function.hpp</text>
</g>
<!-- Node19&#45;&gt;Node21 -->
<g id="edge39" class="edge"><title>Node19&#45;&gt;Node21</title>
<path fill="none" stroke="midnightblue" d="M1380.18,-235.324C1366.77,-226.9 1346.18,-213.971 1330.41,-204.074"/>
<polygon fill="midnightblue" stroke="midnightblue" points="1332.11,-201.008 1321.78,-198.655 1328.39,-206.936 1332.11,-201.008"/>
</g>
<!-- Node22 -->
<g id="node22" class="node"><title>Node22</title>
<polygon fill="white" stroke="#bfbfbf" points="1399,-179.5 1399,-198.5 1563,-198.5 1563,-179.5 1399,-179.5"/>
<text text-anchor="middle" x="1481" y="-186.5" font-family="Helvetica,sans-Serif" font-size="10.00">boost/exception/exception.hpp</text>
</g>
<!-- Node19&#45;&gt;Node22 -->
<g id="edge40" class="edge"><title>Node19&#45;&gt;Node22</title>
<path fill="none" stroke="midnightblue" d="M1407.98,-235.324C1421.55,-226.9 1442.38,-213.971 1458.32,-204.074"/>
<polygon fill="midnightblue" stroke="midnightblue" points="1460.41,-206.902 1467.06,-198.655 1456.71,-200.954 1460.41,-206.902"/>
</g>
<!-- Node23 -->
<g id="node23" class="node"><title>Node23</title>
<polygon fill="white" stroke="#bfbfbf" points="1581,-179.5 1581,-198.5 1715,-198.5 1715,-179.5 1581,-179.5"/>
<text text-anchor="middle" x="1648" y="-186.5" font-family="Helvetica,sans-Serif" font-size="10.00">boost/exception/info.hpp</text>
</g>
<!-- Node19&#45;&gt;Node23 -->
<g id="edge41" class="edge"><title>Node19&#45;&gt;Node23</title>
<path fill="none" stroke="midnightblue" d="M1418.35,-238.822C1459.53,-230.068 1543.71,-212.172 1597.91,-200.649"/>
<polygon fill="midnightblue" stroke="midnightblue" points="1598.94,-204.008 1608,-198.505 1597.49,-197.161 1598.94,-204.008"/>
</g>
<!-- Node24 -->
<g id="node24" class="node"><title>Node24</title>
<g id="a_node24"><a xlink:href="source__info_8h.xhtml" target="_top" xlink:title="Helper facilities to get source file information. ">
<polygon fill="white" stroke="black" points="1733,-179.5 1733,-198.5 1831,-198.5 1831,-179.5 1733,-179.5"/>
<text text-anchor="middle" x="1782" y="-186.5" font-family="Helvetica,sans-Serif" font-size="10.00">ext/source_info.h</text>
</a>
</g>
</g>
<!-- Node19&#45;&gt;Node24 -->
<g id="edge42" class="edge"><title>Node19&#45;&gt;Node24</title>
<path fill="none" stroke="midnightblue" d="M1418.04,-240.877C1471.03,-233.958 1602.13,-216.66 1722.81,-199.151"/>
<polygon fill="midnightblue" stroke="midnightblue" points="1723.57,-202.578 1732.96,-197.674 1722.56,-195.651 1723.57,-202.578"/>
</g>
<!-- Node26 -->
<g id="node26" class="node"><title>Node26</title>
<polygon fill="white" stroke="#bfbfbf" points="1915,-179.5 1915,-198.5 1967,-198.5 1967,-179.5 1915,-179.5"/>
<text text-anchor="middle" x="1941" y="-186.5" font-family="Helvetica,sans-Serif" font-size="10.00">cassert</text>
</g>
<!-- Node25&#45;&gt;Node26 -->
<g id="edge44" class="edge"><title>Node25&#45;&gt;Node26</title>
<path fill="none" stroke="midnightblue" d="M1883.93,-235.324C1894.17,-227.185 1909.72,-214.839 1922,-205.087"/>
<polygon fill="midnightblue" stroke="midnightblue" points="1924.22,-207.794 1929.88,-198.834 1919.87,-202.312 1924.22,-207.794"/>
</g>
<!-- Node27 -->
<g id="node27" class="node"><title>Node27</title>
<polygon fill="white" stroke="#bfbfbf" points="1849.5,-179.5 1849.5,-198.5 1896.5,-198.5 1896.5,-179.5 1849.5,-179.5"/>
<text text-anchor="middle" x="1873" y="-186.5" font-family="Helvetica,sans-Serif" font-size="10.00">cmath</text>
</g>
<!-- Node25&#45;&gt;Node27 -->
<g id="edge45" class="edge"><title>Node25&#45;&gt;Node27</title>
<path fill="none" stroke="midnightblue" d="M1873,-235.083C1873,-228.006 1873,-217.861 1873,-208.986"/>
<polygon fill="midnightblue" stroke="midnightblue" points="1876.5,-208.751 1873,-198.751 1869.5,-208.751 1876.5,-208.751"/>
</g>
</g>
</svg>
