<?xml version="1.0" encoding="UTF-8" standalone="no"?>
<!DOCTYPE svg PUBLIC "-//W3C//DTD SVG 1.1//EN"
 "http://www.w3.org/Graphics/SVG/1.1/DTD/svg11.dtd">
<!-- Generated by graphviz version 2.38.0 (20140413.2041)
 -->
<!-- Title: bdd.h Pages: 1 -->
<!--zoomable 218 -->
<svg id="main" version="1.1" xmlns="http://www.w3.org/2000/svg" xmlns:xlink="http://www.w3.org/1999/xlink" xml:space="preserve" onload="init(evt)">
<style type="text/css"><![CDATA[
.edge:hover path { stroke: red; }
.edge:hover polygon { stroke: red; fill: red; }
]]></style>
<script type="text/javascript"><![CDATA[
var edges = document.getElementsByTagName('g');
if (edges && edges.length) {
  for (var i=0;i<edges.length;i++) {
    if (edges[i].id.substr(0,4)=='edge') {
      edges[i].setAttribute('class','edge');
    }
  }
}
]]></script>
        <defs>
                <circle id="rim" cx="0" cy="0" r="7"/>
                <circle id="rim2" cx="0" cy="0" r="3.5"/>
                <g id="zoomPlus">
                        <use xlink:href="#rim" fill="#404040">
                                <set attributeName="fill" to="#808080" begin="zoomplus.mouseover" end="zoomplus.mouseout"/>
                        </use>
                        <path d="M-4,0h8M0,-4v8" fill="none" stroke="white" stroke-width="1.5" pointer-events="none"/>
                </g>
                <g id="zoomMin">
                        <use xlink:href="#rim" fill="#404040">
                                <set attributeName="fill" to="#808080" begin="zoomminus.mouseover" end="zoomminus.mouseout"/>
                        </use>
                        <path d="M-4,0h8" fill="none" stroke="white" stroke-width="1.5" pointer-events="none"/>
                </g>
                <g id="dirArrow">
                        <path fill="none" stroke="white" stroke-width="1.5" d="M0,-3.0v7 M-2.5,-0.5L0,-3.0L2.5,-0.5"/>
                </g>
               <g id="resetDef">
                       <use xlink:href="#rim2" fill="#404040">
                               <set attributeName="fill" to="#808080" begin="reset.mouseover" end="reset.mouseout"/>
                       </use>
               </g>
        </defs>

<script type="text/javascript">
var viewWidth = 1589;
var viewHeight = 218;
var sectionId = 'dynsection-0';
</script>
<script xlink:href="svgpan.js"/>
<svg id="graph" class="graph">
<g id="viewport">
<title>bdd.h</title>
<polygon fill="white" stroke="none" points="-4,4 -4,-214 1585.26,-214 1585.26,4 -4,4"/>
<!-- Node1 -->
<g id="node1" class="node"><title>Node1</title>
<polygon fill="#bfbfbf" stroke="black" points="276.5,-190.5 276.5,-209.5 320.5,-209.5 320.5,-190.5 276.5,-190.5"/>
<text text-anchor="middle" x="298.5" y="-197.5" font-family="Helvetica,sans-Serif" font-size="10.00">bdd.h</text>
</g>
<!-- Node2 -->
<g id="node2" class="node"><title>Node2</title>
<polygon fill="white" stroke="#bfbfbf" points="0,-129 0,-148 47,-148 47,-129 0,-129"/>
<text text-anchor="middle" x="23.5" y="-136" font-family="Helvetica,sans-Serif" font-size="10.00">cmath</text>
</g>
<!-- Node1&#45;&gt;Node2 -->
<g id="edge1" class="edge"><title>Node1&#45;&gt;Node2</title>
<path fill="none" stroke="midnightblue" d="M276.306,-196.124C233.989,-190.347 139.068,-175.976 61.5,-154 58.8525,-153.25 56.1306,-152.392 53.4181,-151.477"/>
<polygon fill="midnightblue" stroke="midnightblue" points="54.3808,-148.104 43.7865,-148 52.0041,-154.688 54.3808,-148.104"/>
</g>
<!-- Node3 -->
<g id="node3" class="node"><title>Node3</title>
<polygon fill="white" stroke="#bfbfbf" points="1317.5,-0.5 1317.5,-19.5 1379.5,-19.5 1379.5,-0.5 1317.5,-0.5"/>
<text text-anchor="middle" x="1348.5" y="-7.5" font-family="Helvetica,sans-Serif" font-size="10.00">algorithm</text>
</g>
<!-- Node1&#45;&gt;Node3 -->
<g id="edge2" class="edge"><title>Node1&#45;&gt;Node3</title>
<path fill="none" stroke="midnightblue" d="M320.892,-199.024C475.139,-199.078 1377.44,-197.523 1490.5,-154 1542.97,-133.801 1606.09,-99.5276 1570.5,-56 1548.12,-28.6292 1447.66,-17.5076 1389.84,-13.312"/>
<polygon fill="midnightblue" stroke="midnightblue" points="1389.79,-9.80014 1379.57,-12.6069 1389.31,-16.7837 1389.79,-9.80014"/>
</g>
<!-- Node4 -->
<g id="node4" class="node"><title>Node4</title>
<polygon fill="white" stroke="#bfbfbf" points="104,-129 104,-148 175,-148 175,-129 104,-129"/>
<text text-anchor="middle" x="139.5" y="-136" font-family="Helvetica,sans-Serif" font-size="10.00">forward_list</text>
</g>
<!-- Node1&#45;&gt;Node4 -->
<g id="edge3" class="edge"><title>Node1&#45;&gt;Node4</title>
<path fill="none" stroke="midnightblue" d="M276.392,-190.727C249.289,-180.585 203.131,-163.311 171.99,-151.658"/>
<polygon fill="midnightblue" stroke="midnightblue" points="173.043,-148.315 162.45,-148.088 170.589,-154.871 173.043,-148.315"/>
</g>
<!-- Node5 -->
<g id="node5" class="node"><title>Node5</title>
<polygon fill="white" stroke="#bfbfbf" points="150,-62 150,-81 207,-81 207,-62 150,-62"/>
<text text-anchor="middle" x="178.5" y="-69" font-family="Helvetica,sans-Serif" font-size="10.00">memory</text>
</g>
<!-- Node1&#45;&gt;Node5 -->
<g id="edge4" class="edge"><title>Node1&#45;&gt;Node5</title>
<path fill="none" stroke="midnightblue" d="M290.252,-190.305C270.385,-169.362 219.626,-115.854 193.918,-88.7532"/>
<polygon fill="midnightblue" stroke="midnightblue" points="196.227,-86.1019 186.806,-81.2557 191.149,-90.9195 196.227,-86.1019"/>
</g>
<!-- Node6 -->
<g id="node6" class="node"><title>Node6</title>
<polygon fill="white" stroke="#bfbfbf" points="225,-62 225,-81 318,-81 318,-62 225,-62"/>
<text text-anchor="middle" x="271.5" y="-69" font-family="Helvetica,sans-Serif" font-size="10.00">unordered_map</text>
</g>
<!-- Node1&#45;&gt;Node6 -->
<g id="edge5" class="edge"><title>Node1&#45;&gt;Node6</title>
<path fill="none" stroke="midnightblue" d="M296.644,-190.305C292.309,-169.994 281.436,-119.053 275.508,-91.2768"/>
<polygon fill="midnightblue" stroke="midnightblue" points="278.879,-90.3048 273.369,-81.2557 272.033,-91.766 278.879,-90.3048"/>
</g>
<!-- Node7 -->
<g id="node7" class="node"><title>Node7</title>
<polygon fill="white" stroke="#bfbfbf" points="858.5,-0.5 858.5,-19.5 900.5,-19.5 900.5,-0.5 858.5,-0.5"/>
<text text-anchor="middle" x="879.5" y="-7.5" font-family="Helvetica,sans-Serif" font-size="10.00">utility</text>
</g>
<!-- Node1&#45;&gt;Node7 -->
<g id="edge6" class="edge"><title>Node1&#45;&gt;Node7</title>
<path fill="none" stroke="midnightblue" d="M276.387,-197.513C228.392,-193.777 117.159,-182.202 94.5,-154 78.9879,-134.693 93.3062,-68.416 107.5,-56 163.949,-6.62164 710.012,-9.15899 847.967,-10.6026"/>
<polygon fill="midnightblue" stroke="midnightblue" points="848.221,-14.1055 858.259,-10.7164 848.299,-7.10597 848.221,-14.1055"/>
</g>
<!-- Node8 -->
<g id="node8" class="node"><title>Node8</title>
<polygon fill="white" stroke="#bfbfbf" points="1005,-0.5 1005,-19.5 1052,-19.5 1052,-0.5 1005,-0.5"/>
<text text-anchor="middle" x="1028.5" y="-7.5" font-family="Helvetica,sans-Serif" font-size="10.00">vector</text>
</g>
<!-- Node1&#45;&gt;Node8 -->
<g id="edge7" class="edge"><title>Node1&#45;&gt;Node8</title>
<path fill="none" stroke="midnightblue" d="M283.12,-190.411C267.898,-181.735 244.098,-167.692 224.5,-154 219.607,-150.581 143.09,-92.3783 140.5,-87 134.523,-74.5864 130.988,-65.9675 140.5,-56 170.027,-25.0587 866.811,-22.613 909.5,-20 938.194,-18.2437 970.741,-15.7474 994.535,-13.8292"/>
<polygon fill="midnightblue" stroke="midnightblue" points="995.124,-17.2929 1004.81,-12.9932 994.556,-10.316 995.124,-17.2929"/>
</g>
<!-- Node9 -->
<g id="node9" class="node"><title>Node9</title>
<polygon fill="white" stroke="#bfbfbf" points="345.5,-129 345.5,-148 485.5,-148 485.5,-129 345.5,-129"/>
<text text-anchor="middle" x="415.5" y="-136" font-family="Helvetica,sans-Serif" font-size="10.00">boost/functional/hash.hpp</text>
</g>
<!-- Node1&#45;&gt;Node9 -->
<g id="edge8" class="edge"><title>Node1&#45;&gt;Node9</title>
<path fill="none" stroke="midnightblue" d="M315.263,-190.475C334.725,-180.578 367.045,-164.142 389.711,-152.615"/>
<polygon fill="midnightblue" stroke="midnightblue" points="391.441,-155.662 398.768,-148.009 388.268,-149.422 391.441,-155.662"/>
</g>
<!-- Node10 -->
<g id="node10" class="node"><title>Node10</title>
<polygon fill="white" stroke="#bfbfbf" points="336.5,-62 336.5,-81 464.5,-81 464.5,-62 336.5,-62"/>
<text text-anchor="middle" x="400.5" y="-69" font-family="Helvetica,sans-Serif" font-size="10.00">boost/noncopyable.hpp</text>
</g>
<!-- Node1&#45;&gt;Node10 -->
<g id="edge9" class="edge"><title>Node1&#45;&gt;Node10</title>
<path fill="none" stroke="midnightblue" d="M301.413,-190.315C306.705,-175.414 318.992,-144.509 336.5,-123 348.115,-108.73 364.438,-95.9304 377.691,-86.7877"/>
<polygon fill="midnightblue" stroke="midnightblue" points="379.897,-89.5243 386.281,-81.0691 376.017,-83.6974 379.897,-89.5243"/>
</g>
<!-- Node11 -->
<g id="node11" class="node"><title>Node11</title>
<polygon fill="white" stroke="#bfbfbf" points="884,-123.5 884,-153.5 1021,-153.5 1021,-123.5 884,-123.5"/>
<text text-anchor="start" x="892" y="-141.5" font-family="Helvetica,sans-Serif" font-size="10.00">boost/smart_ptr/intrusive</text>
<text text-anchor="middle" x="952.5" y="-130.5" font-family="Helvetica,sans-Serif" font-size="10.00">_ptr.hpp</text>
</g>
<!-- Node1&#45;&gt;Node11 -->
<g id="edge10" class="edge"><title>Node1&#45;&gt;Node11</title>
<path fill="none" stroke="midnightblue" d="M320.56,-198.118C396.149,-194.922 651.794,-182.655 873.464,-154.037"/>
<polygon fill="midnightblue" stroke="midnightblue" points="874.197,-157.471 883.659,-152.706 873.291,-150.53 874.197,-157.471"/>
</g>
<!-- Node12 -->
<g id="node12" class="node"><title>Node12</title>
<g id="a_node12"><a xlink:href="pdag_8h.xhtml" target="_top" xlink:title="Classes and facilities to represent fault trees as PDAGs with event and gate indices instead of ID na...">
<polygon fill="white" stroke="black" points="815.5,-129 815.5,-148 865.5,-148 865.5,-129 815.5,-129"/>
<text text-anchor="middle" x="840.5" y="-136" font-family="Helvetica,sans-Serif" font-size="10.00">pdag.h</text>
</a>
</g>
</g>
<!-- Node1&#45;&gt;Node12 -->
<g id="edge11" class="edge"><title>Node1&#45;&gt;Node12</title>
<path fill="none" stroke="midnightblue" d="M320.758,-196.557C404.64,-187.348 702.115,-154.692 805.1,-143.386"/>
<polygon fill="midnightblue" stroke="midnightblue" points="805.727,-146.838 815.285,-142.268 804.963,-139.88 805.727,-146.838"/>
</g>
<!-- Node25 -->
<g id="node25" class="node"><title>Node25</title>
<g id="a_node25"><a xlink:href="settings_8h.xhtml" target="_top" xlink:title="Builder for settings. ">
<polygon fill="white" stroke="black" points="1417.5,-129 1417.5,-148 1481.5,-148 1481.5,-129 1417.5,-129"/>
<text text-anchor="middle" x="1449.5" y="-136" font-family="Helvetica,sans-Serif" font-size="10.00">settings.h</text>
</a>
</g>
</g>
<!-- Node1&#45;&gt;Node25 -->
<g id="edge35" class="edge"><title>Node1&#45;&gt;Node25</title>
<path fill="none" stroke="midnightblue" d="M320.72,-197.851C460.567,-190.622 1219.19,-151.406 1407.28,-141.682"/>
<polygon fill="midnightblue" stroke="midnightblue" points="1407.53,-145.175 1417.33,-141.163 1407.17,-138.184 1407.53,-145.175"/>
</g>
<!-- Node12&#45;&gt;Node3 -->
<g id="edge14" class="edge"><title>Node12&#45;&gt;Node3</title>
<path fill="none" stroke="midnightblue" d="M858.319,-128.925C863.726,-126.651 869.757,-124.434 875.5,-123 1036.66,-82.7717 1093.49,-149.235 1247.5,-87 1268.03,-78.704 1268.87,-69.3952 1286.5,-56 1300.14,-45.6405 1315.74,-34.319 1327.88,-25.6234"/>
<polygon fill="midnightblue" stroke="midnightblue" points="1329.92,-28.4644 1336.03,-19.8071 1325.86,-22.7661 1329.92,-28.4644"/>
</g>
<!-- Node12&#45;&gt;Node5 -->
<g id="edge16" class="edge"><title>Node12&#45;&gt;Node5</title>
<path fill="none" stroke="midnightblue" d="M815.219,-136.445C713.332,-132.04 332.703,-114.079 215.5,-87 212.664,-86.3448 209.758,-85.5117 206.882,-84.5772"/>
<polygon fill="midnightblue" stroke="midnightblue" points="207.959,-81.2447 197.365,-81.1204 205.569,-87.8242 207.959,-81.2447"/>
</g>
<!-- Node12&#45;&gt;Node6 -->
<g id="edge18" class="edge"><title>Node12&#45;&gt;Node6</title>
<path fill="none" stroke="midnightblue" d="M815.488,-136.415C740.823,-132.883 513.201,-119.976 327.5,-87 322.062,-86.0343 316.375,-84.8142 310.798,-83.4937"/>
<polygon fill="midnightblue" stroke="midnightblue" points="311.505,-80.0628 300.955,-81.0414 309.813,-86.8552 311.505,-80.0628"/>
</g>
<!-- Node12&#45;&gt;Node7 -->
<g id="edge19" class="edge"><title>Node12&#45;&gt;Node7</title>
<path fill="none" stroke="midnightblue" d="M841.971,-128.785C844.639,-113.711 850.814,-81.896 859.5,-56 862.559,-46.8813 866.791,-37.0867 870.576,-28.9713"/>
<polygon fill="midnightblue" stroke="midnightblue" points="873.823,-30.2955 875.007,-19.767 867.516,-27.2589 873.823,-30.2955"/>
</g>
<!-- Node12&#45;&gt;Node8 -->
<g id="edge20" class="edge"><title>Node12&#45;&gt;Node8</title>
<path fill="none" stroke="midnightblue" d="M859.109,-128.865C864.327,-126.7 870.061,-124.553 875.5,-123 922.713,-109.515 1061.73,-124.441 1093.5,-87 1102.41,-76.4939 1099.89,-68.2041 1093.5,-56 1086.22,-42.1082 1072.49,-31.6523 1059.52,-24.3328"/>
<polygon fill="midnightblue" stroke="midnightblue" points="1060.8,-21.0532 1050.31,-19.553 1057.57,-27.2662 1060.8,-21.0532"/>
</g>
<!-- Node12&#45;&gt;Node10 -->
<g id="edge22" class="edge"><title>Node12&#45;&gt;Node10</title>
<path fill="none" stroke="midnightblue" d="M815.06,-134.527C755.289,-127.427 601.306,-108.467 473.5,-87 466.316,-85.7934 458.756,-84.415 451.334,-82.9991"/>
<polygon fill="midnightblue" stroke="midnightblue" points="451.831,-79.5303 441.347,-81.0576 450.495,-86.4016 451.831,-79.5303"/>
</g>
<!-- Node13 -->
<g id="node13" class="node"><title>Node13</title>
<polygon fill="white" stroke="#bfbfbf" points="1425,-62 1425,-81 1474,-81 1474,-62 1425,-62"/>
<text text-anchor="middle" x="1449.5" y="-69" font-family="Helvetica,sans-Serif" font-size="10.00">cstdint</text>
</g>
<!-- Node12&#45;&gt;Node13 -->
<g id="edge12" class="edge"><title>Node12&#45;&gt;Node13</title>
<path fill="none" stroke="midnightblue" d="M857.934,-128.968C863.43,-126.638 869.608,-124.378 875.5,-123 1109.72,-68.2425 1181.57,-142.969 1415.5,-87 1418.01,-86.399 1420.57,-85.6285 1423.11,-84.7567"/>
<polygon fill="midnightblue" stroke="midnightblue" points="1424.56,-87.9487 1432.59,-81.0366 1422,-81.4328 1424.56,-87.9487"/>
</g>
<!-- Node14 -->
<g id="node14" class="node"><title>Node14</title>
<polygon fill="white" stroke="#bfbfbf" points="1295,-62 1295,-81 1342,-81 1342,-62 1295,-62"/>
<text text-anchor="middle" x="1318.5" y="-69" font-family="Helvetica,sans-Serif" font-size="10.00">cstdlib</text>
</g>
<!-- Node12&#45;&gt;Node14 -->
<g id="edge13" class="edge"><title>Node12&#45;&gt;Node14</title>
<path fill="none" stroke="midnightblue" d="M858.312,-128.896C863.719,-126.622 869.751,-124.411 875.5,-123 1051,-79.9205 1104.41,-127.598 1280.5,-87 1283.5,-86.3085 1286.58,-85.432 1289.63,-84.4536"/>
<polygon fill="midnightblue" stroke="midnightblue" points="1290.85,-87.7325 1299.1,-81.0827 1288.5,-81.1375 1290.85,-87.7325"/>
</g>
<!-- Node15 -->
<g id="node15" class="node"><title>Node15</title>
<polygon fill="white" stroke="#bfbfbf" points="1360.5,-62 1360.5,-81 1406.5,-81 1406.5,-62 1360.5,-62"/>
<text text-anchor="middle" x="1383.5" y="-69" font-family="Helvetica,sans-Serif" font-size="10.00">iosfwd</text>
</g>
<!-- Node12&#45;&gt;Node15 -->
<g id="edge15" class="edge"><title>Node12&#45;&gt;Node15</title>
<path fill="none" stroke="midnightblue" d="M858.301,-128.849C863.707,-126.573 869.742,-124.373 875.5,-123 1081.87,-73.7809 1145.96,-139.585 1351.5,-87 1353.71,-86.435 1355.95,-85.7259 1358.18,-84.9268"/>
<polygon fill="midnightblue" stroke="midnightblue" points="1359.72,-88.0762 1367.62,-81.0156 1357.04,-81.6091 1359.72,-88.0762"/>
</g>
<!-- Node16 -->
<g id="node16" class="node"><title>Node16</title>
<polygon fill="white" stroke="#bfbfbf" points="482.5,-62 482.5,-81 550.5,-81 550.5,-62 482.5,-62"/>
<text text-anchor="middle" x="516.5" y="-69" font-family="Helvetica,sans-Serif" font-size="10.00">type_traits</text>
</g>
<!-- Node12&#45;&gt;Node16 -->
<g id="edge17" class="edge"><title>Node12&#45;&gt;Node16</title>
<path fill="none" stroke="midnightblue" d="M815.426,-134.26C765.984,-127.593 652.633,-110.932 559.5,-87 556.295,-86.1765 552.985,-85.2329 549.689,-84.2308"/>
<polygon fill="midnightblue" stroke="midnightblue" points="550.56,-80.8346 539.969,-81.1105 548.421,-87.4996 550.56,-80.8346"/>
</g>
<!-- Node17 -->
<g id="node17" class="node"><title>Node17</title>
<polygon fill="white" stroke="#bfbfbf" points="568.5,-56.5 568.5,-86.5 678.5,-86.5 678.5,-56.5 568.5,-56.5"/>
<text text-anchor="start" x="576.5" y="-74.5" font-family="Helvetica,sans-Serif" font-size="10.00">boost/container/flat</text>
<text text-anchor="middle" x="623.5" y="-63.5" font-family="Helvetica,sans-Serif" font-size="10.00">_set.hpp</text>
</g>
<!-- Node12&#45;&gt;Node17 -->
<g id="edge21" class="edge"><title>Node12&#45;&gt;Node17</title>
<path fill="none" stroke="midnightblue" d="M815.183,-129.916C782.234,-120.047 723.707,-102.516 679.965,-89.4134"/>
<polygon fill="midnightblue" stroke="midnightblue" points="680.895,-86.0385 670.311,-86.5218 678.886,-92.7441 680.895,-86.0385"/>
</g>
<!-- Node18 -->
<g id="node18" class="node"><title>Node18</title>
<polygon fill="white" stroke="#bfbfbf" points="697,-56.5 697,-86.5 812,-86.5 812,-56.5 697,-56.5"/>
<text text-anchor="start" x="705" y="-74.5" font-family="Helvetica,sans-Serif" font-size="10.00">boost/range/adaptor</text>
<text text-anchor="middle" x="754.5" y="-63.5" font-family="Helvetica,sans-Serif" font-size="10.00">/transformed.hpp</text>
</g>
<!-- Node12&#45;&gt;Node18 -->
<g id="edge23" class="edge"><title>Node12&#45;&gt;Node18</title>
<path fill="none" stroke="midnightblue" d="M828.902,-128.734C816.72,-119.527 797.147,-104.733 781.133,-92.6293"/>
<polygon fill="midnightblue" stroke="midnightblue" points="783.229,-89.8265 773.141,-86.589 779.008,-95.4109 783.229,-89.8265"/>
</g>
<!-- Node19 -->
<g id="node19" class="node"><title>Node19</title>
<g id="a_node19"><a xlink:href="find__iterator_8h.xhtml" target="_top" xlink:title="Convenience iterator adaptor to wrap find calls and results. ">
<polygon fill="white" stroke="black" points="869,-62 869,-81 970,-81 970,-62 869,-62"/>
<text text-anchor="middle" x="919.5" y="-69" font-family="Helvetica,sans-Serif" font-size="10.00">ext/find_iterator.h</text>
</a>
</g>
</g>
<!-- Node12&#45;&gt;Node19 -->
<g id="edge24" class="edge"><title>Node12&#45;&gt;Node19</title>
<path fill="none" stroke="midnightblue" d="M851.154,-128.734C863.947,-118.208 885.616,-100.379 901.127,-87.6174"/>
<polygon fill="midnightblue" stroke="midnightblue" points="903.516,-90.1837 909.015,-81.1273 899.069,-84.7782 903.516,-90.1837"/>
</g>
<!-- Node20 -->
<g id="node20" class="node"><title>Node20</title>
<g id="a_node20"><a xlink:href="index__map_8h.xhtml" target="_top" xlink:title="Non&#45;zero based Index&#45;&gt;Value map adapter on sequential containers. ">
<polygon fill="white" stroke="black" points="988.5,-62 988.5,-81 1084.5,-81 1084.5,-62 988.5,-62"/>
<text text-anchor="middle" x="1036.5" y="-69" font-family="Helvetica,sans-Serif" font-size="10.00">ext/index_map.h</text>
</a>
</g>
</g>
<!-- Node12&#45;&gt;Node20 -->
<g id="edge26" class="edge"><title>Node12&#45;&gt;Node20</title>
<path fill="none" stroke="midnightblue" d="M860.369,-128.91C865.282,-126.886 870.554,-124.796 875.5,-123 916.423,-108.138 964.095,-93.5115 996.887,-83.8562"/>
<polygon fill="midnightblue" stroke="midnightblue" points="997.947,-87.1927 1006.56,-81.0246 995.981,-80.4745 997.947,-87.1927"/>
</g>
<!-- Node21 -->
<g id="node21" class="node"><title>Node21</title>
<g id="a_node21"><a xlink:href="linear__map_8h.xhtml" target="_top" xlink:title="Implementation of a vector&#45;based map for a small number of entries. ">
<polygon fill="white" stroke="black" points="1141,-62 1141,-81 1238,-81 1238,-62 1141,-62"/>
<text text-anchor="middle" x="1189.5" y="-69" font-family="Helvetica,sans-Serif" font-size="10.00">ext/linear_map.h</text>
</a>
</g>
</g>
<!-- Node12&#45;&gt;Node21 -->
<g id="edge28" class="edge"><title>Node12&#45;&gt;Node21</title>
<path fill="none" stroke="midnightblue" d="M858.724,-128.94C864.038,-126.722 869.918,-124.53 875.5,-123 984.186,-93.2001 1015.71,-107.657 1126.5,-87 1132.44,-85.893 1138.66,-84.6106 1144.79,-83.2756"/>
<polygon fill="midnightblue" stroke="midnightblue" points="1145.96,-86.6018 1154.95,-81.0008 1144.43,-79.771 1145.96,-86.6018"/>
</g>
<!-- Node19&#45;&gt;Node7 -->
<g id="edge25" class="edge"><title>Node19&#45;&gt;Node7</title>
<path fill="none" stroke="midnightblue" d="M913.769,-61.9751C907.828,-53.1384 898.383,-39.0886 890.912,-27.975"/>
<polygon fill="midnightblue" stroke="midnightblue" points="893.704,-25.8554 885.22,-19.5091 887.895,-29.7608 893.704,-25.8554"/>
</g>
<!-- Node20&#45;&gt;Node8 -->
<g id="edge27" class="edge"><title>Node20&#45;&gt;Node8</title>
<path fill="none" stroke="midnightblue" d="M1035.35,-61.9751C1034.23,-53.5803 1032.46,-40.4806 1031.01,-29.6631"/>
<polygon fill="midnightblue" stroke="midnightblue" points="1034.45,-28.9535 1029.64,-19.5091 1027.51,-29.8863 1034.45,-28.9535"/>
</g>
<!-- Node21&#45;&gt;Node3 -->
<g id="edge30" class="edge"><title>Node21&#45;&gt;Node3</title>
<path fill="none" stroke="midnightblue" d="M1212.28,-61.9751C1239.55,-51.7687 1285.41,-34.608 1316.3,-23.0492"/>
<polygon fill="midnightblue" stroke="midnightblue" points="1317.62,-26.2919 1325.76,-19.5091 1315.17,-19.7359 1317.62,-26.2919"/>
</g>
<!-- Node21&#45;&gt;Node7 -->
<g id="edge33" class="edge"><title>Node21&#45;&gt;Node7</title>
<path fill="none" stroke="midnightblue" d="M1145.08,-61.9751C1081.39,-49.749 965.695,-27.5439 910.462,-16.9426"/>
<polygon fill="midnightblue" stroke="midnightblue" points="911.046,-13.491 900.566,-15.0433 909.727,-20.3656 911.046,-13.491"/>
</g>
<!-- Node21&#45;&gt;Node8 -->
<g id="edge34" class="edge"><title>Node21&#45;&gt;Node8</title>
<path fill="none" stroke="midnightblue" d="M1166.43,-61.9751C1138.82,-51.7687 1092.38,-34.608 1061.1,-23.0492"/>
<polygon fill="midnightblue" stroke="midnightblue" points="1062.12,-19.6927 1051.52,-19.5091 1059.69,-26.2586 1062.12,-19.6927"/>
</g>
<!-- Node22 -->
<g id="node22" class="node"><title>Node22</title>
<polygon fill="white" stroke="#bfbfbf" points="1247.5,-0.5 1247.5,-19.5 1299.5,-19.5 1299.5,-0.5 1247.5,-0.5"/>
<text text-anchor="middle" x="1273.5" y="-7.5" font-family="Helvetica,sans-Serif" font-size="10.00">cassert</text>
</g>
<!-- Node21&#45;&gt;Node22 -->
<g id="edge29" class="edge"><title>Node21&#45;&gt;Node22</title>
<path fill="none" stroke="midnightblue" d="M1201.54,-61.9751C1215.01,-52.4315 1237.07,-36.8073 1253.22,-25.3683"/>
<polygon fill="midnightblue" stroke="midnightblue" points="1255.35,-28.1454 1261.49,-19.5091 1251.3,-22.4332 1255.35,-28.1454"/>
</g>
<!-- Node23 -->
<g id="node23" class="node"><title>Node23</title>
<polygon fill="white" stroke="#bfbfbf" points="1070,-0.5 1070,-19.5 1147,-19.5 1147,-0.5 1070,-0.5"/>
<text text-anchor="middle" x="1108.5" y="-7.5" font-family="Helvetica,sans-Serif" font-size="10.00">initializer_list</text>
</g>
<!-- Node21&#45;&gt;Node23 -->
<g id="edge31" class="edge"><title>Node21&#45;&gt;Node23</title>
<path fill="none" stroke="midnightblue" d="M1177.89,-61.9751C1165.02,-52.5199 1144.03,-37.0961 1128.49,-25.6871"/>
<polygon fill="midnightblue" stroke="midnightblue" points="1130.22,-22.6085 1120.08,-19.5091 1126.07,-28.25 1130.22,-22.6085"/>
</g>
<!-- Node24 -->
<g id="node24" class="node"><title>Node24</title>
<polygon fill="white" stroke="#bfbfbf" points="1165.5,-0.5 1165.5,-19.5 1229.5,-19.5 1229.5,-0.5 1165.5,-0.5"/>
<text text-anchor="middle" x="1197.5" y="-7.5" font-family="Helvetica,sans-Serif" font-size="10.00">stdexcept</text>
</g>
<!-- Node21&#45;&gt;Node24 -->
<g id="edge32" class="edge"><title>Node21&#45;&gt;Node24</title>
<path fill="none" stroke="midnightblue" d="M1190.65,-61.9751C1191.77,-53.5803 1193.54,-40.4806 1194.99,-29.6631"/>
<polygon fill="midnightblue" stroke="midnightblue" points="1198.49,-29.8863 1196.36,-19.5091 1191.55,-28.9535 1198.49,-29.8863"/>
</g>
<!-- Node25&#45;&gt;Node13 -->
<g id="edge36" class="edge"><title>Node25&#45;&gt;Node13</title>
<path fill="none" stroke="midnightblue" d="M1449.5,-128.734C1449.5,-119.183 1449.5,-103.618 1449.5,-91.2829"/>
<polygon fill="midnightblue" stroke="midnightblue" points="1453,-91.1273 1449.5,-81.1273 1446,-91.1273 1453,-91.1273"/>
</g>
<!-- Node26 -->
<g id="node26" class="node"><title>Node26</title>
<polygon fill="white" stroke="#bfbfbf" points="1492,-62 1492,-81 1561,-81 1561,-62 1492,-62"/>
<text text-anchor="middle" x="1526.5" y="-69" font-family="Helvetica,sans-Serif" font-size="10.00">string_view</text>
</g>
<!-- Node25&#45;&gt;Node26 -->
<g id="edge37" class="edge"><title>Node25&#45;&gt;Node26</title>
<path fill="none" stroke="midnightblue" d="M1459.88,-128.734C1472.35,-118.208 1493.47,-100.379 1508.59,-87.6174"/>
<polygon fill="midnightblue" stroke="midnightblue" points="1510.9,-90.2524 1516.28,-81.1273 1506.38,-84.9034 1510.9,-90.2524"/>
</g>
</g>
</svg>
        <g id="navigator" transform="translate(0 0)" fill="#404254">
                <rect fill="#f2f5e9" fill-opacity="0.5" stroke="#606060" stroke-width=".5" x="0" y="0" width="60" height="60"/>
                <use id="zoomplus" xlink:href="#zoomPlus" x="17" y="9" onmousedown="handleZoom(evt,'in')"/>
                <use id="zoomminus" xlink:href="#zoomMin" x="42" y="9" onmousedown="handleZoom(evt,'out')"/>
                <use id="reset" xlink:href="#resetDef" x="30" y="36" onmousedown="handleReset()"/>
                <g id="arrowUp" xlink:href="#dirArrow" transform="translate(30 24)" onmousedown="handlePan(0,-1)">
                  <use xlink:href="#rim" fill="#404040">
                        <set attributeName="fill" to="#808080" begin="arrowUp.mouseover" end="arrowUp.mouseout"/>
                  </use>
                  <path fill="none" stroke="white" stroke-width="1.5" d="M0,-3.0v7 M-2.5,-0.5L0,-3.0L2.5,-0.5"/>
                </g>
                <g id="arrowRight" xlink:href="#dirArrow" transform="rotate(90) translate(36 -43)" onmousedown="handlePan(1,0)">
                  <use xlink:href="#rim" fill="#404040">
                        <set attributeName="fill" to="#808080" begin="arrowRight.mouseover" end="arrowRight.mouseout"/>
                  </use>
                  <path fill="none" stroke="white" stroke-width="1.5" d="M0,-3.0v7 M-2.5,-0.5L0,-3.0L2.5,-0.5"/>
                </g>
                <g id="arrowDown" xlink:href="#dirArrow" transform="rotate(180) translate(-30 -48)" onmousedown="handlePan(0,1)">
                  <use xlink:href="#rim" fill="#404040">
                        <set attributeName="fill" to="#808080" begin="arrowDown.mouseover" end="arrowDown.mouseout"/>
                  </use>
                  <path fill="none" stroke="white" stroke-width="1.5" d="M0,-3.0v7 M-2.5,-0.5L0,-3.0L2.5,-0.5"/>
                </g>
                <g id="arrowLeft" xlink:href="#dirArrow" transform="rotate(270) translate(-36 17)" onmousedown="handlePan(-1,0)">
                  <use xlink:href="#rim" fill="#404040">
                        <set attributeName="fill" to="#808080" begin="arrowLeft.mouseover" end="arrowLeft.mouseout"/>
                  </use>
                  <path fill="none" stroke="white" stroke-width="1.5" d="M0,-3.0v7 M-2.5,-0.5L0,-3.0L2.5,-0.5"/>
                </g>
        </g>
        <svg viewBox="0 0 15 15" width="100%" height="30px" preserveAspectRatio="xMaxYMin meet">
         <g id="arrow_out" transform="scale(0.3 0.3)">
          <a xlink:href="bdd_8h__incl_org.svg" target="_base">
           <rect id="button" ry="5" rx="5" y="6" x="6" height="38" width="38"
                fill="#f2f5e9" fill-opacity="0.5" stroke="#606060" stroke-width="1.0"/>
           <path id="arrow"
             d="M 11.500037,31.436501 C 11.940474,20.09759 22.043105,11.32322 32.158766,21.979434 L 37.068811,17.246167 C 37.068811,17.246167 37.088388,32 37.088388,32 L 22.160133,31.978069 C 22.160133,31.978069 26.997745,27.140456 26.997745,27.140456 C 18.528582,18.264221 13.291696,25.230495 11.500037,31.436501 z"
             style="fill:#404040;"/>
          </a>
         </g>
        </svg>
</svg>
