<?xml version="1.0" encoding="UTF-8" standalone="no"?>
<!DOCTYPE svg PUBLIC "-//W3C//DTD SVG 1.1//EN"
 "http://www.w3.org/Graphics/SVG/1.1/DTD/svg11.dtd">
<!-- Generated by graphviz version 2.38.0 (20140413.2041)
 -->
<!-- Title: bdd.cc Pages: 1 -->
<!--zoomable 352 -->
<svg id="main" version="1.1" xmlns="http://www.w3.org/2000/svg" xmlns:xlink="http://www.w3.org/1999/xlink" xml:space="preserve" onload="init(evt)">
<style type="text/css"><![CDATA[
.edge:hover path { stroke: red; }
.edge:hover polygon { stroke: red; fill: red; }
]]></style>
<script type="text/javascript"><![CDATA[
var edges = document.getElementsByTagName('g');
if (edges && edges.length) {
  for (var i=0;i<edges.length;i++) {
    if (edges[i].id.substr(0,4)=='edge') {
      edges[i].setAttribute('class','edge');
    }
  }
}
]]></script>
        <defs>
                <circle id="rim" cx="0" cy="0" r="7"/>
                <circle id="rim2" cx="0" cy="0" r="3.5"/>
                <g id="zoomPlus">
                        <use xlink:href="#rim" fill="#404040">
                                <set attributeName="fill" to="#808080" begin="zoomplus.mouseover" end="zoomplus.mouseout"/>
                        </use>
                        <path d="M-4,0h8M0,-4v8" fill="none" stroke="white" stroke-width="1.5" pointer-events="none"/>
                </g>
                <g id="zoomMin">
                        <use xlink:href="#rim" fill="#404040">
                                <set attributeName="fill" to="#808080" begin="zoomminus.mouseover" end="zoomminus.mouseout"/>
                        </use>
                        <path d="M-4,0h8" fill="none" stroke="white" stroke-width="1.5" pointer-events="none"/>
                </g>
                <g id="dirArrow">
                        <path fill="none" stroke="white" stroke-width="1.5" d="M0,-3.0v7 M-2.5,-0.5L0,-3.0L2.5,-0.5"/>
                </g>
               <g id="resetDef">
                       <use xlink:href="#rim2" fill="#404040">
                               <set attributeName="fill" to="#808080" begin="reset.mouseover" end="reset.mouseout"/>
                       </use>
               </g>
        </defs>

<script type="text/javascript">
var viewWidth = 1915;
var viewHeight = 352;
var sectionId = 'dynsection-0';
</script>
<script xlink:href="svgpan.js"/>
<svg id="graph" class="graph">
<g id="viewport">
<title>bdd.cc</title>
<polygon fill="white" stroke="none" points="-4,4 -4,-348 1910.87,-348 1910.87,4 -4,4"/>
<!-- Node1 -->
<g id="node1" class="node"><title>Node1</title>
<polygon fill="#bfbfbf" stroke="black" points="1316.87,-324.5 1316.87,-343.5 1364.87,-343.5 1364.87,-324.5 1316.87,-324.5"/>
<text text-anchor="middle" x="1340.87" y="-331.5" font-family="Helvetica,sans-Serif" font-size="10.00">bdd.cc</text>
</g>
<!-- Node2 -->
<g id="node2" class="node"><title>Node2</title>
<g id="a_node2"><a xlink:href="bdd_8h.xhtml" target="_top" xlink:title="Fault tree analysis with the Binary Decision Diagram algorithms. ">
<polygon fill="white" stroke="black" points="576.872,-196 576.872,-215 620.872,-215 620.872,-196 576.872,-196"/>
<text text-anchor="middle" x="598.872" y="-203" font-family="Helvetica,sans-Serif" font-size="10.00">bdd.h</text>
</a>
</g>
</g>
<!-- Node1&#45;&gt;Node2 -->
<g id="edge1" class="edge"><title>Node1&#45;&gt;Node2</title>
<path fill="none" stroke="midnightblue" d="M1316.74,-329.559C1266.35,-322.32 1146.28,-304.795 1045.87,-288 881.905,-260.574 841.406,-250.895 677.872,-221 662.419,-218.175 645.267,-215.028 630.905,-212.39"/>
<polygon fill="midnightblue" stroke="midnightblue" points="631.472,-208.936 621.004,-210.571 630.207,-215.821 631.472,-208.936"/>
</g>
<!-- Node20 -->
<g id="node20" class="node"><title>Node20</title>
<g id="a_node20"><a xlink:href="find__iterator_8h.xhtml" target="_top" xlink:title="Convenience iterator adaptor to wrap find calls and results. ">
<polygon fill="white" stroke="black" points="15.3716,-62 15.3716,-81 116.372,-81 116.372,-62 15.3716,-62"/>
<text text-anchor="middle" x="65.8716" y="-69" font-family="Helvetica,sans-Serif" font-size="10.00">ext/find_iterator.h</text>
</a>
</g>
</g>
<!-- Node1&#45;&gt;Node20 -->
<g id="edge41" class="edge"><title>Node1&#45;&gt;Node20</title>
<path fill="none" stroke="midnightblue" d="M1316.82,-331.434C1247.42,-326.757 1040.95,-311.729 870.872,-288 544.604,-242.481 430.807,-312.238 141.872,-154 113.565,-138.498 89.8783,-108.593 76.8099,-89.6376"/>
<polygon fill="midnightblue" stroke="midnightblue" points="79.5771,-87.4781 71.1244,-81.0903 73.7487,-91.355 79.5771,-87.4781"/>
</g>
<!-- Node28 -->
<g id="node28" class="node"><title>Node28</title>
<polygon fill="white" stroke="#bfbfbf" points="1631.37,-257.5 1631.37,-287.5 1744.37,-287.5 1744.37,-257.5 1631.37,-257.5"/>
<text text-anchor="start" x="1639.37" y="-275.5" font-family="Helvetica,sans-Serif" font-size="10.00">boost/multiprecision</text>
<text text-anchor="middle" x="1687.87" y="-264.5" font-family="Helvetica,sans-Serif" font-size="10.00">/miller_rabin.hpp</text>
</g>
<!-- Node1&#45;&gt;Node28 -->
<g id="edge39" class="edge"><title>Node1&#45;&gt;Node28</title>
<path fill="none" stroke="midnightblue" d="M1364.92,-329.408C1412.93,-322.167 1523.99,-305.048 1616.87,-288 1618.34,-287.73 1619.83,-287.454 1621.32,-287.173"/>
<polygon fill="midnightblue" stroke="midnightblue" points="1622.17,-290.576 1631.33,-285.259 1620.85,-283.701 1622.17,-290.576"/>
</g>
<!-- Node29 -->
<g id="node29" class="node"><title>Node29</title>
<polygon fill="white" stroke="#bfbfbf" points="1762.87,-263 1762.87,-282 1906.87,-282 1906.87,-263 1762.87,-263"/>
<text text-anchor="middle" x="1834.87" y="-270" font-family="Helvetica,sans-Serif" font-size="10.00">boost/range/algorithm.hpp</text>
</g>
<!-- Node1&#45;&gt;Node29 -->
<g id="edge40" class="edge"><title>Node1&#45;&gt;Node29</title>
<path fill="none" stroke="midnightblue" d="M1365.15,-330.941C1429,-325.4 1606.81,-309.15 1753.87,-288 1762.5,-286.759 1771.62,-285.285 1780.5,-283.761"/>
<polygon fill="midnightblue" stroke="midnightblue" points="1781.15,-287.201 1790.4,-282.028 1779.94,-280.306 1781.15,-287.201"/>
</g>
<!-- Node30 -->
<g id="node30" class="node"><title>Node30</title>
<g id="a_node30"><a xlink:href="logger_8h.xhtml" target="_top" xlink:title="Logging capability for various purposes, such as warnings and debugging. ">
<polygon fill="white" stroke="black" points="1593.37,-129 1593.37,-148 1648.37,-148 1648.37,-129 1593.37,-129"/>
<text text-anchor="middle" x="1620.87" y="-136" font-family="Helvetica,sans-Serif" font-size="10.00">logger.h</text>
</a>
</g>
</g>
<!-- Node1&#45;&gt;Node30 -->
<g id="edge42" class="edge"><title>Node1&#45;&gt;Node30</title>
<path fill="none" stroke="midnightblue" d="M1365.13,-327.202C1411.84,-314.943 1515.27,-282.348 1578.87,-221 1597.17,-203.346 1608.99,-175.988 1615.29,-157.912"/>
<polygon fill="midnightblue" stroke="midnightblue" points="1618.66,-158.848 1618.43,-148.256 1612.01,-156.679 1618.66,-158.848"/>
</g>
<!-- Node34 -->
<g id="node34" class="node"><title>Node34</title>
<g id="a_node34"><a xlink:href="zbdd_8h.xhtml" target="_top" xlink:title="Zero&#45;Suppressed Binary Decision Diagram facilities. ">
<polygon fill="white" stroke="black" points="1055.37,-263 1055.37,-282 1104.37,-282 1104.37,-263 1055.37,-263"/>
<text text-anchor="middle" x="1079.87" y="-270" font-family="Helvetica,sans-Serif" font-size="10.00">zbdd.h</text>
</a>
</g>
</g>
<!-- Node1&#45;&gt;Node34 -->
<g id="edge48" class="edge"><title>Node1&#45;&gt;Node34</title>
<path fill="none" stroke="midnightblue" d="M1316.79,-327.509C1270.31,-316.914 1168.13,-293.619 1114.41,-281.375"/>
<polygon fill="midnightblue" stroke="midnightblue" points="1115.19,-277.962 1104.66,-279.151 1113.63,-284.786 1115.19,-277.962"/>
</g>
<!-- Node3 -->
<g id="node3" class="node"><title>Node3</title>
<polygon fill="white" stroke="#bfbfbf" points="417.372,-129 417.372,-148 464.372,-148 464.372,-129 417.372,-129"/>
<text text-anchor="middle" x="440.872" y="-136" font-family="Helvetica,sans-Serif" font-size="10.00">cmath</text>
</g>
<!-- Node2&#45;&gt;Node3 -->
<g id="edge2" class="edge"><title>Node2&#45;&gt;Node3</title>
<path fill="none" stroke="midnightblue" d="M577.89,-195.869C550.622,-184.65 502.799,-164.977 471.481,-152.092"/>
<polygon fill="midnightblue" stroke="midnightblue" points="472.519,-148.735 461.94,-148.167 469.856,-155.209 472.519,-148.735"/>
</g>
<!-- Node4 -->
<g id="node4" class="node"><title>Node4</title>
<polygon fill="white" stroke="#bfbfbf" points="428.872,-0.5 428.872,-19.5 490.872,-19.5 490.872,-0.5 428.872,-0.5"/>
<text text-anchor="middle" x="459.872" y="-7.5" font-family="Helvetica,sans-Serif" font-size="10.00">algorithm</text>
</g>
<!-- Node2&#45;&gt;Node4 -->
<g id="edge3" class="edge"><title>Node2&#45;&gt;Node4</title>
<path fill="none" stroke="midnightblue" d="M584.185,-195.828C567.643,-185.975 540.043,-169.277 516.872,-154 496.9,-140.833 495.138,-131.743 472.872,-123 417.348,-101.199 246.12,-131.918 206.872,-87 146.907,-18.3728 332.47,-10.4939 418.524,-10.4043"/>
<polygon fill="midnightblue" stroke="midnightblue" points="418.739,-13.9047 428.747,-10.4299 418.756,-6.90473 418.739,-13.9047"/>
</g>
<!-- Node5 -->
<g id="node5" class="node"><title>Node5</title>
<polygon fill="white" stroke="#bfbfbf" points="173.372,-129 173.372,-148 244.372,-148 244.372,-129 173.372,-129"/>
<text text-anchor="middle" x="208.872" y="-136" font-family="Helvetica,sans-Serif" font-size="10.00">forward_list</text>
</g>
<!-- Node2&#45;&gt;Node5 -->
<g id="edge4" class="edge"><title>Node2&#45;&gt;Node5</title>
<path fill="none" stroke="midnightblue" d="M576.763,-202.615C521.551,-197.618 373.404,-182.43 252.872,-154 249.4,-153.181 245.811,-152.211 242.25,-151.166"/>
<polygon fill="midnightblue" stroke="midnightblue" points="242.994,-147.732 232.405,-148.09 240.905,-154.413 242.994,-147.732"/>
</g>
<!-- Node6 -->
<g id="node6" class="node"><title>Node6</title>
<polygon fill="white" stroke="#bfbfbf" points="336.372,-62 336.372,-81 393.372,-81 393.372,-62 336.372,-62"/>
<text text-anchor="middle" x="364.872" y="-69" font-family="Helvetica,sans-Serif" font-size="10.00">memory</text>
</g>
<!-- Node2&#45;&gt;Node6 -->
<g id="edge5" class="edge"><title>Node2&#45;&gt;Node6</title>
<path fill="none" stroke="midnightblue" d="M595.615,-195.847C588.852,-179.088 571.646,-142.167 544.872,-123 493.681,-86.3539 468.179,-105.069 407.872,-87 404.947,-86.1238 401.923,-85.1807 398.896,-84.2109"/>
<polygon fill="midnightblue" stroke="midnightblue" points="399.93,-80.8667 389.338,-81.072 397.746,-87.5173 399.93,-80.8667"/>
</g>
<!-- Node7 -->
<g id="node7" class="node"><title>Node7</title>
<polygon fill="white" stroke="#bfbfbf" points="1233.37,-62 1233.37,-81 1326.37,-81 1326.37,-62 1233.37,-62"/>
<text text-anchor="middle" x="1279.87" y="-69" font-family="Helvetica,sans-Serif" font-size="10.00">unordered_map</text>
</g>
<!-- Node2&#45;&gt;Node7 -->
<g id="edge6" class="edge"><title>Node2&#45;&gt;Node7</title>
<path fill="none" stroke="midnightblue" d="M620.97,-198.31C674.887,-183.404 817.652,-145.116 938.872,-123 1064.47,-100.085 1098.48,-111.05 1223.87,-87 1229.04,-86.0086 1234.44,-84.8154 1239.76,-83.5446"/>
<polygon fill="midnightblue" stroke="midnightblue" points="1240.95,-86.8546 1249.81,-81.0379 1239.26,-80.0627 1240.95,-86.8546"/>
</g>
<!-- Node8 -->
<g id="node8" class="node"><title>Node8</title>
<polygon fill="white" stroke="#bfbfbf" points="123.872,-0.5 123.872,-19.5 165.872,-19.5 165.872,-0.5 123.872,-0.5"/>
<text text-anchor="middle" x="144.872" y="-7.5" font-family="Helvetica,sans-Serif" font-size="10.00">utility</text>
</g>
<!-- Node2&#45;&gt;Node8 -->
<g id="edge7" class="edge"><title>Node2&#45;&gt;Node8</title>
<path fill="none" stroke="midnightblue" d="M576.678,-203.497C492.153,-199.469 193.615,-183.256 163.872,-154 130.624,-121.297 135.691,-60.5094 140.925,-29.7968"/>
<polygon fill="midnightblue" stroke="midnightblue" points="144.431,-30.0974 142.86,-19.6197 137.554,-28.7902 144.431,-30.0974"/>
</g>
<!-- Node9 -->
<g id="node9" class="node"><title>Node9</title>
<polygon fill="white" stroke="#bfbfbf" points="1010.37,-0.5 1010.37,-19.5 1057.37,-19.5 1057.37,-0.5 1010.37,-0.5"/>
<text text-anchor="middle" x="1033.87" y="-7.5" font-family="Helvetica,sans-Serif" font-size="10.00">vector</text>
</g>
<!-- Node2&#45;&gt;Node9 -->
<g id="edge8" class="edge"><title>Node2&#45;&gt;Node9</title>
<path fill="none" stroke="midnightblue" d="M589.52,-195.756C567.473,-175.179 513.724,-125.251 508.872,-123 397.11,-71.1395 155.251,-145.552 239.872,-56 266.353,-27.9752 851.318,-14.5928 999.83,-11.6397"/>
<polygon fill="midnightblue" stroke="midnightblue" points="1000.21,-15.1329 1010.14,-11.4375 1000.08,-8.13424 1000.21,-15.1329"/>
</g>
<!-- Node10 -->
<g id="node10" class="node"><title>Node10</title>
<polygon fill="white" stroke="#bfbfbf" points="1017.87,-129 1017.87,-148 1157.87,-148 1157.87,-129 1017.87,-129"/>
<text text-anchor="middle" x="1087.87" y="-136" font-family="Helvetica,sans-Serif" font-size="10.00">boost/functional/hash.hpp</text>
</g>
<!-- Node2&#45;&gt;Node10 -->
<g id="edge9" class="edge"><title>Node2&#45;&gt;Node10</title>
<path fill="none" stroke="midnightblue" d="M621.154,-201.538C689.801,-192.413 900.262,-164.438 1013.66,-149.365"/>
<polygon fill="midnightblue" stroke="midnightblue" points="1014.2,-152.824 1023.65,-148.036 1013.28,-145.885 1014.2,-152.824"/>
</g>
<!-- Node11 -->
<g id="node11" class="node"><title>Node11</title>
<polygon fill="white" stroke="#bfbfbf" points="1411.87,-62 1411.87,-81 1539.87,-81 1539.87,-62 1411.87,-62"/>
<text text-anchor="middle" x="1475.87" y="-69" font-family="Helvetica,sans-Serif" font-size="10.00">boost/noncopyable.hpp</text>
</g>
<!-- Node2&#45;&gt;Node11 -->
<g id="edge10" class="edge"><title>Node2&#45;&gt;Node11</title>
<path fill="none" stroke="midnightblue" d="M621.061,-201.06C669.025,-193.514 785.865,-174.535 882.872,-154 939.291,-142.057 951.997,-132.546 1008.87,-123 1181.85,-93.9666 1228.25,-111.896 1401.87,-87 1409.89,-85.8507 1418.35,-84.4103 1426.57,-82.8866"/>
<polygon fill="midnightblue" stroke="midnightblue" points="1427.28,-86.3155 1436.44,-81.0006 1425.96,-79.44 1427.28,-86.3155"/>
</g>
<!-- Node12 -->
<g id="node12" class="node"><title>Node12</title>
<polygon fill="white" stroke="#bfbfbf" points="262.372,-123.5 262.372,-153.5 399.372,-153.5 399.372,-123.5 262.372,-123.5"/>
<text text-anchor="start" x="270.372" y="-141.5" font-family="Helvetica,sans-Serif" font-size="10.00">boost/smart_ptr/intrusive</text>
<text text-anchor="middle" x="330.872" y="-130.5" font-family="Helvetica,sans-Serif" font-size="10.00">_ptr.hpp</text>
</g>
<!-- Node2&#45;&gt;Node12 -->
<g id="edge11" class="edge"><title>Node2&#45;&gt;Node12</title>
<path fill="none" stroke="midnightblue" d="M576.483,-199.07C537.774,-189.681 456.883,-170.063 398.492,-155.9"/>
<polygon fill="midnightblue" stroke="midnightblue" points="399.14,-152.456 388.597,-153.5 397.49,-159.259 399.14,-152.456"/>
</g>
<!-- Node13 -->
<g id="node13" class="node"><title>Node13</title>
<g id="a_node13"><a xlink:href="pdag_8h.xhtml" target="_top" xlink:title="Classes and facilities to represent fault trees as PDAGs with event and gate indices instead of ID na...">
<polygon fill="white" stroke="black" points="723.872,-129 723.872,-148 773.872,-148 773.872,-129 723.872,-129"/>
<text text-anchor="middle" x="748.872" y="-136" font-family="Helvetica,sans-Serif" font-size="10.00">pdag.h</text>
</a>
</g>
</g>
<!-- Node2&#45;&gt;Node13 -->
<g id="edge12" class="edge"><title>Node2&#45;&gt;Node13</title>
<path fill="none" stroke="midnightblue" d="M618.79,-195.869C644.566,-184.699 689.687,-165.147 719.425,-152.26"/>
<polygon fill="midnightblue" stroke="midnightblue" points="721.087,-155.355 728.87,-148.167 718.303,-148.932 721.087,-155.355"/>
</g>
<!-- Node26 -->
<g id="node26" class="node"><title>Node26</title>
<g id="a_node26"><a xlink:href="settings_8h.xhtml" target="_top" xlink:title="Builder for settings. ">
<polygon fill="white" stroke="black" points="596.872,-129 596.872,-148 660.872,-148 660.872,-129 596.872,-129"/>
<text text-anchor="middle" x="628.872" y="-136" font-family="Helvetica,sans-Serif" font-size="10.00">settings.h</text>
</a>
</g>
</g>
<!-- Node2&#45;&gt;Node26 -->
<g id="edge36" class="edge"><title>Node2&#45;&gt;Node26</title>
<path fill="none" stroke="midnightblue" d="M602.918,-195.734C607.416,-185.988 614.804,-169.981 620.549,-157.532"/>
<polygon fill="midnightblue" stroke="midnightblue" points="623.877,-158.674 624.89,-148.127 617.521,-155.74 623.877,-158.674"/>
</g>
<!-- Node13&#45;&gt;Node4 -->
<g id="edge15" class="edge"><title>Node13&#45;&gt;Node4</title>
<path fill="none" stroke="midnightblue" d="M725.873,-128.951C719.462,-126.786 712.451,-124.619 705.872,-123 606.68,-98.594 554.199,-155.995 478.872,-87 463.075,-72.5317 459.524,-47.0992 459.13,-29.67"/>
<polygon fill="midnightblue" stroke="midnightblue" points="462.631,-29.6021 459.23,-19.568 455.631,-29.5328 462.631,-29.6021"/>
</g>
<!-- Node13&#45;&gt;Node6 -->
<g id="edge17" class="edge"><title>Node13&#45;&gt;Node6</title>
<path fill="none" stroke="midnightblue" d="M726.358,-128.941C719.827,-126.723 712.633,-124.531 705.872,-123 575.76,-93.5314 537.984,-116.469 407.872,-87 404.385,-86.2104 400.784,-85.2451 397.218,-84.1913"/>
<polygon fill="midnightblue" stroke="midnightblue" points="397.976,-80.7598 387.386,-81.0592 395.852,-87.4295 397.976,-80.7598"/>
</g>
<!-- Node13&#45;&gt;Node7 -->
<g id="edge19" class="edge"><title>Node13&#45;&gt;Node7</title>
<path fill="none" stroke="midnightblue" d="M774.088,-132.119C789.075,-129.08 808.491,-125.417 825.872,-123 1001.79,-98.5376 1048.87,-117.361 1223.87,-87 1229.38,-86.0451 1235.13,-84.8205 1240.77,-83.4886"/>
<polygon fill="midnightblue" stroke="midnightblue" points="1241.86,-86.825 1250.71,-81.0103 1240.16,-80.0328 1241.86,-86.825"/>
</g>
<!-- Node13&#45;&gt;Node8 -->
<g id="edge20" class="edge"><title>Node13&#45;&gt;Node8</title>
<path fill="none" stroke="midnightblue" d="M725.886,-128.897C719.476,-126.731 712.461,-124.577 705.872,-123 597.983,-97.1708 564.128,-122.047 458.872,-87 431.511,-77.8897 429.099,-65.5007 401.872,-56 323.378,-28.6107 225.339,-17.3643 176.124,-13.192"/>
<polygon fill="midnightblue" stroke="midnightblue" points="176.355,-9.69937 166.106,-12.3842 175.793,-16.6767 176.355,-9.69937"/>
</g>
<!-- Node13&#45;&gt;Node9 -->
<g id="edge21" class="edge"><title>Node13&#45;&gt;Node9</title>
<path fill="none" stroke="midnightblue" d="M723.858,-129.118C686.618,-115.373 623.739,-86.5072 650.872,-56 673.933,-30.0707 910.837,-16.6255 1000.1,-12.4498"/>
<polygon fill="midnightblue" stroke="midnightblue" points="1000.4,-15.9399 1010.23,-11.9863 1000.08,-8.94718 1000.4,-15.9399"/>
</g>
<!-- Node13&#45;&gt;Node11 -->
<g id="edge23" class="edge"><title>Node13&#45;&gt;Node11</title>
<path fill="none" stroke="midnightblue" d="M774.132,-135.566C893.308,-126.441 1393.93,-88.0811 1401.87,-87 1409.99,-85.8949 1418.56,-84.464 1426.87,-82.9324"/>
<polygon fill="midnightblue" stroke="midnightblue" points="1427.67,-86.3423 1436.84,-81.0295 1426.36,-79.4665 1427.67,-86.3423"/>
</g>
<!-- Node14 -->
<g id="node14" class="node"><title>Node14</title>
<polygon fill="white" stroke="#bfbfbf" points="1344.37,-62 1344.37,-81 1393.37,-81 1393.37,-62 1344.37,-62"/>
<text text-anchor="middle" x="1368.87" y="-69" font-family="Helvetica,sans-Serif" font-size="10.00">cstdint</text>
</g>
<!-- Node13&#45;&gt;Node14 -->
<g id="edge13" class="edge"><title>Node13&#45;&gt;Node14</title>
<path fill="none" stroke="midnightblue" d="M774.197,-135.542C883.092,-127.096 1307.25,-93.8914 1334.87,-87 1337.24,-86.4101 1339.65,-85.6762 1342.04,-84.854"/>
<polygon fill="midnightblue" stroke="midnightblue" points="1343.55,-88.02 1351.59,-81.1198 1341,-81.5003 1343.55,-88.02"/>
</g>
<!-- Node15 -->
<g id="node15" class="node"><title>Node15</title>
<polygon fill="white" stroke="#bfbfbf" points="660.372,-62 660.372,-81 707.372,-81 707.372,-62 660.372,-62"/>
<text text-anchor="middle" x="683.872" y="-69" font-family="Helvetica,sans-Serif" font-size="10.00">cstdlib</text>
</g>
<!-- Node13&#45;&gt;Node15 -->
<g id="edge14" class="edge"><title>Node13&#45;&gt;Node15</title>
<path fill="none" stroke="midnightblue" d="M740.105,-128.734C729.775,-118.403 712.409,-101.037 699.703,-88.3315"/>
<polygon fill="midnightblue" stroke="midnightblue" points="702.045,-85.7235 692.499,-81.1273 697.095,-90.6733 702.045,-85.7235"/>
</g>
<!-- Node16 -->
<g id="node16" class="node"><title>Node16</title>
<polygon fill="white" stroke="#bfbfbf" points="725.872,-62 725.872,-81 771.872,-81 771.872,-62 725.872,-62"/>
<text text-anchor="middle" x="748.872" y="-69" font-family="Helvetica,sans-Serif" font-size="10.00">iosfwd</text>
</g>
<!-- Node13&#45;&gt;Node16 -->
<g id="edge16" class="edge"><title>Node13&#45;&gt;Node16</title>
<path fill="none" stroke="midnightblue" d="M748.872,-128.734C748.872,-119.183 748.872,-103.618 748.872,-91.2829"/>
<polygon fill="midnightblue" stroke="midnightblue" points="752.372,-91.1273 748.872,-81.1273 745.372,-91.1273 752.372,-91.1273"/>
</g>
<!-- Node17 -->
<g id="node17" class="node"><title>Node17</title>
<polygon fill="white" stroke="#bfbfbf" points="789.872,-62 789.872,-81 857.872,-81 857.872,-62 789.872,-62"/>
<text text-anchor="middle" x="823.872" y="-69" font-family="Helvetica,sans-Serif" font-size="10.00">type_traits</text>
</g>
<!-- Node13&#45;&gt;Node17 -->
<g id="edge18" class="edge"><title>Node13&#45;&gt;Node17</title>
<path fill="none" stroke="midnightblue" d="M758.986,-128.734C771.019,-118.305 791.323,-100.709 806.018,-87.9732"/>
<polygon fill="midnightblue" stroke="midnightblue" points="808.652,-90.3216 813.917,-81.1273 804.068,-85.0317 808.652,-90.3216"/>
</g>
<!-- Node18 -->
<g id="node18" class="node"><title>Node18</title>
<polygon fill="white" stroke="#bfbfbf" points="875.872,-56.5 875.872,-86.5 985.872,-86.5 985.872,-56.5 875.872,-56.5"/>
<text text-anchor="start" x="883.872" y="-74.5" font-family="Helvetica,sans-Serif" font-size="10.00">boost/container/flat</text>
<text text-anchor="middle" x="930.872" y="-63.5" font-family="Helvetica,sans-Serif" font-size="10.00">_set.hpp</text>
</g>
<!-- Node13&#45;&gt;Node18 -->
<g id="edge22" class="edge"><title>Node13&#45;&gt;Node18</title>
<path fill="none" stroke="midnightblue" d="M773.04,-128.869C800.704,-118.988 846.734,-102.549 881.966,-89.9662"/>
<polygon fill="midnightblue" stroke="midnightblue" points="883.353,-93.1876 891.593,-86.5281 880.998,-86.5954 883.353,-93.1876"/>
</g>
<!-- Node19 -->
<g id="node19" class="node"><title>Node19</title>
<polygon fill="white" stroke="#bfbfbf" points="488.372,-56.5 488.372,-86.5 603.372,-86.5 603.372,-56.5 488.372,-56.5"/>
<text text-anchor="start" x="496.372" y="-74.5" font-family="Helvetica,sans-Serif" font-size="10.00">boost/range/adaptor</text>
<text text-anchor="middle" x="545.872" y="-63.5" font-family="Helvetica,sans-Serif" font-size="10.00">/transformed.hpp</text>
</g>
<!-- Node13&#45;&gt;Node19 -->
<g id="edge24" class="edge"><title>Node13&#45;&gt;Node19</title>
<path fill="none" stroke="midnightblue" d="M723.888,-128.983C717.987,-126.998 711.713,-124.907 705.872,-123 671.015,-111.623 631.753,-99.2251 600.845,-89.5603"/>
<polygon fill="midnightblue" stroke="midnightblue" points="601.708,-86.1633 591.12,-86.5232 599.622,-92.8451 601.708,-86.1633"/>
</g>
<!-- Node13&#45;&gt;Node20 -->
<g id="edge25" class="edge"><title>Node13&#45;&gt;Node20</title>
<path fill="none" stroke="midnightblue" d="M723.711,-132.231C708.241,-129.153 687.979,-125.413 669.872,-123 668.196,-122.777 279.438,-90.3234 126.58,-77.5662"/>
<polygon fill="midnightblue" stroke="midnightblue" points="126.681,-74.0625 116.425,-76.7186 126.099,-81.0383 126.681,-74.0625"/>
</g>
<!-- Node21 -->
<g id="node21" class="node"><title>Node21</title>
<g id="a_node21"><a xlink:href="index__map_8h.xhtml" target="_top" xlink:title="Non&#45;zero based Index&#45;&gt;Value map adapter on sequential containers. ">
<polygon fill="white" stroke="black" points="1003.87,-62 1003.87,-81 1099.87,-81 1099.87,-62 1003.87,-62"/>
<text text-anchor="middle" x="1051.87" y="-69" font-family="Helvetica,sans-Serif" font-size="10.00">ext/index_map.h</text>
</a>
</g>
</g>
<!-- Node13&#45;&gt;Node21 -->
<g id="edge27" class="edge"><title>Node13&#45;&gt;Node21</title>
<path fill="none" stroke="midnightblue" d="M774.099,-132.724C818.75,-124.182 914.561,-105.448 994.872,-87 999.599,-85.9142 1004.53,-84.7321 1009.44,-83.5268"/>
<polygon fill="midnightblue" stroke="midnightblue" points="1010.53,-86.8624 1019.38,-81.0438 1008.83,-80.0709 1010.53,-86.8624"/>
</g>
<!-- Node22 -->
<g id="node22" class="node"><title>Node22</title>
<g id="a_node22"><a xlink:href="linear__map_8h.xhtml" target="_top" xlink:title="Implementation of a vector&#45;based map for a small number of entries. ">
<polygon fill="white" stroke="black" points="1118.37,-62 1118.37,-81 1215.37,-81 1215.37,-62 1118.37,-62"/>
<text text-anchor="middle" x="1166.87" y="-69" font-family="Helvetica,sans-Serif" font-size="10.00">ext/linear_map.h</text>
</a>
</g>
</g>
<!-- Node13&#45;&gt;Node22 -->
<g id="edge29" class="edge"><title>Node13&#45;&gt;Node22</title>
<path fill="none" stroke="midnightblue" d="M774.122,-132.352C789.121,-129.393 808.538,-125.732 825.872,-123 951.117,-103.259 984.261,-110.417 1108.87,-87 1114.35,-85.9696 1120.09,-84.7328 1125.74,-83.4215"/>
<polygon fill="midnightblue" stroke="midnightblue" points="1126.82,-86.7606 1135.72,-81.0093 1125.17,-79.9565 1126.82,-86.7606"/>
</g>
<!-- Node20&#45;&gt;Node8 -->
<g id="edge26" class="edge"><title>Node20&#45;&gt;Node8</title>
<path fill="none" stroke="midnightblue" d="M77.1904,-61.9751C89.7444,-52.5199 110.223,-37.0961 125.371,-25.6871"/>
<polygon fill="midnightblue" stroke="midnightblue" points="127.692,-28.321 133.574,-19.5091 123.48,-22.7295 127.692,-28.321"/>
</g>
<!-- Node21&#45;&gt;Node9 -->
<g id="edge28" class="edge"><title>Node21&#45;&gt;Node9</title>
<path fill="none" stroke="midnightblue" d="M1049.29,-61.9751C1046.73,-53.4919 1042.71,-40.2043 1039.41,-29.3222"/>
<polygon fill="midnightblue" stroke="midnightblue" points="1042.69,-28.0672 1036.45,-19.5091 1035.99,-30.0942 1042.69,-28.0672"/>
</g>
<!-- Node22&#45;&gt;Node4 -->
<g id="edge31" class="edge"><title>Node22&#45;&gt;Node4</title>
<path fill="none" stroke="midnightblue" d="M1136.98,-61.9599C1128.01,-59.6876 1118.1,-57.4615 1108.87,-56 881.31,-19.9524 604.317,-12.7802 501.167,-11.3538"/>
<polygon fill="midnightblue" stroke="midnightblue" points="501.207,-7.85416 491.163,-11.2263 501.118,-14.8536 501.207,-7.85416"/>
</g>
<!-- Node22&#45;&gt;Node8 -->
<g id="edge34" class="edge"><title>Node22&#45;&gt;Node8</title>
<path fill="none" stroke="midnightblue" d="M1137.59,-61.9803C1128.47,-59.6503 1118.32,-57.3874 1108.87,-56 1014.98,-42.2117 332.233,-17.5831 176.456,-12.1013"/>
<polygon fill="midnightblue" stroke="midnightblue" points="176.283,-8.59313 166.166,-11.7401 176.037,-15.5888 176.283,-8.59313"/>
</g>
<!-- Node22&#45;&gt;Node9 -->
<g id="edge35" class="edge"><title>Node22&#45;&gt;Node9</title>
<path fill="none" stroke="midnightblue" d="M1147.82,-61.9751C1125.4,-51.9455 1087.97,-35.2002 1062.16,-23.6546"/>
<polygon fill="midnightblue" stroke="midnightblue" points="1063.45,-20.3979 1052.89,-19.5091 1060.59,-26.7877 1063.45,-20.3979"/>
</g>
<!-- Node23 -->
<g id="node23" class="node"><title>Node23</title>
<polygon fill="white" stroke="#bfbfbf" points="1075.87,-0.5 1075.87,-19.5 1127.87,-19.5 1127.87,-0.5 1075.87,-0.5"/>
<text text-anchor="middle" x="1101.87" y="-7.5" font-family="Helvetica,sans-Serif" font-size="10.00">cassert</text>
</g>
<!-- Node22&#45;&gt;Node23 -->
<g id="edge30" class="edge"><title>Node22&#45;&gt;Node23</title>
<path fill="none" stroke="midnightblue" d="M1157.56,-61.9751C1147.42,-52.6966 1131.01,-37.6706 1118.62,-26.331"/>
<polygon fill="midnightblue" stroke="midnightblue" points="1120.91,-23.6795 1111.17,-19.5091 1116.18,-28.8429 1120.91,-23.6795"/>
</g>
<!-- Node24 -->
<g id="node24" class="node"><title>Node24</title>
<polygon fill="white" stroke="#bfbfbf" points="1146.37,-0.5 1146.37,-19.5 1223.37,-19.5 1223.37,-0.5 1146.37,-0.5"/>
<text text-anchor="middle" x="1184.87" y="-7.5" font-family="Helvetica,sans-Serif" font-size="10.00">initializer_list</text>
</g>
<!-- Node22&#45;&gt;Node24 -->
<g id="edge32" class="edge"><title>Node22&#45;&gt;Node24</title>
<path fill="none" stroke="midnightblue" d="M1169.45,-61.9751C1172.02,-53.4919 1176.04,-40.2043 1179.33,-29.3222"/>
<polygon fill="midnightblue" stroke="midnightblue" points="1182.75,-30.0942 1182.3,-19.5091 1176.05,-28.0672 1182.75,-30.0942"/>
</g>
<!-- Node25 -->
<g id="node25" class="node"><title>Node25</title>
<polygon fill="white" stroke="#bfbfbf" points="1241.87,-0.5 1241.87,-19.5 1305.87,-19.5 1305.87,-0.5 1241.87,-0.5"/>
<text text-anchor="middle" x="1273.87" y="-7.5" font-family="Helvetica,sans-Serif" font-size="10.00">stdexcept</text>
</g>
<!-- Node22&#45;&gt;Node25 -->
<g id="edge33" class="edge"><title>Node22&#45;&gt;Node25</title>
<path fill="none" stroke="midnightblue" d="M1182.2,-61.9751C1199.84,-52.1664 1229.03,-35.9346 1249.73,-24.425"/>
<polygon fill="midnightblue" stroke="midnightblue" points="1251.53,-27.4279 1258.57,-19.5091 1248.13,-21.3102 1251.53,-27.4279"/>
</g>
<!-- Node26&#45;&gt;Node14 -->
<g id="edge37" class="edge"><title>Node26&#45;&gt;Node14</title>
<path fill="none" stroke="midnightblue" d="M661.016,-131.225C677.126,-128.298 696.967,-125.023 714.872,-123 989.146,-92.0087 1066.16,-150.076 1334.87,-87 1337.39,-86.4098 1339.95,-85.6467 1342.49,-84.7797"/>
<polygon fill="midnightblue" stroke="midnightblue" points="1343.93,-87.9731 1351.97,-81.0669 1341.38,-81.4553 1343.93,-87.9731"/>
</g>
<!-- Node27 -->
<g id="node27" class="node"><title>Node27</title>
<polygon fill="white" stroke="#bfbfbf" points="249.372,-62 249.372,-81 318.372,-81 318.372,-62 249.372,-62"/>
<text text-anchor="middle" x="283.872" y="-69" font-family="Helvetica,sans-Serif" font-size="10.00">string_view</text>
</g>
<!-- Node26&#45;&gt;Node27 -->
<g id="edge38" class="edge"><title>Node26&#45;&gt;Node27</title>
<path fill="none" stroke="midnightblue" d="M596.571,-131.868C580.958,-129.16 561.945,-125.883 544.872,-123 448.042,-106.648 422.153,-110.767 326.872,-87 323.482,-86.1545 319.976,-85.1668 316.497,-84.1116"/>
<polygon fill="midnightblue" stroke="midnightblue" points="317.468,-80.7476 306.877,-81.021 315.327,-87.4121 317.468,-80.7476"/>
</g>
<!-- Node30&#45;&gt;Node11 -->
<g id="edge46" class="edge"><title>Node30&#45;&gt;Node11</title>
<path fill="none" stroke="midnightblue" d="M1601.62,-128.869C1576.7,-117.699 1533.08,-98.1468 1504.34,-85.2602"/>
<polygon fill="midnightblue" stroke="midnightblue" points="1505.76,-82.064 1495.21,-81.1672 1502.9,-88.4516 1505.76,-82.064"/>
</g>
<!-- Node30&#45;&gt;Node14 -->
<g id="edge43" class="edge"><title>Node30&#45;&gt;Node14</title>
<path fill="none" stroke="midnightblue" d="M1593.26,-132.715C1551.47,-125.114 1469.91,-108.871 1402.87,-87 1400.95,-86.373 1398.99,-85.6808 1397.02,-84.9489"/>
<polygon fill="midnightblue" stroke="midnightblue" points="1397.94,-81.5456 1387.35,-81.0768 1395.33,-88.0438 1397.94,-81.5456"/>
</g>
<!-- Node31 -->
<g id="node31" class="node"><title>Node31</title>
<polygon fill="white" stroke="#bfbfbf" points="1595.87,-62 1595.87,-81 1645.87,-81 1645.87,-62 1595.87,-62"/>
<text text-anchor="middle" x="1620.87" y="-69" font-family="Helvetica,sans-Serif" font-size="10.00">chrono</text>
</g>
<!-- Node30&#45;&gt;Node31 -->
<g id="edge44" class="edge"><title>Node30&#45;&gt;Node31</title>
<path fill="none" stroke="midnightblue" d="M1620.87,-128.734C1620.87,-119.183 1620.87,-103.618 1620.87,-91.2829"/>
<polygon fill="midnightblue" stroke="midnightblue" points="1624.37,-91.1273 1620.87,-81.1273 1617.37,-91.1273 1624.37,-91.1273"/>
</g>
<!-- Node32 -->
<g id="node32" class="node"><title>Node32</title>
<polygon fill="white" stroke="#bfbfbf" points="1663.87,-62 1663.87,-81 1719.87,-81 1719.87,-62 1663.87,-62"/>
<text text-anchor="middle" x="1691.87" y="-69" font-family="Helvetica,sans-Serif" font-size="10.00">sstream</text>
</g>
<!-- Node30&#45;&gt;Node32 -->
<g id="edge45" class="edge"><title>Node30&#45;&gt;Node32</title>
<path fill="none" stroke="midnightblue" d="M1630.45,-128.734C1641.84,-118.305 1661.06,-100.709 1674.97,-87.9732"/>
<polygon fill="midnightblue" stroke="midnightblue" points="1677.44,-90.4614 1682.45,-81.1273 1672.71,-85.2983 1677.44,-90.4614"/>
</g>
<!-- Node33 -->
<g id="node33" class="node"><title>Node33</title>
<polygon fill="white" stroke="#bfbfbf" points="1737.87,-56.5 1737.87,-86.5 1847.87,-86.5 1847.87,-56.5 1737.87,-56.5"/>
<text text-anchor="start" x="1745.87" y="-74.5" font-family="Helvetica,sans-Serif" font-size="10.00">boost/preprocessor</text>
<text text-anchor="middle" x="1792.87" y="-63.5" font-family="Helvetica,sans-Serif" font-size="10.00">/cat.hpp</text>
</g>
<!-- Node30&#45;&gt;Node33 -->
<g id="edge47" class="edge"><title>Node30&#45;&gt;Node33</title>
<path fill="none" stroke="midnightblue" d="M1643.71,-128.869C1669.74,-119.031 1712.99,-102.689 1746.23,-90.1277"/>
<polygon fill="midnightblue" stroke="midnightblue" points="1747.63,-93.3372 1755.75,-86.5281 1745.16,-86.7892 1747.63,-93.3372"/>
</g>
<!-- Node34&#45;&gt;Node2 -->
<g id="edge59" class="edge"><title>Node34&#45;&gt;Node2</title>
<path fill="none" stroke="midnightblue" d="M1055.33,-268.907C992.435,-262.153 820.379,-243.011 677.872,-221 662.347,-218.602 645.187,-215.507 630.837,-212.792"/>
<polygon fill="midnightblue" stroke="midnightblue" points="631.429,-209.342 620.949,-210.898 630.112,-216.217 631.429,-209.342"/>
</g>
<!-- Node34&#45;&gt;Node6 -->
<g id="edge52" class="edge"><title>Node34&#45;&gt;Node6</title>
<path fill="none" stroke="midnightblue" d="M1054.97,-268.307C996.462,-260.578 851.785,-240.091 806.872,-221 789.647,-213.678 687.278,-129.877 669.872,-123 556.459,-78.1922 515.306,-119.854 397.872,-87 395.717,-86.3973 393.521,-85.6801 391.337,-84.8922"/>
<polygon fill="midnightblue" stroke="midnightblue" points="392.585,-81.622 382.002,-81.1209 389.963,-88.1122 392.585,-81.622"/>
</g>
<!-- Node34&#45;&gt;Node7 -->
<g id="edge53" class="edge"><title>Node34&#45;&gt;Node7</title>
<path fill="none" stroke="midnightblue" d="M1088.47,-262.949C1119.17,-232.401 1223.74,-128.354 1263.94,-88.3493"/>
<polygon fill="midnightblue" stroke="midnightblue" points="1266.46,-90.7775 1271.08,-81.243 1261.53,-85.8153 1266.46,-90.7775"/>
</g>
<!-- Node34&#45;&gt;Node8 -->
<g id="edge54" class="edge"><title>Node34&#45;&gt;Node8</title>
<path fill="none" stroke="midnightblue" d="M1054.94,-271.868C904.585,-273.464 121.424,-272.74 5.87165,-87 -1.4063,-75.3013 -2.23267,-67.1421 5.87165,-56 30.4418,-22.22 80.9195,-13.2785 113.806,-11.1978"/>
<polygon fill="midnightblue" stroke="midnightblue" points="113.981,-14.6936 123.811,-10.7405 113.661,-7.70088 113.981,-14.6936"/>
</g>
<!-- Node34&#45;&gt;Node9 -->
<g id="edge55" class="edge"><title>Node34&#45;&gt;Node9</title>
<path fill="none" stroke="midnightblue" d="M1104.49,-269.323C1218.76,-258.38 1686.18,-203.943 1548.87,-56 1513.94,-18.3661 1153.61,-28.1112 1067.61,-19.3684"/>
<polygon fill="midnightblue" stroke="midnightblue" points="1067.91,-15.879 1057.54,-18.0393 1067,-22.8187 1067.91,-15.879"/>
</g>
<!-- Node34&#45;&gt;Node10 -->
<g id="edge56" class="edge"><title>Node34&#45;&gt;Node10</title>
<path fill="none" stroke="midnightblue" d="M1083.09,-262.713C1086.55,-252.756 1091.84,-235.965 1093.87,-221 1096.79,-199.526 1094.09,-174.662 1091.44,-158.099"/>
<polygon fill="midnightblue" stroke="midnightblue" points="1094.86,-157.344 1089.68,-148.102 1087.97,-158.557 1094.86,-157.344"/>
</g>
<!-- Node34&#45;&gt;Node11 -->
<g id="edge58" class="edge"><title>Node34&#45;&gt;Node11</title>
<path fill="none" stroke="midnightblue" d="M1101.44,-262.924C1125.29,-253.289 1164.72,-236.91 1197.87,-221 1293.87,-174.926 1404.55,-113.093 1452.13,-86.0808"/>
<polygon fill="midnightblue" stroke="midnightblue" points="1454.08,-88.9985 1461.04,-81.0102 1450.62,-82.9148 1454.08,-88.9985"/>
</g>
<!-- Node34&#45;&gt;Node13 -->
<g id="edge60" class="edge"><title>Node34&#45;&gt;Node13</title>
<path fill="none" stroke="midnightblue" d="M1080.69,-262.859C1081.76,-246.121 1081.47,-209.235 1060.87,-190 1021.31,-153.059 857.409,-143.063 784.324,-140.421"/>
<polygon fill="midnightblue" stroke="midnightblue" points="784.337,-136.92 774.225,-140.082 784.102,-143.916 784.337,-136.92"/>
</g>
<!-- Node34&#45;&gt;Node14 -->
<g id="edge49" class="edge"><title>Node34&#45;&gt;Node14</title>
<path fill="none" stroke="midnightblue" d="M1094.38,-262.828C1110.73,-252.975 1137.99,-236.276 1160.87,-221 1231.29,-173.98 1312.3,-114.545 1348.98,-87.3305"/>
<polygon fill="midnightblue" stroke="midnightblue" points="1351.38,-89.9075 1357.32,-81.133 1347.21,-84.2894 1351.38,-89.9075"/>
</g>
<!-- Node35 -->
<g id="node35" class="node"><title>Node35</title>
<polygon fill="white" stroke="#bfbfbf" points="816.372,-196 816.372,-215 857.372,-215 857.372,-196 816.372,-196"/>
<text text-anchor="middle" x="836.872" y="-203" font-family="Helvetica,sans-Serif" font-size="10.00">array</text>
</g>
<!-- Node34&#45;&gt;Node35 -->
<g id="edge50" class="edge"><title>Node34&#45;&gt;Node35</title>
<path fill="none" stroke="midnightblue" d="M1055.1,-267.435C1014.85,-260.434 933.119,-244.547 866.872,-221 865.441,-220.491 863.988,-219.935 862.533,-219.345"/>
<polygon fill="midnightblue" stroke="midnightblue" points="863.659,-216.015 853.101,-215.137 860.807,-222.408 863.659,-216.015"/>
</g>
<!-- Node36 -->
<g id="node36" class="node"><title>Node36</title>
<polygon fill="white" stroke="#bfbfbf" points="875.872,-196 875.872,-215 913.872,-215 913.872,-196 875.872,-196"/>
<text text-anchor="middle" x="894.872" y="-203" font-family="Helvetica,sans-Serif" font-size="10.00">map</text>
</g>
<!-- Node34&#45;&gt;Node36 -->
<g id="edge51" class="edge"><title>Node34&#45;&gt;Node36</title>
<path fill="none" stroke="midnightblue" d="M1055.21,-264.946C1023.9,-256.313 968.468,-239.984 922.872,-221 921.836,-220.569 920.786,-220.113 919.732,-219.641"/>
<polygon fill="midnightblue" stroke="midnightblue" points="920.876,-216.306 910.35,-215.099 917.826,-222.607 920.876,-216.306"/>
</g>
<!-- Node37 -->
<g id="node37" class="node"><title>Node37</title>
<polygon fill="white" stroke="#bfbfbf" points="931.872,-190.5 931.872,-220.5 1051.87,-220.5 1051.87,-190.5 931.872,-190.5"/>
<text text-anchor="start" x="939.872" y="-208.5" font-family="Helvetica,sans-Serif" font-size="10.00">boost/iterator/iterator</text>
<text text-anchor="middle" x="991.872" y="-197.5" font-family="Helvetica,sans-Serif" font-size="10.00">_facade.hpp</text>
</g>
<!-- Node34&#45;&gt;Node37 -->
<g id="edge57" class="edge"><title>Node34&#45;&gt;Node37</title>
<path fill="none" stroke="midnightblue" d="M1068,-262.734C1055.54,-253.527 1035.51,-238.733 1019.12,-226.629"/>
<polygon fill="midnightblue" stroke="midnightblue" points="1021.07,-223.715 1010.95,-220.589 1016.91,-229.346 1021.07,-223.715"/>
</g>
</g>
</svg>
        <g id="navigator" transform="translate(0 0)" fill="#404254">
                <rect fill="#f2f5e9" fill-opacity="0.5" stroke="#606060" stroke-width=".5" x="0" y="0" width="60" height="60"/>
                <use id="zoomplus" xlink:href="#zoomPlus" x="17" y="9" onmousedown="handleZoom(evt,'in')"/>
                <use id="zoomminus" xlink:href="#zoomMin" x="42" y="9" onmousedown="handleZoom(evt,'out')"/>
                <use id="reset" xlink:href="#resetDef" x="30" y="36" onmousedown="handleReset()"/>
                <g id="arrowUp" xlink:href="#dirArrow" transform="translate(30 24)" onmousedown="handlePan(0,-1)">
                  <use xlink:href="#rim" fill="#404040">
                        <set attributeName="fill" to="#808080" begin="arrowUp.mouseover" end="arrowUp.mouseout"/>
                  </use>
                  <path fill="none" stroke="white" stroke-width="1.5" d="M0,-3.0v7 M-2.5,-0.5L0,-3.0L2.5,-0.5"/>
                </g>
                <g id="arrowRight" xlink:href="#dirArrow" transform="rotate(90) translate(36 -43)" onmousedown="handlePan(1,0)">
                  <use xlink:href="#rim" fill="#404040">
                        <set attributeName="fill" to="#808080" begin="arrowRight.mouseover" end="arrowRight.mouseout"/>
                  </use>
                  <path fill="none" stroke="white" stroke-width="1.5" d="M0,-3.0v7 M-2.5,-0.5L0,-3.0L2.5,-0.5"/>
                </g>
                <g id="arrowDown" xlink:href="#dirArrow" transform="rotate(180) translate(-30 -48)" onmousedown="handlePan(0,1)">
                  <use xlink:href="#rim" fill="#404040">
                        <set attributeName="fill" to="#808080" begin="arrowDown.mouseover" end="arrowDown.mouseout"/>
                  </use>
                  <path fill="none" stroke="white" stroke-width="1.5" d="M0,-3.0v7 M-2.5,-0.5L0,-3.0L2.5,-0.5"/>
                </g>
                <g id="arrowLeft" xlink:href="#dirArrow" transform="rotate(270) translate(-36 17)" onmousedown="handlePan(-1,0)">
                  <use xlink:href="#rim" fill="#404040">
                        <set attributeName="fill" to="#808080" begin="arrowLeft.mouseover" end="arrowLeft.mouseout"/>
                  </use>
                  <path fill="none" stroke="white" stroke-width="1.5" d="M0,-3.0v7 M-2.5,-0.5L0,-3.0L2.5,-0.5"/>
                </g>
        </g>
        <svg viewBox="0 0 15 15" width="100%" height="30px" preserveAspectRatio="xMaxYMin meet">
         <g id="arrow_out" transform="scale(0.3 0.3)">
          <a xlink:href="bdd_8cc__incl_org.svg" target="_base">
           <rect id="button" ry="5" rx="5" y="6" x="6" height="38" width="38"
                fill="#f2f5e9" fill-opacity="0.5" stroke="#606060" stroke-width="1.0"/>
           <path id="arrow"
             d="M 11.500037,31.436501 C 11.940474,20.09759 22.043105,11.32322 32.158766,21.979434 L 37.068811,17.246167 C 37.068811,17.246167 37.088388,32 37.088388,32 L 22.160133,31.978069 C 22.160133,31.978069 26.997745,27.140456 26.997745,27.140456 C 18.528582,18.264221 13.291696,25.230495 11.500037,31.436501 z"
             style="fill:#404040;"/>
          </a>
         </g>
        </svg>
</svg>
