<?xml version="1.0" encoding="UTF-8" standalone="no"?>
<!DOCTYPE svg PUBLIC "-//W3C//DTD SVG 1.1//EN"
 "http://www.w3.org/Graphics/SVG/1.1/DTD/svg11.dtd">
<!-- Generated by graphviz version 2.38.0 (20140413.2041)
 -->
<!-- Title: ccf_group.cc Pages: 1 -->
<svg width="2421pt" height="263pt"
 viewBox="0.00 0.00 2421.00 263.00" xmlns="http://www.w3.org/2000/svg" xmlns:xlink="http://www.w3.org/1999/xlink">
<g id="graph0" class="graph" transform="scale(1 1) rotate(0) translate(4 259)">
<title>ccf_group.cc</title>
<polygon fill="white" stroke="none" points="-4,4 -4,-259 2417,-259 2417,4 -4,4"/>
<!-- Node1 -->
<g id="node1" class="node"><title>Node1</title>
<polygon fill="#bfbfbf" stroke="black" points="1892.5,-235.5 1892.5,-254.5 1969.5,-254.5 1969.5,-235.5 1892.5,-235.5"/>
<text text-anchor="middle" x="1931" y="-242.5" font-family="Helvetica,sans-Serif" font-size="10.00">ccf_group.cc</text>
</g>
<!-- Node2 -->
<g id="node2" class="node"><title>Node2</title>
<g id="a_node2"><a xlink:href="ccf__group_8h.xhtml" target="_top" xlink:title="Functional containers for basic events grouped by common cause failure. ">
<polygon fill="white" stroke="black" points="737,-179.5 737,-198.5 809,-198.5 809,-179.5 737,-179.5"/>
<text text-anchor="middle" x="773" y="-186.5" font-family="Helvetica,sans-Serif" font-size="10.00">ccf_group.h</text>
</a>
</g>
</g>
<!-- Node1&#45;&gt;Node2 -->
<g id="edge1" class="edge"><title>Node1&#45;&gt;Node2</title>
<path fill="none" stroke="midnightblue" d="M1892.47,-242.203C1718.67,-234.098 1007.94,-200.956 819.199,-192.154"/>
<polygon fill="midnightblue" stroke="midnightblue" points="819.214,-188.651 809.062,-191.682 818.888,-195.644 819.214,-188.651"/>
</g>
<!-- Node20 -->
<g id="node20" class="node"><title>Node20</title>
<polygon fill="white" stroke="#bfbfbf" points="2001.5,-123.5 2001.5,-142.5 2048.5,-142.5 2048.5,-123.5 2001.5,-123.5"/>
<text text-anchor="middle" x="2025" y="-130.5" font-family="Helvetica,sans-Serif" font-size="10.00">cmath</text>
</g>
<!-- Node1&#45;&gt;Node20 -->
<g id="edge33" class="edge"><title>Node1&#45;&gt;Node20</title>
<path fill="none" stroke="midnightblue" d="M1938.38,-235.368C1954.03,-217.055 1990.78,-174.049 2011.02,-150.362"/>
<polygon fill="midnightblue" stroke="midnightblue" points="2013.82,-152.468 2017.66,-142.591 2008.5,-147.92 2013.82,-152.468"/>
</g>
<!-- Node21 -->
<g id="node21" class="node"><title>Node21</title>
<g id="a_node21"><a xlink:href="error_8h.xhtml" target="_top" xlink:title="Exceptions for SCRAM. ">
<polygon fill="white" stroke="black" points="1255,-179.5 1255,-198.5 1303,-198.5 1303,-179.5 1255,-179.5"/>
<text text-anchor="middle" x="1279" y="-186.5" font-family="Helvetica,sans-Serif" font-size="10.00">error.h</text>
</a>
</g>
</g>
<!-- Node1&#45;&gt;Node21 -->
<g id="edge34" class="edge"><title>Node1&#45;&gt;Node21</title>
<path fill="none" stroke="midnightblue" d="M1892.17,-240.784C1774.65,-231.051 1424.09,-202.017 1313.1,-192.824"/>
<polygon fill="midnightblue" stroke="midnightblue" points="1313.38,-189.335 1303.12,-191.998 1312.8,-196.311 1313.38,-189.335"/>
</g>
<!-- Node27 -->
<g id="node27" class="node"><title>Node27</title>
<g id="a_node27"><a xlink:href="constant_8h.xhtml" target="_top" xlink:title="Constant expressions that cannot have uncertainties. ">
<polygon fill="white" stroke="black" points="1704,-123.5 1704,-142.5 1826,-142.5 1826,-123.5 1704,-123.5"/>
<text text-anchor="middle" x="1765" y="-130.5" font-family="Helvetica,sans-Serif" font-size="10.00">expression/constant.h</text>
</a>
</g>
</g>
<!-- Node1&#45;&gt;Node27 -->
<g id="edge41" class="edge"><title>Node1&#45;&gt;Node27</title>
<path fill="none" stroke="midnightblue" d="M1892.25,-235.488C1867.48,-228.643 1835.68,-217.12 1812,-199 1795.47,-186.349 1782.21,-166.306 1774.05,-151.82"/>
<polygon fill="midnightblue" stroke="midnightblue" points="1777.04,-149.996 1769.23,-142.838 1770.87,-153.304 1777.04,-149.996"/>
</g>
<!-- Node28 -->
<g id="node28" class="node"><title>Node28</title>
<g id="a_node28"><a xlink:href="numerical_8h.xhtml" target="_top" xlink:title="A collection of numerical expressions. ">
<polygon fill="white" stroke="black" points="1821,-179.5 1821,-198.5 1949,-198.5 1949,-179.5 1821,-179.5"/>
<text text-anchor="middle" x="1885" y="-186.5" font-family="Helvetica,sans-Serif" font-size="10.00">expression/numerical.h</text>
</a>
</g>
</g>
<!-- Node1&#45;&gt;Node28 -->
<g id="edge43" class="edge"><title>Node1&#45;&gt;Node28</title>
<path fill="none" stroke="midnightblue" d="M1923.4,-235.083C1916.77,-227.298 1906.98,-215.801 1898.94,-206.367"/>
<polygon fill="midnightblue" stroke="midnightblue" points="1901.6,-204.094 1892.45,-198.751 1896.27,-208.633 1901.6,-204.094"/>
</g>
<!-- Node30 -->
<g id="node30" class="node"><title>Node30</title>
<g id="a_node30"><a xlink:href="algorithm_8h.xhtml" target="_top" xlink:title="Helpful algorithm facilities as an extension to the STL or Boost. ">
<polygon fill="white" stroke="black" points="1956.5,-67.5 1956.5,-86.5 2045.5,-86.5 2045.5,-67.5 1956.5,-67.5"/>
<text text-anchor="middle" x="2001" y="-74.5" font-family="Helvetica,sans-Serif" font-size="10.00">ext/algorithm.h</text>
</a>
</g>
</g>
<!-- Node1&#45;&gt;Node30 -->
<g id="edge49" class="edge"><title>Node1&#45;&gt;Node30</title>
<path fill="none" stroke="midnightblue" d="M1969.74,-240.768C2021.39,-235.564 2108.59,-223.344 2128,-199 2149.06,-172.59 2147.49,-150.586 2128,-123 2118.56,-109.64 2081.53,-97.4465 2049.87,-89.1324"/>
<polygon fill="midnightblue" stroke="midnightblue" points="2050.38,-85.6497 2039.82,-86.5728 2048.65,-92.4331 2050.38,-85.6497"/>
</g>
<!-- Node32 -->
<g id="node32" class="node"><title>Node32</title>
<g id="a_node32"><a xlink:href="combination__iterator_8h.xhtml" target="_top" xlink:title="n&#45;choose&#45;k combination generation facilities. ">
<polygon fill="white" stroke="black" points="2076.5,-67.5 2076.5,-86.5 2219.5,-86.5 2219.5,-67.5 2076.5,-67.5"/>
<text text-anchor="middle" x="2148" y="-74.5" font-family="Helvetica,sans-Serif" font-size="10.00">ext/combination_iterator.h</text>
</a>
</g>
</g>
<!-- Node1&#45;&gt;Node32 -->
<g id="edge52" class="edge"><title>Node1&#45;&gt;Node32</title>
<path fill="none" stroke="midnightblue" d="M1969.63,-241.614C2025.6,-237.265 2124.96,-225.88 2147,-199 2170.89,-169.862 2161.79,-122.151 2154.21,-96.2003"/>
<polygon fill="midnightblue" stroke="midnightblue" points="2157.5,-95.0076 2151.15,-86.5284 2150.83,-97.1184 2157.5,-95.0076"/>
</g>
<!-- Node36 -->
<g id="node36" class="node"><title>Node36</title>
<g id="a_node36"><a xlink:href="float__compare_8h.xhtml" target="_top" xlink:title="Floating pointing comparison helper functions. ">
<polygon fill="white" stroke="black" points="2005.5,-179.5 2005.5,-198.5 2118.5,-198.5 2118.5,-179.5 2005.5,-179.5"/>
<text text-anchor="middle" x="2062" y="-186.5" font-family="Helvetica,sans-Serif" font-size="10.00">ext/float_compare.h</text>
</a>
</g>
</g>
<!-- Node1&#45;&gt;Node36 -->
<g id="edge59" class="edge"><title>Node1&#45;&gt;Node36</title>
<path fill="none" stroke="midnightblue" d="M1951.76,-235.444C1973.32,-226.557 2007.26,-212.563 2031.79,-202.451"/>
<polygon fill="midnightblue" stroke="midnightblue" points="2033.43,-205.563 2041.34,-198.516 2030.76,-199.092 2033.43,-205.563"/>
</g>
<!-- Node3 -->
<g id="node3" class="node"><title>Node3</title>
<polygon fill="white" stroke="#bfbfbf" points="769.5,-67.5 769.5,-86.5 826.5,-86.5 826.5,-67.5 769.5,-67.5"/>
<text text-anchor="middle" x="798" y="-74.5" font-family="Helvetica,sans-Serif" font-size="10.00">memory</text>
</g>
<!-- Node2&#45;&gt;Node3 -->
<g id="edge2" class="edge"><title>Node2&#45;&gt;Node3</title>
<path fill="none" stroke="midnightblue" d="M768.613,-179.357C762.796,-166.681 754.032,-142.445 761,-123 764.941,-112.003 772.857,-101.769 780.36,-93.8479"/>
<polygon fill="midnightblue" stroke="midnightblue" points="782.892,-96.2659 787.562,-86.7555 777.981,-91.2784 782.892,-96.2659"/>
</g>
<!-- Node4 -->
<g id="node4" class="node"><title>Node4</title>
<polygon fill="white" stroke="#bfbfbf" points="658.5,-123.5 658.5,-142.5 713.5,-142.5 713.5,-123.5 658.5,-123.5"/>
<text text-anchor="middle" x="686" y="-130.5" font-family="Helvetica,sans-Serif" font-size="10.00">optional</text>
</g>
<!-- Node2&#45;&gt;Node4 -->
<g id="edge3" class="edge"><title>Node2&#45;&gt;Node4</title>
<path fill="none" stroke="midnightblue" d="M759.022,-179.324C745.45,-170.9 724.62,-157.971 708.675,-148.074"/>
<polygon fill="midnightblue" stroke="midnightblue" points="710.286,-144.954 699.943,-142.655 706.594,-150.902 710.286,-144.954"/>
</g>
<!-- Node5 -->
<g id="node5" class="node"><title>Node5</title>
<polygon fill="white" stroke="#bfbfbf" points="710,-6 710,-25 754,-25 754,-6 710,-6"/>
<text text-anchor="middle" x="732" y="-13" font-family="Helvetica,sans-Serif" font-size="10.00">string</text>
</g>
<!-- Node2&#45;&gt;Node5 -->
<g id="edge4" class="edge"><title>Node2&#45;&gt;Node5</title>
<path fill="none" stroke="midnightblue" d="M736.793,-184.927C685.963,-179.777 597.467,-167.471 578,-143 559.841,-120.173 588.413,-82.1502 605,-67 638.646,-36.2689 658.996,-48.6669 701,-31 702.369,-30.4241 703.767,-29.8224 705.174,-29.2054"/>
<polygon fill="midnightblue" stroke="midnightblue" points="706.739,-32.339 714.403,-25.0238 703.85,-25.9629 706.739,-32.339"/>
</g>
<!-- Node6 -->
<g id="node6" class="node"><title>Node6</title>
<polygon fill="white" stroke="#bfbfbf" points="770,-123.5 770,-142.5 838,-142.5 838,-123.5 770,-123.5"/>
<text text-anchor="middle" x="804" y="-130.5" font-family="Helvetica,sans-Serif" font-size="10.00">type_traits</text>
</g>
<!-- Node2&#45;&gt;Node6 -->
<g id="edge5" class="edge"><title>Node2&#45;&gt;Node6</title>
<path fill="none" stroke="midnightblue" d="M778.119,-179.083C782.408,-171.613 788.658,-160.724 793.942,-151.52"/>
<polygon fill="midnightblue" stroke="midnightblue" points="797.033,-153.166 798.976,-142.751 790.962,-149.681 797.033,-153.166"/>
</g>
<!-- Node7 -->
<g id="node7" class="node"><title>Node7</title>
<polygon fill="white" stroke="#bfbfbf" points="829,-6 829,-25 871,-25 871,-6 829,-6"/>
<text text-anchor="middle" x="850" y="-13" font-family="Helvetica,sans-Serif" font-size="10.00">utility</text>
</g>
<!-- Node2&#45;&gt;Node7 -->
<g id="edge6" class="edge"><title>Node2&#45;&gt;Node7</title>
<path fill="none" stroke="midnightblue" d="M799.422,-179.43C816.224,-172.468 836.692,-160.835 847,-143 866.535,-109.202 860.395,-61.3719 854.812,-35.2763"/>
<polygon fill="midnightblue" stroke="midnightblue" points="858.147,-34.1706 852.455,-25.2351 851.333,-35.7703 858.147,-34.1706"/>
</g>
<!-- Node8 -->
<g id="node8" class="node"><title>Node8</title>
<polygon fill="white" stroke="#bfbfbf" points="1019.5,-6 1019.5,-25 1066.5,-25 1066.5,-6 1019.5,-6"/>
<text text-anchor="middle" x="1043" y="-13" font-family="Helvetica,sans-Serif" font-size="10.00">vector</text>
</g>
<!-- Node2&#45;&gt;Node8 -->
<g id="edge7" class="edge"><title>Node2&#45;&gt;Node8</title>
<path fill="none" stroke="midnightblue" d="M809.328,-181.514C860.148,-170.632 952.355,-144.027 1007,-87 1021.37,-72.0041 1031.32,-50.1447 1037.06,-34.7511"/>
<polygon fill="midnightblue" stroke="midnightblue" points="1040.37,-35.8858 1040.36,-25.2909 1033.76,-33.5775 1040.37,-35.8858"/>
</g>
<!-- Node9 -->
<g id="node9" class="node"><title>Node9</title>
<g id="a_node9"><a xlink:href="element_8h.xhtml" target="_top" xlink:title="Helper classes, structs, and properties common to all other classes. ">
<polygon fill="white" stroke="black" points="389.5,-67.5 389.5,-86.5 454.5,-86.5 454.5,-67.5 389.5,-67.5"/>
<text text-anchor="middle" x="422" y="-74.5" font-family="Helvetica,sans-Serif" font-size="10.00">element.h</text>
</a>
</g>
</g>
<!-- Node2&#45;&gt;Node9 -->
<g id="edge8" class="edge"><title>Node2&#45;&gt;Node9</title>
<path fill="none" stroke="midnightblue" d="M736.746,-186.136C666.181,-181.949 513.403,-169.971 469,-143 451.013,-132.074 437.883,-111.396 430.145,-96.2876"/>
<polygon fill="midnightblue" stroke="midnightblue" points="433.129,-94.4152 425.655,-86.9058 426.815,-97.437 433.129,-94.4152"/>
</g>
<!-- Node15 -->
<g id="node15" class="node"><title>Node15</title>
<g id="a_node15"><a xlink:href="event_8h.xhtml" target="_top" xlink:title="Contains event classes for fault trees. ">
<polygon fill="white" stroke="black" points="587.5,-123.5 587.5,-142.5 640.5,-142.5 640.5,-123.5 587.5,-123.5"/>
<text text-anchor="middle" x="614" y="-130.5" font-family="Helvetica,sans-Serif" font-size="10.00">event.h</text>
</a>
</g>
</g>
<!-- Node2&#45;&gt;Node15 -->
<g id="edge16" class="edge"><title>Node2&#45;&gt;Node15</title>
<path fill="none" stroke="midnightblue" d="M747.806,-179.444C721.057,-170.359 678.597,-155.939 648.695,-145.783"/>
<polygon fill="midnightblue" stroke="midnightblue" points="649.671,-142.418 639.076,-142.516 647.419,-149.046 649.671,-142.418"/>
</g>
<!-- Node17 -->
<g id="node17" class="node"><title>Node17</title>
<g id="a_node17"><a xlink:href="expression_8h.xhtml" target="_top" xlink:title="Provides the base class for all expressions and units for expression values. ">
<polygon fill="white" stroke="black" points="921.5,-67.5 921.5,-86.5 998.5,-86.5 998.5,-67.5 921.5,-67.5"/>
<text text-anchor="middle" x="960" y="-74.5" font-family="Helvetica,sans-Serif" font-size="10.00">expression.h</text>
</a>
</g>
</g>
<!-- Node2&#45;&gt;Node17 -->
<g id="edge32" class="edge"><title>Node2&#45;&gt;Node17</title>
<path fill="none" stroke="midnightblue" d="M799.065,-179.398C821.365,-171.495 853.903,-158.651 880,-143 903.826,-128.711 928.176,-107.848 943.652,-93.6389"/>
<polygon fill="midnightblue" stroke="midnightblue" points="946.36,-95.8987 951.276,-86.5139 941.58,-90.7841 946.36,-95.8987"/>
</g>
<!-- Node9&#45;&gt;Node5 -->
<g id="edge10" class="edge"><title>Node9&#45;&gt;Node5</title>
<path fill="none" stroke="midnightblue" d="M454.589,-69.6055C459.416,-68.7032 464.334,-67.8085 469,-67 571.813,-49.185 601.184,-61.4099 701,-31 702.876,-30.4286 704.783,-29.7635 706.682,-29.0385"/>
<polygon fill="midnightblue" stroke="midnightblue" points="708.123,-32.2288 715.933,-25.0691 705.363,-25.796 708.123,-32.2288"/>
</g>
<!-- Node9&#45;&gt;Node8 -->
<g id="edge11" class="edge"><title>Node9&#45;&gt;Node8</title>
<path fill="none" stroke="midnightblue" d="M454.63,-74.1468C570.205,-67.4943 956.057,-44.4979 1010,-31 1012.36,-30.4104 1014.76,-29.6663 1017.13,-28.8281"/>
<polygon fill="midnightblue" stroke="midnightblue" points="1018.64,-31.996 1026.6,-25.0073 1016.02,-25.5049 1018.64,-31.996"/>
</g>
<!-- Node10 -->
<g id="node10" class="node"><title>Node10</title>
<polygon fill="white" stroke="#bfbfbf" points="496.5,-6 496.5,-25 545.5,-25 545.5,-6 496.5,-6"/>
<text text-anchor="middle" x="521" y="-13" font-family="Helvetica,sans-Serif" font-size="10.00">cstdint</text>
</g>
<!-- Node9&#45;&gt;Node10 -->
<g id="edge9" class="edge"><title>Node9&#45;&gt;Node10</title>
<path fill="none" stroke="midnightblue" d="M436.184,-67.4751C452.358,-57.7548 479.026,-41.7266 498.143,-30.2372"/>
<polygon fill="midnightblue" stroke="midnightblue" points="500.074,-33.1603 506.842,-25.0091 496.468,-27.1606 500.074,-33.1603"/>
</g>
<!-- Node11 -->
<g id="node11" class="node"><title>Node11</title>
<polygon fill="white" stroke="#bfbfbf" points="0,-0.5 0,-30.5 140,-30.5 140,-0.5 0,-0.5"/>
<text text-anchor="start" x="8" y="-18.5" font-family="Helvetica,sans-Serif" font-size="10.00">boost/multi_index/hashed</text>
<text text-anchor="middle" x="70" y="-7.5" font-family="Helvetica,sans-Serif" font-size="10.00">_index.hpp</text>
</g>
<!-- Node9&#45;&gt;Node11 -->
<g id="edge12" class="edge"><title>Node9&#45;&gt;Node11</title>
<path fill="none" stroke="midnightblue" d="M389.19,-70.789C339.696,-62.8855 242.73,-47.2346 150.284,-31.2063"/>
<polygon fill="midnightblue" stroke="midnightblue" points="150.651,-27.7176 140.199,-29.453 149.452,-34.6142 150.651,-27.7176"/>
</g>
<!-- Node12 -->
<g id="node12" class="node"><title>Node12</title>
<polygon fill="white" stroke="#bfbfbf" points="158,-0.5 158,-30.5 288,-30.5 288,-0.5 158,-0.5"/>
<text text-anchor="start" x="166" y="-18.5" font-family="Helvetica,sans-Serif" font-size="10.00">boost/multi_index/mem</text>
<text text-anchor="middle" x="223" y="-7.5" font-family="Helvetica,sans-Serif" font-size="10.00">_fun.hpp</text>
</g>
<!-- Node9&#45;&gt;Node12 -->
<g id="edge13" class="edge"><title>Node9&#45;&gt;Node12</title>
<path fill="none" stroke="midnightblue" d="M393.488,-67.4751C363.892,-58.6259 316.81,-44.5487 279.615,-33.4277"/>
<polygon fill="midnightblue" stroke="midnightblue" points="280.484,-30.0344 269.9,-30.523 278.479,-36.741 280.484,-30.0344"/>
</g>
<!-- Node13 -->
<g id="node13" class="node"><title>Node13</title>
<polygon fill="white" stroke="#bfbfbf" points="306,-6 306,-25 478,-25 478,-6 306,-6"/>
<text text-anchor="middle" x="392" y="-13" font-family="Helvetica,sans-Serif" font-size="10.00">boost/multi_index_container.hpp</text>
</g>
<!-- Node9&#45;&gt;Node13 -->
<g id="edge14" class="edge"><title>Node9&#45;&gt;Node13</title>
<path fill="none" stroke="midnightblue" d="M417.702,-67.4751C413.335,-58.8152 406.445,-45.1486 400.897,-34.1453"/>
<polygon fill="midnightblue" stroke="midnightblue" points="403.918,-32.3625 396.29,-25.0091 397.667,-35.5141 403.918,-32.3625"/>
</g>
<!-- Node14 -->
<g id="node14" class="node"><title>Node14</title>
<polygon fill="white" stroke="#bfbfbf" points="564,-6 564,-25 692,-25 692,-6 564,-6"/>
<text text-anchor="middle" x="628" y="-13" font-family="Helvetica,sans-Serif" font-size="10.00">boost/noncopyable.hpp</text>
</g>
<!-- Node9&#45;&gt;Node14 -->
<g id="edge15" class="edge"><title>Node9&#45;&gt;Node14</title>
<path fill="none" stroke="midnightblue" d="M451.515,-67.4751C487.616,-57.0478 548.848,-39.3618 588.854,-27.8066"/>
<polygon fill="midnightblue" stroke="midnightblue" points="589.904,-31.1466 598.54,-25.0091 587.961,-24.4215 589.904,-31.1466"/>
</g>
<!-- Node15&#45;&gt;Node3 -->
<g id="edge18" class="edge"><title>Node15&#45;&gt;Node3</title>
<path fill="none" stroke="midnightblue" d="M640.755,-124.148C671.962,-114.989 723.803,-99.7752 759.373,-89.3362"/>
<polygon fill="midnightblue" stroke="midnightblue" points="760.785,-92.5693 769.395,-86.3949 758.814,-85.8526 760.785,-92.5693"/>
</g>
<!-- Node15&#45;&gt;Node5 -->
<g id="edge19" class="edge"><title>Node15&#45;&gt;Node5</title>
<path fill="none" stroke="midnightblue" d="M611.494,-123.096C608.277,-109.654 604.39,-83.9535 616,-67 639.181,-33.1503 663.524,-47.694 701,-31 702.191,-30.4696 703.405,-29.9237 704.63,-29.3687"/>
<polygon fill="midnightblue" stroke="midnightblue" points="706.399,-32.4073 714.02,-25.0469 703.473,-26.0485 706.399,-32.4073"/>
</g>
<!-- Node15&#45;&gt;Node7 -->
<g id="edge20" class="edge"><title>Node15&#45;&gt;Node7</title>
<path fill="none" stroke="midnightblue" d="M627.596,-123.391C648.504,-110.335 690.015,-85.131 727,-67 757.741,-51.9301 794.147,-37.3716 819.335,-27.7901"/>
<polygon fill="midnightblue" stroke="midnightblue" points="820.611,-31.0499 828.734,-24.248 818.142,-24.4996 820.611,-31.0499"/>
</g>
<!-- Node15&#45;&gt;Node8 -->
<g id="edge22" class="edge"><title>Node15&#45;&gt;Node8</title>
<path fill="none" stroke="midnightblue" d="M637.098,-123.47C659.599,-114.947 694.612,-101.113 724,-87 740.499,-79.0765 742.655,-72.8454 760,-67 866.379,-31.1492 902.068,-61.8619 1010,-31 1012.15,-30.385 1014.34,-29.6589 1016.53,-28.8649"/>
<polygon fill="midnightblue" stroke="midnightblue" points="1017.91,-32.0828 1025.86,-25.0818 1015.28,-25.5957 1017.91,-32.0828"/>
</g>
<!-- Node15&#45;&gt;Node9 -->
<g id="edge24" class="edge"><title>Node15&#45;&gt;Node9</title>
<path fill="none" stroke="midnightblue" d="M587.303,-124.492C554.904,-115.379 499.953,-99.9244 462.371,-89.3542"/>
<polygon fill="midnightblue" stroke="midnightblue" points="462.838,-85.85 452.264,-86.5118 460.943,-92.5886 462.838,-85.85"/>
</g>
<!-- Node15&#45;&gt;Node10 -->
<g id="edge17" class="edge"><title>Node15&#45;&gt;Node10</title>
<path fill="none" stroke="midnightblue" d="M607.01,-123.319C591.593,-104.172 554.451,-58.0443 534.391,-33.1306"/>
<polygon fill="midnightblue" stroke="midnightblue" points="537.069,-30.8759 528.071,-25.282 531.617,-35.266 537.069,-30.8759"/>
</g>
<!-- Node15&#45;&gt;Node14 -->
<g id="edge23" class="edge"><title>Node15&#45;&gt;Node14</title>
<path fill="none" stroke="midnightblue" d="M604.914,-123.366C593.16,-111.098 575.078,-87.7967 583,-67 588.225,-53.2825 599.076,-40.9208 608.814,-31.8615"/>
<polygon fill="midnightblue" stroke="midnightblue" points="611.357,-34.2872 616.583,-25.0711 606.75,-29.0165 611.357,-34.2872"/>
</g>
<!-- Node16 -->
<g id="node16" class="node"><title>Node16</title>
<polygon fill="white" stroke="#bfbfbf" points="625,-67.5 625,-86.5 675,-86.5 675,-67.5 625,-67.5"/>
<text text-anchor="middle" x="650" y="-74.5" font-family="Helvetica,sans-Serif" font-size="10.00">variant</text>
</g>
<!-- Node15&#45;&gt;Node16 -->
<g id="edge21" class="edge"><title>Node15&#45;&gt;Node16</title>
<path fill="none" stroke="midnightblue" d="M619.945,-123.083C624.977,-115.534 632.337,-104.495 638.513,-95.2298"/>
<polygon fill="midnightblue" stroke="midnightblue" points="641.531,-97.0131 644.166,-86.7511 635.707,-93.1301 641.531,-97.0131"/>
</g>
<!-- Node15&#45;&gt;Node17 -->
<g id="edge25" class="edge"><title>Node15&#45;&gt;Node17</title>
<path fill="none" stroke="midnightblue" d="M640.685,-124.822C643.483,-124.164 646.293,-123.542 649,-123 741.033,-104.565 849.83,-90.584 911.29,-83.3967"/>
<polygon fill="midnightblue" stroke="midnightblue" points="911.938,-86.8451 921.469,-82.2179 911.133,-79.8916 911.938,-86.8451"/>
</g>
<!-- Node17&#45;&gt;Node5 -->
<g id="edge27" class="edge"><title>Node17&#45;&gt;Node5</title>
<path fill="none" stroke="midnightblue" d="M927.333,-67.4751C883.787,-56.1112 807.205,-36.1259 764,-24.8509"/>
<polygon fill="midnightblue" stroke="midnightblue" points="764.846,-21.4546 754.286,-22.316 763.079,-28.2277 764.846,-21.4546"/>
</g>
<!-- Node17&#45;&gt;Node7 -->
<g id="edge28" class="edge"><title>Node17&#45;&gt;Node7</title>
<path fill="none" stroke="midnightblue" d="M944.24,-67.4751C926.024,-57.6222 895.827,-41.2883 874.532,-29.7697"/>
<polygon fill="midnightblue" stroke="midnightblue" points="876.192,-26.6883 865.731,-25.0091 872.862,-32.8453 876.192,-26.6883"/>
</g>
<!-- Node17&#45;&gt;Node8 -->
<g id="edge29" class="edge"><title>Node17&#45;&gt;Node8</title>
<path fill="none" stroke="midnightblue" d="M971.892,-67.4751C985.205,-57.9315 1007,-42.3073 1022.96,-30.8683"/>
<polygon fill="midnightblue" stroke="midnightblue" points="1025.04,-33.68 1031.13,-25.0091 1020.96,-27.9908 1025.04,-33.68"/>
</g>
<!-- Node17&#45;&gt;Node14 -->
<g id="edge31" class="edge"><title>Node17&#45;&gt;Node14</title>
<path fill="none" stroke="midnightblue" d="M921.333,-69.5802C870.665,-61.0995 779.07,-45.5336 701,-31 694.258,-29.7448 687.173,-28.3868 680.178,-27.0225"/>
<polygon fill="midnightblue" stroke="midnightblue" points="680.531,-23.525 670.043,-25.0305 679.18,-30.3936 680.531,-23.525"/>
</g>
<!-- Node18 -->
<g id="node18" class="node"><title>Node18</title>
<polygon fill="white" stroke="#bfbfbf" points="1849,-6 1849,-25 1911,-25 1911,-6 1849,-6"/>
<text text-anchor="middle" x="1880" y="-13" font-family="Helvetica,sans-Serif" font-size="10.00">algorithm</text>
</g>
<!-- Node17&#45;&gt;Node18 -->
<g id="edge26" class="edge"><title>Node17&#45;&gt;Node18</title>
<path fill="none" stroke="midnightblue" d="M998.651,-73.5003C1147.69,-63.8613 1684.4,-29.1505 1838.41,-19.1897"/>
<polygon fill="midnightblue" stroke="midnightblue" points="1839.08,-22.6541 1848.83,-18.516 1838.62,-15.6687 1839.08,-22.6541"/>
</g>
<!-- Node19 -->
<g id="node19" class="node"><title>Node19</title>
<polygon fill="white" stroke="#bfbfbf" points="889,-0.5 889,-30.5 1001,-30.5 1001,-0.5 889,-0.5"/>
<text text-anchor="start" x="897" y="-18.5" font-family="Helvetica,sans-Serif" font-size="10.00">boost/icl/continuous</text>
<text text-anchor="middle" x="945" y="-7.5" font-family="Helvetica,sans-Serif" font-size="10.00">_interval.hpp</text>
</g>
<!-- Node17&#45;&gt;Node19 -->
<g id="edge30" class="edge"><title>Node17&#45;&gt;Node19</title>
<path fill="none" stroke="midnightblue" d="M957.851,-67.4751C956.066,-60.3957 953.438,-49.9705 951.023,-40.3896"/>
<polygon fill="midnightblue" stroke="midnightblue" points="954.374,-39.364 948.535,-30.523 947.586,-41.0752 954.374,-39.364"/>
</g>
<!-- Node21&#45;&gt;Node5 -->
<g id="edge36" class="edge"><title>Node21&#45;&gt;Node5</title>
<path fill="none" stroke="midnightblue" d="M1254.88,-186.428C1205.75,-182.728 1090.93,-171.528 999,-143 974.18,-135.298 821.332,-60.5147 758.713,-29.6846"/>
<polygon fill="midnightblue" stroke="midnightblue" points="759.988,-26.4112 749.471,-25.1309 756.894,-32.6904 759.988,-26.4112"/>
</g>
<!-- Node22 -->
<g id="node22" class="node"><title>Node22</title>
<polygon fill="white" stroke="#bfbfbf" points="1124.5,-123.5 1124.5,-142.5 1187.5,-142.5 1187.5,-123.5 1124.5,-123.5"/>
<text text-anchor="middle" x="1156" y="-130.5" font-family="Helvetica,sans-Serif" font-size="10.00">exception</text>
</g>
<!-- Node21&#45;&gt;Node22 -->
<g id="edge35" class="edge"><title>Node21&#45;&gt;Node22</title>
<path fill="none" stroke="midnightblue" d="M1259.51,-179.444C1239.36,-170.596 1207.68,-156.687 1184.67,-146.586"/>
<polygon fill="midnightblue" stroke="midnightblue" points="1185.96,-143.332 1175.4,-142.516 1183.15,-149.741 1185.96,-143.332"/>
</g>
<!-- Node23 -->
<g id="node23" class="node"><title>Node23</title>
<polygon fill="white" stroke="#bfbfbf" points="1206,-123.5 1206,-142.5 1352,-142.5 1352,-123.5 1206,-123.5"/>
<text text-anchor="middle" x="1279" y="-130.5" font-family="Helvetica,sans-Serif" font-size="10.00">boost/current_function.hpp</text>
</g>
<!-- Node21&#45;&gt;Node23 -->
<g id="edge37" class="edge"><title>Node21&#45;&gt;Node23</title>
<path fill="none" stroke="midnightblue" d="M1279,-179.083C1279,-172.006 1279,-161.861 1279,-152.986"/>
<polygon fill="midnightblue" stroke="midnightblue" points="1282.5,-152.751 1279,-142.751 1275.5,-152.751 1282.5,-152.751"/>
</g>
<!-- Node24 -->
<g id="node24" class="node"><title>Node24</title>
<polygon fill="white" stroke="#bfbfbf" points="1370,-123.5 1370,-142.5 1534,-142.5 1534,-123.5 1370,-123.5"/>
<text text-anchor="middle" x="1452" y="-130.5" font-family="Helvetica,sans-Serif" font-size="10.00">boost/exception/exception.hpp</text>
</g>
<!-- Node21&#45;&gt;Node24 -->
<g id="edge38" class="edge"><title>Node21&#45;&gt;Node24</title>
<path fill="none" stroke="midnightblue" d="M1303.05,-180.492C1332,-171.457 1380.92,-156.188 1414.75,-145.626"/>
<polygon fill="midnightblue" stroke="midnightblue" points="1416.23,-148.832 1424.73,-142.512 1414.14,-142.15 1416.23,-148.832"/>
</g>
<!-- Node25 -->
<g id="node25" class="node"><title>Node25</title>
<polygon fill="white" stroke="#bfbfbf" points="1552,-123.5 1552,-142.5 1686,-142.5 1686,-123.5 1552,-123.5"/>
<text text-anchor="middle" x="1619" y="-130.5" font-family="Helvetica,sans-Serif" font-size="10.00">boost/exception/info.hpp</text>
</g>
<!-- Node21&#45;&gt;Node25 -->
<g id="edge39" class="edge"><title>Node21&#45;&gt;Node25</title>
<path fill="none" stroke="midnightblue" d="M1303.18,-184.16C1355.16,-175.904 1478.99,-156.236 1555.24,-144.126"/>
<polygon fill="midnightblue" stroke="midnightblue" points="1555.89,-147.568 1565.21,-142.543 1554.79,-140.655 1555.89,-147.568"/>
</g>
<!-- Node26 -->
<g id="node26" class="node"><title>Node26</title>
<g id="a_node26"><a xlink:href="source__info_8h.xhtml" target="_top" xlink:title="Helper facilities to get source file information. ">
<polygon fill="white" stroke="black" points="1008,-123.5 1008,-142.5 1106,-142.5 1106,-123.5 1008,-123.5"/>
<text text-anchor="middle" x="1057" y="-130.5" font-family="Helvetica,sans-Serif" font-size="10.00">ext/source_info.h</text>
</a>
</g>
</g>
<!-- Node21&#45;&gt;Node26 -->
<g id="edge40" class="edge"><title>Node21&#45;&gt;Node26</title>
<path fill="none" stroke="midnightblue" d="M1254.82,-182.118C1218.18,-173.205 1147.97,-156.128 1101.82,-144.901"/>
<polygon fill="midnightblue" stroke="midnightblue" points="1102.61,-141.493 1092.07,-142.53 1100.96,-148.294 1102.61,-141.493"/>
</g>
<!-- Node27&#45;&gt;Node17 -->
<g id="edge42" class="edge"><title>Node27&#45;&gt;Node17</title>
<path fill="none" stroke="midnightblue" d="M1703.94,-123.906C1700.92,-123.582 1697.93,-123.278 1695,-123 1437.1,-98.5535 1126.97,-84.6137 1008.88,-79.8642"/>
<polygon fill="midnightblue" stroke="midnightblue" points="1008.85,-76.3603 998.721,-79.4592 1008.57,-83.3548 1008.85,-76.3603"/>
</g>
<!-- Node28&#45;&gt;Node8 -->
<g id="edge46" class="edge"><title>Node28&#45;&gt;Node8</title>
<path fill="none" stroke="midnightblue" d="M1884.38,-179.197C1882.86,-164.918 1877.67,-136.905 1860,-123 1735.51,-25.0539 1214.91,-16.8704 1076.77,-16.4444"/>
<polygon fill="midnightblue" stroke="midnightblue" points="1076.77,-12.9445 1066.77,-16.4254 1076.76,-19.9444 1076.77,-12.9445"/>
</g>
<!-- Node28&#45;&gt;Node17 -->
<g id="edge48" class="edge"><title>Node28&#45;&gt;Node17</title>
<path fill="none" stroke="midnightblue" d="M1881.31,-179.31C1874.56,-164.662 1858.7,-135.437 1835,-123 1761.78,-84.5804 1181.72,-78.9614 1008.61,-78.1403"/>
<polygon fill="midnightblue" stroke="midnightblue" points="1008.53,-74.64 998.516,-78.0958 1008.5,-81.64 1008.53,-74.64"/>
</g>
<!-- Node28&#45;&gt;Node20 -->
<g id="edge44" class="edge"><title>Node28&#45;&gt;Node20</title>
<path fill="none" stroke="midnightblue" d="M1907.18,-179.444C1930.43,-170.478 1967.15,-156.314 1993.42,-146.183"/>
<polygon fill="midnightblue" stroke="midnightblue" points="1994.85,-149.381 2002.92,-142.516 1992.33,-142.85 1994.85,-149.381"/>
</g>
<!-- Node28&#45;&gt;Node27 -->
<g id="edge47" class="edge"><title>Node28&#45;&gt;Node27</title>
<path fill="none" stroke="midnightblue" d="M1865.99,-179.444C1846.41,-170.636 1815.69,-156.812 1793.27,-146.722"/>
<polygon fill="midnightblue" stroke="midnightblue" points="1794.48,-143.428 1783.93,-142.516 1791.61,-149.812 1794.48,-143.428"/>
</g>
<!-- Node29 -->
<g id="node29" class="node"><title>Node29</title>
<polygon fill="white" stroke="#bfbfbf" points="1920.5,-123.5 1920.5,-142.5 1983.5,-142.5 1983.5,-123.5 1920.5,-123.5"/>
<text text-anchor="middle" x="1952" y="-130.5" font-family="Helvetica,sans-Serif" font-size="10.00">functional</text>
</g>
<!-- Node28&#45;&gt;Node29 -->
<g id="edge45" class="edge"><title>Node28&#45;&gt;Node29</title>
<path fill="none" stroke="midnightblue" d="M1895.76,-179.324C1905.77,-171.263 1920.89,-159.077 1932.93,-149.369"/>
<polygon fill="midnightblue" stroke="midnightblue" points="1935.45,-151.834 1941.04,-142.834 1931.06,-146.384 1935.45,-151.834"/>
</g>
<!-- Node30&#45;&gt;Node18 -->
<g id="edge50" class="edge"><title>Node30&#45;&gt;Node18</title>
<path fill="none" stroke="midnightblue" d="M1983.66,-67.4751C1963.45,-57.5338 1929.81,-40.9947 1906.36,-29.461"/>
<polygon fill="midnightblue" stroke="midnightblue" points="1907.82,-26.281 1897.3,-25.0091 1904.73,-32.5627 1907.82,-26.281"/>
</g>
<!-- Node31 -->
<g id="node31" class="node"><title>Node31</title>
<polygon fill="white" stroke="#bfbfbf" points="1929,-6 1929,-25 2073,-25 2073,-6 1929,-6"/>
<text text-anchor="middle" x="2001" y="-13" font-family="Helvetica,sans-Serif" font-size="10.00">boost/range/algorithm.hpp</text>
</g>
<!-- Node30&#45;&gt;Node31 -->
<g id="edge51" class="edge"><title>Node30&#45;&gt;Node31</title>
<path fill="none" stroke="midnightblue" d="M2001,-67.4751C2001,-59.0803 2001,-45.9806 2001,-35.1631"/>
<polygon fill="midnightblue" stroke="midnightblue" points="2004.5,-35.0091 2001,-25.0091 1997.5,-35.0091 2004.5,-35.0091"/>
</g>
<!-- Node32&#45;&gt;Node8 -->
<g id="edge55" class="edge"><title>Node32&#45;&gt;Node8</title>
<path fill="none" stroke="midnightblue" d="M2076.44,-68.7354C2069.2,-68.1024 2061.96,-67.5099 2055,-67 1671.43,-38.8855 1204.92,-21.9596 1076.88,-17.617"/>
<polygon fill="midnightblue" stroke="midnightblue" points="1076.67,-14.108 1066.56,-17.2694 1076.44,-21.1041 1076.67,-14.108"/>
</g>
<!-- Node32&#45;&gt;Node18 -->
<g id="edge53" class="edge"><title>Node32&#45;&gt;Node18</title>
<path fill="none" stroke="midnightblue" d="M2092.16,-67.4312C2045.65,-59.7122 1977.92,-47.1113 1920,-31 1917.2,-30.2205 1914.31,-29.3378 1911.43,-28.402"/>
<polygon fill="midnightblue" stroke="midnightblue" points="1912.41,-25.0353 1901.81,-25.0891 1910.13,-31.654 1912.41,-25.0353"/>
</g>
<!-- Node32&#45;&gt;Node31 -->
<g id="edge57" class="edge"><title>Node32&#45;&gt;Node31</title>
<path fill="none" stroke="midnightblue" d="M2126.94,-67.4751C2101.94,-57.3571 2060.06,-40.4046 2031.51,-28.8507"/>
<polygon fill="midnightblue" stroke="midnightblue" points="2032.61,-25.5168 2022.02,-25.0091 2029.98,-32.0054 2032.61,-25.5168"/>
</g>
<!-- Node33 -->
<g id="node33" class="node"><title>Node33</title>
<polygon fill="white" stroke="#bfbfbf" points="2223,-6 2223,-25 2275,-25 2275,-6 2223,-6"/>
<text text-anchor="middle" x="2249" y="-13" font-family="Helvetica,sans-Serif" font-size="10.00">iterator</text>
</g>
<!-- Node32&#45;&gt;Node33 -->
<g id="edge54" class="edge"><title>Node32&#45;&gt;Node33</title>
<path fill="none" stroke="midnightblue" d="M2162.47,-67.4751C2178.97,-57.7548 2206.18,-41.7266 2225.68,-30.2372"/>
<polygon fill="midnightblue" stroke="midnightblue" points="2227.72,-33.1005 2234.56,-25.0091 2224.16,-27.0693 2227.72,-33.1005"/>
</g>
<!-- Node34 -->
<g id="node34" class="node"><title>Node34</title>
<polygon fill="white" stroke="#bfbfbf" points="2293,-0.5 2293,-30.5 2413,-30.5 2413,-0.5 2293,-0.5"/>
<text text-anchor="start" x="2301" y="-18.5" font-family="Helvetica,sans-Serif" font-size="10.00">boost/iterator/iterator</text>
<text text-anchor="middle" x="2353" y="-7.5" font-family="Helvetica,sans-Serif" font-size="10.00">_facade.hpp</text>
</g>
<!-- Node32&#45;&gt;Node34 -->
<g id="edge56" class="edge"><title>Node32&#45;&gt;Node34</title>
<path fill="none" stroke="midnightblue" d="M2177.37,-67.4751C2207.86,-58.6259 2256.36,-44.5487 2294.68,-33.4277"/>
<polygon fill="midnightblue" stroke="midnightblue" points="2296.06,-36.6717 2304.69,-30.523 2294.11,-29.9492 2296.06,-36.6717"/>
</g>
<!-- Node35 -->
<g id="node35" class="node"><title>Node35</title>
<polygon fill="white" stroke="#bfbfbf" points="2091.5,-0.5 2091.5,-30.5 2204.5,-30.5 2204.5,-0.5 2091.5,-0.5"/>
<text text-anchor="start" x="2099.5" y="-18.5" font-family="Helvetica,sans-Serif" font-size="10.00">boost/range/iterator</text>
<text text-anchor="middle" x="2148" y="-7.5" font-family="Helvetica,sans-Serif" font-size="10.00">_range.hpp</text>
</g>
<!-- Node32&#45;&gt;Node35 -->
<g id="edge58" class="edge"><title>Node32&#45;&gt;Node35</title>
<path fill="none" stroke="midnightblue" d="M2148,-67.4751C2148,-60.471 2148,-50.1919 2148,-40.6956"/>
<polygon fill="midnightblue" stroke="midnightblue" points="2151.5,-40.5229 2148,-30.523 2144.5,-40.523 2151.5,-40.5229"/>
</g>
<!-- Node36&#45;&gt;Node20 -->
<g id="edge61" class="edge"><title>Node36&#45;&gt;Node20</title>
<path fill="none" stroke="midnightblue" d="M2055.89,-179.083C2050.72,-171.534 2043.15,-160.495 2036.81,-151.23"/>
<polygon fill="midnightblue" stroke="midnightblue" points="2039.54,-149.022 2031,-142.751 2033.76,-152.979 2039.54,-149.022"/>
</g>
<!-- Node37 -->
<g id="node37" class="node"><title>Node37</title>
<polygon fill="white" stroke="#bfbfbf" points="2067,-123.5 2067,-142.5 2119,-142.5 2119,-123.5 2067,-123.5"/>
<text text-anchor="middle" x="2093" y="-130.5" font-family="Helvetica,sans-Serif" font-size="10.00">cassert</text>
</g>
<!-- Node36&#45;&gt;Node37 -->
<g id="edge60" class="edge"><title>Node36&#45;&gt;Node37</title>
<path fill="none" stroke="midnightblue" d="M2067.12,-179.083C2071.41,-171.613 2077.66,-160.724 2082.94,-151.52"/>
<polygon fill="midnightblue" stroke="midnightblue" points="2086.03,-153.166 2087.98,-142.751 2079.96,-149.681 2086.03,-153.166"/>
</g>
</g>
</svg>
