<?xml version="1.0" encoding="UTF-8" standalone="no"?>
<!DOCTYPE svg PUBLIC "-//W3C//DTD SVG 1.1//EN"
 "http://www.w3.org/Graphics/SVG/1.1/DTD/svg11.dtd">
<!-- Generated by graphviz version 2.38.0 (20140413.2041)
 -->
<!-- Title: ccf_group.h Pages: 1 -->
<!--zoomable 207 -->
<svg id="main" version="1.1" xmlns="http://www.w3.org/2000/svg" xmlns:xlink="http://www.w3.org/1999/xlink" xml:space="preserve" onload="init(evt)">
<style type="text/css"><![CDATA[
.edge:hover path { stroke: red; }
.edge:hover polygon { stroke: red; fill: red; }
]]></style>
<script type="text/javascript"><![CDATA[
var edges = document.getElementsByTagName('g');
if (edges && edges.length) {
  for (var i=0;i<edges.length;i++) {
    if (edges[i].id.substr(0,4)=='edge') {
      edges[i].setAttribute('class','edge');
    }
  }
}
]]></script>
        <defs>
                <circle id="rim" cx="0" cy="0" r="7"/>
                <circle id="rim2" cx="0" cy="0" r="3.5"/>
                <g id="zoomPlus">
                        <use xlink:href="#rim" fill="#404040">
                                <set attributeName="fill" to="#808080" begin="zoomplus.mouseover" end="zoomplus.mouseout"/>
                        </use>
                        <path d="M-4,0h8M0,-4v8" fill="none" stroke="white" stroke-width="1.5" pointer-events="none"/>
                </g>
                <g id="zoomMin">
                        <use xlink:href="#rim" fill="#404040">
                                <set attributeName="fill" to="#808080" begin="zoomminus.mouseover" end="zoomminus.mouseout"/>
                        </use>
                        <path d="M-4,0h8" fill="none" stroke="white" stroke-width="1.5" pointer-events="none"/>
                </g>
                <g id="dirArrow">
                        <path fill="none" stroke="white" stroke-width="1.5" d="M0,-3.0v7 M-2.5,-0.5L0,-3.0L2.5,-0.5"/>
                </g>
               <g id="resetDef">
                       <use xlink:href="#rim2" fill="#404040">
                               <set attributeName="fill" to="#808080" begin="reset.mouseover" end="reset.mouseout"/>
                       </use>
               </g>
        </defs>

<script type="text/javascript">
var viewWidth = 1097;
var viewHeight = 207;
var sectionId = 'dynsection-0';
</script>
<script xlink:href="svgpan.js"/>
<svg id="graph" class="graph">
<g id="viewport">
<title>ccf_group.h</title>
<polygon fill="white" stroke="none" points="-4,4 -4,-203 1093,-203 1093,4 -4,4"/>
<!-- Node1 -->
<g id="node1" class="node"><title>Node1</title>
<polygon fill="#bfbfbf" stroke="black" points="339,-179.5 339,-198.5 411,-198.5 411,-179.5 339,-179.5"/>
<text text-anchor="middle" x="375" y="-186.5" font-family="Helvetica,sans-Serif" font-size="10.00">ccf_group.h</text>
</g>
<!-- Node2 -->
<g id="node2" class="node"><title>Node2</title>
<polygon fill="white" stroke="#bfbfbf" points="49.5,-67.5 49.5,-86.5 106.5,-86.5 106.5,-67.5 49.5,-67.5"/>
<text text-anchor="middle" x="78" y="-74.5" font-family="Helvetica,sans-Serif" font-size="10.00">memory</text>
</g>
<!-- Node1&#45;&gt;Node2 -->
<g id="edge1" class="edge"><title>Node1&#45;&gt;Node2</title>
<path fill="none" stroke="midnightblue" d="M344.646,-179.463C315.301,-170.987 269.719,-157.235 231,-143 186.515,-126.645 136.14,-104.524 105.74,-90.7657"/>
<polygon fill="midnightblue" stroke="midnightblue" points="107.156,-87.5647 96.6039,-86.6104 104.257,-93.9366 107.156,-87.5647"/>
</g>
<!-- Node3 -->
<g id="node3" class="node"><title>Node3</title>
<polygon fill="white" stroke="#bfbfbf" points="639.5,-123.5 639.5,-142.5 694.5,-142.5 694.5,-123.5 639.5,-123.5"/>
<text text-anchor="middle" x="667" y="-130.5" font-family="Helvetica,sans-Serif" font-size="10.00">optional</text>
</g>
<!-- Node1&#45;&gt;Node3 -->
<g id="edge2" class="edge"><title>Node1&#45;&gt;Node3</title>
<path fill="none" stroke="midnightblue" d="M411.088,-181.889C459.75,-173.561 549.065,-157.966 625,-143 626.463,-142.712 627.954,-142.413 629.46,-142.109"/>
<polygon fill="midnightblue" stroke="midnightblue" points="630.382,-145.492 639.464,-140.036 628.962,-138.637 630.382,-145.492"/>
</g>
<!-- Node4 -->
<g id="node4" class="node"><title>Node4</title>
<polygon fill="white" stroke="#bfbfbf" points="270,-6 270,-25 314,-25 314,-6 270,-6"/>
<text text-anchor="middle" x="292" y="-13" font-family="Helvetica,sans-Serif" font-size="10.00">string</text>
</g>
<!-- Node1&#45;&gt;Node4 -->
<g id="edge3" class="edge"><title>Node1&#45;&gt;Node4</title>
<path fill="none" stroke="midnightblue" d="M363.37,-179.293C343.39,-163.515 303.226,-128.005 288,-87 281.743,-70.149 283.966,-49.4736 287.007,-34.8827"/>
<polygon fill="midnightblue" stroke="midnightblue" points="290.43,-35.6162 289.365,-25.075 283.624,-33.9795 290.43,-35.6162"/>
</g>
<!-- Node5 -->
<g id="node5" class="node"><title>Node5</title>
<polygon fill="white" stroke="#bfbfbf" points="713,-123.5 713,-142.5 781,-142.5 781,-123.5 713,-123.5"/>
<text text-anchor="middle" x="747" y="-130.5" font-family="Helvetica,sans-Serif" font-size="10.00">type_traits</text>
</g>
<!-- Node1&#45;&gt;Node5 -->
<g id="edge4" class="edge"><title>Node1&#45;&gt;Node5</title>
<path fill="none" stroke="midnightblue" d="M411.034,-183.839C471.544,-176.676 597.332,-161.036 703,-143 703.101,-142.983 703.202,-142.966 703.303,-142.948"/>
<polygon fill="midnightblue" stroke="midnightblue" points="703.719,-146.43 712.932,-141.198 702.467,-139.543 703.719,-146.43"/>
</g>
<!-- Node6 -->
<g id="node6" class="node"><title>Node6</title>
<polygon fill="white" stroke="#bfbfbf" points="0,-6 0,-25 42,-25 42,-6 0,-6"/>
<text text-anchor="middle" x="21" y="-13" font-family="Helvetica,sans-Serif" font-size="10.00">utility</text>
</g>
<!-- Node1&#45;&gt;Node6 -->
<g id="edge5" class="edge"><title>Node1&#45;&gt;Node6</title>
<path fill="none" stroke="midnightblue" d="M338.832,-188.57C269.582,-187.549 118.21,-174.747 40,-87 27.2402,-72.6843 22.926,-50.6686 21.5315,-35.0526"/>
<polygon fill="midnightblue" stroke="midnightblue" points="25.0227,-34.7965 20.9531,-25.0145 18.0343,-35.1993 25.0227,-34.7965"/>
</g>
<!-- Node7 -->
<g id="node7" class="node"><title>Node7</title>
<polygon fill="white" stroke="#bfbfbf" points="545.5,-6 545.5,-25 592.5,-25 592.5,-6 545.5,-6"/>
<text text-anchor="middle" x="569" y="-13" font-family="Helvetica,sans-Serif" font-size="10.00">vector</text>
</g>
<!-- Node1&#45;&gt;Node7 -->
<g id="edge6" class="edge"><title>Node1&#45;&gt;Node7</title>
<path fill="none" stroke="midnightblue" d="M411.235,-183.155C461.828,-174.216 551.821,-149.896 591,-87 601.33,-70.4171 591.568,-48.5982 581.973,-33.6514"/>
<polygon fill="midnightblue" stroke="midnightblue" points="584.781,-31.558 576.202,-25.3412 579.032,-35.5511 584.781,-31.558"/>
</g>
<!-- Node8 -->
<g id="node8" class="node"><title>Node8</title>
<g id="a_node8"><a xlink:href="element_8h.xhtml" target="_top" xlink:title="Helper classes, structs, and properties common to all other classes. ">
<polygon fill="white" stroke="black" points="517.5,-67.5 517.5,-86.5 582.5,-86.5 582.5,-67.5 517.5,-67.5"/>
<text text-anchor="middle" x="550" y="-74.5" font-family="Helvetica,sans-Serif" font-size="10.00">element.h</text>
</a>
</g>
</g>
<!-- Node1&#45;&gt;Node8 -->
<g id="edge7" class="edge"><title>Node1&#45;&gt;Node8</title>
<path fill="none" stroke="midnightblue" d="M388.732,-179.368C418.89,-160.412 491.135,-115.001 527.819,-91.9424"/>
<polygon fill="midnightblue" stroke="midnightblue" points="529.728,-94.8764 536.332,-86.5914 526.003,-88.9499 529.728,-94.8764"/>
</g>
<!-- Node14 -->
<g id="node14" class="node"><title>Node14</title>
<g id="a_node14"><a xlink:href="event_8h.xhtml" target="_top" xlink:title="Contains event classes for fault trees. ">
<polygon fill="white" stroke="black" points="348.5,-123.5 348.5,-142.5 401.5,-142.5 401.5,-123.5 348.5,-123.5"/>
<text text-anchor="middle" x="375" y="-130.5" font-family="Helvetica,sans-Serif" font-size="10.00">event.h</text>
</a>
</g>
</g>
<!-- Node1&#45;&gt;Node14 -->
<g id="edge15" class="edge"><title>Node1&#45;&gt;Node14</title>
<path fill="none" stroke="midnightblue" d="M375,-179.083C375,-172.006 375,-161.861 375,-152.986"/>
<polygon fill="midnightblue" stroke="midnightblue" points="378.5,-152.751 375,-142.751 371.5,-152.751 378.5,-152.751"/>
</g>
<!-- Node16 -->
<g id="node16" class="node"><title>Node16</title>
<g id="a_node16"><a xlink:href="expression_8h.xhtml" target="_top" xlink:title="Provides the base class for all expressions and units for expression values. ">
<polygon fill="white" stroke="black" points="163.5,-67.5 163.5,-86.5 240.5,-86.5 240.5,-67.5 163.5,-67.5"/>
<text text-anchor="middle" x="202" y="-74.5" font-family="Helvetica,sans-Serif" font-size="10.00">expression.h</text>
</a>
</g>
</g>
<!-- Node1&#45;&gt;Node16 -->
<g id="edge31" class="edge"><title>Node1&#45;&gt;Node16</title>
<path fill="none" stroke="midnightblue" d="M338.998,-179.846C313.819,-172.924 280.302,-161.169 255,-143 237.148,-130.181 221.923,-109.882 212.433,-95.3803"/>
<polygon fill="midnightblue" stroke="midnightblue" points="215.34,-93.428 207.055,-86.8243 209.413,-97.1533 215.34,-93.428"/>
</g>
<!-- Node8&#45;&gt;Node4 -->
<g id="edge9" class="edge"><title>Node8&#45;&gt;Node4</title>
<path fill="none" stroke="midnightblue" d="M517.418,-72.0636C472.757,-66.103 390.387,-53.0778 323,-31 321.331,-30.4531 319.634,-29.8392 317.938,-29.181"/>
<polygon fill="midnightblue" stroke="midnightblue" points="319,-25.8278 308.431,-25.0857 316.23,-32.2566 319,-25.8278"/>
</g>
<!-- Node8&#45;&gt;Node7 -->
<g id="edge10" class="edge"><title>Node8&#45;&gt;Node7</title>
<path fill="none" stroke="midnightblue" d="M552.722,-67.4751C555.431,-58.9919 559.674,-45.7043 563.149,-34.8222"/>
<polygon fill="midnightblue" stroke="midnightblue" points="566.575,-35.5999 566.283,-25.0091 559.907,-33.4705 566.575,-35.5999"/>
</g>
<!-- Node9 -->
<g id="node9" class="node"><title>Node9</title>
<polygon fill="white" stroke="#bfbfbf" points="478.5,-6 478.5,-25 527.5,-25 527.5,-6 478.5,-6"/>
<text text-anchor="middle" x="503" y="-13" font-family="Helvetica,sans-Serif" font-size="10.00">cstdint</text>
</g>
<!-- Node8&#45;&gt;Node9 -->
<g id="edge8" class="edge"><title>Node8&#45;&gt;Node9</title>
<path fill="none" stroke="midnightblue" d="M543.266,-67.4751C536.216,-58.5501 524.965,-44.3071 516.146,-33.1425"/>
<polygon fill="midnightblue" stroke="midnightblue" points="518.667,-30.6867 509.721,-25.0091 513.174,-35.0258 518.667,-30.6867"/>
</g>
<!-- Node10 -->
<g id="node10" class="node"><title>Node10</title>
<polygon fill="white" stroke="#bfbfbf" points="801,-0.5 801,-30.5 941,-30.5 941,-0.5 801,-0.5"/>
<text text-anchor="start" x="809" y="-18.5" font-family="Helvetica,sans-Serif" font-size="10.00">boost/multi_index/hashed</text>
<text text-anchor="middle" x="871" y="-7.5" font-family="Helvetica,sans-Serif" font-size="10.00">_index.hpp</text>
</g>
<!-- Node8&#45;&gt;Node10 -->
<g id="edge11" class="edge"><title>Node8&#45;&gt;Node10</title>
<path fill="none" stroke="midnightblue" d="M582.546,-69.9674C630.984,-60.9889 723.545,-43.832 790.785,-31.3685"/>
<polygon fill="midnightblue" stroke="midnightblue" points="791.736,-34.7519 800.931,-29.4879 790.461,-27.8691 791.736,-34.7519"/>
</g>
<!-- Node11 -->
<g id="node11" class="node"><title>Node11</title>
<polygon fill="white" stroke="#bfbfbf" points="959,-0.5 959,-30.5 1089,-30.5 1089,-0.5 959,-0.5"/>
<text text-anchor="start" x="967" y="-18.5" font-family="Helvetica,sans-Serif" font-size="10.00">boost/multi_index/mem</text>
<text text-anchor="middle" x="1024" y="-7.5" font-family="Helvetica,sans-Serif" font-size="10.00">_fun.hpp</text>
</g>
<!-- Node8&#45;&gt;Node11 -->
<g id="edge12" class="edge"><title>Node8&#45;&gt;Node11</title>
<path fill="none" stroke="midnightblue" d="M582.524,-73.2465C649.225,-67.4053 806.506,-52.6363 948.486,-31.1567"/>
<polygon fill="midnightblue" stroke="midnightblue" points="949.324,-34.5693 958.681,-29.5986 948.267,-27.6497 949.324,-34.5693"/>
</g>
<!-- Node12 -->
<g id="node12" class="node"><title>Node12</title>
<polygon fill="white" stroke="#bfbfbf" points="611,-6 611,-25 783,-25 783,-6 611,-6"/>
<text text-anchor="middle" x="697" y="-13" font-family="Helvetica,sans-Serif" font-size="10.00">boost/multi_index_container.hpp</text>
</g>
<!-- Node8&#45;&gt;Node12 -->
<g id="edge13" class="edge"><title>Node8&#45;&gt;Node12</title>
<path fill="none" stroke="midnightblue" d="M571.062,-67.4751C596.059,-57.3571 637.942,-40.4046 666.487,-28.8507"/>
<polygon fill="midnightblue" stroke="midnightblue" points="668.021,-32.0054 675.978,-25.0091 665.395,-25.5168 668.021,-32.0054"/>
</g>
<!-- Node13 -->
<g id="node13" class="node"><title>Node13</title>
<polygon fill="white" stroke="#bfbfbf" points="332,-6 332,-25 460,-25 460,-6 332,-6"/>
<text text-anchor="middle" x="396" y="-13" font-family="Helvetica,sans-Serif" font-size="10.00">boost/noncopyable.hpp</text>
</g>
<!-- Node8&#45;&gt;Node13 -->
<g id="edge14" class="edge"><title>Node8&#45;&gt;Node13</title>
<path fill="none" stroke="midnightblue" d="M527.936,-67.4751C501.633,-57.3129 457.487,-40.2564 427.575,-28.6996"/>
<polygon fill="midnightblue" stroke="midnightblue" points="428.613,-25.3483 418.024,-25.0091 426.09,-31.8779 428.613,-25.3483"/>
</g>
<!-- Node14&#45;&gt;Node2 -->
<g id="edge17" class="edge"><title>Node14&#45;&gt;Node2</title>
<path fill="none" stroke="midnightblue" d="M348.254,-127.542C301.9,-119.753 203.665,-102.97 121,-87 119.549,-86.7197 118.071,-86.4303 116.58,-86.1347"/>
<polygon fill="midnightblue" stroke="midnightblue" points="117.152,-82.6796 106.656,-84.1267 115.763,-89.5406 117.152,-82.6796"/>
</g>
<!-- Node14&#45;&gt;Node4 -->
<g id="edge18" class="edge"><title>Node14&#45;&gt;Node4</title>
<path fill="none" stroke="midnightblue" d="M374.155,-123.293C372.522,-110.108 367.968,-84.7375 356,-67 345.902,-52.0336 329.976,-39.4436 316.538,-30.5778"/>
<polygon fill="midnightblue" stroke="midnightblue" points="318.065,-27.4039 307.735,-25.0515 314.344,-33.3325 318.065,-27.4039"/>
</g>
<!-- Node14&#45;&gt;Node6 -->
<g id="edge19" class="edge"><title>Node14&#45;&gt;Node6</title>
<path fill="none" stroke="midnightblue" d="M348.483,-129.092C306.318,-123.92 221.821,-111.308 154,-87 148.382,-84.9866 83.0594,-49.9486 46.1002,-30.0424"/>
<polygon fill="midnightblue" stroke="midnightblue" points="47.3979,-26.7658 36.9344,-25.1027 44.077,-32.9279 47.3979,-26.7658"/>
</g>
<!-- Node14&#45;&gt;Node7 -->
<g id="edge21" class="edge"><title>Node14&#45;&gt;Node7</title>
<path fill="none" stroke="midnightblue" d="M389.796,-123.432C405.324,-114.421 430.429,-99.8013 452,-87 484.948,-67.447 522.906,-44.4959 546.43,-30.2226"/>
<polygon fill="midnightblue" stroke="midnightblue" points="548.258,-33.2074 554.989,-25.0256 544.625,-27.224 548.258,-33.2074"/>
</g>
<!-- Node14&#45;&gt;Node8 -->
<g id="edge23" class="edge"><title>Node14&#45;&gt;Node8</title>
<path fill="none" stroke="midnightblue" d="M401.579,-123.799C431.127,-114.681 479.077,-99.8849 512.45,-89.5869"/>
<polygon fill="midnightblue" stroke="midnightblue" points="513.779,-92.8397 522.302,-86.5467 511.715,-86.1509 513.779,-92.8397"/>
</g>
<!-- Node14&#45;&gt;Node9 -->
<g id="edge16" class="edge"><title>Node14&#45;&gt;Node9</title>
<path fill="none" stroke="midnightblue" d="M384.621,-123.319C406.118,-103.921 458.304,-56.8311 485.642,-32.1625"/>
<polygon fill="midnightblue" stroke="midnightblue" points="488.188,-34.5798 493.268,-25.282 483.498,-29.3828 488.188,-34.5798"/>
</g>
<!-- Node14&#45;&gt;Node13 -->
<g id="edge22" class="edge"><title>Node14&#45;&gt;Node13</title>
<path fill="none" stroke="midnightblue" d="M378.331,-123.174C381.578,-114.2 386.395,-99.8293 389,-87 392.514,-69.6895 394.289,-49.6147 395.169,-35.3245"/>
<polygon fill="midnightblue" stroke="midnightblue" points="398.668,-35.4381 395.7,-25.2675 391.678,-35.0691 398.668,-35.4381"/>
</g>
<!-- Node15 -->
<g id="node15" class="node"><title>Node15</title>
<polygon fill="white" stroke="#bfbfbf" points="297,-67.5 297,-86.5 347,-86.5 347,-67.5 297,-67.5"/>
<text text-anchor="middle" x="322" y="-74.5" font-family="Helvetica,sans-Serif" font-size="10.00">variant</text>
</g>
<!-- Node14&#45;&gt;Node15 -->
<g id="edge20" class="edge"><title>Node14&#45;&gt;Node15</title>
<path fill="none" stroke="midnightblue" d="M366.248,-123.083C358.53,-115.22 347.095,-103.569 337.783,-94.0813"/>
<polygon fill="midnightblue" stroke="midnightblue" points="340.092,-91.4363 330.589,-86.7511 335.096,-96.3396 340.092,-91.4363"/>
</g>
<!-- Node14&#45;&gt;Node16 -->
<g id="edge24" class="edge"><title>Node14&#45;&gt;Node16</title>
<path fill="none" stroke="midnightblue" d="M348.348,-123.681C319.058,-114.538 271.81,-99.7904 238.953,-89.5344"/>
<polygon fill="midnightblue" stroke="midnightblue" points="239.842,-86.1455 229.254,-86.5069 237.756,-92.8276 239.842,-86.1455"/>
</g>
<!-- Node16&#45;&gt;Node4 -->
<g id="edge26" class="edge"><title>Node16&#45;&gt;Node4</title>
<path fill="none" stroke="midnightblue" d="M214.895,-67.4751C229.464,-57.8431 253.402,-42.0175 270.745,-30.5517"/>
<polygon fill="midnightblue" stroke="midnightblue" points="272.717,-33.4437 279.129,-25.0091 268.857,-27.6044 272.717,-33.4437"/>
</g>
<!-- Node16&#45;&gt;Node6 -->
<g id="edge27" class="edge"><title>Node16&#45;&gt;Node6</title>
<path fill="none" stroke="midnightblue" d="M167.591,-67.4359C136.639,-59.3358 90.1489,-46.1812 51,-31 49.6179,-30.4641 48.2119,-29.8901 46.8007,-29.2912"/>
<polygon fill="midnightblue" stroke="midnightblue" points="48.1604,-26.0647 37.6084,-25.1131 45.2639,-32.4373 48.1604,-26.0647"/>
</g>
<!-- Node16&#45;&gt;Node7 -->
<g id="edge28" class="edge"><title>Node16&#45;&gt;Node7</title>
<path fill="none" stroke="midnightblue" d="M240.75,-71.3981C322.632,-61.5842 508.047,-38.8555 536,-31 538.154,-30.3947 540.35,-29.6757 542.534,-28.8866"/>
<polygon fill="midnightblue" stroke="midnightblue" points="543.908,-32.1062 551.867,-25.1129 541.284,-25.6166 543.908,-32.1062"/>
</g>
<!-- Node16&#45;&gt;Node13 -->
<g id="edge30" class="edge"><title>Node16&#45;&gt;Node13</title>
<path fill="none" stroke="midnightblue" d="M229.795,-67.4751C263.65,-57.092 320.971,-39.5116 358.655,-27.9538"/>
<polygon fill="midnightblue" stroke="midnightblue" points="359.722,-31.2875 368.256,-25.0091 357.669,-24.5952 359.722,-31.2875"/>
</g>
<!-- Node17 -->
<g id="node17" class="node"><title>Node17</title>
<polygon fill="white" stroke="#bfbfbf" points="60,-6 60,-25 122,-25 122,-6 60,-6"/>
<text text-anchor="middle" x="91" y="-13" font-family="Helvetica,sans-Serif" font-size="10.00">algorithm</text>
</g>
<!-- Node16&#45;&gt;Node17 -->
<g id="edge25" class="edge"><title>Node16&#45;&gt;Node17</title>
<path fill="none" stroke="midnightblue" d="M186.096,-67.4751C167.715,-57.6222 137.244,-41.2883 115.755,-29.7697"/>
<polygon fill="midnightblue" stroke="midnightblue" points="117.341,-26.6488 106.874,-25.0091 114.034,-32.8183 117.341,-26.6488"/>
</g>
<!-- Node18 -->
<g id="node18" class="node"><title>Node18</title>
<polygon fill="white" stroke="#bfbfbf" points="140,-0.5 140,-30.5 252,-30.5 252,-0.5 140,-0.5"/>
<text text-anchor="start" x="148" y="-18.5" font-family="Helvetica,sans-Serif" font-size="10.00">boost/icl/continuous</text>
<text text-anchor="middle" x="196" y="-7.5" font-family="Helvetica,sans-Serif" font-size="10.00">_interval.hpp</text>
</g>
<!-- Node16&#45;&gt;Node18 -->
<g id="edge29" class="edge"><title>Node16&#45;&gt;Node18</title>
<path fill="none" stroke="midnightblue" d="M201.14,-67.4751C200.434,-60.471 199.398,-50.1919 198.44,-40.6956"/>
<polygon fill="midnightblue" stroke="midnightblue" points="201.9,-40.1213 197.414,-30.523 194.935,-40.8237 201.9,-40.1213"/>
</g>
</g>
</svg>
        <g id="navigator" transform="translate(0 0)" fill="#404254">
                <rect fill="#f2f5e9" fill-opacity="0.5" stroke="#606060" stroke-width=".5" x="0" y="0" width="60" height="60"/>
                <use id="zoomplus" xlink:href="#zoomPlus" x="17" y="9" onmousedown="handleZoom(evt,'in')"/>
                <use id="zoomminus" xlink:href="#zoomMin" x="42" y="9" onmousedown="handleZoom(evt,'out')"/>
                <use id="reset" xlink:href="#resetDef" x="30" y="36" onmousedown="handleReset()"/>
                <g id="arrowUp" xlink:href="#dirArrow" transform="translate(30 24)" onmousedown="handlePan(0,-1)">
                  <use xlink:href="#rim" fill="#404040">
                        <set attributeName="fill" to="#808080" begin="arrowUp.mouseover" end="arrowUp.mouseout"/>
                  </use>
                  <path fill="none" stroke="white" stroke-width="1.5" d="M0,-3.0v7 M-2.5,-0.5L0,-3.0L2.5,-0.5"/>
                </g>
                <g id="arrowRight" xlink:href="#dirArrow" transform="rotate(90) translate(36 -43)" onmousedown="handlePan(1,0)">
                  <use xlink:href="#rim" fill="#404040">
                        <set attributeName="fill" to="#808080" begin="arrowRight.mouseover" end="arrowRight.mouseout"/>
                  </use>
                  <path fill="none" stroke="white" stroke-width="1.5" d="M0,-3.0v7 M-2.5,-0.5L0,-3.0L2.5,-0.5"/>
                </g>
                <g id="arrowDown" xlink:href="#dirArrow" transform="rotate(180) translate(-30 -48)" onmousedown="handlePan(0,1)">
                  <use xlink:href="#rim" fill="#404040">
                        <set attributeName="fill" to="#808080" begin="arrowDown.mouseover" end="arrowDown.mouseout"/>
                  </use>
                  <path fill="none" stroke="white" stroke-width="1.5" d="M0,-3.0v7 M-2.5,-0.5L0,-3.0L2.5,-0.5"/>
                </g>
                <g id="arrowLeft" xlink:href="#dirArrow" transform="rotate(270) translate(-36 17)" onmousedown="handlePan(-1,0)">
                  <use xlink:href="#rim" fill="#404040">
                        <set attributeName="fill" to="#808080" begin="arrowLeft.mouseover" end="arrowLeft.mouseout"/>
                  </use>
                  <path fill="none" stroke="white" stroke-width="1.5" d="M0,-3.0v7 M-2.5,-0.5L0,-3.0L2.5,-0.5"/>
                </g>
        </g>
        <svg viewBox="0 0 15 15" width="100%" height="30px" preserveAspectRatio="xMaxYMin meet">
         <g id="arrow_out" transform="scale(0.3 0.3)">
          <a xlink:href="ccf__group_8h__incl_org.svg" target="_base">
           <rect id="button" ry="5" rx="5" y="6" x="6" height="38" width="38"
                fill="#f2f5e9" fill-opacity="0.5" stroke="#606060" stroke-width="1.0"/>
           <path id="arrow"
             d="M 11.500037,31.436501 C 11.940474,20.09759 22.043105,11.32322 32.158766,21.979434 L 37.068811,17.246167 C 37.068811,17.246167 37.088388,32 37.088388,32 L 22.160133,31.978069 C 22.160133,31.978069 26.997745,27.140456 26.997745,27.140456 C 18.528582,18.264221 13.291696,25.230495 11.500037,31.436501 z"
             style="fill:#404040;"/>
          </a>
         </g>
        </svg>
</svg>
