<?xml version="1.0" encoding="UTF-8" standalone="no"?>
<!DOCTYPE svg PUBLIC "-//W3C//DTD SVG 1.1//EN"
 "http://www.w3.org/Graphics/SVG/1.1/DTD/svg11.dtd">
<!-- Generated by graphviz version 2.38.0 (20140413.2041)
 -->
<!-- Title: scram::mef::Component::gates Pages: 1 -->
<svg width="466pt" height="176pt"
 viewBox="0.00 0.00 466.00 176.00" xmlns="http://www.w3.org/2000/svg" xmlns:xlink="http://www.w3.org/1999/xlink">
<g id="graph0" class="graph" transform="scale(1 1) rotate(0) translate(4 172)">
<title>scram::mef::Component::gates</title>
<polygon fill="white" stroke="none" points="-4,4 -4,-172 462,-172 462,4 -4,4"/>
<!-- Node1 -->
<g id="node1" class="node"><title>Node1</title>
<polygon fill="#bfbfbf" stroke="black" points="0,-66.5 0,-96.5 134,-96.5 134,-66.5 0,-66.5"/>
<text text-anchor="start" x="8" y="-84.5" font-family="Helvetica,sans-Serif" font-size="10.00">scram::mef::Component</text>
<text text-anchor="middle" x="67" y="-73.5" font-family="Helvetica,sans-Serif" font-size="10.00">::gates</text>
</g>
<!-- Node2 -->
<g id="node2" class="node"><title>Node2</title>
<g id="a_node2"><a xlink:href="classscram_1_1mef_1_1FaultTree.xhtml#a9535bd49edb4598ead887faf8dadd9f2" target="_top" xlink:title="Collects top event gates in this fault tree with components. ">
<polygon fill="white" stroke="black" points="177.5,-137.5 177.5,-167.5 296.5,-167.5 296.5,-137.5 177.5,-137.5"/>
<text text-anchor="start" x="185.5" y="-155.5" font-family="Helvetica,sans-Serif" font-size="10.00">scram::mef::FaultTree</text>
<text text-anchor="middle" x="237" y="-144.5" font-family="Helvetica,sans-Serif" font-size="10.00">::CollectTopEvents</text>
</a>
</g>
</g>
<!-- Node1&#45;&gt;Node2 -->
<g id="edge1" class="edge"><title>Node1&#45;&gt;Node2</title>
<path fill="none" stroke="midnightblue" d="M108.05,-100.889C126.719,-109.685 149.33,-119.997 170,-128.5 177.329,-131.515 185.191,-134.546 192.843,-137.391"/>
<polygon fill="midnightblue" stroke="midnightblue" points="109.489,-97.6976 98.954,-96.5764 106.491,-104.023 109.489,-97.6976"/>
</g>
<!-- Node3 -->
<g id="node3" class="node"><title>Node3</title>
<g id="a_node3"><a xlink:href="classscram_1_1mef_1_1Component.xhtml#a483f7a67e2197449902bddc48756e2cd" target="_top" xlink:title="scram::mef::Component\l::components">
<polygon fill="white" stroke="black" points="170,-88.5 170,-118.5 304,-118.5 304,-88.5 170,-88.5"/>
<text text-anchor="start" x="178" y="-106.5" font-family="Helvetica,sans-Serif" font-size="10.00">scram::mef::Component</text>
<text text-anchor="middle" x="237" y="-95.5" font-family="Helvetica,sans-Serif" font-size="10.00">::components</text>
</a>
</g>
</g>
<!-- Node1&#45;&gt;Node3 -->
<g id="edge2" class="edge"><title>Node1&#45;&gt;Node3</title>
<path fill="none" stroke="midnightblue" d="M144.317,-91.4939C152.826,-92.6082 161.441,-93.7364 169.809,-94.8322"/>
<polygon fill="midnightblue" stroke="midnightblue" points="144.768,-88.0231 134.398,-90.195 143.859,-94.9639 144.768,-88.0231"/>
</g>
<!-- Node4 -->
<g id="node4" class="node"><title>Node4</title>
<g id="a_node4"><a xlink:href="serialization_8cc.xhtml#a83f7058a5caad9ec3ffb5fd6c7d7b8f6" target="_top" xlink:title="Convenience function for serialization into a file. ">
<polygon fill="white" stroke="black" points="340,-72 340,-91 458,-91 458,-72 340,-72"/>
<text text-anchor="middle" x="399" y="-79" font-family="Helvetica,sans-Serif" font-size="10.00">scram::mef::Serialize</text>
</a>
</g>
</g>
<!-- Node1&#45;&gt;Node4 -->
<g id="edge5" class="edge"><title>Node1&#45;&gt;Node4</title>
<path fill="none" stroke="midnightblue" d="M144.26,-79.8414C152.941,-79.701 161.662,-79.5817 170,-79.5 229.553,-78.9162 244.448,-78.8665 304,-79.5 315.589,-79.6233 327.98,-79.832 339.837,-80.0693"/>
<polygon fill="midnightblue" stroke="midnightblue" points="144.052,-76.3443 134.114,-80.0147 144.172,-83.3433 144.052,-76.3443"/>
</g>
<!-- Node5 -->
<g id="node5" class="node"><title>Node5</title>
<g id="a_node5"><a xlink:href="classscram_1_1mef_1_1FaultTree.xhtml#a502dde7fc11b6023dc59675f924539da" target="_top" xlink:title="scram::mef::FaultTree\l::top_events">
<polygon fill="white" stroke="black" points="177.5,-0.5 177.5,-30.5 296.5,-30.5 296.5,-0.5 177.5,-0.5"/>
<text text-anchor="start" x="185.5" y="-18.5" font-family="Helvetica,sans-Serif" font-size="10.00">scram::mef::FaultTree</text>
<text text-anchor="middle" x="237" y="-7.5" font-family="Helvetica,sans-Serif" font-size="10.00">::top_events</text>
</a>
</g>
</g>
<!-- Node1&#45;&gt;Node5 -->
<g id="edge6" class="edge"><title>Node1&#45;&gt;Node5</title>
<path fill="none" stroke="midnightblue" d="M116.153,-62.5827C142.012,-52.424 173.449,-40.0737 197.637,-30.5713"/>
<polygon fill="midnightblue" stroke="midnightblue" points="114.57,-59.444 106.543,-66.3583 117.13,-65.9593 114.57,-59.444"/>
</g>
<!-- Node3&#45;&gt;Node4 -->
<g id="edge3" class="edge"><title>Node3&#45;&gt;Node4</title>
<path fill="none" stroke="midnightblue" d="M314.102,-93.036C322.75,-91.8469 331.458,-90.6495 339.823,-89.4994"/>
<polygon fill="midnightblue" stroke="midnightblue" points="313.432,-89.5951 304.002,-94.4247 314.385,-96.5299 313.432,-89.5951"/>
</g>
<!-- Node4&#45;&gt;Node4 -->
<g id="edge4" class="edge"><title>Node4&#45;&gt;Node4</title>
<path fill="none" stroke="midnightblue" d="M368.686,-99.7746C369.55,-105.241 379.655,-109.5 399,-109.5 427.793,-109.5 436.116,-100.065 423.969,-91.2571"/>
<polygon fill="midnightblue" stroke="midnightblue" points="371.68,-101.588 374.031,-91.2571 365.751,-97.8667 371.68,-101.588"/>
</g>
</g>
</svg>
