<?xml version="1.0" encoding="UTF-8" standalone="no"?>
<!DOCTYPE svg PUBLIC "-//W3C//DTD SVG 1.1//EN"
 "http://www.w3.org/Graphics/SVG/1.1/DTD/svg11.dtd">
<!-- Generated by graphviz version 2.38.0 (20140413.2041)
 -->
<!-- Title: scram::mef::Expression::Reset Pages: 1 -->
<svg width="1081pt" height="449pt"
 viewBox="0.00 0.00 1081.00 448.50" xmlns="http://www.w3.org/2000/svg" xmlns:xlink="http://www.w3.org/1999/xlink">
<g id="graph0" class="graph" transform="scale(1 1) rotate(0) translate(4 444.5)">
<title>scram::mef::Expression::Reset</title>
<polygon fill="white" stroke="none" points="-4,4 -4,-444.5 1077,-444.5 1077,4 -4,4"/>
<!-- Node1 -->
<g id="node1" class="node"><title>Node1</title>
<polygon fill="#bfbfbf" stroke="black" points="0,-191.5 0,-221.5 129,-221.5 129,-191.5 0,-191.5"/>
<text text-anchor="start" x="8" y="-209.5" font-family="Helvetica,sans-Serif" font-size="10.00">scram::mef::Expression</text>
<text text-anchor="middle" x="64.5" y="-198.5" font-family="Helvetica,sans-Serif" font-size="10.00">::Reset</text>
</g>
<!-- Node2 -->
<g id="node2" class="node"><title>Node2</title>
<g id="a_node2"><a xlink:href="classscram_1_1mef_1_1Expression.xhtml#a179b21e75df522673e6d51b784d10e86" target="_top" xlink:title="scram::mef::Expression\l::interval">
<polygon fill="white" stroke="black" points="165,-191.5 165,-221.5 294,-221.5 294,-191.5 165,-191.5"/>
<text text-anchor="start" x="173" y="-209.5" font-family="Helvetica,sans-Serif" font-size="10.00">scram::mef::Expression</text>
<text text-anchor="middle" x="229.5" y="-198.5" font-family="Helvetica,sans-Serif" font-size="10.00">::interval</text>
</a>
</g>
</g>
<!-- Node1&#45;&gt;Node2 -->
<g id="edge1" class="edge"><title>Node1&#45;&gt;Node2</title>
<path fill="none" stroke="midnightblue" d="M139.688,-206.5C148.141,-206.5 156.701,-206.5 164.998,-206.5"/>
<polygon fill="midnightblue" stroke="midnightblue" points="139.454,-203 129.454,-206.5 139.454,-210 139.454,-203"/>
</g>
<!-- Node3 -->
<g id="node3" class="node"><title>Node3</title>
<g id="a_node3"><a xlink:href="classscram_1_1mef_1_1NaryExpression_3_01T_00-1_01_4.xhtml#aad5811e7fc2298aaf486697e050774fa" target="_top" xlink:title="Computes the expression value with a given argument value extractor. ">
<polygon fill="white" stroke="black" points="540,-352.5 540,-382.5 692,-382.5 692,-352.5 540,-352.5"/>
<text text-anchor="start" x="548" y="-370.5" font-family="Helvetica,sans-Serif" font-size="10.00">scram::mef::NaryExpression</text>
<text text-anchor="middle" x="616" y="-359.5" font-family="Helvetica,sans-Serif" font-size="10.00">&lt; T,&#45;1 &gt;::Compute</text>
</a>
</g>
</g>
<!-- Node2&#45;&gt;Node3 -->
<g id="edge2" class="edge"><title>Node2&#45;&gt;Node3</title>
<path fill="none" stroke="midnightblue" d="M238.85,-231.251C252.057,-266.033 281.381,-328.173 330,-355.5 393.893,-391.412 479.165,-389.811 539.742,-382.069"/>
<polygon fill="midnightblue" stroke="midnightblue" points="242.121,-230.006 235.407,-221.811 235.545,-232.404 242.121,-230.006"/>
</g>
<!-- Node4 -->
<g id="node4" class="node"><title>Node4</title>
<g id="a_node4"><a xlink:href="expression_8cc.xhtml#a9b787fed653e7b5a1b6d6ace04643516" target="_top" xlink:title="Ensures that expression yields non&#45;negative (&gt;= 0) values. ">
<polygon fill="white" stroke="black" points="330,-253 330,-272 503,-272 503,-253 330,-253"/>
<text text-anchor="middle" x="416.5" y="-260" font-family="Helvetica,sans-Serif" font-size="10.00">scram::mef::EnsureNonNegative</text>
</a>
</g>
</g>
<!-- Node2&#45;&gt;Node4 -->
<g id="edge3" class="edge"><title>Node2&#45;&gt;Node4</title>
<path fill="none" stroke="midnightblue" d="M276.886,-225.254C293.476,-231.56 312.418,-238.304 330,-243.5 341.958,-247.034 355.027,-250.253 367.269,-252.997"/>
<polygon fill="midnightblue" stroke="midnightblue" points="278.008,-221.936 267.418,-221.608 275.492,-228.468 278.008,-221.936"/>
</g>
<!-- Node11 -->
<g id="node11" class="node"><title>Node11</title>
<g id="a_node11"><a xlink:href="expression_8cc.xhtml#a0361a4eda6025e09ca91ec2d1447ad1b" target="_top" xlink:title="Ensures that expression yields positive (&gt; 0) values. ">
<polygon fill="white" stroke="black" points="343,-309 343,-328 490,-328 490,-309 343,-309"/>
<text text-anchor="middle" x="416.5" y="-316" font-family="Helvetica,sans-Serif" font-size="10.00">scram::mef::EnsurePositive</text>
</a>
</g>
</g>
<!-- Node2&#45;&gt;Node11 -->
<g id="edge12" class="edge"><title>Node2&#45;&gt;Node11</title>
<path fill="none" stroke="midnightblue" d="M248.85,-229.643C267.124,-251.076 297.132,-282.172 330,-299.5 337.398,-303.4 345.564,-306.501 353.826,-308.967"/>
<polygon fill="midnightblue" stroke="midnightblue" points="251.302,-227.118 242.213,-221.673 245.923,-231.598 251.302,-227.118"/>
</g>
<!-- Node12 -->
<g id="node12" class="node"><title>Node12</title>
<g id="a_node12"><a xlink:href="expression_8cc.xhtml#a2c0a639b694ccfdf4b7d6913d8a635de" target="_top" xlink:title="Ensures that expression can be used for probability ([0, 1]). ">
<polygon fill="white" stroke="black" points="336.5,-197 336.5,-216 496.5,-216 496.5,-197 336.5,-197"/>
<text text-anchor="middle" x="416.5" y="-204" font-family="Helvetica,sans-Serif" font-size="10.00">scram::mef::EnsureProbability</text>
</a>
</g>
</g>
<!-- Node2&#45;&gt;Node12 -->
<g id="edge19" class="edge"><title>Node2&#45;&gt;Node12</title>
<path fill="none" stroke="midnightblue" d="M304.182,-206.5C314.757,-206.5 325.676,-206.5 336.352,-206.5"/>
<polygon fill="midnightblue" stroke="midnightblue" points="304.167,-203 294.167,-206.5 304.166,-210 304.167,-203"/>
</g>
<!-- Node19 -->
<g id="node19" class="node"><title>Node19</title>
<g id="a_node19"><a xlink:href="expression_8cc.xhtml#aa5f8250f3fc162fc8c018bd57c877a0e" target="_top" xlink:title="Ensures that expression values are within the interval. ">
<polygon fill="white" stroke="black" points="347,-403 347,-422 486,-422 486,-403 347,-403"/>
<text text-anchor="middle" x="416.5" y="-410" font-family="Helvetica,sans-Serif" font-size="10.00">scram::mef::EnsureWithin</text>
</a>
</g>
</g>
<!-- Node2&#45;&gt;Node19 -->
<g id="edge30" class="edge"><title>Node2&#45;&gt;Node19</title>
<path fill="none" stroke="midnightblue" d="M237.267,-231.431C249.252,-270.796 277.987,-347.116 330,-388.5 337.963,-394.835 347.503,-399.499 357.277,-402.932"/>
<polygon fill="midnightblue" stroke="midnightblue" points="240.556,-230.206 234.388,-221.591 233.837,-232.172 240.556,-230.206"/>
</g>
<!-- Node20 -->
<g id="node20" class="node"><title>Node20</title>
<g id="a_node20"><a xlink:href="classscram_1_1mef_1_1Switch.xhtml#aece696754288dcbdbcda71355da80a19" target="_top" xlink:title="scram::mef::Switch\l::interval">
<polygon fill="white" stroke="black" points="362.5,-147.5 362.5,-177.5 470.5,-177.5 470.5,-147.5 362.5,-147.5"/>
<text text-anchor="start" x="370.5" y="-165.5" font-family="Helvetica,sans-Serif" font-size="10.00">scram::mef::Switch</text>
<text text-anchor="middle" x="416.5" y="-154.5" font-family="Helvetica,sans-Serif" font-size="10.00">::interval</text>
</a>
</g>
</g>
<!-- Node2&#45;&gt;Node20 -->
<g id="edge34" class="edge"><title>Node2&#45;&gt;Node20</title>
<path fill="none" stroke="midnightblue" d="M303.504,-189.137C323.192,-184.454 344.114,-179.478 362.481,-175.11"/>
<polygon fill="midnightblue" stroke="midnightblue" points="302.568,-185.762 293.649,-191.481 304.188,-192.572 302.568,-185.762"/>
</g>
<!-- Node21 -->
<g id="node21" class="node"><title>Node21</title>
<g id="a_node21"><a xlink:href="classscram_1_1mef_1_1LognormalDeviate.xhtml#a18f3499d5d98d1af462db56d07069997" target="_top" xlink:title="scram::mef::LognormalDeviate\l::value">
<polygon fill="white" stroke="black" points="334,-98.5 334,-128.5 499,-128.5 499,-98.5 334,-98.5"/>
<text text-anchor="start" x="342" y="-116.5" font-family="Helvetica,sans-Serif" font-size="10.00">scram::mef::LognormalDeviate</text>
<text text-anchor="middle" x="416.5" y="-105.5" font-family="Helvetica,sans-Serif" font-size="10.00">::value</text>
</a>
</g>
</g>
<!-- Node2&#45;&gt;Node21 -->
<g id="edge35" class="edge"><title>Node2&#45;&gt;Node21</title>
<path fill="none" stroke="midnightblue" d="M256.414,-184.918C275.676,-169.807 303.161,-150.135 330,-137.5 337.114,-134.151 344.787,-131.184 352.514,-128.579"/>
<polygon fill="midnightblue" stroke="midnightblue" points="254.064,-182.316 248.431,-191.29 258.431,-187.787 254.064,-182.316"/>
</g>
<!-- Node22 -->
<g id="node22" class="node"><title>Node22</title>
<g id="a_node22"><a xlink:href="classscram_1_1mef_1_1GammaDeviate.xhtml#aac9dd9e446203c28033a32385a68570c" target="_top" xlink:title="scram::mef::GammaDeviate\l::value">
<polygon fill="white" stroke="black" points="340,-49.5 340,-79.5 493,-79.5 493,-49.5 340,-49.5"/>
<text text-anchor="start" x="348" y="-67.5" font-family="Helvetica,sans-Serif" font-size="10.00">scram::mef::GammaDeviate</text>
<text text-anchor="middle" x="416.5" y="-56.5" font-family="Helvetica,sans-Serif" font-size="10.00">::value</text>
</a>
</g>
</g>
<!-- Node2&#45;&gt;Node22 -->
<g id="edge36" class="edge"><title>Node2&#45;&gt;Node22</title>
<path fill="none" stroke="midnightblue" d="M244.488,-182.547C261.391,-155.7 292.309,-112.763 330,-88.5 335.315,-85.0785 341.121,-82.1374 347.124,-79.6104"/>
<polygon fill="midnightblue" stroke="midnightblue" points="241.354,-180.962 239.106,-191.315 247.32,-184.624 241.354,-180.962"/>
</g>
<!-- Node23 -->
<g id="node23" class="node"><title>Node23</title>
<g id="a_node23"><a xlink:href="classscram_1_1mef_1_1BetaDeviate.xhtml#a23cf22ef291bb47601ddefd7640fe93a" target="_top" xlink:title="scram::mef::BetaDeviate\l::value">
<polygon fill="white" stroke="black" points="348,-0.5 348,-30.5 485,-30.5 485,-0.5 348,-0.5"/>
<text text-anchor="start" x="356" y="-18.5" font-family="Helvetica,sans-Serif" font-size="10.00">scram::mef::BetaDeviate</text>
<text text-anchor="middle" x="416.5" y="-7.5" font-family="Helvetica,sans-Serif" font-size="10.00">::value</text>
</a>
</g>
</g>
<!-- Node2&#45;&gt;Node23 -->
<g id="edge37" class="edge"><title>Node2&#45;&gt;Node23</title>
<path fill="none" stroke="midnightblue" d="M238.602,-181.535C251.804,-144.836 281.47,-76.6661 330,-39.5 335.386,-35.3754 341.446,-31.9596 347.789,-29.1309"/>
<polygon fill="midnightblue" stroke="midnightblue" points="235.143,-180.828 235.172,-191.423 241.756,-183.122 235.143,-180.828"/>
</g>
<!-- Node4&#45;&gt;Node3 -->
<g id="edge5" class="edge"><title>Node4&#45;&gt;Node3</title>
<path fill="none" stroke="midnightblue" d="M458.569,-275.673C473.415,-281.582 489.765,-289.506 503,-299.5 523.164,-314.726 518.082,-329.328 539,-343.5 544.04,-346.915 549.593,-349.865 555.333,-352.409"/>
<polygon fill="midnightblue" stroke="midnightblue" points="459.669,-272.348 449.078,-272.08 457.191,-278.894 459.669,-272.348"/>
</g>
<!-- Node4&#45;&gt;Node4 -->
<g id="edge6" class="edge"><title>Node4&#45;&gt;Node4</title>
<path fill="none" stroke="midnightblue" d="M381.643,-280.391C382.153,-286.041 393.772,-290.5 416.5,-290.5 449.559,-290.5 459.115,-281.065 445.168,-272.257"/>
<polygon fill="midnightblue" stroke="midnightblue" points="384.562,-282.335 387.832,-272.257 378.991,-278.096 384.562,-282.335"/>
</g>
<!-- Node5 -->
<g id="node5" class="node"><title>Node5</title>
<g id="a_node5"><a xlink:href="classscram_1_1mef_1_1Mean.xhtml#ab75b082938d5f6ed2b7bd2d45c3c850b" target="_top" xlink:title="Computes the expression value with a given argument value extractor. ">
<polygon fill="white" stroke="black" points="539,-402 539,-421 693,-421 693,-402 539,-402"/>
<text text-anchor="middle" x="616" y="-409" font-family="Helvetica,sans-Serif" font-size="10.00">scram::mef::Mean::Compute</text>
</a>
</g>
</g>
<!-- Node4&#45;&gt;Node5 -->
<g id="edge4" class="edge"><title>Node4&#45;&gt;Node5</title>
<path fill="none" stroke="midnightblue" d="M465.945,-275.738C479.309,-281.298 492.896,-288.993 503,-299.5 533.722,-331.447 505.773,-363.168 539,-392.5 543.384,-396.37 548.44,-399.477 553.818,-401.966"/>
<polygon fill="midnightblue" stroke="midnightblue" points="466.896,-272.355 456.305,-272.057 464.398,-278.894 466.896,-272.355"/>
</g>
<!-- Node6 -->
<g id="node6" class="node"><title>Node6</title>
<g id="a_node6"><a xlink:href="classscram_1_1mef_1_1PeriodicTest.xhtml#a546bf1c23ba3926f124de31d7b08b4c3" target="_top" xlink:title="Fully parametrized periodic&#45;test description. ">
<polygon fill="white" stroke="black" points="549,-254.5 549,-284.5 683,-284.5 683,-254.5 549,-254.5"/>
<text text-anchor="start" x="557" y="-272.5" font-family="Helvetica,sans-Serif" font-size="10.00">scram::mef::PeriodicTest</text>
<text text-anchor="middle" x="616" y="-261.5" font-family="Helvetica,sans-Serif" font-size="10.00">::PeriodicTest</text>
</a>
</g>
</g>
<!-- Node4&#45;&gt;Node6 -->
<g id="edge7" class="edge"><title>Node4&#45;&gt;Node6</title>
<path fill="none" stroke="midnightblue" d="M513.352,-265.897C525.396,-266.324 537.497,-266.753 548.939,-267.159"/>
<polygon fill="midnightblue" stroke="midnightblue" points="513.382,-262.396 503.265,-265.54 513.134,-269.392 513.382,-262.396"/>
</g>
<!-- Node7 -->
<g id="node7" class="node"><title>Node7</title>
<g id="a_node7"><a xlink:href="classscram_1_1mef_1_1Exponential.xhtml#a93569be7f366dce3dd25dcbb083ca774" target="_top" xlink:title="scram::mef::Exponential\l::Validate">
<polygon fill="white" stroke="black" points="549.5,-166.5 549.5,-196.5 682.5,-196.5 682.5,-166.5 549.5,-166.5"/>
<text text-anchor="start" x="557.5" y="-184.5" font-family="Helvetica,sans-Serif" font-size="10.00">scram::mef::Exponential</text>
<text text-anchor="middle" x="616" y="-173.5" font-family="Helvetica,sans-Serif" font-size="10.00">::Validate</text>
</a>
</g>
</g>
<!-- Node4&#45;&gt;Node7 -->
<g id="edge8" class="edge"><title>Node4&#45;&gt;Node7</title>
<path fill="none" stroke="midnightblue" d="M490.411,-249.429C494.774,-247.693 499.008,-245.727 503,-243.5 523.037,-232.322 519.542,-218.657 539,-206.5 545.125,-202.673 551.898,-199.369 558.803,-196.534"/>
<polygon fill="midnightblue" stroke="midnightblue" points="488.952,-246.233 480.696,-252.872 491.29,-252.831 488.952,-246.233"/>
</g>
<!-- Node9 -->
<g id="node9" class="node"><title>Node9</title>
<g id="a_node9"><a xlink:href="classscram_1_1mef_1_1Glm.xhtml#a48b4b735418eee27d2c4b81b9e59be85" target="_top" xlink:title="Validates the expression. ">
<polygon fill="white" stroke="black" points="545.5,-216 545.5,-235 686.5,-235 686.5,-216 545.5,-216"/>
<text text-anchor="middle" x="616" y="-223" font-family="Helvetica,sans-Serif" font-size="10.00">scram::mef::Glm::Validate</text>
</a>
</g>
</g>
<!-- Node4&#45;&gt;Node9 -->
<g id="edge10" class="edge"><title>Node4&#45;&gt;Node9</title>
<path fill="none" stroke="midnightblue" d="M478.247,-251.119C505.702,-245.976 537.782,-239.966 563.968,-235.06"/>
<polygon fill="midnightblue" stroke="midnightblue" points="477.546,-247.69 468.361,-252.972 478.835,-254.57 477.546,-247.69"/>
</g>
<!-- Node10 -->
<g id="node10" class="node"><title>Node10</title>
<g id="a_node10"><a xlink:href="classscram_1_1mef_1_1Weibull.xhtml#ad36688cf28ab24dd909832cd05aad328" target="_top" xlink:title="Validates the expression. ">
<polygon fill="white" stroke="black" points="561,-303.5 561,-333.5 671,-333.5 671,-303.5 561,-303.5"/>
<text text-anchor="start" x="569" y="-321.5" font-family="Helvetica,sans-Serif" font-size="10.00">scram::mef::Weibull</text>
<text text-anchor="middle" x="616" y="-310.5" font-family="Helvetica,sans-Serif" font-size="10.00">::Validate</text>
</a>
</g>
</g>
<!-- Node4&#45;&gt;Node10 -->
<g id="edge11" class="edge"><title>Node4&#45;&gt;Node10</title>
<path fill="none" stroke="midnightblue" d="M461.119,-274.868C490.806,-283.286 530.276,-294.477 561.809,-303.418"/>
<polygon fill="midnightblue" stroke="midnightblue" points="462.027,-271.487 451.451,-272.127 460.117,-278.222 462.027,-271.487"/>
</g>
<!-- Node8 -->
<g id="node8" class="node"><title>Node8</title>
<g id="a_node8"><a xlink:href="classscram_1_1mef_1_1PeriodicTest.xhtml#a0aa8dc4d62e8fc24194f0183bc533638" target="_top" xlink:title="scram::mef::PeriodicTest\l::interval">
<polygon fill="white" stroke="black" points="729,-166.5 729,-196.5 863,-196.5 863,-166.5 729,-166.5"/>
<text text-anchor="start" x="737" y="-184.5" font-family="Helvetica,sans-Serif" font-size="10.00">scram::mef::PeriodicTest</text>
<text text-anchor="middle" x="796" y="-173.5" font-family="Helvetica,sans-Serif" font-size="10.00">::interval</text>
</a>
</g>
</g>
<!-- Node7&#45;&gt;Node8 -->
<g id="edge9" class="edge"><title>Node7&#45;&gt;Node8</title>
<path fill="none" stroke="midnightblue" d="M692.529,-181.5C704.56,-181.5 716.927,-181.5 728.723,-181.5"/>
<polygon fill="midnightblue" stroke="midnightblue" points="692.522,-178 682.522,-181.5 692.522,-185 692.522,-178"/>
</g>
<!-- Node11&#45;&gt;Node3 -->
<g id="edge14" class="edge"><title>Node11&#45;&gt;Node3</title>
<path fill="none" stroke="midnightblue" d="M465.925,-330.514C492.611,-337.135 525.988,-345.416 554.392,-352.463"/>
<polygon fill="midnightblue" stroke="midnightblue" points="466.597,-327.075 456.049,-328.064 464.912,-333.869 466.597,-327.075"/>
</g>
<!-- Node11&#45;&gt;Node5 -->
<g id="edge13" class="edge"><title>Node11&#45;&gt;Node5</title>
<path fill="none" stroke="midnightblue" d="M438.42,-333.966C461.83,-350.605 501.418,-376.787 539,-392.5 547.909,-396.225 557.722,-399.345 567.253,-401.91"/>
<polygon fill="midnightblue" stroke="midnightblue" points="440.437,-331.106 430.278,-328.098 436.344,-336.784 440.437,-331.106"/>
</g>
<!-- Node11&#45;&gt;Node6 -->
<g id="edge16" class="edge"><title>Node11&#45;&gt;Node6</title>
<path fill="none" stroke="midnightblue" d="M472.43,-306.66C482.611,-304.362 493.141,-301.915 503,-299.5 521.868,-294.879 542.425,-289.479 560.718,-284.544"/>
<polygon fill="midnightblue" stroke="midnightblue" points="471.397,-303.305 462.402,-308.903 472.925,-310.136 471.397,-303.305"/>
</g>
<!-- Node11&#45;&gt;Node9 -->
<g id="edge17" class="edge"><title>Node11&#45;&gt;Node9</title>
<path fill="none" stroke="midnightblue" d="M493.8,-304.888C497.004,-303.283 500.089,-301.494 503,-299.5 526.794,-283.196 515.525,-262.261 539,-245.5 545.107,-241.14 552.098,-237.73 559.311,-235.063"/>
<polygon fill="midnightblue" stroke="midnightblue" points="492.27,-301.736 484.499,-308.937 495.065,-308.154 492.27,-301.736"/>
</g>
<!-- Node11&#45;&gt;Node10 -->
<g id="edge18" class="edge"><title>Node11&#45;&gt;Node10</title>
<path fill="none" stroke="midnightblue" d="M500.473,-318.5C520.931,-318.5 542.317,-318.5 560.995,-318.5"/>
<polygon fill="midnightblue" stroke="midnightblue" points="500.2,-315 490.2,-318.5 500.2,-322 500.2,-315"/>
</g>
<!-- Node11&#45;&gt;Node11 -->
<g id="edge15" class="edge"><title>Node11&#45;&gt;Node11</title>
<path fill="none" stroke="midnightblue" d="M381.643,-336.391C382.153,-342.041 393.772,-346.5 416.5,-346.5 449.559,-346.5 459.115,-337.065 445.168,-328.257"/>
<polygon fill="midnightblue" stroke="midnightblue" points="384.562,-338.335 387.832,-328.257 378.991,-334.096 384.562,-338.335"/>
</g>
<!-- Node12&#45;&gt;Node3 -->
<g id="edge20" class="edge"><title>Node12&#45;&gt;Node3</title>
<path fill="none" stroke="midnightblue" d="M466.461,-219.737C479.714,-225.282 493.111,-232.969 503,-243.5 535.335,-277.935 504.943,-310.768 539,-343.5 542.591,-346.952 546.676,-349.907 551.043,-352.438"/>
<polygon fill="midnightblue" stroke="midnightblue" points="467.479,-216.379 456.888,-216.068 464.973,-222.915 467.479,-216.379"/>
</g>
<!-- Node12&#45;&gt;Node6 -->
<g id="edge22" class="edge"><title>Node12&#45;&gt;Node6</title>
<path fill="none" stroke="midnightblue" d="M457.368,-219.218C489.267,-229.393 534.078,-243.687 567.772,-254.435"/>
<polygon fill="midnightblue" stroke="midnightblue" points="458.087,-215.773 447.496,-216.068 455.959,-222.442 458.087,-215.773"/>
</g>
<!-- Node12&#45;&gt;Node9 -->
<g id="edge23" class="edge"><title>Node12&#45;&gt;Node9</title>
<path fill="none" stroke="midnightblue" d="M506.959,-215.106C519.838,-216.345 532.93,-217.605 545.347,-218.799"/>
<polygon fill="midnightblue" stroke="midnightblue" points="506.982,-211.592 496.693,-214.119 506.312,-218.56 506.982,-211.592"/>
</g>
<!-- Node12&#45;&gt;Node12 -->
<g id="edge21" class="edge"><title>Node12&#45;&gt;Node12</title>
<path fill="none" stroke="midnightblue" d="M381.643,-224.391C382.153,-230.041 393.772,-234.5 416.5,-234.5 449.559,-234.5 459.115,-225.065 445.168,-216.257"/>
<polygon fill="midnightblue" stroke="midnightblue" points="384.562,-226.335 387.832,-216.257 378.991,-222.096 384.562,-226.335"/>
</g>
<!-- Node13 -->
<g id="node13" class="node"><title>Node13</title>
<g id="a_node13"><a xlink:href="classscram_1_1mef_1_1BasicEvent.xhtml#acfc0e73e1add67aa2ace841350eb62cd" target="_top" xlink:title="Validates the probability expressions for the primary event. ">
<polygon fill="white" stroke="black" points="551,-68.5 551,-98.5 681,-98.5 681,-68.5 551,-68.5"/>
<text text-anchor="start" x="559" y="-86.5" font-family="Helvetica,sans-Serif" font-size="10.00">scram::mef::BasicEvent</text>
<text text-anchor="middle" x="616" y="-75.5" font-family="Helvetica,sans-Serif" font-size="10.00">::Validate</text>
</a>
</g>
</g>
<!-- Node12&#45;&gt;Node13 -->
<g id="edge24" class="edge"><title>Node12&#45;&gt;Node13</title>
<path fill="none" stroke="midnightblue" d="M494.233,-192.525C497.322,-190.742 500.264,-188.742 503,-186.5 532.844,-162.044 510.108,-133.074 539,-107.5 542.834,-104.107 547.147,-101.193 551.72,-98.6911"/>
<polygon fill="midnightblue" stroke="midnightblue" points="492.601,-189.427 485.19,-196.998 495.705,-195.702 492.601,-189.427"/>
</g>
<!-- Node18 -->
<g id="node18" class="node"><title>Node18</title>
<g id="a_node18"><a xlink:href="classscram_1_1mef_1_1CcfGroup.xhtml#a31cbe59ce89f295de7bb810d8b75990e" target="_top" xlink:title="Validates the setup for the CCF model and group. ">
<polygon fill="white" stroke="black" points="555,-117.5 555,-147.5 677,-147.5 677,-117.5 555,-117.5"/>
<text text-anchor="start" x="563" y="-135.5" font-family="Helvetica,sans-Serif" font-size="10.00">scram::mef::CcfGroup</text>
<text text-anchor="middle" x="616" y="-124.5" font-family="Helvetica,sans-Serif" font-size="10.00">::Validate</text>
</a>
</g>
</g>
<!-- Node12&#45;&gt;Node18 -->
<g id="edge29" class="edge"><title>Node12&#45;&gt;Node18</title>
<path fill="none" stroke="midnightblue" d="M484.837,-193.924C491.118,-191.812 497.269,-189.355 503,-186.5 521.641,-177.212 520.725,-166.491 539,-156.5 545.192,-153.115 551.933,-150.126 558.759,-147.51"/>
<polygon fill="midnightblue" stroke="midnightblue" points="483.441,-190.692 474.905,-196.968 485.491,-197.385 483.441,-190.692"/>
</g>
<!-- Node14 -->
<g id="node14" class="node"><title>Node14</title>
<g id="a_node14"><a xlink:href="classscram_1_1mef_1_1CcfGroup.xhtml#a06dd05cabcbeddf42090536f6a47a184" target="_top" xlink:title="scram::mef::CcfGroup\l::members">
<polygon fill="white" stroke="black" points="735,-68.5 735,-98.5 857,-98.5 857,-68.5 735,-68.5"/>
<text text-anchor="start" x="743" y="-86.5" font-family="Helvetica,sans-Serif" font-size="10.00">scram::mef::CcfGroup</text>
<text text-anchor="middle" x="796" y="-75.5" font-family="Helvetica,sans-Serif" font-size="10.00">::members</text>
</a>
</g>
</g>
<!-- Node13&#45;&gt;Node14 -->
<g id="edge25" class="edge"><title>Node13&#45;&gt;Node14</title>
<path fill="none" stroke="midnightblue" d="M691.428,-83.5C705.893,-83.5 720.886,-83.5 734.823,-83.5"/>
<polygon fill="midnightblue" stroke="midnightblue" points="691.011,-80.0001 681.011,-83.5 691.011,-87.0001 691.011,-80.0001"/>
</g>
<!-- Node15 -->
<g id="node15" class="node"><title>Node15</title>
<g id="a_node15"><a xlink:href="classscram_1_1mef_1_1Component.xhtml#a4fd4a9b195b92c8061149da20f5bd3f0" target="_top" xlink:title="Adds MEF constructs into this component container. ">
<polygon fill="white" stroke="black" points="907,-118 907,-137 1065,-137 1065,-118 907,-118"/>
<text text-anchor="middle" x="986" y="-125" font-family="Helvetica,sans-Serif" font-size="10.00">scram::mef::Component::Add</text>
</a>
</g>
</g>
<!-- Node14&#45;&gt;Node15 -->
<g id="edge26" class="edge"><title>Node14&#45;&gt;Node15</title>
<path fill="none" stroke="midnightblue" d="M866.914,-99.9756C877.658,-102.5 888.625,-105.073 899,-107.5 913.628,-110.922 929.659,-114.655 943.875,-117.959"/>
<polygon fill="midnightblue" stroke="midnightblue" points="867.667,-96.5574 857.132,-97.676 866.065,-103.372 867.667,-96.5574"/>
</g>
<!-- Node16 -->
<g id="node16" class="node"><title>Node16</title>
<g id="a_node16"><a xlink:href="classscram_1_1mef_1_1CcfGroup.xhtml#ab399c5ed0c1d7d0a316ac3b7244b7eb9" target="_top" xlink:title="Processes the given factors and members to create common cause failure probabilities and new events t...">
<polygon fill="white" stroke="black" points="925,-68.5 925,-98.5 1047,-98.5 1047,-68.5 925,-68.5"/>
<text text-anchor="start" x="933" y="-86.5" font-family="Helvetica,sans-Serif" font-size="10.00">scram::mef::CcfGroup</text>
<text text-anchor="middle" x="986" y="-75.5" font-family="Helvetica,sans-Serif" font-size="10.00">::ApplyModel</text>
</a>
</g>
</g>
<!-- Node14&#45;&gt;Node16 -->
<g id="edge27" class="edge"><title>Node14&#45;&gt;Node16</title>
<path fill="none" stroke="midnightblue" d="M867.097,-83.5C886.109,-83.5 906.519,-83.5 924.924,-83.5"/>
<polygon fill="midnightblue" stroke="midnightblue" points="867.001,-80.0001 857.001,-83.5 867.001,-87.0001 867.001,-80.0001"/>
</g>
<!-- Node17 -->
<g id="node17" class="node"><title>Node17</title>
<g id="a_node17"><a xlink:href="reporter_8cc.xhtml#a73f9569f4c2e2b6a3eac8d2c01b81943" target="_top" xlink:title="Describes all performed analyses deduced from settings. ">
<polygon fill="white" stroke="black" points="899,-19.5 899,-49.5 1073,-49.5 1073,-19.5 899,-19.5"/>
<text text-anchor="start" x="907" y="-37.5" font-family="Helvetica,sans-Serif" font-size="10.00">scram::ReportCalculatedQuantity</text>
<text text-anchor="middle" x="986" y="-26.5" font-family="Helvetica,sans-Serif" font-size="10.00">&lt; core::RiskAnalysis &gt;</text>
</a>
</g>
</g>
<!-- Node14&#45;&gt;Node17 -->
<g id="edge28" class="edge"><title>Node14&#45;&gt;Node17</title>
<path fill="none" stroke="midnightblue" d="M864.614,-65.8771C885.182,-60.5163 907.584,-54.6775 927.425,-49.5062"/>
<polygon fill="midnightblue" stroke="midnightblue" points="863.478,-62.5563 854.684,-68.4654 865.243,-69.33 863.478,-62.5563"/>
</g>
<!-- Node19&#45;&gt;Node3 -->
<g id="edge32" class="edge"><title>Node19&#45;&gt;Node3</title>
<path fill="none" stroke="midnightblue" d="M469.176,-400.726C493.609,-395.159 523.061,-388.448 549.081,-382.52"/>
<polygon fill="midnightblue" stroke="midnightblue" points="468.357,-397.322 459.385,-402.957 469.912,-404.148 468.357,-397.322"/>
</g>
<!-- Node19&#45;&gt;Node5 -->
<g id="edge31" class="edge"><title>Node19&#45;&gt;Node5</title>
<path fill="none" stroke="midnightblue" d="M496.144,-412.102C510.208,-412.031 524.84,-411.957 538.832,-411.886"/>
<polygon fill="midnightblue" stroke="midnightblue" points="496.004,-408.602 486.022,-412.153 496.039,-415.602 496.004,-408.602"/>
</g>
<!-- Node19&#45;&gt;Node19 -->
<g id="edge33" class="edge"><title>Node19&#45;&gt;Node19</title>
<path fill="none" stroke="midnightblue" d="M381.643,-430.391C382.153,-436.041 393.772,-440.5 416.5,-440.5 449.559,-440.5 459.115,-431.065 445.168,-422.257"/>
<polygon fill="midnightblue" stroke="midnightblue" points="384.562,-432.335 387.832,-422.257 378.991,-428.096 384.562,-432.335"/>
</g>
</g>
</svg>
