<?xml version="1.0" encoding="UTF-8" standalone="no"?>
<!DOCTYPE svg PUBLIC "-//W3C//DTD SVG 1.1//EN"
 "http://www.w3.org/Graphics/SVG/1.1/DTD/svg11.dtd">
<!-- Generated by graphviz version 2.38.0 (20140413.2041)
 -->
<!-- Title: scram::xml::Element::name Pages: 1 -->
<svg width="321pt" height="274pt"
 viewBox="0.00 0.00 321.00 274.00" xmlns="http://www.w3.org/2000/svg" xmlns:xlink="http://www.w3.org/1999/xlink">
<g id="graph0" class="graph" transform="scale(1 1) rotate(0) translate(4 270)">
<title>scram::xml::Element::name</title>
<polygon fill="white" stroke="none" points="-4,4 -4,-270 317,-270 317,4 -4,4"/>
<!-- Node1 -->
<g id="node1" class="node"><title>Node1</title>
<polygon fill="#bfbfbf" stroke="black" points="0,-120.5 0,-150.5 116,-150.5 116,-120.5 0,-120.5"/>
<text text-anchor="start" x="8" y="-138.5" font-family="Helvetica,sans-Serif" font-size="10.00">scram::xml::Element</text>
<text text-anchor="middle" x="58" y="-127.5" font-family="Helvetica,sans-Serif" font-size="10.00">::name</text>
</g>
<!-- Node2 -->
<g id="node2" class="node"><title>Node2</title>
<g id="a_node2"><a xlink:href="classscram_1_1xml_1_1Element.xhtml#aedf9baaf529830c6e7ed07b65b933ab5" target="_top" xlink:title="Generic attribute value extraction following XML data types. ">
<polygon fill="white" stroke="black" points="174.5,-235.5 174.5,-265.5 290.5,-265.5 290.5,-235.5 174.5,-235.5"/>
<text text-anchor="start" x="182.5" y="-253.5" font-family="Helvetica,sans-Serif" font-size="10.00">scram::xml::Element</text>
<text text-anchor="middle" x="232.5" y="-242.5" font-family="Helvetica,sans-Serif" font-size="10.00">::attribute</text>
</a>
</g>
</g>
<!-- Node1&#45;&gt;Node2 -->
<g id="edge1" class="edge"><title>Node1&#45;&gt;Node2</title>
<path fill="none" stroke="midnightblue" d="M77.0344,-158.622C94.2352,-179.201 121.919,-208.719 152,-226.5 158.95,-230.608 166.664,-234.068 174.475,-236.966"/>
<polygon fill="midnightblue" stroke="midnightblue" points="79.5812,-156.207 70.5429,-150.679 74.1611,-160.637 79.5812,-156.207"/>
</g>
<!-- Node3 -->
<g id="node3" class="node"><title>Node3</title>
<g id="a_node3"><a xlink:href="classscram_1_1xml_1_1Element.xhtml#accf1b8ff3d357b2ce4e885b7b28561ad" target="_top" xlink:title="scram::xml::Element\l::children">
<polygon fill="white" stroke="black" points="174.5,-186.5 174.5,-216.5 290.5,-216.5 290.5,-186.5 174.5,-186.5"/>
<text text-anchor="start" x="182.5" y="-204.5" font-family="Helvetica,sans-Serif" font-size="10.00">scram::xml::Element</text>
<text text-anchor="middle" x="232.5" y="-193.5" font-family="Helvetica,sans-Serif" font-size="10.00">::children</text>
</a>
</g>
</g>
<!-- Node1&#45;&gt;Node3 -->
<g id="edge2" class="edge"><title>Node1&#45;&gt;Node3</title>
<path fill="none" stroke="midnightblue" d="M100.033,-154.76C116.08,-161.982 134.744,-170.006 152,-176.5 161.208,-179.965 171.134,-183.354 180.746,-186.461"/>
<polygon fill="midnightblue" stroke="midnightblue" points="101.47,-151.568 90.9179,-150.618 98.574,-157.941 101.47,-151.568"/>
</g>
<!-- Node4 -->
<g id="node4" class="node"><title>Node4</title>
<g id="a_node4"><a xlink:href="classscram_1_1Config.xhtml#ab0d7940fbb627fab9867821e133eab5d" target="_top" xlink:title="A constructor with configurations for analysis. ">
<polygon fill="white" stroke="black" points="173,-148 173,-167 292,-167 292,-148 173,-148"/>
<text text-anchor="middle" x="232.5" y="-155" font-family="Helvetica,sans-Serif" font-size="10.00">scram::Config::Config</text>
</a>
</g>
</g>
<!-- Node1&#45;&gt;Node4 -->
<g id="edge3" class="edge"><title>Node1&#45;&gt;Node4</title>
<path fill="none" stroke="midnightblue" d="M126.378,-144.093C141.718,-146.05 157.895,-148.113 172.838,-150.018"/>
<polygon fill="midnightblue" stroke="midnightblue" points="126.802,-140.619 116.44,-142.826 125.917,-147.563 126.802,-140.619"/>
</g>
<!-- Node5 -->
<g id="node5" class="node"><title>Node5</title>
<g id="a_node5"><a xlink:href="classscram_1_1mef_1_1Initializer.xhtml#a969f088f20697a8a317cb7c998f034ad" target="_top" xlink:title="Specializations for elements defined after registration. ">
<polygon fill="white" stroke="black" points="173,-98.5 173,-128.5 292,-128.5 292,-98.5 173,-98.5"/>
<text text-anchor="start" x="181" y="-116.5" font-family="Helvetica,sans-Serif" font-size="10.00">scram::mef::Initializer</text>
<text text-anchor="middle" x="232.5" y="-105.5" font-family="Helvetica,sans-Serif" font-size="10.00">::Define</text>
</a>
</g>
</g>
<!-- Node1&#45;&gt;Node5 -->
<g id="edge4" class="edge"><title>Node1&#45;&gt;Node5</title>
<path fill="none" stroke="midnightblue" d="M126.378,-126.907C141.718,-124.95 157.895,-122.887 172.838,-120.982"/>
<polygon fill="midnightblue" stroke="midnightblue" points="125.917,-123.437 116.44,-128.174 126.802,-130.381 125.917,-123.437"/>
</g>
<!-- Node6 -->
<g id="node6" class="node"><title>Node6</title>
<g id="a_node6"><a xlink:href="structscram_1_1mef_1_1Initializer_1_1Extractor_3_01T_00-1_01_4.xhtml#aed4438ca816e65ced748e4bc1f67a631" target="_top" xlink:title="Constructs an expression with a variable number of arguments. ">
<polygon fill="white" stroke="black" points="152,-49.5 152,-79.5 313,-79.5 313,-49.5 152,-49.5"/>
<text text-anchor="start" x="160" y="-67.5" font-family="Helvetica,sans-Serif" font-size="10.00">scram::mef::Initializer</text>
<text text-anchor="middle" x="232.5" y="-56.5" font-family="Helvetica,sans-Serif" font-size="10.00">::Extractor&lt; T,&#45;1 &gt;::operator()</text>
</a>
</g>
</g>
<!-- Node1&#45;&gt;Node6 -->
<g id="edge5" class="edge"><title>Node1&#45;&gt;Node6</title>
<path fill="none" stroke="midnightblue" d="M95.5522,-115.786C112.453,-107.098 132.961,-97.1487 152,-89.5 160.727,-85.9942 170.147,-82.6569 179.346,-79.6287"/>
<polygon fill="midnightblue" stroke="midnightblue" points="93.8225,-112.74 86.5663,-120.46 97.053,-118.95 93.8225,-112.74"/>
</g>
<!-- Node7 -->
<g id="node7" class="node"><title>Node7</title>
<g id="a_node7"><a xlink:href="classscram_1_1mef_1_1Initializer.xhtml#a86055e4406a999be79a4d14e8a7ec4e3" target="_top" xlink:title="Specializations for element registrations. ">
<polygon fill="white" stroke="black" points="173,-0.5 173,-30.5 292,-30.5 292,-0.5 173,-0.5"/>
<text text-anchor="start" x="181" y="-18.5" font-family="Helvetica,sans-Serif" font-size="10.00">scram::mef::Initializer</text>
<text text-anchor="middle" x="232.5" y="-7.5" font-family="Helvetica,sans-Serif" font-size="10.00">::Register</text>
</a>
</g>
</g>
<!-- Node1&#45;&gt;Node7 -->
<g id="edge6" class="edge"><title>Node1&#45;&gt;Node7</title>
<path fill="none" stroke="midnightblue" d="M76.065,-112.427C93.0832,-90.9448 121.087,-59.4682 152,-40.5 158.413,-36.5652 165.5,-33.1975 172.724,-30.3287"/>
<polygon fill="midnightblue" stroke="midnightblue" points="73.245,-110.352 69.8874,-120.4 78.7787,-114.639 73.245,-110.352"/>
</g>
</g>
</svg>
