<?xml version="1.0" encoding="UTF-8" standalone="no"?>
<!DOCTYPE svg PUBLIC "-//W3C//DTD SVG 1.1//EN"
 "http://www.w3.org/Graphics/SVG/1.1/DTD/svg11.dtd">
<!-- Generated by graphviz version 2.38.0 (20140413.2041)
 -->
<!-- Title: scram::mef::Id::id Pages: 1 -->
<svg width="815pt" height="180pt"
 viewBox="0.00 0.00 815.00 179.52" xmlns="http://www.w3.org/2000/svg" xmlns:xlink="http://www.w3.org/1999/xlink">
<g id="graph0" class="graph" transform="scale(1 1) rotate(0) translate(4 175.522)">
<title>scram::mef::Id::id</title>
<polygon fill="white" stroke="none" points="-4,4 -4,-175.522 811,-175.522 811,4 -4,4"/>
<!-- Node1 -->
<g id="node1" class="node"><title>Node1</title>
<polygon fill="#bfbfbf" stroke="black" points="0,-68.5 0,-87.5 100,-87.5 100,-68.5 0,-68.5"/>
<text text-anchor="middle" x="50" y="-75.5" font-family="Helvetica,sans-Serif" font-size="10.00">scram::mef::Id::id</text>
</g>
<!-- Node2 -->
<g id="node2" class="node"><title>Node2</title>
<g id="a_node2"><a xlink:href="classscram_1_1mef_1_1Substitution.xhtml#a0a6da28d1514d7543d80e554e144df6f" target="_top" xlink:title="Adds a source event to the substitution container. ">
<polygon fill="white" stroke="black" points="143,-137.5 143,-156.5 303,-156.5 303,-137.5 143,-137.5"/>
<text text-anchor="middle" x="223" y="-144.5" font-family="Helvetica,sans-Serif" font-size="10.00">scram::mef::Substitution::Add</text>
</a>
</g>
</g>
<!-- Node1&#45;&gt;Node2 -->
<g id="edge1" class="edge"><title>Node1&#45;&gt;Node2</title>
<path fill="none" stroke="midnightblue" d="M72.5929,-93.2878C89.2168,-104.402 113.145,-119.015 136,-128 145.677,-131.804 156.28,-134.928 166.636,-137.465"/>
<polygon fill="midnightblue" stroke="midnightblue" points="74.3943,-90.2798 64.1621,-87.5315 70.4472,-96.0608 74.3943,-90.2798"/>
</g>
<!-- Node7 -->
<g id="node7" class="node"><title>Node7</title>
<g id="a_node7"><a xlink:href="classscram_1_1core_1_1EventTreeAnalysis.xhtml#a3e3404417cbdcf92474e5653ec24f936" target="_top" xlink:title="scram::core::EventTreeAnalysis\l::EventTreeAnalysis">
<polygon fill="white" stroke="black" points="140.5,-88 140.5,-118 305.5,-118 305.5,-88 140.5,-88"/>
<text text-anchor="start" x="148.5" y="-106" font-family="Helvetica,sans-Serif" font-size="10.00">scram::core::EventTreeAnalysis</text>
<text text-anchor="middle" x="223" y="-95" font-family="Helvetica,sans-Serif" font-size="10.00">::EventTreeAnalysis</text>
</a>
</g>
</g>
<!-- Node1&#45;&gt;Node7 -->
<g id="edge8" class="edge"><title>Node1&#45;&gt;Node7</title>
<path fill="none" stroke="midnightblue" d="M110.008,-86.627C119.814,-88.0605 130.135,-89.5694 140.381,-91.0675"/>
<polygon fill="midnightblue" stroke="midnightblue" points="110.403,-83.1475 100.002,-85.164 109.39,-90.0739 110.403,-83.1475"/>
</g>
<!-- Node8 -->
<g id="node8" class="node"><title>Node8</title>
<g id="a_node8"><a xlink:href="reporter_8cc.xhtml#a73f9569f4c2e2b6a3eac8d2c01b81943" target="_top" xlink:title="Describes all performed analyses deduced from settings. ">
<polygon fill="white" stroke="black" points="136,-39 136,-69 310,-69 310,-39 136,-39"/>
<text text-anchor="start" x="144" y="-57" font-family="Helvetica,sans-Serif" font-size="10.00">scram::ReportCalculatedQuantity</text>
<text text-anchor="middle" x="223" y="-46" font-family="Helvetica,sans-Serif" font-size="10.00">&lt; core::RiskAnalysis &gt;</text>
</a>
</g>
</g>
<!-- Node1&#45;&gt;Node8 -->
<g id="edge9" class="edge"><title>Node1&#45;&gt;Node8</title>
<path fill="none" stroke="midnightblue" d="M109.994,-69.7202C118.359,-68.5462 127.099,-67.3194 135.848,-66.0915"/>
<polygon fill="midnightblue" stroke="midnightblue" points="109.418,-66.2666 100.002,-71.1226 110.391,-73.1986 109.418,-66.2666"/>
</g>
<!-- Node9 -->
<g id="node9" class="node"><title>Node9</title>
<g id="a_node9"><a xlink:href="classscram_1_1mef_1_1Id.xhtml#a846997cebdf27bbff872fa87e7f1a9e2" target="_top" xlink:title="Produces unique name for the model element within the same type. ">
<polygon fill="white" stroke="black" points="144.5,-0.5 144.5,-19.5 301.5,-19.5 301.5,-0.5 144.5,-0.5"/>
<text text-anchor="middle" x="223" y="-7.5" font-family="Helvetica,sans-Serif" font-size="10.00">scram::mef::Id::unique_name</text>
</a>
</g>
</g>
<!-- Node1&#45;&gt;Node9 -->
<g id="edge10" class="edge"><title>Node1&#45;&gt;Node9</title>
<path fill="none" stroke="midnightblue" d="M73.6002,-62.8711C90.2397,-52.3322 113.747,-38.6638 136,-30 146.713,-25.8289 158.531,-22.3852 169.886,-19.6006"/>
<polygon fill="midnightblue" stroke="midnightblue" points="71.6152,-59.9866 65.1143,-68.3525 75.4134,-65.8666 71.6152,-59.9866"/>
</g>
<!-- Node3 -->
<g id="node3" class="node"><title>Node3</title>
<g id="a_node3"><a xlink:href="classscram_1_1mef_1_1Initializer.xhtml#a969f088f20697a8a317cb7c998f034ad" target="_top" xlink:title="Specializations for elements defined after registration. ">
<polygon fill="white" stroke="black" points="688,-119 688,-149 807,-149 807,-119 688,-119"/>
<text text-anchor="start" x="696" y="-137" font-family="Helvetica,sans-Serif" font-size="10.00">scram::mef::Initializer</text>
<text text-anchor="middle" x="747.5" y="-126" font-family="Helvetica,sans-Serif" font-size="10.00">::Define</text>
</a>
</g>
</g>
<!-- Node2&#45;&gt;Node3 -->
<g id="edge2" class="edge"><title>Node2&#45;&gt;Node3</title>
<path fill="none" stroke="midnightblue" d="M299.837,-157.782C385.736,-168.115 529.677,-179.741 652,-162 669.781,-159.421 688.873,-154.247 705.21,-149.041"/>
<polygon fill="midnightblue" stroke="midnightblue" points="300.007,-154.276 289.655,-156.53 299.153,-161.224 300.007,-154.276"/>
</g>
<!-- Node4 -->
<g id="node4" class="node"><title>Node4</title>
<g id="a_node4"><a xlink:href="classscram_1_1mef_1_1Substitution.xhtml#ad29f35247718d44ff8d6f9bd9bd41d9f" target="_top" xlink:title="scram::mef::Substitution\l::declarative">
<polygon fill="white" stroke="black" points="346,-98 346,-128 481,-128 481,-98 346,-98"/>
<text text-anchor="start" x="354" y="-116" font-family="Helvetica,sans-Serif" font-size="10.00">scram::mef::Substitution</text>
<text text-anchor="middle" x="413.5" y="-105" font-family="Helvetica,sans-Serif" font-size="10.00">::declarative</text>
</a>
</g>
</g>
<!-- Node2&#45;&gt;Node4 -->
<g id="edge3" class="edge"><title>Node2&#45;&gt;Node4</title>
<path fill="none" stroke="midnightblue" d="M286.793,-135.674C305.79,-132.247 326.712,-128.474 345.946,-125.004"/>
<polygon fill="midnightblue" stroke="midnightblue" points="285.978,-132.264 276.758,-137.484 287.221,-139.153 285.978,-132.264"/>
</g>
<!-- Node5 -->
<g id="node5" class="node"><title>Node5</title>
<g id="a_node5"><a xlink:href="classscram_1_1core_1_1Pdag.xhtml#a56889d42789fd85e8083e02cf15aef28" target="_top" xlink:title="Specialization for BasicEvent arguments. ">
<polygon fill="white" stroke="black" points="529.5,-122 529.5,-152 639.5,-152 639.5,-122 529.5,-122"/>
<text text-anchor="start" x="537.5" y="-140" font-family="Helvetica,sans-Serif" font-size="10.00">scram::core::Pdag::</text>
<text text-anchor="middle" x="584.5" y="-129" font-family="Helvetica,sans-Serif" font-size="10.00">AddArg</text>
</a>
</g>
</g>
<!-- Node4&#45;&gt;Node5 -->
<g id="edge4" class="edge"><title>Node4&#45;&gt;Node5</title>
<path fill="none" stroke="midnightblue" d="M491.489,-123.933C504.292,-125.752 517.328,-127.603 529.406,-129.318"/>
<polygon fill="midnightblue" stroke="midnightblue" points="491.686,-120.426 481.293,-122.485 490.702,-127.357 491.686,-120.426"/>
</g>
<!-- Node6 -->
<g id="node6" class="node"><title>Node6</title>
<g id="a_node6"><a xlink:href="classscram_1_1mef_1_1Substitution.xhtml#ab1859efddac529e0827537fae2f16cbb" target="_top" xlink:title="Checks if the substitution is setup correctly. ">
<polygon fill="white" stroke="black" points="517,-73 517,-103 652,-103 652,-73 517,-73"/>
<text text-anchor="start" x="525" y="-91" font-family="Helvetica,sans-Serif" font-size="10.00">scram::mef::Substitution</text>
<text text-anchor="middle" x="584.5" y="-80" font-family="Helvetica,sans-Serif" font-size="10.00">::Validate</text>
</a>
</g>
</g>
<!-- Node4&#45;&gt;Node6 -->
<g id="edge5" class="edge"><title>Node4&#45;&gt;Node6</title>
<path fill="none" stroke="midnightblue" d="M482.822,-96.2544C494.033,-94.4401 505.64,-92.7311 516.811,-91.2503"/>
<polygon fill="midnightblue" stroke="midnightblue" points="481.949,-92.8514 472.66,-97.9468 483.099,-99.7563 481.949,-92.8514"/>
</g>
<!-- Node6&#45;&gt;Node3 -->
<g id="edge6" class="edge"><title>Node6&#45;&gt;Node3</title>
<path fill="none" stroke="midnightblue" d="M648.035,-105.867C663.209,-110.202 679.28,-114.794 693.939,-118.983"/>
<polygon fill="midnightblue" stroke="midnightblue" points="648.794,-102.444 638.217,-103.062 646.871,-109.175 648.794,-102.444"/>
</g>
<!-- Node6&#45;&gt;Node4 -->
<g id="edge7" class="edge"><title>Node6&#45;&gt;Node4</title>
<path fill="none" stroke="midnightblue" d="M515.243,-104.735C504.047,-106.548 492.454,-108.255 481.293,-109.736"/>
<polygon fill="midnightblue" stroke="midnightblue" points="516.103,-108.14 525.392,-103.044 514.952,-101.235 516.103,-108.14"/>
</g>
</g>
</svg>
