<?xml version="1.0" encoding="UTF-8" standalone="no"?>
<!DOCTYPE svg PUBLIC "-//W3C//DTD SVG 1.1//EN"
 "http://www.w3.org/Graphics/SVG/1.1/DTD/svg11.dtd">
<!-- Generated by graphviz version 2.38.0 (20140413.2041)
 -->
<!-- Title: scram::mef::Substitution::declarative Pages: 1 -->
<svg width="469pt" height="88pt"
 viewBox="0.00 0.00 469.00 88.00" xmlns="http://www.w3.org/2000/svg" xmlns:xlink="http://www.w3.org/1999/xlink">
<g id="graph0" class="graph" transform="scale(1 1) rotate(0) translate(4 84)">
<title>scram::mef::Substitution::declarative</title>
<polygon fill="white" stroke="none" points="-4,4 -4,-84 465,-84 465,4 -4,4"/>
<!-- Node1 -->
<g id="node1" class="node"><title>Node1</title>
<polygon fill="#bfbfbf" stroke="black" points="0,-0.5 0,-30.5 135,-30.5 135,-0.5 0,-0.5"/>
<text text-anchor="start" x="8" y="-18.5" font-family="Helvetica,sans-Serif" font-size="10.00">scram::mef::Substitution</text>
<text text-anchor="middle" x="67.5" y="-7.5" font-family="Helvetica,sans-Serif" font-size="10.00">::declarative</text>
</g>
<!-- Node2 -->
<g id="node2" class="node"><title>Node2</title>
<g id="a_node2"><a xlink:href="classscram_1_1core_1_1Pdag.xhtml#a56889d42789fd85e8083e02cf15aef28" target="_top" xlink:title="Specialization for BasicEvent arguments. ">
<polygon fill="white" stroke="black" points="183.5,-49.5 183.5,-79.5 293.5,-79.5 293.5,-49.5 183.5,-49.5"/>
<text text-anchor="start" x="191.5" y="-67.5" font-family="Helvetica,sans-Serif" font-size="10.00">scram::core::Pdag::</text>
<text text-anchor="middle" x="238.5" y="-56.5" font-family="Helvetica,sans-Serif" font-size="10.00">AddArg</text>
</a>
</g>
</g>
<!-- Node1&#45;&gt;Node2 -->
<g id="edge1" class="edge"><title>Node1&#45;&gt;Node2</title>
<path fill="none" stroke="midnightblue" d="M130.216,-33.3941C148.394,-38.6644 168.091,-44.3755 185.587,-49.4484"/>
<polygon fill="midnightblue" stroke="midnightblue" points="131.164,-30.0247 120.585,-30.6014 129.214,-36.7478 131.164,-30.0247"/>
</g>
<!-- Node3 -->
<g id="node3" class="node"><title>Node3</title>
<g id="a_node3"><a xlink:href="classscram_1_1mef_1_1Substitution.xhtml#ab1859efddac529e0827537fae2f16cbb" target="_top" xlink:title="Checks if the substitution is setup correctly. ">
<polygon fill="white" stroke="black" points="171,-0.5 171,-30.5 306,-30.5 306,-0.5 171,-0.5"/>
<text text-anchor="start" x="179" y="-18.5" font-family="Helvetica,sans-Serif" font-size="10.00">scram::mef::Substitution</text>
<text text-anchor="middle" x="238.5" y="-7.5" font-family="Helvetica,sans-Serif" font-size="10.00">::Validate</text>
</a>
</g>
</g>
<!-- Node1&#45;&gt;Node3 -->
<g id="edge2" class="edge"><title>Node1&#45;&gt;Node3</title>
<path fill="none" stroke="midnightblue" d="M145.551,-8.77337C154.019,-8.72011 162.589,-8.75788 170.915,-8.88669"/>
<polygon fill="midnightblue" stroke="midnightblue" points="145.255,-5.27624 135.293,-8.88348 145.33,-12.2758 145.255,-5.27624"/>
</g>
<!-- Node3&#45;&gt;Node1 -->
<g id="edge4" class="edge"><title>Node3&#45;&gt;Node1</title>
<path fill="none" stroke="midnightblue" d="M160.661,-22.2253C152.194,-22.2801 143.624,-22.2438 135.293,-22.1165"/>
<polygon fill="midnightblue" stroke="midnightblue" points="160.954,-25.7224 170.915,-22.1133 160.878,-18.7228 160.954,-25.7224"/>
</g>
<!-- Node4 -->
<g id="node4" class="node"><title>Node4</title>
<g id="a_node4"><a xlink:href="classscram_1_1mef_1_1Initializer.xhtml#a969f088f20697a8a317cb7c998f034ad" target="_top" xlink:title="Specializations for elements defined after registration. ">
<polygon fill="white" stroke="black" points="342,-0.5 342,-30.5 461,-30.5 461,-0.5 342,-0.5"/>
<text text-anchor="start" x="350" y="-18.5" font-family="Helvetica,sans-Serif" font-size="10.00">scram::mef::Initializer</text>
<text text-anchor="middle" x="401.5" y="-7.5" font-family="Helvetica,sans-Serif" font-size="10.00">::Define</text>
</a>
</g>
</g>
<!-- Node3&#45;&gt;Node4 -->
<g id="edge3" class="edge"><title>Node3&#45;&gt;Node4</title>
<path fill="none" stroke="midnightblue" d="M316.644,-15.5C325.099,-15.5 333.604,-15.5 341.785,-15.5"/>
<polygon fill="midnightblue" stroke="midnightblue" points="316.38,-12.0001 306.38,-15.5 316.38,-19.0001 316.38,-12.0001"/>
</g>
</g>
</svg>
