<?xml version="1.0" encoding="UTF-8" standalone="no"?>
<!DOCTYPE svg PUBLIC "-//W3C//DTD SVG 1.1//EN"
 "http://www.w3.org/Graphics/SVG/1.1/DTD/svg11.dtd">
<!-- Generated by graphviz version 2.38.0 (20140413.2041)
 -->
<!-- Title: scram::mef::HouseEvent::state Pages: 1 -->
<svg width="727pt" height="194pt"
 viewBox="0.00 0.00 727.00 193.50" xmlns="http://www.w3.org/2000/svg" xmlns:xlink="http://www.w3.org/1999/xlink">
<g id="graph0" class="graph" transform="scale(1 1) rotate(0) translate(4 189.5)">
<title>scram::mef::HouseEvent::state</title>
<polygon fill="white" stroke="none" points="-4,4 -4,-189.5 723,-189.5 723,4 -4,4"/>
<!-- Node1 -->
<g id="node1" class="node"><title>Node1</title>
<polygon fill="#bfbfbf" stroke="black" points="0,-81 0,-111 135,-111 135,-81 0,-81"/>
<text text-anchor="start" x="8" y="-99" font-family="Helvetica,sans-Serif" font-size="10.00">scram::mef::HouseEvent</text>
<text text-anchor="middle" x="67.5" y="-88" font-family="Helvetica,sans-Serif" font-size="10.00">::state</text>
</g>
<!-- Node2 -->
<g id="node2" class="node"><title>Node2</title>
<g id="a_node2"><a xlink:href="classscram_1_1core_1_1Pdag.xhtml#a211c8fff58a63dcbd4b56f107eb0024d" target="_top" xlink:title="Specialization for HouseEvent arguments. ">
<polygon fill="white" stroke="black" points="198.5,-155 198.5,-185 308.5,-185 308.5,-155 198.5,-155"/>
<text text-anchor="start" x="206.5" y="-173" font-family="Helvetica,sans-Serif" font-size="10.00">scram::core::Pdag::</text>
<text text-anchor="middle" x="253.5" y="-162" font-family="Helvetica,sans-Serif" font-size="10.00">AddArg</text>
</a>
</g>
</g>
<!-- Node1&#45;&gt;Node2 -->
<g id="edge1" class="edge"><title>Node1&#45;&gt;Node2</title>
<path fill="none" stroke="midnightblue" d="M105.234,-115.777C124.476,-125.657 148.633,-137.322 171,-146 179.663,-149.361 188.998,-152.522 198.15,-155.377"/>
<polygon fill="midnightblue" stroke="midnightblue" points="106.7,-112.594 96.2128,-111.091 103.474,-118.807 106.7,-112.594"/>
</g>
<!-- Node3 -->
<g id="node3" class="node"><title>Node3</title>
<g id="a_node3"><a xlink:href="classscram_1_1core_1_1RiskAnalysis.xhtml#a7aed757ac5a7a96878c2706a7a9710bb" target="_top" xlink:title="Analyzes the model and performs computations specified in the settings. ">
<polygon fill="white" stroke="black" points="185,-106 185,-136 322,-136 322,-106 185,-106"/>
<text text-anchor="start" x="193" y="-124" font-family="Helvetica,sans-Serif" font-size="10.00">scram::core::RiskAnalysis</text>
<text text-anchor="middle" x="253.5" y="-113" font-family="Helvetica,sans-Serif" font-size="10.00">::Analyze</text>
</a>
</g>
</g>
<!-- Node1&#45;&gt;Node3 -->
<g id="edge2" class="edge"><title>Node1&#45;&gt;Node3</title>
<path fill="none" stroke="midnightblue" d="M145.149,-106.414C158.309,-108.202 171.9,-110.049 184.803,-111.802"/>
<polygon fill="midnightblue" stroke="midnightblue" points="145.569,-102.939 135.188,-105.061 144.626,-109.875 145.569,-102.939"/>
</g>
<!-- Node6 -->
<g id="node6" class="node"><title>Node6</title>
<g id="a_node6"><a xlink:href="classscram_1_1core_1_1EventTreeAnalysis.xhtml#a3e3404417cbdcf92474e5653ec24f936" target="_top" xlink:title="scram::core::EventTreeAnalysis\l::EventTreeAnalysis">
<polygon fill="white" stroke="black" points="171,-57 171,-87 336,-87 336,-57 171,-57"/>
<text text-anchor="start" x="179" y="-75" font-family="Helvetica,sans-Serif" font-size="10.00">scram::core::EventTreeAnalysis</text>
<text text-anchor="middle" x="253.5" y="-64" font-family="Helvetica,sans-Serif" font-size="10.00">::EventTreeAnalysis</text>
</a>
</g>
</g>
<!-- Node1&#45;&gt;Node6 -->
<g id="edge5" class="edge"><title>Node1&#45;&gt;Node6</title>
<path fill="none" stroke="midnightblue" d="M145.115,-86.0068C153.657,-84.8926 162.382,-83.7546 170.982,-82.6327"/>
<polygon fill="midnightblue" stroke="midnightblue" points="144.652,-82.5374 135.188,-87.3015 145.557,-89.4786 144.652,-82.5374"/>
</g>
<!-- Node7 -->
<g id="node7" class="node"><title>Node7</title>
<g id="a_node7"><a xlink:href="serialization_8cc.xhtml#a83f7058a5caad9ec3ffb5fd6c7d7b8f6" target="_top" xlink:title="Convenience function for serialization into a file. ">
<polygon fill="white" stroke="black" points="194.5,-0.5 194.5,-19.5 312.5,-19.5 312.5,-0.5 194.5,-0.5"/>
<text text-anchor="middle" x="253.5" y="-7.5" font-family="Helvetica,sans-Serif" font-size="10.00">scram::mef::Serialize</text>
</a>
</g>
</g>
<!-- Node1&#45;&gt;Node7 -->
<g id="edge6" class="edge"><title>Node1&#45;&gt;Node7</title>
<path fill="none" stroke="midnightblue" d="M109.926,-76.5815C128.586,-67.8393 150.898,-57.3934 171,-48 191.791,-38.2847 215.578,-27.1972 232.064,-19.5168"/>
<polygon fill="midnightblue" stroke="midnightblue" points="108.379,-73.441 100.809,-80.8533 111.349,-79.7797 108.379,-73.441"/>
</g>
<!-- Node4 -->
<g id="node4" class="node"><title>Node4</title>
<g id="a_node4"><a xlink:href="classscram_1_1core_1_1RiskAnalysis.xhtml#a337f7e9fe02b1581e872590d6f7baa01" target="_top" xlink:title="scram::core::RiskAnalysis\l::model">
<polygon fill="white" stroke="black" points="372,-106 372,-136 509,-136 509,-106 372,-106"/>
<text text-anchor="start" x="380" y="-124" font-family="Helvetica,sans-Serif" font-size="10.00">scram::core::RiskAnalysis</text>
<text text-anchor="middle" x="440.5" y="-113" font-family="Helvetica,sans-Serif" font-size="10.00">::model</text>
</a>
</g>
</g>
<!-- Node3&#45;&gt;Node4 -->
<g id="edge3" class="edge"><title>Node3&#45;&gt;Node4</title>
<path fill="none" stroke="midnightblue" d="M332.456,-121C345.533,-121 359.008,-121 371.799,-121"/>
<polygon fill="midnightblue" stroke="midnightblue" points="332.075,-117.5 322.075,-121 332.075,-124.5 332.075,-117.5"/>
</g>
<!-- Node5 -->
<g id="node5" class="node"><title>Node5</title>
<g id="a_node5"><a xlink:href="reporter_8cc.xhtml#a73f9569f4c2e2b6a3eac8d2c01b81943" target="_top" xlink:title="Describes all performed analyses deduced from settings. ">
<polygon fill="white" stroke="black" points="545,-106 545,-136 719,-136 719,-106 545,-106"/>
<text text-anchor="start" x="553" y="-124" font-family="Helvetica,sans-Serif" font-size="10.00">scram::ReportCalculatedQuantity</text>
<text text-anchor="middle" x="632" y="-113" font-family="Helvetica,sans-Serif" font-size="10.00">&lt; core::RiskAnalysis &gt;</text>
</a>
</g>
</g>
<!-- Node4&#45;&gt;Node5 -->
<g id="edge4" class="edge"><title>Node4&#45;&gt;Node5</title>
<path fill="none" stroke="midnightblue" d="M519.288,-121C527.722,-121 536.341,-121 544.866,-121"/>
<polygon fill="midnightblue" stroke="midnightblue" points="519.111,-117.5 509.111,-121 519.111,-124.5 519.111,-117.5"/>
</g>
<!-- Node7&#45;&gt;Node7 -->
<g id="edge7" class="edge"><title>Node7&#45;&gt;Node7</title>
<path fill="none" stroke="midnightblue" d="M218.643,-27.8913C219.153,-33.5406 230.772,-38 253.5,-38 286.559,-38 296.115,-28.5653 282.168,-19.7571"/>
<polygon fill="midnightblue" stroke="midnightblue" points="221.562,-29.8346 224.832,-19.7571 215.991,-25.5958 221.562,-29.8346"/>
</g>
</g>
</svg>
