<?xml version="1.0" encoding="UTF-8" standalone="no"?>
<!DOCTYPE svg PUBLIC "-//W3C//DTD SVG 1.1//EN"
 "http://www.w3.org/Graphics/SVG/1.1/DTD/svg11.dtd">
<!-- Generated by graphviz version 2.38.0 (20140413.2041)
 -->
<!-- Title: scram::mef::NodeMark Pages: 1 -->
<!--zoomable 248 -->
<svg id="main" version="1.1" xmlns="http://www.w3.org/2000/svg" xmlns:xlink="http://www.w3.org/1999/xlink" xml:space="preserve" onload="init(evt)">
<style type="text/css"><![CDATA[
.edge:hover path { stroke: red; }
.edge:hover polygon { stroke: red; fill: red; }
]]></style>
<script type="text/javascript"><![CDATA[
var edges = document.getElementsByTagName('g');
if (edges && edges.length) {
  for (var i=0;i<edges.length;i++) {
    if (edges[i].id.substr(0,4)=='edge') {
      edges[i].setAttribute('class','edge');
    }
  }
}
]]></script>
        <defs>
                <circle id="rim" cx="0" cy="0" r="7"/>
                <circle id="rim2" cx="0" cy="0" r="3.5"/>
                <g id="zoomPlus">
                        <use xlink:href="#rim" fill="#404040">
                                <set attributeName="fill" to="#808080" begin="zoomplus.mouseover" end="zoomplus.mouseout"/>
                        </use>
                        <path d="M-4,0h8M0,-4v8" fill="none" stroke="white" stroke-width="1.5" pointer-events="none"/>
                </g>
                <g id="zoomMin">
                        <use xlink:href="#rim" fill="#404040">
                                <set attributeName="fill" to="#808080" begin="zoomminus.mouseover" end="zoomminus.mouseout"/>
                        </use>
                        <path d="M-4,0h8" fill="none" stroke="white" stroke-width="1.5" pointer-events="none"/>
                </g>
                <g id="dirArrow">
                        <path fill="none" stroke="white" stroke-width="1.5" d="M0,-3.0v7 M-2.5,-0.5L0,-3.0L2.5,-0.5"/>
                </g>
               <g id="resetDef">
                       <use xlink:href="#rim2" fill="#404040">
                               <set attributeName="fill" to="#808080" begin="reset.mouseover" end="reset.mouseout"/>
                       </use>
               </g>
        </defs>

<script type="text/javascript">
var viewWidth = 649;
var viewHeight = 248;
var sectionId = 'dynsection-0';
</script>
<script xlink:href="svgpan.js"/>
<svg id="graph" class="graph">
<g id="viewport">
<title>scram::mef::NodeMark</title>
<polygon fill="white" stroke="none" points="-4,4 -4,-244 645,-244 645,4 -4,4"/>
<!-- Node1 -->
<g id="node1" class="node"><title>Node1</title>
<polygon fill="#bfbfbf" stroke="black" points="243.5,-160.5 243.5,-239.5 369.5,-239.5 369.5,-160.5 243.5,-160.5"/>
<text text-anchor="middle" x="306.5" y="-227.5" font-family="Helvetica,sans-Serif" font-size="10.00">scram::mef::NodeMark</text>
<polyline fill="none" stroke="black" points="243.5,-220.5 369.5,-220.5 "/>
<text text-anchor="middle" x="306.5" y="-208.5" font-family="Helvetica,sans-Serif" font-size="10.00"> </text>
<polyline fill="none" stroke="black" points="243.5,-201.5 369.5,-201.5 "/>
<text text-anchor="start" x="251.5" y="-189.5" font-family="Helvetica,sans-Serif" font-size="10.00">+ mark()</text>
<text text-anchor="start" x="251.5" y="-178.5" font-family="Helvetica,sans-Serif" font-size="10.00">+ mark()</text>
<text text-anchor="start" x="251.5" y="-167.5" font-family="Helvetica,sans-Serif" font-size="10.00"># ~NodeMark()</text>
</g>
<!-- Node2 -->
<g id="node2" class="node"><title>Node2</title>
<g id="a_node2"><a xlink:href="classscram_1_1mef_1_1Gate.xhtml" target="_top" xlink:title="A representation of a gate in a fault tree. ">
<polygon fill="white" stroke="black" points="0,-0.5 0,-123.5 101,-123.5 101,-0.5 0,-0.5"/>
<text text-anchor="middle" x="50.5" y="-111.5" font-family="Helvetica,sans-Serif" font-size="10.00">scram::mef::Gate</text>
<polyline fill="none" stroke="black" points="0,-104.5 101,-104.5 "/>
<text text-anchor="middle" x="50.5" y="-92.5" font-family="Helvetica,sans-Serif" font-size="10.00"> </text>
<polyline fill="none" stroke="black" points="0,-85.5 101,-85.5 "/>
<text text-anchor="start" x="8" y="-73.5" font-family="Helvetica,sans-Serif" font-size="10.00">+ HasFormula()</text>
<text text-anchor="start" x="8" y="-62.5" font-family="Helvetica,sans-Serif" font-size="10.00">+ formula()</text>
<text text-anchor="start" x="8" y="-51.5" font-family="Helvetica,sans-Serif" font-size="10.00">+ Validate()</text>
<text text-anchor="start" x="8" y="-40.5" font-family="Helvetica,sans-Serif" font-size="10.00">+ formula()</text>
<text text-anchor="start" x="8" y="-29.5" font-family="Helvetica,sans-Serif" font-size="10.00">+ formula()</text>
<text text-anchor="start" x="8" y="-18.5" font-family="Helvetica,sans-Serif" font-size="10.00">* formula()</text>
<text text-anchor="start" x="8" y="-7.5" font-family="Helvetica,sans-Serif" font-size="10.00">* formula()</text>
</a>
</g>
</g>
<!-- Node1&#45;&gt;Node2 -->
<g id="edge1" class="edge"><title>Node1&#45;&gt;Node2</title>
<path fill="none" stroke="midnightblue" d="M233.62,-179.337C195.111,-166.973 148.158,-148.649 110.5,-124 107.393,-121.966 104.32,-119.748 101.305,-117.4"/>
<polygon fill="none" stroke="midnightblue" points="232.628,-182.694 243.217,-182.352 234.726,-176.016 232.628,-182.694"/>
</g>
<!-- Node3 -->
<g id="node3" class="node"><title>Node3</title>
<g id="a_node3"><a xlink:href="classscram_1_1mef_1_1Link.xhtml" target="_top" xlink:title="A link to another event tree in end&#45;states only. ">
<polygon fill="white" stroke="black" points="119.5,-28 119.5,-96 215.5,-96 215.5,-28 119.5,-28"/>
<text text-anchor="middle" x="167.5" y="-84" font-family="Helvetica,sans-Serif" font-size="10.00">scram::mef::Link</text>
<polyline fill="none" stroke="black" points="119.5,-77 215.5,-77 "/>
<text text-anchor="middle" x="167.5" y="-65" font-family="Helvetica,sans-Serif" font-size="10.00"> </text>
<polyline fill="none" stroke="black" points="119.5,-58 215.5,-58 "/>
<text text-anchor="start" x="127.5" y="-46" font-family="Helvetica,sans-Serif" font-size="10.00">+ Link()</text>
<text text-anchor="start" x="127.5" y="-35" font-family="Helvetica,sans-Serif" font-size="10.00">+ event_tree()</text>
</a>
</g>
</g>
<!-- Node1&#45;&gt;Node3 -->
<g id="edge2" class="edge"><title>Node1&#45;&gt;Node3</title>
<path fill="none" stroke="midnightblue" d="M255.448,-153.448C245.066,-143.868 234.322,-133.718 224.5,-124 215.536,-115.131 206.082,-105.245 197.505,-96.0578"/>
<polygon fill="none" stroke="midnightblue" points="253.19,-156.127 262.924,-160.309 257.923,-150.969 253.19,-156.127"/>
</g>
<!-- Node4 -->
<g id="node4" class="node"><title>Node4</title>
<g id="a_node4"><a xlink:href="classscram_1_1mef_1_1NamedBranch.xhtml" target="_top" xlink:title="Named branches that can be referenced and reused. ">
<polygon fill="white" stroke="black" points="233.5,-33.5 233.5,-90.5 379.5,-90.5 379.5,-33.5 233.5,-33.5"/>
<text text-anchor="middle" x="306.5" y="-78.5" font-family="Helvetica,sans-Serif" font-size="10.00">scram::mef::NamedBranch</text>
<polyline fill="none" stroke="black" points="233.5,-71.5 379.5,-71.5 "/>
<text text-anchor="middle" x="306.5" y="-59.5" font-family="Helvetica,sans-Serif" font-size="10.00"> </text>
<polyline fill="none" stroke="black" points="233.5,-52.5 379.5,-52.5 "/>
<text text-anchor="middle" x="306.5" y="-40.5" font-family="Helvetica,sans-Serif" font-size="10.00"> </text>
</a>
</g>
</g>
<!-- Node1&#45;&gt;Node4 -->
<g id="edge3" class="edge"><title>Node1&#45;&gt;Node4</title>
<path fill="none" stroke="midnightblue" d="M306.5,-150.23C306.5,-130.302 306.5,-107.974 306.5,-90.8961"/>
<polygon fill="none" stroke="midnightblue" points="303,-150.392 306.5,-160.392 310,-150.392 303,-150.392"/>
</g>
<!-- Node5 -->
<g id="node5" class="node"><title>Node5</title>
<g id="a_node5"><a xlink:href="classscram_1_1mef_1_1Parameter.xhtml" target="_top" xlink:title="This class provides a representation of a variable in basic event description. ">
<polygon fill="white" stroke="black" points="397.5,-11.5 397.5,-112.5 525.5,-112.5 525.5,-11.5 397.5,-11.5"/>
<text text-anchor="middle" x="461.5" y="-100.5" font-family="Helvetica,sans-Serif" font-size="10.00">scram::mef::Parameter</text>
<polyline fill="none" stroke="black" points="397.5,-93.5 525.5,-93.5 "/>
<text text-anchor="middle" x="461.5" y="-81.5" font-family="Helvetica,sans-Serif" font-size="10.00"> </text>
<polyline fill="none" stroke="black" points="397.5,-74.5 525.5,-74.5 "/>
<text text-anchor="start" x="405.5" y="-62.5" font-family="Helvetica,sans-Serif" font-size="10.00">+ expression()</text>
<text text-anchor="start" x="405.5" y="-51.5" font-family="Helvetica,sans-Serif" font-size="10.00">+ unit()</text>
<text text-anchor="start" x="405.5" y="-40.5" font-family="Helvetica,sans-Serif" font-size="10.00">+ unit()</text>
<text text-anchor="start" x="405.5" y="-29.5" font-family="Helvetica,sans-Serif" font-size="10.00">+ value()</text>
<text text-anchor="start" x="405.5" y="-18.5" font-family="Helvetica,sans-Serif" font-size="10.00">+ interval()</text>
</a>
</g>
</g>
<!-- Node1&#45;&gt;Node5 -->
<g id="edge4" class="edge"><title>Node1&#45;&gt;Node5</title>
<path fill="none" stroke="midnightblue" d="M358.195,-153.641C373.187,-140.488 389.633,-126.058 404.908,-112.655"/>
<polygon fill="none" stroke="midnightblue" points="355.711,-151.165 350.502,-160.392 360.327,-156.427 355.711,-151.165"/>
</g>
<!-- Node6 -->
<g id="node6" class="node"><title>Node6</title>
<g id="a_node6"><a xlink:href="classscram_1_1mef_1_1Rule.xhtml" target="_top" xlink:title="A reusable collection of instructions. ">
<polygon fill="white" stroke="black" points="544,-28 544,-96 641,-96 641,-28 544,-28"/>
<text text-anchor="middle" x="592.5" y="-84" font-family="Helvetica,sans-Serif" font-size="10.00">scram::mef::Rule</text>
<polyline fill="none" stroke="black" points="544,-77 641,-77 "/>
<text text-anchor="middle" x="592.5" y="-65" font-family="Helvetica,sans-Serif" font-size="10.00"> </text>
<polyline fill="none" stroke="black" points="544,-58 641,-58 "/>
<text text-anchor="start" x="552" y="-46" font-family="Helvetica,sans-Serif" font-size="10.00">+ instructions()</text>
<text text-anchor="start" x="552" y="-35" font-family="Helvetica,sans-Serif" font-size="10.00">+ instructions()</text>
</a>
</g>
</g>
<!-- Node1&#45;&gt;Node6 -->
<g id="edge5" class="edge"><title>Node1&#45;&gt;Node6</title>
<path fill="none" stroke="midnightblue" d="M379.398,-184.71C426.245,-173.266 486.998,-154.06 534.5,-124 546.231,-116.576 557.243,-106.262 566.453,-96.225"/>
<polygon fill="none" stroke="midnightblue" points="378.541,-181.316 369.623,-187.035 380.161,-188.126 378.541,-181.316"/>
</g>
</g>
</svg>
        <g id="navigator" transform="translate(0 0)" fill="#404254">
                <rect fill="#f2f5e9" fill-opacity="0.5" stroke="#606060" stroke-width=".5" x="0" y="0" width="60" height="60"/>
                <use id="zoomplus" xlink:href="#zoomPlus" x="17" y="9" onmousedown="handleZoom(evt,'in')"/>
                <use id="zoomminus" xlink:href="#zoomMin" x="42" y="9" onmousedown="handleZoom(evt,'out')"/>
                <use id="reset" xlink:href="#resetDef" x="30" y="36" onmousedown="handleReset()"/>
                <g id="arrowUp" xlink:href="#dirArrow" transform="translate(30 24)" onmousedown="handlePan(0,-1)">
                  <use xlink:href="#rim" fill="#404040">
                        <set attributeName="fill" to="#808080" begin="arrowUp.mouseover" end="arrowUp.mouseout"/>
                  </use>
                  <path fill="none" stroke="white" stroke-width="1.5" d="M0,-3.0v7 M-2.5,-0.5L0,-3.0L2.5,-0.5"/>
                </g>
                <g id="arrowRight" xlink:href="#dirArrow" transform="rotate(90) translate(36 -43)" onmousedown="handlePan(1,0)">
                  <use xlink:href="#rim" fill="#404040">
                        <set attributeName="fill" to="#808080" begin="arrowRight.mouseover" end="arrowRight.mouseout"/>
                  </use>
                  <path fill="none" stroke="white" stroke-width="1.5" d="M0,-3.0v7 M-2.5,-0.5L0,-3.0L2.5,-0.5"/>
                </g>
                <g id="arrowDown" xlink:href="#dirArrow" transform="rotate(180) translate(-30 -48)" onmousedown="handlePan(0,1)">
                  <use xlink:href="#rim" fill="#404040">
                        <set attributeName="fill" to="#808080" begin="arrowDown.mouseover" end="arrowDown.mouseout"/>
                  </use>
                  <path fill="none" stroke="white" stroke-width="1.5" d="M0,-3.0v7 M-2.5,-0.5L0,-3.0L2.5,-0.5"/>
                </g>
                <g id="arrowLeft" xlink:href="#dirArrow" transform="rotate(270) translate(-36 17)" onmousedown="handlePan(-1,0)">
                  <use xlink:href="#rim" fill="#404040">
                        <set attributeName="fill" to="#808080" begin="arrowLeft.mouseover" end="arrowLeft.mouseout"/>
                  </use>
                  <path fill="none" stroke="white" stroke-width="1.5" d="M0,-3.0v7 M-2.5,-0.5L0,-3.0L2.5,-0.5"/>
                </g>
        </g>
        <svg viewBox="0 0 15 15" width="100%" height="30px" preserveAspectRatio="xMaxYMin meet">
         <g id="arrow_out" transform="scale(0.3 0.3)">
          <a xlink:href="classscram_1_1mef_1_1NodeMark__inherit__graph_org.svg" target="_base">
           <rect id="button" ry="5" rx="5" y="6" x="6" height="38" width="38"
                fill="#f2f5e9" fill-opacity="0.5" stroke="#606060" stroke-width="1.0"/>
           <path id="arrow"
             d="M 11.500037,31.436501 C 11.940474,20.09759 22.043105,11.32322 32.158766,21.979434 L 37.068811,17.246167 C 37.068811,17.246167 37.088388,32 37.088388,32 L 22.160133,31.978069 C 22.160133,31.978069 26.997745,27.140456 26.997745,27.140456 C 18.528582,18.264221 13.291696,25.230495 11.500037,31.436501 z"
             style="fill:#404040;"/>
          </a>
         </g>
        </svg>
</svg>
