<?xml version="1.0" encoding="UTF-8" standalone="no"?>
<!DOCTYPE svg PUBLIC "-//W3C//DTD SVG 1.1//EN"
 "http://www.w3.org/Graphics/SVG/1.1/DTD/svg11.dtd">
<!-- Generated by graphviz version 2.38.0 (20140413.2041)
 -->
<!-- Title: scram::mef::HouseEvent Pages: 1 -->
<svg width="306pt" height="673pt"
 viewBox="0.00 0.00 305.50 673.00" xmlns="http://www.w3.org/2000/svg" xmlns:xlink="http://www.w3.org/1999/xlink">
<g id="graph0" class="graph" transform="scale(1 1) rotate(0) translate(4 669)">
<title>scram::mef::HouseEvent</title>
<polygon fill="white" stroke="none" points="-4,4 -4,-669 301.5,-669 301.5,4 -4,4"/>
<!-- Node1 -->
<g id="node1" class="node"><title>Node1</title>
<polygon fill="#bfbfbf" stroke="black" points="114,-0.5 114,-90.5 249,-90.5 249,-0.5 114,-0.5"/>
<text text-anchor="middle" x="181.5" y="-78.5" font-family="Helvetica,sans-Serif" font-size="10.00">scram::mef::HouseEvent</text>
<polyline fill="none" stroke="black" points="114,-71.5 249,-71.5 "/>
<text text-anchor="start" x="122" y="-59.5" font-family="Helvetica,sans-Serif" font-size="10.00">+ kTrue</text>
<text text-anchor="start" x="122" y="-48.5" font-family="Helvetica,sans-Serif" font-size="10.00">+ kFalse</text>
<polyline fill="none" stroke="black" points="114,-41.5 249,-41.5 "/>
<text text-anchor="start" x="122" y="-29.5" font-family="Helvetica,sans-Serif" font-size="10.00">+ HouseEvent()</text>
<text text-anchor="start" x="122" y="-18.5" font-family="Helvetica,sans-Serif" font-size="10.00">+ state()</text>
<text text-anchor="start" x="122" y="-7.5" font-family="Helvetica,sans-Serif" font-size="10.00">+ state()</text>
</g>
<!-- Node2 -->
<g id="node2" class="node"><title>Node2</title>
<g id="a_node2"><a xlink:href="classscram_1_1mef_1_1Event.xhtml" target="_top" xlink:title="Abstract base class for general fault tree events. ">
<polygon fill="white" stroke="black" points="129.5,-127.5 129.5,-184.5 233.5,-184.5 233.5,-127.5 129.5,-127.5"/>
<text text-anchor="middle" x="181.5" y="-172.5" font-family="Helvetica,sans-Serif" font-size="10.00">scram::mef::Event</text>
<polyline fill="none" stroke="black" points="129.5,-165.5 233.5,-165.5 "/>
<text text-anchor="middle" x="181.5" y="-153.5" font-family="Helvetica,sans-Serif" font-size="10.00"> </text>
<polyline fill="none" stroke="black" points="129.5,-146.5 233.5,-146.5 "/>
<text text-anchor="start" x="137.5" y="-134.5" font-family="Helvetica,sans-Serif" font-size="10.00">+ ~Event()</text>
</a>
</g>
</g>
<!-- Node2&#45;&gt;Node1 -->
<g id="edge1" class="edge"><title>Node2&#45;&gt;Node1</title>
<path fill="none" stroke="midnightblue" d="M181.5,-117.214C181.5,-108.609 181.5,-99.3943 181.5,-90.5541"/>
<polygon fill="none" stroke="midnightblue" points="178,-117.34 181.5,-127.34 185,-117.34 178,-117.34"/>
</g>
<!-- Node3 -->
<g id="node3" class="node"><title>Node3</title>
<g id="a_node3"><a xlink:href="classscram_1_1mef_1_1Id.xhtml" target="_top" xlink:title="Mixin class for assigning unique identifiers to elements. ">
<polygon fill="white" stroke="black" points="70,-221.5 70,-355.5 171,-355.5 171,-221.5 70,-221.5"/>
<text text-anchor="middle" x="120.5" y="-343.5" font-family="Helvetica,sans-Serif" font-size="10.00">scram::mef::Id</text>
<polyline fill="none" stroke="black" points="70,-336.5 171,-336.5 "/>
<text text-anchor="middle" x="120.5" y="-324.5" font-family="Helvetica,sans-Serif" font-size="10.00"> </text>
<polyline fill="none" stroke="black" points="70,-317.5 171,-317.5 "/>
<text text-anchor="start" x="78" y="-305.5" font-family="Helvetica,sans-Serif" font-size="10.00">+ Id()</text>
<text text-anchor="start" x="78" y="-294.5" font-family="Helvetica,sans-Serif" font-size="10.00">+ id()</text>
<text text-anchor="start" x="78" y="-283.5" font-family="Helvetica,sans-Serif" font-size="10.00">+ id()</text>
<text text-anchor="start" x="78" y="-272.5" font-family="Helvetica,sans-Serif" font-size="10.00">+ unique_name()</text>
<text text-anchor="start" x="78" y="-261.5" font-family="Helvetica,sans-Serif" font-size="10.00">+ unique_name()</text>
<text text-anchor="start" x="78" y="-250.5" font-family="Helvetica,sans-Serif" font-size="10.00"># ~Id()</text>
<text text-anchor="start" x="78" y="-239.5" font-family="Helvetica,sans-Serif" font-size="10.00">* unique_name()</text>
<text text-anchor="start" x="78" y="-228.5" font-family="Helvetica,sans-Serif" font-size="10.00">* unique_name()</text>
</a>
</g>
</g>
<!-- Node3&#45;&gt;Node2 -->
<g id="edge2" class="edge"><title>Node3&#45;&gt;Node2</title>
<path fill="none" stroke="midnightblue" d="M155.622,-212.362C160.235,-202.493 164.704,-192.933 168.593,-184.613"/>
<polygon fill="none" stroke="midnightblue" points="152.421,-210.944 151.357,-221.485 158.763,-213.908 152.421,-210.944"/>
</g>
<!-- Node4 -->
<g id="node4" class="node"><title>Node4</title>
<g id="a_node4"><a xlink:href="classscram_1_1mef_1_1Element.xhtml" target="_top" xlink:title="Mixin class that represents any element of analysis that can have extra descriptions, such as attributes and a label. ">
<polygon fill="white" stroke="black" points="0,-392.5 0,-570.5 117,-570.5 117,-392.5 0,-392.5"/>
<text text-anchor="middle" x="58.5" y="-558.5" font-family="Helvetica,sans-Serif" font-size="10.00">scram::mef::Element</text>
<polyline fill="none" stroke="black" points="0,-551.5 117,-551.5 "/>
<text text-anchor="middle" x="58.5" y="-539.5" font-family="Helvetica,sans-Serif" font-size="10.00"> </text>
<polyline fill="none" stroke="black" points="0,-532.5 117,-532.5 "/>
<text text-anchor="start" x="8" y="-520.5" font-family="Helvetica,sans-Serif" font-size="10.00">+ Element()</text>
<text text-anchor="start" x="8" y="-509.5" font-family="Helvetica,sans-Serif" font-size="10.00">+ name()</text>
<text text-anchor="start" x="8" y="-498.5" font-family="Helvetica,sans-Serif" font-size="10.00">+ label()</text>
<text text-anchor="start" x="8" y="-487.5" font-family="Helvetica,sans-Serif" font-size="10.00">+ label()</text>
<text text-anchor="start" x="8" y="-476.5" font-family="Helvetica,sans-Serif" font-size="10.00">+ attributes()</text>
<text text-anchor="start" x="8" y="-465.5" font-family="Helvetica,sans-Serif" font-size="10.00">+ AddAttribute()</text>
<text text-anchor="start" x="8" y="-454.5" font-family="Helvetica,sans-Serif" font-size="10.00">+ SetAttribute()</text>
<text text-anchor="start" x="8" y="-443.5" font-family="Helvetica,sans-Serif" font-size="10.00">+ HasAttribute()</text>
<text text-anchor="start" x="8" y="-432.5" font-family="Helvetica,sans-Serif" font-size="10.00">+ GetAttribute()</text>
<text text-anchor="start" x="8" y="-421.5" font-family="Helvetica,sans-Serif" font-size="10.00">+ RemoveAttribute()</text>
<text text-anchor="start" x="8" y="-410.5" font-family="Helvetica,sans-Serif" font-size="10.00"># ~Element()</text>
<text text-anchor="start" x="8" y="-399.5" font-family="Helvetica,sans-Serif" font-size="10.00"># name()</text>
</a>
</g>
</g>
<!-- Node4&#45;&gt;Node3 -->
<g id="edge3" class="edge"><title>Node4&#45;&gt;Node3</title>
<path fill="none" stroke="midnightblue" d="M90.2387,-382.724C93.2127,-373.562 96.1777,-364.428 99.024,-355.66"/>
<polygon fill="none" stroke="midnightblue" points="86.8992,-381.676 87.1407,-392.268 93.5573,-383.837 86.8992,-381.676"/>
</g>
<!-- Node5 -->
<g id="node5" class="node"><title>Node5</title>
<polygon fill="white" stroke="#bfbfbf" points="20,-607.5 20,-664.5 97,-664.5 97,-607.5 20,-607.5"/>
<text text-anchor="middle" x="58.5" y="-652.5" font-family="Helvetica,sans-Serif" font-size="10.00">noncopyable</text>
<polyline fill="none" stroke="#bfbfbf" points="20,-645.5 97,-645.5 "/>
<text text-anchor="middle" x="58.5" y="-633.5" font-family="Helvetica,sans-Serif" font-size="10.00"> </text>
<polyline fill="none" stroke="#bfbfbf" points="20,-626.5 97,-626.5 "/>
<text text-anchor="middle" x="58.5" y="-614.5" font-family="Helvetica,sans-Serif" font-size="10.00"> </text>
</g>
<!-- Node5&#45;&gt;Node4 -->
<g id="edge4" class="edge"><title>Node5&#45;&gt;Node4</title>
<path fill="none" stroke="#8b1a1a" d="M58.5,-597.374C58.5,-589.089 58.5,-579.977 58.5,-570.62"/>
<polygon fill="none" stroke="#8b1a1a" points="55.0001,-597.383 58.5,-607.383 62.0001,-597.383 55.0001,-597.383"/>
</g>
<!-- Node6 -->
<g id="node6" class="node"><title>Node6</title>
<g id="a_node6"><a xlink:href="classscram_1_1mef_1_1Role.xhtml" target="_top" xlink:title="Mixin class that manages private or public roles for elements as needed. ">
<polygon fill="white" stroke="black" points="135,-436.5 135,-526.5 232,-526.5 232,-436.5 135,-436.5"/>
<text text-anchor="middle" x="183.5" y="-514.5" font-family="Helvetica,sans-Serif" font-size="10.00">scram::mef::Role</text>
<polyline fill="none" stroke="black" points="135,-507.5 232,-507.5 "/>
<text text-anchor="middle" x="183.5" y="-495.5" font-family="Helvetica,sans-Serif" font-size="10.00"> </text>
<polyline fill="none" stroke="black" points="135,-488.5 232,-488.5 "/>
<text text-anchor="start" x="143" y="-476.5" font-family="Helvetica,sans-Serif" font-size="10.00">+ Role()</text>
<text text-anchor="start" x="143" y="-465.5" font-family="Helvetica,sans-Serif" font-size="10.00">+ role()</text>
<text text-anchor="start" x="143" y="-454.5" font-family="Helvetica,sans-Serif" font-size="10.00">+ base_path()</text>
<text text-anchor="start" x="143" y="-443.5" font-family="Helvetica,sans-Serif" font-size="10.00"># ~Role()</text>
</a>
</g>
</g>
<!-- Node6&#45;&gt;Node3 -->
<g id="edge5" class="edge"><title>Node6&#45;&gt;Node3</title>
<path fill="none" stroke="midnightblue" d="M165.745,-426.67C158.468,-404.61 149.975,-378.86 142.324,-355.666"/>
<polygon fill="none" stroke="midnightblue" points="162.432,-427.8 168.888,-436.201 169.08,-425.608 162.432,-427.8"/>
</g>
<!-- Node7 -->
<g id="node7" class="node"><title>Node7</title>
<g id="a_node7"><a xlink:href="classscram_1_1mef_1_1Usage.xhtml" target="_top" xlink:title="Mixin class for providing usage marks for elements. ">
<polygon fill="white" stroke="black" points="189.5,-249 189.5,-328 297.5,-328 297.5,-249 189.5,-249"/>
<text text-anchor="middle" x="243.5" y="-316" font-family="Helvetica,sans-Serif" font-size="10.00">scram::mef::Usage</text>
<polyline fill="none" stroke="black" points="189.5,-309 297.5,-309 "/>
<text text-anchor="middle" x="243.5" y="-297" font-family="Helvetica,sans-Serif" font-size="10.00"> </text>
<polyline fill="none" stroke="black" points="189.5,-290 297.5,-290 "/>
<text text-anchor="start" x="197.5" y="-278" font-family="Helvetica,sans-Serif" font-size="10.00">+ usage()</text>
<text text-anchor="start" x="197.5" y="-267" font-family="Helvetica,sans-Serif" font-size="10.00">+ usage()</text>
<text text-anchor="start" x="197.5" y="-256" font-family="Helvetica,sans-Serif" font-size="10.00"># ~Usage()</text>
</a>
</g>
</g>
<!-- Node7&#45;&gt;Node2 -->
<g id="edge6" class="edge"><title>Node7&#45;&gt;Node2</title>
<path fill="none" stroke="midnightblue" d="M220.714,-239.539C211.939,-221.069 202.217,-200.607 194.649,-184.677"/>
<polygon fill="none" stroke="midnightblue" points="217.613,-241.169 225.066,-248.699 223.936,-238.165 217.613,-241.169"/>
</g>
</g>
</svg>
