<?xml version="1.0" encoding="UTF-8" standalone="no"?>
<!DOCTYPE svg PUBLIC "-//W3C//DTD SVG 1.1//EN"
 "http://www.w3.org/Graphics/SVG/1.1/DTD/svg11.dtd">
<!-- Generated by graphviz version 2.38.0 (20140413.2041)
 -->
<!-- Title: scram::mef::Model::house_events Pages: 1 -->
<svg width="676pt" height="166pt"
 viewBox="0.00 0.00 676.00 165.50" xmlns="http://www.w3.org/2000/svg" xmlns:xlink="http://www.w3.org/1999/xlink">
<g id="graph0" class="graph" transform="scale(1 1) rotate(0) translate(4 161.5)">
<title>scram::mef::Model::house_events</title>
<polygon fill="white" stroke="none" points="-4,4 -4,-161.5 672,-161.5 672,4 -4,4"/>
<!-- Node1 -->
<g id="node1" class="node"><title>Node1</title>
<polygon fill="#bfbfbf" stroke="black" points="0,-61 0,-91 112,-91 112,-61 0,-61"/>
<text text-anchor="start" x="8" y="-79" font-family="Helvetica,sans-Serif" font-size="10.00">scram::mef::Model::</text>
<text text-anchor="middle" x="56" y="-68" font-family="Helvetica,sans-Serif" font-size="10.00">house_events</text>
</g>
<!-- Node2 -->
<g id="node2" class="node"><title>Node2</title>
<g id="a_node2"><a xlink:href="classscram_1_1core_1_1RiskAnalysis.xhtml#a7aed757ac5a7a96878c2706a7a9710bb" target="_top" xlink:title="Analyzes the model and performs computations specified in the settings. ">
<polygon fill="white" stroke="black" points="148,-127 148,-157 285,-157 285,-127 148,-127"/>
<text text-anchor="start" x="156" y="-145" font-family="Helvetica,sans-Serif" font-size="10.00">scram::core::RiskAnalysis</text>
<text text-anchor="middle" x="216.5" y="-134" font-family="Helvetica,sans-Serif" font-size="10.00">::Analyze</text>
</a>
</g>
</g>
<!-- Node1&#45;&gt;Node2 -->
<g id="edge1" class="edge"><title>Node1&#45;&gt;Node2</title>
<path fill="none" stroke="midnightblue" d="M102.753,-95.0517C127.088,-105.185 156.586,-117.468 179.306,-126.929"/>
<polygon fill="midnightblue" stroke="midnightblue" points="103.94,-91.7548 93.3631,-91.1417 101.249,-98.217 103.94,-91.7548"/>
</g>
<!-- Node4 -->
<g id="node4" class="node"><title>Node4</title>
<g id="a_node4"><a xlink:href="reporter_8cc.xhtml#a73f9569f4c2e2b6a3eac8d2c01b81943" target="_top" xlink:title="Describes all performed analyses deduced from settings. ">
<polygon fill="white" stroke="black" points="494,-105 494,-135 668,-135 668,-105 494,-105"/>
<text text-anchor="start" x="502" y="-123" font-family="Helvetica,sans-Serif" font-size="10.00">scram::ReportCalculatedQuantity</text>
<text text-anchor="middle" x="581" y="-112" font-family="Helvetica,sans-Serif" font-size="10.00">&lt; core::RiskAnalysis &gt;</text>
</a>
</g>
</g>
<!-- Node1&#45;&gt;Node4 -->
<g id="edge6" class="edge"><title>Node1&#45;&gt;Node4</title>
<path fill="none" stroke="midnightblue" d="M122.697,-81.5271C216.617,-89.4286 389.397,-103.965 493.585,-112.73"/>
<polygon fill="midnightblue" stroke="midnightblue" points="122.733,-78.0179 112.475,-80.6671 122.146,-84.9932 122.733,-78.0179"/>
</g>
<!-- Node5 -->
<g id="node5" class="node"><title>Node5</title>
<g id="a_node5"><a xlink:href="classscram_1_1mef_1_1Model.xhtml#aaebfa79fb3fbf5d2987f6bbc9c4a9b67" target="_top" xlink:title="Convenience function to retrieve an event with its ID. ">
<polygon fill="white" stroke="black" points="160.5,-39 160.5,-69 272.5,-69 272.5,-39 160.5,-39"/>
<text text-anchor="start" x="168.5" y="-57" font-family="Helvetica,sans-Serif" font-size="10.00">scram::mef::Model::</text>
<text text-anchor="middle" x="216.5" y="-46" font-family="Helvetica,sans-Serif" font-size="10.00">GetEvent</text>
</a>
</g>
</g>
<!-- Node1&#45;&gt;Node5 -->
<g id="edge4" class="edge"><title>Node1&#45;&gt;Node5</title>
<path fill="none" stroke="midnightblue" d="M122.419,-66.9197C135.029,-65.1695 148.12,-63.3524 160.363,-61.653"/>
<polygon fill="midnightblue" stroke="midnightblue" points="121.859,-63.4638 112.436,-68.3055 122.822,-70.3973 121.859,-63.4638"/>
</g>
<!-- Node7 -->
<g id="node7" class="node"><title>Node7</title>
<g id="a_node7"><a xlink:href="serialization_8cc.xhtml#a04bd5db90ad7b35c9bd60f945d76fe6c" target="_top" xlink:title="Serializes the model and its data into stream as XML. ">
<polygon fill="white" stroke="black" points="157.5,-0.5 157.5,-19.5 275.5,-19.5 275.5,-0.5 157.5,-0.5"/>
<text text-anchor="middle" x="216.5" y="-7.5" font-family="Helvetica,sans-Serif" font-size="10.00">scram::mef::Serialize</text>
</a>
</g>
</g>
<!-- Node1&#45;&gt;Node7 -->
<g id="edge7" class="edge"><title>Node1&#45;&gt;Node7</title>
<path fill="none" stroke="midnightblue" d="M93.1234,-55.8528C109.552,-47.1855 129.433,-37.3737 148,-30 157.883,-26.0752 168.844,-22.5081 179.009,-19.509"/>
<polygon fill="midnightblue" stroke="midnightblue" points="91.0507,-52.9923 83.8854,-60.7967 94.3537,-59.1641 91.0507,-52.9923"/>
</g>
<!-- Node3 -->
<g id="node3" class="node"><title>Node3</title>
<g id="a_node3"><a xlink:href="classscram_1_1core_1_1RiskAnalysis.xhtml#a337f7e9fe02b1581e872590d6f7baa01" target="_top" xlink:title="scram::core::RiskAnalysis\l::model">
<polygon fill="white" stroke="black" points="321,-127 321,-157 458,-157 458,-127 321,-127"/>
<text text-anchor="start" x="329" y="-145" font-family="Helvetica,sans-Serif" font-size="10.00">scram::core::RiskAnalysis</text>
<text text-anchor="middle" x="389.5" y="-134" font-family="Helvetica,sans-Serif" font-size="10.00">::model</text>
</a>
</g>
</g>
<!-- Node2&#45;&gt;Node3 -->
<g id="edge2" class="edge"><title>Node2&#45;&gt;Node3</title>
<path fill="none" stroke="midnightblue" d="M295.1,-142C303.692,-142 312.391,-142 320.847,-142"/>
<polygon fill="midnightblue" stroke="midnightblue" points="295.084,-138.5 285.084,-142 295.084,-145.5 295.084,-138.5"/>
</g>
<!-- Node3&#45;&gt;Node4 -->
<g id="edge3" class="edge"><title>Node3&#45;&gt;Node4</title>
<path fill="none" stroke="midnightblue" d="M468.288,-132.969C476.722,-131.99 485.341,-130.989 493.866,-130"/>
<polygon fill="midnightblue" stroke="midnightblue" points="467.641,-129.521 458.111,-134.151 468.448,-136.474 467.641,-129.521"/>
</g>
<!-- Node6 -->
<g id="node6" class="node"><title>Node6</title>
<g id="a_node6"><a xlink:href="classscram_1_1mef_1_1Model.xhtml#a399227af1b36b77162c75a51fe13ebe7" target="_top" xlink:title="Adds MEF constructs into the model container. ">
<polygon fill="white" stroke="black" points="324,-44.5 324,-63.5 455,-63.5 455,-44.5 324,-44.5"/>
<text text-anchor="middle" x="389.5" y="-51.5" font-family="Helvetica,sans-Serif" font-size="10.00">scram::mef::Model::Add</text>
</a>
</g>
</g>
<!-- Node5&#45;&gt;Node6 -->
<g id="edge5" class="edge"><title>Node5&#45;&gt;Node6</title>
<path fill="none" stroke="midnightblue" d="M282.669,-54C296.119,-54 310.281,-54 323.717,-54"/>
<polygon fill="midnightblue" stroke="midnightblue" points="282.547,-50.5001 272.547,-54 282.547,-57.5001 282.547,-50.5001"/>
</g>
</g>
</svg>
