<?xml version="1.0" encoding="UTF-8" standalone="no"?>
<!DOCTYPE svg PUBLIC "-//W3C//DTD SVG 1.1//EN"
 "http://www.w3.org/Graphics/SVG/1.1/DTD/svg11.dtd">
<!-- Generated by graphviz version 2.38.0 (20140413.2041)
 -->
<!-- Title: scram::mef::ExternFunction&lt; R, Args &gt; Pages: 1 -->
<svg width="252pt" height="654pt"
 viewBox="0.00 0.00 251.50 654.00" xmlns="http://www.w3.org/2000/svg" xmlns:xlink="http://www.w3.org/1999/xlink">
<g id="graph0" class="graph" transform="scale(1 1) rotate(0) translate(4 650)">
<title>scram::mef::ExternFunction&lt; R, Args &gt;</title>
<polygon fill="white" stroke="none" points="-4,4 -4,-650 247.5,-650 247.5,4 -4,4"/>
<!-- Node1 -->
<g id="node1" class="node"><title>Node1</title>
<polygon fill="#bfbfbf" stroke="black" points="82.5,-138.5 82.5,-228.5 230.5,-228.5 230.5,-138.5 82.5,-138.5"/>
<text text-anchor="start" x="90.5" y="-216.5" font-family="Helvetica,sans-Serif" font-size="10.00">scram::mef::ExternFunction</text>
<text text-anchor="middle" x="156.5" y="-205.5" font-family="Helvetica,sans-Serif" font-size="10.00">&lt; R, Args &gt;</text>
<polyline fill="none" stroke="black" points="82.5,-198.5 230.5,-198.5 "/>
<text text-anchor="middle" x="156.5" y="-186.5" font-family="Helvetica,sans-Serif" font-size="10.00"> </text>
<polyline fill="none" stroke="black" points="82.5,-179.5 230.5,-179.5 "/>
<text text-anchor="start" x="90.5" y="-167.5" font-family="Helvetica,sans-Serif" font-size="10.00">+ ExternFunction()</text>
<text text-anchor="start" x="90.5" y="-156.5" font-family="Helvetica,sans-Serif" font-size="10.00">+ operator()()</text>
<text text-anchor="start" x="90.5" y="-145.5" font-family="Helvetica,sans-Serif" font-size="10.00">+ apply()</text>
</g>
<!-- Node6 -->
<g id="node6" class="node"><title>Node6</title>
<g id="a_node6"><a xlink:href="classscram_1_1mef_1_1ExternFunction.xhtml" target="_top" xlink:title="{scram::mef::ExternFunction\l\&lt; R, Args... \&gt;\n||+ ExternFunction()\l+ operator()()\l+ apply()\l}">
<polygon fill="white" stroke="black" points="82.5,-0.5 82.5,-90.5 230.5,-90.5 230.5,-0.5 82.5,-0.5"/>
<text text-anchor="start" x="90.5" y="-78.5" font-family="Helvetica,sans-Serif" font-size="10.00">scram::mef::ExternFunction</text>
<text text-anchor="middle" x="156.5" y="-67.5" font-family="Helvetica,sans-Serif" font-size="10.00">&lt; R, Args... &gt;</text>
<polyline fill="none" stroke="black" points="82.5,-60.5 230.5,-60.5 "/>
<text text-anchor="middle" x="156.5" y="-48.5" font-family="Helvetica,sans-Serif" font-size="10.00"> </text>
<polyline fill="none" stroke="black" points="82.5,-41.5 230.5,-41.5 "/>
<text text-anchor="start" x="90.5" y="-29.5" font-family="Helvetica,sans-Serif" font-size="10.00">+ ExternFunction()</text>
<text text-anchor="start" x="90.5" y="-18.5" font-family="Helvetica,sans-Serif" font-size="10.00">+ operator()()</text>
<text text-anchor="start" x="90.5" y="-7.5" font-family="Helvetica,sans-Serif" font-size="10.00">+ apply()</text>
</a>
</g>
</g>
<!-- Node1&#45;&gt;Node6 -->
<g id="edge5" class="edge"><title>Node1&#45;&gt;Node6</title>
<path fill="none" stroke="orange" d="M156.5,-128.145C156.5,-115.782 156.5,-102.791 156.5,-90.8992"/>
<polygon fill="orange" stroke="orange" points="153,-128.345 156.5,-138.345 160,-128.345 153,-128.345"/>
<text text-anchor="middle" x="191" y="-112" font-family="Helvetica,sans-Serif" font-size="10.00"> &lt; R, Args... &gt;</text>
</g>
<!-- Node2 -->
<g id="node2" class="node"><title>Node2</title>
<g id="a_node2"><a xlink:href="classscram_1_1mef_1_1ExternFunction_3_01void_01_4.xhtml" target="_top" xlink:title="Abstract base class for ExternFunction concrete types. ">
<polygon fill="white" stroke="black" points="99.5,-266.5 99.5,-334.5 213.5,-334.5 213.5,-266.5 99.5,-266.5"/>
<text text-anchor="middle" x="156.5" y="-322.5" font-family="Helvetica,sans-Serif" font-size="10.00">ExternFunctionBase</text>
<polyline fill="none" stroke="black" points="99.5,-315.5 213.5,-315.5 "/>
<text text-anchor="middle" x="156.5" y="-303.5" font-family="Helvetica,sans-Serif" font-size="10.00"> </text>
<polyline fill="none" stroke="black" points="99.5,-296.5 213.5,-296.5 "/>
<text text-anchor="start" x="107.5" y="-284.5" font-family="Helvetica,sans-Serif" font-size="10.00">+ ~ExternFunction()</text>
<text text-anchor="start" x="107.5" y="-273.5" font-family="Helvetica,sans-Serif" font-size="10.00">+ apply()</text>
</a>
</g>
</g>
<!-- Node2&#45;&gt;Node1 -->
<g id="edge1" class="edge"><title>Node2&#45;&gt;Node1</title>
<path fill="none" stroke="midnightblue" d="M156.5,-256.055C156.5,-247.146 156.5,-237.757 156.5,-228.818"/>
<polygon fill="none" stroke="midnightblue" points="153,-256.237 156.5,-266.237 160,-256.237 153,-256.237"/>
</g>
<!-- Node3 -->
<g id="node3" class="node"><title>Node3</title>
<g id="a_node3"><a xlink:href="classscram_1_1mef_1_1Element.xhtml" target="_top" xlink:title="Mixin class that represents any element of analysis that can have extra descriptions, such as attributes and a label. ">
<polygon fill="white" stroke="black" points="0,-372.5 0,-550.5 117,-550.5 117,-372.5 0,-372.5"/>
<text text-anchor="middle" x="58.5" y="-538.5" font-family="Helvetica,sans-Serif" font-size="10.00">scram::mef::Element</text>
<polyline fill="none" stroke="black" points="0,-531.5 117,-531.5 "/>
<text text-anchor="middle" x="58.5" y="-519.5" font-family="Helvetica,sans-Serif" font-size="10.00"> </text>
<polyline fill="none" stroke="black" points="0,-512.5 117,-512.5 "/>
<text text-anchor="start" x="8" y="-500.5" font-family="Helvetica,sans-Serif" font-size="10.00">+ Element()</text>
<text text-anchor="start" x="8" y="-489.5" font-family="Helvetica,sans-Serif" font-size="10.00">+ name()</text>
<text text-anchor="start" x="8" y="-478.5" font-family="Helvetica,sans-Serif" font-size="10.00">+ label()</text>
<text text-anchor="start" x="8" y="-467.5" font-family="Helvetica,sans-Serif" font-size="10.00">+ label()</text>
<text text-anchor="start" x="8" y="-456.5" font-family="Helvetica,sans-Serif" font-size="10.00">+ attributes()</text>
<text text-anchor="start" x="8" y="-445.5" font-family="Helvetica,sans-Serif" font-size="10.00">+ AddAttribute()</text>
<text text-anchor="start" x="8" y="-434.5" font-family="Helvetica,sans-Serif" font-size="10.00">+ SetAttribute()</text>
<text text-anchor="start" x="8" y="-423.5" font-family="Helvetica,sans-Serif" font-size="10.00">+ HasAttribute()</text>
<text text-anchor="start" x="8" y="-412.5" font-family="Helvetica,sans-Serif" font-size="10.00">+ GetAttribute()</text>
<text text-anchor="start" x="8" y="-401.5" font-family="Helvetica,sans-Serif" font-size="10.00">+ RemoveAttribute()</text>
<text text-anchor="start" x="8" y="-390.5" font-family="Helvetica,sans-Serif" font-size="10.00"># ~Element()</text>
<text text-anchor="start" x="8" y="-379.5" font-family="Helvetica,sans-Serif" font-size="10.00"># name()</text>
</a>
</g>
</g>
<!-- Node3&#45;&gt;Node2 -->
<g id="edge2" class="edge"><title>Node3&#45;&gt;Node2</title>
<path fill="none" stroke="midnightblue" d="M118.283,-363.505C124.58,-353.288 130.627,-343.478 135.979,-334.794"/>
<polygon fill="none" stroke="midnightblue" points="115.213,-361.816 112.945,-372.166 121.172,-365.489 115.213,-361.816"/>
</g>
<!-- Node4 -->
<g id="node4" class="node"><title>Node4</title>
<polygon fill="white" stroke="#bfbfbf" points="20,-588.5 20,-645.5 97,-645.5 97,-588.5 20,-588.5"/>
<text text-anchor="middle" x="58.5" y="-633.5" font-family="Helvetica,sans-Serif" font-size="10.00">noncopyable</text>
<polyline fill="none" stroke="#bfbfbf" points="20,-626.5 97,-626.5 "/>
<text text-anchor="middle" x="58.5" y="-614.5" font-family="Helvetica,sans-Serif" font-size="10.00"> </text>
<polyline fill="none" stroke="#bfbfbf" points="20,-607.5 97,-607.5 "/>
<text text-anchor="middle" x="58.5" y="-595.5" font-family="Helvetica,sans-Serif" font-size="10.00"> </text>
</g>
<!-- Node4&#45;&gt;Node3 -->
<g id="edge3" class="edge"><title>Node4&#45;&gt;Node3</title>
<path fill="none" stroke="#8b1a1a" d="M58.5,-577.957C58.5,-569.471 58.5,-560.13 58.5,-550.549"/>
<polygon fill="none" stroke="#8b1a1a" points="55.0001,-578.202 58.5,-588.202 62.0001,-578.202 55.0001,-578.202"/>
</g>
<!-- Node5 -->
<g id="node5" class="node"><title>Node5</title>
<g id="a_node5"><a xlink:href="classscram_1_1mef_1_1Usage.xhtml" target="_top" xlink:title="Mixin class for providing usage marks for elements. ">
<polygon fill="white" stroke="black" points="135.5,-422 135.5,-501 243.5,-501 243.5,-422 135.5,-422"/>
<text text-anchor="middle" x="189.5" y="-489" font-family="Helvetica,sans-Serif" font-size="10.00">scram::mef::Usage</text>
<polyline fill="none" stroke="black" points="135.5,-482 243.5,-482 "/>
<text text-anchor="middle" x="189.5" y="-470" font-family="Helvetica,sans-Serif" font-size="10.00"> </text>
<polyline fill="none" stroke="black" points="135.5,-463 243.5,-463 "/>
<text text-anchor="start" x="143.5" y="-451" font-family="Helvetica,sans-Serif" font-size="10.00">+ usage()</text>
<text text-anchor="start" x="143.5" y="-440" font-family="Helvetica,sans-Serif" font-size="10.00">+ usage()</text>
<text text-anchor="start" x="143.5" y="-429" font-family="Helvetica,sans-Serif" font-size="10.00"># ~Usage()</text>
</a>
</g>
</g>
<!-- Node5&#45;&gt;Node2 -->
<g id="edge4" class="edge"><title>Node5&#45;&gt;Node2</title>
<path fill="none" stroke="midnightblue" d="M179.348,-411.584C174.164,-386.61 167.995,-356.885 163.374,-334.621"/>
<polygon fill="none" stroke="midnightblue" points="175.968,-412.524 181.427,-421.604 182.822,-411.102 175.968,-412.524"/>
</g>
</g>
</svg>
