<?xml version="1.0" encoding="UTF-8" standalone="no"?>
<!DOCTYPE svg PUBLIC "-//W3C//DTD SVG 1.1//EN"
 "http://www.w3.org/Graphics/SVG/1.1/DTD/svg11.dtd">
<!-- Generated by graphviz version 2.38.0 (20140413.2041)
 -->
<!-- Title: scram::mef::Expression::Sample Pages: 1 -->
<!--zoomable 550 -->
<svg id="main" version="1.1" xmlns="http://www.w3.org/2000/svg" xmlns:xlink="http://www.w3.org/1999/xlink" xml:space="preserve" onload="init(evt)">
<style type="text/css"><![CDATA[
.edge:hover path { stroke: red; }
.edge:hover polygon { stroke: red; fill: red; }
]]></style>
<script type="text/javascript"><![CDATA[
var edges = document.getElementsByTagName('g');
if (edges && edges.length) {
  for (var i=0;i<edges.length;i++) {
    if (edges[i].id.substr(0,4)=='edge') {
      edges[i].setAttribute('class','edge');
    }
  }
}
]]></script>
        <defs>
                <circle id="rim" cx="0" cy="0" r="7"/>
                <circle id="rim2" cx="0" cy="0" r="3.5"/>
                <g id="zoomPlus">
                        <use xlink:href="#rim" fill="#404040">
                                <set attributeName="fill" to="#808080" begin="zoomplus.mouseover" end="zoomplus.mouseout"/>
                        </use>
                        <path d="M-4,0h8M0,-4v8" fill="none" stroke="white" stroke-width="1.5" pointer-events="none"/>
                </g>
                <g id="zoomMin">
                        <use xlink:href="#rim" fill="#404040">
                                <set attributeName="fill" to="#808080" begin="zoomminus.mouseover" end="zoomminus.mouseout"/>
                        </use>
                        <path d="M-4,0h8" fill="none" stroke="white" stroke-width="1.5" pointer-events="none"/>
                </g>
                <g id="dirArrow">
                        <path fill="none" stroke="white" stroke-width="1.5" d="M0,-3.0v7 M-2.5,-0.5L0,-3.0L2.5,-0.5"/>
                </g>
               <g id="resetDef">
                       <use xlink:href="#rim2" fill="#404040">
                               <set attributeName="fill" to="#808080" begin="reset.mouseover" end="reset.mouseout"/>
                       </use>
               </g>
        </defs>

<script type="text/javascript">
var viewWidth = 1120;
var viewHeight = 550;
var sectionId = 'dynsection-9';
</script>
<script xlink:href="svgpan.js"/>
<svg id="graph" class="graph">
<g id="viewport">
<title>scram::mef::Expression::Sample</title>
<polygon fill="white" stroke="none" points="-4,4 -4,-546.45 1116,-546.45 1116,4 -4,4"/>
<!-- Node1 -->
<g id="node1" class="node"><title>Node1</title>
<polygon fill="#bfbfbf" stroke="black" points="0,-305.5 0,-335.5 129,-335.5 129,-305.5 0,-305.5"/>
<text text-anchor="start" x="8" y="-323.5" font-family="Helvetica,sans-Serif" font-size="10.00">scram::mef::Expression</text>
<text text-anchor="middle" x="64.5" y="-312.5" font-family="Helvetica,sans-Serif" font-size="10.00">::Sample</text>
</g>
<!-- Node2 -->
<g id="node2" class="node"><title>Node2</title>
<g id="a_node2"><a xlink:href="classscram_1_1mef_1_1Expression.xhtml#a179b21e75df522673e6d51b784d10e86" target="_top" xlink:title="scram::mef::Expression\l::interval">
<polygon fill="white" stroke="black" points="184.5,-305.5 184.5,-335.5 313.5,-335.5 313.5,-305.5 184.5,-305.5"/>
<text text-anchor="start" x="192.5" y="-323.5" font-family="Helvetica,sans-Serif" font-size="10.00">scram::mef::Expression</text>
<text text-anchor="middle" x="249" y="-312.5" font-family="Helvetica,sans-Serif" font-size="10.00">::interval</text>
</a>
</g>
</g>
<!-- Node1&#45;&gt;Node2 -->
<g id="edge1" class="edge"><title>Node1&#45;&gt;Node2</title>
<path fill="none" stroke="midnightblue" d="M139.287,-320.5C154.219,-320.5 169.798,-320.5 184.346,-320.5"/>
<polygon fill="midnightblue" stroke="midnightblue" points="139.073,-317 129.073,-320.5 139.073,-324 139.073,-317"/>
</g>
<!-- Node8 -->
<g id="node8" class="node"><title>Node8</title>
<g id="a_node8"><a xlink:href="classscram_1_1mef_1_1PeriodicTest.xhtml#a0aa8dc4d62e8fc24194f0183bc533638" target="_top" xlink:title="scram::mef::PeriodicTest\l::interval">
<polygon fill="white" stroke="black" points="768,-382.5 768,-412.5 902,-412.5 902,-382.5 768,-382.5"/>
<text text-anchor="start" x="776" y="-400.5" font-family="Helvetica,sans-Serif" font-size="10.00">scram::mef::PeriodicTest</text>
<text text-anchor="middle" x="835" y="-389.5" font-family="Helvetica,sans-Serif" font-size="10.00">::interval</text>
</a>
</g>
</g>
<!-- Node1&#45;&gt;Node8 -->
<g id="edge38" class="edge"><title>Node1&#45;&gt;Node8</title>
<path fill="none" stroke="midnightblue" d="M87.2323,-342.701C133.765,-388.449 248.634,-492.065 369,-529.5 538.881,-582.335 746.29,-457.138 812.568,-412.54"/>
<polygon fill="midnightblue" stroke="midnightblue" points="89.6673,-340.186 80.107,-335.62 84.7329,-345.151 89.6673,-340.186"/>
</g>
<!-- Node24 -->
<g id="node24" class="node"><title>Node24</title>
<g id="a_node24"><a xlink:href="classscram_1_1mef_1_1ExpressionFormula.xhtml#a1f7c71744d679ab1a4e5ca3ca98277a6" target="_top" xlink:title="Computes the expression with argument expression default values. ">
<polygon fill="white" stroke="black" points="165,-246 165,-287 333,-287 333,-246 165,-246"/>
<text text-anchor="start" x="173" y="-275" font-family="Helvetica,sans-Serif" font-size="10.00">scram::mef::ExpressionFormula</text>
<text text-anchor="start" x="173" y="-264" font-family="Helvetica,sans-Serif" font-size="10.00">&lt; NaryExpression&lt; T, 1 &gt;</text>
<text text-anchor="middle" x="249" y="-253" font-family="Helvetica,sans-Serif" font-size="10.00"> &gt;::value</text>
</a>
</g>
</g>
<!-- Node1&#45;&gt;Node24 -->
<g id="edge39" class="edge"><title>Node1&#45;&gt;Node24</title>
<path fill="none" stroke="midnightblue" d="M126.06,-302.581C142.919,-297.592 161.361,-292.136 178.681,-287.011"/>
<polygon fill="midnightblue" stroke="midnightblue" points="124.932,-299.264 116.336,-305.458 126.919,-305.977 124.932,-299.264"/>
</g>
<!-- Node3 -->
<g id="node3" class="node"><title>Node3</title>
<g id="a_node3"><a xlink:href="classscram_1_1mef_1_1NaryExpression_3_01T_00-1_01_4.xhtml#aad5811e7fc2298aaf486697e050774fa" target="_top" xlink:title="Computes the expression value with a given argument value extractor. ">
<polygon fill="white" stroke="black" points="579,-378.5 579,-408.5 731,-408.5 731,-378.5 579,-378.5"/>
<text text-anchor="start" x="587" y="-396.5" font-family="Helvetica,sans-Serif" font-size="10.00">scram::mef::NaryExpression</text>
<text text-anchor="middle" x="655" y="-385.5" font-family="Helvetica,sans-Serif" font-size="10.00">&lt; T,&#45;1 &gt;::Compute</text>
</a>
</g>
</g>
<!-- Node2&#45;&gt;Node3 -->
<g id="edge2" class="edge"><title>Node2&#45;&gt;Node3</title>
<path fill="none" stroke="midnightblue" d="M278.93,-341.406C302.051,-356.808 335.953,-376.567 369,-385.5 438.286,-404.229 520.517,-404.308 578.8,-400.855"/>
<polygon fill="midnightblue" stroke="midnightblue" points="280.856,-338.483 270.62,-335.747 276.916,-344.269 280.856,-338.483"/>
</g>
<!-- Node4 -->
<g id="node4" class="node"><title>Node4</title>
<g id="a_node4"><a xlink:href="expression_8cc.xhtml#a9b787fed653e7b5a1b6d6ace04643516" target="_top" xlink:title="Ensures that expression yields non&#45;negative (&gt;= 0) values. ">
<polygon fill="white" stroke="black" points="369,-283 369,-302 542,-302 542,-283 369,-283"/>
<text text-anchor="middle" x="455.5" y="-290" font-family="Helvetica,sans-Serif" font-size="10.00">scram::mef::EnsureNonNegative</text>
</a>
</g>
</g>
<!-- Node2&#45;&gt;Node4 -->
<g id="edge3" class="edge"><title>Node2&#45;&gt;Node4</title>
<path fill="none" stroke="midnightblue" d="M323.565,-310.428C343.559,-307.69 365.145,-304.734 384.911,-302.028"/>
<polygon fill="midnightblue" stroke="midnightblue" points="323.017,-306.97 313.584,-311.794 323.966,-313.905 323.017,-306.97"/>
</g>
<!-- Node11 -->
<g id="node11" class="node"><title>Node11</title>
<g id="a_node11"><a xlink:href="expression_8cc.xhtml#a0361a4eda6025e09ca91ec2d1447ad1b" target="_top" xlink:title="Ensures that expression yields positive (&gt; 0) values. ">
<polygon fill="white" stroke="black" points="382,-339 382,-358 529,-358 529,-339 382,-339"/>
<text text-anchor="middle" x="455.5" y="-346" font-family="Helvetica,sans-Serif" font-size="10.00">scram::mef::EnsurePositive</text>
</a>
</g>
</g>
<!-- Node2&#45;&gt;Node11 -->
<g id="edge12" class="edge"><title>Node2&#45;&gt;Node11</title>
<path fill="none" stroke="midnightblue" d="M323.565,-330.572C343.559,-333.31 365.145,-336.266 384.911,-338.972"/>
<polygon fill="midnightblue" stroke="midnightblue" points="323.966,-327.095 313.584,-329.206 323.017,-334.03 323.966,-327.095"/>
</g>
<!-- Node12 -->
<g id="node12" class="node"><title>Node12</title>
<g id="a_node12"><a xlink:href="expression_8cc.xhtml#a2c0a639b694ccfdf4b7d6913d8a635de" target="_top" xlink:title="Ensures that expression can be used for probability ([0, 1]). ">
<polygon fill="white" stroke="black" points="375.5,-79 375.5,-98 535.5,-98 535.5,-79 375.5,-79"/>
<text text-anchor="middle" x="455.5" y="-86" font-family="Helvetica,sans-Serif" font-size="10.00">scram::mef::EnsureProbability</text>
</a>
</g>
</g>
<!-- Node2&#45;&gt;Node12 -->
<g id="edge19" class="edge"><title>Node2&#45;&gt;Node12</title>
<path fill="none" stroke="midnightblue" d="M322.447,-305.279C326.305,-302.773 329.872,-299.868 333,-296.5 385.85,-239.588 319.867,-185.649 369,-125.5 379.846,-112.222 396.369,-103.597 412.008,-98.047"/>
<polygon fill="midnightblue" stroke="midnightblue" points="320.669,-302.262 313.595,-310.149 324.044,-308.395 320.669,-302.262"/>
</g>
<!-- Node19 -->
<g id="node19" class="node"><title>Node19</title>
<g id="a_node19"><a xlink:href="expression_8cc.xhtml#aa5f8250f3fc162fc8c018bd57c877a0e" target="_top" xlink:title="Ensures that expression values are within the interval. ">
<polygon fill="white" stroke="black" points="386,-433 386,-452 525,-452 525,-433 386,-433"/>
<text text-anchor="middle" x="455.5" y="-440" font-family="Helvetica,sans-Serif" font-size="10.00">scram::mef::EnsureWithin</text>
</a>
</g>
</g>
<!-- Node2&#45;&gt;Node19 -->
<g id="edge30" class="edge"><title>Node2&#45;&gt;Node19</title>
<path fill="none" stroke="midnightblue" d="M271.588,-343.094C293.992,-365.301 331.014,-398.662 369,-418.5 380.753,-424.638 394.258,-429.36 407.012,-432.926"/>
<polygon fill="midnightblue" stroke="midnightblue" points="273.824,-340.379 264.296,-335.745 268.855,-345.309 273.824,-340.379"/>
</g>
<!-- Node20 -->
<g id="node20" class="node"><title>Node20</title>
<g id="a_node20"><a xlink:href="classscram_1_1mef_1_1Switch.xhtml#aece696754288dcbdbcda71355da80a19" target="_top" xlink:title="scram::mef::Switch\l::interval">
<polygon fill="white" stroke="black" points="401.5,-233.5 401.5,-263.5 509.5,-263.5 509.5,-233.5 401.5,-233.5"/>
<text text-anchor="start" x="409.5" y="-251.5" font-family="Helvetica,sans-Serif" font-size="10.00">scram::mef::Switch</text>
<text text-anchor="middle" x="455.5" y="-240.5" font-family="Helvetica,sans-Serif" font-size="10.00">::interval</text>
</a>
</g>
</g>
<!-- Node2&#45;&gt;Node20 -->
<g id="edge34" class="edge"><title>Node2&#45;&gt;Node20</title>
<path fill="none" stroke="midnightblue" d="M319.362,-302.087C324.033,-300.346 328.618,-298.483 333,-296.5 350.298,-288.671 351.714,-281.354 369,-273.5 379.138,-268.894 390.336,-264.901 401.196,-261.541"/>
<polygon fill="midnightblue" stroke="midnightblue" points="317.965,-298.869 309.695,-305.491 320.29,-305.471 317.965,-298.869"/>
</g>
<!-- Node21 -->
<g id="node21" class="node"><title>Node21</title>
<g id="a_node21"><a xlink:href="classscram_1_1mef_1_1LognormalDeviate.xhtml#a18f3499d5d98d1af462db56d07069997" target="_top" xlink:title="scram::mef::LognormalDeviate\l::value">
<polygon fill="white" stroke="black" points="373,-184.5 373,-214.5 538,-214.5 538,-184.5 373,-184.5"/>
<text text-anchor="start" x="381" y="-202.5" font-family="Helvetica,sans-Serif" font-size="10.00">scram::mef::LognormalDeviate</text>
<text text-anchor="middle" x="455.5" y="-191.5" font-family="Helvetica,sans-Serif" font-size="10.00">::value</text>
</a>
</g>
</g>
<!-- Node2&#45;&gt;Node21 -->
<g id="edge35" class="edge"><title>Node2&#45;&gt;Node21</title>
<path fill="none" stroke="midnightblue" d="M322.526,-303.743C326.24,-301.611 329.765,-299.208 333,-296.5 360.737,-273.277 341.173,-246.615 369,-223.5 373.151,-220.052 377.765,-217.098 382.638,-214.568"/>
<polygon fill="midnightblue" stroke="midnightblue" points="320.933,-300.626 313.567,-308.242 324.075,-306.882 320.933,-300.626"/>
</g>
<!-- Node22 -->
<g id="node22" class="node"><title>Node22</title>
<g id="a_node22"><a xlink:href="classscram_1_1mef_1_1GammaDeviate.xhtml#aac9dd9e446203c28033a32385a68570c" target="_top" xlink:title="scram::mef::GammaDeviate\l::value">
<polygon fill="white" stroke="black" points="379,-135.5 379,-165.5 532,-165.5 532,-135.5 379,-135.5"/>
<text text-anchor="start" x="387" y="-153.5" font-family="Helvetica,sans-Serif" font-size="10.00">scram::mef::GammaDeviate</text>
<text text-anchor="middle" x="455.5" y="-142.5" font-family="Helvetica,sans-Serif" font-size="10.00">::value</text>
</a>
</g>
</g>
<!-- Node2&#45;&gt;Node22 -->
<g id="edge36" class="edge"><title>Node2&#45;&gt;Node22</title>
<path fill="none" stroke="midnightblue" d="M322.675,-304.65C326.406,-302.294 329.889,-299.594 333,-296.5 373.084,-256.634 328.76,-214.209 369,-174.5 372.512,-171.035 376.481,-168.061 380.74,-165.509"/>
<polygon fill="midnightblue" stroke="midnightblue" points="320.727,-301.724 313.582,-309.547 324.046,-307.887 320.727,-301.724"/>
</g>
<!-- Node23 -->
<g id="node23" class="node"><title>Node23</title>
<g id="a_node23"><a xlink:href="classscram_1_1mef_1_1BetaDeviate.xhtml#a23cf22ef291bb47601ddefd7640fe93a" target="_top" xlink:title="scram::mef::BetaDeviate\l::value">
<polygon fill="white" stroke="black" points="387,-489.5 387,-519.5 524,-519.5 524,-489.5 387,-489.5"/>
<text text-anchor="start" x="395" y="-507.5" font-family="Helvetica,sans-Serif" font-size="10.00">scram::mef::BetaDeviate</text>
<text text-anchor="middle" x="455.5" y="-496.5" font-family="Helvetica,sans-Serif" font-size="10.00">::value</text>
</a>
</g>
</g>
<!-- Node2&#45;&gt;Node23 -->
<g id="edge37" class="edge"><title>Node2&#45;&gt;Node23</title>
<path fill="none" stroke="midnightblue" d="M261.732,-344.827C279.859,-379.842 317.982,-444.117 369,-479.5 374.592,-483.378 380.787,-486.661 387.213,-489.44"/>
<polygon fill="midnightblue" stroke="midnightblue" points="264.791,-343.12 257.155,-335.775 258.544,-346.279 264.791,-343.12"/>
</g>
<!-- Node4&#45;&gt;Node3 -->
<g id="edge5" class="edge"><title>Node4&#45;&gt;Node3</title>
<path fill="none" stroke="midnightblue" d="M496.19,-305.678C511.275,-311.686 528.148,-319.675 542,-329.5 561.241,-343.146 558.161,-355.739 578,-368.5 583.958,-372.332 590.558,-375.63 597.309,-378.453"/>
<polygon fill="midnightblue" stroke="midnightblue" points="497.176,-302.308 486.585,-302.017 494.683,-308.849 497.176,-302.308"/>
</g>
<!-- Node4&#45;&gt;Node4 -->
<g id="edge6" class="edge"><title>Node4&#45;&gt;Node4</title>
<path fill="none" stroke="midnightblue" d="M418.375,-310.004C418.381,-315.836 430.756,-320.5 455.5,-320.5 490.691,-320.5 500.864,-311.065 486.018,-302.257"/>
<polygon fill="midnightblue" stroke="midnightblue" points="421.156,-312.137 424.982,-302.257 415.83,-307.594 421.156,-312.137"/>
</g>
<!-- Node5 -->
<g id="node5" class="node"><title>Node5</title>
<g id="a_node5"><a xlink:href="classscram_1_1mef_1_1Mean.xhtml#ab75b082938d5f6ed2b7bd2d45c3c850b" target="_top" xlink:title="Computes the expression value with a given argument value extractor. ">
<polygon fill="white" stroke="black" points="578,-428 578,-447 732,-447 732,-428 578,-428"/>
<text text-anchor="middle" x="655" y="-435" font-family="Helvetica,sans-Serif" font-size="10.00">scram::mef::Mean::Compute</text>
</a>
</g>
</g>
<!-- Node4&#45;&gt;Node5 -->
<g id="edge4" class="edge"><title>Node4&#45;&gt;Node5</title>
<path fill="none" stroke="midnightblue" d="M504.462,-305.711C517.937,-311.287 531.706,-318.997 542,-329.5 571.579,-359.679 546.228,-389.639 578,-417.5 582.924,-421.818 588.673,-425.22 594.765,-427.897"/>
<polygon fill="midnightblue" stroke="midnightblue" points="505.346,-302.303 494.755,-302.019 502.857,-308.845 505.346,-302.303"/>
</g>
<!-- Node6 -->
<g id="node6" class="node"><title>Node6</title>
<g id="a_node6"><a xlink:href="classscram_1_1mef_1_1PeriodicTest.xhtml#a546bf1c23ba3926f124de31d7b08b4c3" target="_top" xlink:title="Fully parametrized periodic&#45;test description. ">
<polygon fill="white" stroke="black" points="588,-280.5 588,-310.5 722,-310.5 722,-280.5 588,-280.5"/>
<text text-anchor="start" x="596" y="-298.5" font-family="Helvetica,sans-Serif" font-size="10.00">scram::mef::PeriodicTest</text>
<text text-anchor="middle" x="655" y="-287.5" font-family="Helvetica,sans-Serif" font-size="10.00">::PeriodicTest</text>
</a>
</g>
</g>
<!-- Node4&#45;&gt;Node6 -->
<g id="edge7" class="edge"><title>Node4&#45;&gt;Node6</title>
<path fill="none" stroke="midnightblue" d="M552.352,-293.956C564.396,-294.139 576.497,-294.323 587.939,-294.497"/>
<polygon fill="midnightblue" stroke="midnightblue" points="552.317,-290.455 542.265,-293.803 552.21,-297.454 552.317,-290.455"/>
</g>
<!-- Node7 -->
<g id="node7" class="node"><title>Node7</title>
<g id="a_node7"><a xlink:href="classscram_1_1mef_1_1Exponential.xhtml#a93569be7f366dce3dd25dcbb083ca774" target="_top" xlink:title="scram::mef::Exponential\l::Validate">
<polygon fill="white" stroke="black" points="588.5,-231.5 588.5,-261.5 721.5,-261.5 721.5,-231.5 588.5,-231.5"/>
<text text-anchor="start" x="596.5" y="-249.5" font-family="Helvetica,sans-Serif" font-size="10.00">scram::mef::Exponential</text>
<text text-anchor="middle" x="655" y="-238.5" font-family="Helvetica,sans-Serif" font-size="10.00">::Validate</text>
</a>
</g>
</g>
<!-- Node4&#45;&gt;Node7 -->
<g id="edge8" class="edge"><title>Node4&#45;&gt;Node7</title>
<path fill="none" stroke="midnightblue" d="M507.423,-280.64C532.418,-274.818 562.804,-267.741 589.414,-261.543"/>
<polygon fill="midnightblue" stroke="midnightblue" points="506.367,-277.292 497.422,-282.969 507.955,-284.109 506.367,-277.292"/>
</g>
<!-- Node9 -->
<g id="node9" class="node"><title>Node9</title>
<g id="a_node9"><a xlink:href="classscram_1_1mef_1_1Glm.xhtml#a48b4b735418eee27d2c4b81b9e59be85" target="_top" xlink:title="Validates the expression. ">
<polygon fill="white" stroke="black" points="584.5,-193 584.5,-212 725.5,-212 725.5,-193 584.5,-193"/>
<text text-anchor="middle" x="655" y="-200" font-family="Helvetica,sans-Serif" font-size="10.00">scram::mef::Glm::Validate</text>
</a>
</g>
</g>
<!-- Node4&#45;&gt;Node9 -->
<g id="edge10" class="edge"><title>Node4&#45;&gt;Node9</title>
<path fill="none" stroke="midnightblue" d="M530.104,-279.134C534.27,-277.21 538.273,-275.012 542,-272.5 565.009,-256.996 555.11,-237.179 578,-221.5 583.61,-217.657 589.928,-214.591 596.464,-212.144"/>
<polygon fill="midnightblue" stroke="midnightblue" points="528.718,-275.919 520.769,-282.923 531.351,-282.405 528.718,-275.919"/>
</g>
<!-- Node10 -->
<g id="node10" class="node"><title>Node10</title>
<g id="a_node10"><a xlink:href="classscram_1_1mef_1_1Weibull.xhtml#ad36688cf28ab24dd909832cd05aad328" target="_top" xlink:title="Validates the expression. ">
<polygon fill="white" stroke="black" points="600,-329.5 600,-359.5 710,-359.5 710,-329.5 600,-329.5"/>
<text text-anchor="start" x="608" y="-347.5" font-family="Helvetica,sans-Serif" font-size="10.00">scram::mef::Weibull</text>
<text text-anchor="middle" x="655" y="-336.5" font-family="Helvetica,sans-Serif" font-size="10.00">::Validate</text>
</a>
</g>
</g>
<!-- Node4&#45;&gt;Node10 -->
<g id="edge11" class="edge"><title>Node4&#45;&gt;Node10</title>
<path fill="none" stroke="midnightblue" d="M502.612,-304.641C531.651,-312.287 569.27,-322.191 599.742,-330.214"/>
<polygon fill="midnightblue" stroke="midnightblue" points="503.286,-301.199 492.725,-302.038 501.504,-307.968 503.286,-301.199"/>
</g>
<!-- Node7&#45;&gt;Node8 -->
<g id="edge9" class="edge"><title>Node7&#45;&gt;Node8</title>
<path fill="none" stroke="midnightblue" d="M724.881,-266.112C727.34,-267.482 729.723,-268.942 732,-270.5 776.112,-300.679 810.686,-355.52 825.762,-382.158"/>
<polygon fill="midnightblue" stroke="midnightblue" points="726.211,-262.865 715.699,-261.544 723.093,-269.132 726.211,-262.865"/>
</g>
<!-- Node11&#45;&gt;Node3 -->
<g id="edge14" class="edge"><title>Node11&#45;&gt;Node3</title>
<path fill="none" stroke="midnightblue" d="M508.176,-360.274C532.609,-365.841 562.061,-372.552 588.081,-378.48"/>
<polygon fill="midnightblue" stroke="midnightblue" points="508.912,-356.852 498.385,-358.043 507.357,-363.678 508.912,-356.852"/>
</g>
<!-- Node11&#45;&gt;Node5 -->
<g id="edge13" class="edge"><title>Node11&#45;&gt;Node5</title>
<path fill="none" stroke="midnightblue" d="M479.09,-363.707C502.833,-379.11 541.707,-402.713 578,-417.5 588.108,-421.618 599.321,-425.116 609.96,-427.979"/>
<polygon fill="midnightblue" stroke="midnightblue" points="480.755,-360.613 470.476,-358.046 476.911,-366.463 480.755,-360.613"/>
</g>
<!-- Node11&#45;&gt;Node6 -->
<g id="edge16" class="edge"><title>Node11&#45;&gt;Node6</title>
<path fill="none" stroke="midnightblue" d="M512.184,-336.77C522.144,-334.488 532.403,-332.019 542,-329.5 563.62,-323.825 587.339,-316.749 607.362,-310.525"/>
<polygon fill="midnightblue" stroke="midnightblue" points="511.345,-333.371 502.358,-338.983 512.883,-340.2 511.345,-333.371"/>
</g>
<!-- Node11&#45;&gt;Node9 -->
<g id="edge17" class="edge"><title>Node11&#45;&gt;Node9</title>
<path fill="none" stroke="midnightblue" d="M536.639,-333.758C538.51,-332.447 540.303,-331.031 542,-329.5 579.573,-295.614 540.876,-255.878 578,-221.5 582.091,-217.711 586.822,-214.649 591.881,-212.177"/>
<polygon fill="midnightblue" stroke="midnightblue" points="534.83,-330.761 527.986,-338.849 538.379,-336.794 534.83,-330.761"/>
</g>
<!-- Node11&#45;&gt;Node10 -->
<g id="edge18" class="edge"><title>Node11&#45;&gt;Node10</title>
<path fill="none" stroke="midnightblue" d="M539.473,-346.82C559.931,-346.405 581.317,-345.972 599.995,-345.594"/>
<polygon fill="midnightblue" stroke="midnightblue" points="539.127,-343.326 529.2,-347.028 539.269,-350.324 539.127,-343.326"/>
</g>
<!-- Node11&#45;&gt;Node11 -->
<g id="edge15" class="edge"><title>Node11&#45;&gt;Node11</title>
<path fill="none" stroke="midnightblue" d="M418.375,-366.004C418.381,-371.836 430.756,-376.5 455.5,-376.5 490.691,-376.5 500.864,-367.065 486.018,-358.257"/>
<polygon fill="midnightblue" stroke="midnightblue" points="421.156,-368.137 424.982,-358.257 415.83,-363.594 421.156,-368.137"/>
</g>
<!-- Node12&#45;&gt;Node3 -->
<g id="edge20" class="edge"><title>Node12&#45;&gt;Node3</title>
<path fill="none" stroke="midnightblue" d="M509.721,-101.79C521.999,-107.242 533.838,-114.868 542,-125.5 608.484,-212.102 507.662,-284.998 578,-368.5 581.221,-372.324 585.04,-375.568 589.224,-378.317"/>
<polygon fill="midnightblue" stroke="midnightblue" points="510.884,-98.4857 500.299,-98.0308 508.29,-104.987 510.884,-98.4857"/>
</g>
<!-- Node12&#45;&gt;Node6 -->
<g id="edge22" class="edge"><title>Node12&#45;&gt;Node6</title>
<path fill="none" stroke="midnightblue" d="M507.968,-101.88C520.624,-107.36 533.085,-114.978 542,-125.5 584.922,-176.163 532.827,-221.833 578,-270.5 581.591,-274.369 585.79,-277.639 590.338,-280.405"/>
<polygon fill="midnightblue" stroke="midnightblue" points="508.895,-98.4836 498.307,-98.0924 506.34,-105.001 508.895,-98.4836"/>
</g>
<!-- Node12&#45;&gt;Node9 -->
<g id="edge23" class="edge"><title>Node12&#45;&gt;Node9</title>
<path fill="none" stroke="midnightblue" d="M491.571,-101.877C507.326,-108.34 525.944,-116.617 542,-125.5 580.197,-146.633 621.677,-177.434 641.748,-192.894"/>
<polygon fill="midnightblue" stroke="midnightblue" points="492.764,-98.5842 482.18,-98.0982 490.151,-105.078 492.764,-98.5842"/>
</g>
<!-- Node12&#45;&gt;Node12 -->
<g id="edge21" class="edge"><title>Node12&#45;&gt;Node12</title>
<path fill="none" stroke="midnightblue" d="M418.375,-106.004C418.381,-111.836 430.756,-116.5 455.5,-116.5 490.691,-116.5 500.864,-107.065 486.018,-98.2571"/>
<polygon fill="midnightblue" stroke="midnightblue" points="421.156,-108.137 424.982,-98.2571 415.83,-103.594 421.156,-108.137"/>
</g>
<!-- Node13 -->
<g id="node13" class="node"><title>Node13</title>
<g id="a_node13"><a xlink:href="classscram_1_1mef_1_1BasicEvent.xhtml#acfc0e73e1add67aa2ace841350eb62cd" target="_top" xlink:title="Validates the probability expressions for the primary event. ">
<polygon fill="white" stroke="black" points="590,-49.5 590,-79.5 720,-79.5 720,-49.5 590,-49.5"/>
<text text-anchor="start" x="598" y="-67.5" font-family="Helvetica,sans-Serif" font-size="10.00">scram::mef::BasicEvent</text>
<text text-anchor="middle" x="655" y="-56.5" font-family="Helvetica,sans-Serif" font-size="10.00">::Validate</text>
</a>
</g>
</g>
<!-- Node12&#45;&gt;Node13 -->
<g id="edge24" class="edge"><title>Node12&#45;&gt;Node13</title>
<path fill="none" stroke="midnightblue" d="M545.164,-77.7257C560.171,-75.9019 575.493,-74.04 589.723,-72.3108"/>
<polygon fill="midnightblue" stroke="midnightblue" points="544.346,-74.2993 534.841,-78.9801 545.19,-81.2481 544.346,-74.2993"/>
</g>
<!-- Node18 -->
<g id="node18" class="node"><title>Node18</title>
<g id="a_node18"><a xlink:href="classscram_1_1mef_1_1CcfGroup.xhtml#a31cbe59ce89f295de7bb810d8b75990e" target="_top" xlink:title="Validates the setup for the CCF model and group. ">
<polygon fill="white" stroke="black" points="594,-98.5 594,-128.5 716,-128.5 716,-98.5 594,-98.5"/>
<text text-anchor="start" x="602" y="-116.5" font-family="Helvetica,sans-Serif" font-size="10.00">scram::mef::CcfGroup</text>
<text text-anchor="middle" x="655" y="-105.5" font-family="Helvetica,sans-Serif" font-size="10.00">::Validate</text>
</a>
</g>
</g>
<!-- Node12&#45;&gt;Node18 -->
<g id="edge29" class="edge"><title>Node12&#45;&gt;Node18</title>
<path fill="none" stroke="midnightblue" d="M541.916,-99.3121C559.355,-101.52 577.36,-103.799 593.7,-105.867"/>
<polygon fill="midnightblue" stroke="midnightblue" points="542.09,-95.8063 531.73,-98.0227 541.211,-102.751 542.09,-95.8063"/>
</g>
<!-- Node14 -->
<g id="node14" class="node"><title>Node14</title>
<g id="a_node14"><a xlink:href="classscram_1_1mef_1_1CcfGroup.xhtml#a06dd05cabcbeddf42090536f6a47a184" target="_top" xlink:title="scram::mef::CcfGroup\l::members">
<polygon fill="white" stroke="black" points="774,-49.5 774,-79.5 896,-79.5 896,-49.5 774,-49.5"/>
<text text-anchor="start" x="782" y="-67.5" font-family="Helvetica,sans-Serif" font-size="10.00">scram::mef::CcfGroup</text>
<text text-anchor="middle" x="835" y="-56.5" font-family="Helvetica,sans-Serif" font-size="10.00">::members</text>
</a>
</g>
</g>
<!-- Node13&#45;&gt;Node14 -->
<g id="edge25" class="edge"><title>Node13&#45;&gt;Node14</title>
<path fill="none" stroke="midnightblue" d="M730.428,-64.5C744.893,-64.5 759.886,-64.5 773.823,-64.5"/>
<polygon fill="midnightblue" stroke="midnightblue" points="730.011,-61.0001 720.011,-64.5 730.011,-68.0001 730.011,-61.0001"/>
</g>
<!-- Node15 -->
<g id="node15" class="node"><title>Node15</title>
<g id="a_node15"><a xlink:href="classscram_1_1mef_1_1Component.xhtml#a4fd4a9b195b92c8061149da20f5bd3f0" target="_top" xlink:title="Adds MEF constructs into this component container. ">
<polygon fill="white" stroke="black" points="946,-99 946,-118 1104,-118 1104,-99 946,-99"/>
<text text-anchor="middle" x="1025" y="-106" font-family="Helvetica,sans-Serif" font-size="10.00">scram::mef::Component::Add</text>
</a>
</g>
</g>
<!-- Node14&#45;&gt;Node15 -->
<g id="edge26" class="edge"><title>Node14&#45;&gt;Node15</title>
<path fill="none" stroke="midnightblue" d="M905.914,-80.9756C916.658,-83.5003 927.625,-86.073 938,-88.5 952.628,-91.9218 968.659,-95.6546 982.875,-98.959"/>
<polygon fill="midnightblue" stroke="midnightblue" points="906.667,-77.5574 896.132,-78.676 905.065,-84.3717 906.667,-77.5574"/>
</g>
<!-- Node16 -->
<g id="node16" class="node"><title>Node16</title>
<g id="a_node16"><a xlink:href="classscram_1_1mef_1_1CcfGroup.xhtml#ab399c5ed0c1d7d0a316ac3b7244b7eb9" target="_top" xlink:title="Processes the given factors and members to create common cause failure probabilities and new events t...">
<polygon fill="white" stroke="black" points="964,-49.5 964,-79.5 1086,-79.5 1086,-49.5 964,-49.5"/>
<text text-anchor="start" x="972" y="-67.5" font-family="Helvetica,sans-Serif" font-size="10.00">scram::mef::CcfGroup</text>
<text text-anchor="middle" x="1025" y="-56.5" font-family="Helvetica,sans-Serif" font-size="10.00">::ApplyModel</text>
</a>
</g>
</g>
<!-- Node14&#45;&gt;Node16 -->
<g id="edge27" class="edge"><title>Node14&#45;&gt;Node16</title>
<path fill="none" stroke="midnightblue" d="M906.097,-64.5C925.109,-64.5 945.519,-64.5 963.924,-64.5"/>
<polygon fill="midnightblue" stroke="midnightblue" points="906.001,-61.0001 896.001,-64.5 906.001,-68.0001 906.001,-61.0001"/>
</g>
<!-- Node17 -->
<g id="node17" class="node"><title>Node17</title>
<g id="a_node17"><a xlink:href="reporter_8cc.xhtml#a73f9569f4c2e2b6a3eac8d2c01b81943" target="_top" xlink:title="Describes all performed analyses deduced from settings. ">
<polygon fill="white" stroke="black" points="938,-0.5 938,-30.5 1112,-30.5 1112,-0.5 938,-0.5"/>
<text text-anchor="start" x="946" y="-18.5" font-family="Helvetica,sans-Serif" font-size="10.00">scram::ReportCalculatedQuantity</text>
<text text-anchor="middle" x="1025" y="-7.5" font-family="Helvetica,sans-Serif" font-size="10.00">&lt; core::RiskAnalysis &gt;</text>
</a>
</g>
</g>
<!-- Node14&#45;&gt;Node17 -->
<g id="edge28" class="edge"><title>Node14&#45;&gt;Node17</title>
<path fill="none" stroke="midnightblue" d="M903.614,-46.8771C924.182,-41.5163 946.584,-35.6775 966.425,-30.5062"/>
<polygon fill="midnightblue" stroke="midnightblue" points="902.478,-43.5563 893.684,-49.4654 904.243,-50.33 902.478,-43.5563"/>
</g>
<!-- Node19&#45;&gt;Node3 -->
<g id="edge32" class="edge"><title>Node19&#45;&gt;Node3</title>
<path fill="none" stroke="midnightblue" d="M504.925,-430.486C531.611,-423.865 564.988,-415.584 593.392,-408.537"/>
<polygon fill="midnightblue" stroke="midnightblue" points="503.912,-427.131 495.049,-432.936 505.597,-433.925 503.912,-427.131"/>
</g>
<!-- Node19&#45;&gt;Node5 -->
<g id="edge31" class="edge"><title>Node19&#45;&gt;Node5</title>
<path fill="none" stroke="midnightblue" d="M535.144,-440.509C549.208,-440.153 563.84,-439.783 577.832,-439.428"/>
<polygon fill="midnightblue" stroke="midnightblue" points="534.93,-437.013 525.022,-440.765 535.107,-444.011 534.93,-437.013"/>
</g>
<!-- Node19&#45;&gt;Node19 -->
<g id="edge33" class="edge"><title>Node19&#45;&gt;Node19</title>
<path fill="none" stroke="midnightblue" d="M418.375,-460.004C418.381,-465.836 430.756,-470.5 455.5,-470.5 490.691,-470.5 500.864,-461.065 486.018,-452.257"/>
<polygon fill="midnightblue" stroke="midnightblue" points="421.156,-462.137 424.982,-452.257 415.83,-457.594 421.156,-462.137"/>
</g>
</g>
</svg>
        <g id="navigator" transform="translate(0 0)" fill="#404254">
                <rect fill="#f2f5e9" fill-opacity="0.5" stroke="#606060" stroke-width=".5" x="0" y="0" width="60" height="60"/>
                <use id="zoomplus" xlink:href="#zoomPlus" x="17" y="9" onmousedown="handleZoom(evt,'in')"/>
                <use id="zoomminus" xlink:href="#zoomMin" x="42" y="9" onmousedown="handleZoom(evt,'out')"/>
                <use id="reset" xlink:href="#resetDef" x="30" y="36" onmousedown="handleReset()"/>
                <g id="arrowUp" xlink:href="#dirArrow" transform="translate(30 24)" onmousedown="handlePan(0,-1)">
                  <use xlink:href="#rim" fill="#404040">
                        <set attributeName="fill" to="#808080" begin="arrowUp.mouseover" end="arrowUp.mouseout"/>
                  </use>
                  <path fill="none" stroke="white" stroke-width="1.5" d="M0,-3.0v7 M-2.5,-0.5L0,-3.0L2.5,-0.5"/>
                </g>
                <g id="arrowRight" xlink:href="#dirArrow" transform="rotate(90) translate(36 -43)" onmousedown="handlePan(1,0)">
                  <use xlink:href="#rim" fill="#404040">
                        <set attributeName="fill" to="#808080" begin="arrowRight.mouseover" end="arrowRight.mouseout"/>
                  </use>
                  <path fill="none" stroke="white" stroke-width="1.5" d="M0,-3.0v7 M-2.5,-0.5L0,-3.0L2.5,-0.5"/>
                </g>
                <g id="arrowDown" xlink:href="#dirArrow" transform="rotate(180) translate(-30 -48)" onmousedown="handlePan(0,1)">
                  <use xlink:href="#rim" fill="#404040">
                        <set attributeName="fill" to="#808080" begin="arrowDown.mouseover" end="arrowDown.mouseout"/>
                  </use>
                  <path fill="none" stroke="white" stroke-width="1.5" d="M0,-3.0v7 M-2.5,-0.5L0,-3.0L2.5,-0.5"/>
                </g>
                <g id="arrowLeft" xlink:href="#dirArrow" transform="rotate(270) translate(-36 17)" onmousedown="handlePan(-1,0)">
                  <use xlink:href="#rim" fill="#404040">
                        <set attributeName="fill" to="#808080" begin="arrowLeft.mouseover" end="arrowLeft.mouseout"/>
                  </use>
                  <path fill="none" stroke="white" stroke-width="1.5" d="M0,-3.0v7 M-2.5,-0.5L0,-3.0L2.5,-0.5"/>
                </g>
        </g>
        <svg viewBox="0 0 15 15" width="100%" height="30px" preserveAspectRatio="xMaxYMin meet">
         <g id="arrow_out" transform="scale(0.3 0.3)">
          <a xlink:href="classscram_1_1mef_1_1Expression_a5cf00d8b2ff843ad029a501a89ee572a_icgraph_org.svg" target="_base">
           <rect id="button" ry="5" rx="5" y="6" x="6" height="38" width="38"
                fill="#f2f5e9" fill-opacity="0.5" stroke="#606060" stroke-width="1.0"/>
           <path id="arrow"
             d="M 11.500037,31.436501 C 11.940474,20.09759 22.043105,11.32322 32.158766,21.979434 L 37.068811,17.246167 C 37.068811,17.246167 37.088388,32 37.088388,32 L 22.160133,31.978069 C 22.160133,31.978069 26.997745,27.140456 26.997745,27.140456 C 18.528582,18.264221 13.291696,25.230495 11.500037,31.436501 z"
             style="fill:#404040;"/>
          </a>
         </g>
        </svg>
</svg>
