<?xml version="1.0" encoding="UTF-8" standalone="no"?>
<!DOCTYPE svg PUBLIC "-//W3C//DTD SVG 1.1//EN"
 "http://www.w3.org/Graphics/SVG/1.1/DTD/svg11.dtd">
<!-- Generated by graphviz version 2.38.0 (20140413.2041)
 -->
<!-- Title: scram::mef::Model::GetEvent Pages: 1 -->
<svg width="268pt" height="137pt"
 viewBox="0.00 0.00 268.00 137.00" xmlns="http://www.w3.org/2000/svg" xmlns:xlink="http://www.w3.org/1999/xlink">
<g id="graph0" class="graph" transform="scale(1 1) rotate(0) translate(4 133)">
<title>scram::mef::Model::GetEvent</title>
<polygon fill="white" stroke="none" points="-4,4 -4,-133 264,-133 264,4 -4,4"/>
<!-- Node1 -->
<g id="node1" class="node"><title>Node1</title>
<polygon fill="#bfbfbf" stroke="black" points="0,-49.5 0,-79.5 112,-79.5 112,-49.5 0,-49.5"/>
<text text-anchor="start" x="8" y="-67.5" font-family="Helvetica,sans-Serif" font-size="10.00">scram::mef::Model::</text>
<text text-anchor="middle" x="56" y="-56.5" font-family="Helvetica,sans-Serif" font-size="10.00">GetEvent</text>
</g>
<!-- Node2 -->
<g id="node2" class="node"><title>Node2</title>
<g id="a_node2"><a xlink:href="classscram_1_1mef_1_1Model.xhtml#ada7804d62fc594bff7b080c680586209" target="_top" xlink:title="scram::mef::Model::\lbasic_events">
<polygon fill="white" stroke="black" points="148,-98.5 148,-128.5 260,-128.5 260,-98.5 148,-98.5"/>
<text text-anchor="start" x="156" y="-116.5" font-family="Helvetica,sans-Serif" font-size="10.00">scram::mef::Model::</text>
<text text-anchor="middle" x="204" y="-105.5" font-family="Helvetica,sans-Serif" font-size="10.00">basic_events</text>
</a>
</g>
</g>
<!-- Node1&#45;&gt;Node2 -->
<g id="edge1" class="edge"><title>Node1&#45;&gt;Node2</title>
<path fill="none" stroke="midnightblue" d="M101.996,-79.6014C116.636,-84.5147 133.046,-90.0224 148.314,-95.1466"/>
<polygon fill="midnightblue" stroke="midnightblue" points="147.558,-98.5847 158.152,-98.4484 149.786,-91.9485 147.558,-98.5847"/>
</g>
<!-- Node3 -->
<g id="node3" class="node"><title>Node3</title>
<g id="a_node3"><a xlink:href="classscram_1_1mef_1_1Model.xhtml#ab67ee068ec7f783c7b3c573270cf4fdb" target="_top" xlink:title="scram::mef::Model::\lgates">
<polygon fill="white" stroke="black" points="148,-49.5 148,-79.5 260,-79.5 260,-49.5 148,-49.5"/>
<text text-anchor="start" x="156" y="-67.5" font-family="Helvetica,sans-Serif" font-size="10.00">scram::mef::Model::</text>
<text text-anchor="middle" x="204" y="-56.5" font-family="Helvetica,sans-Serif" font-size="10.00">gates</text>
</a>
</g>
</g>
<!-- Node1&#45;&gt;Node3 -->
<g id="edge2" class="edge"><title>Node1&#45;&gt;Node3</title>
<path fill="none" stroke="midnightblue" d="M112.196,-64.5C120.463,-64.5 129.055,-64.5 137.51,-64.5"/>
<polygon fill="midnightblue" stroke="midnightblue" points="137.726,-68.0001 147.726,-64.5 137.726,-61.0001 137.726,-68.0001"/>
</g>
<!-- Node4 -->
<g id="node4" class="node"><title>Node4</title>
<g id="a_node4"><a xlink:href="classscram_1_1mef_1_1Model.xhtml#a2ddd6d121e1ab6fbe140fc3fb449cd96" target="_top" xlink:title="scram::mef::Model::\lhouse_events">
<polygon fill="white" stroke="black" points="148,-0.5 148,-30.5 260,-30.5 260,-0.5 148,-0.5"/>
<text text-anchor="start" x="156" y="-18.5" font-family="Helvetica,sans-Serif" font-size="10.00">scram::mef::Model::</text>
<text text-anchor="middle" x="204" y="-7.5" font-family="Helvetica,sans-Serif" font-size="10.00">house_events</text>
</a>
</g>
</g>
<!-- Node1&#45;&gt;Node4 -->
<g id="edge3" class="edge"><title>Node1&#45;&gt;Node4</title>
<path fill="none" stroke="midnightblue" d="M101.996,-49.3986C116.636,-44.4853 133.046,-38.9776 148.314,-33.8534"/>
<polygon fill="midnightblue" stroke="midnightblue" points="149.786,-37.0515 158.152,-30.5516 147.558,-30.4153 149.786,-37.0515"/>
</g>
</g>
</svg>
