<?xml version="1.0" encoding="UTF-8" standalone="no"?>
<!DOCTYPE svg PUBLIC "-//W3C//DTD SVG 1.1//EN"
 "http://www.w3.org/Graphics/SVG/1.1/DTD/svg11.dtd">
<!-- Generated by graphviz version 2.38.0 (20140413.2041)
 -->
<!-- Title: scram::Error Pages: 1 -->
<svg width="1491pt" height="392pt"
 viewBox="0.00 0.00 1491.00 392.00" xmlns="http://www.w3.org/2000/svg" xmlns:xlink="http://www.w3.org/1999/xlink">
<g id="graph0" class="graph" transform="scale(1 1) rotate(0) translate(4 388)">
<title>scram::Error</title>
<polygon fill="white" stroke="none" points="-4,4 -4,-388 1487,-388 1487,4 -4,4"/>
<!-- Node1 -->
<g id="node1" class="node"><title>Node1</title>
<polygon fill="#bfbfbf" stroke="black" points="369.5,-199.5 369.5,-289.5 445.5,-289.5 445.5,-199.5 369.5,-199.5"/>
<text text-anchor="middle" x="407.5" y="-277.5" font-family="Helvetica,sans-Serif" font-size="10.00">scram::Error</text>
<polyline fill="none" stroke="black" points="369.5,-270.5 445.5,-270.5 "/>
<text text-anchor="middle" x="407.5" y="-258.5" font-family="Helvetica,sans-Serif" font-size="10.00"> </text>
<polyline fill="none" stroke="black" points="369.5,-251.5 445.5,-251.5 "/>
<text text-anchor="start" x="377.5" y="-239.5" font-family="Helvetica,sans-Serif" font-size="10.00">+ Error()</text>
<text text-anchor="start" x="377.5" y="-228.5" font-family="Helvetica,sans-Serif" font-size="10.00">+ Error()</text>
<text text-anchor="start" x="377.5" y="-217.5" font-family="Helvetica,sans-Serif" font-size="10.00">+ ~Error()</text>
<text text-anchor="start" x="377.5" y="-206.5" font-family="Helvetica,sans-Serif" font-size="10.00">+ what()</text>
</g>
<!-- Node4 -->
<g id="node4" class="node"><title>Node4</title>
<g id="a_node4"><a xlink:href="structscram_1_1DLError.xhtml" target="_top" xlink:title="Dynamic library errors. ">
<polygon fill="white" stroke="black" points="0,-105.5 0,-162.5 89,-162.5 89,-105.5 0,-105.5"/>
<text text-anchor="middle" x="44.5" y="-150.5" font-family="Helvetica,sans-Serif" font-size="10.00">scram::DLError</text>
<polyline fill="none" stroke="black" points="0,-143.5 89,-143.5 "/>
<text text-anchor="middle" x="44.5" y="-131.5" font-family="Helvetica,sans-Serif" font-size="10.00"> </text>
<polyline fill="none" stroke="black" points="0,-124.5 89,-124.5 "/>
<text text-anchor="middle" x="44.5" y="-112.5" font-family="Helvetica,sans-Serif" font-size="10.00"> </text>
</a>
</g>
</g>
<!-- Node1&#45;&gt;Node4 -->
<g id="edge3" class="edge"><title>Node1&#45;&gt;Node4</title>
<path fill="none" stroke="midnightblue" d="M359.528,-234.646C297.67,-222.421 187.365,-197.861 97.5,-163 94.7834,-161.946 92.027,-160.788 89.2721,-159.561"/>
<polygon fill="none" stroke="midnightblue" points="358.911,-238.092 369.396,-236.573 360.252,-231.222 358.911,-238.092"/>
</g>
<!-- Node5 -->
<g id="node5" class="node"><title>Node5</title>
<g id="a_node5"><a xlink:href="structscram_1_1IllegalOperation.xhtml" target="_top" xlink:title="This error can be used to indicate that call for a function or operation is not legal. ">
<polygon fill="white" stroke="black" points="107,-105.5 107,-162.5 234,-162.5 234,-105.5 107,-105.5"/>
<text text-anchor="middle" x="170.5" y="-150.5" font-family="Helvetica,sans-Serif" font-size="10.00">scram::IllegalOperation</text>
<polyline fill="none" stroke="black" points="107,-143.5 234,-143.5 "/>
<text text-anchor="middle" x="170.5" y="-131.5" font-family="Helvetica,sans-Serif" font-size="10.00"> </text>
<polyline fill="none" stroke="black" points="107,-124.5 234,-124.5 "/>
<text text-anchor="middle" x="170.5" y="-112.5" font-family="Helvetica,sans-Serif" font-size="10.00"> </text>
</a>
</g>
</g>
<!-- Node1&#45;&gt;Node5 -->
<g id="edge4" class="edge"><title>Node1&#45;&gt;Node5</title>
<path fill="none" stroke="midnightblue" d="M360.296,-221.89C323.072,-204.848 270.907,-180.967 230.683,-162.552"/>
<polygon fill="none" stroke="midnightblue" points="358.872,-225.087 369.422,-226.068 361.786,-218.723 358.872,-225.087"/>
</g>
<!-- Node6 -->
<g id="node6" class="node"><title>Node6</title>
<g id="a_node6"><a xlink:href="structscram_1_1IOError.xhtml" target="_top" xlink:title="For input/output related errors. ">
<polygon fill="white" stroke="black" points="252.5,-105.5 252.5,-162.5 338.5,-162.5 338.5,-105.5 252.5,-105.5"/>
<text text-anchor="middle" x="295.5" y="-150.5" font-family="Helvetica,sans-Serif" font-size="10.00">scram::IOError</text>
<polyline fill="none" stroke="black" points="252.5,-143.5 338.5,-143.5 "/>
<text text-anchor="middle" x="295.5" y="-131.5" font-family="Helvetica,sans-Serif" font-size="10.00"> </text>
<polyline fill="none" stroke="black" points="252.5,-124.5 338.5,-124.5 "/>
<text text-anchor="middle" x="295.5" y="-112.5" font-family="Helvetica,sans-Serif" font-size="10.00"> </text>
</a>
</g>
</g>
<!-- Node1&#45;&gt;Node6 -->
<g id="edge5" class="edge"><title>Node1&#45;&gt;Node6</title>
<path fill="none" stroke="midnightblue" d="M361.842,-199.269C349.046,-186.872 335.502,-173.752 324.012,-162.621"/>
<polygon fill="none" stroke="midnightblue" points="359.651,-202.02 369.269,-206.464 364.522,-196.992 359.651,-202.02"/>
</g>
<!-- Node7 -->
<g id="node7" class="node"><title>Node7</title>
<g id="a_node7"><a xlink:href="structscram_1_1LogicError.xhtml" target="_top" xlink:title="Signals internal logic errors, for example, pre&#45;condition failure or use of functionality in ways not...">
<polygon fill="white" stroke="black" points="357,-105.5 357,-162.5 458,-162.5 458,-105.5 357,-105.5"/>
<text text-anchor="middle" x="407.5" y="-150.5" font-family="Helvetica,sans-Serif" font-size="10.00">scram::LogicError</text>
<polyline fill="none" stroke="black" points="357,-143.5 458,-143.5 "/>
<text text-anchor="middle" x="407.5" y="-131.5" font-family="Helvetica,sans-Serif" font-size="10.00"> </text>
<polyline fill="none" stroke="black" points="357,-124.5 458,-124.5 "/>
<text text-anchor="middle" x="407.5" y="-112.5" font-family="Helvetica,sans-Serif" font-size="10.00"> </text>
</a>
</g>
</g>
<!-- Node1&#45;&gt;Node7 -->
<g id="edge6" class="edge"><title>Node1&#45;&gt;Node7</title>
<path fill="none" stroke="midnightblue" d="M407.5,-189.353C407.5,-180.074 407.5,-170.791 407.5,-162.59"/>
<polygon fill="none" stroke="midnightblue" points="404,-189.369 407.5,-199.369 411,-189.369 404,-189.369"/>
</g>
<!-- Node8 -->
<g id="node8" class="node"><title>Node8</title>
<g id="a_node8"><a xlink:href="structscram_1_1mef_1_1ValidityError.xhtml" target="_top" xlink:title="For validating input parameters or user arguments. ">
<polygon fill="white" stroke="black" points="476.5,-105.5 476.5,-162.5 610.5,-162.5 610.5,-105.5 476.5,-105.5"/>
<text text-anchor="middle" x="543.5" y="-150.5" font-family="Helvetica,sans-Serif" font-size="10.00">scram::mef::ValidityError</text>
<polyline fill="none" stroke="black" points="476.5,-143.5 610.5,-143.5 "/>
<text text-anchor="middle" x="543.5" y="-131.5" font-family="Helvetica,sans-Serif" font-size="10.00"> </text>
<polyline fill="none" stroke="black" points="476.5,-124.5 610.5,-124.5 "/>
<text text-anchor="middle" x="543.5" y="-112.5" font-family="Helvetica,sans-Serif" font-size="10.00"> </text>
</a>
</g>
</g>
<!-- Node1&#45;&gt;Node8 -->
<g id="edge7" class="edge"><title>Node1&#45;&gt;Node8</title>
<path fill="none" stroke="midnightblue" d="M453.835,-206.534C471.833,-192.176 492.092,-176.013 508.794,-162.688"/>
<polygon fill="none" stroke="midnightblue" points="451.38,-204.016 445.746,-212.988 455.745,-209.487 451.38,-204.016"/>
</g>
<!-- Node14 -->
<g id="node14" class="node"><title>Node14</title>
<g id="a_node14"><a xlink:href="structscram_1_1SettingsError.xhtml" target="_top" xlink:title="The error in analysis settings. ">
<polygon fill="white" stroke="black" points="628.5,-105.5 628.5,-162.5 744.5,-162.5 744.5,-105.5 628.5,-105.5"/>
<text text-anchor="middle" x="686.5" y="-150.5" font-family="Helvetica,sans-Serif" font-size="10.00">scram::SettingsError</text>
<polyline fill="none" stroke="black" points="628.5,-143.5 744.5,-143.5 "/>
<text text-anchor="middle" x="686.5" y="-131.5" font-family="Helvetica,sans-Serif" font-size="10.00"> </text>
<polyline fill="none" stroke="black" points="628.5,-124.5 744.5,-124.5 "/>
<text text-anchor="middle" x="686.5" y="-112.5" font-family="Helvetica,sans-Serif" font-size="10.00"> </text>
</a>
</g>
</g>
<!-- Node1&#45;&gt;Node14 -->
<g id="edge13" class="edge"><title>Node1&#45;&gt;Node14</title>
<path fill="none" stroke="midnightblue" d="M454.94,-225.996C498.019,-209.98 563.232,-185.434 619.5,-163 622.428,-161.833 625.422,-160.627 628.443,-159.4"/>
<polygon fill="none" stroke="midnightblue" points="453.716,-222.717 445.559,-229.479 456.152,-229.279 453.716,-222.717"/>
</g>
<!-- Node15 -->
<g id="node15" class="node"><title>Node15</title>
<g id="a_node15"><a xlink:href="structscram_1_1xml_1_1Error.xhtml" target="_top" xlink:title="The base for all XML related errors. ">
<polygon fill="white" stroke="black" points="1058,-105.5 1058,-162.5 1157,-162.5 1157,-105.5 1058,-105.5"/>
<text text-anchor="middle" x="1107.5" y="-150.5" font-family="Helvetica,sans-Serif" font-size="10.00">scram::xml::Error</text>
<polyline fill="none" stroke="black" points="1058,-143.5 1157,-143.5 "/>
<text text-anchor="middle" x="1107.5" y="-131.5" font-family="Helvetica,sans-Serif" font-size="10.00"> </text>
<polyline fill="none" stroke="black" points="1058,-124.5 1157,-124.5 "/>
<text text-anchor="middle" x="1107.5" y="-112.5" font-family="Helvetica,sans-Serif" font-size="10.00"> </text>
</a>
</g>
</g>
<!-- Node1&#45;&gt;Node15 -->
<g id="edge14" class="edge"><title>Node1&#45;&gt;Node15</title>
<path fill="none" stroke="midnightblue" d="M455.88,-236.001C583.62,-216.201 928.96,-162.674 1057.98,-142.675"/>
<polygon fill="none" stroke="midnightblue" points="454.978,-232.599 445.632,-237.59 456.05,-239.516 454.978,-232.599"/>
</g>
<!-- Node2 -->
<g id="node2" class="node"><title>Node2</title>
<polygon fill="white" stroke="#bfbfbf" points="311.5,-326.5 311.5,-383.5 395.5,-383.5 395.5,-326.5 311.5,-326.5"/>
<text text-anchor="middle" x="353.5" y="-371.5" font-family="Helvetica,sans-Serif" font-size="10.00">std::exception</text>
<polyline fill="none" stroke="#bfbfbf" points="311.5,-364.5 395.5,-364.5 "/>
<text text-anchor="middle" x="353.5" y="-352.5" font-family="Helvetica,sans-Serif" font-size="10.00"> </text>
<polyline fill="none" stroke="#bfbfbf" points="311.5,-345.5 395.5,-345.5 "/>
<text text-anchor="middle" x="353.5" y="-333.5" font-family="Helvetica,sans-Serif" font-size="10.00"> </text>
</g>
<!-- Node2&#45;&gt;Node1 -->
<g id="edge1" class="edge"><title>Node2&#45;&gt;Node1</title>
<path fill="none" stroke="midnightblue" d="M371.743,-317.345C376.185,-308.42 380.981,-298.783 385.574,-289.554"/>
<polygon fill="none" stroke="midnightblue" points="368.589,-315.828 367.266,-326.34 374.855,-318.947 368.589,-315.828"/>
</g>
<!-- Node3 -->
<g id="node3" class="node"><title>Node3</title>
<polygon fill="white" stroke="#bfbfbf" points="413.5,-326.5 413.5,-383.5 509.5,-383.5 509.5,-326.5 413.5,-326.5"/>
<text text-anchor="middle" x="461.5" y="-371.5" font-family="Helvetica,sans-Serif" font-size="10.00">boost::exception</text>
<polyline fill="none" stroke="#bfbfbf" points="413.5,-364.5 509.5,-364.5 "/>
<text text-anchor="middle" x="461.5" y="-352.5" font-family="Helvetica,sans-Serif" font-size="10.00"> </text>
<polyline fill="none" stroke="#bfbfbf" points="413.5,-345.5 509.5,-345.5 "/>
<text text-anchor="middle" x="461.5" y="-333.5" font-family="Helvetica,sans-Serif" font-size="10.00"> </text>
</g>
<!-- Node3&#45;&gt;Node1 -->
<g id="edge2" class="edge"><title>Node3&#45;&gt;Node1</title>
<path fill="none" stroke="midnightblue" d="M443.257,-317.345C438.815,-308.42 434.019,-298.783 429.426,-289.554"/>
<polygon fill="none" stroke="midnightblue" points="440.145,-318.947 447.734,-326.34 446.411,-315.828 440.145,-318.947"/>
</g>
<!-- Node9 -->
<g id="node9" class="node"><title>Node9</title>
<g id="a_node9"><a xlink:href="structscram_1_1mef_1_1CycleError.xhtml" target="_top" xlink:title="Signals unacceptable cycles in invalid structures. ">
<polygon fill="white" stroke="black" points="74.5,-6 74.5,-63 200.5,-63 200.5,-6 74.5,-6"/>
<text text-anchor="middle" x="137.5" y="-51" font-family="Helvetica,sans-Serif" font-size="10.00">scram::mef::CycleError</text>
<polyline fill="none" stroke="black" points="74.5,-44 200.5,-44 "/>
<text text-anchor="middle" x="137.5" y="-32" font-family="Helvetica,sans-Serif" font-size="10.00"> </text>
<polyline fill="none" stroke="black" points="74.5,-25 200.5,-25 "/>
<text text-anchor="middle" x="137.5" y="-13" font-family="Helvetica,sans-Serif" font-size="10.00"> </text>
</a>
</g>
</g>
<!-- Node8&#45;&gt;Node9 -->
<g id="edge8" class="edge"><title>Node8&#45;&gt;Node9</title>
<path fill="none" stroke="midnightblue" d="M466.363,-105.224C352.636,-78.4389 317.085,-100.792 209.5,-69 203.947,-67.359 198.278,-65.3548 192.681,-63.1507"/>
<polygon fill="none" stroke="midnightblue" points="465.599,-108.64 476.143,-107.601 467.253,-101.838 465.599,-108.64"/>
</g>
<!-- Node10 -->
<g id="node10" class="node"><title>Node10</title>
<g id="a_node10"><a xlink:href="structscram_1_1mef_1_1DomainError.xhtml" target="_top" xlink:title="Invalid domain for values or arguments. ">
<polygon fill="white" stroke="black" points="218.5,-6 218.5,-63 356.5,-63 356.5,-6 218.5,-6"/>
<text text-anchor="middle" x="287.5" y="-51" font-family="Helvetica,sans-Serif" font-size="10.00">scram::mef::DomainError</text>
<polyline fill="none" stroke="black" points="218.5,-44 356.5,-44 "/>
<text text-anchor="middle" x="287.5" y="-32" font-family="Helvetica,sans-Serif" font-size="10.00"> </text>
<polyline fill="none" stroke="black" points="218.5,-25 356.5,-25 "/>
<text text-anchor="middle" x="287.5" y="-13" font-family="Helvetica,sans-Serif" font-size="10.00"> </text>
</a>
</g>
</g>
<!-- Node8&#45;&gt;Node10 -->
<g id="edge9" class="edge"><title>Node8&#45;&gt;Node10</title>
<path fill="none" stroke="midnightblue" d="M466.801,-105.109C466.701,-105.072 466.6,-105.036 466.5,-105 421.662,-88.857 409.86,-86.4118 365.5,-69 360.698,-67.1153 355.752,-65.1198 350.79,-63.079"/>
<polygon fill="none" stroke="midnightblue" points="465.723,-108.44 476.317,-108.541 468.099,-101.856 465.723,-108.44"/>
</g>
<!-- Node11 -->
<g id="node11" class="node"><title>Node11</title>
<g id="a_node11"><a xlink:href="structscram_1_1mef_1_1DuplicateArgumentError.xhtml" target="_top" xlink:title="This error indicates that arguments must be unique. ">
<polygon fill="white" stroke="black" points="374.5,-0.5 374.5,-68.5 544.5,-68.5 544.5,-0.5 374.5,-0.5"/>
<text text-anchor="start" x="382.5" y="-56.5" font-family="Helvetica,sans-Serif" font-size="10.00">scram::mef::DuplicateArgument</text>
<text text-anchor="middle" x="459.5" y="-45.5" font-family="Helvetica,sans-Serif" font-size="10.00">Error</text>
<polyline fill="none" stroke="black" points="374.5,-38.5 544.5,-38.5 "/>
<text text-anchor="middle" x="459.5" y="-26.5" font-family="Helvetica,sans-Serif" font-size="10.00"> </text>
<polyline fill="none" stroke="black" points="374.5,-19.5 544.5,-19.5 "/>
<text text-anchor="middle" x="459.5" y="-7.5" font-family="Helvetica,sans-Serif" font-size="10.00"> </text>
</a>
</g>
</g>
<!-- Node8&#45;&gt;Node11 -->
<g id="edge10" class="edge"><title>Node8&#45;&gt;Node11</title>
<path fill="none" stroke="midnightblue" d="M513.019,-97.6203C504.912,-88.2101 496.184,-78.0795 488.177,-68.7855"/>
<polygon fill="none" stroke="midnightblue" points="510.475,-100.03 519.654,-105.321 515.778,-95.4606 510.475,-100.03"/>
</g>
<!-- Node12 -->
<g id="node12" class="node"><title>Node12</title>
<g id="a_node12"><a xlink:href="structscram_1_1mef_1_1RedefinitionError.xhtml" target="_top" xlink:title="For cases when events or practically anything is redefined. ">
<polygon fill="white" stroke="black" points="562.5,-0.5 562.5,-68.5 694.5,-68.5 694.5,-0.5 562.5,-0.5"/>
<text text-anchor="start" x="570.5" y="-56.5" font-family="Helvetica,sans-Serif" font-size="10.00">scram::mef::Redefinition</text>
<text text-anchor="middle" x="628.5" y="-45.5" font-family="Helvetica,sans-Serif" font-size="10.00">Error</text>
<polyline fill="none" stroke="black" points="562.5,-38.5 694.5,-38.5 "/>
<text text-anchor="middle" x="628.5" y="-26.5" font-family="Helvetica,sans-Serif" font-size="10.00"> </text>
<polyline fill="none" stroke="black" points="562.5,-19.5 694.5,-19.5 "/>
<text text-anchor="middle" x="628.5" y="-7.5" font-family="Helvetica,sans-Serif" font-size="10.00"> </text>
</a>
</g>
</g>
<!-- Node8&#45;&gt;Node12 -->
<g id="edge11" class="edge"><title>Node8&#45;&gt;Node12</title>
<path fill="none" stroke="midnightblue" d="M574.344,-97.6203C582.548,-88.2101 591.379,-78.0795 599.482,-68.7855"/>
<polygon fill="none" stroke="midnightblue" points="571.563,-95.4835 567.63,-105.321 576.84,-100.083 571.563,-95.4835"/>
</g>
<!-- Node13 -->
<g id="node13" class="node"><title>Node13</title>
<g id="a_node13"><a xlink:href="structscram_1_1mef_1_1UndefinedElement.xhtml" target="_top" xlink:title="The error for undefined elements in a model. ">
<polygon fill="white" stroke="black" points="712.5,-6 712.5,-63 878.5,-63 878.5,-6 712.5,-6"/>
<text text-anchor="middle" x="795.5" y="-51" font-family="Helvetica,sans-Serif" font-size="10.00">scram::mef::UndefinedElement</text>
<polyline fill="none" stroke="black" points="712.5,-44 878.5,-44 "/>
<text text-anchor="middle" x="795.5" y="-32" font-family="Helvetica,sans-Serif" font-size="10.00"> </text>
<polyline fill="none" stroke="black" points="712.5,-25 878.5,-25 "/>
<text text-anchor="middle" x="795.5" y="-13" font-family="Helvetica,sans-Serif" font-size="10.00"> </text>
</a>
</g>
</g>
<!-- Node8&#45;&gt;Node13 -->
<g id="edge12" class="edge"><title>Node8&#45;&gt;Node13</title>
<path fill="none" stroke="midnightblue" d="M620.31,-103.282C653.324,-90.5085 691.683,-75.6672 724.077,-63.134"/>
<polygon fill="none" stroke="midnightblue" points="618.764,-100.127 610.7,-107 621.29,-106.656 618.764,-100.127"/>
</g>
<!-- Node16 -->
<g id="node16" class="node"><title>Node16</title>
<g id="a_node16"><a xlink:href="structscram_1_1xml_1_1ParseError.xhtml" target="_top" xlink:title="XML parsing errors. ">
<polygon fill="white" stroke="black" points="897,-6 897,-63 1022,-63 1022,-6 897,-6"/>
<text text-anchor="middle" x="959.5" y="-51" font-family="Helvetica,sans-Serif" font-size="10.00">scram::xml::ParseError</text>
<polyline fill="none" stroke="black" points="897,-44 1022,-44 "/>
<text text-anchor="middle" x="959.5" y="-32" font-family="Helvetica,sans-Serif" font-size="10.00"> </text>
<polyline fill="none" stroke="black" points="897,-25 1022,-25 "/>
<text text-anchor="middle" x="959.5" y="-13" font-family="Helvetica,sans-Serif" font-size="10.00"> </text>
</a>
</g>
</g>
<!-- Node15&#45;&gt;Node16 -->
<g id="edge15" class="edge"><title>Node15&#45;&gt;Node16</title>
<path fill="none" stroke="midnightblue" d="M1056.8,-99.6018C1038.74,-87.6997 1018.61,-74.4379 1001.36,-63.0791"/>
<polygon fill="none" stroke="midnightblue" points="1055.21,-102.743 1065.49,-105.321 1059.06,-96.8971 1055.21,-102.743"/>
</g>
<!-- Node17 -->
<g id="node17" class="node"><title>Node17</title>
<g id="a_node17"><a xlink:href="structscram_1_1xml_1_1StreamError.xhtml" target="_top" xlink:title="Errors in using XML streaming facilities. ">
<polygon fill="white" stroke="black" points="1040,-6 1040,-63 1175,-63 1175,-6 1040,-6"/>
<text text-anchor="middle" x="1107.5" y="-51" font-family="Helvetica,sans-Serif" font-size="10.00">scram::xml::StreamError</text>
<polyline fill="none" stroke="black" points="1040,-44 1175,-44 "/>
<text text-anchor="middle" x="1107.5" y="-32" font-family="Helvetica,sans-Serif" font-size="10.00"> </text>
<polyline fill="none" stroke="black" points="1040,-25 1175,-25 "/>
<text text-anchor="middle" x="1107.5" y="-13" font-family="Helvetica,sans-Serif" font-size="10.00"> </text>
</a>
</g>
</g>
<!-- Node15&#45;&gt;Node17 -->
<g id="edge16" class="edge"><title>Node15&#45;&gt;Node17</title>
<path fill="none" stroke="midnightblue" d="M1107.5,-95.0433C1107.5,-84.4474 1107.5,-73.1352 1107.5,-63.248"/>
<polygon fill="none" stroke="midnightblue" points="1104,-95.3212 1107.5,-105.321 1111,-95.3212 1104,-95.3212"/>
</g>
<!-- Node18 -->
<g id="node18" class="node"><title>Node18</title>
<g id="a_node18"><a xlink:href="structscram_1_1xml_1_1ValidityError.xhtml" target="_top" xlink:title="XML document validity errors. ">
<polygon fill="white" stroke="black" points="1193,-6 1193,-63 1326,-63 1326,-6 1193,-6"/>
<text text-anchor="middle" x="1259.5" y="-51" font-family="Helvetica,sans-Serif" font-size="10.00">scram::xml::ValidityError</text>
<polyline fill="none" stroke="black" points="1193,-44 1326,-44 "/>
<text text-anchor="middle" x="1259.5" y="-32" font-family="Helvetica,sans-Serif" font-size="10.00"> </text>
<polyline fill="none" stroke="black" points="1193,-25 1326,-25 "/>
<text text-anchor="middle" x="1259.5" y="-13" font-family="Helvetica,sans-Serif" font-size="10.00"> </text>
</a>
</g>
</g>
<!-- Node15&#45;&gt;Node18 -->
<g id="edge17" class="edge"><title>Node15&#45;&gt;Node18</title>
<path fill="none" stroke="midnightblue" d="M1159.31,-99.7641C1177.93,-87.8203 1198.72,-74.4895 1216.5,-63.0791"/>
<polygon fill="none" stroke="midnightblue" points="1157.18,-96.976 1150.65,-105.321 1160.96,-102.868 1157.18,-96.976"/>
</g>
<!-- Node19 -->
<g id="node19" class="node"><title>Node19</title>
<g id="a_node19"><a xlink:href="structscram_1_1xml_1_1XIncludeError.xhtml" target="_top" xlink:title="XInclude resolution issues. ">
<polygon fill="white" stroke="black" points="1344,-6 1344,-63 1483,-63 1483,-6 1344,-6"/>
<text text-anchor="middle" x="1413.5" y="-51" font-family="Helvetica,sans-Serif" font-size="10.00">scram::xml::XIncludeError</text>
<polyline fill="none" stroke="black" points="1344,-44 1483,-44 "/>
<text text-anchor="middle" x="1413.5" y="-32" font-family="Helvetica,sans-Serif" font-size="10.00"> </text>
<polyline fill="none" stroke="black" points="1344,-25 1483,-25 "/>
<text text-anchor="middle" x="1413.5" y="-13" font-family="Helvetica,sans-Serif" font-size="10.00"> </text>
</a>
</g>
</g>
<!-- Node15&#45;&gt;Node19 -->
<g id="edge18" class="edge"><title>Node15&#45;&gt;Node19</title>
<path fill="none" stroke="midnightblue" d="M1166.9,-118.621C1213.31,-106.839 1279.16,-88.9076 1335.5,-69 1340.64,-67.1832 1345.93,-65.1918 1351.21,-63.1142"/>
<polygon fill="none" stroke="midnightblue" points="1165.85,-115.276 1157.01,-121.114 1167.56,-122.064 1165.85,-115.276"/>
</g>
</g>
</svg>
