<?xml version="1.0" encoding="UTF-8" standalone="no"?>
<!DOCTYPE svg PUBLIC "-//W3C//DTD SVG 1.1//EN"
 "http://www.w3.org/Graphics/SVG/1.1/DTD/svg11.dtd">
<!-- Generated by graphviz version 2.38.0 (20140413.2041)
 -->
<!-- Title: scram::mef::Gate::Validate Pages: 1 -->
<svg width="459pt" height="127pt"
 viewBox="0.00 0.00 459.00 127.00" xmlns="http://www.w3.org/2000/svg" xmlns:xlink="http://www.w3.org/1999/xlink">
<g id="graph0" class="graph" transform="scale(1 1) rotate(0) translate(4 123)">
<title>scram::mef::Gate::Validate</title>
<polygon fill="white" stroke="none" points="-4,4 -4,-123 455,-123 455,4 -4,4"/>
<!-- Node1 -->
<g id="node1" class="node"><title>Node1</title>
<polygon fill="#bfbfbf" stroke="black" points="0,-50 0,-69 145,-69 145,-50 0,-50"/>
<text text-anchor="middle" x="72.5" y="-57" font-family="Helvetica,sans-Serif" font-size="10.00">scram::mef::Gate::Validate</text>
</g>
<!-- Node2 -->
<g id="node2" class="node"><title>Node2</title>
<g id="a_node2"><a xlink:href="classscram_1_1mef_1_1Element.xhtml#a7db1af9365e25a0ce332a1745441630a" target="_top" xlink:title="scram::mef::Element\l::GetAttribute">
<polygon fill="white" stroke="black" points="181,-88.5 181,-118.5 298,-118.5 298,-88.5 181,-88.5"/>
<text text-anchor="start" x="189" y="-106.5" font-family="Helvetica,sans-Serif" font-size="10.00">scram::mef::Element</text>
<text text-anchor="middle" x="239.5" y="-95.5" font-family="Helvetica,sans-Serif" font-size="10.00">::GetAttribute</text>
</a>
</g>
</g>
<!-- Node1&#45;&gt;Node2 -->
<g id="edge1" class="edge"><title>Node1&#45;&gt;Node2</title>
<path fill="none" stroke="midnightblue" d="M109.303,-69.0473C127.714,-73.957 150.751,-80.1004 172.255,-85.8347"/>
<polygon fill="midnightblue" stroke="midnightblue" points="171.441,-89.2398 182.005,-88.4346 173.244,-82.4761 171.441,-89.2398"/>
</g>
<!-- Node3 -->
<g id="node3" class="node"><title>Node3</title>
<g id="a_node3"><a xlink:href="classscram_1_1mef_1_1Element.xhtml#adb401e2ca84aa98cb60797bec2500a81" target="_top" xlink:title="scram::mef::Element\l::name">
<polygon fill="white" stroke="black" points="334,-44.5 334,-74.5 451,-74.5 451,-44.5 334,-44.5"/>
<text text-anchor="start" x="342" y="-62.5" font-family="Helvetica,sans-Serif" font-size="10.00">scram::mef::Element</text>
<text text-anchor="middle" x="392.5" y="-51.5" font-family="Helvetica,sans-Serif" font-size="10.00">::name</text>
</a>
</g>
</g>
<!-- Node1&#45;&gt;Node3 -->
<g id="edge5" class="edge"><title>Node1&#45;&gt;Node3</title>
<path fill="none" stroke="midnightblue" d="M145.262,-59.5C198.672,-59.5 271.103,-59.5 323.572,-59.5"/>
<polygon fill="midnightblue" stroke="midnightblue" points="323.788,-63.0001 333.788,-59.5 323.788,-56.0001 323.788,-63.0001"/>
</g>
<!-- Node4 -->
<g id="node4" class="node"><title>Node4</title>
<g id="a_node4"><a xlink:href="classscram_1_1mef_1_1Element.xhtml#ae291c86b68c20c0e2b845fbbc8bddb25" target="_top" xlink:title="Checks if the element has a given attribute. ">
<polygon fill="white" stroke="black" points="181,-0.5 181,-30.5 298,-30.5 298,-0.5 181,-0.5"/>
<text text-anchor="start" x="189" y="-18.5" font-family="Helvetica,sans-Serif" font-size="10.00">scram::mef::Element</text>
<text text-anchor="middle" x="239.5" y="-7.5" font-family="Helvetica,sans-Serif" font-size="10.00">::HasAttribute</text>
</a>
</g>
</g>
<!-- Node1&#45;&gt;Node4 -->
<g id="edge3" class="edge"><title>Node1&#45;&gt;Node4</title>
<path fill="none" stroke="midnightblue" d="M109.303,-49.9527C127.714,-45.043 150.751,-38.8996 172.255,-33.1653"/>
<polygon fill="midnightblue" stroke="midnightblue" points="173.244,-36.5239 182.005,-30.5654 171.441,-29.7602 173.244,-36.5239"/>
</g>
<!-- Node2&#45;&gt;Node3 -->
<g id="edge2" class="edge"><title>Node2&#45;&gt;Node3</title>
<path fill="none" stroke="midnightblue" d="M292.043,-88.4808C304.245,-84.9252 317.379,-81.0982 329.975,-77.4279"/>
<polygon fill="midnightblue" stroke="midnightblue" points="331.311,-80.6841 339.933,-74.5262 329.353,-73.9636 331.311,-80.6841"/>
</g>
<!-- Node4&#45;&gt;Node3 -->
<g id="edge4" class="edge"><title>Node4&#45;&gt;Node3</title>
<path fill="none" stroke="midnightblue" d="M292.043,-30.5192C304.245,-34.0748 317.379,-37.9018 329.975,-41.5721"/>
<polygon fill="midnightblue" stroke="midnightblue" points="329.353,-45.0364 339.933,-44.4738 331.311,-38.3159 329.353,-45.0364"/>
</g>
</g>
</svg>
