<?xml version="1.0" encoding="UTF-8" standalone="no"?>
<!DOCTYPE svg PUBLIC "-//W3C//DTD SVG 1.1//EN"
 "http://www.w3.org/Graphics/SVG/1.1/DTD/svg11.dtd">
<!-- Generated by graphviz version 2.38.0 (20140413.2041)
 -->
<!-- Title: scram::mef::Formula::formula_args Pages: 1 -->
<svg width="613pt" height="261pt"
 viewBox="0.00 0.00 613.00 260.50" xmlns="http://www.w3.org/2000/svg" xmlns:xlink="http://www.w3.org/1999/xlink">
<g id="graph0" class="graph" transform="scale(1 1) rotate(0) translate(4 256.5)">
<title>scram::mef::Formula::formula_args</title>
<polygon fill="white" stroke="none" points="-4,4 -4,-256.5 609,-256.5 609,4 -4,4"/>
<!-- Node1 -->
<g id="node1" class="node"><title>Node1</title>
<polygon fill="#bfbfbf" stroke="black" points="0,-124 0,-154 116,-154 116,-124 0,-124"/>
<text text-anchor="start" x="8" y="-142" font-family="Helvetica,sans-Serif" font-size="10.00">scram::mef::Formula</text>
<text text-anchor="middle" x="58" y="-131" font-family="Helvetica,sans-Serif" font-size="10.00">::formula_args</text>
</g>
<!-- Node2 -->
<g id="node2" class="node"><title>Node2</title>
<g id="a_node2"><a xlink:href="classscram_1_1core_1_1Pdag.xhtml#a56889d42789fd85e8083e02cf15aef28" target="_top" xlink:title="Specialization for BasicEvent arguments. ">
<polygon fill="white" stroke="black" points="179.5,-222 179.5,-252 289.5,-252 289.5,-222 179.5,-222"/>
<text text-anchor="start" x="187.5" y="-240" font-family="Helvetica,sans-Serif" font-size="10.00">scram::core::Pdag::</text>
<text text-anchor="middle" x="234.5" y="-229" font-family="Helvetica,sans-Serif" font-size="10.00">AddArg</text>
</a>
</g>
</g>
<!-- Node1&#45;&gt;Node2 -->
<g id="edge1" class="edge"><title>Node1&#45;&gt;Node2</title>
<path fill="none" stroke="midnightblue" d="M81.7049,-161.247C99.522,-177.612 125.644,-199.304 152,-213 160.507,-217.421 169.949,-221.144 179.301,-224.239"/>
<polygon fill="midnightblue" stroke="midnightblue" points="83.8222,-158.435 74.132,-154.151 79.0359,-163.543 83.8222,-158.435"/>
</g>
<!-- Node3 -->
<g id="node3" class="node"><title>Node3</title>
<g id="a_node3"><a xlink:href="classscram_1_1mef_1_1FaultTree.xhtml#a9535bd49edb4598ead887faf8dadd9f2" target="_top" xlink:title="Collects top event gates in this fault tree with components. ">
<polygon fill="white" stroke="black" points="175,-173 175,-203 294,-203 294,-173 175,-173"/>
<text text-anchor="start" x="183" y="-191" font-family="Helvetica,sans-Serif" font-size="10.00">scram::mef::FaultTree</text>
<text text-anchor="middle" x="234.5" y="-180" font-family="Helvetica,sans-Serif" font-size="10.00">::CollectTopEvents</text>
</a>
</g>
</g>
<!-- Node1&#45;&gt;Node3 -->
<g id="edge2" class="edge"><title>Node1&#45;&gt;Node3</title>
<path fill="none" stroke="midnightblue" d="M122.465,-156.821C141.306,-162.112 161.749,-167.852 179.898,-172.948"/>
<polygon fill="midnightblue" stroke="midnightblue" points="123.353,-153.435 112.78,-154.101 121.461,-160.175 123.353,-153.435"/>
</g>
<!-- Node4 -->
<g id="node4" class="node"><title>Node4</title>
<g id="a_node4"><a xlink:href="classscram_1_1core_1_1EventTreeAnalysis.xhtml#a3e3404417cbdcf92474e5653ec24f936" target="_top" xlink:title="scram::core::EventTreeAnalysis\l::EventTreeAnalysis">
<polygon fill="white" stroke="black" points="152,-124 152,-154 317,-154 317,-124 152,-124"/>
<text text-anchor="start" x="160" y="-142" font-family="Helvetica,sans-Serif" font-size="10.00">scram::core::EventTreeAnalysis</text>
<text text-anchor="middle" x="234.5" y="-131" font-family="Helvetica,sans-Serif" font-size="10.00">::EventTreeAnalysis</text>
</a>
</g>
</g>
<!-- Node1&#45;&gt;Node4 -->
<g id="edge3" class="edge"><title>Node1&#45;&gt;Node4</title>
<path fill="none" stroke="midnightblue" d="M126.225,-139C134.619,-139 143.275,-139 151.858,-139"/>
<polygon fill="midnightblue" stroke="midnightblue" points="126.138,-135.5 116.138,-139 126.138,-142.5 126.138,-135.5"/>
</g>
<!-- Node5 -->
<g id="node5" class="node"><title>Node5</title>
<g id="a_node5"><a xlink:href="cycle_8h.xhtml#aef7ec67f39719b384e5a3ca7f879bdba" target="_top" xlink:title="Retrieves connectors from a connector. ">
<polygon fill="white" stroke="black" points="181,-57 181,-87 288,-87 288,-57 181,-57"/>
<text text-anchor="start" x="189" y="-75" font-family="Helvetica,sans-Serif" font-size="10.00">scram::mef::cycle::</text>
<text text-anchor="middle" x="234.5" y="-64" font-family="Helvetica,sans-Serif" font-size="10.00">GetConnectors</text>
</a>
</g>
</g>
<!-- Node1&#45;&gt;Node5 -->
<g id="edge4" class="edge"><title>Node1&#45;&gt;Node5</title>
<path fill="none" stroke="midnightblue" d="M107.534,-120.365C134.849,-109.877 168.515,-96.9515 194.168,-87.1017"/>
<polygon fill="midnightblue" stroke="midnightblue" points="106.242,-117.112 98.1612,-123.964 108.751,-123.647 106.242,-117.112"/>
</g>
<!-- Node8 -->
<g id="node8" class="node"><title>Node8</title>
<g id="a_node8"><a xlink:href="serialization_8cc.xhtml#a83f7058a5caad9ec3ffb5fd6c7d7b8f6" target="_top" xlink:title="Convenience function for serialization into a file. ">
<polygon fill="white" stroke="black" points="175.5,-0.5 175.5,-19.5 293.5,-19.5 293.5,-0.5 175.5,-0.5"/>
<text text-anchor="middle" x="234.5" y="-7.5" font-family="Helvetica,sans-Serif" font-size="10.00">scram::mef::Serialize</text>
</a>
</g>
</g>
<!-- Node1&#45;&gt;Node8 -->
<g id="edge8" class="edge"><title>Node1&#45;&gt;Node8</title>
<path fill="none" stroke="midnightblue" d="M78.273,-116.185C95.9379,-96.3057 123.594,-67.6601 152,-48 169.202,-36.0946 190.725,-26.2412 207.333,-19.5535"/>
<polygon fill="midnightblue" stroke="midnightblue" points="75.5128,-114.025 71.5647,-123.857 80.7822,-118.633 75.5128,-114.025"/>
</g>
<!-- Node5&#45;&gt;Node5 -->
<g id="edge7" class="edge"><title>Node5&#45;&gt;Node5</title>
<path fill="none" stroke="midnightblue" d="M203.938,-97.4579C207.731,-102.179 217.918,-105.5 234.5,-105.5 261.711,-105.5 271.702,-96.5566 264.475,-87.159"/>
<polygon fill="midnightblue" stroke="midnightblue" points="207.45,-97.3422 204.525,-87.159 200.461,-96.9433 207.45,-97.3422"/>
</g>
<!-- Node6 -->
<g id="node6" class="node"><title>Node6</title>
<g id="a_node6"><a xlink:href="cycle_8h.xhtml#a21de1e2b8ca8017c9c0c5ef3254b433e" target="_top" xlink:title="Helper function to check for cyclic references through connectors. ">
<polygon fill="white" stroke="black" points="353,-57 353,-87 462,-87 462,-57 353,-57"/>
<text text-anchor="start" x="361" y="-75" font-family="Helvetica,sans-Serif" font-size="10.00">scram::mef::cycle::</text>
<text text-anchor="middle" x="407.5" y="-64" font-family="Helvetica,sans-Serif" font-size="10.00">ContinueConnector</text>
</a>
</g>
</g>
<!-- Node5&#45;&gt;Node6 -->
<g id="edge5" class="edge"><title>Node5&#45;&gt;Node6</title>
<path fill="none" stroke="midnightblue" d="M298.26,-72C316.157,-72 335.488,-72 352.793,-72"/>
<polygon fill="midnightblue" stroke="midnightblue" points="298.201,-68.5001 288.201,-72 298.201,-75.5001 298.201,-68.5001"/>
</g>
<!-- Node7 -->
<g id="node7" class="node"><title>Node7</title>
<g id="a_node7"><a xlink:href="cycle_8h.xhtml#aeed4b968387a7629985a8d3d9528c4e0" target="_top" xlink:title="Retrieves connectors from a connector. ">
<polygon fill="white" stroke="black" points="498,-57 498,-87 605,-87 605,-57 498,-57"/>
<text text-anchor="start" x="506" y="-75" font-family="Helvetica,sans-Serif" font-size="10.00">scram::mef::cycle::</text>
<text text-anchor="middle" x="551.5" y="-64" font-family="Helvetica,sans-Serif" font-size="10.00">GetConnectors</text>
</a>
</g>
</g>
<!-- Node6&#45;&gt;Node7 -->
<g id="edge6" class="edge"><title>Node6&#45;&gt;Node7</title>
<path fill="none" stroke="midnightblue" d="M472.397,-72C480.851,-72 489.441,-72 497.681,-72"/>
<polygon fill="midnightblue" stroke="midnightblue" points="472.184,-68.5001 462.184,-72 472.184,-75.5001 472.184,-68.5001"/>
</g>
<!-- Node8&#45;&gt;Node8 -->
<g id="edge9" class="edge"><title>Node8&#45;&gt;Node8</title>
<path fill="none" stroke="midnightblue" d="M202.314,-28.2746C203.232,-33.741 213.961,-38 234.5,-38 265.07,-38 273.907,-28.5653 261.01,-19.7571"/>
<polygon fill="midnightblue" stroke="midnightblue" points="205.357,-30.0197 207.99,-19.7571 199.532,-26.1381 205.357,-30.0197"/>
</g>
</g>
</svg>
