<?xml version="1.0" encoding="UTF-8" standalone="no"?>
<!DOCTYPE svg PUBLIC "-//W3C//DTD SVG 1.1//EN"
 "http://www.w3.org/Graphics/SVG/1.1/DTD/svg11.dtd">
<!-- Generated by graphviz version 2.38.0 (20140413.2041)
 -->
<!-- Title: scram::mef::Fork::functional_event Pages: 1 -->
<svg width="359pt" height="78pt"
 viewBox="0.00 0.00 359.00 77.50" xmlns="http://www.w3.org/2000/svg" xmlns:xlink="http://www.w3.org/1999/xlink">
<g id="graph0" class="graph" transform="scale(1 1) rotate(0) translate(4 73.5)">
<title>scram::mef::Fork::functional_event</title>
<polygon fill="white" stroke="none" points="-4,4 -4,-73.5 355,-73.5 355,4 -4,4"/>
<!-- Node1 -->
<g id="node1" class="node"><title>Node1</title>
<polygon fill="#bfbfbf" stroke="black" points="0,-22.5 0,-52.5 150,-52.5 150,-22.5 0,-22.5"/>
<text text-anchor="start" x="8" y="-40.5" font-family="Helvetica,sans-Serif" font-size="10.00">scram::mef::Fork::functional</text>
<text text-anchor="middle" x="75" y="-29.5" font-family="Helvetica,sans-Serif" font-size="10.00">_event</text>
</g>
<!-- Node2 -->
<g id="node2" class="node"><title>Node2</title>
<g id="a_node2"><a xlink:href="classscram_1_1mef_1_1EventTree.xhtml#ad2a9b2653f635c355134b8bd38a04eba" target="_top" xlink:title="Adds event tree constructs into the container. ">
<polygon fill="white" stroke="black" points="194,-50 194,-69 343,-69 343,-50 194,-50"/>
<text text-anchor="middle" x="268.5" y="-57" font-family="Helvetica,sans-Serif" font-size="10.00">scram::mef::EventTree::Add</text>
</a>
</g>
</g>
<!-- Node1&#45;&gt;Node2 -->
<g id="edge1" class="edge"><title>Node1&#45;&gt;Node2</title>
<path fill="none" stroke="midnightblue" d="M160.274,-47.1816C171.503,-48.4717 182.946,-49.7863 193.973,-51.0531"/>
<polygon fill="midnightblue" stroke="midnightblue" points="160.373,-43.67 150.039,-46.0058 159.574,-50.6243 160.373,-43.67"/>
</g>
<!-- Node3 -->
<g id="node3" class="node"><title>Node3</title>
<g id="a_node3"><a xlink:href="classscram_1_1core_1_1EventTreeAnalysis.xhtml#a070c68c0d67edb30c9bf57e226aaf88e" target="_top" xlink:title="Analyzes an event tree given the initiating event. ">
<polygon fill="white" stroke="black" points="186,-0.5 186,-30.5 351,-30.5 351,-0.5 186,-0.5"/>
<text text-anchor="start" x="194" y="-18.5" font-family="Helvetica,sans-Serif" font-size="10.00">scram::core::EventTreeAnalysis</text>
<text text-anchor="middle" x="268.5" y="-7.5" font-family="Helvetica,sans-Serif" font-size="10.00">::Analyze</text>
</a>
</g>
</g>
<!-- Node1&#45;&gt;Node3 -->
<g id="edge2" class="edge"><title>Node1&#45;&gt;Node3</title>
<path fill="none" stroke="midnightblue" d="M159.988,-27.8513C168.526,-26.8704 177.192,-25.8749 185.706,-24.8967"/>
<polygon fill="midnightblue" stroke="midnightblue" points="159.574,-24.3757 150.039,-28.9942 160.373,-31.3299 159.574,-24.3757"/>
</g>
</g>
</svg>
