<?xml version="1.0" encoding="UTF-8" standalone="no"?>
<!DOCTYPE svg PUBLIC "-//W3C//DTD SVG 1.1//EN"
 "http://www.w3.org/Graphics/SVG/1.1/DTD/svg11.dtd">
<!-- Generated by graphviz version 2.38.0 (20140413.2041)
 -->
<!-- Title: scram::mef::Usage Pages: 1 -->
<!--zoomable 680 -->
<svg id="main" version="1.1" xmlns="http://www.w3.org/2000/svg" xmlns:xlink="http://www.w3.org/1999/xlink" xml:space="preserve" onload="init(evt)">
<style type="text/css"><![CDATA[
.edge:hover path { stroke: red; }
.edge:hover polygon { stroke: red; fill: red; }
]]></style>
<script type="text/javascript"><![CDATA[
var edges = document.getElementsByTagName('g');
if (edges && edges.length) {
  for (var i=0;i<edges.length;i++) {
    if (edges[i].id.substr(0,4)=='edge') {
      edges[i].setAttribute('class','edge');
    }
  }
}
]]></script>
        <defs>
                <circle id="rim" cx="0" cy="0" r="7"/>
                <circle id="rim2" cx="0" cy="0" r="3.5"/>
                <g id="zoomPlus">
                        <use xlink:href="#rim" fill="#404040">
                                <set attributeName="fill" to="#808080" begin="zoomplus.mouseover" end="zoomplus.mouseout"/>
                        </use>
                        <path d="M-4,0h8M0,-4v8" fill="none" stroke="white" stroke-width="1.5" pointer-events="none"/>
                </g>
                <g id="zoomMin">
                        <use xlink:href="#rim" fill="#404040">
                                <set attributeName="fill" to="#808080" begin="zoomminus.mouseover" end="zoomminus.mouseout"/>
                        </use>
                        <path d="M-4,0h8" fill="none" stroke="white" stroke-width="1.5" pointer-events="none"/>
                </g>
                <g id="dirArrow">
                        <path fill="none" stroke="white" stroke-width="1.5" d="M0,-3.0v7 M-2.5,-0.5L0,-3.0L2.5,-0.5"/>
                </g>
               <g id="resetDef">
                       <use xlink:href="#rim2" fill="#404040">
                               <set attributeName="fill" to="#808080" begin="reset.mouseover" end="reset.mouseout"/>
                       </use>
               </g>
        </defs>

<script type="text/javascript">
var viewWidth = 1628;
var viewHeight = 680;
var sectionId = 'dynsection-0';
</script>
<script xlink:href="svgpan.js"/>
<svg id="graph" class="graph">
<g id="viewport">
<title>scram::mef::Usage</title>
<polygon fill="white" stroke="none" points="-4,4 -4,-676 1623.5,-676 1623.5,4 -4,4"/>
<!-- Node1 -->
<g id="node1" class="node"><title>Node1</title>
<polygon fill="#bfbfbf" stroke="black" points="840,-592.5 840,-671.5 948,-671.5 948,-592.5 840,-592.5"/>
<text text-anchor="middle" x="894" y="-659.5" font-family="Helvetica,sans-Serif" font-size="10.00">scram::mef::Usage</text>
<polyline fill="none" stroke="black" points="840,-652.5 948,-652.5 "/>
<text text-anchor="middle" x="894" y="-640.5" font-family="Helvetica,sans-Serif" font-size="10.00"> </text>
<polyline fill="none" stroke="black" points="840,-633.5 948,-633.5 "/>
<text text-anchor="start" x="848" y="-621.5" font-family="Helvetica,sans-Serif" font-size="10.00">+ usage()</text>
<text text-anchor="start" x="848" y="-610.5" font-family="Helvetica,sans-Serif" font-size="10.00">+ usage()</text>
<text text-anchor="start" x="848" y="-599.5" font-family="Helvetica,sans-Serif" font-size="10.00"># ~Usage()</text>
</g>
<!-- Node2 -->
<g id="node2" class="node"><title>Node2</title>
<g id="a_node2"><a xlink:href="classscram_1_1mef_1_1Event.xhtml" target="_top" xlink:title="Abstract base class for general fault tree events. ">
<polygon fill="white" stroke="black" points="147,-409.5 147,-466.5 251,-466.5 251,-409.5 147,-409.5"/>
<text text-anchor="middle" x="199" y="-454.5" font-family="Helvetica,sans-Serif" font-size="10.00">scram::mef::Event</text>
<polyline fill="none" stroke="black" points="147,-447.5 251,-447.5 "/>
<text text-anchor="middle" x="199" y="-435.5" font-family="Helvetica,sans-Serif" font-size="10.00"> </text>
<polyline fill="none" stroke="black" points="147,-428.5 251,-428.5 "/>
<text text-anchor="start" x="155" y="-416.5" font-family="Helvetica,sans-Serif" font-size="10.00">+ ~Event()</text>
</a>
</g>
</g>
<!-- Node1&#45;&gt;Node2 -->
<g id="edge1" class="edge"><title>Node1&#45;&gt;Node2</title>
<path fill="none" stroke="midnightblue" d="M829.356,-630.706C686.893,-628.891 351.305,-617.867 260,-555 229.921,-534.289 213.581,-493.952 205.576,-466.738"/>
<polygon fill="none" stroke="midnightblue" points="829.642,-634.209 839.682,-630.825 829.723,-627.21 829.642,-634.209"/>
</g>
<!-- Node7 -->
<g id="node7" class="node"><title>Node7</title>
<g id="a_node7"><a xlink:href="classscram_1_1mef_1_1EventTree.xhtml" target="_top" xlink:title="Event Tree representation with MEF constructs. ">
<polygon fill="white" stroke="black" points="269,-321.5 269,-554.5 393,-554.5 393,-321.5 269,-321.5"/>
<text text-anchor="middle" x="331" y="-542.5" font-family="Helvetica,sans-Serif" font-size="10.00">scram::mef::EventTree</text>
<polyline fill="none" stroke="black" points="269,-535.5 393,-535.5 "/>
<text text-anchor="middle" x="331" y="-523.5" font-family="Helvetica,sans-Serif" font-size="10.00"> </text>
<polyline fill="none" stroke="black" points="269,-516.5 393,-516.5 "/>
<text text-anchor="start" x="277" y="-504.5" font-family="Helvetica,sans-Serif" font-size="10.00">+ initial_state()</text>
<text text-anchor="start" x="277" y="-493.5" font-family="Helvetica,sans-Serif" font-size="10.00">+ initial_state()</text>
<text text-anchor="start" x="277" y="-482.5" font-family="Helvetica,sans-Serif" font-size="10.00">+ functional_events()</text>
<text text-anchor="start" x="277" y="-471.5" font-family="Helvetica,sans-Serif" font-size="10.00">+ branches()</text>
<text text-anchor="start" x="277" y="-460.5" font-family="Helvetica,sans-Serif" font-size="10.00">+ Add()</text>
<text text-anchor="start" x="277" y="-449.5" font-family="Helvetica,sans-Serif" font-size="10.00">+ Add()</text>
<text text-anchor="start" x="277" y="-438.5" font-family="Helvetica,sans-Serif" font-size="10.00">+ Add()</text>
<text text-anchor="start" x="277" y="-427.5" font-family="Helvetica,sans-Serif" font-size="10.00">+ Add()</text>
<text text-anchor="start" x="277" y="-416.5" font-family="Helvetica,sans-Serif" font-size="10.00">* functional_events()</text>
<text text-anchor="start" x="277" y="-405.5" font-family="Helvetica,sans-Serif" font-size="10.00">* branches()</text>
<text text-anchor="start" x="277" y="-394.5" font-family="Helvetica,sans-Serif" font-size="10.00">* Add()</text>
<text text-anchor="start" x="277" y="-383.5" font-family="Helvetica,sans-Serif" font-size="10.00">* Add()</text>
<text text-anchor="start" x="277" y="-372.5" font-family="Helvetica,sans-Serif" font-size="10.00">* Add()</text>
<text text-anchor="start" x="277" y="-361.5" font-family="Helvetica,sans-Serif" font-size="10.00">* Add()</text>
<text text-anchor="start" x="277" y="-350.5" font-family="Helvetica,sans-Serif" font-size="10.00">* sequences_</text>
<text text-anchor="start" x="277" y="-339.5" font-family="Helvetica,sans-Serif" font-size="10.00">* functional_events_</text>
<text text-anchor="start" x="277" y="-328.5" font-family="Helvetica,sans-Serif" font-size="10.00">* branches_</text>
</a>
</g>
</g>
<!-- Node1&#45;&gt;Node7 -->
<g id="edge6" class="edge"><title>Node1&#45;&gt;Node7</title>
<path fill="none" stroke="midnightblue" d="M829.552,-627.716C712.561,-620.683 470.962,-600.915 402,-555 398.954,-552.972 396.016,-550.764 393.185,-548.405"/>
<polygon fill="none" stroke="midnightblue" points="829.607,-631.225 839.796,-628.318 830.018,-624.237 829.607,-631.225"/>
</g>
<!-- Node8 -->
<g id="node8" class="node"><title>Node8</title>
<g id="a_node8"><a xlink:href="classscram_1_1mef_1_1ExternFunction_3_01void_01_4.xhtml" target="_top" xlink:title="Abstract base class for ExternFunction concrete types. ">
<polygon fill="white" stroke="black" points="411,-398.5 411,-477.5 559,-477.5 559,-398.5 411,-398.5"/>
<text text-anchor="start" x="419" y="-465.5" font-family="Helvetica,sans-Serif" font-size="10.00">scram::mef::ExternFunction</text>
<text text-anchor="middle" x="485" y="-454.5" font-family="Helvetica,sans-Serif" font-size="10.00">&lt; void &gt;</text>
<polyline fill="none" stroke="black" points="411,-447.5 559,-447.5 "/>
<text text-anchor="middle" x="485" y="-435.5" font-family="Helvetica,sans-Serif" font-size="10.00"> </text>
<polyline fill="none" stroke="black" points="411,-428.5 559,-428.5 "/>
<text text-anchor="start" x="419" y="-416.5" font-family="Helvetica,sans-Serif" font-size="10.00">+ ~ExternFunction()</text>
<text text-anchor="start" x="419" y="-405.5" font-family="Helvetica,sans-Serif" font-size="10.00">+ apply()</text>
</a>
</g>
</g>
<!-- Node1&#45;&gt;Node8 -->
<g id="edge7" class="edge"><title>Node1&#45;&gt;Node8</title>
<path fill="none" stroke="midnightblue" d="M829.785,-629.213C759.948,-624.444 647.658,-608.265 568,-555 539.387,-535.867 517.376,-503.313 503.233,-477.553"/>
<polygon fill="none" stroke="midnightblue" points="829.573,-632.706 839.772,-629.837 830.009,-625.72 829.573,-632.706"/>
</g>
<!-- Node11 -->
<g id="node11" class="node"><title>Node11</title>
<g id="a_node11"><a xlink:href="classscram_1_1mef_1_1ExternLibrary.xhtml" target="_top" xlink:title="The MEF construct to extend expressions with external libraries. ">
<polygon fill="white" stroke="black" points="577,-404 577,-472 717,-472 717,-404 577,-404"/>
<text text-anchor="middle" x="647" y="-460" font-family="Helvetica,sans-Serif" font-size="10.00">scram::mef::ExternLibrary</text>
<polyline fill="none" stroke="black" points="577,-453 717,-453 "/>
<text text-anchor="middle" x="647" y="-441" font-family="Helvetica,sans-Serif" font-size="10.00"> </text>
<polyline fill="none" stroke="black" points="577,-434 717,-434 "/>
<text text-anchor="start" x="585" y="-422" font-family="Helvetica,sans-Serif" font-size="10.00">+ ExternLibrary()</text>
<text text-anchor="start" x="585" y="-411" font-family="Helvetica,sans-Serif" font-size="10.00">+ get()</text>
</a>
</g>
</g>
<!-- Node1&#45;&gt;Node11 -->
<g id="edge11" class="edge"><title>Node1&#45;&gt;Node11</title>
<path fill="none" stroke="midnightblue" d="M830.125,-611.523C796.613,-599.102 756.336,-580.493 726,-555 698.766,-532.113 676.9,-497.602 663.138,-472.17"/>
<polygon fill="none" stroke="midnightblue" points="829.241,-614.925 839.835,-615.021 831.614,-608.339 829.241,-614.925"/>
</g>
<!-- Node12 -->
<g id="node12" class="node"><title>Node12</title>
<g id="a_node12"><a xlink:href="classscram_1_1mef_1_1FunctionalEvent.xhtml" target="_top" xlink:title="Representation of functional events in event trees. ">
<polygon fill="white" stroke="black" points="735,-409.5 735,-466.5 887,-466.5 887,-409.5 735,-409.5"/>
<text text-anchor="middle" x="811" y="-454.5" font-family="Helvetica,sans-Serif" font-size="10.00">scram::mef::FunctionalEvent</text>
<polyline fill="none" stroke="black" points="735,-447.5 887,-447.5 "/>
<text text-anchor="middle" x="811" y="-435.5" font-family="Helvetica,sans-Serif" font-size="10.00"> </text>
<polyline fill="none" stroke="black" points="735,-428.5 887,-428.5 "/>
<text text-anchor="start" x="743" y="-416.5" font-family="Helvetica,sans-Serif" font-size="10.00">+ order()</text>
</a>
</g>
</g>
<!-- Node1&#45;&gt;Node12 -->
<g id="edge12" class="edge"><title>Node1&#45;&gt;Node12</title>
<path fill="none" stroke="midnightblue" d="M873.092,-582.635C857.241,-545.966 836.02,-496.877 822.942,-466.624"/>
<polygon fill="none" stroke="midnightblue" points="870.023,-584.356 877.204,-592.146 876.448,-581.578 870.023,-584.356"/>
</g>
<!-- Node13 -->
<g id="node13" class="node"><title>Node13</title>
<g id="a_node13"><a xlink:href="classscram_1_1mef_1_1InitiatingEvent.xhtml" target="_top" xlink:title="Event&#45;tree Initiating Event. ">
<polygon fill="white" stroke="black" points="905.5,-387.5 905.5,-488.5 1050.5,-488.5 1050.5,-387.5 905.5,-387.5"/>
<text text-anchor="middle" x="978" y="-476.5" font-family="Helvetica,sans-Serif" font-size="10.00">scram::mef::InitiatingEvent</text>
<polyline fill="none" stroke="black" points="905.5,-469.5 1050.5,-469.5 "/>
<text text-anchor="middle" x="978" y="-457.5" font-family="Helvetica,sans-Serif" font-size="10.00"> </text>
<polyline fill="none" stroke="black" points="905.5,-450.5 1050.5,-450.5 "/>
<text text-anchor="start" x="913.5" y="-438.5" font-family="Helvetica,sans-Serif" font-size="10.00">+ event_tree()</text>
<text text-anchor="start" x="913.5" y="-427.5" font-family="Helvetica,sans-Serif" font-size="10.00">+ event_tree()</text>
<text text-anchor="start" x="913.5" y="-416.5" font-family="Helvetica,sans-Serif" font-size="10.00">+ event_tree()</text>
<text text-anchor="start" x="913.5" y="-405.5" font-family="Helvetica,sans-Serif" font-size="10.00">* event_tree()</text>
<text text-anchor="start" x="913.5" y="-394.5" font-family="Helvetica,sans-Serif" font-size="10.00">* event_tree()</text>
</a>
</g>
</g>
<!-- Node1&#45;&gt;Node13 -->
<g id="edge13" class="edge"><title>Node1&#45;&gt;Node13</title>
<path fill="none" stroke="midnightblue" d="M915.119,-582.729C927.672,-554.034 943.565,-517.709 956.231,-488.757"/>
<polygon fill="none" stroke="midnightblue" points="911.8,-581.581 910.999,-592.146 918.213,-584.387 911.8,-581.581"/>
</g>
<!-- Node14 -->
<g id="node14" class="node"><title>Node14</title>
<g id="a_node14"><a xlink:href="classscram_1_1mef_1_1NamedBranch.xhtml" target="_top" xlink:title="Named branches that can be referenced and reused. ">
<polygon fill="white" stroke="black" points="1069,-409.5 1069,-466.5 1215,-466.5 1215,-409.5 1069,-409.5"/>
<text text-anchor="middle" x="1142" y="-454.5" font-family="Helvetica,sans-Serif" font-size="10.00">scram::mef::NamedBranch</text>
<polyline fill="none" stroke="black" points="1069,-447.5 1215,-447.5 "/>
<text text-anchor="middle" x="1142" y="-435.5" font-family="Helvetica,sans-Serif" font-size="10.00"> </text>
<polyline fill="none" stroke="black" points="1069,-428.5 1215,-428.5 "/>
<text text-anchor="middle" x="1142" y="-416.5" font-family="Helvetica,sans-Serif" font-size="10.00"> </text>
</a>
</g>
</g>
<!-- Node1&#45;&gt;Node14 -->
<g id="edge14" class="edge"><title>Node1&#45;&gt;Node14</title>
<path fill="none" stroke="midnightblue" d="M957.586,-610.607C990.213,-598.047 1029.24,-579.596 1059,-555 1088.97,-530.232 1113.4,-492.214 1127.81,-466.514"/>
<polygon fill="none" stroke="midnightblue" points="956.26,-607.365 948.126,-614.154 958.718,-613.92 956.26,-607.365"/>
</g>
<!-- Node15 -->
<g id="node15" class="node"><title>Node15</title>
<g id="a_node15"><a xlink:href="classscram_1_1mef_1_1Parameter.xhtml" target="_top" xlink:title="This class provides a representation of a variable in basic event description. ">
<polygon fill="white" stroke="black" points="1233,-387.5 1233,-488.5 1361,-488.5 1361,-387.5 1233,-387.5"/>
<text text-anchor="middle" x="1297" y="-476.5" font-family="Helvetica,sans-Serif" font-size="10.00">scram::mef::Parameter</text>
<polyline fill="none" stroke="black" points="1233,-469.5 1361,-469.5 "/>
<text text-anchor="middle" x="1297" y="-457.5" font-family="Helvetica,sans-Serif" font-size="10.00"> </text>
<polyline fill="none" stroke="black" points="1233,-450.5 1361,-450.5 "/>
<text text-anchor="start" x="1241" y="-438.5" font-family="Helvetica,sans-Serif" font-size="10.00">+ expression()</text>
<text text-anchor="start" x="1241" y="-427.5" font-family="Helvetica,sans-Serif" font-size="10.00">+ unit()</text>
<text text-anchor="start" x="1241" y="-416.5" font-family="Helvetica,sans-Serif" font-size="10.00">+ unit()</text>
<text text-anchor="start" x="1241" y="-405.5" font-family="Helvetica,sans-Serif" font-size="10.00">+ value()</text>
<text text-anchor="start" x="1241" y="-394.5" font-family="Helvetica,sans-Serif" font-size="10.00">+ interval()</text>
</a>
</g>
</g>
<!-- Node1&#45;&gt;Node15 -->
<g id="edge15" class="edge"><title>Node1&#45;&gt;Node15</title>
<path fill="none" stroke="midnightblue" d="M958.384,-630.373C1029.52,-626.671 1144.52,-611.472 1224,-555 1247.18,-538.531 1264.63,-512.161 1276.64,-488.722"/>
<polygon fill="none" stroke="midnightblue" points="958.045,-626.885 948.216,-630.839 958.366,-633.878 958.045,-626.885"/>
</g>
<!-- Node16 -->
<g id="node16" class="node"><title>Node16</title>
<g id="a_node16"><a xlink:href="classscram_1_1mef_1_1Rule.xhtml" target="_top" xlink:title="A reusable collection of instructions. ">
<polygon fill="white" stroke="black" points="1379.5,-404 1379.5,-472 1476.5,-472 1476.5,-404 1379.5,-404"/>
<text text-anchor="middle" x="1428" y="-460" font-family="Helvetica,sans-Serif" font-size="10.00">scram::mef::Rule</text>
<polyline fill="none" stroke="black" points="1379.5,-453 1476.5,-453 "/>
<text text-anchor="middle" x="1428" y="-441" font-family="Helvetica,sans-Serif" font-size="10.00"> </text>
<polyline fill="none" stroke="black" points="1379.5,-434 1476.5,-434 "/>
<text text-anchor="start" x="1387.5" y="-422" font-family="Helvetica,sans-Serif" font-size="10.00">+ instructions()</text>
<text text-anchor="start" x="1387.5" y="-411" font-family="Helvetica,sans-Serif" font-size="10.00">+ instructions()</text>
</a>
</g>
</g>
<!-- Node1&#45;&gt;Node16 -->
<g id="edge16" class="edge"><title>Node1&#45;&gt;Node16</title>
<path fill="none" stroke="midnightblue" d="M958.038,-627.928C1072.34,-621.303 1305.56,-602.257 1370,-555 1397.14,-535.094 1412.37,-498.877 1420.33,-472.189"/>
<polygon fill="none" stroke="midnightblue" points="957.809,-624.436 948.022,-628.495 958.204,-631.424 957.809,-624.436"/>
</g>
<!-- Node17 -->
<g id="node17" class="node"><title>Node17</title>
<g id="a_node17"><a xlink:href="classscram_1_1mef_1_1Sequence.xhtml" target="_top" xlink:title="Representation of sequences in event trees. ">
<polygon fill="white" stroke="black" points="1494.5,-404 1494.5,-472 1619.5,-472 1619.5,-404 1494.5,-404"/>
<text text-anchor="middle" x="1557" y="-460" font-family="Helvetica,sans-Serif" font-size="10.00">scram::mef::Sequence</text>
<polyline fill="none" stroke="black" points="1494.5,-453 1619.5,-453 "/>
<text text-anchor="middle" x="1557" y="-441" font-family="Helvetica,sans-Serif" font-size="10.00"> </text>
<polyline fill="none" stroke="black" points="1494.5,-434 1619.5,-434 "/>
<text text-anchor="start" x="1502.5" y="-422" font-family="Helvetica,sans-Serif" font-size="10.00">+ instructions()</text>
<text text-anchor="start" x="1502.5" y="-411" font-family="Helvetica,sans-Serif" font-size="10.00">+ instructions()</text>
</a>
</g>
</g>
<!-- Node1&#45;&gt;Node17 -->
<g id="edge17" class="edge"><title>Node1&#45;&gt;Node17</title>
<path fill="none" stroke="midnightblue" d="M958.356,-629.653C1093.03,-625.738 1399.21,-610.787 1485,-555 1514.81,-535.618 1534.4,-499.124 1545.52,-472.225"/>
<polygon fill="none" stroke="midnightblue" points="958.085,-626.159 948.186,-629.937 958.28,-633.156 958.085,-626.159"/>
</g>
<!-- Node3 -->
<g id="node3" class="node"><title>Node3</title>
<g id="a_node3"><a xlink:href="classscram_1_1mef_1_1BasicEvent.xhtml" target="_top" xlink:title="Representation of a basic event in a fault tree. ">
<polygon fill="white" stroke="black" points="0,-138.5 0,-283.5 130,-283.5 130,-138.5 0,-138.5"/>
<text text-anchor="middle" x="65" y="-271.5" font-family="Helvetica,sans-Serif" font-size="10.00">scram::mef::BasicEvent</text>
<polyline fill="none" stroke="black" points="0,-264.5 130,-264.5 "/>
<text text-anchor="middle" x="65" y="-252.5" font-family="Helvetica,sans-Serif" font-size="10.00"> </text>
<polyline fill="none" stroke="black" points="0,-245.5 130,-245.5 "/>
<text text-anchor="start" x="8" y="-233.5" font-family="Helvetica,sans-Serif" font-size="10.00">+ ~BasicEvent()</text>
<text text-anchor="start" x="8" y="-222.5" font-family="Helvetica,sans-Serif" font-size="10.00">+ HasExpression()</text>
<text text-anchor="start" x="8" y="-211.5" font-family="Helvetica,sans-Serif" font-size="10.00">+ expression()</text>
<text text-anchor="start" x="8" y="-200.5" font-family="Helvetica,sans-Serif" font-size="10.00">+ expression()</text>
<text text-anchor="start" x="8" y="-189.5" font-family="Helvetica,sans-Serif" font-size="10.00">+ p()</text>
<text text-anchor="start" x="8" y="-178.5" font-family="Helvetica,sans-Serif" font-size="10.00">+ Validate()</text>
<text text-anchor="start" x="8" y="-167.5" font-family="Helvetica,sans-Serif" font-size="10.00">+ HasCcf()</text>
<text text-anchor="start" x="8" y="-156.5" font-family="Helvetica,sans-Serif" font-size="10.00">+ ccf_gate()</text>
<text text-anchor="start" x="8" y="-145.5" font-family="Helvetica,sans-Serif" font-size="10.00">+ ccf_gate()</text>
</a>
</g>
</g>
<!-- Node2&#45;&gt;Node3 -->
<g id="edge2" class="edge"><title>Node2&#45;&gt;Node3</title>
<path fill="none" stroke="midnightblue" d="M177.292,-400.549C158.55,-369.081 130.918,-322.684 107.755,-283.791"/>
<polygon fill="none" stroke="midnightblue" points="174.445,-402.61 182.569,-409.411 180.459,-399.028 174.445,-402.61"/>
</g>
<!-- Node5 -->
<g id="node5" class="node"><title>Node5</title>
<g id="a_node5"><a xlink:href="classscram_1_1mef_1_1Gate.xhtml" target="_top" xlink:title="A representation of a gate in a fault tree. ">
<polygon fill="white" stroke="black" points="148.5,-149.5 148.5,-272.5 249.5,-272.5 249.5,-149.5 148.5,-149.5"/>
<text text-anchor="middle" x="199" y="-260.5" font-family="Helvetica,sans-Serif" font-size="10.00">scram::mef::Gate</text>
<polyline fill="none" stroke="black" points="148.5,-253.5 249.5,-253.5 "/>
<text text-anchor="middle" x="199" y="-241.5" font-family="Helvetica,sans-Serif" font-size="10.00"> </text>
<polyline fill="none" stroke="black" points="148.5,-234.5 249.5,-234.5 "/>
<text text-anchor="start" x="156.5" y="-222.5" font-family="Helvetica,sans-Serif" font-size="10.00">+ HasFormula()</text>
<text text-anchor="start" x="156.5" y="-211.5" font-family="Helvetica,sans-Serif" font-size="10.00">+ formula()</text>
<text text-anchor="start" x="156.5" y="-200.5" font-family="Helvetica,sans-Serif" font-size="10.00">+ Validate()</text>
<text text-anchor="start" x="156.5" y="-189.5" font-family="Helvetica,sans-Serif" font-size="10.00">+ formula()</text>
<text text-anchor="start" x="156.5" y="-178.5" font-family="Helvetica,sans-Serif" font-size="10.00">+ formula()</text>
<text text-anchor="start" x="156.5" y="-167.5" font-family="Helvetica,sans-Serif" font-size="10.00">* formula()</text>
<text text-anchor="start" x="156.5" y="-156.5" font-family="Helvetica,sans-Serif" font-size="10.00">* formula()</text>
</a>
</g>
</g>
<!-- Node2&#45;&gt;Node5 -->
<g id="edge4" class="edge"><title>Node2&#45;&gt;Node5</title>
<path fill="none" stroke="midnightblue" d="M199,-399.293C199,-364.816 199,-313.206 199,-272.888"/>
<polygon fill="none" stroke="midnightblue" points="195.5,-399.411 199,-409.411 202.5,-399.411 195.5,-399.411"/>
</g>
<!-- Node6 -->
<g id="node6" class="node"><title>Node6</title>
<g id="a_node6"><a xlink:href="classscram_1_1mef_1_1HouseEvent.xhtml" target="_top" xlink:title="Representation of a house event in a fault tree. ">
<polygon fill="white" stroke="black" points="267.5,-166 267.5,-256 402.5,-256 402.5,-166 267.5,-166"/>
<text text-anchor="middle" x="335" y="-244" font-family="Helvetica,sans-Serif" font-size="10.00">scram::mef::HouseEvent</text>
<polyline fill="none" stroke="black" points="267.5,-237 402.5,-237 "/>
<text text-anchor="start" x="275.5" y="-225" font-family="Helvetica,sans-Serif" font-size="10.00">+ kTrue</text>
<text text-anchor="start" x="275.5" y="-214" font-family="Helvetica,sans-Serif" font-size="10.00">+ kFalse</text>
<polyline fill="none" stroke="black" points="267.5,-207 402.5,-207 "/>
<text text-anchor="start" x="275.5" y="-195" font-family="Helvetica,sans-Serif" font-size="10.00">+ HouseEvent()</text>
<text text-anchor="start" x="275.5" y="-184" font-family="Helvetica,sans-Serif" font-size="10.00">+ state()</text>
<text text-anchor="start" x="275.5" y="-173" font-family="Helvetica,sans-Serif" font-size="10.00">+ state()</text>
</a>
</g>
</g>
<!-- Node2&#45;&gt;Node6 -->
<g id="edge5" class="edge"><title>Node2&#45;&gt;Node6</title>
<path fill="none" stroke="midnightblue" d="M216.952,-400.187C228.567,-377.071 244.386,-346.848 260,-321 273.243,-299.077 289.177,-275.574 302.947,-256.025"/>
<polygon fill="none" stroke="midnightblue" points="213.735,-398.796 212.402,-409.307 219.998,-401.921 213.735,-398.796"/>
</g>
<!-- Node4 -->
<g id="node4" class="node"><title>Node4</title>
<g id="a_node4"><a xlink:href="classscram_1_1mef_1_1CcfEvent.xhtml" target="_top" xlink:title="A basic event that represents a multiple failure of a group of events due to a common cause...">
<polygon fill="white" stroke="black" points="5.5,-0.5 5.5,-90.5 124.5,-90.5 124.5,-0.5 5.5,-0.5"/>
<text text-anchor="middle" x="65" y="-78.5" font-family="Helvetica,sans-Serif" font-size="10.00">scram::mef::CcfEvent</text>
<polyline fill="none" stroke="black" points="5.5,-71.5 124.5,-71.5 "/>
<text text-anchor="middle" x="65" y="-59.5" font-family="Helvetica,sans-Serif" font-size="10.00"> </text>
<polyline fill="none" stroke="black" points="5.5,-52.5 124.5,-52.5 "/>
<text text-anchor="start" x="13.5" y="-40.5" font-family="Helvetica,sans-Serif" font-size="10.00">+ CcfEvent()</text>
<text text-anchor="start" x="13.5" y="-29.5" font-family="Helvetica,sans-Serif" font-size="10.00">+ ccf_group()</text>
<text text-anchor="start" x="13.5" y="-18.5" font-family="Helvetica,sans-Serif" font-size="10.00">+ members()</text>
<text text-anchor="start" x="13.5" y="-7.5" font-family="Helvetica,sans-Serif" font-size="10.00">+ members()</text>
</a>
</g>
</g>
<!-- Node3&#45;&gt;Node4 -->
<g id="edge3" class="edge"><title>Node3&#45;&gt;Node4</title>
<path fill="none" stroke="midnightblue" d="M65,-128.032C65,-115.218 65,-102.411 65,-90.8701"/>
<polygon fill="none" stroke="midnightblue" points="61.5001,-128.286 65,-138.287 68.5001,-128.287 61.5001,-128.286"/>
</g>
<!-- Node9 -->
<g id="node9" class="node"><title>Node9</title>
<g id="a_node9"><a xlink:href="classscram_1_1mef_1_1ExternFunction.xhtml" target="_top" xlink:title="{scram::mef::ExternFunction\l\&lt; R, Args... \&gt;\n||+ ExternFunction()\l+ operator()()\l+ apply()\l}">
<polygon fill="white" stroke="black" points="416,-0.5 416,-90.5 564,-90.5 564,-0.5 416,-0.5"/>
<text text-anchor="start" x="424" y="-78.5" font-family="Helvetica,sans-Serif" font-size="10.00">scram::mef::ExternFunction</text>
<text text-anchor="middle" x="490" y="-67.5" font-family="Helvetica,sans-Serif" font-size="10.00">&lt; R, Args... &gt;</text>
<polyline fill="none" stroke="black" points="416,-60.5 564,-60.5 "/>
<text text-anchor="middle" x="490" y="-48.5" font-family="Helvetica,sans-Serif" font-size="10.00"> </text>
<polyline fill="none" stroke="black" points="416,-41.5 564,-41.5 "/>
<text text-anchor="start" x="424" y="-29.5" font-family="Helvetica,sans-Serif" font-size="10.00">+ ExternFunction()</text>
<text text-anchor="start" x="424" y="-18.5" font-family="Helvetica,sans-Serif" font-size="10.00">+ operator()()</text>
<text text-anchor="start" x="424" y="-7.5" font-family="Helvetica,sans-Serif" font-size="10.00">+ apply()</text>
</a>
</g>
</g>
<!-- Node8&#45;&gt;Node9 -->
<g id="edge8" class="edge"><title>Node8&#45;&gt;Node9</title>
<path fill="none" stroke="midnightblue" d="M480.352,-388.041C475.456,-328.763 469.312,-225.931 476,-138 477.182,-122.457 479.479,-105.556 481.875,-90.5574"/>
<polygon fill="none" stroke="midnightblue" points="476.883,-388.567 481.217,-398.235 483.858,-387.975 476.883,-388.567"/>
</g>
<!-- Node10 -->
<g id="node10" class="node"><title>Node10</title>
<g id="a_node10"><a xlink:href="classscram_1_1mef_1_1ExternFunction.xhtml" target="_top" xlink:title="Extern function abstraction to be referenced by expressions. ">
<polygon fill="white" stroke="black" points="485,-166 485,-256 633,-256 633,-166 485,-166"/>
<text text-anchor="start" x="493" y="-244" font-family="Helvetica,sans-Serif" font-size="10.00">scram::mef::ExternFunction</text>
<text text-anchor="middle" x="559" y="-233" font-family="Helvetica,sans-Serif" font-size="10.00">&lt; R, Args &gt;</text>
<polyline fill="none" stroke="black" points="485,-226 633,-226 "/>
<text text-anchor="middle" x="559" y="-214" font-family="Helvetica,sans-Serif" font-size="10.00"> </text>
<polyline fill="none" stroke="black" points="485,-207 633,-207 "/>
<text text-anchor="start" x="493" y="-195" font-family="Helvetica,sans-Serif" font-size="10.00">+ ExternFunction()</text>
<text text-anchor="start" x="493" y="-184" font-family="Helvetica,sans-Serif" font-size="10.00">+ operator()()</text>
<text text-anchor="start" x="493" y="-173" font-family="Helvetica,sans-Serif" font-size="10.00">+ apply()</text>
</a>
</g>
</g>
<!-- Node8&#45;&gt;Node10 -->
<g id="edge9" class="edge"><title>Node8&#45;&gt;Node10</title>
<path fill="none" stroke="midnightblue" d="M500.886,-388.697C513.799,-349.436 531.868,-294.495 544.417,-256.342"/>
<polygon fill="none" stroke="midnightblue" points="497.521,-387.728 497.721,-398.321 504.17,-389.915 497.521,-387.728"/>
</g>
<!-- Node10&#45;&gt;Node9 -->
<g id="edge10" class="edge"><title>Node10&#45;&gt;Node9</title>
<path fill="none" stroke="orange" d="M536.431,-156.522C527.451,-135.244 517.242,-111.051 508.687,-90.7808"/>
<polygon fill="orange" stroke="orange" points="533.215,-157.902 540.328,-165.755 539.664,-155.181 533.215,-157.902"/>
<text text-anchor="middle" x="555.5" y="-112" font-family="Helvetica,sans-Serif" font-size="10.00"> &lt; R, Args... &gt;</text>
</g>
</g>
</svg>
        <g id="navigator" transform="translate(0 0)" fill="#404254">
                <rect fill="#f2f5e9" fill-opacity="0.5" stroke="#606060" stroke-width=".5" x="0" y="0" width="60" height="60"/>
                <use id="zoomplus" xlink:href="#zoomPlus" x="17" y="9" onmousedown="handleZoom(evt,'in')"/>
                <use id="zoomminus" xlink:href="#zoomMin" x="42" y="9" onmousedown="handleZoom(evt,'out')"/>
                <use id="reset" xlink:href="#resetDef" x="30" y="36" onmousedown="handleReset()"/>
                <g id="arrowUp" xlink:href="#dirArrow" transform="translate(30 24)" onmousedown="handlePan(0,-1)">
                  <use xlink:href="#rim" fill="#404040">
                        <set attributeName="fill" to="#808080" begin="arrowUp.mouseover" end="arrowUp.mouseout"/>
                  </use>
                  <path fill="none" stroke="white" stroke-width="1.5" d="M0,-3.0v7 M-2.5,-0.5L0,-3.0L2.5,-0.5"/>
                </g>
                <g id="arrowRight" xlink:href="#dirArrow" transform="rotate(90) translate(36 -43)" onmousedown="handlePan(1,0)">
                  <use xlink:href="#rim" fill="#404040">
                        <set attributeName="fill" to="#808080" begin="arrowRight.mouseover" end="arrowRight.mouseout"/>
                  </use>
                  <path fill="none" stroke="white" stroke-width="1.5" d="M0,-3.0v7 M-2.5,-0.5L0,-3.0L2.5,-0.5"/>
                </g>
                <g id="arrowDown" xlink:href="#dirArrow" transform="rotate(180) translate(-30 -48)" onmousedown="handlePan(0,1)">
                  <use xlink:href="#rim" fill="#404040">
                        <set attributeName="fill" to="#808080" begin="arrowDown.mouseover" end="arrowDown.mouseout"/>
                  </use>
                  <path fill="none" stroke="white" stroke-width="1.5" d="M0,-3.0v7 M-2.5,-0.5L0,-3.0L2.5,-0.5"/>
                </g>
                <g id="arrowLeft" xlink:href="#dirArrow" transform="rotate(270) translate(-36 17)" onmousedown="handlePan(-1,0)">
                  <use xlink:href="#rim" fill="#404040">
                        <set attributeName="fill" to="#808080" begin="arrowLeft.mouseover" end="arrowLeft.mouseout"/>
                  </use>
                  <path fill="none" stroke="white" stroke-width="1.5" d="M0,-3.0v7 M-2.5,-0.5L0,-3.0L2.5,-0.5"/>
                </g>
        </g>
        <svg viewBox="0 0 15 15" width="100%" height="30px" preserveAspectRatio="xMaxYMin meet">
         <g id="arrow_out" transform="scale(0.3 0.3)">
          <a xlink:href="classscram_1_1mef_1_1Usage__inherit__graph_org.svg" target="_base">
           <rect id="button" ry="5" rx="5" y="6" x="6" height="38" width="38"
                fill="#f2f5e9" fill-opacity="0.5" stroke="#606060" stroke-width="1.0"/>
           <path id="arrow"
             d="M 11.500037,31.436501 C 11.940474,20.09759 22.043105,11.32322 32.158766,21.979434 L 37.068811,17.246167 C 37.068811,17.246167 37.088388,32 37.088388,32 L 22.160133,31.978069 C 22.160133,31.978069 26.997745,27.140456 26.997745,27.140456 C 18.528582,18.264221 13.291696,25.230495 11.500037,31.436501 z"
             style="fill:#404040;"/>
          </a>
         </g>
        </svg>
</svg>
