<?xml version="1.0" encoding="UTF-8" standalone="no"?>
<!DOCTYPE svg PUBLIC "-//W3C//DTD SVG 1.1//EN"
 "http://www.w3.org/Graphics/SVG/1.1/DTD/svg11.dtd">
<!-- Generated by graphviz version 2.38.0 (20140413.2041)
 -->
<!-- Title: scram::mef::Expression::value Pages: 1 -->
<!--zoomable 1015 -->
<svg id="main" version="1.1" xmlns="http://www.w3.org/2000/svg" xmlns:xlink="http://www.w3.org/1999/xlink" xml:space="preserve" onload="init(evt)">
<style type="text/css"><![CDATA[
.edge:hover path { stroke: red; }
.edge:hover polygon { stroke: red; fill: red; }
]]></style>
<script type="text/javascript"><![CDATA[
var edges = document.getElementsByTagName('g');
if (edges && edges.length) {
  for (var i=0;i<edges.length;i++) {
    if (edges[i].id.substr(0,4)=='edge') {
      edges[i].setAttribute('class','edge');
    }
  }
}
]]></script>
        <defs>
                <circle id="rim" cx="0" cy="0" r="7"/>
                <circle id="rim2" cx="0" cy="0" r="3.5"/>
                <g id="zoomPlus">
                        <use xlink:href="#rim" fill="#404040">
                                <set attributeName="fill" to="#808080" begin="zoomplus.mouseover" end="zoomplus.mouseout"/>
                        </use>
                        <path d="M-4,0h8M0,-4v8" fill="none" stroke="white" stroke-width="1.5" pointer-events="none"/>
                </g>
                <g id="zoomMin">
                        <use xlink:href="#rim" fill="#404040">
                                <set attributeName="fill" to="#808080" begin="zoomminus.mouseover" end="zoomminus.mouseout"/>
                        </use>
                        <path d="M-4,0h8" fill="none" stroke="white" stroke-width="1.5" pointer-events="none"/>
                </g>
                <g id="dirArrow">
                        <path fill="none" stroke="white" stroke-width="1.5" d="M0,-3.0v7 M-2.5,-0.5L0,-3.0L2.5,-0.5"/>
                </g>
               <g id="resetDef">
                       <use xlink:href="#rim2" fill="#404040">
                               <set attributeName="fill" to="#808080" begin="reset.mouseover" end="reset.mouseout"/>
                       </use>
               </g>
        </defs>

<script type="text/javascript">
var viewWidth = 1120;
var viewHeight = 1015;
var sectionId = 'dynsection-4';
</script>
<script xlink:href="svgpan.js"/>
<svg id="graph" class="graph">
<g id="viewport">
<title>scram::mef::Expression::value</title>
<polygon fill="white" stroke="none" points="-4,4 -4,-1010.5 1116,-1010.5 1116,4 -4,4"/>
<!-- Node1 -->
<g id="node1" class="node"><title>Node1</title>
<polygon fill="#bfbfbf" stroke="black" points="0,-451.5 0,-481.5 129,-481.5 129,-451.5 0,-451.5"/>
<text text-anchor="start" x="8" y="-469.5" font-family="Helvetica,sans-Serif" font-size="10.00">scram::mef::Expression</text>
<text text-anchor="middle" x="64.5" y="-458.5" font-family="Helvetica,sans-Serif" font-size="10.00">::value</text>
</g>
<!-- Node2 -->
<g id="node2" class="node"><title>Node2</title>
<g id="a_node2"><a xlink:href="classscram_1_1mef_1_1CcfGroup.xhtml#ab399c5ed0c1d7d0a316ac3b7244b7eb9" target="_top" xlink:title="Processes the given factors and members to create common cause failure probabilities and new events t...">
<polygon fill="white" stroke="black" points="964,-969.5 964,-999.5 1086,-999.5 1086,-969.5 964,-969.5"/>
<text text-anchor="start" x="972" y="-987.5" font-family="Helvetica,sans-Serif" font-size="10.00">scram::mef::CcfGroup</text>
<text text-anchor="middle" x="1025" y="-976.5" font-family="Helvetica,sans-Serif" font-size="10.00">::ApplyModel</text>
</a>
</g>
</g>
<!-- Node1&#45;&gt;Node2 -->
<g id="edge1" class="edge"><title>Node1&#45;&gt;Node2</title>
<path fill="none" stroke="midnightblue" d="M65.3092,-492.029C66.1088,-558.669 76.7627,-740.458 165,-852.5 255.17,-966.995 308.761,-1006.5 454.5,-1006.5 454.5,-1006.5 454.5,-1006.5 656,-1006.5 764.645,-1006.5 891.011,-996.827 963.828,-990.309"/>
<polygon fill="midnightblue" stroke="midnightblue" points="68.8073,-491.638 65.2562,-481.656 61.8074,-491.673 68.8073,-491.638"/>
</g>
<!-- Node3 -->
<g id="node3" class="node"><title>Node3</title>
<g id="a_node3"><a xlink:href="expression_8cc.xhtml#a9b787fed653e7b5a1b6d6ace04643516" target="_top" xlink:title="Ensures that expression yields non&#45;negative (&gt;= 0) values. ">
<polygon fill="white" stroke="black" points="369,-759 369,-778 542,-778 542,-759 369,-759"/>
<text text-anchor="middle" x="455.5" y="-766" font-family="Helvetica,sans-Serif" font-size="10.00">scram::mef::EnsureNonNegative</text>
</a>
</g>
</g>
<!-- Node1&#45;&gt;Node3 -->
<g id="edge2" class="edge"><title>Node1&#45;&gt;Node3</title>
<path fill="none" stroke="midnightblue" d="M67.6806,-491.995C73.5095,-543.225 94.2156,-658.687 165,-716.5 221.754,-762.854 305.846,-773.58 368.795,-774.055"/>
<polygon fill="midnightblue" stroke="midnightblue" points="71.1366,-491.39 66.6239,-481.804 64.174,-492.112 71.1366,-491.39"/>
</g>
<!-- Node11 -->
<g id="node11" class="node"><title>Node11</title>
<g id="a_node11"><a xlink:href="expression_8cc.xhtml#a0361a4eda6025e09ca91ec2d1447ad1b" target="_top" xlink:title="Ensures that expression yields positive (&gt; 0) values. ">
<polygon fill="white" stroke="black" points="382,-815 382,-834 529,-834 529,-815 382,-815"/>
<text text-anchor="middle" x="455.5" y="-822" font-family="Helvetica,sans-Serif" font-size="10.00">scram::mef::EnsurePositive</text>
</a>
</g>
</g>
<!-- Node1&#45;&gt;Node11 -->
<g id="edge11" class="edge"><title>Node1&#45;&gt;Node11</title>
<path fill="none" stroke="midnightblue" d="M66.3335,-491.756C69.6256,-548.302 85.8087,-685.739 165,-757.5 224.063,-811.021 317.28,-824.344 381.913,-826.495"/>
<polygon fill="midnightblue" stroke="midnightblue" points="69.8196,-491.385 65.8321,-481.569 62.828,-491.729 69.8196,-491.385"/>
</g>
<!-- Node12 -->
<g id="node12" class="node"><title>Node12</title>
<g id="a_node12"><a xlink:href="expression_8cc.xhtml#a2c0a639b694ccfdf4b7d6913d8a635de" target="_top" xlink:title="Ensures that expression can be used for probability ([0, 1]). ">
<polygon fill="white" stroke="black" points="375.5,-871 375.5,-890 535.5,-890 535.5,-871 375.5,-871"/>
<text text-anchor="middle" x="455.5" y="-878" font-family="Helvetica,sans-Serif" font-size="10.00">scram::mef::EnsureProbability</text>
</a>
</g>
</g>
<!-- Node1&#45;&gt;Node12 -->
<g id="edge18" class="edge"><title>Node1&#45;&gt;Node12</title>
<path fill="none" stroke="midnightblue" d="M65.2035,-491.942C65.9121,-554.306 76.6609,-716.048 165,-803.5 220.44,-858.384 310.303,-875.386 375.216,-880.057"/>
<polygon fill="midnightblue" stroke="midnightblue" points="68.7032,-491.81 65.1698,-481.822 61.7032,-491.833 68.7032,-491.81"/>
</g>
<!-- Node18 -->
<g id="node18" class="node"><title>Node18</title>
<g id="a_node18"><a xlink:href="expression_8cc.xhtml#aa5f8250f3fc162fc8c018bd57c877a0e" target="_top" xlink:title="Ensures that expression values are within the interval. ">
<polygon fill="white" stroke="black" points="386,-516 386,-535 525,-535 525,-516 386,-516"/>
<text text-anchor="middle" x="455.5" y="-523" font-family="Helvetica,sans-Serif" font-size="10.00">scram::mef::EnsureWithin</text>
</a>
</g>
</g>
<!-- Node1&#45;&gt;Node18 -->
<g id="edge29" class="edge"><title>Node1&#45;&gt;Node18</title>
<path fill="none" stroke="midnightblue" d="M72.3349,-491.429C84.1491,-529.045 112.339,-599.043 165,-628.5 230.165,-664.951 268.672,-666.408 333,-628.5 361.451,-611.734 344.649,-585.807 369,-563.5 383.373,-550.333 403.058,-541.161 419.917,-535.131"/>
<polygon fill="midnightblue" stroke="midnightblue" points="75.6541,-490.312 69.4302,-481.738 68.9489,-492.322 75.6541,-490.312"/>
</g>
<!-- Node19 -->
<g id="node19" class="node"><title>Node19</title>
<g id="a_node19"><a xlink:href="classscram_1_1mef_1_1Expression.xhtml#a179b21e75df522673e6d51b784d10e86" target="_top" xlink:title="scram::mef::Expression\l::interval">
<polygon fill="white" stroke="black" points="184.5,-676.5 184.5,-706.5 313.5,-706.5 313.5,-676.5 184.5,-676.5"/>
<text text-anchor="start" x="192.5" y="-694.5" font-family="Helvetica,sans-Serif" font-size="10.00">scram::mef::Expression</text>
<text text-anchor="middle" x="249" y="-683.5" font-family="Helvetica,sans-Serif" font-size="10.00">::interval</text>
</a>
</g>
</g>
<!-- Node1&#45;&gt;Node19 -->
<g id="edge33" class="edge"><title>Node1&#45;&gt;Node19</title>
<path fill="none" stroke="midnightblue" d="M71.7205,-491.283C83.2564,-532.33 111.777,-614.545 165,-661.5 171.894,-667.582 180.116,-672.461 188.664,-676.367"/>
<polygon fill="midnightblue" stroke="midnightblue" points="75.0777,-490.29 69.0889,-481.55 68.3203,-492.117 75.0777,-490.29"/>
</g>
<!-- Node21 -->
<g id="node21" class="node"><title>Node21</title>
<g id="a_node21"><a xlink:href="classscram_1_1mef_1_1LognormalDeviate.xhtml#a18f3499d5d98d1af462db56d07069997" target="_top" xlink:title="scram::mef::LognormalDeviate\l::value">
<polygon fill="white" stroke="black" points="373,-466.5 373,-496.5 538,-496.5 538,-466.5 373,-466.5"/>
<text text-anchor="start" x="381" y="-484.5" font-family="Helvetica,sans-Serif" font-size="10.00">scram::mef::LognormalDeviate</text>
<text text-anchor="middle" x="455.5" y="-473.5" font-family="Helvetica,sans-Serif" font-size="10.00">::value</text>
</a>
</g>
</g>
<!-- Node1&#45;&gt;Node21 -->
<g id="edge53" class="edge"><title>Node1&#45;&gt;Node21</title>
<path fill="none" stroke="midnightblue" d="M86.923,-488.968C105.597,-506.807 134.421,-530.376 165,-540.5 235.882,-563.969 263.616,-568.086 333,-540.5 353.451,-532.369 349.908,-517.448 369,-506.5 375.708,-502.653 383.057,-499.356 390.541,-496.539"/>
<polygon fill="midnightblue" stroke="midnightblue" points="89.1487,-486.248 79.5655,-481.73 84.2394,-491.238 89.1487,-486.248"/>
</g>
<!-- Node24 -->
<g id="node24" class="node"><title>Node24</title>
<g id="a_node24"><a xlink:href="classscram_1_1mef_1_1NormalDeviate.xhtml#a502421d76dd262810fd70aed68f742e0" target="_top" xlink:title="scram::mef::NormalDeviate\l::interval">
<polygon fill="white" stroke="black" points="174.5,-500.5 174.5,-530.5 323.5,-530.5 323.5,-500.5 174.5,-500.5"/>
<text text-anchor="start" x="182.5" y="-518.5" font-family="Helvetica,sans-Serif" font-size="10.00">scram::mef::NormalDeviate</text>
<text text-anchor="middle" x="249" y="-507.5" font-family="Helvetica,sans-Serif" font-size="10.00">::interval</text>
</a>
</g>
</g>
<!-- Node1&#45;&gt;Node24 -->
<g id="edge43" class="edge"><title>Node1&#45;&gt;Node24</title>
<path fill="none" stroke="midnightblue" d="M131.604,-484.248C151.383,-489.559 172.872,-495.329 191.941,-500.448"/>
<polygon fill="midnightblue" stroke="midnightblue" points="132.311,-480.814 121.745,-481.601 130.495,-487.575 132.311,-480.814"/>
</g>
<!-- Node25 -->
<g id="node25" class="node"><title>Node25</title>
<g id="a_node25"><a xlink:href="classscram_1_1mef_1_1GammaDeviate.xhtml#a76d78aab0bcd2e472abb3e001e455f1f" target="_top" xlink:title="The high is 99 percentile. ">
<polygon fill="white" stroke="black" points="172.5,-451.5 172.5,-481.5 325.5,-481.5 325.5,-451.5 172.5,-451.5"/>
<text text-anchor="start" x="180.5" y="-469.5" font-family="Helvetica,sans-Serif" font-size="10.00">scram::mef::GammaDeviate</text>
<text text-anchor="middle" x="249" y="-458.5" font-family="Helvetica,sans-Serif" font-size="10.00">::interval</text>
</a>
</g>
</g>
<!-- Node1&#45;&gt;Node25 -->
<g id="edge44" class="edge"><title>Node1&#45;&gt;Node25</title>
<path fill="none" stroke="midnightblue" d="M139.386,-466.5C150.273,-466.5 161.503,-466.5 172.424,-466.5"/>
<polygon fill="midnightblue" stroke="midnightblue" points="139.073,-463 129.073,-466.5 139.073,-470 139.073,-463"/>
</g>
<!-- Node26 -->
<g id="node26" class="node"><title>Node26</title>
<g id="a_node26"><a xlink:href="classscram_1_1mef_1_1BetaDeviate.xhtml#ad019a413a7e7a2e6602db98e74792450" target="_top" xlink:title="scram::mef::BetaDeviate\l::interval">
<polygon fill="white" stroke="black" points="180.5,-402.5 180.5,-432.5 317.5,-432.5 317.5,-402.5 180.5,-402.5"/>
<text text-anchor="start" x="188.5" y="-420.5" font-family="Helvetica,sans-Serif" font-size="10.00">scram::mef::BetaDeviate</text>
<text text-anchor="middle" x="249" y="-409.5" font-family="Helvetica,sans-Serif" font-size="10.00">::interval</text>
</a>
</g>
</g>
<!-- Node1&#45;&gt;Node26 -->
<g id="edge45" class="edge"><title>Node1&#45;&gt;Node26</title>
<path fill="none" stroke="midnightblue" d="M131.604,-448.752C151.383,-443.441 172.872,-437.671 191.941,-432.552"/>
<polygon fill="midnightblue" stroke="midnightblue" points="130.495,-445.425 121.745,-451.399 132.311,-452.186 130.495,-445.425"/>
</g>
<!-- Node27 -->
<g id="node27" class="node"><title>Node27</title>
<g id="a_node27"><a xlink:href="classscram_1_1mef_1_1Histogram.xhtml#a4aab126e9ab267847d9dbd78cedf0682" target="_top" xlink:title="scram::mef::Histogram\l::interval">
<polygon fill="white" stroke="black" points="185,-353.5 185,-383.5 313,-383.5 313,-353.5 185,-353.5"/>
<text text-anchor="start" x="193" y="-371.5" font-family="Helvetica,sans-Serif" font-size="10.00">scram::mef::Histogram</text>
<text text-anchor="middle" x="249" y="-360.5" font-family="Helvetica,sans-Serif" font-size="10.00">::interval</text>
</a>
</g>
</g>
<!-- Node1&#45;&gt;Node27 -->
<g id="edge46" class="edge"><title>Node1&#45;&gt;Node27</title>
<path fill="none" stroke="midnightblue" d="M89.968,-444.842C109.216,-428.76 137.321,-407.309 165,-393.5 172.541,-389.738 180.755,-386.425 188.986,-383.546"/>
<polygon fill="midnightblue" stroke="midnightblue" points="87.6425,-442.225 82.2884,-451.368 92.1752,-447.56 87.6425,-442.225"/>
</g>
<!-- Node28 -->
<g id="node28" class="node"><title>Node28</title>
<g id="a_node28"><a xlink:href="classscram_1_1mef_1_1UniformDeviate.xhtml#a558a657077fa6d4c1000d21863d56fda" target="_top" xlink:title="scram::mef::UniformDeviate\l::Validate">
<polygon fill="white" stroke="black" points="173,-304.5 173,-334.5 325,-334.5 325,-304.5 173,-304.5"/>
<text text-anchor="start" x="181" y="-322.5" font-family="Helvetica,sans-Serif" font-size="10.00">scram::mef::UniformDeviate</text>
<text text-anchor="middle" x="249" y="-311.5" font-family="Helvetica,sans-Serif" font-size="10.00">::Validate</text>
</a>
</g>
</g>
<!-- Node1&#45;&gt;Node28 -->
<g id="edge47" class="edge"><title>Node1&#45;&gt;Node28</title>
<path fill="none" stroke="midnightblue" d="M78.8899,-442.659C95.5773,-415.075 126.629,-370.169 165,-344.5 170.754,-340.651 177.12,-337.378 183.692,-334.598"/>
<polygon fill="midnightblue" stroke="midnightblue" points="75.8605,-440.906 73.7916,-451.297 81.8888,-444.464 75.8605,-440.906"/>
</g>
<!-- Node29 -->
<g id="node29" class="node"><title>Node29</title>
<g id="a_node29"><a xlink:href="classscram_1_1mef_1_1Expression.xhtml#af3e09d926b52f6077aa85c26454c4e18" target="_top" xlink:title="Validates the expression. ">
<polygon fill="white" stroke="black" points="184.5,-588.5 184.5,-618.5 313.5,-618.5 313.5,-588.5 184.5,-588.5"/>
<text text-anchor="start" x="192.5" y="-606.5" font-family="Helvetica,sans-Serif" font-size="10.00">scram::mef::Expression</text>
<text text-anchor="middle" x="249" y="-595.5" font-family="Helvetica,sans-Serif" font-size="10.00">::Validate</text>
</a>
</g>
</g>
<!-- Node1&#45;&gt;Node29 -->
<g id="edge48" class="edge"><title>Node1&#45;&gt;Node29</title>
<path fill="none" stroke="midnightblue" d="M81.9982,-489.975C99.9469,-513.963 130.703,-550.82 165,-573.5 173.946,-579.416 184.206,-584.34 194.392,-588.372"/>
<polygon fill="midnightblue" stroke="midnightblue" points="84.7177,-487.765 75.9821,-481.77 79.0724,-491.904 84.7177,-487.765"/>
</g>
<!-- Node30 -->
<g id="node30" class="node"><title>Node30</title>
<g id="a_node30"><a xlink:href="classscram_1_1mef_1_1NormalDeviate.xhtml#a00e2955e101aa9725b2dd503c5f4c61a" target="_top" xlink:title="scram::mef::NormalDeviate\l::Validate">
<polygon fill="white" stroke="black" points="174.5,-255.5 174.5,-285.5 323.5,-285.5 323.5,-255.5 174.5,-255.5"/>
<text text-anchor="start" x="182.5" y="-273.5" font-family="Helvetica,sans-Serif" font-size="10.00">scram::mef::NormalDeviate</text>
<text text-anchor="middle" x="249" y="-262.5" font-family="Helvetica,sans-Serif" font-size="10.00">::Validate</text>
</a>
</g>
</g>
<!-- Node1&#45;&gt;Node30 -->
<g id="edge50" class="edge"><title>Node1&#45;&gt;Node30</title>
<path fill="none" stroke="midnightblue" d="M73.2591,-441.822C86.2261,-404.594 115.835,-334.306 165,-295.5 169.843,-291.677 175.264,-288.438 180.953,-285.693"/>
<polygon fill="midnightblue" stroke="midnightblue" points="69.9109,-440.798 70.0407,-451.392 76.5458,-443.03 69.9109,-440.798"/>
</g>
<!-- Node31 -->
<g id="node31" class="node"><title>Node31</title>
<g id="a_node31"><a xlink:href="classscram_1_1mef_1_1GammaDeviate.xhtml#a4e6270b70787e8ab6f58c605ddebf674" target="_top" xlink:title="scram::mef::GammaDeviate\l::Validate">
<polygon fill="white" stroke="black" points="172.5,-206.5 172.5,-236.5 325.5,-236.5 325.5,-206.5 172.5,-206.5"/>
<text text-anchor="start" x="180.5" y="-224.5" font-family="Helvetica,sans-Serif" font-size="10.00">scram::mef::GammaDeviate</text>
<text text-anchor="middle" x="249" y="-213.5" font-family="Helvetica,sans-Serif" font-size="10.00">::Validate</text>
</a>
</g>
</g>
<!-- Node1&#45;&gt;Node31 -->
<g id="edge51" class="edge"><title>Node1&#45;&gt;Node31</title>
<path fill="none" stroke="midnightblue" d="M69.8125,-441.48C78.9802,-395.928 104.715,-299.3 165,-246.5 169.415,-242.633 174.411,-239.364 179.709,-236.601"/>
<polygon fill="midnightblue" stroke="midnightblue" points="66.3557,-440.923 67.9178,-451.402 73.2315,-442.236 66.3557,-440.923"/>
</g>
<!-- Node32 -->
<g id="node32" class="node"><title>Node32</title>
<g id="a_node32"><a xlink:href="classscram_1_1mef_1_1BetaDeviate.xhtml#aa65f2fd1412e180085e80bbcbace562b" target="_top" xlink:title="scram::mef::BetaDeviate\l::Validate">
<polygon fill="white" stroke="black" points="180.5,-157.5 180.5,-187.5 317.5,-187.5 317.5,-157.5 180.5,-157.5"/>
<text text-anchor="start" x="188.5" y="-175.5" font-family="Helvetica,sans-Serif" font-size="10.00">scram::mef::BetaDeviate</text>
<text text-anchor="middle" x="249" y="-164.5" font-family="Helvetica,sans-Serif" font-size="10.00">::Validate</text>
</a>
</g>
</g>
<!-- Node1&#45;&gt;Node32 -->
<g id="edge52" class="edge"><title>Node1&#45;&gt;Node32</title>
<path fill="none" stroke="midnightblue" d="M67.4919,-441.295C73.0411,-388.335 93.365,-264.845 165,-197.5 169.496,-193.274 174.68,-189.76 180.217,-186.839"/>
<polygon fill="midnightblue" stroke="midnightblue" points="63.9858,-441.193 66.5188,-451.48 70.9541,-441.858 63.9858,-441.193"/>
</g>
<!-- Node33 -->
<g id="node33" class="node"><title>Node33</title>
<g id="a_node33"><a xlink:href="classscram_1_1mef_1_1ExpressionFormula.xhtml#a1f7c71744d679ab1a4e5ca3ca98277a6" target="_top" xlink:title="Computes the expression with argument expression default values. ">
<polygon fill="white" stroke="black" points="165,-98 165,-139 333,-139 333,-98 165,-98"/>
<text text-anchor="start" x="173" y="-127" font-family="Helvetica,sans-Serif" font-size="10.00">scram::mef::ExpressionFormula</text>
<text text-anchor="start" x="173" y="-116" font-family="Helvetica,sans-Serif" font-size="10.00">&lt; NaryExpression&lt; T, 1 &gt;</text>
<text text-anchor="middle" x="249" y="-105" font-family="Helvetica,sans-Serif" font-size="10.00"> &gt;::value</text>
</a>
</g>
</g>
<!-- Node1&#45;&gt;Node33 -->
<g id="edge54" class="edge"><title>Node1&#45;&gt;Node33</title>
<path fill="none" stroke="midnightblue" d="M66.0421,-441.137C68.6893,-381.633 83.5549,-231.745 165,-147.5 167.971,-144.427 171.284,-141.68 174.831,-139.223"/>
<polygon fill="midnightblue" stroke="midnightblue" points="62.532,-441.354 65.6679,-451.474 69.5274,-441.607 62.532,-441.354"/>
</g>
<!-- Node34 -->
<g id="node34" class="node"><title>Node34</title>
<g id="a_node34"><a xlink:href="classscram_1_1mef_1_1Histogram.xhtml#a2ea1258aa096f32013766848a318eb7f" target="_top" xlink:title="scram::mef::Histogram\l::value">
<polygon fill="white" stroke="black" points="185,-49.5 185,-79.5 313,-79.5 313,-49.5 185,-49.5"/>
<text text-anchor="start" x="193" y="-67.5" font-family="Helvetica,sans-Serif" font-size="10.00">scram::mef::Histogram</text>
<text text-anchor="middle" x="249" y="-56.5" font-family="Helvetica,sans-Serif" font-size="10.00">::value</text>
</a>
</g>
</g>
<!-- Node1&#45;&gt;Node34 -->
<g id="edge55" class="edge"><title>Node1&#45;&gt;Node34</title>
<path fill="none" stroke="midnightblue" d="M68.9159,-440.962C79.6265,-364.559 114.849,-139.874 165,-88.5 170.553,-82.8112 177.365,-78.4492 184.675,-75.1085"/>
<polygon fill="midnightblue" stroke="midnightblue" points="65.4141,-440.736 67.5147,-451.121 72.3484,-441.693 65.4141,-440.736"/>
</g>
<!-- Node35 -->
<g id="node35" class="node"><title>Node35</title>
<g id="a_node35"><a xlink:href="classscram_1_1mef_1_1InstructionVisitor.xhtml#a100bdabeea8503c87dd349eda22e3b14" target="_top" xlink:title="A set of required visitation functions for concrete visitors to implement. ">
<polygon fill="white" stroke="black" points="170,-0.5 170,-30.5 328,-30.5 328,-0.5 170,-0.5"/>
<text text-anchor="start" x="178" y="-18.5" font-family="Helvetica,sans-Serif" font-size="10.00">scram::mef::InstructionVisitor</text>
<text text-anchor="middle" x="249" y="-7.5" font-family="Helvetica,sans-Serif" font-size="10.00">::Visit</text>
</a>
</g>
</g>
<!-- Node1&#45;&gt;Node35 -->
<g id="edge56" class="edge"><title>Node1&#45;&gt;Node35</title>
<path fill="none" stroke="midnightblue" d="M68.0823,-440.998C76.9645,-358.178 108.843,-98.6877 165,-39.5 168.201,-36.1267 171.843,-33.2185 175.774,-30.7121"/>
<polygon fill="midnightblue" stroke="midnightblue" points="64.5902,-440.74 67.0249,-451.051 71.5518,-441.472 64.5902,-440.74"/>
</g>
<!-- Node3&#45;&gt;Node3 -->
<g id="edge5" class="edge"><title>Node3&#45;&gt;Node3</title>
<path fill="none" stroke="midnightblue" d="M418.375,-786.004C418.381,-791.836 430.756,-796.5 455.5,-796.5 490.691,-796.5 500.864,-787.065 486.018,-778.257"/>
<polygon fill="midnightblue" stroke="midnightblue" points="421.156,-788.137 424.982,-778.257 415.83,-783.594 421.156,-788.137"/>
</g>
<!-- Node4 -->
<g id="node4" class="node"><title>Node4</title>
<g id="a_node4"><a xlink:href="classscram_1_1mef_1_1Mean.xhtml#ab75b082938d5f6ed2b7bd2d45c3c850b" target="_top" xlink:title="Computes the expression value with a given argument value extractor. ">
<polygon fill="white" stroke="black" points="578,-625 578,-644 732,-644 732,-625 578,-625"/>
<text text-anchor="middle" x="655" y="-632" font-family="Helvetica,sans-Serif" font-size="10.00">scram::mef::Mean::Compute</text>
</a>
</g>
</g>
<!-- Node3&#45;&gt;Node4 -->
<g id="edge3" class="edge"><title>Node3&#45;&gt;Node4</title>
<path fill="none" stroke="midnightblue" d="M536.404,-753.769C538.354,-752.457 540.225,-751.037 542,-749.5 576.135,-719.945 544.443,-684.71 578,-654.5 582.766,-650.21 588.343,-646.82 594.274,-644.146"/>
<polygon fill="midnightblue" stroke="midnightblue" points="534.385,-750.89 527.404,-758.86 537.832,-756.983 534.385,-750.89"/>
</g>
<!-- Node5 -->
<g id="node5" class="node"><title>Node5</title>
<g id="a_node5"><a xlink:href="classscram_1_1mef_1_1NaryExpression_3_01T_00-1_01_4.xhtml#aad5811e7fc2298aaf486697e050774fa" target="_top" xlink:title="Computes the expression value with a given argument value extractor. ">
<polygon fill="white" stroke="black" points="579,-663.5 579,-693.5 731,-693.5 731,-663.5 579,-663.5"/>
<text text-anchor="start" x="587" y="-681.5" font-family="Helvetica,sans-Serif" font-size="10.00">scram::mef::NaryExpression</text>
<text text-anchor="middle" x="655" y="-670.5" font-family="Helvetica,sans-Serif" font-size="10.00">&lt; T,&#45;1 &gt;::Compute</text>
</a>
</g>
</g>
<!-- Node3&#45;&gt;Node5 -->
<g id="edge4" class="edge"><title>Node3&#45;&gt;Node5</title>
<path fill="none" stroke="midnightblue" d="M531.33,-755.204C535.041,-753.522 538.624,-751.629 542,-749.5 563.958,-735.65 556.755,-718.421 578,-703.5 583.456,-699.668 589.538,-696.394 595.819,-693.604"/>
<polygon fill="midnightblue" stroke="midnightblue" points="529.879,-752.014 521.883,-758.965 532.469,-758.517 529.879,-752.014"/>
</g>
<!-- Node6 -->
<g id="node6" class="node"><title>Node6</title>
<g id="a_node6"><a xlink:href="classscram_1_1mef_1_1PeriodicTest.xhtml#a546bf1c23ba3926f124de31d7b08b4c3" target="_top" xlink:title="Fully parametrized periodic&#45;test description. ">
<polygon fill="white" stroke="black" points="588,-810.5 588,-840.5 722,-840.5 722,-810.5 588,-810.5"/>
<text text-anchor="start" x="596" y="-828.5" font-family="Helvetica,sans-Serif" font-size="10.00">scram::mef::PeriodicTest</text>
<text text-anchor="middle" x="655" y="-817.5" font-family="Helvetica,sans-Serif" font-size="10.00">::PeriodicTest</text>
</a>
</g>
</g>
<!-- Node3&#45;&gt;Node6 -->
<g id="edge6" class="edge"><title>Node3&#45;&gt;Node6</title>
<path fill="none" stroke="midnightblue" d="M499.343,-780.865C529.446,-789.553 569.886,-801.224 601.864,-810.453"/>
<polygon fill="midnightblue" stroke="midnightblue" points="500.135,-777.451 489.557,-778.041 498.194,-784.176 500.135,-777.451"/>
</g>
<!-- Node7 -->
<g id="node7" class="node"><title>Node7</title>
<g id="a_node7"><a xlink:href="classscram_1_1mef_1_1Exponential.xhtml#a93569be7f366dce3dd25dcbb083ca774" target="_top" xlink:title="scram::mef::Exponential\l::Validate">
<polygon fill="white" stroke="black" points="588.5,-712.5 588.5,-742.5 721.5,-742.5 721.5,-712.5 588.5,-712.5"/>
<text text-anchor="start" x="596.5" y="-730.5" font-family="Helvetica,sans-Serif" font-size="10.00">scram::mef::Exponential</text>
<text text-anchor="middle" x="655" y="-719.5" font-family="Helvetica,sans-Serif" font-size="10.00">::Validate</text>
</a>
</g>
</g>
<!-- Node3&#45;&gt;Node7 -->
<g id="edge7" class="edge"><title>Node3&#45;&gt;Node7</title>
<path fill="none" stroke="midnightblue" d="M512.172,-756.943C535.825,-752.032 563.58,-746.271 588.235,-741.152"/>
<polygon fill="midnightblue" stroke="midnightblue" points="511.387,-753.531 502.307,-758.991 512.81,-760.385 511.387,-753.531"/>
</g>
<!-- Node9 -->
<g id="node9" class="node"><title>Node9</title>
<g id="a_node9"><a xlink:href="classscram_1_1mef_1_1Glm.xhtml#a48b4b735418eee27d2c4b81b9e59be85" target="_top" xlink:title="Validates the expression. ">
<polygon fill="white" stroke="black" points="584.5,-860 584.5,-879 725.5,-879 725.5,-860 584.5,-860"/>
<text text-anchor="middle" x="655" y="-867" font-family="Helvetica,sans-Serif" font-size="10.00">scram::mef::Glm::Validate</text>
</a>
</g>
</g>
<!-- Node3&#45;&gt;Node9 -->
<g id="edge9" class="edge"><title>Node3&#45;&gt;Node9</title>
<path fill="none" stroke="midnightblue" d="M497.628,-781.595C512.481,-787.495 528.82,-795.434 542,-805.5 562.355,-821.046 556.444,-836.668 578,-850.5 584.067,-854.393 590.879,-857.488 597.868,-859.95"/>
<polygon fill="midnightblue" stroke="midnightblue" points="498.722,-778.267 488.131,-778.01 496.25,-784.816 498.722,-778.267"/>
</g>
<!-- Node10 -->
<g id="node10" class="node"><title>Node10</title>
<g id="a_node10"><a xlink:href="classscram_1_1mef_1_1Weibull.xhtml#ad36688cf28ab24dd909832cd05aad328" target="_top" xlink:title="Validates the expression. ">
<polygon fill="white" stroke="black" points="600,-761.5 600,-791.5 710,-791.5 710,-761.5 600,-761.5"/>
<text text-anchor="start" x="608" y="-779.5" font-family="Helvetica,sans-Serif" font-size="10.00">scram::mef::Weibull</text>
<text text-anchor="middle" x="655" y="-768.5" font-family="Helvetica,sans-Serif" font-size="10.00">::Validate</text>
</a>
</g>
</g>
<!-- Node3&#45;&gt;Node10 -->
<g id="edge10" class="edge"><title>Node3&#45;&gt;Node10</title>
<path fill="none" stroke="midnightblue" d="M552.401,-772.385C568.729,-773.046 585.16,-773.712 599.908,-774.309"/>
<polygon fill="midnightblue" stroke="midnightblue" points="552.398,-768.882 542.265,-771.974 552.115,-775.876 552.398,-768.882"/>
</g>
<!-- Node8 -->
<g id="node8" class="node"><title>Node8</title>
<g id="a_node8"><a xlink:href="classscram_1_1mef_1_1PeriodicTest.xhtml#a0aa8dc4d62e8fc24194f0183bc533638" target="_top" xlink:title="scram::mef::PeriodicTest\l::interval">
<polygon fill="white" stroke="black" points="768,-712.5 768,-742.5 902,-742.5 902,-712.5 768,-712.5"/>
<text text-anchor="start" x="776" y="-730.5" font-family="Helvetica,sans-Serif" font-size="10.00">scram::mef::PeriodicTest</text>
<text text-anchor="middle" x="835" y="-719.5" font-family="Helvetica,sans-Serif" font-size="10.00">::interval</text>
</a>
</g>
</g>
<!-- Node7&#45;&gt;Node8 -->
<g id="edge8" class="edge"><title>Node7&#45;&gt;Node8</title>
<path fill="none" stroke="midnightblue" d="M731.529,-727.5C743.56,-727.5 755.927,-727.5 767.723,-727.5"/>
<polygon fill="midnightblue" stroke="midnightblue" points="731.522,-724 721.522,-727.5 731.522,-731 731.522,-724"/>
</g>
<!-- Node11&#45;&gt;Node4 -->
<g id="edge12" class="edge"><title>Node11&#45;&gt;Node4</title>
<path fill="none" stroke="midnightblue" d="M537.9,-809.119C539.327,-807.989 540.696,-806.784 542,-805.5 591.158,-757.092 529.786,-703.849 578,-654.5 582.195,-650.206 587.193,-646.797 592.595,-644.096"/>
<polygon fill="midnightblue" stroke="midnightblue" points="535.628,-806.422 529.164,-814.817 539.452,-812.285 535.628,-806.422"/>
</g>
<!-- Node11&#45;&gt;Node5 -->
<g id="edge13" class="edge"><title>Node11&#45;&gt;Node5</title>
<path fill="none" stroke="midnightblue" d="M536.451,-809.823C538.387,-808.495 540.243,-807.057 542,-805.5 577.981,-773.617 543.643,-737.126 578,-703.5 581.971,-699.614 586.556,-696.332 591.467,-693.56"/>
<polygon fill="midnightblue" stroke="midnightblue" points="534.425,-806.95 527.499,-814.968 537.913,-813.019 534.425,-806.95"/>
</g>
<!-- Node11&#45;&gt;Node6 -->
<g id="edge15" class="edge"><title>Node11&#45;&gt;Node6</title>
<path fill="none" stroke="midnightblue" d="M539.235,-824.919C555.5,-825.001 572.362,-825.087 587.989,-825.166"/>
<polygon fill="midnightblue" stroke="midnightblue" points="539.218,-821.419 529.2,-824.868 539.182,-828.419 539.218,-821.419"/>
</g>
<!-- Node11&#45;&gt;Node9 -->
<g id="edge16" class="edge"><title>Node11&#45;&gt;Node9</title>
<path fill="none" stroke="midnightblue" d="M508.139,-836.266C540.555,-843.652 581.816,-853.053 612.176,-859.97"/>
<polygon fill="midnightblue" stroke="midnightblue" points="508.912,-832.852 498.385,-834.043 507.357,-839.678 508.912,-832.852"/>
</g>
<!-- Node11&#45;&gt;Node10 -->
<g id="edge17" class="edge"><title>Node11&#45;&gt;Node10</title>
<path fill="none" stroke="midnightblue" d="M510.749,-812.742C521.137,-810.407 531.917,-807.925 542,-805.5 560.943,-800.944 581.611,-795.677 599.976,-790.892"/>
<polygon fill="midnightblue" stroke="midnightblue" points="509.941,-809.336 500.944,-814.93 511.466,-816.168 509.941,-809.336"/>
</g>
<!-- Node11&#45;&gt;Node11 -->
<g id="edge14" class="edge"><title>Node11&#45;&gt;Node11</title>
<path fill="none" stroke="midnightblue" d="M418.375,-842.004C418.381,-847.836 430.756,-852.5 455.5,-852.5 490.691,-852.5 500.864,-843.065 486.018,-834.257"/>
<polygon fill="midnightblue" stroke="midnightblue" points="421.156,-844.137 424.982,-834.257 415.83,-839.594 421.156,-844.137"/>
</g>
<!-- Node12&#45;&gt;Node5 -->
<g id="edge19" class="edge"><title>Node12&#45;&gt;Node5</title>
<path fill="none" stroke="midnightblue" d="M537.917,-865.137C539.339,-864.001 540.703,-862.79 542,-861.5 593.063,-810.709 529.516,-756.758 578,-703.5 581.553,-699.597 585.726,-696.302 590.256,-693.52"/>
<polygon fill="midnightblue" stroke="midnightblue" points="535.642,-862.444 529.206,-870.86 539.486,-868.294 535.642,-862.444"/>
</g>
<!-- Node12&#45;&gt;Node6 -->
<g id="edge21" class="edge"><title>Node12&#45;&gt;Node6</title>
<path fill="none" stroke="midnightblue" d="M513.21,-868.67C522.854,-866.438 532.742,-864.011 542,-861.5 554.813,-858.025 583.495,-848.796 608.624,-840.553"/>
<polygon fill="midnightblue" stroke="midnightblue" points="512.262,-865.296 503.284,-870.921 513.811,-872.123 512.262,-865.296"/>
</g>
<!-- Node12&#45;&gt;Node9 -->
<g id="edge22" class="edge"><title>Node12&#45;&gt;Node9</title>
<path fill="none" stroke="midnightblue" d="M545.959,-875.517C558.838,-874.8 571.93,-874.071 584.347,-873.379"/>
<polygon fill="midnightblue" stroke="midnightblue" points="545.483,-872.038 535.693,-876.089 545.872,-879.028 545.483,-872.038"/>
</g>
<!-- Node12&#45;&gt;Node12 -->
<g id="edge20" class="edge"><title>Node12&#45;&gt;Node12</title>
<path fill="none" stroke="midnightblue" d="M418.375,-898.004C418.381,-903.836 430.756,-908.5 455.5,-908.5 490.691,-908.5 500.864,-899.065 486.018,-890.257"/>
<polygon fill="midnightblue" stroke="midnightblue" points="421.156,-900.137 424.982,-890.257 415.83,-895.594 421.156,-900.137"/>
</g>
<!-- Node13 -->
<g id="node13" class="node"><title>Node13</title>
<g id="a_node13"><a xlink:href="classscram_1_1mef_1_1BasicEvent.xhtml#acfc0e73e1add67aa2ace841350eb62cd" target="_top" xlink:title="Validates the probability expressions for the primary event. ">
<polygon fill="white" stroke="black" points="590,-898.5 590,-928.5 720,-928.5 720,-898.5 590,-898.5"/>
<text text-anchor="start" x="598" y="-916.5" font-family="Helvetica,sans-Serif" font-size="10.00">scram::mef::BasicEvent</text>
<text text-anchor="middle" x="655" y="-905.5" font-family="Helvetica,sans-Serif" font-size="10.00">::Validate</text>
</a>
</g>
</g>
<!-- Node12&#45;&gt;Node13 -->
<g id="edge23" class="edge"><title>Node12&#45;&gt;Node13</title>
<path fill="none" stroke="midnightblue" d="M523.383,-891.675C544.874,-895.266 568.622,-899.234 589.908,-902.791"/>
<polygon fill="midnightblue" stroke="midnightblue" points="523.8,-888.197 513.36,-890.001 522.647,-895.101 523.8,-888.197"/>
</g>
<!-- Node17 -->
<g id="node17" class="node"><title>Node17</title>
<g id="a_node17"><a xlink:href="classscram_1_1mef_1_1CcfGroup.xhtml#a31cbe59ce89f295de7bb810d8b75990e" target="_top" xlink:title="Validates the setup for the CCF model and group. ">
<polygon fill="white" stroke="black" points="594,-947.5 594,-977.5 716,-977.5 716,-947.5 594,-947.5"/>
<text text-anchor="start" x="602" y="-965.5" font-family="Helvetica,sans-Serif" font-size="10.00">scram::mef::CcfGroup</text>
<text text-anchor="middle" x="655" y="-954.5" font-family="Helvetica,sans-Serif" font-size="10.00">::Validate</text>
</a>
</g>
</g>
<!-- Node12&#45;&gt;Node17 -->
<g id="edge28" class="edge"><title>Node12&#45;&gt;Node17</title>
<path fill="none" stroke="midnightblue" d="M483.652,-894.808C507.962,-907.291 544.791,-925.404 578,-938.5 585.981,-941.647 594.553,-944.678 602.963,-947.463"/>
<polygon fill="midnightblue" stroke="midnightblue" points="485.161,-891.647 474.671,-890.159 481.943,-897.864 485.161,-891.647"/>
</g>
<!-- Node14 -->
<g id="node14" class="node"><title>Node14</title>
<g id="a_node14"><a xlink:href="classscram_1_1mef_1_1CcfGroup.xhtml#a06dd05cabcbeddf42090536f6a47a184" target="_top" xlink:title="scram::mef::CcfGroup\l::members">
<polygon fill="white" stroke="black" points="774,-903.5 774,-933.5 896,-933.5 896,-903.5 774,-903.5"/>
<text text-anchor="start" x="782" y="-921.5" font-family="Helvetica,sans-Serif" font-size="10.00">scram::mef::CcfGroup</text>
<text text-anchor="middle" x="835" y="-910.5" font-family="Helvetica,sans-Serif" font-size="10.00">::members</text>
</a>
</g>
</g>
<!-- Node13&#45;&gt;Node14 -->
<g id="edge24" class="edge"><title>Node13&#45;&gt;Node14</title>
<path fill="none" stroke="midnightblue" d="M730.428,-915.591C744.893,-915.997 759.886,-916.418 773.823,-916.81"/>
<polygon fill="midnightblue" stroke="midnightblue" points="730.105,-912.08 720.011,-915.298 729.908,-919.078 730.105,-912.08"/>
</g>
<!-- Node14&#45;&gt;Node2 -->
<g id="edge26" class="edge"><title>Node14&#45;&gt;Node2</title>
<path fill="none" stroke="midnightblue" d="M888.742,-937.016C917.891,-947.249 953.644,-959.801 981.07,-969.429"/>
<polygon fill="midnightblue" stroke="midnightblue" points="889.726,-933.652 879.131,-933.642 887.407,-940.257 889.726,-933.652"/>
</g>
<!-- Node15 -->
<g id="node15" class="node"><title>Node15</title>
<g id="a_node15"><a xlink:href="classscram_1_1mef_1_1Component.xhtml#a4fd4a9b195b92c8061149da20f5bd3f0" target="_top" xlink:title="Adds MEF constructs into this component container. ">
<polygon fill="white" stroke="black" points="946,-871 946,-890 1104,-890 1104,-871 946,-871"/>
<text text-anchor="middle" x="1025" y="-878" font-family="Helvetica,sans-Serif" font-size="10.00">scram::mef::Component::Add</text>
</a>
</g>
</g>
<!-- Node14&#45;&gt;Node15 -->
<g id="edge25" class="edge"><title>Node14&#45;&gt;Node15</title>
<path fill="none" stroke="midnightblue" d="M905.964,-904.358C929.565,-899.588 955.333,-894.38 976.754,-890.05"/>
<polygon fill="midnightblue" stroke="midnightblue" points="905.11,-900.96 896.001,-906.372 906.496,-907.821 905.11,-900.96"/>
</g>
<!-- Node16 -->
<g id="node16" class="node"><title>Node16</title>
<g id="a_node16"><a xlink:href="reporter_8cc.xhtml#a73f9569f4c2e2b6a3eac8d2c01b81943" target="_top" xlink:title="Describes all performed analyses deduced from settings. ">
<polygon fill="white" stroke="black" points="938,-909.5 938,-939.5 1112,-939.5 1112,-909.5 938,-909.5"/>
<text text-anchor="start" x="946" y="-927.5" font-family="Helvetica,sans-Serif" font-size="10.00">scram::ReportCalculatedQuantity</text>
<text text-anchor="middle" x="1025" y="-916.5" font-family="Helvetica,sans-Serif" font-size="10.00">&lt; core::RiskAnalysis &gt;</text>
</a>
</g>
</g>
<!-- Node14&#45;&gt;Node16 -->
<g id="edge27" class="edge"><title>Node14&#45;&gt;Node16</title>
<path fill="none" stroke="midnightblue" d="M906.172,-920.74C916.501,-921.069 927.24,-921.412 937.845,-921.75"/>
<polygon fill="midnightblue" stroke="midnightblue" points="906.108,-917.236 896.001,-920.415 905.885,-924.232 906.108,-917.236"/>
</g>
<!-- Node18&#45;&gt;Node4 -->
<g id="edge30" class="edge"><title>Node18&#45;&gt;Node4</title>
<path fill="none" stroke="midnightblue" d="M490.025,-539.05C506.024,-545.855 525.279,-554.547 542,-563.5 578.736,-583.17 619.513,-610.518 640.253,-624.854"/>
<polygon fill="midnightblue" stroke="midnightblue" points="491.112,-535.71 480.536,-535.07 488.404,-542.165 491.112,-535.71"/>
</g>
<!-- Node18&#45;&gt;Node5 -->
<g id="edge31" class="edge"><title>Node18&#45;&gt;Node5</title>
<path fill="none" stroke="midnightblue" d="M503.408,-538.783C517.239,-544.553 531.472,-552.567 542,-563.5 571.883,-594.532 546.597,-624.007 578,-653.5 582.151,-657.399 586.922,-660.69 592.008,-663.468"/>
<polygon fill="midnightblue" stroke="midnightblue" points="504.538,-535.467 493.948,-535.139 502.021,-542 504.538,-535.467"/>
</g>
<!-- Node18&#45;&gt;Node18 -->
<g id="edge32" class="edge"><title>Node18&#45;&gt;Node18</title>
<path fill="none" stroke="midnightblue" d="M418.375,-543.004C418.381,-548.836 430.756,-553.5 455.5,-553.5 490.691,-553.5 500.864,-544.065 486.018,-535.257"/>
<polygon fill="midnightblue" stroke="midnightblue" points="421.156,-545.137 424.982,-535.257 415.83,-540.594 421.156,-545.137"/>
</g>
<!-- Node19&#45;&gt;Node3 -->
<g id="edge37" class="edge"><title>Node19&#45;&gt;Node3</title>
<path fill="none" stroke="midnightblue" d="M289.619,-711.084C322.598,-727.343 364.823,-748.041 369,-749.5 379.623,-753.211 391.248,-756.364 402.409,-758.972"/>
<polygon fill="midnightblue" stroke="midnightblue" points="291.118,-707.921 280.601,-706.636 288.021,-714.199 291.118,-707.921"/>
</g>
<!-- Node19&#45;&gt;Node5 -->
<g id="edge39" class="edge"><title>Node19&#45;&gt;Node5</title>
<path fill="none" stroke="midnightblue" d="M323.967,-689.12C396.33,-686.791 505.986,-683.263 578.777,-680.921"/>
<polygon fill="midnightblue" stroke="midnightblue" points="323.452,-685.635 313.569,-689.454 323.677,-692.631 323.452,-685.635"/>
</g>
<!-- Node19&#45;&gt;Node11 -->
<g id="edge36" class="edge"><title>Node19&#45;&gt;Node11</title>
<path fill="none" stroke="midnightblue" d="M267.556,-714.689C288.689,-740.897 326.662,-782.846 369,-805.5 376.24,-809.374 384.23,-812.459 392.331,-814.915"/>
<polygon fill="midnightblue" stroke="midnightblue" points="270.249,-712.452 261.302,-706.778 264.758,-716.794 270.249,-712.452"/>
</g>
<!-- Node19&#45;&gt;Node12 -->
<g id="edge35" class="edge"><title>Node19&#45;&gt;Node12</title>
<path fill="none" stroke="midnightblue" d="M259.978,-715.782C276.693,-753.269 314.017,-824.736 369,-861.5 374.815,-865.388 381.3,-868.492 388.028,-870.969"/>
<polygon fill="midnightblue" stroke="midnightblue" points="263.184,-714.377 255.993,-706.596 256.762,-717.163 263.184,-714.377"/>
</g>
<!-- Node19&#45;&gt;Node18 -->
<g id="edge38" class="edge"><title>Node19&#45;&gt;Node18</title>
<path fill="none" stroke="midnightblue" d="M320.375,-671.419C324.95,-668.541 329.227,-665.253 333,-661.5 365.896,-628.775 337.293,-597.378 369,-563.5 381.654,-549.98 399.993,-540.966 416.444,-535.125"/>
<polygon fill="midnightblue" stroke="midnightblue" points="318.316,-668.558 311.264,-676.465 321.707,-674.682 318.316,-668.558"/>
</g>
<!-- Node20 -->
<g id="node20" class="node"><title>Node20</title>
<g id="a_node20"><a xlink:href="classscram_1_1mef_1_1Switch.xhtml#aece696754288dcbdbcda71355da80a19" target="_top" xlink:title="scram::mef::Switch\l::interval">
<polygon fill="white" stroke="black" points="401.5,-572.5 401.5,-602.5 509.5,-602.5 509.5,-572.5 401.5,-572.5"/>
<text text-anchor="start" x="409.5" y="-590.5" font-family="Helvetica,sans-Serif" font-size="10.00">scram::mef::Switch</text>
<text text-anchor="middle" x="455.5" y="-579.5" font-family="Helvetica,sans-Serif" font-size="10.00">::interval</text>
</a>
</g>
</g>
<!-- Node19&#45;&gt;Node20 -->
<g id="edge34" class="edge"><title>Node19&#45;&gt;Node20</title>
<path fill="none" stroke="midnightblue" d="M315.232,-672.232C321.512,-669.128 327.558,-665.568 333,-661.5 354.643,-645.318 346.863,-627.999 369,-612.5 378.628,-605.759 390.075,-600.817 401.413,-597.2"/>
<polygon fill="midnightblue" stroke="midnightblue" points="313.571,-669.142 305.91,-676.461 316.463,-675.517 313.571,-669.142"/>
</g>
<!-- Node19&#45;&gt;Node21 -->
<g id="edge40" class="edge"><title>Node19&#45;&gt;Node21</title>
<path fill="none" stroke="midnightblue" d="M287.149,-670.729C303.309,-660.01 321.206,-645.583 333,-628.5 365.119,-581.976 328.975,-546.426 369,-506.5 372.832,-502.677 377.215,-499.433 381.925,-496.679"/>
<polygon fill="midnightblue" stroke="midnightblue" points="284.958,-667.974 278.4,-676.296 288.716,-673.88 284.958,-667.974"/>
</g>
<!-- Node22 -->
<g id="node22" class="node"><title>Node22</title>
<g id="a_node22"><a xlink:href="classscram_1_1mef_1_1GammaDeviate.xhtml#aac9dd9e446203c28033a32385a68570c" target="_top" xlink:title="scram::mef::GammaDeviate\l::value">
<polygon fill="white" stroke="black" points="379,-709.5 379,-739.5 532,-739.5 532,-709.5 379,-709.5"/>
<text text-anchor="start" x="387" y="-727.5" font-family="Helvetica,sans-Serif" font-size="10.00">scram::mef::GammaDeviate</text>
<text text-anchor="middle" x="455.5" y="-716.5" font-family="Helvetica,sans-Serif" font-size="10.00">::value</text>
</a>
</g>
</g>
<!-- Node19&#45;&gt;Node22 -->
<g id="edge41" class="edge"><title>Node19&#45;&gt;Node22</title>
<path fill="none" stroke="midnightblue" d="M323.672,-703.388C341.576,-706.278 360.752,-709.372 378.751,-712.276"/>
<polygon fill="midnightblue" stroke="midnightblue" points="324.014,-699.898 313.584,-701.761 322.899,-706.809 324.014,-699.898"/>
</g>
<!-- Node23 -->
<g id="node23" class="node"><title>Node23</title>
<g id="a_node23"><a xlink:href="classscram_1_1mef_1_1BetaDeviate.xhtml#a23cf22ef291bb47601ddefd7640fe93a" target="_top" xlink:title="scram::mef::BetaDeviate\l::value">
<polygon fill="white" stroke="black" points="387,-621.5 387,-651.5 524,-651.5 524,-621.5 387,-621.5"/>
<text text-anchor="start" x="395" y="-639.5" font-family="Helvetica,sans-Serif" font-size="10.00">scram::mef::BetaDeviate</text>
<text text-anchor="middle" x="455.5" y="-628.5" font-family="Helvetica,sans-Serif" font-size="10.00">::value</text>
</a>
</g>
</g>
<!-- Node19&#45;&gt;Node23 -->
<g id="edge42" class="edge"><title>Node19&#45;&gt;Node23</title>
<path fill="none" stroke="midnightblue" d="M315.557,-673.869C342.34,-666.665 372.997,-658.42 398.687,-651.511"/>
<polygon fill="midnightblue" stroke="midnightblue" points="314.628,-670.494 305.881,-676.471 316.446,-677.254 314.628,-670.494"/>
</g>
<!-- Node29&#45;&gt;Node21 -->
<g id="edge49" class="edge"><title>Node29&#45;&gt;Node21</title>
<path fill="none" stroke="midnightblue" d="M318.027,-583.813C323.386,-580.831 328.468,-577.413 333,-573.5 358.585,-551.407 342.738,-527.785 369,-506.5 373.806,-502.605 379.197,-499.317 384.874,-496.541"/>
<polygon fill="midnightblue" stroke="midnightblue" points="316.172,-580.827 308.795,-588.431 319.304,-587.088 316.172,-580.827"/>
</g>
</g>
</svg>
        <g id="navigator" transform="translate(0 0)" fill="#404254">
                <rect fill="#f2f5e9" fill-opacity="0.5" stroke="#606060" stroke-width=".5" x="0" y="0" width="60" height="60"/>
                <use id="zoomplus" xlink:href="#zoomPlus" x="17" y="9" onmousedown="handleZoom(evt,'in')"/>
                <use id="zoomminus" xlink:href="#zoomMin" x="42" y="9" onmousedown="handleZoom(evt,'out')"/>
                <use id="reset" xlink:href="#resetDef" x="30" y="36" onmousedown="handleReset()"/>
                <g id="arrowUp" xlink:href="#dirArrow" transform="translate(30 24)" onmousedown="handlePan(0,-1)">
                  <use xlink:href="#rim" fill="#404040">
                        <set attributeName="fill" to="#808080" begin="arrowUp.mouseover" end="arrowUp.mouseout"/>
                  </use>
                  <path fill="none" stroke="white" stroke-width="1.5" d="M0,-3.0v7 M-2.5,-0.5L0,-3.0L2.5,-0.5"/>
                </g>
                <g id="arrowRight" xlink:href="#dirArrow" transform="rotate(90) translate(36 -43)" onmousedown="handlePan(1,0)">
                  <use xlink:href="#rim" fill="#404040">
                        <set attributeName="fill" to="#808080" begin="arrowRight.mouseover" end="arrowRight.mouseout"/>
                  </use>
                  <path fill="none" stroke="white" stroke-width="1.5" d="M0,-3.0v7 M-2.5,-0.5L0,-3.0L2.5,-0.5"/>
                </g>
                <g id="arrowDown" xlink:href="#dirArrow" transform="rotate(180) translate(-30 -48)" onmousedown="handlePan(0,1)">
                  <use xlink:href="#rim" fill="#404040">
                        <set attributeName="fill" to="#808080" begin="arrowDown.mouseover" end="arrowDown.mouseout"/>
                  </use>
                  <path fill="none" stroke="white" stroke-width="1.5" d="M0,-3.0v7 M-2.5,-0.5L0,-3.0L2.5,-0.5"/>
                </g>
                <g id="arrowLeft" xlink:href="#dirArrow" transform="rotate(270) translate(-36 17)" onmousedown="handlePan(-1,0)">
                  <use xlink:href="#rim" fill="#404040">
                        <set attributeName="fill" to="#808080" begin="arrowLeft.mouseover" end="arrowLeft.mouseout"/>
                  </use>
                  <path fill="none" stroke="white" stroke-width="1.5" d="M0,-3.0v7 M-2.5,-0.5L0,-3.0L2.5,-0.5"/>
                </g>
        </g>
        <svg viewBox="0 0 15 15" width="100%" height="30px" preserveAspectRatio="xMaxYMin meet">
         <g id="arrow_out" transform="scale(0.3 0.3)">
          <a xlink:href="classscram_1_1mef_1_1Expression_af4c1a5cb29e8f45623a99742b7ba8bc5_icgraph_org.svg" target="_base">
           <rect id="button" ry="5" rx="5" y="6" x="6" height="38" width="38"
                fill="#f2f5e9" fill-opacity="0.5" stroke="#606060" stroke-width="1.0"/>
           <path id="arrow"
             d="M 11.500037,31.436501 C 11.940474,20.09759 22.043105,11.32322 32.158766,21.979434 L 37.068811,17.246167 C 37.068811,17.246167 37.088388,32 37.088388,32 L 22.160133,31.978069 C 22.160133,31.978069 26.997745,27.140456 26.997745,27.140456 C 18.528582,18.264221 13.291696,25.230495 11.500037,31.436501 z"
             style="fill:#404040;"/>
          </a>
         </g>
        </svg>
</svg>
