<?xml version="1.0" encoding="UTF-8" standalone="no"?>
<!DOCTYPE svg PUBLIC "-//W3C//DTD SVG 1.1//EN"
 "http://www.w3.org/Graphics/SVG/1.1/DTD/svg11.dtd">
<!-- Generated by graphviz version 2.38.0 (20140413.2041)
 -->
<!-- Title: scram::mef::BetaFactorModel Pages: 1 -->
<!--zoomable 772 -->
<svg id="main" version="1.1" xmlns="http://www.w3.org/2000/svg" xmlns:xlink="http://www.w3.org/1999/xlink" xml:space="preserve" onload="init(evt)">
<style type="text/css"><![CDATA[
.edge:hover path { stroke: red; }
.edge:hover polygon { stroke: red; fill: red; }
]]></style>
<script type="text/javascript"><![CDATA[
var edges = document.getElementsByTagName('g');
if (edges && edges.length) {
  for (var i=0;i<edges.length;i++) {
    if (edges[i].id.substr(0,4)=='edge') {
      edges[i].setAttribute('class','edge');
    }
  }
}
]]></script>
        <defs>
                <circle id="rim" cx="0" cy="0" r="7"/>
                <circle id="rim2" cx="0" cy="0" r="3.5"/>
                <g id="zoomPlus">
                        <use xlink:href="#rim" fill="#404040">
                                <set attributeName="fill" to="#808080" begin="zoomplus.mouseover" end="zoomplus.mouseout"/>
                        </use>
                        <path d="M-4,0h8M0,-4v8" fill="none" stroke="white" stroke-width="1.5" pointer-events="none"/>
                </g>
                <g id="zoomMin">
                        <use xlink:href="#rim" fill="#404040">
                                <set attributeName="fill" to="#808080" begin="zoomminus.mouseover" end="zoomminus.mouseout"/>
                        </use>
                        <path d="M-4,0h8" fill="none" stroke="white" stroke-width="1.5" pointer-events="none"/>
                </g>
                <g id="dirArrow">
                        <path fill="none" stroke="white" stroke-width="1.5" d="M0,-3.0v7 M-2.5,-0.5L0,-3.0L2.5,-0.5"/>
                </g>
               <g id="resetDef">
                       <use xlink:href="#rim2" fill="#404040">
                               <set attributeName="fill" to="#808080" begin="reset.mouseover" end="reset.mouseout"/>
                       </use>
               </g>
        </defs>

<script type="text/javascript">
var viewWidth = 240;
var viewHeight = 772;
var sectionId = 'dynsection-0';
</script>
<script xlink:href="svgpan.js"/>
<svg id="graph" class="graph">
<g id="viewport">
<title>scram::mef::BetaFactorModel</title>
<polygon fill="white" stroke="none" points="-4,4 -4,-768 236,-768 236,4 -4,4"/>
<!-- Node1 -->
<g id="node1" class="node"><title>Node1</title>
<polygon fill="#bfbfbf" stroke="black" points="41.5,-0.5 41.5,-57.5 199.5,-57.5 199.5,-0.5 41.5,-0.5"/>
<text text-anchor="middle" x="120.5" y="-45.5" font-family="Helvetica,sans-Serif" font-size="10.00">scram::mef::BetaFactorModel</text>
<polyline fill="none" stroke="black" points="41.5,-38.5 199.5,-38.5 "/>
<text text-anchor="middle" x="120.5" y="-26.5" font-family="Helvetica,sans-Serif" font-size="10.00"> </text>
<polyline fill="none" stroke="black" points="41.5,-19.5 199.5,-19.5 "/>
<text text-anchor="middle" x="120.5" y="-7.5" font-family="Helvetica,sans-Serif" font-size="10.00"> </text>
</g>
<!-- Node2 -->
<g id="node2" class="node"><title>Node2</title>
<g id="a_node2"><a xlink:href="classscram_1_1mef_1_1CcfGroup.xhtml" target="_top" xlink:title="Abstract base class for all common cause failure models. ">
<polygon fill="white" stroke="black" points="59.5,-94.5 59.5,-283.5 181.5,-283.5 181.5,-94.5 59.5,-94.5"/>
<text text-anchor="middle" x="120.5" y="-271.5" font-family="Helvetica,sans-Serif" font-size="10.00">scram::mef::CcfGroup</text>
<polyline fill="none" stroke="black" points="59.5,-264.5 181.5,-264.5 "/>
<text text-anchor="middle" x="120.5" y="-252.5" font-family="Helvetica,sans-Serif" font-size="10.00"> </text>
<polyline fill="none" stroke="black" points="59.5,-245.5 181.5,-245.5 "/>
<text text-anchor="start" x="67.5" y="-233.5" font-family="Helvetica,sans-Serif" font-size="10.00">+ ~CcfGroup()</text>
<text text-anchor="start" x="67.5" y="-222.5" font-family="Helvetica,sans-Serif" font-size="10.00">+ members()</text>
<text text-anchor="start" x="67.5" y="-211.5" font-family="Helvetica,sans-Serif" font-size="10.00">+ AddMember()</text>
<text text-anchor="start" x="67.5" y="-200.5" font-family="Helvetica,sans-Serif" font-size="10.00">+ AddDistribution()</text>
<text text-anchor="start" x="67.5" y="-189.5" font-family="Helvetica,sans-Serif" font-size="10.00">+ AddFactor()</text>
<text text-anchor="start" x="67.5" y="-178.5" font-family="Helvetica,sans-Serif" font-size="10.00">+ Validate()</text>
<text text-anchor="start" x="67.5" y="-167.5" font-family="Helvetica,sans-Serif" font-size="10.00">+ ApplyModel()</text>
<text text-anchor="start" x="67.5" y="-156.5" font-family="Helvetica,sans-Serif" font-size="10.00"># distribution()</text>
<text text-anchor="start" x="67.5" y="-145.5" font-family="Helvetica,sans-Serif" font-size="10.00"># factors()</text>
<text text-anchor="start" x="67.5" y="-134.5" font-family="Helvetica,sans-Serif" font-size="10.00"># Register()</text>
<text text-anchor="start" x="67.5" y="-123.5" font-family="Helvetica,sans-Serif" font-size="10.00"># Register()</text>
<text text-anchor="start" x="67.5" y="-112.5" font-family="Helvetica,sans-Serif" font-size="10.00">* Register()</text>
<text text-anchor="start" x="67.5" y="-101.5" font-family="Helvetica,sans-Serif" font-size="10.00">* Register()</text>
</a>
</g>
</g>
<!-- Node2&#45;&gt;Node1 -->
<g id="edge1" class="edge"><title>Node2&#45;&gt;Node1</title>
<path fill="none" stroke="midnightblue" d="M120.5,-84.1277C120.5,-74.5626 120.5,-65.5392 120.5,-57.7023"/>
<polygon fill="none" stroke="midnightblue" points="117,-84.2646 120.5,-94.2646 124,-84.2647 117,-84.2646"/>
</g>
<!-- Node3 -->
<g id="node3" class="node"><title>Node3</title>
<g id="a_node3"><a xlink:href="classscram_1_1mef_1_1Id.xhtml" target="_top" xlink:title="Mixin class for assigning unique identifiers to elements. ">
<polygon fill="white" stroke="black" points="70,-320.5 70,-454.5 171,-454.5 171,-320.5 70,-320.5"/>
<text text-anchor="middle" x="120.5" y="-442.5" font-family="Helvetica,sans-Serif" font-size="10.00">scram::mef::Id</text>
<polyline fill="none" stroke="black" points="70,-435.5 171,-435.5 "/>
<text text-anchor="middle" x="120.5" y="-423.5" font-family="Helvetica,sans-Serif" font-size="10.00"> </text>
<polyline fill="none" stroke="black" points="70,-416.5 171,-416.5 "/>
<text text-anchor="start" x="78" y="-404.5" font-family="Helvetica,sans-Serif" font-size="10.00">+ Id()</text>
<text text-anchor="start" x="78" y="-393.5" font-family="Helvetica,sans-Serif" font-size="10.00">+ id()</text>
<text text-anchor="start" x="78" y="-382.5" font-family="Helvetica,sans-Serif" font-size="10.00">+ id()</text>
<text text-anchor="start" x="78" y="-371.5" font-family="Helvetica,sans-Serif" font-size="10.00">+ unique_name()</text>
<text text-anchor="start" x="78" y="-360.5" font-family="Helvetica,sans-Serif" font-size="10.00">+ unique_name()</text>
<text text-anchor="start" x="78" y="-349.5" font-family="Helvetica,sans-Serif" font-size="10.00"># ~Id()</text>
<text text-anchor="start" x="78" y="-338.5" font-family="Helvetica,sans-Serif" font-size="10.00">* unique_name()</text>
<text text-anchor="start" x="78" y="-327.5" font-family="Helvetica,sans-Serif" font-size="10.00">* unique_name()</text>
</a>
</g>
</g>
<!-- Node3&#45;&gt;Node2 -->
<g id="edge2" class="edge"><title>Node3&#45;&gt;Node2</title>
<path fill="none" stroke="midnightblue" d="M120.5,-310.136C120.5,-301.413 120.5,-292.447 120.5,-283.533"/>
<polygon fill="none" stroke="midnightblue" points="117,-310.248 120.5,-320.248 124,-310.248 117,-310.248"/>
</g>
<!-- Node4 -->
<g id="node4" class="node"><title>Node4</title>
<g id="a_node4"><a xlink:href="classscram_1_1mef_1_1Element.xhtml" target="_top" xlink:title="Mixin class that represents any element of analysis that can have extra descriptions, such as attributes and a label. ">
<polygon fill="white" stroke="black" points="0,-491.5 0,-669.5 117,-669.5 117,-491.5 0,-491.5"/>
<text text-anchor="middle" x="58.5" y="-657.5" font-family="Helvetica,sans-Serif" font-size="10.00">scram::mef::Element</text>
<polyline fill="none" stroke="black" points="0,-650.5 117,-650.5 "/>
<text text-anchor="middle" x="58.5" y="-638.5" font-family="Helvetica,sans-Serif" font-size="10.00"> </text>
<polyline fill="none" stroke="black" points="0,-631.5 117,-631.5 "/>
<text text-anchor="start" x="8" y="-619.5" font-family="Helvetica,sans-Serif" font-size="10.00">+ Element()</text>
<text text-anchor="start" x="8" y="-608.5" font-family="Helvetica,sans-Serif" font-size="10.00">+ name()</text>
<text text-anchor="start" x="8" y="-597.5" font-family="Helvetica,sans-Serif" font-size="10.00">+ label()</text>
<text text-anchor="start" x="8" y="-586.5" font-family="Helvetica,sans-Serif" font-size="10.00">+ label()</text>
<text text-anchor="start" x="8" y="-575.5" font-family="Helvetica,sans-Serif" font-size="10.00">+ attributes()</text>
<text text-anchor="start" x="8" y="-564.5" font-family="Helvetica,sans-Serif" font-size="10.00">+ AddAttribute()</text>
<text text-anchor="start" x="8" y="-553.5" font-family="Helvetica,sans-Serif" font-size="10.00">+ SetAttribute()</text>
<text text-anchor="start" x="8" y="-542.5" font-family="Helvetica,sans-Serif" font-size="10.00">+ HasAttribute()</text>
<text text-anchor="start" x="8" y="-531.5" font-family="Helvetica,sans-Serif" font-size="10.00">+ GetAttribute()</text>
<text text-anchor="start" x="8" y="-520.5" font-family="Helvetica,sans-Serif" font-size="10.00">+ RemoveAttribute()</text>
<text text-anchor="start" x="8" y="-509.5" font-family="Helvetica,sans-Serif" font-size="10.00"># ~Element()</text>
<text text-anchor="start" x="8" y="-498.5" font-family="Helvetica,sans-Serif" font-size="10.00"># name()</text>
</a>
</g>
</g>
<!-- Node4&#45;&gt;Node3 -->
<g id="edge3" class="edge"><title>Node4&#45;&gt;Node3</title>
<path fill="none" stroke="midnightblue" d="M90.2387,-481.724C93.2127,-472.562 96.1777,-463.428 99.024,-454.66"/>
<polygon fill="none" stroke="midnightblue" points="86.8992,-480.676 87.1407,-491.268 93.5573,-482.837 86.8992,-480.676"/>
</g>
<!-- Node5 -->
<g id="node5" class="node"><title>Node5</title>
<polygon fill="white" stroke="#bfbfbf" points="20,-706.5 20,-763.5 97,-763.5 97,-706.5 20,-706.5"/>
<text text-anchor="middle" x="58.5" y="-751.5" font-family="Helvetica,sans-Serif" font-size="10.00">noncopyable</text>
<polyline fill="none" stroke="#bfbfbf" points="20,-744.5 97,-744.5 "/>
<text text-anchor="middle" x="58.5" y="-732.5" font-family="Helvetica,sans-Serif" font-size="10.00"> </text>
<polyline fill="none" stroke="#bfbfbf" points="20,-725.5 97,-725.5 "/>
<text text-anchor="middle" x="58.5" y="-713.5" font-family="Helvetica,sans-Serif" font-size="10.00"> </text>
</g>
<!-- Node5&#45;&gt;Node4 -->
<g id="edge4" class="edge"><title>Node5&#45;&gt;Node4</title>
<path fill="none" stroke="#8b1a1a" d="M58.5,-696.374C58.5,-688.089 58.5,-678.977 58.5,-669.62"/>
<polygon fill="none" stroke="#8b1a1a" points="55.0001,-696.383 58.5,-706.383 62.0001,-696.383 55.0001,-696.383"/>
</g>
<!-- Node6 -->
<g id="node6" class="node"><title>Node6</title>
<g id="a_node6"><a xlink:href="classscram_1_1mef_1_1Role.xhtml" target="_top" xlink:title="Mixin class that manages private or public roles for elements as needed. ">
<polygon fill="white" stroke="black" points="135,-535.5 135,-625.5 232,-625.5 232,-535.5 135,-535.5"/>
<text text-anchor="middle" x="183.5" y="-613.5" font-family="Helvetica,sans-Serif" font-size="10.00">scram::mef::Role</text>
<polyline fill="none" stroke="black" points="135,-606.5 232,-606.5 "/>
<text text-anchor="middle" x="183.5" y="-594.5" font-family="Helvetica,sans-Serif" font-size="10.00"> </text>
<polyline fill="none" stroke="black" points="135,-587.5 232,-587.5 "/>
<text text-anchor="start" x="143" y="-575.5" font-family="Helvetica,sans-Serif" font-size="10.00">+ Role()</text>
<text text-anchor="start" x="143" y="-564.5" font-family="Helvetica,sans-Serif" font-size="10.00">+ role()</text>
<text text-anchor="start" x="143" y="-553.5" font-family="Helvetica,sans-Serif" font-size="10.00">+ base_path()</text>
<text text-anchor="start" x="143" y="-542.5" font-family="Helvetica,sans-Serif" font-size="10.00"># ~Role()</text>
</a>
</g>
</g>
<!-- Node6&#45;&gt;Node3 -->
<g id="edge5" class="edge"><title>Node6&#45;&gt;Node3</title>
<path fill="none" stroke="midnightblue" d="M165.745,-525.67C158.468,-503.61 149.975,-477.86 142.324,-454.666"/>
<polygon fill="none" stroke="midnightblue" points="162.432,-526.8 168.888,-535.201 169.08,-524.608 162.432,-526.8"/>
</g>
</g>
</svg>
        <g id="navigator" transform="translate(0 0)" fill="#404254">
                <rect fill="#f2f5e9" fill-opacity="0.5" stroke="#606060" stroke-width=".5" x="0" y="0" width="60" height="60"/>
                <use id="zoomplus" xlink:href="#zoomPlus" x="17" y="9" onmousedown="handleZoom(evt,'in')"/>
                <use id="zoomminus" xlink:href="#zoomMin" x="42" y="9" onmousedown="handleZoom(evt,'out')"/>
                <use id="reset" xlink:href="#resetDef" x="30" y="36" onmousedown="handleReset()"/>
                <g id="arrowUp" xlink:href="#dirArrow" transform="translate(30 24)" onmousedown="handlePan(0,-1)">
                  <use xlink:href="#rim" fill="#404040">
                        <set attributeName="fill" to="#808080" begin="arrowUp.mouseover" end="arrowUp.mouseout"/>
                  </use>
                  <path fill="none" stroke="white" stroke-width="1.5" d="M0,-3.0v7 M-2.5,-0.5L0,-3.0L2.5,-0.5"/>
                </g>
                <g id="arrowRight" xlink:href="#dirArrow" transform="rotate(90) translate(36 -43)" onmousedown="handlePan(1,0)">
                  <use xlink:href="#rim" fill="#404040">
                        <set attributeName="fill" to="#808080" begin="arrowRight.mouseover" end="arrowRight.mouseout"/>
                  </use>
                  <path fill="none" stroke="white" stroke-width="1.5" d="M0,-3.0v7 M-2.5,-0.5L0,-3.0L2.5,-0.5"/>
                </g>
                <g id="arrowDown" xlink:href="#dirArrow" transform="rotate(180) translate(-30 -48)" onmousedown="handlePan(0,1)">
                  <use xlink:href="#rim" fill="#404040">
                        <set attributeName="fill" to="#808080" begin="arrowDown.mouseover" end="arrowDown.mouseout"/>
                  </use>
                  <path fill="none" stroke="white" stroke-width="1.5" d="M0,-3.0v7 M-2.5,-0.5L0,-3.0L2.5,-0.5"/>
                </g>
                <g id="arrowLeft" xlink:href="#dirArrow" transform="rotate(270) translate(-36 17)" onmousedown="handlePan(-1,0)">
                  <use xlink:href="#rim" fill="#404040">
                        <set attributeName="fill" to="#808080" begin="arrowLeft.mouseover" end="arrowLeft.mouseout"/>
                  </use>
                  <path fill="none" stroke="white" stroke-width="1.5" d="M0,-3.0v7 M-2.5,-0.5L0,-3.0L2.5,-0.5"/>
                </g>
        </g>
        <svg viewBox="0 0 15 15" width="100%" height="30px" preserveAspectRatio="xMaxYMin meet">
         <g id="arrow_out" transform="scale(0.3 0.3)">
          <a xlink:href="classscram_1_1mef_1_1BetaFactorModel__inherit__graph_org.svg" target="_base">
           <rect id="button" ry="5" rx="5" y="6" x="6" height="38" width="38"
                fill="#f2f5e9" fill-opacity="0.5" stroke="#606060" stroke-width="1.0"/>
           <path id="arrow"
             d="M 11.500037,31.436501 C 11.940474,20.09759 22.043105,11.32322 32.158766,21.979434 L 37.068811,17.246167 C 37.068811,17.246167 37.088388,32 37.088388,32 L 22.160133,31.978069 C 22.160133,31.978069 26.997745,27.140456 26.997745,27.140456 C 18.528582,18.264221 13.291696,25.230495 11.500037,31.436501 z"
             style="fill:#404040;"/>
          </a>
         </g>
        </svg>
</svg>
