<?xml version="1.0" encoding="UTF-8" standalone="no"?>
<!DOCTYPE svg PUBLIC "-//W3C//DTD SVG 1.1//EN"
 "http://www.w3.org/Graphics/SVG/1.1/DTD/svg11.dtd">
<!-- Generated by graphviz version 2.38.0 (20140413.2041)
 -->
<!-- Title: scram::mef::Element::HasAttribute Pages: 1 -->
<svg width="461pt" height="83pt"
 viewBox="0.00 0.00 461.00 83.00" xmlns="http://www.w3.org/2000/svg" xmlns:xlink="http://www.w3.org/1999/xlink">
<g id="graph0" class="graph" transform="scale(1 1) rotate(0) translate(4 79)">
<title>scram::mef::Element::HasAttribute</title>
<polygon fill="white" stroke="none" points="-4,4 -4,-79 457,-79 457,4 -4,4"/>
<!-- Node1 -->
<g id="node1" class="node"><title>Node1</title>
<polygon fill="#bfbfbf" stroke="black" points="0,-22.5 0,-52.5 117,-52.5 117,-22.5 0,-22.5"/>
<text text-anchor="start" x="8" y="-40.5" font-family="Helvetica,sans-Serif" font-size="10.00">scram::mef::Element</text>
<text text-anchor="middle" x="58.5" y="-29.5" font-family="Helvetica,sans-Serif" font-size="10.00">::HasAttribute</text>
</g>
<!-- Node2 -->
<g id="node2" class="node"><title>Node2</title>
<g id="a_node2"><a xlink:href="classscram_1_1mef_1_1Element.xhtml#ad5906432084ef153b708dbe77307d4f9" target="_top" xlink:title="Adds an attribute to the attribute map. ">
<polygon fill="white" stroke="black" points="167,-44.5 167,-74.5 284,-74.5 284,-44.5 167,-44.5"/>
<text text-anchor="start" x="175" y="-62.5" font-family="Helvetica,sans-Serif" font-size="10.00">scram::mef::Element</text>
<text text-anchor="middle" x="225.5" y="-51.5" font-family="Helvetica,sans-Serif" font-size="10.00">::AddAttribute</text>
</a>
</g>
</g>
<!-- Node1&#45;&gt;Node2 -->
<g id="edge1" class="edge"><title>Node1&#45;&gt;Node2</title>
<path fill="none" stroke="midnightblue" d="M127.154,-46.5206C140.323,-48.2764 154.014,-50.1018 166.824,-51.8098"/>
<polygon fill="midnightblue" stroke="midnightblue" points="127.584,-43.047 117.209,-45.1945 126.659,-49.9856 127.584,-43.047"/>
</g>
<!-- Node3 -->
<g id="node3" class="node"><title>Node3</title>
<g id="a_node3"><a xlink:href="classscram_1_1mef_1_1Gate.xhtml#abeb0d7efda63e877e150f54719da1ba8" target="_top" xlink:title="Checks if a gate is initialized correctly. ">
<polygon fill="white" stroke="black" points="153,-6 153,-25 298,-25 298,-6 153,-6"/>
<text text-anchor="middle" x="225.5" y="-13" font-family="Helvetica,sans-Serif" font-size="10.00">scram::mef::Gate::Validate</text>
</a>
</g>
</g>
<!-- Node1&#45;&gt;Node3 -->
<g id="edge2" class="edge"><title>Node1&#45;&gt;Node3</title>
<path fill="none" stroke="midnightblue" d="M127.159,-28.4788C135.741,-27.3345 144.545,-26.1607 153.182,-25.0091"/>
<polygon fill="midnightblue" stroke="midnightblue" points="126.659,-25.0144 117.209,-29.8055 127.584,-31.953 126.659,-25.0144"/>
</g>
<!-- Node4 -->
<g id="node4" class="node"><title>Node4</title>
<g id="a_node4"><a xlink:href="classscram_1_1mef_1_1Initializer.xhtml#a3d457bc3c3c2794545465c7dd9364e32" target="_top" xlink:title="Specializations for elements defined after registration. ">
<polygon fill="white" stroke="black" points="334,-0.5 334,-30.5 453,-30.5 453,-0.5 334,-0.5"/>
<text text-anchor="start" x="342" y="-18.5" font-family="Helvetica,sans-Serif" font-size="10.00">scram::mef::Initializer</text>
<text text-anchor="middle" x="393.5" y="-7.5" font-family="Helvetica,sans-Serif" font-size="10.00">::Define</text>
</a>
</g>
</g>
<!-- Node3&#45;&gt;Node4 -->
<g id="edge3" class="edge"><title>Node3&#45;&gt;Node4</title>
<path fill="none" stroke="midnightblue" d="M308.377,-15.5C316.947,-15.5 325.534,-15.5 333.771,-15.5"/>
<polygon fill="midnightblue" stroke="midnightblue" points="308.345,-12.0001 298.345,-15.5 308.345,-19.0001 308.345,-12.0001"/>
</g>
</g>
</svg>
