<?xml version="1.0" encoding="UTF-8" standalone="no"?>
<!DOCTYPE svg PUBLIC "-//W3C//DTD SVG 1.1//EN"
 "http://www.w3.org/Graphics/SVG/1.1/DTD/svg11.dtd">
<!-- Generated by graphviz version 2.38.0 (20140413.2041)
 -->
<!-- Title: scram::mef::CcfGroup::ApplyModel Pages: 1 -->
<!--zoomable 343 -->
<svg id="main" version="1.1" xmlns="http://www.w3.org/2000/svg" xmlns:xlink="http://www.w3.org/1999/xlink" xml:space="preserve" onload="init(evt)">
<style type="text/css"><![CDATA[
.edge:hover path { stroke: red; }
.edge:hover polygon { stroke: red; fill: red; }
]]></style>
<script type="text/javascript"><![CDATA[
var edges = document.getElementsByTagName('g');
if (edges && edges.length) {
  for (var i=0;i<edges.length;i++) {
    if (edges[i].id.substr(0,4)=='edge') {
      edges[i].setAttribute('class','edge');
    }
  }
}
]]></script>
        <defs>
                <circle id="rim" cx="0" cy="0" r="7"/>
                <circle id="rim2" cx="0" cy="0" r="3.5"/>
                <g id="zoomPlus">
                        <use xlink:href="#rim" fill="#404040">
                                <set attributeName="fill" to="#808080" begin="zoomplus.mouseover" end="zoomplus.mouseout"/>
                        </use>
                        <path d="M-4,0h8M0,-4v8" fill="none" stroke="white" stroke-width="1.5" pointer-events="none"/>
                </g>
                <g id="zoomMin">
                        <use xlink:href="#rim" fill="#404040">
                                <set attributeName="fill" to="#808080" begin="zoomminus.mouseover" end="zoomminus.mouseout"/>
                        </use>
                        <path d="M-4,0h8" fill="none" stroke="white" stroke-width="1.5" pointer-events="none"/>
                </g>
                <g id="dirArrow">
                        <path fill="none" stroke="white" stroke-width="1.5" d="M0,-3.0v7 M-2.5,-0.5L0,-3.0L2.5,-0.5"/>
                </g>
               <g id="resetDef">
                       <use xlink:href="#rim2" fill="#404040">
                               <set attributeName="fill" to="#808080" begin="reset.mouseover" end="reset.mouseout"/>
                       </use>
               </g>
        </defs>

<script type="text/javascript">
var viewWidth = 985;
var viewHeight = 343;
var sectionId = 'dynsection-10';
</script>
<script xlink:href="svgpan.js"/>
<svg id="graph" class="graph">
<g id="viewport">
<title>scram::mef::CcfGroup::ApplyModel</title>
<polygon fill="white" stroke="none" points="-4,4 -4,-339 981,-339 981,4 -4,4"/>
<!-- Node1 -->
<g id="node1" class="node"><title>Node1</title>
<polygon fill="#bfbfbf" stroke="black" points="0,-211.5 0,-241.5 122,-241.5 122,-211.5 0,-211.5"/>
<text text-anchor="start" x="8" y="-229.5" font-family="Helvetica,sans-Serif" font-size="10.00">scram::mef::CcfGroup</text>
<text text-anchor="middle" x="61" y="-218.5" font-family="Helvetica,sans-Serif" font-size="10.00">::ApplyModel</text>
</g>
<!-- Node2 -->
<g id="node2" class="node"><title>Node2</title>
<g id="a_node2"><a xlink:href="classscram_1_1mef_1_1CcfGroup.xhtml#a791a1a130e5551a7b70da25df8dbf765" target="_top" xlink:title="scram::mef::CcfGroup\l::distribution">
<polygon fill="white" stroke="black" points="158,-304.5 158,-334.5 280,-334.5 280,-304.5 158,-304.5"/>
<text text-anchor="start" x="166" y="-322.5" font-family="Helvetica,sans-Serif" font-size="10.00">scram::mef::CcfGroup</text>
<text text-anchor="middle" x="219" y="-311.5" font-family="Helvetica,sans-Serif" font-size="10.00">::distribution</text>
</a>
</g>
</g>
<!-- Node1&#45;&gt;Node2 -->
<g id="edge1" class="edge"><title>Node1&#45;&gt;Node2</title>
<path fill="none" stroke="midnightblue" d="M80.666,-241.616C99.4361,-256.35 129.588,-278.773 158,-294.5 161.51,-296.443 165.201,-298.328 168.957,-300.134"/>
<polygon fill="midnightblue" stroke="midnightblue" points="167.809,-303.458 178.357,-304.449 170.729,-297.096 167.809,-303.458"/>
</g>
<!-- Node3 -->
<g id="node3" class="node"><title>Node3</title>
<g id="a_node3"><a xlink:href="classscram_1_1mef_1_1CcfGroup.xhtml#a870cff942d6ce90dc50de37e17a151ee" target="_top" xlink:title="scram::mef::CcfGroup\l::factors">
<polygon fill="white" stroke="black" points="158,-255.5 158,-285.5 280,-285.5 280,-255.5 158,-255.5"/>
<text text-anchor="start" x="166" y="-273.5" font-family="Helvetica,sans-Serif" font-size="10.00">scram::mef::CcfGroup</text>
<text text-anchor="middle" x="219" y="-262.5" font-family="Helvetica,sans-Serif" font-size="10.00">::factors</text>
</a>
</g>
</g>
<!-- Node1&#45;&gt;Node3 -->
<g id="edge2" class="edge"><title>Node1&#45;&gt;Node3</title>
<path fill="none" stroke="midnightblue" d="M115.25,-241.519C127.981,-245.11 141.693,-248.978 154.824,-252.681"/>
<polygon fill="midnightblue" stroke="midnightblue" points="154.151,-256.128 164.725,-255.474 156.051,-249.391 154.151,-256.128"/>
</g>
<!-- Node4 -->
<g id="node4" class="node"><title>Node4</title>
<g id="a_node4"><a xlink:href="classscram_1_1mef_1_1CcfGroup.xhtml#a06dd05cabcbeddf42090536f6a47a184" target="_top" xlink:title="scram::mef::CcfGroup\l::members">
<polygon fill="white" stroke="black" points="158,-161.5 158,-191.5 280,-191.5 280,-161.5 158,-161.5"/>
<text text-anchor="start" x="166" y="-179.5" font-family="Helvetica,sans-Serif" font-size="10.00">scram::mef::CcfGroup</text>
<text text-anchor="middle" x="219" y="-168.5" font-family="Helvetica,sans-Serif" font-size="10.00">::members</text>
</a>
</g>
</g>
<!-- Node1&#45;&gt;Node4 -->
<g id="edge3" class="edge"><title>Node1&#45;&gt;Node4</title>
<path fill="none" stroke="midnightblue" d="M108.805,-211.498C125.235,-206.232 143.876,-200.258 161.047,-194.754"/>
<polygon fill="midnightblue" stroke="midnightblue" points="162.504,-197.963 170.958,-191.577 160.367,-191.297 162.504,-197.963"/>
</g>
<!-- Node8 -->
<g id="node8" class="node"><title>Node8</title>
<g id="a_node8"><a xlink:href="classscram_1_1mef_1_1Expression.xhtml#af4c1a5cb29e8f45623a99742b7ba8bc5" target="_top" xlink:title="scram::mef::Expression\l::value">
<polygon fill="white" stroke="black" points="848,-165.5 848,-195.5 977,-195.5 977,-165.5 848,-165.5"/>
<text text-anchor="start" x="856" y="-183.5" font-family="Helvetica,sans-Serif" font-size="10.00">scram::mef::Expression</text>
<text text-anchor="middle" x="912.5" y="-172.5" font-family="Helvetica,sans-Serif" font-size="10.00">::value</text>
</a>
</g>
</g>
<!-- Node1&#45;&gt;Node8 -->
<g id="edge18" class="edge"><title>Node1&#45;&gt;Node8</title>
<path fill="none" stroke="midnightblue" d="M122.076,-226.5C186.016,-226.5 290.148,-226.5 380,-226.5 380,-226.5 380,-226.5 563,-226.5 673.988,-226.5 702.622,-226.339 812,-207.5 825.626,-205.153 840.089,-201.764 853.643,-198.175"/>
<polygon fill="midnightblue" stroke="midnightblue" points="854.597,-201.543 863.327,-195.539 852.758,-194.789 854.597,-201.543"/>
</g>
<!-- Node13 -->
<g id="node13" class="node"><title>Node13</title>
<g id="a_node13"><a xlink:href="classscram_1_1mef_1_1Element.xhtml#adb401e2ca84aa98cb60797bec2500a81" target="_top" xlink:title="scram::mef::Element\l::name">
<polygon fill="white" stroke="black" points="503.5,-111.5 503.5,-141.5 620.5,-141.5 620.5,-111.5 503.5,-111.5"/>
<text text-anchor="start" x="511.5" y="-129.5" font-family="Helvetica,sans-Serif" font-size="10.00">scram::mef::Element</text>
<text text-anchor="middle" x="562" y="-118.5" font-family="Helvetica,sans-Serif" font-size="10.00">::name</text>
</a>
</g>
</g>
<!-- Node1&#45;&gt;Node13 -->
<g id="edge17" class="edge"><title>Node1&#45;&gt;Node13</title>
<path fill="none" stroke="midnightblue" d="M75.5386,-211.428C92.7112,-193.482 124.185,-164.328 158,-151.5 269.679,-109.134 411.229,-112.09 493.409,-118.805"/>
<polygon fill="midnightblue" stroke="midnightblue" points="493.113,-122.292 503.376,-119.661 493.713,-115.318 493.113,-122.292"/>
</g>
<!-- Node5 -->
<g id="node5" class="node"><title>Node5</title>
<g id="a_node5"><a xlink:href="classscram_1_1mef_1_1BasicEvent.xhtml#acfc0e73e1add67aa2ace841350eb62cd" target="_top" xlink:title="Validates the probability expressions for the primary event. ">
<polygon fill="white" stroke="black" points="316,-155.5 316,-185.5 446,-185.5 446,-155.5 316,-155.5"/>
<text text-anchor="start" x="324" y="-173.5" font-family="Helvetica,sans-Serif" font-size="10.00">scram::mef::BasicEvent</text>
<text text-anchor="middle" x="381" y="-162.5" font-family="Helvetica,sans-Serif" font-size="10.00">::Validate</text>
</a>
</g>
</g>
<!-- Node4&#45;&gt;Node5 -->
<g id="edge4" class="edge"><title>Node4&#45;&gt;Node5</title>
<path fill="none" stroke="midnightblue" d="M280.033,-174.249C288.446,-173.933 297.174,-173.606 305.811,-173.282"/>
<polygon fill="midnightblue" stroke="midnightblue" points="306.022,-176.777 315.883,-172.904 305.759,-169.782 306.022,-176.777"/>
</g>
<!-- Node6 -->
<g id="node6" class="node"><title>Node6</title>
<g id="a_node6"><a xlink:href="expression_8cc.xhtml#a2c0a639b694ccfdf4b7d6913d8a635de" target="_top" xlink:title="Ensures that expression can be used for probability ([0, 1]). ">
<polygon fill="white" stroke="black" points="482,-161 482,-180 642,-180 642,-161 482,-161"/>
<text text-anchor="middle" x="562" y="-168" font-family="Helvetica,sans-Serif" font-size="10.00">scram::mef::EnsureProbability</text>
</a>
</g>
</g>
<!-- Node5&#45;&gt;Node6 -->
<g id="edge5" class="edge"><title>Node5&#45;&gt;Node6</title>
<path fill="none" stroke="midnightblue" d="M446.118,-170.5C454.409,-170.5 463.018,-170.5 471.625,-170.5"/>
<polygon fill="midnightblue" stroke="midnightblue" points="471.709,-174 481.709,-170.5 471.709,-167 471.709,-174"/>
</g>
<!-- Node5&#45;&gt;Node13 -->
<g id="edge16" class="edge"><title>Node5&#45;&gt;Node13</title>
<path fill="none" stroke="midnightblue" d="M443.101,-155.481C459.288,-151.502 476.858,-147.183 493.37,-143.124"/>
<polygon fill="midnightblue" stroke="midnightblue" points="494.617,-146.422 503.493,-140.636 492.946,-139.624 494.617,-146.422"/>
</g>
<!-- Node6&#45;&gt;Node6 -->
<g id="edge6" class="edge"><title>Node6&#45;&gt;Node6</title>
<path fill="none" stroke="midnightblue" d="M534.257,-180.257C520.76,-189.065 530.008,-198.5 562,-198.5 583.995,-198.5 595.239,-194.041 595.733,-188.391"/>
<polygon fill="midnightblue" stroke="midnightblue" points="598.491,-186.234 589.743,-180.257 592.854,-190.385 598.491,-186.234"/>
</g>
<!-- Node7 -->
<g id="node7" class="node"><title>Node7</title>
<g id="a_node7"><a xlink:href="classscram_1_1mef_1_1Expression.xhtml#a179b21e75df522673e6d51b784d10e86" target="_top" xlink:title="scram::mef::Expression\l::interval">
<polygon fill="white" stroke="black" points="680.5,-73.5 680.5,-103.5 809.5,-103.5 809.5,-73.5 680.5,-73.5"/>
<text text-anchor="start" x="688.5" y="-91.5" font-family="Helvetica,sans-Serif" font-size="10.00">scram::mef::Expression</text>
<text text-anchor="middle" x="745" y="-80.5" font-family="Helvetica,sans-Serif" font-size="10.00">::interval</text>
</a>
</g>
</g>
<!-- Node6&#45;&gt;Node7 -->
<g id="edge7" class="edge"><title>Node6&#45;&gt;Node7</title>
<path fill="none" stroke="midnightblue" d="M615.738,-160.904C624.782,-158.215 633.874,-154.806 642,-150.5 660.915,-140.476 660.054,-130.171 678,-118.5 683.742,-114.765 690.026,-111.263 696.361,-108.063"/>
<polygon fill="midnightblue" stroke="midnightblue" points="698.134,-111.093 705.622,-103.598 695.095,-104.788 698.134,-111.093"/>
</g>
<!-- Node6&#45;&gt;Node8 -->
<g id="edge15" class="edge"><title>Node6&#45;&gt;Node8</title>
<path fill="none" stroke="midnightblue" d="M609.549,-160.927C659.721,-152.011 741.826,-141.482 812,-151.5 827.781,-153.753 844.556,-157.92 859.746,-162.406"/>
<polygon fill="midnightblue" stroke="midnightblue" points="858.887,-165.803 869.474,-165.383 860.936,-159.109 858.887,-165.803"/>
</g>
<!-- Node12 -->
<g id="node12" class="node"><title>Node12</title>
<g id="a_node12"><a xlink:href="expression_8h.xhtml#a7b3a2de3be05128d51eaa76c01de99f6" target="_top" xlink:title="Checks if a given interval is within the probability domain. ">
<polygon fill="white" stroke="black" points="678,-161 678,-180 812,-180 812,-161 678,-161"/>
<text text-anchor="middle" x="745" y="-168" font-family="Helvetica,sans-Serif" font-size="10.00">scram::mef::IsProbability</text>
</a>
</g>
</g>
<!-- Node6&#45;&gt;Node12 -->
<g id="edge13" class="edge"><title>Node6&#45;&gt;Node12</title>
<path fill="none" stroke="midnightblue" d="M642.126,-170.5C650.579,-170.5 659.168,-170.5 667.589,-170.5"/>
<polygon fill="midnightblue" stroke="midnightblue" points="667.758,-174 677.758,-170.5 667.758,-167 667.758,-174"/>
</g>
<!-- Node7&#45;&gt;Node8 -->
<g id="edge8" class="edge"><title>Node7&#45;&gt;Node8</title>
<path fill="none" stroke="midnightblue" d="M785.705,-103.652C794.705,-107.862 803.969,-112.853 812,-118.5 830.768,-131.698 828.898,-142.791 848,-155.5 850.899,-157.429 853.97,-159.244 857.134,-160.947"/>
<polygon fill="midnightblue" stroke="midnightblue" points="855.719,-164.152 866.235,-165.448 858.822,-157.878 855.719,-164.152"/>
</g>
<!-- Node9 -->
<g id="node9" class="node"><title>Node9</title>
<g id="a_node9"><a xlink:href="classscram_1_1mef_1_1Expression.xhtml#a058aef65da884a47ea3345bc31488b7a" target="_top" xlink:title="Determines if the value of the expression contains deviate expressions. ">
<polygon fill="white" stroke="black" points="848,-98.5 848,-128.5 977,-128.5 977,-98.5 848,-98.5"/>
<text text-anchor="start" x="856" y="-116.5" font-family="Helvetica,sans-Serif" font-size="10.00">scram::mef::Expression</text>
<text text-anchor="middle" x="912.5" y="-105.5" font-family="Helvetica,sans-Serif" font-size="10.00">::IsDeviate</text>
</a>
</g>
</g>
<!-- Node7&#45;&gt;Node9 -->
<g id="edge9" class="edge"><title>Node7&#45;&gt;Node9</title>
<path fill="none" stroke="midnightblue" d="M809.513,-98.0942C818.751,-99.4896 828.328,-100.936 837.747,-102.359"/>
<polygon fill="midnightblue" stroke="midnightblue" points="837.473,-105.857 847.883,-103.89 838.518,-98.9358 837.473,-105.857"/>
</g>
<!-- Node10 -->
<g id="node10" class="node"><title>Node10</title>
<g id="a_node10"><a xlink:href="classscram_1_1mef_1_1Expression.xhtml#a5cf00d8b2ff843ad029a501a89ee572a" target="_top" xlink:title="scram::mef::Expression\l::Sample">
<polygon fill="white" stroke="black" points="848,-49.5 848,-79.5 977,-79.5 977,-49.5 848,-49.5"/>
<text text-anchor="start" x="856" y="-67.5" font-family="Helvetica,sans-Serif" font-size="10.00">scram::mef::Expression</text>
<text text-anchor="middle" x="912.5" y="-56.5" font-family="Helvetica,sans-Serif" font-size="10.00">::Sample</text>
</a>
</g>
</g>
<!-- Node7&#45;&gt;Node10 -->
<g id="edge11" class="edge"><title>Node7&#45;&gt;Node10</title>
<path fill="none" stroke="midnightblue" d="M809.513,-79.2896C818.751,-77.9499 828.328,-76.5612 837.747,-75.1952"/>
<polygon fill="midnightblue" stroke="midnightblue" points="838.489,-78.6244 847.883,-73.7254 837.484,-71.6968 838.489,-78.6244"/>
</g>
<!-- Node11 -->
<g id="node11" class="node"><title>Node11</title>
<g id="a_node11"><a xlink:href="classscram_1_1mef_1_1Expression.xhtml#ab6d31c4ddb5d4a827727829cbd4e4449" target="_top" xlink:title="This routine resets the sampling to get new values. ">
<polygon fill="white" stroke="black" points="848,-0.5 848,-30.5 977,-30.5 977,-0.5 848,-0.5"/>
<text text-anchor="start" x="856" y="-18.5" font-family="Helvetica,sans-Serif" font-size="10.00">scram::mef::Expression</text>
<text text-anchor="middle" x="912.5" y="-7.5" font-family="Helvetica,sans-Serif" font-size="10.00">::Reset</text>
</a>
</g>
</g>
<!-- Node7&#45;&gt;Node11 -->
<g id="edge12" class="edge"><title>Node7&#45;&gt;Node11</title>
<path fill="none" stroke="midnightblue" d="M775.592,-73.4478C795.786,-63.3832 823.258,-50.0949 848,-39.5 852.071,-37.7566 856.315,-36.0079 860.594,-34.2931"/>
<polygon fill="midnightblue" stroke="midnightblue" points="861.938,-37.5257 869.962,-30.6081 859.375,-31.0115 861.938,-37.5257"/>
</g>
<!-- Node9&#45;&gt;Node9 -->
<g id="edge10" class="edge"><title>Node9&#45;&gt;Node9</title>
<path fill="none" stroke="midnightblue" d="M883.571,-128.659C876.595,-138.057 886.238,-147 912.5,-147 928.503,-147 938.335,-143.679 941.996,-138.958"/>
<polygon fill="midnightblue" stroke="midnightblue" points="945.474,-138.451 941.429,-128.659 938.484,-138.836 945.474,-138.451"/>
</g>
<!-- Node12&#45;&gt;Node12 -->
<g id="edge14" class="edge"><title>Node12&#45;&gt;Node12</title>
<path fill="none" stroke="midnightblue" d="M719.415,-180.257C706.968,-189.065 715.496,-198.5 745,-198.5 764.823,-198.5 775.177,-194.241 776.063,-188.775"/>
<polygon fill="midnightblue" stroke="midnightblue" points="778.938,-186.775 770.585,-180.257 773.051,-190.561 778.938,-186.775"/>
</g>
</g>
</svg>
        <g id="navigator" transform="translate(0 0)" fill="#404254">
                <rect fill="#f2f5e9" fill-opacity="0.5" stroke="#606060" stroke-width=".5" x="0" y="0" width="60" height="60"/>
                <use id="zoomplus" xlink:href="#zoomPlus" x="17" y="9" onmousedown="handleZoom(evt,'in')"/>
                <use id="zoomminus" xlink:href="#zoomMin" x="42" y="9" onmousedown="handleZoom(evt,'out')"/>
                <use id="reset" xlink:href="#resetDef" x="30" y="36" onmousedown="handleReset()"/>
                <g id="arrowUp" xlink:href="#dirArrow" transform="translate(30 24)" onmousedown="handlePan(0,-1)">
                  <use xlink:href="#rim" fill="#404040">
                        <set attributeName="fill" to="#808080" begin="arrowUp.mouseover" end="arrowUp.mouseout"/>
                  </use>
                  <path fill="none" stroke="white" stroke-width="1.5" d="M0,-3.0v7 M-2.5,-0.5L0,-3.0L2.5,-0.5"/>
                </g>
                <g id="arrowRight" xlink:href="#dirArrow" transform="rotate(90) translate(36 -43)" onmousedown="handlePan(1,0)">
                  <use xlink:href="#rim" fill="#404040">
                        <set attributeName="fill" to="#808080" begin="arrowRight.mouseover" end="arrowRight.mouseout"/>
                  </use>
                  <path fill="none" stroke="white" stroke-width="1.5" d="M0,-3.0v7 M-2.5,-0.5L0,-3.0L2.5,-0.5"/>
                </g>
                <g id="arrowDown" xlink:href="#dirArrow" transform="rotate(180) translate(-30 -48)" onmousedown="handlePan(0,1)">
                  <use xlink:href="#rim" fill="#404040">
                        <set attributeName="fill" to="#808080" begin="arrowDown.mouseover" end="arrowDown.mouseout"/>
                  </use>
                  <path fill="none" stroke="white" stroke-width="1.5" d="M0,-3.0v7 M-2.5,-0.5L0,-3.0L2.5,-0.5"/>
                </g>
                <g id="arrowLeft" xlink:href="#dirArrow" transform="rotate(270) translate(-36 17)" onmousedown="handlePan(-1,0)">
                  <use xlink:href="#rim" fill="#404040">
                        <set attributeName="fill" to="#808080" begin="arrowLeft.mouseover" end="arrowLeft.mouseout"/>
                  </use>
                  <path fill="none" stroke="white" stroke-width="1.5" d="M0,-3.0v7 M-2.5,-0.5L0,-3.0L2.5,-0.5"/>
                </g>
        </g>
        <svg viewBox="0 0 15 15" width="100%" height="30px" preserveAspectRatio="xMaxYMin meet">
         <g id="arrow_out" transform="scale(0.3 0.3)">
          <a xlink:href="classscram_1_1mef_1_1CcfGroup_ab399c5ed0c1d7d0a316ac3b7244b7eb9_cgraph_org.svg" target="_base">
           <rect id="button" ry="5" rx="5" y="6" x="6" height="38" width="38"
                fill="#f2f5e9" fill-opacity="0.5" stroke="#606060" stroke-width="1.0"/>
           <path id="arrow"
             d="M 11.500037,31.436501 C 11.940474,20.09759 22.043105,11.32322 32.158766,21.979434 L 37.068811,17.246167 C 37.068811,17.246167 37.088388,32 37.088388,32 L 22.160133,31.978069 C 22.160133,31.978069 26.997745,27.140456 26.997745,27.140456 C 18.528582,18.264221 13.291696,25.230495 11.500037,31.436501 z"
             style="fill:#404040;"/>
          </a>
         </g>
        </svg>
</svg>
