<?xml version="1.0" encoding="UTF-8" standalone="no"?>
<!DOCTYPE svg PUBLIC "-//W3C//DTD SVG 1.1//EN"
 "http://www.w3.org/Graphics/SVG/1.1/DTD/svg11.dtd">
<!-- Generated by graphviz version 2.38.0 (20140413.2041)
 -->
<!-- Title: ext::linear_map::find Pages: 1 -->
<svg width="349pt" height="339pt"
 viewBox="0.00 0.00 349.00 338.50" xmlns="http://www.w3.org/2000/svg" xmlns:xlink="http://www.w3.org/1999/xlink">
<g id="graph0" class="graph" transform="scale(1 1) rotate(0) translate(4 334.5)">
<title>ext::linear_map::find</title>
<polygon fill="white" stroke="none" points="-4,4 -4,-334.5 345,-334.5 345,4 -4,4"/>
<!-- Node1 -->
<g id="node1" class="node"><title>Node1</title>
<polygon fill="#bfbfbf" stroke="black" points="0,-161.5 0,-180.5 114,-180.5 114,-161.5 0,-161.5"/>
<text text-anchor="middle" x="57" y="-168.5" font-family="Helvetica,sans-Serif" font-size="10.00">ext::linear_map::find</text>
</g>
<!-- Node2 -->
<g id="node2" class="node"><title>Node2</title>
<g id="a_node2"><a xlink:href="classext_1_1linear__map.xhtml#abec7fa7fbdc9f24e5028ba4db54c1eb4" target="_top" xlink:title="Accesses the value of the entry. ">
<polygon fill="white" stroke="black" points="150,-300 150,-330 341,-330 341,-300 150,-300"/>
<text text-anchor="start" x="158" y="-318" font-family="Helvetica,sans-Serif" font-size="10.00">ext::linear_map&lt; int,</text>
<text text-anchor="middle" x="245.5" y="-307" font-family="Helvetica,sans-Serif" font-size="10.00"> GateWeakPtr, ext::MoveEraser &gt;::at</text>
</a>
</g>
</g>
<!-- Node1&#45;&gt;Node2 -->
<g id="edge1" class="edge"><title>Node1&#45;&gt;Node2</title>
<path fill="none" stroke="midnightblue" d="M67.0779,-189.572C81.0891,-216.233 110.544,-264.997 150,-291 155.229,-294.446 160.921,-297.398 166.833,-299.926"/>
<polygon fill="midnightblue" stroke="midnightblue" points="70.1309,-187.854 62.4756,-180.53 63.8925,-191.029 70.1309,-187.854"/>
</g>
<!-- Node3 -->
<g id="node3" class="node"><title>Node3</title>
<g id="a_node3"><a xlink:href="classext_1_1linear__map.xhtml#a06ea6f3a7b047a36ebf53e4af2211161" target="_top" xlink:title="Determines if an entry with the given key in the map. ">
<polygon fill="white" stroke="black" points="163.5,-240.5 163.5,-281.5 327.5,-281.5 327.5,-240.5 163.5,-240.5"/>
<text text-anchor="start" x="171.5" y="-269.5" font-family="Helvetica,sans-Serif" font-size="10.00">ext::linear_map&lt; int,</text>
<text text-anchor="start" x="171.5" y="-258.5" font-family="Helvetica,sans-Serif" font-size="10.00"> GateWeakPtr, ext::MoveEraser</text>
<text text-anchor="middle" x="245.5" y="-247.5" font-family="Helvetica,sans-Serif" font-size="10.00"> &gt;::count</text>
</a>
</g>
</g>
<!-- Node1&#45;&gt;Node3 -->
<g id="edge2" class="edge"><title>Node1&#45;&gt;Node3</title>
<path fill="none" stroke="midnightblue" d="M78.5142,-186.711C96.5578,-199.946 123.938,-218.646 150,-231 157.233,-234.428 164.956,-237.601 172.752,-240.498"/>
<polygon fill="midnightblue" stroke="midnightblue" points="80.5632,-183.873 70.4532,-180.704 76.3807,-189.486 80.5632,-183.873"/>
</g>
<!-- Node4 -->
<g id="node4" class="node"><title>Node4</title>
<g id="a_node4"><a xlink:href="classext_1_1linear__map.xhtml#a855a9757f53ba88c68240141f1d86bbd" target="_top" xlink:title="Attempts to build and insert an entry. ">
<polygon fill="white" stroke="black" points="163.5,-180.5 163.5,-221.5 327.5,-221.5 327.5,-180.5 163.5,-180.5"/>
<text text-anchor="start" x="171.5" y="-209.5" font-family="Helvetica,sans-Serif" font-size="10.00">ext::linear_map&lt; int,</text>
<text text-anchor="start" x="171.5" y="-198.5" font-family="Helvetica,sans-Serif" font-size="10.00"> GateWeakPtr, ext::MoveEraser</text>
<text text-anchor="middle" x="245.5" y="-187.5" font-family="Helvetica,sans-Serif" font-size="10.00"> &gt;::emplace</text>
</a>
</g>
</g>
<!-- Node1&#45;&gt;Node4 -->
<g id="edge3" class="edge"><title>Node1&#45;&gt;Node4</title>
<path fill="none" stroke="midnightblue" d="M124.179,-181.645C136.829,-183.68 150.208,-185.832 163.266,-187.933"/>
<polygon fill="midnightblue" stroke="midnightblue" points="124.638,-178.174 114.209,-180.042 123.526,-185.085 124.638,-178.174"/>
</g>
<!-- Node5 -->
<g id="node5" class="node"><title>Node5</title>
<g id="a_node5"><a xlink:href="classext_1_1linear__map.xhtml#a320f5c3dca95395b7a81c6a0713c8e30" target="_top" xlink:title="Erases the entry with a key. ">
<polygon fill="white" stroke="black" points="163.5,-120.5 163.5,-161.5 327.5,-161.5 327.5,-120.5 163.5,-120.5"/>
<text text-anchor="start" x="171.5" y="-149.5" font-family="Helvetica,sans-Serif" font-size="10.00">ext::linear_map&lt; int,</text>
<text text-anchor="start" x="171.5" y="-138.5" font-family="Helvetica,sans-Serif" font-size="10.00"> GateWeakPtr, ext::MoveEraser</text>
<text text-anchor="middle" x="245.5" y="-127.5" font-family="Helvetica,sans-Serif" font-size="10.00"> &gt;::erase</text>
</a>
</g>
</g>
<!-- Node1&#45;&gt;Node5 -->
<g id="edge4" class="edge"><title>Node1&#45;&gt;Node5</title>
<path fill="none" stroke="midnightblue" d="M124.179,-160.355C136.829,-158.32 150.208,-156.168 163.266,-154.067"/>
<polygon fill="midnightblue" stroke="midnightblue" points="123.526,-156.915 114.209,-161.958 124.638,-163.826 123.526,-156.915"/>
</g>
<!-- Node6 -->
<g id="node6" class="node"><title>Node6</title>
<g id="a_node6"><a xlink:href="classext_1_1linear__map.xhtml#a5ac43a9a0f3b364e3fa12af1b3a2ecd9" target="_top" xlink:title="Inserts a key&#45;value pair into the map if the pair is not in the map. ">
<polygon fill="white" stroke="black" points="163.5,-60.5 163.5,-101.5 327.5,-101.5 327.5,-60.5 163.5,-60.5"/>
<text text-anchor="start" x="171.5" y="-89.5" font-family="Helvetica,sans-Serif" font-size="10.00">ext::linear_map&lt; int,</text>
<text text-anchor="start" x="171.5" y="-78.5" font-family="Helvetica,sans-Serif" font-size="10.00"> GateWeakPtr, ext::MoveEraser</text>
<text text-anchor="middle" x="245.5" y="-67.5" font-family="Helvetica,sans-Serif" font-size="10.00"> &gt;::insert</text>
</a>
</g>
</g>
<!-- Node1&#45;&gt;Node6 -->
<g id="edge5" class="edge"><title>Node1&#45;&gt;Node6</title>
<path fill="none" stroke="midnightblue" d="M78.5142,-155.289C96.5578,-142.054 123.938,-123.354 150,-111 157.233,-107.572 164.956,-104.399 172.752,-101.502"/>
<polygon fill="midnightblue" stroke="midnightblue" points="76.3807,-152.514 70.4532,-161.296 80.5632,-158.127 76.3807,-152.514"/>
</g>
<!-- Node7 -->
<g id="node7" class="node"><title>Node7</title>
<g id="a_node7"><a xlink:href="classext_1_1linear__map.xhtml#a5a9ff2b51ccd613fe71b0ba392c0a333" target="_top" xlink:title="Accesses an existing or default constructed entry. ">
<polygon fill="white" stroke="black" points="163.5,-0.5 163.5,-41.5 327.5,-41.5 327.5,-0.5 163.5,-0.5"/>
<text text-anchor="start" x="171.5" y="-29.5" font-family="Helvetica,sans-Serif" font-size="10.00">ext::linear_map&lt; int,</text>
<text text-anchor="start" x="171.5" y="-18.5" font-family="Helvetica,sans-Serif" font-size="10.00"> GateWeakPtr, ext::MoveEraser</text>
<text text-anchor="middle" x="245.5" y="-7.5" font-family="Helvetica,sans-Serif" font-size="10.00"> &gt;::operator[]</text>
</a>
</g>
</g>
<!-- Node1&#45;&gt;Node7 -->
<g id="edge6" class="edge"><title>Node1&#45;&gt;Node7</title>
<path fill="none" stroke="midnightblue" d="M67.4961,-152.341C81.8457,-125.973 111.515,-78.0159 150,-51 154.931,-47.5386 160.28,-44.4629 165.841,-41.7321"/>
<polygon fill="midnightblue" stroke="midnightblue" points="64.3388,-150.825 62.7601,-161.301 70.5275,-154.096 64.3388,-150.825"/>
</g>
</g>
</svg>
