<?xml version="1.0" encoding="UTF-8" standalone="no"?>
<!DOCTYPE svg PUBLIC "-//W3C//DTD SVG 1.1//EN"
 "http://www.w3.org/Graphics/SVG/1.1/DTD/svg11.dtd">
<!-- Generated by graphviz version 2.38.0 (20140413.2041)
 -->
<!-- Title: scram::Config::Config Pages: 1 -->
<!--zoomable 1068 -->
<svg id="main" version="1.1" xmlns="http://www.w3.org/2000/svg" xmlns:xlink="http://www.w3.org/1999/xlink" xml:space="preserve" onload="init(evt)">
<style type="text/css"><![CDATA[
.edge:hover path { stroke: red; }
.edge:hover polygon { stroke: red; fill: red; }
]]></style>
<script type="text/javascript"><![CDATA[
var edges = document.getElementsByTagName('g');
if (edges && edges.length) {
  for (var i=0;i<edges.length;i++) {
    if (edges[i].id.substr(0,4)=='edge') {
      edges[i].setAttribute('class','edge');
    }
  }
}
]]></script>
        <defs>
                <circle id="rim" cx="0" cy="0" r="7"/>
                <circle id="rim2" cx="0" cy="0" r="3.5"/>
                <g id="zoomPlus">
                        <use xlink:href="#rim" fill="#404040">
                                <set attributeName="fill" to="#808080" begin="zoomplus.mouseover" end="zoomplus.mouseout"/>
                        </use>
                        <path d="M-4,0h8M0,-4v8" fill="none" stroke="white" stroke-width="1.5" pointer-events="none"/>
                </g>
                <g id="zoomMin">
                        <use xlink:href="#rim" fill="#404040">
                                <set attributeName="fill" to="#808080" begin="zoomminus.mouseover" end="zoomminus.mouseout"/>
                        </use>
                        <path d="M-4,0h8" fill="none" stroke="white" stroke-width="1.5" pointer-events="none"/>
                </g>
                <g id="dirArrow">
                        <path fill="none" stroke="white" stroke-width="1.5" d="M0,-3.0v7 M-2.5,-0.5L0,-3.0L2.5,-0.5"/>
                </g>
               <g id="resetDef">
                       <use xlink:href="#rim2" fill="#404040">
                               <set attributeName="fill" to="#808080" begin="reset.mouseover" end="reset.mouseout"/>
                       </use>
               </g>
        </defs>

<script type="text/javascript">
var viewWidth = 291;
var viewHeight = 1068;
var sectionId = 'dynsection-0';
</script>
<script xlink:href="svgpan.js"/>
<svg id="graph" class="graph">
<g id="viewport">
<title>scram::Config::Config</title>
<polygon fill="white" stroke="none" points="-4,4 -4,-1064 287,-1064 287,4 -4,4"/>
<!-- Node1 -->
<g id="node1" class="node"><title>Node1</title>
<polygon fill="#bfbfbf" stroke="black" points="0,-520 0,-539 119,-539 119,-520 0,-520"/>
<text text-anchor="middle" x="59.5" y="-527" font-family="Helvetica,sans-Serif" font-size="10.00">scram::Config::Config</text>
</g>
<!-- Node2 -->
<g id="node2" class="node"><title>Node2</title>
<g id="a_node2"><a xlink:href="classscram_1_1core_1_1Settings.xhtml#a34ae01bd2f50a2625c22ff3441315a61" target="_top" xlink:title="scram::core::Settings\l::algorithm">
<polygon fill="white" stroke="black" points="159.5,-1029.5 159.5,-1059.5 278.5,-1059.5 278.5,-1029.5 159.5,-1029.5"/>
<text text-anchor="start" x="167.5" y="-1047.5" font-family="Helvetica,sans-Serif" font-size="10.00">scram::core::Settings</text>
<text text-anchor="middle" x="219" y="-1036.5" font-family="Helvetica,sans-Serif" font-size="10.00">::algorithm</text>
</a>
</g>
</g>
<!-- Node1&#45;&gt;Node2 -->
<g id="edge1" class="edge"><title>Node1&#45;&gt;Node2</title>
<path fill="none" stroke="midnightblue" d="M61.1023,-539.199C65.1394,-601.319 90.1071,-943.218 155,-1020.5 155.715,-1021.35 156.464,-1022.17 157.243,-1022.97"/>
<polygon fill="midnightblue" stroke="midnightblue" points="155.032,-1025.68 164.974,-1029.34 159.485,-1020.28 155.032,-1025.68"/>
</g>
<!-- Node3 -->
<g id="node3" class="node"><title>Node3</title>
<g id="a_node3"><a xlink:href="classscram_1_1core_1_1Settings.xhtml#ace850c06d594dd41a09bda3b3e1cc179" target="_top" xlink:title="scram::core::Settings\l::approximation">
<polygon fill="white" stroke="black" points="159.5,-980.5 159.5,-1010.5 278.5,-1010.5 278.5,-980.5 159.5,-980.5"/>
<text text-anchor="start" x="167.5" y="-998.5" font-family="Helvetica,sans-Serif" font-size="10.00">scram::core::Settings</text>
<text text-anchor="middle" x="219" y="-987.5" font-family="Helvetica,sans-Serif" font-size="10.00">::approximation</text>
</a>
</g>
</g>
<!-- Node1&#45;&gt;Node3 -->
<g id="edge2" class="edge"><title>Node1&#45;&gt;Node3</title>
<path fill="none" stroke="midnightblue" d="M61.3399,-539.354C66.5343,-598.174 96.01,-902.692 155,-971.5 155.743,-972.366 156.52,-973.202 157.329,-974.007"/>
<polygon fill="midnightblue" stroke="midnightblue" points="155.364,-976.918 165.345,-980.471 159.758,-971.469 155.364,-976.918"/>
</g>
<!-- Node4 -->
<g id="node4" class="node"><title>Node4</title>
<g id="a_node4"><a xlink:href="classscram_1_1xml_1_1Element.xhtml#a60d62e931d3865a3c76b4e1be95e1d11" target="_top" xlink:title="Retrieves the XML element&#39;s attribute values. ">
<polygon fill="white" stroke="black" points="161,-931.5 161,-961.5 277,-961.5 277,-931.5 161,-931.5"/>
<text text-anchor="start" x="169" y="-949.5" font-family="Helvetica,sans-Serif" font-size="10.00">scram::xml::Element</text>
<text text-anchor="middle" x="219" y="-938.5" font-family="Helvetica,sans-Serif" font-size="10.00">::attribute</text>
</a>
</g>
</g>
<!-- Node1&#45;&gt;Node4 -->
<g id="edge3" class="edge"><title>Node1&#45;&gt;Node4</title>
<path fill="none" stroke="midnightblue" d="M61.6186,-539.318C68.0417,-594.134 101.819,-862.035 155,-922.5 155.754,-923.357 156.541,-924.183 157.359,-924.98"/>
<polygon fill="midnightblue" stroke="midnightblue" points="155.43,-927.917 165.439,-931.39 159.78,-922.433 155.43,-927.917"/>
</g>
<!-- Node5 -->
<g id="node5" class="node"><title>Node5</title>
<g id="a_node5"><a xlink:href="classscram_1_1core_1_1Settings.xhtml#a4a71410d7b91bb82cadc29c0fe0b2506" target="_top" xlink:title="scram::core::Settings\l::ccf_analysis">
<polygon fill="white" stroke="black" points="159.5,-882.5 159.5,-912.5 278.5,-912.5 278.5,-882.5 159.5,-882.5"/>
<text text-anchor="start" x="167.5" y="-900.5" font-family="Helvetica,sans-Serif" font-size="10.00">scram::core::Settings</text>
<text text-anchor="middle" x="219" y="-889.5" font-family="Helvetica,sans-Serif" font-size="10.00">::ccf_analysis</text>
</a>
</g>
</g>
<!-- Node1&#45;&gt;Node5 -->
<g id="edge4" class="edge"><title>Node1&#45;&gt;Node5</title>
<path fill="none" stroke="midnightblue" d="M60.1936,-539.169C59.3168,-583.621 61.5061,-770.583 155,-873.5 155.885,-874.475 156.815,-875.41 157.782,-876.307"/>
<polygon fill="midnightblue" stroke="midnightblue" points="155.786,-879.187 165.857,-882.476 160.035,-873.624 155.786,-879.187"/>
</g>
<!-- Node6 -->
<g id="node6" class="node"><title>Node6</title>
<g id="a_node6"><a xlink:href="classscram_1_1xml_1_1Element.xhtml#ab164f33b4aa86b74b853b87126bc8ff8" target="_top" xlink:title="scram::xml::Element\l::child">
<polygon fill="white" stroke="black" points="161,-833.5 161,-863.5 277,-863.5 277,-833.5 161,-833.5"/>
<text text-anchor="start" x="169" y="-851.5" font-family="Helvetica,sans-Serif" font-size="10.00">scram::xml::Element</text>
<text text-anchor="middle" x="219" y="-840.5" font-family="Helvetica,sans-Serif" font-size="10.00">::child</text>
</a>
</g>
</g>
<!-- Node1&#45;&gt;Node6 -->
<g id="edge5" class="edge"><title>Node1&#45;&gt;Node6</title>
<path fill="none" stroke="midnightblue" d="M60.7128,-539.142C62.1236,-579.635 72.8876,-737.832 155,-824.5 155.906,-825.456 156.853,-826.374 157.838,-827.256"/>
<polygon fill="midnightblue" stroke="midnightblue" points="155.897,-830.175 166.011,-833.333 160.074,-824.558 155.897,-830.175"/>
</g>
<!-- Node7 -->
<g id="node7" class="node"><title>Node7</title>
<g id="a_node7"><a xlink:href="classscram_1_1xml_1_1Element.xhtml#a57646bebfb4ea93e00a11d2f7ef4fabf" target="_top" xlink:title="scram::xml::Element\l::children">
<polygon fill="white" stroke="black" points="161,-784.5 161,-814.5 277,-814.5 277,-784.5 161,-784.5"/>
<text text-anchor="start" x="169" y="-802.5" font-family="Helvetica,sans-Serif" font-size="10.00">scram::xml::Element</text>
<text text-anchor="middle" x="219" y="-791.5" font-family="Helvetica,sans-Serif" font-size="10.00">::children</text>
</a>
</g>
</g>
<!-- Node1&#45;&gt;Node7 -->
<g id="edge6" class="edge"><title>Node1&#45;&gt;Node7</title>
<path fill="none" stroke="midnightblue" d="M61.4601,-539.496C65.5062,-576.203 84.3768,-705.073 155,-775.5 156.062,-776.559 157.175,-777.572 158.332,-778.541"/>
<polygon fill="midnightblue" stroke="midnightblue" points="156.332,-781.413 166.52,-784.32 160.368,-775.694 156.332,-781.413"/>
</g>
<!-- Node8 -->
<g id="node8" class="node"><title>Node8</title>
<g id="a_node8"><a xlink:href="classscram_1_1core_1_1Settings.xhtml#acbba7a642ade93cf58155748cdf0b446" target="_top" xlink:title="scram::core::Settings\l::cut_off">
<polygon fill="white" stroke="black" points="159.5,-735.5 159.5,-765.5 278.5,-765.5 278.5,-735.5 159.5,-735.5"/>
<text text-anchor="start" x="167.5" y="-753.5" font-family="Helvetica,sans-Serif" font-size="10.00">scram::core::Settings</text>
<text text-anchor="middle" x="219" y="-742.5" font-family="Helvetica,sans-Serif" font-size="10.00">::cut_off</text>
</a>
</g>
</g>
<!-- Node1&#45;&gt;Node8 -->
<g id="edge7" class="edge"><title>Node1&#45;&gt;Node8</title>
<path fill="none" stroke="midnightblue" d="M62.4722,-539.23C69.3619,-570.804 95.2596,-671.539 155,-726.5 156.273,-727.671 157.609,-728.787 158.997,-729.851"/>
<polygon fill="midnightblue" stroke="midnightblue" points="157.146,-732.822 167.427,-735.381 160.986,-726.969 157.146,-732.822"/>
</g>
<!-- Node9 -->
<g id="node9" class="node"><title>Node9</title>
<g id="a_node9"><a xlink:href="classscram_1_1core_1_1Settings.xhtml#a16c99e2ccd22a9be037f6c6fe229894b" target="_top" xlink:title="scram::core::Settings\l::importance_analysis">
<polygon fill="white" stroke="black" points="158.5,-686.5 158.5,-716.5 279.5,-716.5 279.5,-686.5 158.5,-686.5"/>
<text text-anchor="start" x="166.5" y="-704.5" font-family="Helvetica,sans-Serif" font-size="10.00">scram::core::Settings</text>
<text text-anchor="middle" x="219" y="-693.5" font-family="Helvetica,sans-Serif" font-size="10.00">::importance_analysis</text>
</a>
</g>
</g>
<!-- Node1&#45;&gt;Node9 -->
<g id="edge8" class="edge"><title>Node1&#45;&gt;Node9</title>
<path fill="none" stroke="midnightblue" d="M64.1822,-539.312C74.4791,-565.483 106.061,-637.66 155,-677.5 156.566,-678.775 158.207,-679.986 159.905,-681.138"/>
<polygon fill="midnightblue" stroke="midnightblue" points="158.413,-684.322 168.8,-686.408 161.981,-678.3 158.413,-684.322"/>
</g>
<!-- Node10 -->
<g id="node10" class="node"><title>Node10</title>
<g id="a_node10"><a xlink:href="classscram_1_1Config.xhtml#a5ac61fcdac1a41a1d19c191c9a5c50b4" target="_top" xlink:title="scram::Config::input\l_files">
<polygon fill="white" stroke="black" points="162.5,-637.5 162.5,-667.5 275.5,-667.5 275.5,-637.5 162.5,-637.5"/>
<text text-anchor="start" x="170.5" y="-655.5" font-family="Helvetica,sans-Serif" font-size="10.00">scram::Config::input</text>
<text text-anchor="middle" x="219" y="-644.5" font-family="Helvetica,sans-Serif" font-size="10.00">_files</text>
</a>
</g>
</g>
<!-- Node1&#45;&gt;Node10 -->
<g id="edge9" class="edge"><title>Node1&#45;&gt;Node10</title>
<path fill="none" stroke="midnightblue" d="M67.2469,-539.019C81.4216,-558.389 116.207,-602.732 155,-628.5 157.376,-630.079 159.871,-631.574 162.441,-632.988"/>
<polygon fill="midnightblue" stroke="midnightblue" points="160.892,-636.127 171.4,-637.484 164.032,-629.87 160.892,-636.127"/>
</g>
<!-- Node11 -->
<g id="node11" class="node"><title>Node11</title>
<g id="a_node11"><a xlink:href="classscram_1_1core_1_1Settings.xhtml#a0e43ec0f017d23a4fa4e376c4060d380" target="_top" xlink:title="scram::core::Settings\l::limit_order">
<polygon fill="white" stroke="black" points="159.5,-588.5 159.5,-618.5 278.5,-618.5 278.5,-588.5 159.5,-588.5"/>
<text text-anchor="start" x="167.5" y="-606.5" font-family="Helvetica,sans-Serif" font-size="10.00">scram::core::Settings</text>
<text text-anchor="middle" x="219" y="-595.5" font-family="Helvetica,sans-Serif" font-size="10.00">::limit_order</text>
</a>
</g>
</g>
<!-- Node1&#45;&gt;Node11 -->
<g id="edge10" class="edge"><title>Node1&#45;&gt;Node11</title>
<path fill="none" stroke="midnightblue" d="M77.2581,-539.172C95.9095,-549.745 127.103,-566.863 155,-579.5 158.838,-581.239 162.843,-582.963 166.891,-584.642"/>
<polygon fill="midnightblue" stroke="midnightblue" points="165.775,-587.966 176.358,-588.466 168.396,-581.476 165.775,-587.966"/>
</g>
<!-- Node12 -->
<g id="node12" class="node"><title>Node12</title>
<g id="a_node12"><a xlink:href="classscram_1_1core_1_1Settings.xhtml#a0c130c599ff39bd4a5b269907f06b66d" target="_top" xlink:title="scram::core::Settings\l::mission_time">
<polygon fill="white" stroke="black" points="159.5,-539.5 159.5,-569.5 278.5,-569.5 278.5,-539.5 159.5,-539.5"/>
<text text-anchor="start" x="167.5" y="-557.5" font-family="Helvetica,sans-Serif" font-size="10.00">scram::core::Settings</text>
<text text-anchor="middle" x="219" y="-546.5" font-family="Helvetica,sans-Serif" font-size="10.00">::mission_time</text>
</a>
</g>
</g>
<!-- Node1&#45;&gt;Node12 -->
<g id="edge11" class="edge"><title>Node1&#45;&gt;Node12</title>
<path fill="none" stroke="midnightblue" d="M119.147,-538.809C128.986,-540.371 139.274,-542.004 149.339,-543.601"/>
<polygon fill="midnightblue" stroke="midnightblue" points="148.879,-547.072 159.304,-545.183 149.976,-540.159 148.879,-547.072"/>
</g>
<!-- Node13 -->
<g id="node13" class="node"><title>Node13</title>
<g id="a_node13"><a xlink:href="classscram_1_1xml_1_1Element.xhtml#a58abc717fb3ff89dcbd4f1cf392855e5" target="_top" xlink:title="scram::xml::Element\l::name">
<polygon fill="white" stroke="black" points="161,-490.5 161,-520.5 277,-520.5 277,-490.5 161,-490.5"/>
<text text-anchor="start" x="169" y="-508.5" font-family="Helvetica,sans-Serif" font-size="10.00">scram::xml::Element</text>
<text text-anchor="middle" x="219" y="-497.5" font-family="Helvetica,sans-Serif" font-size="10.00">::name</text>
</a>
</g>
</g>
<!-- Node1&#45;&gt;Node13 -->
<g id="edge12" class="edge"><title>Node1&#45;&gt;Node13</title>
<path fill="none" stroke="midnightblue" d="M119.147,-520.563C129.487,-518.988 140.321,-517.337 150.872,-515.729"/>
<polygon fill="midnightblue" stroke="midnightblue" points="151.516,-519.171 160.874,-514.205 150.461,-512.251 151.516,-519.171"/>
</g>
<!-- Node14 -->
<g id="node14" class="node"><title>Node14</title>
<g id="a_node14"><a xlink:href="classscram_1_1core_1_1Settings.xhtml#ad646c62b90b1e6cef5a2db6ea9834601" target="_top" xlink:title="scram::core::Settings\l::num_bins">
<polygon fill="white" stroke="black" points="159.5,-441.5 159.5,-471.5 278.5,-471.5 278.5,-441.5 159.5,-441.5"/>
<text text-anchor="start" x="167.5" y="-459.5" font-family="Helvetica,sans-Serif" font-size="10.00">scram::core::Settings</text>
<text text-anchor="middle" x="219" y="-448.5" font-family="Helvetica,sans-Serif" font-size="10.00">::num_bins</text>
</a>
</g>
</g>
<!-- Node1&#45;&gt;Node14 -->
<g id="edge13" class="edge"><title>Node1&#45;&gt;Node14</title>
<path fill="none" stroke="midnightblue" d="M78.0287,-519.983C96.8246,-509.923 127.66,-493.836 155,-481.5 159.458,-479.488 164.129,-477.471 168.826,-475.503"/>
<polygon fill="midnightblue" stroke="midnightblue" points="170.527,-478.588 178.446,-471.549 167.866,-472.114 170.527,-478.588"/>
</g>
<!-- Node15 -->
<g id="node15" class="node"><title>Node15</title>
<g id="a_node15"><a xlink:href="classscram_1_1core_1_1Settings.xhtml#a35d180dd84bc1006157a02791c4bd210" target="_top" xlink:title="scram::core::Settings\l::num_quantiles">
<polygon fill="white" stroke="black" points="159.5,-392.5 159.5,-422.5 278.5,-422.5 278.5,-392.5 159.5,-392.5"/>
<text text-anchor="start" x="167.5" y="-410.5" font-family="Helvetica,sans-Serif" font-size="10.00">scram::core::Settings</text>
<text text-anchor="middle" x="219" y="-399.5" font-family="Helvetica,sans-Serif" font-size="10.00">::num_quantiles</text>
</a>
</g>
</g>
<!-- Node1&#45;&gt;Node15 -->
<g id="edge14" class="edge"><title>Node1&#45;&gt;Node15</title>
<path fill="none" stroke="midnightblue" d="M67.5424,-519.935C81.9918,-500.902 116.856,-457.935 155,-432.5 157.877,-430.581 160.924,-428.774 164.064,-427.077"/>
<polygon fill="midnightblue" stroke="midnightblue" points="165.698,-430.173 173.095,-422.588 162.582,-423.905 165.698,-430.173"/>
</g>
<!-- Node16 -->
<g id="node16" class="node"><title>Node16</title>
<g id="a_node16"><a xlink:href="classscram_1_1core_1_1Settings.xhtml#adda26a07ac3d505246a23b80829f8267" target="_top" xlink:title="scram::core::Settings\l::num_trials">
<polygon fill="white" stroke="black" points="159.5,-343.5 159.5,-373.5 278.5,-373.5 278.5,-343.5 159.5,-343.5"/>
<text text-anchor="start" x="167.5" y="-361.5" font-family="Helvetica,sans-Serif" font-size="10.00">scram::core::Settings</text>
<text text-anchor="middle" x="219" y="-350.5" font-family="Helvetica,sans-Serif" font-size="10.00">::num_trials</text>
</a>
</g>
</g>
<!-- Node1&#45;&gt;Node16 -->
<g id="edge15" class="edge"><title>Node1&#45;&gt;Node16</title>
<path fill="none" stroke="midnightblue" d="M64.2502,-519.858C74.7161,-494.134 106.68,-423.142 155,-383.5 157.03,-381.835 159.184,-380.27 161.427,-378.8"/>
<polygon fill="midnightblue" stroke="midnightblue" points="163.524,-381.631 170.43,-373.596 160.021,-375.57 163.524,-381.631"/>
</g>
<!-- Node17 -->
<g id="node17" class="node"><title>Node17</title>
<g id="a_node17"><a xlink:href="classscram_1_1core_1_1Settings.xhtml#ae64f362fceb44402e101140dfc1725ba" target="_top" xlink:title="scram::core::Settings\l::prime_implicants">
<polygon fill="white" stroke="black" points="159.5,-294.5 159.5,-324.5 278.5,-324.5 278.5,-294.5 159.5,-294.5"/>
<text text-anchor="start" x="167.5" y="-312.5" font-family="Helvetica,sans-Serif" font-size="10.00">scram::core::Settings</text>
<text text-anchor="middle" x="219" y="-301.5" font-family="Helvetica,sans-Serif" font-size="10.00">::prime_implicants</text>
</a>
</g>
</g>
<!-- Node1&#45;&gt;Node17 -->
<g id="edge16" class="edge"><title>Node1&#45;&gt;Node17</title>
<path fill="none" stroke="midnightblue" d="M62.5336,-519.901C69.6114,-488.745 96.0199,-389.297 155,-334.5 156.681,-332.938 158.472,-331.469 160.345,-330.088"/>
<polygon fill="midnightblue" stroke="midnightblue" points="162.449,-332.898 169.009,-324.579 158.692,-326.991 162.449,-332.898"/>
</g>
<!-- Node18 -->
<g id="node18" class="node"><title>Node18</title>
<g id="a_node18"><a xlink:href="classscram_1_1core_1_1Settings.xhtml#a83ddd939f7217fb9f0438bd1dd01f7b1" target="_top" xlink:title="scram::core::Settings\l::probability_analysis">
<polygon fill="white" stroke="black" points="159.5,-245.5 159.5,-275.5 278.5,-275.5 278.5,-245.5 159.5,-245.5"/>
<text text-anchor="start" x="167.5" y="-263.5" font-family="Helvetica,sans-Serif" font-size="10.00">scram::core::Settings</text>
<text text-anchor="middle" x="219" y="-252.5" font-family="Helvetica,sans-Serif" font-size="10.00">::probability_analysis</text>
</a>
</g>
</g>
<!-- Node1&#45;&gt;Node18 -->
<g id="edge17" class="edge"><title>Node1&#45;&gt;Node18</title>
<path fill="none" stroke="midnightblue" d="M61.5188,-519.615C65.7697,-483.313 85.2641,-355.814 155,-285.5 156.429,-284.059 157.952,-282.698 159.549,-281.414"/>
<polygon fill="midnightblue" stroke="midnightblue" points="161.774,-284.134 168.066,-275.61 157.832,-278.349 161.774,-284.134"/>
</g>
<!-- Node19 -->
<g id="node19" class="node"><title>Node19</title>
<g id="a_node19"><a xlink:href="classscram_1_1xml_1_1Document.xhtml#a4ac45d9407199ac54ebea609595cf942" target="_top" xlink:title="scram::xml::Document\l::root">
<polygon fill="white" stroke="black" points="156,-196.5 156,-226.5 282,-226.5 282,-196.5 156,-196.5"/>
<text text-anchor="start" x="164" y="-214.5" font-family="Helvetica,sans-Serif" font-size="10.00">scram::xml::Document</text>
<text text-anchor="middle" x="219" y="-203.5" font-family="Helvetica,sans-Serif" font-size="10.00">::root</text>
</a>
</g>
</g>
<!-- Node1&#45;&gt;Node19 -->
<g id="edge18" class="edge"><title>Node1&#45;&gt;Node19</title>
<path fill="none" stroke="midnightblue" d="M60.7664,-519.951C62.3931,-479.847 73.9022,-323.115 155,-236.5 156.357,-235.05 157.809,-233.683 159.338,-232.394"/>
<polygon fill="midnightblue" stroke="midnightblue" points="161.404,-235.22 167.531,-226.576 157.351,-229.512 161.404,-235.22"/>
</g>
<!-- Node20 -->
<g id="node20" class="node"><title>Node20</title>
<g id="a_node20"><a xlink:href="classscram_1_1core_1_1Settings.xhtml#a694757a6ab5effaea2d585905950d6bd" target="_top" xlink:title="scram::core::Settings\l::safety_integrity_levels">
<polygon fill="white" stroke="black" points="155,-147.5 155,-177.5 283,-177.5 283,-147.5 155,-147.5"/>
<text text-anchor="start" x="163" y="-165.5" font-family="Helvetica,sans-Serif" font-size="10.00">scram::core::Settings</text>
<text text-anchor="middle" x="219" y="-154.5" font-family="Helvetica,sans-Serif" font-size="10.00">::safety_integrity_levels</text>
</a>
</g>
</g>
<!-- Node1&#45;&gt;Node20 -->
<g id="edge19" class="edge"><title>Node1&#45;&gt;Node20</title>
<path fill="none" stroke="midnightblue" d="M60.2452,-519.915C59.5965,-475.845 62.6425,-290.431 155,-187.5 156.189,-186.175 157.457,-184.92 158.791,-183.73"/>
<polygon fill="midnightblue" stroke="midnightblue" points="161.103,-186.373 167.058,-177.61 156.938,-180.747 161.103,-186.373"/>
</g>
<!-- Node21 -->
<g id="node21" class="node"><title>Node21</title>
<g id="a_node21"><a xlink:href="classscram_1_1core_1_1Settings.xhtml#a9937a41d3fd1369f2eea59e1f33a1ac5" target="_top" xlink:title="scram::core::Settings\l::seed">
<polygon fill="white" stroke="black" points="159.5,-98.5 159.5,-128.5 278.5,-128.5 278.5,-98.5 159.5,-98.5"/>
<text text-anchor="start" x="167.5" y="-116.5" font-family="Helvetica,sans-Serif" font-size="10.00">scram::core::Settings</text>
<text text-anchor="middle" x="219" y="-105.5" font-family="Helvetica,sans-Serif" font-size="10.00">::seed</text>
</a>
</g>
</g>
<!-- Node1&#45;&gt;Node21 -->
<g id="edge20" class="edge"><title>Node1&#45;&gt;Node21</title>
<path fill="none" stroke="midnightblue" d="M61.6391,-519.743C68.1735,-465.267 102.455,-199.007 155,-138.5 156.14,-137.187 157.359,-135.942 158.644,-134.762"/>
<polygon fill="midnightblue" stroke="midnightblue" points="160.788,-137.528 166.625,-128.687 156.548,-131.958 160.788,-137.528"/>
</g>
<!-- Node22 -->
<g id="node22" class="node"><title>Node22</title>
<g id="a_node22"><a xlink:href="classscram_1_1core_1_1Settings.xhtml#a2bc9e5d7c8028a8fd8e2ea02d766bb2b" target="_top" xlink:title="scram::core::Settings\l::time_step">
<polygon fill="white" stroke="black" points="159.5,-49.5 159.5,-79.5 278.5,-79.5 278.5,-49.5 159.5,-49.5"/>
<text text-anchor="start" x="167.5" y="-67.5" font-family="Helvetica,sans-Serif" font-size="10.00">scram::core::Settings</text>
<text text-anchor="middle" x="219" y="-56.5" font-family="Helvetica,sans-Serif" font-size="10.00">::time_step</text>
</a>
</g>
</g>
<!-- Node1&#45;&gt;Node22 -->
<g id="edge21" class="edge"><title>Node1&#45;&gt;Node22</title>
<path fill="none" stroke="midnightblue" d="M61.3599,-519.702C66.6704,-461.213 96.7069,-158.387 155,-89.5 156.124,-88.1723 157.327,-86.9145 158.599,-85.7231"/>
<polygon fill="midnightblue" stroke="midnightblue" points="160.751,-88.4832 166.523,-79.5991 156.471,-82.9442 160.751,-88.4832"/>
</g>
<!-- Node23 -->
<g id="node23" class="node"><title>Node23</title>
<g id="a_node23"><a xlink:href="classscram_1_1core_1_1Settings.xhtml#aa07ede20b118ae78028fb0807e52f632" target="_top" xlink:title="scram::core::Settings\l::uncertainty_analysis">
<polygon fill="white" stroke="black" points="159,-0.5 159,-30.5 279,-30.5 279,-0.5 159,-0.5"/>
<text text-anchor="start" x="167" y="-18.5" font-family="Helvetica,sans-Serif" font-size="10.00">scram::core::Settings</text>
<text text-anchor="middle" x="219" y="-7.5" font-family="Helvetica,sans-Serif" font-size="10.00">::uncertainty_analysis</text>
</a>
</g>
</g>
<!-- Node1&#45;&gt;Node23 -->
<g id="edge22" class="edge"><title>Node1&#45;&gt;Node23</title>
<path fill="none" stroke="midnightblue" d="M61.1214,-519.851C65.2785,-458.053 90.8648,-117.898 155,-40.5 156.11,-39.1607 157.301,-37.8928 158.562,-36.6923"/>
<polygon fill="midnightblue" stroke="midnightblue" points="160.72,-39.4476 166.44,-30.5294 156.407,-33.9341 160.72,-39.4476"/>
</g>
</g>
</svg>
        <g id="navigator" transform="translate(0 0)" fill="#404254">
                <rect fill="#f2f5e9" fill-opacity="0.5" stroke="#606060" stroke-width=".5" x="0" y="0" width="60" height="60"/>
                <use id="zoomplus" xlink:href="#zoomPlus" x="17" y="9" onmousedown="handleZoom(evt,'in')"/>
                <use id="zoomminus" xlink:href="#zoomMin" x="42" y="9" onmousedown="handleZoom(evt,'out')"/>
                <use id="reset" xlink:href="#resetDef" x="30" y="36" onmousedown="handleReset()"/>
                <g id="arrowUp" xlink:href="#dirArrow" transform="translate(30 24)" onmousedown="handlePan(0,-1)">
                  <use xlink:href="#rim" fill="#404040">
                        <set attributeName="fill" to="#808080" begin="arrowUp.mouseover" end="arrowUp.mouseout"/>
                  </use>
                  <path fill="none" stroke="white" stroke-width="1.5" d="M0,-3.0v7 M-2.5,-0.5L0,-3.0L2.5,-0.5"/>
                </g>
                <g id="arrowRight" xlink:href="#dirArrow" transform="rotate(90) translate(36 -43)" onmousedown="handlePan(1,0)">
                  <use xlink:href="#rim" fill="#404040">
                        <set attributeName="fill" to="#808080" begin="arrowRight.mouseover" end="arrowRight.mouseout"/>
                  </use>
                  <path fill="none" stroke="white" stroke-width="1.5" d="M0,-3.0v7 M-2.5,-0.5L0,-3.0L2.5,-0.5"/>
                </g>
                <g id="arrowDown" xlink:href="#dirArrow" transform="rotate(180) translate(-30 -48)" onmousedown="handlePan(0,1)">
                  <use xlink:href="#rim" fill="#404040">
                        <set attributeName="fill" to="#808080" begin="arrowDown.mouseover" end="arrowDown.mouseout"/>
                  </use>
                  <path fill="none" stroke="white" stroke-width="1.5" d="M0,-3.0v7 M-2.5,-0.5L0,-3.0L2.5,-0.5"/>
                </g>
                <g id="arrowLeft" xlink:href="#dirArrow" transform="rotate(270) translate(-36 17)" onmousedown="handlePan(-1,0)">
                  <use xlink:href="#rim" fill="#404040">
                        <set attributeName="fill" to="#808080" begin="arrowLeft.mouseover" end="arrowLeft.mouseout"/>
                  </use>
                  <path fill="none" stroke="white" stroke-width="1.5" d="M0,-3.0v7 M-2.5,-0.5L0,-3.0L2.5,-0.5"/>
                </g>
        </g>
        <svg viewBox="0 0 15 15" width="100%" height="30px" preserveAspectRatio="xMaxYMin meet">
         <g id="arrow_out" transform="scale(0.3 0.3)">
          <a xlink:href="classscram_1_1Config_ab0d7940fbb627fab9867821e133eab5d_cgraph_org.svg" target="_base">
           <rect id="button" ry="5" rx="5" y="6" x="6" height="38" width="38"
                fill="#f2f5e9" fill-opacity="0.5" stroke="#606060" stroke-width="1.0"/>
           <path id="arrow"
             d="M 11.500037,31.436501 C 11.940474,20.09759 22.043105,11.32322 32.158766,21.979434 L 37.068811,17.246167 C 37.068811,17.246167 37.088388,32 37.088388,32 L 22.160133,31.978069 C 22.160133,31.978069 26.997745,27.140456 26.997745,27.140456 C 18.528582,18.264221 13.291696,25.230495 11.500037,31.436501 z"
             style="fill:#404040;"/>
          </a>
         </g>
        </svg>
</svg>
