<?xml version="1.0" encoding="UTF-8" standalone="no"?>
<!DOCTYPE svg PUBLIC "-//W3C//DTD SVG 1.1//EN"
 "http://www.w3.org/Graphics/SVG/1.1/DTD/svg11.dtd">
<!-- Generated by graphviz version 2.38.0 (20140413.2041)
 -->
<!-- Title: scram::mef::NodeMark Pages: 1 -->
<svg width="649pt" height="248pt"
 viewBox="0.00 0.00 649.00 248.00" xmlns="http://www.w3.org/2000/svg" xmlns:xlink="http://www.w3.org/1999/xlink">
<g id="graph0" class="graph" transform="scale(1 1) rotate(0) translate(4 244)">
<title>scram::mef::NodeMark</title>
<polygon fill="white" stroke="none" points="-4,4 -4,-244 645,-244 645,4 -4,4"/>
<!-- Node1 -->
<g id="node1" class="node"><title>Node1</title>
<polygon fill="#bfbfbf" stroke="black" points="243.5,-160.5 243.5,-239.5 369.5,-239.5 369.5,-160.5 243.5,-160.5"/>
<text text-anchor="middle" x="306.5" y="-227.5" font-family="Helvetica,sans-Serif" font-size="10.00">scram::mef::NodeMark</text>
<polyline fill="none" stroke="black" points="243.5,-220.5 369.5,-220.5 "/>
<text text-anchor="middle" x="306.5" y="-208.5" font-family="Helvetica,sans-Serif" font-size="10.00"> </text>
<polyline fill="none" stroke="black" points="243.5,-201.5 369.5,-201.5 "/>
<text text-anchor="start" x="251.5" y="-189.5" font-family="Helvetica,sans-Serif" font-size="10.00">+ mark()</text>
<text text-anchor="start" x="251.5" y="-178.5" font-family="Helvetica,sans-Serif" font-size="10.00">+ mark()</text>
<text text-anchor="start" x="251.5" y="-167.5" font-family="Helvetica,sans-Serif" font-size="10.00"># ~NodeMark()</text>
</g>
<!-- Node2 -->
<g id="node2" class="node"><title>Node2</title>
<g id="a_node2"><a xlink:href="classscram_1_1mef_1_1Gate.xhtml" target="_top" xlink:title="A representation of a gate in a fault tree. ">
<polygon fill="white" stroke="black" points="0,-0.5 0,-123.5 101,-123.5 101,-0.5 0,-0.5"/>
<text text-anchor="middle" x="50.5" y="-111.5" font-family="Helvetica,sans-Serif" font-size="10.00">scram::mef::Gate</text>
<polyline fill="none" stroke="black" points="0,-104.5 101,-104.5 "/>
<text text-anchor="middle" x="50.5" y="-92.5" font-family="Helvetica,sans-Serif" font-size="10.00"> </text>
<polyline fill="none" stroke="black" points="0,-85.5 101,-85.5 "/>
<text text-anchor="start" x="8" y="-73.5" font-family="Helvetica,sans-Serif" font-size="10.00">+ HasFormula()</text>
<text text-anchor="start" x="8" y="-62.5" font-family="Helvetica,sans-Serif" font-size="10.00">+ formula()</text>
<text text-anchor="start" x="8" y="-51.5" font-family="Helvetica,sans-Serif" font-size="10.00">+ Validate()</text>
<text text-anchor="start" x="8" y="-40.5" font-family="Helvetica,sans-Serif" font-size="10.00">+ formula()</text>
<text text-anchor="start" x="8" y="-29.5" font-family="Helvetica,sans-Serif" font-size="10.00">+ formula()</text>
<text text-anchor="start" x="8" y="-18.5" font-family="Helvetica,sans-Serif" font-size="10.00">* formula()</text>
<text text-anchor="start" x="8" y="-7.5" font-family="Helvetica,sans-Serif" font-size="10.00">* formula()</text>
</a>
</g>
</g>
<!-- Node1&#45;&gt;Node2 -->
<g id="edge1" class="edge"><title>Node1&#45;&gt;Node2</title>
<path fill="none" stroke="midnightblue" d="M233.62,-179.337C195.111,-166.973 148.158,-148.649 110.5,-124 107.393,-121.966 104.32,-119.748 101.305,-117.4"/>
<polygon fill="none" stroke="midnightblue" points="232.628,-182.694 243.217,-182.352 234.726,-176.016 232.628,-182.694"/>
</g>
<!-- Node3 -->
<g id="node3" class="node"><title>Node3</title>
<g id="a_node3"><a xlink:href="classscram_1_1mef_1_1Link.xhtml" target="_top" xlink:title="A link to another event tree in end&#45;states only. ">
<polygon fill="white" stroke="black" points="119.5,-28 119.5,-96 215.5,-96 215.5,-28 119.5,-28"/>
<text text-anchor="middle" x="167.5" y="-84" font-family="Helvetica,sans-Serif" font-size="10.00">scram::mef::Link</text>
<polyline fill="none" stroke="black" points="119.5,-77 215.5,-77 "/>
<text text-anchor="middle" x="167.5" y="-65" font-family="Helvetica,sans-Serif" font-size="10.00"> </text>
<polyline fill="none" stroke="black" points="119.5,-58 215.5,-58 "/>
<text text-anchor="start" x="127.5" y="-46" font-family="Helvetica,sans-Serif" font-size="10.00">+ Link()</text>
<text text-anchor="start" x="127.5" y="-35" font-family="Helvetica,sans-Serif" font-size="10.00">+ event_tree()</text>
</a>
</g>
</g>
<!-- Node1&#45;&gt;Node3 -->
<g id="edge2" class="edge"><title>Node1&#45;&gt;Node3</title>
<path fill="none" stroke="midnightblue" d="M255.448,-153.448C245.066,-143.868 234.322,-133.718 224.5,-124 215.536,-115.131 206.082,-105.245 197.505,-96.0578"/>
<polygon fill="none" stroke="midnightblue" points="253.19,-156.127 262.924,-160.309 257.923,-150.969 253.19,-156.127"/>
</g>
<!-- Node4 -->
<g id="node4" class="node"><title>Node4</title>
<g id="a_node4"><a xlink:href="classscram_1_1mef_1_1NamedBranch.xhtml" target="_top" xlink:title="Named branches that can be referenced and reused. ">
<polygon fill="white" stroke="black" points="233.5,-33.5 233.5,-90.5 379.5,-90.5 379.5,-33.5 233.5,-33.5"/>
<text text-anchor="middle" x="306.5" y="-78.5" font-family="Helvetica,sans-Serif" font-size="10.00">scram::mef::NamedBranch</text>
<polyline fill="none" stroke="black" points="233.5,-71.5 379.5,-71.5 "/>
<text text-anchor="middle" x="306.5" y="-59.5" font-family="Helvetica,sans-Serif" font-size="10.00"> </text>
<polyline fill="none" stroke="black" points="233.5,-52.5 379.5,-52.5 "/>
<text text-anchor="middle" x="306.5" y="-40.5" font-family="Helvetica,sans-Serif" font-size="10.00"> </text>
</a>
</g>
</g>
<!-- Node1&#45;&gt;Node4 -->
<g id="edge3" class="edge"><title>Node1&#45;&gt;Node4</title>
<path fill="none" stroke="midnightblue" d="M306.5,-150.23C306.5,-130.302 306.5,-107.974 306.5,-90.8961"/>
<polygon fill="none" stroke="midnightblue" points="303,-150.392 306.5,-160.392 310,-150.392 303,-150.392"/>
</g>
<!-- Node5 -->
<g id="node5" class="node"><title>Node5</title>
<g id="a_node5"><a xlink:href="classscram_1_1mef_1_1Parameter.xhtml" target="_top" xlink:title="This class provides a representation of a variable in basic event description. ">
<polygon fill="white" stroke="black" points="397.5,-11.5 397.5,-112.5 525.5,-112.5 525.5,-11.5 397.5,-11.5"/>
<text text-anchor="middle" x="461.5" y="-100.5" font-family="Helvetica,sans-Serif" font-size="10.00">scram::mef::Parameter</text>
<polyline fill="none" stroke="black" points="397.5,-93.5 525.5,-93.5 "/>
<text text-anchor="middle" x="461.5" y="-81.5" font-family="Helvetica,sans-Serif" font-size="10.00"> </text>
<polyline fill="none" stroke="black" points="397.5,-74.5 525.5,-74.5 "/>
<text text-anchor="start" x="405.5" y="-62.5" font-family="Helvetica,sans-Serif" font-size="10.00">+ expression()</text>
<text text-anchor="start" x="405.5" y="-51.5" font-family="Helvetica,sans-Serif" font-size="10.00">+ unit()</text>
<text text-anchor="start" x="405.5" y="-40.5" font-family="Helvetica,sans-Serif" font-size="10.00">+ unit()</text>
<text text-anchor="start" x="405.5" y="-29.5" font-family="Helvetica,sans-Serif" font-size="10.00">+ value()</text>
<text text-anchor="start" x="405.5" y="-18.5" font-family="Helvetica,sans-Serif" font-size="10.00">+ interval()</text>
</a>
</g>
</g>
<!-- Node1&#45;&gt;Node5 -->
<g id="edge4" class="edge"><title>Node1&#45;&gt;Node5</title>
<path fill="none" stroke="midnightblue" d="M358.195,-153.641C373.187,-140.488 389.633,-126.058 404.908,-112.655"/>
<polygon fill="none" stroke="midnightblue" points="355.711,-151.165 350.502,-160.392 360.327,-156.427 355.711,-151.165"/>
</g>
<!-- Node6 -->
<g id="node6" class="node"><title>Node6</title>
<g id="a_node6"><a xlink:href="classscram_1_1mef_1_1Rule.xhtml" target="_top" xlink:title="A reusable collection of instructions. ">
<polygon fill="white" stroke="black" points="544,-28 544,-96 641,-96 641,-28 544,-28"/>
<text text-anchor="middle" x="592.5" y="-84" font-family="Helvetica,sans-Serif" font-size="10.00">scram::mef::Rule</text>
<polyline fill="none" stroke="black" points="544,-77 641,-77 "/>
<text text-anchor="middle" x="592.5" y="-65" font-family="Helvetica,sans-Serif" font-size="10.00"> </text>
<polyline fill="none" stroke="black" points="544,-58 641,-58 "/>
<text text-anchor="start" x="552" y="-46" font-family="Helvetica,sans-Serif" font-size="10.00">+ instructions()</text>
<text text-anchor="start" x="552" y="-35" font-family="Helvetica,sans-Serif" font-size="10.00">+ instructions()</text>
</a>
</g>
</g>
<!-- Node1&#45;&gt;Node6 -->
<g id="edge5" class="edge"><title>Node1&#45;&gt;Node6</title>
<path fill="none" stroke="midnightblue" d="M379.398,-184.71C426.245,-173.266 486.998,-154.06 534.5,-124 546.231,-116.576 557.243,-106.262 566.453,-96.225"/>
<polygon fill="none" stroke="midnightblue" points="378.541,-181.316 369.623,-187.035 380.161,-188.126 378.541,-181.316"/>
</g>
</g>
</svg>
