<?xml version="1.0" encoding="UTF-8" standalone="no"?>
<!DOCTYPE svg PUBLIC "-//W3C//DTD SVG 1.1//EN"
 "http://www.w3.org/Graphics/SVG/1.1/DTD/svg11.dtd">
<!-- Generated by graphviz version 2.38.0 (20140413.2041)
 -->
<!-- Title: ext::linear_map::insert Pages: 1 -->
<svg width="332pt" height="50pt"
 viewBox="0.00 0.00 332.00 50.00" xmlns="http://www.w3.org/2000/svg" xmlns:xlink="http://www.w3.org/1999/xlink">
<g id="graph0" class="graph" transform="scale(1 1) rotate(0) translate(4 46)">
<title>ext::linear_map::insert</title>
<polygon fill="white" stroke="none" points="-4,4 -4,-46 328,-46 328,4 -4,4"/>
<!-- Node1 -->
<g id="node1" class="node"><title>Node1</title>
<polygon fill="#bfbfbf" stroke="black" points="0,-11.5 0,-30.5 124,-30.5 124,-11.5 0,-11.5"/>
<text text-anchor="middle" x="62" y="-18.5" font-family="Helvetica,sans-Serif" font-size="10.00">ext::linear_map::insert</text>
</g>
<!-- Node2 -->
<g id="node2" class="node"><title>Node2</title>
<g id="a_node2"><a xlink:href="classext_1_1linear__map.xhtml#a26ba19259697099d1252d79e85e0e31a" target="_top" xlink:title="ext::linear_map\&lt; int,\l GateWeakPtr, ext::MoveEraser\l \&gt;::linear_map">
<polygon fill="white" stroke="black" points="160,-0.5 160,-41.5 324,-41.5 324,-0.5 160,-0.5"/>
<text text-anchor="start" x="168" y="-29.5" font-family="Helvetica,sans-Serif" font-size="10.00">ext::linear_map&lt; int,</text>
<text text-anchor="start" x="168" y="-18.5" font-family="Helvetica,sans-Serif" font-size="10.00"> GateWeakPtr, ext::MoveEraser</text>
<text text-anchor="middle" x="242" y="-7.5" font-family="Helvetica,sans-Serif" font-size="10.00"> &gt;::linear_map</text>
</a>
</g>
</g>
<!-- Node1&#45;&gt;Node2 -->
<g id="edge1" class="edge"><title>Node1&#45;&gt;Node2</title>
<path fill="none" stroke="midnightblue" d="M134.349,-21C142.728,-21 151.325,-21 159.825,-21"/>
<polygon fill="midnightblue" stroke="midnightblue" points="134.258,-17.5001 124.258,-21 134.257,-24.5001 134.258,-17.5001"/>
</g>
</g>
</svg>
