<?xml version="1.0" encoding="UTF-8" standalone="no"?>
<!DOCTYPE svg PUBLIC "-//W3C//DTD SVG 1.1//EN"
 "http://www.w3.org/Graphics/SVG/1.1/DTD/svg11.dtd">
<!-- Generated by graphviz version 2.38.0 (20140413.2041)
 -->
<!-- Title: scram::mef::Model::Add Pages: 1 -->
<svg width="516pt" height="78pt"
 viewBox="0.00 0.00 516.00 77.50" xmlns="http://www.w3.org/2000/svg" xmlns:xlink="http://www.w3.org/1999/xlink">
<g id="graph0" class="graph" transform="scale(1 1) rotate(0) translate(4 73.5)">
<title>scram::mef::Model::Add</title>
<polygon fill="white" stroke="none" points="-4,4 -4,-73.5 512,-73.5 512,4 -4,4"/>
<!-- Node1 -->
<g id="node1" class="node"><title>Node1</title>
<polygon fill="#bfbfbf" stroke="black" points="0,-28 0,-47 131,-47 131,-28 0,-28"/>
<text text-anchor="middle" x="65.5" y="-35" font-family="Helvetica,sans-Serif" font-size="10.00">scram::mef::Model::Add</text>
</g>
<!-- Node2 -->
<g id="node2" class="node"><title>Node2</title>
<g id="a_node2"><a xlink:href="classscram_1_1mef_1_1Model.xhtml#a399227af1b36b77162c75a51fe13ebe7" target="_top" xlink:title="Adds MEF constructs into the model container. ">
<polygon fill="white" stroke="black" points="167,-50 167,-69 298,-69 298,-50 167,-50"/>
<text text-anchor="middle" x="232.5" y="-57" font-family="Helvetica,sans-Serif" font-size="10.00">scram::mef::Model::Add</text>
</a>
</g>
</g>
<!-- Node1&#45;&gt;Node2 -->
<g id="edge1" class="edge"><title>Node1&#45;&gt;Node2</title>
<path fill="none" stroke="midnightblue" d="M141.239,-47.4652C149.821,-48.6094 158.516,-49.7688 166.948,-50.8931"/>
<polygon fill="midnightblue" stroke="midnightblue" points="141.614,-43.9843 131.239,-46.1318 140.688,-50.9229 141.614,-43.9843"/>
</g>
<!-- Node3 -->
<g id="node3" class="node"><title>Node3</title>
<g id="a_node3"><a xlink:href="classscram_1_1mef_1_1Model.xhtml#a440e609f51239a98f3c2d5256522dce7" target="_top" xlink:title="scram::mef::Model::\lextern_functions">
<polygon fill="white" stroke="black" points="176.5,-0.5 176.5,-30.5 288.5,-30.5 288.5,-0.5 176.5,-0.5"/>
<text text-anchor="start" x="184.5" y="-18.5" font-family="Helvetica,sans-Serif" font-size="10.00">scram::mef::Model::</text>
<text text-anchor="middle" x="232.5" y="-7.5" font-family="Helvetica,sans-Serif" font-size="10.00">extern_functions</text>
</a>
</g>
</g>
<!-- Node1&#45;&gt;Node3 -->
<g id="edge2" class="edge"><title>Node1&#45;&gt;Node3</title>
<path fill="none" stroke="midnightblue" d="M141.465,-27.5047C153.189,-25.9415 165.117,-24.351 176.293,-22.8609"/>
<polygon fill="midnightblue" stroke="midnightblue" points="140.688,-24.0771 131.239,-28.8682 141.614,-31.0157 140.688,-24.0771"/>
</g>
<!-- Node4 -->
<g id="node4" class="node"><title>Node4</title>
<g id="a_node4"><a xlink:href="reporter_8cc.xhtml#a73f9569f4c2e2b6a3eac8d2c01b81943" target="_top" xlink:title="Describes all performed analyses deduced from settings. ">
<polygon fill="white" stroke="black" points="334,-0.5 334,-30.5 508,-30.5 508,-0.5 334,-0.5"/>
<text text-anchor="start" x="342" y="-18.5" font-family="Helvetica,sans-Serif" font-size="10.00">scram::ReportCalculatedQuantity</text>
<text text-anchor="middle" x="421" y="-7.5" font-family="Helvetica,sans-Serif" font-size="10.00">&lt; core::RiskAnalysis &gt;</text>
</a>
</g>
</g>
<!-- Node3&#45;&gt;Node4 -->
<g id="edge3" class="edge"><title>Node3&#45;&gt;Node4</title>
<path fill="none" stroke="midnightblue" d="M298.88,-15.5C310.173,-15.5 322.067,-15.5 333.811,-15.5"/>
<polygon fill="midnightblue" stroke="midnightblue" points="298.699,-12.0001 288.699,-15.5 298.699,-19.0001 298.699,-12.0001"/>
</g>
</g>
</svg>
