<?xml version="1.0" encoding="UTF-8" standalone="no"?>
<!DOCTYPE svg PUBLIC "-//W3C//DTD SVG 1.1//EN"
 "http://www.w3.org/Graphics/SVG/1.1/DTD/svg11.dtd">
<!-- Generated by graphviz version 2.38.0 (20140413.2041)
 -->
<!-- Title: scram::core::Pdag::basic_events Pages: 1 -->
<svg width="454pt" height="186pt"
 viewBox="0.00 0.00 454.00 186.00" xmlns="http://www.w3.org/2000/svg" xmlns:xlink="http://www.w3.org/1999/xlink">
<g id="graph0" class="graph" transform="scale(1 1) rotate(0) translate(4 182)">
<title>scram::core::Pdag::basic_events</title>
<polygon fill="white" stroke="none" points="-4,4 -4,-182 450,-182 450,4 -4,4"/>
<!-- Node1 -->
<g id="node1" class="node"><title>Node1</title>
<polygon fill="#bfbfbf" stroke="black" points="0,-49.5 0,-79.5 110,-79.5 110,-49.5 0,-49.5"/>
<text text-anchor="start" x="8" y="-67.5" font-family="Helvetica,sans-Serif" font-size="10.00">scram::core::Pdag::</text>
<text text-anchor="middle" x="55" y="-56.5" font-family="Helvetica,sans-Serif" font-size="10.00">basic_events</text>
</g>
<!-- Node2 -->
<g id="node2" class="node"><title>Node2</title>
<g id="a_node2"><a xlink:href="fault__tree__analysis_8cc.xhtml#af405213a7ee34a3dd833ce5298983b04" target="_top" xlink:title="Prints a collection of products to the standard error. ">
<polygon fill="white" stroke="black" points="146,-55 146,-74 247,-74 247,-55 146,-55"/>
<text text-anchor="middle" x="196.5" y="-62" font-family="Helvetica,sans-Serif" font-size="10.00">scram::core::Print</text>
</a>
</g>
</g>
<!-- Node1&#45;&gt;Node2 -->
<g id="edge1" class="edge"><title>Node1&#45;&gt;Node2</title>
<path fill="none" stroke="midnightblue" d="M110.334,-64.5C118.601,-64.5 127.172,-64.5 135.551,-64.5"/>
<polygon fill="midnightblue" stroke="midnightblue" points="135.642,-68.0001 145.642,-64.5 135.642,-61.0001 135.642,-68.0001"/>
</g>
<!-- Node2&#45;&gt;Node2 -->
<g id="edge5" class="edge"><title>Node2&#45;&gt;Node2</title>
<path fill="none" stroke="midnightblue" d="M174.922,-74.2571C164.424,-83.0653 171.617,-92.5 196.5,-92.5 212.441,-92.5 221.121,-88.628 222.542,-83.5292"/>
<polygon fill="midnightblue" stroke="midnightblue" points="225.569,-81.7493 218.078,-74.2571 219.262,-84.7855 225.569,-81.7493"/>
</g>
<!-- Node3 -->
<g id="node3" class="node"><title>Node3</title>
<g id="a_node3"><a xlink:href="classscram_1_1core_1_1ProductContainer.xhtml#ae3c4f3a13d162014a7e7bd35c12f4bcf" target="_top" xlink:title="Begin and end iterators over products in the container. ">
<polygon fill="white" stroke="black" points="283,-147.5 283,-177.5 446,-177.5 446,-147.5 283,-147.5"/>
<text text-anchor="start" x="291" y="-165.5" font-family="Helvetica,sans-Serif" font-size="10.00">scram::core::ProductContainer</text>
<text text-anchor="middle" x="364.5" y="-154.5" font-family="Helvetica,sans-Serif" font-size="10.00">::begin</text>
</a>
</g>
</g>
<!-- Node2&#45;&gt;Node3 -->
<g id="edge2" class="edge"><title>Node2&#45;&gt;Node3</title>
<path fill="none" stroke="midnightblue" d="M206.001,-74.1347C220.356,-89.8346 250.984,-120.943 283,-138.5 286.261,-140.288 289.671,-141.958 293.168,-143.516"/>
<polygon fill="midnightblue" stroke="midnightblue" points="292.005,-146.822 302.585,-147.381 294.662,-140.346 292.005,-146.822"/>
</g>
<!-- Node4 -->
<g id="node4" class="node"><title>Node4</title>
<g id="a_node4"><a xlink:href="classscram_1_1core_1_1ProductContainer.xhtml#a13aef26de832f9f965a5b59eda14847b" target="_top" xlink:title="scram::core::ProductContainer\l::Distribution">
<polygon fill="white" stroke="black" points="283,-98.5 283,-128.5 446,-128.5 446,-98.5 283,-98.5"/>
<text text-anchor="start" x="291" y="-116.5" font-family="Helvetica,sans-Serif" font-size="10.00">scram::core::ProductContainer</text>
<text text-anchor="middle" x="364.5" y="-105.5" font-family="Helvetica,sans-Serif" font-size="10.00">::Distribution</text>
</a>
</g>
</g>
<!-- Node2&#45;&gt;Node4 -->
<g id="edge3" class="edge"><title>Node2&#45;&gt;Node4</title>
<path fill="none" stroke="midnightblue" d="M229.901,-74.064C250.641,-80.1863 278.199,-88.3208 302.897,-95.6111"/>
<polygon fill="midnightblue" stroke="midnightblue" points="301.977,-98.9887 312.558,-98.463 303.958,-92.2751 301.977,-98.9887"/>
</g>
<!-- Node5 -->
<g id="node5" class="node"><title>Node5</title>
<g id="a_node5"><a xlink:href="classscram_1_1core_1_1ProductContainer.xhtml#ac48d179d37d1109d36bf2d36e02aebe7" target="_top" xlink:title="scram::core::ProductContainer\l::empty">
<polygon fill="white" stroke="black" points="283,-49.5 283,-79.5 446,-79.5 446,-49.5 283,-49.5"/>
<text text-anchor="start" x="291" y="-67.5" font-family="Helvetica,sans-Serif" font-size="10.00">scram::core::ProductContainer</text>
<text text-anchor="middle" x="364.5" y="-56.5" font-family="Helvetica,sans-Serif" font-size="10.00">::empty</text>
</a>
</g>
</g>
<!-- Node2&#45;&gt;Node5 -->
<g id="edge4" class="edge"><title>Node2&#45;&gt;Node5</title>
<path fill="none" stroke="midnightblue" d="M247.305,-64.5C255.405,-64.5 264.01,-64.5 272.73,-64.5"/>
<polygon fill="midnightblue" stroke="midnightblue" points="272.996,-68.0001 282.996,-64.5 272.996,-61.0001 272.996,-68.0001"/>
</g>
<!-- Node6 -->
<g id="node6" class="node"><title>Node6</title>
<g id="a_node6"><a xlink:href="classscram_1_1core_1_1ProductContainer.xhtml#ac02fbe13144218abf07fdd6ba9c8b532" target="_top" xlink:title="scram::core::ProductContainer\l::size">
<polygon fill="white" stroke="black" points="283,-0.5 283,-30.5 446,-30.5 446,-0.5 283,-0.5"/>
<text text-anchor="start" x="291" y="-18.5" font-family="Helvetica,sans-Serif" font-size="10.00">scram::core::ProductContainer</text>
<text text-anchor="middle" x="364.5" y="-7.5" font-family="Helvetica,sans-Serif" font-size="10.00">::size</text>
</a>
</g>
</g>
<!-- Node2&#45;&gt;Node6 -->
<g id="edge6" class="edge"><title>Node2&#45;&gt;Node6</title>
<path fill="none" stroke="midnightblue" d="M215.265,-54.8858C231.14,-48.6211 255.617,-40.6029 280.136,-33.3576"/>
<polygon fill="midnightblue" stroke="midnightblue" points="281.26,-36.6758 289.882,-30.5191 279.302,-29.955 281.26,-36.6758"/>
</g>
<!-- Node6&#45;&gt;Node2 -->
<g id="edge7" class="edge"><title>Node6&#45;&gt;Node2</title>
<path fill="none" stroke="midnightblue" d="M331.032,-30.569C310.003,-37.991 281.988,-46.6003 257.05,-53.4265"/>
<polygon fill="midnightblue" stroke="midnightblue" points="256.055,-50.0696 247.305,-56.0437 257.871,-56.8301 256.055,-50.0696"/>
</g>
</g>
</svg>
