<?xml version="1.0" encoding="UTF-8" standalone="no"?>
<!DOCTYPE svg PUBLIC "-//W3C//DTD SVG 1.1//EN"
 "http://www.w3.org/Graphics/SVG/1.1/DTD/svg11.dtd">
<!-- Generated by graphviz version 2.38.0 (20140413.2041)
 -->
<!-- Title: scram::core::Settings::prime_implicants Pages: 1 -->
<!--zoomable 341 -->
<svg id="main" version="1.1" xmlns="http://www.w3.org/2000/svg" xmlns:xlink="http://www.w3.org/1999/xlink" xml:space="preserve" onload="init(evt)">
<style type="text/css"><![CDATA[
.edge:hover path { stroke: red; }
.edge:hover polygon { stroke: red; fill: red; }
]]></style>
<script type="text/javascript"><![CDATA[
var edges = document.getElementsByTagName('g');
if (edges && edges.length) {
  for (var i=0;i<edges.length;i++) {
    if (edges[i].id.substr(0,4)=='edge') {
      edges[i].setAttribute('class','edge');
    }
  }
}
]]></script>
        <defs>
                <circle id="rim" cx="0" cy="0" r="7"/>
                <circle id="rim2" cx="0" cy="0" r="3.5"/>
                <g id="zoomPlus">
                        <use xlink:href="#rim" fill="#404040">
                                <set attributeName="fill" to="#808080" begin="zoomplus.mouseover" end="zoomplus.mouseout"/>
                        </use>
                        <path d="M-4,0h8M0,-4v8" fill="none" stroke="white" stroke-width="1.5" pointer-events="none"/>
                </g>
                <g id="zoomMin">
                        <use xlink:href="#rim" fill="#404040">
                                <set attributeName="fill" to="#808080" begin="zoomminus.mouseover" end="zoomminus.mouseout"/>
                        </use>
                        <path d="M-4,0h8" fill="none" stroke="white" stroke-width="1.5" pointer-events="none"/>
                </g>
                <g id="dirArrow">
                        <path fill="none" stroke="white" stroke-width="1.5" d="M0,-3.0v7 M-2.5,-0.5L0,-3.0L2.5,-0.5"/>
                </g>
               <g id="resetDef">
                       <use xlink:href="#rim2" fill="#404040">
                               <set attributeName="fill" to="#808080" begin="reset.mouseover" end="reset.mouseout"/>
                       </use>
               </g>
        </defs>

<script type="text/javascript">
var viewWidth = 843;
var viewHeight = 341;
var sectionId = 'dynsection-4';
</script>
<script xlink:href="svgpan.js"/>
<svg id="graph" class="graph">
<g id="viewport">
<title>scram::core::Settings::prime_implicants</title>
<polygon fill="white" stroke="none" points="-4,4 -4,-337.175 839,-337.175 839,4 -4,4"/>
<!-- Node1 -->
<g id="node1" class="node"><title>Node1</title>
<polygon fill="#bfbfbf" stroke="black" points="0,-168.049 0,-198.049 119,-198.049 119,-168.049 0,-168.049"/>
<text text-anchor="start" x="8" y="-186.049" font-family="Helvetica,sans-Serif" font-size="10.00">scram::core::Settings</text>
<text text-anchor="middle" x="59.5" y="-175.049" font-family="Helvetica,sans-Serif" font-size="10.00">::prime_implicants</text>
</g>
<!-- Node2 -->
<g id="node2" class="node"><title>Node2</title>
<g id="a_node2"><a xlink:href="classscram_1_1Config.xhtml#ab0d7940fbb627fab9867821e133eab5d" target="_top" xlink:title="A constructor with configurations for analysis. ">
<polygon fill="white" stroke="black" points="155,-242.549 155,-261.549 274,-261.549 274,-242.549 155,-242.549"/>
<text text-anchor="middle" x="214.5" y="-249.549" font-family="Helvetica,sans-Serif" font-size="10.00">scram::Config::Config</text>
</a>
</g>
</g>
<!-- Node1&#45;&gt;Node2 -->
<g id="edge1" class="edge"><title>Node1&#45;&gt;Node2</title>
<path fill="none" stroke="midnightblue" d="M96.1151,-203.117C113.567,-212.534 135.07,-223.532 155,-232.049 163.883,-235.846 173.75,-239.445 182.812,-242.516"/>
<polygon fill="midnightblue" stroke="midnightblue" points="97.327,-199.791 86.8724,-198.073 93.974,-205.935 97.327,-199.791"/>
</g>
<!-- Node3 -->
<g id="node3" class="node"><title>Node3</title>
<g id="a_node3"><a xlink:href="classscram_1_1core_1_1Zbdd.xhtml#ac90d12f0c653c679d22109124fa6344c" target="_top" xlink:title="Find or adds a ZBDD SetNode vertex using information from gates. ">
<polygon fill="white" stroke="black" points="159,-193.049 159,-223.049 270,-223.049 270,-193.049 159,-193.049"/>
<text text-anchor="start" x="167" y="-211.049" font-family="Helvetica,sans-Serif" font-size="10.00">scram::core::Zbdd::</text>
<text text-anchor="middle" x="214.5" y="-200.049" font-family="Helvetica,sans-Serif" font-size="10.00">FindOrAddVertex</text>
</a>
</g>
</g>
<!-- Node1&#45;&gt;Node3 -->
<g id="edge2" class="edge"><title>Node1&#45;&gt;Node3</title>
<path fill="none" stroke="midnightblue" d="M129.37,-194.303C139.199,-195.909 149.198,-197.543 158.709,-199.097"/>
<polygon fill="midnightblue" stroke="midnightblue" points="129.65,-190.802 119.216,-192.644 128.521,-197.711 129.65,-190.802"/>
</g>
<!-- Node4 -->
<g id="node4" class="node"><title>Node4</title>
<g id="a_node4"><a xlink:href="classscram_1_1core_1_1Zbdd.xhtml#a3dbb8ef5da2882daf6c39e9724eae459" target="_top" xlink:title="Removes subsets in ZBDD. ">
<polygon fill="white" stroke="black" points="159,-144.049 159,-174.049 270,-174.049 270,-144.049 159,-144.049"/>
<text text-anchor="start" x="167" y="-162.049" font-family="Helvetica,sans-Serif" font-size="10.00">scram::core::Zbdd::</text>
<text text-anchor="middle" x="214.5" y="-151.049" font-family="Helvetica,sans-Serif" font-size="10.00">Minimize</text>
</a>
</g>
</g>
<!-- Node1&#45;&gt;Node4 -->
<g id="edge3" class="edge"><title>Node1&#45;&gt;Node4</title>
<path fill="none" stroke="midnightblue" d="M129.37,-172.246C139.199,-170.704 149.198,-169.136 158.709,-167.644"/>
<polygon fill="midnightblue" stroke="midnightblue" points="128.553,-168.832 119.216,-173.839 129.638,-175.747 128.553,-168.832"/>
</g>
<!-- Node7 -->
<g id="node7" class="node"><title>Node7</title>
<g id="a_node7"><a xlink:href="classscram_1_1core_1_1Zbdd.xhtml#af92e04ed908364e0177ce444d7b72712" target="_top" xlink:title="The common constructor to initialize member variables. ">
<polygon fill="white" stroke="black" points="494.5,-102.549 494.5,-121.549 631.5,-121.549 631.5,-102.549 494.5,-102.549"/>
<text text-anchor="middle" x="563" y="-109.549" font-family="Helvetica,sans-Serif" font-size="10.00">scram::core::Zbdd::Zbdd</text>
</a>
</g>
</g>
<!-- Node1&#45;&gt;Node7 -->
<g id="edge17" class="edge"><title>Node1&#45;&gt;Node7</title>
<path fill="none" stroke="midnightblue" d="M83.3411,-161.18C124.59,-123.381 215.993,-47.179 310,-19.0495 371.314,-0.702546 397.701,11.3872 454,-19.0495 479.7,-32.9435 468.394,-54.3839 490,-74.0495 503.588,-86.4177 521.943,-96.0237 536.719,-102.483"/>
<polygon fill="midnightblue" stroke="midnightblue" points="80.9546,-158.62 76.0035,-167.987 85.7152,-163.752 80.9546,-158.62"/>
</g>
<!-- Node5 -->
<g id="node5" class="node"><title>Node5</title>
<g id="a_node5"><a xlink:href="classscram_1_1core_1_1Zbdd.xhtml#aac27b9279de1ee1a63822896daeca0c7" target="_top" xlink:title="Runs the analysis with the representation of a PDAG as ZBDD. ">
<polygon fill="white" stroke="black" points="507.5,-286.049 507.5,-316.049 618.5,-316.049 618.5,-286.049 507.5,-286.049"/>
<text text-anchor="start" x="515.5" y="-304.049" font-family="Helvetica,sans-Serif" font-size="10.00">scram::core::Zbdd::</text>
<text text-anchor="middle" x="563" y="-293.049" font-family="Helvetica,sans-Serif" font-size="10.00">Analyze</text>
</a>
</g>
</g>
<!-- Node4&#45;&gt;Node5 -->
<g id="edge4" class="edge"><title>Node4&#45;&gt;Node5</title>
<path fill="none" stroke="midnightblue" d="M271.263,-180.276C272.216,-181.164 273.13,-182.088 274,-183.049 311.639,-224.659 265.024,-270.506 310,-304.049 370.676,-349.302 464.428,-332.023 518.842,-316.062"/>
<polygon fill="midnightblue" stroke="midnightblue" points="273.369,-177.48 263.309,-174.155 269.1,-183.027 273.369,-177.48"/>
</g>
<!-- Node4&#45;&gt;Node7 -->
<g id="edge6" class="edge"><title>Node4&#45;&gt;Node7</title>
<path fill="none" stroke="midnightblue" d="M280.305,-150.259C341.362,-141.977 432.474,-129.619 494.421,-121.216"/>
<polygon fill="midnightblue" stroke="midnightblue" points="279.461,-146.842 270.022,-151.654 280.402,-153.778 279.461,-146.842"/>
</g>
<!-- Node8 -->
<g id="node8" class="node"><title>Node8</title>
<g id="a_node8"><a xlink:href="classscram_1_1core_1_1Zbdd.xhtml#a499a8bc4bc3854e7b2928c08515243cf" target="_top" xlink:title="Specialization of Apply for AND operator for non&#45;terminal ZBDD vertices. ">
<polygon fill="white" stroke="black" points="326.5,-78.0495 326.5,-108.049 437.5,-108.049 437.5,-78.0495 326.5,-78.0495"/>
<text text-anchor="start" x="334.5" y="-96.0495" font-family="Helvetica,sans-Serif" font-size="10.00">scram::core::Zbdd::</text>
<text text-anchor="middle" x="382" y="-85.0495" font-family="Helvetica,sans-Serif" font-size="10.00">Apply</text>
</a>
</g>
</g>
<!-- Node4&#45;&gt;Node8 -->
<g id="edge7" class="edge"><title>Node4&#45;&gt;Node8</title>
<path fill="none" stroke="midnightblue" d="M262.937,-140.132C288.41,-129.973 319.38,-117.623 343.208,-108.121"/>
<polygon fill="midnightblue" stroke="midnightblue" points="261.461,-136.952 253.469,-143.908 264.054,-143.454 261.461,-136.952"/>
</g>
<!-- Node9 -->
<g id="node9" class="node"><title>Node9</title>
<g id="a_node9"><a xlink:href="classscram_1_1core_1_1Zbdd.xhtml#ac3ac27090b550d973b20bd971c3de9f9" target="_top" xlink:title="Removes complements of variables from products. ">
<polygon fill="white" stroke="black" points="318,-29.0495 318,-59.0495 446,-59.0495 446,-29.0495 318,-29.0495"/>
<text text-anchor="start" x="326" y="-47.0495" font-family="Helvetica,sans-Serif" font-size="10.00">scram::core::Zbdd::</text>
<text text-anchor="middle" x="382" y="-36.0495" font-family="Helvetica,sans-Serif" font-size="10.00">EliminateComplements</text>
</a>
</g>
</g>
<!-- Node4&#45;&gt;Node9 -->
<g id="edge8" class="edge"><title>Node4&#45;&gt;Node9</title>
<path fill="none" stroke="midnightblue" d="M234.042,-136.173C251.668,-115.762 279.895,-86.3521 310,-68.0495 315.559,-64.6698 321.655,-61.6948 327.866,-59.0953"/>
<polygon fill="midnightblue" stroke="midnightblue" points="231.169,-134.149 227.383,-144.044 236.513,-138.67 231.169,-134.149"/>
</g>
<!-- Node11 -->
<g id="node11" class="node"><title>Node11</title>
<g id="a_node11"><a xlink:href="classscram_1_1core_1_1Zbdd.xhtml#aeb83fd37f2aee74ac41e6ccadba82d39" target="_top" xlink:title="Removes constant modules from products. ">
<polygon fill="white" stroke="black" points="310,-166.049 310,-196.049 454,-196.049 454,-166.049 310,-166.049"/>
<text text-anchor="start" x="318" y="-184.049" font-family="Helvetica,sans-Serif" font-size="10.00">scram::core::Zbdd::</text>
<text text-anchor="middle" x="382" y="-173.049" font-family="Helvetica,sans-Serif" font-size="10.00">EliminateConstantModules</text>
</a>
</g>
</g>
<!-- Node4&#45;&gt;Node11 -->
<g id="edge11" class="edge"><title>Node4&#45;&gt;Node11</title>
<path fill="none" stroke="midnightblue" d="M280.156,-167.644C289.905,-168.94 300.005,-170.283 309.88,-171.595"/>
<polygon fill="midnightblue" stroke="midnightblue" points="280.524,-164.162 270.15,-166.314 279.601,-171.101 280.524,-164.162"/>
</g>
<!-- Node13 -->
<g id="node13" class="node"><title>Node13</title>
<g id="a_node13"><a xlink:href="classscram_1_1core_1_1Zbdd.xhtml#a8cfceb8301f35bce33c34f1283f33725" target="_top" xlink:title="Applies non&#45;declarative substitutions at the end of analysis. ">
<polygon fill="white" stroke="black" points="326.5,-264.049 326.5,-294.049 437.5,-294.049 437.5,-264.049 326.5,-264.049"/>
<text text-anchor="start" x="334.5" y="-282.049" font-family="Helvetica,sans-Serif" font-size="10.00">scram::core::Zbdd::</text>
<text text-anchor="middle" x="382" y="-271.049" font-family="Helvetica,sans-Serif" font-size="10.00">ApplySubstitutions</text>
</a>
</g>
</g>
<!-- Node4&#45;&gt;Node13 -->
<g id="edge14" class="edge"><title>Node4&#45;&gt;Node13</title>
<path fill="none" stroke="midnightblue" d="M269.998,-179.667C271.39,-180.742 272.728,-181.869 274,-183.049 300.221,-207.39 283.022,-231.551 310,-255.049 314.808,-259.237 320.376,-262.701 326.238,-265.564"/>
<polygon fill="midnightblue" stroke="midnightblue" points="271.811,-176.67 261.541,-174.068 267.947,-182.507 271.811,-176.67"/>
</g>
<!-- Node14 -->
<g id="node14" class="node"><title>Node14</title>
<g id="a_node14"><a xlink:href="classscram_1_1core_1_1zbdd_1_1CutSetContainer.xhtml#a1648d3f24a95302fac2a40e95f743dda" target="_top" xlink:title="Minimizes cut sets in the container. ">
<polygon fill="white" stroke="black" points="310,-215.049 310,-245.049 454,-245.049 454,-215.049 310,-215.049"/>
<text text-anchor="start" x="318" y="-233.049" font-family="Helvetica,sans-Serif" font-size="10.00">scram::core::zbdd::</text>
<text text-anchor="middle" x="382" y="-222.049" font-family="Helvetica,sans-Serif" font-size="10.00">CutSetContainer::Minimize</text>
</a>
</g>
</g>
<!-- Node4&#45;&gt;Node14 -->
<g id="edge16" class="edge"><title>Node4&#45;&gt;Node14</title>
<path fill="none" stroke="midnightblue" d="M263.832,-178.162C267.302,-179.753 270.723,-181.389 274,-183.049 290.727,-191.524 293.063,-197.002 310,-205.049 317.554,-208.639 325.769,-211.996 333.842,-215.013"/>
<polygon fill="midnightblue" stroke="midnightblue" points="265.157,-174.921 254.596,-174.075 262.324,-181.322 265.157,-174.921"/>
</g>
<!-- Node6 -->
<g id="node6" class="node"><title>Node6</title>
<g id="a_node6"><a xlink:href="classscram_1_1core_1_1FaultTreeAnalyzer.xhtml#aedae0c884539dab245018194771f5021" target="_top" xlink:title="scram::core::FaultTreeAnalyzer\l::algorithm">
<polygon fill="white" stroke="black" points="672,-286.049 672,-316.049 835,-316.049 835,-286.049 672,-286.049"/>
<text text-anchor="start" x="680" y="-304.049" font-family="Helvetica,sans-Serif" font-size="10.00">scram::core::FaultTreeAnalyzer</text>
<text text-anchor="middle" x="753.5" y="-293.049" font-family="Helvetica,sans-Serif" font-size="10.00">::algorithm</text>
</a>
</g>
</g>
<!-- Node5&#45;&gt;Node6 -->
<g id="edge5" class="edge"><title>Node5&#45;&gt;Node6</title>
<path fill="none" stroke="midnightblue" d="M628.887,-301.049C642.71,-301.049 657.469,-301.049 671.801,-301.049"/>
<polygon fill="midnightblue" stroke="midnightblue" points="628.522,-297.55 618.522,-301.049 628.522,-304.55 628.522,-297.55"/>
</g>
<!-- Node9&#45;&gt;Node7 -->
<g id="edge9" class="edge"><title>Node9&#45;&gt;Node7</title>
<path fill="none" stroke="midnightblue" d="M438.445,-62.4273C443.718,-64.2843 448.97,-66.1767 454,-68.0495 483.979,-79.2113 518.092,-93.3558 539.817,-102.549"/>
<polygon fill="midnightblue" stroke="midnightblue" points="439.571,-59.1134 428.976,-59.1347 437.272,-65.725 439.571,-59.1134"/>
</g>
<!-- Node10 -->
<g id="node10" class="node"><title>Node10</title>
<g id="a_node10"><a xlink:href="classscram_1_1core_1_1zbdd_1_1CutSetContainer.xhtml#a49532388bd9b917f4351f94f728518aa" target="_top" xlink:title="Eliminates all complements from cut sets. ">
<polygon fill="white" stroke="black" points="490,-23.5495 490,-64.5495 636,-64.5495 636,-23.5495 490,-23.5495"/>
<text text-anchor="start" x="498" y="-52.5495" font-family="Helvetica,sans-Serif" font-size="10.00">scram::core::zbdd::</text>
<text text-anchor="start" x="498" y="-41.5495" font-family="Helvetica,sans-Serif" font-size="10.00">CutSetContainer::Eliminate</text>
<text text-anchor="middle" x="563" y="-30.5495" font-family="Helvetica,sans-Serif" font-size="10.00">Complements</text>
</a>
</g>
</g>
<!-- Node9&#45;&gt;Node10 -->
<g id="edge10" class="edge"><title>Node9&#45;&gt;Node10</title>
<path fill="none" stroke="midnightblue" d="M456.227,-44.0495C467.374,-44.0495 478.87,-44.0495 489.991,-44.0495"/>
<polygon fill="midnightblue" stroke="midnightblue" points="456.109,-40.5496 446.109,-44.0495 456.109,-47.5496 456.109,-40.5496"/>
</g>
<!-- Node11&#45;&gt;Node7 -->
<g id="edge12" class="edge"><title>Node11&#45;&gt;Node7</title>
<path fill="none" stroke="midnightblue" d="M431.616,-162.309C465.738,-149.156 509.959,-132.11 537.137,-121.633"/>
<polygon fill="midnightblue" stroke="midnightblue" points="430.354,-159.045 422.282,-165.907 432.872,-165.576 430.354,-159.045"/>
</g>
<!-- Node12 -->
<g id="node12" class="node"><title>Node12</title>
<g id="a_node12"><a xlink:href="classscram_1_1core_1_1zbdd_1_1CutSetContainer.xhtml#a1022ad7a4699257a6f0c0809d8f1903d" target="_top" xlink:title="Removes constant modules from cut sets. ">
<polygon fill="white" stroke="black" points="490,-160.549 490,-201.549 636,-201.549 636,-160.549 490,-160.549"/>
<text text-anchor="start" x="498" y="-189.549" font-family="Helvetica,sans-Serif" font-size="10.00">scram::core::zbdd::</text>
<text text-anchor="start" x="498" y="-178.549" font-family="Helvetica,sans-Serif" font-size="10.00">CutSetContainer::Eliminate</text>
<text text-anchor="middle" x="563" y="-167.549" font-family="Helvetica,sans-Serif" font-size="10.00">ConstantModules</text>
</a>
</g>
</g>
<!-- Node11&#45;&gt;Node12 -->
<g id="edge13" class="edge"><title>Node11&#45;&gt;Node12</title>
<path fill="none" stroke="midnightblue" d="M464.055,-181.049C472.676,-181.049 481.403,-181.049 489.911,-181.049"/>
<polygon fill="midnightblue" stroke="midnightblue" points="464.003,-177.55 454.003,-181.049 464.003,-184.55 464.003,-177.55"/>
</g>
<!-- Node13&#45;&gt;Node5 -->
<g id="edge15" class="edge"><title>Node13&#45;&gt;Node5</title>
<path fill="none" stroke="midnightblue" d="M447.722,-287.004C467.269,-289.407 488.527,-292.019 507.348,-294.332"/>
<polygon fill="midnightblue" stroke="midnightblue" points="448.031,-283.516 437.679,-285.77 447.177,-290.464 448.031,-283.516"/>
</g>
</g>
</svg>
        <g id="navigator" transform="translate(0 0)" fill="#404254">
                <rect fill="#f2f5e9" fill-opacity="0.5" stroke="#606060" stroke-width=".5" x="0" y="0" width="60" height="60"/>
                <use id="zoomplus" xlink:href="#zoomPlus" x="17" y="9" onmousedown="handleZoom(evt,'in')"/>
                <use id="zoomminus" xlink:href="#zoomMin" x="42" y="9" onmousedown="handleZoom(evt,'out')"/>
                <use id="reset" xlink:href="#resetDef" x="30" y="36" onmousedown="handleReset()"/>
                <g id="arrowUp" xlink:href="#dirArrow" transform="translate(30 24)" onmousedown="handlePan(0,-1)">
                  <use xlink:href="#rim" fill="#404040">
                        <set attributeName="fill" to="#808080" begin="arrowUp.mouseover" end="arrowUp.mouseout"/>
                  </use>
                  <path fill="none" stroke="white" stroke-width="1.5" d="M0,-3.0v7 M-2.5,-0.5L0,-3.0L2.5,-0.5"/>
                </g>
                <g id="arrowRight" xlink:href="#dirArrow" transform="rotate(90) translate(36 -43)" onmousedown="handlePan(1,0)">
                  <use xlink:href="#rim" fill="#404040">
                        <set attributeName="fill" to="#808080" begin="arrowRight.mouseover" end="arrowRight.mouseout"/>
                  </use>
                  <path fill="none" stroke="white" stroke-width="1.5" d="M0,-3.0v7 M-2.5,-0.5L0,-3.0L2.5,-0.5"/>
                </g>
                <g id="arrowDown" xlink:href="#dirArrow" transform="rotate(180) translate(-30 -48)" onmousedown="handlePan(0,1)">
                  <use xlink:href="#rim" fill="#404040">
                        <set attributeName="fill" to="#808080" begin="arrowDown.mouseover" end="arrowDown.mouseout"/>
                  </use>
                  <path fill="none" stroke="white" stroke-width="1.5" d="M0,-3.0v7 M-2.5,-0.5L0,-3.0L2.5,-0.5"/>
                </g>
                <g id="arrowLeft" xlink:href="#dirArrow" transform="rotate(270) translate(-36 17)" onmousedown="handlePan(-1,0)">
                  <use xlink:href="#rim" fill="#404040">
                        <set attributeName="fill" to="#808080" begin="arrowLeft.mouseover" end="arrowLeft.mouseout"/>
                  </use>
                  <path fill="none" stroke="white" stroke-width="1.5" d="M0,-3.0v7 M-2.5,-0.5L0,-3.0L2.5,-0.5"/>
                </g>
        </g>
        <svg viewBox="0 0 15 15" width="100%" height="30px" preserveAspectRatio="xMaxYMin meet">
         <g id="arrow_out" transform="scale(0.3 0.3)">
          <a xlink:href="classscram_1_1core_1_1Settings_ae64f362fceb44402e101140dfc1725ba_icgraph_org.svg" target="_base">
           <rect id="button" ry="5" rx="5" y="6" x="6" height="38" width="38"
                fill="#f2f5e9" fill-opacity="0.5" stroke="#606060" stroke-width="1.0"/>
           <path id="arrow"
             d="M 11.500037,31.436501 C 11.940474,20.09759 22.043105,11.32322 32.158766,21.979434 L 37.068811,17.246167 C 37.068811,17.246167 37.088388,32 37.088388,32 L 22.160133,31.978069 C 22.160133,31.978069 26.997745,27.140456 26.997745,27.140456 C 18.528582,18.264221 13.291696,25.230495 11.500037,31.436501 z"
             style="fill:#404040;"/>
          </a>
         </g>
        </svg>
</svg>
