<?xml version="1.0" encoding="UTF-8" standalone="no"?>
<!DOCTYPE svg PUBLIC "-//W3C//DTD SVG 1.1//EN"
 "http://www.w3.org/Graphics/SVG/1.1/DTD/svg11.dtd">
<!-- Generated by graphviz version 2.38.0 (20140413.2041)
 -->
<!-- Title: scram::mef::Initializer::documents Pages: 1 -->
<svg width="294pt" height="52pt"
 viewBox="0.00 0.00 294.00 51.50" xmlns="http://www.w3.org/2000/svg" xmlns:xlink="http://www.w3.org/1999/xlink">
<g id="graph0" class="graph" transform="scale(1 1) rotate(0) translate(4 47.5)">
<title>scram::mef::Initializer::documents</title>
<polygon fill="white" stroke="none" points="-4,4 -4,-47.5 290,-47.5 290,4 -4,4"/>
<!-- Node1 -->
<g id="node1" class="node"><title>Node1</title>
<polygon fill="#bfbfbf" stroke="black" points="0,-0.5 0,-30.5 119,-30.5 119,-0.5 0,-0.5"/>
<text text-anchor="start" x="8" y="-18.5" font-family="Helvetica,sans-Serif" font-size="10.00">scram::mef::Initializer</text>
<text text-anchor="middle" x="59.5" y="-7.5" font-family="Helvetica,sans-Serif" font-size="10.00">::documents</text>
</g>
<!-- Node2 -->
<g id="node2" class="node"><title>Node2</title>
<g id="a_node2"><a xlink:href="element_8h.xhtml#aa0a41336bfd1eb2482e64470eddf3a2c" target="_top" xlink:title="Computes the full path of an element. ">
<polygon fill="white" stroke="black" points="155,-6 155,-25 286,-25 286,-6 155,-6"/>
<text text-anchor="middle" x="220.5" y="-13" font-family="Helvetica,sans-Serif" font-size="10.00">scram::mef::GetFullPath</text>
</a>
</g>
</g>
<!-- Node1&#45;&gt;Node2 -->
<g id="edge1" class="edge"><title>Node1&#45;&gt;Node2</title>
<path fill="none" stroke="midnightblue" d="M119.254,-15.5C127.583,-15.5 136.239,-15.5 144.82,-15.5"/>
<polygon fill="midnightblue" stroke="midnightblue" points="144.835,-19.0001 154.835,-15.5 144.835,-12.0001 144.835,-19.0001"/>
</g>
<!-- Node2&#45;&gt;Node2 -->
<g id="edge2" class="edge"><title>Node2&#45;&gt;Node2</title>
<path fill="none" stroke="midnightblue" d="M195.839,-25.2571C183.842,-34.0653 192.062,-43.5 220.5,-43.5 239.606,-43.5 249.586,-39.241 250.44,-33.7746"/>
<polygon fill="midnightblue" stroke="midnightblue" points="253.404,-31.9128 245.161,-25.2571 247.454,-35.6007 253.404,-31.9128"/>
</g>
</g>
</svg>
