<?xml version="1.0" encoding="UTF-8" standalone="no"?>
<!DOCTYPE svg PUBLIC "-//W3C//DTD SVG 1.1//EN"
 "http://www.w3.org/Graphics/SVG/1.1/DTD/svg11.dtd">
<!-- Generated by graphviz version 2.38.0 (20140413.2041)
 -->
<!-- Title: scram::mef::Gate Pages: 1 -->
<!--zoomable 728 -->
<svg id="main" version="1.1" xmlns="http://www.w3.org/2000/svg" xmlns:xlink="http://www.w3.org/1999/xlink" xml:space="preserve" onload="init(evt)">
<style type="text/css"><![CDATA[
.edge:hover path { stroke: red; }
.edge:hover polygon { stroke: red; fill: red; }
]]></style>
<script type="text/javascript"><![CDATA[
var edges = document.getElementsByTagName('g');
if (edges && edges.length) {
  for (var i=0;i<edges.length;i++) {
    if (edges[i].id.substr(0,4)=='edge') {
      edges[i].setAttribute('class','edge');
    }
  }
}
]]></script>
        <defs>
                <circle id="rim" cx="0" cy="0" r="7"/>
                <circle id="rim2" cx="0" cy="0" r="3.5"/>
                <g id="zoomPlus">
                        <use xlink:href="#rim" fill="#404040">
                                <set attributeName="fill" to="#808080" begin="zoomplus.mouseover" end="zoomplus.mouseout"/>
                        </use>
                        <path d="M-4,0h8M0,-4v8" fill="none" stroke="white" stroke-width="1.5" pointer-events="none"/>
                </g>
                <g id="zoomMin">
                        <use xlink:href="#rim" fill="#404040">
                                <set attributeName="fill" to="#808080" begin="zoomminus.mouseover" end="zoomminus.mouseout"/>
                        </use>
                        <path d="M-4,0h8" fill="none" stroke="white" stroke-width="1.5" pointer-events="none"/>
                </g>
                <g id="dirArrow">
                        <path fill="none" stroke="white" stroke-width="1.5" d="M0,-3.0v7 M-2.5,-0.5L0,-3.0L2.5,-0.5"/>
                </g>
               <g id="resetDef">
                       <use xlink:href="#rim2" fill="#404040">
                               <set attributeName="fill" to="#808080" begin="reset.mouseover" end="reset.mouseout"/>
                       </use>
               </g>
        </defs>

<script type="text/javascript">
var viewWidth = 386;
var viewHeight = 728;
var sectionId = 'dynsection-0';
</script>
<script xlink:href="svgpan.js"/>
<svg id="graph" class="graph">
<g id="viewport">
<title>scram::mef::Gate</title>
<polygon fill="white" stroke="none" points="-4,4 -4,-724 381.5,-724 381.5,4 -4,4"/>
<!-- Node1 -->
<g id="node1" class="node"><title>Node1</title>
<polygon fill="#bfbfbf" stroke="black" points="197,-0.5 197,-123.5 298,-123.5 298,-0.5 197,-0.5"/>
<text text-anchor="middle" x="247.5" y="-111.5" font-family="Helvetica,sans-Serif" font-size="10.00">scram::mef::Gate</text>
<polyline fill="none" stroke="black" points="197,-104.5 298,-104.5 "/>
<text text-anchor="middle" x="247.5" y="-92.5" font-family="Helvetica,sans-Serif" font-size="10.00"> </text>
<polyline fill="none" stroke="black" points="197,-85.5 298,-85.5 "/>
<text text-anchor="start" x="205" y="-73.5" font-family="Helvetica,sans-Serif" font-size="10.00">+ HasFormula()</text>
<text text-anchor="start" x="205" y="-62.5" font-family="Helvetica,sans-Serif" font-size="10.00">+ formula()</text>
<text text-anchor="start" x="205" y="-51.5" font-family="Helvetica,sans-Serif" font-size="10.00">+ Validate()</text>
<text text-anchor="start" x="205" y="-40.5" font-family="Helvetica,sans-Serif" font-size="10.00">+ formula()</text>
<text text-anchor="start" x="205" y="-29.5" font-family="Helvetica,sans-Serif" font-size="10.00">+ formula()</text>
<text text-anchor="start" x="205" y="-18.5" font-family="Helvetica,sans-Serif" font-size="10.00">* formula()</text>
<text text-anchor="start" x="205" y="-7.5" font-family="Helvetica,sans-Serif" font-size="10.00">* formula()</text>
</g>
<!-- Node2 -->
<g id="node2" class="node"><title>Node2</title>
<g id="a_node2"><a xlink:href="classscram_1_1mef_1_1Event.xhtml" target="_top" xlink:title="Abstract base class for general fault tree events. ">
<polygon fill="white" stroke="black" points="129.5,-171.5 129.5,-228.5 233.5,-228.5 233.5,-171.5 129.5,-171.5"/>
<text text-anchor="middle" x="181.5" y="-216.5" font-family="Helvetica,sans-Serif" font-size="10.00">scram::mef::Event</text>
<polyline fill="none" stroke="black" points="129.5,-209.5 233.5,-209.5 "/>
<text text-anchor="middle" x="181.5" y="-197.5" font-family="Helvetica,sans-Serif" font-size="10.00"> </text>
<polyline fill="none" stroke="black" points="129.5,-190.5 233.5,-190.5 "/>
<text text-anchor="start" x="137.5" y="-178.5" font-family="Helvetica,sans-Serif" font-size="10.00">+ ~Event()</text>
</a>
</g>
</g>
<!-- Node2&#45;&gt;Node1 -->
<g id="edge1" class="edge"><title>Node2&#45;&gt;Node1</title>
<path fill="none" stroke="midnightblue" d="M199.307,-162.306C205.094,-150.382 211.678,-136.815 218.08,-123.623"/>
<polygon fill="none" stroke="midnightblue" points="196.073,-160.954 194.856,-171.478 202.371,-164.01 196.073,-160.954"/>
</g>
<!-- Node3 -->
<g id="node3" class="node"><title>Node3</title>
<g id="a_node3"><a xlink:href="classscram_1_1mef_1_1Id.xhtml" target="_top" xlink:title="Mixin class for assigning unique identifiers to elements. ">
<polygon fill="white" stroke="black" points="70,-276.5 70,-410.5 171,-410.5 171,-276.5 70,-276.5"/>
<text text-anchor="middle" x="120.5" y="-398.5" font-family="Helvetica,sans-Serif" font-size="10.00">scram::mef::Id</text>
<polyline fill="none" stroke="black" points="70,-391.5 171,-391.5 "/>
<text text-anchor="middle" x="120.5" y="-379.5" font-family="Helvetica,sans-Serif" font-size="10.00"> </text>
<polyline fill="none" stroke="black" points="70,-372.5 171,-372.5 "/>
<text text-anchor="start" x="78" y="-360.5" font-family="Helvetica,sans-Serif" font-size="10.00">+ Id()</text>
<text text-anchor="start" x="78" y="-349.5" font-family="Helvetica,sans-Serif" font-size="10.00">+ id()</text>
<text text-anchor="start" x="78" y="-338.5" font-family="Helvetica,sans-Serif" font-size="10.00">+ id()</text>
<text text-anchor="start" x="78" y="-327.5" font-family="Helvetica,sans-Serif" font-size="10.00">+ unique_name()</text>
<text text-anchor="start" x="78" y="-316.5" font-family="Helvetica,sans-Serif" font-size="10.00">+ unique_name()</text>
<text text-anchor="start" x="78" y="-305.5" font-family="Helvetica,sans-Serif" font-size="10.00"># ~Id()</text>
<text text-anchor="start" x="78" y="-294.5" font-family="Helvetica,sans-Serif" font-size="10.00">* unique_name()</text>
<text text-anchor="start" x="78" y="-283.5" font-family="Helvetica,sans-Serif" font-size="10.00">* unique_name()</text>
</a>
</g>
</g>
<!-- Node3&#45;&gt;Node2 -->
<g id="edge2" class="edge"><title>Node3&#45;&gt;Node2</title>
<path fill="none" stroke="midnightblue" d="M153.122,-266.829C159.015,-253.158 164.802,-239.733 169.598,-228.609"/>
<polygon fill="none" stroke="midnightblue" points="149.78,-265.739 149.035,-276.307 156.208,-268.51 149.78,-265.739"/>
</g>
<!-- Node4 -->
<g id="node4" class="node"><title>Node4</title>
<g id="a_node4"><a xlink:href="classscram_1_1mef_1_1Element.xhtml" target="_top" xlink:title="Mixin class that represents any element of analysis that can have extra descriptions, such as attributes and a label. ">
<polygon fill="white" stroke="black" points="0,-447.5 0,-625.5 117,-625.5 117,-447.5 0,-447.5"/>
<text text-anchor="middle" x="58.5" y="-613.5" font-family="Helvetica,sans-Serif" font-size="10.00">scram::mef::Element</text>
<polyline fill="none" stroke="black" points="0,-606.5 117,-606.5 "/>
<text text-anchor="middle" x="58.5" y="-594.5" font-family="Helvetica,sans-Serif" font-size="10.00"> </text>
<polyline fill="none" stroke="black" points="0,-587.5 117,-587.5 "/>
<text text-anchor="start" x="8" y="-575.5" font-family="Helvetica,sans-Serif" font-size="10.00">+ Element()</text>
<text text-anchor="start" x="8" y="-564.5" font-family="Helvetica,sans-Serif" font-size="10.00">+ name()</text>
<text text-anchor="start" x="8" y="-553.5" font-family="Helvetica,sans-Serif" font-size="10.00">+ label()</text>
<text text-anchor="start" x="8" y="-542.5" font-family="Helvetica,sans-Serif" font-size="10.00">+ label()</text>
<text text-anchor="start" x="8" y="-531.5" font-family="Helvetica,sans-Serif" font-size="10.00">+ attributes()</text>
<text text-anchor="start" x="8" y="-520.5" font-family="Helvetica,sans-Serif" font-size="10.00">+ AddAttribute()</text>
<text text-anchor="start" x="8" y="-509.5" font-family="Helvetica,sans-Serif" font-size="10.00">+ SetAttribute()</text>
<text text-anchor="start" x="8" y="-498.5" font-family="Helvetica,sans-Serif" font-size="10.00">+ HasAttribute()</text>
<text text-anchor="start" x="8" y="-487.5" font-family="Helvetica,sans-Serif" font-size="10.00">+ GetAttribute()</text>
<text text-anchor="start" x="8" y="-476.5" font-family="Helvetica,sans-Serif" font-size="10.00">+ RemoveAttribute()</text>
<text text-anchor="start" x="8" y="-465.5" font-family="Helvetica,sans-Serif" font-size="10.00"># ~Element()</text>
<text text-anchor="start" x="8" y="-454.5" font-family="Helvetica,sans-Serif" font-size="10.00"># name()</text>
</a>
</g>
</g>
<!-- Node4&#45;&gt;Node3 -->
<g id="edge3" class="edge"><title>Node4&#45;&gt;Node3</title>
<path fill="none" stroke="midnightblue" d="M90.2387,-437.724C93.2127,-428.562 96.1777,-419.428 99.024,-410.66"/>
<polygon fill="none" stroke="midnightblue" points="86.8992,-436.676 87.1407,-447.268 93.5573,-438.837 86.8992,-436.676"/>
</g>
<!-- Node5 -->
<g id="node5" class="node"><title>Node5</title>
<polygon fill="white" stroke="#bfbfbf" points="20,-662.5 20,-719.5 97,-719.5 97,-662.5 20,-662.5"/>
<text text-anchor="middle" x="58.5" y="-707.5" font-family="Helvetica,sans-Serif" font-size="10.00">noncopyable</text>
<polyline fill="none" stroke="#bfbfbf" points="20,-700.5 97,-700.5 "/>
<text text-anchor="middle" x="58.5" y="-688.5" font-family="Helvetica,sans-Serif" font-size="10.00"> </text>
<polyline fill="none" stroke="#bfbfbf" points="20,-681.5 97,-681.5 "/>
<text text-anchor="middle" x="58.5" y="-669.5" font-family="Helvetica,sans-Serif" font-size="10.00"> </text>
</g>
<!-- Node5&#45;&gt;Node4 -->
<g id="edge4" class="edge"><title>Node5&#45;&gt;Node4</title>
<path fill="none" stroke="#8b1a1a" d="M58.5,-652.374C58.5,-644.089 58.5,-634.977 58.5,-625.62"/>
<polygon fill="none" stroke="#8b1a1a" points="55.0001,-652.383 58.5,-662.383 62.0001,-652.383 55.0001,-652.383"/>
</g>
<!-- Node6 -->
<g id="node6" class="node"><title>Node6</title>
<g id="a_node6"><a xlink:href="classscram_1_1mef_1_1Role.xhtml" target="_top" xlink:title="Mixin class that manages private or public roles for elements as needed. ">
<polygon fill="white" stroke="black" points="135,-491.5 135,-581.5 232,-581.5 232,-491.5 135,-491.5"/>
<text text-anchor="middle" x="183.5" y="-569.5" font-family="Helvetica,sans-Serif" font-size="10.00">scram::mef::Role</text>
<polyline fill="none" stroke="black" points="135,-562.5 232,-562.5 "/>
<text text-anchor="middle" x="183.5" y="-550.5" font-family="Helvetica,sans-Serif" font-size="10.00"> </text>
<polyline fill="none" stroke="black" points="135,-543.5 232,-543.5 "/>
<text text-anchor="start" x="143" y="-531.5" font-family="Helvetica,sans-Serif" font-size="10.00">+ Role()</text>
<text text-anchor="start" x="143" y="-520.5" font-family="Helvetica,sans-Serif" font-size="10.00">+ role()</text>
<text text-anchor="start" x="143" y="-509.5" font-family="Helvetica,sans-Serif" font-size="10.00">+ base_path()</text>
<text text-anchor="start" x="143" y="-498.5" font-family="Helvetica,sans-Serif" font-size="10.00"># ~Role()</text>
</a>
</g>
</g>
<!-- Node6&#45;&gt;Node3 -->
<g id="edge5" class="edge"><title>Node6&#45;&gt;Node3</title>
<path fill="none" stroke="midnightblue" d="M165.745,-481.67C158.468,-459.61 149.975,-433.86 142.324,-410.666"/>
<polygon fill="none" stroke="midnightblue" points="162.432,-482.8 168.888,-491.201 169.08,-480.608 162.432,-482.8"/>
</g>
<!-- Node7 -->
<g id="node7" class="node"><title>Node7</title>
<g id="a_node7"><a xlink:href="classscram_1_1mef_1_1Usage.xhtml" target="_top" xlink:title="Mixin class for providing usage marks for elements. ">
<polygon fill="white" stroke="black" points="189.5,-304 189.5,-383 297.5,-383 297.5,-304 189.5,-304"/>
<text text-anchor="middle" x="243.5" y="-371" font-family="Helvetica,sans-Serif" font-size="10.00">scram::mef::Usage</text>
<polyline fill="none" stroke="black" points="189.5,-364 297.5,-364 "/>
<text text-anchor="middle" x="243.5" y="-352" font-family="Helvetica,sans-Serif" font-size="10.00"> </text>
<polyline fill="none" stroke="black" points="189.5,-345 297.5,-345 "/>
<text text-anchor="start" x="197.5" y="-333" font-family="Helvetica,sans-Serif" font-size="10.00">+ usage()</text>
<text text-anchor="start" x="197.5" y="-322" font-family="Helvetica,sans-Serif" font-size="10.00">+ usage()</text>
<text text-anchor="start" x="197.5" y="-311" font-family="Helvetica,sans-Serif" font-size="10.00"># ~Usage()</text>
</a>
</g>
</g>
<!-- Node7&#45;&gt;Node2 -->
<g id="edge6" class="edge"><title>Node7&#45;&gt;Node2</title>
<path fill="none" stroke="midnightblue" d="M222.417,-294.384C212.851,-272.552 201.877,-247.505 193.703,-228.85"/>
<polygon fill="none" stroke="midnightblue" points="219.339,-296.08 226.558,-303.835 225.751,-293.27 219.339,-296.08"/>
</g>
<!-- Node8 -->
<g id="node8" class="node"><title>Node8</title>
<g id="a_node8"><a xlink:href="classscram_1_1mef_1_1NodeMark.xhtml" target="_top" xlink:title="Mixin class for providing marks for graph nodes. ">
<polygon fill="white" stroke="black" points="251.5,-160.5 251.5,-239.5 377.5,-239.5 377.5,-160.5 251.5,-160.5"/>
<text text-anchor="middle" x="314.5" y="-227.5" font-family="Helvetica,sans-Serif" font-size="10.00">scram::mef::NodeMark</text>
<polyline fill="none" stroke="black" points="251.5,-220.5 377.5,-220.5 "/>
<text text-anchor="middle" x="314.5" y="-208.5" font-family="Helvetica,sans-Serif" font-size="10.00"> </text>
<polyline fill="none" stroke="black" points="251.5,-201.5 377.5,-201.5 "/>
<text text-anchor="start" x="259.5" y="-189.5" font-family="Helvetica,sans-Serif" font-size="10.00">+ mark()</text>
<text text-anchor="start" x="259.5" y="-178.5" font-family="Helvetica,sans-Serif" font-size="10.00">+ mark()</text>
<text text-anchor="start" x="259.5" y="-167.5" font-family="Helvetica,sans-Serif" font-size="10.00"># ~NodeMark()</text>
</a>
</g>
</g>
<!-- Node8&#45;&gt;Node1 -->
<g id="edge7" class="edge"><title>Node8&#45;&gt;Node1</title>
<path fill="none" stroke="midnightblue" d="M290.99,-151.278C286.579,-142.325 281.914,-132.856 277.341,-123.574"/>
<polygon fill="none" stroke="midnightblue" points="287.921,-152.968 295.48,-160.392 294.2,-149.874 287.921,-152.968"/>
</g>
</g>
</svg>
        <g id="navigator" transform="translate(0 0)" fill="#404254">
                <rect fill="#f2f5e9" fill-opacity="0.5" stroke="#606060" stroke-width=".5" x="0" y="0" width="60" height="60"/>
                <use id="zoomplus" xlink:href="#zoomPlus" x="17" y="9" onmousedown="handleZoom(evt,'in')"/>
                <use id="zoomminus" xlink:href="#zoomMin" x="42" y="9" onmousedown="handleZoom(evt,'out')"/>
                <use id="reset" xlink:href="#resetDef" x="30" y="36" onmousedown="handleReset()"/>
                <g id="arrowUp" xlink:href="#dirArrow" transform="translate(30 24)" onmousedown="handlePan(0,-1)">
                  <use xlink:href="#rim" fill="#404040">
                        <set attributeName="fill" to="#808080" begin="arrowUp.mouseover" end="arrowUp.mouseout"/>
                  </use>
                  <path fill="none" stroke="white" stroke-width="1.5" d="M0,-3.0v7 M-2.5,-0.5L0,-3.0L2.5,-0.5"/>
                </g>
                <g id="arrowRight" xlink:href="#dirArrow" transform="rotate(90) translate(36 -43)" onmousedown="handlePan(1,0)">
                  <use xlink:href="#rim" fill="#404040">
                        <set attributeName="fill" to="#808080" begin="arrowRight.mouseover" end="arrowRight.mouseout"/>
                  </use>
                  <path fill="none" stroke="white" stroke-width="1.5" d="M0,-3.0v7 M-2.5,-0.5L0,-3.0L2.5,-0.5"/>
                </g>
                <g id="arrowDown" xlink:href="#dirArrow" transform="rotate(180) translate(-30 -48)" onmousedown="handlePan(0,1)">
                  <use xlink:href="#rim" fill="#404040">
                        <set attributeName="fill" to="#808080" begin="arrowDown.mouseover" end="arrowDown.mouseout"/>
                  </use>
                  <path fill="none" stroke="white" stroke-width="1.5" d="M0,-3.0v7 M-2.5,-0.5L0,-3.0L2.5,-0.5"/>
                </g>
                <g id="arrowLeft" xlink:href="#dirArrow" transform="rotate(270) translate(-36 17)" onmousedown="handlePan(-1,0)">
                  <use xlink:href="#rim" fill="#404040">
                        <set attributeName="fill" to="#808080" begin="arrowLeft.mouseover" end="arrowLeft.mouseout"/>
                  </use>
                  <path fill="none" stroke="white" stroke-width="1.5" d="M0,-3.0v7 M-2.5,-0.5L0,-3.0L2.5,-0.5"/>
                </g>
        </g>
        <svg viewBox="0 0 15 15" width="100%" height="30px" preserveAspectRatio="xMaxYMin meet">
         <g id="arrow_out" transform="scale(0.3 0.3)">
          <a xlink:href="classscram_1_1mef_1_1Gate__inherit__graph_org.svg" target="_base">
           <rect id="button" ry="5" rx="5" y="6" x="6" height="38" width="38"
                fill="#f2f5e9" fill-opacity="0.5" stroke="#606060" stroke-width="1.0"/>
           <path id="arrow"
             d="M 11.500037,31.436501 C 11.940474,20.09759 22.043105,11.32322 32.158766,21.979434 L 37.068811,17.246167 C 37.068811,17.246167 37.088388,32 37.088388,32 L 22.160133,31.978069 C 22.160133,31.978069 26.997745,27.140456 26.997745,27.140456 C 18.528582,18.264221 13.291696,25.230495 11.500037,31.436501 z"
             style="fill:#404040;"/>
          </a>
         </g>
        </svg>
</svg>
