<?xml version="1.0" encoding="UTF-8" standalone="no"?>
<!DOCTYPE svg PUBLIC "-//W3C//DTD SVG 1.1//EN"
 "http://www.w3.org/Graphics/SVG/1.1/DTD/svg11.dtd">
<!-- Generated by graphviz version 2.38.0 (20140413.2041)
 -->
<!-- Title: scram::core::Preprocessor::GateSet::insert Pages: 1 -->
<svg width="321pt" height="253pt"
 viewBox="0.00 0.00 321.00 252.50" xmlns="http://www.w3.org/2000/svg" xmlns:xlink="http://www.w3.org/1999/xlink">
<g id="graph0" class="graph" transform="scale(1 1) rotate(0) translate(4 248.5)">
<title>scram::core::Preprocessor::GateSet::insert</title>
<polygon fill="white" stroke="none" points="-4,4 -4,-248.5 317,-248.5 317,4 -4,4"/>
<!-- Node1 -->
<g id="node1" class="node"><title>Node1</title>
<polygon fill="#bfbfbf" stroke="black" points="0,-104.5 0,-134.5 143,-134.5 143,-104.5 0,-104.5"/>
<text text-anchor="start" x="8" y="-122.5" font-family="Helvetica,sans-Serif" font-size="10.00">scram::core::Preprocessor</text>
<text text-anchor="middle" x="71.5" y="-111.5" font-family="Helvetica,sans-Serif" font-size="10.00">::GateSet::insert</text>
</g>
<!-- Node2 -->
<g id="node2" class="node"><title>Node2</title>
<g id="a_node2"><a xlink:href="classscram_1_1core_1_1Gate.xhtml#aa793eeaa12244c5b39a0d80e5b1518ae" target="_top" xlink:title="scram::core::Gate::args">
<polygon fill="white" stroke="black" points="181,-225 181,-244 311,-244 311,-225 181,-225"/>
<text text-anchor="middle" x="246" y="-232" font-family="Helvetica,sans-Serif" font-size="10.00">scram::core::Gate::args</text>
</a>
</g>
</g>
<!-- Node1&#45;&gt;Node2 -->
<g id="edge1" class="edge"><title>Node1&#45;&gt;Node2</title>
<path fill="none" stroke="midnightblue" d="M85.3476,-134.814C103.907,-155.979 140.264,-193.988 179,-215.5 182.977,-217.709 187.235,-219.681 191.602,-221.439"/>
<polygon fill="midnightblue" stroke="midnightblue" points="190.674,-224.825 201.268,-224.951 193.064,-218.246 190.674,-224.825"/>
</g>
<!-- Node3 -->
<g id="node3" class="node"><title>Node3</title>
<g id="a_node3"><a xlink:href="classscram_1_1core_1_1Gate.xhtml#ab2a4e8ac78b36541a32cc719863910a5" target="_top" xlink:title="scram::core::Gate::\lconstant">
<polygon fill="white" stroke="black" points="191.5,-175.5 191.5,-205.5 300.5,-205.5 300.5,-175.5 191.5,-175.5"/>
<text text-anchor="start" x="199.5" y="-193.5" font-family="Helvetica,sans-Serif" font-size="10.00">scram::core::Gate::</text>
<text text-anchor="middle" x="246" y="-182.5" font-family="Helvetica,sans-Serif" font-size="10.00">constant</text>
</a>
</g>
</g>
<!-- Node1&#45;&gt;Node3 -->
<g id="edge2" class="edge"><title>Node1&#45;&gt;Node3</title>
<path fill="none" stroke="midnightblue" d="M105.359,-134.681C126.288,-144.181 154.06,-156.475 179,-166.5 183.433,-168.282 188.056,-170.081 192.706,-171.849"/>
<polygon fill="midnightblue" stroke="midnightblue" points="191.645,-175.189 202.237,-175.423 194.102,-168.635 191.645,-175.189"/>
</g>
<!-- Node4 -->
<g id="node4" class="node"><title>Node4</title>
<g id="a_node4"><a xlink:href="classscram_1_1core_1_1Node.xhtml#a62121e217b0da73112af7e07275f2c15" target="_top" xlink:title="scram::core::Node::\lindex">
<polygon fill="white" stroke="black" points="190.5,-126.5 190.5,-156.5 301.5,-156.5 301.5,-126.5 190.5,-126.5"/>
<text text-anchor="start" x="198.5" y="-144.5" font-family="Helvetica,sans-Serif" font-size="10.00">scram::core::Node::</text>
<text text-anchor="middle" x="246" y="-133.5" font-family="Helvetica,sans-Serif" font-size="10.00">index</text>
</a>
</g>
</g>
<!-- Node1&#45;&gt;Node4 -->
<g id="edge3" class="edge"><title>Node1&#45;&gt;Node4</title>
<path fill="none" stroke="midnightblue" d="M143.16,-128.512C155.445,-130.078 168.166,-131.701 180.281,-133.246"/>
<polygon fill="midnightblue" stroke="midnightblue" points="179.931,-136.73 190.293,-134.523 180.816,-129.786 179.931,-136.73"/>
</g>
<!-- Node5 -->
<g id="node5" class="node"><title>Node5</title>
<g id="a_node5"><a xlink:href="classscram_1_1core_1_1Gate.xhtml#ab0e18a9481c5e712cbb0b0ff27ba72a5" target="_top" xlink:title="Marks are used for linear traversal of graphs. ">
<polygon fill="white" stroke="black" points="179,-88 179,-107 313,-107 313,-88 179,-88"/>
<text text-anchor="middle" x="246" y="-95" font-family="Helvetica,sans-Serif" font-size="10.00">scram::core::Gate::mark</text>
</a>
</g>
</g>
<!-- Node1&#45;&gt;Node5 -->
<g id="edge4" class="edge"><title>Node1&#45;&gt;Node5</title>
<path fill="none" stroke="midnightblue" d="M143.16,-110.488C151.653,-109.405 160.355,-108.295 168.921,-107.203"/>
<polygon fill="midnightblue" stroke="midnightblue" points="169.417,-110.668 178.894,-105.931 168.531,-103.724 169.417,-110.668"/>
</g>
<!-- Node6 -->
<g id="node6" class="node"><title>Node6</title>
<g id="a_node6"><a xlink:href="classscram_1_1core_1_1Gate.xhtml#ad5a5766ce9dbbd2104c0bb07b9639a48" target="_top" xlink:title="scram::core::Gate::type">
<polygon fill="white" stroke="black" points="181,-50 181,-69 311,-69 311,-50 181,-50"/>
<text text-anchor="middle" x="246" y="-57" font-family="Helvetica,sans-Serif" font-size="10.00">scram::core::Gate::type</text>
</a>
</g>
</g>
<!-- Node1&#45;&gt;Node6 -->
<g id="edge5" class="edge"><title>Node1&#45;&gt;Node6</title>
<path fill="none" stroke="midnightblue" d="M109.178,-104.471C129.58,-96.3418 155.522,-86.3819 179,-78.5 185.607,-76.2818 192.638,-74.086 199.555,-72.018"/>
<polygon fill="midnightblue" stroke="midnightblue" points="200.931,-75.262 209.544,-69.0919 198.964,-68.5442 200.931,-75.262"/>
</g>
<!-- Node7 -->
<g id="node7" class="node"><title>Node7</title>
<g id="a_node7"><a xlink:href="classscram_1_1core_1_1Gate.xhtml#a44b9a758151d932743543241ca669517" target="_top" xlink:title="scram::core::Gate::\lvote_number">
<polygon fill="white" stroke="black" points="191.5,-0.5 191.5,-30.5 300.5,-30.5 300.5,-0.5 191.5,-0.5"/>
<text text-anchor="start" x="199.5" y="-18.5" font-family="Helvetica,sans-Serif" font-size="10.00">scram::core::Gate::</text>
<text text-anchor="middle" x="246" y="-7.5" font-family="Helvetica,sans-Serif" font-size="10.00">vote_number</text>
</a>
</g>
</g>
<!-- Node1&#45;&gt;Node7 -->
<g id="edge6" class="edge"><title>Node1&#45;&gt;Node7</title>
<path fill="none" stroke="midnightblue" d="M89.5708,-104.488C109.802,-87.2737 145.062,-59.0473 179,-40.5 182.75,-38.4508 186.703,-36.4959 190.734,-34.6477"/>
<polygon fill="midnightblue" stroke="midnightblue" points="192.44,-37.7229 200.223,-30.5347 189.656,-31.3002 192.44,-37.7229"/>
</g>
</g>
</svg>
