<?xml version="1.0" encoding="UTF-8" standalone="no"?>
<!DOCTYPE svg PUBLIC "-//W3C//DTD SVG 1.1//EN"
 "http://www.w3.org/Graphics/SVG/1.1/DTD/svg11.dtd">
<!-- Generated by graphviz version 2.38.0 (20140413.2041)
 -->
<!-- Title: scram::mef::Rule Pages: 1 -->
<svg width="483pt" height="678pt"
 viewBox="0.00 0.00 482.50 678.00" xmlns="http://www.w3.org/2000/svg" xmlns:xlink="http://www.w3.org/1999/xlink">
<g id="graph0" class="graph" transform="scale(1 1) rotate(0) translate(4 674)">
<title>scram::mef::Rule</title>
<polygon fill="white" stroke="none" points="-4,4 -4,-674 478.5,-674 478.5,4 -4,4"/>
<!-- Node1 -->
<g id="node1" class="node"><title>Node1</title>
<polygon fill="#bfbfbf" stroke="black" points="202,-0.5 202,-68.5 299,-68.5 299,-0.5 202,-0.5"/>
<text text-anchor="middle" x="250.5" y="-56.5" font-family="Helvetica,sans-Serif" font-size="10.00">scram::mef::Rule</text>
<polyline fill="none" stroke="black" points="202,-49.5 299,-49.5 "/>
<text text-anchor="middle" x="250.5" y="-37.5" font-family="Helvetica,sans-Serif" font-size="10.00"> </text>
<polyline fill="none" stroke="black" points="202,-30.5 299,-30.5 "/>
<text text-anchor="start" x="210" y="-18.5" font-family="Helvetica,sans-Serif" font-size="10.00">+ instructions()</text>
<text text-anchor="start" x="210" y="-7.5" font-family="Helvetica,sans-Serif" font-size="10.00">+ instructions()</text>
</g>
<!-- Node2 -->
<g id="node2" class="node"><title>Node2</title>
<g id="a_node2"><a xlink:href="classscram_1_1mef_1_1Element.xhtml" target="_top" xlink:title="Mixin class that represents any element of analysis that can have extra descriptions, such as attributes and a label. ">
<polygon fill="white" stroke="black" points="0,-309.5 0,-487.5 117,-487.5 117,-309.5 0,-309.5"/>
<text text-anchor="middle" x="58.5" y="-475.5" font-family="Helvetica,sans-Serif" font-size="10.00">scram::mef::Element</text>
<polyline fill="none" stroke="black" points="0,-468.5 117,-468.5 "/>
<text text-anchor="middle" x="58.5" y="-456.5" font-family="Helvetica,sans-Serif" font-size="10.00"> </text>
<polyline fill="none" stroke="black" points="0,-449.5 117,-449.5 "/>
<text text-anchor="start" x="8" y="-437.5" font-family="Helvetica,sans-Serif" font-size="10.00">+ Element()</text>
<text text-anchor="start" x="8" y="-426.5" font-family="Helvetica,sans-Serif" font-size="10.00">+ name()</text>
<text text-anchor="start" x="8" y="-415.5" font-family="Helvetica,sans-Serif" font-size="10.00">+ label()</text>
<text text-anchor="start" x="8" y="-404.5" font-family="Helvetica,sans-Serif" font-size="10.00">+ label()</text>
<text text-anchor="start" x="8" y="-393.5" font-family="Helvetica,sans-Serif" font-size="10.00">+ attributes()</text>
<text text-anchor="start" x="8" y="-382.5" font-family="Helvetica,sans-Serif" font-size="10.00">+ AddAttribute()</text>
<text text-anchor="start" x="8" y="-371.5" font-family="Helvetica,sans-Serif" font-size="10.00">+ SetAttribute()</text>
<text text-anchor="start" x="8" y="-360.5" font-family="Helvetica,sans-Serif" font-size="10.00">+ HasAttribute()</text>
<text text-anchor="start" x="8" y="-349.5" font-family="Helvetica,sans-Serif" font-size="10.00">+ GetAttribute()</text>
<text text-anchor="start" x="8" y="-338.5" font-family="Helvetica,sans-Serif" font-size="10.00">+ RemoveAttribute()</text>
<text text-anchor="start" x="8" y="-327.5" font-family="Helvetica,sans-Serif" font-size="10.00"># ~Element()</text>
<text text-anchor="start" x="8" y="-316.5" font-family="Helvetica,sans-Serif" font-size="10.00"># name()</text>
</a>
</g>
</g>
<!-- Node2&#45;&gt;Node1 -->
<g id="edge1" class="edge"><title>Node2&#45;&gt;Node1</title>
<path fill="none" stroke="midnightblue" d="M40.2356,-299.283C34.4344,-238.187 37.8267,-161.051 77.5,-106 106.228,-66.1371 161.542,-48.7649 201.914,-41.2245"/>
<polygon fill="none" stroke="midnightblue" points="36.7651,-299.748 41.2853,-309.33 43.7272,-299.021 36.7651,-299.748"/>
</g>
<!-- Node3 -->
<g id="node3" class="node"><title>Node3</title>
<polygon fill="white" stroke="#bfbfbf" points="49,-612.5 49,-669.5 126,-669.5 126,-612.5 49,-612.5"/>
<text text-anchor="middle" x="87.5" y="-657.5" font-family="Helvetica,sans-Serif" font-size="10.00">noncopyable</text>
<polyline fill="none" stroke="#bfbfbf" points="49,-650.5 126,-650.5 "/>
<text text-anchor="middle" x="87.5" y="-638.5" font-family="Helvetica,sans-Serif" font-size="10.00"> </text>
<polyline fill="none" stroke="#bfbfbf" points="49,-631.5 126,-631.5 "/>
<text text-anchor="middle" x="87.5" y="-619.5" font-family="Helvetica,sans-Serif" font-size="10.00"> </text>
</g>
<!-- Node3&#45;&gt;Node2 -->
<g id="edge2" class="edge"><title>Node3&#45;&gt;Node2</title>
<path fill="none" stroke="#8b1a1a" d="M81.3773,-602.104C80.0235,-593.223 78.6511,-583.788 77.5,-575 73.7784,-546.588 70.2408,-515.519 67.2492,-487.524"/>
<polygon fill="none" stroke="#8b1a1a" points="77.9524,-602.859 82.9435,-612.204 84.8697,-601.786 77.9524,-602.859"/>
</g>
<!-- Node5 -->
<g id="node5" class="node"><title>Node5</title>
<g id="a_node5"><a xlink:href="classscram_1_1mef_1_1Instruction.xhtml" target="_top" xlink:title="Instructions and rules for event tree paths. ">
<polygon fill="white" stroke="black" points="86.5,-506.5 86.5,-574.5 214.5,-574.5 214.5,-506.5 86.5,-506.5"/>
<text text-anchor="middle" x="150.5" y="-562.5" font-family="Helvetica,sans-Serif" font-size="10.00">scram::mef::Instruction</text>
<polyline fill="none" stroke="black" points="86.5,-555.5 214.5,-555.5 "/>
<text text-anchor="middle" x="150.5" y="-543.5" font-family="Helvetica,sans-Serif" font-size="10.00"> </text>
<polyline fill="none" stroke="black" points="86.5,-536.5 214.5,-536.5 "/>
<text text-anchor="start" x="94.5" y="-524.5" font-family="Helvetica,sans-Serif" font-size="10.00">+ ~Instruction()</text>
<text text-anchor="start" x="94.5" y="-513.5" font-family="Helvetica,sans-Serif" font-size="10.00">+ Accept()</text>
</a>
</g>
</g>
<!-- Node3&#45;&gt;Node5 -->
<g id="edge5" class="edge"><title>Node3&#45;&gt;Node5</title>
<path fill="none" stroke="#8b1a1a" d="M110.673,-603.769C116.784,-594.215 123.345,-583.957 129.343,-574.578"/>
<polygon fill="none" stroke="#8b1a1a" points="107.656,-601.99 105.217,-612.3 113.553,-605.762 107.656,-601.99"/>
</g>
<!-- Node4 -->
<g id="node4" class="node"><title>Node4</title>
<g id="a_node4"><a xlink:href="classscram_1_1mef_1_1Visitable.xhtml" target="_top" xlink:title="{scram::mef::Visitable\l\&lt; Rule \&gt;\n||+ Accept()\l}">
<polygon fill="white" stroke="black" points="86.5,-112 86.5,-180 204.5,-180 204.5,-112 86.5,-112"/>
<text text-anchor="start" x="94.5" y="-168" font-family="Helvetica,sans-Serif" font-size="10.00">scram::mef::Visitable</text>
<text text-anchor="middle" x="145.5" y="-157" font-family="Helvetica,sans-Serif" font-size="10.00">&lt; Rule &gt;</text>
<polyline fill="none" stroke="black" points="86.5,-150 204.5,-150 "/>
<text text-anchor="middle" x="145.5" y="-138" font-family="Helvetica,sans-Serif" font-size="10.00"> </text>
<polyline fill="none" stroke="black" points="86.5,-131 204.5,-131 "/>
<text text-anchor="start" x="94.5" y="-119" font-family="Helvetica,sans-Serif" font-size="10.00">+ Accept()</text>
</a>
</g>
</g>
<!-- Node4&#45;&gt;Node1 -->
<g id="edge3" class="edge"><title>Node4&#45;&gt;Node1</title>
<path fill="none" stroke="midnightblue" d="M184.235,-104.605C195.619,-92.7328 207.932,-79.8921 218.82,-68.5381"/>
<polygon fill="none" stroke="midnightblue" points="181.683,-102.209 177.288,-111.849 186.736,-107.054 181.683,-102.209"/>
</g>
<!-- Node5&#45;&gt;Node4 -->
<g id="edge4" class="edge"><title>Node5&#45;&gt;Node4</title>
<path fill="none" stroke="midnightblue" d="M149.949,-496.272C148.943,-417.24 146.826,-251.059 145.923,-180.176"/>
<polygon fill="none" stroke="midnightblue" points="146.451,-496.419 150.078,-506.374 153.45,-496.33 146.451,-496.419"/>
</g>
<!-- Node6 -->
<g id="node6" class="node"><title>Node6</title>
<g id="a_node6"><a xlink:href="classscram_1_1mef_1_1Visitable.xhtml" target="_top" xlink:title="Default visit for instruction type of T. ">
<polygon fill="white" stroke="black" points="166.5,-233.5 166.5,-290.5 312.5,-290.5 312.5,-233.5 166.5,-233.5"/>
<text text-anchor="middle" x="239.5" y="-278.5" font-family="Helvetica,sans-Serif" font-size="10.00">scram::mef::Visitable&lt; T &gt;</text>
<polyline fill="none" stroke="black" points="166.5,-271.5 312.5,-271.5 "/>
<text text-anchor="middle" x="239.5" y="-259.5" font-family="Helvetica,sans-Serif" font-size="10.00"> </text>
<polyline fill="none" stroke="black" points="166.5,-252.5 312.5,-252.5 "/>
<text text-anchor="start" x="174.5" y="-240.5" font-family="Helvetica,sans-Serif" font-size="10.00">+ Accept()</text>
</a>
</g>
</g>
<!-- Node5&#45;&gt;Node6 -->
<g id="edge7" class="edge"><title>Node5&#45;&gt;Node6</title>
<path fill="none" stroke="midnightblue" d="M164.32,-496.566C182.794,-439.172 215.014,-339.072 230.579,-290.714"/>
<polygon fill="none" stroke="midnightblue" points="160.879,-495.831 161.147,-506.422 167.543,-497.976 160.879,-495.831"/>
</g>
<!-- Node6&#45;&gt;Node4 -->
<g id="edge6" class="edge"><title>Node6&#45;&gt;Node4</title>
<path fill="none" stroke="orange" d="M210.295,-225.582C198.306,-211.042 184.505,-194.303 172.728,-180.021"/>
<polygon fill="orange" stroke="orange" points="207.683,-227.915 216.745,-233.404 213.084,-223.462 207.683,-227.915"/>
<text text-anchor="middle" x="224.5" y="-207" font-family="Helvetica,sans-Serif" font-size="10.00"> &lt; Rule &gt;</text>
</g>
<!-- Node7 -->
<g id="node7" class="node"><title>Node7</title>
<g id="a_node7"><a xlink:href="classscram_1_1mef_1_1NodeMark.xhtml" target="_top" xlink:title="Mixin class for providing marks for graph nodes. ">
<polygon fill="white" stroke="black" points="222.5,-106.5 222.5,-185.5 348.5,-185.5 348.5,-106.5 222.5,-106.5"/>
<text text-anchor="middle" x="285.5" y="-173.5" font-family="Helvetica,sans-Serif" font-size="10.00">scram::mef::NodeMark</text>
<polyline fill="none" stroke="black" points="222.5,-166.5 348.5,-166.5 "/>
<text text-anchor="middle" x="285.5" y="-154.5" font-family="Helvetica,sans-Serif" font-size="10.00"> </text>
<polyline fill="none" stroke="black" points="222.5,-147.5 348.5,-147.5 "/>
<text text-anchor="start" x="230.5" y="-135.5" font-family="Helvetica,sans-Serif" font-size="10.00">+ mark()</text>
<text text-anchor="start" x="230.5" y="-124.5" font-family="Helvetica,sans-Serif" font-size="10.00">+ mark()</text>
<text text-anchor="start" x="230.5" y="-113.5" font-family="Helvetica,sans-Serif" font-size="10.00"># ~NodeMark()</text>
</a>
</g>
</g>
<!-- Node7&#45;&gt;Node1 -->
<g id="edge8" class="edge"><title>Node7&#45;&gt;Node1</title>
<path fill="none" stroke="midnightblue" d="M270.055,-96.6793C267.032,-87.2203 263.925,-77.5017 261.104,-68.674"/>
<polygon fill="none" stroke="midnightblue" points="266.782,-97.9348 273.16,-106.394 273.449,-95.8035 266.782,-97.9348"/>
</g>
<!-- Node8 -->
<g id="node8" class="node"><title>Node8</title>
<g id="a_node8"><a xlink:href="classscram_1_1mef_1_1Usage.xhtml" target="_top" xlink:title="Mixin class for providing usage marks for elements. ">
<polygon fill="white" stroke="black" points="366.5,-106.5 366.5,-185.5 474.5,-185.5 474.5,-106.5 366.5,-106.5"/>
<text text-anchor="middle" x="420.5" y="-173.5" font-family="Helvetica,sans-Serif" font-size="10.00">scram::mef::Usage</text>
<polyline fill="none" stroke="black" points="366.5,-166.5 474.5,-166.5 "/>
<text text-anchor="middle" x="420.5" y="-154.5" font-family="Helvetica,sans-Serif" font-size="10.00"> </text>
<polyline fill="none" stroke="black" points="366.5,-147.5 474.5,-147.5 "/>
<text text-anchor="start" x="374.5" y="-135.5" font-family="Helvetica,sans-Serif" font-size="10.00">+ usage()</text>
<text text-anchor="start" x="374.5" y="-124.5" font-family="Helvetica,sans-Serif" font-size="10.00">+ usage()</text>
<text text-anchor="start" x="374.5" y="-113.5" font-family="Helvetica,sans-Serif" font-size="10.00"># ~Usage()</text>
</a>
</g>
</g>
<!-- Node8&#45;&gt;Node1 -->
<g id="edge9" class="edge"><title>Node8&#45;&gt;Node1</title>
<path fill="none" stroke="midnightblue" d="M357.763,-104.59C338.383,-92.1073 317.342,-78.5544 299.071,-66.7856"/>
<polygon fill="none" stroke="midnightblue" points="355.941,-107.58 366.244,-110.052 359.732,-101.695 355.941,-107.58"/>
</g>
</g>
</svg>
