<?xml version="1.0" encoding="UTF-8" standalone="no"?>
<!DOCTYPE svg PUBLIC "-//W3C//DTD SVG 1.1//EN"
 "http://www.w3.org/Graphics/SVG/1.1/DTD/svg11.dtd">
<!-- Generated by graphviz version 2.38.0 (20140413.2041)
 -->
<!-- Title: scram::core::EventTreeAnalysis::EventTreeAnalysis Pages: 1 -->
<svg width="352pt" height="362pt"
 viewBox="0.00 0.00 352.00 362.00" xmlns="http://www.w3.org/2000/svg" xmlns:xlink="http://www.w3.org/1999/xlink">
<g id="graph0" class="graph" transform="scale(1 1) rotate(0) translate(4 358)">
<title>scram::core::EventTreeAnalysis::EventTreeAnalysis</title>
<polygon fill="white" stroke="none" points="-4,4 -4,-358 348,-358 348,4 -4,4"/>
<!-- Node1 -->
<g id="node1" class="node"><title>Node1</title>
<polygon fill="#bfbfbf" stroke="black" points="0,-164.5 0,-194.5 165,-194.5 165,-164.5 0,-164.5"/>
<text text-anchor="start" x="8" y="-182.5" font-family="Helvetica,sans-Serif" font-size="10.00">scram::core::EventTreeAnalysis</text>
<text text-anchor="middle" x="82.5" y="-171.5" font-family="Helvetica,sans-Serif" font-size="10.00">::EventTreeAnalysis</text>
</g>
<!-- Node2 -->
<g id="node2" class="node"><title>Node2</title>
<g id="a_node2"><a xlink:href="classscram_1_1mef_1_1Formula.xhtml#a3c7077dfcef1e6fe5393a15e71eb5b44" target="_top" xlink:title="Adds an event into the arguments list. ">
<polygon fill="white" stroke="black" points="214.5,-323.5 214.5,-353.5 330.5,-353.5 330.5,-323.5 214.5,-323.5"/>
<text text-anchor="start" x="222.5" y="-341.5" font-family="Helvetica,sans-Serif" font-size="10.00">scram::mef::Formula</text>
<text text-anchor="middle" x="272.5" y="-330.5" font-family="Helvetica,sans-Serif" font-size="10.00">::AddArgument</text>
</a>
</g>
</g>
<!-- Node1&#45;&gt;Node2 -->
<g id="edge1" class="edge"><title>Node1&#45;&gt;Node2</title>
<path fill="none" stroke="midnightblue" d="M92.8496,-194.791C110.574,-222.55 151.731,-281.415 201,-314.5 203.286,-316.035 205.679,-317.481 208.147,-318.842"/>
<polygon fill="midnightblue" stroke="midnightblue" points="206.83,-322.095 217.344,-323.404 209.941,-315.824 206.83,-322.095"/>
</g>
<!-- Node3 -->
<g id="node3" class="node"><title>Node3</title>
<g id="a_node3"><a xlink:href="classscram_1_1mef_1_1Formula.xhtml#a4e86a729bae4629de0217c9f8c6960a0" target="_top" xlink:title="scram::mef::Formula\l::event_args">
<polygon fill="white" stroke="black" points="214.5,-274.5 214.5,-304.5 330.5,-304.5 330.5,-274.5 214.5,-274.5"/>
<text text-anchor="start" x="222.5" y="-292.5" font-family="Helvetica,sans-Serif" font-size="10.00">scram::mef::Formula</text>
<text text-anchor="middle" x="272.5" y="-281.5" font-family="Helvetica,sans-Serif" font-size="10.00">::event_args</text>
</a>
</g>
</g>
<!-- Node1&#45;&gt;Node3 -->
<g id="edge2" class="edge"><title>Node1&#45;&gt;Node3</title>
<path fill="none" stroke="midnightblue" d="M101.152,-194.77C123.261,-213.283 162.882,-244.485 201,-264.5 205.164,-266.687 209.561,-268.755 214.042,-270.695"/>
<polygon fill="midnightblue" stroke="midnightblue" points="212.729,-273.939 223.309,-274.492 215.383,-267.462 212.729,-273.939"/>
</g>
<!-- Node4 -->
<g id="node4" class="node"><title>Node4</title>
<g id="a_node4"><a xlink:href="classscram_1_1mef_1_1Gate.xhtml#abde84a63a060e2424ab92431634f21d9" target="_top" xlink:title="scram::mef::Gate::formula">
<polygon fill="white" stroke="black" points="201,-236 201,-255 344,-255 344,-236 201,-236"/>
<text text-anchor="middle" x="272.5" y="-243" font-family="Helvetica,sans-Serif" font-size="10.00">scram::mef::Gate::formula</text>
</a>
</g>
</g>
<!-- Node1&#45;&gt;Node4 -->
<g id="edge3" class="edge"><title>Node1&#45;&gt;Node4</title>
<path fill="none" stroke="midnightblue" d="M118.064,-194.569C141.264,-204.374 172.654,-217.047 201,-226.5 208.107,-228.87 215.69,-231.158 223.151,-233.277"/>
<polygon fill="midnightblue" stroke="midnightblue" points="222.266,-236.663 232.837,-235.956 224.132,-229.917 222.266,-236.663"/>
</g>
<!-- Node5 -->
<g id="node5" class="node"><title>Node5</title>
<g id="a_node5"><a xlink:href="classscram_1_1mef_1_1Formula.xhtml#af3c5953f817cc202b5009cc4557c7d72" target="_top" xlink:title="scram::mef::Formula\l::formula_args">
<polygon fill="white" stroke="black" points="214.5,-186.5 214.5,-216.5 330.5,-216.5 330.5,-186.5 214.5,-186.5"/>
<text text-anchor="start" x="222.5" y="-204.5" font-family="Helvetica,sans-Serif" font-size="10.00">scram::mef::Formula</text>
<text text-anchor="middle" x="272.5" y="-193.5" font-family="Helvetica,sans-Serif" font-size="10.00">::formula_args</text>
</a>
</g>
</g>
<!-- Node1&#45;&gt;Node5 -->
<g id="edge4" class="edge"><title>Node1&#45;&gt;Node5</title>
<path fill="none" stroke="midnightblue" d="M165.139,-189.054C178.197,-190.582 191.579,-192.148 204.253,-193.631"/>
<polygon fill="midnightblue" stroke="midnightblue" points="203.907,-197.114 214.246,-194.8 204.72,-190.161 203.907,-197.114"/>
</g>
<!-- Node6 -->
<g id="node6" class="node"><title>Node6</title>
<g id="a_node6"><a xlink:href="classscram_1_1mef_1_1Id.xhtml#a7e258c5f6332715d5ed6a3fdbf681a8b" target="_top" xlink:title="scram::mef::Id::id">
<polygon fill="white" stroke="black" points="222.5,-148 222.5,-167 322.5,-167 322.5,-148 222.5,-148"/>
<text text-anchor="middle" x="272.5" y="-155" font-family="Helvetica,sans-Serif" font-size="10.00">scram::mef::Id::id</text>
</a>
</g>
</g>
<!-- Node1&#45;&gt;Node6 -->
<g id="edge5" class="edge"><title>Node1&#45;&gt;Node6</title>
<path fill="none" stroke="midnightblue" d="M165.139,-169.946C181,-168.09 197.339,-166.178 212.307,-164.427"/>
<polygon fill="midnightblue" stroke="midnightblue" points="212.903,-167.881 222.428,-163.242 212.089,-160.929 212.903,-167.881"/>
</g>
<!-- Node7 -->
<g id="node7" class="node"><title>Node7</title>
<g id="a_node7"><a xlink:href="classscram_1_1mef_1_1Element.xhtml#adb401e2ca84aa98cb60797bec2500a81" target="_top" xlink:title="scram::mef::Element\l::name">
<polygon fill="white" stroke="black" points="214,-98.5 214,-128.5 331,-128.5 331,-98.5 214,-98.5"/>
<text text-anchor="start" x="222" y="-116.5" font-family="Helvetica,sans-Serif" font-size="10.00">scram::mef::Element</text>
<text text-anchor="middle" x="272.5" y="-105.5" font-family="Helvetica,sans-Serif" font-size="10.00">::name</text>
</a>
</g>
</g>
<!-- Node1&#45;&gt;Node7 -->
<g id="edge6" class="edge"><title>Node1&#45;&gt;Node7</title>
<path fill="none" stroke="midnightblue" d="M126.631,-164.358C154.097,-154.716 189.854,-142.163 218.971,-131.941"/>
<polygon fill="midnightblue" stroke="midnightblue" points="220.294,-135.186 228.57,-128.571 217.975,-128.581 220.294,-135.186"/>
</g>
<!-- Node8 -->
<g id="node8" class="node"><title>Node8</title>
<g id="a_node8"><a xlink:href="classscram_1_1mef_1_1HouseEvent.xhtml#a15ab4daf36b62127703cf610bdc80183" target="_top" xlink:title="Sets the state for House event. ">
<polygon fill="white" stroke="black" points="205,-49.5 205,-79.5 340,-79.5 340,-49.5 205,-49.5"/>
<text text-anchor="start" x="213" y="-67.5" font-family="Helvetica,sans-Serif" font-size="10.00">scram::mef::HouseEvent</text>
<text text-anchor="middle" x="272.5" y="-56.5" font-family="Helvetica,sans-Serif" font-size="10.00">::state</text>
</a>
</g>
</g>
<!-- Node1&#45;&gt;Node8 -->
<g id="edge7" class="edge"><title>Node1&#45;&gt;Node8</title>
<path fill="none" stroke="midnightblue" d="M99.8478,-164.278C121.543,-144.74 161.703,-110.826 201,-89.5 204.893,-87.3872 209.001,-85.3936 213.196,-83.525"/>
<polygon fill="midnightblue" stroke="midnightblue" points="214.603,-86.7304 222.472,-79.636 211.896,-80.2748 214.603,-86.7304"/>
</g>
<!-- Node9 -->
<g id="node9" class="node"><title>Node9</title>
<g id="a_node9"><a xlink:href="classscram_1_1mef_1_1Formula.xhtml#aaf6992ab41ab8ae013211fd861e726db" target="_top" xlink:title="scram::mef::Formula\l::type">
<polygon fill="white" stroke="black" points="214.5,-0.5 214.5,-30.5 330.5,-30.5 330.5,-0.5 214.5,-0.5"/>
<text text-anchor="start" x="222.5" y="-18.5" font-family="Helvetica,sans-Serif" font-size="10.00">scram::mef::Formula</text>
<text text-anchor="middle" x="272.5" y="-7.5" font-family="Helvetica,sans-Serif" font-size="10.00">::type</text>
</a>
</g>
</g>
<!-- Node1&#45;&gt;Node9 -->
<g id="edge8" class="edge"><title>Node1&#45;&gt;Node9</title>
<path fill="none" stroke="midnightblue" d="M92.5023,-164.25C109.954,-135.938 151.096,-75.0016 201,-40.5 203.864,-38.5199 206.902,-36.6803 210.045,-34.9735"/>
<polygon fill="midnightblue" stroke="midnightblue" points="211.697,-38.0617 219.127,-30.5088 208.608,-31.7798 211.697,-38.0617"/>
</g>
</g>
</svg>
