<?xml version="1.0" encoding="UTF-8" standalone="no"?>
<!DOCTYPE svg PUBLIC "-//W3C//DTD SVG 1.1//EN"
 "http://www.w3.org/Graphics/SVG/1.1/DTD/svg11.dtd">
<!-- Generated by graphviz version 2.38.0 (20140413.2041)
 -->
<!-- Title: scram::mef::Substitution::Validate Pages: 1 -->
<svg width="646pt" height="78pt"
 viewBox="0.00 0.00 646.00 77.50" xmlns="http://www.w3.org/2000/svg" xmlns:xlink="http://www.w3.org/1999/xlink">
<g id="graph0" class="graph" transform="scale(1 1) rotate(0) translate(4 73.5)">
<title>scram::mef::Substitution::Validate</title>
<polygon fill="white" stroke="none" points="-4,4 -4,-73.5 642,-73.5 642,4 -4,4"/>
<!-- Node1 -->
<g id="node1" class="node"><title>Node1</title>
<polygon fill="#bfbfbf" stroke="black" points="0,-22.5 0,-52.5 135,-52.5 135,-22.5 0,-22.5"/>
<text text-anchor="start" x="8" y="-40.5" font-family="Helvetica,sans-Serif" font-size="10.00">scram::mef::Substitution</text>
<text text-anchor="middle" x="67.5" y="-29.5" font-family="Helvetica,sans-Serif" font-size="10.00">::Validate</text>
</g>
<!-- Node2 -->
<g id="node2" class="node"><title>Node2</title>
<g id="a_node2"><a xlink:href="classscram_1_1mef_1_1Substitution.xhtml#ad29f35247718d44ff8d6f9bd9bd41d9f" target="_top" xlink:title="scram::mef::Substitution\l::declarative">
<polygon fill="white" stroke="black" points="171,-22.5 171,-52.5 306,-52.5 306,-22.5 171,-22.5"/>
<text text-anchor="start" x="179" y="-40.5" font-family="Helvetica,sans-Serif" font-size="10.00">scram::mef::Substitution</text>
<text text-anchor="middle" x="238.5" y="-29.5" font-family="Helvetica,sans-Serif" font-size="10.00">::declarative</text>
</a>
</g>
</g>
<!-- Node1&#45;&gt;Node2 -->
<g id="edge1" class="edge"><title>Node1&#45;&gt;Node2</title>
<path fill="none" stroke="midnightblue" d="M135.293,-30.8835C143.624,-30.7562 152.194,-30.7199 160.661,-30.7747"/>
<polygon fill="midnightblue" stroke="midnightblue" points="160.878,-34.2772 170.915,-30.8867 160.954,-27.2776 160.878,-34.2772"/>
</g>
<!-- Node2&#45;&gt;Node1 -->
<g id="edge5" class="edge"><title>Node2&#45;&gt;Node1</title>
<path fill="none" stroke="midnightblue" d="M170.915,-44.1133C162.589,-44.2421 154.019,-44.2799 145.551,-44.2266"/>
<polygon fill="midnightblue" stroke="midnightblue" points="145.33,-40.7242 135.293,-44.1165 145.255,-47.7238 145.33,-40.7242"/>
</g>
<!-- Node3 -->
<g id="node3" class="node"><title>Node3</title>
<g id="a_node3"><a xlink:href="classscram_1_1mef_1_1Substitution.xhtml#a0a6da28d1514d7543d80e554e144df6f" target="_top" xlink:title="Adds a source event to the substitution container. ">
<polygon fill="white" stroke="black" points="342,-50 342,-69 502,-69 502,-50 342,-50"/>
<text text-anchor="middle" x="422" y="-57" font-family="Helvetica,sans-Serif" font-size="10.00">scram::mef::Substitution::Add</text>
</a>
</g>
</g>
<!-- Node2&#45;&gt;Node3 -->
<g id="edge2" class="edge"><title>Node2&#45;&gt;Node3</title>
<path fill="none" stroke="midnightblue" d="M306.053,-45.5671C314.654,-46.6095 323.567,-47.6899 332.452,-48.7669"/>
<polygon fill="midnightblue" stroke="midnightblue" points="332.105,-52.2503 342.453,-49.9792 332.947,-45.3012 332.105,-52.2503"/>
</g>
<!-- Node5 -->
<g id="node5" class="node"><title>Node5</title>
<g id="a_node5"><a xlink:href="classscram_1_1mef_1_1Substitution.xhtml#a01bb7b2682e333bb6cd4b730447162c2" target="_top" xlink:title="scram::mef::Substitution\l::type">
<polygon fill="white" stroke="black" points="354.5,-0.5 354.5,-30.5 489.5,-30.5 489.5,-0.5 354.5,-0.5"/>
<text text-anchor="start" x="362.5" y="-18.5" font-family="Helvetica,sans-Serif" font-size="10.00">scram::mef::Substitution</text>
<text text-anchor="middle" x="422" y="-7.5" font-family="Helvetica,sans-Serif" font-size="10.00">::type</text>
</a>
</g>
</g>
<!-- Node2&#45;&gt;Node5 -->
<g id="edge4" class="edge"><title>Node2&#45;&gt;Node5</title>
<path fill="none" stroke="midnightblue" d="M306.053,-29.4329C318.507,-27.9234 331.616,-26.3344 344.347,-24.7913"/>
<polygon fill="midnightblue" stroke="midnightblue" points="344.949,-28.2441 354.455,-23.5661 344.106,-21.2949 344.949,-28.2441"/>
</g>
<!-- Node4 -->
<g id="node4" class="node"><title>Node4</title>
<g id="a_node4"><a xlink:href="classscram_1_1mef_1_1Id.xhtml#a7e258c5f6332715d5ed6a3fdbf681a8b" target="_top" xlink:title="scram::mef::Id::id">
<polygon fill="white" stroke="black" points="538,-50 538,-69 638,-69 638,-50 538,-50"/>
<text text-anchor="middle" x="588" y="-57" font-family="Helvetica,sans-Serif" font-size="10.00">scram::mef::Id::id</text>
</a>
</g>
</g>
<!-- Node3&#45;&gt;Node4 -->
<g id="edge3" class="edge"><title>Node3&#45;&gt;Node4</title>
<path fill="none" stroke="midnightblue" d="M502.118,-59.5C510.641,-59.5 519.207,-59.5 527.445,-59.5"/>
<polygon fill="midnightblue" stroke="midnightblue" points="527.677,-63.0001 537.676,-59.5 527.676,-56.0001 527.677,-63.0001"/>
</g>
</g>
</svg>
