<?xml version="1.0" encoding="UTF-8" standalone="no"?>
<!DOCTYPE svg PUBLIC "-//W3C//DTD SVG 1.1//EN"
 "http://www.w3.org/Graphics/SVG/1.1/DTD/svg11.dtd">
<!-- Generated by graphviz version 2.38.0 (20140413.2041)
 -->
<!-- Title: scram::mef::Role::role Pages: 1 -->
<svg width="326pt" height="183pt"
 viewBox="0.00 0.00 326.00 182.50" xmlns="http://www.w3.org/2000/svg" xmlns:xlink="http://www.w3.org/1999/xlink">
<g id="graph0" class="graph" transform="scale(1 1) rotate(0) translate(4 178.5)">
<title>scram::mef::Role::role</title>
<polygon fill="white" stroke="none" points="-4,4 -4,-178.5 322,-178.5 322,4 -4,4"/>
<!-- Node1 -->
<g id="node1" class="node"><title>Node1</title>
<polygon fill="#bfbfbf" stroke="black" points="0,-69.5 0,-88.5 121,-88.5 121,-69.5 0,-69.5"/>
<text text-anchor="middle" x="60.5" y="-76.5" font-family="Helvetica,sans-Serif" font-size="10.00">scram::mef::Role::role</text>
</g>
<!-- Node2 -->
<g id="node2" class="node"><title>Node2</title>
<g id="a_node2"><a xlink:href="classscram_1_1mef_1_1Initializer.xhtml#a969f088f20697a8a317cb7c998f034ad" target="_top" xlink:title="Specializations for elements defined after registration. ">
<polygon fill="white" stroke="black" points="178,-144 178,-174 297,-174 297,-144 178,-144"/>
<text text-anchor="start" x="186" y="-162" font-family="Helvetica,sans-Serif" font-size="10.00">scram::mef::Initializer</text>
<text text-anchor="middle" x="237.5" y="-151" font-family="Helvetica,sans-Serif" font-size="10.00">::Define</text>
</a>
</g>
</g>
<!-- Node1&#45;&gt;Node2 -->
<g id="edge1" class="edge"><title>Node1&#45;&gt;Node2</title>
<path fill="none" stroke="midnightblue" d="M83.9747,-94.2454C102.833,-106.523 130.814,-123.563 157,-135 164.399,-138.231 172.365,-141.197 180.296,-143.86"/>
<polygon fill="midnightblue" stroke="midnightblue" points="85.7706,-91.237 75.4974,-88.646 81.9126,-97.0779 85.7706,-91.237"/>
</g>
<!-- Node3 -->
<g id="node3" class="node"><title>Node3</title>
<g id="a_node3"><a xlink:href="structscram_1_1mef_1_1Initializer_1_1Extractor_3_01T_00-1_01_4.xhtml#aed4438ca816e65ced748e4bc1f67a631" target="_top" xlink:title="Constructs an expression with a variable number of arguments. ">
<polygon fill="white" stroke="black" points="157,-95 157,-125 318,-125 318,-95 157,-95"/>
<text text-anchor="start" x="165" y="-113" font-family="Helvetica,sans-Serif" font-size="10.00">scram::mef::Initializer</text>
<text text-anchor="middle" x="237.5" y="-102" font-family="Helvetica,sans-Serif" font-size="10.00">::Extractor&lt; T,&#45;1 &gt;::operator()</text>
</a>
</g>
</g>
<!-- Node1&#45;&gt;Node3 -->
<g id="edge2" class="edge"><title>Node1&#45;&gt;Node3</title>
<path fill="none" stroke="midnightblue" d="M125.423,-90.3236C135.588,-92.1242 146.212,-94.0061 156.688,-95.8618"/>
<polygon fill="midnightblue" stroke="midnightblue" points="125.891,-86.852 115.434,-88.554 124.67,-93.7447 125.891,-86.852"/>
</g>
<!-- Node4 -->
<g id="node4" class="node"><title>Node4</title>
<g id="a_node4"><a xlink:href="serialization_8cc.xhtml#a83f7058a5caad9ec3ffb5fd6c7d7b8f6" target="_top" xlink:title="Convenience function for serialization into a file. ">
<polygon fill="white" stroke="black" points="178.5,-38.5 178.5,-57.5 296.5,-57.5 296.5,-38.5 178.5,-38.5"/>
<text text-anchor="middle" x="237.5" y="-45.5" font-family="Helvetica,sans-Serif" font-size="10.00">scram::mef::Serialize</text>
</a>
</g>
</g>
<!-- Node1&#45;&gt;Node4 -->
<g id="edge3" class="edge"><title>Node1&#45;&gt;Node4</title>
<path fill="none" stroke="midnightblue" d="M125.407,-67.6793C144.23,-64.345 164.627,-60.7318 182.744,-57.5224"/>
<polygon fill="midnightblue" stroke="midnightblue" points="124.67,-64.2553 115.434,-69.446 125.891,-71.148 124.67,-64.2553"/>
</g>
<!-- Node5 -->
<g id="node5" class="node"><title>Node5</title>
<g id="a_node5"><a xlink:href="classscram_1_1mef_1_1Id.xhtml#a846997cebdf27bbff872fa87e7f1a9e2" target="_top" xlink:title="Produces unique name for the model element within the same type. ">
<polygon fill="white" stroke="black" points="159,-0.5 159,-19.5 316,-19.5 316,-0.5 159,-0.5"/>
<text text-anchor="middle" x="237.5" y="-7.5" font-family="Helvetica,sans-Serif" font-size="10.00">scram::mef::Id::unique_name</text>
</a>
</g>
</g>
<!-- Node1&#45;&gt;Node5 -->
<g id="edge5" class="edge"><title>Node1&#45;&gt;Node5</title>
<path fill="none" stroke="midnightblue" d="M85.6272,-64.2235C104.485,-53.2099 131.663,-38.4923 157,-29 166.834,-25.3159 177.625,-22.1741 187.999,-19.5689"/>
<polygon fill="midnightblue" stroke="midnightblue" points="83.6427,-61.3312 76.8303,-69.4455 87.2159,-67.3506 83.6427,-61.3312"/>
</g>
<!-- Node4&#45;&gt;Node4 -->
<g id="edge4" class="edge"><title>Node4&#45;&gt;Node4</title>
<path fill="none" stroke="midnightblue" d="M204.517,-65.8913C205,-71.5406 215.994,-76 237.5,-76 268.781,-76 277.823,-66.5653 264.627,-57.7571"/>
<polygon fill="midnightblue" stroke="midnightblue" points="207.371,-67.9175 210.373,-57.7571 201.69,-63.8273 207.371,-67.9175"/>
</g>
</g>
</svg>
