<?xml version="1.0" encoding="UTF-8" standalone="no"?>
<!DOCTYPE svg PUBLIC "-//W3C//DTD SVG 1.1//EN"
 "http://www.w3.org/Graphics/SVG/1.1/DTD/svg11.dtd">
<!-- Generated by graphviz version 2.38.0 (20140413.2041)
 -->
<!-- Title: scram::mef::Expression::interval Pages: 1 -->
<svg width="916pt" height="449pt"
 viewBox="0.00 0.00 916.00 448.50" xmlns="http://www.w3.org/2000/svg" xmlns:xlink="http://www.w3.org/1999/xlink">
<g id="graph0" class="graph" transform="scale(1 1) rotate(0) translate(4 444.5)">
<title>scram::mef::Expression::interval</title>
<polygon fill="white" stroke="none" points="-4,4 -4,-444.5 912,-444.5 912,4 -4,4"/>
<!-- Node1 -->
<g id="node1" class="node"><title>Node1</title>
<polygon fill="#bfbfbf" stroke="black" points="0,-191.5 0,-221.5 129,-221.5 129,-191.5 0,-191.5"/>
<text text-anchor="start" x="8" y="-209.5" font-family="Helvetica,sans-Serif" font-size="10.00">scram::mef::Expression</text>
<text text-anchor="middle" x="64.5" y="-198.5" font-family="Helvetica,sans-Serif" font-size="10.00">::interval</text>
</g>
<!-- Node2 -->
<g id="node2" class="node"><title>Node2</title>
<g id="a_node2"><a xlink:href="classscram_1_1mef_1_1NaryExpression_3_01T_00-1_01_4.xhtml#aad5811e7fc2298aaf486697e050774fa" target="_top" xlink:title="Computes the expression value with a given argument value extractor. ">
<polygon fill="white" stroke="black" points="375,-352.5 375,-382.5 527,-382.5 527,-352.5 375,-352.5"/>
<text text-anchor="start" x="383" y="-370.5" font-family="Helvetica,sans-Serif" font-size="10.00">scram::mef::NaryExpression</text>
<text text-anchor="middle" x="451" y="-359.5" font-family="Helvetica,sans-Serif" font-size="10.00">&lt; T,&#45;1 &gt;::Compute</text>
</a>
</g>
</g>
<!-- Node1&#45;&gt;Node2 -->
<g id="edge1" class="edge"><title>Node1&#45;&gt;Node2</title>
<path fill="none" stroke="midnightblue" d="M73.8499,-231.251C87.0569,-266.033 116.381,-328.173 165,-355.5 228.893,-391.412 314.165,-389.811 374.742,-382.069"/>
<polygon fill="midnightblue" stroke="midnightblue" points="77.1213,-230.006 70.4069,-221.811 70.545,-232.404 77.1213,-230.006"/>
</g>
<!-- Node3 -->
<g id="node3" class="node"><title>Node3</title>
<g id="a_node3"><a xlink:href="expression_8cc.xhtml#a9b787fed653e7b5a1b6d6ace04643516" target="_top" xlink:title="Ensures that expression yields non&#45;negative (&gt;= 0) values. ">
<polygon fill="white" stroke="black" points="165,-253 165,-272 338,-272 338,-253 165,-253"/>
<text text-anchor="middle" x="251.5" y="-260" font-family="Helvetica,sans-Serif" font-size="10.00">scram::mef::EnsureNonNegative</text>
</a>
</g>
</g>
<!-- Node1&#45;&gt;Node3 -->
<g id="edge2" class="edge"><title>Node1&#45;&gt;Node3</title>
<path fill="none" stroke="midnightblue" d="M111.886,-225.254C128.476,-231.56 147.418,-238.304 165,-243.5 176.958,-247.034 190.027,-250.253 202.269,-252.997"/>
<polygon fill="midnightblue" stroke="midnightblue" points="113.008,-221.936 102.418,-221.608 110.492,-228.468 113.008,-221.936"/>
</g>
<!-- Node10 -->
<g id="node10" class="node"><title>Node10</title>
<g id="a_node10"><a xlink:href="expression_8cc.xhtml#a0361a4eda6025e09ca91ec2d1447ad1b" target="_top" xlink:title="Ensures that expression yields positive (&gt; 0) values. ">
<polygon fill="white" stroke="black" points="178,-309 178,-328 325,-328 325,-309 178,-309"/>
<text text-anchor="middle" x="251.5" y="-316" font-family="Helvetica,sans-Serif" font-size="10.00">scram::mef::EnsurePositive</text>
</a>
</g>
</g>
<!-- Node1&#45;&gt;Node10 -->
<g id="edge11" class="edge"><title>Node1&#45;&gt;Node10</title>
<path fill="none" stroke="midnightblue" d="M83.8497,-229.643C102.124,-251.076 132.132,-282.172 165,-299.5 172.398,-303.4 180.564,-306.501 188.826,-308.967"/>
<polygon fill="midnightblue" stroke="midnightblue" points="86.3019,-227.118 77.2132,-221.673 80.9227,-231.598 86.3019,-227.118"/>
</g>
<!-- Node11 -->
<g id="node11" class="node"><title>Node11</title>
<g id="a_node11"><a xlink:href="expression_8cc.xhtml#a2c0a639b694ccfdf4b7d6913d8a635de" target="_top" xlink:title="Ensures that expression can be used for probability ([0, 1]). ">
<polygon fill="white" stroke="black" points="171.5,-197 171.5,-216 331.5,-216 331.5,-197 171.5,-197"/>
<text text-anchor="middle" x="251.5" y="-204" font-family="Helvetica,sans-Serif" font-size="10.00">scram::mef::EnsureProbability</text>
</a>
</g>
</g>
<!-- Node1&#45;&gt;Node11 -->
<g id="edge18" class="edge"><title>Node1&#45;&gt;Node11</title>
<path fill="none" stroke="midnightblue" d="M139.182,-206.5C149.757,-206.5 160.676,-206.5 171.352,-206.5"/>
<polygon fill="midnightblue" stroke="midnightblue" points="139.167,-203 129.167,-206.5 139.166,-210 139.167,-203"/>
</g>
<!-- Node18 -->
<g id="node18" class="node"><title>Node18</title>
<g id="a_node18"><a xlink:href="expression_8cc.xhtml#aa5f8250f3fc162fc8c018bd57c877a0e" target="_top" xlink:title="Ensures that expression values are within the interval. ">
<polygon fill="white" stroke="black" points="182,-403 182,-422 321,-422 321,-403 182,-403"/>
<text text-anchor="middle" x="251.5" y="-410" font-family="Helvetica,sans-Serif" font-size="10.00">scram::mef::EnsureWithin</text>
</a>
</g>
</g>
<!-- Node1&#45;&gt;Node18 -->
<g id="edge29" class="edge"><title>Node1&#45;&gt;Node18</title>
<path fill="none" stroke="midnightblue" d="M72.2673,-231.431C84.2522,-270.796 112.987,-347.116 165,-388.5 172.963,-394.835 182.503,-399.499 192.277,-402.932"/>
<polygon fill="midnightblue" stroke="midnightblue" points="75.5556,-230.206 69.3881,-221.591 68.8372,-232.172 75.5556,-230.206"/>
</g>
<!-- Node19 -->
<g id="node19" class="node"><title>Node19</title>
<g id="a_node19"><a xlink:href="classscram_1_1mef_1_1Switch.xhtml#aece696754288dcbdbcda71355da80a19" target="_top" xlink:title="scram::mef::Switch\l::interval">
<polygon fill="white" stroke="black" points="197.5,-147.5 197.5,-177.5 305.5,-177.5 305.5,-147.5 197.5,-147.5"/>
<text text-anchor="start" x="205.5" y="-165.5" font-family="Helvetica,sans-Serif" font-size="10.00">scram::mef::Switch</text>
<text text-anchor="middle" x="251.5" y="-154.5" font-family="Helvetica,sans-Serif" font-size="10.00">::interval</text>
</a>
</g>
</g>
<!-- Node1&#45;&gt;Node19 -->
<g id="edge33" class="edge"><title>Node1&#45;&gt;Node19</title>
<path fill="none" stroke="midnightblue" d="M138.504,-189.137C158.192,-184.454 179.114,-179.478 197.481,-175.11"/>
<polygon fill="midnightblue" stroke="midnightblue" points="137.568,-185.762 128.649,-191.481 139.188,-192.572 137.568,-185.762"/>
</g>
<!-- Node20 -->
<g id="node20" class="node"><title>Node20</title>
<g id="a_node20"><a xlink:href="classscram_1_1mef_1_1LognormalDeviate.xhtml#a18f3499d5d98d1af462db56d07069997" target="_top" xlink:title="scram::mef::LognormalDeviate\l::value">
<polygon fill="white" stroke="black" points="169,-98.5 169,-128.5 334,-128.5 334,-98.5 169,-98.5"/>
<text text-anchor="start" x="177" y="-116.5" font-family="Helvetica,sans-Serif" font-size="10.00">scram::mef::LognormalDeviate</text>
<text text-anchor="middle" x="251.5" y="-105.5" font-family="Helvetica,sans-Serif" font-size="10.00">::value</text>
</a>
</g>
</g>
<!-- Node1&#45;&gt;Node20 -->
<g id="edge34" class="edge"><title>Node1&#45;&gt;Node20</title>
<path fill="none" stroke="midnightblue" d="M91.414,-184.918C110.676,-169.807 138.161,-150.135 165,-137.5 172.114,-134.151 179.787,-131.184 187.514,-128.579"/>
<polygon fill="midnightblue" stroke="midnightblue" points="89.0638,-182.316 83.4314,-191.29 93.4305,-187.787 89.0638,-182.316"/>
</g>
<!-- Node21 -->
<g id="node21" class="node"><title>Node21</title>
<g id="a_node21"><a xlink:href="classscram_1_1mef_1_1GammaDeviate.xhtml#aac9dd9e446203c28033a32385a68570c" target="_top" xlink:title="scram::mef::GammaDeviate\l::value">
<polygon fill="white" stroke="black" points="175,-49.5 175,-79.5 328,-79.5 328,-49.5 175,-49.5"/>
<text text-anchor="start" x="183" y="-67.5" font-family="Helvetica,sans-Serif" font-size="10.00">scram::mef::GammaDeviate</text>
<text text-anchor="middle" x="251.5" y="-56.5" font-family="Helvetica,sans-Serif" font-size="10.00">::value</text>
</a>
</g>
</g>
<!-- Node1&#45;&gt;Node21 -->
<g id="edge35" class="edge"><title>Node1&#45;&gt;Node21</title>
<path fill="none" stroke="midnightblue" d="M79.4881,-182.547C96.3913,-155.7 127.309,-112.763 165,-88.5 170.315,-85.0785 176.121,-82.1374 182.124,-79.6104"/>
<polygon fill="midnightblue" stroke="midnightblue" points="76.3544,-180.962 74.1056,-191.315 82.3201,-184.624 76.3544,-180.962"/>
</g>
<!-- Node22 -->
<g id="node22" class="node"><title>Node22</title>
<g id="a_node22"><a xlink:href="classscram_1_1mef_1_1BetaDeviate.xhtml#a23cf22ef291bb47601ddefd7640fe93a" target="_top" xlink:title="scram::mef::BetaDeviate\l::value">
<polygon fill="white" stroke="black" points="183,-0.5 183,-30.5 320,-30.5 320,-0.5 183,-0.5"/>
<text text-anchor="start" x="191" y="-18.5" font-family="Helvetica,sans-Serif" font-size="10.00">scram::mef::BetaDeviate</text>
<text text-anchor="middle" x="251.5" y="-7.5" font-family="Helvetica,sans-Serif" font-size="10.00">::value</text>
</a>
</g>
</g>
<!-- Node1&#45;&gt;Node22 -->
<g id="edge36" class="edge"><title>Node1&#45;&gt;Node22</title>
<path fill="none" stroke="midnightblue" d="M73.6023,-181.535C86.8045,-144.836 116.47,-76.6661 165,-39.5 170.386,-35.3754 176.446,-31.9596 182.789,-29.1309"/>
<polygon fill="midnightblue" stroke="midnightblue" points="70.1429,-180.828 70.1715,-191.423 76.7562,-183.122 70.1429,-180.828"/>
</g>
<!-- Node3&#45;&gt;Node2 -->
<g id="edge4" class="edge"><title>Node3&#45;&gt;Node2</title>
<path fill="none" stroke="midnightblue" d="M293.569,-275.673C308.415,-281.582 324.765,-289.506 338,-299.5 358.164,-314.726 353.082,-329.328 374,-343.5 379.04,-346.915 384.593,-349.865 390.333,-352.409"/>
<polygon fill="midnightblue" stroke="midnightblue" points="294.669,-272.348 284.078,-272.08 292.191,-278.894 294.669,-272.348"/>
</g>
<!-- Node3&#45;&gt;Node3 -->
<g id="edge5" class="edge"><title>Node3&#45;&gt;Node3</title>
<path fill="none" stroke="midnightblue" d="M216.643,-280.391C217.153,-286.041 228.772,-290.5 251.5,-290.5 284.559,-290.5 294.115,-281.065 280.168,-272.257"/>
<polygon fill="midnightblue" stroke="midnightblue" points="219.562,-282.335 222.832,-272.257 213.991,-278.096 219.562,-282.335"/>
</g>
<!-- Node4 -->
<g id="node4" class="node"><title>Node4</title>
<g id="a_node4"><a xlink:href="classscram_1_1mef_1_1Mean.xhtml#ab75b082938d5f6ed2b7bd2d45c3c850b" target="_top" xlink:title="Computes the expression value with a given argument value extractor. ">
<polygon fill="white" stroke="black" points="374,-402 374,-421 528,-421 528,-402 374,-402"/>
<text text-anchor="middle" x="451" y="-409" font-family="Helvetica,sans-Serif" font-size="10.00">scram::mef::Mean::Compute</text>
</a>
</g>
</g>
<!-- Node3&#45;&gt;Node4 -->
<g id="edge3" class="edge"><title>Node3&#45;&gt;Node4</title>
<path fill="none" stroke="midnightblue" d="M300.945,-275.738C314.309,-281.298 327.896,-288.993 338,-299.5 368.722,-331.447 340.773,-363.168 374,-392.5 378.384,-396.37 383.44,-399.477 388.818,-401.966"/>
<polygon fill="midnightblue" stroke="midnightblue" points="301.896,-272.355 291.305,-272.057 299.398,-278.894 301.896,-272.355"/>
</g>
<!-- Node5 -->
<g id="node5" class="node"><title>Node5</title>
<g id="a_node5"><a xlink:href="classscram_1_1mef_1_1PeriodicTest.xhtml#a546bf1c23ba3926f124de31d7b08b4c3" target="_top" xlink:title="Fully parametrized periodic&#45;test description. ">
<polygon fill="white" stroke="black" points="384,-254.5 384,-284.5 518,-284.5 518,-254.5 384,-254.5"/>
<text text-anchor="start" x="392" y="-272.5" font-family="Helvetica,sans-Serif" font-size="10.00">scram::mef::PeriodicTest</text>
<text text-anchor="middle" x="451" y="-261.5" font-family="Helvetica,sans-Serif" font-size="10.00">::PeriodicTest</text>
</a>
</g>
</g>
<!-- Node3&#45;&gt;Node5 -->
<g id="edge6" class="edge"><title>Node3&#45;&gt;Node5</title>
<path fill="none" stroke="midnightblue" d="M348.352,-265.897C360.396,-266.324 372.497,-266.753 383.939,-267.159"/>
<polygon fill="midnightblue" stroke="midnightblue" points="348.382,-262.396 338.265,-265.54 348.134,-269.392 348.382,-262.396"/>
</g>
<!-- Node6 -->
<g id="node6" class="node"><title>Node6</title>
<g id="a_node6"><a xlink:href="classscram_1_1mef_1_1Exponential.xhtml#a93569be7f366dce3dd25dcbb083ca774" target="_top" xlink:title="scram::mef::Exponential\l::Validate">
<polygon fill="white" stroke="black" points="384.5,-166.5 384.5,-196.5 517.5,-196.5 517.5,-166.5 384.5,-166.5"/>
<text text-anchor="start" x="392.5" y="-184.5" font-family="Helvetica,sans-Serif" font-size="10.00">scram::mef::Exponential</text>
<text text-anchor="middle" x="451" y="-173.5" font-family="Helvetica,sans-Serif" font-size="10.00">::Validate</text>
</a>
</g>
</g>
<!-- Node3&#45;&gt;Node6 -->
<g id="edge7" class="edge"><title>Node3&#45;&gt;Node6</title>
<path fill="none" stroke="midnightblue" d="M325.411,-249.429C329.774,-247.693 334.008,-245.727 338,-243.5 358.037,-232.322 354.542,-218.657 374,-206.5 380.125,-202.673 386.898,-199.369 393.803,-196.534"/>
<polygon fill="midnightblue" stroke="midnightblue" points="323.952,-246.233 315.696,-252.872 326.29,-252.831 323.952,-246.233"/>
</g>
<!-- Node8 -->
<g id="node8" class="node"><title>Node8</title>
<g id="a_node8"><a xlink:href="classscram_1_1mef_1_1Glm.xhtml#a48b4b735418eee27d2c4b81b9e59be85" target="_top" xlink:title="Validates the expression. ">
<polygon fill="white" stroke="black" points="380.5,-216 380.5,-235 521.5,-235 521.5,-216 380.5,-216"/>
<text text-anchor="middle" x="451" y="-223" font-family="Helvetica,sans-Serif" font-size="10.00">scram::mef::Glm::Validate</text>
</a>
</g>
</g>
<!-- Node3&#45;&gt;Node8 -->
<g id="edge9" class="edge"><title>Node3&#45;&gt;Node8</title>
<path fill="none" stroke="midnightblue" d="M313.247,-251.119C340.702,-245.976 372.782,-239.966 398.968,-235.06"/>
<polygon fill="midnightblue" stroke="midnightblue" points="312.546,-247.69 303.361,-252.972 313.835,-254.57 312.546,-247.69"/>
</g>
<!-- Node9 -->
<g id="node9" class="node"><title>Node9</title>
<g id="a_node9"><a xlink:href="classscram_1_1mef_1_1Weibull.xhtml#ad36688cf28ab24dd909832cd05aad328" target="_top" xlink:title="Validates the expression. ">
<polygon fill="white" stroke="black" points="396,-303.5 396,-333.5 506,-333.5 506,-303.5 396,-303.5"/>
<text text-anchor="start" x="404" y="-321.5" font-family="Helvetica,sans-Serif" font-size="10.00">scram::mef::Weibull</text>
<text text-anchor="middle" x="451" y="-310.5" font-family="Helvetica,sans-Serif" font-size="10.00">::Validate</text>
</a>
</g>
</g>
<!-- Node3&#45;&gt;Node9 -->
<g id="edge10" class="edge"><title>Node3&#45;&gt;Node9</title>
<path fill="none" stroke="midnightblue" d="M296.119,-274.868C325.806,-283.286 365.276,-294.477 396.809,-303.418"/>
<polygon fill="midnightblue" stroke="midnightblue" points="297.027,-271.487 286.451,-272.127 295.117,-278.222 297.027,-271.487"/>
</g>
<!-- Node7 -->
<g id="node7" class="node"><title>Node7</title>
<g id="a_node7"><a xlink:href="classscram_1_1mef_1_1PeriodicTest.xhtml#a0aa8dc4d62e8fc24194f0183bc533638" target="_top" xlink:title="scram::mef::PeriodicTest\l::interval">
<polygon fill="white" stroke="black" points="564,-166.5 564,-196.5 698,-196.5 698,-166.5 564,-166.5"/>
<text text-anchor="start" x="572" y="-184.5" font-family="Helvetica,sans-Serif" font-size="10.00">scram::mef::PeriodicTest</text>
<text text-anchor="middle" x="631" y="-173.5" font-family="Helvetica,sans-Serif" font-size="10.00">::interval</text>
</a>
</g>
</g>
<!-- Node6&#45;&gt;Node7 -->
<g id="edge8" class="edge"><title>Node6&#45;&gt;Node7</title>
<path fill="none" stroke="midnightblue" d="M527.529,-181.5C539.56,-181.5 551.927,-181.5 563.723,-181.5"/>
<polygon fill="midnightblue" stroke="midnightblue" points="527.522,-178 517.522,-181.5 527.522,-185 527.522,-178"/>
</g>
<!-- Node10&#45;&gt;Node2 -->
<g id="edge13" class="edge"><title>Node10&#45;&gt;Node2</title>
<path fill="none" stroke="midnightblue" d="M300.925,-330.514C327.611,-337.135 360.988,-345.416 389.392,-352.463"/>
<polygon fill="midnightblue" stroke="midnightblue" points="301.597,-327.075 291.049,-328.064 299.912,-333.869 301.597,-327.075"/>
</g>
<!-- Node10&#45;&gt;Node4 -->
<g id="edge12" class="edge"><title>Node10&#45;&gt;Node4</title>
<path fill="none" stroke="midnightblue" d="M273.42,-333.966C296.83,-350.605 336.418,-376.787 374,-392.5 382.909,-396.225 392.722,-399.345 402.253,-401.91"/>
<polygon fill="midnightblue" stroke="midnightblue" points="275.437,-331.106 265.278,-328.098 271.344,-336.784 275.437,-331.106"/>
</g>
<!-- Node10&#45;&gt;Node5 -->
<g id="edge15" class="edge"><title>Node10&#45;&gt;Node5</title>
<path fill="none" stroke="midnightblue" d="M307.43,-306.66C317.611,-304.362 328.141,-301.915 338,-299.5 356.868,-294.879 377.425,-289.479 395.718,-284.544"/>
<polygon fill="midnightblue" stroke="midnightblue" points="306.397,-303.305 297.402,-308.903 307.925,-310.136 306.397,-303.305"/>
</g>
<!-- Node10&#45;&gt;Node8 -->
<g id="edge16" class="edge"><title>Node10&#45;&gt;Node8</title>
<path fill="none" stroke="midnightblue" d="M328.8,-304.888C332.004,-303.283 335.089,-301.494 338,-299.5 361.794,-283.196 350.525,-262.261 374,-245.5 380.107,-241.14 387.098,-237.73 394.311,-235.063"/>
<polygon fill="midnightblue" stroke="midnightblue" points="327.27,-301.736 319.499,-308.937 330.065,-308.154 327.27,-301.736"/>
</g>
<!-- Node10&#45;&gt;Node9 -->
<g id="edge17" class="edge"><title>Node10&#45;&gt;Node9</title>
<path fill="none" stroke="midnightblue" d="M335.473,-318.5C355.931,-318.5 377.317,-318.5 395.995,-318.5"/>
<polygon fill="midnightblue" stroke="midnightblue" points="335.2,-315 325.2,-318.5 335.2,-322 335.2,-315"/>
</g>
<!-- Node10&#45;&gt;Node10 -->
<g id="edge14" class="edge"><title>Node10&#45;&gt;Node10</title>
<path fill="none" stroke="midnightblue" d="M216.643,-336.391C217.153,-342.041 228.772,-346.5 251.5,-346.5 284.559,-346.5 294.115,-337.065 280.168,-328.257"/>
<polygon fill="midnightblue" stroke="midnightblue" points="219.562,-338.335 222.832,-328.257 213.991,-334.096 219.562,-338.335"/>
</g>
<!-- Node11&#45;&gt;Node2 -->
<g id="edge19" class="edge"><title>Node11&#45;&gt;Node2</title>
<path fill="none" stroke="midnightblue" d="M301.461,-219.737C314.714,-225.282 328.111,-232.969 338,-243.5 370.335,-277.935 339.943,-310.768 374,-343.5 377.591,-346.952 381.676,-349.907 386.043,-352.438"/>
<polygon fill="midnightblue" stroke="midnightblue" points="302.479,-216.379 291.888,-216.068 299.973,-222.915 302.479,-216.379"/>
</g>
<!-- Node11&#45;&gt;Node5 -->
<g id="edge21" class="edge"><title>Node11&#45;&gt;Node5</title>
<path fill="none" stroke="midnightblue" d="M292.368,-219.218C324.267,-229.393 369.078,-243.687 402.772,-254.435"/>
<polygon fill="midnightblue" stroke="midnightblue" points="293.087,-215.773 282.496,-216.068 290.959,-222.442 293.087,-215.773"/>
</g>
<!-- Node11&#45;&gt;Node8 -->
<g id="edge22" class="edge"><title>Node11&#45;&gt;Node8</title>
<path fill="none" stroke="midnightblue" d="M341.959,-215.106C354.838,-216.345 367.93,-217.605 380.347,-218.799"/>
<polygon fill="midnightblue" stroke="midnightblue" points="341.982,-211.592 331.693,-214.119 341.312,-218.56 341.982,-211.592"/>
</g>
<!-- Node11&#45;&gt;Node11 -->
<g id="edge20" class="edge"><title>Node11&#45;&gt;Node11</title>
<path fill="none" stroke="midnightblue" d="M216.643,-224.391C217.153,-230.041 228.772,-234.5 251.5,-234.5 284.559,-234.5 294.115,-225.065 280.168,-216.257"/>
<polygon fill="midnightblue" stroke="midnightblue" points="219.562,-226.335 222.832,-216.257 213.991,-222.096 219.562,-226.335"/>
</g>
<!-- Node12 -->
<g id="node12" class="node"><title>Node12</title>
<g id="a_node12"><a xlink:href="classscram_1_1mef_1_1BasicEvent.xhtml#acfc0e73e1add67aa2ace841350eb62cd" target="_top" xlink:title="Validates the probability expressions for the primary event. ">
<polygon fill="white" stroke="black" points="386,-68.5 386,-98.5 516,-98.5 516,-68.5 386,-68.5"/>
<text text-anchor="start" x="394" y="-86.5" font-family="Helvetica,sans-Serif" font-size="10.00">scram::mef::BasicEvent</text>
<text text-anchor="middle" x="451" y="-75.5" font-family="Helvetica,sans-Serif" font-size="10.00">::Validate</text>
</a>
</g>
</g>
<!-- Node11&#45;&gt;Node12 -->
<g id="edge23" class="edge"><title>Node11&#45;&gt;Node12</title>
<path fill="none" stroke="midnightblue" d="M329.233,-192.525C332.322,-190.742 335.264,-188.742 338,-186.5 367.844,-162.044 345.108,-133.074 374,-107.5 377.834,-104.107 382.147,-101.193 386.72,-98.6911"/>
<polygon fill="midnightblue" stroke="midnightblue" points="327.601,-189.427 320.19,-196.998 330.705,-195.702 327.601,-189.427"/>
</g>
<!-- Node17 -->
<g id="node17" class="node"><title>Node17</title>
<g id="a_node17"><a xlink:href="classscram_1_1mef_1_1CcfGroup.xhtml#a31cbe59ce89f295de7bb810d8b75990e" target="_top" xlink:title="Validates the setup for the CCF model and group. ">
<polygon fill="white" stroke="black" points="390,-117.5 390,-147.5 512,-147.5 512,-117.5 390,-117.5"/>
<text text-anchor="start" x="398" y="-135.5" font-family="Helvetica,sans-Serif" font-size="10.00">scram::mef::CcfGroup</text>
<text text-anchor="middle" x="451" y="-124.5" font-family="Helvetica,sans-Serif" font-size="10.00">::Validate</text>
</a>
</g>
</g>
<!-- Node11&#45;&gt;Node17 -->
<g id="edge28" class="edge"><title>Node11&#45;&gt;Node17</title>
<path fill="none" stroke="midnightblue" d="M319.837,-193.924C326.118,-191.812 332.269,-189.355 338,-186.5 356.641,-177.212 355.725,-166.491 374,-156.5 380.192,-153.115 386.933,-150.126 393.759,-147.51"/>
<polygon fill="midnightblue" stroke="midnightblue" points="318.441,-190.692 309.905,-196.968 320.491,-197.385 318.441,-190.692"/>
</g>
<!-- Node13 -->
<g id="node13" class="node"><title>Node13</title>
<g id="a_node13"><a xlink:href="classscram_1_1mef_1_1CcfGroup.xhtml#a06dd05cabcbeddf42090536f6a47a184" target="_top" xlink:title="scram::mef::CcfGroup\l::members">
<polygon fill="white" stroke="black" points="570,-68.5 570,-98.5 692,-98.5 692,-68.5 570,-68.5"/>
<text text-anchor="start" x="578" y="-86.5" font-family="Helvetica,sans-Serif" font-size="10.00">scram::mef::CcfGroup</text>
<text text-anchor="middle" x="631" y="-75.5" font-family="Helvetica,sans-Serif" font-size="10.00">::members</text>
</a>
</g>
</g>
<!-- Node12&#45;&gt;Node13 -->
<g id="edge24" class="edge"><title>Node12&#45;&gt;Node13</title>
<path fill="none" stroke="midnightblue" d="M526.428,-83.5C540.893,-83.5 555.886,-83.5 569.823,-83.5"/>
<polygon fill="midnightblue" stroke="midnightblue" points="526.011,-80.0001 516.011,-83.5 526.011,-87.0001 526.011,-80.0001"/>
</g>
<!-- Node14 -->
<g id="node14" class="node"><title>Node14</title>
<g id="a_node14"><a xlink:href="classscram_1_1mef_1_1Component.xhtml#a4fd4a9b195b92c8061149da20f5bd3f0" target="_top" xlink:title="Adds MEF constructs into this component container. ">
<polygon fill="white" stroke="black" points="742,-118 742,-137 900,-137 900,-118 742,-118"/>
<text text-anchor="middle" x="821" y="-125" font-family="Helvetica,sans-Serif" font-size="10.00">scram::mef::Component::Add</text>
</a>
</g>
</g>
<!-- Node13&#45;&gt;Node14 -->
<g id="edge25" class="edge"><title>Node13&#45;&gt;Node14</title>
<path fill="none" stroke="midnightblue" d="M701.914,-99.9756C712.658,-102.5 723.625,-105.073 734,-107.5 748.628,-110.922 764.659,-114.655 778.875,-117.959"/>
<polygon fill="midnightblue" stroke="midnightblue" points="702.667,-96.5574 692.132,-97.676 701.065,-103.372 702.667,-96.5574"/>
</g>
<!-- Node15 -->
<g id="node15" class="node"><title>Node15</title>
<g id="a_node15"><a xlink:href="classscram_1_1mef_1_1CcfGroup.xhtml#ab399c5ed0c1d7d0a316ac3b7244b7eb9" target="_top" xlink:title="Processes the given factors and members to create common cause failure probabilities and new events t...">
<polygon fill="white" stroke="black" points="760,-68.5 760,-98.5 882,-98.5 882,-68.5 760,-68.5"/>
<text text-anchor="start" x="768" y="-86.5" font-family="Helvetica,sans-Serif" font-size="10.00">scram::mef::CcfGroup</text>
<text text-anchor="middle" x="821" y="-75.5" font-family="Helvetica,sans-Serif" font-size="10.00">::ApplyModel</text>
</a>
</g>
</g>
<!-- Node13&#45;&gt;Node15 -->
<g id="edge26" class="edge"><title>Node13&#45;&gt;Node15</title>
<path fill="none" stroke="midnightblue" d="M702.097,-83.5C721.109,-83.5 741.519,-83.5 759.924,-83.5"/>
<polygon fill="midnightblue" stroke="midnightblue" points="702.001,-80.0001 692.001,-83.5 702.001,-87.0001 702.001,-80.0001"/>
</g>
<!-- Node16 -->
<g id="node16" class="node"><title>Node16</title>
<g id="a_node16"><a xlink:href="reporter_8cc.xhtml#a73f9569f4c2e2b6a3eac8d2c01b81943" target="_top" xlink:title="Describes all performed analyses deduced from settings. ">
<polygon fill="white" stroke="black" points="734,-19.5 734,-49.5 908,-49.5 908,-19.5 734,-19.5"/>
<text text-anchor="start" x="742" y="-37.5" font-family="Helvetica,sans-Serif" font-size="10.00">scram::ReportCalculatedQuantity</text>
<text text-anchor="middle" x="821" y="-26.5" font-family="Helvetica,sans-Serif" font-size="10.00">&lt; core::RiskAnalysis &gt;</text>
</a>
</g>
</g>
<!-- Node13&#45;&gt;Node16 -->
<g id="edge27" class="edge"><title>Node13&#45;&gt;Node16</title>
<path fill="none" stroke="midnightblue" d="M699.614,-65.8771C720.182,-60.5163 742.584,-54.6775 762.425,-49.5062"/>
<polygon fill="midnightblue" stroke="midnightblue" points="698.478,-62.5563 689.684,-68.4654 700.243,-69.33 698.478,-62.5563"/>
</g>
<!-- Node18&#45;&gt;Node2 -->
<g id="edge31" class="edge"><title>Node18&#45;&gt;Node2</title>
<path fill="none" stroke="midnightblue" d="M304.176,-400.726C328.609,-395.159 358.061,-388.448 384.081,-382.52"/>
<polygon fill="midnightblue" stroke="midnightblue" points="303.357,-397.322 294.385,-402.957 304.912,-404.148 303.357,-397.322"/>
</g>
<!-- Node18&#45;&gt;Node4 -->
<g id="edge30" class="edge"><title>Node18&#45;&gt;Node4</title>
<path fill="none" stroke="midnightblue" d="M331.144,-412.102C345.208,-412.031 359.84,-411.957 373.832,-411.886"/>
<polygon fill="midnightblue" stroke="midnightblue" points="331.004,-408.602 321.022,-412.153 331.039,-415.602 331.004,-408.602"/>
</g>
<!-- Node18&#45;&gt;Node18 -->
<g id="edge32" class="edge"><title>Node18&#45;&gt;Node18</title>
<path fill="none" stroke="midnightblue" d="M216.643,-430.391C217.153,-436.041 228.772,-440.5 251.5,-440.5 284.559,-440.5 294.115,-431.065 280.168,-422.257"/>
<polygon fill="midnightblue" stroke="midnightblue" points="219.562,-432.335 222.832,-422.257 213.991,-428.096 219.562,-432.335"/>
</g>
</g>
</svg>
