<?xml version="1.0" encoding="UTF-8" standalone="no"?>
<!DOCTYPE svg PUBLIC "-//W3C//DTD SVG 1.1//EN"
 "http://www.w3.org/Graphics/SVG/1.1/DTD/svg11.dtd">
<!-- Generated by graphviz version 2.38.0 (20140413.2041)
 -->
<!-- Title: scram::core::Settings::algorithm Pages: 1 -->
<svg width="282pt" height="78pt"
 viewBox="0.00 0.00 282.00 77.50" xmlns="http://www.w3.org/2000/svg" xmlns:xlink="http://www.w3.org/1999/xlink">
<g id="graph0" class="graph" transform="scale(1 1) rotate(0) translate(4 73.5)">
<title>scram::core::Settings::algorithm</title>
<polygon fill="white" stroke="none" points="-4,4 -4,-73.5 278,-73.5 278,4 -4,4"/>
<!-- Node1 -->
<g id="node1" class="node"><title>Node1</title>
<polygon fill="#bfbfbf" stroke="black" points="0,-17 0,-47 119,-47 119,-17 0,-17"/>
<text text-anchor="start" x="8" y="-35" font-family="Helvetica,sans-Serif" font-size="10.00">scram::core::Settings</text>
<text text-anchor="middle" x="59.5" y="-24" font-family="Helvetica,sans-Serif" font-size="10.00">::algorithm</text>
</g>
<!-- Node2 -->
<g id="node2" class="node"><title>Node2</title>
<g id="a_node2"><a xlink:href="classscram_1_1core_1_1Settings.xhtml#a32eb407463c99a8fffe7df8205982fe2" target="_top" xlink:title="Provides a convenient wrapper for algorithm setting from a string. ">
<polygon fill="white" stroke="black" points="155,-39 155,-69 274,-69 274,-39 155,-39"/>
<text text-anchor="start" x="163" y="-57" font-family="Helvetica,sans-Serif" font-size="10.00">scram::core::Settings</text>
<text text-anchor="middle" x="214.5" y="-46" font-family="Helvetica,sans-Serif" font-size="10.00">::algorithm</text>
</a>
</g>
</g>
<!-- Node1&#45;&gt;Node2 -->
<g id="edge1" class="edge"><title>Node1&#45;&gt;Node2</title>
<path fill="none" stroke="midnightblue" d="M129.213,-41.8803C137.803,-43.1155 146.525,-44.3697 154.941,-45.5797"/>
<polygon fill="midnightblue" stroke="midnightblue" points="129.613,-38.4018 119.216,-40.4429 128.616,-45.3306 129.613,-38.4018"/>
</g>
<!-- Node3 -->
<g id="node3" class="node"><title>Node3</title>
<g id="a_node3"><a xlink:href="classscram_1_1Config.xhtml#ab0d7940fbb627fab9867821e133eab5d" target="_top" xlink:title="A constructor with configurations for analysis. ">
<polygon fill="white" stroke="black" points="155,-0.5 155,-19.5 274,-19.5 274,-0.5 155,-0.5"/>
<text text-anchor="middle" x="214.5" y="-7.5" font-family="Helvetica,sans-Serif" font-size="10.00">scram::Config::Config</text>
</a>
</g>
</g>
<!-- Node1&#45;&gt;Node3 -->
<g id="edge2" class="edge"><title>Node1&#45;&gt;Node3</title>
<path fill="none" stroke="midnightblue" d="M129.213,-22.1197C137.803,-20.8845 146.525,-19.6303 154.941,-18.4203"/>
<polygon fill="midnightblue" stroke="midnightblue" points="128.616,-18.6694 119.216,-23.5571 129.613,-25.5982 128.616,-18.6694"/>
</g>
</g>
</svg>
