<?xml version="1.0" encoding="UTF-8" standalone="no"?>
<!DOCTYPE svg PUBLIC "-//W3C//DTD SVG 1.1//EN"
 "http://www.w3.org/Graphics/SVG/1.1/DTD/svg11.dtd">
<!-- Generated by graphviz version 2.38.0 (20140413.2041)
 -->
<!-- Title: scram::xml::Validator::validate Pages: 1 -->
<svg width="288pt" height="39pt"
 viewBox="0.00 0.00 288.00 39.00" xmlns="http://www.w3.org/2000/svg" xmlns:xlink="http://www.w3.org/1999/xlink">
<g id="graph0" class="graph" transform="scale(1 1) rotate(0) translate(4 35)">
<title>scram::xml::Validator::validate</title>
<polygon fill="white" stroke="none" points="-4,4 -4,-35 284,-35 284,4 -4,4"/>
<!-- Node1 -->
<g id="node1" class="node"><title>Node1</title>
<polygon fill="#bfbfbf" stroke="black" points="0,-0.5 0,-30.5 118,-30.5 118,-0.5 0,-0.5"/>
<text text-anchor="start" x="8" y="-18.5" font-family="Helvetica,sans-Serif" font-size="10.00">scram::xml::Validator</text>
<text text-anchor="middle" x="59" y="-7.5" font-family="Helvetica,sans-Serif" font-size="10.00">::validate</text>
</g>
<!-- Node2 -->
<g id="node2" class="node"><title>Node2</title>
<g id="a_node2"><a xlink:href="classscram_1_1xml_1_1Document.xhtml#a1672ae449b286137ae239ef4adfada44" target="_top" xlink:title="Parses XML input document. ">
<polygon fill="white" stroke="black" points="154,-0.5 154,-30.5 280,-30.5 280,-0.5 154,-0.5"/>
<text text-anchor="start" x="162" y="-18.5" font-family="Helvetica,sans-Serif" font-size="10.00">scram::xml::Document</text>
<text text-anchor="middle" x="217" y="-7.5" font-family="Helvetica,sans-Serif" font-size="10.00">::Document</text>
</a>
</g>
</g>
<!-- Node1&#45;&gt;Node2 -->
<g id="edge1" class="edge"><title>Node1&#45;&gt;Node2</title>
<path fill="none" stroke="midnightblue" d="M128.363,-15.5C136.872,-15.5 145.536,-15.5 153.942,-15.5"/>
<polygon fill="midnightblue" stroke="midnightblue" points="128.089,-12.0001 118.089,-15.5 128.089,-19.0001 128.089,-12.0001"/>
</g>
</g>
</svg>
