<?xml version="1.0" encoding="UTF-8" standalone="no"?>
<!DOCTYPE svg PUBLIC "-//W3C//DTD SVG 1.1//EN"
 "http://www.w3.org/Graphics/SVG/1.1/DTD/svg11.dtd">
<!-- Generated by graphviz version 2.38.0 (20140413.2041)
 -->
<!-- Title: scram::mef::FaultTree::CollectTopEvents Pages: 1 -->
<svg width="459pt" height="274pt"
 viewBox="0.00 0.00 459.00 274.00" xmlns="http://www.w3.org/2000/svg" xmlns:xlink="http://www.w3.org/1999/xlink">
<g id="graph0" class="graph" transform="scale(1 1) rotate(0) translate(4 270)">
<title>scram::mef::FaultTree::CollectTopEvents</title>
<polygon fill="white" stroke="none" points="-4,4 -4,-270 455,-270 455,4 -4,4"/>
<!-- Node1 -->
<g id="node1" class="node"><title>Node1</title>
<polygon fill="#bfbfbf" stroke="black" points="0,-122.5 0,-152.5 119,-152.5 119,-122.5 0,-122.5"/>
<text text-anchor="start" x="8" y="-140.5" font-family="Helvetica,sans-Serif" font-size="10.00">scram::mef::FaultTree</text>
<text text-anchor="middle" x="59.5" y="-129.5" font-family="Helvetica,sans-Serif" font-size="10.00">::CollectTopEvents</text>
</g>
<!-- Node2 -->
<g id="node2" class="node"><title>Node2</title>
<g id="a_node2"><a xlink:href="classscram_1_1mef_1_1Formula.xhtml#a4e86a729bae4629de0217c9f8c6960a0" target="_top" xlink:title="scram::mef::Formula\l::event_args">
<polygon fill="white" stroke="black" points="168.5,-235.5 168.5,-265.5 284.5,-265.5 284.5,-235.5 168.5,-235.5"/>
<text text-anchor="start" x="176.5" y="-253.5" font-family="Helvetica,sans-Serif" font-size="10.00">scram::mef::Formula</text>
<text text-anchor="middle" x="226.5" y="-242.5" font-family="Helvetica,sans-Serif" font-size="10.00">::event_args</text>
</a>
</g>
</g>
<!-- Node1&#45;&gt;Node2 -->
<g id="edge1" class="edge"><title>Node1&#45;&gt;Node2</title>
<path fill="none" stroke="midnightblue" d="M73.1105,-152.575C89.978,-171.885 121.649,-205.268 155,-225.5 158.4,-227.563 161.996,-229.49 165.692,-231.284"/>
<polygon fill="midnightblue" stroke="midnightblue" points="164.473,-234.573 175.03,-235.472 167.338,-228.186 164.473,-234.573"/>
</g>
<!-- Node3 -->
<g id="node3" class="node"><title>Node3</title>
<g id="a_node3"><a xlink:href="classscram_1_1mef_1_1Gate.xhtml#abde84a63a060e2424ab92431634f21d9" target="_top" xlink:title="scram::mef::Gate::formula">
<polygon fill="white" stroke="black" points="155,-197 155,-216 298,-216 298,-197 155,-197"/>
<text text-anchor="middle" x="226.5" y="-204" font-family="Helvetica,sans-Serif" font-size="10.00">scram::mef::Gate::formula</text>
</a>
</g>
</g>
<!-- Node1&#45;&gt;Node3 -->
<g id="edge2" class="edge"><title>Node1&#45;&gt;Node3</title>
<path fill="none" stroke="midnightblue" d="M85.4384,-152.672C104.081,-163.519 130.474,-177.847 155,-187.5 161.182,-189.933 167.787,-192.166 174.383,-194.179"/>
<polygon fill="midnightblue" stroke="midnightblue" points="173.411,-197.541 183.991,-196.969 175.363,-190.819 173.411,-197.541"/>
</g>
<!-- Node4 -->
<g id="node4" class="node"><title>Node4</title>
<g id="a_node4"><a xlink:href="classscram_1_1mef_1_1Formula.xhtml#af3c5953f817cc202b5009cc4557c7d72" target="_top" xlink:title="scram::mef::Formula\l::formula_args">
<polygon fill="white" stroke="black" points="168.5,-147.5 168.5,-177.5 284.5,-177.5 284.5,-147.5 168.5,-147.5"/>
<text text-anchor="start" x="176.5" y="-165.5" font-family="Helvetica,sans-Serif" font-size="10.00">scram::mef::Formula</text>
<text text-anchor="middle" x="226.5" y="-154.5" font-family="Helvetica,sans-Serif" font-size="10.00">::formula_args</text>
</a>
</g>
</g>
<!-- Node1&#45;&gt;Node4 -->
<g id="edge3" class="edge"><title>Node1&#45;&gt;Node4</title>
<path fill="none" stroke="midnightblue" d="M119.137,-146.384C131.782,-148.3 145.245,-150.34 158.191,-152.302"/>
<polygon fill="midnightblue" stroke="midnightblue" points="158.025,-155.816 168.437,-153.854 159.074,-148.895 158.025,-155.816"/>
</g>
<!-- Node5 -->
<g id="node5" class="node"><title>Node5</title>
<g id="a_node5"><a xlink:href="classscram_1_1mef_1_1Component.xhtml#ad246305a79904f65b36157096464703b" target="_top" xlink:title="scram::mef::Component\l::gates">
<polygon fill="white" stroke="black" points="159.5,-98.5 159.5,-128.5 293.5,-128.5 293.5,-98.5 159.5,-98.5"/>
<text text-anchor="start" x="167.5" y="-116.5" font-family="Helvetica,sans-Serif" font-size="10.00">scram::mef::Component</text>
<text text-anchor="middle" x="226.5" y="-105.5" font-family="Helvetica,sans-Serif" font-size="10.00">::gates</text>
</a>
</g>
</g>
<!-- Node1&#45;&gt;Node5 -->
<g id="edge4" class="edge"><title>Node1&#45;&gt;Node5</title>
<path fill="none" stroke="midnightblue" d="M119.137,-128.971C128.933,-127.546 139.219,-126.05 149.376,-124.573"/>
<polygon fill="midnightblue" stroke="midnightblue" points="150.075,-128.008 159.467,-123.105 149.067,-121.081 150.075,-128.008"/>
</g>
<!-- Node6 -->
<g id="node6" class="node"><title>Node6</title>
<g id="a_node6"><a xlink:href="classscram_1_1mef_1_1Component.xhtml#a63441da08667fe6826f3ae0c0a5a94fe" target="_top" xlink:title="Recursively traverses components to gather gates relevant to the whole component. ...">
<polygon fill="white" stroke="black" points="159.5,-49.5 159.5,-79.5 293.5,-79.5 293.5,-49.5 159.5,-49.5"/>
<text text-anchor="start" x="167.5" y="-67.5" font-family="Helvetica,sans-Serif" font-size="10.00">scram::mef::Component</text>
<text text-anchor="middle" x="226.5" y="-56.5" font-family="Helvetica,sans-Serif" font-size="10.00">::GatherGates</text>
</a>
</g>
</g>
<!-- Node1&#45;&gt;Node6 -->
<g id="edge5" class="edge"><title>Node1&#45;&gt;Node6</title>
<path fill="none" stroke="midnightblue" d="M87.7573,-122.472C106.398,-112.49 131.833,-99.4419 155,-89.5 160.072,-87.3234 165.403,-85.1805 170.767,-83.1201"/>
<polygon fill="midnightblue" stroke="midnightblue" points="172.271,-86.2943 180.41,-79.5109 169.817,-79.7385 172.271,-86.2943"/>
</g>
<!-- Node8 -->
<g id="node8" class="node"><title>Node8</title>
<g id="a_node8"><a xlink:href="classscram_1_1mef_1_1NodeMark.xhtml#ae433446a44a3ae40ec411b08916ec4ca" target="_top" xlink:title="scram::mef::NodeMark\l::mark">
<polygon fill="white" stroke="black" points="163.5,-0.5 163.5,-30.5 289.5,-30.5 289.5,-0.5 163.5,-0.5"/>
<text text-anchor="start" x="171.5" y="-18.5" font-family="Helvetica,sans-Serif" font-size="10.00">scram::mef::NodeMark</text>
<text text-anchor="middle" x="226.5" y="-7.5" font-family="Helvetica,sans-Serif" font-size="10.00">::mark</text>
</a>
</g>
</g>
<!-- Node1&#45;&gt;Node8 -->
<g id="edge7" class="edge"><title>Node1&#45;&gt;Node8</title>
<path fill="none" stroke="midnightblue" d="M71.6577,-122.258C87.8377,-101.149 119.758,-63.0696 155,-40.5 158.137,-38.4908 161.457,-36.618 164.878,-34.8762"/>
<polygon fill="midnightblue" stroke="midnightblue" points="166.534,-37.9661 174.118,-30.568 163.575,-31.6219 166.534,-37.9661"/>
</g>
<!-- Node7 -->
<g id="node7" class="node"><title>Node7</title>
<g id="a_node7"><a xlink:href="classscram_1_1mef_1_1Element.xhtml#adb401e2ca84aa98cb60797bec2500a81" target="_top" xlink:title="scram::mef::Element\l::name">
<polygon fill="white" stroke="black" points="334,-49.5 334,-79.5 451,-79.5 451,-49.5 334,-49.5"/>
<text text-anchor="start" x="342" y="-67.5" font-family="Helvetica,sans-Serif" font-size="10.00">scram::mef::Element</text>
<text text-anchor="middle" x="392.5" y="-56.5" font-family="Helvetica,sans-Serif" font-size="10.00">::name</text>
</a>
</g>
</g>
<!-- Node6&#45;&gt;Node7 -->
<g id="edge6" class="edge"><title>Node6&#45;&gt;Node7</title>
<path fill="none" stroke="midnightblue" d="M293.732,-64.5C303.629,-64.5 313.845,-64.5 323.772,-64.5"/>
<polygon fill="midnightblue" stroke="midnightblue" points="323.988,-68.0001 333.988,-64.5 323.988,-61.0001 323.988,-68.0001"/>
</g>
</g>
</svg>
