<?xml version="1.0" encoding="UTF-8" standalone="no"?>
<!DOCTYPE svg PUBLIC "-//W3C//DTD SVG 1.1//EN"
 "http://www.w3.org/Graphics/SVG/1.1/DTD/svg11.dtd">
<!-- Generated by graphviz version 2.38.0 (20140413.2041)
 -->
<!-- Title: scram::mef::EventTree Pages: 1 -->
<svg width="252pt" height="551pt"
 viewBox="0.00 0.00 251.50 551.00" xmlns="http://www.w3.org/2000/svg" xmlns:xlink="http://www.w3.org/1999/xlink">
<g id="graph0" class="graph" transform="scale(1 1) rotate(0) translate(4 547)">
<title>scram::mef::EventTree</title>
<polygon fill="white" stroke="none" points="-4,4 -4,-547 247.5,-547 247.5,4 -4,4"/>
<!-- Node1 -->
<g id="node1" class="node"><title>Node1</title>
<polygon fill="#bfbfbf" stroke="black" points="61.5,-0.5 61.5,-233.5 185.5,-233.5 185.5,-0.5 61.5,-0.5"/>
<text text-anchor="middle" x="123.5" y="-221.5" font-family="Helvetica,sans-Serif" font-size="10.00">scram::mef::EventTree</text>
<polyline fill="none" stroke="black" points="61.5,-214.5 185.5,-214.5 "/>
<text text-anchor="middle" x="123.5" y="-202.5" font-family="Helvetica,sans-Serif" font-size="10.00"> </text>
<polyline fill="none" stroke="black" points="61.5,-195.5 185.5,-195.5 "/>
<text text-anchor="start" x="69.5" y="-183.5" font-family="Helvetica,sans-Serif" font-size="10.00">+ initial_state()</text>
<text text-anchor="start" x="69.5" y="-172.5" font-family="Helvetica,sans-Serif" font-size="10.00">+ initial_state()</text>
<text text-anchor="start" x="69.5" y="-161.5" font-family="Helvetica,sans-Serif" font-size="10.00">+ functional_events()</text>
<text text-anchor="start" x="69.5" y="-150.5" font-family="Helvetica,sans-Serif" font-size="10.00">+ branches()</text>
<text text-anchor="start" x="69.5" y="-139.5" font-family="Helvetica,sans-Serif" font-size="10.00">+ Add()</text>
<text text-anchor="start" x="69.5" y="-128.5" font-family="Helvetica,sans-Serif" font-size="10.00">+ Add()</text>
<text text-anchor="start" x="69.5" y="-117.5" font-family="Helvetica,sans-Serif" font-size="10.00">+ Add()</text>
<text text-anchor="start" x="69.5" y="-106.5" font-family="Helvetica,sans-Serif" font-size="10.00">+ Add()</text>
<text text-anchor="start" x="69.5" y="-95.5" font-family="Helvetica,sans-Serif" font-size="10.00">* sequences_</text>
<text text-anchor="start" x="69.5" y="-84.5" font-family="Helvetica,sans-Serif" font-size="10.00">* functional_events_</text>
<text text-anchor="start" x="69.5" y="-73.5" font-family="Helvetica,sans-Serif" font-size="10.00">* branches_</text>
<text text-anchor="start" x="69.5" y="-62.5" font-family="Helvetica,sans-Serif" font-size="10.00">* functional_events()</text>
<text text-anchor="start" x="69.5" y="-51.5" font-family="Helvetica,sans-Serif" font-size="10.00">* branches()</text>
<text text-anchor="start" x="69.5" y="-40.5" font-family="Helvetica,sans-Serif" font-size="10.00">* Add()</text>
<text text-anchor="start" x="69.5" y="-29.5" font-family="Helvetica,sans-Serif" font-size="10.00">* Add()</text>
<text text-anchor="start" x="69.5" y="-18.5" font-family="Helvetica,sans-Serif" font-size="10.00">* Add()</text>
<text text-anchor="start" x="69.5" y="-7.5" font-family="Helvetica,sans-Serif" font-size="10.00">* Add()</text>
</g>
<!-- Node2 -->
<g id="node2" class="node"><title>Node2</title>
<g id="a_node2"><a xlink:href="classscram_1_1mef_1_1Element.xhtml" target="_top" xlink:title="Mixin class that represents any element of analysis that can have extra descriptions, such as attributes and a label. ">
<polygon fill="white" stroke="black" points="0,-270.5 0,-448.5 117,-448.5 117,-270.5 0,-270.5"/>
<text text-anchor="middle" x="58.5" y="-436.5" font-family="Helvetica,sans-Serif" font-size="10.00">scram::mef::Element</text>
<polyline fill="none" stroke="black" points="0,-429.5 117,-429.5 "/>
<text text-anchor="middle" x="58.5" y="-417.5" font-family="Helvetica,sans-Serif" font-size="10.00"> </text>
<polyline fill="none" stroke="black" points="0,-410.5 117,-410.5 "/>
<text text-anchor="start" x="8" y="-398.5" font-family="Helvetica,sans-Serif" font-size="10.00">+ Element()</text>
<text text-anchor="start" x="8" y="-387.5" font-family="Helvetica,sans-Serif" font-size="10.00">+ name()</text>
<text text-anchor="start" x="8" y="-376.5" font-family="Helvetica,sans-Serif" font-size="10.00">+ label()</text>
<text text-anchor="start" x="8" y="-365.5" font-family="Helvetica,sans-Serif" font-size="10.00">+ label()</text>
<text text-anchor="start" x="8" y="-354.5" font-family="Helvetica,sans-Serif" font-size="10.00">+ attributes()</text>
<text text-anchor="start" x="8" y="-343.5" font-family="Helvetica,sans-Serif" font-size="10.00">+ AddAttribute()</text>
<text text-anchor="start" x="8" y="-332.5" font-family="Helvetica,sans-Serif" font-size="10.00">+ SetAttribute()</text>
<text text-anchor="start" x="8" y="-321.5" font-family="Helvetica,sans-Serif" font-size="10.00">+ HasAttribute()</text>
<text text-anchor="start" x="8" y="-310.5" font-family="Helvetica,sans-Serif" font-size="10.00">+ GetAttribute()</text>
<text text-anchor="start" x="8" y="-299.5" font-family="Helvetica,sans-Serif" font-size="10.00">+ RemoveAttribute()</text>
<text text-anchor="start" x="8" y="-288.5" font-family="Helvetica,sans-Serif" font-size="10.00"># ~Element()</text>
<text text-anchor="start" x="8" y="-277.5" font-family="Helvetica,sans-Serif" font-size="10.00"># name()</text>
</a>
</g>
</g>
<!-- Node2&#45;&gt;Node1 -->
<g id="edge1" class="edge"><title>Node2&#45;&gt;Node1</title>
<path fill="none" stroke="midnightblue" d="M85.0044,-260.434C87.3885,-251.612 89.8172,-242.626 92.2368,-233.674"/>
<polygon fill="none" stroke="midnightblue" points="81.5649,-259.745 82.3345,-270.312 88.3224,-261.572 81.5649,-259.745"/>
</g>
<!-- Node3 -->
<g id="node3" class="node"><title>Node3</title>
<polygon fill="white" stroke="#bfbfbf" points="20,-485.5 20,-542.5 97,-542.5 97,-485.5 20,-485.5"/>
<text text-anchor="middle" x="58.5" y="-530.5" font-family="Helvetica,sans-Serif" font-size="10.00">noncopyable</text>
<polyline fill="none" stroke="#bfbfbf" points="20,-523.5 97,-523.5 "/>
<text text-anchor="middle" x="58.5" y="-511.5" font-family="Helvetica,sans-Serif" font-size="10.00"> </text>
<polyline fill="none" stroke="#bfbfbf" points="20,-504.5 97,-504.5 "/>
<text text-anchor="middle" x="58.5" y="-492.5" font-family="Helvetica,sans-Serif" font-size="10.00"> </text>
</g>
<!-- Node3&#45;&gt;Node2 -->
<g id="edge2" class="edge"><title>Node3&#45;&gt;Node2</title>
<path fill="none" stroke="#8b1a1a" d="M58.5,-475.374C58.5,-467.089 58.5,-457.977 58.5,-448.62"/>
<polygon fill="none" stroke="#8b1a1a" points="55.0001,-475.383 58.5,-485.383 62.0001,-475.383 55.0001,-475.383"/>
</g>
<!-- Node4 -->
<g id="node4" class="node"><title>Node4</title>
<g id="a_node4"><a xlink:href="classscram_1_1mef_1_1Usage.xhtml" target="_top" xlink:title="Mixin class for providing usage marks for elements. ">
<polygon fill="white" stroke="black" points="135.5,-320 135.5,-399 243.5,-399 243.5,-320 135.5,-320"/>
<text text-anchor="middle" x="189.5" y="-387" font-family="Helvetica,sans-Serif" font-size="10.00">scram::mef::Usage</text>
<polyline fill="none" stroke="black" points="135.5,-380 243.5,-380 "/>
<text text-anchor="middle" x="189.5" y="-368" font-family="Helvetica,sans-Serif" font-size="10.00"> </text>
<polyline fill="none" stroke="black" points="135.5,-361 243.5,-361 "/>
<text text-anchor="start" x="143.5" y="-349" font-family="Helvetica,sans-Serif" font-size="10.00">+ usage()</text>
<text text-anchor="start" x="143.5" y="-338" font-family="Helvetica,sans-Serif" font-size="10.00">+ usage()</text>
<text text-anchor="start" x="143.5" y="-327" font-family="Helvetica,sans-Serif" font-size="10.00"># ~Usage()</text>
</a>
</g>
</g>
<!-- Node4&#45;&gt;Node1 -->
<g id="edge3" class="edge"><title>Node4&#45;&gt;Node1</title>
<path fill="none" stroke="midnightblue" d="M176.209,-310.069C170.135,-287.934 162.654,-260.675 155.257,-233.719"/>
<polygon fill="none" stroke="midnightblue" points="172.874,-311.142 178.896,-319.86 179.625,-309.29 172.874,-311.142"/>
</g>
</g>
</svg>
