<?xml version="1.0" encoding="UTF-8" standalone="no"?>
<!DOCTYPE svg PUBLIC "-//W3C//DTD SVG 1.1//EN"
 "http://www.w3.org/Graphics/SVG/1.1/DTD/svg11.dtd">
<!-- Generated by graphviz version 2.38.0 (20140413.2041)
 -->
<!-- Title: scram::mef::Model::Add Pages: 1 -->
<svg width="454pt" height="137pt"
 viewBox="0.00 0.00 454.00 137.00" xmlns="http://www.w3.org/2000/svg" xmlns:xlink="http://www.w3.org/1999/xlink">
<g id="graph0" class="graph" transform="scale(1 1) rotate(0) translate(4 133)">
<title>scram::mef::Model::Add</title>
<polygon fill="white" stroke="none" points="-4,4 -4,-133 450,-133 450,4 -4,4"/>
<!-- Node1 -->
<g id="node1" class="node"><title>Node1</title>
<polygon fill="#bfbfbf" stroke="black" points="0,-55 0,-74 131,-74 131,-55 0,-55"/>
<text text-anchor="middle" x="65.5" y="-62" font-family="Helvetica,sans-Serif" font-size="10.00">scram::mef::Model::Add</text>
</g>
<!-- Node2 -->
<g id="node2" class="node"><title>Node2</title>
<g id="a_node2"><a xlink:href="classscram_1_1mef_1_1Model.xhtml#a73983f66319f63a3f663c5fb318a2620" target="_top" xlink:title="Adds MEF constructs into the model container. ">
<polygon fill="white" stroke="black" points="167,-99 167,-118 298,-118 298,-99 167,-99"/>
<text text-anchor="middle" x="232.5" y="-106" font-family="Helvetica,sans-Serif" font-size="10.00">scram::mef::Model::Add</text>
</a>
</g>
</g>
<!-- Node1&#45;&gt;Node2 -->
<g id="edge1" class="edge"><title>Node1&#45;&gt;Node2</title>
<path fill="none" stroke="midnightblue" d="M102.303,-74.0473C126.843,-80.5916 159.604,-89.3278 185.995,-96.3654"/>
<polygon fill="midnightblue" stroke="midnightblue" points="185.203,-99.7764 195.767,-98.9713 187.007,-93.0128 185.203,-99.7764"/>
</g>
<!-- Node3 -->
<g id="node3" class="node"><title>Node3</title>
<g id="a_node3"><a xlink:href="classscram_1_1mef_1_1Model.xhtml#aaebfa79fb3fbf5d2987f6bbc9c4a9b67" target="_top" xlink:title="Convenience function to retrieve an event with its ID. ">
<polygon fill="white" stroke="black" points="176.5,-49.5 176.5,-79.5 288.5,-79.5 288.5,-49.5 176.5,-49.5"/>
<text text-anchor="start" x="184.5" y="-67.5" font-family="Helvetica,sans-Serif" font-size="10.00">scram::mef::Model::</text>
<text text-anchor="middle" x="232.5" y="-56.5" font-family="Helvetica,sans-Serif" font-size="10.00">GetEvent</text>
</a>
</g>
</g>
<!-- Node1&#45;&gt;Node3 -->
<g id="edge2" class="edge"><title>Node1&#45;&gt;Node3</title>
<path fill="none" stroke="midnightblue" d="M131.239,-64.5C142.644,-64.5 154.525,-64.5 165.953,-64.5"/>
<polygon fill="midnightblue" stroke="midnightblue" points="166.293,-68.0001 176.293,-64.5 166.293,-61.0001 166.293,-68.0001"/>
</g>
<!-- Node7 -->
<g id="node7" class="node"><title>Node7</title>
<g id="a_node7"><a xlink:href="classscram_1_1mef_1_1Model.xhtml#a29c599ffb3b083ebc34fc0cef1ceeac7" target="_top" xlink:title="Removes MEF constructs from the model container. ">
<polygon fill="white" stroke="black" points="176.5,-0.5 176.5,-30.5 288.5,-30.5 288.5,-0.5 176.5,-0.5"/>
<text text-anchor="start" x="184.5" y="-18.5" font-family="Helvetica,sans-Serif" font-size="10.00">scram::mef::Model::</text>
<text text-anchor="middle" x="232.5" y="-7.5" font-family="Helvetica,sans-Serif" font-size="10.00">Remove</text>
</a>
</g>
</g>
<!-- Node1&#45;&gt;Node7 -->
<g id="edge6" class="edge"><title>Node1&#45;&gt;Node7</title>
<path fill="none" stroke="midnightblue" d="M98.7054,-54.936C119.321,-48.8137 146.713,-40.6792 171.262,-33.3889"/>
<polygon fill="midnightblue" stroke="midnightblue" points="172.276,-36.739 180.865,-30.537 170.283,-30.0287 172.276,-36.739"/>
</g>
<!-- Node4 -->
<g id="node4" class="node"><title>Node4</title>
<g id="a_node4"><a xlink:href="classscram_1_1mef_1_1Model.xhtml#ada7804d62fc594bff7b080c680586209" target="_top" xlink:title="scram::mef::Model::\lbasic_events">
<polygon fill="white" stroke="black" points="334,-98.5 334,-128.5 446,-128.5 446,-98.5 334,-98.5"/>
<text text-anchor="start" x="342" y="-116.5" font-family="Helvetica,sans-Serif" font-size="10.00">scram::mef::Model::</text>
<text text-anchor="middle" x="390" y="-105.5" font-family="Helvetica,sans-Serif" font-size="10.00">basic_events</text>
</a>
</g>
</g>
<!-- Node3&#45;&gt;Node4 -->
<g id="edge3" class="edge"><title>Node3&#45;&gt;Node4</title>
<path fill="none" stroke="midnightblue" d="M281.424,-79.6014C297.313,-84.6083 315.161,-90.2324 331.684,-95.439"/>
<polygon fill="midnightblue" stroke="midnightblue" points="330.645,-98.7811 341.234,-98.4484 332.749,-92.1047 330.645,-98.7811"/>
</g>
<!-- Node5 -->
<g id="node5" class="node"><title>Node5</title>
<g id="a_node5"><a xlink:href="classscram_1_1mef_1_1Model.xhtml#ab67ee068ec7f783c7b3c573270cf4fdb" target="_top" xlink:title="scram::mef::Model::\lgates">
<polygon fill="white" stroke="black" points="334,-49.5 334,-79.5 446,-79.5 446,-49.5 334,-49.5"/>
<text text-anchor="start" x="342" y="-67.5" font-family="Helvetica,sans-Serif" font-size="10.00">scram::mef::Model::</text>
<text text-anchor="middle" x="390" y="-56.5" font-family="Helvetica,sans-Serif" font-size="10.00">gates</text>
</a>
</g>
</g>
<!-- Node3&#45;&gt;Node5 -->
<g id="edge4" class="edge"><title>Node3&#45;&gt;Node5</title>
<path fill="none" stroke="midnightblue" d="M288.761,-64.5C300.104,-64.5 312.146,-64.5 323.801,-64.5"/>
<polygon fill="midnightblue" stroke="midnightblue" points="323.917,-68.0001 333.917,-64.5 323.917,-61.0001 323.917,-68.0001"/>
</g>
<!-- Node6 -->
<g id="node6" class="node"><title>Node6</title>
<g id="a_node6"><a xlink:href="classscram_1_1mef_1_1Model.xhtml#a2ddd6d121e1ab6fbe140fc3fb449cd96" target="_top" xlink:title="scram::mef::Model::\lhouse_events">
<polygon fill="white" stroke="black" points="334,-0.5 334,-30.5 446,-30.5 446,-0.5 334,-0.5"/>
<text text-anchor="start" x="342" y="-18.5" font-family="Helvetica,sans-Serif" font-size="10.00">scram::mef::Model::</text>
<text text-anchor="middle" x="390" y="-7.5" font-family="Helvetica,sans-Serif" font-size="10.00">house_events</text>
</a>
</g>
</g>
<!-- Node3&#45;&gt;Node6 -->
<g id="edge5" class="edge"><title>Node3&#45;&gt;Node6</title>
<path fill="none" stroke="midnightblue" d="M281.424,-49.3986C297.313,-44.3917 315.161,-38.7676 331.684,-33.561"/>
<polygon fill="midnightblue" stroke="midnightblue" points="332.749,-36.8953 341.234,-30.5516 330.645,-30.2189 332.749,-36.8953"/>
</g>
</g>
</svg>
