<?xml version="1.0" encoding="UTF-8" standalone="no"?>
<!DOCTYPE svg PUBLIC "-//W3C//DTD SVG 1.1//EN"
 "http://www.w3.org/Graphics/SVG/1.1/DTD/svg11.dtd">
<!-- Generated by graphviz version 2.38.0 (20140413.2041)
 -->
<!-- Title: scram::mef::Formula::type Pages: 1 -->
<svg width="325pt" height="145pt"
 viewBox="0.00 0.00 325.00 144.50" xmlns="http://www.w3.org/2000/svg" xmlns:xlink="http://www.w3.org/1999/xlink">
<g id="graph0" class="graph" transform="scale(1 1) rotate(0) translate(4 140.5)">
<title>scram::mef::Formula::type</title>
<polygon fill="white" stroke="none" points="-4,4 -4,-140.5 321,-140.5 321,4 -4,4"/>
<!-- Node1 -->
<g id="node1" class="node"><title>Node1</title>
<polygon fill="#bfbfbf" stroke="black" points="0,-57 0,-87 116,-87 116,-57 0,-57"/>
<text text-anchor="start" x="8" y="-75" font-family="Helvetica,sans-Serif" font-size="10.00">scram::mef::Formula</text>
<text text-anchor="middle" x="58" y="-64" font-family="Helvetica,sans-Serif" font-size="10.00">::type</text>
</g>
<!-- Node2 -->
<g id="node2" class="node"><title>Node2</title>
<g id="a_node2"><a xlink:href="classscram_1_1core_1_1Pdag.xhtml#a56889d42789fd85e8083e02cf15aef28" target="_top" xlink:title="Specialization for BasicEvent arguments. ">
<polygon fill="white" stroke="black" points="179.5,-106 179.5,-136 289.5,-136 289.5,-106 179.5,-106"/>
<text text-anchor="start" x="187.5" y="-124" font-family="Helvetica,sans-Serif" font-size="10.00">scram::core::Pdag::</text>
<text text-anchor="middle" x="234.5" y="-113" font-family="Helvetica,sans-Serif" font-size="10.00">AddArg</text>
</a>
</g>
</g>
<!-- Node1&#45;&gt;Node2 -->
<g id="edge1" class="edge"><title>Node1&#45;&gt;Node2</title>
<path fill="none" stroke="midnightblue" d="M122.465,-89.8212C141.306,-95.1118 161.749,-100.852 179.898,-105.948"/>
<polygon fill="midnightblue" stroke="midnightblue" points="123.353,-86.4353 112.78,-87.1014 121.461,-93.1746 123.353,-86.4353"/>
</g>
<!-- Node3 -->
<g id="node3" class="node"><title>Node3</title>
<g id="a_node3"><a xlink:href="classscram_1_1core_1_1EventTreeAnalysis.xhtml#a3e3404417cbdcf92474e5653ec24f936" target="_top" xlink:title="scram::core::EventTreeAnalysis\l::EventTreeAnalysis">
<polygon fill="white" stroke="black" points="152,-57 152,-87 317,-87 317,-57 152,-57"/>
<text text-anchor="start" x="160" y="-75" font-family="Helvetica,sans-Serif" font-size="10.00">scram::core::EventTreeAnalysis</text>
<text text-anchor="middle" x="234.5" y="-64" font-family="Helvetica,sans-Serif" font-size="10.00">::EventTreeAnalysis</text>
</a>
</g>
</g>
<!-- Node1&#45;&gt;Node3 -->
<g id="edge2" class="edge"><title>Node1&#45;&gt;Node3</title>
<path fill="none" stroke="midnightblue" d="M126.225,-72C134.619,-72 143.275,-72 151.858,-72"/>
<polygon fill="midnightblue" stroke="midnightblue" points="126.138,-68.5001 116.138,-72 126.138,-75.5001 126.138,-68.5001"/>
</g>
<!-- Node4 -->
<g id="node4" class="node"><title>Node4</title>
<g id="a_node4"><a xlink:href="serialization_8cc.xhtml#a83f7058a5caad9ec3ffb5fd6c7d7b8f6" target="_top" xlink:title="Convenience function for serialization into a file. ">
<polygon fill="white" stroke="black" points="175.5,-0.5 175.5,-19.5 293.5,-19.5 293.5,-0.5 175.5,-0.5"/>
<text text-anchor="middle" x="234.5" y="-7.5" font-family="Helvetica,sans-Serif" font-size="10.00">scram::mef::Serialize</text>
</a>
</g>
</g>
<!-- Node1&#45;&gt;Node4 -->
<g id="edge3" class="edge"><title>Node1&#45;&gt;Node4</title>
<path fill="none" stroke="midnightblue" d="M110.746,-53.6146C142.215,-42.4337 181.112,-28.6133 206.578,-19.5654"/>
<polygon fill="midnightblue" stroke="midnightblue" points="109.493,-50.3455 101.242,-56.9915 111.836,-56.9415 109.493,-50.3455"/>
</g>
<!-- Node4&#45;&gt;Node4 -->
<g id="edge4" class="edge"><title>Node4&#45;&gt;Node4</title>
<path fill="none" stroke="midnightblue" d="M201.517,-27.8913C202,-33.5406 212.994,-38 234.5,-38 265.781,-38 274.823,-28.5653 261.627,-19.7571"/>
<polygon fill="midnightblue" stroke="midnightblue" points="204.371,-29.9175 207.373,-19.7571 198.69,-25.8273 204.371,-29.9175"/>
</g>
</g>
</svg>
