<?xml version="1.0" encoding="UTF-8" standalone="no"?>
<!DOCTYPE svg PUBLIC "-//W3C//DTD SVG 1.1//EN"
 "http://www.w3.org/Graphics/SVG/1.1/DTD/svg11.dtd">
<!-- Generated by graphviz version 2.38.0 (20140413.2041)
 -->
<!-- Title: scram::mef::EventTree::Add Pages: 1 -->
<svg width="345pt" height="88pt"
 viewBox="0.00 0.00 345.00 88.00" xmlns="http://www.w3.org/2000/svg" xmlns:xlink="http://www.w3.org/1999/xlink">
<g id="graph0" class="graph" transform="scale(1 1) rotate(0) translate(4 84)">
<title>scram::mef::EventTree::Add</title>
<polygon fill="white" stroke="none" points="-4,4 -4,-84 341,-84 341,4 -4,4"/>
<!-- Node1 -->
<g id="node1" class="node"><title>Node1</title>
<polygon fill="#bfbfbf" stroke="black" points="0,-30 0,-49 149,-49 149,-30 0,-30"/>
<text text-anchor="middle" x="74.5" y="-37" font-family="Helvetica,sans-Serif" font-size="10.00">scram::mef::EventTree::Add</text>
</g>
<!-- Node2 -->
<g id="node2" class="node"><title>Node2</title>
<g id="a_node2"><a xlink:href="classscram_1_1mef_1_1Fork.xhtml#a673197bb550b4b62db7fae7c8a0bd6dc" target="_top" xlink:title="scram::mef::Fork::functional\l_event">
<polygon fill="white" stroke="black" points="186,-49.5 186,-79.5 336,-79.5 336,-49.5 186,-49.5"/>
<text text-anchor="start" x="194" y="-67.5" font-family="Helvetica,sans-Serif" font-size="10.00">scram::mef::Fork::functional</text>
<text text-anchor="middle" x="261" y="-56.5" font-family="Helvetica,sans-Serif" font-size="10.00">_event</text>
</a>
</g>
</g>
<!-- Node1&#45;&gt;Node2 -->
<g id="edge1" class="edge"><title>Node1&#45;&gt;Node2</title>
<path fill="none" stroke="midnightblue" d="M145.778,-49.0227C155.63,-50.3578 165.838,-51.7409 175.915,-53.1063"/>
<polygon fill="midnightblue" stroke="midnightblue" points="175.55,-56.5888 185.93,-54.4634 176.49,-49.6522 175.55,-56.5888"/>
</g>
<!-- Node3 -->
<g id="node3" class="node"><title>Node3</title>
<g id="a_node3"><a xlink:href="classscram_1_1mef_1_1FunctionalEvent.xhtml#a30eb85c55698bafe4bab0670d019c157" target="_top" xlink:title="scram::mef::FunctionalEvent\l::order">
<polygon fill="white" stroke="black" points="185,-0.5 185,-30.5 337,-30.5 337,-0.5 185,-0.5"/>
<text text-anchor="start" x="193" y="-18.5" font-family="Helvetica,sans-Serif" font-size="10.00">scram::mef::FunctionalEvent</text>
<text text-anchor="middle" x="261" y="-7.5" font-family="Helvetica,sans-Serif" font-size="10.00">::order</text>
</a>
</g>
</g>
<!-- Node1&#45;&gt;Node3 -->
<g id="edge2" class="edge"><title>Node1&#45;&gt;Node3</title>
<path fill="none" stroke="midnightblue" d="M148.684,-29.9801C157.217,-28.8701 165.977,-27.7306 174.656,-26.6017"/>
<polygon fill="midnightblue" stroke="midnightblue" points="175.322,-30.0445 184.787,-25.2838 174.419,-23.103 175.322,-30.0445"/>
</g>
</g>
</svg>
