<?xml version="1.0" encoding="UTF-8" standalone="no"?>
<!DOCTYPE svg PUBLIC "-//W3C//DTD SVG 1.1//EN"
 "http://www.w3.org/Graphics/SVG/1.1/DTD/svg11.dtd">
<!-- Generated by graphviz version 2.38.0 (20140413.2041)
 -->
<!-- Title: scram::mef::Formula::vote_number Pages: 1 -->
<svg width="278pt" height="96pt"
 viewBox="0.00 0.00 278.00 95.50" xmlns="http://www.w3.org/2000/svg" xmlns:xlink="http://www.w3.org/1999/xlink">
<g id="graph0" class="graph" transform="scale(1 1) rotate(0) translate(4 91.5)">
<title>scram::mef::Formula::vote_number</title>
<polygon fill="white" stroke="none" points="-4,4 -4,-91.5 274,-91.5 274,4 -4,4"/>
<!-- Node1 -->
<g id="node1" class="node"><title>Node1</title>
<polygon fill="#bfbfbf" stroke="black" points="0,-26 0,-56 116,-56 116,-26 0,-26"/>
<text text-anchor="start" x="8" y="-44" font-family="Helvetica,sans-Serif" font-size="10.00">scram::mef::Formula</text>
<text text-anchor="middle" x="58" y="-33" font-family="Helvetica,sans-Serif" font-size="10.00">::vote_number</text>
</g>
<!-- Node2 -->
<g id="node2" class="node"><title>Node2</title>
<g id="a_node2"><a xlink:href="classscram_1_1core_1_1Pdag.xhtml#a56889d42789fd85e8083e02cf15aef28" target="_top" xlink:title="Specialization for BasicEvent arguments. ">
<polygon fill="white" stroke="black" points="156,-57 156,-87 266,-87 266,-57 156,-57"/>
<text text-anchor="start" x="164" y="-75" font-family="Helvetica,sans-Serif" font-size="10.00">scram::core::Pdag::</text>
<text text-anchor="middle" x="211" y="-64" font-family="Helvetica,sans-Serif" font-size="10.00">AddArg</text>
</a>
</g>
</g>
<!-- Node1&#45;&gt;Node2 -->
<g id="edge1" class="edge"><title>Node1&#45;&gt;Node2</title>
<path fill="none" stroke="midnightblue" d="M125.978,-54.7504C135.963,-56.8003 146.149,-58.8914 155.825,-60.8781"/>
<polygon fill="midnightblue" stroke="midnightblue" points="126.586,-51.3024 116.087,-52.7198 125.178,-58.1594 126.586,-51.3024"/>
</g>
<!-- Node3 -->
<g id="node3" class="node"><title>Node3</title>
<g id="a_node3"><a xlink:href="serialization_8cc.xhtml#a83f7058a5caad9ec3ffb5fd6c7d7b8f6" target="_top" xlink:title="Convenience function for serialization into a file. ">
<polygon fill="white" stroke="black" points="152,-0.5 152,-19.5 270,-19.5 270,-0.5 152,-0.5"/>
<text text-anchor="middle" x="211" y="-7.5" font-family="Helvetica,sans-Serif" font-size="10.00">scram::mef::Serialize</text>
</a>
</g>
</g>
<!-- Node1&#45;&gt;Node3 -->
<g id="edge2" class="edge"><title>Node1&#45;&gt;Node3</title>
<path fill="none" stroke="midnightblue" d="M126.146,-27.2151C138.808,-24.6155 151.788,-21.9508 163.637,-19.5183"/>
<polygon fill="midnightblue" stroke="midnightblue" points="125.178,-23.8406 116.087,-29.2802 126.586,-30.6976 125.178,-23.8406"/>
</g>
<!-- Node3&#45;&gt;Node3 -->
<g id="edge3" class="edge"><title>Node3&#45;&gt;Node3</title>
<path fill="none" stroke="midnightblue" d="M182.628,-28.6539C183.814,-33.9368 193.271,-38 211,-38 238.016,-38 245.825,-28.5653 234.428,-19.7571"/>
<polygon fill="midnightblue" stroke="midnightblue" points="185.774,-30.1981 187.572,-19.7571 179.655,-26.7974 185.774,-30.1981"/>
</g>
</g>
</svg>
