<?xml version="1.0" encoding="UTF-8" standalone="no"?>
<!DOCTYPE svg PUBLIC "-//W3C//DTD SVG 1.1//EN"
 "http://www.w3.org/Graphics/SVG/1.1/DTD/svg11.dtd">
<!-- Generated by graphviz version 2.38.0 (20140413.2041)
 -->
<!-- Title: scram::core::Settings::limit_order Pages: 1 -->
<svg width="736pt" height="596pt"
 viewBox="0.00 0.00 736.00 596.00" xmlns="http://www.w3.org/2000/svg" xmlns:xlink="http://www.w3.org/1999/xlink">
<g id="graph0" class="graph" transform="scale(1 1) rotate(0) translate(4 592)">
<title>scram::core::Settings::limit_order</title>
<polygon fill="white" stroke="none" points="-4,4 -4,-592 732,-592 732,4 -4,4"/>
<!-- Node1 -->
<g id="node1" class="node"><title>Node1</title>
<polygon fill="#bfbfbf" stroke="black" points="0,-284.5 0,-314.5 119,-314.5 119,-284.5 0,-284.5"/>
<text text-anchor="start" x="8" y="-302.5" font-family="Helvetica,sans-Serif" font-size="10.00">scram::core::Settings</text>
<text text-anchor="middle" x="59.5" y="-291.5" font-family="Helvetica,sans-Serif" font-size="10.00">::limit_order</text>
</g>
<!-- Node2 -->
<g id="node2" class="node"><title>Node2</title>
<g id="a_node2"><a xlink:href="classscram_1_1core_1_1Mocus.xhtml#a951c8e2f7667d884d4dbda3206dc15e0" target="_top" xlink:title="Finds minimal cut sets from the PDAG. ">
<polygon fill="white" stroke="black" points="181.5,-557.5 181.5,-587.5 291.5,-587.5 291.5,-557.5 181.5,-557.5"/>
<text text-anchor="start" x="189.5" y="-575.5" font-family="Helvetica,sans-Serif" font-size="10.00">scram::core::Mocus</text>
<text text-anchor="middle" x="236.5" y="-564.5" font-family="Helvetica,sans-Serif" font-size="10.00">::Analyze</text>
</a>
</g>
</g>
<!-- Node1&#45;&gt;Node2 -->
<g id="edge1" class="edge"><title>Node1&#45;&gt;Node2</title>
<path fill="none" stroke="midnightblue" d="M62.7747,-324.582C68.661,-374.566 88.9008,-487.057 155,-548.5 162.37,-555.351 171.616,-560.253 181.19,-563.758"/>
<polygon fill="midnightblue" stroke="midnightblue" points="66.2538,-324.199 61.6984,-314.634 59.2944,-324.952 66.2538,-324.199"/>
</g>
<!-- Node3 -->
<g id="node3" class="node"><title>Node3</title>
<g id="a_node3"><a xlink:href="classscram_1_1core_1_1FaultTreeAnalysis.xhtml#a327afc0524cff5289c3887357487266b" target="_top" xlink:title="Analyzes the fault tree and performs computations. ">
<polygon fill="white" stroke="black" points="156,-508.5 156,-538.5 317,-538.5 317,-508.5 156,-508.5"/>
<text text-anchor="start" x="164" y="-526.5" font-family="Helvetica,sans-Serif" font-size="10.00">scram::core::FaultTreeAnalysis</text>
<text text-anchor="middle" x="236.5" y="-515.5" font-family="Helvetica,sans-Serif" font-size="10.00">::Analyze</text>
</a>
</g>
</g>
<!-- Node1&#45;&gt;Node3 -->
<g id="edge2" class="edge"><title>Node1&#45;&gt;Node3</title>
<path fill="none" stroke="midnightblue" d="M65.4184,-324.608C75.0282,-366.957 100.325,-452.547 155,-499.5 158.983,-502.92 163.438,-505.854 168.153,-508.369"/>
<polygon fill="midnightblue" stroke="midnightblue" points="68.7865,-323.623 63.2565,-314.586 61.9439,-325.099 68.7865,-323.623"/>
</g>
<!-- Node4 -->
<g id="node4" class="node"><title>Node4</title>
<g id="a_node4"><a xlink:href="classscram_1_1core_1_1Zbdd.xhtml#aac27b9279de1ee1a63822896daeca0c7" target="_top" xlink:title="Runs the analysis with the representation of a PDAG as ZBDD. ">
<polygon fill="white" stroke="black" points="386,-437.5 386,-467.5 497,-467.5 497,-437.5 386,-437.5"/>
<text text-anchor="start" x="394" y="-455.5" font-family="Helvetica,sans-Serif" font-size="10.00">scram::core::Zbdd::</text>
<text text-anchor="middle" x="441.5" y="-444.5" font-family="Helvetica,sans-Serif" font-size="10.00">Analyze</text>
</a>
</g>
</g>
<!-- Node1&#45;&gt;Node4 -->
<g id="edge3" class="edge"><title>Node1&#45;&gt;Node4</title>
<path fill="none" stroke="midnightblue" d="M73.7298,-323.865C89.4152,-350.177 118.142,-391.063 155,-411.5 193.592,-432.899 314.372,-444.267 385.878,-449.272"/>
<polygon fill="midnightblue" stroke="midnightblue" points="76.5818,-321.805 68.5501,-314.895 70.52,-325.305 76.5818,-321.805"/>
</g>
<!-- Node6 -->
<g id="node6" class="node"><title>Node6</title>
<g id="a_node6"><a xlink:href="classscram_1_1core_1_1Zbdd.xhtml#a8cfceb8301f35bce33c34f1283f33725" target="_top" xlink:title="Applies non&#45;declarative substitutions at the end of analysis. ">
<polygon fill="white" stroke="black" points="181,-459.5 181,-489.5 292,-489.5 292,-459.5 181,-459.5"/>
<text text-anchor="start" x="189" y="-477.5" font-family="Helvetica,sans-Serif" font-size="10.00">scram::core::Zbdd::</text>
<text text-anchor="middle" x="236.5" y="-466.5" font-family="Helvetica,sans-Serif" font-size="10.00">ApplySubstitutions</text>
</a>
</g>
</g>
<!-- Node1&#45;&gt;Node6 -->
<g id="edge5" class="edge"><title>Node1&#45;&gt;Node6</title>
<path fill="none" stroke="midnightblue" d="M70.774,-324.46C85.1429,-356.487 114.145,-411.801 155,-444.5 162.685,-450.651 171.758,-455.624 180.993,-459.619"/>
<polygon fill="midnightblue" stroke="midnightblue" points="73.8287,-322.709 66.6264,-314.938 67.4111,-325.504 73.8287,-322.709"/>
</g>
<!-- Node7 -->
<g id="node7" class="node"><title>Node7</title>
<g id="a_node7"><a xlink:href="classscram_1_1Config.xhtml#ab0d7940fbb627fab9867821e133eab5d" target="_top" xlink:title="A constructor with configurations for analysis. ">
<polygon fill="white" stroke="black" points="177,-383 177,-402 296,-402 296,-383 177,-383"/>
<text text-anchor="middle" x="236.5" y="-390" font-family="Helvetica,sans-Serif" font-size="10.00">scram::Config::Config</text>
</a>
</g>
</g>
<!-- Node1&#45;&gt;Node7 -->
<g id="edge7" class="edge"><title>Node1&#45;&gt;Node7</title>
<path fill="none" stroke="midnightblue" d="M83.1,-321.851C101.133,-338.463 127.801,-360.427 155,-373.5 163.024,-377.357 171.883,-380.46 180.702,-382.948"/>
<polygon fill="midnightblue" stroke="midnightblue" points="85.1302,-318.956 75.451,-314.647 80.3306,-324.051 85.1302,-318.956"/>
</g>
<!-- Node8 -->
<g id="node8" class="node"><title>Node8</title>
<g id="a_node8"><a xlink:href="classscram_1_1core_1_1zbdd_1_1CutSetContainer.xhtml#a15ccbd5b839be87c831a743f0100588e" target="_top" xlink:title="Converts a PDAG gate into intermediate cut sets. ">
<polygon fill="white" stroke="black" points="155,-333.5 155,-363.5 318,-363.5 318,-333.5 155,-333.5"/>
<text text-anchor="start" x="163" y="-351.5" font-family="Helvetica,sans-Serif" font-size="10.00">scram::core::zbdd::</text>
<text text-anchor="middle" x="236.5" y="-340.5" font-family="Helvetica,sans-Serif" font-size="10.00">CutSetContainer::ConvertGate</text>
</a>
</g>
</g>
<!-- Node1&#45;&gt;Node8 -->
<g id="edge8" class="edge"><title>Node1&#45;&gt;Node8</title>
<path fill="none" stroke="midnightblue" d="M124.147,-317.321C143.042,-322.612 163.543,-328.352 181.744,-333.448"/>
<polygon fill="midnightblue" stroke="midnightblue" points="125.007,-313.927 114.434,-314.601 123.12,-320.668 125.007,-313.927"/>
</g>
<!-- Node9 -->
<g id="node9" class="node"><title>Node9</title>
<g id="a_node9"><a xlink:href="classscram_1_1core_1_1Zbdd.xhtml#ac3ac27090b550d973b20bd971c3de9f9" target="_top" xlink:title="Removes complements of variables from products. ">
<polygon fill="white" stroke="black" points="172.5,-196.5 172.5,-226.5 300.5,-226.5 300.5,-196.5 172.5,-196.5"/>
<text text-anchor="start" x="180.5" y="-214.5" font-family="Helvetica,sans-Serif" font-size="10.00">scram::core::Zbdd::</text>
<text text-anchor="middle" x="236.5" y="-203.5" font-family="Helvetica,sans-Serif" font-size="10.00">EliminateComplements</text>
</a>
</g>
</g>
<!-- Node1&#45;&gt;Node9 -->
<g id="edge9" class="edge"><title>Node1&#45;&gt;Node9</title>
<path fill="none" stroke="midnightblue" d="M90.7555,-278.848C108.892,-267.003 132.695,-252.374 155,-241.5 166.127,-236.075 178.501,-231.015 190.144,-226.652"/>
<polygon fill="midnightblue" stroke="midnightblue" points="88.7514,-275.977 82.3386,-284.411 92.611,-281.817 88.7514,-275.977"/>
</g>
<!-- Node10 -->
<g id="node10" class="node"><title>Node10</title>
<g id="a_node10"><a xlink:href="classscram_1_1core_1_1Zbdd.xhtml#af92e04ed908364e0177ce444d7b72712" target="_top" xlink:title="The common constructor to initialize member variables. ">
<polygon fill="white" stroke="black" points="373,-246 373,-265 510,-265 510,-246 373,-246"/>
<text text-anchor="middle" x="441.5" y="-253" font-family="Helvetica,sans-Serif" font-size="10.00">scram::core::Zbdd::Zbdd</text>
</a>
</g>
</g>
<!-- Node1&#45;&gt;Node10 -->
<g id="edge21" class="edge"><title>Node1&#45;&gt;Node10</title>
<path fill="none" stroke="midnightblue" d="M122.415,-282.096C133.209,-279.545 144.38,-277.207 155,-275.5 228.955,-263.616 314.812,-258.793 372.909,-256.836"/>
<polygon fill="midnightblue" stroke="midnightblue" points="121.519,-278.712 112.636,-284.486 123.181,-285.512 121.519,-278.712"/>
</g>
<!-- Node12 -->
<g id="node12" class="node"><title>Node12</title>
<g id="a_node12"><a xlink:href="classscram_1_1core_1_1Zbdd.xhtml#aeb83fd37f2aee74ac41e6ccadba82d39" target="_top" xlink:title="Removes constant modules from products. ">
<polygon fill="white" stroke="black" points="164.5,-284.5 164.5,-314.5 308.5,-314.5 308.5,-284.5 164.5,-284.5"/>
<text text-anchor="start" x="172.5" y="-302.5" font-family="Helvetica,sans-Serif" font-size="10.00">scram::core::Zbdd::</text>
<text text-anchor="middle" x="236.5" y="-291.5" font-family="Helvetica,sans-Serif" font-size="10.00">EliminateConstantModules</text>
</a>
</g>
</g>
<!-- Node1&#45;&gt;Node12 -->
<g id="edge12" class="edge"><title>Node1&#45;&gt;Node12</title>
<path fill="none" stroke="midnightblue" d="M129.274,-299.5C140.828,-299.5 152.839,-299.5 164.449,-299.5"/>
<polygon fill="midnightblue" stroke="midnightblue" points="129.259,-296 119.259,-299.5 129.259,-303 129.259,-296"/>
</g>
<!-- Node14 -->
<g id="node14" class="node"><title>Node14</title>
<g id="a_node14"><a xlink:href="classscram_1_1core_1_1zbdd_1_1CutSetContainer.xhtml#a59985023f1eba639571610ad9a0b2a41" target="_top" xlink:title="Expands the intermediate ZBDD representation of a gate in intermediate cut sets containing the gate...">
<polygon fill="white" stroke="black" points="156,-98.5 156,-128.5 317,-128.5 317,-98.5 156,-98.5"/>
<text text-anchor="start" x="164" y="-116.5" font-family="Helvetica,sans-Serif" font-size="10.00">scram::core::zbdd::</text>
<text text-anchor="middle" x="236.5" y="-105.5" font-family="Helvetica,sans-Serif" font-size="10.00">CutSetContainer::ExpandGate</text>
</a>
</g>
</g>
<!-- Node1&#45;&gt;Node14 -->
<g id="edge15" class="edge"><title>Node1&#45;&gt;Node14</title>
<path fill="none" stroke="midnightblue" d="M68.6045,-274.529C81.3612,-239.118 109.471,-174.613 155,-138.5 159.815,-134.68 165.218,-131.441 170.884,-128.695"/>
<polygon fill="midnightblue" stroke="midnightblue" points="65.2517,-273.515 65.2736,-284.109 71.8635,-275.813 65.2517,-273.515"/>
</g>
<!-- Node15 -->
<g id="node15" class="node"><title>Node15</title>
<g id="a_node15"><a xlink:href="classscram_1_1core_1_1Zbdd.xhtml#ac90d12f0c653c679d22109124fa6344c" target="_top" xlink:title="Find or adds a ZBDD SetNode vertex using information from gates. ">
<polygon fill="white" stroke="black" points="181,-49.5 181,-79.5 292,-79.5 292,-49.5 181,-49.5"/>
<text text-anchor="start" x="189" y="-67.5" font-family="Helvetica,sans-Serif" font-size="10.00">scram::core::Zbdd::</text>
<text text-anchor="middle" x="236.5" y="-56.5" font-family="Helvetica,sans-Serif" font-size="10.00">FindOrAddVertex</text>
</a>
</g>
</g>
<!-- Node1&#45;&gt;Node15 -->
<g id="edge16" class="edge"><title>Node1&#45;&gt;Node15</title>
<path fill="none" stroke="midnightblue" d="M64.6906,-274.575C73.4146,-230.5 97.6983,-138.73 155,-88.5 162.348,-82.0591 171.363,-77.3457 180.67,-73.8967"/>
<polygon fill="midnightblue" stroke="midnightblue" points="61.241,-273.981 62.8402,-284.454 68.1214,-275.27 61.241,-273.981"/>
</g>
<!-- Node16 -->
<g id="node16" class="node"><title>Node16</title>
<g id="a_node16"><a xlink:href="classscram_1_1core_1_1Zbdd.xhtml#a516f0d2f35ad213399f83fb9ab102561" target="_top" xlink:title="Traverses ZBDD to find modules and adjusted cut&#45;offs. ">
<polygon fill="white" stroke="black" points="181,-147.5 181,-177.5 292,-177.5 292,-147.5 181,-147.5"/>
<text text-anchor="start" x="189" y="-165.5" font-family="Helvetica,sans-Serif" font-size="10.00">scram::core::Zbdd::</text>
<text text-anchor="middle" x="236.5" y="-154.5" font-family="Helvetica,sans-Serif" font-size="10.00">GatherModules</text>
</a>
</g>
</g>
<!-- Node1&#45;&gt;Node16 -->
<g id="edge17" class="edge"><title>Node1&#45;&gt;Node16</title>
<path fill="none" stroke="midnightblue" d="M74.6409,-275.791C90.9533,-250.407 120.064,-210.666 155,-187.5 162.806,-182.324 171.74,-178.174 180.75,-174.859"/>
<polygon fill="midnightblue" stroke="midnightblue" points="71.5676,-274.104 69.223,-284.436 77.4991,-277.821 71.5676,-274.104"/>
</g>
<!-- Node18 -->
<g id="node18" class="node"><title>Node18</title>
<g id="a_node18"><a xlink:href="classscram_1_1core_1_1zbdd_1_1CutSetContainer.xhtml#a87489caef0ebb8e4b62c600455da84a2" target="_top" xlink:title="Merges a set of cut sets into the main container. ">
<polygon fill="white" stroke="black" points="170.5,-0.5 170.5,-30.5 302.5,-30.5 302.5,-0.5 170.5,-0.5"/>
<text text-anchor="start" x="178.5" y="-18.5" font-family="Helvetica,sans-Serif" font-size="10.00">scram::core::zbdd::</text>
<text text-anchor="middle" x="236.5" y="-7.5" font-family="Helvetica,sans-Serif" font-size="10.00">CutSetContainer::Merge</text>
</a>
</g>
</g>
<!-- Node1&#45;&gt;Node18 -->
<g id="edge20" class="edge"><title>Node1&#45;&gt;Node18</title>
<path fill="none" stroke="midnightblue" d="M62.3438,-274.077C67.4781,-222.31 86.4679,-104.112 155,-39.5 159.457,-35.2982 164.618,-31.8292 170.132,-28.9655"/>
<polygon fill="midnightblue" stroke="midnightblue" points="58.8296,-274.08 61.4232,-284.352 65.8017,-274.704 58.8296,-274.08"/>
</g>
<!-- Node5 -->
<g id="node5" class="node"><title>Node5</title>
<g id="a_node5"><a xlink:href="classscram_1_1core_1_1FaultTreeAnalyzer.xhtml#aedae0c884539dab245018194771f5021" target="_top" xlink:title="scram::core::FaultTreeAnalyzer\l::algorithm">
<polygon fill="white" stroke="black" points="565,-437.5 565,-467.5 728,-467.5 728,-437.5 565,-437.5"/>
<text text-anchor="start" x="573" y="-455.5" font-family="Helvetica,sans-Serif" font-size="10.00">scram::core::FaultTreeAnalyzer</text>
<text text-anchor="middle" x="646.5" y="-444.5" font-family="Helvetica,sans-Serif" font-size="10.00">::algorithm</text>
</a>
</g>
</g>
<!-- Node4&#45;&gt;Node5 -->
<g id="edge4" class="edge"><title>Node4&#45;&gt;Node5</title>
<path fill="none" stroke="midnightblue" d="M507.393,-452.5C525.649,-452.5 545.729,-452.5 564.788,-452.5"/>
<polygon fill="midnightblue" stroke="midnightblue" points="507.167,-449 497.167,-452.5 507.167,-456 507.167,-449"/>
</g>
<!-- Node6&#45;&gt;Node4 -->
<g id="edge6" class="edge"><title>Node6&#45;&gt;Node4</title>
<path fill="none" stroke="midnightblue" d="M302.257,-467.482C329.142,-464.568 360.002,-461.224 385.735,-458.435"/>
<polygon fill="midnightblue" stroke="midnightblue" points="301.732,-464.018 292.167,-468.575 302.486,-470.978 301.732,-464.018"/>
</g>
<!-- Node9&#45;&gt;Node10 -->
<g id="edge10" class="edge"><title>Node9&#45;&gt;Node10</title>
<path fill="none" stroke="midnightblue" d="M310.621,-227.349C339.339,-233.574 371.353,-240.512 396.411,-245.944"/>
<polygon fill="midnightblue" stroke="midnightblue" points="311.132,-223.878 300.618,-225.181 309.649,-230.72 311.132,-223.878"/>
</g>
<!-- Node11 -->
<g id="node11" class="node"><title>Node11</title>
<g id="a_node11"><a xlink:href="classscram_1_1core_1_1zbdd_1_1CutSetContainer.xhtml#a49532388bd9b917f4351f94f728518aa" target="_top" xlink:title="Eliminates all complements from cut sets. ">
<polygon fill="white" stroke="black" points="368.5,-186 368.5,-227 514.5,-227 514.5,-186 368.5,-186"/>
<text text-anchor="start" x="376.5" y="-215" font-family="Helvetica,sans-Serif" font-size="10.00">scram::core::zbdd::</text>
<text text-anchor="start" x="376.5" y="-204" font-family="Helvetica,sans-Serif" font-size="10.00">CutSetContainer::Eliminate</text>
<text text-anchor="middle" x="441.5" y="-193" font-family="Helvetica,sans-Serif" font-size="10.00">Complements</text>
</a>
</g>
</g>
<!-- Node9&#45;&gt;Node11 -->
<g id="edge11" class="edge"><title>Node9&#45;&gt;Node11</title>
<path fill="none" stroke="midnightblue" d="M310.834,-209.694C329.512,-209.234 349.571,-208.74 368.197,-208.281"/>
<polygon fill="midnightblue" stroke="midnightblue" points="310.528,-206.2 300.618,-209.945 310.701,-213.198 310.528,-206.2"/>
</g>
<!-- Node12&#45;&gt;Node10 -->
<g id="edge13" class="edge"><title>Node12&#45;&gt;Node10</title>
<path fill="none" stroke="midnightblue" d="M316.687,-282.336C343.858,-276.447 373.274,-270.071 396.613,-265.012"/>
<polygon fill="midnightblue" stroke="midnightblue" points="315.825,-278.942 306.793,-284.481 317.308,-285.783 315.825,-278.942"/>
</g>
<!-- Node13 -->
<g id="node13" class="node"><title>Node13</title>
<g id="a_node13"><a xlink:href="classscram_1_1core_1_1zbdd_1_1CutSetContainer.xhtml#a1022ad7a4699257a6f0c0809d8f1903d" target="_top" xlink:title="Removes constant modules from cut sets. ">
<polygon fill="white" stroke="black" points="368.5,-284 368.5,-325 514.5,-325 514.5,-284 368.5,-284"/>
<text text-anchor="start" x="376.5" y="-313" font-family="Helvetica,sans-Serif" font-size="10.00">scram::core::zbdd::</text>
<text text-anchor="start" x="376.5" y="-302" font-family="Helvetica,sans-Serif" font-size="10.00">CutSetContainer::Eliminate</text>
<text text-anchor="middle" x="441.5" y="-291" font-family="Helvetica,sans-Serif" font-size="10.00">ConstantModules</text>
</a>
</g>
</g>
<!-- Node12&#45;&gt;Node13 -->
<g id="edge14" class="edge"><title>Node12&#45;&gt;Node13</title>
<path fill="none" stroke="midnightblue" d="M318.866,-301.504C335.234,-301.907 352.33,-302.328 368.358,-302.723"/>
<polygon fill="midnightblue" stroke="midnightblue" points="318.868,-298.003 308.785,-301.256 318.696,-305.001 318.868,-298.003"/>
</g>
<!-- Node16&#45;&gt;Node10 -->
<g id="edge18" class="edge"><title>Node16&#45;&gt;Node10</title>
<path fill="none" stroke="midnightblue" d="M301.448,-178.101C307.292,-180.768 312.916,-183.877 318,-187.5 340.007,-203.183 331.347,-221.765 354,-236.5 359.929,-240.356 366.52,-243.44 373.344,-245.905"/>
<polygon fill="midnightblue" stroke="midnightblue" points="302.709,-174.835 292.13,-174.265 300.044,-181.308 302.709,-174.835"/>
</g>
<!-- Node17 -->
<g id="node17" class="node"><title>Node17</title>
<g id="a_node17"><a xlink:href="classscram_1_1core_1_1zbdd_1_1CutSetContainer.xhtml#a478c89f64731781882b50ec55898900b" target="_top" xlink:title="Gathers all module indices in the cut sets. ">
<polygon fill="white" stroke="black" points="354,-137.5 354,-167.5 529,-167.5 529,-137.5 354,-137.5"/>
<text text-anchor="start" x="362" y="-155.5" font-family="Helvetica,sans-Serif" font-size="10.00">scram::core::zbdd::</text>
<text text-anchor="middle" x="441.5" y="-144.5" font-family="Helvetica,sans-Serif" font-size="10.00">CutSetContainer::GatherModules</text>
</a>
</g>
</g>
<!-- Node16&#45;&gt;Node17 -->
<g id="edge19" class="edge"><title>Node16&#45;&gt;Node17</title>
<path fill="none" stroke="midnightblue" d="M302.207,-159.312C318.672,-158.501 336.63,-157.617 353.99,-156.762"/>
<polygon fill="midnightblue" stroke="midnightblue" points="301.983,-155.819 292.167,-159.807 302.327,-162.811 301.983,-155.819"/>
</g>
</g>
</svg>
