<?xml version="1.0" encoding="UTF-8" standalone="no"?>
<!DOCTYPE svg PUBLIC "-//W3C//DTD SVG 1.1//EN"
 "http://www.w3.org/Graphics/SVG/1.1/DTD/svg11.dtd">
<!-- Generated by graphviz version 2.38.0 (20140413.2041)
 -->
<!-- Title: combination_iterator.h Pages: 1 -->
<svg width="638pt" height="95pt"
 viewBox="0.00 0.00 637.50 95.00" xmlns="http://www.w3.org/2000/svg" xmlns:xlink="http://www.w3.org/1999/xlink">
<g id="graph0" class="graph" transform="scale(1 1) rotate(0) translate(4 91)">
<title>combination_iterator.h</title>
<polygon fill="white" stroke="none" points="-4,4 -4,-91 633.5,-91 633.5,4 -4,4"/>
<!-- Node1 -->
<g id="node1" class="node"><title>Node1</title>
<polygon fill="#bfbfbf" stroke="black" points="162.5,-67.5 162.5,-86.5 287.5,-86.5 287.5,-67.5 162.5,-67.5"/>
<text text-anchor="middle" x="225" y="-74.5" font-family="Helvetica,sans-Serif" font-size="10.00">combination_iterator.h</text>
</g>
<!-- Node2 -->
<g id="node2" class="node"><title>Node2</title>
<polygon fill="white" stroke="#bfbfbf" points="0,-6 0,-25 62,-25 62,-6 0,-6"/>
<text text-anchor="middle" x="31" y="-13" font-family="Helvetica,sans-Serif" font-size="10.00">algorithm</text>
</g>
<!-- Node1&#45;&gt;Node2 -->
<g id="edge1" class="edge"><title>Node1&#45;&gt;Node2</title>
<path fill="none" stroke="midnightblue" d="M193.556,-67.4425C162.307,-58.79 113.095,-44.7646 71,-31 68.4549,-30.1678 65.8286,-29.2805 63.1951,-28.3705"/>
<polygon fill="midnightblue" stroke="midnightblue" points="64.3532,-25.0677 53.7584,-25.0327 62.0189,-31.6671 64.3532,-25.0677"/>
</g>
<!-- Node3 -->
<g id="node3" class="node"><title>Node3</title>
<polygon fill="white" stroke="#bfbfbf" points="80,-6 80,-25 132,-25 132,-6 80,-6"/>
<text text-anchor="middle" x="106" y="-13" font-family="Helvetica,sans-Serif" font-size="10.00">iterator</text>
</g>
<!-- Node1&#45;&gt;Node3 -->
<g id="edge2" class="edge"><title>Node1&#45;&gt;Node3</title>
<path fill="none" stroke="midnightblue" d="M207.95,-67.4751C188.156,-57.578 155.283,-41.1416 132.23,-29.6151"/>
<polygon fill="midnightblue" stroke="midnightblue" points="133.528,-26.3508 123.018,-25.0091 130.397,-32.6118 133.528,-26.3508"/>
</g>
<!-- Node4 -->
<g id="node4" class="node"><title>Node4</title>
<polygon fill="white" stroke="#bfbfbf" points="150.5,-6 150.5,-25 197.5,-25 197.5,-6 150.5,-6"/>
<text text-anchor="middle" x="174" y="-13" font-family="Helvetica,sans-Serif" font-size="10.00">vector</text>
</g>
<!-- Node1&#45;&gt;Node4 -->
<g id="edge3" class="edge"><title>Node1&#45;&gt;Node4</title>
<path fill="none" stroke="midnightblue" d="M217.693,-67.4751C209.967,-58.4617 197.592,-44.0246 187.982,-32.8118"/>
<polygon fill="midnightblue" stroke="midnightblue" points="190.459,-30.3239 181.294,-25.0091 185.144,-34.8795 190.459,-30.3239"/>
</g>
<!-- Node5 -->
<g id="node5" class="node"><title>Node5</title>
<polygon fill="white" stroke="#bfbfbf" points="216,-0.5 216,-30.5 336,-30.5 336,-0.5 216,-0.5"/>
<text text-anchor="start" x="224" y="-18.5" font-family="Helvetica,sans-Serif" font-size="10.00">boost/iterator/iterator</text>
<text text-anchor="middle" x="276" y="-7.5" font-family="Helvetica,sans-Serif" font-size="10.00">_facade.hpp</text>
</g>
<!-- Node1&#45;&gt;Node5 -->
<g id="edge4" class="edge"><title>Node1&#45;&gt;Node5</title>
<path fill="none" stroke="midnightblue" d="M232.307,-67.4751C238.827,-59.8685 248.658,-48.3992 257.344,-38.2649"/>
<polygon fill="midnightblue" stroke="midnightblue" points="260.13,-40.3933 263.98,-30.523 254.815,-35.8378 260.13,-40.3933"/>
</g>
<!-- Node6 -->
<g id="node6" class="node"><title>Node6</title>
<polygon fill="white" stroke="#bfbfbf" points="354,-6 354,-25 498,-25 498,-6 354,-6"/>
<text text-anchor="middle" x="426" y="-13" font-family="Helvetica,sans-Serif" font-size="10.00">boost/range/algorithm.hpp</text>
</g>
<!-- Node1&#45;&gt;Node6 -->
<g id="edge5" class="edge"><title>Node1&#45;&gt;Node6</title>
<path fill="none" stroke="midnightblue" d="M253.798,-67.4751C288.874,-57.092 348.263,-39.5116 387.307,-27.9538"/>
<polygon fill="midnightblue" stroke="midnightblue" points="388.66,-31.2036 397.255,-25.0091 386.673,-24.4916 388.66,-31.2036"/>
</g>
<!-- Node7 -->
<g id="node7" class="node"><title>Node7</title>
<polygon fill="white" stroke="#bfbfbf" points="516.5,-0.5 516.5,-30.5 629.5,-30.5 629.5,-0.5 516.5,-0.5"/>
<text text-anchor="start" x="524.5" y="-18.5" font-family="Helvetica,sans-Serif" font-size="10.00">boost/range/iterator</text>
<text text-anchor="middle" x="573" y="-7.5" font-family="Helvetica,sans-Serif" font-size="10.00">_range.hpp</text>
</g>
<!-- Node1&#45;&gt;Node7 -->
<g id="edge6" class="edge"><title>Node1&#45;&gt;Node7</title>
<path fill="none" stroke="midnightblue" d="M284.864,-67.4766C339.834,-59.4165 423.773,-46.5232 506.128,-31.0999"/>
<polygon fill="midnightblue" stroke="midnightblue" points="506.984,-34.5003 516.161,-29.2067 505.686,-27.6217 506.984,-34.5003"/>
</g>
</g>
</svg>
