<?xml version="1.0" encoding="UTF-8" standalone="no"?>
<!DOCTYPE svg PUBLIC "-//W3C//DTD SVG 1.1//EN"
 "http://www.w3.org/Graphics/SVG/1.1/DTD/svg11.dtd">
<!-- Generated by graphviz version 2.38.0 (20140413.2041)
 -->
<!-- Title: conditional.h Pages: 1 -->
<svg width="534pt" height="151pt"
 viewBox="0.00 0.00 533.50 151.00" xmlns="http://www.w3.org/2000/svg" xmlns:xlink="http://www.w3.org/1999/xlink">
<g id="graph0" class="graph" transform="scale(1 1) rotate(0) translate(4 147)">
<title>conditional.h</title>
<polygon fill="white" stroke="none" points="-4,4 -4,-147 529.5,-147 529.5,4 -4,4"/>
<!-- Node1 -->
<g id="node1" class="node"><title>Node1</title>
<polygon fill="#bfbfbf" stroke="black" points="91,-123.5 91,-142.5 168,-142.5 168,-123.5 91,-123.5"/>
<text text-anchor="middle" x="129.5" y="-130.5" font-family="Helvetica,sans-Serif" font-size="10.00">conditional.h</text>
</g>
<!-- Node2 -->
<g id="node2" class="node"><title>Node2</title>
<polygon fill="white" stroke="#bfbfbf" points="0,-6 0,-25 47,-25 47,-6 0,-6"/>
<text text-anchor="middle" x="23.5" y="-13" font-family="Helvetica,sans-Serif" font-size="10.00">vector</text>
</g>
<!-- Node1&#45;&gt;Node2 -->
<g id="edge1" class="edge"><title>Node1&#45;&gt;Node2</title>
<path fill="none" stroke="midnightblue" d="M121.533,-123.319C103.884,-104.088 61.2571,-57.641 38.4643,-32.8054"/>
<polygon fill="midnightblue" stroke="midnightblue" points="40.8999,-30.283 31.5597,-25.282 35.7426,-35.0162 40.8999,-30.283"/>
</g>
<!-- Node3 -->
<g id="node3" class="node"><title>Node3</title>
<g id="a_node3"><a xlink:href="expression_8h.xhtml" target="_top" xlink:title="Provides the base class for all expressions and units for expression values. ">
<polygon fill="white" stroke="black" points="120,-67.5 120,-86.5 215,-86.5 215,-67.5 120,-67.5"/>
<text text-anchor="middle" x="167.5" y="-74.5" font-family="Helvetica,sans-Serif" font-size="10.00">src/expression.h</text>
</a>
</g>
</g>
<!-- Node1&#45;&gt;Node3 -->
<g id="edge2" class="edge"><title>Node1&#45;&gt;Node3</title>
<path fill="none" stroke="midnightblue" d="M135.775,-123.083C141.142,-115.455 149.018,-104.264 155.579,-94.9408"/>
<polygon fill="midnightblue" stroke="midnightblue" points="158.449,-96.9434 161.342,-86.7511 152.725,-92.9149 158.449,-96.9434"/>
</g>
<!-- Node3&#45;&gt;Node2 -->
<g id="edge6" class="edge"><title>Node3&#45;&gt;Node2</title>
<path fill="none" stroke="midnightblue" d="M145.729,-67.3891C123.293,-58.465 87.3414,-44.0242 56.5,-31 55.0948,-30.4066 53.658,-29.7947 52.2084,-29.1733"/>
<polygon fill="midnightblue" stroke="midnightblue" points="53.2213,-25.7976 42.6545,-25.0279 50.435,-32.2191 53.2213,-25.7976"/>
</g>
<!-- Node4 -->
<g id="node4" class="node"><title>Node4</title>
<polygon fill="white" stroke="#bfbfbf" points="65.5,-6 65.5,-25 127.5,-25 127.5,-6 65.5,-6"/>
<text text-anchor="middle" x="96.5" y="-13" font-family="Helvetica,sans-Serif" font-size="10.00">algorithm</text>
</g>
<!-- Node3&#45;&gt;Node4 -->
<g id="edge3" class="edge"><title>Node3&#45;&gt;Node4</title>
<path fill="none" stroke="midnightblue" d="M157.327,-67.4751C146.15,-58.1082 127.983,-42.8839 114.409,-31.5081"/>
<polygon fill="midnightblue" stroke="midnightblue" points="116.566,-28.7496 106.654,-25.0091 112.07,-34.1148 116.566,-28.7496"/>
</g>
<!-- Node5 -->
<g id="node5" class="node"><title>Node5</title>
<polygon fill="white" stroke="#bfbfbf" points="145.5,-6 145.5,-25 189.5,-25 189.5,-6 145.5,-6"/>
<text text-anchor="middle" x="167.5" y="-13" font-family="Helvetica,sans-Serif" font-size="10.00">string</text>
</g>
<!-- Node3&#45;&gt;Node5 -->
<g id="edge4" class="edge"><title>Node3&#45;&gt;Node5</title>
<path fill="none" stroke="midnightblue" d="M167.5,-67.4751C167.5,-59.0803 167.5,-45.9806 167.5,-35.1631"/>
<polygon fill="midnightblue" stroke="midnightblue" points="171,-35.0091 167.5,-25.0091 164,-35.0091 171,-35.0091"/>
</g>
<!-- Node6 -->
<g id="node6" class="node"><title>Node6</title>
<polygon fill="white" stroke="#bfbfbf" points="207.5,-6 207.5,-25 249.5,-25 249.5,-6 207.5,-6"/>
<text text-anchor="middle" x="228.5" y="-13" font-family="Helvetica,sans-Serif" font-size="10.00">utility</text>
</g>
<!-- Node3&#45;&gt;Node6 -->
<g id="edge5" class="edge"><title>Node3&#45;&gt;Node6</title>
<path fill="none" stroke="midnightblue" d="M176.24,-67.4751C185.662,-58.285 200.864,-43.4563 212.449,-32.156"/>
<polygon fill="midnightblue" stroke="midnightblue" points="215.062,-34.4971 219.776,-25.0091 210.174,-29.4861 215.062,-34.4971"/>
</g>
<!-- Node7 -->
<g id="node7" class="node"><title>Node7</title>
<polygon fill="white" stroke="#bfbfbf" points="267.5,-0.5 267.5,-30.5 379.5,-30.5 379.5,-0.5 267.5,-0.5"/>
<text text-anchor="start" x="275.5" y="-18.5" font-family="Helvetica,sans-Serif" font-size="10.00">boost/icl/continuous</text>
<text text-anchor="middle" x="323.5" y="-7.5" font-family="Helvetica,sans-Serif" font-size="10.00">_interval.hpp</text>
</g>
<!-- Node3&#45;&gt;Node7 -->
<g id="edge7" class="edge"><title>Node3&#45;&gt;Node7</title>
<path fill="none" stroke="midnightblue" d="M189.851,-67.4751C212.559,-58.8142 248.396,-45.1454 277.247,-34.1415"/>
<polygon fill="midnightblue" stroke="midnightblue" points="278.638,-37.3569 286.734,-30.523 276.143,-30.8165 278.638,-37.3569"/>
</g>
<!-- Node8 -->
<g id="node8" class="node"><title>Node8</title>
<polygon fill="white" stroke="#bfbfbf" points="397.5,-6 397.5,-25 525.5,-25 525.5,-6 397.5,-6"/>
<text text-anchor="middle" x="461.5" y="-13" font-family="Helvetica,sans-Serif" font-size="10.00">boost/noncopyable.hpp</text>
</g>
<!-- Node3&#45;&gt;Node8 -->
<g id="edge8" class="edge"><title>Node3&#45;&gt;Node8</title>
<path fill="none" stroke="midnightblue" d="M209.623,-67.4751C262.347,-56.8048 352.628,-38.5335 409.574,-27.0089"/>
<polygon fill="midnightblue" stroke="midnightblue" points="410.348,-30.4232 419.455,-25.0091 408.96,-23.5623 410.348,-30.4232"/>
</g>
</g>
</svg>
