<?xml version="1.0" encoding="UTF-8" standalone="no"?>
<!DOCTYPE svg PUBLIC "-//W3C//DTD SVG 1.1//EN"
 "http://www.w3.org/Graphics/SVG/1.1/DTD/svg11.dtd">
<!-- Generated by graphviz version 2.38.0 (20140413.2041)
 -->
<!-- Title: conditional.cc Pages: 1 -->
<svg width="534pt" height="207pt"
 viewBox="0.00 0.00 533.50 207.00" xmlns="http://www.w3.org/2000/svg" xmlns:xlink="http://www.w3.org/1999/xlink">
<g id="graph0" class="graph" transform="scale(1 1) rotate(0) translate(4 203)">
<title>conditional.cc</title>
<polygon fill="white" stroke="none" points="-4,4 -4,-203 529.5,-203 529.5,4 -4,4"/>
<!-- Node1 -->
<g id="node1" class="node"><title>Node1</title>
<polygon fill="#bfbfbf" stroke="black" points="237.5,-179.5 237.5,-198.5 319.5,-198.5 319.5,-179.5 237.5,-179.5"/>
<text text-anchor="middle" x="278.5" y="-186.5" font-family="Helvetica,sans-Serif" font-size="10.00">conditional.cc</text>
</g>
<!-- Node2 -->
<g id="node2" class="node"><title>Node2</title>
<g id="a_node2"><a xlink:href="conditional_8h.xhtml" target="_top" xlink:title="Conditional (if&#45;then&#45;else, switch&#45;case) expressions. ">
<polygon fill="white" stroke="black" points="202,-123.5 202,-142.5 279,-142.5 279,-123.5 202,-123.5"/>
<text text-anchor="middle" x="240.5" y="-130.5" font-family="Helvetica,sans-Serif" font-size="10.00">conditional.h</text>
</a>
</g>
</g>
<!-- Node1&#45;&gt;Node2 -->
<g id="edge1" class="edge"><title>Node1&#45;&gt;Node2</title>
<path fill="none" stroke="midnightblue" d="M272.225,-179.083C266.858,-171.455 258.982,-160.264 252.421,-150.941"/>
<polygon fill="midnightblue" stroke="midnightblue" points="255.275,-148.915 246.658,-142.751 249.551,-152.943 255.275,-148.915"/>
</g>
<!-- Node5 -->
<g id="node5" class="node"><title>Node5</title>
<polygon fill="white" stroke="#bfbfbf" points="463.5,-6 463.5,-25 525.5,-25 525.5,-6 463.5,-6"/>
<text text-anchor="middle" x="494.5" y="-13" font-family="Helvetica,sans-Serif" font-size="10.00">algorithm</text>
</g>
<!-- Node1&#45;&gt;Node5 -->
<g id="edge10" class="edge"><title>Node1&#45;&gt;Node5</title>
<path fill="none" stroke="midnightblue" d="M289.211,-179.495C323.687,-152.122 432.072,-66.0671 475.867,-31.2943"/>
<polygon fill="midnightblue" stroke="midnightblue" points="478.069,-34.0153 483.724,-25.056 473.716,-28.5332 478.069,-34.0153"/>
</g>
<!-- Node3 -->
<g id="node3" class="node"><title>Node3</title>
<polygon fill="white" stroke="#bfbfbf" points="0,-6 0,-25 47,-25 47,-6 0,-6"/>
<text text-anchor="middle" x="23.5" y="-13" font-family="Helvetica,sans-Serif" font-size="10.00">vector</text>
</g>
<!-- Node2&#45;&gt;Node3 -->
<g id="edge2" class="edge"><title>Node2&#45;&gt;Node3</title>
<path fill="none" stroke="midnightblue" d="M224.19,-123.319C186.632,-103.328 93.8218,-53.9294 48.8011,-29.9667"/>
<polygon fill="midnightblue" stroke="midnightblue" points="50.1755,-26.7334 39.7035,-25.1245 46.8865,-32.9126 50.1755,-26.7334"/>
</g>
<!-- Node4 -->
<g id="node4" class="node"><title>Node4</title>
<g id="a_node4"><a xlink:href="expression_8h.xhtml" target="_top" xlink:title="Provides the base class for all expressions and units for expression values. ">
<polygon fill="white" stroke="black" points="193,-67.5 193,-86.5 288,-86.5 288,-67.5 193,-67.5"/>
<text text-anchor="middle" x="240.5" y="-74.5" font-family="Helvetica,sans-Serif" font-size="10.00">src/expression.h</text>
</a>
</g>
</g>
<!-- Node2&#45;&gt;Node4 -->
<g id="edge3" class="edge"><title>Node2&#45;&gt;Node4</title>
<path fill="none" stroke="midnightblue" d="M240.5,-123.083C240.5,-116.006 240.5,-105.861 240.5,-96.9865"/>
<polygon fill="midnightblue" stroke="midnightblue" points="244,-96.751 240.5,-86.7511 237,-96.7511 244,-96.751"/>
</g>
<!-- Node4&#45;&gt;Node3 -->
<g id="edge7" class="edge"><title>Node4&#45;&gt;Node3</title>
<path fill="none" stroke="midnightblue" d="M196.389,-67.4696C158.726,-59.6529 103.372,-46.894 56.5,-31 54.6332,-30.367 52.7262,-29.6702 50.8171,-28.9349"/>
<polygon fill="midnightblue" stroke="midnightblue" points="52.0097,-25.6407 41.431,-25.055 49.3355,-32.1098 52.0097,-25.6407"/>
</g>
<!-- Node4&#45;&gt;Node5 -->
<g id="edge4" class="edge"><title>Node4&#45;&gt;Node5</title>
<path fill="none" stroke="midnightblue" d="M288.142,-67.966C331.821,-60.1333 398.088,-47.0698 454.5,-31 457.297,-30.2032 460.18,-29.3084 463.056,-28.3648"/>
<polygon fill="midnightblue" stroke="midnightblue" points="464.368,-31.6147 472.675,-25.039 462.08,-24.9991 464.368,-31.6147"/>
</g>
<!-- Node6 -->
<g id="node6" class="node"><title>Node6</title>
<polygon fill="white" stroke="#bfbfbf" points="401.5,-6 401.5,-25 445.5,-25 445.5,-6 401.5,-6"/>
<text text-anchor="middle" x="423.5" y="-13" font-family="Helvetica,sans-Serif" font-size="10.00">string</text>
</g>
<!-- Node4&#45;&gt;Node6 -->
<g id="edge5" class="edge"><title>Node4&#45;&gt;Node6</title>
<path fill="none" stroke="midnightblue" d="M274.79,-67.4222C305.918,-59.2664 352.874,-46.0361 392.5,-31 393.923,-30.4598 395.373,-29.8825 396.828,-29.281"/>
<polygon fill="midnightblue" stroke="midnightblue" points="398.581,-32.3331 406.317,-25.0944 395.755,-25.9287 398.581,-32.3331"/>
</g>
<!-- Node7 -->
<g id="node7" class="node"><title>Node7</title>
<polygon fill="white" stroke="#bfbfbf" points="65.5,-6 65.5,-25 107.5,-25 107.5,-6 65.5,-6"/>
<text text-anchor="middle" x="86.5" y="-13" font-family="Helvetica,sans-Serif" font-size="10.00">utility</text>
</g>
<!-- Node4&#45;&gt;Node7 -->
<g id="edge6" class="edge"><title>Node4&#45;&gt;Node7</title>
<path fill="none" stroke="midnightblue" d="M214.555,-67.4481C189.26,-58.9087 149.84,-45.0634 116.5,-31 115.301,-30.4941 114.081,-29.9652 112.852,-29.4211"/>
<polygon fill="midnightblue" stroke="midnightblue" points="114.041,-26.1143 103.496,-25.0865 111.098,-32.4658 114.041,-26.1143"/>
</g>
<!-- Node8 -->
<g id="node8" class="node"><title>Node8</title>
<polygon fill="white" stroke="#bfbfbf" points="125.5,-0.5 125.5,-30.5 237.5,-30.5 237.5,-0.5 125.5,-0.5"/>
<text text-anchor="start" x="133.5" y="-18.5" font-family="Helvetica,sans-Serif" font-size="10.00">boost/icl/continuous</text>
<text text-anchor="middle" x="181.5" y="-7.5" font-family="Helvetica,sans-Serif" font-size="10.00">_interval.hpp</text>
</g>
<!-- Node4&#45;&gt;Node8 -->
<g id="edge8" class="edge"><title>Node4&#45;&gt;Node8</title>
<path fill="none" stroke="midnightblue" d="M232.047,-67.4751C224.355,-59.7179 212.679,-47.9435 202.487,-37.6645"/>
<polygon fill="midnightblue" stroke="midnightblue" points="204.932,-35.1594 195.405,-30.523 199.961,-40.0883 204.932,-35.1594"/>
</g>
<!-- Node9 -->
<g id="node9" class="node"><title>Node9</title>
<polygon fill="white" stroke="#bfbfbf" points="255.5,-6 255.5,-25 383.5,-25 383.5,-6 255.5,-6"/>
<text text-anchor="middle" x="319.5" y="-13" font-family="Helvetica,sans-Serif" font-size="10.00">boost/noncopyable.hpp</text>
</g>
<!-- Node4&#45;&gt;Node9 -->
<g id="edge9" class="edge"><title>Node4&#45;&gt;Node9</title>
<path fill="none" stroke="midnightblue" d="M251.819,-67.4751C264.373,-58.0199 284.851,-42.5961 299.999,-31.1871"/>
<polygon fill="midnightblue" stroke="midnightblue" points="302.32,-33.821 308.202,-25.0091 298.109,-28.2295 302.32,-33.821"/>
</g>
</g>
</svg>
