<?xml version="1.0" encoding="UTF-8" standalone="no"?>
<!DOCTYPE svg PUBLIC "-//W3C//DTD SVG 1.1//EN"
 "http://www.w3.org/Graphics/SVG/1.1/DTD/svg11.dtd">
<!-- Generated by graphviz version 2.38.0 (20140413.2041)
 -->
<!-- Title: config.cc Pages: 1 -->
<svg width="2597pt" height="263pt"
 viewBox="0.00 0.00 2597.00 263.00" xmlns="http://www.w3.org/2000/svg" xmlns:xlink="http://www.w3.org/1999/xlink">
<g id="graph0" class="graph" transform="scale(1 1) rotate(0) translate(4 259)">
<title>config.cc</title>
<polygon fill="white" stroke="none" points="-4,4 -4,-259 2593,-259 2593,4 -4,4"/>
<!-- Node1 -->
<g id="node1" class="node"><title>Node1</title>
<polygon fill="#bfbfbf" stroke="black" points="2041.5,-235.5 2041.5,-254.5 2100.5,-254.5 2100.5,-235.5 2041.5,-235.5"/>
<text text-anchor="middle" x="2071" y="-242.5" font-family="Helvetica,sans-Serif" font-size="10.00">config.cc</text>
</g>
<!-- Node2 -->
<g id="node2" class="node"><title>Node2</title>
<g id="a_node2"><a xlink:href="config_8h.xhtml" target="_top" xlink:title="Configuration management facilities to make various setups for analysis possible. ...">
<polygon fill="white" stroke="black" points="1303,-179.5 1303,-198.5 1357,-198.5 1357,-179.5 1303,-179.5"/>
<text text-anchor="middle" x="1330" y="-186.5" font-family="Helvetica,sans-Serif" font-size="10.00">config.h</text>
</a>
</g>
</g>
<!-- Node1&#45;&gt;Node2 -->
<g id="edge1" class="edge"><title>Node1&#45;&gt;Node2</title>
<path fill="none" stroke="midnightblue" d="M2041.49,-241.85C1924.99,-233.359 1496.99,-202.169 1367.42,-192.727"/>
<polygon fill="midnightblue" stroke="midnightblue" points="1367.44,-189.219 1357.21,-191.983 1366.93,-196.2 1367.44,-189.219"/>
</g>
<!-- Node8 -->
<g id="node8" class="node"><title>Node8</title>
<polygon fill="white" stroke="#bfbfbf" points="425.5,-62 425.5,-81 494.5,-81 494.5,-62 425.5,-62"/>
<text text-anchor="middle" x="460" y="-69" font-family="Helvetica,sans-Serif" font-size="10.00">string_view</text>
</g>
<!-- Node1&#45;&gt;Node8 -->
<g id="edge37" class="edge"><title>Node1&#45;&gt;Node8</title>
<path fill="none" stroke="midnightblue" d="M2041.44,-243.641C1853.53,-241.281 829.168,-227.19 693,-199 626.567,-185.247 609.962,-176.555 551,-143 523.087,-127.115 494.359,-103.392 476.838,-87.9309"/>
<polygon fill="midnightblue" stroke="midnightblue" points="478.973,-85.144 469.19,-81.0754 474.3,-90.3564 478.973,-85.144"/>
</g>
<!-- Node14 -->
<g id="node14" class="node"><title>Node14</title>
<polygon fill="white" stroke="#bfbfbf" points="512.5,-62 512.5,-81 569.5,-81 569.5,-62 512.5,-62"/>
<text text-anchor="middle" x="541" y="-69" font-family="Helvetica,sans-Serif" font-size="10.00">memory</text>
</g>
<!-- Node1&#45;&gt;Node14 -->
<g id="edge36" class="edge"><title>Node1&#45;&gt;Node14</title>
<path fill="none" stroke="midnightblue" d="M2041.46,-243.858C1841.9,-242.662 694.815,-231.933 571,-143 554.322,-131.021 546.849,-107.852 543.545,-91.3456"/>
<polygon fill="midnightblue" stroke="midnightblue" points="546.951,-90.4935 541.861,-81.2017 540.046,-91.6399 546.951,-90.4935"/>
</g>
<!-- Node17 -->
<g id="node17" class="node"><title>Node17</title>
<polygon fill="white" stroke="#bfbfbf" points="2023.5,-56.5 2023.5,-86.5 2150.5,-86.5 2150.5,-56.5 2023.5,-56.5"/>
<text text-anchor="start" x="2031.5" y="-74.5" font-family="Helvetica,sans-Serif" font-size="10.00">boost/exception/errinfo</text>
<text text-anchor="middle" x="2087" y="-63.5" font-family="Helvetica,sans-Serif" font-size="10.00">_at_line.hpp</text>
</g>
<!-- Node1&#45;&gt;Node17 -->
<g id="edge39" class="edge"><title>Node1&#45;&gt;Node17</title>
<path fill="none" stroke="midnightblue" d="M2067.4,-235.222C2063.94,-226.285 2058.97,-211.942 2057,-199 2051.93,-165.606 2048.05,-155.572 2057,-123 2059.7,-113.179 2064.86,-103.334 2070.15,-94.9796"/>
<polygon fill="midnightblue" stroke="midnightblue" points="2073.13,-96.816 2075.83,-86.5702 2067.33,-92.8979 2073.13,-96.816"/>
</g>
<!-- Node19 -->
<g id="node19" class="node"><title>Node19</title>
<polygon fill="white" stroke="#bfbfbf" points="2168.5,-56.5 2168.5,-86.5 2295.5,-86.5 2295.5,-56.5 2168.5,-56.5"/>
<text text-anchor="start" x="2176.5" y="-74.5" font-family="Helvetica,sans-Serif" font-size="10.00">boost/exception/errinfo</text>
<text text-anchor="middle" x="2232" y="-63.5" font-family="Helvetica,sans-Serif" font-size="10.00">_file_name.hpp</text>
</g>
<!-- Node1&#45;&gt;Node19 -->
<g id="edge40" class="edge"><title>Node1&#45;&gt;Node19</title>
<path fill="none" stroke="midnightblue" d="M2073.92,-235.348C2078.62,-222.234 2088.8,-196.957 2103,-179 2131.08,-143.491 2172.79,-111.74 2201.12,-92.3348"/>
<polygon fill="midnightblue" stroke="midnightblue" points="2203.12,-95.2097 2209.46,-86.7185 2199.21,-89.4049 2203.12,-95.2097"/>
</g>
<!-- Node26 -->
<g id="node26" class="node"><title>Node26</title>
<g id="a_node26"><a xlink:href="error_8h.xhtml" target="_top" xlink:title="Exceptions for SCRAM. ">
<polygon fill="white" stroke="black" points="359,-62 359,-81 407,-81 407,-62 359,-62"/>
<text text-anchor="middle" x="383" y="-69" font-family="Helvetica,sans-Serif" font-size="10.00">error.h</text>
</a>
</g>
</g>
<!-- Node1&#45;&gt;Node26 -->
<g id="edge45" class="edge"><title>Node1&#45;&gt;Node26</title>
<path fill="none" stroke="midnightblue" d="M2041.34,-243.903C1846.99,-243.156 759.042,-237.284 617,-199 530.723,-175.746 441.191,-115.38 402.611,-87.2851"/>
<polygon fill="midnightblue" stroke="midnightblue" points="404.467,-84.3055 394.342,-81.1861 400.312,-89.9388 404.467,-84.3055"/>
</g>
<!-- Node32 -->
<g id="node32" class="node"><title>Node32</title>
<polygon fill="white" stroke="#bfbfbf" points="2137,-179.5 2137,-198.5 2189,-198.5 2189,-179.5 2137,-179.5"/>
<text text-anchor="middle" x="2163" y="-186.5" font-family="Helvetica,sans-Serif" font-size="10.00">cassert</text>
</g>
<!-- Node1&#45;&gt;Node32 -->
<g id="edge35" class="edge"><title>Node1&#45;&gt;Node32</title>
<path fill="none" stroke="midnightblue" d="M2085.78,-235.324C2100.27,-226.822 2122.57,-213.729 2139.49,-203.797"/>
<polygon fill="midnightblue" stroke="midnightblue" points="2141.4,-206.735 2148.26,-198.655 2137.86,-200.698 2141.4,-206.735"/>
</g>
<!-- Node33 -->
<g id="node33" class="node"><title>Node33</title>
<polygon fill="white" stroke="#bfbfbf" points="2207,-179.5 2207,-198.5 2293,-198.5 2293,-179.5 2207,-179.5"/>
<text text-anchor="middle" x="2250" y="-186.5" font-family="Helvetica,sans-Serif" font-size="10.00">boost/predef.h</text>
</g>
<!-- Node1&#45;&gt;Node33 -->
<g id="edge38" class="edge"><title>Node1&#45;&gt;Node33</title>
<path fill="none" stroke="midnightblue" d="M2099.36,-235.444C2129.74,-226.28 2178.11,-211.688 2211.82,-201.519"/>
<polygon fill="midnightblue" stroke="midnightblue" points="2213.21,-204.756 2221.77,-198.516 2211.18,-198.054 2213.21,-204.756"/>
</g>
<!-- Node34 -->
<g id="node34" class="node"><title>Node34</title>
<polygon fill="white" stroke="#bfbfbf" points="2311,-179.5 2311,-198.5 2427,-198.5 2427,-179.5 2311,-179.5"/>
<text text-anchor="middle" x="2369" y="-186.5" font-family="Helvetica,sans-Serif" font-size="10.00">boost/filesystem.hpp</text>
</g>
<!-- Node1&#45;&gt;Node34 -->
<g id="edge41" class="edge"><title>Node1&#45;&gt;Node34</title>
<path fill="none" stroke="midnightblue" d="M2100.66,-238.625C2149.75,-229.73 2248.71,-211.798 2311.76,-200.372"/>
<polygon fill="midnightblue" stroke="midnightblue" points="2312.73,-203.754 2321.95,-198.527 2311.48,-196.866 2312.73,-203.754"/>
</g>
<!-- Node35 -->
<g id="node35" class="node"><title>Node35</title>
<polygon fill="white" stroke="#bfbfbf" points="2445,-179.5 2445,-198.5 2589,-198.5 2589,-179.5 2445,-179.5"/>
<text text-anchor="middle" x="2517" y="-186.5" font-family="Helvetica,sans-Serif" font-size="10.00">boost/range/algorithm.hpp</text>
</g>
<!-- Node1&#45;&gt;Node35 -->
<g id="edge42" class="edge"><title>Node1&#45;&gt;Node35</title>
<path fill="none" stroke="midnightblue" d="M2100.61,-240.415C2168.13,-232.239 2335.46,-211.981 2436.24,-199.778"/>
<polygon fill="midnightblue" stroke="midnightblue" points="2436.88,-203.227 2446.38,-198.55 2436.04,-196.277 2436.88,-203.227"/>
</g>
<!-- Node36 -->
<g id="node36" class="node"><title>Node36</title>
<g id="a_node36"><a xlink:href="env_8h.xhtml" target="_top" xlink:title="SCRAM&#45;specific environment variables. ">
<polygon fill="white" stroke="black" points="2201,-123.5 2201,-142.5 2243,-142.5 2243,-123.5 2201,-123.5"/>
<text text-anchor="middle" x="2222" y="-130.5" font-family="Helvetica,sans-Serif" font-size="10.00">env.h</text>
</a>
</g>
</g>
<!-- Node1&#45;&gt;Node36 -->
<g id="edge43" class="edge"><title>Node1&#45;&gt;Node36</title>
<path fill="none" stroke="midnightblue" d="M2076.77,-235.427C2086.17,-221.964 2105.99,-195.684 2128,-179 2147.28,-164.386 2172.06,-152.763 2191.33,-144.993"/>
<polygon fill="midnightblue" stroke="midnightblue" points="2192.81,-148.175 2200.86,-141.285 2190.27,-141.652 2192.81,-148.175"/>
</g>
<!-- Node3 -->
<g id="node3" class="node"><title>Node3</title>
<polygon fill="white" stroke="#bfbfbf" points="1334,-0.5 1334,-19.5 1378,-19.5 1378,-0.5 1334,-0.5"/>
<text text-anchor="middle" x="1356" y="-7.5" font-family="Helvetica,sans-Serif" font-size="10.00">string</text>
</g>
<!-- Node2&#45;&gt;Node3 -->
<g id="edge2" class="edge"><title>Node2&#45;&gt;Node3</title>
<path fill="none" stroke="midnightblue" d="M1357.23,-186.922C1490.4,-181.177 2063.15,-150.792 1975,-56 1934.8,-12.7733 1509.86,-10.5776 1388.31,-10.8416"/>
<polygon fill="midnightblue" stroke="midnightblue" points="1388.14,-7.34195 1378.15,-10.8711 1388.16,-14.3419 1388.14,-7.34195"/>
</g>
<!-- Node4 -->
<g id="node4" class="node"><title>Node4</title>
<polygon fill="white" stroke="#bfbfbf" points="1139.5,-123.5 1139.5,-142.5 1186.5,-142.5 1186.5,-123.5 1139.5,-123.5"/>
<text text-anchor="middle" x="1163" y="-130.5" font-family="Helvetica,sans-Serif" font-size="10.00">vector</text>
</g>
<!-- Node2&#45;&gt;Node4 -->
<g id="edge3" class="edge"><title>Node2&#45;&gt;Node4</title>
<path fill="none" stroke="midnightblue" d="M1303.54,-179.444C1274.49,-170.051 1227.81,-154.955 1196.29,-144.766"/>
<polygon fill="midnightblue" stroke="midnightblue" points="1197.23,-141.39 1186.64,-141.643 1195.08,-148.05 1197.23,-141.39"/>
</g>
<!-- Node5 -->
<g id="node5" class="node"><title>Node5</title>
<polygon fill="white" stroke="#bfbfbf" points="1204.5,-123.5 1204.5,-142.5 1345.5,-142.5 1345.5,-123.5 1204.5,-123.5"/>
<text text-anchor="middle" x="1275" y="-130.5" font-family="Helvetica,sans-Serif" font-size="10.00">boost/filesystem/path.hpp</text>
</g>
<!-- Node2&#45;&gt;Node5 -->
<g id="edge4" class="edge"><title>Node2&#45;&gt;Node5</title>
<path fill="none" stroke="midnightblue" d="M1320.92,-179.083C1312.83,-171.141 1300.8,-159.335 1291.09,-149.797"/>
<polygon fill="midnightblue" stroke="midnightblue" points="1293.5,-147.26 1283.91,-142.751 1288.6,-152.254 1293.5,-147.26"/>
</g>
<!-- Node6 -->
<g id="node6" class="node"><title>Node6</title>
<g id="a_node6"><a xlink:href="settings_8h.xhtml" target="_top" xlink:title="Builder for settings. ">
<polygon fill="white" stroke="black" points="580,-123.5 580,-142.5 644,-142.5 644,-123.5 580,-123.5"/>
<text text-anchor="middle" x="612" y="-130.5" font-family="Helvetica,sans-Serif" font-size="10.00">settings.h</text>
</a>
</g>
</g>
<!-- Node2&#45;&gt;Node6 -->
<g id="edge5" class="edge"><title>Node2&#45;&gt;Node6</title>
<path fill="none" stroke="midnightblue" d="M1302.73,-185.949C1193.49,-177.733 787.036,-147.164 654.259,-137.178"/>
<polygon fill="midnightblue" stroke="midnightblue" points="654.319,-133.673 644.085,-136.413 653.794,-140.653 654.319,-133.673"/>
</g>
<!-- Node9 -->
<g id="node9" class="node"><title>Node9</title>
<g id="a_node9"><a xlink:href="xml_8h.xhtml" target="_top" xlink:title="XML helper facilities to work with libxml2. ">
<polygon fill="white" stroke="black" points="1363.5,-123.5 1363.5,-142.5 1406.5,-142.5 1406.5,-123.5 1363.5,-123.5"/>
<text text-anchor="middle" x="1385" y="-130.5" font-family="Helvetica,sans-Serif" font-size="10.00">xml.h</text>
</a>
</g>
</g>
<!-- Node2&#45;&gt;Node9 -->
<g id="edge8" class="edge"><title>Node2&#45;&gt;Node9</title>
<path fill="none" stroke="midnightblue" d="M1339.08,-179.083C1347.17,-171.141 1359.2,-159.335 1368.91,-149.797"/>
<polygon fill="midnightblue" stroke="midnightblue" points="1371.4,-152.254 1376.09,-142.751 1366.5,-147.26 1371.4,-152.254"/>
</g>
<!-- Node7 -->
<g id="node7" class="node"><title>Node7</title>
<polygon fill="white" stroke="#bfbfbf" points="587.5,-62 587.5,-81 636.5,-81 636.5,-62 587.5,-62"/>
<text text-anchor="middle" x="612" y="-69" font-family="Helvetica,sans-Serif" font-size="10.00">cstdint</text>
</g>
<!-- Node6&#45;&gt;Node7 -->
<g id="edge6" class="edge"><title>Node6&#45;&gt;Node7</title>
<path fill="none" stroke="midnightblue" d="M612,-123.475C612,-115.08 612,-101.981 612,-91.1631"/>
<polygon fill="midnightblue" stroke="midnightblue" points="615.5,-91.0091 612,-81.0091 608.5,-91.0091 615.5,-91.0091"/>
</g>
<!-- Node6&#45;&gt;Node8 -->
<g id="edge7" class="edge"><title>Node6&#45;&gt;Node8</title>
<path fill="none" stroke="midnightblue" d="M590.222,-123.475C564.262,-113.313 520.689,-96.2564 491.165,-84.6996"/>
<polygon fill="midnightblue" stroke="midnightblue" points="492.325,-81.3951 481.737,-81.0091 489.774,-87.9135 492.325,-81.3951"/>
</g>
<!-- Node9&#45;&gt;Node3 -->
<g id="edge16" class="edge"><title>Node9&#45;&gt;Node3</title>
<path fill="none" stroke="midnightblue" d="M1363.47,-125.065C1360.32,-124.251 1357.09,-123.525 1354,-123 1280.5,-110.526 735.282,-141.112 684,-87 674.523,-76.9997 674.589,-66.0626 684,-56 728.043,-8.90912 1195.06,-9.5594 1323.48,-10.6413"/>
<polygon fill="midnightblue" stroke="midnightblue" points="1323.8,-14.1442 1333.83,-10.7358 1323.86,-7.14453 1323.8,-14.1442"/>
</g>
<!-- Node9&#45;&gt;Node7 -->
<g id="edge10" class="edge"><title>Node9&#45;&gt;Node7</title>
<path fill="none" stroke="midnightblue" d="M1363.47,-125.058C1360.32,-124.245 1357.09,-123.521 1354,-123 1045.49,-71.0392 957.394,-150.246 651,-87 647.746,-86.3283 644.402,-85.4297 641.105,-84.4077"/>
<polygon fill="midnightblue" stroke="midnightblue" points="642.091,-81.045 631.496,-81.0738 639.797,-87.6583 642.091,-81.045"/>
</g>
<!-- Node9&#45;&gt;Node8 -->
<g id="edge17" class="edge"><title>Node9&#45;&gt;Node8</title>
<path fill="none" stroke="midnightblue" d="M1363.47,-125.033C1360.32,-124.224 1357.1,-123.507 1354,-123 980.422,-61.7855 875.187,-156.172 503,-87 499.103,-86.2757 495.077,-85.2761 491.123,-84.1373"/>
<polygon fill="midnightblue" stroke="midnightblue" points="492.148,-80.7906 481.558,-81.0974 490.028,-87.4618 492.148,-80.7906"/>
</g>
<!-- Node10 -->
<g id="node10" class="node"><title>Node10</title>
<polygon fill="white" stroke="#bfbfbf" points="1650.5,-62 1650.5,-81 1697.5,-81 1697.5,-62 1650.5,-62"/>
<text text-anchor="middle" x="1674" y="-69" font-family="Helvetica,sans-Serif" font-size="10.00">cmath</text>
</g>
<!-- Node9&#45;&gt;Node10 -->
<g id="edge9" class="edge"><title>Node9&#45;&gt;Node10</title>
<path fill="none" stroke="midnightblue" d="M1406.65,-129.967C1451.26,-125.392 1556.35,-112.63 1641,-87 1642.93,-86.4152 1644.9,-85.7476 1646.87,-85.0273"/>
<polygon fill="midnightblue" stroke="midnightblue" points="1648.53,-88.1283 1656.48,-81.1271 1645.9,-81.6413 1648.53,-88.1283"/>
</g>
<!-- Node11 -->
<g id="node11" class="node"><title>Node11</title>
<polygon fill="white" stroke="#bfbfbf" points="1715.5,-62 1715.5,-81 1762.5,-81 1762.5,-62 1715.5,-62"/>
<text text-anchor="middle" x="1739" y="-69" font-family="Helvetica,sans-Serif" font-size="10.00">cstdlib</text>
</g>
<!-- Node9&#45;&gt;Node11 -->
<g id="edge11" class="edge"><title>Node9&#45;&gt;Node11</title>
<path fill="none" stroke="midnightblue" d="M1406.84,-131.003C1459.33,-128.166 1596.38,-118.124 1706,-87 1708.15,-86.389 1710.35,-85.6658 1712.53,-84.8738"/>
<polygon fill="midnightblue" stroke="midnightblue" points="1713.91,-88.0924 1721.86,-81.0946 1711.28,-81.6043 1713.91,-88.0924"/>
</g>
<!-- Node12 -->
<g id="node12" class="node"><title>Node12</title>
<polygon fill="white" stroke="#bfbfbf" points="1781,-62 1781,-81 1833,-81 1833,-62 1781,-62"/>
<text text-anchor="middle" x="1807" y="-69" font-family="Helvetica,sans-Serif" font-size="10.00">iterator</text>
</g>
<!-- Node9&#45;&gt;Node12 -->
<g id="edge12" class="edge"><title>Node9&#45;&gt;Node12</title>
<path fill="none" stroke="midnightblue" d="M1406.71,-131.488C1466,-129.661 1635.34,-121.565 1771,-87 1773.51,-86.3595 1776.09,-85.5837 1778.64,-84.7278"/>
<polygon fill="midnightblue" stroke="midnightblue" points="1780.11,-87.9157 1788.26,-81.1464 1777.67,-81.3556 1780.11,-87.9157"/>
</g>
<!-- Node13 -->
<g id="node13" class="node"><title>Node13</title>
<polygon fill="white" stroke="#bfbfbf" points="1851,-62 1851,-81 1893,-81 1893,-62 1851,-62"/>
<text text-anchor="middle" x="1872" y="-69" font-family="Helvetica,sans-Serif" font-size="10.00">limits</text>
</g>
<!-- Node9&#45;&gt;Node13 -->
<g id="edge13" class="edge"><title>Node9&#45;&gt;Node13</title>
<path fill="none" stroke="midnightblue" d="M1406.91,-132.532C1473.64,-133.588 1679.68,-132.656 1842,-87 1843.88,-86.4714 1845.78,-85.8301 1847.68,-85.1151"/>
<polygon fill="midnightblue" stroke="midnightblue" points="1849.08,-88.3211 1856.84,-81.1055 1846.27,-81.9083 1849.08,-88.3211"/>
</g>
<!-- Node9&#45;&gt;Node14 -->
<g id="edge14" class="edge"><title>Node9&#45;&gt;Node14</title>
<path fill="none" stroke="midnightblue" d="M1363.47,-125.044C1360.32,-124.233 1357.1,-123.514 1354,-123 1013.4,-66.4753 915.68,-158.948 578,-87 574.993,-86.3593 571.912,-85.5023 568.873,-84.5237"/>
<polygon fill="midnightblue" stroke="midnightblue" points="570.05,-81.2274 559.456,-81.0994 567.658,-87.806 570.05,-81.2274"/>
</g>
<!-- Node15 -->
<g id="node15" class="node"><title>Node15</title>
<polygon fill="white" stroke="#bfbfbf" points="1911.5,-62 1911.5,-81 1966.5,-81 1966.5,-62 1911.5,-62"/>
<text text-anchor="middle" x="1939" y="-69" font-family="Helvetica,sans-Serif" font-size="10.00">optional</text>
</g>
<!-- Node9&#45;&gt;Node15 -->
<g id="edge15" class="edge"><title>Node9&#45;&gt;Node15</title>
<path fill="none" stroke="midnightblue" d="M1406.52,-132.312C1478.03,-132.887 1713.84,-131.088 1902,-87 1904.83,-86.336 1907.74,-85.497 1910.61,-84.5589"/>
<polygon fill="midnightblue" stroke="midnightblue" points="1911.93,-87.8049 1920.13,-81.0968 1909.54,-81.2267 1911.93,-87.8049"/>
</g>
<!-- Node16 -->
<g id="node16" class="node"><title>Node16</title>
<polygon fill="white" stroke="#bfbfbf" points="693,-62 693,-81 761,-81 761,-62 693,-62"/>
<text text-anchor="middle" x="727" y="-69" font-family="Helvetica,sans-Serif" font-size="10.00">type_traits</text>
</g>
<!-- Node9&#45;&gt;Node16 -->
<g id="edge18" class="edge"><title>Node9&#45;&gt;Node16</title>
<path fill="none" stroke="midnightblue" d="M1363.46,-125.087C1360.31,-124.27 1357.09,-123.537 1354,-123 1097.79,-78.4764 1025.2,-136.98 770,-87 766.11,-86.2382 762.088,-85.2157 758.137,-84.0645"/>
<polygon fill="midnightblue" stroke="midnightblue" points="759.164,-80.7187 748.574,-81.0128 757.036,-87.3874 759.164,-80.7187"/>
</g>
<!-- Node9&#45;&gt;Node17 -->
<g id="edge19" class="edge"><title>Node9&#45;&gt;Node17</title>
<path fill="none" stroke="midnightblue" d="M1406.73,-130.757C1484.13,-126.241 1753.5,-109.769 1975,-87 1987.39,-85.7265 2000.53,-84.1922 2013.27,-82.6051"/>
<polygon fill="midnightblue" stroke="midnightblue" points="2013.91,-86.0522 2023.4,-81.3248 2013.04,-79.1076 2013.91,-86.0522"/>
</g>
<!-- Node18 -->
<g id="node18" class="node"><title>Node18</title>
<polygon fill="white" stroke="#bfbfbf" points="779.5,-56.5 779.5,-86.5 906.5,-86.5 906.5,-56.5 779.5,-56.5"/>
<text text-anchor="start" x="787.5" y="-74.5" font-family="Helvetica,sans-Serif" font-size="10.00">boost/exception/errinfo</text>
<text text-anchor="middle" x="843" y="-63.5" font-family="Helvetica,sans-Serif" font-size="10.00">_errno.hpp</text>
</g>
<!-- Node9&#45;&gt;Node18 -->
<g id="edge20" class="edge"><title>Node9&#45;&gt;Node18</title>
<path fill="none" stroke="midnightblue" d="M1363.45,-125.145C1360.31,-124.319 1357.09,-123.569 1354,-123 1164.67,-88.1196 1110.63,-113.497 916.487,-87.096"/>
<polygon fill="midnightblue" stroke="midnightblue" points="916.92,-83.6226 906.534,-85.714 915.958,-90.5561 916.92,-83.6226"/>
</g>
<!-- Node9&#45;&gt;Node19 -->
<g id="edge21" class="edge"><title>Node9&#45;&gt;Node19</title>
<path fill="none" stroke="midnightblue" d="M1406.65,-131.834C1497.18,-130.91 1854.44,-125.005 2158.06,-86.9813"/>
<polygon fill="midnightblue" stroke="midnightblue" points="2158.9,-90.4025 2168.38,-85.6732 2158.02,-83.458 2158.9,-90.4025"/>
</g>
<!-- Node20 -->
<g id="node20" class="node"><title>Node20</title>
<polygon fill="white" stroke="#bfbfbf" points="924.5,-56.5 924.5,-86.5 1051.5,-86.5 1051.5,-56.5 924.5,-56.5"/>
<text text-anchor="start" x="932.5" y="-74.5" font-family="Helvetica,sans-Serif" font-size="10.00">boost/exception/errinfo</text>
<text text-anchor="middle" x="988" y="-63.5" font-family="Helvetica,sans-Serif" font-size="10.00">_file_open_mode.hpp</text>
</g>
<!-- Node9&#45;&gt;Node20 -->
<g id="edge22" class="edge"><title>Node9&#45;&gt;Node20</title>
<path fill="none" stroke="midnightblue" d="M1363.43,-125.259C1360.29,-124.416 1357.07,-123.631 1354,-123 1228.61,-97.2691 1192.3,-107.272 1061.64,-87.0096"/>
<polygon fill="midnightblue" stroke="midnightblue" points="1062.08,-83.5349 1051.65,-85.4306 1060.98,-90.449 1062.08,-83.5349"/>
</g>
<!-- Node21 -->
<g id="node21" class="node"><title>Node21</title>
<polygon fill="white" stroke="#bfbfbf" points="1070,-56.5 1070,-86.5 1190,-86.5 1190,-56.5 1070,-56.5"/>
<text text-anchor="start" x="1078" y="-74.5" font-family="Helvetica,sans-Serif" font-size="10.00">boost/iterator/iterator</text>
<text text-anchor="middle" x="1130" y="-63.5" font-family="Helvetica,sans-Serif" font-size="10.00">_facade.hpp</text>
</g>
<!-- Node9&#45;&gt;Node21 -->
<g id="edge23" class="edge"><title>Node9&#45;&gt;Node21</title>
<path fill="none" stroke="midnightblue" d="M1363.37,-125.537C1360.23,-124.654 1357.04,-123.783 1354,-123 1325.33,-115.615 1254.55,-99.8038 1200.15,-87.8278"/>
<polygon fill="midnightblue" stroke="midnightblue" points="1200.72,-84.3688 1190.2,-85.6391 1199.22,-91.2054 1200.72,-84.3688"/>
</g>
<!-- Node22 -->
<g id="node22" class="node"><title>Node22</title>
<polygon fill="white" stroke="#bfbfbf" points="1208.5,-56.5 1208.5,-86.5 1323.5,-86.5 1323.5,-56.5 1208.5,-56.5"/>
<text text-anchor="start" x="1216.5" y="-74.5" font-family="Helvetica,sans-Serif" font-size="10.00">boost/range/adaptor</text>
<text text-anchor="middle" x="1266" y="-63.5" font-family="Helvetica,sans-Serif" font-size="10.00">/filtered.hpp</text>
</g>
<!-- Node9&#45;&gt;Node22 -->
<g id="edge24" class="edge"><title>Node9&#45;&gt;Node22</title>
<path fill="none" stroke="midnightblue" d="M1367.95,-123.475C1351.08,-115.04 1324.71,-101.855 1303.02,-91.008"/>
<polygon fill="midnightblue" stroke="midnightblue" points="1304.56,-87.8647 1294.05,-86.523 1301.42,-94.1257 1304.56,-87.8647"/>
</g>
<!-- Node23 -->
<g id="node23" class="node"><title>Node23</title>
<polygon fill="white" stroke="#bfbfbf" points="1342,-62 1342,-81 1428,-81 1428,-62 1342,-62"/>
<text text-anchor="middle" x="1385" y="-69" font-family="Helvetica,sans-Serif" font-size="10.00">libxml/parser.h</text>
</g>
<!-- Node9&#45;&gt;Node23 -->
<g id="edge25" class="edge"><title>Node9&#45;&gt;Node23</title>
<path fill="none" stroke="midnightblue" d="M1385,-123.475C1385,-115.08 1385,-101.981 1385,-91.1631"/>
<polygon fill="midnightblue" stroke="midnightblue" points="1388.5,-91.0091 1385,-81.0091 1381.5,-91.0091 1388.5,-91.0091"/>
</g>
<!-- Node24 -->
<g id="node24" class="node"><title>Node24</title>
<polygon fill="white" stroke="#bfbfbf" points="1446,-62 1446,-81 1538,-81 1538,-62 1446,-62"/>
<text text-anchor="middle" x="1492" y="-69" font-family="Helvetica,sans-Serif" font-size="10.00">libxml/relaxng.h</text>
</g>
<!-- Node9&#45;&gt;Node24 -->
<g id="edge26" class="edge"><title>Node9&#45;&gt;Node24</title>
<path fill="none" stroke="midnightblue" d="M1400.33,-123.475C1417.97,-113.666 1447.16,-97.4346 1467.86,-85.925"/>
<polygon fill="midnightblue" stroke="midnightblue" points="1469.66,-88.9279 1476.7,-81.0091 1466.26,-82.8102 1469.66,-88.9279"/>
</g>
<!-- Node25 -->
<g id="node25" class="node"><title>Node25</title>
<polygon fill="white" stroke="#bfbfbf" points="1556,-62 1556,-81 1632,-81 1632,-62 1556,-62"/>
<text text-anchor="middle" x="1594" y="-69" font-family="Helvetica,sans-Serif" font-size="10.00">libxml/tree.h</text>
</g>
<!-- Node9&#45;&gt;Node25 -->
<g id="edge27" class="edge"><title>Node9&#45;&gt;Node25</title>
<path fill="none" stroke="midnightblue" d="M1406.54,-126.224C1437.63,-117.841 1496.86,-101.695 1547,-87 1550.2,-86.0634 1553.51,-85.0756 1556.83,-84.074"/>
<polygon fill="midnightblue" stroke="midnightblue" points="1558.16,-87.3285 1566.7,-81.065 1556.12,-80.6326 1558.16,-87.3285"/>
</g>
<!-- Node9&#45;&gt;Node26 -->
<g id="edge28" class="edge"><title>Node9&#45;&gt;Node26</title>
<path fill="none" stroke="midnightblue" d="M1363.47,-125.022C1360.32,-124.214 1357.1,-123.501 1354,-123 1148.08,-89.6723 619.285,-133.779 416,-87 413.633,-86.4553 411.225,-85.7425 408.843,-84.9251"/>
<polygon fill="midnightblue" stroke="midnightblue" points="409.954,-81.5999 399.37,-81.1384 407.356,-88.0999 409.954,-81.5999"/>
</g>
<!-- Node26&#45;&gt;Node3 -->
<g id="edge30" class="edge"><title>Node26&#45;&gt;Node3</title>
<path fill="none" stroke="midnightblue" d="M399.377,-61.8944C404.557,-59.5609 410.396,-57.3177 416,-56 593.87,-14.1808 1178.51,-11.0858 1323.33,-10.9709"/>
<polygon fill="midnightblue" stroke="midnightblue" points="1323.74,-14.4709 1333.73,-10.9674 1323.73,-7.47089 1323.74,-14.4709"/>
</g>
<!-- Node27 -->
<g id="node27" class="node"><title>Node27</title>
<polygon fill="white" stroke="#bfbfbf" points="450.5,-0.5 450.5,-19.5 513.5,-19.5 513.5,-0.5 450.5,-0.5"/>
<text text-anchor="middle" x="482" y="-7.5" font-family="Helvetica,sans-Serif" font-size="10.00">exception</text>
</g>
<!-- Node26&#45;&gt;Node27 -->
<g id="edge29" class="edge"><title>Node26&#45;&gt;Node27</title>
<path fill="none" stroke="midnightblue" d="M397.184,-61.9751C413.358,-52.2548 440.026,-36.2266 459.143,-24.7372"/>
<polygon fill="midnightblue" stroke="midnightblue" points="461.074,-27.6603 467.842,-19.5091 457.468,-21.6606 461.074,-27.6603"/>
</g>
<!-- Node28 -->
<g id="node28" class="node"><title>Node28</title>
<polygon fill="white" stroke="#bfbfbf" points="532,-0.5 532,-19.5 678,-19.5 678,-0.5 532,-0.5"/>
<text text-anchor="middle" x="605" y="-7.5" font-family="Helvetica,sans-Serif" font-size="10.00">boost/current_function.hpp</text>
</g>
<!-- Node26&#45;&gt;Node28 -->
<g id="edge31" class="edge"><title>Node26&#45;&gt;Node28</title>
<path fill="none" stroke="midnightblue" d="M400.924,-61.9244C405.751,-59.809 411.017,-57.6728 416,-56 459.883,-41.2689 511.031,-29.3997 549.044,-21.5575"/>
<polygon fill="midnightblue" stroke="midnightblue" points="549.804,-24.9748 558.906,-19.5524 548.409,-18.1151 549.804,-24.9748"/>
</g>
<!-- Node29 -->
<g id="node29" class="node"><title>Node29</title>
<polygon fill="white" stroke="#bfbfbf" points="0,-0.5 0,-19.5 164,-19.5 164,-0.5 0,-0.5"/>
<text text-anchor="middle" x="82" y="-7.5" font-family="Helvetica,sans-Serif" font-size="10.00">boost/exception/exception.hpp</text>
</g>
<!-- Node26&#45;&gt;Node29 -->
<g id="edge32" class="edge"><title>Node26&#45;&gt;Node29</title>
<path fill="none" stroke="midnightblue" d="M358.877,-65.7314C310.61,-56.1903 201.14,-34.5509 135.225,-21.5213"/>
<polygon fill="midnightblue" stroke="midnightblue" points="135.526,-18.013 125.037,-19.5072 134.168,-24.8801 135.526,-18.013"/>
</g>
<!-- Node30 -->
<g id="node30" class="node"><title>Node30</title>
<polygon fill="white" stroke="#bfbfbf" points="182,-0.5 182,-19.5 316,-19.5 316,-0.5 182,-0.5"/>
<text text-anchor="middle" x="249" y="-7.5" font-family="Helvetica,sans-Serif" font-size="10.00">boost/exception/info.hpp</text>
</g>
<!-- Node26&#45;&gt;Node30 -->
<g id="edge33" class="edge"><title>Node26&#45;&gt;Node30</title>
<path fill="none" stroke="midnightblue" d="M363.801,-61.9751C341.213,-51.9455 303.501,-35.2002 277.499,-23.6546"/>
<polygon fill="midnightblue" stroke="midnightblue" points="278.723,-20.3685 268.163,-19.5091 275.882,-26.7662 278.723,-20.3685"/>
</g>
<!-- Node31 -->
<g id="node31" class="node"><title>Node31</title>
<g id="a_node31"><a xlink:href="source__info_8h.xhtml" target="_top" xlink:title="Helper facilities to get source file information. ">
<polygon fill="white" stroke="black" points="334,-0.5 334,-19.5 432,-19.5 432,-0.5 334,-0.5"/>
<text text-anchor="middle" x="383" y="-7.5" font-family="Helvetica,sans-Serif" font-size="10.00">ext/source_info.h</text>
</a>
</g>
</g>
<!-- Node26&#45;&gt;Node31 -->
<g id="edge34" class="edge"><title>Node26&#45;&gt;Node31</title>
<path fill="none" stroke="midnightblue" d="M383,-61.9751C383,-53.5803 383,-40.4806 383,-29.6631"/>
<polygon fill="midnightblue" stroke="midnightblue" points="386.5,-29.5091 383,-19.5091 379.5,-29.5091 386.5,-29.5091"/>
</g>
<!-- Node36&#45;&gt;Node3 -->
<g id="edge44" class="edge"><title>Node36&#45;&gt;Node3</title>
<path fill="none" stroke="midnightblue" d="M2243.1,-126.972C2262.76,-121.046 2290.93,-109.08 2304,-87 2311.02,-75.1435 2313.51,-65.9707 2304,-56 2271.73,-22.1609 1551.09,-12.9496 1388.43,-11.2983"/>
<polygon fill="midnightblue" stroke="midnightblue" points="1388.15,-7.79546 1378.11,-11.1962 1388.08,-14.7951 1388.15,-7.79546"/>
</g>
</g>
</svg>
