<?xml version="1.0" encoding="UTF-8" standalone="no"?>
<!DOCTYPE svg PUBLIC "-//W3C//DTD SVG 1.1//EN"
 "http://www.w3.org/Graphics/SVG/1.1/DTD/svg11.dtd">
<!-- Generated by graphviz version 2.38.0 (20140413.2041)
 -->
<!-- Title: config.h Pages: 1 -->
<!--zoomable 207 -->
<svg id="main" version="1.1" xmlns="http://www.w3.org/2000/svg" xmlns:xlink="http://www.w3.org/1999/xlink" xml:space="preserve" onload="init(evt)">
<style type="text/css"><![CDATA[
.edge:hover path { stroke: red; }
.edge:hover polygon { stroke: red; fill: red; }
]]></style>
<script type="text/javascript"><![CDATA[
var edges = document.getElementsByTagName('g');
if (edges && edges.length) {
  for (var i=0;i<edges.length;i++) {
    if (edges[i].id.substr(0,4)=='edge') {
      edges[i].setAttribute('class','edge');
    }
  }
}
]]></script>
        <defs>
                <circle id="rim" cx="0" cy="0" r="7"/>
                <circle id="rim2" cx="0" cy="0" r="3.5"/>
                <g id="zoomPlus">
                        <use xlink:href="#rim" fill="#404040">
                                <set attributeName="fill" to="#808080" begin="zoomplus.mouseover" end="zoomplus.mouseout"/>
                        </use>
                        <path d="M-4,0h8M0,-4v8" fill="none" stroke="white" stroke-width="1.5" pointer-events="none"/>
                </g>
                <g id="zoomMin">
                        <use xlink:href="#rim" fill="#404040">
                                <set attributeName="fill" to="#808080" begin="zoomminus.mouseover" end="zoomminus.mouseout"/>
                        </use>
                        <path d="M-4,0h8" fill="none" stroke="white" stroke-width="1.5" pointer-events="none"/>
                </g>
                <g id="dirArrow">
                        <path fill="none" stroke="white" stroke-width="1.5" d="M0,-3.0v7 M-2.5,-0.5L0,-3.0L2.5,-0.5"/>
                </g>
               <g id="resetDef">
                       <use xlink:href="#rim2" fill="#404040">
                               <set attributeName="fill" to="#808080" begin="reset.mouseover" end="reset.mouseout"/>
                       </use>
               </g>
        </defs>

<script type="text/javascript">
var viewWidth = 2168;
var viewHeight = 207;
var sectionId = 'dynsection-0';
</script>
<script xlink:href="svgpan.js"/>
<svg id="graph" class="graph">
<g id="viewport">
<title>config.h</title>
<polygon fill="white" stroke="none" points="-4,4 -4,-203 2164,-203 2164,4 -4,4"/>
<!-- Node1 -->
<g id="node1" class="node"><title>Node1</title>
<polygon fill="#bfbfbf" stroke="black" points="1898.5,-179.5 1898.5,-198.5 1952.5,-198.5 1952.5,-179.5 1898.5,-179.5"/>
<text text-anchor="middle" x="1925.5" y="-186.5" font-family="Helvetica,sans-Serif" font-size="10.00">config.h</text>
</g>
<!-- Node2 -->
<g id="node2" class="node"><title>Node2</title>
<polygon fill="white" stroke="#bfbfbf" points="1865.5,-0.5 1865.5,-19.5 1909.5,-19.5 1909.5,-0.5 1865.5,-0.5"/>
<text text-anchor="middle" x="1887.5" y="-7.5" font-family="Helvetica,sans-Serif" font-size="10.00">string</text>
</g>
<!-- Node1&#45;&gt;Node2 -->
<g id="edge1" class="edge"><title>Node1&#45;&gt;Node2</title>
<path fill="none" stroke="midnightblue" d="M1923.67,-179.463C1917.86,-152.428 1899.79,-68.2392 1891.6,-30.109"/>
<polygon fill="midnightblue" stroke="midnightblue" points="1894.93,-28.9109 1889.4,-19.8684 1888.08,-30.3803 1894.93,-28.9109"/>
</g>
<!-- Node3 -->
<g id="node3" class="node"><title>Node3</title>
<polygon fill="white" stroke="#bfbfbf" points="1954,-123.5 1954,-142.5 2001,-142.5 2001,-123.5 1954,-123.5"/>
<text text-anchor="middle" x="1977.5" y="-130.5" font-family="Helvetica,sans-Serif" font-size="10.00">vector</text>
</g>
<!-- Node1&#45;&gt;Node3 -->
<g id="edge2" class="edge"><title>Node1&#45;&gt;Node3</title>
<path fill="none" stroke="midnightblue" d="M1934.09,-179.083C1941.66,-171.22 1952.88,-159.569 1962.01,-150.081"/>
<polygon fill="midnightblue" stroke="midnightblue" points="1964.66,-152.382 1969.07,-142.751 1959.62,-147.527 1964.66,-152.382"/>
</g>
<!-- Node4 -->
<g id="node4" class="node"><title>Node4</title>
<polygon fill="white" stroke="#bfbfbf" points="2019,-123.5 2019,-142.5 2160,-142.5 2160,-123.5 2019,-123.5"/>
<text text-anchor="middle" x="2089.5" y="-130.5" font-family="Helvetica,sans-Serif" font-size="10.00">boost/filesystem/path.hpp</text>
</g>
<!-- Node1&#45;&gt;Node4 -->
<g id="edge3" class="edge"><title>Node1&#45;&gt;Node4</title>
<path fill="none" stroke="midnightblue" d="M1951.49,-179.444C1979.2,-170.32 2023.25,-155.813 2054.12,-145.651"/>
<polygon fill="midnightblue" stroke="midnightblue" points="2055.23,-148.968 2063.64,-142.516 2053.04,-142.32 2055.23,-148.968"/>
</g>
<!-- Node5 -->
<g id="node5" class="node"><title>Node5</title>
<g id="a_node5"><a xlink:href="settings_8h.xhtml" target="_top" xlink:title="Builder for settings. ">
<polygon fill="white" stroke="black" points="79.5,-123.5 79.5,-142.5 143.5,-142.5 143.5,-123.5 79.5,-123.5"/>
<text text-anchor="middle" x="111.5" y="-130.5" font-family="Helvetica,sans-Serif" font-size="10.00">settings.h</text>
</a>
</g>
</g>
<!-- Node1&#45;&gt;Node5 -->
<g id="edge4" class="edge"><title>Node1&#45;&gt;Node5</title>
<path fill="none" stroke="midnightblue" d="M1898.45,-187.195C1694.89,-181.135 404.452,-142.721 153.689,-135.256"/>
<polygon fill="midnightblue" stroke="midnightblue" points="153.633,-131.753 143.533,-134.954 153.425,-138.75 153.633,-131.753"/>
</g>
<!-- Node8 -->
<g id="node8" class="node"><title>Node8</title>
<g id="a_node8"><a xlink:href="xml_8h.xhtml" target="_top" xlink:title="XML helper facilities to work with libxml2. ">
<polygon fill="white" stroke="black" points="1222,-123.5 1222,-142.5 1265,-142.5 1265,-123.5 1222,-123.5"/>
<text text-anchor="middle" x="1243.5" y="-130.5" font-family="Helvetica,sans-Serif" font-size="10.00">xml.h</text>
</a>
</g>
</g>
<!-- Node1&#45;&gt;Node8 -->
<g id="edge7" class="edge"><title>Node1&#45;&gt;Node8</title>
<path fill="none" stroke="midnightblue" d="M1898.34,-185.85C1790.24,-177.29 1390.72,-145.657 1275.06,-136.499"/>
<polygon fill="midnightblue" stroke="midnightblue" points="1275.32,-133.009 1265.08,-135.708 1274.77,-139.987 1275.32,-133.009"/>
</g>
<!-- Node6 -->
<g id="node6" class="node"><title>Node6</title>
<polygon fill="white" stroke="#bfbfbf" points="87,-62 87,-81 136,-81 136,-62 87,-62"/>
<text text-anchor="middle" x="111.5" y="-69" font-family="Helvetica,sans-Serif" font-size="10.00">cstdint</text>
</g>
<!-- Node5&#45;&gt;Node6 -->
<g id="edge5" class="edge"><title>Node5&#45;&gt;Node6</title>
<path fill="none" stroke="midnightblue" d="M111.5,-123.475C111.5,-115.08 111.5,-101.981 111.5,-91.1631"/>
<polygon fill="midnightblue" stroke="midnightblue" points="115,-91.0091 111.5,-81.0091 108,-91.0091 115,-91.0091"/>
</g>
<!-- Node7 -->
<g id="node7" class="node"><title>Node7</title>
<polygon fill="white" stroke="#bfbfbf" points="0,-62 0,-81 69,-81 69,-62 0,-62"/>
<text text-anchor="middle" x="34.5" y="-69" font-family="Helvetica,sans-Serif" font-size="10.00">string_view</text>
</g>
<!-- Node5&#45;&gt;Node7 -->
<g id="edge6" class="edge"><title>Node5&#45;&gt;Node7</title>
<path fill="none" stroke="midnightblue" d="M100.468,-123.475C88.2316,-114.02 68.2715,-98.5961 53.5069,-87.1871"/>
<polygon fill="midnightblue" stroke="midnightblue" points="55.5647,-84.3541 45.5118,-81.0091 51.2845,-89.8931 55.5647,-84.3541"/>
</g>
<!-- Node8&#45;&gt;Node2 -->
<g id="edge15" class="edge"><title>Node8&#45;&gt;Node2</title>
<path fill="none" stroke="midnightblue" d="M1265.3,-131.92C1370.37,-131.339 1821.44,-126.543 1868.5,-87 1884.98,-73.1536 1888.34,-47.3843 1888.51,-29.7237"/>
<polygon fill="midnightblue" stroke="midnightblue" points="1892.01,-29.641 1888.28,-19.7251 1885.01,-29.8038 1892.01,-29.641"/>
</g>
<!-- Node8&#45;&gt;Node6 -->
<g id="edge9" class="edge"><title>Node8&#45;&gt;Node6</title>
<path fill="none" stroke="midnightblue" d="M1221.61,-132.176C1086.19,-133.102 361.145,-135.684 145.5,-87 142.981,-86.4312 140.413,-85.6828 137.874,-84.8254"/>
<polygon fill="midnightblue" stroke="midnightblue" points="138.981,-81.5002 128.392,-81.1272 136.437,-88.0217 138.981,-81.5002"/>
</g>
<!-- Node8&#45;&gt;Node7 -->
<g id="edge16" class="edge"><title>Node8&#45;&gt;Node7</title>
<path fill="none" stroke="midnightblue" d="M1221.68,-132.009C1081.78,-131.939 309.115,-129.603 77.5,-87 73.6016,-86.2829 69.5747,-85.2877 65.6203,-84.1512"/>
<polygon fill="midnightblue" stroke="midnightblue" points="66.6449,-80.8044 56.0546,-81.1136 64.5263,-87.4761 66.6449,-80.8044"/>
</g>
<!-- Node9 -->
<g id="node9" class="node"><title>Node9</title>
<polygon fill="white" stroke="#bfbfbf" points="1468,-62 1468,-81 1515,-81 1515,-62 1468,-62"/>
<text text-anchor="middle" x="1491.5" y="-69" font-family="Helvetica,sans-Serif" font-size="10.00">cmath</text>
</g>
<!-- Node8&#45;&gt;Node9 -->
<g id="edge8" class="edge"><title>Node8&#45;&gt;Node9</title>
<path fill="none" stroke="midnightblue" d="M1265.24,-128.979C1304.49,-123.191 1389.5,-109.115 1458.5,-87 1460.42,-86.384 1462.38,-85.6931 1464.34,-84.956"/>
<polygon fill="midnightblue" stroke="midnightblue" points="1466.03,-88.0492 1473.95,-81.0173 1463.37,-81.5724 1466.03,-88.0492"/>
</g>
<!-- Node10 -->
<g id="node10" class="node"><title>Node10</title>
<polygon fill="white" stroke="#bfbfbf" points="1533,-62 1533,-81 1580,-81 1580,-62 1533,-62"/>
<text text-anchor="middle" x="1556.5" y="-69" font-family="Helvetica,sans-Serif" font-size="10.00">cstdlib</text>
</g>
<!-- Node8&#45;&gt;Node10 -->
<g id="edge10" class="edge"><title>Node8&#45;&gt;Node10</title>
<path fill="none" stroke="midnightblue" d="M1265.09,-130.512C1312.77,-126.801 1430.35,-115.314 1524.5,-87 1526.43,-86.4204 1528.39,-85.7492 1530.35,-85.0198"/>
<polygon fill="midnightblue" stroke="midnightblue" points="1532,-88.1208 1539.88,-81.0408 1529.31,-81.6604 1532,-88.1208"/>
</g>
<!-- Node11 -->
<g id="node11" class="node"><title>Node11</title>
<polygon fill="white" stroke="#bfbfbf" points="1598.5,-62 1598.5,-81 1650.5,-81 1650.5,-62 1598.5,-62"/>
<text text-anchor="middle" x="1624.5" y="-69" font-family="Helvetica,sans-Serif" font-size="10.00">iterator</text>
</g>
<!-- Node8&#45;&gt;Node11 -->
<g id="edge11" class="edge"><title>Node8&#45;&gt;Node11</title>
<path fill="none" stroke="midnightblue" d="M1265.34,-131.151C1320.56,-128.579 1469.82,-118.971 1589.5,-87 1591.95,-86.3465 1594.45,-85.5615 1596.93,-84.6995"/>
<polygon fill="midnightblue" stroke="midnightblue" points="1598.21,-87.9599 1606.29,-81.1078 1595.7,-81.425 1598.21,-87.9599"/>
</g>
<!-- Node12 -->
<g id="node12" class="node"><title>Node12</title>
<polygon fill="white" stroke="#bfbfbf" points="1668.5,-62 1668.5,-81 1710.5,-81 1710.5,-62 1668.5,-62"/>
<text text-anchor="middle" x="1689.5" y="-69" font-family="Helvetica,sans-Serif" font-size="10.00">limits</text>
</g>
<!-- Node8&#45;&gt;Node12 -->
<g id="edge12" class="edge"><title>Node8&#45;&gt;Node12</title>
<path fill="none" stroke="midnightblue" d="M1265.21,-132.234C1327.75,-132.362 1513.2,-128.91 1659.5,-87 1661.38,-86.4623 1663.28,-85.8144 1665.17,-85.0947"/>
<polygon fill="midnightblue" stroke="midnightblue" points="1666.58,-88.2987 1674.33,-81.0751 1663.77,-81.8888 1666.58,-88.2987"/>
</g>
<!-- Node13 -->
<g id="node13" class="node"><title>Node13</title>
<polygon fill="white" stroke="#bfbfbf" points="1729,-62 1729,-81 1786,-81 1786,-62 1729,-62"/>
<text text-anchor="middle" x="1757.5" y="-69" font-family="Helvetica,sans-Serif" font-size="10.00">memory</text>
</g>
<!-- Node8&#45;&gt;Node13 -->
<g id="edge13" class="edge"><title>Node8&#45;&gt;Node13</title>
<path fill="none" stroke="midnightblue" d="M1265.18,-132.018C1333.15,-131.637 1547.73,-127.109 1719.5,-87 1722.5,-86.3001 1725.58,-85.418 1728.62,-84.4362"/>
<polygon fill="midnightblue" stroke="midnightblue" points="1729.85,-87.7144 1738.09,-81.0609 1727.5,-81.1205 1729.85,-87.7144"/>
</g>
<!-- Node14 -->
<g id="node14" class="node"><title>Node14</title>
<polygon fill="white" stroke="#bfbfbf" points="1804,-62 1804,-81 1859,-81 1859,-62 1804,-62"/>
<text text-anchor="middle" x="1831.5" y="-69" font-family="Helvetica,sans-Serif" font-size="10.00">optional</text>
</g>
<!-- Node8&#45;&gt;Node14 -->
<g id="edge14" class="edge"><title>Node8&#45;&gt;Node14</title>
<path fill="none" stroke="midnightblue" d="M1265.17,-132.552C1339.95,-133.968 1593.62,-134.721 1795.5,-87 1798.17,-86.3679 1800.91,-85.5692 1803.62,-84.6731"/>
<polygon fill="midnightblue" stroke="midnightblue" points="1805.01,-87.8899 1813.16,-81.124 1802.57,-81.3288 1805.01,-87.8899"/>
</g>
<!-- Node15 -->
<g id="node15" class="node"><title>Node15</title>
<polygon fill="white" stroke="#bfbfbf" points="154.5,-62 154.5,-81 222.5,-81 222.5,-62 154.5,-62"/>
<text text-anchor="middle" x="188.5" y="-69" font-family="Helvetica,sans-Serif" font-size="10.00">type_traits</text>
</g>
<!-- Node8&#45;&gt;Node15 -->
<g id="edge17" class="edge"><title>Node8&#45;&gt;Node15</title>
<path fill="none" stroke="midnightblue" d="M1221.73,-131.861C1093.06,-130.917 430.952,-124.291 231.5,-87 227.604,-86.2715 223.578,-85.2693 219.624,-84.1291"/>
<polygon fill="midnightblue" stroke="midnightblue" points="220.65,-80.7825 210.059,-81.0879 218.529,-87.4535 220.65,-80.7825"/>
</g>
<!-- Node16 -->
<g id="node16" class="node"><title>Node16</title>
<polygon fill="white" stroke="#bfbfbf" points="241,-56.5 241,-86.5 368,-86.5 368,-56.5 241,-56.5"/>
<text text-anchor="start" x="249" y="-74.5" font-family="Helvetica,sans-Serif" font-size="10.00">boost/exception/errinfo</text>
<text text-anchor="middle" x="304.5" y="-63.5" font-family="Helvetica,sans-Serif" font-size="10.00">_at_line.hpp</text>
</g>
<!-- Node8&#45;&gt;Node16 -->
<g id="edge18" class="edge"><title>Node8&#45;&gt;Node16</title>
<path fill="none" stroke="midnightblue" d="M1221.95,-132.044C1125,-132.001 719.502,-129.246 378.101,-87.0776"/>
<polygon fill="midnightblue" stroke="midnightblue" points="378.377,-83.5848 368.02,-85.8185 377.509,-90.5309 378.377,-83.5848"/>
</g>
<!-- Node17 -->
<g id="node17" class="node"><title>Node17</title>
<polygon fill="white" stroke="#bfbfbf" points="386,-56.5 386,-86.5 513,-86.5 513,-56.5 386,-56.5"/>
<text text-anchor="start" x="394" y="-74.5" font-family="Helvetica,sans-Serif" font-size="10.00">boost/exception/errinfo</text>
<text text-anchor="middle" x="449.5" y="-63.5" font-family="Helvetica,sans-Serif" font-size="10.00">_errno.hpp</text>
</g>
<!-- Node8&#45;&gt;Node17 -->
<g id="edge19" class="edge"><title>Node8&#45;&gt;Node17</title>
<path fill="none" stroke="midnightblue" d="M1221.87,-131.704C1135.25,-130.301 804.919,-122.85 523.122,-86.9463"/>
<polygon fill="midnightblue" stroke="midnightblue" points="523.484,-83.4641 513.119,-85.6571 522.589,-90.4067 523.484,-83.4641"/>
</g>
<!-- Node18 -->
<g id="node18" class="node"><title>Node18</title>
<polygon fill="white" stroke="#bfbfbf" points="531,-56.5 531,-86.5 658,-86.5 658,-56.5 531,-56.5"/>
<text text-anchor="start" x="539" y="-74.5" font-family="Helvetica,sans-Serif" font-size="10.00">boost/exception/errinfo</text>
<text text-anchor="middle" x="594.5" y="-63.5" font-family="Helvetica,sans-Serif" font-size="10.00">_file_name.hpp</text>
</g>
<!-- Node8&#45;&gt;Node18 -->
<g id="edge20" class="edge"><title>Node8&#45;&gt;Node18</title>
<path fill="none" stroke="midnightblue" d="M1221.96,-131.235C1147,-128.382 890.55,-117.014 668.347,-86.9953"/>
<polygon fill="midnightblue" stroke="midnightblue" points="668.508,-83.4849 658.126,-85.5979 667.56,-90.4204 668.508,-83.4849"/>
</g>
<!-- Node19 -->
<g id="node19" class="node"><title>Node19</title>
<polygon fill="white" stroke="#bfbfbf" points="676,-56.5 676,-86.5 803,-86.5 803,-56.5 676,-56.5"/>
<text text-anchor="start" x="684" y="-74.5" font-family="Helvetica,sans-Serif" font-size="10.00">boost/exception/errinfo</text>
<text text-anchor="middle" x="739.5" y="-63.5" font-family="Helvetica,sans-Serif" font-size="10.00">_file_open_mode.hpp</text>
</g>
<!-- Node8&#45;&gt;Node19 -->
<g id="edge21" class="edge"><title>Node8&#45;&gt;Node19</title>
<path fill="none" stroke="midnightblue" d="M1221.88,-130.451C1159.96,-125.865 976.452,-111.235 813.357,-87.0322"/>
<polygon fill="midnightblue" stroke="midnightblue" points="813.549,-83.522 803.141,-85.4993 812.511,-90.4445 813.549,-83.522"/>
</g>
<!-- Node20 -->
<g id="node20" class="node"><title>Node20</title>
<polygon fill="white" stroke="#bfbfbf" points="821.5,-56.5 821.5,-86.5 941.5,-86.5 941.5,-56.5 821.5,-56.5"/>
<text text-anchor="start" x="829.5" y="-74.5" font-family="Helvetica,sans-Serif" font-size="10.00">boost/iterator/iterator</text>
<text text-anchor="middle" x="881.5" y="-63.5" font-family="Helvetica,sans-Serif" font-size="10.00">_facade.hpp</text>
</g>
<!-- Node8&#45;&gt;Node20 -->
<g id="edge22" class="edge"><title>Node8&#45;&gt;Node20</title>
<path fill="none" stroke="midnightblue" d="M1221.82,-129.048C1174.75,-122.555 1059.47,-106.207 951.845,-87.0006"/>
<polygon fill="midnightblue" stroke="midnightblue" points="952.252,-83.5178 941.791,-85.1937 951.014,-90.4074 952.252,-83.5178"/>
</g>
<!-- Node21 -->
<g id="node21" class="node"><title>Node21</title>
<polygon fill="white" stroke="#bfbfbf" points="960,-56.5 960,-86.5 1075,-86.5 1075,-56.5 960,-56.5"/>
<text text-anchor="start" x="968" y="-74.5" font-family="Helvetica,sans-Serif" font-size="10.00">boost/range/adaptor</text>
<text text-anchor="middle" x="1017.5" y="-63.5" font-family="Helvetica,sans-Serif" font-size="10.00">/filtered.hpp</text>
</g>
<!-- Node8&#45;&gt;Node21 -->
<g id="edge23" class="edge"><title>Node8&#45;&gt;Node21</title>
<path fill="none" stroke="midnightblue" d="M1221.83,-126.295C1189.65,-117.822 1127.95,-101.579 1080.74,-89.1487"/>
<polygon fill="midnightblue" stroke="midnightblue" points="1081.46,-85.7197 1070.9,-86.5583 1079.68,-92.489 1081.46,-85.7197"/>
</g>
<!-- Node22 -->
<g id="node22" class="node"><title>Node22</title>
<polygon fill="white" stroke="#bfbfbf" points="1093.5,-62 1093.5,-81 1179.5,-81 1179.5,-62 1093.5,-62"/>
<text text-anchor="middle" x="1136.5" y="-69" font-family="Helvetica,sans-Serif" font-size="10.00">libxml/parser.h</text>
</g>
<!-- Node8&#45;&gt;Node22 -->
<g id="edge24" class="edge"><title>Node8&#45;&gt;Node22</title>
<path fill="none" stroke="midnightblue" d="M1228.17,-123.475C1210.53,-113.666 1181.34,-97.4346 1160.64,-85.925"/>
<polygon fill="midnightblue" stroke="midnightblue" points="1162.24,-82.8102 1151.8,-81.0091 1158.84,-88.9279 1162.24,-82.8102"/>
</g>
<!-- Node23 -->
<g id="node23" class="node"><title>Node23</title>
<polygon fill="white" stroke="#bfbfbf" points="1197.5,-62 1197.5,-81 1289.5,-81 1289.5,-62 1197.5,-62"/>
<text text-anchor="middle" x="1243.5" y="-69" font-family="Helvetica,sans-Serif" font-size="10.00">libxml/relaxng.h</text>
</g>
<!-- Node8&#45;&gt;Node23 -->
<g id="edge25" class="edge"><title>Node8&#45;&gt;Node23</title>
<path fill="none" stroke="midnightblue" d="M1243.5,-123.475C1243.5,-115.08 1243.5,-101.981 1243.5,-91.1631"/>
<polygon fill="midnightblue" stroke="midnightblue" points="1247,-91.0091 1243.5,-81.0091 1240,-91.0091 1247,-91.0091"/>
</g>
<!-- Node24 -->
<g id="node24" class="node"><title>Node24</title>
<polygon fill="white" stroke="#bfbfbf" points="1307.5,-62 1307.5,-81 1383.5,-81 1383.5,-62 1307.5,-62"/>
<text text-anchor="middle" x="1345.5" y="-69" font-family="Helvetica,sans-Serif" font-size="10.00">libxml/tree.h</text>
</g>
<!-- Node8&#45;&gt;Node24 -->
<g id="edge26" class="edge"><title>Node8&#45;&gt;Node24</title>
<path fill="none" stroke="midnightblue" d="M1258.11,-123.475C1274.85,-113.711 1302.5,-97.5807 1322.22,-86.0808"/>
<polygon fill="midnightblue" stroke="midnightblue" points="1324.04,-89.0711 1330.91,-81.0091 1320.51,-83.0246 1324.04,-89.0711"/>
</g>
<!-- Node25 -->
<g id="node25" class="node"><title>Node25</title>
<g id="a_node25"><a xlink:href="error_8h.xhtml" target="_top" xlink:title="Exceptions for SCRAM. ">
<polygon fill="white" stroke="black" points="1401.5,-62 1401.5,-81 1449.5,-81 1449.5,-62 1401.5,-62"/>
<text text-anchor="middle" x="1425.5" y="-69" font-family="Helvetica,sans-Serif" font-size="10.00">error.h</text>
</a>
</g>
</g>
<!-- Node8&#45;&gt;Node25 -->
<g id="edge27" class="edge"><title>Node8&#45;&gt;Node25</title>
<path fill="none" stroke="midnightblue" d="M1265.24,-126.322C1294.49,-118.478 1348.01,-103.424 1392.5,-87 1394.15,-86.3891 1395.85,-85.737 1397.54,-85.06"/>
<polygon fill="midnightblue" stroke="midnightblue" points="1399.29,-88.1222 1407.16,-81.027 1396.58,-81.6669 1399.29,-88.1222"/>
</g>
<!-- Node25&#45;&gt;Node2 -->
<g id="edge29" class="edge"><title>Node25&#45;&gt;Node2</title>
<path fill="none" stroke="midnightblue" d="M1442.8,-61.9465C1448.05,-59.6738 1453.91,-57.4509 1459.5,-56 1534.49,-36.5378 1768.85,-19.0772 1855.16,-13.1469"/>
<polygon fill="midnightblue" stroke="midnightblue" points="1855.66,-16.6211 1865.4,-12.45 1855.19,-9.63725 1855.66,-16.6211"/>
</g>
<!-- Node26 -->
<g id="node26" class="node"><title>Node26</title>
<polygon fill="white" stroke="#bfbfbf" points="1493,-0.5 1493,-19.5 1556,-19.5 1556,-0.5 1493,-0.5"/>
<text text-anchor="middle" x="1524.5" y="-7.5" font-family="Helvetica,sans-Serif" font-size="10.00">exception</text>
</g>
<!-- Node25&#45;&gt;Node26 -->
<g id="edge28" class="edge"><title>Node25&#45;&gt;Node26</title>
<path fill="none" stroke="midnightblue" d="M1439.68,-61.9751C1455.86,-52.2548 1482.53,-36.2266 1501.64,-24.7372"/>
<polygon fill="midnightblue" stroke="midnightblue" points="1503.57,-27.6603 1510.34,-19.5091 1499.97,-21.6606 1503.57,-27.6603"/>
</g>
<!-- Node27 -->
<g id="node27" class="node"><title>Node27</title>
<polygon fill="white" stroke="#bfbfbf" points="1574.5,-0.5 1574.5,-19.5 1720.5,-19.5 1720.5,-0.5 1574.5,-0.5"/>
<text text-anchor="middle" x="1647.5" y="-7.5" font-family="Helvetica,sans-Serif" font-size="10.00">boost/current_function.hpp</text>
</g>
<!-- Node25&#45;&gt;Node27 -->
<g id="edge30" class="edge"><title>Node25&#45;&gt;Node27</title>
<path fill="none" stroke="midnightblue" d="M1443.99,-61.9486C1448.96,-59.833 1454.38,-57.6907 1459.5,-56 1503.53,-41.4576 1554.79,-29.5056 1592.65,-21.5833"/>
<polygon fill="midnightblue" stroke="midnightblue" points="1593.38,-25.0066 1602.47,-19.557 1591.96,-18.1512 1593.38,-25.0066"/>
</g>
<!-- Node28 -->
<g id="node28" class="node"><title>Node28</title>
<polygon fill="white" stroke="#bfbfbf" points="1042.5,-0.5 1042.5,-19.5 1206.5,-19.5 1206.5,-0.5 1042.5,-0.5"/>
<text text-anchor="middle" x="1124.5" y="-7.5" font-family="Helvetica,sans-Serif" font-size="10.00">boost/exception/exception.hpp</text>
</g>
<!-- Node25&#45;&gt;Node28 -->
<g id="edge31" class="edge"><title>Node25&#45;&gt;Node28</title>
<path fill="none" stroke="midnightblue" d="M1408.33,-61.9979C1403.33,-59.7814 1397.78,-57.5757 1392.5,-56 1335.17,-38.8797 1268.86,-27.6781 1216.55,-20.7327"/>
<polygon fill="midnightblue" stroke="midnightblue" points="1216.98,-17.2596 1206.62,-19.4424 1216.08,-24.2013 1216.98,-17.2596"/>
</g>
<!-- Node29 -->
<g id="node29" class="node"><title>Node29</title>
<polygon fill="white" stroke="#bfbfbf" points="1224.5,-0.5 1224.5,-19.5 1358.5,-19.5 1358.5,-0.5 1224.5,-0.5"/>
<text text-anchor="middle" x="1291.5" y="-7.5" font-family="Helvetica,sans-Serif" font-size="10.00">boost/exception/info.hpp</text>
</g>
<!-- Node25&#45;&gt;Node29 -->
<g id="edge32" class="edge"><title>Node25&#45;&gt;Node29</title>
<path fill="none" stroke="midnightblue" d="M1406.3,-61.9751C1383.71,-51.9455 1346,-35.2002 1320,-23.6546"/>
<polygon fill="midnightblue" stroke="midnightblue" points="1321.22,-20.3685 1310.66,-19.5091 1318.38,-26.7662 1321.22,-20.3685"/>
</g>
<!-- Node30 -->
<g id="node30" class="node"><title>Node30</title>
<g id="a_node30"><a xlink:href="source__info_8h.xhtml" target="_top" xlink:title="Helper facilities to get source file information. ">
<polygon fill="white" stroke="black" points="1376.5,-0.5 1376.5,-19.5 1474.5,-19.5 1474.5,-0.5 1376.5,-0.5"/>
<text text-anchor="middle" x="1425.5" y="-7.5" font-family="Helvetica,sans-Serif" font-size="10.00">ext/source_info.h</text>
</a>
</g>
</g>
<!-- Node25&#45;&gt;Node30 -->
<g id="edge33" class="edge"><title>Node25&#45;&gt;Node30</title>
<path fill="none" stroke="midnightblue" d="M1425.5,-61.9751C1425.5,-53.5803 1425.5,-40.4806 1425.5,-29.6631"/>
<polygon fill="midnightblue" stroke="midnightblue" points="1429,-29.5091 1425.5,-19.5091 1422,-29.5091 1429,-29.5091"/>
</g>
</g>
</svg>
        <g id="navigator" transform="translate(0 0)" fill="#404254">
                <rect fill="#f2f5e9" fill-opacity="0.5" stroke="#606060" stroke-width=".5" x="0" y="0" width="60" height="60"/>
                <use id="zoomplus" xlink:href="#zoomPlus" x="17" y="9" onmousedown="handleZoom(evt,'in')"/>
                <use id="zoomminus" xlink:href="#zoomMin" x="42" y="9" onmousedown="handleZoom(evt,'out')"/>
                <use id="reset" xlink:href="#resetDef" x="30" y="36" onmousedown="handleReset()"/>
                <g id="arrowUp" xlink:href="#dirArrow" transform="translate(30 24)" onmousedown="handlePan(0,-1)">
                  <use xlink:href="#rim" fill="#404040">
                        <set attributeName="fill" to="#808080" begin="arrowUp.mouseover" end="arrowUp.mouseout"/>
                  </use>
                  <path fill="none" stroke="white" stroke-width="1.5" d="M0,-3.0v7 M-2.5,-0.5L0,-3.0L2.5,-0.5"/>
                </g>
                <g id="arrowRight" xlink:href="#dirArrow" transform="rotate(90) translate(36 -43)" onmousedown="handlePan(1,0)">
                  <use xlink:href="#rim" fill="#404040">
                        <set attributeName="fill" to="#808080" begin="arrowRight.mouseover" end="arrowRight.mouseout"/>
                  </use>
                  <path fill="none" stroke="white" stroke-width="1.5" d="M0,-3.0v7 M-2.5,-0.5L0,-3.0L2.5,-0.5"/>
                </g>
                <g id="arrowDown" xlink:href="#dirArrow" transform="rotate(180) translate(-30 -48)" onmousedown="handlePan(0,1)">
                  <use xlink:href="#rim" fill="#404040">
                        <set attributeName="fill" to="#808080" begin="arrowDown.mouseover" end="arrowDown.mouseout"/>
                  </use>
                  <path fill="none" stroke="white" stroke-width="1.5" d="M0,-3.0v7 M-2.5,-0.5L0,-3.0L2.5,-0.5"/>
                </g>
                <g id="arrowLeft" xlink:href="#dirArrow" transform="rotate(270) translate(-36 17)" onmousedown="handlePan(-1,0)">
                  <use xlink:href="#rim" fill="#404040">
                        <set attributeName="fill" to="#808080" begin="arrowLeft.mouseover" end="arrowLeft.mouseout"/>
                  </use>
                  <path fill="none" stroke="white" stroke-width="1.5" d="M0,-3.0v7 M-2.5,-0.5L0,-3.0L2.5,-0.5"/>
                </g>
        </g>
        <svg viewBox="0 0 15 15" width="100%" height="30px" preserveAspectRatio="xMaxYMin meet">
         <g id="arrow_out" transform="scale(0.3 0.3)">
          <a xlink:href="config_8h__incl_org.svg" target="_base">
           <rect id="button" ry="5" rx="5" y="6" x="6" height="38" width="38"
                fill="#f2f5e9" fill-opacity="0.5" stroke="#606060" stroke-width="1.0"/>
           <path id="arrow"
             d="M 11.500037,31.436501 C 11.940474,20.09759 22.043105,11.32322 32.158766,21.979434 L 37.068811,17.246167 C 37.068811,17.246167 37.088388,32 37.088388,32 L 22.160133,31.978069 C 22.160133,31.978069 26.997745,27.140456 26.997745,27.140456 C 18.528582,18.264221 13.291696,25.230495 11.500037,31.436501 z"
             style="fill:#404040;"/>
          </a>
         </g>
        </svg>
</svg>
