<?xml version="1.0" encoding="UTF-8" standalone="no"?>
<!DOCTYPE svg PUBLIC "-//W3C//DTD SVG 1.1//EN"
 "http://www.w3.org/Graphics/SVG/1.1/DTD/svg11.dtd">
<!-- Generated by graphviz version 2.38.0 (20140413.2041)
 -->
<!-- Title: config.h Pages: 1 -->
<svg width="146pt" height="84pt"
 viewBox="0.00 0.00 145.50 84.00" xmlns="http://www.w3.org/2000/svg" xmlns:xlink="http://www.w3.org/1999/xlink">
<g id="graph0" class="graph" transform="scale(1 1) rotate(0) translate(4 80)">
<title>config.h</title>
<polygon fill="white" stroke="none" points="-4,4 -4,-80 141.5,-80 141.5,4 -4,4"/>
<!-- Node1 -->
<g id="node1" class="node"><title>Node1</title>
<polygon fill="#bfbfbf" stroke="black" points="41.5,-56.5 41.5,-75.5 95.5,-75.5 95.5,-56.5 41.5,-56.5"/>
<text text-anchor="middle" x="68.5" y="-63.5" font-family="Helvetica,sans-Serif" font-size="10.00">config.h</text>
</g>
<!-- Node2 -->
<g id="node2" class="node"><title>Node2</title>
<g id="a_node2"><a xlink:href="config_8cc.xhtml" target="_top" xlink:title="Implementation of configuration facilities. ">
<polygon fill="white" stroke="black" points="0,-0.5 0,-19.5 59,-19.5 59,-0.5 0,-0.5"/>
<text text-anchor="middle" x="29.5" y="-7.5" font-family="Helvetica,sans-Serif" font-size="10.00">config.cc</text>
</a>
</g>
</g>
<!-- Node1&#45;&gt;Node2 -->
<g id="edge1" class="edge"><title>Node1&#45;&gt;Node2</title>
<path fill="none" stroke="midnightblue" d="M56.1178,-47.8554C49.3646,-38.5048 41.2914,-27.3265 35.8202,-19.7511"/>
<polygon fill="midnightblue" stroke="midnightblue" points="53.3676,-50.0254 62.0599,-56.083 59.0424,-45.927 53.3676,-50.0254"/>
</g>
<!-- Node3 -->
<g id="node3" class="node"><title>Node3</title>
<g id="a_node3"><a xlink:href="scram_8cc.xhtml" target="_top" xlink:title="Main entrance. ">
<polygon fill="white" stroke="black" points="77.5,-0.5 77.5,-19.5 137.5,-19.5 137.5,-0.5 77.5,-0.5"/>
<text text-anchor="middle" x="107.5" y="-7.5" font-family="Helvetica,sans-Serif" font-size="10.00">scram.cc</text>
</a>
</g>
</g>
<!-- Node1&#45;&gt;Node3 -->
<g id="edge2" class="edge"><title>Node1&#45;&gt;Node3</title>
<path fill="none" stroke="midnightblue" d="M80.8822,-47.8554C87.6354,-38.5048 95.7086,-27.3265 101.18,-19.7511"/>
<polygon fill="midnightblue" stroke="midnightblue" points="77.9576,-45.927 74.9401,-56.083 83.6324,-50.0254 77.9576,-45.927"/>
</g>
</g>
</svg>
