<?xml version="1.0" encoding="UTF-8" standalone="no"?>
<!DOCTYPE svg PUBLIC "-//W3C//DTD SVG 1.1//EN"
 "http://www.w3.org/Graphics/SVG/1.1/DTD/svg11.dtd">
<!-- Generated by graphviz version 2.38.0 (20140413.2041)
 -->
<!-- Title: scram::mef::cycle::GetConnectors Pages: 1 -->
<svg width="754pt" height="191pt"
 viewBox="0.00 0.00 754.00 191.00" xmlns="http://www.w3.org/2000/svg" xmlns:xlink="http://www.w3.org/1999/xlink">
<g id="graph0" class="graph" transform="scale(1 1) rotate(0) translate(4 187)">
<title>scram::mef::cycle::GetConnectors</title>
<polygon fill="white" stroke="none" points="-4,4 -4,-187 750,-187 750,4 -4,4"/>
<!-- Node1 -->
<g id="node1" class="node"><title>Node1</title>
<polygon fill="#bfbfbf" stroke="black" points="0,-61.5 0,-91.5 107,-91.5 107,-61.5 0,-61.5"/>
<text text-anchor="start" x="8" y="-79.5" font-family="Helvetica,sans-Serif" font-size="10.00">scram::mef::cycle::</text>
<text text-anchor="middle" x="53.5" y="-68.5" font-family="Helvetica,sans-Serif" font-size="10.00">GetConnectors</text>
</g>
<!-- Node2 -->
<g id="node2" class="node"><title>Node2</title>
<g id="a_node2"><a xlink:href="classscram_1_1mef_1_1Expression.xhtml#ac22fdb9ced7ef6942f666337b6a34110" target="_top" xlink:title="scram::mef::Expression\l::args">
<polygon fill="white" stroke="black" points="143,-110.5 143,-140.5 272,-140.5 272,-110.5 143,-110.5"/>
<text text-anchor="start" x="151" y="-128.5" font-family="Helvetica,sans-Serif" font-size="10.00">scram::mef::Expression</text>
<text text-anchor="middle" x="207.5" y="-117.5" font-family="Helvetica,sans-Serif" font-size="10.00">::args</text>
</a>
</g>
</g>
<!-- Node1&#45;&gt;Node2 -->
<g id="edge1" class="edge"><title>Node1&#45;&gt;Node2</title>
<path fill="none" stroke="midnightblue" d="M101.345,-91.6014C116.732,-96.5615 133.997,-102.127 150.021,-107.293"/>
<polygon fill="midnightblue" stroke="midnightblue" points="149.218,-110.711 159.809,-110.448 151.366,-104.049 149.218,-110.711"/>
</g>
<!-- Node3 -->
<g id="node3" class="node"><title>Node3</title>
<g id="a_node3"><a xlink:href="cycle_8h.xhtml#a21de1e2b8ca8017c9c0c5ef3254b433e" target="_top" xlink:title="Helper function to check for cyclic references through connectors. ">
<polygon fill="white" stroke="black" points="153,-61.5 153,-91.5 262,-91.5 262,-61.5 153,-61.5"/>
<text text-anchor="start" x="161" y="-79.5" font-family="Helvetica,sans-Serif" font-size="10.00">scram::mef::cycle::</text>
<text text-anchor="middle" x="207.5" y="-68.5" font-family="Helvetica,sans-Serif" font-size="10.00">ContinueConnector</text>
</a>
</g>
</g>
<!-- Node1&#45;&gt;Node3 -->
<g id="edge2" class="edge"><title>Node1&#45;&gt;Node3</title>
<path fill="none" stroke="midnightblue" d="M107.236,-76.5C118.642,-76.5 130.823,-76.5 142.605,-76.5"/>
<polygon fill="midnightblue" stroke="midnightblue" points="142.827,-80.0001 152.827,-76.5 142.827,-73.0001 142.827,-80.0001"/>
</g>
<!-- Node9 -->
<g id="node9" class="node"><title>Node9</title>
<g id="a_node9"><a xlink:href="cycle_8h.xhtml#aef7ec67f39719b384e5a3ca7f879bdba" target="_top" xlink:title="Retrieves connectors from a connector. ">
<polygon fill="white" stroke="black" points="308,-0.5 308,-30.5 415,-30.5 415,-0.5 308,-0.5"/>
<text text-anchor="start" x="316" y="-18.5" font-family="Helvetica,sans-Serif" font-size="10.00">scram::mef::cycle::</text>
<text text-anchor="middle" x="361.5" y="-7.5" font-family="Helvetica,sans-Serif" font-size="10.00">GetConnectors</text>
</a>
</g>
</g>
<!-- Node1&#45;&gt;Node9 -->
<g id="edge14" class="edge"><title>Node1&#45;&gt;Node9</title>
<path fill="none" stroke="midnightblue" d="M104.333,-61.3753C116.884,-57.8557 130.378,-54.3181 143,-51.5 194.809,-39.9323 254.322,-30.332 297.984,-23.9627"/>
<polygon fill="midnightblue" stroke="midnightblue" points="298.49,-27.426 307.887,-22.5337 297.49,-20.4978 298.49,-27.426"/>
</g>
<!-- Node4 -->
<g id="node4" class="node"><title>Node4</title>
<g id="a_node4"><a xlink:href="cycle_8h.xhtml#ab063b76c05f086177494eefc8dc57da9" target="_top" xlink:title="Retrieves nodes from a connector. ">
<polygon fill="white" stroke="black" points="308,-134.5 308,-164.5 415,-164.5 415,-134.5 308,-134.5"/>
<text text-anchor="start" x="316" y="-152.5" font-family="Helvetica,sans-Serif" font-size="10.00">scram::mef::cycle::</text>
<text text-anchor="middle" x="361.5" y="-141.5" font-family="Helvetica,sans-Serif" font-size="10.00">GetNodes</text>
</a>
</g>
</g>
<!-- Node3&#45;&gt;Node4 -->
<g id="edge3" class="edge"><title>Node3&#45;&gt;Node4</title>
<path fill="none" stroke="midnightblue" d="M252.449,-91.6173C259.109,-94.334 265.815,-97.3219 272,-100.5 289.104,-109.289 291.276,-115.008 308,-124.5 311.218,-126.327 314.591,-128.143 318.009,-129.914"/>
<polygon fill="midnightblue" stroke="midnightblue" points="316.576,-133.111 327.083,-134.473 319.719,-126.856 316.576,-133.111"/>
</g>
<!-- Node6 -->
<g id="node6" class="node"><title>Node6</title>
<g id="a_node6"><a xlink:href="cycle_8h.xhtml#ac003a658a591ba3581a74b4322df67cb" target="_top" xlink:title="Traverses nodes with connectors to find a cycle. ">
<polygon fill="white" stroke="black" points="308,-67.5 308,-97.5 415,-97.5 415,-67.5 308,-67.5"/>
<text text-anchor="start" x="316" y="-85.5" font-family="Helvetica,sans-Serif" font-size="10.00">scram::mef::cycle::</text>
<text text-anchor="middle" x="361.5" y="-74.5" font-family="Helvetica,sans-Serif" font-size="10.00">DetectCycle</text>
</a>
</g>
</g>
<!-- Node3&#45;&gt;Node6 -->
<g id="edge6" class="edge"><title>Node3&#45;&gt;Node6</title>
<path fill="none" stroke="midnightblue" d="M262.09,-78.6154C273.592,-79.0694 285.847,-79.5532 297.664,-80.0196"/>
<polygon fill="midnightblue" stroke="midnightblue" points="297.776,-83.5267 307.906,-80.4239 298.052,-76.5321 297.776,-83.5267"/>
</g>
<!-- Node3&#45;&gt;Node9 -->
<g id="edge11" class="edge"><title>Node3&#45;&gt;Node9</title>
<path fill="none" stroke="midnightblue" d="M246.073,-61.4213C266.52,-53.2156 292.003,-42.989 313.727,-34.2707"/>
<polygon fill="midnightblue" stroke="midnightblue" points="315.119,-37.4835 323.096,-30.5108 312.512,-30.9871 315.119,-37.4835"/>
</g>
<!-- Node4&#45;&gt;Node4 -->
<g id="edge5" class="edge"><title>Node4&#45;&gt;Node4</title>
<path fill="none" stroke="midnightblue" d="M336.056,-164.659C329.921,-174.057 338.402,-183 361.5,-183 375.575,-183 384.223,-179.679 387.442,-174.958"/>
<polygon fill="midnightblue" stroke="midnightblue" points="390.923,-174.478 386.944,-164.659 383.932,-174.817 390.923,-174.478"/>
</g>
<!-- Node5 -->
<g id="node5" class="node"><title>Node5</title>
<g id="a_node5"><a xlink:href="classscram_1_1mef_1_1Formula.xhtml#a4e86a729bae4629de0217c9f8c6960a0" target="_top" xlink:title="scram::mef::Formula\l::event_args">
<polygon fill="white" stroke="black" points="451,-134.5 451,-164.5 567,-164.5 567,-134.5 451,-134.5"/>
<text text-anchor="start" x="459" y="-152.5" font-family="Helvetica,sans-Serif" font-size="10.00">scram::mef::Formula</text>
<text text-anchor="middle" x="509" y="-141.5" font-family="Helvetica,sans-Serif" font-size="10.00">::event_args</text>
</a>
</g>
</g>
<!-- Node4&#45;&gt;Node5 -->
<g id="edge4" class="edge"><title>Node4&#45;&gt;Node5</title>
<path fill="none" stroke="midnightblue" d="M415.029,-149.5C423.337,-149.5 432.027,-149.5 440.616,-149.5"/>
<polygon fill="midnightblue" stroke="midnightblue" points="440.625,-153 450.625,-149.5 440.625,-146 440.625,-153"/>
</g>
<!-- Node6&#45;&gt;Node6 -->
<g id="edge7" class="edge"><title>Node6&#45;&gt;Node6</title>
<path fill="none" stroke="midnightblue" d="M336.056,-97.659C329.921,-107.057 338.402,-116 361.5,-116 375.575,-116 384.223,-112.679 387.442,-107.958"/>
<polygon fill="midnightblue" stroke="midnightblue" points="390.923,-107.478 386.944,-97.659 383.932,-107.817 390.923,-107.478"/>
</g>
<!-- Node7 -->
<g id="node7" class="node"><title>Node7</title>
<g id="a_node7"><a xlink:href="cycle_8h.xhtml#a5e9e5b23ea9b3c45f67cb2c004ece82c" target="_top" xlink:title="Determines the connectors between nodes. ">
<polygon fill="white" stroke="black" points="455.5,-67.5 455.5,-97.5 562.5,-97.5 562.5,-67.5 455.5,-67.5"/>
<text text-anchor="start" x="463.5" y="-85.5" font-family="Helvetica,sans-Serif" font-size="10.00">scram::mef::cycle::</text>
<text text-anchor="middle" x="509" y="-74.5" font-family="Helvetica,sans-Serif" font-size="10.00">GetConnector</text>
</a>
</g>
</g>
<!-- Node6&#45;&gt;Node7 -->
<g id="edge8" class="edge"><title>Node6&#45;&gt;Node7</title>
<path fill="none" stroke="midnightblue" d="M415.029,-82.5C424.695,-82.5 434.879,-82.5 444.82,-82.5"/>
<polygon fill="midnightblue" stroke="midnightblue" points="445.06,-86.0001 455.06,-82.5 445.06,-79.0001 445.06,-86.0001"/>
</g>
<!-- Node7&#45;&gt;Node7 -->
<g id="edge10" class="edge"><title>Node7&#45;&gt;Node7</title>
<path fill="none" stroke="midnightblue" d="M483.556,-97.659C477.421,-107.057 485.902,-116 509,-116 523.075,-116 531.723,-112.679 534.942,-107.958"/>
<polygon fill="midnightblue" stroke="midnightblue" points="538.423,-107.478 534.444,-97.659 531.432,-107.817 538.423,-107.478"/>
</g>
<!-- Node8 -->
<g id="node8" class="node"><title>Node8</title>
<g id="a_node8"><a xlink:href="classscram_1_1mef_1_1Gate.xhtml#abde84a63a060e2424ab92431634f21d9" target="_top" xlink:title="scram::mef::Gate::formula">
<polygon fill="white" stroke="black" points="603,-73 603,-92 746,-92 746,-73 603,-73"/>
<text text-anchor="middle" x="674.5" y="-80" font-family="Helvetica,sans-Serif" font-size="10.00">scram::mef::Gate::formula</text>
</a>
</g>
</g>
<!-- Node7&#45;&gt;Node8 -->
<g id="edge9" class="edge"><title>Node7&#45;&gt;Node8</title>
<path fill="none" stroke="midnightblue" d="M562.632,-82.5C572.224,-82.5 582.431,-82.5 592.621,-82.5"/>
<polygon fill="midnightblue" stroke="midnightblue" points="592.78,-86.0001 602.78,-82.5 592.78,-79.0001 592.78,-86.0001"/>
</g>
<!-- Node9&#45;&gt;Node9 -->
<g id="edge13" class="edge"><title>Node9&#45;&gt;Node9</title>
<path fill="none" stroke="midnightblue" d="M336.056,-30.659C329.921,-40.0566 338.402,-49 361.5,-49 375.575,-49 384.223,-45.679 387.442,-40.9579"/>
<polygon fill="midnightblue" stroke="midnightblue" points="390.923,-40.4779 386.944,-30.659 383.932,-40.8167 390.923,-40.4779"/>
</g>
<!-- Node10 -->
<g id="node10" class="node"><title>Node10</title>
<g id="a_node10"><a xlink:href="classscram_1_1mef_1_1Formula.xhtml#af3c5953f817cc202b5009cc4557c7d72" target="_top" xlink:title="scram::mef::Formula\l::formula_args">
<polygon fill="white" stroke="black" points="451,-0.5 451,-30.5 567,-30.5 567,-0.5 451,-0.5"/>
<text text-anchor="start" x="459" y="-18.5" font-family="Helvetica,sans-Serif" font-size="10.00">scram::mef::Formula</text>
<text text-anchor="middle" x="509" y="-7.5" font-family="Helvetica,sans-Serif" font-size="10.00">::formula_args</text>
</a>
</g>
</g>
<!-- Node9&#45;&gt;Node10 -->
<g id="edge12" class="edge"><title>Node9&#45;&gt;Node10</title>
<path fill="none" stroke="midnightblue" d="M415.029,-15.5C423.337,-15.5 432.027,-15.5 440.616,-15.5"/>
<polygon fill="midnightblue" stroke="midnightblue" points="440.625,-19.0001 450.625,-15.5 440.625,-12.0001 440.625,-19.0001"/>
</g>
</g>
</svg>
