<?xml version="1.0" encoding="UTF-8" standalone="no"?>
<!DOCTYPE svg PUBLIC "-//W3C//DTD SVG 1.1//EN"
 "http://www.w3.org/Graphics/SVG/1.1/DTD/svg11.dtd">
<!-- Generated by graphviz version 2.38.0 (20140413.2041)
 -->
<!-- Title: cycle.h Pages: 1 -->
<!--zoomable 330 -->
<svg id="main" version="1.1" xmlns="http://www.w3.org/2000/svg" xmlns:xlink="http://www.w3.org/1999/xlink" xml:space="preserve" onload="init(evt)">
<style type="text/css"><![CDATA[
.edge:hover path { stroke: red; }
.edge:hover polygon { stroke: red; fill: red; }
]]></style>
<script type="text/javascript"><![CDATA[
var edges = document.getElementsByTagName('g');
if (edges && edges.length) {
  for (var i=0;i<edges.length;i++) {
    if (edges[i].id.substr(0,4)=='edge') {
      edges[i].setAttribute('class','edge');
    }
  }
}
]]></script>
        <defs>
                <circle id="rim" cx="0" cy="0" r="7"/>
                <circle id="rim2" cx="0" cy="0" r="3.5"/>
                <g id="zoomPlus">
                        <use xlink:href="#rim" fill="#404040">
                                <set attributeName="fill" to="#808080" begin="zoomplus.mouseover" end="zoomplus.mouseout"/>
                        </use>
                        <path d="M-4,0h8M0,-4v8" fill="none" stroke="white" stroke-width="1.5" pointer-events="none"/>
                </g>
                <g id="zoomMin">
                        <use xlink:href="#rim" fill="#404040">
                                <set attributeName="fill" to="#808080" begin="zoomminus.mouseover" end="zoomminus.mouseout"/>
                        </use>
                        <path d="M-4,0h8" fill="none" stroke="white" stroke-width="1.5" pointer-events="none"/>
                </g>
                <g id="dirArrow">
                        <path fill="none" stroke="white" stroke-width="1.5" d="M0,-3.0v7 M-2.5,-0.5L0,-3.0L2.5,-0.5"/>
                </g>
               <g id="resetDef">
                       <use xlink:href="#rim2" fill="#404040">
                               <set attributeName="fill" to="#808080" begin="reset.mouseover" end="reset.mouseout"/>
                       </use>
               </g>
        </defs>

<script type="text/javascript">
var viewWidth = 1991;
var viewHeight = 330;
var sectionId = 'dynsection-0';
</script>
<script xlink:href="svgpan.js"/>
<svg id="graph" class="graph">
<g id="viewport">
<title>cycle.h</title>
<polygon fill="white" stroke="none" points="-4,4 -4,-326 1987,-326 1987,4 -4,4"/>
<!-- Node1 -->
<g id="node1" class="node"><title>Node1</title>
<polygon fill="#bfbfbf" stroke="black" points="1195,-302.5 1195,-321.5 1245,-321.5 1245,-302.5 1195,-302.5"/>
<text text-anchor="middle" x="1220" y="-309.5" font-family="Helvetica,sans-Serif" font-size="10.00">cycle.h</text>
</g>
<!-- Node2 -->
<g id="node2" class="node"><title>Node2</title>
<polygon fill="white" stroke="#bfbfbf" points="980,-6 980,-25 1024,-25 1024,-6 980,-6"/>
<text text-anchor="middle" x="1002" y="-13" font-family="Helvetica,sans-Serif" font-size="10.00">string</text>
</g>
<!-- Node1&#45;&gt;Node2 -->
<g id="edge1" class="edge"><title>Node1&#45;&gt;Node2</title>
<path fill="none" stroke="midnightblue" d="M1216.57,-302.078C1203.2,-268.147 1151.61,-145.12 1078,-67 1063.79,-51.9142 1044.25,-39.0571 1028.54,-30.0915"/>
<polygon fill="midnightblue" stroke="midnightblue" points="1029.79,-26.7822 1019.34,-25.0268 1026.41,-32.9148 1029.79,-26.7822"/>
</g>
<!-- Node3 -->
<g id="node3" class="node"><title>Node3</title>
<polygon fill="white" stroke="#bfbfbf" points="1052.5,-6 1052.5,-25 1099.5,-25 1099.5,-6 1052.5,-6"/>
<text text-anchor="middle" x="1076" y="-13" font-family="Helvetica,sans-Serif" font-size="10.00">vector</text>
</g>
<!-- Node1&#45;&gt;Node3 -->
<g id="edge2" class="edge"><title>Node1&#45;&gt;Node3</title>
<path fill="none" stroke="midnightblue" d="M1222.3,-302.113C1229.08,-273.958 1246.61,-184.948 1215,-123 1191.8,-77.5269 1139.23,-45.886 1105.8,-29.4967"/>
<polygon fill="midnightblue" stroke="midnightblue" points="1107.04,-26.2123 1096.51,-25.0904 1104.04,-32.5373 1107.04,-26.2123"/>
</g>
<!-- Node4 -->
<g id="node4" class="node"><title>Node4</title>
<polygon fill="white" stroke="#bfbfbf" points="1333,-235.5 1333,-265.5 1455,-265.5 1455,-235.5 1333,-235.5"/>
<text text-anchor="start" x="1341" y="-253.5" font-family="Helvetica,sans-Serif" font-size="10.00">boost/algorithm/string</text>
<text text-anchor="middle" x="1394" y="-242.5" font-family="Helvetica,sans-Serif" font-size="10.00">/join.hpp</text>
</g>
<!-- Node1&#45;&gt;Node4 -->
<g id="edge3" class="edge"><title>Node1&#45;&gt;Node4</title>
<path fill="none" stroke="midnightblue" d="M1244.93,-302.475C1270.48,-293.739 1310.93,-279.907 1343.25,-268.855"/>
<polygon fill="midnightblue" stroke="midnightblue" points="1344.66,-272.07 1352.99,-265.523 1342.4,-265.447 1344.66,-272.07"/>
</g>
<!-- Node5 -->
<g id="node5" class="node"><title>Node5</title>
<polygon fill="white" stroke="#bfbfbf" points="1473.5,-235.5 1473.5,-265.5 1588.5,-265.5 1588.5,-235.5 1473.5,-235.5"/>
<text text-anchor="start" x="1481.5" y="-253.5" font-family="Helvetica,sans-Serif" font-size="10.00">boost/range/adaptor</text>
<text text-anchor="middle" x="1531" y="-242.5" font-family="Helvetica,sans-Serif" font-size="10.00">/filtered.hpp</text>
</g>
<!-- Node1&#45;&gt;Node5 -->
<g id="edge4" class="edge"><title>Node1&#45;&gt;Node5</title>
<path fill="none" stroke="midnightblue" d="M1245.34,-306.591C1288.08,-299.099 1377.43,-283.191 1463.36,-266.091"/>
<polygon fill="midnightblue" stroke="midnightblue" points="1464.16,-269.501 1473.28,-264.11 1462.79,-262.637 1464.16,-269.501"/>
</g>
<!-- Node6 -->
<g id="node6" class="node"><title>Node6</title>
<polygon fill="white" stroke="#bfbfbf" points="1606.5,-235.5 1606.5,-265.5 1721.5,-265.5 1721.5,-235.5 1606.5,-235.5"/>
<text text-anchor="start" x="1614.5" y="-253.5" font-family="Helvetica,sans-Serif" font-size="10.00">boost/range/adaptor</text>
<text text-anchor="middle" x="1664" y="-242.5" font-family="Helvetica,sans-Serif" font-size="10.00">/reversed.hpp</text>
</g>
<!-- Node1&#45;&gt;Node6 -->
<g id="edge5" class="edge"><title>Node1&#45;&gt;Node6</title>
<path fill="none" stroke="midnightblue" d="M1245.27,-308.815C1304.66,-303.501 1457.94,-288.764 1596.38,-265.997"/>
<polygon fill="midnightblue" stroke="midnightblue" points="1597.03,-269.437 1606.32,-264.344 1595.88,-262.532 1597.03,-269.437"/>
</g>
<!-- Node7 -->
<g id="node7" class="node"><title>Node7</title>
<polygon fill="white" stroke="#bfbfbf" points="1739.5,-235.5 1739.5,-265.5 1854.5,-265.5 1854.5,-235.5 1739.5,-235.5"/>
<text text-anchor="start" x="1747.5" y="-253.5" font-family="Helvetica,sans-Serif" font-size="10.00">boost/range/adaptor</text>
<text text-anchor="middle" x="1797" y="-242.5" font-family="Helvetica,sans-Serif" font-size="10.00">/transformed.hpp</text>
</g>
<!-- Node1&#45;&gt;Node7 -->
<g id="edge6" class="edge"><title>Node1&#45;&gt;Node7</title>
<path fill="none" stroke="midnightblue" d="M1245.07,-309.9C1318.15,-306.462 1537.35,-294.485 1729.35,-265.961"/>
<polygon fill="midnightblue" stroke="midnightblue" points="1729.97,-269.407 1739.34,-264.458 1728.93,-262.484 1729.97,-269.407"/>
</g>
<!-- Node8 -->
<g id="node8" class="node"><title>Node8</title>
<g id="a_node8"><a xlink:href="element_8h.xhtml" target="_top" xlink:title="Helper classes, structs, and properties common to all other classes. ">
<polygon fill="white" stroke="black" points="631.5,-67.5 631.5,-86.5 696.5,-86.5 696.5,-67.5 631.5,-67.5"/>
<text text-anchor="middle" x="664" y="-74.5" font-family="Helvetica,sans-Serif" font-size="10.00">element.h</text>
</a>
</g>
</g>
<!-- Node1&#45;&gt;Node8 -->
<g id="edge7" class="edge"><title>Node1&#45;&gt;Node8</title>
<path fill="none" stroke="midnightblue" d="M1194.97,-311.093C1111.36,-311.009 842.851,-307.448 769,-266 709.235,-232.458 703.631,-205.717 676,-143 669.559,-128.38 666.575,-110.438 665.192,-97.111"/>
<polygon fill="midnightblue" stroke="midnightblue" points="668.651,-96.4663 664.343,-86.7869 661.675,-97.0402 668.651,-96.4663"/>
</g>
<!-- Node14 -->
<g id="node14" class="node"><title>Node14</title>
<g id="a_node14"><a xlink:href="error_8h.xhtml" target="_top" xlink:title="Exceptions for SCRAM. ">
<polygon fill="white" stroke="black" points="1267,-241 1267,-260 1315,-260 1315,-241 1267,-241"/>
<text text-anchor="middle" x="1291" y="-248" font-family="Helvetica,sans-Serif" font-size="10.00">error.h</text>
</a>
</g>
</g>
<!-- Node1&#45;&gt;Node14 -->
<g id="edge15" class="edge"><title>Node1&#45;&gt;Node14</title>
<path fill="none" stroke="midnightblue" d="M1230.17,-302.475C1241.35,-293.108 1259.52,-277.884 1273.09,-266.508"/>
<polygon fill="midnightblue" stroke="midnightblue" points="1275.43,-269.115 1280.85,-260.009 1270.93,-263.75 1275.43,-269.115"/>
</g>
<!-- Node20 -->
<g id="node20" class="node"><title>Node20</title>
<g id="a_node20"><a xlink:href="event_8h.xhtml" target="_top" xlink:title="Contains event classes for fault trees. ">
<polygon fill="white" stroke="black" points="719.5,-123.5 719.5,-142.5 772.5,-142.5 772.5,-123.5 719.5,-123.5"/>
<text text-anchor="middle" x="746" y="-130.5" font-family="Helvetica,sans-Serif" font-size="10.00">event.h</text>
</a>
</g>
</g>
<!-- Node1&#45;&gt;Node20 -->
<g id="edge22" class="edge"><title>Node1&#45;&gt;Node20</title>
<path fill="none" stroke="midnightblue" d="M1194.68,-311.21C1134.62,-310.997 979.433,-306.247 858,-266 800.754,-247.027 770.342,-251.12 740,-199 731.812,-184.935 734.699,-166.195 738.811,-152.452"/>
<polygon fill="midnightblue" stroke="midnightblue" points="742.228,-153.28 742.185,-142.686 735.612,-150.995 742.228,-153.28"/>
</g>
<!-- Node27 -->
<g id="node27" class="node"><title>Node27</title>
<g id="a_node27"><a xlink:href="event__tree_8h.xhtml" target="_top" xlink:title="Event Tree facilities. ">
<polygon fill="white" stroke="black" points="940.5,-241 940.5,-260 1017.5,-260 1017.5,-241 940.5,-241"/>
<text text-anchor="middle" x="979" y="-248" font-family="Helvetica,sans-Serif" font-size="10.00">event_tree.h</text>
</a>
</g>
</g>
<!-- Node1&#45;&gt;Node27 -->
<g id="edge38" class="edge"><title>Node1&#45;&gt;Node27</title>
<path fill="none" stroke="midnightblue" d="M1194.66,-304.745C1154.08,-294.724 1073.93,-274.938 1023.6,-262.511"/>
<polygon fill="midnightblue" stroke="midnightblue" points="1024.19,-259.052 1013.64,-260.053 1022.51,-265.848 1024.19,-259.052"/>
</g>
<!-- Node29 -->
<g id="node29" class="node"><title>Node29</title>
<g id="a_node29"><a xlink:href="instruction_8h.xhtml" target="_top" xlink:title="Model and event tree modifier instructions. ">
<polygon fill="white" stroke="black" points="749,-179.5 749,-198.5 825,-198.5 825,-179.5 749,-179.5"/>
<text text-anchor="middle" x="787" y="-186.5" font-family="Helvetica,sans-Serif" font-size="10.00">instruction.h</text>
</a>
</g>
</g>
<!-- Node1&#45;&gt;Node29 -->
<g id="edge54" class="edge"><title>Node1&#45;&gt;Node29</title>
<path fill="none" stroke="midnightblue" d="M1194.99,-309.881C1144.08,-307.006 1025.23,-297.232 931,-266 884.915,-250.725 835.851,-221.738 808.549,-204.313"/>
<polygon fill="midnightblue" stroke="midnightblue" points="810.136,-201.171 799.84,-198.673 806.331,-207.047 810.136,-201.171"/>
</g>
<!-- Node30 -->
<g id="node30" class="node"><title>Node30</title>
<g id="a_node30"><a xlink:href="parameter_8h.xhtml" target="_top" xlink:title="Parameter expressions that act like a shareable variable. ">
<polygon fill="white" stroke="black" points="511,-123.5 511,-142.5 587,-142.5 587,-123.5 511,-123.5"/>
<text text-anchor="middle" x="549" y="-130.5" font-family="Helvetica,sans-Serif" font-size="10.00">parameter.h</text>
</a>
</g>
</g>
<!-- Node1&#45;&gt;Node30 -->
<g id="edge55" class="edge"><title>Node1&#45;&gt;Node30</title>
<path fill="none" stroke="midnightblue" d="M1194.95,-310.733C1085.12,-309.355 649.503,-301.666 601,-266 564.387,-239.077 553.539,-182.395 550.335,-152.835"/>
<polygon fill="midnightblue" stroke="midnightblue" points="553.799,-152.278 549.421,-142.63 546.827,-152.903 553.799,-152.278"/>
</g>
<!-- Node8&#45;&gt;Node2 -->
<g id="edge9" class="edge"><title>Node8&#45;&gt;Node2</title>
<path fill="none" stroke="midnightblue" d="M696.527,-72.4485C764.599,-64.8178 919.985,-46.3083 971,-31 972.878,-30.4365 974.787,-29.7773 976.688,-29.0564"/>
<polygon fill="midnightblue" stroke="midnightblue" points="978.125,-32.2485 985.941,-25.0962 975.371,-25.8131 978.125,-32.2485"/>
</g>
<!-- Node8&#45;&gt;Node3 -->
<g id="edge10" class="edge"><title>Node8&#45;&gt;Node3</title>
<path fill="none" stroke="midnightblue" d="M696.685,-72.8775C774.523,-65.3022 969.121,-45.5056 1033,-31 1036.49,-30.2084 1040.09,-29.2419 1043.65,-28.1873"/>
<polygon fill="midnightblue" stroke="midnightblue" points="1045.02,-31.4254 1053.48,-25.0543 1042.89,-24.7558 1045.02,-31.4254"/>
</g>
<!-- Node9 -->
<g id="node9" class="node"><title>Node9</title>
<polygon fill="white" stroke="#bfbfbf" points="270.5,-6 270.5,-25 319.5,-25 319.5,-6 270.5,-6"/>
<text text-anchor="middle" x="295" y="-13" font-family="Helvetica,sans-Serif" font-size="10.00">cstdint</text>
</g>
<!-- Node8&#45;&gt;Node9 -->
<g id="edge8" class="edge"><title>Node8&#45;&gt;Node9</title>
<path fill="none" stroke="midnightblue" d="M631.433,-72.1318C552.972,-62.7403 357.822,-38.9246 329,-31 326.703,-30.3684 324.357,-29.615 322.025,-28.7885"/>
<polygon fill="midnightblue" stroke="midnightblue" points="323.261,-25.5139 312.674,-25.1035 320.695,-32.0264 323.261,-25.5139"/>
</g>
<!-- Node10 -->
<g id="node10" class="node"><title>Node10</title>
<polygon fill="white" stroke="#bfbfbf" points="676,-0.5 676,-30.5 816,-30.5 816,-0.5 676,-0.5"/>
<text text-anchor="start" x="684" y="-18.5" font-family="Helvetica,sans-Serif" font-size="10.00">boost/multi_index/hashed</text>
<text text-anchor="middle" x="746" y="-7.5" font-family="Helvetica,sans-Serif" font-size="10.00">_index.hpp</text>
</g>
<!-- Node8&#45;&gt;Node10 -->
<g id="edge11" class="edge"><title>Node8&#45;&gt;Node10</title>
<path fill="none" stroke="midnightblue" d="M675.749,-67.4751C686.854,-59.4167 703.935,-47.0229 718.473,-36.4741"/>
<polygon fill="midnightblue" stroke="midnightblue" points="720.636,-39.2287 726.674,-30.523 716.525,-33.5631 720.636,-39.2287"/>
</g>
<!-- Node11 -->
<g id="node11" class="node"><title>Node11</title>
<polygon fill="white" stroke="#bfbfbf" points="338,-0.5 338,-30.5 468,-30.5 468,-0.5 338,-0.5"/>
<text text-anchor="start" x="346" y="-18.5" font-family="Helvetica,sans-Serif" font-size="10.00">boost/multi_index/mem</text>
<text text-anchor="middle" x="403" y="-7.5" font-family="Helvetica,sans-Serif" font-size="10.00">_fun.hpp</text>
</g>
<!-- Node8&#45;&gt;Node11 -->
<g id="edge12" class="edge"><title>Node8&#45;&gt;Node11</title>
<path fill="none" stroke="midnightblue" d="M631.472,-68.5846C592.462,-59.6916 525.928,-44.5238 474.689,-32.8429"/>
<polygon fill="midnightblue" stroke="midnightblue" points="475.186,-29.3664 464.658,-30.5561 473.63,-36.1913 475.186,-29.3664"/>
</g>
<!-- Node12 -->
<g id="node12" class="node"><title>Node12</title>
<polygon fill="white" stroke="#bfbfbf" points="486,-6 486,-25 658,-25 658,-6 486,-6"/>
<text text-anchor="middle" x="572" y="-13" font-family="Helvetica,sans-Serif" font-size="10.00">boost/multi_index_container.hpp</text>
</g>
<!-- Node8&#45;&gt;Node12 -->
<g id="edge13" class="edge"><title>Node8&#45;&gt;Node12</title>
<path fill="none" stroke="midnightblue" d="M650.819,-67.4751C635.926,-57.8431 611.456,-42.0175 593.727,-30.5517"/>
<polygon fill="midnightblue" stroke="midnightblue" points="595.455,-27.5008 585.157,-25.0091 591.653,-33.3787 595.455,-27.5008"/>
</g>
<!-- Node13 -->
<g id="node13" class="node"><title>Node13</title>
<polygon fill="white" stroke="#bfbfbf" points="834,-6 834,-25 962,-25 962,-6 834,-6"/>
<text text-anchor="middle" x="898" y="-13" font-family="Helvetica,sans-Serif" font-size="10.00">boost/noncopyable.hpp</text>
</g>
<!-- Node8&#45;&gt;Node13 -->
<g id="edge14" class="edge"><title>Node8&#45;&gt;Node13</title>
<path fill="none" stroke="midnightblue" d="M696.537,-67.7268C737.633,-57.2772 808.498,-39.2581 854.289,-27.6146"/>
<polygon fill="midnightblue" stroke="midnightblue" points="855.395,-30.9447 864.224,-25.0883 853.67,-24.1606 855.395,-30.9447"/>
</g>
<!-- Node14&#45;&gt;Node2 -->
<g id="edge17" class="edge"><title>Node14&#45;&gt;Node2</title>
<path fill="none" stroke="midnightblue" d="M1288.34,-240.953C1278.7,-211.546 1242.74,-113.788 1177,-67 1126.76,-31.243 1101.89,-49.2943 1043,-31 1039.9,-30.0369 1036.68,-28.9882 1033.48,-27.9099"/>
<polygon fill="midnightblue" stroke="midnightblue" points="1034.62,-24.6008 1024.02,-24.642 1032.33,-31.2168 1034.62,-24.6008"/>
</g>
<!-- Node15 -->
<g id="node15" class="node"><title>Node15</title>
<polygon fill="white" stroke="#bfbfbf" points="1305.5,-179.5 1305.5,-198.5 1368.5,-198.5 1368.5,-179.5 1305.5,-179.5"/>
<text text-anchor="middle" x="1337" y="-186.5" font-family="Helvetica,sans-Serif" font-size="10.00">exception</text>
</g>
<!-- Node14&#45;&gt;Node15 -->
<g id="edge16" class="edge"><title>Node14&#45;&gt;Node15</title>
<path fill="none" stroke="midnightblue" d="M1297.59,-240.975C1304.49,-232.05 1315.5,-217.807 1324.13,-206.643"/>
<polygon fill="midnightblue" stroke="midnightblue" points="1327.07,-208.561 1330.42,-198.509 1321.54,-204.28 1327.07,-208.561"/>
</g>
<!-- Node16 -->
<g id="node16" class="node"><title>Node16</title>
<polygon fill="white" stroke="#bfbfbf" points="1387,-179.5 1387,-198.5 1533,-198.5 1533,-179.5 1387,-179.5"/>
<text text-anchor="middle" x="1460" y="-186.5" font-family="Helvetica,sans-Serif" font-size="10.00">boost/current_function.hpp</text>
</g>
<!-- Node14&#45;&gt;Node16 -->
<g id="edge18" class="edge"><title>Node14&#45;&gt;Node16</title>
<path fill="none" stroke="midnightblue" d="M1309.72,-240.909C1314.35,-238.885 1319.33,-236.795 1324,-235 1356.67,-222.45 1394.52,-210.1 1421.98,-201.523"/>
<polygon fill="midnightblue" stroke="midnightblue" points="1423.08,-204.845 1431.59,-198.54 1421.01,-198.159 1423.08,-204.845"/>
</g>
<!-- Node17 -->
<g id="node17" class="node"><title>Node17</title>
<polygon fill="white" stroke="#bfbfbf" points="1551,-179.5 1551,-198.5 1715,-198.5 1715,-179.5 1551,-179.5"/>
<text text-anchor="middle" x="1633" y="-186.5" font-family="Helvetica,sans-Serif" font-size="10.00">boost/exception/exception.hpp</text>
</g>
<!-- Node14&#45;&gt;Node17 -->
<g id="edge19" class="edge"><title>Node14&#45;&gt;Node17</title>
<path fill="none" stroke="midnightblue" d="M1308.14,-240.924C1313.15,-238.706 1318.71,-236.518 1324,-235 1364.89,-223.271 1471.79,-209.009 1548.39,-199.729"/>
<polygon fill="midnightblue" stroke="midnightblue" points="1549.01,-203.18 1558.52,-198.51 1548.17,-196.23 1549.01,-203.18"/>
</g>
<!-- Node18 -->
<g id="node18" class="node"><title>Node18</title>
<polygon fill="white" stroke="#bfbfbf" points="1733,-179.5 1733,-198.5 1867,-198.5 1867,-179.5 1733,-179.5"/>
<text text-anchor="middle" x="1800" y="-186.5" font-family="Helvetica,sans-Serif" font-size="10.00">boost/exception/info.hpp</text>
</g>
<!-- Node14&#45;&gt;Node18 -->
<g id="edge20" class="edge"><title>Node14&#45;&gt;Node18</title>
<path fill="none" stroke="midnightblue" d="M1307.75,-240.887C1312.85,-238.612 1318.55,-236.404 1324,-235 1493.74,-191.318 1544.63,-216.546 1722.9,-199.062"/>
<polygon fill="midnightblue" stroke="midnightblue" points="1723.28,-202.542 1732.87,-198.053 1722.57,-195.578 1723.28,-202.542"/>
</g>
<!-- Node19 -->
<g id="node19" class="node"><title>Node19</title>
<g id="a_node19"><a xlink:href="source__info_8h.xhtml" target="_top" xlink:title="Helper facilities to get source file information. ">
<polygon fill="white" stroke="black" points="1885,-179.5 1885,-198.5 1983,-198.5 1983,-179.5 1885,-179.5"/>
<text text-anchor="middle" x="1934" y="-186.5" font-family="Helvetica,sans-Serif" font-size="10.00">ext/source_info.h</text>
</a>
</g>
</g>
<!-- Node14&#45;&gt;Node19 -->
<g id="edge21" class="edge"><title>Node14&#45;&gt;Node19</title>
<path fill="none" stroke="midnightblue" d="M1307.39,-240.954C1312.57,-238.623 1318.41,-236.366 1324,-235 1559.57,-177.462 1629.71,-224.55 1874.7,-199.022"/>
<polygon fill="midnightblue" stroke="midnightblue" points="1875.42,-202.465 1884.99,-197.918 1874.68,-195.504 1875.42,-202.465"/>
</g>
<!-- Node20&#45;&gt;Node2 -->
<g id="edge25" class="edge"><title>Node20&#45;&gt;Node2</title>
<path fill="none" stroke="midnightblue" d="M748.244,-123.234C752.367,-109.008 762.565,-81.0701 782,-67 851.265,-16.8564 889.641,-57.3189 971,-31 972.671,-30.4594 974.37,-29.8503 976.067,-29.1957"/>
<polygon fill="midnightblue" stroke="midnightblue" points="977.771,-32.2733 985.577,-25.1097 975.007,-25.8418 977.771,-32.2733"/>
</g>
<!-- Node20&#45;&gt;Node3 -->
<g id="edge28" class="edge"><title>Node20&#45;&gt;Node3</title>
<path fill="none" stroke="midnightblue" d="M770.534,-123.413C828.928,-102.975 976.234,-51.4182 1042.63,-28.1784"/>
<polygon fill="midnightblue" stroke="midnightblue" points="1043.91,-31.4384 1052.2,-24.8313 1041.6,-24.8314 1043.91,-31.4384"/>
</g>
<!-- Node20&#45;&gt;Node8 -->
<g id="edge30" class="edge"><title>Node20&#45;&gt;Node8</title>
<path fill="none" stroke="midnightblue" d="M732.825,-123.324C720.153,-114.979 700.767,-102.212 685.794,-92.3524"/>
<polygon fill="midnightblue" stroke="midnightblue" points="687.419,-89.2313 677.142,-86.6545 683.569,-95.0776 687.419,-89.2313"/>
</g>
<!-- Node20&#45;&gt;Node9 -->
<g id="edge23" class="edge"><title>Node20&#45;&gt;Node9</title>
<path fill="none" stroke="midnightblue" d="M723.405,-123.48C686.534,-109.853 610.921,-83.0592 545,-67 450.441,-43.9642 422.422,-58.2824 329,-31 326.848,-30.3715 324.65,-29.6445 322.459,-28.8576"/>
<polygon fill="midnightblue" stroke="midnightblue" points="323.645,-25.5631 313.059,-25.1437 321.073,-32.0734 323.645,-25.5631"/>
</g>
<!-- Node20&#45;&gt;Node13 -->
<g id="edge29" class="edge"><title>Node20&#45;&gt;Node13</title>
<path fill="none" stroke="midnightblue" d="M743.613,-123.409C740.42,-109.922 736.502,-83.6092 749,-67 761.098,-50.9222 808.623,-36.6237 846.79,-27.3819"/>
<polygon fill="midnightblue" stroke="midnightblue" points="847.838,-30.731 856.766,-25.0278 846.23,-23.9181 847.838,-30.731"/>
</g>
<!-- Node21 -->
<g id="node21" class="node"><title>Node21</title>
<polygon fill="white" stroke="#bfbfbf" points="791.5,-67.5 791.5,-86.5 848.5,-86.5 848.5,-67.5 791.5,-67.5"/>
<text text-anchor="middle" x="820" y="-74.5" font-family="Helvetica,sans-Serif" font-size="10.00">memory</text>
</g>
<!-- Node20&#45;&gt;Node21 -->
<g id="edge24" class="edge"><title>Node20&#45;&gt;Node21</title>
<path fill="none" stroke="midnightblue" d="M757.889,-123.324C769.15,-115.107 786.287,-102.602 799.709,-92.8069"/>
<polygon fill="midnightblue" stroke="midnightblue" points="801.88,-95.5559 807.894,-86.8339 797.753,-89.9014 801.88,-95.5559"/>
</g>
<!-- Node22 -->
<g id="node22" class="node"><title>Node22</title>
<polygon fill="white" stroke="#bfbfbf" points="0,-6 0,-25 42,-25 42,-6 0,-6"/>
<text text-anchor="middle" x="21" y="-13" font-family="Helvetica,sans-Serif" font-size="10.00">utility</text>
</g>
<!-- Node20&#45;&gt;Node22 -->
<g id="edge26" class="edge"><title>Node20&#45;&gt;Node22</title>
<path fill="none" stroke="midnightblue" d="M719.326,-129.226C608.023,-117.483 180.403,-70.6423 51,-31 49.3269,-30.4874 47.6302,-29.8935 45.9391,-29.2447"/>
<polygon fill="midnightblue" stroke="midnightblue" points="47.0776,-25.9223 36.5138,-25.1113 44.2662,-32.3329 47.0776,-25.9223"/>
</g>
<!-- Node23 -->
<g id="node23" class="node"><title>Node23</title>
<polygon fill="white" stroke="#bfbfbf" points="1019,-67.5 1019,-86.5 1069,-86.5 1069,-67.5 1019,-67.5"/>
<text text-anchor="middle" x="1044" y="-74.5" font-family="Helvetica,sans-Serif" font-size="10.00">variant</text>
</g>
<!-- Node20&#45;&gt;Node23 -->
<g id="edge27" class="edge"><title>Node20&#45;&gt;Node23</title>
<path fill="none" stroke="midnightblue" d="M772.708,-127.16C826.615,-117.392 948.42,-95.3198 1008.76,-84.3855"/>
<polygon fill="midnightblue" stroke="midnightblue" points="1009.72,-87.7686 1018.94,-82.5415 1008.47,-80.8807 1009.72,-87.7686"/>
</g>
<!-- Node24 -->
<g id="node24" class="node"><title>Node24</title>
<g id="a_node24"><a xlink:href="expression_8h.xhtml" target="_top" xlink:title="Provides the base class for all expressions and units for expression values. ">
<polygon fill="white" stroke="black" points="459.5,-67.5 459.5,-86.5 536.5,-86.5 536.5,-67.5 459.5,-67.5"/>
<text text-anchor="middle" x="498" y="-74.5" font-family="Helvetica,sans-Serif" font-size="10.00">expression.h</text>
</a>
</g>
</g>
<!-- Node20&#45;&gt;Node24 -->
<g id="edge31" class="edge"><title>Node20&#45;&gt;Node24</title>
<path fill="none" stroke="midnightblue" d="M719.46,-126.221C678.341,-117.268 598.6,-99.9048 546.866,-88.6401"/>
<polygon fill="midnightblue" stroke="midnightblue" points="547.428,-85.1805 536.912,-86.4728 545.938,-92.0203 547.428,-85.1805"/>
</g>
<!-- Node24&#45;&gt;Node2 -->
<g id="edge33" class="edge"><title>Node24&#45;&gt;Node2</title>
<path fill="none" stroke="midnightblue" d="M536.518,-72.1508C552.722,-70.5419 571.776,-68.6634 589,-67 758.74,-50.6081 806.456,-75.7846 971,-31 972.935,-30.4734 974.898,-29.8336 976.849,-29.1196"/>
<polygon fill="midnightblue" stroke="midnightblue" points="978.466,-32.2358 986.309,-25.1122 975.736,-25.7903 978.466,-32.2358"/>
</g>
<!-- Node24&#45;&gt;Node3 -->
<g id="edge35" class="edge"><title>Node24&#45;&gt;Node3</title>
<path fill="none" stroke="midnightblue" d="M536.573,-73.0119C655.3,-63.7809 1008.73,-36.0357 1033,-31 1036.69,-30.2348 1040.5,-29.2496 1044.26,-28.1533"/>
<polygon fill="midnightblue" stroke="midnightblue" points="1045.5,-31.4324 1053.96,-25.0667 1043.37,-24.7615 1045.5,-31.4324"/>
</g>
<!-- Node24&#45;&gt;Node13 -->
<g id="edge37" class="edge"><title>Node24&#45;&gt;Node13</title>
<path fill="none" stroke="midnightblue" d="M536.622,-71.4383C597.915,-64.0296 721.155,-48.4428 825,-31 832.184,-29.7934 839.744,-28.415 847.166,-26.999"/>
<polygon fill="midnightblue" stroke="midnightblue" points="848.005,-30.4015 857.153,-25.0575 846.669,-23.5302 848.005,-30.4015"/>
</g>
<!-- Node24&#45;&gt;Node22 -->
<g id="edge34" class="edge"><title>Node24&#45;&gt;Node22</title>
<path fill="none" stroke="midnightblue" d="M459.491,-76.5927C381.047,-76.8341 197.742,-72.4473 51,-31 49.1211,-30.4693 47.2163,-29.8265 45.3249,-29.1104"/>
<polygon fill="midnightblue" stroke="midnightblue" points="46.7276,-25.9039 36.1634,-25.0986 43.9196,-32.316 46.7276,-25.9039"/>
</g>
<!-- Node25 -->
<g id="node25" class="node"><title>Node25</title>
<polygon fill="white" stroke="#bfbfbf" points="190,-6 190,-25 252,-25 252,-6 190,-6"/>
<text text-anchor="middle" x="221" y="-13" font-family="Helvetica,sans-Serif" font-size="10.00">algorithm</text>
</g>
<!-- Node24&#45;&gt;Node25 -->
<g id="edge32" class="edge"><title>Node24&#45;&gt;Node25</title>
<path fill="none" stroke="midnightblue" d="M459.394,-70.615C412.126,-63.5778 329.864,-49.8884 261,-31 258.195,-30.2307 255.307,-29.3549 252.427,-28.4238"/>
<polygon fill="midnightblue" stroke="midnightblue" points="253.397,-25.0565 242.803,-25.1184 251.124,-31.6769 253.397,-25.0565"/>
</g>
<!-- Node26 -->
<g id="node26" class="node"><title>Node26</title>
<polygon fill="white" stroke="#bfbfbf" points="60,-0.5 60,-30.5 172,-30.5 172,-0.5 60,-0.5"/>
<text text-anchor="start" x="68" y="-18.5" font-family="Helvetica,sans-Serif" font-size="10.00">boost/icl/continuous</text>
<text text-anchor="middle" x="116" y="-7.5" font-family="Helvetica,sans-Serif" font-size="10.00">_interval.hpp</text>
</g>
<!-- Node24&#45;&gt;Node26 -->
<g id="edge36" class="edge"><title>Node24&#45;&gt;Node26</title>
<path fill="none" stroke="midnightblue" d="M459.293,-71.4992C401.224,-64.5302 287.929,-50.0951 182.194,-31.1352"/>
<polygon fill="midnightblue" stroke="midnightblue" points="182.779,-27.6843 172.315,-29.3464 181.532,-34.5723 182.779,-27.6843"/>
</g>
<!-- Node27&#45;&gt;Node2 -->
<g id="edge40" class="edge"><title>Node27&#45;&gt;Node2</title>
<path fill="none" stroke="midnightblue" d="M977.385,-240.864C973.793,-220.329 965.919,-167.013 972,-123 976.388,-91.2404 987.806,-55.6234 995.223,-34.6791"/>
<polygon fill="midnightblue" stroke="midnightblue" points="998.555,-35.7564 998.678,-25.1622 991.975,-33.3676 998.555,-35.7564"/>
</g>
<!-- Node27&#45;&gt;Node3 -->
<g id="edge42" class="edge"><title>Node27&#45;&gt;Node3</title>
<path fill="none" stroke="midnightblue" d="M997.298,-240.932C1014.09,-232.309 1038.76,-217.632 1055,-199 1073.15,-178.169 1071.34,-168.491 1082,-143 1095.48,-110.777 1110.23,-100.945 1102,-67 1099.17,-55.3347 1093.16,-43.346 1087.62,-33.9784"/>
<polygon fill="midnightblue" stroke="midnightblue" points="1090.46,-31.9088 1082.18,-25.2888 1084.52,-35.6224 1090.46,-31.9088"/>
</g>
<!-- Node27&#45;&gt;Node8 -->
<g id="edge43" class="edge"><title>Node27&#45;&gt;Node8</title>
<path fill="none" stroke="midnightblue" d="M940.427,-248.541C890.931,-245.767 803.848,-235.571 740,-199 710.789,-182.268 706.68,-171.647 689,-143 679.981,-128.387 673.274,-109.981 669.09,-96.4885"/>
<polygon fill="midnightblue" stroke="midnightblue" points="672.449,-95.5018 666.28,-86.888 665.731,-97.4686 672.449,-95.5018"/>
</g>
<!-- Node27&#45;&gt;Node21 -->
<g id="edge39" class="edge"><title>Node27&#45;&gt;Node21</title>
<path fill="none" stroke="midnightblue" d="M970.897,-240.76C945.587,-213.46 867.746,-129.5 834.884,-94.0546"/>
<polygon fill="midnightblue" stroke="midnightblue" points="837.264,-91.4731 827.898,-86.5194 832.131,-96.2322 837.264,-91.4731"/>
</g>
<!-- Node27&#45;&gt;Node23 -->
<g id="edge41" class="edge"><title>Node27&#45;&gt;Node23</title>
<path fill="none" stroke="midnightblue" d="M989.828,-240.984C1009.71,-224.573 1051.41,-186.333 1067,-143 1072.8,-126.866 1064.91,-108.438 1056.83,-95.3339"/>
<polygon fill="midnightblue" stroke="midnightblue" points="1059.6,-93.1793 1051.11,-86.8417 1053.8,-97.0907 1059.6,-93.1793"/>
</g>
<!-- Node28 -->
<g id="node28" class="node"><title>Node28</title>
<g id="a_node28"><a xlink:href="variant_8h.xhtml" target="_top" xlink:title="Extra helper functions for std::variant. ">
<polygon fill="white" stroke="black" points="981.5,-123.5 981.5,-142.5 1058.5,-142.5 1058.5,-123.5 981.5,-123.5"/>
<text text-anchor="middle" x="1020" y="-130.5" font-family="Helvetica,sans-Serif" font-size="10.00">ext/variant.h</text>
</a>
</g>
</g>
<!-- Node27&#45;&gt;Node28 -->
<g id="edge44" class="edge"><title>Node27&#45;&gt;Node28</title>
<path fill="none" stroke="midnightblue" d="M982.082,-240.819C988.73,-222.09 1004.54,-177.546 1013.51,-152.292"/>
<polygon fill="midnightblue" stroke="midnightblue" points="1016.84,-153.377 1016.88,-142.782 1010.24,-151.035 1016.84,-153.377"/>
</g>
<!-- Node27&#45;&gt;Node29 -->
<g id="edge46" class="edge"><title>Node27&#45;&gt;Node29</title>
<path fill="none" stroke="midnightblue" d="M951.491,-240.975C918.129,-230.636 861.738,-213.161 824.437,-201.602"/>
<polygon fill="midnightblue" stroke="midnightblue" points="825.046,-198.126 814.458,-198.509 822.974,-204.812 825.046,-198.126"/>
</g>
<!-- Node28&#45;&gt;Node23 -->
<g id="edge45" class="edge"><title>Node28&#45;&gt;Node23</title>
<path fill="none" stroke="midnightblue" d="M1023.96,-123.083C1027.21,-115.77 1031.92,-105.181 1035.95,-96.1034"/>
<polygon fill="midnightblue" stroke="midnightblue" points="1039.25,-97.3107 1040.11,-86.7511 1032.85,-94.4677 1039.25,-97.3107"/>
</g>
<!-- Node29&#45;&gt;Node2 -->
<g id="edge48" class="edge"><title>Node29&#45;&gt;Node2</title>
<path fill="none" stroke="midnightblue" d="M797.662,-179.495C831.978,-152.122 939.861,-66.0671 983.453,-31.2943"/>
<polygon fill="midnightblue" stroke="midnightblue" points="985.639,-34.0281 991.274,-25.056 981.274,-28.5558 985.639,-34.0281"/>
</g>
<!-- Node29&#45;&gt;Node3 -->
<g id="edge49" class="edge"><title>Node29&#45;&gt;Node3</title>
<path fill="none" stroke="midnightblue" d="M825.178,-187.098C893.599,-184.662 1033.14,-175.71 1067,-143 1095.81,-115.17 1088.22,-63.0057 1081.41,-35.1509"/>
<polygon fill="midnightblue" stroke="midnightblue" points="1084.7,-33.9075 1078.74,-25.1491 1077.94,-35.7136 1084.7,-33.9075"/>
</g>
<!-- Node29&#45;&gt;Node8 -->
<g id="edge51" class="edge"><title>Node29&#45;&gt;Node8</title>
<path fill="none" stroke="midnightblue" d="M767.464,-179.472C750.928,-171.615 727.235,-158.798 710,-143 694.93,-129.187 681.921,-109.643 673.621,-95.5987"/>
<polygon fill="midnightblue" stroke="midnightblue" points="676.651,-93.8475 668.659,-86.892 670.569,-97.3133 676.651,-93.8475"/>
</g>
<!-- Node29&#45;&gt;Node13 -->
<g id="edge50" class="edge"><title>Node29&#45;&gt;Node13</title>
<path fill="none" stroke="midnightblue" d="M793.421,-179.243C806.043,-161.919 834.791,-121.925 857,-87 868.235,-69.3322 880.171,-48.5522 888.249,-34.1506"/>
<polygon fill="midnightblue" stroke="midnightblue" points="891.361,-35.7554 893.169,-25.3159 885.246,-32.3494 891.361,-35.7554"/>
</g>
<!-- Node29&#45;&gt;Node20 -->
<g id="edge52" class="edge"><title>Node29&#45;&gt;Node20</title>
<path fill="none" stroke="midnightblue" d="M780.23,-179.083C774.438,-171.455 765.942,-160.264 758.862,-150.941"/>
<polygon fill="midnightblue" stroke="midnightblue" points="761.479,-148.599 752.644,-142.751 755.904,-152.832 761.479,-148.599"/>
</g>
<!-- Node29&#45;&gt;Node21 -->
<g id="edge47" class="edge"><title>Node29&#45;&gt;Node21</title>
<path fill="none" stroke="midnightblue" d="M789.589,-179.368C794.939,-161.537 807.311,-120.295 814.518,-96.2717"/>
<polygon fill="midnightblue" stroke="midnightblue" points="817.901,-97.1754 817.423,-86.5914 811.197,-95.1639 817.901,-97.1754"/>
</g>
<!-- Node29&#45;&gt;Node24 -->
<g id="edge53" class="edge"><title>Node29&#45;&gt;Node24</title>
<path fill="none" stroke="midnightblue" d="M748.807,-187.646C678.862,-186.123 534.39,-178.629 502,-143 490.849,-130.734 491.159,-111.196 493.46,-96.7394"/>
<polygon fill="midnightblue" stroke="midnightblue" points="496.902,-97.3747 495.45,-86.8798 490.041,-95.9894 496.902,-97.3747"/>
</g>
<!-- Node30&#45;&gt;Node2 -->
<g id="edge58" class="edge"><title>Node30&#45;&gt;Node2</title>
<path fill="none" stroke="midnightblue" d="M555.536,-123.401C567.122,-108.891 592.807,-79.867 622,-67 764.689,-4.10893 820.721,-72.6149 971,-31 972.933,-30.4648 974.894,-29.8188 976.844,-29.1003"/>
<polygon fill="midnightblue" stroke="midnightblue" points="978.465,-32.2144 986.301,-25.0835 975.729,-25.7715 978.465,-32.2144"/>
</g>
<!-- Node30&#45;&gt;Node8 -->
<g id="edge59" class="edge"><title>Node30&#45;&gt;Node8</title>
<path fill="none" stroke="midnightblue" d="M567.222,-123.444C585.896,-114.675 615.156,-100.935 636.617,-90.8579"/>
<polygon fill="midnightblue" stroke="midnightblue" points="638.299,-93.935 645.863,-86.5164 635.324,-87.5988 638.299,-93.935"/>
</g>
<!-- Node30&#45;&gt;Node9 -->
<g id="edge56" class="edge"><title>Node30&#45;&gt;Node9</title>
<path fill="none" stroke="midnightblue" d="M530.02,-123.375C510.091,-114.317 477.842,-99.6596 450,-87 405.805,-66.9047 354.525,-43.5789 323.438,-29.4372"/>
<polygon fill="midnightblue" stroke="midnightblue" points="324.641,-26.1393 314.089,-25.1843 321.742,-32.511 324.641,-26.1393"/>
</g>
<!-- Node30&#45;&gt;Node21 -->
<g id="edge57" class="edge"><title>Node30&#45;&gt;Node21</title>
<path fill="none" stroke="midnightblue" d="M587.253,-124.378C638.712,-114.124 729.722,-95.9889 781.373,-85.697"/>
<polygon fill="midnightblue" stroke="midnightblue" points="782.338,-89.0734 791.462,-83.6866 780.97,-82.2084 782.338,-89.0734"/>
</g>
<!-- Node30&#45;&gt;Node24 -->
<g id="edge60" class="edge"><title>Node30&#45;&gt;Node24</title>
<path fill="none" stroke="midnightblue" d="M540.578,-123.083C533.152,-115.22 522.148,-103.569 513.188,-94.0813"/>
<polygon fill="midnightblue" stroke="midnightblue" points="515.676,-91.618 506.265,-86.7511 510.587,-96.4244 515.676,-91.618"/>
</g>
</g>
</svg>
        <g id="navigator" transform="translate(0 0)" fill="#404254">
                <rect fill="#f2f5e9" fill-opacity="0.5" stroke="#606060" stroke-width=".5" x="0" y="0" width="60" height="60"/>
                <use id="zoomplus" xlink:href="#zoomPlus" x="17" y="9" onmousedown="handleZoom(evt,'in')"/>
                <use id="zoomminus" xlink:href="#zoomMin" x="42" y="9" onmousedown="handleZoom(evt,'out')"/>
                <use id="reset" xlink:href="#resetDef" x="30" y="36" onmousedown="handleReset()"/>
                <g id="arrowUp" xlink:href="#dirArrow" transform="translate(30 24)" onmousedown="handlePan(0,-1)">
                  <use xlink:href="#rim" fill="#404040">
                        <set attributeName="fill" to="#808080" begin="arrowUp.mouseover" end="arrowUp.mouseout"/>
                  </use>
                  <path fill="none" stroke="white" stroke-width="1.5" d="M0,-3.0v7 M-2.5,-0.5L0,-3.0L2.5,-0.5"/>
                </g>
                <g id="arrowRight" xlink:href="#dirArrow" transform="rotate(90) translate(36 -43)" onmousedown="handlePan(1,0)">
                  <use xlink:href="#rim" fill="#404040">
                        <set attributeName="fill" to="#808080" begin="arrowRight.mouseover" end="arrowRight.mouseout"/>
                  </use>
                  <path fill="none" stroke="white" stroke-width="1.5" d="M0,-3.0v7 M-2.5,-0.5L0,-3.0L2.5,-0.5"/>
                </g>
                <g id="arrowDown" xlink:href="#dirArrow" transform="rotate(180) translate(-30 -48)" onmousedown="handlePan(0,1)">
                  <use xlink:href="#rim" fill="#404040">
                        <set attributeName="fill" to="#808080" begin="arrowDown.mouseover" end="arrowDown.mouseout"/>
                  </use>
                  <path fill="none" stroke="white" stroke-width="1.5" d="M0,-3.0v7 M-2.5,-0.5L0,-3.0L2.5,-0.5"/>
                </g>
                <g id="arrowLeft" xlink:href="#dirArrow" transform="rotate(270) translate(-36 17)" onmousedown="handlePan(-1,0)">
                  <use xlink:href="#rim" fill="#404040">
                        <set attributeName="fill" to="#808080" begin="arrowLeft.mouseover" end="arrowLeft.mouseout"/>
                  </use>
                  <path fill="none" stroke="white" stroke-width="1.5" d="M0,-3.0v7 M-2.5,-0.5L0,-3.0L2.5,-0.5"/>
                </g>
        </g>
        <svg viewBox="0 0 15 15" width="100%" height="30px" preserveAspectRatio="xMaxYMin meet">
         <g id="arrow_out" transform="scale(0.3 0.3)">
          <a xlink:href="cycle_8h__incl_org.svg" target="_base">
           <rect id="button" ry="5" rx="5" y="6" x="6" height="38" width="38"
                fill="#f2f5e9" fill-opacity="0.5" stroke="#606060" stroke-width="1.0"/>
           <path id="arrow"
             d="M 11.500037,31.436501 C 11.940474,20.09759 22.043105,11.32322 32.158766,21.979434 L 37.068811,17.246167 C 37.068811,17.246167 37.088388,32 37.088388,32 L 22.160133,31.978069 C 22.160133,31.978069 26.997745,27.140456 26.997745,27.140456 C 18.528582,18.264221 13.291696,25.230495 11.500037,31.436501 z"
             style="fill:#404040;"/>
          </a>
         </g>
        </svg>
</svg>
