<?xml version="1.0" encoding="UTF-8" standalone="no"?>
<!DOCTYPE svg PUBLIC "-//W3C//DTD SVG 1.1//EN"
 "http://www.w3.org/Graphics/SVG/1.1/DTD/svg11.dtd">
<!-- Generated by graphviz version 2.38.0 (20140413.2041)
 -->
<!-- Title: scram::mef::cycle::DetectCycle Pages: 1 -->
<svg width="403pt" height="106pt"
 viewBox="0.00 0.00 403.00 106.00" xmlns="http://www.w3.org/2000/svg" xmlns:xlink="http://www.w3.org/1999/xlink">
<g id="graph0" class="graph" transform="scale(1 1) rotate(0) translate(4 102)">
<title>scram::mef::cycle::DetectCycle</title>
<polygon fill="white" stroke="none" points="-4,4 -4,-102 399,-102 399,4 -4,4"/>
<!-- Node1 -->
<g id="node1" class="node"><title>Node1</title>
<polygon fill="#bfbfbf" stroke="black" points="0,-24.5 0,-54.5 107,-54.5 107,-24.5 0,-24.5"/>
<text text-anchor="start" x="8" y="-42.5" font-family="Helvetica,sans-Serif" font-size="10.00">scram::mef::cycle::</text>
<text text-anchor="middle" x="53.5" y="-31.5" font-family="Helvetica,sans-Serif" font-size="10.00">DetectCycle</text>
</g>
<!-- Node1&#45;&gt;Node1 -->
<g id="edge5" class="edge"><title>Node1&#45;&gt;Node1</title>
<path fill="none" stroke="midnightblue" d="M27.9129,-64.9579C31.0887,-69.679 39.6177,-73 53.5,-73 76.2812,-73 84.6462,-64.0566 78.595,-54.659"/>
<polygon fill="midnightblue" stroke="midnightblue" points="31.4237,-64.8147 28.405,-54.659 24.4317,-64.4805 31.4237,-64.8147"/>
</g>
<!-- Node2 -->
<g id="node2" class="node"><title>Node2</title>
<g id="a_node2"><a xlink:href="cycle_8h.xhtml#a8ff9fbf65ad4582369783058a9dec0fc" target="_top" xlink:title="Checks for cycles in a model constructs. ">
<polygon fill="white" stroke="black" points="144,-49.5 144,-79.5 251,-79.5 251,-49.5 144,-49.5"/>
<text text-anchor="start" x="152" y="-67.5" font-family="Helvetica,sans-Serif" font-size="10.00">scram::mef::cycle::</text>
<text text-anchor="middle" x="197.5" y="-56.5" font-family="Helvetica,sans-Serif" font-size="10.00">CheckCycle</text>
</a>
</g>
</g>
<!-- Node1&#45;&gt;Node2 -->
<g id="edge1" class="edge"><title>Node1&#45;&gt;Node2</title>
<path fill="none" stroke="midnightblue" d="M117.494,-50.5905C126.204,-52.124 135.078,-53.6862 143.58,-55.1831"/>
<polygon fill="midnightblue" stroke="midnightblue" points="117.831,-47.0961 107.376,-48.8091 116.617,-53.99 117.831,-47.0961"/>
</g>
<!-- Node3 -->
<g id="node3" class="node"><title>Node3</title>
<g id="a_node3"><a xlink:href="cycle_8h.xhtml#a21de1e2b8ca8017c9c0c5ef3254b433e" target="_top" xlink:title="Helper function to check for cyclic references through connectors. ">
<polygon fill="white" stroke="black" points="143,-0.5 143,-30.5 252,-30.5 252,-0.5 143,-0.5"/>
<text text-anchor="start" x="151" y="-18.5" font-family="Helvetica,sans-Serif" font-size="10.00">scram::mef::cycle::</text>
<text text-anchor="middle" x="197.5" y="-7.5" font-family="Helvetica,sans-Serif" font-size="10.00">ContinueConnector</text>
</a>
</g>
</g>
<!-- Node1&#45;&gt;Node3 -->
<g id="edge3" class="edge"><title>Node1&#45;&gt;Node3</title>
<path fill="none" stroke="midnightblue" d="M117.498,-28.8525C125.884,-27.4351 134.421,-25.9923 142.632,-24.6044"/>
<polygon fill="midnightblue" stroke="midnightblue" points="116.652,-25.4456 107.376,-30.5633 117.819,-32.3478 116.652,-25.4456"/>
</g>
<!-- Node2&#45;&gt;Node2 -->
<g id="edge2" class="edge"><title>Node2&#45;&gt;Node2</title>
<path fill="none" stroke="midnightblue" d="M171.913,-89.9579C175.089,-94.679 183.618,-98 197.5,-98 220.281,-98 228.646,-89.0566 222.595,-79.659"/>
<polygon fill="midnightblue" stroke="midnightblue" points="175.424,-89.8147 172.405,-79.659 168.432,-89.4805 175.424,-89.8147"/>
</g>
<!-- Node4 -->
<g id="node4" class="node"><title>Node4</title>
<g id="a_node4"><a xlink:href="cycle_8h.xhtml#aeed4b968387a7629985a8d3d9528c4e0" target="_top" xlink:title="Retrieves connectors from a connector. ">
<polygon fill="white" stroke="black" points="288,-0.5 288,-30.5 395,-30.5 395,-0.5 288,-0.5"/>
<text text-anchor="start" x="296" y="-18.5" font-family="Helvetica,sans-Serif" font-size="10.00">scram::mef::cycle::</text>
<text text-anchor="middle" x="341.5" y="-7.5" font-family="Helvetica,sans-Serif" font-size="10.00">GetConnectors</text>
</a>
</g>
</g>
<!-- Node3&#45;&gt;Node4 -->
<g id="edge4" class="edge"><title>Node3&#45;&gt;Node4</title>
<path fill="none" stroke="midnightblue" d="M262.397,-15.5C270.851,-15.5 279.441,-15.5 287.681,-15.5"/>
<polygon fill="midnightblue" stroke="midnightblue" points="262.184,-12.0001 252.184,-15.5 262.184,-19.0001 262.184,-12.0001"/>
</g>
</g>
</svg>
