<?xml version="1.0" encoding="UTF-8" standalone="no"?>
<!DOCTYPE svg PUBLIC "-//W3C//DTD SVG 1.1//EN"
 "http://www.w3.org/Graphics/SVG/1.1/DTD/svg11.dtd">
<!-- Generated by graphviz version 2.38.0 (20140413.2041)
 -->
<!-- Title: scram::mef::cycle::GetConnectors Pages: 1 -->
<svg width="403pt" height="57pt"
 viewBox="0.00 0.00 403.00 57.00" xmlns="http://www.w3.org/2000/svg" xmlns:xlink="http://www.w3.org/1999/xlink">
<g id="graph0" class="graph" transform="scale(1 1) rotate(0) translate(4 53)">
<title>scram::mef::cycle::GetConnectors</title>
<polygon fill="white" stroke="none" points="-4,4 -4,-53 399,-53 399,4 -4,4"/>
<!-- Node1 -->
<g id="node1" class="node"><title>Node1</title>
<polygon fill="#bfbfbf" stroke="black" points="0,-0.5 0,-30.5 107,-30.5 107,-0.5 0,-0.5"/>
<text text-anchor="start" x="8" y="-18.5" font-family="Helvetica,sans-Serif" font-size="10.00">scram::mef::cycle::</text>
<text text-anchor="middle" x="53.5" y="-7.5" font-family="Helvetica,sans-Serif" font-size="10.00">GetConnectors</text>
</g>
<!-- Node1&#45;&gt;Node1 -->
<g id="edge3" class="edge"><title>Node1&#45;&gt;Node1</title>
<path fill="none" stroke="midnightblue" d="M27.9129,-40.9579C31.0887,-45.679 39.6177,-49 53.5,-49 76.2812,-49 84.6462,-40.0566 78.595,-30.659"/>
<polygon fill="midnightblue" stroke="midnightblue" points="31.4237,-40.8147 28.405,-30.659 24.4317,-40.4805 31.4237,-40.8147"/>
</g>
<!-- Node2 -->
<g id="node2" class="node"><title>Node2</title>
<g id="a_node2"><a xlink:href="cycle_8h.xhtml#a21de1e2b8ca8017c9c0c5ef3254b433e" target="_top" xlink:title="Helper function to check for cyclic references through connectors. ">
<polygon fill="white" stroke="black" points="143,-0.5 143,-30.5 252,-30.5 252,-0.5 143,-0.5"/>
<text text-anchor="start" x="151" y="-18.5" font-family="Helvetica,sans-Serif" font-size="10.00">scram::mef::cycle::</text>
<text text-anchor="middle" x="197.5" y="-7.5" font-family="Helvetica,sans-Serif" font-size="10.00">ContinueConnector</text>
</a>
</g>
</g>
<!-- Node1&#45;&gt;Node2 -->
<g id="edge1" class="edge"><title>Node1&#45;&gt;Node2</title>
<path fill="none" stroke="midnightblue" d="M117.498,-15.5C125.884,-15.5 134.421,-15.5 142.632,-15.5"/>
<polygon fill="midnightblue" stroke="midnightblue" points="117.376,-12.0001 107.376,-15.5 117.376,-19.0001 117.376,-12.0001"/>
</g>
<!-- Node3 -->
<g id="node3" class="node"><title>Node3</title>
<g id="a_node3"><a xlink:href="cycle_8h.xhtml#aeed4b968387a7629985a8d3d9528c4e0" target="_top" xlink:title="Retrieves connectors from a connector. ">
<polygon fill="white" stroke="black" points="288,-0.5 288,-30.5 395,-30.5 395,-0.5 288,-0.5"/>
<text text-anchor="start" x="296" y="-18.5" font-family="Helvetica,sans-Serif" font-size="10.00">scram::mef::cycle::</text>
<text text-anchor="middle" x="341.5" y="-7.5" font-family="Helvetica,sans-Serif" font-size="10.00">GetConnectors</text>
</a>
</g>
</g>
<!-- Node2&#45;&gt;Node3 -->
<g id="edge2" class="edge"><title>Node2&#45;&gt;Node3</title>
<path fill="none" stroke="midnightblue" d="M262.397,-15.5C270.851,-15.5 279.441,-15.5 287.681,-15.5"/>
<polygon fill="midnightblue" stroke="midnightblue" points="262.184,-12.0001 252.184,-15.5 262.184,-19.0001 262.184,-12.0001"/>
</g>
</g>
</svg>
