<?xml version="1.0" encoding="UTF-8" standalone="no"?>
<!DOCTYPE svg PUBLIC "-//W3C//DTD SVG 1.1//EN"
 "http://www.w3.org/Graphics/SVG/1.1/DTD/svg11.dtd">
<!-- Generated by graphviz version 2.38.0 (20140413.2041)
 -->
<!-- Title: element.cc Pages: 1 -->
<svg width="1765pt" height="151pt"
 viewBox="0.00 0.00 1765.00 151.00" xmlns="http://www.w3.org/2000/svg" xmlns:xlink="http://www.w3.org/1999/xlink">
<g id="graph0" class="graph" transform="scale(1 1) rotate(0) translate(4 147)">
<title>element.cc</title>
<polygon fill="white" stroke="none" points="-4,4 -4,-147 1761,-147 1761,4 -4,4"/>
<!-- Node1 -->
<g id="node1" class="node"><title>Node1</title>
<polygon fill="#bfbfbf" stroke="black" points="1298,-123.5 1298,-142.5 1368,-142.5 1368,-123.5 1298,-123.5"/>
<text text-anchor="middle" x="1333" y="-130.5" font-family="Helvetica,sans-Serif" font-size="10.00">element.cc</text>
</g>
<!-- Node2 -->
<g id="node2" class="node"><title>Node2</title>
<g id="a_node2"><a xlink:href="element_8h.xhtml" target="_top" xlink:title="Helper classes, structs, and properties common to all other classes. ">
<polygon fill="white" stroke="black" points="581.5,-67.5 581.5,-86.5 646.5,-86.5 646.5,-67.5 581.5,-67.5"/>
<text text-anchor="middle" x="614" y="-74.5" font-family="Helvetica,sans-Serif" font-size="10.00">element.h</text>
</a>
</g>
</g>
<!-- Node1&#45;&gt;Node2 -->
<g id="edge1" class="edge"><title>Node1&#45;&gt;Node2</title>
<path fill="none" stroke="midnightblue" d="M1297.83,-129.359C1178.15,-120.37 786.846,-90.9814 656.6,-81.1995"/>
<polygon fill="midnightblue" stroke="midnightblue" points="656.838,-77.7075 646.604,-80.4487 656.313,-84.6879 656.838,-77.7075"/>
</g>
<!-- Node10 -->
<g id="node10" class="node"><title>Node10</title>
<polygon fill="white" stroke="#bfbfbf" points="1533,-6 1533,-25 1677,-25 1677,-6 1533,-6"/>
<text text-anchor="middle" x="1605" y="-13" font-family="Helvetica,sans-Serif" font-size="10.00">boost/range/algorithm.hpp</text>
</g>
<!-- Node1&#45;&gt;Node10 -->
<g id="edge9" class="edge"><title>Node1&#45;&gt;Node10</title>
<path fill="none" stroke="midnightblue" d="M1353.44,-123.319C1401.11,-103.077 1519.79,-52.682 1575.39,-29.0747"/>
<polygon fill="midnightblue" stroke="midnightblue" points="1576.85,-32.2546 1584.69,-25.1245 1574.12,-25.8115 1576.85,-32.2546"/>
</g>
<!-- Node11 -->
<g id="node11" class="node"><title>Node11</title>
<g id="a_node11"><a xlink:href="error_8h.xhtml" target="_top" xlink:title="Exceptions for SCRAM. ">
<polygon fill="white" stroke="black" points="1226,-67.5 1226,-86.5 1274,-86.5 1274,-67.5 1226,-67.5"/>
<text text-anchor="middle" x="1250" y="-74.5" font-family="Helvetica,sans-Serif" font-size="10.00">error.h</text>
</a>
</g>
</g>
<!-- Node1&#45;&gt;Node11 -->
<g id="edge10" class="edge"><title>Node1&#45;&gt;Node11</title>
<path fill="none" stroke="midnightblue" d="M1319.66,-123.324C1306.84,-114.979 1287.22,-102.212 1272.06,-92.3524"/>
<polygon fill="midnightblue" stroke="midnightblue" points="1273.59,-89.1742 1263.3,-86.6545 1269.78,-95.0417 1273.59,-89.1742"/>
</g>
<!-- Node17 -->
<g id="node17" class="node"><title>Node17</title>
<g id="a_node17"><a xlink:href="algorithm_8h.xhtml" target="_top" xlink:title="Helpful algorithm facilities as an extension to the STL or Boost. ">
<polygon fill="white" stroke="black" points="1560.5,-67.5 1560.5,-86.5 1649.5,-86.5 1649.5,-67.5 1560.5,-67.5"/>
<text text-anchor="middle" x="1605" y="-74.5" font-family="Helvetica,sans-Serif" font-size="10.00">ext/algorithm.h</text>
</a>
</g>
</g>
<!-- Node1&#45;&gt;Node17 -->
<g id="edge17" class="edge"><title>Node1&#45;&gt;Node17</title>
<path fill="none" stroke="midnightblue" d="M1368,-125.051C1414.64,-115.792 1497.58,-99.3252 1551.94,-88.5346"/>
<polygon fill="midnightblue" stroke="midnightblue" points="1552.94,-91.9028 1562.07,-86.5225 1551.58,-85.0368 1552.94,-91.9028"/>
</g>
<!-- Node3 -->
<g id="node3" class="node"><title>Node3</title>
<polygon fill="white" stroke="#bfbfbf" points="642.5,-6 642.5,-25 691.5,-25 691.5,-6 642.5,-6"/>
<text text-anchor="middle" x="667" y="-13" font-family="Helvetica,sans-Serif" font-size="10.00">cstdint</text>
</g>
<!-- Node2&#45;&gt;Node3 -->
<g id="edge2" class="edge"><title>Node2&#45;&gt;Node3</title>
<path fill="none" stroke="midnightblue" d="M621.594,-67.4751C629.701,-58.3733 642.735,-43.741 652.763,-32.483"/>
<polygon fill="midnightblue" stroke="midnightblue" points="655.383,-34.8043 659.42,-25.0091 650.156,-30.1483 655.383,-34.8043"/>
</g>
<!-- Node4 -->
<g id="node4" class="node"><title>Node4</title>
<polygon fill="white" stroke="#bfbfbf" points="775,-6 775,-25 819,-25 819,-6 775,-6"/>
<text text-anchor="middle" x="797" y="-13" font-family="Helvetica,sans-Serif" font-size="10.00">string</text>
</g>
<!-- Node2&#45;&gt;Node4 -->
<g id="edge3" class="edge"><title>Node2&#45;&gt;Node4</title>
<path fill="none" stroke="midnightblue" d="M646.526,-67.6804C677.394,-59.4639 724.897,-45.9823 765,-31 766.611,-30.3983 768.254,-29.7533 769.905,-29.0819"/>
<polygon fill="midnightblue" stroke="midnightblue" points="771.438,-32.2324 779.24,-25.0641 768.67,-25.8027 771.438,-32.2324"/>
</g>
<!-- Node5 -->
<g id="node5" class="node"><title>Node5</title>
<polygon fill="white" stroke="#bfbfbf" points="709.5,-6 709.5,-25 756.5,-25 756.5,-6 709.5,-6"/>
<text text-anchor="middle" x="733" y="-13" font-family="Helvetica,sans-Serif" font-size="10.00">vector</text>
</g>
<!-- Node2&#45;&gt;Node5 -->
<g id="edge4" class="edge"><title>Node2&#45;&gt;Node5</title>
<path fill="none" stroke="midnightblue" d="M631.05,-67.4751C650.844,-57.578 683.717,-41.1416 706.77,-29.6151"/>
<polygon fill="midnightblue" stroke="midnightblue" points="708.603,-32.6118 715.982,-25.0091 705.472,-26.3508 708.603,-32.6118"/>
</g>
<!-- Node6 -->
<g id="node6" class="node"><title>Node6</title>
<polygon fill="white" stroke="#bfbfbf" points="0,-0.5 0,-30.5 140,-30.5 140,-0.5 0,-0.5"/>
<text text-anchor="start" x="8" y="-18.5" font-family="Helvetica,sans-Serif" font-size="10.00">boost/multi_index/hashed</text>
<text text-anchor="middle" x="70" y="-7.5" font-family="Helvetica,sans-Serif" font-size="10.00">_index.hpp</text>
</g>
<!-- Node2&#45;&gt;Node6 -->
<g id="edge5" class="edge"><title>Node2&#45;&gt;Node6</title>
<path fill="none" stroke="midnightblue" d="M581.473,-73.8088C507,-68.5876 318.219,-54.1924 150.178,-31.0887"/>
<polygon fill="midnightblue" stroke="midnightblue" points="150.547,-27.6065 140.161,-29.6976 149.584,-34.54 150.547,-27.6065"/>
</g>
<!-- Node7 -->
<g id="node7" class="node"><title>Node7</title>
<polygon fill="white" stroke="#bfbfbf" points="158,-0.5 158,-30.5 288,-30.5 288,-0.5 158,-0.5"/>
<text text-anchor="start" x="166" y="-18.5" font-family="Helvetica,sans-Serif" font-size="10.00">boost/multi_index/mem</text>
<text text-anchor="middle" x="223" y="-7.5" font-family="Helvetica,sans-Serif" font-size="10.00">_fun.hpp</text>
</g>
<!-- Node2&#45;&gt;Node7 -->
<g id="edge6" class="edge"><title>Node2&#45;&gt;Node7</title>
<path fill="none" stroke="midnightblue" d="M581.055,-71.9024C525.045,-64.8107 407.471,-49.3823 298.205,-31.1533"/>
<polygon fill="midnightblue" stroke="midnightblue" points="298.778,-27.7006 288.336,-29.4953 297.618,-34.6039 298.778,-27.7006"/>
</g>
<!-- Node8 -->
<g id="node8" class="node"><title>Node8</title>
<polygon fill="white" stroke="#bfbfbf" points="306,-6 306,-25 478,-25 478,-6 306,-6"/>
<text text-anchor="middle" x="392" y="-13" font-family="Helvetica,sans-Serif" font-size="10.00">boost/multi_index_container.hpp</text>
</g>
<!-- Node2&#45;&gt;Node8 -->
<g id="edge7" class="edge"><title>Node2&#45;&gt;Node8</title>
<path fill="none" stroke="midnightblue" d="M582.193,-67.4751C543.123,-57.0036 476.74,-39.2118 433.639,-27.6601"/>
<polygon fill="midnightblue" stroke="midnightblue" points="434.313,-24.2173 423.748,-25.0091 432.501,-30.9787 434.313,-24.2173"/>
</g>
<!-- Node9 -->
<g id="node9" class="node"><title>Node9</title>
<polygon fill="white" stroke="#bfbfbf" points="496,-6 496,-25 624,-25 624,-6 496,-6"/>
<text text-anchor="middle" x="560" y="-13" font-family="Helvetica,sans-Serif" font-size="10.00">boost/noncopyable.hpp</text>
</g>
<!-- Node2&#45;&gt;Node9 -->
<g id="edge8" class="edge"><title>Node2&#45;&gt;Node9</title>
<path fill="none" stroke="midnightblue" d="M606.263,-67.4751C598.003,-58.3733 584.723,-43.741 574.506,-32.483"/>
<polygon fill="midnightblue" stroke="midnightblue" points="577.035,-30.0619 567.723,-25.0091 571.851,-34.7663 577.035,-30.0619"/>
</g>
<!-- Node11&#45;&gt;Node4 -->
<g id="edge12" class="edge"><title>Node11&#45;&gt;Node4</title>
<path fill="none" stroke="midnightblue" d="M1225.68,-76.1866C1160.15,-76.1005 974.914,-71.9559 828,-31 826.068,-30.4615 824.107,-29.813 822.158,-29.0928"/>
<polygon fill="midnightblue" stroke="midnightblue" points="823.274,-25.7642 812.702,-25.0723 820.535,-32.2061 823.274,-25.7642"/>
</g>
<!-- Node12 -->
<g id="node12" class="node"><title>Node12</title>
<polygon fill="white" stroke="#bfbfbf" points="1451.5,-6 1451.5,-25 1514.5,-25 1514.5,-6 1451.5,-6"/>
<text text-anchor="middle" x="1483" y="-13" font-family="Helvetica,sans-Serif" font-size="10.00">exception</text>
</g>
<!-- Node11&#45;&gt;Node12 -->
<g id="edge11" class="edge"><title>Node11&#45;&gt;Node12</title>
<path fill="none" stroke="midnightblue" d="M1274.17,-71.225C1310.78,-63.7909 1382.37,-48.4754 1442,-31 1444.78,-30.1839 1447.66,-29.2859 1450.53,-28.3491"/>
<polygon fill="midnightblue" stroke="midnightblue" points="1451.82,-31.6083 1460.16,-25.0769 1449.56,-24.9805 1451.82,-31.6083"/>
</g>
<!-- Node13 -->
<g id="node13" class="node"><title>Node13</title>
<polygon fill="white" stroke="#bfbfbf" points="837,-6 837,-25 983,-25 983,-6 837,-6"/>
<text text-anchor="middle" x="910" y="-13" font-family="Helvetica,sans-Serif" font-size="10.00">boost/current_function.hpp</text>
</g>
<!-- Node11&#45;&gt;Node13 -->
<g id="edge13" class="edge"><title>Node11&#45;&gt;Node13</title>
<path fill="none" stroke="midnightblue" d="M1225.81,-71.8001C1180.12,-63.8628 1077.98,-46.1005 992,-31 984.291,-29.6461 976.175,-28.2163 968.169,-26.8033"/>
<polygon fill="midnightblue" stroke="midnightblue" points="968.582,-23.3222 958.126,-25.0295 967.365,-30.2155 968.582,-23.3222"/>
</g>
<!-- Node14 -->
<g id="node14" class="node"><title>Node14</title>
<polygon fill="white" stroke="#bfbfbf" points="1001,-6 1001,-25 1165,-25 1165,-6 1001,-6"/>
<text text-anchor="middle" x="1083" y="-13" font-family="Helvetica,sans-Serif" font-size="10.00">boost/exception/exception.hpp</text>
</g>
<!-- Node11&#45;&gt;Node14 -->
<g id="edge14" class="edge"><title>Node11&#45;&gt;Node14</title>
<path fill="none" stroke="midnightblue" d="M1226.07,-67.4751C1197.3,-57.2246 1148.84,-39.9593 1116.4,-28.3994"/>
<polygon fill="midnightblue" stroke="midnightblue" points="1117.48,-25.0684 1106.88,-25.0091 1115.13,-31.6624 1117.48,-25.0684"/>
</g>
<!-- Node15 -->
<g id="node15" class="node"><title>Node15</title>
<polygon fill="white" stroke="#bfbfbf" points="1183,-6 1183,-25 1317,-25 1317,-6 1183,-6"/>
<text text-anchor="middle" x="1250" y="-13" font-family="Helvetica,sans-Serif" font-size="10.00">boost/exception/info.hpp</text>
</g>
<!-- Node11&#45;&gt;Node15 -->
<g id="edge15" class="edge"><title>Node11&#45;&gt;Node15</title>
<path fill="none" stroke="midnightblue" d="M1250,-67.4751C1250,-59.0803 1250,-45.9806 1250,-35.1631"/>
<polygon fill="midnightblue" stroke="midnightblue" points="1253.5,-35.0091 1250,-25.0091 1246.5,-35.0091 1253.5,-35.0091"/>
</g>
<!-- Node16 -->
<g id="node16" class="node"><title>Node16</title>
<g id="a_node16"><a xlink:href="source__info_8h.xhtml" target="_top" xlink:title="Helper facilities to get source file information. ">
<polygon fill="white" stroke="black" points="1335,-6 1335,-25 1433,-25 1433,-6 1335,-6"/>
<text text-anchor="middle" x="1384" y="-13" font-family="Helvetica,sans-Serif" font-size="10.00">ext/source_info.h</text>
</a>
</g>
</g>
<!-- Node11&#45;&gt;Node16 -->
<g id="edge16" class="edge"><title>Node11&#45;&gt;Node16</title>
<path fill="none" stroke="midnightblue" d="M1269.2,-67.4751C1291.79,-57.4455 1329.5,-40.7002 1355.5,-29.1546"/>
<polygon fill="midnightblue" stroke="midnightblue" points="1357.12,-32.2662 1364.84,-25.0091 1354.28,-25.8685 1357.12,-32.2662"/>
</g>
<!-- Node17&#45;&gt;Node10 -->
<g id="edge19" class="edge"><title>Node17&#45;&gt;Node10</title>
<path fill="none" stroke="midnightblue" d="M1605,-67.4751C1605,-59.0803 1605,-45.9806 1605,-35.1631"/>
<polygon fill="midnightblue" stroke="midnightblue" points="1608.5,-35.0091 1605,-25.0091 1601.5,-35.0091 1608.5,-35.0091"/>
</g>
<!-- Node18 -->
<g id="node18" class="node"><title>Node18</title>
<polygon fill="white" stroke="#bfbfbf" points="1695,-6 1695,-25 1757,-25 1757,-6 1695,-6"/>
<text text-anchor="middle" x="1726" y="-13" font-family="Helvetica,sans-Serif" font-size="10.00">algorithm</text>
</g>
<!-- Node17&#45;&gt;Node18 -->
<g id="edge18" class="edge"><title>Node17&#45;&gt;Node18</title>
<path fill="none" stroke="midnightblue" d="M1622.34,-67.4751C1642.55,-57.5338 1676.19,-40.9947 1699.64,-29.461"/>
<polygon fill="midnightblue" stroke="midnightblue" points="1701.27,-32.5627 1708.7,-25.0091 1698.18,-26.281 1701.27,-32.5627"/>
</g>
</g>
</svg>
