<?xml version="1.0" encoding="UTF-8" standalone="no"?>
<!DOCTYPE svg PUBLIC "-//W3C//DTD SVG 1.1//EN"
 "http://www.w3.org/Graphics/SVG/1.1/DTD/svg11.dtd">
<!-- Generated by graphviz version 2.38.0 (20140413.2041)
 -->
<!-- Title: element.h Pages: 1 -->
<svg width="828pt" height="95pt"
 viewBox="0.00 0.00 827.50 95.00" xmlns="http://www.w3.org/2000/svg" xmlns:xlink="http://www.w3.org/1999/xlink">
<g id="graph0" class="graph" transform="scale(1 1) rotate(0) translate(4 91)">
<title>element.h</title>
<polygon fill="white" stroke="none" points="-4,4 -4,-91 823.5,-91 823.5,4 -4,4"/>
<!-- Node1 -->
<g id="node1" class="node"><title>Node1</title>
<polygon fill="#bfbfbf" stroke="black" points="233,-67.5 233,-86.5 298,-86.5 298,-67.5 233,-67.5"/>
<text text-anchor="middle" x="265.5" y="-74.5" font-family="Helvetica,sans-Serif" font-size="10.00">element.h</text>
</g>
<!-- Node2 -->
<g id="node2" class="node"><title>Node2</title>
<polygon fill="white" stroke="#bfbfbf" points="0,-6 0,-25 49,-25 49,-6 0,-6"/>
<text text-anchor="middle" x="24.5" y="-13" font-family="Helvetica,sans-Serif" font-size="10.00">cstdint</text>
</g>
<!-- Node1&#45;&gt;Node2 -->
<g id="edge1" class="edge"><title>Node1&#45;&gt;Node2</title>
<path fill="none" stroke="midnightblue" d="M232.732,-70.85C191.494,-63.9215 118.768,-50.2118 58.5,-31 56.5741,-30.3861 54.6073,-29.7037 52.639,-28.979"/>
<polygon fill="midnightblue" stroke="midnightblue" points="53.5505,-25.5746 42.9652,-25.1239 50.9591,-32.0773 53.5505,-25.5746"/>
</g>
<!-- Node3 -->
<g id="node3" class="node"><title>Node3</title>
<polygon fill="white" stroke="#bfbfbf" points="67.5,-6 67.5,-25 111.5,-25 111.5,-6 67.5,-6"/>
<text text-anchor="middle" x="89.5" y="-13" font-family="Helvetica,sans-Serif" font-size="10.00">string</text>
</g>
<!-- Node1&#45;&gt;Node3 -->
<g id="edge2" class="edge"><title>Node1&#45;&gt;Node3</title>
<path fill="none" stroke="midnightblue" d="M233.678,-67.4783C204.012,-59.2168 158.725,-45.7914 120.5,-31 119.08,-30.4505 117.634,-29.8658 116.181,-29.2583"/>
<polygon fill="midnightblue" stroke="midnightblue" points="117.259,-25.9077 106.698,-25.0531 114.421,-32.3067 117.259,-25.9077"/>
</g>
<!-- Node4 -->
<g id="node4" class="node"><title>Node4</title>
<polygon fill="white" stroke="#bfbfbf" points="130,-6 130,-25 177,-25 177,-6 130,-6"/>
<text text-anchor="middle" x="153.5" y="-13" font-family="Helvetica,sans-Serif" font-size="10.00">vector</text>
</g>
<!-- Node1&#45;&gt;Node4 -->
<g id="edge3" class="edge"><title>Node1&#45;&gt;Node4</title>
<path fill="none" stroke="midnightblue" d="M249.453,-67.4751C230.907,-57.6222 200.16,-41.2883 178.478,-29.7697"/>
<polygon fill="midnightblue" stroke="midnightblue" points="179.99,-26.6098 169.517,-25.0091 176.706,-32.7916 179.99,-26.6098"/>
</g>
<!-- Node5 -->
<g id="node5" class="node"><title>Node5</title>
<polygon fill="white" stroke="#bfbfbf" points="195.5,-0.5 195.5,-30.5 335.5,-30.5 335.5,-0.5 195.5,-0.5"/>
<text text-anchor="start" x="203.5" y="-18.5" font-family="Helvetica,sans-Serif" font-size="10.00">boost/multi_index/hashed</text>
<text text-anchor="middle" x="265.5" y="-7.5" font-family="Helvetica,sans-Serif" font-size="10.00">_index.hpp</text>
</g>
<!-- Node1&#45;&gt;Node5 -->
<g id="edge4" class="edge"><title>Node1&#45;&gt;Node5</title>
<path fill="none" stroke="midnightblue" d="M265.5,-67.4751C265.5,-60.471 265.5,-50.1919 265.5,-40.6956"/>
<polygon fill="midnightblue" stroke="midnightblue" points="269,-40.5229 265.5,-30.523 262,-40.523 269,-40.5229"/>
</g>
<!-- Node6 -->
<g id="node6" class="node"><title>Node6</title>
<polygon fill="white" stroke="#bfbfbf" points="353.5,-0.5 353.5,-30.5 483.5,-30.5 483.5,-0.5 353.5,-0.5"/>
<text text-anchor="start" x="361.5" y="-18.5" font-family="Helvetica,sans-Serif" font-size="10.00">boost/multi_index/mem</text>
<text text-anchor="middle" x="418.5" y="-7.5" font-family="Helvetica,sans-Serif" font-size="10.00">_fun.hpp</text>
</g>
<!-- Node1&#45;&gt;Node6 -->
<g id="edge5" class="edge"><title>Node1&#45;&gt;Node6</title>
<path fill="none" stroke="midnightblue" d="M287.421,-67.4751C309.595,-58.8518 344.535,-45.2641 372.767,-34.2852"/>
<polygon fill="midnightblue" stroke="midnightblue" points="374.389,-37.4095 382.441,-30.523 371.852,-30.8855 374.389,-37.4095"/>
</g>
<!-- Node7 -->
<g id="node7" class="node"><title>Node7</title>
<polygon fill="white" stroke="#bfbfbf" points="501.5,-6 501.5,-25 673.5,-25 673.5,-6 501.5,-6"/>
<text text-anchor="middle" x="587.5" y="-13" font-family="Helvetica,sans-Serif" font-size="10.00">boost/multi_index_container.hpp</text>
</g>
<!-- Node1&#45;&gt;Node7 -->
<g id="edge6" class="edge"><title>Node1&#45;&gt;Node7</title>
<path fill="none" stroke="midnightblue" d="M298.147,-69.9674C352.896,-59.8508 463.836,-39.3509 531.319,-26.8813"/>
<polygon fill="midnightblue" stroke="midnightblue" points="532.157,-30.2858 541.355,-25.0269 530.885,-23.4023 532.157,-30.2858"/>
</g>
<!-- Node8 -->
<g id="node8" class="node"><title>Node8</title>
<polygon fill="white" stroke="#bfbfbf" points="691.5,-6 691.5,-25 819.5,-25 819.5,-6 691.5,-6"/>
<text text-anchor="middle" x="755.5" y="-13" font-family="Helvetica,sans-Serif" font-size="10.00">boost/noncopyable.hpp</text>
</g>
<!-- Node1&#45;&gt;Node8 -->
<g id="edge7" class="edge"><title>Node1&#45;&gt;Node8</title>
<path fill="none" stroke="midnightblue" d="M298.069,-73.4741C368.47,-67.7975 539.982,-52.8002 682.5,-31 690.049,-29.8453 698.003,-28.4509 705.773,-26.9891"/>
<polygon fill="midnightblue" stroke="midnightblue" points="706.679,-30.3789 715.832,-25.043 705.349,-23.5063 706.679,-30.3789"/>
</g>
</g>
</svg>
