<?xml version="1.0" encoding="UTF-8" standalone="no"?>
<!DOCTYPE svg PUBLIC "-//W3C//DTD SVG 1.1//EN"
 "http://www.w3.org/Graphics/SVG/1.1/DTD/svg11.dtd">
<!-- Generated by graphviz version 2.38.0 (20140413.2041)
 -->
<!-- Title: scram::env::install_dir Pages: 1 -->
<svg width="307pt" height="181pt"
 viewBox="0.00 0.00 307.00 181.00" xmlns="http://www.w3.org/2000/svg" xmlns:xlink="http://www.w3.org/1999/xlink">
<g id="graph0" class="graph" transform="scale(1 1) rotate(0) translate(4 177)">
<title>scram::env::install_dir</title>
<polygon fill="white" stroke="none" points="-4,4 -4,-177 303,-177 303,4 -4,4"/>
<!-- Node1 -->
<g id="node1" class="node"><title>Node1</title>
<polygon fill="#bfbfbf" stroke="black" points="0,-68 0,-87 120,-87 120,-68 0,-68"/>
<text text-anchor="middle" x="60" y="-75" font-family="Helvetica,sans-Serif" font-size="10.00">scram::env::install_dir</text>
</g>
<!-- Node1&#45;&gt;Node1 -->
<g id="edge5" class="edge"><title>Node1&#45;&gt;Node1</title>
<path fill="none" stroke="midnightblue" d="M28.9371,-95.7746C29.8228,-101.241 40.1771,-105.5 60,-105.5 89.5039,-105.5 98.0324,-96.0653 85.5854,-87.2571"/>
<polygon fill="midnightblue" stroke="midnightblue" points="31.9495,-97.5611 34.4146,-87.2571 26.0618,-93.7749 31.9495,-97.5611"/>
</g>
<!-- Node2 -->
<g id="node2" class="node"><title>Node2</title>
<g id="a_node2"><a xlink:href="env_8cc.xhtml#a3c2c2a5828c5f04fab29c5378c0c9612" target="_top" xlink:title="scram::env::config\l_schema">
<polygon fill="white" stroke="black" points="175.5,-124.5 175.5,-154.5 279.5,-154.5 279.5,-124.5 175.5,-124.5"/>
<text text-anchor="start" x="183.5" y="-142.5" font-family="Helvetica,sans-Serif" font-size="10.00">scram::env::config</text>
<text text-anchor="middle" x="227.5" y="-131.5" font-family="Helvetica,sans-Serif" font-size="10.00">_schema</text>
</a>
</g>
</g>
<!-- Node1&#45;&gt;Node2 -->
<g id="edge1" class="edge"><title>Node1&#45;&gt;Node2</title>
<path fill="none" stroke="midnightblue" d="M94.6763,-90.9053C112.798,-98.0456 135.564,-106.899 156,-114.5 164.764,-117.76 174.174,-121.163 183.175,-124.372"/>
<polygon fill="midnightblue" stroke="midnightblue" points="95.7174,-87.5534 85.1309,-87.1335 93.1449,-94.0636 95.7174,-87.5534"/>
</g>
<!-- Node3 -->
<g id="node3" class="node"><title>Node3</title>
<g id="a_node3"><a xlink:href="env_8cc.xhtml#a469386a84ecc82bb3172c91abf6a3fbf" target="_top" xlink:title="scram::env::input_schema">
<polygon fill="white" stroke="black" points="156,-68 156,-87 299,-87 299,-68 156,-68"/>
<text text-anchor="middle" x="227.5" y="-75" font-family="Helvetica,sans-Serif" font-size="10.00">scram::env::input_schema</text>
</a>
</g>
</g>
<!-- Node1&#45;&gt;Node3 -->
<g id="edge3" class="edge"><title>Node1&#45;&gt;Node3</title>
<path fill="none" stroke="midnightblue" d="M130.397,-77.5C138.785,-77.5 147.362,-77.5 155.769,-77.5"/>
<polygon fill="midnightblue" stroke="midnightblue" points="130.282,-74.0001 120.282,-77.5 130.282,-81.0001 130.282,-74.0001"/>
</g>
<!-- Node4 -->
<g id="node4" class="node"><title>Node4</title>
<g id="a_node4"><a xlink:href="env_8cc.xhtml#a8a9148b4c720bbae356b327d9baf9c7e" target="_top" xlink:title="scram::env::report\l_schema">
<polygon fill="white" stroke="black" points="175.5,-0.5 175.5,-30.5 279.5,-30.5 279.5,-0.5 175.5,-0.5"/>
<text text-anchor="start" x="183.5" y="-18.5" font-family="Helvetica,sans-Serif" font-size="10.00">scram::env::report</text>
<text text-anchor="middle" x="227.5" y="-7.5" font-family="Helvetica,sans-Serif" font-size="10.00">_schema</text>
</a>
</g>
</g>
<!-- Node1&#45;&gt;Node4 -->
<g id="edge6" class="edge"><title>Node1&#45;&gt;Node4</title>
<path fill="none" stroke="midnightblue" d="M96.0814,-64.3577C122.441,-54.4828 158.594,-40.9392 186.151,-30.6158"/>
<polygon fill="midnightblue" stroke="midnightblue" points="94.6333,-61.1626 86.4967,-67.9484 97.089,-67.7177 94.6333,-61.1626"/>
</g>
<!-- Node2&#45;&gt;Node2 -->
<g id="edge2" class="edge"><title>Node2&#45;&gt;Node2</title>
<path fill="none" stroke="midnightblue" d="M198.004,-164.958C201.665,-169.679 211.497,-173 227.5,-173 253.762,-173 263.405,-164.057 256.429,-154.659"/>
<polygon fill="midnightblue" stroke="midnightblue" points="201.516,-164.836 198.571,-154.659 194.526,-164.451 201.516,-164.836"/>
</g>
<!-- Node3&#45;&gt;Node3 -->
<g id="edge4" class="edge"><title>Node3&#45;&gt;Node3</title>
<path fill="none" stroke="midnightblue" d="M196.437,-95.7746C197.323,-101.241 207.677,-105.5 227.5,-105.5 257.004,-105.5 265.532,-96.0653 253.085,-87.2571"/>
<polygon fill="midnightblue" stroke="midnightblue" points="199.449,-97.5611 201.915,-87.2571 193.562,-93.7749 199.449,-97.5611"/>
</g>
<!-- Node4&#45;&gt;Node4 -->
<g id="edge7" class="edge"><title>Node4&#45;&gt;Node4</title>
<path fill="none" stroke="midnightblue" d="M198.004,-40.9579C201.665,-45.679 211.497,-49 227.5,-49 253.762,-49 263.405,-40.0566 256.429,-30.659"/>
<polygon fill="midnightblue" stroke="midnightblue" points="201.516,-40.8364 198.571,-30.659 194.526,-40.4513 201.516,-40.8364"/>
</g>
</g>
</svg>
