<?xml version="1.0" encoding="UTF-8" standalone="no"?>
<!DOCTYPE svg PUBLIC "-//W3C//DTD SVG 1.1//EN"
 "http://www.w3.org/Graphics/SVG/1.1/DTD/svg11.dtd">
<!-- Generated by graphviz version 2.38.0 (20140413.2041)
 -->
<!-- Title: error.h Pages: 1 -->
<svg width="748pt" height="84pt"
 viewBox="0.00 0.00 747.50 84.00" xmlns="http://www.w3.org/2000/svg" xmlns:xlink="http://www.w3.org/1999/xlink">
<g id="graph0" class="graph" transform="scale(1 1) rotate(0) translate(4 80)">
<title>error.h</title>
<polygon fill="white" stroke="none" points="-4,4 -4,-80 743.5,-80 743.5,4 -4,4"/>
<!-- Node1 -->
<g id="node1" class="node"><title>Node1</title>
<polygon fill="#bfbfbf" stroke="black" points="278.5,-56.5 278.5,-75.5 326.5,-75.5 326.5,-56.5 278.5,-56.5"/>
<text text-anchor="middle" x="302.5" y="-63.5" font-family="Helvetica,sans-Serif" font-size="10.00">error.h</text>
</g>
<!-- Node2 -->
<g id="node2" class="node"><title>Node2</title>
<polygon fill="white" stroke="#bfbfbf" points="0,-0.5 0,-19.5 63,-19.5 63,-0.5 0,-0.5"/>
<text text-anchor="middle" x="31.5" y="-7.5" font-family="Helvetica,sans-Serif" font-size="10.00">exception</text>
</g>
<!-- Node1&#45;&gt;Node2 -->
<g id="edge1" class="edge"><title>Node1&#45;&gt;Node2</title>
<path fill="none" stroke="midnightblue" d="M278.29,-60.452C237.968,-52.8367 154.273,-36.858 73.1464,-20.0962"/>
<polygon fill="midnightblue" stroke="midnightblue" points="73.771,-16.6514 63.2688,-18.0488 72.3502,-23.5057 73.771,-16.6514"/>
</g>
<!-- Node3 -->
<g id="node3" class="node"><title>Node3</title>
<polygon fill="white" stroke="#bfbfbf" points="81.5,-0.5 81.5,-19.5 125.5,-19.5 125.5,-0.5 81.5,-0.5"/>
<text text-anchor="middle" x="103.5" y="-7.5" font-family="Helvetica,sans-Serif" font-size="10.00">string</text>
</g>
<!-- Node1&#45;&gt;Node3 -->
<g id="edge2" class="edge"><title>Node1&#45;&gt;Node3</title>
<path fill="none" stroke="midnightblue" d="M278.253,-58.6748C247.344,-50.5753 192.024,-35.9568 135.629,-20.2758"/>
<polygon fill="midnightblue" stroke="midnightblue" points="136.408,-16.8595 125.835,-17.5446 134.528,-23.6022 136.408,-16.8595"/>
</g>
<!-- Node4 -->
<g id="node4" class="node"><title>Node4</title>
<polygon fill="white" stroke="#bfbfbf" points="143.5,-0.5 143.5,-19.5 289.5,-19.5 289.5,-0.5 143.5,-0.5"/>
<text text-anchor="middle" x="216.5" y="-7.5" font-family="Helvetica,sans-Serif" font-size="10.00">boost/current_function.hpp</text>
</g>
<!-- Node1&#45;&gt;Node4 -->
<g id="edge3" class="edge"><title>Node1&#45;&gt;Node4</title>
<path fill="none" stroke="midnightblue" d="M288.683,-56.324C275.267,-47.9002 254.676,-34.9709 238.914,-25.0741"/>
<polygon fill="midnightblue" stroke="midnightblue" points="240.613,-22.0081 230.283,-19.6545 236.891,-27.9364 240.613,-22.0081"/>
</g>
<!-- Node5 -->
<g id="node5" class="node"><title>Node5</title>
<polygon fill="white" stroke="#bfbfbf" points="307.5,-0.5 307.5,-19.5 471.5,-19.5 471.5,-0.5 307.5,-0.5"/>
<text text-anchor="middle" x="389.5" y="-7.5" font-family="Helvetica,sans-Serif" font-size="10.00">boost/exception/exception.hpp</text>
</g>
<!-- Node1&#45;&gt;Node5 -->
<g id="edge4" class="edge"><title>Node1&#45;&gt;Node5</title>
<path fill="none" stroke="midnightblue" d="M316.478,-56.324C330.05,-47.9002 350.88,-34.9709 366.825,-25.0741"/>
<polygon fill="midnightblue" stroke="midnightblue" points="368.906,-27.9019 375.557,-19.6545 365.214,-21.9544 368.906,-27.9019"/>
</g>
<!-- Node6 -->
<g id="node6" class="node"><title>Node6</title>
<polygon fill="white" stroke="#bfbfbf" points="489.5,-0.5 489.5,-19.5 623.5,-19.5 623.5,-0.5 489.5,-0.5"/>
<text text-anchor="middle" x="556.5" y="-7.5" font-family="Helvetica,sans-Serif" font-size="10.00">boost/exception/info.hpp</text>
</g>
<!-- Node1&#45;&gt;Node6 -->
<g id="edge5" class="edge"><title>Node1&#45;&gt;Node6</title>
<path fill="none" stroke="midnightblue" d="M326.855,-59.8223C368.032,-51.068 452.21,-33.1719 506.41,-21.6491"/>
<polygon fill="midnightblue" stroke="midnightblue" points="507.442,-25.0079 516.496,-19.5048 505.987,-18.1609 507.442,-25.0079"/>
</g>
<!-- Node7 -->
<g id="node7" class="node"><title>Node7</title>
<g id="a_node7"><a xlink:href="source__info_8h.xhtml" target="_top" xlink:title="Helper facilities to get source file information. ">
<polygon fill="white" stroke="black" points="641.5,-0.5 641.5,-19.5 739.5,-19.5 739.5,-0.5 641.5,-0.5"/>
<text text-anchor="middle" x="690.5" y="-7.5" font-family="Helvetica,sans-Serif" font-size="10.00">ext/source_info.h</text>
</a>
</g>
</g>
<!-- Node1&#45;&gt;Node7 -->
<g id="edge6" class="edge"><title>Node1&#45;&gt;Node7</title>
<path fill="none" stroke="midnightblue" d="M326.537,-61.8765C379.529,-54.9576 510.632,-37.6602 631.311,-20.1513"/>
<polygon fill="midnightblue" stroke="midnightblue" points="632.07,-23.5777 641.462,-18.6743 631.062,-16.6507 632.07,-23.5777"/>
</g>
</g>
</svg>
