<?xml version="1.0" encoding="UTF-8" standalone="no"?>
<!DOCTYPE svg PUBLIC "-//W3C//DTD SVG 1.1//EN"
 "http://www.w3.org/Graphics/SVG/1.1/DTD/svg11.dtd">
<!-- Generated by graphviz version 2.38.0 (20140413.2041)
 -->
<!-- Title: event_tree.h Pages: 1 -->
<svg width="1205pt" height="263pt"
 viewBox="0.00 0.00 1205.09 263.00" xmlns="http://www.w3.org/2000/svg" xmlns:xlink="http://www.w3.org/1999/xlink">
<g id="graph0" class="graph" transform="scale(1 1) rotate(0) translate(4 259)">
<title>event_tree.h</title>
<polygon fill="white" stroke="none" points="-4,4 -4,-259 1201.09,-259 1201.09,4 -4,4"/>
<!-- Node1 -->
<g id="node1" class="node"><title>Node1</title>
<polygon fill="#bfbfbf" stroke="black" points="1002.5,-235.5 1002.5,-254.5 1079.5,-254.5 1079.5,-235.5 1002.5,-235.5"/>
<text text-anchor="middle" x="1041" y="-242.5" font-family="Helvetica,sans-Serif" font-size="10.00">event_tree.h</text>
</g>
<!-- Node2 -->
<g id="node2" class="node"><title>Node2</title>
<polygon fill="white" stroke="#bfbfbf" points="955.5,-67.5 955.5,-86.5 1012.5,-86.5 1012.5,-67.5 955.5,-67.5"/>
<text text-anchor="middle" x="984" y="-74.5" font-family="Helvetica,sans-Serif" font-size="10.00">memory</text>
</g>
<!-- Node1&#45;&gt;Node2 -->
<g id="edge1" class="edge"><title>Node1&#45;&gt;Node2</title>
<path fill="none" stroke="midnightblue" d="M1037.94,-235.075C1028.92,-208.832 1002.39,-131.545 990.221,-96.1165"/>
<polygon fill="midnightblue" stroke="midnightblue" points="993.5,-94.8894 986.942,-86.5681 986.879,-97.1628 993.5,-94.8894"/>
</g>
<!-- Node3 -->
<g id="node3" class="node"><title>Node3</title>
<polygon fill="white" stroke="#bfbfbf" points="564,-6 564,-25 608,-25 608,-6 564,-6"/>
<text text-anchor="middle" x="586" y="-13" font-family="Helvetica,sans-Serif" font-size="10.00">string</text>
</g>
<!-- Node1&#45;&gt;Node3 -->
<g id="edge2" class="edge"><title>Node1&#45;&gt;Node3</title>
<path fill="none" stroke="midnightblue" d="M1002.21,-243.443C949.266,-241.357 852.466,-232.757 778,-199 694.208,-161.015 624.129,-70.9541 597.498,-33.4"/>
<polygon fill="midnightblue" stroke="midnightblue" points="600.269,-31.2536 591.682,-25.0473 594.524,-35.2538 600.269,-31.2536"/>
</g>
<!-- Node4 -->
<g id="node4" class="node"><title>Node4</title>
<polygon fill="white" stroke="#bfbfbf" points="1121,-67.5 1121,-86.5 1171,-86.5 1171,-67.5 1121,-67.5"/>
<text text-anchor="middle" x="1146" y="-74.5" font-family="Helvetica,sans-Serif" font-size="10.00">variant</text>
</g>
<!-- Node1&#45;&gt;Node4 -->
<g id="edge3" class="edge"><title>Node1&#45;&gt;Node4</title>
<path fill="none" stroke="midnightblue" d="M1068.02,-235.491C1104.54,-222.334 1168.06,-193.187 1194,-143 1203.65,-124.323 1185.55,-105.236 1168.88,-92.6207"/>
<polygon fill="midnightblue" stroke="midnightblue" points="1170.64,-89.5733 1160.45,-86.6501 1166.59,-95.2858 1170.64,-89.5733"/>
</g>
<!-- Node5 -->
<g id="node5" class="node"><title>Node5</title>
<polygon fill="white" stroke="#bfbfbf" points="1042.5,-6 1042.5,-25 1089.5,-25 1089.5,-6 1042.5,-6"/>
<text text-anchor="middle" x="1066" y="-13" font-family="Helvetica,sans-Serif" font-size="10.00">vector</text>
</g>
<!-- Node1&#45;&gt;Node5 -->
<g id="edge4" class="edge"><title>Node1&#45;&gt;Node5</title>
<path fill="none" stroke="midnightblue" d="M1041.95,-235.36C1045.6,-202.138 1058.78,-82.1602 1063.93,-35.3705"/>
<polygon fill="midnightblue" stroke="midnightblue" points="1067.44,-35.4716 1065.05,-25.1491 1060.48,-34.7069 1067.44,-35.4716"/>
</g>
<!-- Node6 -->
<g id="node6" class="node"><title>Node6</title>
<g id="a_node6"><a xlink:href="element_8h.xhtml" target="_top" xlink:title="Helper classes, structs, and properties common to all other classes. ">
<polygon fill="white" stroke="black" points="471.5,-67.5 471.5,-86.5 536.5,-86.5 536.5,-67.5 471.5,-67.5"/>
<text text-anchor="middle" x="504" y="-74.5" font-family="Helvetica,sans-Serif" font-size="10.00">element.h</text>
</a>
</g>
</g>
<!-- Node1&#45;&gt;Node6 -->
<g id="edge5" class="edge"><title>Node1&#45;&gt;Node6</title>
<path fill="none" stroke="midnightblue" d="M1002.3,-242.765C892.868,-238.952 586.771,-225.965 551,-199 518.405,-174.429 508.406,-124.056 505.345,-96.6922"/>
<polygon fill="midnightblue" stroke="midnightblue" points="508.81,-96.1545 504.412,-86.5157 501.84,-96.7934 508.81,-96.1545"/>
</g>
<!-- Node12 -->
<g id="node12" class="node"><title>Node12</title>
<g id="a_node12"><a xlink:href="variant_8h.xhtml" target="_top" xlink:title="Extra helper functions for std::variant. ">
<polygon fill="white" stroke="black" points="1107.5,-123.5 1107.5,-142.5 1184.5,-142.5 1184.5,-123.5 1107.5,-123.5"/>
<text text-anchor="middle" x="1146" y="-130.5" font-family="Helvetica,sans-Serif" font-size="10.00">ext/variant.h</text>
</a>
</g>
</g>
<!-- Node1&#45;&gt;Node12 -->
<g id="edge13" class="edge"><title>Node1&#45;&gt;Node12</title>
<path fill="none" stroke="midnightblue" d="M1052.25,-235.215C1063.13,-226.502 1079.86,-212.532 1093,-199 1107.84,-183.723 1123.02,-164.687 1133.31,-151.173"/>
<polygon fill="midnightblue" stroke="midnightblue" points="1136.38,-152.911 1139.59,-142.813 1130.78,-148.707 1136.38,-152.911"/>
</g>
<!-- Node13 -->
<g id="node13" class="node"><title>Node13</title>
<g id="a_node13"><a xlink:href="instruction_8h.xhtml" target="_top" xlink:title="Model and event tree modifier instructions. ">
<polygon fill="white" stroke="black" points="787,-179.5 787,-198.5 863,-198.5 863,-179.5 787,-179.5"/>
<text text-anchor="middle" x="825" y="-186.5" font-family="Helvetica,sans-Serif" font-size="10.00">instruction.h</text>
</a>
</g>
</g>
<!-- Node1&#45;&gt;Node13 -->
<g id="edge15" class="edge"><title>Node1&#45;&gt;Node13</title>
<path fill="none" stroke="midnightblue" d="M1006.77,-235.444C969.488,-226.122 909.731,-211.183 868.989,-200.997"/>
<polygon fill="midnightblue" stroke="midnightblue" points="869.616,-197.546 859.066,-198.516 867.918,-204.337 869.616,-197.546"/>
</g>
<!-- Node6&#45;&gt;Node3 -->
<g id="edge7" class="edge"><title>Node6&#45;&gt;Node3</title>
<path fill="none" stroke="midnightblue" d="M515.749,-67.4751C528.779,-58.0199 550.036,-42.5961 565.759,-31.1871"/>
<polygon fill="midnightblue" stroke="midnightblue" points="568.235,-33.7149 574.273,-25.0091 564.124,-28.0492 568.235,-33.7149"/>
</g>
<!-- Node6&#45;&gt;Node5 -->
<g id="edge8" class="edge"><title>Node6&#45;&gt;Node5</title>
<path fill="none" stroke="midnightblue" d="M536.764,-74.6221C636.961,-70.1866 938.21,-55.1465 1033,-31 1035.3,-30.4135 1037.65,-29.682 1039.97,-28.8614"/>
<polygon fill="midnightblue" stroke="midnightblue" points="1041.28,-32.108 1049.25,-25.1299 1038.67,-25.6134 1041.28,-32.108"/>
</g>
<!-- Node7 -->
<g id="node7" class="node"><title>Node7</title>
<polygon fill="white" stroke="#bfbfbf" points="496.5,-6 496.5,-25 545.5,-25 545.5,-6 496.5,-6"/>
<text text-anchor="middle" x="521" y="-13" font-family="Helvetica,sans-Serif" font-size="10.00">cstdint</text>
</g>
<!-- Node6&#45;&gt;Node7 -->
<g id="edge6" class="edge"><title>Node6&#45;&gt;Node7</title>
<path fill="none" stroke="midnightblue" d="M506.436,-67.4751C508.859,-58.9919 512.656,-45.7043 515.765,-34.8222"/>
<polygon fill="midnightblue" stroke="midnightblue" points="519.187,-35.5859 518.569,-25.0091 512.456,-33.6628 519.187,-35.5859"/>
</g>
<!-- Node8 -->
<g id="node8" class="node"><title>Node8</title>
<polygon fill="white" stroke="#bfbfbf" points="0,-0.5 0,-30.5 140,-30.5 140,-0.5 0,-0.5"/>
<text text-anchor="start" x="8" y="-18.5" font-family="Helvetica,sans-Serif" font-size="10.00">boost/multi_index/hashed</text>
<text text-anchor="middle" x="70" y="-7.5" font-family="Helvetica,sans-Serif" font-size="10.00">_index.hpp</text>
</g>
<!-- Node6&#45;&gt;Node8 -->
<g id="edge9" class="edge"><title>Node6&#45;&gt;Node8</title>
<path fill="none" stroke="midnightblue" d="M471.123,-72.4492C410.012,-65.716 274.57,-50.1698 150.251,-31.1426"/>
<polygon fill="midnightblue" stroke="midnightblue" points="150.594,-27.6541 140.177,-29.5892 149.527,-34.5724 150.594,-27.6541"/>
</g>
<!-- Node9 -->
<g id="node9" class="node"><title>Node9</title>
<polygon fill="white" stroke="#bfbfbf" points="158,-0.5 158,-30.5 288,-30.5 288,-0.5 158,-0.5"/>
<text text-anchor="start" x="166" y="-18.5" font-family="Helvetica,sans-Serif" font-size="10.00">boost/multi_index/mem</text>
<text text-anchor="middle" x="223" y="-7.5" font-family="Helvetica,sans-Serif" font-size="10.00">_fun.hpp</text>
</g>
<!-- Node6&#45;&gt;Node9 -->
<g id="edge10" class="edge"><title>Node6&#45;&gt;Node9</title>
<path fill="none" stroke="midnightblue" d="M471.491,-69.1165C429.379,-60.1995 354.673,-44.3809 298.136,-32.4096"/>
<polygon fill="midnightblue" stroke="midnightblue" points="298.668,-28.9448 288.16,-30.2973 297.218,-35.7929 298.668,-28.9448"/>
</g>
<!-- Node10 -->
<g id="node10" class="node"><title>Node10</title>
<polygon fill="white" stroke="#bfbfbf" points="306,-6 306,-25 478,-25 478,-6 306,-6"/>
<text text-anchor="middle" x="392" y="-13" font-family="Helvetica,sans-Serif" font-size="10.00">boost/multi_index_container.hpp</text>
</g>
<!-- Node6&#45;&gt;Node10 -->
<g id="edge11" class="edge"><title>Node6&#45;&gt;Node10</title>
<path fill="none" stroke="midnightblue" d="M487.953,-67.4751C469.407,-57.6222 438.66,-41.2883 416.978,-29.7697"/>
<polygon fill="midnightblue" stroke="midnightblue" points="418.49,-26.6098 408.017,-25.0091 415.206,-32.7916 418.49,-26.6098"/>
</g>
<!-- Node11 -->
<g id="node11" class="node"><title>Node11</title>
<polygon fill="white" stroke="#bfbfbf" points="626,-6 626,-25 754,-25 754,-6 626,-6"/>
<text text-anchor="middle" x="690" y="-13" font-family="Helvetica,sans-Serif" font-size="10.00">boost/noncopyable.hpp</text>
</g>
<!-- Node6&#45;&gt;Node11 -->
<g id="edge12" class="edge"><title>Node6&#45;&gt;Node11</title>
<path fill="none" stroke="midnightblue" d="M530.649,-67.4751C562.969,-57.1362 617.597,-39.6611 653.733,-28.1017"/>
<polygon fill="midnightblue" stroke="midnightblue" points="654.942,-31.3896 663.4,-25.0091 652.809,-24.7224 654.942,-31.3896"/>
</g>
<!-- Node12&#45;&gt;Node4 -->
<g id="edge14" class="edge"><title>Node12&#45;&gt;Node4</title>
<path fill="none" stroke="midnightblue" d="M1146,-123.083C1146,-116.006 1146,-105.861 1146,-96.9865"/>
<polygon fill="midnightblue" stroke="midnightblue" points="1149.5,-96.751 1146,-86.7511 1142.5,-96.7511 1149.5,-96.751"/>
</g>
<!-- Node13&#45;&gt;Node2 -->
<g id="edge16" class="edge"><title>Node13&#45;&gt;Node2</title>
<path fill="none" stroke="midnightblue" d="M837.476,-179.368C864.645,-160.573 929.408,-115.768 962.993,-92.5334"/>
<polygon fill="midnightblue" stroke="midnightblue" points="965.349,-95.1592 971.581,-86.5914 961.366,-89.4025 965.349,-95.1592"/>
</g>
<!-- Node13&#45;&gt;Node3 -->
<g id="edge17" class="edge"><title>Node13&#45;&gt;Node3</title>
<path fill="none" stroke="midnightblue" d="M806.725,-179.481C789.307,-171.071 762.61,-157.411 741,-143 687.576,-107.372 630.477,-57.2297 602.874,-32.1176"/>
<polygon fill="midnightblue" stroke="midnightblue" points="605.029,-29.3452 595.291,-25.1715 600.301,-34.507 605.029,-29.3452"/>
</g>
<!-- Node13&#45;&gt;Node5 -->
<g id="edge18" class="edge"><title>Node13&#45;&gt;Node5</title>
<path fill="none" stroke="midnightblue" d="M851.914,-179.496C892.53,-165.574 970.137,-134.611 1021,-87 1037.17,-71.8596 1050.05,-49.7234 1057.82,-34.3087"/>
<polygon fill="midnightblue" stroke="midnightblue" points="1060.98,-35.8185 1062.17,-25.2908 1054.67,-32.778 1060.98,-35.8185"/>
</g>
<!-- Node13&#45;&gt;Node6 -->
<g id="edge20" class="edge"><title>Node13&#45;&gt;Node6</title>
<path fill="none" stroke="midnightblue" d="M786.926,-182.402C746.419,-175.748 680.881,-162.963 627,-143 590.011,-129.296 550.156,-106.622 526.147,-92.0009"/>
<polygon fill="midnightblue" stroke="midnightblue" points="527.815,-88.9175 517.467,-86.6439 524.138,-94.8744 527.815,-88.9175"/>
</g>
<!-- Node13&#45;&gt;Node11 -->
<g id="edge19" class="edge"><title>Node13&#45;&gt;Node11</title>
<path fill="none" stroke="midnightblue" d="M808.463,-179.414C794.286,-171.435 773.995,-158.472 760,-143 729.662,-109.462 707.354,-60.4707 696.801,-34.3919"/>
<polygon fill="midnightblue" stroke="midnightblue" points="700.032,-33.0454 693.118,-25.0178 693.517,-35.6052 700.032,-33.0454"/>
</g>
<!-- Node14 -->
<g id="node14" class="node"><title>Node14</title>
<g id="a_node14"><a xlink:href="event_8h.xhtml" target="_top" xlink:title="Contains event classes for fault trees. ">
<polygon fill="white" stroke="black" points="769.5,-123.5 769.5,-142.5 822.5,-142.5 822.5,-123.5 769.5,-123.5"/>
<text text-anchor="middle" x="796" y="-130.5" font-family="Helvetica,sans-Serif" font-size="10.00">event.h</text>
</a>
</g>
</g>
<!-- Node13&#45;&gt;Node14 -->
<g id="edge21" class="edge"><title>Node13&#45;&gt;Node14</title>
<path fill="none" stroke="midnightblue" d="M820.211,-179.083C816.242,-171.691 810.475,-160.953 805.565,-151.811"/>
<polygon fill="midnightblue" stroke="midnightblue" points="808.514,-149.905 800.7,-142.751 802.347,-153.217 808.514,-149.905"/>
</g>
<!-- Node16 -->
<g id="node16" class="node"><title>Node16</title>
<g id="a_node16"><a xlink:href="expression_8h.xhtml" target="_top" xlink:title="Provides the base class for all expressions and units for expression values. ">
<polygon fill="white" stroke="black" points="821.5,-67.5 821.5,-86.5 898.5,-86.5 898.5,-67.5 821.5,-67.5"/>
<text text-anchor="middle" x="860" y="-74.5" font-family="Helvetica,sans-Serif" font-size="10.00">expression.h</text>
</a>
</g>
</g>
<!-- Node13&#45;&gt;Node16 -->
<g id="edge37" class="edge"><title>Node13&#45;&gt;Node16</title>
<path fill="none" stroke="midnightblue" d="M827.746,-179.368C833.42,-161.537 846.542,-120.295 854.186,-96.2717"/>
<polygon fill="midnightblue" stroke="midnightblue" points="857.57,-97.1819 857.266,-86.5914 850.899,-95.0594 857.57,-97.1819"/>
</g>
<!-- Node14&#45;&gt;Node2 -->
<g id="edge23" class="edge"><title>Node14&#45;&gt;Node2</title>
<path fill="none" stroke="midnightblue" d="M822.537,-124.378C854.641,-115.156 908.933,-99.5618 945.602,-89.0291"/>
<polygon fill="midnightblue" stroke="midnightblue" points="946.799,-92.3269 955.444,-86.2021 944.867,-85.5989 946.799,-92.3269"/>
</g>
<!-- Node14&#45;&gt;Node3 -->
<g id="edge24" class="edge"><title>Node14&#45;&gt;Node3</title>
<path fill="none" stroke="midnightblue" d="M780.216,-123.319C743.87,-103.328 654.053,-53.9294 610.485,-29.9667"/>
<polygon fill="midnightblue" stroke="midnightblue" points="612.13,-26.8769 601.681,-25.1245 608.756,-33.0105 612.13,-26.8769"/>
</g>
<!-- Node14&#45;&gt;Node4 -->
<g id="edge26" class="edge"><title>Node14&#45;&gt;Node4</title>
<path fill="none" stroke="midnightblue" d="M822.594,-127.897C884.958,-118.275 1040.63,-94.2571 1110.76,-83.4364"/>
<polygon fill="midnightblue" stroke="midnightblue" points="1111.52,-86.862 1120.86,-81.878 1110.45,-79.9439 1111.52,-86.862"/>
</g>
<!-- Node14&#45;&gt;Node5 -->
<g id="edge27" class="edge"><title>Node14&#45;&gt;Node5</title>
<path fill="none" stroke="midnightblue" d="M818.785,-123.444C841.401,-114.793 876.94,-100.768 907,-87 924.71,-78.8883 928.319,-75.1753 946,-67 983.983,-49.4378 994.509,-47.4178 1033,-31 1034.4,-30.4016 1035.84,-29.7856 1037.29,-29.1609"/>
<polygon fill="midnightblue" stroke="midnightblue" points="1039.06,-32.2047 1046.84,-25.0045 1036.27,-25.7863 1039.06,-32.2047"/>
</g>
<!-- Node14&#45;&gt;Node6 -->
<g id="edge29" class="edge"><title>Node14&#45;&gt;Node6</title>
<path fill="none" stroke="midnightblue" d="M769.313,-127.065C718.606,-117.687 607.952,-97.224 546.781,-85.9116"/>
<polygon fill="midnightblue" stroke="midnightblue" points="547.153,-82.421 536.683,-84.0441 545.88,-89.3043 547.153,-82.421"/>
</g>
<!-- Node14&#45;&gt;Node7 -->
<g id="edge22" class="edge"><title>Node14&#45;&gt;Node7</title>
<path fill="none" stroke="midnightblue" d="M771.229,-123.388C746.627,-114.693 707.924,-100.637 675,-87 629.895,-68.3178 578.52,-44.2143 547.98,-29.5798"/>
<polygon fill="midnightblue" stroke="midnightblue" points="549.36,-26.3597 538.831,-25.1799 546.326,-32.6682 549.36,-26.3597"/>
</g>
<!-- Node14&#45;&gt;Node11 -->
<g id="edge28" class="edge"><title>Node14&#45;&gt;Node11</title>
<path fill="none" stroke="midnightblue" d="M788.033,-123.319C770.384,-104.088 727.757,-57.641 704.964,-32.8054"/>
<polygon fill="midnightblue" stroke="midnightblue" points="707.4,-30.283 698.06,-25.282 702.243,-35.0162 707.4,-30.283"/>
</g>
<!-- Node15 -->
<g id="node15" class="node"><title>Node15</title>
<polygon fill="white" stroke="#bfbfbf" points="772,-6 772,-25 814,-25 814,-6 772,-6"/>
<text text-anchor="middle" x="793" y="-13" font-family="Helvetica,sans-Serif" font-size="10.00">utility</text>
</g>
<!-- Node14&#45;&gt;Node15 -->
<g id="edge25" class="edge"><title>Node14&#45;&gt;Node15</title>
<path fill="none" stroke="midnightblue" d="M795.775,-123.319C795.292,-104.757 794.152,-60.8391 793.493,-35.4734"/>
<polygon fill="midnightblue" stroke="midnightblue" points="796.987,-35.1877 793.228,-25.282 789.989,-35.3696 796.987,-35.1877"/>
</g>
<!-- Node14&#45;&gt;Node16 -->
<g id="edge30" class="edge"><title>Node14&#45;&gt;Node16</title>
<path fill="none" stroke="midnightblue" d="M806.283,-123.324C815.836,-115.263 830.28,-103.077 841.784,-93.3695"/>
<polygon fill="midnightblue" stroke="midnightblue" points="844.144,-95.9577 849.53,-86.8339 839.63,-90.6076 844.144,-95.9577"/>
</g>
<!-- Node16&#45;&gt;Node3 -->
<g id="edge32" class="edge"><title>Node16&#45;&gt;Node3</title>
<path fill="none" stroke="midnightblue" d="M821.378,-71.923C772.81,-66.1016 687.272,-53.534 617,-31 615.327,-30.4637 613.628,-29.8578 611.93,-29.2057"/>
<polygon fill="midnightblue" stroke="midnightblue" points="612.988,-25.8514 602.418,-25.1261 610.229,-32.2846 612.988,-25.8514"/>
</g>
<!-- Node16&#45;&gt;Node5 -->
<g id="edge34" class="edge"><title>Node16&#45;&gt;Node5</title>
<path fill="none" stroke="midnightblue" d="M898.661,-67.8054C934.071,-59.8632 987.706,-46.7292 1033,-31 1034.86,-30.3533 1036.77,-29.6463 1038.67,-28.9035"/>
<polygon fill="midnightblue" stroke="midnightblue" points="1040.16,-32.0752 1048.05,-25.0058 1037.47,-25.611 1040.16,-32.0752"/>
</g>
<!-- Node16&#45;&gt;Node11 -->
<g id="edge36" class="edge"><title>Node16&#45;&gt;Node11</title>
<path fill="none" stroke="midnightblue" d="M835.643,-67.4751C806.356,-57.2246 757.026,-39.9593 723.998,-28.3994"/>
<polygon fill="midnightblue" stroke="midnightblue" points="724.907,-25.0091 714.312,-25.0091 722.594,-31.6162 724.907,-25.0091"/>
</g>
<!-- Node16&#45;&gt;Node15 -->
<g id="edge33" class="edge"><title>Node16&#45;&gt;Node15</title>
<path fill="none" stroke="midnightblue" d="M850.401,-67.4751C839.952,-58.1966 823.032,-43.1706 810.264,-31.831"/>
<polygon fill="midnightblue" stroke="midnightblue" points="812.383,-29.0323 802.582,-25.0091 807.735,-34.2663 812.383,-29.0323"/>
</g>
<!-- Node17 -->
<g id="node17" class="node"><title>Node17</title>
<polygon fill="white" stroke="#bfbfbf" points="832,-6 832,-25 894,-25 894,-6 832,-6"/>
<text text-anchor="middle" x="863" y="-13" font-family="Helvetica,sans-Serif" font-size="10.00">algorithm</text>
</g>
<!-- Node16&#45;&gt;Node17 -->
<g id="edge31" class="edge"><title>Node16&#45;&gt;Node17</title>
<path fill="none" stroke="midnightblue" d="M860.43,-67.4751C860.853,-59.0803 861.514,-45.9806 862.059,-35.1631"/>
<polygon fill="midnightblue" stroke="midnightblue" points="865.563,-35.1727 862.571,-25.0091 858.572,-34.8201 865.563,-35.1727"/>
</g>
<!-- Node18 -->
<g id="node18" class="node"><title>Node18</title>
<polygon fill="white" stroke="#bfbfbf" points="912,-0.5 912,-30.5 1024,-30.5 1024,-0.5 912,-0.5"/>
<text text-anchor="start" x="920" y="-18.5" font-family="Helvetica,sans-Serif" font-size="10.00">boost/icl/continuous</text>
<text text-anchor="middle" x="968" y="-7.5" font-family="Helvetica,sans-Serif" font-size="10.00">_interval.hpp</text>
</g>
<!-- Node16&#45;&gt;Node18 -->
<g id="edge35" class="edge"><title>Node16&#45;&gt;Node18</title>
<path fill="none" stroke="midnightblue" d="M875.474,-67.4751C890.579,-59.1531 914.077,-46.2074 933.612,-35.445"/>
<polygon fill="midnightblue" stroke="midnightblue" points="935.477,-38.414 942.547,-30.523 932.099,-32.2829 935.477,-38.414"/>
</g>
</g>
</svg>
