<?xml version="1.0" encoding="UTF-8" standalone="no"?>
<!DOCTYPE svg PUBLIC "-//W3C//DTD SVG 1.1//EN"
 "http://www.w3.org/Graphics/SVG/1.1/DTD/svg11.dtd">
<!-- Generated by graphviz version 2.38.0 (20140413.2041)
 -->
<!-- Title: event_tree_analysis.cc Pages: 1 -->
<svg width="1326pt" height="375pt"
 viewBox="0.00 0.00 1325.50 375.00" xmlns="http://www.w3.org/2000/svg" xmlns:xlink="http://www.w3.org/1999/xlink">
<g id="graph0" class="graph" transform="scale(1 1) rotate(0) translate(4 371)">
<title>event_tree_analysis.cc</title>
<polygon fill="white" stroke="none" points="-4,4 -4,-371 1321.5,-371 1321.5,4 -4,4"/>
<!-- Node1 -->
<g id="node1" class="node"><title>Node1</title>
<polygon fill="#bfbfbf" stroke="black" points="997,-347.5 997,-366.5 1122,-366.5 1122,-347.5 997,-347.5"/>
<text text-anchor="middle" x="1059.5" y="-354.5" font-family="Helvetica,sans-Serif" font-size="10.00">event_tree_analysis.cc</text>
</g>
<!-- Node2 -->
<g id="node2" class="node"><title>Node2</title>
<g id="a_node2"><a xlink:href="event__tree__analysis_8h.xhtml" target="_top" xlink:title="Event tree analysis facilities. ">
<polygon fill="white" stroke="black" points="315,-291.5 315,-310.5 436,-310.5 436,-291.5 315,-291.5"/>
<text text-anchor="middle" x="375.5" y="-298.5" font-family="Helvetica,sans-Serif" font-size="10.00">event_tree_analysis.h</text>
</a>
</g>
</g>
<!-- Node1&#45;&gt;Node2 -->
<g id="edge1" class="edge"><title>Node1&#45;&gt;Node2</title>
<path fill="none" stroke="midnightblue" d="M996.986,-351.065C869.544,-341.003 580.447,-318.18 446.311,-307.59"/>
<polygon fill="midnightblue" stroke="midnightblue" points="446.393,-304.086 436.148,-306.788 445.842,-311.064 446.393,-304.086"/>
</g>
<!-- Node25 -->
<g id="node25" class="node"><title>Node25</title>
<g id="a_node25"><a xlink:href="instruction_8h.xhtml" target="_top" xlink:title="Model and event tree modifier instructions. ">
<polygon fill="white" stroke="black" points="573.5,-179.5 573.5,-198.5 649.5,-198.5 649.5,-179.5 573.5,-179.5"/>
<text text-anchor="middle" x="611.5" y="-186.5" font-family="Helvetica,sans-Serif" font-size="10.00">instruction.h</text>
</a>
</g>
</g>
<!-- Node1&#45;&gt;Node25 -->
<g id="edge67" class="edge"><title>Node1&#45;&gt;Node25</title>
<path fill="none" stroke="midnightblue" d="M1036.36,-347.425C962.16,-319.932 730.062,-233.932 644.019,-202.05"/>
<polygon fill="midnightblue" stroke="midnightblue" points="645.098,-198.717 634.505,-198.524 642.666,-205.281 645.098,-198.717"/>
</g>
<!-- Node27 -->
<g id="node27" class="node"><title>Node27</title>
<g id="a_node27"><a xlink:href="numerical_8h.xhtml" target="_top" xlink:title="A collection of numerical expressions. ">
<polygon fill="white" stroke="black" points="1028.5,-179.5 1028.5,-198.5 1156.5,-198.5 1156.5,-179.5 1028.5,-179.5"/>
<text text-anchor="middle" x="1092.5" y="-186.5" font-family="Helvetica,sans-Serif" font-size="10.00">expression/numerical.h</text>
</a>
</g>
</g>
<!-- Node1&#45;&gt;Node27 -->
<g id="edge58" class="edge"><title>Node1&#45;&gt;Node27</title>
<path fill="none" stroke="midnightblue" d="M1061.27,-347.075C1066.47,-320.945 1081.72,-244.211 1088.81,-208.577"/>
<polygon fill="midnightblue" stroke="midnightblue" points="1092.28,-209.059 1090.8,-198.568 1085.41,-207.694 1092.28,-209.059"/>
</g>
<!-- Node31 -->
<g id="node31" class="node"><title>Node31</title>
<g id="a_node31"><a xlink:href="find__iterator_8h.xhtml" target="_top" xlink:title="Convenience iterator adaptor to wrap find calls and results. ">
<polygon fill="white" stroke="black" points="1184,-291.5 1184,-310.5 1285,-310.5 1285,-291.5 1184,-291.5"/>
<text text-anchor="middle" x="1234.5" y="-298.5" font-family="Helvetica,sans-Serif" font-size="10.00">ext/find_iterator.h</text>
</a>
</g>
</g>
<!-- Node1&#45;&gt;Node31 -->
<g id="edge65" class="edge"><title>Node1&#45;&gt;Node31</title>
<path fill="none" stroke="midnightblue" d="M1087.23,-347.444C1116.93,-338.28 1164.22,-323.688 1197.17,-313.519"/>
<polygon fill="midnightblue" stroke="midnightblue" points="1198.38,-316.809 1206.9,-310.516 1196.31,-310.121 1198.38,-316.809"/>
</g>
<!-- Node3 -->
<g id="node3" class="node"><title>Node3</title>
<polygon fill="white" stroke="#bfbfbf" points="315,-67.5 315,-86.5 372,-86.5 372,-67.5 315,-67.5"/>
<text text-anchor="middle" x="343.5" y="-74.5" font-family="Helvetica,sans-Serif" font-size="10.00">memory</text>
</g>
<!-- Node2&#45;&gt;Node3 -->
<g id="edge2" class="edge"><title>Node2&#45;&gt;Node3</title>
<path fill="none" stroke="midnightblue" d="M374.246,-291.297C369.537,-258.633 352.85,-142.866 346.233,-96.9573"/>
<polygon fill="midnightblue" stroke="midnightblue" points="349.672,-96.2821 344.781,-86.8837 342.743,-97.2808 349.672,-96.2821"/>
</g>
<!-- Node4 -->
<g id="node4" class="node"><title>Node4</title>
<polygon fill="white" stroke="#bfbfbf" points="198.5,-6 198.5,-25 242.5,-25 242.5,-6 198.5,-6"/>
<text text-anchor="middle" x="220.5" y="-13" font-family="Helvetica,sans-Serif" font-size="10.00">string</text>
</g>
<!-- Node2&#45;&gt;Node4 -->
<g id="edge3" class="edge"><title>Node2&#45;&gt;Node4</title>
<path fill="none" stroke="midnightblue" d="M314.902,-295.828C277.873,-290.744 231.139,-279.552 196.5,-255 172.163,-237.75 168.085,-227.569 159.5,-199 149.88,-166.988 192.575,-73.5042 211.674,-34.2162"/>
<polygon fill="midnightblue" stroke="midnightblue" points="214.902,-35.5827 216.174,-25.0645 208.62,-32.4936 214.902,-35.5827"/>
</g>
<!-- Node5 -->
<g id="node5" class="node"><title>Node5</title>
<polygon fill="white" stroke="#bfbfbf" points="169,-179.5 169,-198.5 262,-198.5 262,-179.5 169,-179.5"/>
<text text-anchor="middle" x="215.5" y="-186.5" font-family="Helvetica,sans-Serif" font-size="10.00">unordered_map</text>
</g>
<!-- Node2&#45;&gt;Node5 -->
<g id="edge4" class="edge"><title>Node2&#45;&gt;Node5</title>
<path fill="none" stroke="midnightblue" d="M314.856,-291.725C271.989,-284.489 219.868,-272.393 206.5,-255 196.221,-241.626 200.843,-221.979 206.567,-207.789"/>
<polygon fill="midnightblue" stroke="midnightblue" points="209.797,-209.142 210.733,-198.589 203.42,-206.254 209.797,-209.142"/>
</g>
<!-- Node6 -->
<g id="node6" class="node"><title>Node6</title>
<polygon fill="white" stroke="#bfbfbf" points="903,-6 903,-25 950,-25 950,-6 903,-6"/>
<text text-anchor="middle" x="926.5" y="-13" font-family="Helvetica,sans-Serif" font-size="10.00">vector</text>
</g>
<!-- Node2&#45;&gt;Node6 -->
<g id="edge5" class="edge"><title>Node2&#45;&gt;Node6</title>
<path fill="none" stroke="midnightblue" d="M436.169,-300.673C580.531,-300.645 932.5,-290.294 932.5,-190 932.5,-190 932.5,-190 932.5,-132 932.5,-97.8176 929.847,-58.0214 928.069,-35.1937"/>
<polygon fill="midnightblue" stroke="midnightblue" points="931.554,-34.8708 927.26,-25.1854 924.577,-35.4349 931.554,-34.8708"/>
</g>
<!-- Node7 -->
<g id="node7" class="node"><title>Node7</title>
<g id="a_node7"><a xlink:href="analysis_8h.xhtml" target="_top" xlink:title="Common facilities for all analysis classes. ">
<polygon fill="white" stroke="black" points="78.5,-123.5 78.5,-142.5 142.5,-142.5 142.5,-123.5 78.5,-123.5"/>
<text text-anchor="middle" x="110.5" y="-130.5" font-family="Helvetica,sans-Serif" font-size="10.00">analysis.h</text>
</a>
</g>
</g>
<!-- Node2&#45;&gt;Node7 -->
<g id="edge6" class="edge"><title>Node2&#45;&gt;Node7</title>
<path fill="none" stroke="midnightblue" d="M314.732,-297.049C249.478,-292.54 151.741,-281.464 126.5,-255 100.267,-227.495 102.941,-179.129 106.892,-152.639"/>
<polygon fill="midnightblue" stroke="midnightblue" points="110.347,-153.198 108.582,-142.751 103.447,-152.018 110.347,-153.198"/>
</g>
<!-- Node10 -->
<g id="node10" class="node"><title>Node10</title>
<g id="a_node10"><a xlink:href="settings_8h.xhtml" target="_top" xlink:title="Builder for settings. ">
<polygon fill="white" stroke="black" points="2.5,-67.5 2.5,-86.5 66.5,-86.5 66.5,-67.5 2.5,-67.5"/>
<text text-anchor="middle" x="34.5" y="-74.5" font-family="Helvetica,sans-Serif" font-size="10.00">settings.h</text>
</a>
</g>
</g>
<!-- Node2&#45;&gt;Node10 -->
<g id="edge57" class="edge"><title>Node2&#45;&gt;Node10</title>
<path fill="none" stroke="midnightblue" d="M314.919,-296.367C246.739,-291.151 141.442,-279.349 110.5,-255 59.5143,-214.878 42.1584,-133.916 36.7423,-97.0549"/>
<polygon fill="midnightblue" stroke="midnightblue" points="40.1594,-96.1979 35.3758,-86.7444 33.22,-97.1176 40.1594,-96.1979"/>
</g>
<!-- Node13 -->
<g id="node13" class="node"><title>Node13</title>
<g id="a_node13"><a xlink:href="event_8h.xhtml" target="_top" xlink:title="Contains event classes for fault trees. ">
<polygon fill="white" stroke="black" points="585,-123.5 585,-142.5 638,-142.5 638,-123.5 585,-123.5"/>
<text text-anchor="middle" x="611.5" y="-130.5" font-family="Helvetica,sans-Serif" font-size="10.00">event.h</text>
</a>
</g>
</g>
<!-- Node2&#45;&gt;Node13 -->
<g id="edge13" class="edge"><title>Node2&#45;&gt;Node13</title>
<path fill="none" stroke="midnightblue" d="M387.856,-291.309C426.169,-264.36 543.245,-182.01 590.947,-148.457"/>
<polygon fill="midnightblue" stroke="midnightblue" points="593.101,-151.221 599.266,-142.605 589.073,-145.496 593.101,-151.221"/>
</g>
<!-- Node20 -->
<g id="node20" class="node"><title>Node20</title>
<g id="a_node20"><a xlink:href="expression_8h.xhtml" target="_top" xlink:title="Provides the base class for all expressions and units for expression values. ">
<polygon fill="white" stroke="black" points="961,-67.5 961,-86.5 1038,-86.5 1038,-67.5 961,-67.5"/>
<text text-anchor="middle" x="999.5" y="-74.5" font-family="Helvetica,sans-Serif" font-size="10.00">expression.h</text>
</a>
</g>
</g>
<!-- Node2&#45;&gt;Node20 -->
<g id="edge52" class="edge"><title>Node2&#45;&gt;Node20</title>
<path fill="none" stroke="midnightblue" d="M436.043,-299.044C574.913,-296.315 907.453,-286.527 946.5,-255 994.918,-215.906 1000.39,-134.413 1000.2,-97.2357"/>
<polygon fill="midnightblue" stroke="midnightblue" points="1003.69,-96.7582 999.986,-86.832 996.692,-96.9017 1003.69,-96.7582"/>
</g>
<!-- Node23 -->
<g id="node23" class="node"><title>Node23</title>
<g id="a_node23"><a xlink:href="event__tree_8h.xhtml" target="_top" xlink:title="Event Tree facilities. ">
<polygon fill="white" stroke="black" points="522,-235.5 522,-254.5 599,-254.5 599,-235.5 522,-235.5"/>
<text text-anchor="middle" x="560.5" y="-242.5" font-family="Helvetica,sans-Serif" font-size="10.00">event_tree.h</text>
</a>
</g>
</g>
<!-- Node2&#45;&gt;Node23 -->
<g id="edge36" class="edge"><title>Node2&#45;&gt;Node23</title>
<path fill="none" stroke="midnightblue" d="M404.814,-291.444C436.342,-282.241 486.631,-267.562 521.486,-257.388"/>
<polygon fill="midnightblue" stroke="midnightblue" points="522.705,-260.678 531.323,-254.516 520.743,-253.959 522.705,-260.678"/>
</g>
<!-- Node26 -->
<g id="node26" class="node"><title>Node26</title>
<g id="a_node26"><a xlink:href="test__event_8h.xhtml" target="_top" xlink:title="Event tree analysis expressions to test functional and initiating events. ">
<polygon fill="white" stroke="black" points="216,-235.5 216,-254.5 347,-254.5 347,-235.5 216,-235.5"/>
<text text-anchor="middle" x="281.5" y="-242.5" font-family="Helvetica,sans-Serif" font-size="10.00">expression/test_event.h</text>
</a>
</g>
</g>
<!-- Node2&#45;&gt;Node26 -->
<g id="edge53" class="edge"><title>Node2&#45;&gt;Node26</title>
<path fill="none" stroke="midnightblue" d="M360.397,-291.324C345.597,-282.822 322.806,-269.729 305.518,-259.797"/>
<polygon fill="midnightblue" stroke="midnightblue" points="306.98,-256.601 296.565,-254.655 303.493,-262.671 306.98,-256.601"/>
</g>
<!-- Node7&#45;&gt;Node4 -->
<g id="edge8" class="edge"><title>Node7&#45;&gt;Node4</title>
<path fill="none" stroke="midnightblue" d="M118.768,-123.319C137.083,-104.088 181.318,-57.641 204.971,-32.8054"/>
<polygon fill="midnightblue" stroke="midnightblue" points="207.774,-34.9372 212.136,-25.282 202.705,-30.1096 207.774,-34.9372"/>
</g>
<!-- Node8 -->
<g id="node8" class="node"><title>Node8</title>
<polygon fill="white" stroke="#bfbfbf" points="84.5,-67.5 84.5,-86.5 136.5,-86.5 136.5,-67.5 84.5,-67.5"/>
<text text-anchor="middle" x="110.5" y="-74.5" font-family="Helvetica,sans-Serif" font-size="10.00">cassert</text>
</g>
<!-- Node7&#45;&gt;Node8 -->
<g id="edge7" class="edge"><title>Node7&#45;&gt;Node8</title>
<path fill="none" stroke="midnightblue" d="M110.5,-123.083C110.5,-116.006 110.5,-105.861 110.5,-96.9865"/>
<polygon fill="midnightblue" stroke="midnightblue" points="114,-96.751 110.5,-86.7511 107,-96.7511 114,-96.751"/>
</g>
<!-- Node9 -->
<g id="node9" class="node"><title>Node9</title>
<polygon fill="white" stroke="#bfbfbf" points="756.5,-6 756.5,-25 884.5,-25 884.5,-6 756.5,-6"/>
<text text-anchor="middle" x="820.5" y="-13" font-family="Helvetica,sans-Serif" font-size="10.00">boost/noncopyable.hpp</text>
</g>
<!-- Node7&#45;&gt;Node9 -->
<g id="edge9" class="edge"><title>Node7&#45;&gt;Node9</title>
<path fill="none" stroke="midnightblue" d="M142.678,-131.511C219.141,-129.788 417.378,-122.009 578.5,-87 605.146,-81.2103 610.45,-75.057 636.5,-67 684.085,-52.2823 739.249,-37.4318 776.673,-27.6819"/>
<polygon fill="midnightblue" stroke="midnightblue" points="777.936,-30.9702 786.736,-25.0716 776.178,-24.1945 777.936,-30.9702"/>
</g>
<!-- Node7&#45;&gt;Node10 -->
<g id="edge10" class="edge"><title>Node7&#45;&gt;Node10</title>
<path fill="none" stroke="midnightblue" d="M98.2893,-123.324C86.7241,-115.107 69.1246,-102.602 55.3393,-92.8069"/>
<polygon fill="midnightblue" stroke="midnightblue" points="57.112,-89.7729 46.9329,-86.8339 53.0575,-95.4791 57.112,-89.7729"/>
</g>
<!-- Node11 -->
<g id="node11" class="node"><title>Node11</title>
<polygon fill="white" stroke="#bfbfbf" points="131,-6 131,-25 180,-25 180,-6 131,-6"/>
<text text-anchor="middle" x="155.5" y="-13" font-family="Helvetica,sans-Serif" font-size="10.00">cstdint</text>
</g>
<!-- Node10&#45;&gt;Node11 -->
<g id="edge11" class="edge"><title>Node10&#45;&gt;Node11</title>
<path fill="none" stroke="midnightblue" d="M51.8363,-67.4751C72.053,-57.5338 105.687,-40.9947 129.142,-29.461"/>
<polygon fill="midnightblue" stroke="midnightblue" points="130.767,-32.5627 138.196,-25.0091 127.678,-26.281 130.767,-32.5627"/>
</g>
<!-- Node12 -->
<g id="node12" class="node"><title>Node12</title>
<polygon fill="white" stroke="#bfbfbf" points="0,-6 0,-25 69,-25 69,-6 0,-6"/>
<text text-anchor="middle" x="34.5" y="-13" font-family="Helvetica,sans-Serif" font-size="10.00">string_view</text>
</g>
<!-- Node10&#45;&gt;Node12 -->
<g id="edge12" class="edge"><title>Node10&#45;&gt;Node12</title>
<path fill="none" stroke="midnightblue" d="M34.5,-67.4751C34.5,-59.0803 34.5,-45.9806 34.5,-35.1631"/>
<polygon fill="midnightblue" stroke="midnightblue" points="38.0001,-35.0091 34.5,-25.0091 31.0001,-35.0091 38.0001,-35.0091"/>
</g>
<!-- Node13&#45;&gt;Node3 -->
<g id="edge15" class="edge"><title>Node13&#45;&gt;Node3</title>
<path fill="none" stroke="midnightblue" d="M584.823,-126.625C537.185,-117.026 437.322,-96.9044 382.163,-85.7904"/>
<polygon fill="midnightblue" stroke="midnightblue" points="382.576,-82.3032 372.081,-83.759 381.193,-89.1653 382.576,-82.3032"/>
</g>
<!-- Node13&#45;&gt;Node4 -->
<g id="edge16" class="edge"><title>Node13&#45;&gt;Node4</title>
<path fill="none" stroke="midnightblue" d="M588.211,-123.476C564.66,-114.737 527.297,-100.545 495.5,-87 476.109,-78.7397 472.596,-73.3552 452.5,-67 365.969,-39.6353 338.001,-58.4579 251.5,-31 249.826,-30.4686 248.125,-29.8665 246.426,-29.2172"/>
<polygon fill="midnightblue" stroke="midnightblue" points="247.483,-25.8625 236.912,-25.1451 244.728,-32.2978 247.483,-25.8625"/>
</g>
<!-- Node13&#45;&gt;Node6 -->
<g id="edge19" class="edge"><title>Node13&#45;&gt;Node6</title>
<path fill="none" stroke="midnightblue" d="M625.211,-123.379C647.664,-109.61 694.031,-82.6211 736.5,-67 803.688,-42.287 825.539,-53.4991 893.5,-31 895.371,-30.3805 897.282,-29.6939 899.193,-28.9661"/>
<polygon fill="midnightblue" stroke="midnightblue" points="900.668,-32.1441 908.585,-25.1038 898.006,-25.6702 900.668,-32.1441"/>
</g>
<!-- Node13&#45;&gt;Node9 -->
<g id="edge20" class="edge"><title>Node13&#45;&gt;Node9</title>
<path fill="none" stroke="midnightblue" d="M615.673,-123.481C622.895,-109.61 639.035,-82.1717 660.5,-67 679.084,-53.8644 734.592,-37.9497 775.025,-27.5424"/>
<polygon fill="midnightblue" stroke="midnightblue" points="776.118,-30.8758 784.948,-25.0201 774.394,-24.0915 776.118,-30.8758"/>
</g>
<!-- Node13&#45;&gt;Node11 -->
<g id="edge14" class="edge"><title>Node13&#45;&gt;Node11</title>
<path fill="none" stroke="midnightblue" d="M584.8,-124.454C525.094,-107.584 385.596,-68.1947 380.5,-67 296.397,-47.2817 272.159,-56.0908 189.5,-31 187.355,-30.3488 185.162,-29.6053 182.974,-28.8067"/>
<polygon fill="midnightblue" stroke="midnightblue" points="184.166,-25.5143 173.581,-25.0697 181.578,-32.0185 184.166,-25.5143"/>
</g>
<!-- Node14 -->
<g id="node14" class="node"><title>Node14</title>
<polygon fill="white" stroke="#bfbfbf" points="1178.5,-6 1178.5,-25 1220.5,-25 1220.5,-6 1178.5,-6"/>
<text text-anchor="middle" x="1199.5" y="-13" font-family="Helvetica,sans-Serif" font-size="10.00">utility</text>
</g>
<!-- Node13&#45;&gt;Node14 -->
<g id="edge17" class="edge"><title>Node13&#45;&gt;Node14</title>
<path fill="none" stroke="midnightblue" d="M632.25,-123.42C667.57,-109.205 741.928,-80.9535 807.5,-67 965.642,-33.3478 1013.88,-74.8536 1169.5,-31 1171.38,-30.4705 1173.28,-29.8285 1175.18,-29.113"/>
<polygon fill="midnightblue" stroke="midnightblue" points="1176.58,-32.3188 1184.34,-25.1024 1173.77,-25.9063 1176.58,-32.3188"/>
</g>
<!-- Node15 -->
<g id="node15" class="node"><title>Node15</title>
<polygon fill="white" stroke="#bfbfbf" points="816.5,-67.5 816.5,-86.5 866.5,-86.5 866.5,-67.5 816.5,-67.5"/>
<text text-anchor="middle" x="841.5" y="-74.5" font-family="Helvetica,sans-Serif" font-size="10.00">variant</text>
</g>
<!-- Node13&#45;&gt;Node15 -->
<g id="edge18" class="edge"><title>Node13&#45;&gt;Node15</title>
<path fill="none" stroke="midnightblue" d="M638.334,-125.7C679.977,-115.923 760.168,-97.0954 806.371,-86.2476"/>
<polygon fill="midnightblue" stroke="midnightblue" points="807.305,-89.6237 816.24,-83.9306 805.705,-82.809 807.305,-89.6237"/>
</g>
<!-- Node16 -->
<g id="node16" class="node"><title>Node16</title>
<g id="a_node16"><a xlink:href="element_8h.xhtml" target="_top" xlink:title="Helper classes, structs, and properties common to all other classes. ">
<polygon fill="white" stroke="black" points="505,-67.5 505,-86.5 570,-86.5 570,-67.5 505,-67.5"/>
<text text-anchor="middle" x="537.5" y="-74.5" font-family="Helvetica,sans-Serif" font-size="10.00">element.h</text>
</a>
</g>
</g>
<!-- Node13&#45;&gt;Node16 -->
<g id="edge21" class="edge"><title>Node13&#45;&gt;Node16</title>
<path fill="none" stroke="midnightblue" d="M599.611,-123.324C588.35,-115.107 571.213,-102.602 557.791,-92.8069"/>
<polygon fill="midnightblue" stroke="midnightblue" points="559.747,-89.9014 549.606,-86.8339 555.62,-95.5559 559.747,-89.9014"/>
</g>
<!-- Node13&#45;&gt;Node20 -->
<g id="edge29" class="edge"><title>Node13&#45;&gt;Node20</title>
<path fill="none" stroke="midnightblue" d="M638.169,-128.288C702.695,-119.308 868.009,-96.3003 950.769,-84.7822"/>
<polygon fill="midnightblue" stroke="midnightblue" points="951.498,-88.2145 960.92,-83.3693 950.533,-81.2813 951.498,-88.2145"/>
</g>
<!-- Node16&#45;&gt;Node4 -->
<g id="edge23" class="edge"><title>Node16&#45;&gt;Node4</title>
<path fill="none" stroke="midnightblue" d="M504.914,-69.5867C500.087,-68.687 495.168,-67.7981 490.5,-67 384.616,-48.895 354.327,-62.0779 251.5,-31 249.623,-30.4327 247.715,-29.7708 245.815,-29.048"/>
<polygon fill="midnightblue" stroke="midnightblue" points="247.133,-25.805 236.563,-25.0834 244.376,-32.2392 247.133,-25.805"/>
</g>
<!-- Node16&#45;&gt;Node6 -->
<g id="edge24" class="edge"><title>Node16&#45;&gt;Node6</title>
<path fill="none" stroke="midnightblue" d="M570.243,-73.0771C646.264,-66.0948 832.857,-47.7748 893.5,-31 895.656,-30.4036 897.854,-29.6909 900.039,-28.9062"/>
<polygon fill="midnightblue" stroke="midnightblue" points="901.41,-32.1274 909.375,-25.141 898.791,-25.6355 901.41,-32.1274"/>
</g>
<!-- Node16&#45;&gt;Node9 -->
<g id="edge28" class="edge"><title>Node16&#45;&gt;Node9</title>
<path fill="none" stroke="midnightblue" d="M570.24,-69.1165C619.24,-58.8143 712.057,-39.2998 769.847,-27.1496"/>
<polygon fill="midnightblue" stroke="midnightblue" points="770.795,-30.527 779.861,-25.0443 769.354,-23.6768 770.795,-30.527"/>
</g>
<!-- Node16&#45;&gt;Node11 -->
<g id="edge22" class="edge"><title>Node16&#45;&gt;Node11</title>
<path fill="none" stroke="midnightblue" d="M504.86,-72.2966C424.158,-63.0663 219.588,-39.1929 189.5,-31 187.201,-30.3741 184.854,-29.6247 182.521,-28.801"/>
<polygon fill="midnightblue" stroke="midnightblue" points="183.757,-25.5259 173.17,-25.1209 181.193,-32.0397 183.757,-25.5259"/>
</g>
<!-- Node17 -->
<g id="node17" class="node"><title>Node17</title>
<polygon fill="white" stroke="#bfbfbf" points="260.5,-0.5 260.5,-30.5 400.5,-30.5 400.5,-0.5 260.5,-0.5"/>
<text text-anchor="start" x="268.5" y="-18.5" font-family="Helvetica,sans-Serif" font-size="10.00">boost/multi_index/hashed</text>
<text text-anchor="middle" x="330.5" y="-7.5" font-family="Helvetica,sans-Serif" font-size="10.00">_index.hpp</text>
</g>
<!-- Node16&#45;&gt;Node17 -->
<g id="edge25" class="edge"><title>Node16&#45;&gt;Node17</title>
<path fill="none" stroke="midnightblue" d="M507.842,-67.4751C476.925,-58.5882 427.664,-44.4288 388.898,-33.2859"/>
<polygon fill="midnightblue" stroke="midnightblue" points="389.864,-29.9218 379.286,-30.523 387.93,-36.6494 389.864,-29.9218"/>
</g>
<!-- Node18 -->
<g id="node18" class="node"><title>Node18</title>
<polygon fill="white" stroke="#bfbfbf" points="418.5,-0.5 418.5,-30.5 548.5,-30.5 548.5,-0.5 418.5,-0.5"/>
<text text-anchor="start" x="426.5" y="-18.5" font-family="Helvetica,sans-Serif" font-size="10.00">boost/multi_index/mem</text>
<text text-anchor="middle" x="483.5" y="-7.5" font-family="Helvetica,sans-Serif" font-size="10.00">_fun.hpp</text>
</g>
<!-- Node16&#45;&gt;Node18 -->
<g id="edge26" class="edge"><title>Node16&#45;&gt;Node18</title>
<path fill="none" stroke="midnightblue" d="M529.763,-67.4751C522.791,-59.7932 512.244,-48.1717 502.98,-37.9643"/>
<polygon fill="midnightblue" stroke="midnightblue" points="505.539,-35.5758 496.227,-30.523 500.356,-40.2802 505.539,-35.5758"/>
</g>
<!-- Node19 -->
<g id="node19" class="node"><title>Node19</title>
<polygon fill="white" stroke="#bfbfbf" points="566.5,-6 566.5,-25 738.5,-25 738.5,-6 566.5,-6"/>
<text text-anchor="middle" x="652.5" y="-13" font-family="Helvetica,sans-Serif" font-size="10.00">boost/multi_index_container.hpp</text>
</g>
<!-- Node16&#45;&gt;Node19 -->
<g id="edge27" class="edge"><title>Node16&#45;&gt;Node19</title>
<path fill="none" stroke="midnightblue" d="M553.977,-67.4751C573.105,-57.578 604.873,-41.1416 627.152,-29.6151"/>
<polygon fill="midnightblue" stroke="midnightblue" points="628.781,-32.713 636.054,-25.0091 625.564,-26.4958 628.781,-32.713"/>
</g>
<!-- Node20&#45;&gt;Node4 -->
<g id="edge31" class="edge"><title>Node20&#45;&gt;Node4</title>
<path fill="none" stroke="midnightblue" d="M960.97,-73.0557C936.497,-71.2222 904.147,-68.8658 875.5,-67 736.896,-57.9724 386.162,-65.0365 251.5,-31 249.513,-30.4977 247.498,-29.8674 245.499,-29.1528"/>
<polygon fill="midnightblue" stroke="midnightblue" points="246.416,-25.7408 235.842,-25.0788 243.695,-32.1904 246.416,-25.7408"/>
</g>
<!-- Node20&#45;&gt;Node6 -->
<g id="edge33" class="edge"><title>Node20&#45;&gt;Node6</title>
<path fill="none" stroke="midnightblue" d="M989.041,-67.4751C977.549,-58.1082 958.87,-42.8839 944.913,-31.5081"/>
<polygon fill="midnightblue" stroke="midnightblue" points="946.902,-28.614 936.94,-25.0091 942.48,-34.04 946.902,-28.614"/>
</g>
<!-- Node20&#45;&gt;Node9 -->
<g id="edge35" class="edge"><title>Node20&#45;&gt;Node9</title>
<path fill="none" stroke="midnightblue" d="M973.854,-67.4751C942.883,-57.1804 890.627,-39.8103 855.849,-28.2502"/>
<polygon fill="midnightblue" stroke="midnightblue" points="856.692,-24.8422 846.099,-25.0091 854.484,-31.4848 856.692,-24.8422"/>
</g>
<!-- Node20&#45;&gt;Node14 -->
<g id="edge32" class="edge"><title>Node20&#45;&gt;Node14</title>
<path fill="none" stroke="midnightblue" d="M1038.3,-67.9583C1073.19,-60.2056 1125.55,-47.2675 1169.5,-31 1170.92,-30.4729 1172.37,-29.9014 1173.82,-29.3002"/>
<polygon fill="midnightblue" stroke="midnightblue" points="1175.56,-32.3555 1183.24,-25.0568 1172.69,-25.9733 1175.56,-32.3555"/>
</g>
<!-- Node21 -->
<g id="node21" class="node"><title>Node21</title>
<polygon fill="white" stroke="#bfbfbf" points="968.5,-6 968.5,-25 1030.5,-25 1030.5,-6 968.5,-6"/>
<text text-anchor="middle" x="999.5" y="-13" font-family="Helvetica,sans-Serif" font-size="10.00">algorithm</text>
</g>
<!-- Node20&#45;&gt;Node21 -->
<g id="edge30" class="edge"><title>Node20&#45;&gt;Node21</title>
<path fill="none" stroke="midnightblue" d="M999.5,-67.4751C999.5,-59.0803 999.5,-45.9806 999.5,-35.1631"/>
<polygon fill="midnightblue" stroke="midnightblue" points="1003,-35.0091 999.5,-25.0091 996,-35.0091 1003,-35.0091"/>
</g>
<!-- Node22 -->
<g id="node22" class="node"><title>Node22</title>
<polygon fill="white" stroke="#bfbfbf" points="1048.5,-0.5 1048.5,-30.5 1160.5,-30.5 1160.5,-0.5 1048.5,-0.5"/>
<text text-anchor="start" x="1056.5" y="-18.5" font-family="Helvetica,sans-Serif" font-size="10.00">boost/icl/continuous</text>
<text text-anchor="middle" x="1104.5" y="-7.5" font-family="Helvetica,sans-Serif" font-size="10.00">_interval.hpp</text>
</g>
<!-- Node20&#45;&gt;Node22 -->
<g id="edge34" class="edge"><title>Node20&#45;&gt;Node22</title>
<path fill="none" stroke="midnightblue" d="M1014.54,-67.4751C1029.16,-59.1907 1051.87,-46.3245 1070.81,-35.5913"/>
<polygon fill="midnightblue" stroke="midnightblue" points="1072.78,-38.4982 1079.75,-30.523 1069.33,-32.4081 1072.78,-38.4982"/>
</g>
<!-- Node23&#45;&gt;Node3 -->
<g id="edge37" class="edge"><title>Node23&#45;&gt;Node3</title>
<path fill="none" stroke="midnightblue" d="M549.139,-235.309C514.057,-208.472 407.154,-126.694 362.948,-92.8776"/>
<polygon fill="midnightblue" stroke="midnightblue" points="364.818,-89.9011 354.749,-86.6051 360.565,-95.4609 364.818,-89.9011"/>
</g>
<!-- Node23&#45;&gt;Node4 -->
<g id="edge38" class="edge"><title>Node23&#45;&gt;Node4</title>
<path fill="none" stroke="midnightblue" d="M543.524,-235.463C526.383,-226.714 499.261,-212.515 476.5,-199 398.383,-152.615 378.58,-140.974 305.5,-87 281.336,-69.1531 254.909,-46.7424 238.041,-32.0403"/>
<polygon fill="midnightblue" stroke="midnightblue" points="239.98,-29.0848 230.155,-25.1197 235.363,-34.3462 239.98,-29.0848"/>
</g>
<!-- Node23&#45;&gt;Node6 -->
<g id="edge40" class="edge"><title>Node23&#45;&gt;Node6</title>
<path fill="none" stroke="midnightblue" d="M599.063,-243.21C671.864,-240.948 825.804,-232.256 865.5,-199 891.186,-177.481 914.074,-77.6208 922.776,-35.4133"/>
<polygon fill="midnightblue" stroke="midnightblue" points="926.257,-35.8573 924.803,-25.3627 919.395,-34.4733 926.257,-35.8573"/>
</g>
<!-- Node23&#45;&gt;Node15 -->
<g id="edge39" class="edge"><title>Node23&#45;&gt;Node15</title>
<path fill="none" stroke="midnightblue" d="M581.606,-235.423C601.77,-226.97 632.809,-213.281 658.5,-199 720.272,-164.663 788.639,-116.533 821.587,-92.6444"/>
<polygon fill="midnightblue" stroke="midnightblue" points="823.887,-95.2996 829.906,-86.5811 819.763,-89.6427 823.887,-95.2996"/>
</g>
<!-- Node23&#45;&gt;Node16 -->
<g id="edge41" class="edge"><title>Node23&#45;&gt;Node16</title>
<path fill="none" stroke="midnightblue" d="M559.263,-235.075C555.643,-208.945 545.011,-132.211 540.074,-96.577"/>
<polygon fill="midnightblue" stroke="midnightblue" points="543.527,-95.9931 538.687,-86.5681 536.593,-96.9539 543.527,-95.9931"/>
</g>
<!-- Node24 -->
<g id="node24" class="node"><title>Node24</title>
<g id="a_node24"><a xlink:href="variant_8h.xhtml" target="_top" xlink:title="Extra helper functions for std::variant. ">
<polygon fill="white" stroke="black" points="780,-179.5 780,-198.5 857,-198.5 857,-179.5 780,-179.5"/>
<text text-anchor="middle" x="818.5" y="-186.5" font-family="Helvetica,sans-Serif" font-size="10.00">ext/variant.h</text>
</a>
</g>
</g>
<!-- Node23&#45;&gt;Node24 -->
<g id="edge42" class="edge"><title>Node23&#45;&gt;Node24</title>
<path fill="none" stroke="midnightblue" d="M599.125,-235.916C644.629,-226.392 720.281,-210.557 769.773,-200.199"/>
<polygon fill="midnightblue" stroke="midnightblue" points="770.54,-203.614 779.611,-198.14 769.106,-196.763 770.54,-203.614"/>
</g>
<!-- Node23&#45;&gt;Node25 -->
<g id="edge44" class="edge"><title>Node23&#45;&gt;Node25</title>
<path fill="none" stroke="midnightblue" d="M568.922,-235.083C576.348,-227.22 587.352,-215.569 596.312,-206.081"/>
<polygon fill="midnightblue" stroke="midnightblue" points="598.913,-208.424 603.235,-198.751 593.824,-203.618 598.913,-208.424"/>
</g>
<!-- Node24&#45;&gt;Node15 -->
<g id="edge43" class="edge"><title>Node24&#45;&gt;Node15</title>
<path fill="none" stroke="midnightblue" d="M820.305,-179.368C824.016,-161.617 832.579,-120.666 837.611,-96.5974"/>
<polygon fill="midnightblue" stroke="midnightblue" points="841.083,-97.0961 839.704,-86.5914 834.231,-95.6634 841.083,-97.0961"/>
</g>
<!-- Node25&#45;&gt;Node3 -->
<g id="edge45" class="edge"><title>Node25&#45;&gt;Node3</title>
<path fill="none" stroke="midnightblue" d="M590.47,-179.368C543.307,-160.01 428.93,-113.065 373.972,-90.5074"/>
<polygon fill="midnightblue" stroke="midnightblue" points="375.012,-87.1507 364.432,-86.5914 372.354,-93.6264 375.012,-87.1507"/>
</g>
<!-- Node25&#45;&gt;Node4 -->
<g id="edge46" class="edge"><title>Node25&#45;&gt;Node4</title>
<path fill="none" stroke="midnightblue" d="M596.044,-179.441C573.265,-166.869 529.292,-142.763 491.5,-123 442.535,-97.3941 432.023,-86.9658 380.5,-67 324.998,-45.4921 307.316,-51.6804 251.5,-31 250.072,-30.471 248.62,-29.9027 247.162,-29.3081"/>
<polygon fill="midnightblue" stroke="midnightblue" points="248.228,-25.9539 237.664,-25.144 245.417,-32.3648 248.228,-25.9539"/>
</g>
<!-- Node25&#45;&gt;Node6 -->
<g id="edge47" class="edge"><title>Node25&#45;&gt;Node6</title>
<path fill="none" stroke="midnightblue" d="M623.94,-179.36C654.36,-158.45 735.299,-104.109 807.5,-67 844.353,-48.0586 855.42,-47.3349 893.5,-31 894.866,-30.4141 896.262,-29.8121 897.672,-29.2021"/>
<polygon fill="midnightblue" stroke="midnightblue" points="899.213,-32.3486 906.981,-25.1442 896.415,-25.9317 899.213,-32.3486"/>
</g>
<!-- Node25&#45;&gt;Node9 -->
<g id="edge48" class="edge"><title>Node25&#45;&gt;Node9</title>
<path fill="none" stroke="midnightblue" d="M619.103,-179.393C637.77,-158.554 687.884,-104.36 736.5,-67 754.942,-52.8278 777.638,-39.3928 794.787,-29.9481"/>
<polygon fill="midnightblue" stroke="midnightblue" points="796.554,-32.9713 803.682,-25.1322 793.221,-26.8157 796.554,-32.9713"/>
</g>
<!-- Node25&#45;&gt;Node13 -->
<g id="edge50" class="edge"><title>Node25&#45;&gt;Node13</title>
<path fill="none" stroke="midnightblue" d="M611.5,-179.083C611.5,-172.006 611.5,-161.861 611.5,-152.986"/>
<polygon fill="midnightblue" stroke="midnightblue" points="615,-152.751 611.5,-142.751 608,-152.751 615,-152.751"/>
</g>
<!-- Node25&#45;&gt;Node16 -->
<g id="edge49" class="edge"><title>Node25&#45;&gt;Node16</title>
<path fill="none" stroke="midnightblue" d="M603.933,-179.328C596.36,-170.474 584.564,-156.195 575.5,-143 564.884,-127.545 554.235,-109.003 546.922,-95.6852"/>
<polygon fill="midnightblue" stroke="midnightblue" points="549.874,-93.7859 542.036,-86.6569 543.718,-97.1175 549.874,-93.7859"/>
</g>
<!-- Node25&#45;&gt;Node20 -->
<g id="edge51" class="edge"><title>Node25&#45;&gt;Node20</title>
<path fill="none" stroke="midnightblue" d="M634.444,-179.457C670.371,-166.265 742.244,-140.621 804.5,-123 853.859,-109.029 911.147,-96.2049 950.8,-87.8519"/>
<polygon fill="midnightblue" stroke="midnightblue" points="951.665,-91.2468 960.737,-85.7744 950.232,-84.3949 951.665,-91.2468"/>
</g>
<!-- Node26&#45;&gt;Node4 -->
<g id="edge54" class="edge"><title>Node26&#45;&gt;Node4</title>
<path fill="none" stroke="midnightblue" d="M280.369,-235.095C278.685,-222.504 275.205,-198.822 270.5,-179 257.871,-125.798 237.337,-64.5012 226.952,-34.6839"/>
<polygon fill="midnightblue" stroke="midnightblue" points="230.236,-33.4706 223.619,-25.1961 223.631,-35.7909 230.236,-33.4706"/>
</g>
<!-- Node26&#45;&gt;Node5 -->
<g id="edge55" class="edge"><title>Node26&#45;&gt;Node5</title>
<path fill="none" stroke="midnightblue" d="M270.896,-235.324C261.044,-227.263 246.149,-215.077 234.285,-205.369"/>
<polygon fill="midnightblue" stroke="midnightblue" points="236.253,-202.457 226.297,-198.834 231.82,-207.875 236.253,-202.457"/>
</g>
<!-- Node26&#45;&gt;Node20 -->
<g id="edge56" class="edge"><title>Node26&#45;&gt;Node20</title>
<path fill="none" stroke="midnightblue" d="M347.311,-240.583C423.158,-235.625 551.156,-224.121 658.5,-199 777.899,-171.057 913.482,-115.374 971.143,-90.5026"/>
<polygon fill="midnightblue" stroke="midnightblue" points="972.57,-93.6988 980.35,-86.5068 969.783,-87.2775 972.57,-93.6988"/>
</g>
<!-- Node27&#45;&gt;Node6 -->
<g id="edge61" class="edge"><title>Node27&#45;&gt;Node6</title>
<path fill="none" stroke="midnightblue" d="M1086.31,-179.443C1080.23,-170.679 1071.08,-156.468 1065.5,-143 1052.18,-110.833 1069.24,-93.3651 1046.5,-67 1019.17,-35.3123 997.991,-47.4178 959.5,-31 958.097,-30.4016 956.662,-29.7856 955.214,-29.1609"/>
<polygon fill="midnightblue" stroke="midnightblue" points="956.23,-25.7863 945.664,-25.0045 953.437,-32.2047 956.23,-25.7863"/>
</g>
<!-- Node27&#45;&gt;Node20 -->
<g id="edge64" class="edge"><title>Node27&#45;&gt;Node20</title>
<path fill="none" stroke="midnightblue" d="M1077.4,-179.417C1064.24,-171.35 1045.31,-158.256 1032.5,-143 1020.7,-128.944 1011.68,-109.952 1006.07,-96.1286"/>
<polygon fill="midnightblue" stroke="midnightblue" points="1009.32,-94.8133 1002.46,-86.7322 1002.78,-97.3223 1009.32,-94.8133"/>
</g>
<!-- Node28 -->
<g id="node28" class="node"><title>Node28</title>
<polygon fill="white" stroke="#bfbfbf" points="1075,-123.5 1075,-142.5 1122,-142.5 1122,-123.5 1075,-123.5"/>
<text text-anchor="middle" x="1098.5" y="-130.5" font-family="Helvetica,sans-Serif" font-size="10.00">cmath</text>
</g>
<!-- Node27&#45;&gt;Node28 -->
<g id="edge59" class="edge"><title>Node27&#45;&gt;Node28</title>
<path fill="none" stroke="midnightblue" d="M1093.49,-179.083C1094.29,-171.927 1095.43,-161.635 1096.42,-152.691"/>
<polygon fill="midnightblue" stroke="midnightblue" points="1099.9,-153.076 1097.53,-142.751 1092.94,-152.303 1099.9,-153.076"/>
</g>
<!-- Node29 -->
<g id="node29" class="node"><title>Node29</title>
<polygon fill="white" stroke="#bfbfbf" points="1140,-123.5 1140,-142.5 1203,-142.5 1203,-123.5 1140,-123.5"/>
<text text-anchor="middle" x="1171.5" y="-130.5" font-family="Helvetica,sans-Serif" font-size="10.00">functional</text>
</g>
<!-- Node27&#45;&gt;Node29 -->
<g id="edge60" class="edge"><title>Node27&#45;&gt;Node29</title>
<path fill="none" stroke="midnightblue" d="M1105.19,-179.324C1117.4,-170.979 1136.08,-158.212 1150.5,-148.352"/>
<polygon fill="midnightblue" stroke="midnightblue" points="1152.56,-151.187 1158.84,-142.655 1148.61,-145.408 1152.56,-151.187"/>
</g>
<!-- Node30 -->
<g id="node30" class="node"><title>Node30</title>
<g id="a_node30"><a xlink:href="constant_8h.xhtml" target="_top" xlink:title="Constant expressions that cannot have uncertainties. ">
<polygon fill="white" stroke="black" points="1221.5,-123.5 1221.5,-142.5 1289.5,-142.5 1289.5,-123.5 1221.5,-123.5"/>
<text text-anchor="middle" x="1255.5" y="-130.5" font-family="Helvetica,sans-Serif" font-size="10.00">constant.h</text>
</a>
</g>
</g>
<!-- Node27&#45;&gt;Node30 -->
<g id="edge62" class="edge"><title>Node27&#45;&gt;Node30</title>
<path fill="none" stroke="midnightblue" d="M1118.33,-179.444C1145.75,-170.359 1189.28,-155.939 1219.93,-145.783"/>
<polygon fill="midnightblue" stroke="midnightblue" points="1221.4,-148.984 1229.79,-142.516 1219.2,-142.339 1221.4,-148.984"/>
</g>
<!-- Node30&#45;&gt;Node20 -->
<g id="edge63" class="edge"><title>Node30&#45;&gt;Node20</title>
<path fill="none" stroke="midnightblue" d="M1221.24,-124.773C1176.76,-115.39 1098.83,-98.9528 1048.21,-88.2745"/>
<polygon fill="midnightblue" stroke="midnightblue" points="1048.66,-84.7931 1038.15,-86.1537 1047.22,-91.6424 1048.66,-84.7931"/>
</g>
<!-- Node31&#45;&gt;Node14 -->
<g id="edge66" class="edge"><title>Node31&#45;&gt;Node14</title>
<path fill="none" stroke="midnightblue" d="M1247.47,-291.425C1270.81,-274.842 1317.5,-235.934 1317.5,-190 1317.5,-190 1317.5,-190 1317.5,-132 1317.5,-82.6074 1264.05,-47.3811 1229.09,-29.6265"/>
<polygon fill="midnightblue" stroke="midnightblue" points="1230.31,-26.3244 1219.78,-25.0849 1227.24,-32.6155 1230.31,-26.3244"/>
</g>
</g>
</svg>
