<?xml version="1.0" encoding="UTF-8" standalone="no"?>
<!DOCTYPE svg PUBLIC "-//W3C//DTD SVG 1.1//EN"
 "http://www.w3.org/Graphics/SVG/1.1/DTD/svg11.dtd">
<!-- Generated by graphviz version 2.38.0 (20140413.2041)
 -->
<!-- Title: event.h Pages: 1 -->
<!--zoomable 151 -->
<svg id="main" version="1.1" xmlns="http://www.w3.org/2000/svg" xmlns:xlink="http://www.w3.org/1999/xlink" xml:space="preserve" onload="init(evt)">
<style type="text/css"><![CDATA[
.edge:hover path { stroke: red; }
.edge:hover polygon { stroke: red; fill: red; }
]]></style>
<script type="text/javascript"><![CDATA[
var edges = document.getElementsByTagName('g');
if (edges && edges.length) {
  for (var i=0;i<edges.length;i++) {
    if (edges[i].id.substr(0,4)=='edge') {
      edges[i].setAttribute('class','edge');
    }
  }
}
]]></script>
        <defs>
                <circle id="rim" cx="0" cy="0" r="7"/>
                <circle id="rim2" cx="0" cy="0" r="3.5"/>
                <g id="zoomPlus">
                        <use xlink:href="#rim" fill="#404040">
                                <set attributeName="fill" to="#808080" begin="zoomplus.mouseover" end="zoomplus.mouseout"/>
                        </use>
                        <path d="M-4,0h8M0,-4v8" fill="none" stroke="white" stroke-width="1.5" pointer-events="none"/>
                </g>
                <g id="zoomMin">
                        <use xlink:href="#rim" fill="#404040">
                                <set attributeName="fill" to="#808080" begin="zoomminus.mouseover" end="zoomminus.mouseout"/>
                        </use>
                        <path d="M-4,0h8" fill="none" stroke="white" stroke-width="1.5" pointer-events="none"/>
                </g>
                <g id="dirArrow">
                        <path fill="none" stroke="white" stroke-width="1.5" d="M0,-3.0v7 M-2.5,-0.5L0,-3.0L2.5,-0.5"/>
                </g>
               <g id="resetDef">
                       <use xlink:href="#rim2" fill="#404040">
                               <set attributeName="fill" to="#808080" begin="reset.mouseover" end="reset.mouseout"/>
                       </use>
               </g>
        </defs>

<script type="text/javascript">
var viewWidth = 1098;
var viewHeight = 151;
var sectionId = 'dynsection-0';
</script>
<script xlink:href="svgpan.js"/>
<svg id="graph" class="graph">
<g id="viewport">
<title>event.h</title>
<polygon fill="white" stroke="none" points="-4,4 -4,-147 1093.5,-147 1093.5,4 -4,4"/>
<!-- Node1 -->
<g id="node1" class="node"><title>Node1</title>
<polygon fill="#bfbfbf" stroke="black" points="391.5,-123.5 391.5,-142.5 444.5,-142.5 444.5,-123.5 391.5,-123.5"/>
<text text-anchor="middle" x="418" y="-130.5" font-family="Helvetica,sans-Serif" font-size="10.00">event.h</text>
</g>
<!-- Node2 -->
<g id="node2" class="node"><title>Node2</title>
<polygon fill="white" stroke="#bfbfbf" points="1040.5,-6 1040.5,-25 1089.5,-25 1089.5,-6 1040.5,-6"/>
<text text-anchor="middle" x="1065" y="-13" font-family="Helvetica,sans-Serif" font-size="10.00">cstdint</text>
</g>
<!-- Node1&#45;&gt;Node2 -->
<g id="edge1" class="edge"><title>Node1&#45;&gt;Node2</title>
<path fill="none" stroke="midnightblue" d="M438.064,-123.487C458.727,-114.641 491.801,-100.261 520,-87 537.987,-78.5417 540.844,-72.3009 560,-67 762.34,-11.0082 827.059,-80.8431 1031,-31 1033.51,-30.3868 1036.07,-29.608 1038.6,-28.7308"/>
<polygon fill="midnightblue" stroke="midnightblue" points="1040.05,-31.9211 1048.08,-25.0023 1037.49,-25.4073 1040.05,-31.9211"/>
</g>
<!-- Node3 -->
<g id="node3" class="node"><title>Node3</title>
<polygon fill="white" stroke="#bfbfbf" points="568.5,-67.5 568.5,-86.5 625.5,-86.5 625.5,-67.5 568.5,-67.5"/>
<text text-anchor="middle" x="597" y="-74.5" font-family="Helvetica,sans-Serif" font-size="10.00">memory</text>
</g>
<!-- Node1&#45;&gt;Node3 -->
<g id="edge2" class="edge"><title>Node1&#45;&gt;Node3</title>
<path fill="none" stroke="midnightblue" d="M444.798,-123.916C475.068,-114.784 524.567,-99.8514 558.859,-89.5061"/>
<polygon fill="midnightblue" stroke="midnightblue" points="559.974,-92.8256 568.537,-86.5865 557.953,-86.124 559.974,-92.8256"/>
</g>
<!-- Node4 -->
<g id="node4" class="node"><title>Node4</title>
<polygon fill="white" stroke="#bfbfbf" points="270,-6 270,-25 314,-25 314,-6 270,-6"/>
<text text-anchor="middle" x="292" y="-13" font-family="Helvetica,sans-Serif" font-size="10.00">string</text>
</g>
<!-- Node1&#45;&gt;Node4 -->
<g id="edge3" class="edge"><title>Node1&#45;&gt;Node4</title>
<path fill="none" stroke="midnightblue" d="M408.53,-123.319C387.368,-103.921 335.998,-56.8311 309.086,-32.1625"/>
<polygon fill="midnightblue" stroke="midnightblue" points="311.317,-29.4592 301.58,-25.282 306.587,-34.6193 311.317,-29.4592"/>
</g>
<!-- Node5 -->
<g id="node5" class="node"><title>Node5</title>
<polygon fill="white" stroke="#bfbfbf" points="0,-6 0,-25 42,-25 42,-6 0,-6"/>
<text text-anchor="middle" x="21" y="-13" font-family="Helvetica,sans-Serif" font-size="10.00">utility</text>
</g>
<!-- Node1&#45;&gt;Node5 -->
<g id="edge4" class="edge"><title>Node1&#45;&gt;Node5</title>
<path fill="none" stroke="midnightblue" d="M391.087,-126.732C329.491,-114.218 174.089,-80.0405 51,-31 49.6229,-30.4513 48.2209,-29.8673 46.8128,-29.2603"/>
<polygon fill="midnightblue" stroke="midnightblue" points="48.1799,-26.0369 37.6305,-25.0567 45.2662,-32.4016 48.1799,-26.0369"/>
</g>
<!-- Node6 -->
<g id="node6" class="node"><title>Node6</title>
<polygon fill="white" stroke="#bfbfbf" points="644,-67.5 644,-86.5 694,-86.5 694,-67.5 644,-67.5"/>
<text text-anchor="middle" x="669" y="-74.5" font-family="Helvetica,sans-Serif" font-size="10.00">variant</text>
</g>
<!-- Node1&#45;&gt;Node6 -->
<g id="edge5" class="edge"><title>Node1&#45;&gt;Node6</title>
<path fill="none" stroke="midnightblue" d="M444.829,-126.923C484.154,-119.376 559.964,-104.432 633.85,-87.1748"/>
<polygon fill="midnightblue" stroke="midnightblue" points="634.855,-90.5342 643.787,-84.8369 633.251,-83.7203 634.855,-90.5342"/>
</g>
<!-- Node7 -->
<g id="node7" class="node"><title>Node7</title>
<polygon fill="white" stroke="#bfbfbf" points="332.5,-6 332.5,-25 379.5,-25 379.5,-6 332.5,-6"/>
<text text-anchor="middle" x="356" y="-13" font-family="Helvetica,sans-Serif" font-size="10.00">vector</text>
</g>
<!-- Node1&#45;&gt;Node7 -->
<g id="edge6" class="edge"><title>Node1&#45;&gt;Node7</title>
<path fill="none" stroke="midnightblue" d="M413.34,-123.319C403.196,-104.422 378.947,-59.2483 365.459,-34.1206"/>
<polygon fill="midnightblue" stroke="midnightblue" points="368.528,-32.4375 360.714,-25.282 362.36,-35.7482 368.528,-32.4375"/>
</g>
<!-- Node8 -->
<g id="node8" class="node"><title>Node8</title>
<polygon fill="white" stroke="#bfbfbf" points="398,-6 398,-25 526,-25 526,-6 398,-6"/>
<text text-anchor="middle" x="462" y="-13" font-family="Helvetica,sans-Serif" font-size="10.00">boost/noncopyable.hpp</text>
</g>
<!-- Node1&#45;&gt;Node8 -->
<g id="edge7" class="edge"><title>Node1&#45;&gt;Node8</title>
<path fill="none" stroke="midnightblue" d="M419.995,-123.428C423.039,-110.841 429.307,-86.7148 437,-67 441.381,-55.7717 447.336,-43.6545 452.335,-34.1045"/>
<polygon fill="midnightblue" stroke="midnightblue" points="455.454,-35.6941 457.092,-25.2267 449.284,-32.3879 455.454,-35.6941"/>
</g>
<!-- Node9 -->
<g id="node9" class="node"><title>Node9</title>
<g id="a_node9"><a xlink:href="element_8h.xhtml" target="_top" xlink:title="Helper classes, structs, and properties common to all other classes. ">
<polygon fill="white" stroke="black" points="446.5,-67.5 446.5,-86.5 511.5,-86.5 511.5,-67.5 446.5,-67.5"/>
<text text-anchor="middle" x="479" y="-74.5" font-family="Helvetica,sans-Serif" font-size="10.00">element.h</text>
</a>
</g>
</g>
<!-- Node1&#45;&gt;Node9 -->
<g id="edge8" class="edge"><title>Node1&#45;&gt;Node9</title>
<path fill="none" stroke="midnightblue" d="M427.801,-123.324C436.818,-115.341 450.406,-103.313 461.318,-93.6529"/>
<polygon fill="midnightblue" stroke="midnightblue" points="463.853,-96.083 469.021,-86.8339 459.213,-90.8416 463.853,-96.083"/>
</g>
<!-- Node13 -->
<g id="node13" class="node"><title>Node13</title>
<g id="a_node13"><a xlink:href="expression_8h.xhtml" target="_top" xlink:title="Provides the base class for all expressions and units for expression values. ">
<polygon fill="white" stroke="black" points="236.5,-67.5 236.5,-86.5 313.5,-86.5 313.5,-67.5 236.5,-67.5"/>
<text text-anchor="middle" x="275" y="-74.5" font-family="Helvetica,sans-Serif" font-size="10.00">expression.h</text>
</a>
</g>
</g>
<!-- Node1&#45;&gt;Node13 -->
<g id="edge16" class="edge"><title>Node1&#45;&gt;Node13</title>
<path fill="none" stroke="midnightblue" d="M395.341,-123.444C371.598,-114.478 334.091,-100.314 307.262,-90.1827"/>
<polygon fill="midnightblue" stroke="midnightblue" points="308.144,-86.7749 297.553,-86.5164 305.671,-93.3235 308.144,-86.7749"/>
</g>
<!-- Node9&#45;&gt;Node2 -->
<g id="edge9" class="edge"><title>Node9&#45;&gt;Node2</title>
<path fill="none" stroke="midnightblue" d="M511.536,-69.2543C516.37,-68.4019 521.305,-67.6147 526,-67 749.11,-37.7897 812.283,-83.8614 1031,-31 1033.51,-30.3932 1036.07,-29.6188 1038.61,-28.7444"/>
<polygon fill="midnightblue" stroke="midnightblue" points="1040.06,-31.9356 1048.08,-25.0203 1037.5,-25.4207 1040.06,-31.9356"/>
</g>
<!-- Node9&#45;&gt;Node4 -->
<g id="edge10" class="edge"><title>Node9&#45;&gt;Node4</title>
<path fill="none" stroke="midnightblue" d="M446.25,-68.1476C414.346,-60.127 364.694,-46.6546 323,-31 321.575,-30.4648 320.124,-29.8915 318.667,-29.2931"/>
<polygon fill="midnightblue" stroke="midnightblue" points="319.737,-25.9399 309.174,-25.1165 316.918,-32.3472 319.737,-25.9399"/>
</g>
<!-- Node9&#45;&gt;Node7 -->
<g id="edge11" class="edge"><title>Node9&#45;&gt;Node7</title>
<path fill="none" stroke="midnightblue" d="M461.377,-67.4751C440.826,-57.5338 406.636,-40.9947 382.793,-29.461"/>
<polygon fill="midnightblue" stroke="midnightblue" points="384.116,-26.2131 373.59,-25.0091 381.068,-32.5145 384.116,-26.2131"/>
</g>
<!-- Node9&#45;&gt;Node8 -->
<g id="edge15" class="edge"><title>Node9&#45;&gt;Node8</title>
<path fill="none" stroke="midnightblue" d="M476.564,-67.4751C474.141,-58.9919 470.344,-45.7043 467.235,-34.8222"/>
<polygon fill="midnightblue" stroke="midnightblue" points="470.544,-33.6628 464.431,-25.0091 463.813,-35.5859 470.544,-33.6628"/>
</g>
<!-- Node10 -->
<g id="node10" class="node"><title>Node10</title>
<polygon fill="white" stroke="#bfbfbf" points="544,-0.5 544,-30.5 684,-30.5 684,-0.5 544,-0.5"/>
<text text-anchor="start" x="552" y="-18.5" font-family="Helvetica,sans-Serif" font-size="10.00">boost/multi_index/hashed</text>
<text text-anchor="middle" x="614" y="-7.5" font-family="Helvetica,sans-Serif" font-size="10.00">_index.hpp</text>
</g>
<!-- Node9&#45;&gt;Node10 -->
<g id="edge12" class="edge"><title>Node9&#45;&gt;Node10</title>
<path fill="none" stroke="midnightblue" d="M498.342,-67.4751C517.737,-58.9271 548.199,-45.5011 572.993,-34.5734"/>
<polygon fill="midnightblue" stroke="midnightblue" points="574.444,-37.7588 582.183,-30.523 571.621,-31.3534 574.444,-37.7588"/>
</g>
<!-- Node11 -->
<g id="node11" class="node"><title>Node11</title>
<polygon fill="white" stroke="#bfbfbf" points="702,-0.5 702,-30.5 832,-30.5 832,-0.5 702,-0.5"/>
<text text-anchor="start" x="710" y="-18.5" font-family="Helvetica,sans-Serif" font-size="10.00">boost/multi_index/mem</text>
<text text-anchor="middle" x="767" y="-7.5" font-family="Helvetica,sans-Serif" font-size="10.00">_fun.hpp</text>
</g>
<!-- Node9&#45;&gt;Node11 -->
<g id="edge13" class="edge"><title>Node9&#45;&gt;Node11</title>
<path fill="none" stroke="midnightblue" d="M511.757,-69.2325C555.309,-60.2347 633.575,-44.0653 691.997,-31.9954"/>
<polygon fill="midnightblue" stroke="midnightblue" points="692.842,-35.3948 701.927,-29.9439 691.426,-28.5396 692.842,-35.3948"/>
</g>
<!-- Node12 -->
<g id="node12" class="node"><title>Node12</title>
<polygon fill="white" stroke="#bfbfbf" points="850,-6 850,-25 1022,-25 1022,-6 850,-6"/>
<text text-anchor="middle" x="936" y="-13" font-family="Helvetica,sans-Serif" font-size="10.00">boost/multi_index_container.hpp</text>
</g>
<!-- Node9&#45;&gt;Node12 -->
<g id="edge14" class="edge"><title>Node9&#45;&gt;Node12</title>
<path fill="none" stroke="midnightblue" d="M511.561,-69.4354C516.392,-68.5573 521.319,-67.7147 526,-67 665.297,-45.7341 701.326,-49.6339 841,-31 851.151,-29.6457 861.896,-28.1072 872.367,-26.5508"/>
<polygon fill="midnightblue" stroke="midnightblue" points="872.924,-30.0063 882.293,-25.0584 871.883,-23.0841 872.924,-30.0063"/>
</g>
<!-- Node13&#45;&gt;Node4 -->
<g id="edge18" class="edge"><title>Node13&#45;&gt;Node4</title>
<path fill="none" stroke="midnightblue" d="M277.436,-67.4751C279.859,-58.9919 283.656,-45.7043 286.765,-34.8222"/>
<polygon fill="midnightblue" stroke="midnightblue" points="290.187,-35.5859 289.569,-25.0091 283.456,-33.6628 290.187,-35.5859"/>
</g>
<!-- Node13&#45;&gt;Node5 -->
<g id="edge19" class="edge"><title>Node13&#45;&gt;Node5</title>
<path fill="none" stroke="midnightblue" d="M236.183,-71.2295C190.896,-64.9757 114.166,-52.2303 51,-31 49.379,-30.4552 47.7323,-29.8428 46.0875,-29.1858"/>
<polygon fill="midnightblue" stroke="midnightblue" points="47.4389,-25.9564 36.8793,-25.0935 44.5961,-32.3531 47.4389,-25.9564"/>
</g>
<!-- Node13&#45;&gt;Node7 -->
<g id="edge20" class="edge"><title>Node13&#45;&gt;Node7</title>
<path fill="none" stroke="midnightblue" d="M286.605,-67.4751C299.477,-58.0199 320.474,-42.5961 336.006,-31.1871"/>
<polygon fill="midnightblue" stroke="midnightblue" points="338.429,-33.75 344.416,-25.0091 334.285,-28.1085 338.429,-33.75"/>
</g>
<!-- Node13&#45;&gt;Node8 -->
<g id="edge22" class="edge"><title>Node13&#45;&gt;Node8</title>
<path fill="none" stroke="midnightblue" d="M301.793,-67.4751C334.286,-57.1362 389.208,-39.6611 425.538,-28.1017"/>
<polygon fill="midnightblue" stroke="midnightblue" points="426.789,-31.3764 435.257,-25.0091 424.667,-24.7059 426.789,-31.3764"/>
</g>
<!-- Node14 -->
<g id="node14" class="node"><title>Node14</title>
<polygon fill="white" stroke="#bfbfbf" points="60,-6 60,-25 122,-25 122,-6 60,-6"/>
<text text-anchor="middle" x="91" y="-13" font-family="Helvetica,sans-Serif" font-size="10.00">algorithm</text>
</g>
<!-- Node13&#45;&gt;Node14 -->
<g id="edge17" class="edge"><title>Node13&#45;&gt;Node14</title>
<path fill="none" stroke="midnightblue" d="M246.463,-67.4947C217.322,-58.7129 170.834,-44.4363 131,-31 128.612,-30.1943 126.149,-29.3458 123.675,-28.4802"/>
<polygon fill="midnightblue" stroke="midnightblue" points="124.799,-25.1654 114.205,-25.1111 122.453,-31.7605 124.799,-25.1654"/>
</g>
<!-- Node15 -->
<g id="node15" class="node"><title>Node15</title>
<polygon fill="white" stroke="#bfbfbf" points="140,-0.5 140,-30.5 252,-30.5 252,-0.5 140,-0.5"/>
<text text-anchor="start" x="148" y="-18.5" font-family="Helvetica,sans-Serif" font-size="10.00">boost/icl/continuous</text>
<text text-anchor="middle" x="196" y="-7.5" font-family="Helvetica,sans-Serif" font-size="10.00">_interval.hpp</text>
</g>
<!-- Node13&#45;&gt;Node15 -->
<g id="edge21" class="edge"><title>Node13&#45;&gt;Node15</title>
<path fill="none" stroke="midnightblue" d="M263.681,-67.4751C253.082,-59.492 236.833,-47.2542 222.914,-36.7703"/>
<polygon fill="midnightblue" stroke="midnightblue" points="224.712,-33.7434 214.619,-30.523 220.501,-39.3349 224.712,-33.7434"/>
</g>
</g>
</svg>
        <g id="navigator" transform="translate(0 0)" fill="#404254">
                <rect fill="#f2f5e9" fill-opacity="0.5" stroke="#606060" stroke-width=".5" x="0" y="0" width="60" height="60"/>
                <use id="zoomplus" xlink:href="#zoomPlus" x="17" y="9" onmousedown="handleZoom(evt,'in')"/>
                <use id="zoomminus" xlink:href="#zoomMin" x="42" y="9" onmousedown="handleZoom(evt,'out')"/>
                <use id="reset" xlink:href="#resetDef" x="30" y="36" onmousedown="handleReset()"/>
                <g id="arrowUp" xlink:href="#dirArrow" transform="translate(30 24)" onmousedown="handlePan(0,-1)">
                  <use xlink:href="#rim" fill="#404040">
                        <set attributeName="fill" to="#808080" begin="arrowUp.mouseover" end="arrowUp.mouseout"/>
                  </use>
                  <path fill="none" stroke="white" stroke-width="1.5" d="M0,-3.0v7 M-2.5,-0.5L0,-3.0L2.5,-0.5"/>
                </g>
                <g id="arrowRight" xlink:href="#dirArrow" transform="rotate(90) translate(36 -43)" onmousedown="handlePan(1,0)">
                  <use xlink:href="#rim" fill="#404040">
                        <set attributeName="fill" to="#808080" begin="arrowRight.mouseover" end="arrowRight.mouseout"/>
                  </use>
                  <path fill="none" stroke="white" stroke-width="1.5" d="M0,-3.0v7 M-2.5,-0.5L0,-3.0L2.5,-0.5"/>
                </g>
                <g id="arrowDown" xlink:href="#dirArrow" transform="rotate(180) translate(-30 -48)" onmousedown="handlePan(0,1)">
                  <use xlink:href="#rim" fill="#404040">
                        <set attributeName="fill" to="#808080" begin="arrowDown.mouseover" end="arrowDown.mouseout"/>
                  </use>
                  <path fill="none" stroke="white" stroke-width="1.5" d="M0,-3.0v7 M-2.5,-0.5L0,-3.0L2.5,-0.5"/>
                </g>
                <g id="arrowLeft" xlink:href="#dirArrow" transform="rotate(270) translate(-36 17)" onmousedown="handlePan(-1,0)">
                  <use xlink:href="#rim" fill="#404040">
                        <set attributeName="fill" to="#808080" begin="arrowLeft.mouseover" end="arrowLeft.mouseout"/>
                  </use>
                  <path fill="none" stroke="white" stroke-width="1.5" d="M0,-3.0v7 M-2.5,-0.5L0,-3.0L2.5,-0.5"/>
                </g>
        </g>
        <svg viewBox="0 0 15 15" width="100%" height="30px" preserveAspectRatio="xMaxYMin meet">
         <g id="arrow_out" transform="scale(0.3 0.3)">
          <a xlink:href="event_8h__incl_org.svg" target="_base">
           <rect id="button" ry="5" rx="5" y="6" x="6" height="38" width="38"
                fill="#f2f5e9" fill-opacity="0.5" stroke="#606060" stroke-width="1.0"/>
           <path id="arrow"
             d="M 11.500037,31.436501 C 11.940474,20.09759 22.043105,11.32322 32.158766,21.979434 L 37.068811,17.246167 C 37.068811,17.246167 37.088388,32 37.088388,32 L 22.160133,31.978069 C 22.160133,31.978069 26.997745,27.140456 26.997745,27.140456 C 18.528582,18.264221 13.291696,25.230495 11.500037,31.436501 z"
             style="fill:#404040;"/>
          </a>
         </g>
        </svg>
</svg>
