<?xml version="1.0" encoding="UTF-8" standalone="no"?>
<!DOCTYPE svg PUBLIC "-//W3C//DTD SVG 1.1//EN"
 "http://www.w3.org/Graphics/SVG/1.1/DTD/svg11.dtd">
<!-- Generated by graphviz version 2.38.0 (20140413.2041)
 -->
<!-- Title: event_tree.cc Pages: 1 -->
<!--zoomable 319 -->
<svg id="main" version="1.1" xmlns="http://www.w3.org/2000/svg" xmlns:xlink="http://www.w3.org/1999/xlink" xml:space="preserve" onload="init(evt)">
<style type="text/css"><![CDATA[
.edge:hover path { stroke: red; }
.edge:hover polygon { stroke: red; fill: red; }
]]></style>
<script type="text/javascript"><![CDATA[
var edges = document.getElementsByTagName('g');
if (edges && edges.length) {
  for (var i=0;i<edges.length;i++) {
    if (edges[i].id.substr(0,4)=='edge') {
      edges[i].setAttribute('class','edge');
    }
  }
}
]]></script>
        <defs>
                <circle id="rim" cx="0" cy="0" r="7"/>
                <circle id="rim2" cx="0" cy="0" r="3.5"/>
                <g id="zoomPlus">
                        <use xlink:href="#rim" fill="#404040">
                                <set attributeName="fill" to="#808080" begin="zoomplus.mouseover" end="zoomplus.mouseout"/>
                        </use>
                        <path d="M-4,0h8M0,-4v8" fill="none" stroke="white" stroke-width="1.5" pointer-events="none"/>
                </g>
                <g id="zoomMin">
                        <use xlink:href="#rim" fill="#404040">
                                <set attributeName="fill" to="#808080" begin="zoomminus.mouseover" end="zoomminus.mouseout"/>
                        </use>
                        <path d="M-4,0h8" fill="none" stroke="white" stroke-width="1.5" pointer-events="none"/>
                </g>
                <g id="dirArrow">
                        <path fill="none" stroke="white" stroke-width="1.5" d="M0,-3.0v7 M-2.5,-0.5L0,-3.0L2.5,-0.5"/>
                </g>
               <g id="resetDef">
                       <use xlink:href="#rim2" fill="#404040">
                               <set attributeName="fill" to="#808080" begin="reset.mouseover" end="reset.mouseout"/>
                       </use>
               </g>
        </defs>

<script type="text/javascript">
var viewWidth = 1754;
var viewHeight = 319;
var sectionId = 'dynsection-0';
</script>
<script xlink:href="svgpan.js"/>
<svg id="graph" class="graph">
<g id="viewport">
<title>event_tree.cc</title>
<polygon fill="white" stroke="none" points="-4,4 -4,-315 1749.5,-315 1749.5,4 -4,4"/>
<!-- Node1 -->
<g id="node1" class="node"><title>Node1</title>
<polygon fill="#bfbfbf" stroke="black" points="1317.5,-291.5 1317.5,-310.5 1399.5,-310.5 1399.5,-291.5 1317.5,-291.5"/>
<text text-anchor="middle" x="1358.5" y="-298.5" font-family="Helvetica,sans-Serif" font-size="10.00">event_tree.cc</text>
</g>
<!-- Node2 -->
<g id="node2" class="node"><title>Node2</title>
<g id="a_node2"><a xlink:href="event__tree_8h.xhtml" target="_top" xlink:title="Event Tree facilities. ">
<polygon fill="white" stroke="black" points="538,-235.5 538,-254.5 615,-254.5 615,-235.5 538,-235.5"/>
<text text-anchor="middle" x="576.5" y="-242.5" font-family="Helvetica,sans-Serif" font-size="10.00">event_tree.h</text>
</a>
</g>
</g>
<!-- Node1&#45;&gt;Node2 -->
<g id="edge1" class="edge"><title>Node1&#45;&gt;Node2</title>
<path fill="none" stroke="midnightblue" d="M1317.28,-297.154C1184.52,-287.986 768.388,-259.251 625.354,-249.374"/>
<polygon fill="midnightblue" stroke="midnightblue" points="625.355,-245.865 615.138,-248.668 624.873,-252.849 625.355,-245.865"/>
</g>
<!-- Node18 -->
<g id="node18" class="node"><title>Node18</title>
<polygon fill="white" stroke="#bfbfbf" points="1370.5,-6 1370.5,-25 1432.5,-25 1432.5,-6 1370.5,-6"/>
<text text-anchor="middle" x="1401.5" y="-13" font-family="Helvetica,sans-Serif" font-size="10.00">algorithm</text>
</g>
<!-- Node1&#45;&gt;Node18 -->
<g id="edge39" class="edge"><title>Node1&#45;&gt;Node18</title>
<path fill="none" stroke="midnightblue" d="M1399.55,-297.077C1499.15,-288.862 1745.5,-261.333 1745.5,-190 1745.5,-190 1745.5,-190 1745.5,-132 1745.5,-68.7611 1533.93,-33.6755 1442.64,-21.4788"/>
<polygon fill="midnightblue" stroke="midnightblue" points="1443,-17.9973 1432.63,-20.1703 1442.1,-24.9381 1443,-17.9973"/>
</g>
<!-- Node20 -->
<g id="node20" class="node"><title>Node20</title>
<g id="a_node20"><a xlink:href="error_8h.xhtml" target="_top" xlink:title="Exceptions for SCRAM. ">
<polygon fill="white" stroke="black" points="1334.5,-235.5 1334.5,-254.5 1382.5,-254.5 1382.5,-235.5 1334.5,-235.5"/>
<text text-anchor="middle" x="1358.5" y="-242.5" font-family="Helvetica,sans-Serif" font-size="10.00">error.h</text>
</a>
</g>
</g>
<!-- Node1&#45;&gt;Node20 -->
<g id="edge40" class="edge"><title>Node1&#45;&gt;Node20</title>
<path fill="none" stroke="midnightblue" d="M1358.5,-291.083C1358.5,-284.006 1358.5,-273.861 1358.5,-264.986"/>
<polygon fill="midnightblue" stroke="midnightblue" points="1362,-264.751 1358.5,-254.751 1355,-264.751 1362,-264.751"/>
</g>
<!-- Node3 -->
<g id="node3" class="node"><title>Node3</title>
<polygon fill="white" stroke="#bfbfbf" points="864,-67.5 864,-86.5 921,-86.5 921,-67.5 864,-67.5"/>
<text text-anchor="middle" x="892.5" y="-74.5" font-family="Helvetica,sans-Serif" font-size="10.00">memory</text>
</g>
<!-- Node2&#45;&gt;Node3 -->
<g id="edge2" class="edge"><title>Node2&#45;&gt;Node3</title>
<path fill="none" stroke="midnightblue" d="M605.283,-235.49C630.884,-227.47 669.029,-214.406 700.5,-199 766.77,-166.56 838.825,-116.833 872.741,-92.4685"/>
<polygon fill="midnightblue" stroke="midnightblue" points="874.838,-95.2718 880.888,-86.5748 870.735,-89.6002 874.838,-95.2718"/>
</g>
<!-- Node4 -->
<g id="node4" class="node"><title>Node4</title>
<polygon fill="white" stroke="#bfbfbf" points="965.5,-6 965.5,-25 1009.5,-25 1009.5,-6 965.5,-6"/>
<text text-anchor="middle" x="987.5" y="-13" font-family="Helvetica,sans-Serif" font-size="10.00">string</text>
</g>
<!-- Node2&#45;&gt;Node4 -->
<g id="edge3" class="edge"><title>Node2&#45;&gt;Node4</title>
<path fill="none" stroke="midnightblue" d="M615.031,-238.885C691.075,-226.752 861.159,-189.173 954.5,-87 968.143,-72.0666 977.113,-50.4966 982.211,-35.1547"/>
<polygon fill="midnightblue" stroke="midnightblue" points="985.657,-35.8552 985.25,-25.2682 978.966,-33.7982 985.657,-35.8552"/>
</g>
<!-- Node5 -->
<g id="node5" class="node"><title>Node5</title>
<polygon fill="white" stroke="#bfbfbf" points="311.5,-67.5 311.5,-86.5 361.5,-86.5 361.5,-67.5 311.5,-67.5"/>
<text text-anchor="middle" x="336.5" y="-74.5" font-family="Helvetica,sans-Serif" font-size="10.00">variant</text>
</g>
<!-- Node2&#45;&gt;Node5 -->
<g id="edge4" class="edge"><title>Node2&#45;&gt;Node5</title>
<path fill="none" stroke="midnightblue" d="M537.569,-239.883C486.016,-233.677 398.879,-220.331 375.5,-199 346.242,-172.305 338.839,-123.582 337.028,-96.8285"/>
<polygon fill="midnightblue" stroke="midnightblue" points="340.51,-96.3597 336.538,-86.5373 333.517,-96.6923 340.51,-96.3597"/>
</g>
<!-- Node6 -->
<g id="node6" class="node"><title>Node6</title>
<polygon fill="white" stroke="#bfbfbf" points="0,-6 0,-25 47,-25 47,-6 0,-6"/>
<text text-anchor="middle" x="23.5" y="-13" font-family="Helvetica,sans-Serif" font-size="10.00">vector</text>
</g>
<!-- Node2&#45;&gt;Node6 -->
<g id="edge5" class="edge"><title>Node2&#45;&gt;Node6</title>
<path fill="none" stroke="midnightblue" d="M567.799,-235.272C534.932,-202.51 417.812,-87.675 370.5,-67 241.784,-10.7515 192.1,-67.6649 56.5,-31 54.2063,-30.3798 51.8671,-29.6246 49.5464,-28.7881"/>
<polygon fill="midnightblue" stroke="midnightblue" points="50.8561,-25.5425 40.2737,-25.0293 48.2264,-32.0298 50.8561,-25.5425"/>
</g>
<!-- Node7 -->
<g id="node7" class="node"><title>Node7</title>
<g id="a_node7"><a xlink:href="element_8h.xhtml" target="_top" xlink:title="Helper classes, structs, and properties common to all other classes. ">
<polygon fill="white" stroke="black" points="494,-67.5 494,-86.5 559,-86.5 559,-67.5 494,-67.5"/>
<text text-anchor="middle" x="526.5" y="-74.5" font-family="Helvetica,sans-Serif" font-size="10.00">element.h</text>
</a>
</g>
</g>
<!-- Node2&#45;&gt;Node7 -->
<g id="edge6" class="edge"><title>Node2&#45;&gt;Node7</title>
<path fill="none" stroke="midnightblue" d="M573.812,-235.075C565.941,-208.945 542.828,-132.211 532.095,-96.577"/>
<polygon fill="midnightblue" stroke="midnightblue" points="535.316,-95.1338 529.081,-86.5681 528.614,-97.1526 535.316,-95.1338"/>
</g>
<!-- Node13 -->
<g id="node13" class="node"><title>Node13</title>
<g id="a_node13"><a xlink:href="variant_8h.xhtml" target="_top" xlink:title="Extra helper functions for std::variant. ">
<polygon fill="white" stroke="black" points="246,-123.5 246,-142.5 323,-142.5 323,-123.5 246,-123.5"/>
<text text-anchor="middle" x="284.5" y="-130.5" font-family="Helvetica,sans-Serif" font-size="10.00">ext/variant.h</text>
</a>
</g>
</g>
<!-- Node2&#45;&gt;Node13 -->
<g id="edge14" class="edge"><title>Node2&#45;&gt;Node13</title>
<path fill="none" stroke="midnightblue" d="M537.652,-244.656C487.862,-243.8 400.466,-236.438 337.5,-199 318.404,-187.646 303.244,-166.736 294.111,-151.695"/>
<polygon fill="midnightblue" stroke="midnightblue" points="297.023,-149.737 289,-142.817 290.956,-153.23 297.023,-149.737"/>
</g>
<!-- Node14 -->
<g id="node14" class="node"><title>Node14</title>
<g id="a_node14"><a xlink:href="instruction_8h.xhtml" target="_top" xlink:title="Model and event tree modifier instructions. ">
<polygon fill="white" stroke="black" points="615.5,-179.5 615.5,-198.5 691.5,-198.5 691.5,-179.5 615.5,-179.5"/>
<text text-anchor="middle" x="653.5" y="-186.5" font-family="Helvetica,sans-Serif" font-size="10.00">instruction.h</text>
</a>
</g>
</g>
<!-- Node2&#45;&gt;Node14 -->
<g id="edge16" class="edge"><title>Node2&#45;&gt;Node14</title>
<path fill="none" stroke="midnightblue" d="M588.871,-235.324C600.658,-227.058 618.632,-214.453 632.636,-204.632"/>
<polygon fill="midnightblue" stroke="midnightblue" points="634.982,-207.262 641.159,-198.655 630.962,-201.531 634.982,-207.262"/>
</g>
<!-- Node7&#45;&gt;Node4 -->
<g id="edge8" class="edge"><title>Node7&#45;&gt;Node4</title>
<path fill="none" stroke="midnightblue" d="M559.188,-73.9902C646.133,-68.4202 881.555,-51.8135 956.5,-31 958.432,-30.4634 960.394,-29.8163 962.343,-29.0971"/>
<polygon fill="midnightblue" stroke="midnightblue" points="963.965,-32.2109 971.8,-25.0787 961.227,-25.7684 963.965,-32.2109"/>
</g>
<!-- Node7&#45;&gt;Node6 -->
<g id="edge9" class="edge"><title>Node7&#45;&gt;Node6</title>
<path fill="none" stroke="midnightblue" d="M493.957,-69.3127C489.123,-68.452 484.191,-67.647 479.5,-67 292.59,-41.2223 239.34,-77.5796 56.5,-31 54.1975,-30.4134 51.8521,-29.6819 49.5272,-28.8613"/>
<polygon fill="midnightblue" stroke="midnightblue" points="50.8311,-25.6133 40.2473,-25.1298 48.2196,-32.1079 50.8311,-25.6133"/>
</g>
<!-- Node8 -->
<g id="node8" class="node"><title>Node8</title>
<polygon fill="white" stroke="#bfbfbf" points="562,-6 562,-25 611,-25 611,-6 562,-6"/>
<text text-anchor="middle" x="586.5" y="-13" font-family="Helvetica,sans-Serif" font-size="10.00">cstdint</text>
</g>
<!-- Node7&#45;&gt;Node8 -->
<g id="edge7" class="edge"><title>Node7&#45;&gt;Node8</title>
<path fill="none" stroke="midnightblue" d="M535.097,-67.4751C544.364,-58.285 559.317,-43.4563 570.712,-32.156"/>
<polygon fill="midnightblue" stroke="midnightblue" points="573.283,-34.5358 577.919,-25.0091 568.354,-29.5653 573.283,-34.5358"/>
</g>
<!-- Node9 -->
<g id="node9" class="node"><title>Node9</title>
<polygon fill="white" stroke="#bfbfbf" points="403.5,-0.5 403.5,-30.5 543.5,-30.5 543.5,-0.5 403.5,-0.5"/>
<text text-anchor="start" x="411.5" y="-18.5" font-family="Helvetica,sans-Serif" font-size="10.00">boost/multi_index/hashed</text>
<text text-anchor="middle" x="473.5" y="-7.5" font-family="Helvetica,sans-Serif" font-size="10.00">_index.hpp</text>
</g>
<!-- Node7&#45;&gt;Node9 -->
<g id="edge10" class="edge"><title>Node7&#45;&gt;Node9</title>
<path fill="none" stroke="midnightblue" d="M518.906,-67.4751C512.131,-59.8685 501.914,-48.3992 492.887,-38.2649"/>
<polygon fill="midnightblue" stroke="midnightblue" points="495.256,-35.6622 485.991,-30.523 490.029,-40.3182 495.256,-35.6622"/>
</g>
<!-- Node10 -->
<g id="node10" class="node"><title>Node10</title>
<polygon fill="white" stroke="#bfbfbf" points="65.5,-0.5 65.5,-30.5 195.5,-30.5 195.5,-0.5 65.5,-0.5"/>
<text text-anchor="start" x="73.5" y="-18.5" font-family="Helvetica,sans-Serif" font-size="10.00">boost/multi_index/mem</text>
<text text-anchor="middle" x="130.5" y="-7.5" font-family="Helvetica,sans-Serif" font-size="10.00">_fun.hpp</text>
</g>
<!-- Node7&#45;&gt;Node10 -->
<g id="edge11" class="edge"><title>Node7&#45;&gt;Node10</title>
<path fill="none" stroke="midnightblue" d="M493.928,-69.5049C489.099,-68.6168 484.175,-67.753 479.5,-67 361.012,-47.9169 327.886,-50.6947 205.936,-31.1701"/>
<polygon fill="midnightblue" stroke="midnightblue" points="206.26,-27.6772 195.83,-29.534 205.142,-34.5872 206.26,-27.6772"/>
</g>
<!-- Node11 -->
<g id="node11" class="node"><title>Node11</title>
<polygon fill="white" stroke="#bfbfbf" points="213.5,-6 213.5,-25 385.5,-25 385.5,-6 213.5,-6"/>
<text text-anchor="middle" x="299.5" y="-13" font-family="Helvetica,sans-Serif" font-size="10.00">boost/multi_index_container.hpp</text>
</g>
<!-- Node7&#45;&gt;Node11 -->
<g id="edge12" class="edge"><title>Node7&#45;&gt;Node11</title>
<path fill="none" stroke="midnightblue" d="M493.976,-67.4751C453.942,-56.9815 385.862,-39.1367 341.798,-27.587"/>
<polygon fill="midnightblue" stroke="midnightblue" points="342.524,-24.159 331.963,-25.0091 340.749,-30.9303 342.524,-24.159"/>
</g>
<!-- Node12 -->
<g id="node12" class="node"><title>Node12</title>
<polygon fill="white" stroke="#bfbfbf" points="629.5,-6 629.5,-25 757.5,-25 757.5,-6 629.5,-6"/>
<text text-anchor="middle" x="693.5" y="-13" font-family="Helvetica,sans-Serif" font-size="10.00">boost/noncopyable.hpp</text>
</g>
<!-- Node7&#45;&gt;Node12 -->
<g id="edge13" class="edge"><title>Node7&#45;&gt;Node12</title>
<path fill="none" stroke="midnightblue" d="M550.427,-67.4751C579.197,-57.2246 627.656,-39.9593 660.102,-28.3994"/>
<polygon fill="midnightblue" stroke="midnightblue" points="661.372,-31.6624 669.617,-25.0091 659.023,-25.0684 661.372,-31.6624"/>
</g>
<!-- Node13&#45;&gt;Node5 -->
<g id="edge15" class="edge"><title>Node13&#45;&gt;Node5</title>
<path fill="none" stroke="midnightblue" d="M293.087,-123.083C300.659,-115.22 311.878,-103.569 321.014,-94.0813"/>
<polygon fill="midnightblue" stroke="midnightblue" points="323.658,-96.3821 328.073,-86.7511 318.615,-91.5266 323.658,-96.3821"/>
</g>
<!-- Node14&#45;&gt;Node3 -->
<g id="edge17" class="edge"><title>Node14&#45;&gt;Node3</title>
<path fill="none" stroke="midnightblue" d="M672.254,-179.368C714.139,-160.091 815.469,-113.454 864.712,-90.7894"/>
<polygon fill="midnightblue" stroke="midnightblue" points="866.212,-93.9518 873.833,-86.5914 863.286,-87.593 866.212,-93.9518"/>
</g>
<!-- Node14&#45;&gt;Node4 -->
<g id="edge18" class="edge"><title>Node14&#45;&gt;Node4</title>
<path fill="none" stroke="midnightblue" d="M691.926,-180.966C748.364,-169.172 855.028,-141.185 929.5,-87 949.453,-72.4825 966.588,-49.5482 976.954,-33.8039"/>
<polygon fill="midnightblue" stroke="midnightblue" points="980.093,-35.388 982.497,-25.0695 974.183,-31.6369 980.093,-35.388"/>
</g>
<!-- Node14&#45;&gt;Node6 -->
<g id="edge19" class="edge"><title>Node14&#45;&gt;Node6</title>
<path fill="none" stroke="midnightblue" d="M634.948,-179.465C597.937,-162.37 512.393,-122.525 441.5,-87 424.437,-78.4496 421.767,-72.5293 403.5,-67 255.1,-22.08 206.391,-70.6637 56.5,-31 54.203,-30.3922 51.8615,-29.6457 49.5392,-28.8151"/>
<polygon fill="midnightblue" stroke="midnightblue" points="50.8468,-25.5685 40.2638,-25.0663 48.2237,-32.0585 50.8468,-25.5685"/>
</g>
<!-- Node14&#45;&gt;Node7 -->
<g id="edge21" class="edge"><title>Node14&#45;&gt;Node7</title>
<path fill="none" stroke="midnightblue" d="M643.535,-179.368C622.112,-160.814 571.427,-116.913 544.323,-93.4376"/>
<polygon fill="midnightblue" stroke="midnightblue" points="546.27,-90.4929 536.419,-86.5914 541.687,-95.7841 546.27,-90.4929"/>
</g>
<!-- Node14&#45;&gt;Node12 -->
<g id="edge20" class="edge"><title>Node14&#45;&gt;Node12</title>
<path fill="none" stroke="midnightblue" d="M650.294,-179.091C646.207,-166.496 640.162,-142.809 644.5,-123 651.797,-89.683 670.537,-54.3491 682.613,-33.9153"/>
<polygon fill="midnightblue" stroke="midnightblue" points="685.732,-35.5205 687.926,-25.1552 679.747,-31.8904 685.732,-35.5205"/>
</g>
<!-- Node15 -->
<g id="node15" class="node"><title>Node15</title>
<g id="a_node15"><a xlink:href="event_8h.xhtml" target="_top" xlink:title="Contains event classes for fault trees. ">
<polygon fill="white" stroke="black" points="654,-123.5 654,-142.5 707,-142.5 707,-123.5 654,-123.5"/>
<text text-anchor="middle" x="680.5" y="-130.5" font-family="Helvetica,sans-Serif" font-size="10.00">event.h</text>
</a>
</g>
</g>
<!-- Node14&#45;&gt;Node15 -->
<g id="edge22" class="edge"><title>Node14&#45;&gt;Node15</title>
<path fill="none" stroke="midnightblue" d="M657.959,-179.083C661.654,-171.691 667.023,-160.953 671.594,-151.811"/>
<polygon fill="midnightblue" stroke="midnightblue" points="674.783,-153.261 676.124,-142.751 668.522,-150.13 674.783,-153.261"/>
</g>
<!-- Node17 -->
<g id="node17" class="node"><title>Node17</title>
<g id="a_node17"><a xlink:href="expression_8h.xhtml" target="_top" xlink:title="Provides the base class for all expressions and units for expression values. ">
<polygon fill="white" stroke="black" points="730,-67.5 730,-86.5 807,-86.5 807,-67.5 730,-67.5"/>
<text text-anchor="middle" x="768.5" y="-74.5" font-family="Helvetica,sans-Serif" font-size="10.00">expression.h</text>
</a>
</g>
</g>
<!-- Node14&#45;&gt;Node17 -->
<g id="edge38" class="edge"><title>Node14&#45;&gt;Node17</title>
<path fill="none" stroke="midnightblue" d="M667.337,-179.451C680.444,-171.02 700.326,-157.345 715.5,-143 731.147,-128.209 746.402,-108.817 756.496,-95.0754"/>
<polygon fill="midnightblue" stroke="midnightblue" points="759.602,-96.7516 762.602,-86.5904 753.92,-92.663 759.602,-96.7516"/>
</g>
<!-- Node15&#45;&gt;Node3 -->
<g id="edge24" class="edge"><title>Node15&#45;&gt;Node3</title>
<path fill="none" stroke="midnightblue" d="M707.35,-125.161C744.484,-115.702 811.726,-98.5745 854.145,-87.7697"/>
<polygon fill="midnightblue" stroke="midnightblue" points="855.013,-91.1604 863.84,-85.3002 853.285,-84.377 855.013,-91.1604"/>
</g>
<!-- Node15&#45;&gt;Node4 -->
<g id="edge25" class="edge"><title>Node15&#45;&gt;Node4</title>
<path fill="none" stroke="midnightblue" d="M707.069,-124.45C734.616,-116.321 778.716,-102.457 815.5,-87 833.459,-79.4537 836.608,-74.7035 854.5,-67 898.655,-47.9885 912.007,-49.2061 956.5,-31 957.875,-30.4375 959.277,-29.8465 960.687,-29.2381"/>
<polygon fill="midnightblue" stroke="midnightblue" points="962.242,-32.3767 969.928,-25.0845 959.372,-25.992 962.242,-32.3767"/>
</g>
<!-- Node15&#45;&gt;Node5 -->
<g id="edge27" class="edge"><title>Node15&#45;&gt;Node5</title>
<path fill="none" stroke="midnightblue" d="M653.793,-127.808C592.231,-118.144 440.37,-94.3052 371.484,-83.4917"/>
<polygon fill="midnightblue" stroke="midnightblue" points="371.977,-80.0262 361.555,-81.933 370.891,-86.9415 371.977,-80.0262"/>
</g>
<!-- Node15&#45;&gt;Node6 -->
<g id="edge28" class="edge"><title>Node15&#45;&gt;Node6</title>
<path fill="none" stroke="midnightblue" d="M653.694,-127.685C615.482,-121.124 543.447,-107.225 484.5,-87 464.564,-80.1598 461.845,-72.5059 441.5,-67 275.61,-22.106 222.86,-74.1203 56.5,-31 54.2,-30.4038 51.8563,-29.6656 49.5325,-28.8404"/>
<polygon fill="midnightblue" stroke="midnightblue" points="50.8381,-25.5931 40.2547,-25.1011 48.2214,-32.0856 50.8381,-25.5931"/>
</g>
<!-- Node15&#45;&gt;Node7 -->
<g id="edge30" class="edge"><title>Node15&#45;&gt;Node7</title>
<path fill="none" stroke="midnightblue" d="M656.098,-123.444C630.303,-114.399 589.423,-100.064 560.482,-89.9158"/>
<polygon fill="midnightblue" stroke="midnightblue" points="561.382,-86.5226 550.788,-86.5164 559.066,-93.1283 561.382,-86.5226"/>
</g>
<!-- Node15&#45;&gt;Node8 -->
<g id="edge23" class="edge"><title>Node15&#45;&gt;Node8</title>
<path fill="none" stroke="midnightblue" d="M673.435,-123.319C657.852,-104.172 620.311,-58.0443 600.035,-33.1306"/>
<polygon fill="midnightblue" stroke="midnightblue" points="602.674,-30.8287 593.647,-25.282 597.245,-35.2473 602.674,-30.8287"/>
</g>
<!-- Node15&#45;&gt;Node12 -->
<g id="edge29" class="edge"><title>Node15&#45;&gt;Node12</title>
<path fill="none" stroke="midnightblue" d="M681.42,-123.165C682.73,-110.658 685.227,-87.0746 687.5,-67 688.7,-56.4067 690.103,-44.5713 691.25,-35.0225"/>
<polygon fill="midnightblue" stroke="midnightblue" points="694.727,-35.4224 692.452,-25.0746 687.778,-34.5825 694.727,-35.4224"/>
</g>
<!-- Node16 -->
<g id="node16" class="node"><title>Node16</title>
<polygon fill="white" stroke="#bfbfbf" points="775.5,-6 775.5,-25 817.5,-25 817.5,-6 775.5,-6"/>
<text text-anchor="middle" x="796.5" y="-13" font-family="Helvetica,sans-Serif" font-size="10.00">utility</text>
</g>
<!-- Node15&#45;&gt;Node16 -->
<g id="edge26" class="edge"><title>Node15&#45;&gt;Node16</title>
<path fill="none" stroke="midnightblue" d="M684.395,-123.195C690.598,-109.882 703.747,-84.3466 720.5,-67 734.899,-52.0902 754.433,-39.2292 770.091,-30.2177"/>
<polygon fill="midnightblue" stroke="midnightblue" points="772.22,-33.0387 779.259,-25.1202 768.818,-26.9207 772.22,-33.0387"/>
</g>
<!-- Node15&#45;&gt;Node17 -->
<g id="edge31" class="edge"><title>Node15&#45;&gt;Node17</title>
<path fill="none" stroke="midnightblue" d="M694.639,-123.324C708.366,-114.9 729.436,-101.971 745.564,-92.0741"/>
<polygon fill="midnightblue" stroke="midnightblue" points="747.704,-94.8678 754.396,-86.6545 744.043,-88.9016 747.704,-94.8678"/>
</g>
<!-- Node17&#45;&gt;Node4 -->
<g id="edge33" class="edge"><title>Node17&#45;&gt;Node4</title>
<path fill="none" stroke="midnightblue" d="M807.323,-69.0969C845.804,-61.7007 906.126,-48.6055 956.5,-31 958.12,-30.434 959.768,-29.8112 961.419,-29.1516"/>
<polygon fill="midnightblue" stroke="midnightblue" points="962.93,-32.3108 970.703,-25.1111 960.137,-25.8923 962.93,-32.3108"/>
</g>
<!-- Node17&#45;&gt;Node6 -->
<g id="edge35" class="edge"><title>Node17&#45;&gt;Node6</title>
<path fill="none" stroke="midnightblue" d="M729.952,-74.3535C591.207,-68.3185 122.016,-46.9327 56.5,-31 54.14,-30.4261 51.737,-29.6929 49.3584,-28.8619"/>
<polygon fill="midnightblue" stroke="midnightblue" points="50.4736,-25.538 39.8899,-25.053 47.8611,-32.0322 50.4736,-25.538"/>
</g>
<!-- Node17&#45;&gt;Node12 -->
<g id="edge37" class="edge"><title>Node17&#45;&gt;Node12</title>
<path fill="none" stroke="midnightblue" d="M757.754,-67.4751C745.947,-58.1082 726.757,-42.8839 712.418,-31.5081"/>
<polygon fill="midnightblue" stroke="midnightblue" points="714.235,-28.4822 704.226,-25.0091 709.885,-33.9661 714.235,-28.4822"/>
</g>
<!-- Node17&#45;&gt;Node16 -->
<g id="edge34" class="edge"><title>Node17&#45;&gt;Node16</title>
<path fill="none" stroke="midnightblue" d="M772.512,-67.4751C776.587,-58.8152 783.018,-45.1486 788.196,-34.1453"/>
<polygon fill="midnightblue" stroke="midnightblue" points="791.405,-35.5476 792.496,-25.0091 785.071,-32.567 791.405,-35.5476"/>
</g>
<!-- Node17&#45;&gt;Node18 -->
<g id="edge32" class="edge"><title>Node17&#45;&gt;Node18</title>
<path fill="none" stroke="midnightblue" d="M807.019,-71.8675C821.856,-70.3024 838.963,-68.5302 854.5,-67 1043.25,-48.4111 1268.86,-28.2269 1360.14,-20.1446"/>
<polygon fill="midnightblue" stroke="midnightblue" points="1360.69,-23.6099 1370.34,-19.2423 1360.07,-16.6371 1360.69,-23.6099"/>
</g>
<!-- Node19 -->
<g id="node19" class="node"><title>Node19</title>
<polygon fill="white" stroke="#bfbfbf" points="835.5,-0.5 835.5,-30.5 947.5,-30.5 947.5,-0.5 835.5,-0.5"/>
<text text-anchor="start" x="843.5" y="-18.5" font-family="Helvetica,sans-Serif" font-size="10.00">boost/icl/continuous</text>
<text text-anchor="middle" x="891.5" y="-7.5" font-family="Helvetica,sans-Serif" font-size="10.00">_interval.hpp</text>
</g>
<!-- Node17&#45;&gt;Node19 -->
<g id="edge36" class="edge"><title>Node17&#45;&gt;Node19</title>
<path fill="none" stroke="midnightblue" d="M786.123,-67.4751C803.56,-59.0401 830.816,-45.8551 853.24,-35.008"/>
<polygon fill="midnightblue" stroke="midnightblue" points="855.033,-38.0284 862.511,-30.523 851.985,-31.727 855.033,-38.0284"/>
</g>
<!-- Node20&#45;&gt;Node4 -->
<g id="edge42" class="edge"><title>Node20&#45;&gt;Node4</title>
<path fill="none" stroke="midnightblue" d="M1382.52,-243.7C1439.78,-242.12 1576.66,-232.771 1536.5,-179 1472.39,-93.1609 1126.96,-36.6604 1019.45,-20.9557"/>
<polygon fill="midnightblue" stroke="midnightblue" points="1019.92,-17.4871 1009.53,-19.5229 1018.92,-24.4154 1019.92,-17.4871"/>
</g>
<!-- Node21 -->
<g id="node21" class="node"><title>Node21</title>
<polygon fill="white" stroke="#bfbfbf" points="1118,-179.5 1118,-198.5 1181,-198.5 1181,-179.5 1118,-179.5"/>
<text text-anchor="middle" x="1149.5" y="-186.5" font-family="Helvetica,sans-Serif" font-size="10.00">exception</text>
</g>
<!-- Node20&#45;&gt;Node21 -->
<g id="edge41" class="edge"><title>Node20&#45;&gt;Node21</title>
<path fill="none" stroke="midnightblue" d="M1334.12,-237.7C1299.03,-228.633 1233.82,-211.785 1191.04,-200.733"/>
<polygon fill="midnightblue" stroke="midnightblue" points="1191.77,-197.307 1181.21,-198.194 1190.02,-204.084 1191.77,-197.307"/>
</g>
<!-- Node22 -->
<g id="node22" class="node"><title>Node22</title>
<polygon fill="white" stroke="#bfbfbf" points="1199.5,-179.5 1199.5,-198.5 1345.5,-198.5 1345.5,-179.5 1199.5,-179.5"/>
<text text-anchor="middle" x="1272.5" y="-186.5" font-family="Helvetica,sans-Serif" font-size="10.00">boost/current_function.hpp</text>
</g>
<!-- Node20&#45;&gt;Node22 -->
<g id="edge43" class="edge"><title>Node20&#45;&gt;Node22</title>
<path fill="none" stroke="midnightblue" d="M1344.68,-235.324C1331.27,-226.9 1310.68,-213.971 1294.91,-204.074"/>
<polygon fill="midnightblue" stroke="midnightblue" points="1296.61,-201.008 1286.28,-198.655 1292.89,-206.936 1296.61,-201.008"/>
</g>
<!-- Node23 -->
<g id="node23" class="node"><title>Node23</title>
<polygon fill="white" stroke="#bfbfbf" points="1363.5,-179.5 1363.5,-198.5 1527.5,-198.5 1527.5,-179.5 1363.5,-179.5"/>
<text text-anchor="middle" x="1445.5" y="-186.5" font-family="Helvetica,sans-Serif" font-size="10.00">boost/exception/exception.hpp</text>
</g>
<!-- Node20&#45;&gt;Node23 -->
<g id="edge44" class="edge"><title>Node20&#45;&gt;Node23</title>
<path fill="none" stroke="midnightblue" d="M1372.48,-235.324C1386.05,-226.9 1406.88,-213.971 1422.82,-204.074"/>
<polygon fill="midnightblue" stroke="midnightblue" points="1424.91,-206.902 1431.56,-198.655 1421.21,-200.954 1424.91,-206.902"/>
</g>
<!-- Node24 -->
<g id="node24" class="node"><title>Node24</title>
<polygon fill="white" stroke="#bfbfbf" points="1583.5,-179.5 1583.5,-198.5 1717.5,-198.5 1717.5,-179.5 1583.5,-179.5"/>
<text text-anchor="middle" x="1650.5" y="-186.5" font-family="Helvetica,sans-Serif" font-size="10.00">boost/exception/info.hpp</text>
</g>
<!-- Node20&#45;&gt;Node24 -->
<g id="edge45" class="edge"><title>Node20&#45;&gt;Node24</title>
<path fill="none" stroke="midnightblue" d="M1382.89,-239.489C1429.15,-230.935 1530.67,-212.159 1594.53,-200.352"/>
<polygon fill="midnightblue" stroke="midnightblue" points="1595.24,-203.779 1604.43,-198.519 1593.97,-196.896 1595.24,-203.779"/>
</g>
<!-- Node25 -->
<g id="node25" class="node"><title>Node25</title>
<g id="a_node25"><a xlink:href="source__info_8h.xhtml" target="_top" xlink:title="Helper facilities to get source file information. ">
<polygon fill="white" stroke="black" points="1001.5,-179.5 1001.5,-198.5 1099.5,-198.5 1099.5,-179.5 1001.5,-179.5"/>
<text text-anchor="middle" x="1050.5" y="-186.5" font-family="Helvetica,sans-Serif" font-size="10.00">ext/source_info.h</text>
</a>
</g>
</g>
<!-- Node20&#45;&gt;Node25 -->
<g id="edge46" class="edge"><title>Node20&#45;&gt;Node25</title>
<path fill="none" stroke="midnightblue" d="M1334.33,-239.763C1286.24,-231.332 1177.36,-212.241 1109.29,-200.308"/>
<polygon fill="midnightblue" stroke="midnightblue" points="1109.6,-196.809 1099.15,-198.529 1108.39,-203.704 1109.6,-196.809"/>
</g>
</g>
</svg>
        <g id="navigator" transform="translate(0 0)" fill="#404254">
                <rect fill="#f2f5e9" fill-opacity="0.5" stroke="#606060" stroke-width=".5" x="0" y="0" width="60" height="60"/>
                <use id="zoomplus" xlink:href="#zoomPlus" x="17" y="9" onmousedown="handleZoom(evt,'in')"/>
                <use id="zoomminus" xlink:href="#zoomMin" x="42" y="9" onmousedown="handleZoom(evt,'out')"/>
                <use id="reset" xlink:href="#resetDef" x="30" y="36" onmousedown="handleReset()"/>
                <g id="arrowUp" xlink:href="#dirArrow" transform="translate(30 24)" onmousedown="handlePan(0,-1)">
                  <use xlink:href="#rim" fill="#404040">
                        <set attributeName="fill" to="#808080" begin="arrowUp.mouseover" end="arrowUp.mouseout"/>
                  </use>
                  <path fill="none" stroke="white" stroke-width="1.5" d="M0,-3.0v7 M-2.5,-0.5L0,-3.0L2.5,-0.5"/>
                </g>
                <g id="arrowRight" xlink:href="#dirArrow" transform="rotate(90) translate(36 -43)" onmousedown="handlePan(1,0)">
                  <use xlink:href="#rim" fill="#404040">
                        <set attributeName="fill" to="#808080" begin="arrowRight.mouseover" end="arrowRight.mouseout"/>
                  </use>
                  <path fill="none" stroke="white" stroke-width="1.5" d="M0,-3.0v7 M-2.5,-0.5L0,-3.0L2.5,-0.5"/>
                </g>
                <g id="arrowDown" xlink:href="#dirArrow" transform="rotate(180) translate(-30 -48)" onmousedown="handlePan(0,1)">
                  <use xlink:href="#rim" fill="#404040">
                        <set attributeName="fill" to="#808080" begin="arrowDown.mouseover" end="arrowDown.mouseout"/>
                  </use>
                  <path fill="none" stroke="white" stroke-width="1.5" d="M0,-3.0v7 M-2.5,-0.5L0,-3.0L2.5,-0.5"/>
                </g>
                <g id="arrowLeft" xlink:href="#dirArrow" transform="rotate(270) translate(-36 17)" onmousedown="handlePan(-1,0)">
                  <use xlink:href="#rim" fill="#404040">
                        <set attributeName="fill" to="#808080" begin="arrowLeft.mouseover" end="arrowLeft.mouseout"/>
                  </use>
                  <path fill="none" stroke="white" stroke-width="1.5" d="M0,-3.0v7 M-2.5,-0.5L0,-3.0L2.5,-0.5"/>
                </g>
        </g>
        <svg viewBox="0 0 15 15" width="100%" height="30px" preserveAspectRatio="xMaxYMin meet">
         <g id="arrow_out" transform="scale(0.3 0.3)">
          <a xlink:href="event__tree_8cc__incl_org.svg" target="_base">
           <rect id="button" ry="5" rx="5" y="6" x="6" height="38" width="38"
                fill="#f2f5e9" fill-opacity="0.5" stroke="#606060" stroke-width="1.0"/>
           <path id="arrow"
             d="M 11.500037,31.436501 C 11.940474,20.09759 22.043105,11.32322 32.158766,21.979434 L 37.068811,17.246167 C 37.068811,17.246167 37.088388,32 37.088388,32 L 22.160133,31.978069 C 22.160133,31.978069 26.997745,27.140456 26.997745,27.140456 C 18.528582,18.264221 13.291696,25.230495 11.500037,31.436501 z"
             style="fill:#404040;"/>
          </a>
         </g>
        </svg>
</svg>
