<?xml version="1.0" encoding="UTF-8" standalone="no"?>
<!DOCTYPE svg PUBLIC "-//W3C//DTD SVG 1.1//EN"
 "http://www.w3.org/Graphics/SVG/1.1/DTD/svg11.dtd">
<!-- Generated by graphviz version 2.38.0 (20140413.2041)
 -->
<!-- Title: event.cc Pages: 1 -->
<!--zoomable 207 -->
<svg id="main" version="1.1" xmlns="http://www.w3.org/2000/svg" xmlns:xlink="http://www.w3.org/1999/xlink" xml:space="preserve" onload="init(evt)">
<style type="text/css"><![CDATA[
.edge:hover path { stroke: red; }
.edge:hover polygon { stroke: red; fill: red; }
]]></style>
<script type="text/javascript"><![CDATA[
var edges = document.getElementsByTagName('g');
if (edges && edges.length) {
  for (var i=0;i<edges.length;i++) {
    if (edges[i].id.substr(0,4)=='edge') {
      edges[i].setAttribute('class','edge');
    }
  }
}
]]></script>
        <defs>
                <circle id="rim" cx="0" cy="0" r="7"/>
                <circle id="rim2" cx="0" cy="0" r="3.5"/>
                <g id="zoomPlus">
                        <use xlink:href="#rim" fill="#404040">
                                <set attributeName="fill" to="#808080" begin="zoomplus.mouseover" end="zoomplus.mouseout"/>
                        </use>
                        <path d="M-4,0h8M0,-4v8" fill="none" stroke="white" stroke-width="1.5" pointer-events="none"/>
                </g>
                <g id="zoomMin">
                        <use xlink:href="#rim" fill="#404040">
                                <set attributeName="fill" to="#808080" begin="zoomminus.mouseover" end="zoomminus.mouseout"/>
                        </use>
                        <path d="M-4,0h8" fill="none" stroke="white" stroke-width="1.5" pointer-events="none"/>
                </g>
                <g id="dirArrow">
                        <path fill="none" stroke="white" stroke-width="1.5" d="M0,-3.0v7 M-2.5,-0.5L0,-3.0L2.5,-0.5"/>
                </g>
               <g id="resetDef">
                       <use xlink:href="#rim2" fill="#404040">
                               <set attributeName="fill" to="#808080" begin="reset.mouseover" end="reset.mouseout"/>
                       </use>
               </g>
        </defs>

<script type="text/javascript">
var viewWidth = 1876;
var viewHeight = 207;
var sectionId = 'dynsection-0';
</script>
<script xlink:href="svgpan.js"/>
<svg id="graph" class="graph">
<g id="viewport">
<title>event.cc</title>
<polygon fill="white" stroke="none" points="-4,4 -4,-203 1872.04,-203 1872.04,4 -4,4"/>
<!-- Node1 -->
<g id="node1" class="node"><title>Node1</title>
<polygon fill="#bfbfbf" stroke="black" points="1235,-179.5 1235,-198.5 1292,-198.5 1292,-179.5 1235,-179.5"/>
<text text-anchor="middle" x="1263.5" y="-186.5" font-family="Helvetica,sans-Serif" font-size="10.00">event.cc</text>
</g>
<!-- Node2 -->
<g id="node2" class="node"><title>Node2</title>
<g id="a_node2"><a xlink:href="event_8h.xhtml" target="_top" xlink:title="Contains event classes for fault trees. ">
<polygon fill="white" stroke="black" points="691,-123.5 691,-142.5 744,-142.5 744,-123.5 691,-123.5"/>
<text text-anchor="middle" x="717.5" y="-130.5" font-family="Helvetica,sans-Serif" font-size="10.00">event.h</text>
</a>
</g>
</g>
<!-- Node1&#45;&gt;Node2 -->
<g id="edge1" class="edge"><title>Node1&#45;&gt;Node2</title>
<path fill="none" stroke="midnightblue" d="M1234.91,-185.173C1143.26,-176.108 856.758,-147.773 754.35,-137.645"/>
<polygon fill="midnightblue" stroke="midnightblue" points="754.482,-134.141 744.186,-136.639 753.793,-141.107 754.482,-134.141"/>
</g>
<!-- Node17 -->
<g id="node17" class="node"><title>Node17</title>
<polygon fill="white" stroke="#bfbfbf" points="1709.5,-67.5 1709.5,-86.5 1853.5,-86.5 1853.5,-67.5 1709.5,-67.5"/>
<text text-anchor="middle" x="1781.5" y="-74.5" font-family="Helvetica,sans-Serif" font-size="10.00">boost/range/algorithm.hpp</text>
</g>
<!-- Node1&#45;&gt;Node17 -->
<g id="edge24" class="edge"><title>Node1&#45;&gt;Node17</title>
<path fill="none" stroke="midnightblue" d="M1292.09,-181.929C1376.33,-164.04 1624.4,-111.362 1731.42,-88.6357"/>
<polygon fill="midnightblue" stroke="midnightblue" points="1732.27,-92.0331 1741.32,-86.5321 1730.81,-85.1858 1732.27,-92.0331"/>
</g>
<!-- Node18 -->
<g id="node18" class="node"><title>Node18</title>
<g id="a_node18"><a xlink:href="error_8h.xhtml" target="_top" xlink:title="Exceptions for SCRAM. ">
<polygon fill="white" stroke="black" points="1239.5,-123.5 1239.5,-142.5 1287.5,-142.5 1287.5,-123.5 1239.5,-123.5"/>
<text text-anchor="middle" x="1263.5" y="-130.5" font-family="Helvetica,sans-Serif" font-size="10.00">error.h</text>
</a>
</g>
</g>
<!-- Node1&#45;&gt;Node18 -->
<g id="edge25" class="edge"><title>Node1&#45;&gt;Node18</title>
<path fill="none" stroke="midnightblue" d="M1263.5,-179.083C1263.5,-172.006 1263.5,-161.861 1263.5,-152.986"/>
<polygon fill="midnightblue" stroke="midnightblue" points="1267,-152.751 1263.5,-142.751 1260,-152.751 1267,-152.751"/>
</g>
<!-- Node24 -->
<g id="node24" class="node"><title>Node24</title>
<g id="a_node24"><a xlink:href="algorithm_8h.xhtml" target="_top" xlink:title="Helpful algorithm facilities as an extension to the STL or Boost. ">
<polygon fill="white" stroke="black" points="1737,-123.5 1737,-142.5 1826,-142.5 1826,-123.5 1737,-123.5"/>
<text text-anchor="middle" x="1781.5" y="-130.5" font-family="Helvetica,sans-Serif" font-size="10.00">ext/algorithm.h</text>
</a>
</g>
</g>
<!-- Node1&#45;&gt;Node24 -->
<g id="edge32" class="edge"><title>Node1&#45;&gt;Node24</title>
<path fill="none" stroke="midnightblue" d="M1292.09,-185.02C1375.1,-176.366 1617.17,-151.131 1726.63,-139.72"/>
<polygon fill="midnightblue" stroke="midnightblue" points="1727.21,-143.178 1736.8,-138.66 1726.49,-136.216 1727.21,-143.178"/>
</g>
<!-- Node25 -->
<g id="node25" class="node"><title>Node25</title>
<g id="a_node25"><a xlink:href="variant_8h.xhtml" target="_top" xlink:title="Extra helper functions for std::variant. ">
<polygon fill="white" stroke="black" points="1044,-123.5 1044,-142.5 1121,-142.5 1121,-123.5 1044,-123.5"/>
<text text-anchor="middle" x="1082.5" y="-130.5" font-family="Helvetica,sans-Serif" font-size="10.00">ext/variant.h</text>
</a>
</g>
</g>
<!-- Node1&#45;&gt;Node25 -->
<g id="edge35" class="edge"><title>Node1&#45;&gt;Node25</title>
<path fill="none" stroke="midnightblue" d="M1234.82,-179.444C1203.97,-170.241 1154.77,-155.562 1120.67,-145.388"/>
<polygon fill="midnightblue" stroke="midnightblue" points="1121.63,-142.021 1111.05,-142.516 1119.63,-148.729 1121.63,-142.021"/>
</g>
<!-- Node3 -->
<g id="node3" class="node"><title>Node3</title>
<polygon fill="white" stroke="#bfbfbf" points="0,-6 0,-25 49,-25 49,-6 0,-6"/>
<text text-anchor="middle" x="24.5" y="-13" font-family="Helvetica,sans-Serif" font-size="10.00">cstdint</text>
</g>
<!-- Node2&#45;&gt;Node3 -->
<g id="edge2" class="edge"><title>Node2&#45;&gt;Node3</title>
<path fill="none" stroke="midnightblue" d="M690.936,-130.327C600.679,-124.141 298.104,-99.2764 58.5,-31 56.2088,-30.3471 53.8672,-29.5787 51.5378,-28.7419"/>
<polygon fill="midnightblue" stroke="midnightblue" points="52.7788,-25.4689 42.1927,-25.0384 50.1997,-31.9765 52.7788,-25.4689"/>
</g>
<!-- Node4 -->
<g id="node4" class="node"><title>Node4</title>
<polygon fill="white" stroke="#bfbfbf" points="660,-67.5 660,-86.5 717,-86.5 717,-67.5 660,-67.5"/>
<text text-anchor="middle" x="688.5" y="-74.5" font-family="Helvetica,sans-Serif" font-size="10.00">memory</text>
</g>
<!-- Node2&#45;&gt;Node4 -->
<g id="edge3" class="edge"><title>Node2&#45;&gt;Node4</title>
<path fill="none" stroke="midnightblue" d="M712.711,-123.083C708.742,-115.691 702.975,-104.953 698.065,-95.8111"/>
<polygon fill="midnightblue" stroke="midnightblue" points="701.014,-93.9051 693.2,-86.7511 694.847,-97.217 701.014,-93.9051"/>
</g>
<!-- Node5 -->
<g id="node5" class="node"><title>Node5</title>
<polygon fill="white" stroke="#bfbfbf" points="965.5,-6 965.5,-25 1009.5,-25 1009.5,-6 965.5,-6"/>
<text text-anchor="middle" x="987.5" y="-13" font-family="Helvetica,sans-Serif" font-size="10.00">string</text>
</g>
<!-- Node2&#45;&gt;Node5 -->
<g id="edge4" class="edge"><title>Node2&#45;&gt;Node5</title>
<path fill="none" stroke="midnightblue" d="M744.234,-125.219C773.207,-117.484 820.522,-103.718 859.5,-87 869.996,-82.4982 929.057,-49.4482 963.169,-30.2389"/>
<polygon fill="midnightblue" stroke="midnightblue" points="965.074,-33.1825 972.067,-25.2231 961.637,-27.0845 965.074,-33.1825"/>
</g>
<!-- Node6 -->
<g id="node6" class="node"><title>Node6</title>
<polygon fill="white" stroke="#bfbfbf" points="775.5,-6 775.5,-25 817.5,-25 817.5,-6 775.5,-6"/>
<text text-anchor="middle" x="796.5" y="-13" font-family="Helvetica,sans-Serif" font-size="10.00">utility</text>
</g>
<!-- Node2&#45;&gt;Node6 -->
<g id="edge5" class="edge"><title>Node2&#45;&gt;Node6</title>
<path fill="none" stroke="midnightblue" d="M723.438,-123.319C736.42,-104.339 767.535,-58.848 784.675,-33.7882"/>
<polygon fill="midnightblue" stroke="midnightblue" points="787.737,-35.5119 790.493,-25.282 781.959,-31.56 787.737,-35.5119"/>
</g>
<!-- Node7 -->
<g id="node7" class="node"><title>Node7</title>
<polygon fill="white" stroke="#bfbfbf" points="907.5,-67.5 907.5,-86.5 957.5,-86.5 957.5,-67.5 907.5,-67.5"/>
<text text-anchor="middle" x="932.5" y="-74.5" font-family="Helvetica,sans-Serif" font-size="10.00">variant</text>
</g>
<!-- Node2&#45;&gt;Node7 -->
<g id="edge6" class="edge"><title>Node2&#45;&gt;Node7</title>
<path fill="none" stroke="midnightblue" d="M744.295,-125.27C783.062,-115.533 854.829,-97.5081 897.661,-86.7502"/>
<polygon fill="midnightblue" stroke="midnightblue" points="898.527,-90.1416 907.373,-84.3109 896.822,-83.3524 898.527,-90.1416"/>
</g>
<!-- Node8 -->
<g id="node8" class="node"><title>Node8</title>
<polygon fill="white" stroke="#bfbfbf" points="564,-6 564,-25 611,-25 611,-6 564,-6"/>
<text text-anchor="middle" x="587.5" y="-13" font-family="Helvetica,sans-Serif" font-size="10.00">vector</text>
</g>
<!-- Node2&#45;&gt;Node8 -->
<g id="edge7" class="edge"><title>Node2&#45;&gt;Node8</title>
<path fill="none" stroke="midnightblue" d="M699.58,-123.4C683.814,-115.321 660.751,-102.22 643.5,-87 625.446,-71.071 608.844,-48.7878 598.483,-33.5635"/>
<polygon fill="midnightblue" stroke="midnightblue" points="601.325,-31.5158 592.881,-25.1163 595.491,-35.3846 601.325,-31.5158"/>
</g>
<!-- Node9 -->
<g id="node9" class="node"><title>Node9</title>
<polygon fill="white" stroke="#bfbfbf" points="629.5,-6 629.5,-25 757.5,-25 757.5,-6 629.5,-6"/>
<text text-anchor="middle" x="693.5" y="-13" font-family="Helvetica,sans-Serif" font-size="10.00">boost/noncopyable.hpp</text>
</g>
<!-- Node2&#45;&gt;Node9 -->
<g id="edge8" class="edge"><title>Node2&#45;&gt;Node9</title>
<path fill="none" stroke="midnightblue" d="M694.712,-123.471C679.174,-116.316 659.793,-104.435 650.5,-87 640.107,-67.4994 657.816,-45.9243 673.556,-31.8418"/>
<polygon fill="midnightblue" stroke="midnightblue" points="676.043,-34.3236 681.448,-25.2111 671.54,-28.9641 676.043,-34.3236"/>
</g>
<!-- Node10 -->
<g id="node10" class="node"><title>Node10</title>
<g id="a_node10"><a xlink:href="element_8h.xhtml" target="_top" xlink:title="Helper classes, structs, and properties common to all other classes. ">
<polygon fill="white" stroke="black" points="472,-67.5 472,-86.5 537,-86.5 537,-67.5 472,-67.5"/>
<text text-anchor="middle" x="504.5" y="-74.5" font-family="Helvetica,sans-Serif" font-size="10.00">element.h</text>
</a>
</g>
</g>
<!-- Node2&#45;&gt;Node10 -->
<g id="edge9" class="edge"><title>Node2&#45;&gt;Node10</title>
<path fill="none" stroke="midnightblue" d="M690.954,-125.27C654.922,-116.135 590.116,-99.7054 547.2,-88.8253"/>
<polygon fill="midnightblue" stroke="midnightblue" points="547.88,-85.387 537.326,-86.3222 546.159,-92.1724 547.88,-85.387"/>
</g>
<!-- Node14 -->
<g id="node14" class="node"><title>Node14</title>
<g id="a_node14"><a xlink:href="expression_8h.xhtml" target="_top" xlink:title="Provides the base class for all expressions and units for expression values. ">
<polygon fill="white" stroke="black" points="774,-67.5 774,-86.5 851,-86.5 851,-67.5 774,-67.5"/>
<text text-anchor="middle" x="812.5" y="-74.5" font-family="Helvetica,sans-Serif" font-size="10.00">expression.h</text>
</a>
</g>
</g>
<!-- Node2&#45;&gt;Node14 -->
<g id="edge17" class="edge"><title>Node2&#45;&gt;Node14</title>
<path fill="none" stroke="midnightblue" d="M732.763,-123.324C747.721,-114.822 770.755,-101.729 788.227,-91.7975"/>
<polygon fill="midnightblue" stroke="midnightblue" points="790.31,-94.639 797.274,-86.6545 786.851,-88.5534 790.31,-94.639"/>
</g>
<!-- Node10&#45;&gt;Node3 -->
<g id="edge10" class="edge"><title>Node10&#45;&gt;Node3</title>
<path fill="none" stroke="midnightblue" d="M471.731,-76.0521C397.133,-75.4482 209.426,-69.8331 58.5,-31 56.1403,-30.3929 53.7327,-29.6469 51.3433,-28.8165"/>
<polygon fill="midnightblue" stroke="midnightblue" points="52.38,-25.4636 41.7925,-25.0683 49.8226,-31.9797 52.38,-25.4636"/>
</g>
<!-- Node10&#45;&gt;Node5 -->
<g id="edge11" class="edge"><title>Node10&#45;&gt;Node5</title>
<path fill="none" stroke="midnightblue" d="M537.222,-74.1787C627.257,-68.9396 877.231,-52.7993 956.5,-31 958.434,-30.4683 960.396,-29.8247 962.346,-29.1081"/>
<polygon fill="midnightblue" stroke="midnightblue" points="963.966,-32.223 971.804,-25.0951 961.232,-25.7791 963.966,-32.223"/>
</g>
<!-- Node10&#45;&gt;Node8 -->
<g id="edge12" class="edge"><title>Node10&#45;&gt;Node8</title>
<path fill="none" stroke="midnightblue" d="M516.392,-67.4751C529.705,-57.9315 551.5,-42.3073 567.457,-30.8683"/>
<polygon fill="midnightblue" stroke="midnightblue" points="569.542,-33.68 575.63,-25.0091 565.464,-27.9908 569.542,-33.68"/>
</g>
<!-- Node10&#45;&gt;Node9 -->
<g id="edge16" class="edge"><title>Node10&#45;&gt;Node9</title>
<path fill="none" stroke="midnightblue" d="M531.579,-67.4751C564.42,-57.1362 619.93,-39.6611 656.648,-28.1017"/>
<polygon fill="midnightblue" stroke="midnightblue" points="657.984,-31.3505 666.471,-25.0091 655.882,-24.6735 657.984,-31.3505"/>
</g>
<!-- Node11 -->
<g id="node11" class="node"><title>Node11</title>
<polygon fill="white" stroke="#bfbfbf" points="257.5,-0.5 257.5,-30.5 397.5,-30.5 397.5,-0.5 257.5,-0.5"/>
<text text-anchor="start" x="265.5" y="-18.5" font-family="Helvetica,sans-Serif" font-size="10.00">boost/multi_index/hashed</text>
<text text-anchor="middle" x="327.5" y="-7.5" font-family="Helvetica,sans-Serif" font-size="10.00">_index.hpp</text>
</g>
<!-- Node10&#45;&gt;Node11 -->
<g id="edge13" class="edge"><title>Node10&#45;&gt;Node11</title>
<path fill="none" stroke="midnightblue" d="M479.14,-67.4751C453.04,-58.7012 411.651,-44.788 378.703,-33.7123"/>
<polygon fill="midnightblue" stroke="midnightblue" points="379.809,-30.3918 369.215,-30.523 377.579,-37.027 379.809,-30.3918"/>
</g>
<!-- Node12 -->
<g id="node12" class="node"><title>Node12</title>
<polygon fill="white" stroke="#bfbfbf" points="415.5,-0.5 415.5,-30.5 545.5,-30.5 545.5,-0.5 415.5,-0.5"/>
<text text-anchor="start" x="423.5" y="-18.5" font-family="Helvetica,sans-Serif" font-size="10.00">boost/multi_index/mem</text>
<text text-anchor="middle" x="480.5" y="-7.5" font-family="Helvetica,sans-Serif" font-size="10.00">_fun.hpp</text>
</g>
<!-- Node10&#45;&gt;Node12 -->
<g id="edge14" class="edge"><title>Node10&#45;&gt;Node12</title>
<path fill="none" stroke="midnightblue" d="M501.061,-67.4751C498.175,-60.3204 493.911,-49.7483 490.013,-40.0841"/>
<polygon fill="midnightblue" stroke="midnightblue" points="493.143,-38.4877 486.156,-30.523 486.651,-41.1062 493.143,-38.4877"/>
</g>
<!-- Node13 -->
<g id="node13" class="node"><title>Node13</title>
<polygon fill="white" stroke="#bfbfbf" points="67.5,-6 67.5,-25 239.5,-25 239.5,-6 67.5,-6"/>
<text text-anchor="middle" x="153.5" y="-13" font-family="Helvetica,sans-Serif" font-size="10.00">boost/multi_index_container.hpp</text>
</g>
<!-- Node10&#45;&gt;Node13 -->
<g id="edge15" class="edge"><title>Node10&#45;&gt;Node13</title>
<path fill="none" stroke="midnightblue" d="M471.794,-70.4558C413.035,-60.4953 288.785,-39.4329 214.089,-26.7708"/>
<polygon fill="midnightblue" stroke="midnightblue" points="214.334,-23.2625 203.89,-25.0419 213.164,-30.1641 214.334,-23.2625"/>
</g>
<!-- Node14&#45;&gt;Node5 -->
<g id="edge19" class="edge"><title>Node14&#45;&gt;Node5</title>
<path fill="none" stroke="midnightblue" d="M844.098,-67.4525C873.557,-59.1731 918.53,-45.7357 956.5,-31 957.919,-30.4491 959.365,-29.8633 960.818,-29.255"/>
<polygon fill="midnightblue" stroke="midnightblue" points="962.579,-32.3028 970.299,-25.047 959.739,-25.9046 962.579,-32.3028"/>
</g>
<!-- Node14&#45;&gt;Node6 -->
<g id="edge20" class="edge"><title>Node14&#45;&gt;Node6</title>
<path fill="none" stroke="midnightblue" d="M810.208,-67.4751C807.926,-58.9919 804.353,-45.7043 801.427,-34.8222"/>
<polygon fill="midnightblue" stroke="midnightblue" points="804.765,-33.7571 798.788,-25.0091 798.005,-35.5749 804.765,-33.7571"/>
</g>
<!-- Node14&#45;&gt;Node8 -->
<g id="edge21" class="edge"><title>Node14&#45;&gt;Node8</title>
<path fill="none" stroke="midnightblue" d="M773.671,-69.0775C734.471,-61.584 672.461,-48.3412 620.5,-31 618.63,-30.376 616.721,-29.686 614.81,-28.9557"/>
<polygon fill="midnightblue" stroke="midnightblue" points="615.999,-25.6604 605.42,-25.0875 613.333,-32.1327 615.999,-25.6604"/>
</g>
<!-- Node14&#45;&gt;Node9 -->
<g id="edge23" class="edge"><title>Node14&#45;&gt;Node9</title>
<path fill="none" stroke="midnightblue" d="M795.45,-67.4751C775.656,-57.578 742.783,-41.1416 719.73,-29.6151"/>
<polygon fill="midnightblue" stroke="midnightblue" points="721.028,-26.3508 710.518,-25.0091 717.897,-32.6118 721.028,-26.3508"/>
</g>
<!-- Node15 -->
<g id="node15" class="node"><title>Node15</title>
<polygon fill="white" stroke="#bfbfbf" points="1438.5,-6 1438.5,-25 1500.5,-25 1500.5,-6 1438.5,-6"/>
<text text-anchor="middle" x="1469.5" y="-13" font-family="Helvetica,sans-Serif" font-size="10.00">algorithm</text>
</g>
<!-- Node14&#45;&gt;Node15 -->
<g id="edge18" class="edge"><title>Node14&#45;&gt;Node15</title>
<path fill="none" stroke="midnightblue" d="M851.016,-71.8359C865.853,-70.2669 882.96,-68.5003 898.5,-67 1096.66,-47.8699 1333.78,-27.8014 1427.98,-19.9419"/>
<polygon fill="midnightblue" stroke="midnightblue" points="1428.55,-23.4067 1438.23,-19.0883 1427.97,-16.4308 1428.55,-23.4067"/>
</g>
<!-- Node16 -->
<g id="node16" class="node"><title>Node16</title>
<polygon fill="white" stroke="#bfbfbf" points="835.5,-0.5 835.5,-30.5 947.5,-30.5 947.5,-0.5 835.5,-0.5"/>
<text text-anchor="start" x="843.5" y="-18.5" font-family="Helvetica,sans-Serif" font-size="10.00">boost/icl/continuous</text>
<text text-anchor="middle" x="891.5" y="-7.5" font-family="Helvetica,sans-Serif" font-size="10.00">_interval.hpp</text>
</g>
<!-- Node14&#45;&gt;Node16 -->
<g id="edge22" class="edge"><title>Node14&#45;&gt;Node16</title>
<path fill="none" stroke="midnightblue" d="M823.819,-67.4751C834.418,-59.492 850.667,-47.2542 864.586,-36.7703"/>
<polygon fill="midnightblue" stroke="midnightblue" points="866.999,-39.3349 872.881,-30.523 862.788,-33.7434 866.999,-39.3349"/>
</g>
<!-- Node18&#45;&gt;Node5 -->
<g id="edge27" class="edge"><title>Node18&#45;&gt;Node5</title>
<path fill="none" stroke="midnightblue" d="M1239.14,-131.086C1181.35,-128.414 1038.3,-118.681 1004.5,-87 990.604,-73.9737 987.195,-51.7235 986.731,-35.6999"/>
<polygon fill="midnightblue" stroke="midnightblue" points="990.233,-35.3788 986.806,-25.3536 983.233,-35.328 990.233,-35.3788"/>
</g>
<!-- Node19 -->
<g id="node19" class="node"><title>Node19</title>
<polygon fill="white" stroke="#bfbfbf" points="1282,-67.5 1282,-86.5 1345,-86.5 1345,-67.5 1282,-67.5"/>
<text text-anchor="middle" x="1313.5" y="-74.5" font-family="Helvetica,sans-Serif" font-size="10.00">exception</text>
</g>
<!-- Node18&#45;&gt;Node19 -->
<g id="edge26" class="edge"><title>Node18&#45;&gt;Node19</title>
<path fill="none" stroke="midnightblue" d="M1271.76,-123.083C1278.96,-115.298 1289.61,-103.801 1298.35,-94.3665"/>
<polygon fill="midnightblue" stroke="midnightblue" points="1301.17,-96.4666 1305.4,-86.7511 1296.03,-91.7108 1301.17,-96.4666"/>
</g>
<!-- Node20 -->
<g id="node20" class="node"><title>Node20</title>
<polygon fill="white" stroke="#bfbfbf" points="1363.5,-67.5 1363.5,-86.5 1509.5,-86.5 1509.5,-67.5 1363.5,-67.5"/>
<text text-anchor="middle" x="1436.5" y="-74.5" font-family="Helvetica,sans-Serif" font-size="10.00">boost/current_function.hpp</text>
</g>
<!-- Node18&#45;&gt;Node20 -->
<g id="edge28" class="edge"><title>Node18&#45;&gt;Node20</title>
<path fill="none" stroke="midnightblue" d="M1287.55,-124.492C1316.5,-115.457 1365.42,-100.188 1399.25,-89.6263"/>
<polygon fill="midnightblue" stroke="midnightblue" points="1400.73,-92.8325 1409.23,-86.5118 1398.64,-86.1504 1400.73,-92.8325"/>
</g>
<!-- Node21 -->
<g id="node21" class="node"><title>Node21</title>
<polygon fill="white" stroke="#bfbfbf" points="1527.5,-67.5 1527.5,-86.5 1691.5,-86.5 1691.5,-67.5 1527.5,-67.5"/>
<text text-anchor="middle" x="1609.5" y="-74.5" font-family="Helvetica,sans-Serif" font-size="10.00">boost/exception/exception.hpp</text>
</g>
<!-- Node18&#45;&gt;Node21 -->
<g id="edge29" class="edge"><title>Node18&#45;&gt;Node21</title>
<path fill="none" stroke="midnightblue" d="M1287.56,-128.246C1340.14,-120.04 1466.81,-100.269 1544.67,-88.1175"/>
<polygon fill="midnightblue" stroke="midnightblue" points="1545.51,-91.5288 1554.85,-86.5286 1544.43,-84.6126 1545.51,-91.5288"/>
</g>
<!-- Node22 -->
<g id="node22" class="node"><title>Node22</title>
<polygon fill="white" stroke="#bfbfbf" points="1013.5,-67.5 1013.5,-86.5 1147.5,-86.5 1147.5,-67.5 1013.5,-67.5"/>
<text text-anchor="middle" x="1080.5" y="-74.5" font-family="Helvetica,sans-Serif" font-size="10.00">boost/exception/info.hpp</text>
</g>
<!-- Node18&#45;&gt;Node22 -->
<g id="edge30" class="edge"><title>Node18&#45;&gt;Node22</title>
<path fill="none" stroke="midnightblue" d="M1239.2,-124.829C1208.54,-115.782 1155.44,-100.114 1119.18,-89.4139"/>
<polygon fill="midnightblue" stroke="midnightblue" points="1120.01,-86.0105 1109.43,-86.5371 1118.03,-92.7243 1120.01,-86.0105"/>
</g>
<!-- Node23 -->
<g id="node23" class="node"><title>Node23</title>
<g id="a_node23"><a xlink:href="source__info_8h.xhtml" target="_top" xlink:title="Helper facilities to get source file information. ">
<polygon fill="white" stroke="black" points="1165.5,-67.5 1165.5,-86.5 1263.5,-86.5 1263.5,-67.5 1165.5,-67.5"/>
<text text-anchor="middle" x="1214.5" y="-74.5" font-family="Helvetica,sans-Serif" font-size="10.00">ext/source_info.h</text>
</a>
</g>
</g>
<!-- Node18&#45;&gt;Node23 -->
<g id="edge31" class="edge"><title>Node18&#45;&gt;Node23</title>
<path fill="none" stroke="midnightblue" d="M1255.41,-123.083C1248.34,-115.298 1237.91,-103.801 1229.35,-94.3665"/>
<polygon fill="midnightblue" stroke="midnightblue" points="1231.75,-91.8047 1222.44,-86.7511 1226.57,-96.5087 1231.75,-91.8047"/>
</g>
<!-- Node24&#45;&gt;Node15 -->
<g id="edge33" class="edge"><title>Node24&#45;&gt;Node15</title>
<path fill="none" stroke="midnightblue" d="M1807.75,-123.417C1838.61,-111.995 1883.16,-90.4877 1862.5,-67 1839.51,-40.8642 1607.19,-24.4874 1510.93,-18.7764"/>
<polygon fill="midnightblue" stroke="midnightblue" points="1510.88,-15.2678 1500.7,-18.1791 1510.48,-22.2559 1510.88,-15.2678"/>
</g>
<!-- Node24&#45;&gt;Node17 -->
<g id="edge34" class="edge"><title>Node24&#45;&gt;Node17</title>
<path fill="none" stroke="midnightblue" d="M1781.5,-123.083C1781.5,-116.006 1781.5,-105.861 1781.5,-96.9865"/>
<polygon fill="midnightblue" stroke="midnightblue" points="1785,-96.751 1781.5,-86.7511 1778,-96.7511 1785,-96.751"/>
</g>
<!-- Node25&#45;&gt;Node7 -->
<g id="edge36" class="edge"><title>Node25&#45;&gt;Node7</title>
<path fill="none" stroke="midnightblue" d="M1058.73,-123.444C1033.61,-114.399 993.789,-100.064 965.6,-89.9158"/>
<polygon fill="midnightblue" stroke="midnightblue" points="966.751,-86.6106 956.157,-86.5164 964.38,-93.1968 966.751,-86.6106"/>
</g>
</g>
</svg>
        <g id="navigator" transform="translate(0 0)" fill="#404254">
                <rect fill="#f2f5e9" fill-opacity="0.5" stroke="#606060" stroke-width=".5" x="0" y="0" width="60" height="60"/>
                <use id="zoomplus" xlink:href="#zoomPlus" x="17" y="9" onmousedown="handleZoom(evt,'in')"/>
                <use id="zoomminus" xlink:href="#zoomMin" x="42" y="9" onmousedown="handleZoom(evt,'out')"/>
                <use id="reset" xlink:href="#resetDef" x="30" y="36" onmousedown="handleReset()"/>
                <g id="arrowUp" xlink:href="#dirArrow" transform="translate(30 24)" onmousedown="handlePan(0,-1)">
                  <use xlink:href="#rim" fill="#404040">
                        <set attributeName="fill" to="#808080" begin="arrowUp.mouseover" end="arrowUp.mouseout"/>
                  </use>
                  <path fill="none" stroke="white" stroke-width="1.5" d="M0,-3.0v7 M-2.5,-0.5L0,-3.0L2.5,-0.5"/>
                </g>
                <g id="arrowRight" xlink:href="#dirArrow" transform="rotate(90) translate(36 -43)" onmousedown="handlePan(1,0)">
                  <use xlink:href="#rim" fill="#404040">
                        <set attributeName="fill" to="#808080" begin="arrowRight.mouseover" end="arrowRight.mouseout"/>
                  </use>
                  <path fill="none" stroke="white" stroke-width="1.5" d="M0,-3.0v7 M-2.5,-0.5L0,-3.0L2.5,-0.5"/>
                </g>
                <g id="arrowDown" xlink:href="#dirArrow" transform="rotate(180) translate(-30 -48)" onmousedown="handlePan(0,1)">
                  <use xlink:href="#rim" fill="#404040">
                        <set attributeName="fill" to="#808080" begin="arrowDown.mouseover" end="arrowDown.mouseout"/>
                  </use>
                  <path fill="none" stroke="white" stroke-width="1.5" d="M0,-3.0v7 M-2.5,-0.5L0,-3.0L2.5,-0.5"/>
                </g>
                <g id="arrowLeft" xlink:href="#dirArrow" transform="rotate(270) translate(-36 17)" onmousedown="handlePan(-1,0)">
                  <use xlink:href="#rim" fill="#404040">
                        <set attributeName="fill" to="#808080" begin="arrowLeft.mouseover" end="arrowLeft.mouseout"/>
                  </use>
                  <path fill="none" stroke="white" stroke-width="1.5" d="M0,-3.0v7 M-2.5,-0.5L0,-3.0L2.5,-0.5"/>
                </g>
        </g>
        <svg viewBox="0 0 15 15" width="100%" height="30px" preserveAspectRatio="xMaxYMin meet">
         <g id="arrow_out" transform="scale(0.3 0.3)">
          <a xlink:href="event_8cc__incl_org.svg" target="_base">
           <rect id="button" ry="5" rx="5" y="6" x="6" height="38" width="38"
                fill="#f2f5e9" fill-opacity="0.5" stroke="#606060" stroke-width="1.0"/>
           <path id="arrow"
             d="M 11.500037,31.436501 C 11.940474,20.09759 22.043105,11.32322 32.158766,21.979434 L 37.068811,17.246167 C 37.068811,17.246167 37.088388,32 37.088388,32 L 22.160133,31.978069 C 22.160133,31.978069 26.997745,27.140456 26.997745,27.140456 C 18.528582,18.264221 13.291696,25.230495 11.500037,31.436501 z"
             style="fill:#404040;"/>
          </a>
         </g>
        </svg>
</svg>
