<?xml version="1.0" encoding="UTF-8" standalone="no"?>
<!DOCTYPE svg PUBLIC "-//W3C//DTD SVG 1.1//EN"
 "http://www.w3.org/Graphics/SVG/1.1/DTD/svg11.dtd">
<!-- Generated by graphviz version 2.38.0 (20140413.2041)
 -->
<!-- Title: event_tree_analysis.h Pages: 1 -->
<svg width="1277pt" height="319pt"
 viewBox="0.00 0.00 1277.00 319.00" xmlns="http://www.w3.org/2000/svg" xmlns:xlink="http://www.w3.org/1999/xlink">
<g id="graph0" class="graph" transform="scale(1 1) rotate(0) translate(4 315)">
<title>event_tree_analysis.h</title>
<polygon fill="white" stroke="none" points="-4,4 -4,-315 1273,-315 1273,4 -4,4"/>
<!-- Node1 -->
<g id="node1" class="node"><title>Node1</title>
<polygon fill="#bfbfbf" stroke="black" points="342,-291.5 342,-310.5 463,-310.5 463,-291.5 342,-291.5"/>
<text text-anchor="middle" x="402.5" y="-298.5" font-family="Helvetica,sans-Serif" font-size="10.00">event_tree_analysis.h</text>
</g>
<!-- Node2 -->
<g id="node2" class="node"><title>Node2</title>
<polygon fill="white" stroke="#bfbfbf" points="950,-67.5 950,-86.5 1007,-86.5 1007,-67.5 950,-67.5"/>
<text text-anchor="middle" x="978.5" y="-74.5" font-family="Helvetica,sans-Serif" font-size="10.00">memory</text>
</g>
<!-- Node1&#45;&gt;Node2 -->
<g id="edge1" class="edge"><title>Node1&#45;&gt;Node2</title>
<path fill="none" stroke="midnightblue" d="M463.179,-299.124C576.77,-296.717 816.866,-287.793 892.5,-255 954.546,-228.098 974.862,-207.401 995.5,-143 1000.55,-127.244 994.784,-108.993 988.638,-95.8491"/>
<polygon fill="midnightblue" stroke="midnightblue" points="991.729,-94.2055 984.038,-86.919 985.506,-97.4116 991.729,-94.2055"/>
</g>
<!-- Node3 -->
<g id="node3" class="node"><title>Node3</title>
<polygon fill="white" stroke="#bfbfbf" points="180.5,-6 180.5,-25 224.5,-25 224.5,-6 180.5,-6"/>
<text text-anchor="middle" x="202.5" y="-13" font-family="Helvetica,sans-Serif" font-size="10.00">string</text>
</g>
<!-- Node1&#45;&gt;Node3 -->
<g id="edge2" class="edge"><title>Node1&#45;&gt;Node3</title>
<path fill="none" stroke="midnightblue" d="M341.924,-291.719C289.588,-280.784 218.279,-255.745 191.5,-199 165.463,-143.828 184.722,-68.6306 195.939,-34.5756"/>
<polygon fill="midnightblue" stroke="midnightblue" points="199.276,-35.6367 199.231,-25.042 192.659,-33.3522 199.276,-35.6367"/>
</g>
<!-- Node4 -->
<g id="node4" class="node"><title>Node4</title>
<polygon fill="white" stroke="#bfbfbf" points="201,-179.5 201,-198.5 294,-198.5 294,-179.5 201,-179.5"/>
<text text-anchor="middle" x="247.5" y="-186.5" font-family="Helvetica,sans-Serif" font-size="10.00">unordered_map</text>
</g>
<!-- Node1&#45;&gt;Node4 -->
<g id="edge3" class="edge"><title>Node1&#45;&gt;Node4</title>
<path fill="none" stroke="midnightblue" d="M352.35,-291.469C327.363,-285.035 298.157,-273.937 277.5,-255 264.067,-242.686 256.18,-223.154 251.893,-208.713"/>
<polygon fill="midnightblue" stroke="midnightblue" points="255.228,-207.636 249.284,-198.865 248.462,-209.428 255.228,-207.636"/>
</g>
<!-- Node5 -->
<g id="node5" class="node"><title>Node5</title>
<polygon fill="white" stroke="#bfbfbf" points="1222,-6 1222,-25 1269,-25 1269,-6 1222,-6"/>
<text text-anchor="middle" x="1245.5" y="-13" font-family="Helvetica,sans-Serif" font-size="10.00">vector</text>
</g>
<!-- Node1&#45;&gt;Node5 -->
<g id="edge4" class="edge"><title>Node1&#45;&gt;Node5</title>
<path fill="none" stroke="midnightblue" d="M463.088,-297.21C638.022,-288.354 1131.5,-257.397 1131.5,-190 1131.5,-190 1131.5,-190 1131.5,-132 1131.5,-83.1978 1183.69,-47.5591 1217.45,-29.6129"/>
<polygon fill="midnightblue" stroke="midnightblue" points="1219.11,-32.6934 1226.42,-25.024 1215.92,-26.4611 1219.11,-32.6934"/>
</g>
<!-- Node6 -->
<g id="node6" class="node"><title>Node6</title>
<g id="a_node6"><a xlink:href="analysis_8h.xhtml" target="_top" xlink:title="Common facilities for all analysis classes. ">
<polygon fill="white" stroke="black" points="102.5,-123.5 102.5,-142.5 166.5,-142.5 166.5,-123.5 102.5,-123.5"/>
<text text-anchor="middle" x="134.5" y="-130.5" font-family="Helvetica,sans-Serif" font-size="10.00">analysis.h</text>
</a>
</g>
</g>
<!-- Node1&#45;&gt;Node6 -->
<g id="edge5" class="edge"><title>Node1&#45;&gt;Node6</title>
<path fill="none" stroke="midnightblue" d="M341.804,-296.468C278.132,-291.473 183.835,-279.997 158.5,-255 131.155,-228.019 130.347,-179.443 132.314,-152.78"/>
<polygon fill="midnightblue" stroke="midnightblue" points="135.798,-153.108 133.257,-142.822 128.829,-152.447 135.798,-153.108"/>
</g>
<!-- Node9 -->
<g id="node9" class="node"><title>Node9</title>
<g id="a_node9"><a xlink:href="settings_8h.xhtml" target="_top" xlink:title="Builder for settings. ">
<polygon fill="white" stroke="black" points="2.5,-67.5 2.5,-86.5 66.5,-86.5 66.5,-67.5 2.5,-67.5"/>
<text text-anchor="middle" x="34.5" y="-74.5" font-family="Helvetica,sans-Serif" font-size="10.00">settings.h</text>
</a>
</g>
</g>
<!-- Node1&#45;&gt;Node9 -->
<g id="edge56" class="edge"><title>Node1&#45;&gt;Node9</title>
<path fill="none" stroke="midnightblue" d="M341.893,-295.368C275.227,-289.274 173.307,-276.709 141.5,-255 83.7128,-215.559 51.9066,-133.622 40.0081,-96.725"/>
<polygon fill="midnightblue" stroke="midnightblue" points="43.2431,-95.3387 36.9478,-86.817 36.5549,-97.4045 43.2431,-95.3387"/>
</g>
<!-- Node12 -->
<g id="node12" class="node"><title>Node12</title>
<g id="a_node12"><a xlink:href="event_8h.xhtml" target="_top" xlink:title="Contains event classes for fault trees. ">
<polygon fill="white" stroke="black" points="593,-123.5 593,-142.5 646,-142.5 646,-123.5 593,-123.5"/>
<text text-anchor="middle" x="619.5" y="-130.5" font-family="Helvetica,sans-Serif" font-size="10.00">event.h</text>
</a>
</g>
</g>
<!-- Node1&#45;&gt;Node12 -->
<g id="edge12" class="edge"><title>Node1&#45;&gt;Node12</title>
<path fill="none" stroke="midnightblue" d="M414.476,-291.496C427.031,-282.537 447.287,-267.959 464.5,-255 514.18,-217.598 571.637,-172.16 600.651,-149.059"/>
<polygon fill="midnightblue" stroke="midnightblue" points="603.064,-151.611 608.702,-142.64 598.701,-146.138 603.064,-151.611"/>
</g>
<!-- Node19 -->
<g id="node19" class="node"><title>Node19</title>
<g id="a_node19"><a xlink:href="expression_8h.xhtml" target="_top" xlink:title="Provides the base class for all expressions and units for expression values. ">
<polygon fill="white" stroke="black" points="455,-67.5 455,-86.5 532,-86.5 532,-67.5 455,-67.5"/>
<text text-anchor="middle" x="493.5" y="-74.5" font-family="Helvetica,sans-Serif" font-size="10.00">expression.h</text>
</a>
</g>
</g>
<!-- Node1&#45;&gt;Node19 -->
<g id="edge51" class="edge"><title>Node1&#45;&gt;Node19</title>
<path fill="none" stroke="midnightblue" d="M407.625,-291.204C412.735,-282.254 420.647,-267.901 426.5,-255 452.122,-198.524 476.383,-129.11 487.362,-96.536"/>
<polygon fill="midnightblue" stroke="midnightblue" points="490.822,-97.226 490.672,-86.6322 484.183,-95.0071 490.822,-97.226"/>
</g>
<!-- Node22 -->
<g id="node22" class="node"><title>Node22</title>
<g id="a_node22"><a xlink:href="event__tree_8h.xhtml" target="_top" xlink:title="Event Tree facilities. ">
<polygon fill="white" stroke="black" points="807,-235.5 807,-254.5 884,-254.5 884,-235.5 807,-235.5"/>
<text text-anchor="middle" x="845.5" y="-242.5" font-family="Helvetica,sans-Serif" font-size="10.00">event_tree.h</text>
</a>
</g>
</g>
<!-- Node1&#45;&gt;Node22 -->
<g id="edge35" class="edge"><title>Node1&#45;&gt;Node22</title>
<path fill="none" stroke="midnightblue" d="M463.168,-292.605C551.908,-281.788 715.371,-261.862 796.778,-251.939"/>
<polygon fill="midnightblue" stroke="midnightblue" points="797.257,-255.407 806.76,-250.722 796.41,-248.458 797.257,-255.407"/>
</g>
<!-- Node25 -->
<g id="node25" class="node"><title>Node25</title>
<g id="a_node25"><a xlink:href="test__event_8h.xhtml" target="_top" xlink:title="Event tree analysis expressions to test functional and initiating events. ">
<polygon fill="white" stroke="black" points="287,-235.5 287,-254.5 418,-254.5 418,-235.5 287,-235.5"/>
<text text-anchor="middle" x="352.5" y="-242.5" font-family="Helvetica,sans-Serif" font-size="10.00">expression/test_event.h</text>
</a>
</g>
</g>
<!-- Node1&#45;&gt;Node25 -->
<g id="edge52" class="edge"><title>Node1&#45;&gt;Node25</title>
<path fill="none" stroke="midnightblue" d="M394.244,-291.083C387.035,-283.298 376.39,-271.801 367.654,-262.367"/>
<polygon fill="midnightblue" stroke="midnightblue" points="369.965,-259.711 360.603,-254.751 364.829,-264.467 369.965,-259.711"/>
</g>
<!-- Node6&#45;&gt;Node3 -->
<g id="edge7" class="edge"><title>Node6&#45;&gt;Node3</title>
<path fill="none" stroke="midnightblue" d="M139.611,-123.319C150.736,-104.422 177.332,-59.2483 192.126,-34.1206"/>
<polygon fill="midnightblue" stroke="midnightblue" points="195.272,-35.6752 197.33,-25.282 189.24,-32.1237 195.272,-35.6752"/>
</g>
<!-- Node7 -->
<g id="node7" class="node"><title>Node7</title>
<polygon fill="white" stroke="#bfbfbf" points="84.5,-67.5 84.5,-86.5 136.5,-86.5 136.5,-67.5 84.5,-67.5"/>
<text text-anchor="middle" x="110.5" y="-74.5" font-family="Helvetica,sans-Serif" font-size="10.00">cassert</text>
</g>
<!-- Node6&#45;&gt;Node7 -->
<g id="edge6" class="edge"><title>Node6&#45;&gt;Node7</title>
<path fill="none" stroke="midnightblue" d="M130.537,-123.083C127.287,-115.77 122.581,-105.181 118.546,-96.1034"/>
<polygon fill="midnightblue" stroke="midnightblue" points="121.649,-94.4677 114.389,-86.7511 115.252,-97.3107 121.649,-94.4677"/>
</g>
<!-- Node8 -->
<g id="node8" class="node"><title>Node8</title>
<polygon fill="white" stroke="#bfbfbf" points="579.5,-6 579.5,-25 707.5,-25 707.5,-6 579.5,-6"/>
<text text-anchor="middle" x="643.5" y="-13" font-family="Helvetica,sans-Serif" font-size="10.00">boost/noncopyable.hpp</text>
</g>
<!-- Node6&#45;&gt;Node8 -->
<g id="edge8" class="edge"><title>Node6&#45;&gt;Node8</title>
<path fill="none" stroke="midnightblue" d="M166.726,-124.687C253.754,-104.939 493.842,-50.4596 596.236,-27.2249"/>
<polygon fill="midnightblue" stroke="midnightblue" points="597.019,-30.6363 605.997,-25.0101 595.47,-23.8099 597.019,-30.6363"/>
</g>
<!-- Node6&#45;&gt;Node9 -->
<g id="edge9" class="edge"><title>Node6&#45;&gt;Node9</title>
<path fill="none" stroke="midnightblue" d="M118.433,-123.324C102.542,-114.743 77.9926,-101.486 59.5415,-91.5224"/>
<polygon fill="midnightblue" stroke="midnightblue" points="60.989,-88.3264 50.5269,-86.6545 57.6629,-94.4857 60.989,-88.3264"/>
</g>
<!-- Node10 -->
<g id="node10" class="node"><title>Node10</title>
<polygon fill="white" stroke="#bfbfbf" points="512,-6 512,-25 561,-25 561,-6 512,-6"/>
<text text-anchor="middle" x="536.5" y="-13" font-family="Helvetica,sans-Serif" font-size="10.00">cstdint</text>
</g>
<!-- Node9&#45;&gt;Node10 -->
<g id="edge10" class="edge"><title>Node9&#45;&gt;Node10</title>
<path fill="none" stroke="midnightblue" d="M66.6541,-68.5209C69.6352,-67.9548 72.6177,-67.4356 75.5,-67 264.25,-38.4732 318.491,-78.0349 503.5,-31 505.803,-30.4146 508.148,-29.6838 510.473,-28.8638"/>
<polygon fill="midnightblue" stroke="midnightblue" points="511.781,-32.1106 519.754,-25.1332 509.17,-25.6157 511.781,-32.1106"/>
</g>
<!-- Node11 -->
<g id="node11" class="node"><title>Node11</title>
<polygon fill="white" stroke="#bfbfbf" points="0,-6 0,-25 69,-25 69,-6 0,-6"/>
<text text-anchor="middle" x="34.5" y="-13" font-family="Helvetica,sans-Serif" font-size="10.00">string_view</text>
</g>
<!-- Node9&#45;&gt;Node11 -->
<g id="edge11" class="edge"><title>Node9&#45;&gt;Node11</title>
<path fill="none" stroke="midnightblue" d="M34.5,-67.4751C34.5,-59.0803 34.5,-45.9806 34.5,-35.1631"/>
<polygon fill="midnightblue" stroke="midnightblue" points="38.0001,-35.0091 34.5,-25.0091 31.0001,-35.0091 38.0001,-35.0091"/>
</g>
<!-- Node12&#45;&gt;Node2 -->
<g id="edge14" class="edge"><title>Node12&#45;&gt;Node2</title>
<path fill="none" stroke="midnightblue" d="M646.175,-128.105C698.832,-120.398 819.851,-102.598 921.5,-87 927.4,-86.0947 933.641,-85.1233 939.744,-84.1656"/>
<polygon fill="midnightblue" stroke="midnightblue" points="940.469,-87.5947 949.803,-82.581 939.38,-80.68 940.469,-87.5947"/>
</g>
<!-- Node12&#45;&gt;Node3 -->
<g id="edge15" class="edge"><title>Node12&#45;&gt;Node3</title>
<path fill="none" stroke="midnightblue" d="M592.812,-126.684C558.268,-119.444 496.46,-105.269 445.5,-87 425.659,-79.8874 422.49,-73.6825 402.5,-67 329.666,-42.6517 306.308,-55.4268 233.5,-31 231.835,-30.4413 230.141,-29.8183 228.447,-29.1533"/>
<polygon fill="midnightblue" stroke="midnightblue" points="229.514,-25.8013 218.946,-25.0402 226.733,-32.2252 229.514,-25.8013"/>
</g>
<!-- Node12&#45;&gt;Node5 -->
<g id="edge18" class="edge"><title>Node12&#45;&gt;Node5</title>
<path fill="none" stroke="midnightblue" d="M646.274,-125.609C677.835,-117.783 731.667,-103.512 776.5,-87 796.657,-79.5761 799.736,-72.5037 820.5,-67 989.615,-22.1739 1043.1,-74.7573 1212.5,-31 1214.8,-30.4057 1217.14,-29.6688 1219.47,-28.8446"/>
<polygon fill="midnightblue" stroke="midnightblue" points="1220.78,-32.0901 1228.75,-25.1068 1218.16,-25.5971 1220.78,-32.0901"/>
</g>
<!-- Node12&#45;&gt;Node8 -->
<g id="edge19" class="edge"><title>Node12&#45;&gt;Node8</title>
<path fill="none" stroke="midnightblue" d="M621.304,-123.319C625.178,-104.673 634.369,-60.443 639.628,-35.1317"/>
<polygon fill="midnightblue" stroke="midnightblue" points="643.067,-35.785 641.675,-25.282 636.214,-34.3608 643.067,-35.785"/>
</g>
<!-- Node12&#45;&gt;Node10 -->
<g id="edge13" class="edge"><title>Node12&#45;&gt;Node10</title>
<path fill="none" stroke="midnightblue" d="M613.496,-123.091C604.97,-110.495 588.801,-86.808 574.5,-67 566.239,-55.5574 556.686,-42.8647 549.225,-33.0667"/>
<polygon fill="midnightblue" stroke="midnightblue" points="551.913,-30.8195 543.059,-25.0013 546.352,-35.0713 551.913,-30.8195"/>
</g>
<!-- Node13 -->
<g id="node13" class="node"><title>Node13</title>
<polygon fill="white" stroke="#bfbfbf" points="452.5,-6 452.5,-25 494.5,-25 494.5,-6 452.5,-6"/>
<text text-anchor="middle" x="473.5" y="-13" font-family="Helvetica,sans-Serif" font-size="10.00">utility</text>
</g>
<!-- Node12&#45;&gt;Node13 -->
<g id="edge16" class="edge"><title>Node12&#45;&gt;Node13</title>
<path fill="none" stroke="midnightblue" d="M609.387,-123.446C594.468,-110.881 565.614,-86.7821 540.5,-67 524.918,-54.7267 506.956,-41.2218 493.555,-31.2681"/>
<polygon fill="midnightblue" stroke="midnightblue" points="495.597,-28.4255 485.477,-25.2886 491.432,-34.0516 495.597,-28.4255"/>
</g>
<!-- Node14 -->
<g id="node14" class="node"><title>Node14</title>
<polygon fill="white" stroke="#bfbfbf" points="862.5,-67.5 862.5,-86.5 912.5,-86.5 912.5,-67.5 862.5,-67.5"/>
<text text-anchor="middle" x="887.5" y="-74.5" font-family="Helvetica,sans-Serif" font-size="10.00">variant</text>
</g>
<!-- Node12&#45;&gt;Node14 -->
<g id="edge17" class="edge"><title>Node12&#45;&gt;Node14</title>
<path fill="none" stroke="midnightblue" d="M646.177,-126.625C694.934,-116.801 798.4,-95.953 852.65,-85.022"/>
<polygon fill="midnightblue" stroke="midnightblue" points="853.386,-88.4441 862.498,-83.0377 852.003,-81.582 853.386,-88.4441"/>
</g>
<!-- Node15 -->
<g id="node15" class="node"><title>Node15</title>
<g id="a_node15"><a xlink:href="element_8h.xhtml" target="_top" xlink:title="Helper classes, structs, and properties common to all other classes. ">
<polygon fill="white" stroke="black" points="703,-67.5 703,-86.5 768,-86.5 768,-67.5 703,-67.5"/>
<text text-anchor="middle" x="735.5" y="-74.5" font-family="Helvetica,sans-Serif" font-size="10.00">element.h</text>
</a>
</g>
</g>
<!-- Node12&#45;&gt;Node15 -->
<g id="edge20" class="edge"><title>Node12&#45;&gt;Node15</title>
<path fill="none" stroke="midnightblue" d="M637.881,-123.444C656.716,-114.675 686.231,-100.935 707.879,-90.8579"/>
<polygon fill="midnightblue" stroke="midnightblue" points="709.617,-93.9098 717.205,-86.5164 706.662,-87.5637 709.617,-93.9098"/>
</g>
<!-- Node12&#45;&gt;Node19 -->
<g id="edge28" class="edge"><title>Node12&#45;&gt;Node19</title>
<path fill="none" stroke="midnightblue" d="M599.535,-123.444C578.891,-114.596 546.437,-100.687 522.868,-90.5865"/>
<polygon fill="midnightblue" stroke="midnightblue" points="523.942,-87.2387 513.372,-86.5164 521.184,-93.6727 523.942,-87.2387"/>
</g>
<!-- Node15&#45;&gt;Node3 -->
<g id="edge22" class="edge"><title>Node15&#45;&gt;Node3</title>
<path fill="none" stroke="midnightblue" d="M702.681,-74.546C605.862,-70.0219 322.63,-55.0405 233.5,-31 231.564,-30.4778 229.6,-29.8412 227.648,-29.1296"/>
<polygon fill="midnightblue" stroke="midnightblue" points="228.76,-25.8 218.187,-25.1271 226.033,-32.2468 228.76,-25.8"/>
</g>
<!-- Node15&#45;&gt;Node5 -->
<g id="edge23" class="edge"><title>Node15&#45;&gt;Node5</title>
<path fill="none" stroke="midnightblue" d="M768.043,-69.3068C772.876,-68.447 777.808,-67.6438 782.5,-67 972.499,-40.9294 1026.62,-78.2171 1212.5,-31 1214.8,-30.415 1217.15,-29.6846 1219.47,-28.8647"/>
<polygon fill="midnightblue" stroke="midnightblue" points="1220.78,-32.1116 1228.75,-25.1345 1218.17,-25.6167 1220.78,-32.1116"/>
</g>
<!-- Node15&#45;&gt;Node8 -->
<g id="edge27" class="edge"><title>Node15&#45;&gt;Node8</title>
<path fill="none" stroke="midnightblue" d="M722.319,-67.4751C707.426,-57.8431 682.956,-42.0175 665.227,-30.5517"/>
<polygon fill="midnightblue" stroke="midnightblue" points="666.955,-27.5008 656.657,-25.0091 663.153,-33.3787 666.955,-27.5008"/>
</g>
<!-- Node15&#45;&gt;Node10 -->
<g id="edge21" class="edge"><title>Node15&#45;&gt;Node10</title>
<path fill="none" stroke="midnightblue" d="M702.851,-68.4955C669.272,-60.4526 615.652,-46.7023 570.5,-31 568.636,-30.3518 566.73,-29.6502 564.817,-28.9172"/>
<polygon fill="midnightblue" stroke="midnightblue" points="565.964,-25.6054 555.381,-25.0945 563.335,-32.0932 565.964,-25.6054"/>
</g>
<!-- Node16 -->
<g id="node16" class="node"><title>Node16</title>
<polygon fill="white" stroke="#bfbfbf" points="915.5,-0.5 915.5,-30.5 1055.5,-30.5 1055.5,-0.5 915.5,-0.5"/>
<text text-anchor="start" x="923.5" y="-18.5" font-family="Helvetica,sans-Serif" font-size="10.00">boost/multi_index/hashed</text>
<text text-anchor="middle" x="985.5" y="-7.5" font-family="Helvetica,sans-Serif" font-size="10.00">_index.hpp</text>
</g>
<!-- Node15&#45;&gt;Node16 -->
<g id="edge24" class="edge"><title>Node15&#45;&gt;Node16</title>
<path fill="none" stroke="midnightblue" d="M768.183,-68.2214C805.702,-59.292 868.29,-44.3959 916.688,-32.8772"/>
<polygon fill="midnightblue" stroke="midnightblue" points="917.558,-36.268 926.476,-30.5477 915.937,-29.4582 917.558,-36.268"/>
</g>
<!-- Node17 -->
<g id="node17" class="node"><title>Node17</title>
<polygon fill="white" stroke="#bfbfbf" points="1073.5,-0.5 1073.5,-30.5 1203.5,-30.5 1203.5,-0.5 1073.5,-0.5"/>
<text text-anchor="start" x="1081.5" y="-18.5" font-family="Helvetica,sans-Serif" font-size="10.00">boost/multi_index/mem</text>
<text text-anchor="middle" x="1138.5" y="-7.5" font-family="Helvetica,sans-Serif" font-size="10.00">_fun.hpp</text>
</g>
<!-- Node15&#45;&gt;Node17 -->
<g id="edge25" class="edge"><title>Node15&#45;&gt;Node17</title>
<path fill="none" stroke="midnightblue" d="M768.07,-69.4913C772.899,-68.6052 777.824,-67.7455 782.5,-67 904.107,-47.6139 938.059,-50.9688 1063.2,-31.1429"/>
<polygon fill="midnightblue" stroke="midnightblue" points="1063.85,-34.5836 1073.17,-29.5453 1062.74,-27.6717 1063.85,-34.5836"/>
</g>
<!-- Node18 -->
<g id="node18" class="node"><title>Node18</title>
<polygon fill="white" stroke="#bfbfbf" points="725.5,-6 725.5,-25 897.5,-25 897.5,-6 725.5,-6"/>
<text text-anchor="middle" x="811.5" y="-13" font-family="Helvetica,sans-Serif" font-size="10.00">boost/multi_index_container.hpp</text>
</g>
<!-- Node15&#45;&gt;Node18 -->
<g id="edge26" class="edge"><title>Node15&#45;&gt;Node18</title>
<path fill="none" stroke="midnightblue" d="M746.389,-67.4751C758.466,-58.0199 778.167,-42.5961 792.74,-31.1871"/>
<polygon fill="midnightblue" stroke="midnightblue" points="794.915,-33.9295 800.631,-25.0091 790.6,-28.4177 794.915,-33.9295"/>
</g>
<!-- Node19&#45;&gt;Node3 -->
<g id="edge30" class="edge"><title>Node19&#45;&gt;Node3</title>
<path fill="none" stroke="midnightblue" d="M454.77,-69.3638C382.954,-57.0497 236.139,-31.8293 233.5,-31 231.629,-30.4122 229.726,-29.7351 227.829,-29.0013"/>
<polygon fill="midnightblue" stroke="midnightblue" points="229.153,-25.7606 218.584,-25.0128 226.38,-32.1879 229.153,-25.7606"/>
</g>
<!-- Node19&#45;&gt;Node5 -->
<g id="edge32" class="edge"><title>Node19&#45;&gt;Node5</title>
<path fill="none" stroke="midnightblue" d="M532.132,-73.958C676.699,-66.2679 1179.23,-39.0803 1212.5,-31 1214.86,-30.4268 1217.26,-29.6941 1219.64,-28.8634"/>
<polygon fill="midnightblue" stroke="midnightblue" points="1221.14,-32.0339 1229.11,-25.0551 1218.53,-25.5395 1221.14,-32.0339"/>
</g>
<!-- Node19&#45;&gt;Node8 -->
<g id="edge34" class="edge"><title>Node19&#45;&gt;Node8</title>
<path fill="none" stroke="midnightblue" d="M514.991,-67.4751C540.61,-57.3129 583.61,-40.2564 612.745,-28.6996"/>
<polygon fill="midnightblue" stroke="midnightblue" points="614.044,-31.9497 622.049,-25.0091 611.463,-25.4429 614.044,-31.9497"/>
</g>
<!-- Node19&#45;&gt;Node13 -->
<g id="edge31" class="edge"><title>Node19&#45;&gt;Node13</title>
<path fill="none" stroke="midnightblue" d="M490.634,-67.4751C487.783,-58.9919 483.317,-45.7043 479.659,-34.8222"/>
<polygon fill="midnightblue" stroke="midnightblue" points="482.864,-33.3727 476.36,-25.0091 476.229,-35.6031 482.864,-33.3727"/>
</g>
<!-- Node20 -->
<g id="node20" class="node"><title>Node20</title>
<polygon fill="white" stroke="#bfbfbf" points="242.5,-6 242.5,-25 304.5,-25 304.5,-6 242.5,-6"/>
<text text-anchor="middle" x="273.5" y="-13" font-family="Helvetica,sans-Serif" font-size="10.00">algorithm</text>
</g>
<!-- Node19&#45;&gt;Node20 -->
<g id="edge29" class="edge"><title>Node19&#45;&gt;Node20</title>
<path fill="none" stroke="midnightblue" d="M454.912,-67.5628C418.248,-59.2622 361.714,-45.7228 313.5,-31 310.875,-30.1984 308.169,-29.3241 305.462,-28.415"/>
<polygon fill="midnightblue" stroke="midnightblue" points="306.383,-25.0296 295.788,-25.0383 304.076,-31.6385 306.383,-25.0296"/>
</g>
<!-- Node21 -->
<g id="node21" class="node"><title>Node21</title>
<polygon fill="white" stroke="#bfbfbf" points="322.5,-0.5 322.5,-30.5 434.5,-30.5 434.5,-0.5 322.5,-0.5"/>
<text text-anchor="start" x="330.5" y="-18.5" font-family="Helvetica,sans-Serif" font-size="10.00">boost/icl/continuous</text>
<text text-anchor="middle" x="378.5" y="-7.5" font-family="Helvetica,sans-Serif" font-size="10.00">_interval.hpp</text>
</g>
<!-- Node19&#45;&gt;Node21 -->
<g id="edge33" class="edge"><title>Node19&#45;&gt;Node21</title>
<path fill="none" stroke="midnightblue" d="M477.023,-67.4751C460.793,-59.0777 435.464,-45.9728 414.553,-35.1534"/>
<polygon fill="midnightblue" stroke="midnightblue" points="416.093,-32.0097 405.603,-30.523 412.877,-38.2269 416.093,-32.0097"/>
</g>
<!-- Node22&#45;&gt;Node2 -->
<g id="edge36" class="edge"><title>Node22&#45;&gt;Node2</title>
<path fill="none" stroke="midnightblue" d="M866.534,-235.41C897.716,-221.375 955.043,-190.268 978.5,-143 985.633,-128.627 984.842,-110.168 982.729,-96.5962"/>
<polygon fill="midnightblue" stroke="midnightblue" points="986.121,-95.6974 980.789,-86.542 979.247,-97.0242 986.121,-95.6974"/>
</g>
<!-- Node22&#45;&gt;Node3 -->
<g id="edge37" class="edge"><title>Node22&#45;&gt;Node3</title>
<path fill="none" stroke="midnightblue" d="M806.641,-236.605C766.281,-228.601 701.469,-214.837 646.5,-199 482.01,-151.609 295.65,-62.7815 228.404,-29.5175"/>
<polygon fill="midnightblue" stroke="midnightblue" points="229.876,-26.3408 219.363,-25.0244 226.761,-32.6093 229.876,-26.3408"/>
</g>
<!-- Node22&#45;&gt;Node5 -->
<g id="edge39" class="edge"><title>Node22&#45;&gt;Node5</title>
<path fill="none" stroke="midnightblue" d="M872.774,-235.374C895.699,-227.539 928.891,-214.807 955.5,-199 1035.35,-151.567 1037.04,-113.387 1117.5,-67 1156.62,-44.4486 1170.71,-48.0875 1212.5,-31 1213.91,-30.4227 1215.35,-29.824 1216.81,-29.213"/>
<polygon fill="midnightblue" stroke="midnightblue" points="1218.57,-32.2655 1226.38,-25.1028 1215.81,-25.8337 1218.57,-32.2655"/>
</g>
<!-- Node22&#45;&gt;Node14 -->
<g id="edge38" class="edge"><title>Node22&#45;&gt;Node14</title>
<path fill="none" stroke="midnightblue" d="M847.758,-235.075C854.369,-208.945 873.784,-132.211 882.8,-96.577"/>
<polygon fill="midnightblue" stroke="midnightblue" points="886.272,-97.1211 885.332,-86.5681 879.486,-95.4041 886.272,-97.1211"/>
</g>
<!-- Node22&#45;&gt;Node15 -->
<g id="edge40" class="edge"><title>Node22&#45;&gt;Node15</title>
<path fill="none" stroke="midnightblue" d="M839.586,-235.075C822.046,-208.606 770.096,-130.209 746.904,-95.2097"/>
<polygon fill="midnightblue" stroke="midnightblue" points="749.619,-92.9707 741.178,-86.5681 743.784,-96.8374 749.619,-92.9707"/>
</g>
<!-- Node23 -->
<g id="node23" class="node"><title>Node23</title>
<g id="a_node23"><a xlink:href="variant_8h.xhtml" target="_top" xlink:title="Extra helper functions for std::variant. ">
<polygon fill="white" stroke="black" points="893,-123.5 893,-142.5 970,-142.5 970,-123.5 893,-123.5"/>
<text text-anchor="middle" x="931.5" y="-130.5" font-family="Helvetica,sans-Serif" font-size="10.00">ext/variant.h</text>
</a>
</g>
</g>
<!-- Node22&#45;&gt;Node23 -->
<g id="edge41" class="edge"><title>Node22&#45;&gt;Node23</title>
<path fill="none" stroke="midnightblue" d="M852.248,-235.368C866.504,-217.135 899.894,-174.426 918.463,-150.675"/>
<polygon fill="midnightblue" stroke="midnightblue" points="921.381,-152.625 924.783,-142.591 915.866,-148.314 921.381,-152.625"/>
</g>
<!-- Node24 -->
<g id="node24" class="node"><title>Node24</title>
<g id="a_node24"><a xlink:href="instruction_8h.xhtml" target="_top" xlink:title="Model and event tree modifier instructions. ">
<polygon fill="white" stroke="black" points="655.5,-179.5 655.5,-198.5 731.5,-198.5 731.5,-179.5 655.5,-179.5"/>
<text text-anchor="middle" x="693.5" y="-186.5" font-family="Helvetica,sans-Serif" font-size="10.00">instruction.h</text>
</a>
</g>
</g>
<!-- Node22&#45;&gt;Node24 -->
<g id="edge43" class="edge"><title>Node22&#45;&gt;Node24</title>
<path fill="none" stroke="midnightblue" d="M821.415,-235.444C795.955,-226.399 755.606,-212.064 727.041,-201.916"/>
<polygon fill="midnightblue" stroke="midnightblue" points="728.067,-198.566 717.472,-198.516 725.723,-205.162 728.067,-198.566"/>
</g>
<!-- Node23&#45;&gt;Node14 -->
<g id="edge42" class="edge"><title>Node23&#45;&gt;Node14</title>
<path fill="none" stroke="midnightblue" d="M924.234,-123.083C917.955,-115.377 908.712,-104.033 901.069,-94.6531"/>
<polygon fill="midnightblue" stroke="midnightblue" points="903.661,-92.2926 894.631,-86.7511 898.234,-96.7143 903.661,-92.2926"/>
</g>
<!-- Node24&#45;&gt;Node2 -->
<g id="edge44" class="edge"><title>Node24&#45;&gt;Node2</title>
<path fill="none" stroke="midnightblue" d="M715.863,-179.368C766.226,-159.93 888.662,-112.674 946.819,-90.2278"/>
<polygon fill="midnightblue" stroke="midnightblue" points="948.171,-93.4575 956.24,-86.5914 945.651,-86.927 948.171,-93.4575"/>
</g>
<!-- Node24&#45;&gt;Node3 -->
<g id="edge45" class="edge"><title>Node24&#45;&gt;Node3</title>
<path fill="none" stroke="midnightblue" d="M663.879,-179.424C634.443,-170.758 588.099,-156.723 548.5,-143 482.833,-120.244 465.805,-115.679 402.5,-87 385.115,-79.1244 382.25,-74.0141 364.5,-67 308.345,-44.8093 290.161,-51.8659 233.5,-31 231.89,-30.4071 230.249,-29.7635 228.604,-29.0882"/>
<polygon fill="midnightblue" stroke="midnightblue" points="229.897,-25.8333 219.335,-25.0053 227.076,-32.2394 229.897,-25.8333"/>
</g>
<!-- Node24&#45;&gt;Node5 -->
<g id="edge46" class="edge"><title>Node24&#45;&gt;Node5</title>
<path fill="none" stroke="midnightblue" d="M701.465,-179.291C723.196,-156.188 786.385,-93.3189 853.5,-67 1002.79,-8.4576 1057.41,-71.7549 1212.5,-31 1214.8,-30.3961 1217.14,-29.6524 1219.46,-28.8236"/>
<polygon fill="midnightblue" stroke="midnightblue" points="1220.78,-32.0677 1228.74,-25.0781 1218.16,-25.5768 1220.78,-32.0677"/>
</g>
<!-- Node24&#45;&gt;Node8 -->
<g id="edge47" class="edge"><title>Node24&#45;&gt;Node8</title>
<path fill="none" stroke="midnightblue" d="M690.952,-179.26C683.161,-152.536 659.54,-71.5174 648.853,-34.8618"/>
<polygon fill="midnightblue" stroke="midnightblue" points="652.143,-33.64 645.984,-25.0194 645.423,-35.5993 652.143,-33.64"/>
</g>
<!-- Node24&#45;&gt;Node12 -->
<g id="edge49" class="edge"><title>Node24&#45;&gt;Node12</title>
<path fill="none" stroke="midnightblue" d="M681.611,-179.324C670.35,-171.107 653.213,-158.602 639.791,-148.807"/>
<polygon fill="midnightblue" stroke="midnightblue" points="641.747,-145.901 631.606,-142.834 637.62,-151.556 641.747,-145.901"/>
</g>
<!-- Node24&#45;&gt;Node15 -->
<g id="edge48" class="edge"><title>Node24&#45;&gt;Node15</title>
<path fill="none" stroke="midnightblue" d="M696.796,-179.368C703.635,-161.456 719.493,-119.923 728.647,-95.9482"/>
<polygon fill="midnightblue" stroke="midnightblue" points="731.922,-97.1821 732.22,-86.5914 725.383,-94.6851 731.922,-97.1821"/>
</g>
<!-- Node24&#45;&gt;Node19 -->
<g id="edge50" class="edge"><title>Node24&#45;&gt;Node19</title>
<path fill="none" stroke="midnightblue" d="M667.812,-179.451C645,-171.406 611.099,-158.326 583.5,-143 557.241,-128.419 529.601,-107.503 511.992,-93.3688"/>
<polygon fill="midnightblue" stroke="midnightblue" points="513.723,-90.2647 503.759,-86.6648 509.304,-95.6929 513.723,-90.2647"/>
</g>
<!-- Node25&#45;&gt;Node3 -->
<g id="edge53" class="edge"><title>Node25&#45;&gt;Node3</title>
<path fill="none" stroke="midnightblue" d="M346.803,-235.36C324.62,-201.716 243.772,-79.0959 213.789,-33.622"/>
<polygon fill="midnightblue" stroke="midnightblue" points="216.629,-31.5711 208.203,-25.1491 210.785,-35.4244 216.629,-31.5711"/>
</g>
<!-- Node25&#45;&gt;Node4 -->
<g id="edge54" class="edge"><title>Node25&#45;&gt;Node4</title>
<path fill="none" stroke="midnightblue" d="M335.63,-235.324C318.791,-226.664 292.693,-213.242 273.262,-203.249"/>
<polygon fill="midnightblue" stroke="midnightblue" points="274.822,-200.116 264.328,-198.655 271.62,-206.341 274.822,-200.116"/>
</g>
<!-- Node25&#45;&gt;Node19 -->
<g id="edge55" class="edge"><title>Node25&#45;&gt;Node19</title>
<path fill="none" stroke="midnightblue" d="M359.156,-235.293C374.661,-215.119 414.602,-163.788 450.5,-123 459.156,-113.165 469.259,-102.551 477.496,-94.1031"/>
<polygon fill="midnightblue" stroke="midnightblue" points="480.198,-96.3473 484.713,-86.7629 475.206,-91.4393 480.198,-96.3473"/>
</g>
</g>
</svg>
