<?xml version="1.0" encoding="UTF-8" standalone="no"?>
<!DOCTYPE svg PUBLIC "-//W3C//DTD SVG 1.1//EN"
 "http://www.w3.org/Graphics/SVG/1.1/DTD/svg11.dtd">
<!-- Generated by graphviz version 2.38.0 (20140413.2041)
 -->
<!-- Title: event.h Pages: 1 -->
<!--zoomable 364 -->
<svg id="main" version="1.1" xmlns="http://www.w3.org/2000/svg" xmlns:xlink="http://www.w3.org/1999/xlink" xml:space="preserve" onload="init(evt)">
<style type="text/css"><![CDATA[
.edge:hover path { stroke: red; }
.edge:hover polygon { stroke: red; fill: red; }
]]></style>
<script type="text/javascript"><![CDATA[
var edges = document.getElementsByTagName('g');
if (edges && edges.length) {
  for (var i=0;i<edges.length;i++) {
    if (edges[i].id.substr(0,4)=='edge') {
      edges[i].setAttribute('class','edge');
    }
  }
}
]]></script>
        <defs>
                <circle id="rim" cx="0" cy="0" r="7"/>
                <circle id="rim2" cx="0" cy="0" r="3.5"/>
                <g id="zoomPlus">
                        <use xlink:href="#rim" fill="#404040">
                                <set attributeName="fill" to="#808080" begin="zoomplus.mouseover" end="zoomplus.mouseout"/>
                        </use>
                        <path d="M-4,0h8M0,-4v8" fill="none" stroke="white" stroke-width="1.5" pointer-events="none"/>
                </g>
                <g id="zoomMin">
                        <use xlink:href="#rim" fill="#404040">
                                <set attributeName="fill" to="#808080" begin="zoomminus.mouseover" end="zoomminus.mouseout"/>
                        </use>
                        <path d="M-4,0h8" fill="none" stroke="white" stroke-width="1.5" pointer-events="none"/>
                </g>
                <g id="dirArrow">
                        <path fill="none" stroke="white" stroke-width="1.5" d="M0,-3.0v7 M-2.5,-0.5L0,-3.0L2.5,-0.5"/>
                </g>
               <g id="resetDef">
                       <use xlink:href="#rim2" fill="#404040">
                               <set attributeName="fill" to="#808080" begin="reset.mouseover" end="reset.mouseout"/>
                       </use>
               </g>
        </defs>

<script type="text/javascript">
var viewWidth = 1812;
var viewHeight = 364;
var sectionId = 'dynsection-1';
</script>
<script xlink:href="svgpan.js"/>
<svg id="graph" class="graph">
<g id="viewport">
<title>event.h</title>
<polygon fill="white" stroke="none" points="-4,4 -4,-360 1807.64,-360 1807.64,4 -4,4"/>
<!-- Node1 -->
<g id="node1" class="node"><title>Node1</title>
<polygon fill="#bfbfbf" stroke="black" points="1006.14,-336.5 1006.14,-355.5 1059.14,-355.5 1059.14,-336.5 1006.14,-336.5"/>
<text text-anchor="middle" x="1032.64" y="-343.5" font-family="Helvetica,sans-Serif" font-size="10.00">event.h</text>
</g>
<!-- Node2 -->
<g id="node2" class="node"><title>Node2</title>
<g id="a_node2"><a xlink:href="instruction_8h.xhtml" target="_top" xlink:title="Model and event tree modifier instructions. ">
<polygon fill="white" stroke="black" points="228.636,-280.5 228.636,-299.5 304.636,-299.5 304.636,-280.5 228.636,-280.5"/>
<text text-anchor="middle" x="266.636" y="-287.5" font-family="Helvetica,sans-Serif" font-size="10.00">instruction.h</text>
</a>
</g>
</g>
<!-- Node1&#45;&gt;Node2 -->
<g id="edge1" class="edge"><title>Node1&#45;&gt;Node2</title>
<path fill="none" stroke="midnightblue" d="M995.918,-342.484C897.525,-335.732 619.726,-316.598 388.636,-300 360.568,-297.984 328.872,-295.644 304.824,-293.855"/>
<polygon fill="midnightblue" stroke="midnightblue" points="995.732,-345.98 1005.95,-343.172 996.211,-338.996 995.732,-345.98"/>
</g>
<!-- Node5 -->
<g id="node5" class="node"><title>Node5</title>
<g id="a_node5"><a xlink:href="initializer_8h.xhtml" target="_top" xlink:title="A facility that processes input files into analysis constructs. ">
<polygon fill="white" stroke="black" points="512.136,-112.5 512.136,-131.5 579.136,-131.5 579.136,-112.5 512.136,-112.5"/>
<text text-anchor="middle" x="545.636" y="-119.5" font-family="Helvetica,sans-Serif" font-size="10.00">initializer.h</text>
</a>
</g>
</g>
<!-- Node1&#45;&gt;Node5 -->
<g id="edge52" class="edge"><title>Node1&#45;&gt;Node5</title>
<path fill="none" stroke="midnightblue" d="M995.624,-344.715C832.624,-343.257 183.152,-335.267 99.6361,-300 39.239,-274.496 22.1112,-250.904 3.6361,-188 1.13121,-179.471 -2.38365,-174.54 3.6361,-168 12.2985,-158.589 394.834,-132.855 511.931,-125.185"/>
<polygon fill="midnightblue" stroke="midnightblue" points="996.046,-348.219 1006.08,-344.805 996.107,-341.219 996.046,-348.219"/>
</g>
<!-- Node8 -->
<g id="node8" class="node"><title>Node8</title>
<g id="a_node8"><a xlink:href="model_8h.xhtml" target="_top" xlink:title="Representation for a model container for risk analysis. ">
<polygon fill="white" stroke="black" points="824.636,-168.5 824.636,-187.5 880.636,-187.5 880.636,-168.5 824.636,-168.5"/>
<text text-anchor="middle" x="852.636" y="-175.5" font-family="Helvetica,sans-Serif" font-size="10.00">model.h</text>
</a>
</g>
</g>
<!-- Node1&#45;&gt;Node8 -->
<g id="edge53" class="edge"><title>Node1&#45;&gt;Node8</title>
<path fill="none" stroke="midnightblue" d="M1026.22,-326.674C1016.23,-300.569 994.601,-252.671 961.636,-224 948.776,-212.815 906.536,-197.144 878.573,-187.553"/>
<polygon fill="midnightblue" stroke="midnightblue" points="1023.06,-328.224 1029.79,-336.408 1029.63,-325.814 1023.06,-328.224"/>
</g>
<!-- Node10 -->
<g id="node10" class="node"><title>Node10</title>
<g id="a_node10"><a xlink:href="pdag_8cc.xhtml" target="_top" xlink:title="Implementation of a Propositional Directed Acyclic Graph with indexed nodes, variables, and gates. ">
<polygon fill="white" stroke="black" points="928.636,-112.5 928.636,-131.5 982.636,-131.5 982.636,-112.5 928.636,-112.5"/>
<text text-anchor="middle" x="955.636" y="-119.5" font-family="Helvetica,sans-Serif" font-size="10.00">pdag.cc</text>
</a>
</g>
</g>
<!-- Node1&#45;&gt;Node10 -->
<g id="edge59" class="edge"><title>Node1&#45;&gt;Node10</title>
<path fill="none" stroke="midnightblue" d="M1048.13,-328.682C1077.58,-295.654 1135.45,-219.646 1097.64,-168 1071.28,-132.005 1015.97,-124.087 982.692,-122.751"/>
<polygon fill="midnightblue" stroke="midnightblue" points="1045.18,-326.721 1041.01,-336.458 1050.34,-331.45 1045.18,-326.721"/>
</g>
<!-- Node11 -->
<g id="node11" class="node"><title>Node11</title>
<g id="a_node11"><a xlink:href="reporter_8h.xhtml" target="_top" xlink:title="Reporter of results. ">
<polygon fill="white" stroke="black" points="868.636,-56.5 868.636,-75.5 932.636,-75.5 932.636,-56.5 868.636,-56.5"/>
<text text-anchor="middle" x="900.636" y="-63.5" font-family="Helvetica,sans-Serif" font-size="10.00">reporter.h</text>
</a>
</g>
</g>
<!-- Node1&#45;&gt;Node11 -->
<g id="edge61" class="edge"><title>Node1&#45;&gt;Node11</title>
<path fill="none" stroke="midnightblue" d="M1056.07,-330.914C1067.85,-322.956 1081.71,-312.171 1091.64,-300 1129.33,-253.794 1147.77,-218.229 1115.64,-168 1074.85,-104.254 982.07,-80.0003 932.788,-71.3755"/>
<polygon fill="midnightblue" stroke="midnightblue" points="1054.05,-328.053 1047.55,-336.425 1057.85,-333.929 1054.05,-328.053"/>
</g>
<!-- Node13 -->
<g id="node13" class="node"><title>Node13</title>
<g id="a_node13"><a xlink:href="risk__analysis_8h.xhtml" target="_top" xlink:title="Contains the main system for performing analysis. ">
<polygon fill="white" stroke="black" points="606.636,-112.5 606.636,-131.5 692.636,-131.5 692.636,-112.5 606.636,-112.5"/>
<text text-anchor="middle" x="649.636" y="-119.5" font-family="Helvetica,sans-Serif" font-size="10.00">risk_analysis.h</text>
</a>
</g>
</g>
<!-- Node1&#45;&gt;Node13 -->
<g id="edge62" class="edge"><title>Node1&#45;&gt;Node13</title>
<path fill="none" stroke="midnightblue" d="M995.655,-341.882C960.695,-337.379 908.15,-326.442 870.636,-300 811.978,-258.654 834.873,-211.291 777.636,-168 752.743,-149.173 719.329,-137.78 692.882,-131.169"/>
<polygon fill="midnightblue" stroke="midnightblue" points="995.564,-345.395 1005.9,-343.083 996.379,-338.442 995.564,-345.395"/>
</g>
<!-- Node16 -->
<g id="node16" class="node"><title>Node16</title>
<g id="a_node16"><a xlink:href="serialization_8cc.xhtml" target="_top" xlink:title="serialization.cc">
<polygon fill="white" stroke="black" points="1073.14,-56.5 1073.14,-75.5 1160.14,-75.5 1160.14,-56.5 1073.14,-56.5"/>
<text text-anchor="middle" x="1116.64" y="-63.5" font-family="Helvetica,sans-Serif" font-size="10.00">serialization.cc</text>
</a>
</g>
</g>
<!-- Node1&#45;&gt;Node16 -->
<g id="edge63" class="edge"><title>Node1&#45;&gt;Node16</title>
<path fill="none" stroke="midnightblue" d="M1069.56,-343.684C1172.07,-339.709 1454.77,-326.439 1486.64,-300 1509.8,-280.781 1505.64,-265.098 1505.64,-235 1505.64,-235 1505.64,-235 1505.64,-177 1505.64,-105.94 1262.24,-78.4714 1160.5,-70.094"/>
<polygon fill="midnightblue" stroke="midnightblue" points="1069.23,-340.194 1059.37,-344.072 1069.5,-347.189 1069.23,-340.194"/>
</g>
<!-- Node18 -->
<g id="node18" class="node"><title>Node18</title>
<g id="a_node18"><a xlink:href="cycle_8h.xhtml" target="_top" xlink:title="Validation facilities to detect and print cycles in graphs. ">
<polygon fill="white" stroke="black" points="12.6361,-168.5 12.6361,-187.5 62.6361,-187.5 62.6361,-168.5 12.6361,-168.5"/>
<text text-anchor="middle" x="37.6361" y="-175.5" font-family="Helvetica,sans-Serif" font-size="10.00">cycle.h</text>
</a>
</g>
</g>
<!-- Node1&#45;&gt;Node18 -->
<g id="edge46" class="edge"><title>Node1&#45;&gt;Node18</title>
<path fill="none" stroke="midnightblue" d="M995.742,-344.288C857.65,-341.415 371.466,-329.396 219.636,-300 143.606,-285.28 107.407,-300.679 54.6361,-244 40.0112,-228.292 37.6274,-201.585 37.4433,-187.805"/>
<polygon fill="midnightblue" stroke="midnightblue" points="995.744,-347.788 1005.81,-344.494 995.887,-340.79 995.744,-347.788"/>
</g>
<!-- Node20 -->
<g id="node20" class="node"><title>Node20</title>
<g id="a_node20"><a xlink:href="event__tree__analysis_8h.xhtml" target="_top" xlink:title="Event tree analysis facilities. ">
<polygon fill="white" stroke="black" points="295.136,-168.5 295.136,-187.5 416.136,-187.5 416.136,-168.5 295.136,-168.5"/>
<text text-anchor="middle" x="355.636" y="-175.5" font-family="Helvetica,sans-Serif" font-size="10.00">event_tree_analysis.h</text>
</a>
</g>
</g>
<!-- Node1&#45;&gt;Node20 -->
<g id="edge48" class="edge"><title>Node1&#45;&gt;Node20</title>
<path fill="none" stroke="midnightblue" d="M995.93,-343.107C904.057,-337.387 657.92,-315.976 467.636,-244 428.524,-229.206 387.123,-201.596 367.406,-187.604"/>
<polygon fill="midnightblue" stroke="midnightblue" points="995.913,-346.612 1006.1,-343.715 996.331,-339.625 995.913,-346.612"/>
</g>
<!-- Node22 -->
<g id="node22" class="node"><title>Node22</title>
<g id="a_node22"><a xlink:href="ccf__group_8h.xhtml" target="_top" xlink:title="Functional containers for basic events grouped by common cause failure. ">
<polygon fill="white" stroke="black" points="879.636,-280.5 879.636,-299.5 951.636,-299.5 951.636,-280.5 879.636,-280.5"/>
<text text-anchor="middle" x="915.636" y="-287.5" font-family="Helvetica,sans-Serif" font-size="10.00">ccf_group.h</text>
</a>
</g>
</g>
<!-- Node1&#45;&gt;Node22 -->
<g id="edge35" class="edge"><title>Node1&#45;&gt;Node22</title>
<path fill="none" stroke="midnightblue" d="M1004.97,-332.232C983.087,-322.131 953.139,-308.309 934.088,-299.516"/>
<polygon fill="midnightblue" stroke="midnightblue" points="1003.55,-335.431 1014.1,-336.444 1006.48,-329.075 1003.55,-335.431"/>
</g>
<!-- Node24 -->
<g id="node24" class="node"><title>Node24</title>
<g id="a_node24"><a xlink:href="fault__tree_8h.xhtml" target="_top" xlink:title="Fault Tree and Component containers. ">
<polygon fill="white" stroke="black" points="1010.14,-224.5 1010.14,-243.5 1081.14,-243.5 1081.14,-224.5 1010.14,-224.5"/>
<text text-anchor="middle" x="1045.64" y="-231.5" font-family="Helvetica,sans-Serif" font-size="10.00">fault_tree.h</text>
</a>
</g>
</g>
<!-- Node1&#45;&gt;Node24 -->
<g id="edge49" class="edge"><title>Node1&#45;&gt;Node24</title>
<path fill="none" stroke="midnightblue" d="M1034.84,-326.348C1037.69,-302.254 1042.53,-261.308 1044.62,-243.591"/>
<polygon fill="midnightblue" stroke="midnightblue" points="1031.35,-326.027 1033.66,-336.368 1038.31,-326.848 1031.35,-326.027"/>
</g>
<!-- Node26 -->
<g id="node26" class="node"><title>Node26</title>
<g id="a_node26"><a xlink:href="event_8cc.xhtml" target="_top" xlink:title="Implementation of Event Class and its derived classes. ">
<polygon fill="white" stroke="black" points="1137.14,-280.5 1137.14,-299.5 1194.14,-299.5 1194.14,-280.5 1137.14,-280.5"/>
<text text-anchor="middle" x="1165.64" y="-287.5" font-family="Helvetica,sans-Serif" font-size="10.00">event.cc</text>
</a>
</g>
</g>
<!-- Node1&#45;&gt;Node26 -->
<g id="edge47" class="edge"><title>Node1&#45;&gt;Node26</title>
<path fill="none" stroke="midnightblue" d="M1063.08,-332.638C1088.04,-322.504 1122.71,-308.427 1144.66,-299.516"/>
<polygon fill="midnightblue" stroke="midnightblue" points="1061.66,-329.439 1053.71,-336.444 1064.29,-335.924 1061.66,-329.439"/>
</g>
<!-- Node27 -->
<g id="node27" class="node"><title>Node27</title>
<g id="a_node27"><a xlink:href="fault__tree__analysis_8cc.xhtml" target="_top" xlink:title="Implementation of fault tree analysis. ">
<polygon fill="white" stroke="black" points="1212.14,-280.5 1212.14,-299.5 1331.14,-299.5 1331.14,-280.5 1212.14,-280.5"/>
<text text-anchor="middle" x="1271.64" y="-287.5" font-family="Helvetica,sans-Serif" font-size="10.00">fault_tree_analysis.cc</text>
</a>
</g>
</g>
<!-- Node1&#45;&gt;Node27 -->
<g id="edge50" class="edge"><title>Node1&#45;&gt;Node27</title>
<path fill="none" stroke="midnightblue" d="M1069.43,-336.687C1114.02,-326.613 1188.75,-309.727 1233.8,-299.549"/>
<polygon fill="midnightblue" stroke="midnightblue" points="1068.57,-333.293 1059.59,-338.91 1070.11,-340.12 1068.57,-333.293"/>
</g>
<!-- Node28 -->
<g id="node28" class="node"><title>Node28</title>
<g id="a_node28"><a xlink:href="importance__analysis_8cc.xhtml" target="_top" xlink:title="Implementations of functions to provide quantitative importance informations. ">
<polygon fill="white" stroke="black" points="1349.64,-280.5 1349.64,-299.5 1477.64,-299.5 1477.64,-280.5 1349.64,-280.5"/>
<text text-anchor="middle" x="1413.64" y="-287.5" font-family="Helvetica,sans-Serif" font-size="10.00">importance_analysis.cc</text>
</a>
</g>
</g>
<!-- Node1&#45;&gt;Node28 -->
<g id="edge51" class="edge"><title>Node1&#45;&gt;Node28</title>
<path fill="none" stroke="midnightblue" d="M1069.34,-339.797C1135.15,-330.47 1273.77,-310.824 1353.59,-299.511"/>
<polygon fill="midnightblue" stroke="midnightblue" points="1068.84,-336.334 1059.43,-341.203 1069.82,-343.265 1068.84,-336.334"/>
</g>
<!-- Node29 -->
<g id="node29" class="node"><title>Node29</title>
<g id="a_node29"><a xlink:href="substitution_8h.xhtml" target="_top" xlink:title="The MEF Substitution constructs. ">
<polygon fill="white" stroke="black" points="652.636,-224.5 652.636,-243.5 734.636,-243.5 734.636,-224.5 652.636,-224.5"/>
<text text-anchor="middle" x="693.636" y="-231.5" font-family="Helvetica,sans-Serif" font-size="10.00">substitution.h</text>
</a>
</g>
</g>
<!-- Node1&#45;&gt;Node29 -->
<g id="edge54" class="edge"><title>Node1&#45;&gt;Node29</title>
<path fill="none" stroke="midnightblue" d="M995.915,-343.164C946.588,-339.623 856.998,-329.373 786.636,-300 752.643,-285.809 718.688,-257.667 702.854,-243.528"/>
<polygon fill="midnightblue" stroke="midnightblue" points="995.889,-346.67 1006.1,-343.84 996.353,-339.685 995.889,-346.67"/>
</g>
<!-- Node31 -->
<g id="node31" class="node"><title>Node31</title>
<g id="a_node31"><a xlink:href="probability__analysis_8cc.xhtml" target="_top" xlink:title="Implementations of functions to provide probability analysis. ">
<polygon fill="white" stroke="black" points="1534.14,-280.5 1534.14,-299.5 1657.14,-299.5 1657.14,-280.5 1534.14,-280.5"/>
<text text-anchor="middle" x="1595.64" y="-287.5" font-family="Helvetica,sans-Serif" font-size="10.00">probability_analysis.cc</text>
</a>
</g>
</g>
<!-- Node1&#45;&gt;Node31 -->
<g id="edge60" class="edge"><title>Node1&#45;&gt;Node31</title>
<path fill="none" stroke="midnightblue" d="M1069.54,-341.916C1150.89,-335.048 1351.75,-317.694 1519.64,-300 1524.26,-299.513 1529.04,-298.99 1533.85,-298.452"/>
<polygon fill="midnightblue" stroke="midnightblue" points="1068.99,-338.45 1059.32,-342.777 1069.58,-345.426 1068.99,-338.45"/>
</g>
<!-- Node32 -->
<g id="node32" class="node"><title>Node32</title>
<g id="a_node32"><a xlink:href="uncertainty__analysis_8cc.xhtml" target="_top" xlink:title="Implements the functionality to run Monte Carlo simulations. ">
<polygon fill="white" stroke="black" points="1675.64,-280.5 1675.64,-299.5 1803.64,-299.5 1803.64,-280.5 1675.64,-280.5"/>
<text text-anchor="middle" x="1739.64" y="-287.5" font-family="Helvetica,sans-Serif" font-size="10.00">uncertainty_analysis.cc</text>
</a>
</g>
</g>
<!-- Node1&#45;&gt;Node32 -->
<g id="edge64" class="edge"><title>Node1&#45;&gt;Node32</title>
<path fill="none" stroke="midnightblue" d="M1069.47,-343.055C1167.02,-337.758 1440.09,-321.99 1666.64,-300 1669.56,-299.716 1672.55,-299.411 1675.56,-299.09"/>
<polygon fill="midnightblue" stroke="midnightblue" points="1069.05,-339.572 1059.25,-343.606 1069.43,-346.562 1069.05,-339.572"/>
</g>
<!-- Node3 -->
<g id="node3" class="node"><title>Node3</title>
<g id="a_node3"><a xlink:href="alignment_8h.xhtml" target="_top" xlink:title="Mission and phase constructs. ">
<polygon fill="white" stroke="black" points="476.636,-224.5 476.636,-243.5 550.636,-243.5 550.636,-224.5 476.636,-224.5"/>
<text text-anchor="middle" x="513.636" y="-231.5" font-family="Helvetica,sans-Serif" font-size="10.00">alignment.h</text>
</a>
</g>
</g>
<!-- Node2&#45;&gt;Node3 -->
<g id="edge2" class="edge"><title>Node2&#45;&gt;Node3</title>
<path fill="none" stroke="midnightblue" d="M314.69,-278.494C361.976,-268.157 433.183,-252.589 476.349,-243.152"/>
<polygon fill="midnightblue" stroke="midnightblue" points="313.71,-275.126 304.689,-280.681 315.205,-281.964 313.71,-275.126"/>
</g>
<!-- Node2&#45;&gt;Node5 -->
<g id="edge33" class="edge"><title>Node2&#45;&gt;Node5</title>
<path fill="none" stroke="midnightblue" d="M237.154,-276.225C191.104,-254.577 110.985,-209.028 147.636,-168 171.784,-140.968 420.604,-128.119 512.108,-124.281"/>
<polygon fill="midnightblue" stroke="midnightblue" points="235.86,-279.482 246.409,-280.472 238.779,-273.12 235.86,-279.482"/>
</g>
<!-- Node2&#45;&gt;Node8 -->
<g id="edge34" class="edge"><title>Node2&#45;&gt;Node8</title>
<path fill="none" stroke="midnightblue" d="M315.095,-287.136C419.976,-282.662 664.904,-269.732 743.636,-244 783.008,-231.132 823.337,-202.109 841.984,-187.598"/>
<polygon fill="midnightblue" stroke="midnightblue" points="314.642,-283.651 304.797,-287.567 314.935,-290.645 314.642,-283.651"/>
</g>
<!-- Node17 -->
<g id="node17" class="node"><title>Node17</title>
<g id="a_node17"><a xlink:href="event__tree_8h.xhtml" target="_top" xlink:title="Event Tree facilities. ">
<polygon fill="white" stroke="black" points="228.136,-224.5 228.136,-243.5 305.136,-243.5 305.136,-224.5 228.136,-224.5"/>
<text text-anchor="middle" x="266.636" y="-231.5" font-family="Helvetica,sans-Serif" font-size="10.00">event_tree.h</text>
</a>
</g>
</g>
<!-- Node2&#45;&gt;Node17 -->
<g id="edge22" class="edge"><title>Node2&#45;&gt;Node17</title>
<path fill="none" stroke="midnightblue" d="M266.636,-269.805C266.636,-260.91 266.636,-250.78 266.636,-243.751"/>
<polygon fill="midnightblue" stroke="midnightblue" points="263.136,-270.083 266.636,-280.083 270.136,-270.083 263.136,-270.083"/>
</g>
<!-- Node2&#45;&gt;Node18 -->
<g id="edge31" class="edge"><title>Node2&#45;&gt;Node18</title>
<path fill="none" stroke="midnightblue" d="M218.347,-287.792C177.137,-284.531 118.13,-274.347 76.6361,-244 56.8785,-229.55 45.2433,-201.785 40.3576,-187.681"/>
<polygon fill="midnightblue" stroke="midnightblue" points="218.204,-291.29 228.42,-288.479 218.681,-284.306 218.204,-291.29"/>
</g>
<!-- Node21 -->
<g id="node21" class="node"><title>Node21</title>
<g id="a_node21"><a xlink:href="event__tree__analysis_8cc.xhtml" target="_top" xlink:title="Implementation of event tree analysis facilities. ">
<polygon fill="white" stroke="black" points="236.136,-112.5 236.136,-131.5 361.136,-131.5 361.136,-112.5 236.136,-112.5"/>
<text text-anchor="middle" x="298.636" y="-119.5" font-family="Helvetica,sans-Serif" font-size="10.00">event_tree_analysis.cc</text>
</a>
</g>
</g>
<!-- Node2&#45;&gt;Node21 -->
<g id="edge32" class="edge"><title>Node2&#45;&gt;Node21</title>
<path fill="none" stroke="midnightblue" d="M218.287,-288.918C183.357,-285.994 138.318,-275.709 114.636,-244 94.424,-216.937 93.7807,-194.571 114.636,-168 129.662,-148.857 188.812,-136.808 236.046,-130.048"/>
<polygon fill="midnightblue" stroke="midnightblue" points="218.095,-292.412 228.305,-289.582 218.558,-285.428 218.095,-292.412"/>
</g>
<!-- Node4 -->
<g id="node4" class="node"><title>Node4</title>
<g id="a_node4"><a xlink:href="alignment_8cc.xhtml" target="_top" xlink:title="Implementation of alignment and phase classes. ">
<polygon fill="white" stroke="black" points="434.636,-168.5 434.636,-187.5 512.636,-187.5 512.636,-168.5 434.636,-168.5"/>
<text text-anchor="middle" x="473.636" y="-175.5" font-family="Helvetica,sans-Serif" font-size="10.00">alignment.cc</text>
</a>
</g>
</g>
<!-- Node3&#45;&gt;Node4 -->
<g id="edge3" class="edge"><title>Node3&#45;&gt;Node4</title>
<path fill="none" stroke="midnightblue" d="M500.936,-215.855C494.01,-206.505 485.73,-195.327 480.118,-187.751"/>
<polygon fill="midnightblue" stroke="midnightblue" points="498.266,-218.131 507.031,-224.083 503.891,-213.964 498.266,-218.131"/>
</g>
<!-- Node3&#45;&gt;Node5 -->
<g id="edge4" class="edge"><title>Node3&#45;&gt;Node5</title>
<path fill="none" stroke="midnightblue" d="M518.967,-214.674C525.963,-190.625 537.96,-149.388 543.137,-131.591"/>
<polygon fill="midnightblue" stroke="midnightblue" points="515.58,-213.789 516.147,-224.368 522.301,-215.744 515.58,-213.789"/>
</g>
<!-- Node3&#45;&gt;Node8 -->
<g id="edge7" class="edge"><title>Node3&#45;&gt;Node8</title>
<path fill="none" stroke="midnightblue" d="M560.995,-225.456C632.691,-214.036 766.56,-192.711 824.6,-183.466"/>
<polygon fill="midnightblue" stroke="midnightblue" points="560.21,-222.037 550.885,-227.067 561.311,-228.95 560.21,-222.037"/>
</g>
<!-- Node3&#45;&gt;Node13 -->
<g id="edge21" class="edge"><title>Node3&#45;&gt;Node13</title>
<path fill="none" stroke="midnightblue" d="M532.409,-217.816C561.375,-194.387 616.02,-150.19 639.014,-131.591"/>
<polygon fill="midnightblue" stroke="midnightblue" points="529.882,-215.358 524.308,-224.368 534.284,-220.801 529.882,-215.358"/>
</g>
<!-- Node6 -->
<g id="node6" class="node"><title>Node6</title>
<g id="a_node6"><a xlink:href="initializer_8cc.xhtml" target="_top" xlink:title="Implementation of input file processing into analysis constructs. ">
<polygon fill="white" stroke="black" points="285.136,-56.5 285.136,-75.5 356.136,-75.5 356.136,-56.5 285.136,-56.5"/>
<text text-anchor="middle" x="320.636" y="-63.5" font-family="Helvetica,sans-Serif" font-size="10.00">initializer.cc</text>
</a>
</g>
</g>
<!-- Node5&#45;&gt;Node6 -->
<g id="edge5" class="edge"><title>Node5&#45;&gt;Node6</title>
<path fill="none" stroke="midnightblue" d="M502.185,-110.572C459.766,-100.391 395.992,-85.0853 356.413,-75.5865"/>
<polygon fill="midnightblue" stroke="midnightblue" points="501.411,-113.985 511.951,-112.916 503.044,-107.178 501.411,-113.985"/>
</g>
<!-- Node7 -->
<g id="node7" class="node"><title>Node7</title>
<g id="a_node7"><a xlink:href="scram_8cc.xhtml" target="_top" xlink:title="Main entrance. ">
<polygon fill="white" stroke="black" points="668.636,-0.5 668.636,-19.5 728.636,-19.5 728.636,-0.5 668.636,-0.5"/>
<text text-anchor="middle" x="698.636" y="-7.5" font-family="Helvetica,sans-Serif" font-size="10.00">scram.cc</text>
</a>
</g>
</g>
<!-- Node5&#45;&gt;Node7 -->
<g id="edge6" class="edge"><title>Node5&#45;&gt;Node7</title>
<path fill="none" stroke="midnightblue" d="M565.92,-106.417C598.28,-83.1513 660.595,-38.3501 686.686,-19.5914"/>
<polygon fill="midnightblue" stroke="midnightblue" points="563.718,-103.689 557.642,-112.368 567.804,-109.373 563.718,-103.689"/>
</g>
<!-- Node8&#45;&gt;Node5 -->
<g id="edge8" class="edge"><title>Node8&#45;&gt;Node5</title>
<path fill="none" stroke="midnightblue" d="M814.688,-170.325C754.293,-159.702 637.25,-139.114 579.517,-128.96"/>
<polygon fill="midnightblue" stroke="midnightblue" points="814.123,-173.779 824.578,-172.065 815.336,-166.885 814.123,-173.779"/>
</g>
<!-- Node9 -->
<g id="node9" class="node"><title>Node9</title>
<g id="a_node9"><a xlink:href="model_8cc.xhtml" target="_top" xlink:title="Implementation of functions in Model class. ">
<polygon fill="white" stroke="black" points="710.636,-112.5 710.636,-131.5 770.636,-131.5 770.636,-112.5 710.636,-112.5"/>
<text text-anchor="middle" x="740.636" y="-119.5" font-family="Helvetica,sans-Serif" font-size="10.00">model.cc</text>
</a>
</g>
</g>
<!-- Node8&#45;&gt;Node9 -->
<g id="edge9" class="edge"><title>Node8&#45;&gt;Node9</title>
<path fill="none" stroke="midnightblue" d="M825.387,-163.862C804.62,-153.849 776.613,-140.346 758.586,-131.655"/>
<polygon fill="midnightblue" stroke="midnightblue" points="824.114,-167.134 834.641,-168.324 827.154,-160.828 824.114,-167.134"/>
</g>
<!-- Node8&#45;&gt;Node10 -->
<g id="edge10" class="edge"><title>Node8&#45;&gt;Node10</title>
<path fill="none" stroke="midnightblue" d="M878.215,-163.59C897.26,-153.605 922.701,-140.267 939.128,-131.655"/>
<polygon fill="midnightblue" stroke="midnightblue" points="876.416,-160.581 869.185,-168.324 879.667,-166.78 876.416,-160.581"/>
</g>
<!-- Node8&#45;&gt;Node11 -->
<g id="edge11" class="edge"><title>Node8&#45;&gt;Node11</title>
<path fill="none" stroke="midnightblue" d="M864.593,-160.113C870.02,-151.907 876.201,-141.734 880.636,-132 889.448,-112.661 895.756,-88.3823 898.725,-75.6714"/>
<polygon fill="midnightblue" stroke="midnightblue" points="861.673,-158.183 858.92,-168.414 867.452,-162.132 861.673,-158.183"/>
</g>
<!-- Node8&#45;&gt;Node13 -->
<g id="edge14" class="edge"><title>Node8&#45;&gt;Node13</title>
<path fill="none" stroke="midnightblue" d="M814.642,-166.893C776.283,-156.689 717.698,-141.105 681.634,-131.512"/>
<polygon fill="midnightblue" stroke="midnightblue" points="813.846,-170.303 824.41,-169.492 815.646,-163.538 813.846,-170.303"/>
</g>
<!-- Node15 -->
<g id="node15" class="node"><title>Node15</title>
<g id="a_node15"><a xlink:href="serialization_8h.xhtml" target="_top" xlink:title="The MEF Model serialization facilities. ">
<polygon fill="white" stroke="black" points="789.136,-112.5 789.136,-131.5 872.136,-131.5 872.136,-112.5 789.136,-112.5"/>
<text text-anchor="middle" x="830.636" y="-119.5" font-family="Helvetica,sans-Serif" font-size="10.00">serialization.h</text>
</a>
</g>
</g>
<!-- Node8&#45;&gt;Node15 -->
<g id="edge18" class="edge"><title>Node8&#45;&gt;Node15</title>
<path fill="none" stroke="midnightblue" d="M845.176,-158.69C841.469,-149.589 837.16,-139.014 834.201,-131.751"/>
<polygon fill="midnightblue" stroke="midnightblue" points="841.989,-160.143 849.003,-168.083 848.472,-157.502 841.989,-160.143"/>
</g>
<!-- Node11&#45;&gt;Node7 -->
<g id="edge13" class="edge"><title>Node11&#45;&gt;Node7</title>
<path fill="none" stroke="midnightblue" d="M858.698,-53.7888C819.951,-43.4308 763.326,-28.2933 728.844,-19.0755"/>
<polygon fill="midnightblue" stroke="midnightblue" points="858.064,-57.2422 868.629,-56.4435 859.872,-50.4796 858.064,-57.2422"/>
</g>
<!-- Node12 -->
<g id="node12" class="node"><title>Node12</title>
<g id="a_node12"><a xlink:href="reporter_8cc.xhtml" target="_top" xlink:title="Implements Reporter class. ">
<polygon fill="white" stroke="black" points="1012.64,-0.5 1012.64,-19.5 1080.64,-19.5 1080.64,-0.5 1012.64,-0.5"/>
<text text-anchor="middle" x="1046.64" y="-7.5" font-family="Helvetica,sans-Serif" font-size="10.00">reporter.cc</text>
</a>
</g>
</g>
<!-- Node11&#45;&gt;Node12 -->
<g id="edge12" class="edge"><title>Node11&#45;&gt;Node12</title>
<path fill="none" stroke="midnightblue" d="M933.335,-52.9058C960.784,-42.7536 999.304,-28.5063 1023.61,-19.5164"/>
<polygon fill="midnightblue" stroke="midnightblue" points="931.935,-49.6919 923.77,-56.4435 934.363,-56.2572 931.935,-49.6919"/>
</g>
<!-- Node13&#45;&gt;Node7 -->
<g id="edge17" class="edge"><title>Node13&#45;&gt;Node7</title>
<path fill="none" stroke="midnightblue" d="M657.655,-102.998C668.347,-78.9968 686.846,-37.4683 694.809,-19.5914"/>
<polygon fill="midnightblue" stroke="midnightblue" points="654.353,-101.81 653.481,-112.368 660.747,-104.658 654.353,-101.81"/>
</g>
<!-- Node13&#45;&gt;Node11 -->
<g id="edge15" class="edge"><title>Node13&#45;&gt;Node11</title>
<path fill="none" stroke="midnightblue" d="M699.411,-110.291C749.688,-99.475 825.861,-83.087 868.617,-73.8886"/>
<polygon fill="midnightblue" stroke="midnightblue" points="698.448,-106.918 689.408,-112.444 699.92,-113.762 698.448,-106.918"/>
</g>
<!-- Node14 -->
<g id="node14" class="node"><title>Node14</title>
<g id="a_node14"><a xlink:href="risk__analysis_8cc.xhtml" target="_top" xlink:title="Implementation of risk analysis handler. ">
<polygon fill="white" stroke="black" points="757.636,-56.5 757.636,-75.5 847.636,-75.5 847.636,-56.5 757.636,-56.5"/>
<text text-anchor="middle" x="802.636" y="-63.5" font-family="Helvetica,sans-Serif" font-size="10.00">risk_analysis.cc</text>
</a>
</g>
</g>
<!-- Node13&#45;&gt;Node14 -->
<g id="edge16" class="edge"><title>Node13&#45;&gt;Node14</title>
<path fill="none" stroke="midnightblue" d="M683.525,-109.039C712.313,-98.8786 752.923,-84.5457 778.506,-75.5164"/>
<polygon fill="midnightblue" stroke="midnightblue" points="682.144,-105.815 673.879,-112.444 684.474,-112.416 682.144,-105.815"/>
</g>
<!-- Node15&#45;&gt;Node7 -->
<g id="edge19" class="edge"><title>Node15&#45;&gt;Node7</title>
<path fill="none" stroke="midnightblue" d="M800.456,-108.159C784.086,-100.316 764.098,-89.2496 748.636,-76 728.96,-59.1393 711.989,-33.3993 703.822,-19.9272"/>
<polygon fill="midnightblue" stroke="midnightblue" points="799.07,-111.374 809.616,-112.396 802.01,-105.021 799.07,-111.374"/>
</g>
<!-- Node15&#45;&gt;Node16 -->
<g id="edge20" class="edge"><title>Node15&#45;&gt;Node16</title>
<path fill="none" stroke="midnightblue" d="M882.373,-111.231C936.921,-100.932 1021.9,-84.8869 1073.12,-75.2157"/>
<polygon fill="midnightblue" stroke="midnightblue" points="881.4,-107.853 872.223,-113.148 882.699,-114.732 881.4,-107.853"/>
</g>
<!-- Node17&#45;&gt;Node5 -->
<g id="edge29" class="edge"><title>Node17&#45;&gt;Node5</title>
<path fill="none" stroke="midnightblue" d="M266.992,-214.309C268.322,-199.562 272.638,-179.607 285.636,-168 318.525,-138.633 448.965,-127.987 511.652,-124.512"/>
<polygon fill="midnightblue" stroke="midnightblue" points="263.494,-214.174 266.462,-224.345 270.484,-214.543 263.494,-214.174"/>
</g>
<!-- Node17&#45;&gt;Node8 -->
<g id="edge30" class="edge"><title>Node17&#45;&gt;Node8</title>
<path fill="none" stroke="midnightblue" d="M315.137,-229.242C405.972,-222.091 607.902,-205.653 777.636,-188 793.158,-186.386 810.456,-184.327 824.524,-182.587"/>
<polygon fill="midnightblue" stroke="midnightblue" points="314.833,-225.755 305.138,-230.027 315.381,-232.734 314.833,-225.755"/>
</g>
<!-- Node17&#45;&gt;Node18 -->
<g id="edge23" class="edge"><title>Node17&#45;&gt;Node18</title>
<path fill="none" stroke="midnightblue" d="M220.609,-222.146C173.088,-210.941 100.697,-193.87 62.787,-184.931"/>
<polygon fill="midnightblue" stroke="midnightblue" points="219.814,-225.555 230.35,-224.444 221.421,-218.742 219.814,-225.555"/>
</g>
<!-- Node19 -->
<g id="node19" class="node"><title>Node19</title>
<g id="a_node19"><a xlink:href="event__tree_8cc.xhtml" target="_top" xlink:title="Implementation of event tree facilities. ">
<polygon fill="white" stroke="black" points="156.636,-168.5 156.636,-187.5 238.636,-187.5 238.636,-168.5 156.636,-168.5"/>
<text text-anchor="middle" x="197.636" y="-175.5" font-family="Helvetica,sans-Serif" font-size="10.00">event_tree.cc</text>
</a>
</g>
</g>
<!-- Node17&#45;&gt;Node19 -->
<g id="edge25" class="edge"><title>Node17&#45;&gt;Node19</title>
<path fill="none" stroke="midnightblue" d="M247.598,-218.101C235.18,-208.382 219.393,-196.027 208.924,-187.834"/>
<polygon fill="midnightblue" stroke="midnightblue" points="245.518,-220.917 255.55,-224.324 249.832,-215.405 245.518,-220.917"/>
</g>
<!-- Node17&#45;&gt;Node20 -->
<g id="edge26" class="edge"><title>Node17&#45;&gt;Node20</title>
<path fill="none" stroke="midnightblue" d="M289.874,-218.901C306.194,-208.999 327.501,-196.071 341.372,-187.655"/>
<polygon fill="midnightblue" stroke="midnightblue" points="287.669,-216.144 280.935,-224.324 291.3,-222.129 287.669,-216.144"/>
</g>
<!-- Node18&#45;&gt;Node6 -->
<g id="edge24" class="edge"><title>Node18&#45;&gt;Node6</title>
<path fill="none" stroke="midnightblue" d="M69.2143,-164.726C127.051,-142.245 248.622,-94.9914 298.533,-75.5914"/>
<polygon fill="midnightblue" stroke="midnightblue" points="67.8953,-161.483 59.8426,-168.368 70.4313,-168.008 67.8953,-161.483"/>
</g>
<!-- Node20&#45;&gt;Node13 -->
<g id="edge28" class="edge"><title>Node20&#45;&gt;Node13</title>
<path fill="none" stroke="midnightblue" d="M412.115,-166.626C468.891,-156.198 555.166,-140.352 606.617,-130.902"/>
<polygon fill="midnightblue" stroke="midnightblue" points="411.424,-163.195 402.221,-168.444 412.689,-170.079 411.424,-163.195"/>
</g>
<!-- Node20&#45;&gt;Node21 -->
<g id="edge27" class="edge"><title>Node20&#45;&gt;Node21</title>
<path fill="none" stroke="midnightblue" d="M339.015,-161.253C328.902,-151.673 316.359,-139.791 307.961,-131.834"/>
<polygon fill="midnightblue" stroke="midnightblue" points="336.811,-163.987 346.478,-168.324 341.626,-158.906 336.811,-163.987"/>
</g>
<!-- Node22&#45;&gt;Node5 -->
<g id="edge43" class="edge"><title>Node22&#45;&gt;Node5</title>
<path fill="none" stroke="midnightblue" d="M869.253,-285.316C801.945,-279.305 681.138,-265.822 643.636,-244 595.271,-215.857 561.047,-154.114 549.717,-131.509"/>
<polygon fill="midnightblue" stroke="midnightblue" points="869.309,-288.834 879.576,-286.216 869.918,-281.86 869.309,-288.834"/>
</g>
<!-- Node22&#45;&gt;Node8 -->
<g id="edge44" class="edge"><title>Node22&#45;&gt;Node8</title>
<path fill="none" stroke="midnightblue" d="M894.065,-274.092C884.267,-266.234 873.383,-255.783 866.636,-244 856.196,-225.768 853.525,-200.607 852.852,-187.584"/>
<polygon fill="midnightblue" stroke="midnightblue" points="892.179,-277.053 902.265,-280.297 896.403,-271.472 892.179,-277.053"/>
</g>
<!-- Node22&#45;&gt;Node12 -->
<g id="edge45" class="edge"><title>Node22&#45;&gt;Node12</title>
<path fill="none" stroke="midnightblue" d="M962.228,-287.671C1000.6,-284.285 1054.41,-273.987 1090.64,-244 1154.19,-191.386 1151.65,-156.525 1169.64,-76 1171.57,-67.3249 1174.73,-63.2856 1169.64,-56 1149.71,-27.4853 1109.66,-16.9809 1080.67,-13.1441"/>
<polygon fill="midnightblue" stroke="midnightblue" points="961.549,-284.212 951.84,-288.453 962.075,-291.192 961.549,-284.212"/>
</g>
<!-- Node23 -->
<g id="node23" class="node"><title>Node23</title>
<g id="a_node23"><a xlink:href="ccf__group_8cc.xhtml" target="_top" xlink:title="Implementation of various common cause failure models. ">
<polygon fill="white" stroke="black" points="876.136,-224.5 876.136,-243.5 953.136,-243.5 953.136,-224.5 876.136,-224.5"/>
<text text-anchor="middle" x="914.636" y="-231.5" font-family="Helvetica,sans-Serif" font-size="10.00">ccf_group.cc</text>
</a>
</g>
</g>
<!-- Node22&#45;&gt;Node23 -->
<g id="edge36" class="edge"><title>Node22&#45;&gt;Node23</title>
<path fill="none" stroke="midnightblue" d="M915.281,-269.805C915.116,-260.91 914.928,-250.78 914.798,-243.751"/>
<polygon fill="midnightblue" stroke="midnightblue" points="911.786,-270.15 915.471,-280.083 918.785,-270.02 911.786,-270.15"/>
</g>
<!-- Node22&#45;&gt;Node24 -->
<g id="edge37" class="edge"><title>Node22&#45;&gt;Node24</title>
<path fill="none" stroke="midnightblue" d="M945.722,-276.503C970.093,-266.38 1003.78,-252.388 1025.13,-243.516"/>
<polygon fill="midnightblue" stroke="midnightblue" points="944.127,-273.375 936.235,-280.444 946.813,-279.84 944.127,-273.375"/>
</g>
<!-- Node24&#45;&gt;Node5 -->
<g id="edge39" class="edge"><title>Node24&#45;&gt;Node5</title>
<path fill="none" stroke="midnightblue" d="M1020.3,-219.907C990.039,-204.875 937.497,-180.667 889.636,-168 763.228,-134.545 726.986,-151.156 597.636,-132 591.654,-131.114 585.301,-130.087 579.164,-129.05"/>
<polygon fill="midnightblue" stroke="midnightblue" points="1018.8,-223.071 1029.31,-224.439 1021.95,-216.818 1018.8,-223.071"/>
</g>
<!-- Node24&#45;&gt;Node8 -->
<g id="edge40" class="edge"><title>Node24&#45;&gt;Node8</title>
<path fill="none" stroke="midnightblue" d="M1005.03,-221.639C967.793,-211.22 913.603,-196.058 880.877,-186.902"/>
<polygon fill="midnightblue" stroke="midnightblue" points="1004.48,-225.12 1015.05,-224.444 1006.37,-218.378 1004.48,-225.12"/>
</g>
<!-- Node24&#45;&gt;Node14 -->
<g id="edge41" class="edge"><title>Node24&#45;&gt;Node14</title>
<path fill="none" stroke="midnightblue" d="M1026.72,-217.486C1018.31,-209.551 1009.1,-199.21 1003.64,-188 988.646,-157.264 1014.87,-137.095 991.636,-112 981.841,-101.418 900.803,-84.8949 848.069,-75.0889"/>
<polygon fill="midnightblue" stroke="midnightblue" points="1024.59,-220.272 1034.38,-224.306 1029.24,-215.043 1024.59,-220.272"/>
</g>
<!-- Node24&#45;&gt;Node16 -->
<g id="edge42" class="edge"><title>Node24&#45;&gt;Node16</title>
<path fill="none" stroke="midnightblue" d="M1068.93,-218.447C1079.38,-210.697 1090.85,-200.234 1097.64,-188 1118.58,-150.255 1118.26,-96.2865 1117.22,-75.558"/>
<polygon fill="midnightblue" stroke="midnightblue" points="1066.74,-215.712 1060.53,-224.298 1070.74,-221.457 1066.74,-215.712"/>
</g>
<!-- Node25 -->
<g id="node25" class="node"><title>Node25</title>
<g id="a_node25"><a xlink:href="fault__tree_8cc.xhtml" target="_top" xlink:title="Implementation of fault tree and component containers. ">
<polygon fill="white" stroke="black" points="1012.64,-168.5 1012.64,-187.5 1088.64,-187.5 1088.64,-168.5 1012.64,-168.5"/>
<text text-anchor="middle" x="1050.64" y="-175.5" font-family="Helvetica,sans-Serif" font-size="10.00">fault_tree.cc</text>
</a>
</g>
</g>
<!-- Node24&#45;&gt;Node25 -->
<g id="edge38" class="edge"><title>Node24&#45;&gt;Node25</title>
<path fill="none" stroke="midnightblue" d="M1047.39,-214.101C1048.22,-205.136 1049.17,-194.858 1049.83,-187.751"/>
<polygon fill="midnightblue" stroke="midnightblue" points="1043.9,-213.803 1046.46,-224.083 1050.87,-214.448 1043.9,-213.803"/>
</g>
<!-- Node29&#45;&gt;Node5 -->
<g id="edge56" class="edge"><title>Node29&#45;&gt;Node5</title>
<path fill="none" stroke="midnightblue" d="M673.612,-218.118C642.198,-194.769 582.327,-150.27 557.195,-131.591"/>
<polygon fill="midnightblue" stroke="midnightblue" points="671.909,-221.212 682.023,-224.368 676.085,-215.594 671.909,-221.212"/>
</g>
<!-- Node29&#45;&gt;Node8 -->
<g id="edge55" class="edge"><title>Node29&#45;&gt;Node8</title>
<path fill="none" stroke="midnightblue" d="M728.463,-221.172C758.402,-211.004 800.858,-196.585 827.56,-187.516"/>
<polygon fill="midnightblue" stroke="midnightblue" points="727.173,-217.914 718.83,-224.444 729.425,-224.542 727.173,-217.914"/>
</g>
<!-- Node29&#45;&gt;Node10 -->
<g id="edge57" class="edge"><title>Node29&#45;&gt;Node10</title>
<path fill="none" stroke="midnightblue" d="M745.084,-228.948C786.297,-223.932 844.486,-212.767 889.636,-188 915.862,-173.614 938.82,-145.819 949.413,-131.695"/>
<polygon fill="midnightblue" stroke="midnightblue" points="744.531,-225.489 734.99,-230.096 745.321,-232.444 744.531,-225.489"/>
</g>
<!-- Node30 -->
<g id="node30" class="node"><title>Node30</title>
<g id="a_node30"><a xlink:href="substitution_8cc.xhtml" target="_top" xlink:title="Implementation of Substitution members. ">
<polygon fill="white" stroke="black" points="682.636,-168.5 682.636,-187.5 768.636,-187.5 768.636,-168.5 682.636,-168.5"/>
<text text-anchor="middle" x="725.636" y="-175.5" font-family="Helvetica,sans-Serif" font-size="10.00">substitution.cc</text>
</a>
</g>
</g>
<!-- Node29&#45;&gt;Node30 -->
<g id="edge58" class="edge"><title>Node29&#45;&gt;Node30</title>
<path fill="none" stroke="midnightblue" d="M704.14,-215.275C709.609,-206.045 716.054,-195.17 720.45,-187.751"/>
<polygon fill="midnightblue" stroke="midnightblue" points="701.007,-213.696 698.92,-224.083 707.029,-217.264 701.007,-213.696"/>
</g>
</g>
</svg>
        <g id="navigator" transform="translate(0 0)" fill="#404254">
                <rect fill="#f2f5e9" fill-opacity="0.5" stroke="#606060" stroke-width=".5" x="0" y="0" width="60" height="60"/>
                <use id="zoomplus" xlink:href="#zoomPlus" x="17" y="9" onmousedown="handleZoom(evt,'in')"/>
                <use id="zoomminus" xlink:href="#zoomMin" x="42" y="9" onmousedown="handleZoom(evt,'out')"/>
                <use id="reset" xlink:href="#resetDef" x="30" y="36" onmousedown="handleReset()"/>
                <g id="arrowUp" xlink:href="#dirArrow" transform="translate(30 24)" onmousedown="handlePan(0,-1)">
                  <use xlink:href="#rim" fill="#404040">
                        <set attributeName="fill" to="#808080" begin="arrowUp.mouseover" end="arrowUp.mouseout"/>
                  </use>
                  <path fill="none" stroke="white" stroke-width="1.5" d="M0,-3.0v7 M-2.5,-0.5L0,-3.0L2.5,-0.5"/>
                </g>
                <g id="arrowRight" xlink:href="#dirArrow" transform="rotate(90) translate(36 -43)" onmousedown="handlePan(1,0)">
                  <use xlink:href="#rim" fill="#404040">
                        <set attributeName="fill" to="#808080" begin="arrowRight.mouseover" end="arrowRight.mouseout"/>
                  </use>
                  <path fill="none" stroke="white" stroke-width="1.5" d="M0,-3.0v7 M-2.5,-0.5L0,-3.0L2.5,-0.5"/>
                </g>
                <g id="arrowDown" xlink:href="#dirArrow" transform="rotate(180) translate(-30 -48)" onmousedown="handlePan(0,1)">
                  <use xlink:href="#rim" fill="#404040">
                        <set attributeName="fill" to="#808080" begin="arrowDown.mouseover" end="arrowDown.mouseout"/>
                  </use>
                  <path fill="none" stroke="white" stroke-width="1.5" d="M0,-3.0v7 M-2.5,-0.5L0,-3.0L2.5,-0.5"/>
                </g>
                <g id="arrowLeft" xlink:href="#dirArrow" transform="rotate(270) translate(-36 17)" onmousedown="handlePan(-1,0)">
                  <use xlink:href="#rim" fill="#404040">
                        <set attributeName="fill" to="#808080" begin="arrowLeft.mouseover" end="arrowLeft.mouseout"/>
                  </use>
                  <path fill="none" stroke="white" stroke-width="1.5" d="M0,-3.0v7 M-2.5,-0.5L0,-3.0L2.5,-0.5"/>
                </g>
        </g>
        <svg viewBox="0 0 15 15" width="100%" height="30px" preserveAspectRatio="xMaxYMin meet">
         <g id="arrow_out" transform="scale(0.3 0.3)">
          <a xlink:href="event_8h__dep__incl_org.svg" target="_base">
           <rect id="button" ry="5" rx="5" y="6" x="6" height="38" width="38"
                fill="#f2f5e9" fill-opacity="0.5" stroke="#606060" stroke-width="1.0"/>
           <path id="arrow"
             d="M 11.500037,31.436501 C 11.940474,20.09759 22.043105,11.32322 32.158766,21.979434 L 37.068811,17.246167 C 37.068811,17.246167 37.088388,32 37.088388,32 L 22.160133,31.978069 C 22.160133,31.978069 26.997745,27.140456 26.997745,27.140456 C 18.528582,18.264221 13.291696,25.230495 11.500037,31.436501 z"
             style="fill:#404040;"/>
          </a>
         </g>
        </svg>
</svg>
