<?xml version="1.0" encoding="UTF-8" standalone="no"?>
<!DOCTYPE svg PUBLIC "-//W3C//DTD SVG 1.1//EN"
 "http://www.w3.org/Graphics/SVG/1.1/DTD/svg11.dtd">
<!-- Generated by graphviz version 2.38.0 (20140413.2041)
 -->
<!-- Title: event_tree.h Pages: 1 -->
<svg width="646pt" height="252pt"
 viewBox="0.00 0.00 646.00 252.00" xmlns="http://www.w3.org/2000/svg" xmlns:xlink="http://www.w3.org/1999/xlink">
<g id="graph0" class="graph" transform="scale(1 1) rotate(0) translate(4 248)">
<title>event_tree.h</title>
<polygon fill="white" stroke="none" points="-4,4 -4,-248 642,-248 642,4 -4,4"/>
<!-- Node1 -->
<g id="node1" class="node"><title>Node1</title>
<polygon fill="#bfbfbf" stroke="black" points="222,-224.5 222,-243.5 299,-243.5 299,-224.5 222,-224.5"/>
<text text-anchor="middle" x="260.5" y="-231.5" font-family="Helvetica,sans-Serif" font-size="10.00">event_tree.h</text>
</g>
<!-- Node2 -->
<g id="node2" class="node"><title>Node2</title>
<g id="a_node2"><a xlink:href="cycle_8h.xhtml" target="_top" xlink:title="Validation facilities to detect and print cycles in graphs. ">
<polygon fill="white" stroke="black" points="25.5,-168.5 25.5,-187.5 75.5,-187.5 75.5,-168.5 25.5,-168.5"/>
<text text-anchor="middle" x="50.5" y="-175.5" font-family="Helvetica,sans-Serif" font-size="10.00">cycle.h</text>
</a>
</g>
</g>
<!-- Node1&#45;&gt;Node2 -->
<g id="edge1" class="edge"><title>Node1&#45;&gt;Node2</title>
<path fill="none" stroke="midnightblue" d="M217.39,-221.915C174.69,-210.935 110.755,-194.494 75.7102,-185.483"/>
<polygon fill="midnightblue" stroke="midnightblue" points="216.668,-225.343 227.225,-224.444 218.412,-218.563 216.668,-225.343"/>
</g>
<!-- Node4 -->
<g id="node4" class="node"><title>Node4</title>
<g id="a_node4"><a xlink:href="event__tree_8cc.xhtml" target="_top" xlink:title="Implementation of event tree facilities. ">
<polygon fill="white" stroke="black" points="501.5,-168.5 501.5,-187.5 583.5,-187.5 583.5,-168.5 501.5,-168.5"/>
<text text-anchor="middle" x="542.5" y="-175.5" font-family="Helvetica,sans-Serif" font-size="10.00">event_tree.cc</text>
</a>
</g>
</g>
<!-- Node1&#45;&gt;Node4 -->
<g id="edge3" class="edge"><title>Node1&#45;&gt;Node4</title>
<path fill="none" stroke="midnightblue" d="M309.178,-223.679C363.39,-213.298 450.091,-196.695 501.144,-186.919"/>
<polygon fill="midnightblue" stroke="midnightblue" points="308.283,-220.286 299.12,-225.605 309.599,-227.161 308.283,-220.286"/>
</g>
<!-- Node5 -->
<g id="node5" class="node"><title>Node5</title>
<g id="a_node5"><a xlink:href="event__tree__analysis_8h.xhtml" target="_top" xlink:title="Event tree analysis facilities. ">
<polygon fill="white" stroke="black" points="362,-168.5 362,-187.5 483,-187.5 483,-168.5 362,-168.5"/>
<text text-anchor="middle" x="422.5" y="-175.5" font-family="Helvetica,sans-Serif" font-size="10.00">event_tree_analysis.h</text>
</a>
</g>
</g>
<!-- Node1&#45;&gt;Node5 -->
<g id="edge4" class="edge"><title>Node1&#45;&gt;Node5</title>
<path fill="none" stroke="midnightblue" d="M295.984,-221.172C326.488,-211.004 369.745,-196.585 396.951,-187.516"/>
<polygon fill="midnightblue" stroke="midnightblue" points="294.549,-217.961 286.169,-224.444 296.763,-224.602 294.549,-217.961"/>
</g>
<!-- Node12 -->
<g id="node12" class="node"><title>Node12</title>
<g id="a_node12"><a xlink:href="initializer_8h.xhtml" target="_top" xlink:title="A facility that processes input files into analysis constructs. ">
<polygon fill="white" stroke="black" points="33,-112.5 33,-131.5 100,-131.5 100,-112.5 33,-112.5"/>
<text text-anchor="middle" x="66.5" y="-119.5" font-family="Helvetica,sans-Serif" font-size="10.00">initializer.h</text>
</a>
</g>
</g>
<!-- Node1&#45;&gt;Node12 -->
<g id="edge12" class="edge"><title>Node1&#45;&gt;Node12</title>
<path fill="none" stroke="midnightblue" d="M236.34,-219.301C195.782,-196.304 115.16,-150.591 81.6521,-131.591"/>
<polygon fill="midnightblue" stroke="midnightblue" points="234.852,-222.481 245.277,-224.368 238.305,-216.391 234.852,-222.481"/>
</g>
<!-- Node13 -->
<g id="node13" class="node"><title>Node13</title>
<g id="a_node13"><a xlink:href="model_8h.xhtml" target="_top" xlink:title="Representation for a model container for risk analysis. ">
<polygon fill="white" stroke="black" points="232.5,-168.5 232.5,-187.5 288.5,-187.5 288.5,-168.5 232.5,-168.5"/>
<text text-anchor="middle" x="260.5" y="-175.5" font-family="Helvetica,sans-Serif" font-size="10.00">model.h</text>
</a>
</g>
</g>
<!-- Node1&#45;&gt;Node13 -->
<g id="edge15" class="edge"><title>Node1&#45;&gt;Node13</title>
<path fill="none" stroke="midnightblue" d="M260.5,-213.805C260.5,-204.91 260.5,-194.78 260.5,-187.751"/>
<polygon fill="midnightblue" stroke="midnightblue" points="257,-214.083 260.5,-224.083 264,-214.083 257,-214.083"/>
</g>
<!-- Node3 -->
<g id="node3" class="node"><title>Node3</title>
<g id="a_node3"><a xlink:href="initializer_8cc.xhtml" target="_top" xlink:title="Implementation of input file processing into analysis constructs. ">
<polygon fill="white" stroke="black" points="0,-56.5 0,-75.5 71,-75.5 71,-56.5 0,-56.5"/>
<text text-anchor="middle" x="35.5" y="-63.5" font-family="Helvetica,sans-Serif" font-size="10.00">initializer.cc</text>
</a>
</g>
</g>
<!-- Node2&#45;&gt;Node3 -->
<g id="edge2" class="edge"><title>Node2&#45;&gt;Node3</title>
<path fill="none" stroke="midnightblue" d="M37.4668,-160.231C32.0091,-152.168 26.2919,-142.079 23.5,-132 17.9863,-112.094 26.1588,-88.0456 31.4973,-75.5215"/>
<polygon fill="midnightblue" stroke="midnightblue" points="34.6526,-162.312 43.3485,-168.364 40.3249,-158.21 34.6526,-162.312"/>
</g>
<!-- Node6 -->
<g id="node6" class="node"><title>Node6</title>
<g id="a_node6"><a xlink:href="event__tree__analysis_8cc.xhtml" target="_top" xlink:title="Implementation of event tree analysis facilities. ">
<polygon fill="white" stroke="black" points="513,-112.5 513,-131.5 638,-131.5 638,-112.5 513,-112.5"/>
<text text-anchor="middle" x="575.5" y="-119.5" font-family="Helvetica,sans-Serif" font-size="10.00">event_tree_analysis.cc</text>
</a>
</g>
</g>
<!-- Node5&#45;&gt;Node6 -->
<g id="edge5" class="edge"><title>Node5&#45;&gt;Node6</title>
<path fill="none" stroke="midnightblue" d="M456.389,-165.039C485.177,-154.879 525.787,-140.546 551.37,-131.516"/>
<polygon fill="midnightblue" stroke="midnightblue" points="455.008,-161.815 446.743,-168.444 457.338,-168.416 455.008,-161.815"/>
</g>
<!-- Node7 -->
<g id="node7" class="node"><title>Node7</title>
<g id="a_node7"><a xlink:href="risk__analysis_8h.xhtml" target="_top" xlink:title="Contains the main system for performing analysis. ">
<polygon fill="white" stroke="black" points="408.5,-112.5 408.5,-131.5 494.5,-131.5 494.5,-112.5 408.5,-112.5"/>
<text text-anchor="middle" x="451.5" y="-119.5" font-family="Helvetica,sans-Serif" font-size="10.00">risk_analysis.h</text>
</a>
</g>
</g>
<!-- Node5&#45;&gt;Node7 -->
<g id="edge6" class="edge"><title>Node5&#45;&gt;Node7</title>
<path fill="none" stroke="midnightblue" d="M432.176,-158.983C437.098,-149.817 442.858,-139.092 446.8,-131.751"/>
<polygon fill="midnightblue" stroke="midnightblue" points="428.937,-157.617 427.289,-168.083 435.104,-160.929 428.937,-157.617"/>
</g>
<!-- Node8 -->
<g id="node8" class="node"><title>Node8</title>
<g id="a_node8"><a xlink:href="reporter_8h.xhtml" target="_top" xlink:title="Reporter of results. ">
<polygon fill="white" stroke="black" points="348.5,-56.5 348.5,-75.5 412.5,-75.5 412.5,-56.5 348.5,-56.5"/>
<text text-anchor="middle" x="380.5" y="-63.5" font-family="Helvetica,sans-Serif" font-size="10.00">reporter.h</text>
</a>
</g>
</g>
<!-- Node7&#45;&gt;Node8 -->
<g id="edge7" class="edge"><title>Node7&#45;&gt;Node8</title>
<path fill="none" stroke="midnightblue" d="M431.91,-106.101C419.132,-96.3824 402.887,-84.0269 392.115,-75.8339"/>
<polygon fill="midnightblue" stroke="midnightblue" points="430.014,-109.056 440.093,-112.324 434.252,-103.484 430.014,-109.056"/>
</g>
<!-- Node10 -->
<g id="node10" class="node"><title>Node10</title>
<g id="a_node10"><a xlink:href="scram_8cc.xhtml" target="_top" xlink:title="Main entrance. ">
<polygon fill="white" stroke="black" points="226.5,-0.5 226.5,-19.5 286.5,-19.5 286.5,-0.5 226.5,-0.5"/>
<text text-anchor="middle" x="256.5" y="-7.5" font-family="Helvetica,sans-Serif" font-size="10.00">scram.cc</text>
</a>
</g>
</g>
<!-- Node7&#45;&gt;Node10 -->
<g id="edge11" class="edge"><title>Node7&#45;&gt;Node10</title>
<path fill="none" stroke="midnightblue" d="M447.502,-102.465C443.397,-87.8096 435.562,-67.9002 421.5,-56 401.215,-38.8332 328.627,-23.6723 286.797,-16.1051"/>
<polygon fill="midnightblue" stroke="midnightblue" points="444.166,-103.555 449.956,-112.428 450.963,-101.881 444.166,-103.555"/>
</g>
<!-- Node11 -->
<g id="node11" class="node"><title>Node11</title>
<g id="a_node11"><a xlink:href="risk__analysis_8cc.xhtml" target="_top" xlink:title="Implementation of risk analysis handler. ">
<polygon fill="white" stroke="black" points="468.5,-56.5 468.5,-75.5 558.5,-75.5 558.5,-56.5 468.5,-56.5"/>
<text text-anchor="middle" x="513.5" y="-63.5" font-family="Helvetica,sans-Serif" font-size="10.00">risk_analysis.cc</text>
</a>
</g>
</g>
<!-- Node7&#45;&gt;Node11 -->
<g id="edge10" class="edge"><title>Node7&#45;&gt;Node11</title>
<path fill="none" stroke="midnightblue" d="M469.254,-105.537C480.308,-95.9087 494.131,-83.8694 503.357,-75.8339"/>
<polygon fill="midnightblue" stroke="midnightblue" points="466.703,-103.117 461.461,-112.324 471.301,-108.395 466.703,-103.117"/>
</g>
<!-- Node9 -->
<g id="node9" class="node"><title>Node9</title>
<g id="a_node9"><a xlink:href="reporter_8cc.xhtml" target="_top" xlink:title="Implements Reporter class. ">
<polygon fill="white" stroke="black" points="346.5,-0.5 346.5,-19.5 414.5,-19.5 414.5,-0.5 346.5,-0.5"/>
<text text-anchor="middle" x="380.5" y="-7.5" font-family="Helvetica,sans-Serif" font-size="10.00">reporter.cc</text>
</a>
</g>
</g>
<!-- Node8&#45;&gt;Node9 -->
<g id="edge8" class="edge"><title>Node8&#45;&gt;Node9</title>
<path fill="none" stroke="midnightblue" d="M380.5,-45.8045C380.5,-36.9102 380.5,-26.7798 380.5,-19.7511"/>
<polygon fill="midnightblue" stroke="midnightblue" points="377,-46.083 380.5,-56.083 384,-46.083 377,-46.083"/>
</g>
<!-- Node8&#45;&gt;Node10 -->
<g id="edge9" class="edge"><title>Node8&#45;&gt;Node10</title>
<path fill="none" stroke="midnightblue" d="M351.493,-52.3678C328.271,-42.2553 296.337,-28.3486 276.056,-19.5164"/>
<polygon fill="midnightblue" stroke="midnightblue" points="350.286,-55.6597 360.852,-56.4435 353.081,-49.2419 350.286,-55.6597"/>
</g>
<!-- Node12&#45;&gt;Node3 -->
<g id="edge13" class="edge"><title>Node12&#45;&gt;Node3</title>
<path fill="none" stroke="midnightblue" d="M56.3244,-103.275C51.0261,-94.0454 44.783,-83.1703 40.5238,-75.7511"/>
<polygon fill="midnightblue" stroke="midnightblue" points="53.3669,-105.153 61.381,-112.083 59.4376,-101.668 53.3669,-105.153"/>
</g>
<!-- Node12&#45;&gt;Node10 -->
<g id="edge14" class="edge"><title>Node12&#45;&gt;Node10</title>
<path fill="none" stroke="midnightblue" d="M90.1618,-107.301C129.883,-84.3043 208.844,-38.5906 241.66,-19.5914"/>
<polygon fill="midnightblue" stroke="midnightblue" points="88.3096,-104.329 81.409,-112.368 91.8169,-110.387 88.3096,-104.329"/>
</g>
<!-- Node13&#45;&gt;Node7 -->
<g id="edge20" class="edge"><title>Node13&#45;&gt;Node7</title>
<path fill="none" stroke="midnightblue" d="M298.36,-166.296C334.429,-156.099 388.025,-140.946 421.308,-131.536"/>
<polygon fill="midnightblue" stroke="midnightblue" points="297.353,-162.943 288.683,-169.032 299.258,-169.679 297.353,-162.943"/>
</g>
<!-- Node13&#45;&gt;Node8 -->
<g id="edge19" class="edge"><title>Node13&#45;&gt;Node8</title>
<path fill="none" stroke="midnightblue" d="M298.564,-168.476C319.836,-161.865 345.255,-150.596 361.5,-132 375.732,-115.708 379.321,-89.2567 380.214,-75.6665"/>
<polygon fill="midnightblue" stroke="midnightblue" points="297.465,-165.15 288.822,-171.277 299.399,-171.877 297.465,-165.15"/>
</g>
<!-- Node13&#45;&gt;Node12 -->
<g id="edge16" class="edge"><title>Node13&#45;&gt;Node12</title>
<path fill="none" stroke="midnightblue" d="M222.482,-166.418C185.894,-156.233 131.259,-141.026 97.3085,-131.576"/>
<polygon fill="midnightblue" stroke="midnightblue" points="221.718,-169.838 232.291,-169.148 223.596,-163.094 221.718,-169.838"/>
</g>
<!-- Node14 -->
<g id="node14" class="node"><title>Node14</title>
<g id="a_node14"><a xlink:href="model_8cc.xhtml" target="_top" xlink:title="Implementation of functions in Model class. ">
<polygon fill="white" stroke="black" points="292.5,-112.5 292.5,-131.5 352.5,-131.5 352.5,-112.5 292.5,-112.5"/>
<text text-anchor="middle" x="322.5" y="-119.5" font-family="Helvetica,sans-Serif" font-size="10.00">model.cc</text>
</a>
</g>
</g>
<!-- Node13&#45;&gt;Node14 -->
<g id="edge17" class="edge"><title>Node13&#45;&gt;Node14</title>
<path fill="none" stroke="midnightblue" d="M278.254,-161.537C289.308,-151.909 303.131,-139.869 312.357,-131.834"/>
<polygon fill="midnightblue" stroke="midnightblue" points="275.703,-159.117 270.461,-168.324 280.301,-164.395 275.703,-159.117"/>
</g>
<!-- Node15 -->
<g id="node15" class="node"><title>Node15</title>
<g id="a_node15"><a xlink:href="pdag_8cc.xhtml" target="_top" xlink:title="Implementation of a Propositional Directed Acyclic Graph with indexed nodes, variables, and gates. ">
<polygon fill="white" stroke="black" points="118.5,-112.5 118.5,-131.5 172.5,-131.5 172.5,-112.5 118.5,-112.5"/>
<text text-anchor="middle" x="145.5" y="-119.5" font-family="Helvetica,sans-Serif" font-size="10.00">pdag.cc</text>
</a>
</g>
</g>
<!-- Node13&#45;&gt;Node15 -->
<g id="edge18" class="edge"><title>Node13&#45;&gt;Node15</title>
<path fill="none" stroke="midnightblue" d="M233.019,-164.096C211.534,-154.007 182.278,-140.27 163.637,-131.516"/>
<polygon fill="midnightblue" stroke="midnightblue" points="231.738,-167.361 242.278,-168.444 234.714,-161.025 231.738,-167.361"/>
</g>
<!-- Node16 -->
<g id="node16" class="node"><title>Node16</title>
<g id="a_node16"><a xlink:href="serialization_8h.xhtml" target="_top" xlink:title="The MEF Model serialization facilities. ">
<polygon fill="white" stroke="black" points="191,-112.5 191,-131.5 274,-131.5 274,-112.5 191,-112.5"/>
<text text-anchor="middle" x="232.5" y="-119.5" font-family="Helvetica,sans-Serif" font-size="10.00">serialization.h</text>
</a>
</g>
</g>
<!-- Node13&#45;&gt;Node16 -->
<g id="edge21" class="edge"><title>Node13&#45;&gt;Node16</title>
<path fill="none" stroke="midnightblue" d="M251.158,-158.983C246.405,-149.817 240.844,-139.092 237.038,-131.751"/>
<polygon fill="midnightblue" stroke="midnightblue" points="248.166,-160.817 255.876,-168.083 254.38,-157.594 248.166,-160.817"/>
</g>
<!-- Node16&#45;&gt;Node10 -->
<g id="edge22" class="edge"><title>Node16&#45;&gt;Node10</title>
<path fill="none" stroke="midnightblue" d="M230.565,-102.28C229.742,-89.1341 229.705,-71.2471 233.5,-56 236.848,-42.5478 244.825,-28.5592 250.441,-19.8206"/>
<polygon fill="midnightblue" stroke="midnightblue" points="227.093,-102.754 231.415,-112.427 234.068,-102.17 227.093,-102.754"/>
</g>
<!-- Node17 -->
<g id="node17" class="node"><title>Node17</title>
<g id="a_node17"><a xlink:href="serialization_8cc.xhtml" target="_top" xlink:title="serialization.cc">
<polygon fill="white" stroke="black" points="243,-56.5 243,-75.5 330,-75.5 330,-56.5 243,-56.5"/>
<text text-anchor="middle" x="286.5" y="-63.5" font-family="Helvetica,sans-Serif" font-size="10.00">serialization.cc</text>
</a>
</g>
</g>
<!-- Node16&#45;&gt;Node17 -->
<g id="edge23" class="edge"><title>Node16&#45;&gt;Node17</title>
<path fill="none" stroke="midnightblue" d="M248.498,-105.002C258.067,-95.4329 269.861,-83.6389 277.749,-75.7511"/>
<polygon fill="midnightblue" stroke="midnightblue" points="246.013,-102.537 241.417,-112.083 250.963,-107.487 246.013,-102.537"/>
</g>
</g>
</svg>
