<?xml version="1.0" encoding="UTF-8" standalone="no"?>
<!DOCTYPE svg PUBLIC "-//W3C//DTD SVG 1.1//EN"
 "http://www.w3.org/Graphics/SVG/1.1/DTD/svg11.dtd">
<!-- Generated by graphviz version 2.38.0 (20140413.2041)
 -->
<!-- Title: exponential.h Pages: 1 -->
<svg width="534pt" height="151pt"
 viewBox="0.00 0.00 534.00 151.00" xmlns="http://www.w3.org/2000/svg" xmlns:xlink="http://www.w3.org/1999/xlink">
<g id="graph0" class="graph" transform="scale(1 1) rotate(0) translate(4 147)">
<title>exponential.h</title>
<polygon fill="white" stroke="none" points="-4,4 -4,-147 530,-147 530,4 -4,4"/>
<!-- Node1 -->
<g id="node1" class="node"><title>Node1</title>
<polygon fill="#bfbfbf" stroke="black" points="107.5,-123.5 107.5,-142.5 188.5,-142.5 188.5,-123.5 107.5,-123.5"/>
<text text-anchor="middle" x="148" y="-130.5" font-family="Helvetica,sans-Serif" font-size="10.00">exponential.h</text>
</g>
<!-- Node2 -->
<g id="node2" class="node"><title>Node2</title>
<polygon fill="white" stroke="#bfbfbf" points="72.5,-67.5 72.5,-86.5 129.5,-86.5 129.5,-67.5 72.5,-67.5"/>
<text text-anchor="middle" x="101" y="-74.5" font-family="Helvetica,sans-Serif" font-size="10.00">memory</text>
</g>
<!-- Node1&#45;&gt;Node2 -->
<g id="edge1" class="edge"><title>Node1&#45;&gt;Node2</title>
<path fill="none" stroke="midnightblue" d="M140.239,-123.083C133.463,-115.298 123.457,-103.801 115.245,-94.3665"/>
<polygon fill="midnightblue" stroke="midnightblue" points="117.822,-91.9963 108.617,-86.7511 112.542,-96.592 117.822,-91.9963"/>
</g>
<!-- Node3 -->
<g id="node3" class="node"><title>Node3</title>
<g id="a_node3"><a xlink:href="expression_8h.xhtml" target="_top" xlink:title="Provides the base class for all expressions and units for expression values. ">
<polygon fill="white" stroke="black" points="147.5,-67.5 147.5,-86.5 242.5,-86.5 242.5,-67.5 147.5,-67.5"/>
<text text-anchor="middle" x="195" y="-74.5" font-family="Helvetica,sans-Serif" font-size="10.00">src/expression.h</text>
</a>
</g>
</g>
<!-- Node1&#45;&gt;Node3 -->
<g id="edge2" class="edge"><title>Node1&#45;&gt;Node3</title>
<path fill="none" stroke="midnightblue" d="M155.761,-123.083C162.537,-115.298 172.543,-103.801 180.755,-94.3665"/>
<polygon fill="midnightblue" stroke="midnightblue" points="183.458,-96.592 187.383,-86.7511 178.178,-91.9963 183.458,-96.592"/>
</g>
<!-- Node4 -->
<g id="node4" class="node"><title>Node4</title>
<polygon fill="white" stroke="#bfbfbf" points="0,-6 0,-25 62,-25 62,-6 0,-6"/>
<text text-anchor="middle" x="31" y="-13" font-family="Helvetica,sans-Serif" font-size="10.00">algorithm</text>
</g>
<!-- Node3&#45;&gt;Node4 -->
<g id="edge3" class="edge"><title>Node3&#45;&gt;Node4</title>
<path fill="none" stroke="midnightblue" d="M171.503,-67.4751C143.371,-57.2687 96.0707,-40.108 64.2112,-28.5492"/>
<polygon fill="midnightblue" stroke="midnightblue" points="65.0478,-25.1295 54.4536,-25.0091 62.6604,-31.7098 65.0478,-25.1295"/>
</g>
<!-- Node5 -->
<g id="node5" class="node"><title>Node5</title>
<polygon fill="white" stroke="#bfbfbf" points="80,-6 80,-25 124,-25 124,-6 80,-6"/>
<text text-anchor="middle" x="102" y="-13" font-family="Helvetica,sans-Serif" font-size="10.00">string</text>
</g>
<!-- Node3&#45;&gt;Node5 -->
<g id="edge4" class="edge"><title>Node3&#45;&gt;Node5</title>
<path fill="none" stroke="midnightblue" d="M181.675,-67.4751C166.62,-57.8431 141.884,-42.0175 123.963,-30.5517"/>
<polygon fill="midnightblue" stroke="midnightblue" points="125.61,-27.4501 115.3,-25.0091 121.837,-33.3466 125.61,-27.4501"/>
</g>
<!-- Node6 -->
<g id="node6" class="node"><title>Node6</title>
<polygon fill="white" stroke="#bfbfbf" points="142,-6 142,-25 184,-25 184,-6 142,-6"/>
<text text-anchor="middle" x="163" y="-13" font-family="Helvetica,sans-Serif" font-size="10.00">utility</text>
</g>
<!-- Node3&#45;&gt;Node6 -->
<g id="edge5" class="edge"><title>Node3&#45;&gt;Node6</title>
<path fill="none" stroke="midnightblue" d="M190.415,-67.4751C185.758,-58.8152 178.408,-45.1486 172.49,-34.1453"/>
<polygon fill="midnightblue" stroke="midnightblue" points="175.395,-32.1584 167.576,-25.0091 169.23,-35.474 175.395,-32.1584"/>
</g>
<!-- Node7 -->
<g id="node7" class="node"><title>Node7</title>
<polygon fill="white" stroke="#bfbfbf" points="202.5,-6 202.5,-25 249.5,-25 249.5,-6 202.5,-6"/>
<text text-anchor="middle" x="226" y="-13" font-family="Helvetica,sans-Serif" font-size="10.00">vector</text>
</g>
<!-- Node3&#45;&gt;Node7 -->
<g id="edge6" class="edge"><title>Node3&#45;&gt;Node7</title>
<path fill="none" stroke="midnightblue" d="M199.442,-67.4751C203.953,-58.8152 211.074,-45.1486 216.807,-34.1453"/>
<polygon fill="midnightblue" stroke="midnightblue" points="220.05,-35.4948 221.567,-25.0091 213.842,-32.2604 220.05,-35.4948"/>
</g>
<!-- Node8 -->
<g id="node8" class="node"><title>Node8</title>
<polygon fill="white" stroke="#bfbfbf" points="268,-0.5 268,-30.5 380,-30.5 380,-0.5 268,-0.5"/>
<text text-anchor="start" x="276" y="-18.5" font-family="Helvetica,sans-Serif" font-size="10.00">boost/icl/continuous</text>
<text text-anchor="middle" x="324" y="-7.5" font-family="Helvetica,sans-Serif" font-size="10.00">_interval.hpp</text>
</g>
<!-- Node3&#45;&gt;Node8 -->
<g id="edge7" class="edge"><title>Node3&#45;&gt;Node8</title>
<path fill="none" stroke="midnightblue" d="M213.483,-67.4751C231.934,-58.9648 260.867,-45.6193 284.502,-34.718"/>
<polygon fill="midnightblue" stroke="midnightblue" points="285.983,-37.8896 293.597,-30.523 283.051,-31.5332 285.983,-37.8896"/>
</g>
<!-- Node9 -->
<g id="node9" class="node"><title>Node9</title>
<polygon fill="white" stroke="#bfbfbf" points="398,-6 398,-25 526,-25 526,-6 398,-6"/>
<text text-anchor="middle" x="462" y="-13" font-family="Helvetica,sans-Serif" font-size="10.00">boost/noncopyable.hpp</text>
</g>
<!-- Node3&#45;&gt;Node9 -->
<g id="edge8" class="edge"><title>Node3&#45;&gt;Node9</title>
<path fill="none" stroke="midnightblue" d="M233.255,-67.4751C280.839,-56.8711 362.11,-38.7602 413.875,-27.2244"/>
<polygon fill="midnightblue" stroke="midnightblue" points="414.817,-30.6005 423.816,-25.0091 413.294,-23.7681 414.817,-30.6005"/>
</g>
</g>
</svg>
