<?xml version="1.0" encoding="UTF-8" standalone="no"?>
<!DOCTYPE svg PUBLIC "-//W3C//DTD SVG 1.1//EN"
 "http://www.w3.org/Graphics/SVG/1.1/DTD/svg11.dtd">
<!-- Generated by graphviz version 2.38.0 (20140413.2041)
 -->
<!-- Title: exponential.cc Pages: 1 -->
<svg width="1029pt" height="207pt"
 viewBox="0.00 0.00 1028.50 207.00" xmlns="http://www.w3.org/2000/svg" xmlns:xlink="http://www.w3.org/1999/xlink">
<g id="graph0" class="graph" transform="scale(1 1) rotate(0) translate(4 203)">
<title>exponential.cc</title>
<polygon fill="white" stroke="none" points="-4,4 -4,-203 1024.5,-203 1024.5,4 -4,4"/>
<!-- Node1 -->
<g id="node1" class="node"><title>Node1</title>
<polygon fill="#bfbfbf" stroke="black" points="449,-179.5 449,-198.5 535,-198.5 535,-179.5 449,-179.5"/>
<text text-anchor="middle" x="492" y="-186.5" font-family="Helvetica,sans-Serif" font-size="10.00">exponential.cc</text>
</g>
<!-- Node2 -->
<g id="node2" class="node"><title>Node2</title>
<g id="a_node2"><a xlink:href="exponential_8h.xhtml" target="_top" xlink:title="Expressions and distributions that are described with exponential formulas. ">
<polygon fill="white" stroke="black" points="217.5,-123.5 217.5,-142.5 298.5,-142.5 298.5,-123.5 217.5,-123.5"/>
<text text-anchor="middle" x="258" y="-130.5" font-family="Helvetica,sans-Serif" font-size="10.00">exponential.h</text>
</a>
</g>
</g>
<!-- Node1&#45;&gt;Node2 -->
<g id="edge1" class="edge"><title>Node1&#45;&gt;Node2</title>
<path fill="none" stroke="midnightblue" d="M454.922,-179.444C414.272,-170.063 348.968,-154.993 304.816,-144.804"/>
<polygon fill="midnightblue" stroke="midnightblue" points="305.435,-141.355 294.905,-142.516 303.861,-148.175 305.435,-141.355"/>
</g>
<!-- Node11 -->
<g id="node11" class="node"><title>Node11</title>
<polygon fill="white" stroke="#bfbfbf" points="468.5,-123.5 468.5,-142.5 515.5,-142.5 515.5,-123.5 468.5,-123.5"/>
<text text-anchor="middle" x="492" y="-130.5" font-family="Helvetica,sans-Serif" font-size="10.00">cmath</text>
</g>
<!-- Node1&#45;&gt;Node11 -->
<g id="edge10" class="edge"><title>Node1&#45;&gt;Node11</title>
<path fill="none" stroke="midnightblue" d="M492,-179.083C492,-172.006 492,-161.861 492,-152.986"/>
<polygon fill="midnightblue" stroke="midnightblue" points="495.5,-152.751 492,-142.751 488.5,-152.751 495.5,-152.751"/>
</g>
<!-- Node12 -->
<g id="node12" class="node"><title>Node12</title>
<g id="a_node12"><a xlink:href="error_8h.xhtml" target="_top" xlink:title="Exceptions for SCRAM. ">
<polygon fill="white" stroke="black" points="685.5,-123.5 685.5,-142.5 750.5,-142.5 750.5,-123.5 685.5,-123.5"/>
<text text-anchor="middle" x="718" y="-130.5" font-family="Helvetica,sans-Serif" font-size="10.00">src/error.h</text>
</a>
</g>
</g>
<!-- Node1&#45;&gt;Node12 -->
<g id="edge11" class="edge"><title>Node1&#45;&gt;Node12</title>
<path fill="none" stroke="midnightblue" d="M527.81,-179.444C567.909,-169.862 632.849,-154.346 675.491,-144.157"/>
<polygon fill="midnightblue" stroke="midnightblue" points="676.38,-147.543 685.292,-141.815 674.753,-140.735 676.38,-147.543"/>
</g>
<!-- Node3 -->
<g id="node3" class="node"><title>Node3</title>
<polygon fill="white" stroke="#bfbfbf" points="229.5,-67.5 229.5,-86.5 286.5,-86.5 286.5,-67.5 229.5,-67.5"/>
<text text-anchor="middle" x="258" y="-74.5" font-family="Helvetica,sans-Serif" font-size="10.00">memory</text>
</g>
<!-- Node2&#45;&gt;Node3 -->
<g id="edge2" class="edge"><title>Node2&#45;&gt;Node3</title>
<path fill="none" stroke="midnightblue" d="M258,-123.083C258,-116.006 258,-105.861 258,-96.9865"/>
<polygon fill="midnightblue" stroke="midnightblue" points="261.5,-96.751 258,-86.7511 254.5,-96.7511 261.5,-96.751"/>
</g>
<!-- Node4 -->
<g id="node4" class="node"><title>Node4</title>
<g id="a_node4"><a xlink:href="expression_8h.xhtml" target="_top" xlink:title="Provides the base class for all expressions and units for expression values. ">
<polygon fill="white" stroke="black" points="116.5,-67.5 116.5,-86.5 211.5,-86.5 211.5,-67.5 116.5,-67.5"/>
<text text-anchor="middle" x="164" y="-74.5" font-family="Helvetica,sans-Serif" font-size="10.00">src/expression.h</text>
</a>
</g>
</g>
<!-- Node2&#45;&gt;Node4 -->
<g id="edge3" class="edge"><title>Node2&#45;&gt;Node4</title>
<path fill="none" stroke="midnightblue" d="M242.897,-123.324C228.097,-114.822 205.306,-101.729 188.018,-91.7975"/>
<polygon fill="midnightblue" stroke="midnightblue" points="189.48,-88.6009 179.065,-86.6545 185.993,-94.6707 189.48,-88.6009"/>
</g>
<!-- Node5 -->
<g id="node5" class="node"><title>Node5</title>
<polygon fill="white" stroke="#bfbfbf" points="0,-6 0,-25 62,-25 62,-6 0,-6"/>
<text text-anchor="middle" x="31" y="-13" font-family="Helvetica,sans-Serif" font-size="10.00">algorithm</text>
</g>
<!-- Node4&#45;&gt;Node5 -->
<g id="edge4" class="edge"><title>Node4&#45;&gt;Node5</title>
<path fill="none" stroke="midnightblue" d="M144.944,-67.4751C122.525,-57.4455 85.0946,-40.7002 59.2868,-29.1546"/>
<polygon fill="midnightblue" stroke="midnightblue" points="60.5778,-25.8979 50.0203,-25.0091 57.7192,-32.2877 60.5778,-25.8979"/>
</g>
<!-- Node6 -->
<g id="node6" class="node"><title>Node6</title>
<polygon fill="white" stroke="#bfbfbf" points="694,-6 694,-25 738,-25 738,-6 694,-6"/>
<text text-anchor="middle" x="716" y="-13" font-family="Helvetica,sans-Serif" font-size="10.00">string</text>
</g>
<!-- Node4&#45;&gt;Node6 -->
<g id="edge5" class="edge"><title>Node4&#45;&gt;Node6</title>
<path fill="none" stroke="midnightblue" d="M211.631,-68.1526C214.461,-67.7463 217.266,-67.3585 220,-67 394.178,-44.1561 603.926,-25.793 683.372,-19.1638"/>
<polygon fill="midnightblue" stroke="midnightblue" points="684.024,-22.6218 693.7,-18.307 683.445,-15.6458 684.024,-22.6218"/>
</g>
<!-- Node7 -->
<g id="node7" class="node"><title>Node7</title>
<polygon fill="white" stroke="#bfbfbf" points="80,-6 80,-25 122,-25 122,-6 80,-6"/>
<text text-anchor="middle" x="101" y="-13" font-family="Helvetica,sans-Serif" font-size="10.00">utility</text>
</g>
<!-- Node4&#45;&gt;Node7 -->
<g id="edge6" class="edge"><title>Node4&#45;&gt;Node7</title>
<path fill="none" stroke="midnightblue" d="M154.974,-67.4751C145.243,-58.285 129.542,-43.4563 117.577,-32.156"/>
<polygon fill="midnightblue" stroke="midnightblue" points="119.683,-29.3308 110.01,-25.0091 114.877,-34.4199 119.683,-29.3308"/>
</g>
<!-- Node8 -->
<g id="node8" class="node"><title>Node8</title>
<polygon fill="white" stroke="#bfbfbf" points="140.5,-6 140.5,-25 187.5,-25 187.5,-6 140.5,-6"/>
<text text-anchor="middle" x="164" y="-13" font-family="Helvetica,sans-Serif" font-size="10.00">vector</text>
</g>
<!-- Node4&#45;&gt;Node8 -->
<g id="edge7" class="edge"><title>Node4&#45;&gt;Node8</title>
<path fill="none" stroke="midnightblue" d="M164,-67.4751C164,-59.0803 164,-45.9806 164,-35.1631"/>
<polygon fill="midnightblue" stroke="midnightblue" points="167.5,-35.0091 164,-25.0091 160.5,-35.0091 167.5,-35.0091"/>
</g>
<!-- Node9 -->
<g id="node9" class="node"><title>Node9</title>
<polygon fill="white" stroke="#bfbfbf" points="206,-0.5 206,-30.5 318,-30.5 318,-0.5 206,-0.5"/>
<text text-anchor="start" x="214" y="-18.5" font-family="Helvetica,sans-Serif" font-size="10.00">boost/icl/continuous</text>
<text text-anchor="middle" x="262" y="-7.5" font-family="Helvetica,sans-Serif" font-size="10.00">_interval.hpp</text>
</g>
<!-- Node4&#45;&gt;Node9 -->
<g id="edge8" class="edge"><title>Node4&#45;&gt;Node9</title>
<path fill="none" stroke="midnightblue" d="M178.041,-67.4751C191.562,-59.266 212.493,-46.5581 230.073,-35.8845"/>
<polygon fill="midnightblue" stroke="midnightblue" points="232.172,-38.7046 238.903,-30.523 228.539,-32.721 232.172,-38.7046"/>
</g>
<!-- Node10 -->
<g id="node10" class="node"><title>Node10</title>
<polygon fill="white" stroke="#bfbfbf" points="336,-6 336,-25 464,-25 464,-6 336,-6"/>
<text text-anchor="middle" x="400" y="-13" font-family="Helvetica,sans-Serif" font-size="10.00">boost/noncopyable.hpp</text>
</g>
<!-- Node4&#45;&gt;Node10 -->
<g id="edge9" class="edge"><title>Node4&#45;&gt;Node10</title>
<path fill="none" stroke="midnightblue" d="M197.813,-67.4751C239.522,-56.9595 310.512,-39.0615 356.314,-27.5142"/>
<polygon fill="midnightblue" stroke="midnightblue" points="357.409,-30.8476 366.25,-25.0091 355.697,-24.06 357.409,-30.8476"/>
</g>
<!-- Node12&#45;&gt;Node6 -->
<g id="edge13" class="edge"><title>Node12&#45;&gt;Node6</title>
<path fill="none" stroke="midnightblue" d="M750.65,-131.974C815.846,-130.774 952.4,-121.85 910,-67 890.327,-41.5504 797.914,-26.5235 748.067,-20.1366"/>
<polygon fill="midnightblue" stroke="midnightblue" points="748.472,-16.6601 738.117,-18.9042 747.611,-23.607 748.472,-16.6601"/>
</g>
<!-- Node13 -->
<g id="node13" class="node"><title>Node13</title>
<polygon fill="white" stroke="#bfbfbf" points="957.5,-67.5 957.5,-86.5 1020.5,-86.5 1020.5,-67.5 957.5,-67.5"/>
<text text-anchor="middle" x="989" y="-74.5" font-family="Helvetica,sans-Serif" font-size="10.00">exception</text>
</g>
<!-- Node12&#45;&gt;Node13 -->
<g id="edge12" class="edge"><title>Node12&#45;&gt;Node13</title>
<path fill="none" stroke="midnightblue" d="M750.689,-125.486C800.019,-115.657 893.453,-97.0388 947.515,-86.2665"/>
<polygon fill="midnightblue" stroke="midnightblue" points="948.331,-89.6727 957.454,-84.2859 946.963,-82.8076 948.331,-89.6727"/>
</g>
<!-- Node14 -->
<g id="node14" class="node"><title>Node14</title>
<polygon fill="white" stroke="#bfbfbf" points="305,-67.5 305,-86.5 451,-86.5 451,-67.5 305,-67.5"/>
<text text-anchor="middle" x="378" y="-74.5" font-family="Helvetica,sans-Serif" font-size="10.00">boost/current_function.hpp</text>
</g>
<!-- Node12&#45;&gt;Node14 -->
<g id="edge14" class="edge"><title>Node12&#45;&gt;Node14</title>
<path fill="none" stroke="midnightblue" d="M685.399,-126.822C629.363,-117.922 513.837,-99.5741 441.464,-88.0795"/>
<polygon fill="midnightblue" stroke="midnightblue" points="441.974,-84.6168 431.549,-86.5048 440.876,-91.5301 441.974,-84.6168"/>
</g>
<!-- Node15 -->
<g id="node15" class="node"><title>Node15</title>
<polygon fill="white" stroke="#bfbfbf" points="469,-67.5 469,-86.5 633,-86.5 633,-67.5 469,-67.5"/>
<text text-anchor="middle" x="551" y="-74.5" font-family="Helvetica,sans-Serif" font-size="10.00">boost/exception/exception.hpp</text>
</g>
<!-- Node12&#45;&gt;Node15 -->
<g id="edge15" class="edge"><title>Node12&#45;&gt;Node15</title>
<path fill="none" stroke="midnightblue" d="M691.538,-123.444C663.322,-114.32 618.46,-99.8133 587.032,-89.6509"/>
<polygon fill="midnightblue" stroke="midnightblue" points="587.93,-86.263 577.338,-86.5164 585.776,-92.9234 587.93,-86.263"/>
</g>
<!-- Node16 -->
<g id="node16" class="node"><title>Node16</title>
<polygon fill="white" stroke="#bfbfbf" points="651,-67.5 651,-86.5 785,-86.5 785,-67.5 651,-67.5"/>
<text text-anchor="middle" x="718" y="-74.5" font-family="Helvetica,sans-Serif" font-size="10.00">boost/exception/info.hpp</text>
</g>
<!-- Node12&#45;&gt;Node16 -->
<g id="edge16" class="edge"><title>Node12&#45;&gt;Node16</title>
<path fill="none" stroke="midnightblue" d="M718,-123.083C718,-116.006 718,-105.861 718,-96.9865"/>
<polygon fill="midnightblue" stroke="midnightblue" points="721.5,-96.751 718,-86.7511 714.5,-96.7511 721.5,-96.751"/>
</g>
<!-- Node17 -->
<g id="node17" class="node"><title>Node17</title>
<g id="a_node17"><a xlink:href="source__info_8h.xhtml" target="_top" xlink:title="Helper facilities to get source file information. ">
<polygon fill="white" stroke="black" points="803,-67.5 803,-86.5 901,-86.5 901,-67.5 803,-67.5"/>
<text text-anchor="middle" x="852" y="-74.5" font-family="Helvetica,sans-Serif" font-size="10.00">ext/source_info.h</text>
</a>
</g>
</g>
<!-- Node12&#45;&gt;Node17 -->
<g id="edge17" class="edge"><title>Node12&#45;&gt;Node17</title>
<path fill="none" stroke="midnightblue" d="M739.233,-123.444C761.384,-114.517 796.319,-100.439 821.436,-90.3168"/>
<polygon fill="midnightblue" stroke="midnightblue" points="822.9,-93.5006 830.867,-86.5164 820.283,-87.0079 822.9,-93.5006"/>
</g>
</g>
</svg>
