<?xml version="1.0" encoding="UTF-8" standalone="no"?>
<!DOCTYPE svg PUBLIC "-//W3C//DTD SVG 1.1//EN"
 "http://www.w3.org/Graphics/SVG/1.1/DTD/svg11.dtd">
<!-- Generated by graphviz version 2.38.0 (20140413.2041)
 -->
<!-- Title: expression.cc Pages: 1 -->
<!--zoomable 151 -->
<svg id="main" version="1.1" xmlns="http://www.w3.org/2000/svg" xmlns:xlink="http://www.w3.org/1999/xlink" xml:space="preserve" onload="init(evt)">
<style type="text/css"><![CDATA[
.edge:hover path { stroke: red; }
.edge:hover polygon { stroke: red; fill: red; }
]]></style>
<script type="text/javascript"><![CDATA[
var edges = document.getElementsByTagName('g');
if (edges && edges.length) {
  for (var i=0;i<edges.length;i++) {
    if (edges[i].id.substr(0,4)=='edge') {
      edges[i].setAttribute('class','edge');
    }
  }
}
]]></script>
        <defs>
                <circle id="rim" cx="0" cy="0" r="7"/>
                <circle id="rim2" cx="0" cy="0" r="3.5"/>
                <g id="zoomPlus">
                        <use xlink:href="#rim" fill="#404040">
                                <set attributeName="fill" to="#808080" begin="zoomplus.mouseover" end="zoomplus.mouseout"/>
                        </use>
                        <path d="M-4,0h8M0,-4v8" fill="none" stroke="white" stroke-width="1.5" pointer-events="none"/>
                </g>
                <g id="zoomMin">
                        <use xlink:href="#rim" fill="#404040">
                                <set attributeName="fill" to="#808080" begin="zoomminus.mouseover" end="zoomminus.mouseout"/>
                        </use>
                        <path d="M-4,0h8" fill="none" stroke="white" stroke-width="1.5" pointer-events="none"/>
                </g>
                <g id="dirArrow">
                        <path fill="none" stroke="white" stroke-width="1.5" d="M0,-3.0v7 M-2.5,-0.5L0,-3.0L2.5,-0.5"/>
                </g>
               <g id="resetDef">
                       <use xlink:href="#rim2" fill="#404040">
                               <set attributeName="fill" to="#808080" begin="reset.mouseover" end="reset.mouseout"/>
                       </use>
               </g>
        </defs>

<script type="text/javascript">
var viewWidth = 1392;
var viewHeight = 151;
var sectionId = 'dynsection-0';
</script>
<script xlink:href="svgpan.js"/>
<svg id="graph" class="graph">
<g id="viewport">
<title>expression.cc</title>
<polygon fill="white" stroke="none" points="-4,4 -4,-147 1388,-147 1388,4 -4,4"/>
<!-- Node1 -->
<g id="node1" class="node"><title>Node1</title>
<polygon fill="#bfbfbf" stroke="black" points="822,-123.5 822,-142.5 904,-142.5 904,-123.5 822,-123.5"/>
<text text-anchor="middle" x="863" y="-130.5" font-family="Helvetica,sans-Serif" font-size="10.00">expression.cc</text>
</g>
<!-- Node2 -->
<g id="node2" class="node"><title>Node2</title>
<g id="a_node2"><a xlink:href="expression_8h.xhtml" target="_top" xlink:title="Provides the base class for all expressions and units for expression values. ">
<polygon fill="white" stroke="black" points="951.5,-67.5 951.5,-86.5 1028.5,-86.5 1028.5,-67.5 951.5,-67.5"/>
<text text-anchor="middle" x="990" y="-74.5" font-family="Helvetica,sans-Serif" font-size="10.00">expression.h</text>
</a>
</g>
</g>
<!-- Node1&#45;&gt;Node2 -->
<g id="edge1" class="edge"><title>Node1&#45;&gt;Node2</title>
<path fill="none" stroke="midnightblue" d="M883.124,-123.444C904.024,-114.557 936.935,-100.563 960.716,-90.4514"/>
<polygon fill="midnightblue" stroke="midnightblue" points="962.138,-93.6504 969.971,-86.5164 959.398,-87.2085 962.138,-93.6504"/>
</g>
<!-- Node9 -->
<g id="node9" class="node"><title>Node9</title>
<polygon fill="white" stroke="#bfbfbf" points="1047,-67.5 1047,-86.5 1103,-86.5 1103,-67.5 1047,-67.5"/>
<text text-anchor="middle" x="1075" y="-74.5" font-family="Helvetica,sans-Serif" font-size="10.00">sstream</text>
</g>
<!-- Node1&#45;&gt;Node9 -->
<g id="edge8" class="edge"><title>Node1&#45;&gt;Node9</title>
<path fill="none" stroke="midnightblue" d="M896.592,-123.444C934.828,-113.704 997.142,-97.8317 1037.09,-87.6567"/>
<polygon fill="midnightblue" stroke="midnightblue" points="1038.15,-90.997 1046.98,-85.1368 1036.43,-84.2135 1038.15,-90.997"/>
</g>
<!-- Node10 -->
<g id="node10" class="node"><title>Node10</title>
<g id="a_node10"><a xlink:href="error_8h.xhtml" target="_top" xlink:title="Exceptions for SCRAM. ">
<polygon fill="white" stroke="black" points="713,-67.5 713,-86.5 761,-86.5 761,-67.5 713,-67.5"/>
<text text-anchor="middle" x="737" y="-74.5" font-family="Helvetica,sans-Serif" font-size="10.00">error.h</text>
</a>
</g>
</g>
<!-- Node1&#45;&gt;Node10 -->
<g id="edge9" class="edge"><title>Node1&#45;&gt;Node10</title>
<path fill="none" stroke="midnightblue" d="M843.035,-123.444C822.391,-114.596 789.937,-100.687 766.368,-90.5865"/>
<polygon fill="midnightblue" stroke="midnightblue" points="767.442,-87.2387 756.872,-86.5164 764.684,-93.6727 767.442,-87.2387"/>
</g>
<!-- Node16 -->
<g id="node16" class="node"><title>Node16</title>
<g id="a_node16"><a xlink:href="algorithm_8h.xhtml" target="_top" xlink:title="Helpful algorithm facilities as an extension to the STL or Boost. ">
<polygon fill="white" stroke="black" points="148.5,-67.5 148.5,-86.5 237.5,-86.5 237.5,-67.5 148.5,-67.5"/>
<text text-anchor="middle" x="193" y="-74.5" font-family="Helvetica,sans-Serif" font-size="10.00">ext/algorithm.h</text>
</a>
</g>
</g>
<!-- Node1&#45;&gt;Node16 -->
<g id="edge16" class="edge"><title>Node1&#45;&gt;Node16</title>
<path fill="none" stroke="midnightblue" d="M821.846,-128.683C706.252,-119.367 378.558,-92.9554 247.832,-82.4193"/>
<polygon fill="midnightblue" stroke="midnightblue" points="247.902,-78.9137 237.653,-81.5989 247.339,-85.891 247.902,-78.9137"/>
</g>
<!-- Node3 -->
<g id="node3" class="node"><title>Node3</title>
<polygon fill="white" stroke="#bfbfbf" points="162,-6 162,-25 224,-25 224,-6 162,-6"/>
<text text-anchor="middle" x="193" y="-13" font-family="Helvetica,sans-Serif" font-size="10.00">algorithm</text>
</g>
<!-- Node2&#45;&gt;Node3 -->
<g id="edge2" class="edge"><title>Node2&#45;&gt;Node3</title>
<path fill="none" stroke="midnightblue" d="M951.06,-74.3435C806.249,-68.0931 303.512,-45.5559 233,-31 229.568,-30.2916 226.035,-29.3478 222.555,-28.2803"/>
<polygon fill="midnightblue" stroke="midnightblue" points="223.615,-24.9439 213.021,-25.0364 221.361,-31.5709 223.615,-24.9439"/>
</g>
<!-- Node4 -->
<g id="node4" class="node"><title>Node4</title>
<polygon fill="white" stroke="#bfbfbf" points="938,-6 938,-25 982,-25 982,-6 938,-6"/>
<text text-anchor="middle" x="960" y="-13" font-family="Helvetica,sans-Serif" font-size="10.00">string</text>
</g>
<!-- Node2&#45;&gt;Node4 -->
<g id="edge3" class="edge"><title>Node2&#45;&gt;Node4</title>
<path fill="none" stroke="midnightblue" d="M985.702,-67.4751C981.335,-58.8152 974.445,-45.1486 968.897,-34.1453"/>
<polygon fill="midnightblue" stroke="midnightblue" points="971.918,-32.3625 964.29,-25.0091 965.667,-35.5141 971.918,-32.3625"/>
</g>
<!-- Node5 -->
<g id="node5" class="node"><title>Node5</title>
<polygon fill="white" stroke="#bfbfbf" points="1000,-6 1000,-25 1042,-25 1042,-6 1000,-6"/>
<text text-anchor="middle" x="1021" y="-13" font-family="Helvetica,sans-Serif" font-size="10.00">utility</text>
</g>
<!-- Node2&#45;&gt;Node5 -->
<g id="edge4" class="edge"><title>Node2&#45;&gt;Node5</title>
<path fill="none" stroke="midnightblue" d="M994.442,-67.4751C998.953,-58.8152 1006.07,-45.1486 1011.81,-34.1453"/>
<polygon fill="midnightblue" stroke="midnightblue" points="1015.05,-35.4948 1016.57,-25.0091 1008.84,-32.2604 1015.05,-35.4948"/>
</g>
<!-- Node6 -->
<g id="node6" class="node"><title>Node6</title>
<polygon fill="white" stroke="#bfbfbf" points="1060.5,-6 1060.5,-25 1107.5,-25 1107.5,-6 1060.5,-6"/>
<text text-anchor="middle" x="1084" y="-13" font-family="Helvetica,sans-Serif" font-size="10.00">vector</text>
</g>
<!-- Node2&#45;&gt;Node6 -->
<g id="edge5" class="edge"><title>Node2&#45;&gt;Node6</title>
<path fill="none" stroke="midnightblue" d="M1003.47,-67.4751C1018.68,-57.8431 1043.69,-42.0175 1061.8,-30.5517"/>
<polygon fill="midnightblue" stroke="midnightblue" points="1063.98,-33.3149 1070.56,-25.0091 1060.24,-27.4002 1063.98,-33.3149"/>
</g>
<!-- Node7 -->
<g id="node7" class="node"><title>Node7</title>
<polygon fill="white" stroke="#bfbfbf" points="1126,-0.5 1126,-30.5 1238,-30.5 1238,-0.5 1126,-0.5"/>
<text text-anchor="start" x="1134" y="-18.5" font-family="Helvetica,sans-Serif" font-size="10.00">boost/icl/continuous</text>
<text text-anchor="middle" x="1182" y="-7.5" font-family="Helvetica,sans-Serif" font-size="10.00">_interval.hpp</text>
</g>
<!-- Node2&#45;&gt;Node7 -->
<g id="edge6" class="edge"><title>Node2&#45;&gt;Node7</title>
<path fill="none" stroke="midnightblue" d="M1017.51,-67.4751C1045.94,-58.6635 1091.1,-44.6684 1126.92,-33.5698"/>
<polygon fill="midnightblue" stroke="midnightblue" points="1128.23,-36.8263 1136.75,-30.523 1126.16,-30.14 1128.23,-36.8263"/>
</g>
<!-- Node8 -->
<g id="node8" class="node"><title>Node8</title>
<polygon fill="white" stroke="#bfbfbf" points="1256,-6 1256,-25 1384,-25 1384,-6 1256,-6"/>
<text text-anchor="middle" x="1320" y="-13" font-family="Helvetica,sans-Serif" font-size="10.00">boost/noncopyable.hpp</text>
</g>
<!-- Node2&#45;&gt;Node8 -->
<g id="edge7" class="edge"><title>Node2&#45;&gt;Node8</title>
<path fill="none" stroke="midnightblue" d="M1028.5,-68.7289C1031.71,-68.1381 1034.91,-67.5553 1038,-67 1130.77,-50.3143 1154.32,-48.1831 1247,-31 1253.74,-29.7497 1260.83,-28.3946 1267.82,-27.0318"/>
<polygon fill="midnightblue" stroke="midnightblue" points="1268.82,-30.4029 1277.96,-25.041 1267.47,-23.5342 1268.82,-30.4029"/>
</g>
<!-- Node10&#45;&gt;Node4 -->
<g id="edge11" class="edge"><title>Node10&#45;&gt;Node4</title>
<path fill="none" stroke="midnightblue" d="M761.097,-72.012C797.923,-65.5492 870.13,-51.419 929,-31 930.621,-30.4378 932.271,-29.8179 933.922,-29.1606"/>
<polygon fill="midnightblue" stroke="midnightblue" points="935.431,-32.321 943.208,-25.1261 932.642,-25.9007 935.431,-32.321"/>
</g>
<!-- Node11 -->
<g id="node11" class="node"><title>Node11</title>
<polygon fill="white" stroke="#bfbfbf" points="242.5,-6 242.5,-25 305.5,-25 305.5,-6 242.5,-6"/>
<text text-anchor="middle" x="274" y="-13" font-family="Helvetica,sans-Serif" font-size="10.00">exception</text>
</g>
<!-- Node10&#45;&gt;Node11 -->
<g id="edge10" class="edge"><title>Node10&#45;&gt;Node11</title>
<path fill="none" stroke="midnightblue" d="M712.884,-75.3938C647.852,-73.339 463.737,-64.7421 315,-31 311.76,-30.265 308.423,-29.3544 305.117,-28.3501"/>
<polygon fill="midnightblue" stroke="midnightblue" points="306.019,-24.9616 295.425,-25.1387 303.817,-31.6064 306.019,-24.9616"/>
</g>
<!-- Node12 -->
<g id="node12" class="node"><title>Node12</title>
<polygon fill="white" stroke="#bfbfbf" points="324,-6 324,-25 470,-25 470,-6 324,-6"/>
<text text-anchor="middle" x="397" y="-13" font-family="Helvetica,sans-Serif" font-size="10.00">boost/current_function.hpp</text>
</g>
<!-- Node10&#45;&gt;Node12 -->
<g id="edge12" class="edge"><title>Node10&#45;&gt;Node12</title>
<path fill="none" stroke="midnightblue" d="M712.809,-71.8001C667.116,-63.8628 564.982,-46.1005 479,-31 471.291,-29.6461 463.175,-28.2163 455.169,-26.8033"/>
<polygon fill="midnightblue" stroke="midnightblue" points="455.582,-23.3222 445.126,-25.0295 454.365,-30.2155 455.582,-23.3222"/>
</g>
<!-- Node13 -->
<g id="node13" class="node"><title>Node13</title>
<polygon fill="white" stroke="#bfbfbf" points="488,-6 488,-25 652,-25 652,-6 488,-6"/>
<text text-anchor="middle" x="570" y="-13" font-family="Helvetica,sans-Serif" font-size="10.00">boost/exception/exception.hpp</text>
</g>
<!-- Node10&#45;&gt;Node13 -->
<g id="edge13" class="edge"><title>Node10&#45;&gt;Node13</title>
<path fill="none" stroke="midnightblue" d="M713.073,-67.4751C684.303,-57.2246 635.844,-39.9593 603.398,-28.3994"/>
<polygon fill="midnightblue" stroke="midnightblue" points="604.477,-25.0684 593.883,-25.0091 602.128,-31.6624 604.477,-25.0684"/>
</g>
<!-- Node14 -->
<g id="node14" class="node"><title>Node14</title>
<polygon fill="white" stroke="#bfbfbf" points="670,-6 670,-25 804,-25 804,-6 670,-6"/>
<text text-anchor="middle" x="737" y="-13" font-family="Helvetica,sans-Serif" font-size="10.00">boost/exception/info.hpp</text>
</g>
<!-- Node10&#45;&gt;Node14 -->
<g id="edge14" class="edge"><title>Node10&#45;&gt;Node14</title>
<path fill="none" stroke="midnightblue" d="M737,-67.4751C737,-59.0803 737,-45.9806 737,-35.1631"/>
<polygon fill="midnightblue" stroke="midnightblue" points="740.5,-35.0091 737,-25.0091 733.5,-35.0091 740.5,-35.0091"/>
</g>
<!-- Node15 -->
<g id="node15" class="node"><title>Node15</title>
<g id="a_node15"><a xlink:href="source__info_8h.xhtml" target="_top" xlink:title="Helper facilities to get source file information. ">
<polygon fill="white" stroke="black" points="822,-6 822,-25 920,-25 920,-6 822,-6"/>
<text text-anchor="middle" x="871" y="-13" font-family="Helvetica,sans-Serif" font-size="10.00">ext/source_info.h</text>
</a>
</g>
</g>
<!-- Node10&#45;&gt;Node15 -->
<g id="edge15" class="edge"><title>Node10&#45;&gt;Node15</title>
<path fill="none" stroke="midnightblue" d="M756.199,-67.4751C778.787,-57.4455 816.499,-40.7002 842.501,-29.1546"/>
<polygon fill="midnightblue" stroke="midnightblue" points="844.118,-32.2662 851.837,-25.0091 841.277,-25.8685 844.118,-32.2662"/>
</g>
<!-- Node16&#45;&gt;Node3 -->
<g id="edge17" class="edge"><title>Node16&#45;&gt;Node3</title>
<path fill="none" stroke="midnightblue" d="M193,-67.4751C193,-59.0803 193,-45.9806 193,-35.1631"/>
<polygon fill="midnightblue" stroke="midnightblue" points="196.5,-35.0091 193,-25.0091 189.5,-35.0091 196.5,-35.0091"/>
</g>
<!-- Node17 -->
<g id="node17" class="node"><title>Node17</title>
<polygon fill="white" stroke="#bfbfbf" points="0,-6 0,-25 144,-25 144,-6 0,-6"/>
<text text-anchor="middle" x="72" y="-13" font-family="Helvetica,sans-Serif" font-size="10.00">boost/range/algorithm.hpp</text>
</g>
<!-- Node16&#45;&gt;Node17 -->
<g id="edge18" class="edge"><title>Node16&#45;&gt;Node17</title>
<path fill="none" stroke="midnightblue" d="M175.664,-67.4751C155.447,-57.5338 121.813,-40.9947 98.3576,-29.461"/>
<polygon fill="midnightblue" stroke="midnightblue" points="99.8224,-26.281 89.3042,-25.0091 96.7335,-32.5627 99.8224,-26.281"/>
</g>
</g>
</svg>
        <g id="navigator" transform="translate(0 0)" fill="#404254">
                <rect fill="#f2f5e9" fill-opacity="0.5" stroke="#606060" stroke-width=".5" x="0" y="0" width="60" height="60"/>
                <use id="zoomplus" xlink:href="#zoomPlus" x="17" y="9" onmousedown="handleZoom(evt,'in')"/>
                <use id="zoomminus" xlink:href="#zoomMin" x="42" y="9" onmousedown="handleZoom(evt,'out')"/>
                <use id="reset" xlink:href="#resetDef" x="30" y="36" onmousedown="handleReset()"/>
                <g id="arrowUp" xlink:href="#dirArrow" transform="translate(30 24)" onmousedown="handlePan(0,-1)">
                  <use xlink:href="#rim" fill="#404040">
                        <set attributeName="fill" to="#808080" begin="arrowUp.mouseover" end="arrowUp.mouseout"/>
                  </use>
                  <path fill="none" stroke="white" stroke-width="1.5" d="M0,-3.0v7 M-2.5,-0.5L0,-3.0L2.5,-0.5"/>
                </g>
                <g id="arrowRight" xlink:href="#dirArrow" transform="rotate(90) translate(36 -43)" onmousedown="handlePan(1,0)">
                  <use xlink:href="#rim" fill="#404040">
                        <set attributeName="fill" to="#808080" begin="arrowRight.mouseover" end="arrowRight.mouseout"/>
                  </use>
                  <path fill="none" stroke="white" stroke-width="1.5" d="M0,-3.0v7 M-2.5,-0.5L0,-3.0L2.5,-0.5"/>
                </g>
                <g id="arrowDown" xlink:href="#dirArrow" transform="rotate(180) translate(-30 -48)" onmousedown="handlePan(0,1)">
                  <use xlink:href="#rim" fill="#404040">
                        <set attributeName="fill" to="#808080" begin="arrowDown.mouseover" end="arrowDown.mouseout"/>
                  </use>
                  <path fill="none" stroke="white" stroke-width="1.5" d="M0,-3.0v7 M-2.5,-0.5L0,-3.0L2.5,-0.5"/>
                </g>
                <g id="arrowLeft" xlink:href="#dirArrow" transform="rotate(270) translate(-36 17)" onmousedown="handlePan(-1,0)">
                  <use xlink:href="#rim" fill="#404040">
                        <set attributeName="fill" to="#808080" begin="arrowLeft.mouseover" end="arrowLeft.mouseout"/>
                  </use>
                  <path fill="none" stroke="white" stroke-width="1.5" d="M0,-3.0v7 M-2.5,-0.5L0,-3.0L2.5,-0.5"/>
                </g>
        </g>
        <svg viewBox="0 0 15 15" width="100%" height="30px" preserveAspectRatio="xMaxYMin meet">
         <g id="arrow_out" transform="scale(0.3 0.3)">
          <a xlink:href="expression_8cc__incl_org.svg" target="_base">
           <rect id="button" ry="5" rx="5" y="6" x="6" height="38" width="38"
                fill="#f2f5e9" fill-opacity="0.5" stroke="#606060" stroke-width="1.0"/>
           <path id="arrow"
             d="M 11.500037,31.436501 C 11.940474,20.09759 22.043105,11.32322 32.158766,21.979434 L 37.068811,17.246167 C 37.068811,17.246167 37.088388,32 37.088388,32 L 22.160133,31.978069 C 22.160133,31.978069 26.997745,27.140456 26.997745,27.140456 C 18.528582,18.264221 13.291696,25.230495 11.500037,31.436501 z"
             style="fill:#404040;"/>
          </a>
         </g>
        </svg>
</svg>
