<?xml version="1.0" encoding="UTF-8" standalone="no"?>
<!DOCTYPE svg PUBLIC "-//W3C//DTD SVG 1.1//EN"
 "http://www.w3.org/Graphics/SVG/1.1/DTD/svg11.dtd">
<!-- Generated by graphviz version 2.38.0 (20140413.2041)
 -->
<!-- Title: expression.h Pages: 1 -->
<svg width="534pt" height="95pt"
 viewBox="0.00 0.00 534.00 95.00" xmlns="http://www.w3.org/2000/svg" xmlns:xlink="http://www.w3.org/1999/xlink">
<g id="graph0" class="graph" transform="scale(1 1) rotate(0) translate(4 91)">
<title>expression.h</title>
<polygon fill="white" stroke="none" points="-4,4 -4,-91 530,-91 530,4 -4,4"/>
<!-- Node1 -->
<g id="node1" class="node"><title>Node1</title>
<polygon fill="#bfbfbf" stroke="black" points="155.5,-67.5 155.5,-86.5 232.5,-86.5 232.5,-67.5 155.5,-67.5"/>
<text text-anchor="middle" x="194" y="-74.5" font-family="Helvetica,sans-Serif" font-size="10.00">expression.h</text>
</g>
<!-- Node2 -->
<g id="node2" class="node"><title>Node2</title>
<polygon fill="white" stroke="#bfbfbf" points="0,-6 0,-25 62,-25 62,-6 0,-6"/>
<text text-anchor="middle" x="31" y="-13" font-family="Helvetica,sans-Serif" font-size="10.00">algorithm</text>
</g>
<!-- Node1&#45;&gt;Node2 -->
<g id="edge1" class="edge"><title>Node1&#45;&gt;Node2</title>
<path fill="none" stroke="midnightblue" d="M170.646,-67.4751C142.686,-57.2687 95.6739,-40.108 64.0087,-28.5492"/>
<polygon fill="midnightblue" stroke="midnightblue" points="64.9045,-25.1503 54.3106,-25.0091 62.5042,-31.7259 64.9045,-25.1503"/>
</g>
<!-- Node3 -->
<g id="node3" class="node"><title>Node3</title>
<polygon fill="white" stroke="#bfbfbf" points="80,-6 80,-25 124,-25 124,-6 80,-6"/>
<text text-anchor="middle" x="102" y="-13" font-family="Helvetica,sans-Serif" font-size="10.00">string</text>
</g>
<!-- Node1&#45;&gt;Node3 -->
<g id="edge2" class="edge"><title>Node1&#45;&gt;Node3</title>
<path fill="none" stroke="midnightblue" d="M180.819,-67.4751C165.926,-57.8431 141.456,-42.0175 123.727,-30.5517"/>
<polygon fill="midnightblue" stroke="midnightblue" points="125.455,-27.5008 115.157,-25.0091 121.653,-33.3787 125.455,-27.5008"/>
</g>
<!-- Node4 -->
<g id="node4" class="node"><title>Node4</title>
<polygon fill="white" stroke="#bfbfbf" points="142,-6 142,-25 184,-25 184,-6 142,-6"/>
<text text-anchor="middle" x="163" y="-13" font-family="Helvetica,sans-Serif" font-size="10.00">utility</text>
</g>
<!-- Node1&#45;&gt;Node4 -->
<g id="edge3" class="edge"><title>Node1&#45;&gt;Node4</title>
<path fill="none" stroke="midnightblue" d="M189.558,-67.4751C185.047,-58.8152 177.926,-45.1486 172.193,-34.1453"/>
<polygon fill="midnightblue" stroke="midnightblue" points="175.158,-32.2604 167.433,-25.0091 168.95,-35.4948 175.158,-32.2604"/>
</g>
<!-- Node5 -->
<g id="node5" class="node"><title>Node5</title>
<polygon fill="white" stroke="#bfbfbf" points="202.5,-6 202.5,-25 249.5,-25 249.5,-6 202.5,-6"/>
<text text-anchor="middle" x="226" y="-13" font-family="Helvetica,sans-Serif" font-size="10.00">vector</text>
</g>
<!-- Node1&#45;&gt;Node5 -->
<g id="edge4" class="edge"><title>Node1&#45;&gt;Node5</title>
<path fill="none" stroke="midnightblue" d="M198.585,-67.4751C203.242,-58.8152 210.592,-45.1486 216.51,-34.1453"/>
<polygon fill="midnightblue" stroke="midnightblue" points="219.77,-35.474 221.424,-25.0091 213.605,-32.1584 219.77,-35.474"/>
</g>
<!-- Node6 -->
<g id="node6" class="node"><title>Node6</title>
<polygon fill="white" stroke="#bfbfbf" points="268,-0.5 268,-30.5 380,-30.5 380,-0.5 268,-0.5"/>
<text text-anchor="start" x="276" y="-18.5" font-family="Helvetica,sans-Serif" font-size="10.00">boost/icl/continuous</text>
<text text-anchor="middle" x="324" y="-7.5" font-family="Helvetica,sans-Serif" font-size="10.00">_interval.hpp</text>
</g>
<!-- Node1&#45;&gt;Node6 -->
<g id="edge5" class="edge"><title>Node1&#45;&gt;Node6</title>
<path fill="none" stroke="midnightblue" d="M212.626,-67.4751C231.22,-58.9648 260.378,-45.6193 284.196,-34.718"/>
<polygon fill="midnightblue" stroke="midnightblue" points="285.725,-37.8673 293.362,-30.523 282.812,-31.5023 285.725,-37.8673"/>
</g>
<!-- Node7 -->
<g id="node7" class="node"><title>Node7</title>
<polygon fill="white" stroke="#bfbfbf" points="398,-6 398,-25 526,-25 526,-6 398,-6"/>
<text text-anchor="middle" x="462" y="-13" font-family="Helvetica,sans-Serif" font-size="10.00">boost/noncopyable.hpp</text>
</g>
<!-- Node1&#45;&gt;Node7 -->
<g id="edge6" class="edge"><title>Node1&#45;&gt;Node7</title>
<path fill="none" stroke="midnightblue" d="M232.398,-67.4751C280.16,-56.8711 361.736,-38.7602 413.695,-27.2244"/>
<polygon fill="midnightblue" stroke="midnightblue" points="414.67,-30.5933 423.673,-25.0091 413.152,-23.7597 414.67,-30.5933"/>
</g>
</g>
</svg>
