<?xml version="1.0" encoding="UTF-8" standalone="no"?>
<!DOCTYPE svg PUBLIC "-//W3C//DTD SVG 1.1//EN"
 "http://www.w3.org/Graphics/SVG/1.1/DTD/svg11.dtd">
<!-- Generated by graphviz version 2.38.0 (20140413.2041)
 -->
<!-- Title: extern.cc Pages: 1 -->
<svg width="1793pt" height="218pt"
 viewBox="0.00 0.00 1793.00 218.00" xmlns="http://www.w3.org/2000/svg" xmlns:xlink="http://www.w3.org/1999/xlink">
<g id="graph0" class="graph" transform="scale(1 1) rotate(0) translate(4 214)">
<title>extern.cc</title>
<polygon fill="white" stroke="none" points="-4,4 -4,-214 1789,-214 1789,4 -4,4"/>
<!-- Node1 -->
<g id="node1" class="node"><title>Node1</title>
<polygon fill="#bfbfbf" stroke="black" points="769.5,-190.5 769.5,-209.5 830.5,-209.5 830.5,-190.5 769.5,-190.5"/>
<text text-anchor="middle" x="800" y="-197.5" font-family="Helvetica,sans-Serif" font-size="10.00">extern.cc</text>
</g>
<!-- Node2 -->
<g id="node2" class="node"><title>Node2</title>
<g id="a_node2"><a xlink:href="extern_8h.xhtml" target="_top" xlink:title="The MEF facilities to call external functions in expressions. ">
<polygon fill="white" stroke="black" points="720,-134.5 720,-153.5 776,-153.5 776,-134.5 720,-134.5"/>
<text text-anchor="middle" x="748" y="-141.5" font-family="Helvetica,sans-Serif" font-size="10.00">extern.h</text>
</a>
</g>
</g>
<!-- Node1&#45;&gt;Node2 -->
<g id="edge1" class="edge"><title>Node1&#45;&gt;Node2</title>
<path fill="none" stroke="midnightblue" d="M791.413,-190.083C783.841,-182.22 772.622,-170.569 763.486,-161.081"/>
<polygon fill="midnightblue" stroke="midnightblue" points="765.885,-158.527 756.427,-153.751 760.842,-163.382 765.885,-158.527"/>
</g>
<!-- Node28 -->
<g id="node28" class="node"><title>Node28</title>
<polygon fill="white" stroke="#bfbfbf" points="794,-134.5 794,-153.5 910,-153.5 910,-134.5 794,-134.5"/>
<text text-anchor="middle" x="852" y="-141.5" font-family="Helvetica,sans-Serif" font-size="10.00">boost/filesystem.hpp</text>
</g>
<!-- Node1&#45;&gt;Node28 -->
<g id="edge33" class="edge"><title>Node1&#45;&gt;Node28</title>
<path fill="none" stroke="midnightblue" d="M808.587,-190.083C816.159,-182.22 827.378,-170.569 836.514,-161.081"/>
<polygon fill="midnightblue" stroke="midnightblue" points="839.158,-163.382 843.573,-153.751 834.115,-158.527 839.158,-163.382"/>
</g>
<!-- Node3 -->
<g id="node3" class="node"><title>Node3</title>
<polygon fill="white" stroke="#bfbfbf" points="195.5,-73 195.5,-92 252.5,-92 252.5,-73 195.5,-73"/>
<text text-anchor="middle" x="224" y="-80" font-family="Helvetica,sans-Serif" font-size="10.00">memory</text>
</g>
<!-- Node2&#45;&gt;Node3 -->
<g id="edge2" class="edge"><title>Node2&#45;&gt;Node3</title>
<path fill="none" stroke="midnightblue" d="M719.828,-143.141C644.366,-142.935 431.813,-138.503 261,-98 258.168,-97.3285 255.264,-96.4845 252.39,-95.5431"/>
<polygon fill="midnightblue" stroke="midnightblue" points="253.469,-92.2112 242.875,-92.0765 251.073,-98.7883 253.469,-92.2112"/>
</g>
<!-- Node4 -->
<g id="node4" class="node"><title>Node4</title>
<polygon fill="white" stroke="#bfbfbf" points="482,-6 482,-25 526,-25 526,-6 482,-6"/>
<text text-anchor="middle" x="504" y="-13" font-family="Helvetica,sans-Serif" font-size="10.00">string</text>
</g>
<!-- Node2&#45;&gt;Node4 -->
<g id="edge3" class="edge"><title>Node2&#45;&gt;Node4</title>
<path fill="none" stroke="midnightblue" d="M719.897,-142.108C681.415,-139.644 611.57,-130.619 563,-98 539.264,-82.059 521.76,-53.1832 512.223,-34.431"/>
<polygon fill="midnightblue" stroke="midnightblue" points="515.263,-32.6772 507.755,-25.2011 508.962,-35.727 515.263,-32.6772"/>
</g>
<!-- Node5 -->
<g id="node5" class="node"><title>Node5</title>
<polygon fill="white" stroke="#bfbfbf" points="757,-73 757,-92 825,-92 825,-73 757,-73"/>
<text text-anchor="middle" x="791" y="-80" font-family="Helvetica,sans-Serif" font-size="10.00">type_traits</text>
</g>
<!-- Node2&#45;&gt;Node5 -->
<g id="edge4" class="edge"><title>Node2&#45;&gt;Node5</title>
<path fill="none" stroke="midnightblue" d="M754.161,-134.475C760.611,-125.55 770.904,-111.307 778.973,-100.143"/>
<polygon fill="midnightblue" stroke="midnightblue" points="781.83,-102.164 784.851,-92.0091 776.156,-98.064 781.83,-102.164"/>
</g>
<!-- Node6 -->
<g id="node6" class="node"><title>Node6</title>
<polygon fill="white" stroke="#bfbfbf" points="270.5,-6 270.5,-25 317.5,-25 317.5,-6 270.5,-6"/>
<text text-anchor="middle" x="294" y="-13" font-family="Helvetica,sans-Serif" font-size="10.00">vector</text>
</g>
<!-- Node2&#45;&gt;Node6 -->
<g id="edge5" class="edge"><title>Node2&#45;&gt;Node6</title>
<path fill="none" stroke="midnightblue" d="M719.751,-138.292C677.793,-131.053 596.68,-116.11 529,-98 437.627,-73.5499 415.284,-64.9512 327,-31 325.394,-30.3823 323.752,-29.73 322.1,-29.0576"/>
<polygon fill="midnightblue" stroke="midnightblue" points="323.294,-25.7623 312.721,-25.0889 320.566,-32.209 323.294,-25.7623"/>
</g>
<!-- Node7 -->
<g id="node7" class="node"><title>Node7</title>
<polygon fill="white" stroke="#bfbfbf" points="843.5,-73 843.5,-92 990.5,-92 990.5,-73 843.5,-73"/>
<text text-anchor="middle" x="917" y="-80" font-family="Helvetica,sans-Serif" font-size="10.00">boost/dll/shared_library.hpp</text>
</g>
<!-- Node2&#45;&gt;Node7 -->
<g id="edge6" class="edge"><title>Node2&#45;&gt;Node7</title>
<path fill="none" stroke="midnightblue" d="M772.214,-134.475C801.329,-124.225 850.368,-106.959 883.202,-95.3994"/>
<polygon fill="midnightblue" stroke="midnightblue" points="884.561,-98.6314 892.831,-92.0091 882.237,-92.0287 884.561,-98.6314"/>
</g>
<!-- Node8 -->
<g id="node8" class="node"><title>Node8</title>
<polygon fill="white" stroke="#bfbfbf" points="1009,-67.5 1009,-97.5 1137,-97.5 1137,-67.5 1009,-67.5"/>
<text text-anchor="start" x="1017" y="-85.5" font-family="Helvetica,sans-Serif" font-size="10.00">boost/exception/errinfo</text>
<text text-anchor="middle" x="1073" y="-74.5" font-family="Helvetica,sans-Serif" font-size="10.00">_nested_exception.hpp</text>
</g>
<!-- Node2&#45;&gt;Node8 -->
<g id="edge7" class="edge"><title>Node2&#45;&gt;Node8</title>
<path fill="none" stroke="midnightblue" d="M776.234,-135.908C779.187,-135.234 782.15,-134.584 785,-134 876.76,-115.184 902.973,-115.402 998.802,-98.1783"/>
<polygon fill="midnightblue" stroke="midnightblue" points="999.713,-101.57 1008.93,-96.3405 998.462,-94.6827 999.713,-101.57"/>
</g>
<!-- Node9 -->
<g id="node9" class="node"><title>Node9</title>
<polygon fill="white" stroke="#bfbfbf" points="1155,-73 1155,-92 1287,-92 1287,-73 1155,-73"/>
<text text-anchor="middle" x="1221" y="-80" font-family="Helvetica,sans-Serif" font-size="10.00">boost/exception_ptr.hpp</text>
</g>
<!-- Node2&#45;&gt;Node9 -->
<g id="edge8" class="edge"><title>Node2&#45;&gt;Node9</title>
<path fill="none" stroke="midnightblue" d="M776.197,-135.713C779.158,-135.076 782.133,-134.489 785,-134 943.943,-106.88 986.456,-121.328 1146,-98 1154.02,-96.8269 1162.49,-95.3871 1170.74,-93.8748"/>
<polygon fill="midnightblue" stroke="midnightblue" points="1171.46,-97.3005 1180.64,-92.0074 1170.16,-90.4219 1171.46,-97.3005"/>
</g>
<!-- Node10 -->
<g id="node10" class="node"><title>Node10</title>
<polygon fill="white" stroke="#bfbfbf" points="1305.5,-73 1305.5,-92 1446.5,-92 1446.5,-73 1305.5,-73"/>
<text text-anchor="middle" x="1376" y="-80" font-family="Helvetica,sans-Serif" font-size="10.00">boost/filesystem/path.hpp</text>
</g>
<!-- Node2&#45;&gt;Node10 -->
<g id="edge9" class="edge"><title>Node2&#45;&gt;Node10</title>
<path fill="none" stroke="midnightblue" d="M776.183,-135.627C779.147,-135.007 782.126,-134.448 785,-134 1009.96,-98.9705 1070.1,-126.344 1296,-98 1305.05,-96.8644 1314.63,-95.3781 1323.89,-93.7905"/>
<polygon fill="midnightblue" stroke="midnightblue" points="1324.55,-97.2295 1333.78,-92.0399 1323.33,-90.3367 1324.55,-97.2295"/>
</g>
<!-- Node11 -->
<g id="node11" class="node"><title>Node11</title>
<polygon fill="white" stroke="#bfbfbf" points="1465,-67.5 1465,-97.5 1585,-97.5 1585,-67.5 1465,-67.5"/>
<text text-anchor="start" x="1473" y="-85.5" font-family="Helvetica,sans-Serif" font-size="10.00">boost/system/system</text>
<text text-anchor="middle" x="1525" y="-74.5" font-family="Helvetica,sans-Serif" font-size="10.00">_error.hpp</text>
</g>
<!-- Node2&#45;&gt;Node11 -->
<g id="edge10" class="edge"><title>Node2&#45;&gt;Node11</title>
<path fill="none" stroke="midnightblue" d="M776.176,-135.577C779.141,-134.967 782.122,-134.423 785,-134 1077.15,-91.0091 1158.07,-135.795 1454.69,-98.02"/>
<polygon fill="midnightblue" stroke="midnightblue" points="1455.41,-101.456 1464.88,-96.7006 1454.52,-94.5136 1455.41,-101.456"/>
</g>
<!-- Node12 -->
<g id="node12" class="node"><title>Node12</title>
<g id="a_node12"><a xlink:href="element_8h.xhtml" target="_top" xlink:title="Helper classes, structs, and properties common to all other classes. ">
<polygon fill="white" stroke="black" points="572.5,-73 572.5,-92 655.5,-92 655.5,-73 572.5,-73"/>
<text text-anchor="middle" x="614" y="-80" font-family="Helvetica,sans-Serif" font-size="10.00">src/element.h</text>
</a>
</g>
</g>
<!-- Node2&#45;&gt;Node12 -->
<g id="edge11" class="edge"><title>Node2&#45;&gt;Node12</title>
<path fill="none" stroke="midnightblue" d="M728.801,-134.475C706.213,-124.445 668.501,-107.7 642.499,-96.1546"/>
<polygon fill="midnightblue" stroke="midnightblue" points="643.723,-92.8685 633.163,-92.0091 640.882,-99.2662 643.723,-92.8685"/>
</g>
<!-- Node18 -->
<g id="node18" class="node"><title>Node18</title>
<g id="a_node18"><a xlink:href="error_8h.xhtml" target="_top" xlink:title="Exceptions for SCRAM. ">
<polygon fill="white" stroke="black" points="673.5,-73 673.5,-92 738.5,-92 738.5,-73 673.5,-73"/>
<text text-anchor="middle" x="706" y="-80" font-family="Helvetica,sans-Serif" font-size="10.00">src/error.h</text>
</a>
</g>
</g>
<!-- Node2&#45;&gt;Node18 -->
<g id="edge19" class="edge"><title>Node2&#45;&gt;Node18</title>
<path fill="none" stroke="midnightblue" d="M741.982,-134.475C735.745,-125.638 725.827,-111.589 717.982,-100.475"/>
<polygon fill="midnightblue" stroke="midnightblue" points="720.633,-98.1604 712.006,-92.0091 714.914,-102.197 720.633,-98.1604"/>
</g>
<!-- Node24 -->
<g id="node24" class="node"><title>Node24</title>
<g id="a_node24"><a xlink:href="expression_8h.xhtml" target="_top" xlink:title="Provides the base class for all expressions and units for expression values. ">
<polygon fill="white" stroke="black" points="270.5,-73 270.5,-92 365.5,-92 365.5,-73 270.5,-73"/>
<text text-anchor="middle" x="318" y="-80" font-family="Helvetica,sans-Serif" font-size="10.00">src/expression.h</text>
</a>
</g>
</g>
<!-- Node2&#45;&gt;Node24 -->
<g id="edge26" class="edge"><title>Node2&#45;&gt;Node24</title>
<path fill="none" stroke="midnightblue" d="M719.786,-139.096C650.181,-129.465 469.156,-104.416 375.701,-91.4841"/>
<polygon fill="midnightblue" stroke="midnightblue" points="375.955,-87.9861 365.57,-90.0824 374.996,-94.9201 375.955,-87.9861"/>
</g>
<!-- Node12&#45;&gt;Node4 -->
<g id="edge13" class="edge"><title>Node12&#45;&gt;Node4</title>
<path fill="none" stroke="midnightblue" d="M599.165,-72.7338C580.692,-61.8182 548.928,-43.0487 527.22,-30.2209"/>
<polygon fill="midnightblue" stroke="midnightblue" points="528.99,-27.2014 518.6,-25.1273 525.429,-33.2279 528.99,-27.2014"/>
</g>
<!-- Node12&#45;&gt;Node6 -->
<g id="edge14" class="edge"><title>Node12&#45;&gt;Node6</title>
<path fill="none" stroke="midnightblue" d="M572.402,-77.3489C515.914,-71.0005 412.219,-56.8102 327,-31 325.068,-30.415 323.1,-29.7473 321.134,-29.027"/>
<polygon fill="midnightblue" stroke="midnightblue" points="322.098,-25.641 311.516,-25.1265 319.467,-32.1279 322.098,-25.641"/>
</g>
<!-- Node13 -->
<g id="node13" class="node"><title>Node13</title>
<polygon fill="white" stroke="#bfbfbf" points="1040.5,-6 1040.5,-25 1089.5,-25 1089.5,-6 1040.5,-6"/>
<text text-anchor="middle" x="1065" y="-13" font-family="Helvetica,sans-Serif" font-size="10.00">cstdint</text>
</g>
<!-- Node12&#45;&gt;Node13 -->
<g id="edge12" class="edge"><title>Node12&#45;&gt;Node13</title>
<path fill="none" stroke="midnightblue" d="M639.988,-72.9787C647.651,-70.7348 656.101,-68.5193 664,-67 824.944,-36.0442 872.219,-71.6191 1031,-31 1033.36,-30.3961 1035.77,-29.6524 1038.16,-28.8237"/>
<polygon fill="midnightblue" stroke="midnightblue" points="1039.68,-31.9874 1047.71,-25.0781 1037.12,-25.4705 1039.68,-31.9874"/>
</g>
<!-- Node14 -->
<g id="node14" class="node"><title>Node14</title>
<polygon fill="white" stroke="#bfbfbf" points="544,-0.5 544,-30.5 684,-30.5 684,-0.5 544,-0.5"/>
<text text-anchor="start" x="552" y="-18.5" font-family="Helvetica,sans-Serif" font-size="10.00">boost/multi_index/hashed</text>
<text text-anchor="middle" x="614" y="-7.5" font-family="Helvetica,sans-Serif" font-size="10.00">_index.hpp</text>
</g>
<!-- Node12&#45;&gt;Node14 -->
<g id="edge15" class="edge"><title>Node12&#45;&gt;Node14</title>
<path fill="none" stroke="midnightblue" d="M614,-72.7338C614,-64.5406 614,-51.9225 614,-40.7136"/>
<polygon fill="midnightblue" stroke="midnightblue" points="617.5,-40.589 614,-30.589 610.5,-40.5891 617.5,-40.589"/>
</g>
<!-- Node15 -->
<g id="node15" class="node"><title>Node15</title>
<polygon fill="white" stroke="#bfbfbf" points="702,-0.5 702,-30.5 832,-30.5 832,-0.5 702,-0.5"/>
<text text-anchor="start" x="710" y="-18.5" font-family="Helvetica,sans-Serif" font-size="10.00">boost/multi_index/mem</text>
<text text-anchor="middle" x="767" y="-7.5" font-family="Helvetica,sans-Serif" font-size="10.00">_fun.hpp</text>
</g>
<!-- Node12&#45;&gt;Node15 -->
<g id="edge16" class="edge"><title>Node12&#45;&gt;Node15</title>
<path fill="none" stroke="midnightblue" d="M634.317,-72.8685C657.275,-63.115 695.279,-46.9696 724.744,-34.452"/>
<polygon fill="midnightblue" stroke="midnightblue" points="726.145,-37.6596 733.98,-30.5281 723.408,-31.2169 726.145,-37.6596"/>
</g>
<!-- Node16 -->
<g id="node16" class="node"><title>Node16</title>
<polygon fill="white" stroke="#bfbfbf" points="850,-6 850,-25 1022,-25 1022,-6 850,-6"/>
<text text-anchor="middle" x="936" y="-13" font-family="Helvetica,sans-Serif" font-size="10.00">boost/multi_index_container.hpp</text>
</g>
<!-- Node12&#45;&gt;Node16 -->
<g id="edge17" class="edge"><title>Node12&#45;&gt;Node16</title>
<path fill="none" stroke="midnightblue" d="M641.64,-72.9565C648.879,-70.8644 656.701,-68.7315 664,-67 734.281,-50.3281 815.857,-35.8163 871.203,-26.6803"/>
<polygon fill="midnightblue" stroke="midnightblue" points="871.921,-30.1094 881.223,-25.0377 870.789,-23.2016 871.921,-30.1094"/>
</g>
<!-- Node17 -->
<g id="node17" class="node"><title>Node17</title>
<polygon fill="white" stroke="#bfbfbf" points="336,-6 336,-25 464,-25 464,-6 336,-6"/>
<text text-anchor="middle" x="400" y="-13" font-family="Helvetica,sans-Serif" font-size="10.00">boost/noncopyable.hpp</text>
</g>
<!-- Node12&#45;&gt;Node17 -->
<g id="edge18" class="edge"><title>Node12&#45;&gt;Node17</title>
<path fill="none" stroke="midnightblue" d="M585.582,-72.8685C547.585,-61.3271 480.12,-40.8354 437.847,-27.9956"/>
<polygon fill="midnightblue" stroke="midnightblue" points="438.78,-24.6211 428.194,-25.0637 436.745,-31.3189 438.78,-24.6211"/>
</g>
<!-- Node18&#45;&gt;Node4 -->
<g id="edge21" class="edge"><title>Node18&#45;&gt;Node4</title>
<path fill="none" stroke="midnightblue" d="M682.095,-72.9681C676.202,-70.9421 669.891,-68.8372 664,-67 607.175,-49.2795 590.816,-51.6804 535,-31 533.572,-30.471 532.12,-29.9027 530.662,-29.3081"/>
<polygon fill="midnightblue" stroke="midnightblue" points="531.728,-25.9539 521.164,-25.144 528.917,-32.3648 531.728,-25.9539"/>
</g>
<!-- Node19 -->
<g id="node19" class="node"><title>Node19</title>
<polygon fill="white" stroke="#bfbfbf" points="1107.5,-6 1107.5,-25 1170.5,-25 1170.5,-6 1107.5,-6"/>
<text text-anchor="middle" x="1139" y="-13" font-family="Helvetica,sans-Serif" font-size="10.00">exception</text>
</g>
<!-- Node18&#45;&gt;Node19 -->
<g id="edge20" class="edge"><title>Node18&#45;&gt;Node19</title>
<path fill="none" stroke="midnightblue" d="M727.959,-72.8532C734.337,-70.6344 741.371,-68.4636 748,-67 901.13,-33.1884 946.134,-65.9852 1099,-31 1102.24,-30.2584 1105.58,-29.3295 1108.88,-28.3021"/>
<polygon fill="midnightblue" stroke="midnightblue" points="1110.19,-31.5513 1118.53,-25.0128 1107.94,-24.9254 1110.19,-31.5513"/>
</g>
<!-- Node20 -->
<g id="node20" class="node"><title>Node20</title>
<polygon fill="white" stroke="#bfbfbf" points="1189,-6 1189,-25 1335,-25 1335,-6 1189,-6"/>
<text text-anchor="middle" x="1262" y="-13" font-family="Helvetica,sans-Serif" font-size="10.00">boost/current_function.hpp</text>
</g>
<!-- Node18&#45;&gt;Node20 -->
<g id="edge22" class="edge"><title>Node18&#45;&gt;Node20</title>
<path fill="none" stroke="midnightblue" d="M727.508,-72.9229C733.999,-70.6495 741.207,-68.4322 748,-67 936.521,-27.2547 988.937,-55.8004 1180,-31 1189.05,-29.8247 1198.63,-28.3468 1207.92,-26.7871"/>
<polygon fill="midnightblue" stroke="midnightblue" points="1208.6,-30.2228 1217.86,-25.0731 1207.41,-23.3248 1208.6,-30.2228"/>
</g>
<!-- Node21 -->
<g id="node21" class="node"><title>Node21</title>
<polygon fill="white" stroke="#bfbfbf" points="1353,-6 1353,-25 1517,-25 1517,-6 1353,-6"/>
<text text-anchor="middle" x="1435" y="-13" font-family="Helvetica,sans-Serif" font-size="10.00">boost/exception/exception.hpp</text>
</g>
<!-- Node18&#45;&gt;Node21 -->
<g id="edge23" class="edge"><title>Node18&#45;&gt;Node21</title>
<path fill="none" stroke="midnightblue" d="M727.056,-72.9769C733.658,-70.6469 741.04,-68.3847 748,-67 1008.27,-15.2212 1080.21,-59.9133 1344,-31 1354.71,-29.8256 1366.09,-28.2651 1377.04,-26.6029"/>
<polygon fill="midnightblue" stroke="midnightblue" points="1377.61,-30.0573 1386.95,-25.0561 1376.53,-23.1411 1377.61,-30.0573"/>
</g>
<!-- Node22 -->
<g id="node22" class="node"><title>Node22</title>
<polygon fill="white" stroke="#bfbfbf" points="1535,-6 1535,-25 1669,-25 1669,-6 1535,-6"/>
<text text-anchor="middle" x="1602" y="-13" font-family="Helvetica,sans-Serif" font-size="10.00">boost/exception/info.hpp</text>
</g>
<!-- Node18&#45;&gt;Node22 -->
<g id="edge24" class="edge"><title>Node18&#45;&gt;Node22</title>
<path fill="none" stroke="midnightblue" d="M727.044,-72.9165C733.645,-70.584 741.03,-68.3357 748,-67 1087.96,-1.85369 1182.23,-71.5382 1526,-31 1534.82,-29.9599 1544.15,-28.4899 1553.15,-26.8813"/>
<polygon fill="midnightblue" stroke="midnightblue" points="1553.92,-30.2971 1563.11,-25.0219 1552.64,-23.4159 1553.92,-30.2971"/>
</g>
<!-- Node23 -->
<g id="node23" class="node"><title>Node23</title>
<g id="a_node23"><a xlink:href="source__info_8h.xhtml" target="_top" xlink:title="Helper facilities to get source file information. ">
<polygon fill="white" stroke="black" points="1687,-6 1687,-25 1785,-25 1785,-6 1687,-6"/>
<text text-anchor="middle" x="1736" y="-13" font-family="Helvetica,sans-Serif" font-size="10.00">ext/source_info.h</text>
</a>
</g>
</g>
<!-- Node18&#45;&gt;Node23 -->
<g id="edge25" class="edge"><title>Node18&#45;&gt;Node23</title>
<path fill="none" stroke="midnightblue" d="M727.038,-72.8841C733.639,-70.5503 741.025,-68.3093 748,-67 1154.54,9.31517 1268.51,-89.4723 1678,-31 1684.06,-30.1353 1690.4,-28.9001 1696.57,-27.511"/>
<polygon fill="midnightblue" stroke="midnightblue" points="1697.82,-30.8097 1706.73,-25.066 1696.19,-24.0042 1697.82,-30.8097"/>
</g>
<!-- Node24&#45;&gt;Node4 -->
<g id="edge28" class="edge"><title>Node24&#45;&gt;Node4</title>
<path fill="none" stroke="midnightblue" d="M347.808,-72.9737C379.301,-63.6913 430.226,-47.898 473,-31 474.416,-30.4406 475.859,-29.8479 477.31,-29.2342"/>
<polygon fill="midnightblue" stroke="midnightblue" points="479.077,-32.2785 486.784,-25.009 476.226,-25.8854 479.077,-32.2785"/>
</g>
<!-- Node24&#45;&gt;Node6 -->
<g id="edge30" class="edge"><title>Node24&#45;&gt;Node6</title>
<path fill="none" stroke="midnightblue" d="M314.763,-72.7338C311.165,-62.9877 305.254,-46.9805 300.658,-34.5318"/>
<polygon fill="midnightblue" stroke="midnightblue" points="303.933,-33.2959 297.185,-25.1273 297.366,-35.7206 303.933,-33.2959"/>
</g>
<!-- Node24&#45;&gt;Node17 -->
<g id="edge32" class="edge"><title>Node24&#45;&gt;Node17</title>
<path fill="none" stroke="midnightblue" d="M329.059,-72.7338C342.338,-62.208 364.829,-44.3793 380.929,-31.6174"/>
<polygon fill="midnightblue" stroke="midnightblue" points="383.454,-34.0821 389.116,-25.1273 379.106,-28.5965 383.454,-34.0821"/>
</g>
<!-- Node25 -->
<g id="node25" class="node"><title>Node25</title>
<polygon fill="white" stroke="#bfbfbf" points="0,-6 0,-25 62,-25 62,-6 0,-6"/>
<text text-anchor="middle" x="31" y="-13" font-family="Helvetica,sans-Serif" font-size="10.00">algorithm</text>
</g>
<!-- Node24&#45;&gt;Node25 -->
<g id="edge27" class="edge"><title>Node24&#45;&gt;Node25</title>
<path fill="none" stroke="midnightblue" d="M285.828,-72.9461C277.746,-70.8992 269.075,-68.7903 261,-67 177.091,-48.3967 153.89,-53.7184 71,-31 68.195,-30.2312 65.3065,-29.3559 62.4267,-28.425"/>
<polygon fill="midnightblue" stroke="midnightblue" points="63.397,-25.0576 52.8024,-25.1199 61.1235,-31.6781 63.397,-25.0576"/>
</g>
<!-- Node26 -->
<g id="node26" class="node"><title>Node26</title>
<polygon fill="white" stroke="#bfbfbf" points="80,-6 80,-25 122,-25 122,-6 80,-6"/>
<text text-anchor="middle" x="101" y="-13" font-family="Helvetica,sans-Serif" font-size="10.00">utility</text>
</g>
<!-- Node24&#45;&gt;Node26 -->
<g id="edge29" class="edge"><title>Node24&#45;&gt;Node26</title>
<path fill="none" stroke="midnightblue" d="M284.978,-72.9404C235.267,-60.0003 145.454,-36.3911 131,-31 129.577,-30.4693 128.131,-29.8951 126.681,-29.2917"/>
<polygon fill="midnightblue" stroke="midnightblue" points="127.819,-25.9653 117.264,-25.0414 124.939,-32.3455 127.819,-25.9653"/>
</g>
<!-- Node27 -->
<g id="node27" class="node"><title>Node27</title>
<polygon fill="white" stroke="#bfbfbf" points="140,-0.5 140,-30.5 252,-30.5 252,-0.5 140,-0.5"/>
<text text-anchor="start" x="148" y="-18.5" font-family="Helvetica,sans-Serif" font-size="10.00">boost/icl/continuous</text>
<text text-anchor="middle" x="196" y="-7.5" font-family="Helvetica,sans-Serif" font-size="10.00">_interval.hpp</text>
</g>
<!-- Node24&#45;&gt;Node27 -->
<g id="edge31" class="edge"><title>Node24&#45;&gt;Node27</title>
<path fill="none" stroke="midnightblue" d="M301.799,-72.8685C283.946,-63.3566 254.683,-47.7655 231.453,-35.3888"/>
<polygon fill="midnightblue" stroke="midnightblue" points="233.033,-32.2649 222.561,-30.6516 229.741,-38.4427 233.033,-32.2649"/>
</g>
</g>
</svg>
