<?xml version="1.0" encoding="UTF-8" standalone="no"?>
<!DOCTYPE svg PUBLIC "-//W3C//DTD SVG 1.1//EN"
 "http://www.w3.org/Graphics/SVG/1.1/DTD/svg11.dtd">
<!-- Generated by graphviz version 2.38.0 (20140413.2041)
 -->
<!-- Title: fault_tree_analysis.h Pages: 1 -->
<!--zoomable 352 -->
<svg id="main" version="1.1" xmlns="http://www.w3.org/2000/svg" xmlns:xlink="http://www.w3.org/1999/xlink" xml:space="preserve" onload="init(evt)">
<style type="text/css"><![CDATA[
.edge:hover path { stroke: red; }
.edge:hover polygon { stroke: red; fill: red; }
]]></style>
<script type="text/javascript"><![CDATA[
var edges = document.getElementsByTagName('g');
if (edges && edges.length) {
  for (var i=0;i<edges.length;i++) {
    if (edges[i].id.substr(0,4)=='edge') {
      edges[i].setAttribute('class','edge');
    }
  }
}
]]></script>
        <defs>
                <circle id="rim" cx="0" cy="0" r="7"/>
                <circle id="rim2" cx="0" cy="0" r="3.5"/>
                <g id="zoomPlus">
                        <use xlink:href="#rim" fill="#404040">
                                <set attributeName="fill" to="#808080" begin="zoomplus.mouseover" end="zoomplus.mouseout"/>
                        </use>
                        <path d="M-4,0h8M0,-4v8" fill="none" stroke="white" stroke-width="1.5" pointer-events="none"/>
                </g>
                <g id="zoomMin">
                        <use xlink:href="#rim" fill="#404040">
                                <set attributeName="fill" to="#808080" begin="zoomminus.mouseover" end="zoomminus.mouseout"/>
                        </use>
                        <path d="M-4,0h8" fill="none" stroke="white" stroke-width="1.5" pointer-events="none"/>
                </g>
                <g id="dirArrow">
                        <path fill="none" stroke="white" stroke-width="1.5" d="M0,-3.0v7 M-2.5,-0.5L0,-3.0L2.5,-0.5"/>
                </g>
               <g id="resetDef">
                       <use xlink:href="#rim2" fill="#404040">
                               <set attributeName="fill" to="#808080" begin="reset.mouseover" end="reset.mouseout"/>
                       </use>
               </g>
        </defs>

<script type="text/javascript">
var viewWidth = 2208;
var viewHeight = 352;
var sectionId = 'dynsection-0';
</script>
<script xlink:href="svgpan.js"/>
<svg id="graph" class="graph">
<g id="viewport">
<title>fault_tree_analysis.h</title>
<polygon fill="white" stroke="none" points="-4,4 -4,-348 2204.11,-348 2204.11,4 -4,4"/>
<!-- Node1 -->
<g id="node1" class="node"><title>Node1</title>
<polygon fill="#bfbfbf" stroke="black" points="286.608,-324.5 286.608,-343.5 401.608,-343.5 401.608,-324.5 286.608,-324.5"/>
<text text-anchor="middle" x="344.108" y="-331.5" font-family="Helvetica,sans-Serif" font-size="10.00">fault_tree_analysis.h</text>
</g>
<!-- Node2 -->
<g id="node2" class="node"><title>Node2</title>
<polygon fill="white" stroke="#bfbfbf" points="296.608,-62 296.608,-81 343.608,-81 343.608,-62 296.608,-62"/>
<text text-anchor="middle" x="320.108" y="-69" font-family="Helvetica,sans-Serif" font-size="10.00">cstdlib</text>
</g>
<!-- Node1&#45;&gt;Node2 -->
<g id="edge1" class="edge"><title>Node1&#45;&gt;Node2</title>
<path fill="none" stroke="midnightblue" d="M321.284,-324.41C305.245,-317.166 284.664,-305.202 273.108,-288 256.238,-262.889 263.785,-251.133 261.108,-221 259.889,-207.276 257.931,-203.407 261.108,-190 270.186,-151.69 293.813,-111.666 308.264,-89.6274"/>
<polygon fill="midnightblue" stroke="midnightblue" points="311.329,-91.3414 314,-81.0887 305.518,-87.4381 311.329,-91.3414"/>
</g>
<!-- Node3 -->
<g id="node3" class="node"><title>Node3</title>
<polygon fill="white" stroke="#bfbfbf" points="1609.61,-62 1609.61,-81 1666.61,-81 1666.61,-62 1609.61,-62"/>
<text text-anchor="middle" x="1638.11" y="-69" font-family="Helvetica,sans-Serif" font-size="10.00">memory</text>
</g>
<!-- Node1&#45;&gt;Node3 -->
<g id="edge2" class="edge"><title>Node1&#45;&gt;Node3</title>
<path fill="none" stroke="midnightblue" d="M401.77,-333.436C583.832,-333.655 1161.79,-325.476 1625.11,-221 1723.16,-198.89 1781.49,-234.919 1841.11,-154 1884.5,-95.1103 1747.68,-78.7002 1677.26,-74.1842"/>
<polygon fill="midnightblue" stroke="midnightblue" points="1677.17,-70.6725 1666.98,-73.5786 1676.75,-77.6604 1677.17,-70.6725"/>
</g>
<!-- Node4 -->
<g id="node4" class="node"><title>Node4</title>
<polygon fill="white" stroke="#bfbfbf" points="1964.11,-263 1964.11,-282 2050.11,-282 2050.11,-263 1964.11,-263"/>
<text text-anchor="middle" x="2007.11" y="-270" font-family="Helvetica,sans-Serif" font-size="10.00">unordered_set</text>
</g>
<!-- Node1&#45;&gt;Node4 -->
<g id="edge3" class="edge"><title>Node1&#45;&gt;Node4</title>
<path fill="none" stroke="midnightblue" d="M401.933,-333.091C652.056,-333.22 1642.08,-330.954 1950.11,-288 1956.13,-287.16 1962.44,-285.925 1968.57,-284.526"/>
<polygon fill="midnightblue" stroke="midnightblue" points="1969.77,-287.836 1978.65,-282.054 1968.1,-281.037 1969.77,-287.836"/>
</g>
<!-- Node5 -->
<g id="node5" class="node"><title>Node5</title>
<polygon fill="white" stroke="#bfbfbf" points="348.608,-0.5 348.608,-19.5 395.608,-19.5 395.608,-0.5 348.608,-0.5"/>
<text text-anchor="middle" x="372.108" y="-7.5" font-family="Helvetica,sans-Serif" font-size="10.00">vector</text>
</g>
<!-- Node1&#45;&gt;Node5 -->
<g id="edge4" class="edge"><title>Node1&#45;&gt;Node5</title>
<path fill="none" stroke="midnightblue" d="M319.165,-324.362C300.612,-316.967 275.586,-304.833 258.108,-288 248.842,-279.076 146.413,-99.4333 143.108,-87 139.568,-73.6847 134.355,-66.6402 143.108,-56 167.461,-26.3956 280.926,-15.97 338.463,-12.5453"/>
<polygon fill="midnightblue" stroke="midnightblue" points="338.732,-16.0358 348.522,-11.9842 338.342,-9.04667 338.732,-16.0358"/>
</g>
<!-- Node6 -->
<g id="node6" class="node"><title>Node6</title>
<polygon fill="white" stroke="#bfbfbf" points="284.108,-190.5 284.108,-220.5 404.108,-220.5 404.108,-190.5 284.108,-190.5"/>
<text text-anchor="start" x="292.108" y="-208.5" font-family="Helvetica,sans-Serif" font-size="10.00">boost/iterator/iterator</text>
<text text-anchor="middle" x="344.108" y="-197.5" font-family="Helvetica,sans-Serif" font-size="10.00">_facade.hpp</text>
</g>
<!-- Node1&#45;&gt;Node6 -->
<g id="edge5" class="edge"><title>Node1&#45;&gt;Node6</title>
<path fill="none" stroke="midnightblue" d="M344.108,-324.305C344.108,-305.298 344.108,-259.47 344.108,-230.9"/>
<polygon fill="midnightblue" stroke="midnightblue" points="347.608,-230.888 344.108,-220.888 340.608,-230.888 347.608,-230.888"/>
</g>
<!-- Node7 -->
<g id="node7" class="node"><title>Node7</title>
<polygon fill="white" stroke="#bfbfbf" points="2068.11,-257.5 2068.11,-287.5 2200.11,-287.5 2200.11,-257.5 2068.11,-257.5"/>
<text text-anchor="start" x="2076.11" y="-275.5" font-family="Helvetica,sans-Serif" font-size="10.00">boost/iterator/transform</text>
<text text-anchor="middle" x="2134.11" y="-264.5" font-family="Helvetica,sans-Serif" font-size="10.00">_iterator.hpp</text>
</g>
<!-- Node1&#45;&gt;Node7 -->
<g id="edge6" class="edge"><title>Node1&#45;&gt;Node7</title>
<path fill="none" stroke="midnightblue" d="M401.819,-332.763C659.427,-331.513 1706.57,-324.321 2057.76,-287.988"/>
<polygon fill="midnightblue" stroke="midnightblue" points="2058.37,-291.443 2067.94,-286.904 2057.63,-284.482 2058.37,-291.443"/>
</g>
<!-- Node8 -->
<g id="node8" class="node"><title>Node8</title>
<g id="a_node8"><a xlink:href="analysis_8h.xhtml" target="_top" xlink:title="Common facilities for all analysis classes. ">
<polygon fill="white" stroke="black" points="50.108,-196 50.108,-215 114.108,-215 114.108,-196 50.108,-196"/>
<text text-anchor="middle" x="82.108" y="-203" font-family="Helvetica,sans-Serif" font-size="10.00">analysis.h</text>
</a>
</g>
</g>
<!-- Node1&#45;&gt;Node8 -->
<g id="edge7" class="edge"><title>Node1&#45;&gt;Node8</title>
<path fill="none" stroke="midnightblue" d="M286.46,-326.424C231.283,-319.181 152.887,-306.111 128.108,-288 106.736,-272.379 93.9355,-243.629 87.4527,-224.79"/>
<polygon fill="midnightblue" stroke="midnightblue" points="90.7855,-223.72 84.4176,-215.253 84.1151,-225.843 90.7855,-223.72"/>
</g>
<!-- Node12 -->
<g id="node12" class="node"><title>Node12</title>
<g id="a_node12"><a xlink:href="settings_8h.xhtml" target="_top" xlink:title="Builder for settings. ">
<polygon fill="white" stroke="black" points="88.108,-129 88.108,-148 152.108,-148 152.108,-129 88.108,-129"/>
<text text-anchor="middle" x="120.108" y="-136" font-family="Helvetica,sans-Serif" font-size="10.00">settings.h</text>
</a>
</g>
</g>
<!-- Node1&#45;&gt;Node12 -->
<g id="edge47" class="edge"><title>Node1&#45;&gt;Node12</title>
<path fill="none" stroke="midnightblue" d="M286.277,-332.464C247.61,-329.061 198.137,-318.382 166.108,-288 129.471,-253.247 121.816,-189.973 120.349,-158.429"/>
<polygon fill="midnightblue" stroke="midnightblue" points="123.835,-157.912 120.042,-148.019 116.839,-158.118 123.835,-157.912"/>
</g>
<!-- Node15 -->
<g id="node15" class="node"><title>Node15</title>
<g id="a_node15"><a xlink:href="pdag_8h.xhtml" target="_top" xlink:title="Classes and facilities to represent fault trees as PDAGs with event and gate indices instead of ID na...">
<polygon fill="white" stroke="black" points="608.108,-129 608.108,-148 658.108,-148 658.108,-129 608.108,-129"/>
<text text-anchor="middle" x="633.108" y="-136" font-family="Helvetica,sans-Serif" font-size="10.00">pdag.h</text>
</a>
</g>
</g>
<!-- Node1&#45;&gt;Node15 -->
<g id="edge14" class="edge"><title>Node1&#45;&gt;Node15</title>
<path fill="none" stroke="midnightblue" d="M333.774,-324.368C306.557,-300.633 237.503,-233.282 275.108,-190 316.765,-142.054 516.294,-138.354 598.052,-138.908"/>
<polygon fill="midnightblue" stroke="midnightblue" points="598.068,-142.408 608.101,-139.002 598.134,-135.409 598.068,-142.408"/>
</g>
<!-- Node28 -->
<g id="node28" class="node"><title>Node28</title>
<g id="a_node28"><a xlink:href="preprocessor_8h.xhtml" target="_top" xlink:title="A collection of PDAG transformation/preprocessing algorithms that simplify fault trees for analysis...">
<polygon fill="white" stroke="black" points="1528.11,-196 1528.11,-215 1616.11,-215 1616.11,-196 1528.11,-196"/>
<text text-anchor="middle" x="1572.11" y="-203" font-family="Helvetica,sans-Serif" font-size="10.00">preprocessor.h</text>
</a>
</g>
</g>
<!-- Node1&#45;&gt;Node28 -->
<g id="edge38" class="edge"><title>Node1&#45;&gt;Node28</title>
<path fill="none" stroke="midnightblue" d="M401.864,-330.657C572.497,-323.05 1088.75,-295.106 1510.11,-221 1516.25,-219.919 1522.7,-218.61 1529.02,-217.226"/>
<polygon fill="midnightblue" stroke="midnightblue" points="1529.81,-220.637 1538.78,-215.012 1528.26,-213.811 1529.81,-220.637"/>
</g>
<!-- Node31 -->
<g id="node31" class="node"><title>Node31</title>
<g id="a_node31"><a xlink:href="zbdd_8h.xhtml" target="_top" xlink:title="Zero&#45;Suppressed Binary Decision Diagram facilities. ">
<polygon fill="white" stroke="black" points="889.608,-263 889.608,-282 938.608,-282 938.608,-263 889.608,-263"/>
<text text-anchor="middle" x="914.108" y="-270" font-family="Helvetica,sans-Serif" font-size="10.00">zbdd.h</text>
</a>
</g>
</g>
<!-- Node1&#45;&gt;Node31 -->
<g id="edge48" class="edge"><title>Node1&#45;&gt;Node31</title>
<path fill="none" stroke="midnightblue" d="M401.635,-326.995C519.218,-314.721 784.004,-287.081 879.195,-277.144"/>
<polygon fill="midnightblue" stroke="midnightblue" points="879.845,-280.596 889.427,-276.076 879.118,-273.634 879.845,-280.596"/>
</g>
<!-- Node9 -->
<g id="node9" class="node"><title>Node9</title>
<polygon fill="white" stroke="#bfbfbf" points="125.108,-0.5 125.108,-19.5 177.108,-19.5 177.108,-0.5 125.108,-0.5"/>
<text text-anchor="middle" x="151.108" y="-7.5" font-family="Helvetica,sans-Serif" font-size="10.00">cassert</text>
</g>
<!-- Node8&#45;&gt;Node9 -->
<g id="edge8" class="edge"><title>Node8&#45;&gt;Node9</title>
<path fill="none" stroke="midnightblue" d="M63.3691,-195.928C47.7811,-187.655 26.6564,-173.51 17.108,-154 -2.03862,-114.878 -8.31984,-91.3626 17.108,-56 39.1832,-25.3 83.2283,-15.2538 114.8,-12.1205"/>
<polygon fill="midnightblue" stroke="midnightblue" points="115.291,-15.5924 124.978,-11.3031 114.73,-8.61487 115.291,-15.5924"/>
</g>
<!-- Node10 -->
<g id="node10" class="node"><title>Node10</title>
<polygon fill="white" stroke="#bfbfbf" points="26.108,-129 26.108,-148 70.108,-148 70.108,-129 26.108,-129"/>
<text text-anchor="middle" x="48.108" y="-136" font-family="Helvetica,sans-Serif" font-size="10.00">string</text>
</g>
<!-- Node8&#45;&gt;Node10 -->
<g id="edge9" class="edge"><title>Node8&#45;&gt;Node10</title>
<path fill="none" stroke="midnightblue" d="M77.5226,-195.734C72.3737,-185.89 63.8839,-169.66 57.3452,-157.159"/>
<polygon fill="midnightblue" stroke="midnightblue" points="60.3571,-155.366 52.6207,-148.127 54.1544,-158.611 60.3571,-155.366"/>
</g>
<!-- Node11 -->
<g id="node11" class="node"><title>Node11</title>
<polygon fill="white" stroke="#bfbfbf" points="1276.11,-62 1276.11,-81 1404.11,-81 1404.11,-62 1276.11,-62"/>
<text text-anchor="middle" x="1340.11" y="-69" font-family="Helvetica,sans-Serif" font-size="10.00">boost/noncopyable.hpp</text>
</g>
<!-- Node8&#45;&gt;Node11 -->
<g id="edge10" class="edge"><title>Node8&#45;&gt;Node11</title>
<path fill="none" stroke="midnightblue" d="M114.417,-201.944C235.208,-192.361 654.027,-158.855 667.108,-154 689.196,-145.803 687.936,-130.965 710.108,-123 825.797,-81.4403 1140.13,-102.26 1262.11,-87 1270.95,-85.8943 1280.3,-84.4221 1289.33,-82.839"/>
<polygon fill="midnightblue" stroke="midnightblue" points="1290.15,-86.2482 1299.36,-81.0181 1288.9,-79.3607 1290.15,-86.2482"/>
</g>
<!-- Node8&#45;&gt;Node12 -->
<g id="edge11" class="edge"><title>Node8&#45;&gt;Node12</title>
<path fill="none" stroke="midnightblue" d="M87.2328,-195.734C93.0445,-185.793 102.664,-169.338 110,-156.789"/>
<polygon fill="midnightblue" stroke="midnightblue" points="113.039,-158.527 115.064,-148.127 106.996,-154.994 113.039,-158.527"/>
</g>
<!-- Node13 -->
<g id="node13" class="node"><title>Node13</title>
<polygon fill="white" stroke="#bfbfbf" points="152.608,-62 152.608,-81 201.608,-81 201.608,-62 152.608,-62"/>
<text text-anchor="middle" x="177.108" y="-69" font-family="Helvetica,sans-Serif" font-size="10.00">cstdint</text>
</g>
<!-- Node12&#45;&gt;Node13 -->
<g id="edge12" class="edge"><title>Node12&#45;&gt;Node13</title>
<path fill="none" stroke="midnightblue" d="M127.795,-128.734C136.769,-118.5 151.796,-101.364 162.909,-88.6924"/>
<polygon fill="midnightblue" stroke="midnightblue" points="165.581,-90.9536 169.543,-81.1273 160.318,-86.3383 165.581,-90.9536"/>
</g>
<!-- Node14 -->
<g id="node14" class="node"><title>Node14</title>
<polygon fill="white" stroke="#bfbfbf" points="26.608,-62 26.608,-81 95.608,-81 95.608,-62 26.608,-62"/>
<text text-anchor="middle" x="61.108" y="-69" font-family="Helvetica,sans-Serif" font-size="10.00">string_view</text>
</g>
<!-- Node12&#45;&gt;Node14 -->
<g id="edge13" class="edge"><title>Node12&#45;&gt;Node14</title>
<path fill="none" stroke="midnightblue" d="M112.151,-128.734C102.862,-118.5 87.3078,-101.364 75.8057,-88.6924"/>
<polygon fill="midnightblue" stroke="midnightblue" points="78.2516,-86.1795 68.9389,-81.1273 73.0684,-90.8843 78.2516,-86.1795"/>
</g>
<!-- Node15&#45;&gt;Node2 -->
<g id="edge16" class="edge"><title>Node15&#45;&gt;Node2</title>
<path fill="none" stroke="midnightblue" d="M607.732,-134.421C558.813,-128.138 448.322,-112.266 358.108,-87 355.458,-86.2579 352.735,-85.4058 350.021,-84.4942"/>
<polygon fill="midnightblue" stroke="midnightblue" points="350.982,-81.1203 340.388,-81.0237 348.61,-87.706 350.982,-81.1203"/>
</g>
<!-- Node15&#45;&gt;Node3 -->
<g id="edge19" class="edge"><title>Node15&#45;&gt;Node3</title>
<path fill="none" stroke="midnightblue" d="M658.213,-134.625C687.625,-131.354 737.843,-126.068 781.108,-123 962.827,-110.114 1421.72,-123.947 1600.11,-87 1603.19,-86.3618 1606.35,-85.5065 1609.47,-84.5289"/>
<polygon fill="midnightblue" stroke="midnightblue" points="1610.88,-87.7426 1619.14,-81.1058 1608.54,-81.1439 1610.88,-87.7426"/>
</g>
<!-- Node15&#45;&gt;Node5 -->
<g id="edge23" class="edge"><title>Node15&#45;&gt;Node5</title>
<path fill="none" stroke="midnightblue" d="M607.875,-135.578C552.348,-130.837 422.046,-116.747 391.108,-87 375.747,-72.2307 372.072,-47.0718 371.532,-29.773"/>
<polygon fill="midnightblue" stroke="midnightblue" points="375.032,-29.731 371.539,-19.7286 368.032,-29.7261 375.032,-29.731"/>
</g>
<!-- Node15&#45;&gt;Node11 -->
<g id="edge25" class="edge"><title>Node15&#45;&gt;Node11</title>
<path fill="none" stroke="midnightblue" d="M652.612,-128.965C658.741,-126.635 665.606,-124.375 672.108,-123 929.131,-68.634 1001.36,-119.068 1262.11,-87 1270.95,-85.9128 1280.3,-84.4497 1289.34,-82.87"/>
<polygon fill="midnightblue" stroke="midnightblue" points="1290.15,-86.2793 1299.37,-81.0506 1288.9,-79.3917 1290.15,-86.2793"/>
</g>
<!-- Node15&#45;&gt;Node13 -->
<g id="edge15" class="edge"><title>Node15&#45;&gt;Node13</title>
<path fill="none" stroke="midnightblue" d="M607.942,-133.913C531.152,-122.967 299.728,-89.9788 211.65,-77.4238"/>
<polygon fill="midnightblue" stroke="midnightblue" points="212.034,-73.9431 201.64,-75.9968 211.046,-80.8731 212.034,-73.9431"/>
</g>
<!-- Node16 -->
<g id="node16" class="node"><title>Node16</title>
<polygon fill="white" stroke="#bfbfbf" points="1070.11,-0.5 1070.11,-19.5 1132.11,-19.5 1132.11,-0.5 1070.11,-0.5"/>
<text text-anchor="middle" x="1101.11" y="-7.5" font-family="Helvetica,sans-Serif" font-size="10.00">algorithm</text>
</g>
<!-- Node15&#45;&gt;Node16 -->
<g id="edge17" class="edge"><title>Node15&#45;&gt;Node16</title>
<path fill="none" stroke="midnightblue" d="M653.039,-128.931C659.065,-126.657 665.768,-124.438 672.108,-123 758.713,-103.353 998.711,-139.81 1070.11,-87 1088.24,-73.59 1095.8,-47.7175 1098.93,-29.9146"/>
<polygon fill="midnightblue" stroke="midnightblue" points="1102.42,-30.2222 1100.39,-19.8244 1095.49,-29.2209 1102.42,-30.2222"/>
</g>
<!-- Node17 -->
<g id="node17" class="node"><title>Node17</title>
<polygon fill="white" stroke="#bfbfbf" points="776.108,-62 776.108,-81 822.108,-81 822.108,-62 776.108,-62"/>
<text text-anchor="middle" x="799.108" y="-69" font-family="Helvetica,sans-Serif" font-size="10.00">iosfwd</text>
</g>
<!-- Node15&#45;&gt;Node17 -->
<g id="edge18" class="edge"><title>Node15&#45;&gt;Node17</title>
<path fill="none" stroke="midnightblue" d="M656.144,-128.916C688.458,-116.846 745.592,-95.3957 766.108,-87 767.52,-86.4223 768.962,-85.8231 770.416,-85.2118"/>
<polygon fill="midnightblue" stroke="midnightblue" points="772.178,-88.2642 779.984,-81.1007 769.414,-81.8327 772.178,-88.2642"/>
</g>
<!-- Node18 -->
<g id="node18" class="node"><title>Node18</title>
<polygon fill="white" stroke="#bfbfbf" points="840.108,-62 840.108,-81 908.108,-81 908.108,-62 840.108,-62"/>
<text text-anchor="middle" x="874.108" y="-69" font-family="Helvetica,sans-Serif" font-size="10.00">type_traits</text>
</g>
<!-- Node15&#45;&gt;Node18 -->
<g id="edge20" class="edge"><title>Node15&#45;&gt;Node18</title>
<path fill="none" stroke="midnightblue" d="M654.799,-128.852C660.389,-126.785 666.431,-124.69 672.108,-123 741.552,-102.329 761.354,-106.602 831.108,-87 834.12,-86.1535 837.233,-85.2206 840.343,-84.2485"/>
<polygon fill="midnightblue" stroke="midnightblue" points="841.707,-87.4855 850.137,-81.0678 839.544,-80.8278 841.707,-87.4855"/>
</g>
<!-- Node19 -->
<g id="node19" class="node"><title>Node19</title>
<polygon fill="white" stroke="#bfbfbf" points="1498.61,-62 1498.61,-81 1591.61,-81 1591.61,-62 1498.61,-62"/>
<text text-anchor="middle" x="1545.11" y="-69" font-family="Helvetica,sans-Serif" font-size="10.00">unordered_map</text>
</g>
<!-- Node15&#45;&gt;Node19 -->
<g id="edge21" class="edge"><title>Node15&#45;&gt;Node19</title>
<path fill="none" stroke="midnightblue" d="M658.22,-134.725C687.64,-131.547 737.864,-126.349 781.108,-123 1061.61,-101.279 1132.74,-110.368 1413.11,-87 1437.82,-84.94 1465.08,-82.0507 1488.37,-79.3929"/>
<polygon fill="midnightblue" stroke="midnightblue" points="1488.9,-82.8553 1498.43,-78.2316 1488.1,-75.9015 1488.9,-82.8553"/>
</g>
<!-- Node20 -->
<g id="node20" class="node"><title>Node20</title>
<polygon fill="white" stroke="#bfbfbf" points="1338.11,-0.5 1338.11,-19.5 1380.11,-19.5 1380.11,-0.5 1338.11,-0.5"/>
<text text-anchor="middle" x="1359.11" y="-7.5" font-family="Helvetica,sans-Serif" font-size="10.00">utility</text>
</g>
<!-- Node15&#45;&gt;Node20 -->
<g id="edge22" class="edge"><title>Node15&#45;&gt;Node20</title>
<path fill="none" stroke="midnightblue" d="M652.616,-128.98C658.744,-126.65 665.609,-124.387 672.108,-123 793.194,-97.1524 1112.59,-131.557 1228.11,-87 1248.77,-79.0317 1248.39,-67.8227 1267.11,-56 1286.86,-43.5264 1310.57,-32.0032 1328.97,-23.7405"/>
<polygon fill="midnightblue" stroke="midnightblue" points="1330.59,-26.8527 1338.33,-19.6149 1327.77,-20.4479 1330.59,-26.8527"/>
</g>
<!-- Node21 -->
<g id="node21" class="node"><title>Node21</title>
<polygon fill="white" stroke="#bfbfbf" points="514.108,-56.5 514.108,-86.5 624.108,-86.5 624.108,-56.5 514.108,-56.5"/>
<text text-anchor="start" x="522.108" y="-74.5" font-family="Helvetica,sans-Serif" font-size="10.00">boost/container/flat</text>
<text text-anchor="middle" x="569.108" y="-63.5" font-family="Helvetica,sans-Serif" font-size="10.00">_set.hpp</text>
</g>
<!-- Node15&#45;&gt;Node21 -->
<g id="edge24" class="edge"><title>Node15&#45;&gt;Node21</title>
<path fill="none" stroke="midnightblue" d="M624.477,-128.734C615.744,-119.865 601.907,-105.811 590.25,-93.9722"/>
<polygon fill="midnightblue" stroke="midnightblue" points="592.49,-91.2591 582.98,-86.589 587.502,-96.1703 592.49,-91.2591"/>
</g>
<!-- Node22 -->
<g id="node22" class="node"><title>Node22</title>
<polygon fill="white" stroke="#bfbfbf" points="642.608,-56.5 642.608,-86.5 757.608,-86.5 757.608,-56.5 642.608,-56.5"/>
<text text-anchor="start" x="650.608" y="-74.5" font-family="Helvetica,sans-Serif" font-size="10.00">boost/range/adaptor</text>
<text text-anchor="middle" x="700.108" y="-63.5" font-family="Helvetica,sans-Serif" font-size="10.00">/transformed.hpp</text>
</g>
<!-- Node15&#45;&gt;Node22 -->
<g id="edge26" class="edge"><title>Node15&#45;&gt;Node22</title>
<path fill="none" stroke="midnightblue" d="M642.144,-128.734C651.373,-119.78 666.048,-105.543 678.323,-93.6346"/>
<polygon fill="midnightblue" stroke="midnightblue" points="680.845,-96.0643 685.585,-86.589 675.971,-91.0401 680.845,-96.0643"/>
</g>
<!-- Node23 -->
<g id="node23" class="node"><title>Node23</title>
<g id="a_node23"><a xlink:href="find__iterator_8h.xhtml" target="_top" xlink:title="Convenience iterator adaptor to wrap find calls and results. ">
<polygon fill="white" stroke="black" points="1118.61,-62 1118.61,-81 1219.61,-81 1219.61,-62 1118.61,-62"/>
<text text-anchor="middle" x="1169.11" y="-69" font-family="Helvetica,sans-Serif" font-size="10.00">ext/find_iterator.h</text>
</a>
</g>
</g>
<!-- Node15&#45;&gt;Node23 -->
<g id="edge27" class="edge"><title>Node15&#45;&gt;Node23</title>
<path fill="none" stroke="midnightblue" d="M653.033,-128.902C659.059,-126.628 665.763,-124.416 672.108,-123 860.149,-81.0394 913.644,-116.042 1104.11,-87 1110.87,-85.9696 1117.97,-84.6416 1124.9,-83.2086"/>
<polygon fill="midnightblue" stroke="midnightblue" points="1125.83,-86.5884 1134.86,-81.0563 1124.35,-79.7462 1125.83,-86.5884"/>
</g>
<!-- Node24 -->
<g id="node24" class="node"><title>Node24</title>
<g id="a_node24"><a xlink:href="index__map_8h.xhtml" target="_top" xlink:title="Non&#45;zero based Index&#45;&gt;Value map adapter on sequential containers. ">
<polygon fill="white" stroke="black" points="400.108,-62 400.108,-81 496.108,-81 496.108,-62 400.108,-62"/>
<text text-anchor="middle" x="448.108" y="-69" font-family="Helvetica,sans-Serif" font-size="10.00">ext/index_map.h</text>
</a>
</g>
</g>
<!-- Node15&#45;&gt;Node24 -->
<g id="edge29" class="edge"><title>Node15&#45;&gt;Node24</title>
<path fill="none" stroke="midnightblue" d="M608.541,-128.869C576.109,-117.473 518.843,-97.3528 482.224,-84.4869"/>
<polygon fill="midnightblue" stroke="midnightblue" points="483.076,-81.0765 472.482,-81.0637 480.756,-87.6807 483.076,-81.0765"/>
</g>
<!-- Node25 -->
<g id="node25" class="node"><title>Node25</title>
<g id="a_node25"><a xlink:href="linear__map_8h.xhtml" target="_top" xlink:title="Implementation of a vector&#45;based map for a small number of entries. ">
<polygon fill="white" stroke="black" points="964.608,-62 964.608,-81 1061.61,-81 1061.61,-62 964.608,-62"/>
<text text-anchor="middle" x="1013.11" y="-69" font-family="Helvetica,sans-Serif" font-size="10.00">ext/linear_map.h</text>
</a>
</g>
</g>
<!-- Node15&#45;&gt;Node25 -->
<g id="edge31" class="edge"><title>Node15&#45;&gt;Node25</title>
<path fill="none" stroke="midnightblue" d="M653.9,-128.85C659.714,-126.685 666.09,-124.543 672.108,-123 778.719,-95.6724 808.251,-103.218 917.108,-87 929.091,-85.2147 941.912,-83.2889 954.157,-81.4422"/>
<polygon fill="midnightblue" stroke="midnightblue" points="954.911,-84.8682 964.276,-79.9144 953.866,-77.9466 954.911,-84.8682"/>
</g>
<!-- Node23&#45;&gt;Node20 -->
<g id="edge28" class="edge"><title>Node23&#45;&gt;Node20</title>
<path fill="none" stroke="midnightblue" d="M1196.33,-61.9751C1231.32,-51.0194 1291.89,-32.0506 1328.46,-20.5988"/>
<polygon fill="midnightblue" stroke="midnightblue" points="1329.6,-23.9096 1338.09,-17.581 1327.5,-17.2295 1329.6,-23.9096"/>
</g>
<!-- Node24&#45;&gt;Node5 -->
<g id="edge30" class="edge"><title>Node24&#45;&gt;Node5</title>
<path fill="none" stroke="midnightblue" d="M437.219,-61.9751C425.142,-52.5199 405.441,-37.0961 390.868,-25.6871"/>
<polygon fill="midnightblue" stroke="midnightblue" points="393.008,-22.9177 382.977,-19.5091 388.693,-28.4295 393.008,-22.9177"/>
</g>
<!-- Node25&#45;&gt;Node5 -->
<g id="edge37" class="edge"><title>Node25&#45;&gt;Node5</title>
<path fill="none" stroke="midnightblue" d="M980.262,-61.9694C970.605,-59.7253 959.982,-57.5121 950.108,-56 744.797,-24.5589 494.906,-14.5663 405.717,-11.8732"/>
<polygon fill="midnightblue" stroke="midnightblue" points="405.749,-8.37275 395.651,-11.58 405.545,-15.3698 405.749,-8.37275"/>
</g>
<!-- Node25&#45;&gt;Node9 -->
<g id="edge32" class="edge"><title>Node25&#45;&gt;Node9</title>
<path fill="none" stroke="midnightblue" d="M964.381,-62.2597C949.267,-59.9411 932.531,-57.6144 917.108,-56 772.791,-40.8938 319.386,-18.9103 187.456,-12.6938"/>
<polygon fill="midnightblue" stroke="midnightblue" points="187.611,-9.19726 177.458,-12.2238 187.282,-16.1895 187.611,-9.19726"/>
</g>
<!-- Node25&#45;&gt;Node16 -->
<g id="edge33" class="edge"><title>Node25&#45;&gt;Node16</title>
<path fill="none" stroke="midnightblue" d="M1025.72,-61.9751C1039.83,-52.4315 1062.94,-36.8073 1079.86,-25.3683"/>
<polygon fill="midnightblue" stroke="midnightblue" points="1082.2,-28.0098 1088.52,-19.5091 1078.28,-22.2109 1082.2,-28.0098"/>
</g>
<!-- Node25&#45;&gt;Node20 -->
<g id="edge36" class="edge"><title>Node25&#45;&gt;Node20</title>
<path fill="none" stroke="midnightblue" d="M1061.95,-62.1013C1134.17,-49.6812 1267.42,-26.7676 1327.85,-16.3755"/>
<polygon fill="midnightblue" stroke="midnightblue" points="1328.66,-19.7883 1337.92,-14.6441 1327.47,-12.8896 1328.66,-19.7883"/>
</g>
<!-- Node26 -->
<g id="node26" class="node"><title>Node26</title>
<polygon fill="white" stroke="#bfbfbf" points="974.608,-0.5 974.608,-19.5 1051.61,-19.5 1051.61,-0.5 974.608,-0.5"/>
<text text-anchor="middle" x="1013.11" y="-7.5" font-family="Helvetica,sans-Serif" font-size="10.00">initializer_list</text>
</g>
<!-- Node25&#45;&gt;Node26 -->
<g id="edge34" class="edge"><title>Node25&#45;&gt;Node26</title>
<path fill="none" stroke="midnightblue" d="M1013.11,-61.9751C1013.11,-53.5803 1013.11,-40.4806 1013.11,-29.6631"/>
<polygon fill="midnightblue" stroke="midnightblue" points="1016.61,-29.5091 1013.11,-19.5091 1009.61,-29.5091 1016.61,-29.5091"/>
</g>
<!-- Node27 -->
<g id="node27" class="node"><title>Node27</title>
<polygon fill="white" stroke="#bfbfbf" points="892.108,-0.5 892.108,-19.5 956.108,-19.5 956.108,-0.5 892.108,-0.5"/>
<text text-anchor="middle" x="924.108" y="-7.5" font-family="Helvetica,sans-Serif" font-size="10.00">stdexcept</text>
</g>
<!-- Node25&#45;&gt;Node27 -->
<g id="edge35" class="edge"><title>Node25&#45;&gt;Node27</title>
<path fill="none" stroke="midnightblue" d="M1000.36,-61.9751C986.081,-52.4315 962.711,-36.8073 945.6,-25.3683"/>
<polygon fill="midnightblue" stroke="midnightblue" points="947.094,-22.1572 936.836,-19.5091 943.204,-27.9766 947.094,-22.1572"/>
</g>
<!-- Node28&#45;&gt;Node3 -->
<g id="edge39" class="edge"><title>Node28&#45;&gt;Node3</title>
<path fill="none" stroke="midnightblue" d="M1576.44,-195.839C1587.11,-174.486 1614.87,-118.977 1629.22,-90.2713"/>
<polygon fill="midnightblue" stroke="midnightblue" points="1632.51,-91.5307 1633.85,-81.0212 1626.24,-88.4002 1632.51,-91.5307"/>
</g>
<!-- Node28&#45;&gt;Node5 -->
<g id="edge43" class="edge"><title>Node28&#45;&gt;Node5</title>
<path fill="none" stroke="midnightblue" d="M1554.93,-195.876C1514.82,-175.802 1417.19,-127.323 1401.11,-123 1209.06,-71.3658 1139.61,-161.21 955.108,-87 934.887,-78.8665 937.322,-64.1521 917.108,-56 823.564,-18.2748 509.851,-12.1729 405.893,-11.1886"/>
<polygon fill="midnightblue" stroke="midnightblue" points="405.693,-7.68683 395.664,-11.1021 405.634,-14.6866 405.693,-7.68683"/>
</g>
<!-- Node28&#45;&gt;Node11 -->
<g id="edge44" class="edge"><title>Node28&#45;&gt;Node11</title>
<path fill="none" stroke="midnightblue" d="M1563.46,-195.804C1546.97,-179.613 1509.33,-144.538 1472.11,-123 1443.01,-106.163 1407.26,-92.8845 1380.3,-84.1773"/>
<polygon fill="midnightblue" stroke="midnightblue" points="1381.02,-80.735 1370.43,-81.0662 1378.92,-87.4111 1381.02,-80.735"/>
</g>
<!-- Node28&#45;&gt;Node15 -->
<g id="edge46" class="edge"><title>Node28&#45;&gt;Node15</title>
<path fill="none" stroke="midnightblue" d="M1527.9,-202.205C1407.8,-195.855 1065.37,-176.992 781.108,-154 742.435,-150.872 698.165,-146.42 668.196,-143.276"/>
<polygon fill="midnightblue" stroke="midnightblue" points="668.537,-139.792 658.224,-142.223 667.801,-146.754 668.537,-139.792"/>
</g>
<!-- Node28&#45;&gt;Node19 -->
<g id="edge41" class="edge"><title>Node28&#45;&gt;Node19</title>
<path fill="none" stroke="midnightblue" d="M1570.34,-195.839C1566.01,-174.674 1554.81,-119.948 1548.9,-91.0329"/>
<polygon fill="midnightblue" stroke="midnightblue" points="1552.28,-90.1169 1546.85,-81.0212 1545.43,-91.5197 1552.28,-90.1169"/>
</g>
<!-- Node28&#45;&gt;Node20 -->
<g id="edge42" class="edge"><title>Node28&#45;&gt;Node20</title>
<path fill="none" stroke="midnightblue" d="M1616.23,-202.807C1685.06,-199.135 1813.04,-187.826 1841.11,-154 1849.91,-143.397 1848.81,-134.421 1841.11,-123 1789.81,-46.9802 1488.84,-19.8602 1390.31,-12.9503"/>
<polygon fill="midnightblue" stroke="midnightblue" points="1390.33,-9.44305 1380.11,-12.2569 1389.85,-16.4269 1390.33,-9.44305"/>
</g>
<!-- Node29 -->
<g id="node29" class="node"><title>Node29</title>
<polygon fill="white" stroke="#bfbfbf" points="1800.11,-129 1800.11,-148 1832.11,-148 1832.11,-129 1800.11,-129"/>
<text text-anchor="middle" x="1816.11" y="-136" font-family="Helvetica,sans-Serif" font-size="10.00">set</text>
</g>
<!-- Node28&#45;&gt;Node29 -->
<g id="edge40" class="edge"><title>Node28&#45;&gt;Node29</title>
<path fill="none" stroke="midnightblue" d="M1616.48,-198.263C1661.57,-191.012 1732.86,-177.002 1791.11,-154 1791.99,-153.653 1792.87,-153.279 1793.75,-152.884"/>
<polygon fill="midnightblue" stroke="midnightblue" points="1795.72,-155.806 1802.99,-148.094 1792.5,-149.593 1795.72,-155.806"/>
</g>
<!-- Node30 -->
<g id="node30" class="node"><title>Node30</title>
<polygon fill="white" stroke="#bfbfbf" points="1638.11,-129 1638.11,-148 1782.11,-148 1782.11,-129 1638.11,-129"/>
<text text-anchor="middle" x="1710.11" y="-136" font-family="Helvetica,sans-Serif" font-size="10.00">boost/unordered_map.hpp</text>
</g>
<!-- Node28&#45;&gt;Node30 -->
<g id="edge45" class="edge"><title>Node28&#45;&gt;Node30</title>
<path fill="none" stroke="midnightblue" d="M1590.43,-195.869C1614.04,-184.748 1655.3,-165.317 1682.66,-152.429"/>
<polygon fill="midnightblue" stroke="midnightblue" points="1684.15,-155.595 1691.71,-148.167 1681.17,-149.262 1684.15,-155.595"/>
</g>
<!-- Node31&#45;&gt;Node3 -->
<g id="edge52" class="edge"><title>Node31&#45;&gt;Node3</title>
<path fill="none" stroke="midnightblue" d="M938.98,-268.389C1006.5,-259.848 1192.18,-235.693 1252.11,-221 1340.7,-199.279 1360.96,-186.73 1446.11,-154 1505.06,-131.339 1572.81,-101.725 1610,-85.152"/>
<polygon fill="midnightblue" stroke="midnightblue" points="1611.51,-88.3112 1619.21,-81.0355 1608.65,-81.9205 1611.51,-88.3112"/>
</g>
<!-- Node31&#45;&gt;Node5 -->
<g id="edge55" class="edge"><title>Node31&#45;&gt;Node5</title>
<path fill="none" stroke="midnightblue" d="M889.292,-266.971C844.908,-258.741 749.091,-240.383 669.108,-221 561.478,-194.917 533.33,-191.446 429.108,-154 394.56,-141.587 298.121,-117.775 278.108,-87 270.597,-75.4497 270.764,-67.6575 278.108,-56 291.345,-34.987 317.411,-23.5705 338.744,-17.5006"/>
<polygon fill="midnightblue" stroke="midnightblue" points="339.641,-20.8839 348.453,-15.0022 337.896,-14.1048 339.641,-20.8839"/>
</g>
<!-- Node31&#45;&gt;Node6 -->
<g id="edge57" class="edge"><title>Node31&#45;&gt;Node6</title>
<path fill="none" stroke="midnightblue" d="M889.494,-269.8C817.007,-264.621 598.117,-247.742 418.108,-221 416.833,-220.811 415.547,-220.614 414.252,-220.412"/>
<polygon fill="midnightblue" stroke="midnightblue" points="414.64,-216.929 404.203,-218.756 413.501,-223.836 414.64,-216.929"/>
</g>
<!-- Node31&#45;&gt;Node11 -->
<g id="edge58" class="edge"><title>Node31&#45;&gt;Node11</title>
<path fill="none" stroke="midnightblue" d="M894.01,-262.919C843.677,-240.323 719.742,-177.186 770.108,-123 807.426,-82.8522 1207.75,-94.0197 1262.11,-87 1270.84,-85.8722 1280.08,-84.4032 1289.02,-82.8339"/>
<polygon fill="midnightblue" stroke="midnightblue" points="1289.74,-86.2612 1298.95,-81.0323 1288.49,-79.3737 1289.74,-86.2612"/>
</g>
<!-- Node31&#45;&gt;Node13 -->
<g id="edge49" class="edge"><title>Node31&#45;&gt;Node13</title>
<path fill="none" stroke="midnightblue" d="M889.387,-270.432C806.111,-266.577 536.557,-251.947 456.108,-221 434.119,-212.541 433.275,-202.179 413.108,-190 341.384,-146.685 251.555,-105.233 206.194,-85.1294"/>
<polygon fill="midnightblue" stroke="midnightblue" points="207.514,-81.8864 196.951,-81.0567 204.691,-88.2921 207.514,-81.8864"/>
</g>
<!-- Node31&#45;&gt;Node15 -->
<g id="edge72" class="edge"><title>Node31&#45;&gt;Node15</title>
<path fill="none" stroke="midnightblue" d="M889.515,-269.881C849.417,-266.303 768.564,-255.111 710.108,-221 682.206,-204.718 658.12,-175.295 644.628,-156.611"/>
<polygon fill="midnightblue" stroke="midnightblue" points="647.329,-154.366 638.73,-148.177 641.593,-158.377 647.329,-154.366"/>
</g>
<!-- Node31&#45;&gt;Node19 -->
<g id="edge53" class="edge"><title>Node31&#45;&gt;Node19</title>
<path fill="none" stroke="midnightblue" d="M938.676,-268.113C1011.39,-257.557 1231.06,-221.835 1401.11,-154 1447.37,-135.544 1497.03,-104.699 1524.26,-86.7152"/>
<polygon fill="midnightblue" stroke="midnightblue" points="1526.22,-89.6113 1532.59,-81.1459 1522.33,-83.7907 1526.22,-89.6113"/>
</g>
<!-- Node31&#45;&gt;Node20 -->
<g id="edge54" class="edge"><title>Node31&#45;&gt;Node20</title>
<path fill="none" stroke="midnightblue" d="M938.897,-271.605C1030.66,-271.6 1359.48,-268.09 1625.11,-221 1731.21,-202.191 1793.29,-240.079 1858.11,-154 1907.03,-89.0338 1804.33,-72.6871 1759.11,-56 1691.34,-30.9954 1472.2,-17.0308 1390.34,-12.5809"/>
<polygon fill="midnightblue" stroke="midnightblue" points="1390.34,-9.07617 1380.17,-12.039 1389.97,-16.0662 1390.34,-9.07617"/>
</g>
<!-- Node32 -->
<g id="node32" class="node"><title>Node32</title>
<polygon fill="white" stroke="#bfbfbf" points="954.608,-196 954.608,-215 995.608,-215 995.608,-196 954.608,-196"/>
<text text-anchor="middle" x="975.108" y="-203" font-family="Helvetica,sans-Serif" font-size="10.00">array</text>
</g>
<!-- Node31&#45;&gt;Node32 -->
<g id="edge50" class="edge"><title>Node31&#45;&gt;Node32</title>
<path fill="none" stroke="midnightblue" d="M922.335,-262.734C931.938,-252.5 948.02,-235.364 959.912,-222.692"/>
<polygon fill="midnightblue" stroke="midnightblue" points="962.721,-224.814 967.012,-215.127 957.616,-220.024 962.721,-224.814"/>
</g>
<!-- Node33 -->
<g id="node33" class="node"><title>Node33</title>
<polygon fill="white" stroke="#bfbfbf" points="1014.11,-196 1014.11,-215 1052.11,-215 1052.11,-196 1014.11,-196"/>
<text text-anchor="middle" x="1033.11" y="-203" font-family="Helvetica,sans-Serif" font-size="10.00">map</text>
</g>
<!-- Node31&#45;&gt;Node33 -->
<g id="edge51" class="edge"><title>Node31&#45;&gt;Node33</title>
<path fill="none" stroke="midnightblue" d="M930.157,-262.734C950.23,-251.769 984.811,-232.881 1008.3,-220.049"/>
<polygon fill="midnightblue" stroke="midnightblue" points="1010.22,-222.993 1017.31,-215.127 1006.86,-216.849 1010.22,-222.993"/>
</g>
<!-- Node34 -->
<g id="node34" class="node"><title>Node34</title>
<polygon fill="white" stroke="#bfbfbf" points="1252.11,-129 1252.11,-148 1392.11,-148 1392.11,-129 1252.11,-129"/>
<text text-anchor="middle" x="1322.11" y="-136" font-family="Helvetica,sans-Serif" font-size="10.00">boost/functional/hash.hpp</text>
</g>
<!-- Node31&#45;&gt;Node34 -->
<g id="edge56" class="edge"><title>Node31&#45;&gt;Node34</title>
<path fill="none" stroke="midnightblue" d="M938.711,-263.54C1007.93,-241.147 1204.57,-177.526 1286.06,-151.164"/>
<polygon fill="midnightblue" stroke="midnightblue" points="1287.2,-154.474 1295.63,-148.065 1285.04,-147.813 1287.2,-154.474"/>
</g>
<!-- Node35 -->
<g id="node35" class="node"><title>Node35</title>
<g id="a_node35"><a xlink:href="bdd_8h.xhtml" target="_top" xlink:title="Fault tree analysis with the Binary Decision Diagram algorithms. ">
<polygon fill="white" stroke="black" points="892.108,-196 892.108,-215 936.108,-215 936.108,-196 892.108,-196"/>
<text text-anchor="middle" x="914.108" y="-203" font-family="Helvetica,sans-Serif" font-size="10.00">bdd.h</text>
</a>
</g>
</g>
<!-- Node31&#45;&gt;Node35 -->
<g id="edge59" class="edge"><title>Node31&#45;&gt;Node35</title>
<path fill="none" stroke="midnightblue" d="M914.108,-262.734C914.108,-253.183 914.108,-237.618 914.108,-225.283"/>
<polygon fill="midnightblue" stroke="midnightblue" points="917.608,-225.127 914.108,-215.127 910.608,-225.127 917.608,-225.127"/>
</g>
<!-- Node35&#45;&gt;Node3 -->
<g id="edge63" class="edge"><title>Node35&#45;&gt;Node3</title>
<path fill="none" stroke="midnightblue" d="M930.162,-195.887C934.867,-193.668 940.096,-191.49 945.108,-190 1054.82,-157.394 1093.92,-196.714 1200.11,-154 1221.97,-145.208 1221.08,-131.356 1243.11,-123 1392.21,-66.4393 1444.93,-123.746 1600.11,-87 1603.1,-86.2907 1606.18,-85.4025 1609.22,-84.4169"/>
<polygon fill="midnightblue" stroke="midnightblue" points="1610.45,-87.6943 1618.7,-81.0365 1608.1,-81.1016 1610.45,-87.6943"/>
</g>
<!-- Node35&#45;&gt;Node5 -->
<g id="edge66" class="edge"><title>Node35&#45;&gt;Node5</title>
<path fill="none" stroke="midnightblue" d="M891.834,-201.15C782.472,-184.601 306.815,-111.389 287.108,-87 278.449,-76.2836 280.001,-67.8035 287.108,-56 298.278,-37.448 319.946,-26.1439 338.608,-19.5053"/>
<polygon fill="midnightblue" stroke="midnightblue" points="339.867,-22.7765 348.3,-16.3632 337.708,-16.1177 339.867,-22.7765"/>
</g>
<!-- Node35&#45;&gt;Node11 -->
<g id="edge68" class="edge"><title>Node35&#45;&gt;Node11</title>
<path fill="none" stroke="midnightblue" d="M891.812,-200.053C845.151,-189.839 744.451,-162.503 781.108,-123 817.563,-83.7146 1208.96,-93.9079 1262.11,-87 1270.84,-85.8649 1280.08,-84.3923 1289.02,-82.8216"/>
<polygon fill="midnightblue" stroke="midnightblue" points="1289.74,-86.2489 1298.95,-81.0194 1288.49,-79.3614 1289.74,-86.2489"/>
</g>
<!-- Node35&#45;&gt;Node12 -->
<g id="edge71" class="edge"><title>Node35&#45;&gt;Node12</title>
<path fill="none" stroke="midnightblue" d="M892.043,-202.694C783.797,-193.832 308.273,-154.904 162.645,-142.982"/>
<polygon fill="midnightblue" stroke="midnightblue" points="162.595,-139.467 152.343,-142.139 162.024,-146.443 162.595,-139.467"/>
</g>
<!-- Node35&#45;&gt;Node15 -->
<g id="edge70" class="edge"><title>Node35&#45;&gt;Node15</title>
<path fill="none" stroke="midnightblue" d="M892.058,-199.4C843.481,-188.163 726.898,-161.195 668.171,-147.611"/>
<polygon fill="midnightblue" stroke="midnightblue" points="668.777,-144.159 658.246,-145.315 667.2,-150.978 668.777,-144.159"/>
</g>
<!-- Node35&#45;&gt;Node16 -->
<g id="edge61" class="edge"><title>Node35&#45;&gt;Node16</title>
<path fill="none" stroke="midnightblue" d="M930.914,-195.916C935.449,-193.8 940.403,-191.666 945.108,-190 1007.7,-167.829 1029.71,-181.594 1090.11,-154 1111.87,-144.059 1111.81,-131.674 1134.11,-123 1192.37,-100.333 1371.83,-133.947 1413.11,-87 1422.21,-76.653 1422.13,-66.4145 1413.11,-56 1378.59,-16.1446 1219.28,-10.7923 1142.59,-10.5826"/>
<polygon fill="midnightblue" stroke="midnightblue" points="1142.33,-7.08251 1132.33,-10.5841 1142.33,-14.0825 1142.33,-7.08251"/>
</g>
<!-- Node35&#45;&gt;Node19 -->
<g id="edge64" class="edge"><title>Node35&#45;&gt;Node19</title>
<path fill="none" stroke="midnightblue" d="M930.185,-195.965C934.891,-193.748 940.114,-191.55 945.108,-190 1038.48,-161.02 1070.92,-189.254 1162.11,-154 1185.79,-144.842 1186.27,-131.757 1210.11,-123 1325.4,-80.6486 1363.31,-109.232 1484.11,-87 1489.94,-85.9271 1496.05,-84.6546 1502.05,-83.3159"/>
<polygon fill="midnightblue" stroke="midnightblue" points="1503.04,-86.6807 1512,-81.0242 1501.47,-79.8595 1503.04,-86.6807"/>
</g>
<!-- Node35&#45;&gt;Node20 -->
<g id="edge65" class="edge"><title>Node35&#45;&gt;Node20</title>
<path fill="none" stroke="midnightblue" d="M930.54,-195.916C935.161,-193.751 940.253,-191.592 945.108,-190 1023.04,-164.439 1052.38,-189.943 1126.11,-154 1145.09,-144.747 1142.85,-131.648 1162.11,-123 1217.13,-98.299 1391.39,-132.386 1431.11,-87 1440.18,-76.6316 1437.79,-68.0506 1431.11,-56 1422.23,-39.9848 1405.02,-28.9165 1389.65,-21.7652"/>
<polygon fill="midnightblue" stroke="midnightblue" points="1390.98,-18.527 1380.41,-17.8094 1388.22,-24.9623 1390.98,-18.527"/>
</g>
<!-- Node35&#45;&gt;Node34 -->
<g id="edge67" class="edge"><title>Node35&#45;&gt;Node34</title>
<path fill="none" stroke="midnightblue" d="M929.825,-195.98C934.611,-193.708 939.969,-191.477 945.108,-190 1071.2,-153.757 1108.31,-173.165 1238.11,-154 1246.83,-152.712 1256.04,-151.238 1265.04,-149.735"/>
<polygon fill="midnightblue" stroke="midnightblue" points="1265.81,-153.156 1275.08,-148.033 1264.64,-146.254 1265.81,-153.156"/>
</g>
<!-- Node36 -->
<g id="node36" class="node"><title>Node36</title>
<polygon fill="white" stroke="#bfbfbf" points="945.608,-129 945.608,-148 992.608,-148 992.608,-129 945.608,-129"/>
<text text-anchor="middle" x="969.108" y="-136" font-family="Helvetica,sans-Serif" font-size="10.00">cmath</text>
</g>
<!-- Node35&#45;&gt;Node36 -->
<g id="edge60" class="edge"><title>Node35&#45;&gt;Node36</title>
<path fill="none" stroke="midnightblue" d="M921.526,-195.734C930.102,-185.598 944.409,-168.69 955.099,-156.056"/>
<polygon fill="midnightblue" stroke="midnightblue" points="958.02,-158.022 961.808,-148.127 952.677,-153.5 958.02,-158.022"/>
</g>
<!-- Node37 -->
<g id="node37" class="node"><title>Node37</title>
<polygon fill="white" stroke="#bfbfbf" points="1010.61,-129 1010.61,-148 1081.61,-148 1081.61,-129 1010.61,-129"/>
<text text-anchor="middle" x="1046.11" y="-136" font-family="Helvetica,sans-Serif" font-size="10.00">forward_list</text>
</g>
<!-- Node35&#45;&gt;Node37 -->
<g id="edge62" class="edge"><title>Node35&#45;&gt;Node37</title>
<path fill="none" stroke="midnightblue" d="M931.637,-195.869C954.122,-184.796 993.336,-165.486 1019.51,-152.598"/>
<polygon fill="midnightblue" stroke="midnightblue" points="1021.08,-155.725 1028.51,-148.167 1017.99,-149.445 1021.08,-155.725"/>
</g>
<!-- Node38 -->
<g id="node38" class="node"><title>Node38</title>
<polygon fill="white" stroke="#bfbfbf" points="790.608,-123.5 790.608,-153.5 927.608,-153.5 927.608,-123.5 790.608,-123.5"/>
<text text-anchor="start" x="798.608" y="-141.5" font-family="Helvetica,sans-Serif" font-size="10.00">boost/smart_ptr/intrusive</text>
<text text-anchor="middle" x="859.108" y="-130.5" font-family="Helvetica,sans-Serif" font-size="10.00">_ptr.hpp</text>
</g>
<!-- Node35&#45;&gt;Node38 -->
<g id="edge69" class="edge"><title>Node35&#45;&gt;Node38</title>
<path fill="none" stroke="midnightblue" d="M906.69,-195.734C899.257,-186.949 887.52,-173.078 877.564,-161.311"/>
<polygon fill="midnightblue" stroke="midnightblue" points="880.161,-158.962 871.029,-153.589 874.817,-163.484 880.161,-158.962"/>
</g>
</g>
</svg>
        <g id="navigator" transform="translate(0 0)" fill="#404254">
                <rect fill="#f2f5e9" fill-opacity="0.5" stroke="#606060" stroke-width=".5" x="0" y="0" width="60" height="60"/>
                <use id="zoomplus" xlink:href="#zoomPlus" x="17" y="9" onmousedown="handleZoom(evt,'in')"/>
                <use id="zoomminus" xlink:href="#zoomMin" x="42" y="9" onmousedown="handleZoom(evt,'out')"/>
                <use id="reset" xlink:href="#resetDef" x="30" y="36" onmousedown="handleReset()"/>
                <g id="arrowUp" xlink:href="#dirArrow" transform="translate(30 24)" onmousedown="handlePan(0,-1)">
                  <use xlink:href="#rim" fill="#404040">
                        <set attributeName="fill" to="#808080" begin="arrowUp.mouseover" end="arrowUp.mouseout"/>
                  </use>
                  <path fill="none" stroke="white" stroke-width="1.5" d="M0,-3.0v7 M-2.5,-0.5L0,-3.0L2.5,-0.5"/>
                </g>
                <g id="arrowRight" xlink:href="#dirArrow" transform="rotate(90) translate(36 -43)" onmousedown="handlePan(1,0)">
                  <use xlink:href="#rim" fill="#404040">
                        <set attributeName="fill" to="#808080" begin="arrowRight.mouseover" end="arrowRight.mouseout"/>
                  </use>
                  <path fill="none" stroke="white" stroke-width="1.5" d="M0,-3.0v7 M-2.5,-0.5L0,-3.0L2.5,-0.5"/>
                </g>
                <g id="arrowDown" xlink:href="#dirArrow" transform="rotate(180) translate(-30 -48)" onmousedown="handlePan(0,1)">
                  <use xlink:href="#rim" fill="#404040">
                        <set attributeName="fill" to="#808080" begin="arrowDown.mouseover" end="arrowDown.mouseout"/>
                  </use>
                  <path fill="none" stroke="white" stroke-width="1.5" d="M0,-3.0v7 M-2.5,-0.5L0,-3.0L2.5,-0.5"/>
                </g>
                <g id="arrowLeft" xlink:href="#dirArrow" transform="rotate(270) translate(-36 17)" onmousedown="handlePan(-1,0)">
                  <use xlink:href="#rim" fill="#404040">
                        <set attributeName="fill" to="#808080" begin="arrowLeft.mouseover" end="arrowLeft.mouseout"/>
                  </use>
                  <path fill="none" stroke="white" stroke-width="1.5" d="M0,-3.0v7 M-2.5,-0.5L0,-3.0L2.5,-0.5"/>
                </g>
        </g>
        <svg viewBox="0 0 15 15" width="100%" height="30px" preserveAspectRatio="xMaxYMin meet">
         <g id="arrow_out" transform="scale(0.3 0.3)">
          <a xlink:href="fault__tree__analysis_8h__incl_org.svg" target="_base">
           <rect id="button" ry="5" rx="5" y="6" x="6" height="38" width="38"
                fill="#f2f5e9" fill-opacity="0.5" stroke="#606060" stroke-width="1.0"/>
           <path id="arrow"
             d="M 11.500037,31.436501 C 11.940474,20.09759 22.043105,11.32322 32.158766,21.979434 L 37.068811,17.246167 C 37.068811,17.246167 37.088388,32 37.088388,32 L 22.160133,31.978069 C 22.160133,31.978069 26.997745,27.140456 26.997745,27.140456 C 18.528582,18.264221 13.291696,25.230495 11.500037,31.436501 z"
             style="fill:#404040;"/>
          </a>
         </g>
        </svg>
</svg>
