<?xml version="1.0" encoding="UTF-8" standalone="no"?>
<!DOCTYPE svg PUBLIC "-//W3C//DTD SVG 1.1//EN"
 "http://www.w3.org/Graphics/SVG/1.1/DTD/svg11.dtd">
<!-- Generated by graphviz version 2.38.0 (20140413.2041)
 -->
<!-- Title: fault_tree.h Pages: 1 -->
<!--zoomable 263 -->
<svg id="main" version="1.1" xmlns="http://www.w3.org/2000/svg" xmlns:xlink="http://www.w3.org/1999/xlink" xml:space="preserve" onload="init(evt)">
<style type="text/css"><![CDATA[
.edge:hover path { stroke: red; }
.edge:hover polygon { stroke: red; fill: red; }
]]></style>
<script type="text/javascript"><![CDATA[
var edges = document.getElementsByTagName('g');
if (edges && edges.length) {
  for (var i=0;i<edges.length;i++) {
    if (edges[i].id.substr(0,4)=='edge') {
      edges[i].setAttribute('class','edge');
    }
  }
}
]]></script>
        <defs>
                <circle id="rim" cx="0" cy="0" r="7"/>
                <circle id="rim2" cx="0" cy="0" r="3.5"/>
                <g id="zoomPlus">
                        <use xlink:href="#rim" fill="#404040">
                                <set attributeName="fill" to="#808080" begin="zoomplus.mouseover" end="zoomplus.mouseout"/>
                        </use>
                        <path d="M-4,0h8M0,-4v8" fill="none" stroke="white" stroke-width="1.5" pointer-events="none"/>
                </g>
                <g id="zoomMin">
                        <use xlink:href="#rim" fill="#404040">
                                <set attributeName="fill" to="#808080" begin="zoomminus.mouseover" end="zoomminus.mouseout"/>
                        </use>
                        <path d="M-4,0h8" fill="none" stroke="white" stroke-width="1.5" pointer-events="none"/>
                </g>
                <g id="dirArrow">
                        <path fill="none" stroke="white" stroke-width="1.5" d="M0,-3.0v7 M-2.5,-0.5L0,-3.0L2.5,-0.5"/>
                </g>
               <g id="resetDef">
                       <use xlink:href="#rim2" fill="#404040">
                               <set attributeName="fill" to="#808080" begin="reset.mouseover" end="reset.mouseout"/>
                       </use>
               </g>
        </defs>

<script type="text/javascript">
var viewWidth = 1243;
var viewHeight = 263;
var sectionId = 'dynsection-0';
</script>
<script xlink:href="svgpan.js"/>
<svg id="graph" class="graph">
<g id="viewport">
<title>fault_tree.h</title>
<polygon fill="white" stroke="none" points="-4,4 -4,-259 1239,-259 1239,4 -4,4"/>
<!-- Node1 -->
<g id="node1" class="node"><title>Node1</title>
<polygon fill="#bfbfbf" stroke="black" points="711.5,-235.5 711.5,-254.5 782.5,-254.5 782.5,-235.5 711.5,-235.5"/>
<text text-anchor="middle" x="747" y="-242.5" font-family="Helvetica,sans-Serif" font-size="10.00">fault_tree.h</text>
</g>
<!-- Node2 -->
<g id="node2" class="node"><title>Node2</title>
<polygon fill="white" stroke="#bfbfbf" points="503.5,-67.5 503.5,-86.5 560.5,-86.5 560.5,-67.5 503.5,-67.5"/>
<text text-anchor="middle" x="532" y="-74.5" font-family="Helvetica,sans-Serif" font-size="10.00">memory</text>
</g>
<!-- Node1&#45;&gt;Node2 -->
<g id="edge1" class="edge"><title>Node1&#45;&gt;Node2</title>
<path fill="none" stroke="midnightblue" d="M735.743,-235.309C700.985,-208.472 595.067,-126.694 551.269,-92.8776"/>
<polygon fill="midnightblue" stroke="midnightblue" points="553.199,-89.9461 543.145,-86.6051 548.922,-95.4868 553.199,-89.9461"/>
</g>
<!-- Node3 -->
<g id="node3" class="node"><title>Node3</title>
<polygon fill="white" stroke="#bfbfbf" points="580,-6 580,-25 624,-25 624,-6 580,-6"/>
<text text-anchor="middle" x="602" y="-13" font-family="Helvetica,sans-Serif" font-size="10.00">string</text>
</g>
<!-- Node1&#45;&gt;Node3 -->
<g id="edge2" class="edge"><title>Node1&#45;&gt;Node3</title>
<path fill="none" stroke="midnightblue" d="M749.158,-235.247C753.759,-214.978 763.159,-163.459 751,-123 742.415,-94.4314 736.766,-86.2762 714,-67 683.934,-41.5433 668.844,-47.3464 633,-31 631.844,-30.473 630.666,-29.933 629.476,-29.3857"/>
<polygon fill="midnightblue" stroke="midnightblue" points="630.877,-26.1773 620.332,-25.146 627.932,-32.5278 630.877,-26.1773"/>
</g>
<!-- Node4 -->
<g id="node4" class="node"><title>Node4</title>
<polygon fill="white" stroke="#bfbfbf" points="1149,-179.5 1149,-198.5 1235,-198.5 1235,-179.5 1149,-179.5"/>
<text text-anchor="middle" x="1192" y="-186.5" font-family="Helvetica,sans-Serif" font-size="10.00">unordered_set</text>
</g>
<!-- Node1&#45;&gt;Node4 -->
<g id="edge3" class="edge"><title>Node1&#45;&gt;Node4</title>
<path fill="none" stroke="midnightblue" d="M782.635,-240.363C851.05,-233.27 1005.5,-216.726 1135,-199 1136.26,-198.828 1137.53,-198.651 1138.81,-198.47"/>
<polygon fill="midnightblue" stroke="midnightblue" points="1139.38,-201.924 1148.77,-197.017 1138.37,-194.998 1139.38,-201.924"/>
</g>
<!-- Node5 -->
<g id="node5" class="node"><title>Node5</title>
<polygon fill="white" stroke="#bfbfbf" points="1058.5,-6 1058.5,-25 1105.5,-25 1105.5,-6 1058.5,-6"/>
<text text-anchor="middle" x="1082" y="-13" font-family="Helvetica,sans-Serif" font-size="10.00">vector</text>
</g>
<!-- Node1&#45;&gt;Node5 -->
<g id="edge4" class="edge"><title>Node1&#45;&gt;Node5</title>
<path fill="none" stroke="midnightblue" d="M782.585,-243.831C850.887,-241.531 1001.02,-226.615 1085,-143 1109.53,-118.579 1108.49,-100.999 1102,-67 1099.85,-55.7081 1095.21,-43.719 1090.94,-34.2573"/>
<polygon fill="midnightblue" stroke="midnightblue" points="1094.05,-32.6545 1086.59,-25.1349 1087.74,-35.6676 1094.05,-32.6545"/>
</g>
<!-- Node6 -->
<g id="node6" class="node"><title>Node6</title>
<g id="a_node6"><a xlink:href="ccf__group_8h.xhtml" target="_top" xlink:title="Functional containers for basic events grouped by common cause failure. ">
<polygon fill="white" stroke="black" points="805,-179.5 805,-198.5 877,-198.5 877,-179.5 805,-179.5"/>
<text text-anchor="middle" x="841" y="-186.5" font-family="Helvetica,sans-Serif" font-size="10.00">ccf_group.h</text>
</a>
</g>
</g>
<!-- Node1&#45;&gt;Node6 -->
<g id="edge5" class="edge"><title>Node1&#45;&gt;Node6</title>
<path fill="none" stroke="midnightblue" d="M762.103,-235.324C776.903,-226.822 799.694,-213.729 816.982,-203.797"/>
<polygon fill="midnightblue" stroke="midnightblue" points="819.007,-206.671 825.935,-198.655 815.52,-200.601 819.007,-206.671"/>
</g>
<!-- Node10 -->
<g id="node10" class="node"><title>Node10</title>
<g id="a_node10"><a xlink:href="element_8h.xhtml" target="_top" xlink:title="Helper classes, structs, and properties common to all other classes. ">
<polygon fill="white" stroke="black" points="343.5,-67.5 343.5,-86.5 408.5,-86.5 408.5,-67.5 343.5,-67.5"/>
<text text-anchor="middle" x="376" y="-74.5" font-family="Helvetica,sans-Serif" font-size="10.00">element.h</text>
</a>
</g>
</g>
<!-- Node1&#45;&gt;Node10 -->
<g id="edge37" class="edge"><title>Node1&#45;&gt;Node10</title>
<path fill="none" stroke="midnightblue" d="M711.422,-241.669C646.928,-235.717 509.398,-214.88 423,-143 406.996,-129.685 393.655,-109.754 385.325,-95.4753"/>
<polygon fill="midnightblue" stroke="midnightblue" points="388.323,-93.6643 380.388,-86.6438 382.213,-97.0803 388.323,-93.6643"/>
</g>
<!-- Node16 -->
<g id="node16" class="node"><title>Node16</title>
<g id="a_node16"><a xlink:href="event_8h.xhtml" target="_top" xlink:title="Contains event classes for fault trees. ">
<polygon fill="white" stroke="black" points="689.5,-123.5 689.5,-142.5 742.5,-142.5 742.5,-123.5 689.5,-123.5"/>
<text text-anchor="middle" x="716" y="-130.5" font-family="Helvetica,sans-Serif" font-size="10.00">event.h</text>
</a>
</g>
</g>
<!-- Node1&#45;&gt;Node16 -->
<g id="edge38" class="edge"><title>Node1&#45;&gt;Node16</title>
<path fill="none" stroke="midnightblue" d="M744.567,-235.368C739.542,-217.537 727.92,-176.295 721.149,-152.272"/>
<polygon fill="midnightblue" stroke="midnightblue" points="724.503,-151.267 718.421,-142.591 717.765,-153.166 724.503,-151.267"/>
</g>
<!-- Node21 -->
<g id="node21" class="node"><title>Node21</title>
<g id="a_node21"><a xlink:href="parameter_8h.xhtml" target="_top" xlink:title="Parameter expressions that act like a shareable variable. ">
<polygon fill="white" stroke="black" points="468,-123.5 468,-142.5 544,-142.5 544,-123.5 468,-123.5"/>
<text text-anchor="middle" x="506" y="-130.5" font-family="Helvetica,sans-Serif" font-size="10.00">parameter.h</text>
</a>
</g>
</g>
<!-- Node1&#45;&gt;Node21 -->
<g id="edge39" class="edge"><title>Node1&#45;&gt;Node21</title>
<path fill="none" stroke="midnightblue" d="M711.194,-240.484C674.081,-235.594 615.393,-224.292 571,-199 549.641,-186.831 530.453,-165.775 518.556,-150.931"/>
<polygon fill="midnightblue" stroke="midnightblue" points="521.022,-148.397 512.137,-142.626 515.484,-152.678 521.022,-148.397"/>
</g>
<!-- Node6&#45;&gt;Node2 -->
<g id="edge6" class="edge"><title>Node6&#45;&gt;Node2</title>
<path fill="none" stroke="midnightblue" d="M804.735,-179.424C771.802,-171.269 722.089,-158.039 680,-143 636.551,-127.474 587.865,-105.08 558.591,-91.0441"/>
<polygon fill="midnightblue" stroke="midnightblue" points="559.97,-87.8233 549.443,-86.6264 556.926,-94.1268 559.97,-87.8233"/>
</g>
<!-- Node6&#45;&gt;Node3 -->
<g id="edge8" class="edge"><title>Node6&#45;&gt;Node3</title>
<path fill="none" stroke="midnightblue" d="M839.652,-179.408C835.687,-157.134 821.929,-97.1666 785,-67 731.234,-23.0798 698.564,-53.8268 633,-31 631.38,-30.4359 629.731,-29.8146 628.08,-29.1561"/>
<polygon fill="midnightblue" stroke="midnightblue" points="629.36,-25.8965 618.794,-25.1187 626.569,-32.3159 629.36,-25.8965"/>
</g>
<!-- Node6&#45;&gt;Node5 -->
<g id="edge11" class="edge"><title>Node6&#45;&gt;Node5</title>
<path fill="none" stroke="midnightblue" d="M877.158,-185.667C933.633,-181.238 1038.92,-169.568 1064,-143 1091.57,-113.792 1089.14,-62.6236 1085.36,-35.1674"/>
<polygon fill="midnightblue" stroke="midnightblue" points="1088.82,-34.6176 1083.8,-25.2886 1081.91,-35.7132 1088.82,-34.6176"/>
</g>
<!-- Node7 -->
<g id="node7" class="node"><title>Node7</title>
<polygon fill="white" stroke="#bfbfbf" points="913.5,-123.5 913.5,-142.5 968.5,-142.5 968.5,-123.5 913.5,-123.5"/>
<text text-anchor="middle" x="941" y="-130.5" font-family="Helvetica,sans-Serif" font-size="10.00">optional</text>
</g>
<!-- Node6&#45;&gt;Node7 -->
<g id="edge7" class="edge"><title>Node6&#45;&gt;Node7</title>
<path fill="none" stroke="midnightblue" d="M857.067,-179.324C872.958,-170.743 897.507,-157.486 915.958,-147.522"/>
<polygon fill="midnightblue" stroke="midnightblue" points="917.837,-150.486 924.973,-142.655 914.511,-144.326 917.837,-150.486"/>
</g>
<!-- Node8 -->
<g id="node8" class="node"><title>Node8</title>
<polygon fill="white" stroke="#bfbfbf" points="987,-123.5 987,-142.5 1055,-142.5 1055,-123.5 987,-123.5"/>
<text text-anchor="middle" x="1021" y="-130.5" font-family="Helvetica,sans-Serif" font-size="10.00">type_traits</text>
</g>
<!-- Node6&#45;&gt;Node8 -->
<g id="edge9" class="edge"><title>Node6&#45;&gt;Node8</title>
<path fill="none" stroke="midnightblue" d="M869.522,-179.444C900.066,-170.28 948.708,-155.688 982.603,-145.519"/>
<polygon fill="midnightblue" stroke="midnightblue" points="984.039,-148.742 992.612,-142.516 982.028,-142.038 984.039,-148.742"/>
</g>
<!-- Node9 -->
<g id="node9" class="node"><title>Node9</title>
<polygon fill="white" stroke="#bfbfbf" points="998,-6 998,-25 1040,-25 1040,-6 998,-6"/>
<text text-anchor="middle" x="1019" y="-13" font-family="Helvetica,sans-Serif" font-size="10.00">utility</text>
</g>
<!-- Node6&#45;&gt;Node9 -->
<g id="edge10" class="edge"><title>Node6&#45;&gt;Node9</title>
<path fill="none" stroke="midnightblue" d="M848.678,-179.078C860.093,-166.056 882.508,-141.393 904,-123 925.08,-104.96 934.218,-105.381 955,-87 974.045,-70.1546 993.309,-48.1014 1005.65,-33.1795"/>
<polygon fill="midnightblue" stroke="midnightblue" points="1008.46,-35.2735 1012.07,-25.3111 1003.04,-30.8505 1008.46,-35.2735"/>
</g>
<!-- Node6&#45;&gt;Node10 -->
<g id="edge12" class="edge"><title>Node6&#45;&gt;Node10</title>
<path fill="none" stroke="midnightblue" d="M804.89,-186.235C722.151,-181.792 521.206,-168.629 459,-143 431.908,-131.838 406.241,-109.216 390.812,-93.8331"/>
<polygon fill="midnightblue" stroke="midnightblue" points="393.205,-91.2742 383.723,-86.5476 388.188,-96.1557 393.205,-91.2742"/>
</g>
<!-- Node6&#45;&gt;Node16 -->
<g id="edge20" class="edge"><title>Node6&#45;&gt;Node16</title>
<path fill="none" stroke="midnightblue" d="M821.193,-179.444C800.713,-170.596 768.517,-156.687 745.135,-146.586"/>
<polygon fill="midnightblue" stroke="midnightblue" points="746.282,-143.269 735.714,-142.516 743.506,-149.695 746.282,-143.269"/>
</g>
<!-- Node18 -->
<g id="node18" class="node"><title>Node18</title>
<g id="a_node18"><a xlink:href="expression_8h.xhtml" target="_top" xlink:title="Provides the base class for all expressions and units for expression values. ">
<polygon fill="white" stroke="black" points="837.5,-67.5 837.5,-86.5 914.5,-86.5 914.5,-67.5 837.5,-67.5"/>
<text text-anchor="middle" x="876" y="-74.5" font-family="Helvetica,sans-Serif" font-size="10.00">expression.h</text>
</a>
</g>
</g>
<!-- Node6&#45;&gt;Node18 -->
<g id="edge36" class="edge"><title>Node6&#45;&gt;Node18</title>
<path fill="none" stroke="midnightblue" d="M843.746,-179.368C849.42,-161.537 862.542,-120.295 870.186,-96.2717"/>
<polygon fill="midnightblue" stroke="midnightblue" points="873.57,-97.1819 873.266,-86.5914 866.899,-95.0594 873.57,-97.1819"/>
</g>
<!-- Node10&#45;&gt;Node3 -->
<g id="edge14" class="edge"><title>Node10&#45;&gt;Node3</title>
<path fill="none" stroke="midnightblue" d="M408.599,-68.2328C444.383,-59.5964 503.472,-45.0109 554,-31 559.112,-29.5825 564.51,-28.0183 569.768,-26.4575"/>
<polygon fill="midnightblue" stroke="midnightblue" points="571.029,-29.7332 579.596,-23.4996 569.011,-23.0302 571.029,-29.7332"/>
</g>
<!-- Node10&#45;&gt;Node5 -->
<g id="edge15" class="edge"><title>Node10&#45;&gt;Node5</title>
<path fill="none" stroke="midnightblue" d="M408.548,-73.4177C432.241,-71.5623 465.103,-69.0392 494,-67 740.572,-49.6005 808.864,-89.6092 1049,-31 1051.36,-30.4241 1053.76,-29.6895 1056.14,-28.8577"/>
<polygon fill="midnightblue" stroke="midnightblue" points="1057.64,-32.0277 1065.61,-25.0473 1055.03,-25.5338 1057.64,-32.0277"/>
</g>
<!-- Node11 -->
<g id="node11" class="node"><title>Node11</title>
<polygon fill="white" stroke="#bfbfbf" points="496.5,-6 496.5,-25 545.5,-25 545.5,-6 496.5,-6"/>
<text text-anchor="middle" x="521" y="-13" font-family="Helvetica,sans-Serif" font-size="10.00">cstdint</text>
</g>
<!-- Node10&#45;&gt;Node11 -->
<g id="edge13" class="edge"><title>Node10&#45;&gt;Node11</title>
<path fill="none" stroke="midnightblue" d="M397.326,-67.4864C419.708,-58.5202 455.896,-43.9361 487,-31 488.407,-30.4147 489.846,-29.8133 491.298,-29.2036"/>
<polygon fill="midnightblue" stroke="midnightblue" points="493.043,-32.2661 500.889,-25.1472 490.316,-25.819 493.043,-32.2661"/>
</g>
<!-- Node12 -->
<g id="node12" class="node"><title>Node12</title>
<polygon fill="white" stroke="#bfbfbf" points="0,-0.5 0,-30.5 140,-30.5 140,-0.5 0,-0.5"/>
<text text-anchor="start" x="8" y="-18.5" font-family="Helvetica,sans-Serif" font-size="10.00">boost/multi_index/hashed</text>
<text text-anchor="middle" x="70" y="-7.5" font-family="Helvetica,sans-Serif" font-size="10.00">_index.hpp</text>
</g>
<!-- Node10&#45;&gt;Node12 -->
<g id="edge16" class="edge"><title>Node10&#45;&gt;Node12</title>
<path fill="none" stroke="midnightblue" d="M343.253,-69.6325C297.518,-60.7397 213.059,-44.3169 150.096,-32.0742"/>
<polygon fill="midnightblue" stroke="midnightblue" points="150.669,-28.6201 140.185,-30.147 149.333,-35.4914 150.669,-28.6201"/>
</g>
<!-- Node13 -->
<g id="node13" class="node"><title>Node13</title>
<polygon fill="white" stroke="#bfbfbf" points="158,-0.5 158,-30.5 288,-30.5 288,-0.5 158,-0.5"/>
<text text-anchor="start" x="166" y="-18.5" font-family="Helvetica,sans-Serif" font-size="10.00">boost/multi_index/mem</text>
<text text-anchor="middle" x="223" y="-7.5" font-family="Helvetica,sans-Serif" font-size="10.00">_fun.hpp</text>
</g>
<!-- Node10&#45;&gt;Node13 -->
<g id="edge17" class="edge"><title>Node10&#45;&gt;Node13</title>
<path fill="none" stroke="midnightblue" d="M354.079,-67.4751C331.905,-58.8518 296.965,-45.2641 268.733,-34.2852"/>
<polygon fill="midnightblue" stroke="midnightblue" points="269.648,-30.8855 259.059,-30.523 267.111,-37.4095 269.648,-30.8855"/>
</g>
<!-- Node14 -->
<g id="node14" class="node"><title>Node14</title>
<polygon fill="white" stroke="#bfbfbf" points="306,-6 306,-25 478,-25 478,-6 306,-6"/>
<text text-anchor="middle" x="392" y="-13" font-family="Helvetica,sans-Serif" font-size="10.00">boost/multi_index_container.hpp</text>
</g>
<!-- Node10&#45;&gt;Node14 -->
<g id="edge18" class="edge"><title>Node10&#45;&gt;Node14</title>
<path fill="none" stroke="midnightblue" d="M378.292,-67.4751C380.574,-58.9919 384.147,-45.7043 387.073,-34.8222"/>
<polygon fill="midnightblue" stroke="midnightblue" points="390.495,-35.5749 389.712,-25.0091 383.735,-33.7571 390.495,-35.5749"/>
</g>
<!-- Node15 -->
<g id="node15" class="node"><title>Node15</title>
<polygon fill="white" stroke="#bfbfbf" points="642,-6 642,-25 770,-25 770,-6 642,-6"/>
<text text-anchor="middle" x="706" y="-13" font-family="Helvetica,sans-Serif" font-size="10.00">boost/noncopyable.hpp</text>
</g>
<!-- Node10&#45;&gt;Node15 -->
<g id="edge19" class="edge"><title>Node10&#45;&gt;Node15</title>
<path fill="none" stroke="midnightblue" d="M408.904,-70.4848C457.83,-62.2283 552.63,-46.0162 633,-31 639.742,-29.7404 646.826,-28.3798 653.821,-27.0142"/>
<polygon fill="midnightblue" stroke="midnightblue" points="654.818,-30.3851 663.955,-25.0211 653.468,-23.5167 654.818,-30.3851"/>
</g>
<!-- Node16&#45;&gt;Node2 -->
<g id="edge22" class="edge"><title>Node16&#45;&gt;Node2</title>
<path fill="none" stroke="midnightblue" d="M689.245,-124.148C658.038,-114.989 606.197,-99.7752 570.627,-89.3362"/>
<polygon fill="midnightblue" stroke="midnightblue" points="571.186,-85.8526 560.605,-86.3949 569.215,-92.5693 571.186,-85.8526"/>
</g>
<!-- Node16&#45;&gt;Node3 -->
<g id="edge23" class="edge"><title>Node16&#45;&gt;Node3</title>
<path fill="none" stroke="midnightblue" d="M698.365,-123.493C683.21,-115.565 661.424,-102.632 646,-87 630.686,-71.4795 618.119,-49.7148 610.392,-34.487"/>
<polygon fill="midnightblue" stroke="midnightblue" points="613.368,-32.6036 605.843,-25.1461 607.075,-35.669 613.368,-32.6036"/>
</g>
<!-- Node16&#45;&gt;Node5 -->
<g id="edge26" class="edge"><title>Node16&#45;&gt;Node5</title>
<path fill="none" stroke="midnightblue" d="M742.543,-129.798C787.44,-125.463 880.735,-113.809 955,-87 994.752,-72.6498 1036.88,-46.8745 1061.24,-30.7829"/>
<polygon fill="midnightblue" stroke="midnightblue" points="1063.31,-33.6103 1069.67,-25.1338 1059.41,-27.7965 1063.31,-33.6103"/>
</g>
<!-- Node16&#45;&gt;Node9 -->
<g id="edge24" class="edge"><title>Node16&#45;&gt;Node9</title>
<path fill="none" stroke="midnightblue" d="M742.595,-129.792C783.102,-125.655 861.986,-114.522 923,-87 953.615,-73.1903 984.026,-48.525 1002.17,-32.3379"/>
<polygon fill="midnightblue" stroke="midnightblue" points="1005.01,-34.4837 1010.04,-25.1573 1000.29,-29.3134 1005.01,-34.4837"/>
</g>
<!-- Node16&#45;&gt;Node10 -->
<g id="edge28" class="edge"><title>Node16&#45;&gt;Node10</title>
<path fill="none" stroke="midnightblue" d="M689.321,-127.763C630.607,-118.438 489.785,-96.0717 418.654,-84.7744"/>
<polygon fill="midnightblue" stroke="midnightblue" points="419.108,-81.3027 408.683,-83.1908 418.01,-88.2161 419.108,-81.3027"/>
</g>
<!-- Node16&#45;&gt;Node11 -->
<g id="edge21" class="edge"><title>Node16&#45;&gt;Node11</title>
<path fill="none" stroke="midnightblue" d="M697.595,-123.483C679.359,-114.861 650.787,-100.858 627,-87 596.225,-69.0707 562.191,-45.7773 541.196,-30.978"/>
<polygon fill="midnightblue" stroke="midnightblue" points="542.966,-27.9425 532.785,-25.0109 538.916,-33.6517 542.966,-27.9425"/>
</g>
<!-- Node16&#45;&gt;Node15 -->
<g id="edge27" class="edge"><title>Node16&#45;&gt;Node15</title>
<path fill="none" stroke="midnightblue" d="M716.081,-123.147C716.116,-110.617 715.885,-87.0077 714,-67 712.995,-56.3287 711.158,-44.4889 709.498,-34.9571"/>
<polygon fill="midnightblue" stroke="midnightblue" points="712.926,-34.2469 707.69,-25.0362 706.039,-35.5016 712.926,-34.2469"/>
</g>
<!-- Node17 -->
<g id="node17" class="node"><title>Node17</title>
<polygon fill="white" stroke="#bfbfbf" points="655,-67.5 655,-86.5 705,-86.5 705,-67.5 655,-67.5"/>
<text text-anchor="middle" x="680" y="-74.5" font-family="Helvetica,sans-Serif" font-size="10.00">variant</text>
</g>
<!-- Node16&#45;&gt;Node17 -->
<g id="edge25" class="edge"><title>Node16&#45;&gt;Node17</title>
<path fill="none" stroke="midnightblue" d="M710.055,-123.083C705.023,-115.534 697.663,-104.495 691.487,-95.2298"/>
<polygon fill="midnightblue" stroke="midnightblue" points="694.293,-93.1301 685.834,-86.7511 688.469,-97.0131 694.293,-93.1301"/>
</g>
<!-- Node16&#45;&gt;Node18 -->
<g id="edge29" class="edge"><title>Node16&#45;&gt;Node18</title>
<path fill="none" stroke="midnightblue" d="M741.352,-123.444C768.269,-114.359 810.996,-99.9388 841.087,-89.7831"/>
<polygon fill="midnightblue" stroke="midnightblue" points="842.41,-93.0305 850.766,-86.5164 840.172,-86.3981 842.41,-93.0305"/>
</g>
<!-- Node18&#45;&gt;Node3 -->
<g id="edge31" class="edge"><title>Node18&#45;&gt;Node3</title>
<path fill="none" stroke="midnightblue" d="M837.484,-69.4213C773.928,-58.4832 652.177,-37.1494 633,-31 631.327,-30.4637 629.628,-29.8578 627.93,-29.2057"/>
<polygon fill="midnightblue" stroke="midnightblue" points="628.988,-25.8514 618.418,-25.1261 626.229,-32.2846 628.988,-25.8514"/>
</g>
<!-- Node18&#45;&gt;Node5 -->
<g id="edge33" class="edge"><title>Node18&#45;&gt;Node5</title>
<path fill="none" stroke="midnightblue" d="M914.661,-67.8054C950.071,-59.8632 1003.71,-46.7292 1049,-31 1050.86,-30.3533 1052.77,-29.6463 1054.67,-28.9035"/>
<polygon fill="midnightblue" stroke="midnightblue" points="1056.16,-32.0752 1064.05,-25.0058 1053.47,-25.611 1056.16,-32.0752"/>
</g>
<!-- Node18&#45;&gt;Node9 -->
<g id="edge32" class="edge"><title>Node18&#45;&gt;Node9</title>
<path fill="none" stroke="midnightblue" d="M899.14,-67.3393C922.121,-58.6085 958.269,-44.5249 989,-31 990.162,-30.4888 991.344,-29.9587 992.536,-29.4168"/>
<polygon fill="midnightblue" stroke="midnightblue" points="994.079,-32.5592 1001.65,-25.1458 991.108,-26.221 994.079,-32.5592"/>
</g>
<!-- Node18&#45;&gt;Node15 -->
<g id="edge35" class="edge"><title>Node18&#45;&gt;Node15</title>
<path fill="none" stroke="midnightblue" d="M851.643,-67.4751C822.356,-57.2246 773.026,-39.9593 739.998,-28.3994"/>
<polygon fill="midnightblue" stroke="midnightblue" points="740.907,-25.0091 730.312,-25.0091 738.594,-31.6162 740.907,-25.0091"/>
</g>
<!-- Node19 -->
<g id="node19" class="node"><title>Node19</title>
<polygon fill="white" stroke="#bfbfbf" points="788,-6 788,-25 850,-25 850,-6 788,-6"/>
<text text-anchor="middle" x="819" y="-13" font-family="Helvetica,sans-Serif" font-size="10.00">algorithm</text>
</g>
<!-- Node18&#45;&gt;Node19 -->
<g id="edge30" class="edge"><title>Node18&#45;&gt;Node19</title>
<path fill="none" stroke="midnightblue" d="M867.833,-67.4751C859.114,-58.3733 845.096,-43.741 834.311,-32.483"/>
<polygon fill="midnightblue" stroke="midnightblue" points="836.597,-29.809 827.152,-25.0091 831.542,-34.6515 836.597,-29.809"/>
</g>
<!-- Node20 -->
<g id="node20" class="node"><title>Node20</title>
<polygon fill="white" stroke="#bfbfbf" points="868,-0.5 868,-30.5 980,-30.5 980,-0.5 868,-0.5"/>
<text text-anchor="start" x="876" y="-18.5" font-family="Helvetica,sans-Serif" font-size="10.00">boost/icl/continuous</text>
<text text-anchor="middle" x="924" y="-7.5" font-family="Helvetica,sans-Serif" font-size="10.00">_interval.hpp</text>
</g>
<!-- Node18&#45;&gt;Node20 -->
<g id="edge34" class="edge"><title>Node18&#45;&gt;Node20</title>
<path fill="none" stroke="midnightblue" d="M882.877,-67.4751C888.953,-59.9438 898.083,-48.6259 906.199,-38.5663"/>
<polygon fill="midnightblue" stroke="midnightblue" points="909.133,-40.5037 912.687,-30.523 903.684,-36.1085 909.133,-40.5037"/>
</g>
<!-- Node21&#45;&gt;Node2 -->
<g id="edge41" class="edge"><title>Node21&#45;&gt;Node2</title>
<path fill="none" stroke="midnightblue" d="M510.293,-123.083C513.852,-115.691 519.022,-104.953 523.424,-95.8111"/>
<polygon fill="midnightblue" stroke="midnightblue" points="526.602,-97.2795 527.787,-86.7511 520.295,-94.2427 526.602,-97.2795"/>
</g>
<!-- Node21&#45;&gt;Node3 -->
<g id="edge42" class="edge"><title>Node21&#45;&gt;Node3</title>
<path fill="none" stroke="midnightblue" d="M500.761,-123.263C493.583,-110.04 482.788,-84.6204 494,-67 502.747,-53.2535 541.583,-37.3152 570.19,-27.08"/>
<polygon fill="midnightblue" stroke="midnightblue" points="571.534,-30.3179 579.816,-23.7105 569.221,-23.7109 571.534,-30.3179"/>
</g>
<!-- Node21&#45;&gt;Node10 -->
<g id="edge43" class="edge"><title>Node21&#45;&gt;Node10</title>
<path fill="none" stroke="midnightblue" d="M485.401,-123.444C464.007,-114.557 430.319,-100.563 405.976,-90.4514"/>
<polygon fill="midnightblue" stroke="midnightblue" points="407.08,-87.1203 396.503,-86.5164 404.395,-93.5848 407.08,-87.1203"/>
</g>
<!-- Node21&#45;&gt;Node11 -->
<g id="edge40" class="edge"><title>Node21&#45;&gt;Node11</title>
<path fill="none" stroke="midnightblue" d="M492.577,-123.341C475.899,-111.411 450.808,-88.9007 461,-67 468.188,-51.5547 482.683,-39.1436 495.625,-30.4904"/>
<polygon fill="midnightblue" stroke="midnightblue" points="497.606,-33.3796 504.228,-25.109 493.894,-27.445 497.606,-33.3796"/>
</g>
<!-- Node21&#45;&gt;Node18 -->
<g id="edge44" class="edge"><title>Node21&#45;&gt;Node18</title>
<path fill="none" stroke="midnightblue" d="M544.203,-126.424C611.919,-116.542 752.868,-95.9706 827.391,-85.0944"/>
<polygon fill="midnightblue" stroke="midnightblue" points="828.061,-88.5337 837.451,-83.6261 827.05,-81.6071 828.061,-88.5337"/>
</g>
</g>
</svg>
        <g id="navigator" transform="translate(0 0)" fill="#404254">
                <rect fill="#f2f5e9" fill-opacity="0.5" stroke="#606060" stroke-width=".5" x="0" y="0" width="60" height="60"/>
                <use id="zoomplus" xlink:href="#zoomPlus" x="17" y="9" onmousedown="handleZoom(evt,'in')"/>
                <use id="zoomminus" xlink:href="#zoomMin" x="42" y="9" onmousedown="handleZoom(evt,'out')"/>
                <use id="reset" xlink:href="#resetDef" x="30" y="36" onmousedown="handleReset()"/>
                <g id="arrowUp" xlink:href="#dirArrow" transform="translate(30 24)" onmousedown="handlePan(0,-1)">
                  <use xlink:href="#rim" fill="#404040">
                        <set attributeName="fill" to="#808080" begin="arrowUp.mouseover" end="arrowUp.mouseout"/>
                  </use>
                  <path fill="none" stroke="white" stroke-width="1.5" d="M0,-3.0v7 M-2.5,-0.5L0,-3.0L2.5,-0.5"/>
                </g>
                <g id="arrowRight" xlink:href="#dirArrow" transform="rotate(90) translate(36 -43)" onmousedown="handlePan(1,0)">
                  <use xlink:href="#rim" fill="#404040">
                        <set attributeName="fill" to="#808080" begin="arrowRight.mouseover" end="arrowRight.mouseout"/>
                  </use>
                  <path fill="none" stroke="white" stroke-width="1.5" d="M0,-3.0v7 M-2.5,-0.5L0,-3.0L2.5,-0.5"/>
                </g>
                <g id="arrowDown" xlink:href="#dirArrow" transform="rotate(180) translate(-30 -48)" onmousedown="handlePan(0,1)">
                  <use xlink:href="#rim" fill="#404040">
                        <set attributeName="fill" to="#808080" begin="arrowDown.mouseover" end="arrowDown.mouseout"/>
                  </use>
                  <path fill="none" stroke="white" stroke-width="1.5" d="M0,-3.0v7 M-2.5,-0.5L0,-3.0L2.5,-0.5"/>
                </g>
                <g id="arrowLeft" xlink:href="#dirArrow" transform="rotate(270) translate(-36 17)" onmousedown="handlePan(-1,0)">
                  <use xlink:href="#rim" fill="#404040">
                        <set attributeName="fill" to="#808080" begin="arrowLeft.mouseover" end="arrowLeft.mouseout"/>
                  </use>
                  <path fill="none" stroke="white" stroke-width="1.5" d="M0,-3.0v7 M-2.5,-0.5L0,-3.0L2.5,-0.5"/>
                </g>
        </g>
        <svg viewBox="0 0 15 15" width="100%" height="30px" preserveAspectRatio="xMaxYMin meet">
         <g id="arrow_out" transform="scale(0.3 0.3)">
          <a xlink:href="fault__tree_8h__incl_org.svg" target="_base">
           <rect id="button" ry="5" rx="5" y="6" x="6" height="38" width="38"
                fill="#f2f5e9" fill-opacity="0.5" stroke="#606060" stroke-width="1.0"/>
           <path id="arrow"
             d="M 11.500037,31.436501 C 11.940474,20.09759 22.043105,11.32322 32.158766,21.979434 L 37.068811,17.246167 C 37.068811,17.246167 37.088388,32 37.088388,32 L 22.160133,31.978069 C 22.160133,31.978069 26.997745,27.140456 26.997745,27.140456 C 18.528582,18.264221 13.291696,25.230495 11.500037,31.436501 z"
             style="fill:#404040;"/>
          </a>
         </g>
        </svg>
</svg>
