<?xml version="1.0" encoding="UTF-8" standalone="no"?>
<!DOCTYPE svg PUBLIC "-//W3C//DTD SVG 1.1//EN"
 "http://www.w3.org/Graphics/SVG/1.1/DTD/svg11.dtd">
<!-- Generated by graphviz version 2.38.0 (20140413.2041)
 -->
<!-- Title: scram::core::Print Pages: 1 -->
<svg width="308pt" height="186pt"
 viewBox="0.00 0.00 308.00 186.00" xmlns="http://www.w3.org/2000/svg" xmlns:xlink="http://www.w3.org/1999/xlink">
<g id="graph0" class="graph" transform="scale(1 1) rotate(0) translate(4 182)">
<title>scram::core::Print</title>
<polygon fill="white" stroke="none" points="-4,4 -4,-182 304,-182 304,4 -4,4"/>
<!-- Node1 -->
<g id="node1" class="node"><title>Node1</title>
<polygon fill="#bfbfbf" stroke="black" points="0,-55 0,-74 101,-74 101,-55 0,-55"/>
<text text-anchor="middle" x="50.5" y="-62" font-family="Helvetica,sans-Serif" font-size="10.00">scram::core::Print</text>
</g>
<!-- Node1&#45;&gt;Node1 -->
<g id="edge4" class="edge"><title>Node1&#45;&gt;Node1</title>
<path fill="none" stroke="midnightblue" d="M24.6063,-74.2571C12.0094,-83.0653 20.6406,-92.5 50.5,-92.5 70.5618,-92.5 81.0408,-88.241 81.9371,-82.7746"/>
<polygon fill="midnightblue" stroke="midnightblue" points="84.7819,-80.7291 76.3937,-74.2571 78.915,-84.5475 84.7819,-80.7291"/>
</g>
<!-- Node2 -->
<g id="node2" class="node"><title>Node2</title>
<g id="a_node2"><a xlink:href="classscram_1_1core_1_1ProductContainer.xhtml#ae3c4f3a13d162014a7e7bd35c12f4bcf" target="_top" xlink:title="Begin and end iterators over products in the container. ">
<polygon fill="white" stroke="black" points="137,-147.5 137,-177.5 300,-177.5 300,-147.5 137,-147.5"/>
<text text-anchor="start" x="145" y="-165.5" font-family="Helvetica,sans-Serif" font-size="10.00">scram::core::ProductContainer</text>
<text text-anchor="middle" x="218.5" y="-154.5" font-family="Helvetica,sans-Serif" font-size="10.00">::begin</text>
</a>
</g>
</g>
<!-- Node1&#45;&gt;Node2 -->
<g id="edge1" class="edge"><title>Node1&#45;&gt;Node2</title>
<path fill="none" stroke="midnightblue" d="M60.0006,-74.1347C74.3561,-89.8346 104.984,-120.943 137,-138.5 140.261,-140.288 143.671,-141.958 147.168,-143.516"/>
<polygon fill="midnightblue" stroke="midnightblue" points="146.005,-146.822 156.585,-147.381 148.662,-140.346 146.005,-146.822"/>
</g>
<!-- Node3 -->
<g id="node3" class="node"><title>Node3</title>
<g id="a_node3"><a xlink:href="classscram_1_1core_1_1ProductContainer.xhtml#a13aef26de832f9f965a5b59eda14847b" target="_top" xlink:title="scram::core::ProductContainer\l::Distribution">
<polygon fill="white" stroke="black" points="137,-98.5 137,-128.5 300,-128.5 300,-98.5 137,-98.5"/>
<text text-anchor="start" x="145" y="-116.5" font-family="Helvetica,sans-Serif" font-size="10.00">scram::core::ProductContainer</text>
<text text-anchor="middle" x="218.5" y="-105.5" font-family="Helvetica,sans-Serif" font-size="10.00">::Distribution</text>
</a>
</g>
</g>
<!-- Node1&#45;&gt;Node3 -->
<g id="edge2" class="edge"><title>Node1&#45;&gt;Node3</title>
<path fill="none" stroke="midnightblue" d="M83.9005,-74.064C104.641,-80.1863 132.199,-88.3208 156.897,-95.6111"/>
<polygon fill="midnightblue" stroke="midnightblue" points="155.977,-98.9887 166.558,-98.463 157.958,-92.2751 155.977,-98.9887"/>
</g>
<!-- Node4 -->
<g id="node4" class="node"><title>Node4</title>
<g id="a_node4"><a xlink:href="classscram_1_1core_1_1ProductContainer.xhtml#ac48d179d37d1109d36bf2d36e02aebe7" target="_top" xlink:title="scram::core::ProductContainer\l::empty">
<polygon fill="white" stroke="black" points="137,-49.5 137,-79.5 300,-79.5 300,-49.5 137,-49.5"/>
<text text-anchor="start" x="145" y="-67.5" font-family="Helvetica,sans-Serif" font-size="10.00">scram::core::ProductContainer</text>
<text text-anchor="middle" x="218.5" y="-56.5" font-family="Helvetica,sans-Serif" font-size="10.00">::empty</text>
</a>
</g>
</g>
<!-- Node1&#45;&gt;Node4 -->
<g id="edge3" class="edge"><title>Node1&#45;&gt;Node4</title>
<path fill="none" stroke="midnightblue" d="M101.305,-64.5C109.405,-64.5 118.01,-64.5 126.73,-64.5"/>
<polygon fill="midnightblue" stroke="midnightblue" points="126.996,-68.0001 136.996,-64.5 126.996,-61.0001 126.996,-68.0001"/>
</g>
<!-- Node5 -->
<g id="node5" class="node"><title>Node5</title>
<g id="a_node5"><a xlink:href="classscram_1_1core_1_1ProductContainer.xhtml#ac02fbe13144218abf07fdd6ba9c8b532" target="_top" xlink:title="scram::core::ProductContainer\l::size">
<polygon fill="white" stroke="black" points="137,-0.5 137,-30.5 300,-30.5 300,-0.5 137,-0.5"/>
<text text-anchor="start" x="145" y="-18.5" font-family="Helvetica,sans-Serif" font-size="10.00">scram::core::ProductContainer</text>
<text text-anchor="middle" x="218.5" y="-7.5" font-family="Helvetica,sans-Serif" font-size="10.00">::size</text>
</a>
</g>
</g>
<!-- Node1&#45;&gt;Node5 -->
<g id="edge5" class="edge"><title>Node1&#45;&gt;Node5</title>
<path fill="none" stroke="midnightblue" d="M69.2649,-54.8858C85.1401,-48.6211 109.617,-40.6029 134.136,-33.3576"/>
<polygon fill="midnightblue" stroke="midnightblue" points="135.26,-36.6758 143.882,-30.5191 133.302,-29.955 135.26,-36.6758"/>
</g>
<!-- Node5&#45;&gt;Node1 -->
<g id="edge6" class="edge"><title>Node5&#45;&gt;Node1</title>
<path fill="none" stroke="midnightblue" d="M185.032,-30.569C164.003,-37.991 135.988,-46.6003 111.05,-53.4265"/>
<polygon fill="midnightblue" stroke="midnightblue" points="110.055,-50.0696 101.305,-56.0437 111.871,-56.8301 110.055,-50.0696"/>
</g>
</g>
</svg>
