<?xml version="1.0" encoding="UTF-8" standalone="no"?>
<!DOCTYPE svg PUBLIC "-//W3C//DTD SVG 1.1//EN"
 "http://www.w3.org/Graphics/SVG/1.1/DTD/svg11.dtd">
<!-- Generated by graphviz version 2.38.0 (20140413.2041)
 -->
<!-- Title: fault_tree.cc Pages: 1 -->
<svg width="1610pt" height="319pt"
 viewBox="0.00 0.00 1610.00 319.00" xmlns="http://www.w3.org/2000/svg" xmlns:xlink="http://www.w3.org/1999/xlink">
<g id="graph0" class="graph" transform="scale(1 1) rotate(0) translate(4 315)">
<title>fault_tree.cc</title>
<polygon fill="white" stroke="none" points="-4,4 -4,-315 1606,-315 1606,4 -4,4"/>
<!-- Node1 -->
<g id="node1" class="node"><title>Node1</title>
<polygon fill="#bfbfbf" stroke="black" points="902,-291.5 902,-310.5 978,-310.5 978,-291.5 902,-291.5"/>
<text text-anchor="middle" x="940" y="-298.5" font-family="Helvetica,sans-Serif" font-size="10.00">fault_tree.cc</text>
</g>
<!-- Node2 -->
<g id="node2" class="node"><title>Node2</title>
<g id="a_node2"><a xlink:href="fault__tree_8h.xhtml" target="_top" xlink:title="Fault Tree and Component containers. ">
<polygon fill="white" stroke="black" points="578.5,-235.5 578.5,-254.5 649.5,-254.5 649.5,-235.5 578.5,-235.5"/>
<text text-anchor="middle" x="614" y="-242.5" font-family="Helvetica,sans-Serif" font-size="10.00">fault_tree.h</text>
</a>
</g>
</g>
<!-- Node1&#45;&gt;Node2 -->
<g id="edge1" class="edge"><title>Node1&#45;&gt;Node2</title>
<path fill="none" stroke="midnightblue" d="M901.966,-293.7C841.701,-283.717 724.48,-264.3 659.728,-253.575"/>
<polygon fill="midnightblue" stroke="midnightblue" points="660.241,-250.112 649.803,-251.931 659.097,-257.018 660.241,-250.112"/>
</g>
<!-- Node23 -->
<g id="node23" class="node"><title>Node23</title>
<g id="a_node23"><a xlink:href="error_8h.xhtml" target="_top" xlink:title="Exceptions for SCRAM. ">
<polygon fill="white" stroke="black" points="1245,-235.5 1245,-254.5 1293,-254.5 1293,-235.5 1245,-235.5"/>
<text text-anchor="middle" x="1269" y="-242.5" font-family="Helvetica,sans-Serif" font-size="10.00">error.h</text>
</a>
</g>
</g>
<!-- Node1&#45;&gt;Node23 -->
<g id="edge46" class="edge"><title>Node1&#45;&gt;Node23</title>
<path fill="none" stroke="midnightblue" d="M978.062,-293.753C1042.66,-283.15 1172.76,-261.796 1234.71,-251.629"/>
<polygon fill="midnightblue" stroke="midnightblue" points="1235.45,-255.054 1244.75,-249.981 1234.31,-248.147 1235.45,-255.054"/>
</g>
<!-- Node3 -->
<g id="node3" class="node"><title>Node3</title>
<polygon fill="white" stroke="#bfbfbf" points="731.5,-67.5 731.5,-86.5 788.5,-86.5 788.5,-67.5 731.5,-67.5"/>
<text text-anchor="middle" x="760" y="-74.5" font-family="Helvetica,sans-Serif" font-size="10.00">memory</text>
</g>
<!-- Node2&#45;&gt;Node3 -->
<g id="edge2" class="edge"><title>Node2&#45;&gt;Node3</title>
<path fill="none" stroke="midnightblue" d="M621.85,-235.075C645.329,-208.38 715.263,-128.865 745.645,-94.3218"/>
<polygon fill="midnightblue" stroke="midnightblue" points="748.488,-96.3886 752.464,-86.5681 743.232,-91.7656 748.488,-96.3886"/>
</g>
<!-- Node4 -->
<g id="node4" class="node"><title>Node4</title>
<polygon fill="white" stroke="#bfbfbf" points="1046,-6 1046,-25 1090,-25 1090,-6 1046,-6"/>
<text text-anchor="middle" x="1068" y="-13" font-family="Helvetica,sans-Serif" font-size="10.00">string</text>
</g>
<!-- Node2&#45;&gt;Node4 -->
<g id="edge3" class="edge"><title>Node2&#45;&gt;Node4</title>
<path fill="none" stroke="midnightblue" d="M649.514,-242.069C695.256,-238.448 776.325,-228.134 839,-199 931.187,-156.147 1019.08,-68.887 1053.14,-32.7423"/>
<polygon fill="midnightblue" stroke="midnightblue" points="1056.02,-34.7887 1060.27,-25.0841 1050.89,-30.0195 1056.02,-34.7887"/>
</g>
<!-- Node5 -->
<g id="node5" class="node"><title>Node5</title>
<polygon fill="white" stroke="#bfbfbf" points="744,-179.5 744,-198.5 830,-198.5 830,-179.5 744,-179.5"/>
<text text-anchor="middle" x="787" y="-186.5" font-family="Helvetica,sans-Serif" font-size="10.00">unordered_set</text>
</g>
<!-- Node2&#45;&gt;Node5 -->
<g id="edge4" class="edge"><title>Node2&#45;&gt;Node5</title>
<path fill="none" stroke="midnightblue" d="M641.412,-235.444C670.769,-226.28 717.519,-211.688 750.096,-201.519"/>
<polygon fill="midnightblue" stroke="midnightblue" points="751.213,-204.837 759.716,-198.516 749.127,-198.155 751.213,-204.837"/>
</g>
<!-- Node6 -->
<g id="node6" class="node"><title>Node6</title>
<polygon fill="white" stroke="#bfbfbf" points="60.5,-6 60.5,-25 107.5,-25 107.5,-6 60.5,-6"/>
<text text-anchor="middle" x="84" y="-13" font-family="Helvetica,sans-Serif" font-size="10.00">vector</text>
</g>
<!-- Node2&#45;&gt;Node6 -->
<g id="edge5" class="edge"><title>Node2&#45;&gt;Node6</title>
<path fill="none" stroke="midnightblue" d="M578.484,-240.689C480.344,-230.893 208.276,-199.172 141,-143 107.36,-114.912 92.7456,-62.8565 87.1052,-35.0861"/>
<polygon fill="midnightblue" stroke="midnightblue" points="90.5215,-34.3121 85.2586,-25.1169 83.6385,-35.5871 90.5215,-34.3121"/>
</g>
<!-- Node7 -->
<g id="node7" class="node"><title>Node7</title>
<g id="a_node7"><a xlink:href="ccf__group_8h.xhtml" target="_top" xlink:title="Functional containers for basic events grouped by common cause failure. ">
<polygon fill="white" stroke="black" points="375,-179.5 375,-198.5 447,-198.5 447,-179.5 375,-179.5"/>
<text text-anchor="middle" x="411" y="-186.5" font-family="Helvetica,sans-Serif" font-size="10.00">ccf_group.h</text>
</a>
</g>
</g>
<!-- Node2&#45;&gt;Node7 -->
<g id="edge6" class="edge"><title>Node2&#45;&gt;Node7</title>
<path fill="none" stroke="midnightblue" d="M581.834,-235.444C546.941,-226.162 491.107,-211.309 452.829,-201.127"/>
<polygon fill="midnightblue" stroke="midnightblue" points="453.579,-197.705 443.015,-198.516 451.78,-204.47 453.579,-197.705"/>
</g>
<!-- Node11 -->
<g id="node11" class="node"><title>Node11</title>
<g id="a_node11"><a xlink:href="element_8h.xhtml" target="_top" xlink:title="Helper classes, structs, and properties common to all other classes. ">
<polygon fill="white" stroke="black" points="495.5,-67.5 495.5,-86.5 560.5,-86.5 560.5,-67.5 495.5,-67.5"/>
<text text-anchor="middle" x="528" y="-74.5" font-family="Helvetica,sans-Serif" font-size="10.00">element.h</text>
</a>
</g>
</g>
<!-- Node2&#45;&gt;Node11 -->
<g id="edge38" class="edge"><title>Node2&#45;&gt;Node11</title>
<path fill="none" stroke="midnightblue" d="M609.376,-235.075C595.722,-208.719 555.395,-130.878 537.15,-95.6608"/>
<polygon fill="midnightblue" stroke="midnightblue" points="540.147,-93.8372 532.439,-86.5681 533.931,-97.0573 540.147,-93.8372"/>
</g>
<!-- Node17 -->
<g id="node17" class="node"><title>Node17</title>
<g id="a_node17"><a xlink:href="event_8h.xhtml" target="_top" xlink:title="Contains event classes for fault trees. ">
<polygon fill="white" stroke="black" points="428.5,-123.5 428.5,-142.5 481.5,-142.5 481.5,-123.5 428.5,-123.5"/>
<text text-anchor="middle" x="455" y="-130.5" font-family="Helvetica,sans-Serif" font-size="10.00">event.h</text>
</a>
</g>
</g>
<!-- Node2&#45;&gt;Node17 -->
<g id="edge39" class="edge"><title>Node2&#45;&gt;Node17</title>
<path fill="none" stroke="midnightblue" d="M596.623,-235.358C580.055,-226.858 554.643,-213.136 534,-199 511.496,-183.59 487.564,-163.279 472.015,-149.491"/>
<polygon fill="midnightblue" stroke="midnightblue" points="474.083,-146.645 464.301,-142.576 469.41,-151.857 474.083,-146.645"/>
</g>
<!-- Node22 -->
<g id="node22" class="node"><title>Node22</title>
<g id="a_node22"><a xlink:href="parameter_8h.xhtml" target="_top" xlink:title="Parameter expressions that act like a shareable variable. ">
<polygon fill="white" stroke="black" points="576,-123.5 576,-142.5 652,-142.5 652,-123.5 576,-123.5"/>
<text text-anchor="middle" x="614" y="-130.5" font-family="Helvetica,sans-Serif" font-size="10.00">parameter.h</text>
</a>
</g>
</g>
<!-- Node2&#45;&gt;Node22 -->
<g id="edge40" class="edge"><title>Node2&#45;&gt;Node22</title>
<path fill="none" stroke="midnightblue" d="M614,-235.368C614,-217.617 614,-176.666 614,-152.597"/>
<polygon fill="midnightblue" stroke="midnightblue" points="617.5,-152.591 614,-142.591 610.5,-152.591 617.5,-152.591"/>
</g>
<!-- Node7&#45;&gt;Node3 -->
<g id="edge7" class="edge"><title>Node7&#45;&gt;Node3</title>
<path fill="none" stroke="midnightblue" d="M447.016,-186.051C496.742,-182.361 588.497,-171.919 661,-143 691.83,-130.703 723.145,-108.067 742.074,-93.0219"/>
<polygon fill="midnightblue" stroke="midnightblue" points="744.528,-95.5375 750.084,-86.5161 740.115,-90.1039 744.528,-95.5375"/>
</g>
<!-- Node7&#45;&gt;Node4 -->
<g id="edge9" class="edge"><title>Node7&#45;&gt;Node4</title>
<path fill="none" stroke="midnightblue" d="M447.128,-185.856C501.752,-181.818 608.101,-170.831 694,-143 765.097,-119.965 773.229,-91.0164 844,-67 926.215,-39.1001 953.197,-57.1046 1036,-31 1037.88,-30.4086 1039.79,-29.736 1041.69,-29.0122"/>
<polygon fill="midnightblue" stroke="midnightblue" points="1043.15,-32.1955 1051.03,-25.1038 1040.45,-25.7391 1043.15,-32.1955"/>
</g>
<!-- Node7&#45;&gt;Node6 -->
<g id="edge12" class="edge"><title>Node7&#45;&gt;Node6</title>
<path fill="none" stroke="midnightblue" d="M397.305,-179.443C376.69,-166.668 336.331,-142.072 301,-123 234.161,-86.9206 153.367,-48.6241 111.758,-29.2793"/>
<polygon fill="midnightblue" stroke="midnightblue" points="113.078,-26.0337 102.534,-25.0031 110.134,-32.3844 113.078,-26.0337"/>
</g>
<!-- Node8 -->
<g id="node8" class="node"><title>Node8</title>
<polygon fill="white" stroke="#bfbfbf" points="150.5,-123.5 150.5,-142.5 205.5,-142.5 205.5,-123.5 150.5,-123.5"/>
<text text-anchor="middle" x="178" y="-130.5" font-family="Helvetica,sans-Serif" font-size="10.00">optional</text>
</g>
<!-- Node7&#45;&gt;Node8 -->
<g id="edge8" class="edge"><title>Node7&#45;&gt;Node8</title>
<path fill="none" stroke="midnightblue" d="M374.843,-179.846C337.487,-171.389 277.234,-157.657 215.747,-143.154"/>
<polygon fill="midnightblue" stroke="midnightblue" points="216.408,-139.714 205.871,-140.82 214.798,-146.526 216.408,-139.714"/>
</g>
<!-- Node9 -->
<g id="node9" class="node"><title>Node9</title>
<polygon fill="white" stroke="#bfbfbf" points="224,-123.5 224,-142.5 292,-142.5 292,-123.5 224,-123.5"/>
<text text-anchor="middle" x="258" y="-130.5" font-family="Helvetica,sans-Serif" font-size="10.00">type_traits</text>
</g>
<!-- Node7&#45;&gt;Node9 -->
<g id="edge10" class="edge"><title>Node7&#45;&gt;Node9</title>
<path fill="none" stroke="midnightblue" d="M386.757,-179.444C361.129,-170.399 320.515,-156.064 291.762,-145.916"/>
<polygon fill="midnightblue" stroke="midnightblue" points="292.725,-142.544 282.13,-142.516 290.395,-149.145 292.725,-142.544"/>
</g>
<!-- Node10 -->
<g id="node10" class="node"><title>Node10</title>
<polygon fill="white" stroke="#bfbfbf" points="0,-6 0,-25 42,-25 42,-6 0,-6"/>
<text text-anchor="middle" x="21" y="-13" font-family="Helvetica,sans-Serif" font-size="10.00">utility</text>
</g>
<!-- Node7&#45;&gt;Node10 -->
<g id="edge11" class="edge"><title>Node7&#45;&gt;Node10</title>
<path fill="none" stroke="midnightblue" d="M374.869,-184.841C310.965,-178.788 180.971,-164.241 141,-143 91.2631,-116.57 50.4347,-61.7354 31.8386,-33.7474"/>
<polygon fill="midnightblue" stroke="midnightblue" points="34.5842,-31.5481 26.21,-25.0578 28.7091,-35.3537 34.5842,-31.5481"/>
</g>
<!-- Node7&#45;&gt;Node11 -->
<g id="edge13" class="edge"><title>Node7&#45;&gt;Node11</title>
<path fill="none" stroke="midnightblue" d="M432.796,-179.346C449.902,-171.73 473.501,-159.314 490,-143 503.629,-129.524 514.111,-110.162 520.581,-96.0768"/>
<polygon fill="midnightblue" stroke="midnightblue" points="523.958,-97.0861 524.732,-86.5195 517.538,-94.2976 523.958,-97.0861"/>
</g>
<!-- Node7&#45;&gt;Node17 -->
<g id="edge21" class="edge"><title>Node7&#45;&gt;Node17</title>
<path fill="none" stroke="midnightblue" d="M418.266,-179.083C424.545,-171.377 433.788,-160.033 441.431,-150.653"/>
<polygon fill="midnightblue" stroke="midnightblue" points="444.266,-152.714 447.869,-142.751 438.839,-148.293 444.266,-152.714"/>
</g>
<!-- Node19 -->
<g id="node19" class="node"><title>Node19</title>
<g id="a_node19"><a xlink:href="expression_8h.xhtml" target="_top" xlink:title="Provides the base class for all expressions and units for expression values. ">
<polygon fill="white" stroke="black" points="361.5,-67.5 361.5,-86.5 438.5,-86.5 438.5,-67.5 361.5,-67.5"/>
<text text-anchor="middle" x="400" y="-74.5" font-family="Helvetica,sans-Serif" font-size="10.00">expression.h</text>
</a>
</g>
</g>
<!-- Node7&#45;&gt;Node19 -->
<g id="edge37" class="edge"><title>Node7&#45;&gt;Node19</title>
<path fill="none" stroke="midnightblue" d="M410.137,-179.368C408.362,-161.617 404.267,-120.666 401.86,-96.5974"/>
<polygon fill="midnightblue" stroke="midnightblue" points="405.337,-96.1935 400.859,-86.5914 398.372,-96.8901 405.337,-96.1935"/>
</g>
<!-- Node11&#45;&gt;Node4 -->
<g id="edge15" class="edge"><title>Node11&#45;&gt;Node4</title>
<path fill="none" stroke="midnightblue" d="M560.766,-73.4025C669.519,-64.7411 1012.96,-37.053 1036,-31 1038.16,-30.4334 1040.35,-29.7328 1042.53,-28.9482"/>
<polygon fill="midnightblue" stroke="midnightblue" points="1043.88,-32.1776 1051.78,-25.1243 1041.2,-25.708 1043.88,-32.1776"/>
</g>
<!-- Node11&#45;&gt;Node6 -->
<g id="edge16" class="edge"><title>Node11&#45;&gt;Node6</title>
<path fill="none" stroke="midnightblue" d="M495.29,-72.3505C480.537,-70.7084 462.892,-68.7498 447,-67 300.349,-50.8536 259.528,-69.1185 117,-31 114.705,-30.3861 112.364,-29.6354 110.043,-28.8019"/>
<polygon fill="midnightblue" stroke="midnightblue" points="111.351,-25.5558 100.769,-25.0481 108.725,-32.0444 111.351,-25.5558"/>
</g>
<!-- Node12 -->
<g id="node12" class="node"><title>Node12</title>
<polygon fill="white" stroke="#bfbfbf" points="978.5,-6 978.5,-25 1027.5,-25 1027.5,-6 978.5,-6"/>
<text text-anchor="middle" x="1003" y="-13" font-family="Helvetica,sans-Serif" font-size="10.00">cstdint</text>
</g>
<!-- Node11&#45;&gt;Node12 -->
<g id="edge14" class="edge"><title>Node11&#45;&gt;Node12</title>
<path fill="none" stroke="midnightblue" d="M560.547,-69.3391C565.38,-68.4747 570.311,-67.6616 575,-67 749.116,-42.4351 798.501,-74.0122 969,-31 971.362,-30.404 973.772,-29.6658 976.163,-28.8408"/>
<polygon fill="midnightblue" stroke="midnightblue" points="977.68,-32.0058 985.716,-25.1016 975.128,-25.4873 977.68,-32.0058"/>
</g>
<!-- Node13 -->
<g id="node13" class="node"><title>Node13</title>
<polygon fill="white" stroke="#bfbfbf" points="672,-0.5 672,-30.5 812,-30.5 812,-0.5 672,-0.5"/>
<text text-anchor="start" x="680" y="-18.5" font-family="Helvetica,sans-Serif" font-size="10.00">boost/multi_index/hashed</text>
<text text-anchor="middle" x="742" y="-7.5" font-family="Helvetica,sans-Serif" font-size="10.00">_index.hpp</text>
</g>
<!-- Node11&#45;&gt;Node13 -->
<g id="edge17" class="edge"><title>Node11&#45;&gt;Node13</title>
<path fill="none" stroke="midnightblue" d="M558.661,-67.4751C590.692,-58.5694 641.766,-44.3688 681.882,-33.2151"/>
<polygon fill="midnightblue" stroke="midnightblue" points="682.867,-36.5739 691.564,-30.523 680.992,-29.8297 682.867,-36.5739"/>
</g>
<!-- Node14 -->
<g id="node14" class="node"><title>Node14</title>
<polygon fill="white" stroke="#bfbfbf" points="830,-0.5 830,-30.5 960,-30.5 960,-0.5 830,-0.5"/>
<text text-anchor="start" x="838" y="-18.5" font-family="Helvetica,sans-Serif" font-size="10.00">boost/multi_index/mem</text>
<text text-anchor="middle" x="895" y="-7.5" font-family="Helvetica,sans-Serif" font-size="10.00">_fun.hpp</text>
</g>
<!-- Node11&#45;&gt;Node14 -->
<g id="edge18" class="edge"><title>Node11&#45;&gt;Node14</title>
<path fill="none" stroke="midnightblue" d="M560.583,-69.569C565.41,-68.6718 570.331,-67.7884 575,-67 680.764,-49.1437 710.366,-49.5858 819.553,-31.1975"/>
<polygon fill="midnightblue" stroke="midnightblue" points="820.389,-34.6058 829.661,-29.48 819.216,-27.7047 820.389,-34.6058"/>
</g>
<!-- Node15 -->
<g id="node15" class="node"><title>Node15</title>
<polygon fill="white" stroke="#bfbfbf" points="482,-6 482,-25 654,-25 654,-6 482,-6"/>
<text text-anchor="middle" x="568" y="-13" font-family="Helvetica,sans-Serif" font-size="10.00">boost/multi_index_container.hpp</text>
</g>
<!-- Node11&#45;&gt;Node15 -->
<g id="edge19" class="edge"><title>Node11&#45;&gt;Node15</title>
<path fill="none" stroke="midnightblue" d="M533.731,-67.4751C539.672,-58.6384 549.117,-44.5886 556.588,-33.475"/>
<polygon fill="midnightblue" stroke="midnightblue" points="559.605,-35.2608 562.28,-25.0091 553.796,-31.3554 559.605,-35.2608"/>
</g>
<!-- Node16 -->
<g id="node16" class="node"><title>Node16</title>
<polygon fill="white" stroke="#bfbfbf" points="336,-6 336,-25 464,-25 464,-6 336,-6"/>
<text text-anchor="middle" x="400" y="-13" font-family="Helvetica,sans-Serif" font-size="10.00">boost/noncopyable.hpp</text>
</g>
<!-- Node11&#45;&gt;Node16 -->
<g id="edge20" class="edge"><title>Node11&#45;&gt;Node16</title>
<path fill="none" stroke="midnightblue" d="M509.661,-67.4751C488.179,-57.4897 452.378,-40.8476 427.552,-29.3075"/>
<polygon fill="midnightblue" stroke="midnightblue" points="428.849,-26.0506 418.305,-25.0091 425.898,-32.3983 428.849,-26.0506"/>
</g>
<!-- Node17&#45;&gt;Node3 -->
<g id="edge23" class="edge"><title>Node17&#45;&gt;Node3</title>
<path fill="none" stroke="midnightblue" d="M481.533,-127.302C535.487,-117.75 658.2,-96.0236 721.158,-84.877"/>
<polygon fill="midnightblue" stroke="midnightblue" points="721.858,-88.3075 731.095,-83.1176 720.638,-81.4147 721.858,-88.3075"/>
</g>
<!-- Node17&#45;&gt;Node4 -->
<g id="edge24" class="edge"><title>Node17&#45;&gt;Node4</title>
<path fill="none" stroke="midnightblue" d="M481.76,-126.639C517.084,-119.253 580.999,-104.818 634,-87 655.518,-79.7661 659.014,-72.6537 681,-67 834.59,-27.505 882.877,-72.2685 1036,-31 1038.15,-30.4197 1040.34,-29.7094 1042.52,-28.918"/>
<polygon fill="midnightblue" stroke="midnightblue" points="1043.87,-32.1451 1051.77,-25.0818 1041.19,-25.6789 1043.87,-32.1451"/>
</g>
<!-- Node17&#45;&gt;Node6 -->
<g id="edge27" class="edge"><title>Node17&#45;&gt;Node6</title>
<path fill="none" stroke="midnightblue" d="M428.484,-126.562C394.485,-119.241 333.955,-105.028 284,-87 264.174,-79.8452 260.734,-74.4043 241,-67 187.271,-46.8403 170.941,-50.5849 117,-31 115.342,-30.398 113.649,-29.7528 111.949,-29.0812"/>
<polygon fill="midnightblue" stroke="midnightblue" points="112.903,-25.6869 102.327,-25.0629 110.206,-32.1462 112.903,-25.6869"/>
</g>
<!-- Node17&#45;&gt;Node10 -->
<g id="edge25" class="edge"><title>Node17&#45;&gt;Node10</title>
<path fill="none" stroke="midnightblue" d="M428.294,-127.735C362.52,-116.719 188.098,-84.3858 51,-31 49.6187,-30.4621 48.2133,-29.8866 46.8025,-29.2865"/>
<polygon fill="midnightblue" stroke="midnightblue" points="48.1634,-26.0604 37.6117,-25.1045 45.2642,-32.4318 48.1634,-26.0604"/>
</g>
<!-- Node17&#45;&gt;Node11 -->
<g id="edge29" class="edge"><title>Node17&#45;&gt;Node11</title>
<path fill="none" stroke="midnightblue" d="M466.729,-123.324C477.837,-115.107 494.742,-102.602 507.983,-92.8069"/>
<polygon fill="midnightblue" stroke="midnightblue" points="510.1,-95.5948 516.058,-86.8339 505.937,-89.9671 510.1,-95.5948"/>
</g>
<!-- Node17&#45;&gt;Node12 -->
<g id="edge22" class="edge"><title>Node17&#45;&gt;Node12</title>
<path fill="none" stroke="midnightblue" d="M476.62,-123.436C513.028,-109.372 589.156,-81.5019 656,-67 792.845,-37.3113 833.636,-66.838 969,-31 971.355,-30.3764 973.76,-29.6188 976.147,-28.7807"/>
<polygon fill="midnightblue" stroke="midnightblue" points="977.674,-31.9413 985.695,-25.0191 975.108,-25.4285 977.674,-31.9413"/>
</g>
<!-- Node17&#45;&gt;Node16 -->
<g id="edge28" class="edge"><title>Node17&#45;&gt;Node16</title>
<path fill="none" stroke="midnightblue" d="M455.589,-123.12C456.087,-110.15 455.643,-85.5513 447,-67 440.614,-53.2936 429.096,-40.8241 419.061,-31.705"/>
<polygon fill="midnightblue" stroke="midnightblue" points="421.317,-29.0285 411.457,-25.1503 416.746,-34.3306 421.317,-29.0285"/>
</g>
<!-- Node18 -->
<g id="node18" class="node"><title>Node18</title>
<polygon fill="white" stroke="#bfbfbf" points="293,-67.5 293,-86.5 343,-86.5 343,-67.5 293,-67.5"/>
<text text-anchor="middle" x="318" y="-74.5" font-family="Helvetica,sans-Serif" font-size="10.00">variant</text>
</g>
<!-- Node17&#45;&gt;Node18 -->
<g id="edge26" class="edge"><title>Node17&#45;&gt;Node18</title>
<path fill="none" stroke="midnightblue" d="M433.292,-123.444C410.645,-114.517 374.928,-100.439 349.248,-90.3168"/>
<polygon fill="midnightblue" stroke="midnightblue" points="350.193,-86.9273 339.606,-86.5164 347.626,-93.4397 350.193,-86.9273"/>
</g>
<!-- Node17&#45;&gt;Node19 -->
<g id="edge30" class="edge"><title>Node17&#45;&gt;Node19</title>
<path fill="none" stroke="midnightblue" d="M445.918,-123.083C437.829,-115.141 425.805,-103.335 416.09,-93.7973"/>
<polygon fill="midnightblue" stroke="midnightblue" points="418.501,-91.2595 408.913,-86.7511 413.597,-96.2545 418.501,-91.2595"/>
</g>
<!-- Node19&#45;&gt;Node4 -->
<g id="edge32" class="edge"><title>Node19&#45;&gt;Node4</title>
<path fill="none" stroke="midnightblue" d="M438.928,-71.6021C453.662,-70.0227 470.593,-68.3099 486,-67 730.087,-46.2476 798.372,-90.5148 1036,-31 1038.21,-30.4462 1040.46,-29.745 1042.69,-28.9513"/>
<polygon fill="midnightblue" stroke="midnightblue" points="1044.22,-32.1027 1052.13,-25.0495 1041.55,-25.6331 1044.22,-32.1027"/>
</g>
<!-- Node19&#45;&gt;Node6 -->
<g id="edge34" class="edge"><title>Node19&#45;&gt;Node6</title>
<path fill="none" stroke="midnightblue" d="M361.247,-68.6192C358.121,-68.0587 355.009,-67.5124 352,-67 247.837,-49.2613 218.46,-60.5055 117,-31 114.852,-30.3753 112.66,-29.6423 110.479,-28.8434"/>
<polygon fill="midnightblue" stroke="midnightblue" points="111.733,-25.575 101.151,-25.051 109.096,-32.0596 111.733,-25.575"/>
</g>
<!-- Node19&#45;&gt;Node10 -->
<g id="edge33" class="edge"><title>Node19&#45;&gt;Node10</title>
<path fill="none" stroke="midnightblue" d="M361.265,-68.5091C358.135,-67.9733 355.017,-67.4627 352,-67 218.826,-46.5741 180.31,-68.8329 51,-31 49.1262,-30.4518 47.225,-29.7961 45.3363,-29.0708"/>
<polygon fill="midnightblue" stroke="midnightblue" points="46.7429,-25.8659 36.1804,-25.0395 43.9222,-32.2725 46.7429,-25.8659"/>
</g>
<!-- Node19&#45;&gt;Node16 -->
<g id="edge36" class="edge"><title>Node19&#45;&gt;Node16</title>
<path fill="none" stroke="midnightblue" d="M400,-67.4751C400,-59.0803 400,-45.9806 400,-35.1631"/>
<polygon fill="midnightblue" stroke="midnightblue" points="403.5,-35.0091 400,-25.0091 396.5,-35.0091 403.5,-35.0091"/>
</g>
<!-- Node20 -->
<g id="node20" class="node"><title>Node20</title>
<polygon fill="white" stroke="#bfbfbf" points="256,-6 256,-25 318,-25 318,-6 256,-6"/>
<text text-anchor="middle" x="287" y="-13" font-family="Helvetica,sans-Serif" font-size="10.00">algorithm</text>
</g>
<!-- Node19&#45;&gt;Node20 -->
<g id="edge31" class="edge"><title>Node19&#45;&gt;Node20</title>
<path fill="none" stroke="midnightblue" d="M383.81,-67.4751C365.098,-57.6222 334.077,-41.2883 312.201,-29.7697"/>
<polygon fill="midnightblue" stroke="midnightblue" points="313.639,-26.5713 303.16,-25.0091 310.378,-32.7651 313.639,-26.5713"/>
</g>
<!-- Node21 -->
<g id="node21" class="node"><title>Node21</title>
<polygon fill="white" stroke="#bfbfbf" points="126,-0.5 126,-30.5 238,-30.5 238,-0.5 126,-0.5"/>
<text text-anchor="start" x="134" y="-18.5" font-family="Helvetica,sans-Serif" font-size="10.00">boost/icl/continuous</text>
<text text-anchor="middle" x="182" y="-7.5" font-family="Helvetica,sans-Serif" font-size="10.00">_interval.hpp</text>
</g>
<!-- Node19&#45;&gt;Node21 -->
<g id="edge35" class="edge"><title>Node19&#45;&gt;Node21</title>
<path fill="none" stroke="midnightblue" d="M368.766,-67.4751C336.137,-58.5694 284.108,-44.3688 243.242,-33.2151"/>
<polygon fill="midnightblue" stroke="midnightblue" points="243.947,-29.7796 233.378,-30.523 242.104,-36.5326 243.947,-29.7796"/>
</g>
<!-- Node22&#45;&gt;Node3 -->
<g id="edge42" class="edge"><title>Node22&#45;&gt;Node3</title>
<path fill="none" stroke="midnightblue" d="M637.134,-123.444C661.482,-114.438 700.007,-100.189 727.423,-90.049"/>
<polygon fill="midnightblue" stroke="midnightblue" points="728.809,-93.2681 736.974,-86.5164 726.381,-86.7028 728.809,-93.2681"/>
</g>
<!-- Node22&#45;&gt;Node4 -->
<g id="edge43" class="edge"><title>Node22&#45;&gt;Node4</title>
<path fill="none" stroke="midnightblue" d="M626.771,-123.364C650.776,-107.292 702.008,-73.8025 722,-67 854.983,-21.7522 900.612,-68.4407 1036,-31 1038.15,-30.4056 1040.34,-29.6852 1042.51,-28.887"/>
<polygon fill="midnightblue" stroke="midnightblue" points="1043.87,-32.1116 1051.76,-25.0381 1041.18,-25.6489 1043.87,-32.1116"/>
</g>
<!-- Node22&#45;&gt;Node11 -->
<g id="edge44" class="edge"><title>Node22&#45;&gt;Node11</title>
<path fill="none" stroke="midnightblue" d="M600.183,-123.324C586.767,-114.9 566.176,-101.971 550.414,-92.0741"/>
<polygon fill="midnightblue" stroke="midnightblue" points="552.113,-89.0081 541.783,-86.6545 548.391,-94.9364 552.113,-89.0081"/>
</g>
<!-- Node22&#45;&gt;Node12 -->
<g id="edge41" class="edge"><title>Node22&#45;&gt;Node12</title>
<path fill="none" stroke="midnightblue" d="M620.806,-123.48C632.846,-109.087 659.435,-80.2376 689,-67 803.514,-15.7265 847.927,-63.9211 969,-31 971.299,-30.3749 973.646,-29.6262 975.979,-28.8028"/>
<polygon fill="midnightblue" stroke="midnightblue" points="977.307,-32.0417 985.331,-25.1235 974.744,-25.5277 977.307,-32.0417"/>
</g>
<!-- Node22&#45;&gt;Node19 -->
<g id="edge45" class="edge"><title>Node22&#45;&gt;Node19</title>
<path fill="none" stroke="midnightblue" d="M580.091,-123.444C543.151,-114.122 483.946,-99.1828 443.582,-88.9972"/>
<polygon fill="midnightblue" stroke="midnightblue" points="444.303,-85.5695 433.75,-86.5164 442.59,-92.3568 444.303,-85.5695"/>
</g>
<!-- Node23&#45;&gt;Node4 -->
<g id="edge48" class="edge"><title>Node23&#45;&gt;Node4</title>
<path fill="none" stroke="midnightblue" d="M1293.27,-242.207C1340.06,-237.732 1435.77,-223.058 1408,-179 1338.48,-68.716 1171.18,-31.6623 1100.45,-20.6558"/>
<polygon fill="midnightblue" stroke="midnightblue" points="1100.75,-17.1623 1090.34,-19.1603 1099.72,-24.0869 1100.75,-17.1623"/>
</g>
<!-- Node24 -->
<g id="node24" class="node"><title>Node24</title>
<polygon fill="white" stroke="#bfbfbf" points="1336.5,-179.5 1336.5,-198.5 1399.5,-198.5 1399.5,-179.5 1336.5,-179.5"/>
<text text-anchor="middle" x="1368" y="-186.5" font-family="Helvetica,sans-Serif" font-size="10.00">exception</text>
</g>
<!-- Node23&#45;&gt;Node24 -->
<g id="edge47" class="edge"><title>Node23&#45;&gt;Node24</title>
<path fill="none" stroke="midnightblue" d="M1284.91,-235.324C1300.64,-226.743 1324.94,-213.486 1343.21,-203.522"/>
<polygon fill="midnightblue" stroke="midnightblue" points="1345.03,-206.516 1352.13,-198.655 1341.68,-200.37 1345.03,-206.516"/>
</g>
<!-- Node25 -->
<g id="node25" class="node"><title>Node25</title>
<polygon fill="white" stroke="#bfbfbf" points="1456,-179.5 1456,-198.5 1602,-198.5 1602,-179.5 1456,-179.5"/>
<text text-anchor="middle" x="1529" y="-186.5" font-family="Helvetica,sans-Serif" font-size="10.00">boost/current_function.hpp</text>
</g>
<!-- Node23&#45;&gt;Node25 -->
<g id="edge49" class="edge"><title>Node23&#45;&gt;Node25</title>
<path fill="none" stroke="midnightblue" d="M1293.46,-238.92C1335.47,-230.195 1422.17,-212.187 1477.85,-200.623"/>
<polygon fill="midnightblue" stroke="midnightblue" points="1478.79,-204.002 1487.87,-198.542 1477.37,-197.149 1478.79,-204.002"/>
</g>
<!-- Node26 -->
<g id="node26" class="node"><title>Node26</title>
<polygon fill="white" stroke="#bfbfbf" points="886,-179.5 886,-198.5 1050,-198.5 1050,-179.5 886,-179.5"/>
<text text-anchor="middle" x="968" y="-186.5" font-family="Helvetica,sans-Serif" font-size="10.00">boost/exception/exception.hpp</text>
</g>
<!-- Node23&#45;&gt;Node26 -->
<g id="edge50" class="edge"><title>Node23&#45;&gt;Node26</title>
<path fill="none" stroke="midnightblue" d="M1244.88,-239.672C1197.64,-231.198 1091.78,-212.206 1025.5,-200.315"/>
<polygon fill="midnightblue" stroke="midnightblue" points="1026.08,-196.863 1015.62,-198.542 1024.84,-203.753 1026.08,-196.863"/>
</g>
<!-- Node27 -->
<g id="node27" class="node"><title>Node27</title>
<polygon fill="white" stroke="#bfbfbf" points="1068,-179.5 1068,-198.5 1202,-198.5 1202,-179.5 1068,-179.5"/>
<text text-anchor="middle" x="1135" y="-186.5" font-family="Helvetica,sans-Serif" font-size="10.00">boost/exception/info.hpp</text>
</g>
<!-- Node23&#45;&gt;Node27 -->
<g id="edge51" class="edge"><title>Node23&#45;&gt;Node27</title>
<path fill="none" stroke="midnightblue" d="M1247.77,-235.444C1225.62,-226.517 1190.68,-212.439 1165.56,-202.317"/>
<polygon fill="midnightblue" stroke="midnightblue" points="1166.72,-199.008 1156.13,-198.516 1164.1,-205.501 1166.72,-199.008"/>
</g>
<!-- Node28 -->
<g id="node28" class="node"><title>Node28</title>
<g id="a_node28"><a xlink:href="source__info_8h.xhtml" target="_top" xlink:title="Helper facilities to get source file information. ">
<polygon fill="white" stroke="black" points="1220,-179.5 1220,-198.5 1318,-198.5 1318,-179.5 1220,-179.5"/>
<text text-anchor="middle" x="1269" y="-186.5" font-family="Helvetica,sans-Serif" font-size="10.00">ext/source_info.h</text>
</a>
</g>
</g>
<!-- Node23&#45;&gt;Node28 -->
<g id="edge52" class="edge"><title>Node23&#45;&gt;Node28</title>
<path fill="none" stroke="midnightblue" d="M1269,-235.083C1269,-228.006 1269,-217.861 1269,-208.986"/>
<polygon fill="midnightblue" stroke="midnightblue" points="1272.5,-208.751 1269,-198.751 1265.5,-208.751 1272.5,-208.751"/>
</g>
</g>
</svg>
