<?xml version="1.0" encoding="UTF-8" standalone="no"?>
<!DOCTYPE svg PUBLIC "-//W3C//DTD SVG 1.1//EN"
 "http://www.w3.org/Graphics/SVG/1.1/DTD/svg11.dtd">
<!-- Generated by graphviz version 2.38.0 (20140413.2041)
 -->
<!-- Title: Graphical Class Hierarchy Pages: 1 -->
<svg width="270pt" height="137pt"
 viewBox="0.00 0.00 270.00 137.00" xmlns="http://www.w3.org/2000/svg" xmlns:xlink="http://www.w3.org/1999/xlink">
<g id="graph0" class="graph" transform="scale(1 1) rotate(0) translate(4 133)">
<title>Graphical Class Hierarchy</title>
<polygon fill="white" stroke="none" points="-4,4 -4,-133 266,-133 266,4 -4,4"/>
<!-- Node1 -->
<g id="node1" class="node"><title>Node1</title>
<polygon fill="white" stroke="#bfbfbf" points="0,-55 0,-74 89,-74 89,-55 0,-55"/>
<text text-anchor="middle" x="44.5" y="-62" font-family="Helvetica,sans-Serif" font-size="10.00">iterator_facade</text>
</g>
<!-- Node2 -->
<g id="node2" class="node"><title>Node2</title>
<g id="a_node2"><a xlink:href="classext_1_1combination__iterator.xhtml" target="_top" xlink:title="Read forward&#45;iterator for combination generation. ">
<polygon fill="white" stroke="black" points="125,-98.5 125,-128.5 262,-128.5 262,-98.5 125,-98.5"/>
<text text-anchor="start" x="133" y="-116.5" font-family="Helvetica,sans-Serif" font-size="10.00">ext::combination_iterator</text>
<text text-anchor="middle" x="193.5" y="-105.5" font-family="Helvetica,sans-Serif" font-size="10.00">&lt; Iterator, value_type &gt;</text>
</a>
</g>
</g>
<!-- Node1&#45;&gt;Node2 -->
<g id="edge1" class="edge"><title>Node1&#45;&gt;Node2</title>
<path fill="none" stroke="midnightblue" d="M83.928,-77.3093C103.369,-83.7897 127.086,-91.6955 147.389,-98.463"/>
<polygon fill="midnightblue" stroke="midnightblue" points="84.7857,-73.906 74.192,-74.064 82.5721,-80.5468 84.7857,-73.906"/>
</g>
<!-- Node3 -->
<g id="node3" class="node"><title>Node3</title>
<g id="a_node3"><a xlink:href="classscram_1_1core_1_1Zbdd_1_1const__iterator.xhtml" target="_top" xlink:title="Iterator over products in a ZBDD container. ">
<polygon fill="white" stroke="black" points="138,-49.5 138,-79.5 249,-79.5 249,-49.5 138,-49.5"/>
<text text-anchor="start" x="146" y="-67.5" font-family="Helvetica,sans-Serif" font-size="10.00">scram::core::Zbdd::</text>
<text text-anchor="middle" x="193.5" y="-56.5" font-family="Helvetica,sans-Serif" font-size="10.00">const_iterator</text>
</a>
</g>
</g>
<!-- Node1&#45;&gt;Node3 -->
<g id="edge2" class="edge"><title>Node1&#45;&gt;Node3</title>
<path fill="none" stroke="midnightblue" d="M99.4642,-64.5C111.944,-64.5 125.233,-64.5 137.746,-64.5"/>
<polygon fill="midnightblue" stroke="midnightblue" points="99.2069,-61.0001 89.2068,-64.5 99.2068,-68.0001 99.2069,-61.0001"/>
</g>
<!-- Node4 -->
<g id="node4" class="node"><title>Node4</title>
<g id="a_node4"><a xlink:href="classscram_1_1xml_1_1Element_1_1Range_1_1iterator.xhtml" target="_top" xlink:title="Iterator over range elements. ">
<polygon fill="white" stroke="black" points="135.5,-0.5 135.5,-30.5 251.5,-30.5 251.5,-0.5 135.5,-0.5"/>
<text text-anchor="start" x="143.5" y="-18.5" font-family="Helvetica,sans-Serif" font-size="10.00">scram::xml::Element</text>
<text text-anchor="middle" x="193.5" y="-7.5" font-family="Helvetica,sans-Serif" font-size="10.00">::Range::iterator</text>
</a>
</g>
</g>
<!-- Node1&#45;&gt;Node4 -->
<g id="edge3" class="edge"><title>Node1&#45;&gt;Node4</title>
<path fill="none" stroke="midnightblue" d="M83.928,-51.6907C103.369,-45.2103 127.086,-37.3045 147.389,-30.537"/>
<polygon fill="midnightblue" stroke="midnightblue" points="82.5721,-48.4532 74.192,-54.936 84.7857,-55.094 82.5721,-48.4532"/>
</g>
</g>
</svg>
