<?xml version="1.0" encoding="UTF-8" standalone="no"?>
<!DOCTYPE svg PUBLIC "-//W3C//DTD SVG 1.1//EN"
 "http://www.w3.org/Graphics/SVG/1.1/DTD/svg11.dtd">
<!-- Generated by graphviz version 2.38.0 (20140413.2041)
 -->
<!-- Title: Graphical Class Hierarchy Pages: 1 -->
<svg width="559pt" height="400pt"
 viewBox="0.00 0.00 559.00 400.00" xmlns="http://www.w3.org/2000/svg" xmlns:xlink="http://www.w3.org/1999/xlink">
<g id="graph0" class="graph" transform="scale(1 1) rotate(0) translate(4 396)">
<title>Graphical Class Hierarchy</title>
<polygon fill="white" stroke="none" points="-4,4 -4,-396 555,-396 555,4 -4,4"/>
<!-- Node1 -->
<g id="node1" class="node"><title>Node1</title>
<polygon fill="white" stroke="#bfbfbf" points="0,-277.5 0,-296.5 63,-296.5 63,-277.5 0,-277.5"/>
<text text-anchor="middle" x="31.5" y="-284.5" font-family="Helvetica,sans-Serif" font-size="10.00">exception</text>
</g>
<!-- Node2 -->
<g id="node2" class="node"><title>Node2</title>
<g id="a_node2"><a xlink:href="classscram_1_1Error.xhtml" target="_top" xlink:title="The Error class is the base class for common exceptions specific to the SCRAM code. ">
<polygon fill="white" stroke="black" points="99,-258.5 99,-277.5 175,-277.5 175,-258.5 99,-258.5"/>
<text text-anchor="middle" x="137" y="-265.5" font-family="Helvetica,sans-Serif" font-size="10.00">scram::Error</text>
</a>
</g>
</g>
<!-- Node1&#45;&gt;Node2 -->
<g id="edge1" class="edge"><title>Node1&#45;&gt;Node2</title>
<path fill="none" stroke="midnightblue" d="M73.3191,-279.507C81.7737,-277.955 90.6361,-276.328 98.947,-274.802"/>
<polygon fill="midnightblue" stroke="midnightblue" points="72.4769,-276.103 63.2732,-281.351 73.7408,-282.988 72.4769,-276.103"/>
</g>
<!-- Node3 -->
<g id="node3" class="node"><title>Node3</title>
<g id="a_node3"><a xlink:href="structscram_1_1DLError.xhtml" target="_top" xlink:title="Dynamic library errors. ">
<polygon fill="white" stroke="black" points="233.5,-372.5 233.5,-391.5 322.5,-391.5 322.5,-372.5 233.5,-372.5"/>
<text text-anchor="middle" x="278" y="-379.5" font-family="Helvetica,sans-Serif" font-size="10.00">scram::DLError</text>
</a>
</g>
</g>
<!-- Node2&#45;&gt;Node3 -->
<g id="edge2" class="edge"><title>Node2&#45;&gt;Node3</title>
<path fill="none" stroke="midnightblue" d="M147.475,-286.563C159.412,-308.106 181.93,-343.199 211,-363 217.701,-367.564 225.499,-371.045 233.338,-373.695"/>
<polygon fill="midnightblue" stroke="midnightblue" points="150.55,-284.891 142.749,-277.722 144.377,-288.191 150.55,-284.891"/>
</g>
<!-- Node4 -->
<g id="node4" class="node"><title>Node4</title>
<g id="a_node4"><a xlink:href="structscram_1_1IllegalOperation.xhtml" target="_top" xlink:title="This error can be used to indicate that call for a function or operation is not legal. ">
<polygon fill="white" stroke="black" points="214.5,-334.5 214.5,-353.5 341.5,-353.5 341.5,-334.5 214.5,-334.5"/>
<text text-anchor="middle" x="278" y="-341.5" font-family="Helvetica,sans-Serif" font-size="10.00">scram::IllegalOperation</text>
</a>
</g>
</g>
<!-- Node2&#45;&gt;Node4 -->
<g id="edge3" class="edge"><title>Node2&#45;&gt;Node4</title>
<path fill="none" stroke="midnightblue" d="M155.426,-284.763C169.44,-297.422 190.165,-314.374 211,-325 218.435,-328.792 226.739,-331.931 234.881,-334.49"/>
<polygon fill="midnightblue" stroke="midnightblue" points="157.715,-282.112 148,-277.886 152.958,-287.248 157.715,-282.112"/>
</g>
<!-- Node5 -->
<g id="node5" class="node"><title>Node5</title>
<g id="a_node5"><a xlink:href="structscram_1_1IOError.xhtml" target="_top" xlink:title="For input/output related errors. ">
<polygon fill="white" stroke="black" points="235,-296.5 235,-315.5 321,-315.5 321,-296.5 235,-296.5"/>
<text text-anchor="middle" x="278" y="-303.5" font-family="Helvetica,sans-Serif" font-size="10.00">scram::IOError</text>
</a>
</g>
</g>
<!-- Node2&#45;&gt;Node5 -->
<g id="edge4" class="edge"><title>Node2&#45;&gt;Node5</title>
<path fill="none" stroke="midnightblue" d="M182.795,-280.246C201.955,-285.484 223.994,-291.509 241.936,-296.414"/>
<polygon fill="midnightblue" stroke="midnightblue" points="183.645,-276.85 173.076,-277.589 181.799,-283.602 183.645,-276.85"/>
</g>
<!-- Node6 -->
<g id="node6" class="node"><title>Node6</title>
<g id="a_node6"><a xlink:href="structscram_1_1LogicError.xhtml" target="_top" xlink:title="Signals internal logic errors, for example, pre&#45;condition failure or use of functionality in ways not...">
<polygon fill="white" stroke="black" points="227.5,-258.5 227.5,-277.5 328.5,-277.5 328.5,-258.5 227.5,-258.5"/>
<text text-anchor="middle" x="278" y="-265.5" font-family="Helvetica,sans-Serif" font-size="10.00">scram::LogicError</text>
</a>
</g>
</g>
<!-- Node2&#45;&gt;Node6 -->
<g id="edge5" class="edge"><title>Node2&#45;&gt;Node6</title>
<path fill="none" stroke="midnightblue" d="M185.325,-268C198.872,-268 213.674,-268 227.356,-268"/>
<polygon fill="midnightblue" stroke="midnightblue" points="185.249,-264.5 175.249,-268 185.249,-271.5 185.249,-264.5"/>
</g>
<!-- Node7 -->
<g id="node7" class="node"><title>Node7</title>
<g id="a_node7"><a xlink:href="structscram_1_1mef_1_1ValidityError.xhtml" target="_top" xlink:title="For validating input parameters or user arguments. ">
<polygon fill="white" stroke="black" points="211,-220.5 211,-239.5 345,-239.5 345,-220.5 211,-220.5"/>
<text text-anchor="middle" x="278" y="-227.5" font-family="Helvetica,sans-Serif" font-size="10.00">scram::mef::ValidityError</text>
</a>
</g>
</g>
<!-- Node2&#45;&gt;Node7 -->
<g id="edge6" class="edge"><title>Node2&#45;&gt;Node7</title>
<path fill="none" stroke="midnightblue" d="M182.795,-255.754C201.955,-250.516 223.994,-244.491 241.936,-239.586"/>
<polygon fill="midnightblue" stroke="midnightblue" points="181.799,-252.398 173.076,-258.411 183.645,-259.15 181.799,-252.398"/>
</g>
<!-- Node13 -->
<g id="node13" class="node"><title>Node13</title>
<g id="a_node13"><a xlink:href="structscram_1_1SettingsError.xhtml" target="_top" xlink:title="The error in analysis settings. ">
<polygon fill="white" stroke="black" points="220,-182.5 220,-201.5 336,-201.5 336,-182.5 220,-182.5"/>
<text text-anchor="middle" x="278" y="-189.5" font-family="Helvetica,sans-Serif" font-size="10.00">scram::SettingsError</text>
</a>
</g>
</g>
<!-- Node2&#45;&gt;Node13 -->
<g id="edge12" class="edge"><title>Node2&#45;&gt;Node13</title>
<path fill="none" stroke="midnightblue" d="M155.426,-251.237C169.44,-238.578 190.165,-221.626 211,-211 218.435,-207.208 226.739,-204.069 234.881,-201.51"/>
<polygon fill="midnightblue" stroke="midnightblue" points="152.958,-248.752 148,-258.114 157.715,-253.888 152.958,-248.752"/>
</g>
<!-- Node14 -->
<g id="node14" class="node"><title>Node14</title>
<g id="a_node14"><a xlink:href="structscram_1_1xml_1_1Error.xhtml" target="_top" xlink:title="The base for all XML related errors. ">
<polygon fill="white" stroke="black" points="228.5,-76.5 228.5,-95.5 327.5,-95.5 327.5,-76.5 228.5,-76.5"/>
<text text-anchor="middle" x="278" y="-83.5" font-family="Helvetica,sans-Serif" font-size="10.00">scram::xml::Error</text>
</a>
</g>
</g>
<!-- Node2&#45;&gt;Node14 -->
<g id="edge13" class="edge"><title>Node2&#45;&gt;Node14</title>
<path fill="none" stroke="midnightblue" d="M151.657,-250.118C180.56,-212.274 247.097,-125.153 269.49,-95.8335"/>
<polygon fill="midnightblue" stroke="midnightblue" points="148.761,-248.143 145.473,-258.215 154.324,-252.392 148.761,-248.143"/>
</g>
<!-- Node8 -->
<g id="node8" class="node"><title>Node8</title>
<g id="a_node8"><a xlink:href="structscram_1_1mef_1_1CycleError.xhtml" target="_top" xlink:title="Signals unacceptable cycles in invalid structures. ">
<polygon fill="white" stroke="black" points="403,-327.5 403,-346.5 529,-346.5 529,-327.5 403,-327.5"/>
<text text-anchor="middle" x="466" y="-334.5" font-family="Helvetica,sans-Serif" font-size="10.00">scram::mef::CycleError</text>
</a>
</g>
</g>
<!-- Node7&#45;&gt;Node8 -->
<g id="edge7" class="edge"><title>Node7&#45;&gt;Node8</title>
<path fill="none" stroke="midnightblue" d="M338.433,-244.384C340.737,-245.782 342.94,-247.317 345,-249 371.785,-270.887 353.594,-296.897 381,-318 387.397,-322.926 394.833,-326.619 402.585,-329.38"/>
<polygon fill="midnightblue" stroke="midnightblue" points="339.625,-241.063 329.127,-239.636 336.444,-247.298 339.625,-241.063"/>
</g>
<!-- Node9 -->
<g id="node9" class="node"><title>Node9</title>
<g id="a_node9"><a xlink:href="structscram_1_1mef_1_1DomainError.xhtml" target="_top" xlink:title="Invalid domain for values or arguments. ">
<polygon fill="white" stroke="black" points="397,-289.5 397,-308.5 535,-308.5 535,-289.5 397,-289.5"/>
<text text-anchor="middle" x="466" y="-296.5" font-family="Helvetica,sans-Serif" font-size="10.00">scram::mef::DomainError</text>
</a>
</g>
</g>
<!-- Node7&#45;&gt;Node9 -->
<g id="edge8" class="edge"><title>Node7&#45;&gt;Node9</title>
<path fill="none" stroke="midnightblue" d="M331.54,-242.932C336.193,-244.728 340.747,-246.745 345,-249 363.401,-258.756 362.377,-269.675 381,-279 389.713,-283.363 399.417,-286.8 409.046,-289.499"/>
<polygon fill="midnightblue" stroke="midnightblue" points="332.509,-239.562 321.914,-239.545 330.186,-246.165 332.509,-239.562"/>
</g>
<!-- Node10 -->
<g id="node10" class="node"><title>Node10</title>
<g id="a_node10"><a xlink:href="structscram_1_1mef_1_1DuplicateArgumentError.xhtml" target="_top" xlink:title="This error indicates that arguments must be unique. ">
<polygon fill="white" stroke="black" points="381,-240 381,-270 551,-270 551,-240 381,-240"/>
<text text-anchor="start" x="389" y="-258" font-family="Helvetica,sans-Serif" font-size="10.00">scram::mef::DuplicateArgument</text>
<text text-anchor="middle" x="466" y="-247" font-family="Helvetica,sans-Serif" font-size="10.00">Error</text>
</a>
</g>
</g>
<!-- Node7&#45;&gt;Node10 -->
<g id="edge9" class="edge"><title>Node7&#45;&gt;Node10</title>
<path fill="none" stroke="midnightblue" d="M355.285,-240.253C363.727,-241.388 372.36,-242.548 380.892,-243.695"/>
<polygon fill="midnightblue" stroke="midnightblue" points="355.478,-236.748 345.1,-238.884 354.545,-243.685 355.478,-236.748"/>
</g>
<!-- Node11 -->
<g id="node11" class="node"><title>Node11</title>
<g id="a_node11"><a xlink:href="structscram_1_1mef_1_1RedefinitionError.xhtml" target="_top" xlink:title="For cases when events or practically anything is redefined. ">
<polygon fill="white" stroke="black" points="400,-191 400,-221 532,-221 532,-191 400,-191"/>
<text text-anchor="start" x="408" y="-209" font-family="Helvetica,sans-Serif" font-size="10.00">scram::mef::Redefinition</text>
<text text-anchor="middle" x="466" y="-198" font-family="Helvetica,sans-Serif" font-size="10.00">Error</text>
</a>
</g>
</g>
<!-- Node7&#45;&gt;Node11 -->
<g id="edge10" class="edge"><title>Node7&#45;&gt;Node11</title>
<path fill="none" stroke="midnightblue" d="M355.217,-220.166C369.992,-218.259 385.353,-216.277 399.738,-214.421"/>
<polygon fill="midnightblue" stroke="midnightblue" points="354.57,-216.72 345.1,-221.471 355.466,-223.662 354.57,-216.72"/>
</g>
<!-- Node12 -->
<g id="node12" class="node"><title>Node12</title>
<g id="a_node12"><a xlink:href="structscram_1_1mef_1_1UndefinedElement.xhtml" target="_top" xlink:title="The error for undefined elements in a model. ">
<polygon fill="white" stroke="black" points="383,-152.5 383,-171.5 549,-171.5 549,-152.5 383,-152.5"/>
<text text-anchor="middle" x="466" y="-159.5" font-family="Helvetica,sans-Serif" font-size="10.00">scram::mef::UndefinedElement</text>
</a>
</g>
</g>
<!-- Node7&#45;&gt;Node12 -->
<g id="edge11" class="edge"><title>Node7&#45;&gt;Node12</title>
<path fill="none" stroke="midnightblue" d="M331.54,-217.068C336.193,-215.272 340.747,-213.255 345,-211 363.401,-201.244 362.325,-190.22 381,-181 388.776,-177.161 397.34,-174.086 405.936,-171.627"/>
<polygon fill="midnightblue" stroke="midnightblue" points="330.186,-213.835 321.914,-220.455 332.509,-220.438 330.186,-213.835"/>
</g>
<!-- Node15 -->
<g id="node15" class="node"><title>Node15</title>
<g id="a_node15"><a xlink:href="structscram_1_1xml_1_1ParseError.xhtml" target="_top" xlink:title="XML parsing errors. ">
<polygon fill="white" stroke="black" points="403.5,-114.5 403.5,-133.5 528.5,-133.5 528.5,-114.5 403.5,-114.5"/>
<text text-anchor="middle" x="466" y="-121.5" font-family="Helvetica,sans-Serif" font-size="10.00">scram::xml::ParseError</text>
</a>
</g>
</g>
<!-- Node14&#45;&gt;Node15 -->
<g id="edge14" class="edge"><title>Node14&#45;&gt;Node15</title>
<path fill="none" stroke="midnightblue" d="M335.825,-97.6095C362.279,-103.014 393.358,-109.364 418.402,-114.48"/>
<polygon fill="midnightblue" stroke="midnightblue" points="336.434,-94.1616 325.936,-95.589 335.033,-101.02 336.434,-94.1616"/>
</g>
<!-- Node16 -->
<g id="node16" class="node"><title>Node16</title>
<g id="a_node16"><a xlink:href="structscram_1_1xml_1_1StreamError.xhtml" target="_top" xlink:title="Errors in using XML streaming facilities. ">
<polygon fill="white" stroke="black" points="398.5,-76.5 398.5,-95.5 533.5,-95.5 533.5,-76.5 398.5,-76.5"/>
<text text-anchor="middle" x="466" y="-83.5" font-family="Helvetica,sans-Serif" font-size="10.00">scram::xml::StreamError</text>
</a>
</g>
</g>
<!-- Node14&#45;&gt;Node16 -->
<g id="edge15" class="edge"><title>Node14&#45;&gt;Node16</title>
<path fill="none" stroke="midnightblue" d="M337.971,-86C357.151,-86 378.571,-86 398.277,-86"/>
<polygon fill="midnightblue" stroke="midnightblue" points="337.869,-82.5001 327.869,-86 337.869,-89.5001 337.869,-82.5001"/>
</g>
<!-- Node17 -->
<g id="node17" class="node"><title>Node17</title>
<g id="a_node17"><a xlink:href="structscram_1_1xml_1_1ValidityError.xhtml" target="_top" xlink:title="XML document validity errors. ">
<polygon fill="white" stroke="black" points="399.5,-38.5 399.5,-57.5 532.5,-57.5 532.5,-38.5 399.5,-38.5"/>
<text text-anchor="middle" x="466" y="-45.5" font-family="Helvetica,sans-Serif" font-size="10.00">scram::xml::ValidityError</text>
</a>
</g>
</g>
<!-- Node14&#45;&gt;Node17 -->
<g id="edge16" class="edge"><title>Node14&#45;&gt;Node17</title>
<path fill="none" stroke="midnightblue" d="M335.825,-74.3905C362.279,-68.986 393.358,-62.6365 418.402,-57.5201"/>
<polygon fill="midnightblue" stroke="midnightblue" points="335.033,-70.9801 325.936,-76.411 336.434,-77.8384 335.033,-70.9801"/>
</g>
<!-- Node18 -->
<g id="node18" class="node"><title>Node18</title>
<g id="a_node18"><a xlink:href="structscram_1_1xml_1_1XIncludeError.xhtml" target="_top" xlink:title="XInclude resolution issues. ">
<polygon fill="white" stroke="black" points="396.5,-0.5 396.5,-19.5 535.5,-19.5 535.5,-0.5 396.5,-0.5"/>
<text text-anchor="middle" x="466" y="-7.5" font-family="Helvetica,sans-Serif" font-size="10.00">scram::xml::XIncludeError</text>
</a>
</g>
</g>
<!-- Node14&#45;&gt;Node18 -->
<g id="edge17" class="edge"><title>Node14&#45;&gt;Node18</title>
<path fill="none" stroke="midnightblue" d="M301.665,-70.8243C321.745,-58.0038 352.254,-40.0181 381,-29 390.773,-25.2541 401.482,-22.1362 411.884,-19.5828"/>
<polygon fill="midnightblue" stroke="midnightblue" points="299.699,-67.9275 293.217,-76.3078 303.51,-73.7992 299.699,-67.9275"/>
</g>
<!-- Node19 -->
<g id="node19" class="node"><title>Node19</title>
<polygon fill="white" stroke="#bfbfbf" points="0,-239.5 0,-258.5 63,-258.5 63,-239.5 0,-239.5"/>
<text text-anchor="middle" x="31.5" y="-246.5" font-family="Helvetica,sans-Serif" font-size="10.00">exception</text>
</g>
<!-- Node19&#45;&gt;Node2 -->
<g id="edge18" class="edge"><title>Node19&#45;&gt;Node2</title>
<path fill="none" stroke="midnightblue" d="M73.3191,-256.493C81.7737,-258.045 90.6361,-259.672 98.947,-261.198"/>
<polygon fill="midnightblue" stroke="midnightblue" points="73.7408,-253.012 63.2732,-254.649 72.4769,-259.897 73.7408,-253.012"/>
</g>
</g>
</svg>
