<?xml version="1.0" encoding="UTF-8" standalone="no"?>
<!DOCTYPE svg PUBLIC "-//W3C//DTD SVG 1.1//EN"
 "http://www.w3.org/Graphics/SVG/1.1/DTD/svg11.dtd">
<!-- Generated by graphviz version 2.38.0 (20140413.2041)
 -->
<!-- Title: instruction.h Pages: 1 -->
<svg width="1097pt" height="207pt"
 viewBox="0.00 0.00 1097.00 207.00" xmlns="http://www.w3.org/2000/svg" xmlns:xlink="http://www.w3.org/1999/xlink">
<g id="graph0" class="graph" transform="scale(1 1) rotate(0) translate(4 203)">
<title>instruction.h</title>
<polygon fill="white" stroke="none" points="-4,4 -4,-203 1093,-203 1093,4 -4,4"/>
<!-- Node1 -->
<g id="node1" class="node"><title>Node1</title>
<polygon fill="#bfbfbf" stroke="black" points="280,-179.5 280,-198.5 356,-198.5 356,-179.5 280,-179.5"/>
<text text-anchor="middle" x="318" y="-186.5" font-family="Helvetica,sans-Serif" font-size="10.00">instruction.h</text>
</g>
<!-- Node2 -->
<g id="node2" class="node"><title>Node2</title>
<polygon fill="white" stroke="#bfbfbf" points="45.5,-67.5 45.5,-86.5 102.5,-86.5 102.5,-67.5 45.5,-67.5"/>
<text text-anchor="middle" x="74" y="-74.5" font-family="Helvetica,sans-Serif" font-size="10.00">memory</text>
</g>
<!-- Node1&#45;&gt;Node2 -->
<g id="edge1" class="edge"><title>Node1&#45;&gt;Node2</title>
<path fill="none" stroke="midnightblue" d="M298.854,-179.368C256.092,-160.091 152.643,-113.454 102.369,-90.7894"/>
<polygon fill="midnightblue" stroke="midnightblue" points="103.612,-87.5106 93.0573,-86.5914 100.735,-93.8921 103.612,-87.5106"/>
</g>
<!-- Node3 -->
<g id="node3" class="node"><title>Node3</title>
<polygon fill="white" stroke="#bfbfbf" points="0,-6 0,-25 44,-25 44,-6 0,-6"/>
<text text-anchor="middle" x="22" y="-13" font-family="Helvetica,sans-Serif" font-size="10.00">string</text>
</g>
<!-- Node1&#45;&gt;Node3 -->
<g id="edge2" class="edge"><title>Node1&#45;&gt;Node3</title>
<path fill="none" stroke="midnightblue" d="M279.785,-186.232C218.081,-181.169 97.2494,-161.696 36,-87 24.1575,-72.5576 21.377,-50.9044 21.1103,-35.4088"/>
<polygon fill="midnightblue" stroke="midnightblue" points="24.6099,-35.4585 21.2668,-25.405 17.6107,-35.349 24.6099,-35.4585"/>
</g>
<!-- Node4 -->
<g id="node4" class="node"><title>Node4</title>
<polygon fill="white" stroke="#bfbfbf" points="332.5,-6 332.5,-25 379.5,-25 379.5,-6 332.5,-6"/>
<text text-anchor="middle" x="356" y="-13" font-family="Helvetica,sans-Serif" font-size="10.00">vector</text>
</g>
<!-- Node1&#45;&gt;Node4 -->
<g id="edge3" class="edge"><title>Node1&#45;&gt;Node4</title>
<path fill="none" stroke="midnightblue" d="M326.349,-179.396C334.249,-170.818 345.922,-156.945 353,-143 364.715,-119.918 365.41,-112.635 369,-87 371.504,-69.124 366.998,-48.8752 362.622,-34.6796"/>
<polygon fill="midnightblue" stroke="midnightblue" points="365.92,-33.5084 359.418,-25.1435 359.285,-35.7375 365.92,-33.5084"/>
</g>
<!-- Node5 -->
<g id="node5" class="node"><title>Node5</title>
<polygon fill="white" stroke="#bfbfbf" points="465,-6 465,-25 593,-25 593,-6 465,-6"/>
<text text-anchor="middle" x="529" y="-13" font-family="Helvetica,sans-Serif" font-size="10.00">boost/noncopyable.hpp</text>
</g>
<!-- Node1&#45;&gt;Node5 -->
<g id="edge4" class="edge"><title>Node1&#45;&gt;Node5</title>
<path fill="none" stroke="midnightblue" d="M356.013,-185.484C398.88,-181.369 469.682,-170.65 524,-143 563.1,-123.097 605.178,-106.931 587,-67 580.1,-51.8439 566.156,-39.4688 553.669,-30.7625"/>
<polygon fill="midnightblue" stroke="midnightblue" points="555.245,-27.6118 544.956,-25.084 551.423,-33.4763 555.245,-27.6118"/>
</g>
<!-- Node6 -->
<g id="node6" class="node"><title>Node6</title>
<g id="a_node6"><a xlink:href="element_8h.xhtml" target="_top" xlink:title="Helper classes, structs, and properties common to all other classes. ">
<polygon fill="white" stroke="black" points="513.5,-67.5 513.5,-86.5 578.5,-86.5 578.5,-67.5 513.5,-67.5"/>
<text text-anchor="middle" x="546" y="-74.5" font-family="Helvetica,sans-Serif" font-size="10.00">element.h</text>
</a>
</g>
</g>
<!-- Node1&#45;&gt;Node6 -->
<g id="edge5" class="edge"><title>Node1&#45;&gt;Node6</title>
<path fill="none" stroke="midnightblue" d="M356.07,-186.1C394.975,-182.524 455.67,-172.277 499,-143 516.438,-131.218 529.667,-110.694 537.579,-95.8562"/>
<polygon fill="midnightblue" stroke="midnightblue" points="540.832,-97.1763 542.193,-86.6693 534.577,-94.0343 540.832,-97.1763"/>
</g>
<!-- Node11 -->
<g id="node11" class="node"><title>Node11</title>
<g id="a_node11"><a xlink:href="event_8h.xhtml" target="_top" xlink:title="Contains event classes for fault trees. ">
<polygon fill="white" stroke="black" points="291.5,-123.5 291.5,-142.5 344.5,-142.5 344.5,-123.5 291.5,-123.5"/>
<text text-anchor="middle" x="318" y="-130.5" font-family="Helvetica,sans-Serif" font-size="10.00">event.h</text>
</a>
</g>
</g>
<!-- Node1&#45;&gt;Node11 -->
<g id="edge13" class="edge"><title>Node1&#45;&gt;Node11</title>
<path fill="none" stroke="midnightblue" d="M318,-179.083C318,-172.006 318,-161.861 318,-152.986"/>
<polygon fill="midnightblue" stroke="midnightblue" points="321.5,-152.751 318,-142.751 314.5,-152.751 321.5,-152.751"/>
</g>
<!-- Node14 -->
<g id="node14" class="node"><title>Node14</title>
<g id="a_node14"><a xlink:href="expression_8h.xhtml" target="_top" xlink:title="Provides the base class for all expressions and units for expression values. ">
<polygon fill="white" stroke="black" points="159.5,-67.5 159.5,-86.5 236.5,-86.5 236.5,-67.5 159.5,-67.5"/>
<text text-anchor="middle" x="198" y="-74.5" font-family="Helvetica,sans-Serif" font-size="10.00">expression.h</text>
</a>
</g>
</g>
<!-- Node1&#45;&gt;Node14 -->
<g id="edge29" class="edge"><title>Node1&#45;&gt;Node14</title>
<path fill="none" stroke="midnightblue" d="M308.584,-179.368C288.342,-160.814 240.45,-116.913 214.841,-93.4376"/>
<polygon fill="midnightblue" stroke="midnightblue" points="217.109,-90.7686 207.372,-86.5914 212.379,-95.9287 217.109,-90.7686"/>
</g>
<!-- Node6&#45;&gt;Node3 -->
<g id="edge7" class="edge"><title>Node6&#45;&gt;Node3</title>
<path fill="none" stroke="midnightblue" d="M513.43,-74.4965C418.025,-69.8605 140.422,-54.656 53,-31 51.0643,-30.4762 49.1002,-29.8385 47.1489,-29.126"/>
<polygon fill="midnightblue" stroke="midnightblue" points="48.2618,-25.7965 37.6884,-25.1218 45.5332,-32.2429 48.2618,-25.7965"/>
</g>
<!-- Node6&#45;&gt;Node4 -->
<g id="edge8" class="edge"><title>Node6&#45;&gt;Node4</title>
<path fill="none" stroke="midnightblue" d="M513.476,-68.2383C481.215,-60.1901 430.577,-46.6121 388,-31 386.386,-30.4081 384.739,-29.7708 383.087,-29.1052"/>
<polygon fill="midnightblue" stroke="midnightblue" points="384.316,-25.8242 373.746,-25.1036 381.56,-32.2587 384.316,-25.8242"/>
</g>
<!-- Node6&#45;&gt;Node5 -->
<g id="edge12" class="edge"><title>Node6&#45;&gt;Node5</title>
<path fill="none" stroke="midnightblue" d="M543.564,-67.4751C541.141,-58.9919 537.344,-45.7043 534.235,-34.8222"/>
<polygon fill="midnightblue" stroke="midnightblue" points="537.544,-33.6628 531.431,-25.0091 530.813,-35.5859 537.544,-33.6628"/>
</g>
<!-- Node7 -->
<g id="node7" class="node"><title>Node7</title>
<polygon fill="white" stroke="#bfbfbf" points="397.5,-6 397.5,-25 446.5,-25 446.5,-6 397.5,-6"/>
<text text-anchor="middle" x="422" y="-13" font-family="Helvetica,sans-Serif" font-size="10.00">cstdint</text>
</g>
<!-- Node6&#45;&gt;Node7 -->
<g id="edge6" class="edge"><title>Node6&#45;&gt;Node7</title>
<path fill="none" stroke="midnightblue" d="M528.234,-67.4751C507.516,-57.5338 473.048,-40.9947 449.011,-29.461"/>
<polygon fill="midnightblue" stroke="midnightblue" points="450.263,-26.1797 439.733,-25.0091 447.235,-32.4908 450.263,-26.1797"/>
</g>
<!-- Node8 -->
<g id="node8" class="node"><title>Node8</title>
<polygon fill="white" stroke="#bfbfbf" points="611,-0.5 611,-30.5 751,-30.5 751,-0.5 611,-0.5"/>
<text text-anchor="start" x="619" y="-18.5" font-family="Helvetica,sans-Serif" font-size="10.00">boost/multi_index/hashed</text>
<text text-anchor="middle" x="681" y="-7.5" font-family="Helvetica,sans-Serif" font-size="10.00">_index.hpp</text>
</g>
<!-- Node6&#45;&gt;Node8 -->
<g id="edge9" class="edge"><title>Node6&#45;&gt;Node8</title>
<path fill="none" stroke="midnightblue" d="M565.342,-67.4751C584.737,-58.9271 615.199,-45.5011 639.993,-34.5734"/>
<polygon fill="midnightblue" stroke="midnightblue" points="641.444,-37.7588 649.183,-30.523 638.621,-31.3534 641.444,-37.7588"/>
</g>
<!-- Node9 -->
<g id="node9" class="node"><title>Node9</title>
<polygon fill="white" stroke="#bfbfbf" points="769,-0.5 769,-30.5 899,-30.5 899,-0.5 769,-0.5"/>
<text text-anchor="start" x="777" y="-18.5" font-family="Helvetica,sans-Serif" font-size="10.00">boost/multi_index/mem</text>
<text text-anchor="middle" x="834" y="-7.5" font-family="Helvetica,sans-Serif" font-size="10.00">_fun.hpp</text>
</g>
<!-- Node6&#45;&gt;Node9 -->
<g id="edge10" class="edge"><title>Node6&#45;&gt;Node9</title>
<path fill="none" stroke="midnightblue" d="M578.757,-69.2325C622.309,-60.2347 700.575,-44.0653 758.997,-31.9954"/>
<polygon fill="midnightblue" stroke="midnightblue" points="759.842,-35.3948 768.927,-29.9439 758.426,-28.5396 759.842,-35.3948"/>
</g>
<!-- Node10 -->
<g id="node10" class="node"><title>Node10</title>
<polygon fill="white" stroke="#bfbfbf" points="917,-6 917,-25 1089,-25 1089,-6 917,-6"/>
<text text-anchor="middle" x="1003" y="-13" font-family="Helvetica,sans-Serif" font-size="10.00">boost/multi_index_container.hpp</text>
</g>
<!-- Node6&#45;&gt;Node10 -->
<g id="edge11" class="edge"><title>Node6&#45;&gt;Node10</title>
<path fill="none" stroke="midnightblue" d="M578.983,-72.2109C642.657,-64.8268 786.926,-47.7619 908,-31 917.916,-29.6272 928.402,-28.1014 938.647,-26.5697"/>
<polygon fill="midnightblue" stroke="midnightblue" points="939.415,-29.9936 948.781,-25.0415 938.371,-23.0719 939.415,-29.9936"/>
</g>
<!-- Node11&#45;&gt;Node2 -->
<g id="edge15" class="edge"><title>Node11&#45;&gt;Node2</title>
<path fill="none" stroke="midnightblue" d="M291.423,-126.118C248.206,-116.554 162.516,-97.5897 112.588,-86.5399"/>
<polygon fill="midnightblue" stroke="midnightblue" points="113.323,-83.1181 102.803,-84.3745 111.811,-89.9527 113.323,-83.1181"/>
</g>
<!-- Node11&#45;&gt;Node3 -->
<g id="edge16" class="edge"><title>Node11&#45;&gt;Node3</title>
<path fill="none" stroke="midnightblue" d="M291.462,-126.967C257.801,-120.116 198.321,-106.444 150,-87 139.405,-82.7364 80.3842,-49.5895 46.3052,-30.3018"/>
<polygon fill="midnightblue" stroke="midnightblue" points="47.8414,-27.1494 37.4156,-25.2647 44.3905,-33.2397 47.8414,-27.1494"/>
</g>
<!-- Node11&#45;&gt;Node4 -->
<g id="edge19" class="edge"><title>Node11&#45;&gt;Node4</title>
<path fill="none" stroke="midnightblue" d="M327.101,-123.329C335.262,-114.913 346.735,-101.339 352,-87 358.134,-70.2916 358.597,-49.8591 357.849,-35.3008"/>
<polygon fill="midnightblue" stroke="midnightblue" points="361.319,-34.7753 357.074,-25.0682 354.339,-35.304 361.319,-34.7753"/>
</g>
<!-- Node11&#45;&gt;Node5 -->
<g id="edge20" class="edge"><title>Node11&#45;&gt;Node5</title>
<path fill="none" stroke="midnightblue" d="M333.859,-123.319C370.379,-103.328 460.623,-53.9294 504.398,-29.9667"/>
<polygon fill="midnightblue" stroke="midnightblue" points="506.153,-32.9963 513.245,-25.1245 502.792,-26.856 506.153,-32.9963"/>
</g>
<!-- Node11&#45;&gt;Node6 -->
<g id="edge21" class="edge"><title>Node11&#45;&gt;Node6</title>
<path fill="none" stroke="midnightblue" d="M344.601,-125.7C383.67,-116.447 456.967,-99.0867 503.537,-88.0571"/>
<polygon fill="midnightblue" stroke="midnightblue" points="504.408,-91.4476 513.332,-85.7371 502.795,-84.6361 504.408,-91.4476"/>
</g>
<!-- Node11&#45;&gt;Node7 -->
<g id="edge14" class="edge"><title>Node11&#45;&gt;Node7</title>
<path fill="none" stroke="midnightblue" d="M329.131,-123.288C339.876,-114.63 356.334,-100.699 369,-87 384.69,-70.0296 400.303,-48.563 410.475,-33.8014"/>
<polygon fill="midnightblue" stroke="midnightblue" points="413.603,-35.4244 416.32,-25.1838 407.81,-31.4951 413.603,-35.4244"/>
</g>
<!-- Node12 -->
<g id="node12" class="node"><title>Node12</title>
<polygon fill="white" stroke="#bfbfbf" points="272,-6 272,-25 314,-25 314,-6 272,-6"/>
<text text-anchor="middle" x="293" y="-13" font-family="Helvetica,sans-Serif" font-size="10.00">utility</text>
</g>
<!-- Node11&#45;&gt;Node12 -->
<g id="edge17" class="edge"><title>Node11&#45;&gt;Node12</title>
<path fill="none" stroke="midnightblue" d="M308.712,-123.395C300.419,-115.025 288.856,-101.483 284,-87 278.311,-70.0331 281.956,-49.6634 286.186,-35.192"/>
<polygon fill="midnightblue" stroke="midnightblue" points="289.597,-36.0223 289.389,-25.4295 282.946,-33.8399 289.597,-36.0223"/>
</g>
<!-- Node13 -->
<g id="node13" class="node"><title>Node13</title>
<polygon fill="white" stroke="#bfbfbf" points="293,-67.5 293,-86.5 343,-86.5 343,-67.5 293,-67.5"/>
<text text-anchor="middle" x="318" y="-74.5" font-family="Helvetica,sans-Serif" font-size="10.00">variant</text>
</g>
<!-- Node11&#45;&gt;Node13 -->
<g id="edge18" class="edge"><title>Node11&#45;&gt;Node13</title>
<path fill="none" stroke="midnightblue" d="M318,-123.083C318,-116.006 318,-105.861 318,-96.9865"/>
<polygon fill="midnightblue" stroke="midnightblue" points="321.5,-96.751 318,-86.7511 314.5,-96.7511 321.5,-96.751"/>
</g>
<!-- Node11&#45;&gt;Node14 -->
<g id="edge22" class="edge"><title>Node11&#45;&gt;Node14</title>
<path fill="none" stroke="midnightblue" d="M298.986,-123.444C279.412,-114.636 248.692,-100.812 226.271,-90.722"/>
<polygon fill="midnightblue" stroke="midnightblue" points="227.481,-87.4284 216.925,-86.5164 224.608,-93.8119 227.481,-87.4284"/>
</g>
<!-- Node14&#45;&gt;Node3 -->
<g id="edge24" class="edge"><title>Node14&#45;&gt;Node3</title>
<path fill="none" stroke="midnightblue" d="M166.178,-67.4783C136.512,-59.2168 91.2247,-45.7914 53,-31 51.5801,-30.4505 50.1338,-29.8658 48.6807,-29.2583"/>
<polygon fill="midnightblue" stroke="midnightblue" points="49.7588,-25.9077 39.1984,-25.0531 46.9209,-32.3067 49.7588,-25.9077"/>
</g>
<!-- Node14&#45;&gt;Node4 -->
<g id="edge26" class="edge"><title>Node14&#45;&gt;Node4</title>
<path fill="none" stroke="midnightblue" d="M223.569,-67.3696C248.969,-58.6617 288.94,-44.5952 323,-31 324.598,-30.362 326.234,-29.6938 327.881,-29.0092"/>
<polygon fill="midnightblue" stroke="midnightblue" points="329.427,-32.1544 337.247,-25.0054 326.676,-25.7179 329.427,-32.1544"/>
</g>
<!-- Node14&#45;&gt;Node5 -->
<g id="edge28" class="edge"><title>Node14&#45;&gt;Node5</title>
<path fill="none" stroke="midnightblue" d="M236.794,-69.4578C287.15,-60.9083 377.728,-45.3341 455,-31 461.832,-29.7326 469.012,-28.3674 476.103,-26.9995"/>
<polygon fill="midnightblue" stroke="midnightblue" points="477.226,-30.3469 486.375,-25.0045 475.891,-23.4752 477.226,-30.3469"/>
</g>
<!-- Node14&#45;&gt;Node12 -->
<g id="edge25" class="edge"><title>Node14&#45;&gt;Node12</title>
<path fill="none" stroke="midnightblue" d="M211.611,-67.4751C227.061,-57.7989 252.49,-41.8721 270.816,-30.3941"/>
<polygon fill="midnightblue" stroke="midnightblue" points="272.797,-33.2834 279.414,-25.0091 269.081,-27.3509 272.797,-33.2834"/>
</g>
<!-- Node15 -->
<g id="node15" class="node"><title>Node15</title>
<polygon fill="white" stroke="#bfbfbf" points="62,-6 62,-25 124,-25 124,-6 62,-6"/>
<text text-anchor="middle" x="93" y="-13" font-family="Helvetica,sans-Serif" font-size="10.00">algorithm</text>
</g>
<!-- Node14&#45;&gt;Node15 -->
<g id="edge23" class="edge"><title>Node14&#45;&gt;Node15</title>
<path fill="none" stroke="midnightblue" d="M182.956,-67.4751C165.725,-57.7106 137.26,-41.5807 116.966,-30.0808"/>
<polygon fill="midnightblue" stroke="midnightblue" points="118.442,-26.8942 108.016,-25.0091 114.991,-32.9843 118.442,-26.8942"/>
</g>
<!-- Node16 -->
<g id="node16" class="node"><title>Node16</title>
<polygon fill="white" stroke="#bfbfbf" points="142,-0.5 142,-30.5 254,-30.5 254,-0.5 142,-0.5"/>
<text text-anchor="start" x="150" y="-18.5" font-family="Helvetica,sans-Serif" font-size="10.00">boost/icl/continuous</text>
<text text-anchor="middle" x="198" y="-7.5" font-family="Helvetica,sans-Serif" font-size="10.00">_interval.hpp</text>
</g>
<!-- Node14&#45;&gt;Node16 -->
<g id="edge27" class="edge"><title>Node14&#45;&gt;Node16</title>
<path fill="none" stroke="midnightblue" d="M198,-67.4751C198,-60.471 198,-50.1919 198,-40.6956"/>
<polygon fill="midnightblue" stroke="midnightblue" points="201.5,-40.5229 198,-30.523 194.5,-40.523 201.5,-40.5229"/>
</g>
</g>
</svg>
