<?xml version="1.0" encoding="UTF-8" standalone="no"?>
<!DOCTYPE svg PUBLIC "-//W3C//DTD SVG 1.1//EN"
 "http://www.w3.org/Graphics/SVG/1.1/DTD/svg11.dtd">
<!-- Generated by graphviz version 2.38.0 (20140413.2041)
 -->
<!-- Title: instruction.h Pages: 1 -->
<!--zoomable 308 -->
<svg id="main" version="1.1" xmlns="http://www.w3.org/2000/svg" xmlns:xlink="http://www.w3.org/1999/xlink" xml:space="preserve" onload="init(evt)">
<style type="text/css"><![CDATA[
.edge:hover path { stroke: red; }
.edge:hover polygon { stroke: red; fill: red; }
]]></style>
<script type="text/javascript"><![CDATA[
var edges = document.getElementsByTagName('g');
if (edges && edges.length) {
  for (var i=0;i<edges.length;i++) {
    if (edges[i].id.substr(0,4)=='edge') {
      edges[i].setAttribute('class','edge');
    }
  }
}
]]></script>
        <defs>
                <circle id="rim" cx="0" cy="0" r="7"/>
                <circle id="rim2" cx="0" cy="0" r="3.5"/>
                <g id="zoomPlus">
                        <use xlink:href="#rim" fill="#404040">
                                <set attributeName="fill" to="#808080" begin="zoomplus.mouseover" end="zoomplus.mouseout"/>
                        </use>
                        <path d="M-4,0h8M0,-4v8" fill="none" stroke="white" stroke-width="1.5" pointer-events="none"/>
                </g>
                <g id="zoomMin">
                        <use xlink:href="#rim" fill="#404040">
                                <set attributeName="fill" to="#808080" begin="zoomminus.mouseover" end="zoomminus.mouseout"/>
                        </use>
                        <path d="M-4,0h8" fill="none" stroke="white" stroke-width="1.5" pointer-events="none"/>
                </g>
                <g id="dirArrow">
                        <path fill="none" stroke="white" stroke-width="1.5" d="M0,-3.0v7 M-2.5,-0.5L0,-3.0L2.5,-0.5"/>
                </g>
               <g id="resetDef">
                       <use xlink:href="#rim2" fill="#404040">
                               <set attributeName="fill" to="#808080" begin="reset.mouseover" end="reset.mouseout"/>
                       </use>
               </g>
        </defs>

<script type="text/javascript">
var viewWidth = 729;
var viewHeight = 308;
var sectionId = 'dynsection-1';
</script>
<script xlink:href="svgpan.js"/>
<svg id="graph" class="graph">
<g id="viewport">
<title>instruction.h</title>
<polygon fill="white" stroke="none" points="-4,4 -4,-304 725,-304 725,4 -4,4"/>
<!-- Node1 -->
<g id="node1" class="node"><title>Node1</title>
<polygon fill="#bfbfbf" stroke="black" points="355,-280.5 355,-299.5 431,-299.5 431,-280.5 355,-280.5"/>
<text text-anchor="middle" x="393" y="-287.5" font-family="Helvetica,sans-Serif" font-size="10.00">instruction.h</text>
</g>
<!-- Node2 -->
<g id="node2" class="node"><title>Node2</title>
<g id="a_node2"><a xlink:href="alignment_8h.xhtml" target="_top" xlink:title="Mission and phase constructs. ">
<polygon fill="white" stroke="black" points="223,-224.5 223,-243.5 297,-243.5 297,-224.5 223,-224.5"/>
<text text-anchor="middle" x="260" y="-231.5" font-family="Helvetica,sans-Serif" font-size="10.00">alignment.h</text>
</a>
</g>
</g>
<!-- Node1&#45;&gt;Node2 -->
<g id="edge1" class="edge"><title>Node1&#45;&gt;Node2</title>
<path fill="none" stroke="midnightblue" d="M362.552,-276.638C337.593,-266.504 302.923,-252.427 280.976,-243.516"/>
<polygon fill="midnightblue" stroke="midnightblue" points="361.344,-279.924 371.926,-280.444 363.977,-273.439 361.344,-279.924"/>
</g>
<!-- Node4 -->
<g id="node4" class="node"><title>Node4</title>
<g id="a_node4"><a xlink:href="initializer_8h.xhtml" target="_top" xlink:title="A facility that processes input files into analysis constructs. ">
<polygon fill="white" stroke="black" points="405.5,-112.5 405.5,-131.5 472.5,-131.5 472.5,-112.5 405.5,-112.5"/>
<text text-anchor="middle" x="439" y="-119.5" font-family="Helvetica,sans-Serif" font-size="10.00">initializer.h</text>
</a>
</g>
</g>
<!-- Node1&#45;&gt;Node4 -->
<g id="edge32" class="edge"><title>Node1&#45;&gt;Node4</title>
<path fill="none" stroke="midnightblue" d="M377.576,-272.705C356.689,-248.581 324.367,-202.5 346,-168 358.959,-147.333 384.396,-135.925 405.396,-129.77"/>
<polygon fill="midnightblue" stroke="midnightblue" points="375.09,-275.175 384.38,-280.268 380.294,-270.493 375.09,-275.175"/>
</g>
<!-- Node7 -->
<g id="node7" class="node"><title>Node7</title>
<g id="a_node7"><a xlink:href="model_8h.xhtml" target="_top" xlink:title="Representation for a model container for risk analysis. ">
<polygon fill="white" stroke="black" points="167,-168.5 167,-187.5 223,-187.5 223,-168.5 167,-168.5"/>
<text text-anchor="middle" x="195" y="-175.5" font-family="Helvetica,sans-Serif" font-size="10.00">model.h</text>
</a>
</g>
</g>
<!-- Node1&#45;&gt;Node7 -->
<g id="edge33" class="edge"><title>Node1&#45;&gt;Node7</title>
<path fill="none" stroke="midnightblue" d="M344.477,-282.313C298.076,-274.972 232.511,-261.819 214,-244 198.245,-228.834 195.354,-201.393 194.951,-187.52"/>
<polygon fill="midnightblue" stroke="midnightblue" points="344.231,-285.816 354.647,-283.878 345.296,-278.898 344.231,-285.816"/>
</g>
<!-- Node16 -->
<g id="node16" class="node"><title>Node16</title>
<g id="a_node16"><a xlink:href="event__tree_8h.xhtml" target="_top" xlink:title="Event Tree facilities. ">
<polygon fill="white" stroke="black" points="421.5,-224.5 421.5,-243.5 498.5,-243.5 498.5,-224.5 421.5,-224.5"/>
<text text-anchor="middle" x="460" y="-231.5" font-family="Helvetica,sans-Serif" font-size="10.00">event_tree.h</text>
</a>
</g>
</g>
<!-- Node1&#45;&gt;Node16 -->
<g id="edge21" class="edge"><title>Node1&#45;&gt;Node16</title>
<path fill="none" stroke="midnightblue" d="M411.835,-273.82C423.838,-264.145 438.972,-251.948 449.039,-243.834"/>
<polygon fill="midnightblue" stroke="midnightblue" points="409.354,-271.324 403.765,-280.324 413.747,-276.774 409.354,-271.324"/>
</g>
<!-- Node17 -->
<g id="node17" class="node"><title>Node17</title>
<g id="a_node17"><a xlink:href="cycle_8h.xhtml" target="_top" xlink:title="Validation facilities to detect and print cycles in graphs. ">
<polygon fill="white" stroke="black" points="671,-168.5 671,-187.5 721,-187.5 721,-168.5 671,-168.5"/>
<text text-anchor="middle" x="696" y="-175.5" font-family="Helvetica,sans-Serif" font-size="10.00">cycle.h</text>
</a>
</g>
</g>
<!-- Node1&#45;&gt;Node17 -->
<g id="edge30" class="edge"><title>Node1&#45;&gt;Node17</title>
<path fill="none" stroke="midnightblue" d="M441.305,-285.581C507.662,-280.083 622.706,-267.442 657,-244 677.208,-230.187 688.639,-202.133 693.38,-187.824"/>
<polygon fill="midnightblue" stroke="midnightblue" points="440.78,-282.111 431.093,-286.402 441.341,-289.089 440.78,-282.111"/>
</g>
<!-- Node20 -->
<g id="node20" class="node"><title>Node20</title>
<g id="a_node20"><a xlink:href="event__tree__analysis_8cc.xhtml" target="_top" xlink:title="Implementation of event tree analysis facilities. ">
<polygon fill="white" stroke="black" points="498.5,-112.5 498.5,-131.5 623.5,-131.5 623.5,-112.5 498.5,-112.5"/>
<text text-anchor="middle" x="561" y="-119.5" font-family="Helvetica,sans-Serif" font-size="10.00">event_tree_analysis.cc</text>
</a>
</g>
</g>
<!-- Node1&#45;&gt;Node20 -->
<g id="edge31" class="edge"><title>Node1&#45;&gt;Node20</title>
<path fill="none" stroke="midnightblue" d="M441.259,-283.616C496.547,-274.55 584.574,-250.58 624,-188 638.576,-164.864 604.233,-143.15 580.737,-131.613"/>
<polygon fill="midnightblue" stroke="midnightblue" points="440.688,-280.163 431.336,-285.141 441.752,-287.081 440.688,-280.163"/>
</g>
<!-- Node3 -->
<g id="node3" class="node"><title>Node3</title>
<g id="a_node3"><a xlink:href="alignment_8cc.xhtml" target="_top" xlink:title="Implementation of alignment and phase classes. ">
<polygon fill="white" stroke="black" points="71,-168.5 71,-187.5 149,-187.5 149,-168.5 71,-168.5"/>
<text text-anchor="middle" x="110" y="-175.5" font-family="Helvetica,sans-Serif" font-size="10.00">alignment.cc</text>
</a>
</g>
</g>
<!-- Node2&#45;&gt;Node3 -->
<g id="edge2" class="edge"><title>Node2&#45;&gt;Node3</title>
<path fill="none" stroke="midnightblue" d="M226.775,-221.039C198.552,-210.879 158.738,-196.546 133.657,-187.516"/>
<polygon fill="midnightblue" stroke="midnightblue" points="225.638,-224.349 236.232,-224.444 228.009,-217.763 225.638,-224.349"/>
</g>
<!-- Node2&#45;&gt;Node4 -->
<g id="edge3" class="edge"><title>Node2&#45;&gt;Node4</title>
<path fill="none" stroke="midnightblue" d="M270.382,-215.548C279.841,-201.002 295.048,-180.678 313,-168 340.986,-148.236 378.551,-136.308 405.367,-129.747"/>
<polygon fill="midnightblue" stroke="midnightblue" points="267.349,-213.798 265.026,-224.135 273.288,-217.503 267.349,-213.798"/>
</g>
<!-- Node2&#45;&gt;Node7 -->
<g id="edge6" class="edge"><title>Node2&#45;&gt;Node7</title>
<path fill="none" stroke="midnightblue" d="M241.727,-217.82C230.082,-208.145 215.401,-195.948 205.633,-187.834"/>
<polygon fill="midnightblue" stroke="midnightblue" points="239.628,-220.626 249.557,-224.324 244.101,-215.242 239.628,-220.626"/>
</g>
<!-- Node12 -->
<g id="node12" class="node"><title>Node12</title>
<g id="a_node12"><a xlink:href="risk__analysis_8h.xhtml" target="_top" xlink:title="Contains the main system for performing analysis. ">
<polygon fill="white" stroke="black" points="292,-112.5 292,-131.5 378,-131.5 378,-112.5 292,-112.5"/>
<text text-anchor="middle" x="335" y="-119.5" font-family="Helvetica,sans-Serif" font-size="10.00">risk_analysis.h</text>
</a>
</g>
</g>
<!-- Node2&#45;&gt;Node12 -->
<g id="edge20" class="edge"><title>Node2&#45;&gt;Node12</title>
<path fill="none" stroke="midnightblue" d="M260.931,-214.065C262.385,-200.323 266.016,-181.801 275,-168 285.513,-151.85 303.924,-139.333 317.587,-131.646"/>
<polygon fill="midnightblue" stroke="midnightblue" points="257.423,-214.037 260.153,-224.274 264.403,-214.569 257.423,-214.037"/>
</g>
<!-- Node5 -->
<g id="node5" class="node"><title>Node5</title>
<g id="a_node5"><a xlink:href="initializer_8cc.xhtml" target="_top" xlink:title="Implementation of input file processing into analysis constructs. ">
<polygon fill="white" stroke="black" points="548.5,-56.5 548.5,-75.5 619.5,-75.5 619.5,-56.5 548.5,-56.5"/>
<text text-anchor="middle" x="584" y="-63.5" font-family="Helvetica,sans-Serif" font-size="10.00">initializer.cc</text>
</a>
</g>
</g>
<!-- Node4&#45;&gt;Node5 -->
<g id="edge4" class="edge"><title>Node4&#45;&gt;Node5</title>
<path fill="none" stroke="midnightblue" d="M471.475,-108.906C498.736,-98.7536 536.992,-84.5063 561.132,-75.5164"/>
<polygon fill="midnightblue" stroke="midnightblue" points="470.125,-105.674 461.976,-112.444 472.568,-112.233 470.125,-105.674"/>
</g>
<!-- Node6 -->
<g id="node6" class="node"><title>Node6</title>
<g id="a_node6"><a xlink:href="scram_8cc.xhtml" target="_top" xlink:title="Main entrance. ">
<polygon fill="white" stroke="black" points="265,-0.5 265,-19.5 325,-19.5 325,-0.5 265,-0.5"/>
<text text-anchor="middle" x="295" y="-7.5" font-family="Helvetica,sans-Serif" font-size="10.00">scram.cc</text>
</a>
</g>
</g>
<!-- Node4&#45;&gt;Node6 -->
<g id="edge5" class="edge"><title>Node4&#45;&gt;Node6</title>
<path fill="none" stroke="midnightblue" d="M433.873,-102.411C429.053,-88.0383 420.523,-68.5399 407,-56 384.105,-34.77 349.92,-23.0088 325.343,-16.8861"/>
<polygon fill="midnightblue" stroke="midnightblue" points="430.594,-103.656 436.857,-112.202 437.29,-101.616 430.594,-103.656"/>
</g>
<!-- Node7&#45;&gt;Node4 -->
<g id="edge7" class="edge"><title>Node7&#45;&gt;Node4</title>
<path fill="none" stroke="midnightblue" d="M233.324,-168.519C280.592,-158.057 360.2,-140.439 405.257,-130.468"/>
<polygon fill="midnightblue" stroke="midnightblue" points="232.475,-165.122 223.467,-170.7 233.988,-171.956 232.475,-165.122"/>
</g>
<!-- Node8 -->
<g id="node8" class="node"><title>Node8</title>
<g id="a_node8"><a xlink:href="model_8cc.xhtml" target="_top" xlink:title="Implementation of functions in Model class. ">
<polygon fill="white" stroke="black" points="72,-112.5 72,-131.5 132,-131.5 132,-112.5 72,-112.5"/>
<text text-anchor="middle" x="102" y="-119.5" font-family="Helvetica,sans-Serif" font-size="10.00">model.cc</text>
</a>
</g>
</g>
<!-- Node7&#45;&gt;Node8 -->
<g id="edge8" class="edge"><title>Node7&#45;&gt;Node8</title>
<path fill="none" stroke="midnightblue" d="M171.194,-163.177C154.081,-153.241 131.535,-140.149 116.905,-131.655"/>
<polygon fill="midnightblue" stroke="midnightblue" points="169.653,-166.329 180.058,-168.324 173.168,-160.276 169.653,-166.329"/>
</g>
<!-- Node9 -->
<g id="node9" class="node"><title>Node9</title>
<g id="a_node9"><a xlink:href="pdag_8cc.xhtml" target="_top" xlink:title="Implementation of a Propositional Directed Acyclic Graph with indexed nodes, variables, and gates. ">
<polygon fill="white" stroke="black" points="0,-112.5 0,-131.5 54,-131.5 54,-112.5 0,-112.5"/>
<text text-anchor="middle" x="27" y="-119.5" font-family="Helvetica,sans-Serif" font-size="10.00">pdag.cc</text>
</a>
</g>
</g>
<!-- Node7&#45;&gt;Node9 -->
<g id="edge9" class="edge"><title>Node7&#45;&gt;Node9</title>
<path fill="none" stroke="midnightblue" d="M158.614,-165.304C126.958,-155.129 81.832,-140.625 53.4956,-131.516"/>
<polygon fill="midnightblue" stroke="midnightblue" points="157.789,-168.715 168.38,-168.444 159.931,-162.051 157.789,-168.715"/>
</g>
<!-- Node10 -->
<g id="node10" class="node"><title>Node10</title>
<g id="a_node10"><a xlink:href="reporter_8h.xhtml" target="_top" xlink:title="Reporter of results. ">
<polygon fill="white" stroke="black" points="66,-56.5 66,-75.5 130,-75.5 130,-56.5 66,-56.5"/>
<text text-anchor="middle" x="98" y="-63.5" font-family="Helvetica,sans-Serif" font-size="10.00">reporter.h</text>
</a>
</g>
</g>
<!-- Node7&#45;&gt;Node10 -->
<g id="edge10" class="edge"><title>Node7&#45;&gt;Node10</title>
<path fill="none" stroke="midnightblue" d="M181.915,-160.617C171.164,-147.313 155.413,-128.172 141,-112 129.497,-99.0928 115.576,-84.7415 106.753,-75.7931"/>
<polygon fill="midnightblue" stroke="midnightblue" points="179.2,-162.827 188.194,-168.428 184.656,-158.441 179.2,-162.827"/>
</g>
<!-- Node7&#45;&gt;Node12 -->
<g id="edge13" class="edge"><title>Node7&#45;&gt;Node12</title>
<path fill="none" stroke="midnightblue" d="M226.702,-164.772C253,-154.629 289.716,-140.467 312.92,-131.516"/>
<polygon fill="midnightblue" stroke="midnightblue" points="225.254,-161.579 217.183,-168.444 227.773,-168.11 225.254,-161.579"/>
</g>
<!-- Node14 -->
<g id="node14" class="node"><title>Node14</title>
<g id="a_node14"><a xlink:href="serialization_8h.xhtml" target="_top" xlink:title="The MEF Model serialization facilities. ">
<polygon fill="white" stroke="black" points="188.5,-112.5 188.5,-131.5 271.5,-131.5 271.5,-112.5 188.5,-112.5"/>
<text text-anchor="middle" x="230" y="-119.5" font-family="Helvetica,sans-Serif" font-size="10.00">serialization.h</text>
</a>
</g>
</g>
<!-- Node7&#45;&gt;Node14 -->
<g id="edge17" class="edge"><title>Node7&#45;&gt;Node14</title>
<path fill="none" stroke="midnightblue" d="M206.3,-159.566C212.322,-150.275 219.469,-139.248 224.328,-131.751"/>
<polygon fill="midnightblue" stroke="midnightblue" points="203.281,-157.788 200.78,-168.083 209.156,-161.595 203.281,-157.788"/>
</g>
<!-- Node10&#45;&gt;Node6 -->
<g id="edge12" class="edge"><title>Node10&#45;&gt;Node6</title>
<path fill="none" stroke="midnightblue" d="M139.322,-53.6733C176.858,-43.3841 231.34,-28.4498 264.9,-19.2508"/>
<polygon fill="midnightblue" stroke="midnightblue" points="137.934,-50.4244 129.215,-56.4435 139.785,-57.1754 137.934,-50.4244"/>
</g>
<!-- Node11 -->
<g id="node11" class="node"><title>Node11</title>
<g id="a_node11"><a xlink:href="reporter_8cc.xhtml" target="_top" xlink:title="Implements Reporter class. ">
<polygon fill="white" stroke="black" points="64,-0.5 64,-19.5 132,-19.5 132,-0.5 64,-0.5"/>
<text text-anchor="middle" x="98" y="-7.5" font-family="Helvetica,sans-Serif" font-size="10.00">reporter.cc</text>
</a>
</g>
</g>
<!-- Node10&#45;&gt;Node11 -->
<g id="edge11" class="edge"><title>Node10&#45;&gt;Node11</title>
<path fill="none" stroke="midnightblue" d="M98,-45.8045C98,-36.9102 98,-26.7798 98,-19.7511"/>
<polygon fill="midnightblue" stroke="midnightblue" points="94.5001,-46.083 98,-56.083 101.5,-46.083 94.5001,-46.083"/>
</g>
<!-- Node12&#45;&gt;Node6 -->
<g id="edge16" class="edge"><title>Node12&#45;&gt;Node6</title>
<path fill="none" stroke="midnightblue" d="M360.986,-107.148C380.945,-94.5986 403.196,-75.1857 391,-56 376.682,-33.4756 347.785,-22.0304 325.418,-16.3399"/>
<polygon fill="midnightblue" stroke="midnightblue" points="358.929,-104.298 352.108,-112.406 362.496,-110.321 358.929,-104.298"/>
</g>
<!-- Node12&#45;&gt;Node10 -->
<g id="edge14" class="edge"><title>Node12&#45;&gt;Node10</title>
<path fill="none" stroke="midnightblue" d="M287.551,-110.189C240.784,-99.5331 170.61,-83.544 130.057,-74.3042"/>
<polygon fill="midnightblue" stroke="midnightblue" points="286.919,-113.634 297.447,-112.444 288.474,-106.809 286.919,-113.634"/>
</g>
<!-- Node13 -->
<g id="node13" class="node"><title>Node13</title>
<g id="a_node13"><a xlink:href="risk__analysis_8cc.xhtml" target="_top" xlink:title="Implementation of risk analysis handler. ">
<polygon fill="white" stroke="black" points="292,-56.5 292,-75.5 382,-75.5 382,-56.5 292,-56.5"/>
<text text-anchor="middle" x="337" y="-63.5" font-family="Helvetica,sans-Serif" font-size="10.00">risk_analysis.cc</text>
</a>
</g>
</g>
<!-- Node12&#45;&gt;Node13 -->
<g id="edge15" class="edge"><title>Node12&#45;&gt;Node13</title>
<path fill="none" stroke="midnightblue" d="M335.711,-101.805C336.04,-92.9102 336.416,-82.7798 336.676,-75.7511"/>
<polygon fill="midnightblue" stroke="midnightblue" points="332.203,-101.96 335.33,-112.083 339.198,-102.219 332.203,-101.96"/>
</g>
<!-- Node14&#45;&gt;Node6 -->
<g id="edge18" class="edge"><title>Node14&#45;&gt;Node6</title>
<path fill="none" stroke="midnightblue" d="M205.213,-106.934C185.899,-94.1065 164.321,-74.4048 177,-56 196.59,-27.5625 236.74,-17.0833 264.736,-13.2293"/>
<polygon fill="midnightblue" stroke="midnightblue" points="203.465,-109.968 213.796,-112.314 207.182,-104.037 203.465,-109.968"/>
</g>
<!-- Node15 -->
<g id="node15" class="node"><title>Node15</title>
<g id="a_node15"><a xlink:href="serialization_8cc.xhtml" target="_top" xlink:title="serialization.cc">
<polygon fill="white" stroke="black" points="186.5,-56.5 186.5,-75.5 273.5,-75.5 273.5,-56.5 186.5,-56.5"/>
<text text-anchor="middle" x="230" y="-63.5" font-family="Helvetica,sans-Serif" font-size="10.00">serialization.cc</text>
</a>
</g>
</g>
<!-- Node14&#45;&gt;Node15 -->
<g id="edge19" class="edge"><title>Node14&#45;&gt;Node15</title>
<path fill="none" stroke="midnightblue" d="M230,-101.805C230,-92.9102 230,-82.7798 230,-75.7511"/>
<polygon fill="midnightblue" stroke="midnightblue" points="226.5,-102.083 230,-112.083 233.5,-102.083 226.5,-102.083"/>
</g>
<!-- Node16&#45;&gt;Node4 -->
<g id="edge28" class="edge"><title>Node16&#45;&gt;Node4</title>
<path fill="none" stroke="midnightblue" d="M473.928,-215.948C482.921,-202.77 491.78,-184.118 485,-168 478.502,-152.553 463.826,-139.759 452.787,-131.811"/>
<polygon fill="midnightblue" stroke="midnightblue" points="471.027,-213.985 467.872,-224.099 476.646,-218.16 471.027,-213.985"/>
</g>
<!-- Node16&#45;&gt;Node7 -->
<g id="edge29" class="edge"><title>Node16&#45;&gt;Node7</title>
<path fill="none" stroke="midnightblue" d="M411.556,-223.128C356.313,-211.871 267.867,-193.848 223.023,-184.71"/>
<polygon fill="midnightblue" stroke="midnightblue" points="410.969,-226.581 421.467,-225.148 412.367,-219.722 410.969,-226.581"/>
</g>
<!-- Node16&#45;&gt;Node17 -->
<g id="edge22" class="edge"><title>Node16&#45;&gt;Node17</title>
<path fill="none" stroke="midnightblue" d="M507.182,-222.204C556.433,-210.935 631.808,-193.688 670.753,-184.777"/>
<polygon fill="midnightblue" stroke="midnightblue" points="506.362,-218.801 497.395,-224.444 507.924,-225.625 506.362,-218.801"/>
</g>
<!-- Node18 -->
<g id="node18" class="node"><title>Node18</title>
<g id="a_node18"><a xlink:href="event__tree_8cc.xhtml" target="_top" xlink:title="Implementation of event tree facilities. ">
<polygon fill="white" stroke="black" points="533,-168.5 533,-187.5 615,-187.5 615,-168.5 533,-168.5"/>
<text text-anchor="middle" x="574" y="-175.5" font-family="Helvetica,sans-Serif" font-size="10.00">event_tree.cc</text>
</a>
</g>
</g>
<!-- Node16&#45;&gt;Node18 -->
<g id="edge24" class="edge"><title>Node16&#45;&gt;Node18</title>
<path fill="none" stroke="midnightblue" d="M487.242,-220.096C508.54,-210.007 537.542,-196.27 556.021,-187.516"/>
<polygon fill="midnightblue" stroke="midnightblue" points="485.603,-217 478.064,-224.444 488.599,-223.326 485.603,-217"/>
</g>
<!-- Node19 -->
<g id="node19" class="node"><title>Node19</title>
<g id="a_node19"><a xlink:href="event__tree__analysis_8h.xhtml" target="_top" xlink:title="Event tree analysis facilities. ">
<polygon fill="white" stroke="black" points="355.5,-168.5 355.5,-187.5 476.5,-187.5 476.5,-168.5 355.5,-168.5"/>
<text text-anchor="middle" x="416" y="-175.5" font-family="Helvetica,sans-Serif" font-size="10.00">event_tree_analysis.h</text>
</a>
</g>
</g>
<!-- Node16&#45;&gt;Node19 -->
<g id="edge25" class="edge"><title>Node16&#45;&gt;Node19</title>
<path fill="none" stroke="midnightblue" d="M446.265,-216.144C438.599,-206.736 429.367,-195.405 423.131,-187.751"/>
<polygon fill="midnightblue" stroke="midnightblue" points="443.704,-218.541 452.734,-224.083 449.131,-214.12 443.704,-218.541"/>
</g>
<!-- Node17&#45;&gt;Node5 -->
<g id="edge23" class="edge"><title>Node17&#45;&gt;Node5</title>
<path fill="none" stroke="midnightblue" d="M680.672,-161.08C667.814,-147.812 648.896,-128.487 632,-112 618.756,-99.0763 603.052,-84.4888 593.305,-75.5186"/>
<polygon fill="midnightblue" stroke="midnightblue" points="678.356,-163.72 687.822,-168.479 683.39,-158.856 678.356,-163.72"/>
</g>
<!-- Node19&#45;&gt;Node12 -->
<g id="edge27" class="edge"><title>Node19&#45;&gt;Node12</title>
<path fill="none" stroke="midnightblue" d="M394.433,-162.622C379.636,-152.757 360.488,-139.992 347.982,-131.655"/>
<polygon fill="midnightblue" stroke="midnightblue" points="392.724,-165.689 402.986,-168.324 396.607,-159.865 392.724,-165.689"/>
</g>
<!-- Node19&#45;&gt;Node20 -->
<g id="edge26" class="edge"><title>Node19&#45;&gt;Node20</title>
<path fill="none" stroke="midnightblue" d="M448.475,-164.906C475.736,-154.754 513.992,-140.506 538.132,-131.516"/>
<polygon fill="midnightblue" stroke="midnightblue" points="447.125,-161.674 438.976,-168.444 449.568,-168.233 447.125,-161.674"/>
</g>
</g>
</svg>
        <g id="navigator" transform="translate(0 0)" fill="#404254">
                <rect fill="#f2f5e9" fill-opacity="0.5" stroke="#606060" stroke-width=".5" x="0" y="0" width="60" height="60"/>
                <use id="zoomplus" xlink:href="#zoomPlus" x="17" y="9" onmousedown="handleZoom(evt,'in')"/>
                <use id="zoomminus" xlink:href="#zoomMin" x="42" y="9" onmousedown="handleZoom(evt,'out')"/>
                <use id="reset" xlink:href="#resetDef" x="30" y="36" onmousedown="handleReset()"/>
                <g id="arrowUp" xlink:href="#dirArrow" transform="translate(30 24)" onmousedown="handlePan(0,-1)">
                  <use xlink:href="#rim" fill="#404040">
                        <set attributeName="fill" to="#808080" begin="arrowUp.mouseover" end="arrowUp.mouseout"/>
                  </use>
                  <path fill="none" stroke="white" stroke-width="1.5" d="M0,-3.0v7 M-2.5,-0.5L0,-3.0L2.5,-0.5"/>
                </g>
                <g id="arrowRight" xlink:href="#dirArrow" transform="rotate(90) translate(36 -43)" onmousedown="handlePan(1,0)">
                  <use xlink:href="#rim" fill="#404040">
                        <set attributeName="fill" to="#808080" begin="arrowRight.mouseover" end="arrowRight.mouseout"/>
                  </use>
                  <path fill="none" stroke="white" stroke-width="1.5" d="M0,-3.0v7 M-2.5,-0.5L0,-3.0L2.5,-0.5"/>
                </g>
                <g id="arrowDown" xlink:href="#dirArrow" transform="rotate(180) translate(-30 -48)" onmousedown="handlePan(0,1)">
                  <use xlink:href="#rim" fill="#404040">
                        <set attributeName="fill" to="#808080" begin="arrowDown.mouseover" end="arrowDown.mouseout"/>
                  </use>
                  <path fill="none" stroke="white" stroke-width="1.5" d="M0,-3.0v7 M-2.5,-0.5L0,-3.0L2.5,-0.5"/>
                </g>
                <g id="arrowLeft" xlink:href="#dirArrow" transform="rotate(270) translate(-36 17)" onmousedown="handlePan(-1,0)">
                  <use xlink:href="#rim" fill="#404040">
                        <set attributeName="fill" to="#808080" begin="arrowLeft.mouseover" end="arrowLeft.mouseout"/>
                  </use>
                  <path fill="none" stroke="white" stroke-width="1.5" d="M0,-3.0v7 M-2.5,-0.5L0,-3.0L2.5,-0.5"/>
                </g>
        </g>
        <svg viewBox="0 0 15 15" width="100%" height="30px" preserveAspectRatio="xMaxYMin meet">
         <g id="arrow_out" transform="scale(0.3 0.3)">
          <a xlink:href="instruction_8h__dep__incl_org.svg" target="_base">
           <rect id="button" ry="5" rx="5" y="6" x="6" height="38" width="38"
                fill="#f2f5e9" fill-opacity="0.5" stroke="#606060" stroke-width="1.0"/>
           <path id="arrow"
             d="M 11.500037,31.436501 C 11.940474,20.09759 22.043105,11.32322 32.158766,21.979434 L 37.068811,17.246167 C 37.068811,17.246167 37.088388,32 37.088388,32 L 22.160133,31.978069 C 22.160133,31.978069 26.997745,27.140456 26.997745,27.140456 C 18.528582,18.264221 13.291696,25.230495 11.500037,31.436501 z"
             style="fill:#404040;"/>
          </a>
         </g>
        </svg>
</svg>
