<?xml version="1.0" encoding="UTF-8" standalone="no"?>
<!DOCTYPE svg PUBLIC "-//W3C//DTD SVG 1.1//EN"
 "http://www.w3.org/Graphics/SVG/1.1/DTD/svg11.dtd">
<!-- Generated by graphviz version 2.38.0 (20140413.2041)
 -->
<!-- Title: mocus.h Pages: 1 -->
<!--zoomable 341 -->
<svg id="main" version="1.1" xmlns="http://www.w3.org/2000/svg" xmlns:xlink="http://www.w3.org/1999/xlink" xml:space="preserve" onload="init(evt)">
<style type="text/css"><![CDATA[
.edge:hover path { stroke: red; }
.edge:hover polygon { stroke: red; fill: red; }
]]></style>
<script type="text/javascript"><![CDATA[
var edges = document.getElementsByTagName('g');
if (edges && edges.length) {
  for (var i=0;i<edges.length;i++) {
    if (edges[i].id.substr(0,4)=='edge') {
      edges[i].setAttribute('class','edge');
    }
  }
}
]]></script>
        <defs>
                <circle id="rim" cx="0" cy="0" r="7"/>
                <circle id="rim2" cx="0" cy="0" r="3.5"/>
                <g id="zoomPlus">
                        <use xlink:href="#rim" fill="#404040">
                                <set attributeName="fill" to="#808080" begin="zoomplus.mouseover" end="zoomplus.mouseout"/>
                        </use>
                        <path d="M-4,0h8M0,-4v8" fill="none" stroke="white" stroke-width="1.5" pointer-events="none"/>
                </g>
                <g id="zoomMin">
                        <use xlink:href="#rim" fill="#404040">
                                <set attributeName="fill" to="#808080" begin="zoomminus.mouseover" end="zoomminus.mouseout"/>
                        </use>
                        <path d="M-4,0h8" fill="none" stroke="white" stroke-width="1.5" pointer-events="none"/>
                </g>
                <g id="dirArrow">
                        <path fill="none" stroke="white" stroke-width="1.5" d="M0,-3.0v7 M-2.5,-0.5L0,-3.0L2.5,-0.5"/>
                </g>
               <g id="resetDef">
                       <use xlink:href="#rim2" fill="#404040">
                               <set attributeName="fill" to="#808080" begin="reset.mouseover" end="reset.mouseout"/>
                       </use>
               </g>
        </defs>

<script type="text/javascript">
var viewWidth = 1616;
var viewHeight = 341;
var sectionId = 'dynsection-0';
</script>
<script xlink:href="svgpan.js"/>
<svg id="graph" class="graph">
<g id="viewport">
<title>mocus.h</title>
<polygon fill="white" stroke="none" points="-4,4 -4,-337 1612.45,-337 1612.45,4 -4,4"/>
<!-- Node1 -->
<g id="node1" class="node"><title>Node1</title>
<polygon fill="#bfbfbf" stroke="black" points="798,-313.5 798,-332.5 856,-332.5 856,-313.5 798,-313.5"/>
<text text-anchor="middle" x="827" y="-320.5" font-family="Helvetica,sans-Serif" font-size="10.00">mocus.h</text>
</g>
<!-- Node2 -->
<g id="node2" class="node"><title>Node2</title>
<polygon fill="white" stroke="#bfbfbf" points="1353.5,-62 1353.5,-81 1446.5,-81 1446.5,-62 1353.5,-62"/>
<text text-anchor="middle" x="1400" y="-69" font-family="Helvetica,sans-Serif" font-size="10.00">unordered_map</text>
</g>
<!-- Node1&#45;&gt;Node2 -->
<g id="edge1" class="edge"><title>Node1&#45;&gt;Node2</title>
<path fill="none" stroke="midnightblue" d="M856.168,-319.217C939.684,-309.937 1183.68,-273.537 1339,-154 1361.69,-136.537 1380.09,-108.539 1390.54,-90.3323"/>
<polygon fill="midnightblue" stroke="midnightblue" points="1393.73,-91.7984 1395.51,-81.3538 1387.61,-88.4099 1393.73,-91.7984"/>
</g>
<!-- Node3 -->
<g id="node3" class="node"><title>Node3</title>
<polygon fill="white" stroke="#bfbfbf" points="358.5,-0.5 358.5,-19.5 405.5,-19.5 405.5,-0.5 358.5,-0.5"/>
<text text-anchor="middle" x="382" y="-7.5" font-family="Helvetica,sans-Serif" font-size="10.00">vector</text>
</g>
<!-- Node1&#45;&gt;Node3 -->
<g id="edge2" class="edge"><title>Node1&#45;&gt;Node3</title>
<path fill="none" stroke="midnightblue" d="M797.567,-321.057C650.245,-315.954 0,-288.77 0,-206.5 0,-206.5 0,-206.5 0,-137.5 0,-97.7197 5.02524,-79.6661 37,-56 85.8046,-19.8773 270.729,-12.7376 347.876,-11.3369"/>
<polygon fill="midnightblue" stroke="midnightblue" points="348.079,-14.8343 358.022,-11.175 347.967,-7.83515 348.079,-14.8343"/>
</g>
<!-- Node4 -->
<g id="node4" class="node"><title>Node4</title>
<polygon fill="white" stroke="#bfbfbf" points="1465,-62 1465,-81 1593,-81 1593,-62 1465,-62"/>
<text text-anchor="middle" x="1529" y="-69" font-family="Helvetica,sans-Serif" font-size="10.00">boost/noncopyable.hpp</text>
</g>
<!-- Node1&#45;&gt;Node4 -->
<g id="edge3" class="edge"><title>Node1&#45;&gt;Node4</title>
<path fill="none" stroke="midnightblue" d="M856.195,-319.535C909.485,-314.596 1025.8,-301.774 1121,-277 1257.68,-241.43 1291.96,-225.074 1414,-154 1449.66,-133.235 1488.23,-104.467 1510.41,-87.2467"/>
<polygon fill="midnightblue" stroke="midnightblue" points="1512.62,-89.9657 1518.33,-81.0453 1508.3,-84.4538 1512.62,-89.9657"/>
</g>
<!-- Node5 -->
<g id="node5" class="node"><title>Node5</title>
<g id="a_node5"><a xlink:href="pdag_8h.xhtml" target="_top" xlink:title="Classes and facilities to represent fault trees as PDAGs with event and gate indices instead of ID na...">
<polygon fill="white" stroke="black" points="840,-129 840,-148 890,-148 890,-129 840,-129"/>
<text text-anchor="middle" x="865" y="-136" font-family="Helvetica,sans-Serif" font-size="10.00">pdag.h</text>
</a>
</g>
</g>
<!-- Node1&#45;&gt;Node5 -->
<g id="edge4" class="edge"><title>Node1&#45;&gt;Node5</title>
<path fill="none" stroke="midnightblue" d="M828.833,-313.198C834.689,-285.073 853.036,-196.958 861.115,-158.157"/>
<polygon fill="midnightblue" stroke="midnightblue" points="864.574,-158.718 863.186,-148.214 857.721,-157.291 864.574,-158.718"/>
</g>
<!-- Node21 -->
<g id="node21" class="node"><title>Node21</title>
<g id="a_node21"><a xlink:href="settings_8h.xhtml" target="_top" xlink:title="Builder for settings. ">
<polygon fill="white" stroke="black" points="73,-129 73,-148 137,-148 137,-129 73,-129"/>
<text text-anchor="middle" x="105" y="-136" font-family="Helvetica,sans-Serif" font-size="10.00">settings.h</text>
</a>
</g>
</g>
<!-- Node1&#45;&gt;Node21 -->
<g id="edge28" class="edge"><title>Node1&#45;&gt;Node21</title>
<path fill="none" stroke="midnightblue" d="M797.915,-320.798C710.648,-316.403 444.45,-297.202 240,-221 195.447,-204.395 149.213,-172.81 124.083,-154.213"/>
<polygon fill="midnightblue" stroke="midnightblue" points="125.917,-151.214 115.821,-148.001 121.71,-156.809 125.917,-151.214"/>
</g>
<!-- Node23 -->
<g id="node23" class="node"><title>Node23</title>
<g id="a_node23"><a xlink:href="zbdd_8h.xhtml" target="_top" xlink:title="Zero&#45;Suppressed Binary Decision Diagram facilities. ">
<polygon fill="white" stroke="black" points="764.5,-257.5 764.5,-276.5 813.5,-276.5 813.5,-257.5 764.5,-257.5"/>
<text text-anchor="middle" x="789" y="-264.5" font-family="Helvetica,sans-Serif" font-size="10.00">zbdd.h</text>
</a>
</g>
</g>
<!-- Node1&#45;&gt;Node23 -->
<g id="edge31" class="edge"><title>Node1&#45;&gt;Node23</title>
<path fill="none" stroke="midnightblue" d="M820.725,-313.083C815.358,-305.455 807.482,-294.264 800.921,-284.941"/>
<polygon fill="midnightblue" stroke="midnightblue" points="803.775,-282.915 795.158,-276.751 798.051,-286.943 803.775,-282.915"/>
</g>
<!-- Node5&#45;&gt;Node2 -->
<g id="edge11" class="edge"><title>Node5&#45;&gt;Node2</title>
<path fill="none" stroke="midnightblue" d="M890.139,-132.413C905.856,-129.365 926.549,-125.59 945,-123 1104.24,-100.644 1145.47,-107.138 1305,-87 1317.41,-85.4337 1330.69,-83.5415 1343.28,-81.6484"/>
<polygon fill="midnightblue" stroke="midnightblue" points="1343.84,-85.1041 1353.2,-80.1363 1342.78,-78.1841 1343.84,-85.1041"/>
</g>
<!-- Node5&#45;&gt;Node3 -->
<g id="edge13" class="edge"><title>Node5&#45;&gt;Node3</title>
<path fill="none" stroke="midnightblue" d="M839.865,-138.133C781.049,-138.718 630.894,-134.986 518,-87 497.301,-78.2017 497.189,-67.7336 478,-56 457.177,-43.2672 432.17,-31.6519 412.9,-23.4124"/>
<polygon fill="midnightblue" stroke="midnightblue" points="414.247,-20.182 403.672,-19.5362 411.536,-26.6358 414.247,-20.182"/>
</g>
<!-- Node5&#45;&gt;Node4 -->
<g id="edge15" class="edge"><title>Node5&#45;&gt;Node4</title>
<path fill="none" stroke="midnightblue" d="M890.113,-132.223C905.821,-129.103 926.513,-125.321 945,-123 1170.46,-94.6955 1229.75,-116.904 1455,-87 1463.21,-85.9099 1471.88,-84.4729 1480.29,-82.927"/>
<polygon fill="midnightblue" stroke="midnightblue" points="1481.19,-86.3177 1490.36,-81.0034 1479.88,-79.442 1481.19,-86.3177"/>
</g>
<!-- Node6 -->
<g id="node6" class="node"><title>Node6</title>
<polygon fill="white" stroke="#bfbfbf" points="153.5,-62 153.5,-81 202.5,-81 202.5,-62 153.5,-62"/>
<text text-anchor="middle" x="178" y="-69" font-family="Helvetica,sans-Serif" font-size="10.00">cstdint</text>
</g>
<!-- Node5&#45;&gt;Node6 -->
<g id="edge5" class="edge"><title>Node5&#45;&gt;Node6</title>
<path fill="none" stroke="midnightblue" d="M839.986,-136.495C756.187,-132.907 477.801,-119.179 250,-87 237.696,-85.2619 224.326,-82.7459 212.484,-80.2961"/>
<polygon fill="midnightblue" stroke="midnightblue" points="213.046,-76.8373 202.537,-78.1814 211.59,-83.6843 213.046,-76.8373"/>
</g>
<!-- Node7 -->
<g id="node7" class="node"><title>Node7</title>
<polygon fill="white" stroke="#bfbfbf" points="979.5,-62 979.5,-81 1026.5,-81 1026.5,-62 979.5,-62"/>
<text text-anchor="middle" x="1003" y="-69" font-family="Helvetica,sans-Serif" font-size="10.00">cstdlib</text>
</g>
<!-- Node5&#45;&gt;Node7 -->
<g id="edge6" class="edge"><title>Node5&#45;&gt;Node7</title>
<path fill="none" stroke="midnightblue" d="M883.325,-128.869C906.936,-117.748 948.189,-98.3167 975.552,-85.4286"/>
<polygon fill="midnightblue" stroke="midnightblue" points="977.044,-88.5947 984.599,-81.1672 974.061,-82.262 977.044,-88.5947"/>
</g>
<!-- Node8 -->
<g id="node8" class="node"><title>Node8</title>
<polygon fill="white" stroke="#bfbfbf" points="462,-0.5 462,-19.5 524,-19.5 524,-0.5 462,-0.5"/>
<text text-anchor="middle" x="493" y="-7.5" font-family="Helvetica,sans-Serif" font-size="10.00">algorithm</text>
</g>
<!-- Node5&#45;&gt;Node8 -->
<g id="edge7" class="edge"><title>Node5&#45;&gt;Node8</title>
<path fill="none" stroke="midnightblue" d="M839.614,-135.72C774.394,-130.782 602.677,-115.371 554,-87 530.32,-73.1982 512.183,-46.43 502.055,-28.6329"/>
<polygon fill="midnightblue" stroke="midnightblue" points="505.113,-26.9296 497.269,-19.8079 498.96,-30.267 505.113,-26.9296"/>
</g>
<!-- Node9 -->
<g id="node9" class="node"><title>Node9</title>
<polygon fill="white" stroke="#bfbfbf" points="1045,-62 1045,-81 1091,-81 1091,-62 1045,-62"/>
<text text-anchor="middle" x="1068" y="-69" font-family="Helvetica,sans-Serif" font-size="10.00">iosfwd</text>
</g>
<!-- Node5&#45;&gt;Node9 -->
<g id="edge8" class="edge"><title>Node5&#45;&gt;Node9</title>
<path fill="none" stroke="midnightblue" d="M890.347,-129.606C897.355,-127.444 904.967,-125.114 912,-123 966.549,-106.604 981.481,-106.497 1035,-87 1036.66,-86.3962 1038.35,-85.7496 1040.05,-85.0769"/>
<polygon fill="midnightblue" stroke="midnightblue" points="1041.79,-88.1413 1049.67,-81.0556 1039.09,-81.6828 1041.79,-88.1413"/>
</g>
<!-- Node10 -->
<g id="node10" class="node"><title>Node10</title>
<polygon fill="white" stroke="#bfbfbf" points="259.5,-62 259.5,-81 316.5,-81 316.5,-62 259.5,-62"/>
<text text-anchor="middle" x="288" y="-69" font-family="Helvetica,sans-Serif" font-size="10.00">memory</text>
</g>
<!-- Node5&#45;&gt;Node10 -->
<g id="edge9" class="edge"><title>Node5&#45;&gt;Node10</title>
<path fill="none" stroke="midnightblue" d="M839.882,-135.755C766.416,-130.482 545.669,-113.434 364,-87 351.869,-85.2348 338.728,-82.8853 326.839,-80.5925"/>
<polygon fill="midnightblue" stroke="midnightblue" points="327.258,-77.1079 316.77,-78.6083 325.905,-83.9758 327.258,-77.1079"/>
</g>
<!-- Node11 -->
<g id="node11" class="node"><title>Node11</title>
<polygon fill="white" stroke="#bfbfbf" points="1109,-62 1109,-81 1177,-81 1177,-62 1109,-62"/>
<text text-anchor="middle" x="1143" y="-69" font-family="Helvetica,sans-Serif" font-size="10.00">type_traits</text>
</g>
<!-- Node5&#45;&gt;Node11 -->
<g id="edge10" class="edge"><title>Node5&#45;&gt;Node11</title>
<path fill="none" stroke="midnightblue" d="M890.224,-129.159C897.232,-126.995 904.874,-124.776 912,-123 994.549,-102.429 1017.73,-108.642 1100,-87 1103.2,-86.1583 1106.51,-85.2024 1109.8,-84.1926"/>
<polygon fill="midnightblue" stroke="midnightblue" points="1111.07,-87.4598 1119.52,-81.0612 1108.93,-80.7972 1111.07,-87.4598"/>
</g>
<!-- Node12 -->
<g id="node12" class="node"><title>Node12</title>
<polygon fill="white" stroke="#bfbfbf" points="1225,-0.5 1225,-19.5 1267,-19.5 1267,-0.5 1225,-0.5"/>
<text text-anchor="middle" x="1246" y="-7.5" font-family="Helvetica,sans-Serif" font-size="10.00">utility</text>
</g>
<!-- Node5&#45;&gt;Node12 -->
<g id="edge12" class="edge"><title>Node5&#45;&gt;Node12</title>
<path fill="none" stroke="midnightblue" d="M876.259,-128.985C889.436,-118.997 911.887,-101.906 931,-87 948.46,-73.383 949.752,-64.9601 970,-56 1053.07,-19.2399 1162.15,-12.176 1214.84,-11.0362"/>
<polygon fill="midnightblue" stroke="midnightblue" points="1214.96,-14.5349 1224.9,-10.8772 1214.85,-7.5358 1214.96,-14.5349"/>
</g>
<!-- Node13 -->
<g id="node13" class="node"><title>Node13</title>
<polygon fill="white" stroke="#bfbfbf" points="679,-56.5 679,-86.5 789,-86.5 789,-56.5 679,-56.5"/>
<text text-anchor="start" x="687" y="-74.5" font-family="Helvetica,sans-Serif" font-size="10.00">boost/container/flat</text>
<text text-anchor="middle" x="734" y="-63.5" font-family="Helvetica,sans-Serif" font-size="10.00">_set.hpp</text>
</g>
<!-- Node5&#45;&gt;Node13 -->
<g id="edge14" class="edge"><title>Node5&#45;&gt;Node13</title>
<path fill="none" stroke="midnightblue" d="M847.604,-128.869C828.349,-119.315 796.734,-103.627 771.737,-91.2246"/>
<polygon fill="midnightblue" stroke="midnightblue" points="773.035,-87.9612 762.521,-86.6516 769.923,-94.2317 773.035,-87.9612"/>
</g>
<!-- Node14 -->
<g id="node14" class="node"><title>Node14</title>
<polygon fill="white" stroke="#bfbfbf" points="807.5,-56.5 807.5,-86.5 922.5,-86.5 922.5,-56.5 807.5,-56.5"/>
<text text-anchor="start" x="815.5" y="-74.5" font-family="Helvetica,sans-Serif" font-size="10.00">boost/range/adaptor</text>
<text text-anchor="middle" x="865" y="-63.5" font-family="Helvetica,sans-Serif" font-size="10.00">/transformed.hpp</text>
</g>
<!-- Node5&#45;&gt;Node14 -->
<g id="edge16" class="edge"><title>Node5&#45;&gt;Node14</title>
<path fill="none" stroke="midnightblue" d="M865,-128.734C865,-120.541 865,-107.923 865,-96.7136"/>
<polygon fill="midnightblue" stroke="midnightblue" points="868.5,-96.589 865,-86.589 861.5,-96.5891 868.5,-96.589"/>
</g>
<!-- Node15 -->
<g id="node15" class="node"><title>Node15</title>
<g id="a_node15"><a xlink:href="find__iterator_8h.xhtml" target="_top" xlink:title="Convenience iterator adaptor to wrap find calls and results. ">
<polygon fill="white" stroke="black" points="1195.5,-62 1195.5,-81 1296.5,-81 1296.5,-62 1195.5,-62"/>
<text text-anchor="middle" x="1246" y="-69" font-family="Helvetica,sans-Serif" font-size="10.00">ext/find_iterator.h</text>
</a>
</g>
</g>
<!-- Node5&#45;&gt;Node15 -->
<g id="edge17" class="edge"><title>Node5&#45;&gt;Node15</title>
<path fill="none" stroke="midnightblue" d="M890.16,-128.882C897.167,-126.717 904.825,-124.566 912,-123 1032,-96.8026 1065.25,-109.458 1186,-87 1191.74,-85.933 1197.75,-84.6639 1203.66,-83.3269"/>
<polygon fill="midnightblue" stroke="midnightblue" points="1204.5,-86.7243 1213.44,-81.0365 1202.9,-79.9086 1204.5,-86.7243"/>
</g>
<!-- Node16 -->
<g id="node16" class="node"><title>Node16</title>
<g id="a_node16"><a xlink:href="index__map_8h.xhtml" target="_top" xlink:title="Non&#45;zero based Index&#45;&gt;Value map adapter on sequential containers. ">
<polygon fill="white" stroke="black" points="373,-62 373,-81 469,-81 469,-62 373,-62"/>
<text text-anchor="middle" x="421" y="-69" font-family="Helvetica,sans-Serif" font-size="10.00">ext/index_map.h</text>
</a>
</g>
</g>
<!-- Node5&#45;&gt;Node16 -->
<g id="edge19" class="edge"><title>Node5&#45;&gt;Node16</title>
<path fill="none" stroke="midnightblue" d="M839.838,-135.039C778.517,-128.854 616.591,-111.391 483,-87 477.078,-85.9189 470.871,-84.6416 464.767,-83.3006"/>
<polygon fill="midnightblue" stroke="midnightblue" points="465.187,-79.8071 454.661,-81.0069 463.638,-86.6335 465.187,-79.8071"/>
</g>
<!-- Node17 -->
<g id="node17" class="node"><title>Node17</title>
<g id="a_node17"><a xlink:href="linear__map_8h.xhtml" target="_top" xlink:title="Implementation of a vector&#45;based map for a small number of entries. ">
<polygon fill="white" stroke="black" points="563.5,-62 563.5,-81 660.5,-81 660.5,-62 563.5,-62"/>
<text text-anchor="middle" x="612" y="-69" font-family="Helvetica,sans-Serif" font-size="10.00">ext/linear_map.h</text>
</a>
</g>
</g>
<!-- Node5&#45;&gt;Node17 -->
<g id="edge21" class="edge"><title>Node5&#45;&gt;Node17</title>
<path fill="none" stroke="midnightblue" d="M839.816,-131.03C796.723,-119.959 708.361,-97.2569 655.239,-83.609"/>
<polygon fill="midnightblue" stroke="midnightblue" points="655.986,-80.187 645.429,-81.0885 654.244,-86.9669 655.986,-80.187"/>
</g>
<!-- Node15&#45;&gt;Node12 -->
<g id="edge18" class="edge"><title>Node15&#45;&gt;Node12</title>
<path fill="none" stroke="midnightblue" d="M1246,-61.9751C1246,-53.5803 1246,-40.4806 1246,-29.6631"/>
<polygon fill="midnightblue" stroke="midnightblue" points="1249.5,-29.5091 1246,-19.5091 1242.5,-29.5091 1249.5,-29.5091"/>
</g>
<!-- Node16&#45;&gt;Node3 -->
<g id="edge20" class="edge"><title>Node16&#45;&gt;Node3</title>
<path fill="none" stroke="midnightblue" d="M415.412,-61.9751C409.62,-53.1384 400.411,-39.0886 393.126,-27.975"/>
<polygon fill="midnightblue" stroke="midnightblue" points="395.987,-25.9539 387.577,-19.5091 390.132,-29.7913 395.987,-25.9539"/>
</g>
<!-- Node17&#45;&gt;Node3 -->
<g id="edge27" class="edge"><title>Node17&#45;&gt;Node3</title>
<path fill="none" stroke="midnightblue" d="M579.047,-61.9751C535.579,-50.7302 459.479,-31.0435 415.661,-19.7079"/>
<polygon fill="midnightblue" stroke="midnightblue" points="416.336,-16.2674 405.778,-17.1513 414.583,-23.0443 416.336,-16.2674"/>
</g>
<!-- Node17&#45;&gt;Node8 -->
<g id="edge23" class="edge"><title>Node17&#45;&gt;Node8</title>
<path fill="none" stroke="midnightblue" d="M594.95,-61.9751C575.156,-52.078 542.283,-35.6416 519.23,-24.1151"/>
<polygon fill="midnightblue" stroke="midnightblue" points="520.528,-20.8508 510.018,-19.5091 517.397,-27.1118 520.528,-20.8508"/>
</g>
<!-- Node17&#45;&gt;Node12 -->
<g id="edge26" class="edge"><title>Node17&#45;&gt;Node12</title>
<path fill="none" stroke="midnightblue" d="M642.204,-61.9351C651.094,-59.6902 660.883,-57.4851 670,-56 876.018,-22.4415 1127.71,-13.7062 1214.69,-11.6121"/>
<polygon fill="midnightblue" stroke="midnightblue" points="1215.01,-15.1058 1224.93,-11.3785 1214.85,-8.10762 1215.01,-15.1058"/>
</g>
<!-- Node18 -->
<g id="node18" class="node"><title>Node18</title>
<polygon fill="white" stroke="#bfbfbf" points="624,-0.5 624,-19.5 676,-19.5 676,-0.5 624,-0.5"/>
<text text-anchor="middle" x="650" y="-7.5" font-family="Helvetica,sans-Serif" font-size="10.00">cassert</text>
</g>
<!-- Node17&#45;&gt;Node18 -->
<g id="edge22" class="edge"><title>Node17&#45;&gt;Node18</title>
<path fill="none" stroke="midnightblue" d="M617.444,-61.9751C623.088,-53.1384 632.061,-39.0886 639.159,-27.975"/>
<polygon fill="midnightblue" stroke="midnightblue" points="642.133,-29.8208 644.566,-19.5091 636.233,-26.0531 642.133,-29.8208"/>
</g>
<!-- Node19 -->
<g id="node19" class="node"><title>Node19</title>
<polygon fill="white" stroke="#bfbfbf" points="694.5,-0.5 694.5,-19.5 771.5,-19.5 771.5,-0.5 694.5,-0.5"/>
<text text-anchor="middle" x="733" y="-7.5" font-family="Helvetica,sans-Serif" font-size="10.00">initializer_list</text>
</g>
<!-- Node17&#45;&gt;Node19 -->
<g id="edge24" class="edge"><title>Node17&#45;&gt;Node19</title>
<path fill="none" stroke="midnightblue" d="M629.336,-61.9751C649.553,-52.0338 683.187,-35.4947 706.642,-23.961"/>
<polygon fill="midnightblue" stroke="midnightblue" points="708.267,-27.0627 715.696,-19.5091 705.178,-20.781 708.267,-27.0627"/>
</g>
<!-- Node20 -->
<g id="node20" class="node"><title>Node20</title>
<polygon fill="white" stroke="#bfbfbf" points="542,-0.5 542,-19.5 606,-19.5 606,-0.5 542,-0.5"/>
<text text-anchor="middle" x="574" y="-7.5" font-family="Helvetica,sans-Serif" font-size="10.00">stdexcept</text>
</g>
<!-- Node17&#45;&gt;Node20 -->
<g id="edge25" class="edge"><title>Node17&#45;&gt;Node20</title>
<path fill="none" stroke="midnightblue" d="M606.556,-61.9751C600.912,-53.1384 591.939,-39.0886 584.841,-27.975"/>
<polygon fill="midnightblue" stroke="midnightblue" points="587.767,-26.0531 579.434,-19.5091 581.867,-29.8208 587.767,-26.0531"/>
</g>
<!-- Node21&#45;&gt;Node6 -->
<g id="edge29" class="edge"><title>Node21&#45;&gt;Node6</title>
<path fill="none" stroke="midnightblue" d="M114.845,-128.734C126.557,-118.305 146.319,-100.709 160.622,-87.9732"/>
<polygon fill="midnightblue" stroke="midnightblue" points="163.17,-90.3913 168.311,-81.1273 158.515,-85.1634 163.17,-90.3913"/>
</g>
<!-- Node22 -->
<g id="node22" class="node"><title>Node22</title>
<polygon fill="white" stroke="#bfbfbf" points="66.5,-62 66.5,-81 135.5,-81 135.5,-62 66.5,-62"/>
<text text-anchor="middle" x="101" y="-69" font-family="Helvetica,sans-Serif" font-size="10.00">string_view</text>
</g>
<!-- Node21&#45;&gt;Node22 -->
<g id="edge30" class="edge"><title>Node21&#45;&gt;Node22</title>
<path fill="none" stroke="midnightblue" d="M104.461,-128.734C103.873,-119.183 102.915,-103.618 102.156,-91.2829"/>
<polygon fill="midnightblue" stroke="midnightblue" points="105.639,-90.8934 101.531,-81.1273 98.6518,-91.3234 105.639,-90.8934"/>
</g>
<!-- Node23&#45;&gt;Node2 -->
<g id="edge36" class="edge"><title>Node23&#45;&gt;Node2</title>
<path fill="none" stroke="midnightblue" d="M813.594,-264.745C889.935,-260.014 1128.14,-238.916 1302,-154 1335.6,-137.588 1367.55,-107.329 1385.38,-88.6564"/>
<polygon fill="midnightblue" stroke="midnightblue" points="1388.06,-90.9092 1392.33,-81.2103 1382.95,-86.1331 1388.06,-90.9092"/>
</g>
<!-- Node23&#45;&gt;Node3 -->
<g id="edge38" class="edge"><title>Node23&#45;&gt;Node3</title>
<path fill="none" stroke="midnightblue" d="M764.307,-266.457C647.396,-268.026 151.541,-267.831 64,-154 37.3802,-119.386 28.3186,-88.9263 57,-56 94.4434,-13.0149 272.01,-9.73773 347.697,-10.3534"/>
<polygon fill="midnightblue" stroke="midnightblue" points="348.058,-13.8575 358.096,-10.4682 348.135,-6.85795 348.058,-13.8575"/>
</g>
<!-- Node23&#45;&gt;Node4 -->
<g id="edge41" class="edge"><title>Node23&#45;&gt;Node4</title>
<path fill="none" stroke="midnightblue" d="M813.571,-264.959C874.925,-261.964 1039.51,-251.496 1173,-221 1261.93,-200.684 1282.96,-189.466 1367,-154 1417.21,-132.812 1473.58,-103.017 1504.83,-85.9403"/>
<polygon fill="midnightblue" stroke="midnightblue" points="1506.61,-88.9566 1513.69,-81.0726 1503.24,-82.8221 1506.61,-88.9566"/>
</g>
<!-- Node23&#45;&gt;Node5 -->
<g id="edge55" class="edge"><title>Node23&#45;&gt;Node5</title>
<path fill="none" stroke="midnightblue" d="M794.224,-257.305C806.589,-236.723 837.851,-184.689 854.379,-157.178"/>
<polygon fill="midnightblue" stroke="midnightblue" points="857.59,-158.63 859.74,-148.256 851.589,-155.025 857.59,-158.63"/>
</g>
<!-- Node23&#45;&gt;Node6 -->
<g id="edge32" class="edge"><title>Node23&#45;&gt;Node6</title>
<path fill="none" stroke="midnightblue" d="M764.199,-266.149C674.569,-266.331 368.192,-263.745 282,-221 228.038,-194.239 196.637,-124.506 184.221,-91.0001"/>
<polygon fill="midnightblue" stroke="midnightblue" points="187.368,-89.4006 180.733,-81.1405 180.769,-91.7353 187.368,-89.4006"/>
</g>
<!-- Node23&#45;&gt;Node10 -->
<g id="edge35" class="edge"><title>Node23&#45;&gt;Node10</title>
<path fill="none" stroke="midnightblue" d="M764.321,-265.098C665.176,-260.903 297.946,-239.703 230,-154 211.919,-131.193 242.368,-103.319 265.556,-86.7869"/>
<polygon fill="midnightblue" stroke="midnightblue" points="267.687,-89.57 273.971,-81.0401 263.739,-83.7893 267.687,-89.57"/>
</g>
<!-- Node23&#45;&gt;Node12 -->
<g id="edge37" class="edge"><title>Node23&#45;&gt;Node12</title>
<path fill="none" stroke="midnightblue" d="M813.801,-265.732C882.468,-264.519 1080.53,-257.833 1240,-221 1407.16,-182.392 1503.98,-227.8 1602,-87 1609.87,-75.6924 1611.11,-66.3352 1602,-56 1580.64,-31.7687 1360.21,-17.263 1277.3,-12.6293"/>
<polygon fill="midnightblue" stroke="midnightblue" points="1277.39,-9.12934 1267.22,-12.0769 1277.01,-16.1189 1277.39,-9.12934"/>
</g>
<!-- Node24 -->
<g id="node24" class="node"><title>Node24</title>
<polygon fill="white" stroke="#bfbfbf" points="525.5,-196 525.5,-215 566.5,-215 566.5,-196 525.5,-196"/>
<text text-anchor="middle" x="546" y="-203" font-family="Helvetica,sans-Serif" font-size="10.00">array</text>
</g>
<!-- Node23&#45;&gt;Node24 -->
<g id="edge33" class="edge"><title>Node23&#45;&gt;Node24</title>
<path fill="none" stroke="midnightblue" d="M764.205,-262.752C723.937,-257.04 642.166,-243.606 576,-221 574.382,-220.447 572.737,-219.829 571.094,-219.167"/>
<polygon fill="midnightblue" stroke="midnightblue" points="572.448,-215.939 561.89,-215.062 569.597,-222.332 572.448,-215.939"/>
</g>
<!-- Node25 -->
<g id="node25" class="node"><title>Node25</title>
<polygon fill="white" stroke="#bfbfbf" points="585,-196 585,-215 623,-215 623,-196 585,-196"/>
<text text-anchor="middle" x="604" y="-203" font-family="Helvetica,sans-Serif" font-size="10.00">map</text>
</g>
<!-- Node23&#45;&gt;Node25 -->
<g id="edge34" class="edge"><title>Node23&#45;&gt;Node25</title>
<path fill="none" stroke="midnightblue" d="M764.293,-260.529C732.934,-253.222 677.45,-239.073 632,-221 630.798,-220.522 629.58,-220.009 628.358,-219.471"/>
<polygon fill="midnightblue" stroke="midnightblue" points="629.677,-216.221 619.148,-215.04 626.642,-222.529 629.677,-216.221"/>
</g>
<!-- Node26 -->
<g id="node26" class="node"><title>Node26</title>
<polygon fill="white" stroke="#bfbfbf" points="239,-129 239,-148 379,-148 379,-129 239,-129"/>
<text text-anchor="middle" x="309" y="-136" font-family="Helvetica,sans-Serif" font-size="10.00">boost/functional/hash.hpp</text>
</g>
<!-- Node23&#45;&gt;Node26 -->
<g id="edge39" class="edge"><title>Node23&#45;&gt;Node26</title>
<path fill="none" stroke="midnightblue" d="M789.743,-257.318C790.585,-241.266 789.794,-207.031 770,-190 706.205,-135.11 476.415,-165.166 393,-154 383.844,-152.774 374.159,-151.284 364.747,-149.732"/>
<polygon fill="midnightblue" stroke="midnightblue" points="365.122,-146.246 354.679,-148.032 363.957,-153.148 365.122,-146.246"/>
</g>
<!-- Node27 -->
<g id="node27" class="node"><title>Node27</title>
<polygon fill="white" stroke="#bfbfbf" points="641,-190.5 641,-220.5 761,-220.5 761,-190.5 641,-190.5"/>
<text text-anchor="start" x="649" y="-208.5" font-family="Helvetica,sans-Serif" font-size="10.00">boost/iterator/iterator</text>
<text text-anchor="middle" x="701" y="-197.5" font-family="Helvetica,sans-Serif" font-size="10.00">_facade.hpp</text>
</g>
<!-- Node23&#45;&gt;Node27 -->
<g id="edge40" class="edge"><title>Node23&#45;&gt;Node27</title>
<path fill="none" stroke="midnightblue" d="M776.392,-257.475C764.362,-249.341 745.8,-236.791 730.105,-226.179"/>
<polygon fill="midnightblue" stroke="midnightblue" points="731.984,-223.225 721.74,-220.523 728.064,-229.024 731.984,-223.225"/>
</g>
<!-- Node28 -->
<g id="node28" class="node"><title>Node28</title>
<g id="a_node28"><a xlink:href="bdd_8h.xhtml" target="_top" xlink:title="Fault tree analysis with the Binary Decision Diagram algorithms. ">
<polygon fill="white" stroke="black" points="893,-196 893,-215 937,-215 937,-196 893,-196"/>
<text text-anchor="middle" x="915" y="-203" font-family="Helvetica,sans-Serif" font-size="10.00">bdd.h</text>
</a>
</g>
</g>
<!-- Node23&#45;&gt;Node28 -->
<g id="edge42" class="edge"><title>Node23&#45;&gt;Node28</title>
<path fill="none" stroke="midnightblue" d="M807.053,-257.475C828.198,-247.49 863.44,-230.848 887.878,-219.307"/>
<polygon fill="midnightblue" stroke="midnightblue" points="889.433,-222.444 896.981,-215.009 886.444,-216.114 889.433,-222.444"/>
</g>
<!-- Node28&#45;&gt;Node2 -->
<g id="edge47" class="edge"><title>Node28&#45;&gt;Node2</title>
<path fill="none" stroke="midnightblue" d="M937.057,-203.943C992.055,-201.978 1139.1,-193.163 1254,-154 1302.14,-137.592 1352.77,-105.472 1379.93,-86.8295"/>
<polygon fill="midnightblue" stroke="midnightblue" points="1382,-89.6532 1388.21,-81.0662 1378,-83.9089 1382,-89.6532"/>
</g>
<!-- Node28&#45;&gt;Node3 -->
<g id="edge49" class="edge"><title>Node28&#45;&gt;Node3</title>
<path fill="none" stroke="midnightblue" d="M892.81,-200.57C791.994,-182.614 381.267,-108.337 364,-87 350.452,-70.2587 360.644,-45.0365 370.333,-28.3011"/>
<polygon fill="midnightblue" stroke="midnightblue" points="373.466,-29.8918 375.796,-19.5564 367.529,-26.1828 373.466,-29.8918"/>
</g>
<!-- Node28&#45;&gt;Node4 -->
<g id="edge51" class="edge"><title>Node28&#45;&gt;Node4</title>
<path fill="none" stroke="midnightblue" d="M937.123,-203.281C996.782,-199.636 1165.67,-186.962 1302,-154 1375.29,-136.281 1457.78,-103.167 1500.28,-85.0813"/>
<polygon fill="midnightblue" stroke="midnightblue" points="1501.89,-88.1973 1509.7,-81.037 1499.13,-81.7648 1501.89,-88.1973"/>
</g>
<!-- Node28&#45;&gt;Node5 -->
<g id="edge53" class="edge"><title>Node28&#45;&gt;Node5</title>
<path fill="none" stroke="midnightblue" d="M908.257,-195.734C900.46,-185.598 887.454,-168.69 877.735,-156.056"/>
<polygon fill="midnightblue" stroke="midnightblue" points="880.508,-153.92 871.636,-148.127 874.959,-158.188 880.508,-153.92"/>
</g>
<!-- Node28&#45;&gt;Node8 -->
<g id="edge44" class="edge"><title>Node28&#45;&gt;Node8</title>
<path fill="none" stroke="midnightblue" d="M892.977,-201.736C868.558,-198.705 827.991,-193.772 793,-190 710.426,-181.098 496.654,-188.268 421,-154 402.67,-145.697 405.614,-132.73 388,-123 332.516,-92.3517 288.753,-137.16 250,-87 241.577,-76.0972 241.189,-66.5923 250,-56 262.794,-40.619 385.943,-23.7626 451.846,-15.7459"/>
<polygon fill="midnightblue" stroke="midnightblue" points="452.395,-19.2052 461.906,-14.5367 451.559,-12.2552 452.395,-19.2052"/>
</g>
<!-- Node28&#45;&gt;Node10 -->
<g id="edge46" class="edge"><title>Node28&#45;&gt;Node10</title>
<path fill="none" stroke="midnightblue" d="M892.966,-201.83C868.538,-198.882 827.964,-194.02 793,-190 649.062,-173.45 605.493,-202.597 469,-154 445.076,-145.482 443.663,-134.46 421,-123 403.272,-114.036 355.311,-96.3981 322.11,-84.5262"/>
<polygon fill="midnightblue" stroke="midnightblue" points="322.924,-81.1011 312.33,-81.043 320.576,-87.6953 322.924,-81.1011"/>
</g>
<!-- Node28&#45;&gt;Node12 -->
<g id="edge48" class="edge"><title>Node28&#45;&gt;Node12</title>
<path fill="none" stroke="midnightblue" d="M915.339,-195.889C916.515,-178.866 921.753,-141 945,-123 1008.57,-73.7772 1251.05,-146.612 1305,-87 1314.24,-76.7844 1311.11,-68.348 1305,-56 1298.4,-42.6595 1285.74,-32.1941 1273.83,-24.7262"/>
<polygon fill="midnightblue" stroke="midnightblue" points="1275.39,-21.5866 1264.98,-19.6018 1271.88,-27.6435 1275.39,-21.5866"/>
</g>
<!-- Node28&#45;&gt;Node21 -->
<g id="edge54" class="edge"><title>Node28&#45;&gt;Node21</title>
<path fill="none" stroke="midnightblue" d="M892.912,-202.062C864.501,-198.978 813.616,-193.634 770,-190 530.298,-170.03 469.537,-175.865 230,-154 202.301,-151.472 171.237,-147.872 147.006,-144.892"/>
<polygon fill="midnightblue" stroke="midnightblue" points="147.424,-141.417 137.069,-143.657 146.561,-148.364 147.424,-141.417"/>
</g>
<!-- Node28&#45;&gt;Node26 -->
<g id="edge50" class="edge"><title>Node28&#45;&gt;Node26</title>
<path fill="none" stroke="midnightblue" d="M892.72,-201.341C870.141,-198.204 834.187,-193.387 803,-190 621.146,-170.253 574.397,-177.578 393,-154 383.633,-152.782 373.715,-151.271 364.103,-149.687"/>
<polygon fill="midnightblue" stroke="midnightblue" points="364.676,-146.234 354.233,-148.02 363.511,-153.137 364.676,-146.234"/>
</g>
<!-- Node29 -->
<g id="node29" class="node"><title>Node29</title>
<polygon fill="white" stroke="#bfbfbf" points="954.5,-129 954.5,-148 1001.5,-148 1001.5,-129 954.5,-129"/>
<text text-anchor="middle" x="978" y="-136" font-family="Helvetica,sans-Serif" font-size="10.00">cmath</text>
</g>
<!-- Node28&#45;&gt;Node29 -->
<g id="edge43" class="edge"><title>Node28&#45;&gt;Node29</title>
<path fill="none" stroke="midnightblue" d="M923.496,-195.734C933.509,-185.403 950.341,-168.037 962.656,-155.332"/>
<polygon fill="midnightblue" stroke="midnightblue" points="965.192,-157.744 969.638,-148.127 960.165,-152.872 965.192,-157.744"/>
</g>
<!-- Node30 -->
<g id="node30" class="node"><title>Node30</title>
<polygon fill="white" stroke="#bfbfbf" points="1019.5,-129 1019.5,-148 1090.5,-148 1090.5,-129 1019.5,-129"/>
<text text-anchor="middle" x="1055" y="-136" font-family="Helvetica,sans-Serif" font-size="10.00">forward_list</text>
</g>
<!-- Node28&#45;&gt;Node30 -->
<g id="edge45" class="edge"><title>Node28&#45;&gt;Node30</title>
<path fill="none" stroke="midnightblue" d="M933.591,-195.869C957.544,-184.748 999.395,-165.317 1027.15,-152.429"/>
<polygon fill="midnightblue" stroke="midnightblue" points="1028.74,-155.553 1036.33,-148.167 1025.79,-149.204 1028.74,-155.553"/>
</g>
<!-- Node31 -->
<g id="node31" class="node"><title>Node31</title>
<polygon fill="white" stroke="#bfbfbf" points="1108.5,-123.5 1108.5,-153.5 1245.5,-153.5 1245.5,-123.5 1108.5,-123.5"/>
<text text-anchor="start" x="1116.5" y="-141.5" font-family="Helvetica,sans-Serif" font-size="10.00">boost/smart_ptr/intrusive</text>
<text text-anchor="middle" x="1177" y="-130.5" font-family="Helvetica,sans-Serif" font-size="10.00">_ptr.hpp</text>
</g>
<!-- Node28&#45;&gt;Node31 -->
<g id="edge52" class="edge"><title>Node28&#45;&gt;Node31</title>
<path fill="none" stroke="midnightblue" d="M937.338,-198.958C975.278,-189.546 1053.72,-170.085 1110.55,-155.986"/>
<polygon fill="midnightblue" stroke="midnightblue" points="1111.67,-159.313 1120.54,-153.508 1109.99,-152.519 1111.67,-159.313"/>
</g>
</g>
</svg>
        <g id="navigator" transform="translate(0 0)" fill="#404254">
                <rect fill="#f2f5e9" fill-opacity="0.5" stroke="#606060" stroke-width=".5" x="0" y="0" width="60" height="60"/>
                <use id="zoomplus" xlink:href="#zoomPlus" x="17" y="9" onmousedown="handleZoom(evt,'in')"/>
                <use id="zoomminus" xlink:href="#zoomMin" x="42" y="9" onmousedown="handleZoom(evt,'out')"/>
                <use id="reset" xlink:href="#resetDef" x="30" y="36" onmousedown="handleReset()"/>
                <g id="arrowUp" xlink:href="#dirArrow" transform="translate(30 24)" onmousedown="handlePan(0,-1)">
                  <use xlink:href="#rim" fill="#404040">
                        <set attributeName="fill" to="#808080" begin="arrowUp.mouseover" end="arrowUp.mouseout"/>
                  </use>
                  <path fill="none" stroke="white" stroke-width="1.5" d="M0,-3.0v7 M-2.5,-0.5L0,-3.0L2.5,-0.5"/>
                </g>
                <g id="arrowRight" xlink:href="#dirArrow" transform="rotate(90) translate(36 -43)" onmousedown="handlePan(1,0)">
                  <use xlink:href="#rim" fill="#404040">
                        <set attributeName="fill" to="#808080" begin="arrowRight.mouseover" end="arrowRight.mouseout"/>
                  </use>
                  <path fill="none" stroke="white" stroke-width="1.5" d="M0,-3.0v7 M-2.5,-0.5L0,-3.0L2.5,-0.5"/>
                </g>
                <g id="arrowDown" xlink:href="#dirArrow" transform="rotate(180) translate(-30 -48)" onmousedown="handlePan(0,1)">
                  <use xlink:href="#rim" fill="#404040">
                        <set attributeName="fill" to="#808080" begin="arrowDown.mouseover" end="arrowDown.mouseout"/>
                  </use>
                  <path fill="none" stroke="white" stroke-width="1.5" d="M0,-3.0v7 M-2.5,-0.5L0,-3.0L2.5,-0.5"/>
                </g>
                <g id="arrowLeft" xlink:href="#dirArrow" transform="rotate(270) translate(-36 17)" onmousedown="handlePan(-1,0)">
                  <use xlink:href="#rim" fill="#404040">
                        <set attributeName="fill" to="#808080" begin="arrowLeft.mouseover" end="arrowLeft.mouseout"/>
                  </use>
                  <path fill="none" stroke="white" stroke-width="1.5" d="M0,-3.0v7 M-2.5,-0.5L0,-3.0L2.5,-0.5"/>
                </g>
        </g>
        <svg viewBox="0 0 15 15" width="100%" height="30px" preserveAspectRatio="xMaxYMin meet">
         <g id="arrow_out" transform="scale(0.3 0.3)">
          <a xlink:href="mocus_8h__incl_org.svg" target="_base">
           <rect id="button" ry="5" rx="5" y="6" x="6" height="38" width="38"
                fill="#f2f5e9" fill-opacity="0.5" stroke="#606060" stroke-width="1.0"/>
           <path id="arrow"
             d="M 11.500037,31.436501 C 11.940474,20.09759 22.043105,11.32322 32.158766,21.979434 L 37.068811,17.246167 C 37.068811,17.246167 37.088388,32 37.088388,32 L 22.160133,31.978069 C 22.160133,31.978069 26.997745,27.140456 26.997745,27.140456 C 18.528582,18.264221 13.291696,25.230495 11.500037,31.436501 z"
             style="fill:#404040;"/>
          </a>
         </g>
        </svg>
</svg>
