<?xml version="1.0" encoding="UTF-8" standalone="no"?>
<!DOCTYPE svg PUBLIC "-//W3C//DTD SVG 1.1//EN"
 "http://www.w3.org/Graphics/SVG/1.1/DTD/svg11.dtd">
<!-- Generated by graphviz version 2.38.0 (20140413.2041)
 -->
<!-- Title: mocus.cc Pages: 1 -->
<svg width="1868pt" height="397pt"
 viewBox="0.00 0.00 1867.61 397.00" xmlns="http://www.w3.org/2000/svg" xmlns:xlink="http://www.w3.org/1999/xlink">
<g id="graph0" class="graph" transform="scale(1 1) rotate(0) translate(4 393)">
<title>mocus.cc</title>
<polygon fill="white" stroke="none" points="-4,4 -4,-393 1863.61,-393 1863.61,4 -4,4"/>
<!-- Node1 -->
<g id="node1" class="node"><title>Node1</title>
<polygon fill="#bfbfbf" stroke="black" points="1487.61,-369.5 1487.61,-388.5 1549.61,-388.5 1549.61,-369.5 1487.61,-369.5"/>
<text text-anchor="middle" x="1518.61" y="-376.5" font-family="Helvetica,sans-Serif" font-size="10.00">mocus.cc</text>
</g>
<!-- Node2 -->
<g id="node2" class="node"><title>Node2</title>
<g id="a_node2"><a xlink:href="mocus_8h.xhtml" target="_top" xlink:title="Fault tree analysis with the MOCUS algorithm. ">
<polygon fill="white" stroke="black" points="1371.61,-313.5 1371.61,-332.5 1429.61,-332.5 1429.61,-313.5 1371.61,-313.5"/>
<text text-anchor="middle" x="1400.61" y="-320.5" font-family="Helvetica,sans-Serif" font-size="10.00">mocus.h</text>
</a>
</g>
</g>
<!-- Node1&#45;&gt;Node2 -->
<g id="edge1" class="edge"><title>Node1&#45;&gt;Node2</title>
<path fill="none" stroke="midnightblue" d="M1499.91,-369.444C1480.66,-360.636 1450.46,-346.812 1428.41,-336.722"/>
<polygon fill="midnightblue" stroke="midnightblue" points="1429.77,-333.495 1419.22,-332.516 1426.86,-339.86 1429.77,-333.495"/>
</g>
<!-- Node33 -->
<g id="node33" class="node"><title>Node33</title>
<g id="a_node33"><a xlink:href="logger_8h.xhtml" target="_top" xlink:title="Logging capability for various purposes, such as warnings and debugging. ">
<polygon fill="white" stroke="black" points="1608.11,-129 1608.11,-148 1663.11,-148 1663.11,-129 1608.11,-129"/>
<text text-anchor="middle" x="1635.61" y="-136" font-family="Helvetica,sans-Serif" font-size="10.00">logger.h</text>
</a>
</g>
</g>
<!-- Node1&#45;&gt;Node33 -->
<g id="edge57" class="edge"><title>Node1&#45;&gt;Node33</title>
<path fill="none" stroke="midnightblue" d="M1526.55,-369.497C1541.63,-352.926 1574.61,-314.627 1593.61,-277 1613.79,-237.033 1626.31,-185.568 1632,-158.34"/>
<polygon fill="midnightblue" stroke="midnightblue" points="1635.48,-158.752 1634.02,-148.259 1628.62,-157.375 1635.48,-158.752"/>
</g>
<!-- Node3 -->
<g id="node3" class="node"><title>Node3</title>
<polygon fill="white" stroke="#bfbfbf" points="1274.11,-62 1274.11,-81 1367.11,-81 1367.11,-62 1274.11,-62"/>
<text text-anchor="middle" x="1320.61" y="-69" font-family="Helvetica,sans-Serif" font-size="10.00">unordered_map</text>
</g>
<!-- Node2&#45;&gt;Node3 -->
<g id="edge2" class="edge"><title>Node2&#45;&gt;Node3</title>
<path fill="none" stroke="midnightblue" d="M1397.86,-313.412C1386.41,-277.723 1342.47,-140.676 1326.47,-90.793"/>
<polygon fill="midnightblue" stroke="midnightblue" points="1329.74,-89.506 1323.35,-81.0522 1323.07,-91.6434 1329.74,-89.506"/>
</g>
<!-- Node4 -->
<g id="node4" class="node"><title>Node4</title>
<polygon fill="white" stroke="#bfbfbf" points="992.109,-0.5 992.109,-19.5 1039.11,-19.5 1039.11,-0.5 992.109,-0.5"/>
<text text-anchor="middle" x="1015.61" y="-7.5" font-family="Helvetica,sans-Serif" font-size="10.00">vector</text>
</g>
<!-- Node2&#45;&gt;Node4 -->
<g id="edge3" class="edge"><title>Node2&#45;&gt;Node4</title>
<path fill="none" stroke="midnightblue" d="M1429.77,-317.023C1480.49,-306.511 1579.61,-276.955 1579.61,-206.5 1579.61,-206.5 1579.61,-206.5 1579.61,-137.5 1579.61,-98.2521 1577.32,-79.127 1545.61,-56 1505.58,-26.806 1160.21,-14.9351 1049.56,-11.8594"/>
<polygon fill="midnightblue" stroke="midnightblue" points="1049.4,-8.35377 1039.31,-11.581 1049.21,-15.3512 1049.4,-8.35377"/>
</g>
<!-- Node5 -->
<g id="node5" class="node"><title>Node5</title>
<polygon fill="white" stroke="#bfbfbf" points="1385.61,-62 1385.61,-81 1513.61,-81 1513.61,-62 1385.61,-62"/>
<text text-anchor="middle" x="1449.61" y="-69" font-family="Helvetica,sans-Serif" font-size="10.00">boost/noncopyable.hpp</text>
</g>
<!-- Node2&#45;&gt;Node5 -->
<g id="edge4" class="edge"><title>Node2&#45;&gt;Node5</title>
<path fill="none" stroke="midnightblue" d="M1403.63,-313.467C1406.73,-304.485 1411.52,-289.889 1414.61,-277 1430.84,-209.366 1442.5,-127.41 1447.25,-91.2203"/>
<polygon fill="midnightblue" stroke="midnightblue" points="1450.74,-91.5198 1448.54,-81.1547 1443.8,-90.6258 1450.74,-91.5198"/>
</g>
<!-- Node6 -->
<g id="node6" class="node"><title>Node6</title>
<g id="a_node6"><a xlink:href="pdag_8h.xhtml" target="_top" xlink:title="Classes and facilities to represent fault trees as PDAGs with event and gate indices instead of ID na...">
<polygon fill="white" stroke="black" points="421.609,-129 421.609,-148 471.609,-148 471.609,-129 421.609,-129"/>
<text text-anchor="middle" x="446.609" y="-136" font-family="Helvetica,sans-Serif" font-size="10.00">pdag.h</text>
</a>
</g>
</g>
<!-- Node2&#45;&gt;Node6 -->
<g id="edge5" class="edge"><title>Node2&#45;&gt;Node6</title>
<path fill="none" stroke="midnightblue" d="M1371.4,-320.979C1219.56,-315.399 524.84,-286.41 457.609,-221 441.091,-204.929 441.03,-176.723 443.24,-158.074"/>
<polygon fill="midnightblue" stroke="midnightblue" points="446.71,-158.537 444.739,-148.127 439.788,-157.494 446.71,-158.537"/>
</g>
<!-- Node22 -->
<g id="node22" class="node"><title>Node22</title>
<g id="a_node22"><a xlink:href="settings_8h.xhtml" target="_top" xlink:title="Builder for settings. ">
<polygon fill="white" stroke="black" points="1147.61,-129 1147.61,-148 1211.61,-148 1211.61,-129 1147.61,-129"/>
<text text-anchor="middle" x="1179.61" y="-136" font-family="Helvetica,sans-Serif" font-size="10.00">settings.h</text>
</a>
</g>
</g>
<!-- Node2&#45;&gt;Node22 -->
<g id="edge29" class="edge"><title>Node2&#45;&gt;Node22</title>
<path fill="none" stroke="midnightblue" d="M1390.25,-313.442C1355.45,-284.704 1242.45,-191.393 1197.9,-154.607"/>
<polygon fill="midnightblue" stroke="midnightblue" points="1199.89,-151.708 1189.95,-148.039 1195.43,-157.105 1199.89,-151.708"/>
</g>
<!-- Node24 -->
<g id="node24" class="node"><title>Node24</title>
<g id="a_node24"><a xlink:href="zbdd_8h.xhtml" target="_top" xlink:title="Zero&#45;Suppressed Binary Decision Diagram facilities. ">
<polygon fill="white" stroke="black" points="1013.11,-257.5 1013.11,-276.5 1062.11,-276.5 1062.11,-257.5 1013.11,-257.5"/>
<text text-anchor="middle" x="1037.61" y="-264.5" font-family="Helvetica,sans-Serif" font-size="10.00">zbdd.h</text>
</a>
</g>
</g>
<!-- Node2&#45;&gt;Node24 -->
<g id="edge32" class="edge"><title>Node2&#45;&gt;Node24</title>
<path fill="none" stroke="midnightblue" d="M1371.52,-317.672C1305.43,-307.841 1144.19,-283.855 1072.71,-273.222"/>
<polygon fill="midnightblue" stroke="midnightblue" points="1072.85,-269.703 1062.44,-271.694 1071.82,-276.627 1072.85,-269.703"/>
</g>
<!-- Node6&#45;&gt;Node3 -->
<g id="edge12" class="edge"><title>Node6&#45;&gt;Node3</title>
<path fill="none" stroke="midnightblue" d="M471.781,-131.463C485.536,-128.41 502.918,-124.947 518.609,-123 848.465,-82.0735 937.105,-137.645 1265.61,-87 1271.22,-86.1348 1277.09,-84.9268 1282.81,-83.5736"/>
<polygon fill="midnightblue" stroke="midnightblue" points="1284.04,-86.8736 1292.87,-81.0237 1282.31,-80.0882 1284.04,-86.8736"/>
</g>
<!-- Node6&#45;&gt;Node4 -->
<g id="edge14" class="edge"><title>Node6&#45;&gt;Node4</title>
<path fill="none" stroke="midnightblue" d="M466.533,-128.9C472.56,-126.626 479.264,-124.414 485.609,-123 674.959,-80.804 740.702,-159.574 920.609,-87 940.823,-78.846 941.611,-69.6422 958.609,-56 971.179,-45.9125 985.407,-34.6792 996.504,-25.9594"/>
<polygon fill="midnightblue" stroke="midnightblue" points="998.934,-28.5017 1004.64,-19.5751 994.613,-22.9945 998.934,-28.5017"/>
</g>
<!-- Node6&#45;&gt;Node5 -->
<g id="edge16" class="edge"><title>Node6&#45;&gt;Node5</title>
<path fill="none" stroke="midnightblue" d="M471.776,-131.424C485.529,-128.359 502.912,-124.898 518.609,-123 897.518,-77.1838 997.64,-132.314 1376.61,-87 1385,-85.9966 1393.87,-84.5594 1402.42,-82.9756"/>
<polygon fill="midnightblue" stroke="midnightblue" points="1403.12,-86.4054 1412.27,-81.0662 1401.79,-79.5333 1403.12,-86.4054"/>
</g>
<!-- Node7 -->
<g id="node7" class="node"><title>Node7</title>
<polygon fill="white" stroke="#bfbfbf" points="1207.11,-62 1207.11,-81 1256.11,-81 1256.11,-62 1207.11,-62"/>
<text text-anchor="middle" x="1231.61" y="-69" font-family="Helvetica,sans-Serif" font-size="10.00">cstdint</text>
</g>
<!-- Node6&#45;&gt;Node7 -->
<g id="edge6" class="edge"><title>Node6&#45;&gt;Node7</title>
<path fill="none" stroke="midnightblue" d="M471.785,-131.493C485.54,-128.448 502.923,-124.984 518.609,-123 818.863,-85.0242 904.173,-157.011 1198.61,-87 1200.97,-86.4381 1203.38,-85.7133 1205.76,-84.888"/>
<polygon fill="midnightblue" stroke="midnightblue" points="1207.25,-88.0602 1215.23,-81.0882 1204.64,-81.5635 1207.25,-88.0602"/>
</g>
<!-- Node8 -->
<g id="node8" class="node"><title>Node8</title>
<polygon fill="white" stroke="#bfbfbf" points="27.1094,-62 27.1094,-81 74.1094,-81 74.1094,-62 27.1094,-62"/>
<text text-anchor="middle" x="50.6094" y="-69" font-family="Helvetica,sans-Serif" font-size="10.00">cstdlib</text>
</g>
<!-- Node6&#45;&gt;Node8 -->
<g id="edge7" class="edge"><title>Node6&#45;&gt;Node8</title>
<path fill="none" stroke="midnightblue" d="M421.379,-136.488C361.47,-133.554 206.407,-122.82 82.6094,-87 80.6759,-86.4406 78.7092,-85.7844 76.7499,-85.0658"/>
<polygon fill="midnightblue" stroke="midnightblue" points="77.782,-81.7049 67.2039,-81.1104 75.1024,-88.1718 77.782,-81.7049"/>
</g>
<!-- Node9 -->
<g id="node9" class="node"><title>Node9</title>
<polygon fill="white" stroke="#bfbfbf" points="804.609,-0.5 804.609,-19.5 866.609,-19.5 866.609,-0.5 804.609,-0.5"/>
<text text-anchor="middle" x="835.609" y="-7.5" font-family="Helvetica,sans-Serif" font-size="10.00">algorithm</text>
</g>
<!-- Node6&#45;&gt;Node9 -->
<g id="edge8" class="edge"><title>Node6&#45;&gt;Node9</title>
<path fill="none" stroke="midnightblue" d="M466.978,-128.926C472.9,-126.708 479.437,-124.52 485.609,-123 608.294,-92.7864 655.768,-145.787 767.609,-87 792.998,-73.6553 813.485,-46.7656 825.107,-28.8178"/>
<polygon fill="midnightblue" stroke="midnightblue" points="828.335,-30.2535 830.626,-19.9095 822.384,-26.5667 828.335,-30.2535"/>
</g>
<!-- Node10 -->
<g id="node10" class="node"><title>Node10</title>
<polygon fill="white" stroke="#bfbfbf" points="211.609,-62 211.609,-81 257.609,-81 257.609,-62 211.609,-62"/>
<text text-anchor="middle" x="234.609" y="-69" font-family="Helvetica,sans-Serif" font-size="10.00">iosfwd</text>
</g>
<!-- Node6&#45;&gt;Node10 -->
<g id="edge9" class="edge"><title>Node6&#45;&gt;Node10</title>
<path fill="none" stroke="midnightblue" d="M421.483,-131.731C386.339,-123.376 320.737,-106.727 266.609,-87 264.994,-86.4113 263.347,-85.7765 261.693,-85.1128"/>
<polygon fill="midnightblue" stroke="midnightblue" points="262.921,-81.8312 252.35,-81.1165 260.168,-88.2672 262.921,-81.8312"/>
</g>
<!-- Node11 -->
<g id="node11" class="node"><title>Node11</title>
<polygon fill="white" stroke="#bfbfbf" points="968.109,-62 968.109,-81 1025.11,-81 1025.11,-62 968.109,-62"/>
<text text-anchor="middle" x="996.609" y="-69" font-family="Helvetica,sans-Serif" font-size="10.00">memory</text>
</g>
<!-- Node6&#45;&gt;Node11 -->
<g id="edge10" class="edge"><title>Node6&#45;&gt;Node11</title>
<path fill="none" stroke="midnightblue" d="M466.528,-128.877C472.554,-126.602 479.26,-124.396 485.609,-123 689.36,-78.2145 749.195,-128.65 953.609,-87 957.3,-86.2479 961.113,-85.271 964.872,-84.1795"/>
<polygon fill="midnightblue" stroke="midnightblue" points="966.108,-87.4593 974.58,-81.098 963.99,-80.7873 966.108,-87.4593"/>
</g>
<!-- Node12 -->
<g id="node12" class="node"><title>Node12</title>
<polygon fill="white" stroke="#bfbfbf" points="275.609,-62 275.609,-81 343.609,-81 343.609,-62 275.609,-62"/>
<text text-anchor="middle" x="309.609" y="-69" font-family="Helvetica,sans-Serif" font-size="10.00">type_traits</text>
</g>
<!-- Node6&#45;&gt;Node12 -->
<g id="edge11" class="edge"><title>Node6&#45;&gt;Node12</title>
<path fill="none" stroke="midnightblue" d="M428.417,-128.869C405.08,-117.796 364.38,-98.4862 337.216,-85.5978"/>
<polygon fill="midnightblue" stroke="midnightblue" points="338.412,-82.2916 327.877,-81.1672 335.412,-88.6159 338.412,-82.2916"/>
</g>
<!-- Node13 -->
<g id="node13" class="node"><title>Node13</title>
<polygon fill="white" stroke="#bfbfbf" points="121.609,-0.5 121.609,-19.5 163.609,-19.5 163.609,-0.5 121.609,-0.5"/>
<text text-anchor="middle" x="142.609" y="-7.5" font-family="Helvetica,sans-Serif" font-size="10.00">utility</text>
</g>
<!-- Node6&#45;&gt;Node13 -->
<g id="edge13" class="edge"><title>Node6&#45;&gt;Node13</title>
<path fill="none" stroke="midnightblue" d="M421.352,-136.444C333.425,-132.514 44.6122,-117.368 17.6094,-87 -13.535,-51.9744 65.1796,-27.9529 111.549,-17.2716"/>
<polygon fill="midnightblue" stroke="midnightblue" points="112.447,-20.6577 121.454,-15.0781 110.933,-13.8233 112.447,-20.6577"/>
</g>
<!-- Node14 -->
<g id="node14" class="node"><title>Node14</title>
<polygon fill="white" stroke="#bfbfbf" points="361.609,-56.5 361.609,-86.5 471.609,-86.5 471.609,-56.5 361.609,-56.5"/>
<text text-anchor="start" x="369.609" y="-74.5" font-family="Helvetica,sans-Serif" font-size="10.00">boost/container/flat</text>
<text text-anchor="middle" x="416.609" y="-63.5" font-family="Helvetica,sans-Serif" font-size="10.00">_set.hpp</text>
</g>
<!-- Node6&#45;&gt;Node14 -->
<g id="edge15" class="edge"><title>Node6&#45;&gt;Node14</title>
<path fill="none" stroke="midnightblue" d="M442.563,-128.734C438.665,-120.287 432.596,-107.138 427.307,-95.6778"/>
<polygon fill="midnightblue" stroke="midnightblue" points="430.48,-94.2019 423.112,-86.589 424.125,-97.1353 430.48,-94.2019"/>
</g>
<!-- Node15 -->
<g id="node15" class="node"><title>Node15</title>
<polygon fill="white" stroke="#bfbfbf" points="490.109,-56.5 490.109,-86.5 605.109,-86.5 605.109,-56.5 490.109,-56.5"/>
<text text-anchor="start" x="498.109" y="-74.5" font-family="Helvetica,sans-Serif" font-size="10.00">boost/range/adaptor</text>
<text text-anchor="middle" x="547.609" y="-63.5" font-family="Helvetica,sans-Serif" font-size="10.00">/transformed.hpp</text>
</g>
<!-- Node6&#45;&gt;Node15 -->
<g id="edge17" class="edge"><title>Node6&#45;&gt;Node15</title>
<path fill="none" stroke="midnightblue" d="M460.231,-128.734C474.733,-119.4 498.159,-104.325 517.106,-92.1311"/>
<polygon fill="midnightblue" stroke="midnightblue" points="519.202,-94.944 525.717,-86.589 515.414,-89.0577 519.202,-94.944"/>
</g>
<!-- Node16 -->
<g id="node16" class="node"><title>Node16</title>
<g id="a_node16"><a xlink:href="find__iterator_8h.xhtml" target="_top" xlink:title="Convenience iterator adaptor to wrap find calls and results. ">
<polygon fill="white" stroke="black" points="92.1094,-62 92.1094,-81 193.109,-81 193.109,-62 92.1094,-62"/>
<text text-anchor="middle" x="142.609" y="-69" font-family="Helvetica,sans-Serif" font-size="10.00">ext/find_iterator.h</text>
</a>
</g>
</g>
<!-- Node6&#45;&gt;Node16 -->
<g id="edge18" class="edge"><title>Node6&#45;&gt;Node16</title>
<path fill="none" stroke="midnightblue" d="M421.259,-132.54C376.86,-123.789 282.176,-104.843 202.609,-87 197.575,-85.8711 192.313,-84.654 187.086,-83.4219"/>
<polygon fill="midnightblue" stroke="midnightblue" points="187.686,-79.967 177.147,-81.053 186.063,-86.7762 187.686,-79.967"/>
</g>
<!-- Node17 -->
<g id="node17" class="node"><title>Node17</title>
<g id="a_node17"><a xlink:href="index__map_8h.xhtml" target="_top" xlink:title="Non&#45;zero based Index&#45;&gt;Value map adapter on sequential containers. ">
<polygon fill="white" stroke="black" points="815.609,-62 815.609,-81 911.609,-81 911.609,-62 815.609,-62"/>
<text text-anchor="middle" x="863.609" y="-69" font-family="Helvetica,sans-Serif" font-size="10.00">ext/index_map.h</text>
</a>
</g>
</g>
<!-- Node6&#45;&gt;Node17 -->
<g id="edge20" class="edge"><title>Node6&#45;&gt;Node17</title>
<path fill="none" stroke="midnightblue" d="M466.965,-128.872C472.886,-126.654 479.427,-124.478 485.609,-123 623.087,-90.1287 662.332,-111.136 801.609,-87 807.757,-85.9347 814.207,-84.6344 820.527,-83.2545"/>
<polygon fill="midnightblue" stroke="midnightblue" points="821.312,-86.6656 830.291,-81.0428 819.765,-79.8386 821.312,-86.6656"/>
</g>
<!-- Node18 -->
<g id="node18" class="node"><title>Node18</title>
<g id="a_node18"><a xlink:href="linear__map_8h.xhtml" target="_top" xlink:title="Implementation of a vector&#45;based map for a small number of entries. ">
<polygon fill="white" stroke="black" points="662.109,-62 662.109,-81 759.109,-81 759.109,-62 662.109,-62"/>
<text text-anchor="middle" x="710.609" y="-69" font-family="Helvetica,sans-Serif" font-size="10.00">ext/linear_map.h</text>
</a>
</g>
</g>
<!-- Node6&#45;&gt;Node18 -->
<g id="edge22" class="edge"><title>Node6&#45;&gt;Node18</title>
<path fill="none" stroke="midnightblue" d="M467.89,-128.996C473.593,-126.88 479.792,-124.726 485.609,-123 542.166,-106.223 608.162,-92.028 653.992,-83.0013"/>
<polygon fill="midnightblue" stroke="midnightblue" points="654.886,-86.3929 664.031,-81.043 653.546,-79.5223 654.886,-86.3929"/>
</g>
<!-- Node16&#45;&gt;Node13 -->
<g id="edge19" class="edge"><title>Node16&#45;&gt;Node13</title>
<path fill="none" stroke="midnightblue" d="M142.609,-61.9751C142.609,-53.5803 142.609,-40.4806 142.609,-29.6631"/>
<polygon fill="midnightblue" stroke="midnightblue" points="146.109,-29.5091 142.609,-19.5091 139.109,-29.5091 146.109,-29.5091"/>
</g>
<!-- Node17&#45;&gt;Node4 -->
<g id="edge21" class="edge"><title>Node17&#45;&gt;Node4</title>
<path fill="none" stroke="midnightblue" d="M885.387,-61.9751C911.348,-51.8129 954.921,-34.7564 984.444,-23.1996"/>
<polygon fill="midnightblue" stroke="midnightblue" points="985.836,-26.4135 993.872,-19.5091 983.284,-19.8951 985.836,-26.4135"/>
</g>
<!-- Node18&#45;&gt;Node4 -->
<g id="edge28" class="edge"><title>Node18&#45;&gt;Node4</title>
<path fill="none" stroke="midnightblue" d="M754.308,-61.9751C815.742,-49.9905 926.328,-28.4172 981.858,-17.5843"/>
<polygon fill="midnightblue" stroke="midnightblue" points="982.736,-20.9791 991.881,-15.629 981.396,-14.1086 982.736,-20.9791"/>
</g>
<!-- Node18&#45;&gt;Node9 -->
<g id="edge24" class="edge"><title>Node18&#45;&gt;Node9</title>
<path fill="none" stroke="midnightblue" d="M728.519,-61.9751C749.497,-51.9897 784.459,-35.3476 808.703,-23.8075"/>
<polygon fill="midnightblue" stroke="midnightblue" points="810.208,-26.9673 817.733,-19.5091 807.2,-20.6468 810.208,-26.9673"/>
</g>
<!-- Node18&#45;&gt;Node13 -->
<g id="edge27" class="edge"><title>Node18&#45;&gt;Node13</title>
<path fill="none" stroke="midnightblue" d="M677.427,-61.9643C667.856,-59.7472 657.364,-57.5496 647.609,-56 469.934,-27.774 254.069,-15.9346 174.248,-12.3079"/>
<polygon fill="midnightblue" stroke="midnightblue" points="174.051,-8.79586 163.906,-11.8498 173.741,-15.789 174.051,-8.79586"/>
</g>
<!-- Node19 -->
<g id="node19" class="node"><title>Node19</title>
<polygon fill="white" stroke="#bfbfbf" points="556.609,-0.5 556.609,-19.5 608.609,-19.5 608.609,-0.5 556.609,-0.5"/>
<text text-anchor="middle" x="582.609" y="-7.5" font-family="Helvetica,sans-Serif" font-size="10.00">cassert</text>
</g>
<!-- Node18&#45;&gt;Node19 -->
<g id="edge23" class="edge"><title>Node18&#45;&gt;Node19</title>
<path fill="none" stroke="midnightblue" d="M692.27,-61.9751C670.789,-51.9897 634.987,-35.3476 610.162,-23.8075"/>
<polygon fill="midnightblue" stroke="midnightblue" points="611.458,-20.5506 600.915,-19.5091 608.507,-26.8983 611.458,-20.5506"/>
</g>
<!-- Node20 -->
<g id="node20" class="node"><title>Node20</title>
<polygon fill="white" stroke="#bfbfbf" points="627.109,-0.5 627.109,-19.5 704.109,-19.5 704.109,-0.5 627.109,-0.5"/>
<text text-anchor="middle" x="665.609" y="-7.5" font-family="Helvetica,sans-Serif" font-size="10.00">initializer_list</text>
</g>
<!-- Node18&#45;&gt;Node20 -->
<g id="edge25" class="edge"><title>Node18&#45;&gt;Node20</title>
<path fill="none" stroke="midnightblue" d="M704.162,-61.9751C697.412,-53.0501 686.64,-38.8071 678.196,-27.6425"/>
<polygon fill="midnightblue" stroke="midnightblue" points="680.868,-25.3737 672.045,-19.5091 675.285,-29.5962 680.868,-25.3737"/>
</g>
<!-- Node21 -->
<g id="node21" class="node"><title>Node21</title>
<polygon fill="white" stroke="#bfbfbf" points="722.609,-0.5 722.609,-19.5 786.609,-19.5 786.609,-0.5 722.609,-0.5"/>
<text text-anchor="middle" x="754.609" y="-7.5" font-family="Helvetica,sans-Serif" font-size="10.00">stdexcept</text>
</g>
<!-- Node18&#45;&gt;Node21 -->
<g id="edge26" class="edge"><title>Node18&#45;&gt;Node21</title>
<path fill="none" stroke="midnightblue" d="M716.913,-61.9751C723.514,-53.0501 734.046,-38.8071 742.302,-27.6425"/>
<polygon fill="midnightblue" stroke="midnightblue" points="745.185,-29.6305 748.317,-19.5091 739.557,-25.4684 745.185,-29.6305"/>
</g>
<!-- Node22&#45;&gt;Node7 -->
<g id="edge30" class="edge"><title>Node22&#45;&gt;Node7</title>
<path fill="none" stroke="midnightblue" d="M1186.62,-128.734C1194.73,-118.598 1208.26,-101.69 1218.36,-89.0556"/>
<polygon fill="midnightblue" stroke="midnightblue" points="1221.19,-91.1225 1224.71,-81.1273 1215.73,-86.7496 1221.19,-91.1225"/>
</g>
<!-- Node23 -->
<g id="node23" class="node"><title>Node23</title>
<polygon fill="white" stroke="#bfbfbf" points="1120.11,-62 1120.11,-81 1189.11,-81 1189.11,-62 1120.11,-62"/>
<text text-anchor="middle" x="1154.61" y="-69" font-family="Helvetica,sans-Serif" font-size="10.00">string_view</text>
</g>
<!-- Node22&#45;&gt;Node23 -->
<g id="edge31" class="edge"><title>Node22&#45;&gt;Node23</title>
<path fill="none" stroke="midnightblue" d="M1176.24,-128.734C1172.49,-118.988 1166.33,-102.981 1161.54,-90.5318"/>
<polygon fill="midnightblue" stroke="midnightblue" points="1164.78,-89.2043 1157.93,-81.1273 1158.25,-91.7172 1164.78,-89.2043"/>
</g>
<!-- Node24&#45;&gt;Node3 -->
<g id="edge37" class="edge"><title>Node24&#45;&gt;Node3</title>
<path fill="none" stroke="midnightblue" d="M1062.38,-265.871C1100.97,-264.493 1176.24,-256.968 1226.61,-221 1273.48,-187.533 1302.33,-122.692 1314.26,-90.9326"/>
<polygon fill="midnightblue" stroke="midnightblue" points="1317.67,-91.7787 1317.77,-81.1843 1311.09,-89.4046 1317.67,-91.7787"/>
</g>
<!-- Node24&#45;&gt;Node4 -->
<g id="edge39" class="edge"><title>Node24&#45;&gt;Node4</title>
<path fill="none" stroke="midnightblue" d="M1062.18,-264.297C1178.51,-255.416 1662.45,-208.806 1522.61,-56 1490.67,-21.1046 1157.48,-13.1018 1049.31,-11.4172"/>
<polygon fill="midnightblue" stroke="midnightblue" points="1049.33,-7.91716 1039.27,-11.2692 1049.22,-14.9164 1049.33,-7.91716"/>
</g>
<!-- Node24&#45;&gt;Node5 -->
<g id="edge42" class="edge"><title>Node24&#45;&gt;Node5</title>
<path fill="none" stroke="midnightblue" d="M1062.38,-264.539C1104.18,-261.295 1190.61,-251.208 1256.61,-221 1331.07,-186.92 1403.34,-119.401 1434.11,-88.5524"/>
<polygon fill="midnightblue" stroke="midnightblue" points="1436.81,-90.7929 1441.33,-81.2109 1431.82,-85.8824 1436.81,-90.7929"/>
</g>
<!-- Node24&#45;&gt;Node6 -->
<g id="edge56" class="edge"><title>Node24&#45;&gt;Node6</title>
<path fill="none" stroke="midnightblue" d="M1012.97,-265.422C911.535,-262.852 529.515,-251.225 485.609,-221 464.548,-206.501 454.496,-177.422 449.972,-158.21"/>
<polygon fill="midnightblue" stroke="midnightblue" points="453.359,-157.306 447.906,-148.223 446.504,-158.724 453.359,-157.306"/>
</g>
<!-- Node24&#45;&gt;Node7 -->
<g id="edge33" class="edge"><title>Node24&#45;&gt;Node7</title>
<path fill="none" stroke="midnightblue" d="M1062.24,-266.596C1098.42,-266.069 1165.7,-259.525 1203.61,-221 1238.02,-186.023 1237.1,-122.89 1234.1,-91.4113"/>
<polygon fill="midnightblue" stroke="midnightblue" points="1237.57,-90.9007 1232.96,-81.357 1230.61,-91.6867 1237.57,-90.9007"/>
</g>
<!-- Node24&#45;&gt;Node11 -->
<g id="edge36" class="edge"><title>Node24&#45;&gt;Node11</title>
<path fill="none" stroke="midnightblue" d="M1013.03,-264.746C918.412,-259.346 579.974,-234.574 518.609,-154 510.262,-143.039 509.277,-133.136 518.609,-123 551.458,-87.3201 906.115,-96.8206 953.609,-87 957.298,-86.2372 961.109,-85.2536 964.868,-84.1582"/>
<polygon fill="midnightblue" stroke="midnightblue" points="966.105,-87.4374 974.575,-81.0726 963.985,-80.7663 966.105,-87.4374"/>
</g>
<!-- Node24&#45;&gt;Node13 -->
<g id="edge38" class="edge"><title>Node24&#45;&gt;Node13</title>
<path fill="none" stroke="midnightblue" d="M1012.69,-266.021C867.388,-265.548 131.814,-254.815 6.60936,-87 -23.5279,-46.6063 62.2523,-24.7517 111.176,-15.8479"/>
<polygon fill="midnightblue" stroke="midnightblue" points="112.034,-19.2514 121.289,-14.0949 110.838,-12.3542 112.034,-19.2514"/>
</g>
<!-- Node25 -->
<g id="node25" class="node"><title>Node25</title>
<polygon fill="white" stroke="#bfbfbf" points="959.109,-196 959.109,-215 1000.11,-215 1000.11,-196 959.109,-196"/>
<text text-anchor="middle" x="979.609" y="-203" font-family="Helvetica,sans-Serif" font-size="10.00">array</text>
</g>
<!-- Node24&#45;&gt;Node25 -->
<g id="edge34" class="edge"><title>Node24&#45;&gt;Node25</title>
<path fill="none" stroke="midnightblue" d="M1029.3,-257.475C1020.43,-248.373 1006.16,-233.741 995.189,-222.483"/>
<polygon fill="midnightblue" stroke="midnightblue" points="997.39,-219.727 987.904,-215.009 992.378,-224.613 997.39,-219.727"/>
</g>
<!-- Node26 -->
<g id="node26" class="node"><title>Node26</title>
<polygon fill="white" stroke="#bfbfbf" points="1018.61,-196 1018.61,-215 1056.61,-215 1056.61,-196 1018.61,-196"/>
<text text-anchor="middle" x="1037.61" y="-203" font-family="Helvetica,sans-Serif" font-size="10.00">map</text>
</g>
<!-- Node24&#45;&gt;Node26 -->
<g id="edge35" class="edge"><title>Node24&#45;&gt;Node26</title>
<path fill="none" stroke="midnightblue" d="M1037.61,-257.475C1037.61,-249.08 1037.61,-235.981 1037.61,-225.163"/>
<polygon fill="midnightblue" stroke="midnightblue" points="1041.11,-225.009 1037.61,-215.009 1034.11,-225.009 1041.11,-225.009"/>
</g>
<!-- Node27 -->
<g id="node27" class="node"><title>Node27</title>
<polygon fill="white" stroke="#bfbfbf" points="527.609,-129 527.609,-148 667.609,-148 667.609,-129 527.609,-129"/>
<text text-anchor="middle" x="597.609" y="-136" font-family="Helvetica,sans-Serif" font-size="10.00">boost/functional/hash.hpp</text>
</g>
<!-- Node24&#45;&gt;Node27 -->
<g id="edge40" class="edge"><title>Node24&#45;&gt;Node27</title>
<path fill="none" stroke="midnightblue" d="M1013.06,-259.667C980.285,-251.154 920.444,-235.421 869.609,-221 785.578,-197.162 687.566,-167.279 635.182,-151.139"/>
<polygon fill="midnightblue" stroke="midnightblue" points="635.919,-147.704 625.332,-148.1 633.855,-154.393 635.919,-147.704"/>
</g>
<!-- Node28 -->
<g id="node28" class="node"><title>Node28</title>
<polygon fill="white" stroke="#bfbfbf" points="1074.61,-190.5 1074.61,-220.5 1194.61,-220.5 1194.61,-190.5 1074.61,-190.5"/>
<text text-anchor="start" x="1082.61" y="-208.5" font-family="Helvetica,sans-Serif" font-size="10.00">boost/iterator/iterator</text>
<text text-anchor="middle" x="1134.61" y="-197.5" font-family="Helvetica,sans-Serif" font-size="10.00">_facade.hpp</text>
</g>
<!-- Node24&#45;&gt;Node28 -->
<g id="edge41" class="edge"><title>Node24&#45;&gt;Node28</title>
<path fill="none" stroke="midnightblue" d="M1051.51,-257.475C1064.89,-249.266 1085.61,-236.558 1103.01,-225.885"/>
<polygon fill="midnightblue" stroke="midnightblue" points="1105.05,-228.735 1111.75,-220.523 1101.39,-222.768 1105.05,-228.735"/>
</g>
<!-- Node29 -->
<g id="node29" class="node"><title>Node29</title>
<g id="a_node29"><a xlink:href="bdd_8h.xhtml" target="_top" xlink:title="Fault tree analysis with the Binary Decision Diagram algorithms. ">
<polygon fill="white" stroke="black" points="878.609,-196 878.609,-215 922.609,-215 922.609,-196 878.609,-196"/>
<text text-anchor="middle" x="900.609" y="-203" font-family="Helvetica,sans-Serif" font-size="10.00">bdd.h</text>
</a>
</g>
</g>
<!-- Node24&#45;&gt;Node29 -->
<g id="edge43" class="edge"><title>Node24&#45;&gt;Node29</title>
<path fill="none" stroke="midnightblue" d="M1017.98,-257.475C994.785,-247.401 955.991,-230.553 929.396,-219.002"/>
<polygon fill="midnightblue" stroke="midnightblue" points="930.768,-215.782 920.202,-215.009 927.98,-222.203 930.768,-215.782"/>
</g>
<!-- Node29&#45;&gt;Node3 -->
<g id="edge48" class="edge"><title>Node29&#45;&gt;Node3</title>
<path fill="none" stroke="midnightblue" d="M922.863,-197.118C931.182,-194.57 940.759,-191.885 949.609,-190 1068.45,-164.685 1109.08,-202.203 1220.61,-154 1255.53,-138.907 1288.14,-107.961 1306.12,-88.8453"/>
<polygon fill="midnightblue" stroke="midnightblue" points="1308.93,-90.962 1313.11,-81.2257 1303.77,-86.2316 1308.93,-90.962"/>
</g>
<!-- Node29&#45;&gt;Node4 -->
<g id="edge50" class="edge"><title>Node29&#45;&gt;Node4</title>
<path fill="none" stroke="midnightblue" d="M922.982,-197.612C931.314,-195.118 940.868,-192.341 949.609,-190 1015.84,-172.267 1057.16,-207.84 1099.61,-154 1133.63,-110.852 1070.25,-52.5725 1035.78,-25.6955"/>
<polygon fill="midnightblue" stroke="midnightblue" points="1037.8,-22.831 1027.72,-19.5672 1033.56,-28.4044 1037.8,-22.831"/>
</g>
<!-- Node29&#45;&gt;Node5 -->
<g id="edge52" class="edge"><title>Node29&#45;&gt;Node5</title>
<path fill="none" stroke="midnightblue" d="M922.847,-197.043C931.165,-194.487 940.744,-191.816 949.609,-190 1084.63,-162.345 1124.38,-189.283 1257.61,-154 1320,-137.476 1388.59,-104.453 1424.5,-85.9161"/>
<polygon fill="midnightblue" stroke="midnightblue" points="1426.48,-88.8284 1433.73,-81.0977 1423.24,-82.6231 1426.48,-88.8284"/>
</g>
<!-- Node29&#45;&gt;Node6 -->
<g id="edge54" class="edge"><title>Node29&#45;&gt;Node6</title>
<path fill="none" stroke="midnightblue" d="M878.57,-202.112C819.86,-195.638 654.872,-176.701 518.609,-154 506.547,-151.99 493.417,-149.451 481.713,-147.062"/>
<polygon fill="midnightblue" stroke="midnightblue" points="482.359,-143.621 471.857,-145.017 480.937,-150.476 482.359,-143.621"/>
</g>
<!-- Node29&#45;&gt;Node9 -->
<g id="edge45" class="edge"><title>Node29&#45;&gt;Node9</title>
<path fill="none" stroke="midnightblue" d="M878.458,-198.432C838.382,-186.417 760.644,-157.732 790.609,-123 863.792,-38.1766 1103.5,-143.556 1033.61,-56 1014.38,-31.9147 929.059,-19.7381 876.893,-14.4383"/>
<polygon fill="midnightblue" stroke="midnightblue" points="877.223,-10.954 866.931,-13.4686 876.545,-17.9211 877.223,-10.954"/>
</g>
<!-- Node29&#45;&gt;Node11 -->
<g id="edge47" class="edge"><title>Node29&#45;&gt;Node11</title>
<path fill="none" stroke="midnightblue" d="M878.553,-200.942C829.968,-192.204 720.847,-167.13 757.609,-123 814.298,-54.9506 867.87,-109.207 953.609,-87 956.813,-86.1703 960.122,-85.2226 963.417,-84.2179"/>
<polygon fill="midnightblue" stroke="midnightblue" points="964.687,-87.4862 973.136,-81.0939 962.545,-80.822 964.687,-87.4862"/>
</g>
<!-- Node29&#45;&gt;Node13 -->
<g id="edge49" class="edge"><title>Node29&#45;&gt;Node13</title>
<path fill="none" stroke="midnightblue" d="M878.362,-199.46C847.659,-192.008 791.055,-176.469 746.609,-154 700.823,-130.854 693.593,-117.861 652.609,-87 634.921,-73.6807 634.144,-64.2834 613.609,-56 533.279,-23.5953 265.642,-14.0412 173.834,-11.6806"/>
<polygon fill="midnightblue" stroke="midnightblue" points="173.862,-8.18036 163.779,-11.4331 173.689,-15.1782 173.862,-8.18036"/>
</g>
<!-- Node29&#45;&gt;Node22 -->
<g id="edge55" class="edge"><title>Node29&#45;&gt;Node22</title>
<path fill="none" stroke="midnightblue" d="M922.93,-197.411C931.257,-194.895 940.821,-192.155 949.609,-190 1030.54,-170.155 1052.86,-174.558 1133.61,-154 1137.04,-153.127 1140.59,-152.146 1144.13,-151.118"/>
<polygon fill="midnightblue" stroke="midnightblue" points="1145.41,-154.388 1153.97,-148.142 1143.38,-147.688 1145.41,-154.388"/>
</g>
<!-- Node29&#45;&gt;Node27 -->
<g id="edge51" class="edge"><title>Node29&#45;&gt;Node27</title>
<path fill="none" stroke="midnightblue" d="M878.329,-199.72C829.906,-189.333 714.07,-164.483 647.311,-150.162"/>
<polygon fill="midnightblue" stroke="midnightblue" points="647.945,-146.719 637.434,-148.043 646.477,-153.563 647.945,-146.719"/>
</g>
<!-- Node30 -->
<g id="node30" class="node"><title>Node30</title>
<polygon fill="white" stroke="#bfbfbf" points="800.109,-129 800.109,-148 847.109,-148 847.109,-129 800.109,-129"/>
<text text-anchor="middle" x="823.609" y="-136" font-family="Helvetica,sans-Serif" font-size="10.00">cmath</text>
</g>
<!-- Node29&#45;&gt;Node30 -->
<g id="edge44" class="edge"><title>Node29&#45;&gt;Node30</title>
<path fill="none" stroke="midnightblue" d="M890.225,-195.734C877.756,-185.208 856.636,-167.379 841.518,-154.617"/>
<polygon fill="midnightblue" stroke="midnightblue" points="843.728,-151.903 833.829,-148.127 839.213,-157.252 843.728,-151.903"/>
</g>
<!-- Node31 -->
<g id="node31" class="node"><title>Node31</title>
<polygon fill="white" stroke="#bfbfbf" points="865.109,-129 865.109,-148 936.109,-148 936.109,-129 865.109,-129"/>
<text text-anchor="middle" x="900.609" y="-136" font-family="Helvetica,sans-Serif" font-size="10.00">forward_list</text>
</g>
<!-- Node29&#45;&gt;Node31 -->
<g id="edge46" class="edge"><title>Node29&#45;&gt;Node31</title>
<path fill="none" stroke="midnightblue" d="M900.609,-195.734C900.609,-186.183 900.609,-170.618 900.609,-158.283"/>
<polygon fill="midnightblue" stroke="midnightblue" points="904.109,-158.127 900.609,-148.127 897.109,-158.127 904.109,-158.127"/>
</g>
<!-- Node32 -->
<g id="node32" class="node"><title>Node32</title>
<polygon fill="white" stroke="#bfbfbf" points="954.109,-123.5 954.109,-153.5 1091.11,-153.5 1091.11,-123.5 954.109,-123.5"/>
<text text-anchor="start" x="962.109" y="-141.5" font-family="Helvetica,sans-Serif" font-size="10.00">boost/smart_ptr/intrusive</text>
<text text-anchor="middle" x="1022.61" y="-130.5" font-family="Helvetica,sans-Serif" font-size="10.00">_ptr.hpp</text>
</g>
<!-- Node29&#45;&gt;Node32 -->
<g id="edge53" class="edge"><title>Node29&#45;&gt;Node32</title>
<path fill="none" stroke="midnightblue" d="M916.81,-195.869C934.663,-186.357 963.926,-170.765 987.157,-158.389"/>
<polygon fill="midnightblue" stroke="midnightblue" points="988.868,-161.443 996.048,-153.652 985.577,-155.265 988.868,-161.443"/>
</g>
<!-- Node33&#45;&gt;Node5 -->
<g id="edge61" class="edge"><title>Node33&#45;&gt;Node5</title>
<path fill="none" stroke="midnightblue" d="M1610.91,-128.869C1578.3,-117.473 1520.73,-97.3528 1483.91,-84.4869"/>
<polygon fill="midnightblue" stroke="midnightblue" points="1484.71,-81.0587 1474.11,-81.0637 1482.4,-87.6668 1484.71,-81.0587"/>
</g>
<!-- Node33&#45;&gt;Node7 -->
<g id="edge58" class="edge"><title>Node33&#45;&gt;Node7</title>
<path fill="none" stroke="midnightblue" d="M1607.72,-136.236C1545.34,-132.863 1390.28,-121.422 1265.61,-87 1263.31,-86.366 1260.97,-85.6109 1258.64,-84.7832"/>
<polygon fill="midnightblue" stroke="midnightblue" points="1259.87,-81.5088 1249.29,-81.0961 1257.3,-88.0207 1259.87,-81.5088"/>
</g>
<!-- Node34 -->
<g id="node34" class="node"><title>Node34</title>
<polygon fill="white" stroke="#bfbfbf" points="1809.61,-62 1809.61,-81 1859.61,-81 1859.61,-62 1809.61,-62"/>
<text text-anchor="middle" x="1834.61" y="-69" font-family="Helvetica,sans-Serif" font-size="10.00">chrono</text>
</g>
<!-- Node33&#45;&gt;Node34 -->
<g id="edge59" class="edge"><title>Node33&#45;&gt;Node34</title>
<path fill="none" stroke="midnightblue" d="M1663.35,-129.983C1696.38,-120.81 1753.05,-104.363 1800.61,-87 1802.27,-86.3948 1803.96,-85.7523 1805.66,-85.0875"/>
<polygon fill="midnightblue" stroke="midnightblue" points="1807.4,-88.1603 1815.33,-81.1404 1804.75,-81.6795 1807.4,-88.1603"/>
</g>
<!-- Node35 -->
<g id="node35" class="node"><title>Node35</title>
<polygon fill="white" stroke="#bfbfbf" points="1607.61,-62 1607.61,-81 1663.61,-81 1663.61,-62 1607.61,-62"/>
<text text-anchor="middle" x="1635.61" y="-69" font-family="Helvetica,sans-Serif" font-size="10.00">sstream</text>
</g>
<!-- Node33&#45;&gt;Node35 -->
<g id="edge60" class="edge"><title>Node33&#45;&gt;Node35</title>
<path fill="none" stroke="midnightblue" d="M1635.61,-128.734C1635.61,-119.183 1635.61,-103.618 1635.61,-91.2829"/>
<polygon fill="midnightblue" stroke="midnightblue" points="1639.11,-91.1273 1635.61,-81.1273 1632.11,-91.1273 1639.11,-91.1273"/>
</g>
<!-- Node36 -->
<g id="node36" class="node"><title>Node36</title>
<polygon fill="white" stroke="#bfbfbf" points="1681.61,-56.5 1681.61,-86.5 1791.61,-86.5 1791.61,-56.5 1681.61,-56.5"/>
<text text-anchor="start" x="1689.61" y="-74.5" font-family="Helvetica,sans-Serif" font-size="10.00">boost/preprocessor</text>
<text text-anchor="middle" x="1736.61" y="-63.5" font-family="Helvetica,sans-Serif" font-size="10.00">/cat.hpp</text>
</g>
<!-- Node33&#45;&gt;Node36 -->
<g id="edge62" class="edge"><title>Node33&#45;&gt;Node36</title>
<path fill="none" stroke="midnightblue" d="M1649.23,-128.734C1663.73,-119.4 1687.16,-104.325 1706.11,-92.1311"/>
<polygon fill="midnightblue" stroke="midnightblue" points="1708.2,-94.944 1714.72,-86.589 1704.41,-89.0577 1708.2,-94.944"/>
</g>
</g>
</svg>
