<?xml version="1.0" encoding="UTF-8" standalone="no"?>
<!DOCTYPE svg PUBLIC "-//W3C//DTD SVG 1.1//EN"
 "http://www.w3.org/Graphics/SVG/1.1/DTD/svg11.dtd">
<!-- Generated by graphviz version 2.38.0 (20140413.2041)
 -->
<!-- Title: numerical.cc Pages: 1 -->
<svg width="1182pt" height="263pt"
 viewBox="0.00 0.00 1181.50 263.00" xmlns="http://www.w3.org/2000/svg" xmlns:xlink="http://www.w3.org/1999/xlink">
<g id="graph0" class="graph" transform="scale(1 1) rotate(0) translate(4 259)">
<title>numerical.cc</title>
<polygon fill="white" stroke="none" points="-4,4 -4,-259 1177.5,-259 1177.5,4 -4,4"/>
<!-- Node1 -->
<g id="node1" class="node"><title>Node1</title>
<polygon fill="#bfbfbf" stroke="black" points="331,-235.5 331,-254.5 408,-254.5 408,-235.5 331,-235.5"/>
<text text-anchor="middle" x="369.5" y="-242.5" font-family="Helvetica,sans-Serif" font-size="10.00">numerical.cc</text>
</g>
<!-- Node2 -->
<g id="node2" class="node"><title>Node2</title>
<g id="a_node2"><a xlink:href="numerical_8h.xhtml" target="_top" xlink:title="A collection of numerical expressions. ">
<polygon fill="white" stroke="black" points="151,-179.5 151,-198.5 224,-198.5 224,-179.5 151,-179.5"/>
<text text-anchor="middle" x="187.5" y="-186.5" font-family="Helvetica,sans-Serif" font-size="10.00">numerical.h</text>
</a>
</g>
</g>
<!-- Node1&#45;&gt;Node2 -->
<g id="edge1" class="edge"><title>Node1&#45;&gt;Node2</title>
<path fill="none" stroke="midnightblue" d="M340.662,-235.444C309.644,-226.241 260.171,-211.562 225.882,-201.388"/>
<polygon fill="midnightblue" stroke="midnightblue" points="226.786,-198.006 216.204,-198.516 224.795,-204.716 226.786,-198.006"/>
</g>
<!-- Node13 -->
<g id="node13" class="node"><title>Node13</title>
<g id="a_node13"><a xlink:href="error_8h.xhtml" target="_top" xlink:title="Exceptions for SCRAM. ">
<polygon fill="white" stroke="black" points="618,-179.5 618,-198.5 683,-198.5 683,-179.5 618,-179.5"/>
<text text-anchor="middle" x="650.5" y="-186.5" font-family="Helvetica,sans-Serif" font-size="10.00">src/error.h</text>
</a>
</g>
</g>
<!-- Node1&#45;&gt;Node13 -->
<g id="edge14" class="edge"><title>Node1&#45;&gt;Node13</title>
<path fill="none" stroke="midnightblue" d="M408.277,-236.548C460.61,-226.491 553.528,-208.635 607.803,-198.205"/>
<polygon fill="midnightblue" stroke="midnightblue" points="608.635,-201.609 617.794,-196.285 607.314,-194.735 608.635,-201.609"/>
</g>
<!-- Node3 -->
<g id="node3" class="node"><title>Node3</title>
<polygon fill="white" stroke="#bfbfbf" points="0,-123.5 0,-142.5 47,-142.5 47,-123.5 0,-123.5"/>
<text text-anchor="middle" x="23.5" y="-130.5" font-family="Helvetica,sans-Serif" font-size="10.00">cmath</text>
</g>
<!-- Node2&#45;&gt;Node3 -->
<g id="edge2" class="edge"><title>Node2&#45;&gt;Node3</title>
<path fill="none" stroke="midnightblue" d="M161.514,-179.444C133.275,-170.145 88.0589,-155.257 57.1306,-145.073"/>
<polygon fill="midnightblue" stroke="midnightblue" points="57.8278,-141.618 47.2347,-141.815 55.6385,-148.267 57.8278,-141.618"/>
</g>
<!-- Node4 -->
<g id="node4" class="node"><title>Node4</title>
<polygon fill="white" stroke="#bfbfbf" points="65,-123.5 65,-142.5 128,-142.5 128,-123.5 65,-123.5"/>
<text text-anchor="middle" x="96.5" y="-130.5" font-family="Helvetica,sans-Serif" font-size="10.00">functional</text>
</g>
<!-- Node2&#45;&gt;Node4 -->
<g id="edge3" class="edge"><title>Node2&#45;&gt;Node4</title>
<path fill="none" stroke="midnightblue" d="M172.879,-179.324C158.551,-170.822 136.487,-157.729 119.751,-147.797"/>
<polygon fill="midnightblue" stroke="midnightblue" points="121.47,-144.748 111.084,-142.655 117.898,-150.768 121.47,-144.748"/>
</g>
<!-- Node5 -->
<g id="node5" class="node"><title>Node5</title>
<polygon fill="white" stroke="#bfbfbf" points="48,-6 48,-25 95,-25 95,-6 48,-6"/>
<text text-anchor="middle" x="71.5" y="-13" font-family="Helvetica,sans-Serif" font-size="10.00">vector</text>
</g>
<!-- Node2&#45;&gt;Node5 -->
<g id="edge4" class="edge"><title>Node2&#45;&gt;Node5</title>
<path fill="none" stroke="midnightblue" d="M181.588,-179.26C163.279,-152.191 107.29,-69.413 82.973,-33.4622"/>
<polygon fill="midnightblue" stroke="midnightblue" points="85.7641,-31.3416 77.2624,-25.0194 79.9659,-35.2635 85.7641,-31.3416"/>
</g>
<!-- Node6 -->
<g id="node6" class="node"><title>Node6</title>
<g id="a_node6"><a xlink:href="constant_8h.xhtml" target="_top" xlink:title="Constant expressions that cannot have uncertainties. ">
<polygon fill="white" stroke="black" points="184.5,-123.5 184.5,-142.5 252.5,-142.5 252.5,-123.5 184.5,-123.5"/>
<text text-anchor="middle" x="218.5" y="-130.5" font-family="Helvetica,sans-Serif" font-size="10.00">constant.h</text>
</a>
</g>
</g>
<!-- Node2&#45;&gt;Node6 -->
<g id="edge5" class="edge"><title>Node2&#45;&gt;Node6</title>
<path fill="none" stroke="midnightblue" d="M192.619,-179.083C196.908,-171.613 203.158,-160.724 208.442,-151.52"/>
<polygon fill="midnightblue" stroke="midnightblue" points="211.533,-153.166 213.476,-142.751 205.462,-149.681 211.533,-153.166"/>
</g>
<!-- Node7 -->
<g id="node7" class="node"><title>Node7</title>
<g id="a_node7"><a xlink:href="expression_8h.xhtml" target="_top" xlink:title="Provides the base class for all expressions and units for expression values. ">
<polygon fill="white" stroke="black" points="214,-67.5 214,-86.5 309,-86.5 309,-67.5 214,-67.5"/>
<text text-anchor="middle" x="261.5" y="-74.5" font-family="Helvetica,sans-Serif" font-size="10.00">src/expression.h</text>
</a>
</g>
</g>
<!-- Node2&#45;&gt;Node7 -->
<g id="edge13" class="edge"><title>Node2&#45;&gt;Node7</title>
<path fill="none" stroke="midnightblue" d="M214.429,-179.356C231.219,-172.411 251.478,-160.825 261.5,-143 269.364,-129.014 268.492,-110.512 266.163,-96.8255"/>
<polygon fill="midnightblue" stroke="midnightblue" points="269.509,-95.7301 264.023,-86.6661 262.659,-97.1728 269.509,-95.7301"/>
</g>
<!-- Node6&#45;&gt;Node7 -->
<g id="edge6" class="edge"><title>Node6&#45;&gt;Node7</title>
<path fill="none" stroke="midnightblue" d="M225.601,-123.083C231.737,-115.377 240.77,-104.033 248.239,-94.6531"/>
<polygon fill="midnightblue" stroke="midnightblue" points="251.04,-96.7542 254.532,-86.7511 245.564,-92.3936 251.04,-96.7542"/>
</g>
<!-- Node7&#45;&gt;Node5 -->
<g id="edge10" class="edge"><title>Node7&#45;&gt;Node5</title>
<path fill="none" stroke="midnightblue" d="M226.772,-67.4846C194.672,-59.2761 145.836,-45.9285 104.5,-31 102.841,-30.4008 101.147,-29.7578 99.4464,-29.0879"/>
<polygon fill="midnightblue" stroke="midnightblue" points="100.399,-25.6932 89.8227,-25.0743 97.705,-32.1539 100.399,-25.6932"/>
</g>
<!-- Node8 -->
<g id="node8" class="node"><title>Node8</title>
<polygon fill="white" stroke="#bfbfbf" points="113.5,-6 113.5,-25 175.5,-25 175.5,-6 113.5,-6"/>
<text text-anchor="middle" x="144.5" y="-13" font-family="Helvetica,sans-Serif" font-size="10.00">algorithm</text>
</g>
<!-- Node7&#45;&gt;Node8 -->
<g id="edge7" class="edge"><title>Node7&#45;&gt;Node8</title>
<path fill="none" stroke="midnightblue" d="M244.737,-67.4751C225.275,-57.578 192.955,-41.1416 170.289,-29.6151"/>
<polygon fill="midnightblue" stroke="midnightblue" points="171.732,-26.4224 161.232,-25.0091 168.559,-32.6619 171.732,-26.4224"/>
</g>
<!-- Node9 -->
<g id="node9" class="node"><title>Node9</title>
<polygon fill="white" stroke="#bfbfbf" points="529.5,-6 529.5,-25 573.5,-25 573.5,-6 529.5,-6"/>
<text text-anchor="middle" x="551.5" y="-13" font-family="Helvetica,sans-Serif" font-size="10.00">string</text>
</g>
<!-- Node7&#45;&gt;Node9 -->
<g id="edge8" class="edge"><title>Node7&#45;&gt;Node9</title>
<path fill="none" stroke="midnightblue" d="M309.183,-71.55C361.837,-65.7588 448.666,-53.5967 520.5,-31 522.37,-30.4116 524.274,-29.734 526.17,-28.9999"/>
<polygon fill="midnightblue" stroke="midnightblue" points="527.62,-32.1864 535.415,-25.0107 524.847,-25.7593 527.62,-32.1864"/>
</g>
<!-- Node10 -->
<g id="node10" class="node"><title>Node10</title>
<polygon fill="white" stroke="#bfbfbf" points="193.5,-6 193.5,-25 235.5,-25 235.5,-6 193.5,-6"/>
<text text-anchor="middle" x="214.5" y="-13" font-family="Helvetica,sans-Serif" font-size="10.00">utility</text>
</g>
<!-- Node7&#45;&gt;Node10 -->
<g id="edge9" class="edge"><title>Node7&#45;&gt;Node10</title>
<path fill="none" stroke="midnightblue" d="M254.766,-67.4751C247.716,-58.5501 236.465,-44.3071 227.646,-33.1425"/>
<polygon fill="midnightblue" stroke="midnightblue" points="230.167,-30.6867 221.221,-25.0091 224.674,-35.0258 230.167,-30.6867"/>
</g>
<!-- Node11 -->
<g id="node11" class="node"><title>Node11</title>
<polygon fill="white" stroke="#bfbfbf" points="253.5,-0.5 253.5,-30.5 365.5,-30.5 365.5,-0.5 253.5,-0.5"/>
<text text-anchor="start" x="261.5" y="-18.5" font-family="Helvetica,sans-Serif" font-size="10.00">boost/icl/continuous</text>
<text text-anchor="middle" x="309.5" y="-7.5" font-family="Helvetica,sans-Serif" font-size="10.00">_interval.hpp</text>
</g>
<!-- Node7&#45;&gt;Node11 -->
<g id="edge11" class="edge"><title>Node7&#45;&gt;Node11</title>
<path fill="none" stroke="midnightblue" d="M268.377,-67.4751C274.453,-59.9438 283.583,-48.6259 291.699,-38.5663"/>
<polygon fill="midnightblue" stroke="midnightblue" points="294.633,-40.5037 298.187,-30.523 289.184,-36.1085 294.633,-40.5037"/>
</g>
<!-- Node12 -->
<g id="node12" class="node"><title>Node12</title>
<polygon fill="white" stroke="#bfbfbf" points="383.5,-6 383.5,-25 511.5,-25 511.5,-6 383.5,-6"/>
<text text-anchor="middle" x="447.5" y="-13" font-family="Helvetica,sans-Serif" font-size="10.00">boost/noncopyable.hpp</text>
</g>
<!-- Node7&#45;&gt;Node12 -->
<g id="edge12" class="edge"><title>Node7&#45;&gt;Node12</title>
<path fill="none" stroke="midnightblue" d="M288.149,-67.4751C320.469,-57.1362 375.097,-39.6611 411.233,-28.1017"/>
<polygon fill="midnightblue" stroke="midnightblue" points="412.442,-31.3896 420.9,-25.0091 410.309,-24.7224 412.442,-31.3896"/>
</g>
<!-- Node13&#45;&gt;Node9 -->
<g id="edge16" class="edge"><title>Node13&#45;&gt;Node9</title>
<path fill="none" stroke="midnightblue" d="M617.645,-183.64C574.729,-177.193 503.194,-163.614 487.5,-143 459.937,-106.796 505.562,-56.9096 533.042,-31.9842"/>
<polygon fill="midnightblue" stroke="midnightblue" points="535.683,-34.3222 540.886,-25.0928 531.063,-29.0632 535.683,-34.3222"/>
</g>
<!-- Node14 -->
<g id="node14" class="node"><title>Node14</title>
<polygon fill="white" stroke="#bfbfbf" points="496,-123.5 496,-142.5 559,-142.5 559,-123.5 496,-123.5"/>
<text text-anchor="middle" x="527.5" y="-130.5" font-family="Helvetica,sans-Serif" font-size="10.00">exception</text>
</g>
<!-- Node13&#45;&gt;Node14 -->
<g id="edge15" class="edge"><title>Node13&#45;&gt;Node14</title>
<path fill="none" stroke="midnightblue" d="M631.01,-179.444C610.858,-170.596 579.177,-156.687 556.169,-146.586"/>
<polygon fill="midnightblue" stroke="midnightblue" points="557.462,-143.332 546.899,-142.516 554.648,-149.741 557.462,-143.332"/>
</g>
<!-- Node15 -->
<g id="node15" class="node"><title>Node15</title>
<polygon fill="white" stroke="#bfbfbf" points="577.5,-123.5 577.5,-142.5 723.5,-142.5 723.5,-123.5 577.5,-123.5"/>
<text text-anchor="middle" x="650.5" y="-130.5" font-family="Helvetica,sans-Serif" font-size="10.00">boost/current_function.hpp</text>
</g>
<!-- Node13&#45;&gt;Node15 -->
<g id="edge17" class="edge"><title>Node13&#45;&gt;Node15</title>
<path fill="none" stroke="midnightblue" d="M650.5,-179.083C650.5,-172.006 650.5,-161.861 650.5,-152.986"/>
<polygon fill="midnightblue" stroke="midnightblue" points="654,-152.751 650.5,-142.751 647,-152.751 654,-152.751"/>
</g>
<!-- Node16 -->
<g id="node16" class="node"><title>Node16</title>
<polygon fill="white" stroke="#bfbfbf" points="741.5,-123.5 741.5,-142.5 905.5,-142.5 905.5,-123.5 741.5,-123.5"/>
<text text-anchor="middle" x="823.5" y="-130.5" font-family="Helvetica,sans-Serif" font-size="10.00">boost/exception/exception.hpp</text>
</g>
<!-- Node13&#45;&gt;Node16 -->
<g id="edge18" class="edge"><title>Node13&#45;&gt;Node16</title>
<path fill="none" stroke="midnightblue" d="M677.912,-179.444C707.269,-170.28 754.019,-155.688 786.596,-145.519"/>
<polygon fill="midnightblue" stroke="midnightblue" points="787.713,-148.837 796.216,-142.516 785.627,-142.155 787.713,-148.837"/>
</g>
<!-- Node17 -->
<g id="node17" class="node"><title>Node17</title>
<polygon fill="white" stroke="#bfbfbf" points="923.5,-123.5 923.5,-142.5 1057.5,-142.5 1057.5,-123.5 923.5,-123.5"/>
<text text-anchor="middle" x="990.5" y="-130.5" font-family="Helvetica,sans-Serif" font-size="10.00">boost/exception/info.hpp</text>
</g>
<!-- Node13&#45;&gt;Node17 -->
<g id="edge19" class="edge"><title>Node13&#45;&gt;Node17</title>
<path fill="none" stroke="midnightblue" d="M683.101,-182.822C739.137,-173.922 854.663,-155.574 927.036,-144.08"/>
<polygon fill="midnightblue" stroke="midnightblue" points="927.624,-147.53 936.951,-142.505 926.526,-140.617 927.624,-147.53"/>
</g>
<!-- Node18 -->
<g id="node18" class="node"><title>Node18</title>
<g id="a_node18"><a xlink:href="source__info_8h.xhtml" target="_top" xlink:title="Helper facilities to get source file information. ">
<polygon fill="white" stroke="black" points="1075.5,-123.5 1075.5,-142.5 1173.5,-142.5 1173.5,-123.5 1075.5,-123.5"/>
<text text-anchor="middle" x="1124.5" y="-130.5" font-family="Helvetica,sans-Serif" font-size="10.00">ext/source_info.h</text>
</a>
</g>
</g>
<!-- Node13&#45;&gt;Node18 -->
<g id="edge20" class="edge"><title>Node13&#45;&gt;Node18</title>
<path fill="none" stroke="midnightblue" d="M683.191,-184.982C751.882,-178.529 916.462,-162.486 1065.25,-143.111"/>
<polygon fill="midnightblue" stroke="midnightblue" points="1066.01,-146.54 1075.48,-141.77 1065.11,-139.599 1066.01,-146.54"/>
</g>
</g>
</svg>
