<?xml version="1.0" encoding="UTF-8" standalone="no"?>
<!DOCTYPE svg PUBLIC "-//W3C//DTD SVG 1.1//EN"
 "http://www.w3.org/Graphics/SVG/1.1/DTD/svg11.dtd">
<!-- Generated by graphviz version 2.38.0 (20140413.2041)
 -->
<!-- Title: parameter.h Pages: 1 -->
<svg width="888pt" height="308pt"
 viewBox="0.00 0.00 888.00 308.00" xmlns="http://www.w3.org/2000/svg" xmlns:xlink="http://www.w3.org/1999/xlink">
<g id="graph0" class="graph" transform="scale(1 1) rotate(0) translate(4 304)">
<title>parameter.h</title>
<polygon fill="white" stroke="none" points="-4,4 -4,-304 884,-304 884,4 -4,4"/>
<!-- Node1 -->
<g id="node1" class="node"><title>Node1</title>
<polygon fill="#bfbfbf" stroke="black" points="333.5,-280.5 333.5,-299.5 409.5,-299.5 409.5,-280.5 333.5,-280.5"/>
<text text-anchor="middle" x="371.5" y="-287.5" font-family="Helvetica,sans-Serif" font-size="10.00">parameter.h</text>
</g>
<!-- Node2 -->
<g id="node2" class="node"><title>Node2</title>
<g id="a_node2"><a xlink:href="cycle_8h.xhtml" target="_top" xlink:title="Validation facilities to detect and print cycles in graphs. ">
<polygon fill="white" stroke="black" points="11.5,-168.5 11.5,-187.5 61.5,-187.5 61.5,-168.5 11.5,-168.5"/>
<text text-anchor="middle" x="36.5" y="-175.5" font-family="Helvetica,sans-Serif" font-size="10.00">cycle.h</text>
</a>
</g>
</g>
<!-- Node1&#45;&gt;Node2 -->
<g id="edge1" class="edge"><title>Node1&#45;&gt;Node2</title>
<path fill="none" stroke="midnightblue" d="M323.056,-286.425C250.274,-281.761 117.021,-269.891 77.5,-244 56.7417,-230.401 44.5042,-202.25 39.3639,-187.872"/>
<polygon fill="midnightblue" stroke="midnightblue" points="323.14,-289.937 333.337,-287.062 323.573,-282.951 323.14,-289.937"/>
</g>
<!-- Node4 -->
<g id="node4" class="node"><title>Node4</title>
<g id="a_node4"><a xlink:href="fault__tree_8h.xhtml" target="_top" xlink:title="Fault Tree and Component containers. ">
<polygon fill="white" stroke="black" points="246,-224.5 246,-243.5 317,-243.5 317,-224.5 246,-224.5"/>
<text text-anchor="middle" x="281.5" y="-231.5" font-family="Helvetica,sans-Serif" font-size="10.00">fault_tree.h</text>
</a>
</g>
</g>
<!-- Node1&#45;&gt;Node4 -->
<g id="edge3" class="edge"><title>Node1&#45;&gt;Node4</title>
<path fill="none" stroke="midnightblue" d="M348.462,-275.177C331.901,-265.241 310.082,-252.149 295.924,-243.655"/>
<polygon fill="midnightblue" stroke="midnightblue" points="346.664,-278.18 357.04,-280.324 350.266,-272.178 346.664,-278.18"/>
</g>
<!-- Node6 -->
<g id="node6" class="node"><title>Node6</title>
<g id="a_node6"><a xlink:href="initializer_8h.xhtml" target="_top" xlink:title="A facility that processes input files into analysis constructs. ">
<polygon fill="white" stroke="black" points="65,-112.5 65,-131.5 132,-131.5 132,-112.5 65,-112.5"/>
<text text-anchor="middle" x="98.5" y="-119.5" font-family="Helvetica,sans-Serif" font-size="10.00">initializer.h</text>
</a>
</g>
</g>
<!-- Node1&#45;&gt;Node6 -->
<g id="edge25" class="edge"><title>Node1&#45;&gt;Node6</title>
<path fill="none" stroke="midnightblue" d="M323.357,-282.053C267.527,-271.484 176.409,-246.069 123.5,-188 108.517,-171.556 102.157,-145.171 99.7647,-131.63"/>
<polygon fill="midnightblue" stroke="midnightblue" points="322.891,-285.525 333.354,-283.858 324.135,-278.636 322.891,-285.525"/>
</g>
<!-- Node8 -->
<g id="node8" class="node"><title>Node8</title>
<g id="a_node8"><a xlink:href="model_8h.xhtml" target="_top" xlink:title="Representation for a model container for risk analysis. ">
<polygon fill="white" stroke="black" points="343.5,-168.5 343.5,-187.5 399.5,-187.5 399.5,-168.5 343.5,-168.5"/>
<text text-anchor="middle" x="371.5" y="-175.5" font-family="Helvetica,sans-Serif" font-size="10.00">model.h</text>
</a>
</g>
</g>
<!-- Node1&#45;&gt;Node8 -->
<g id="edge24" class="edge"><title>Node1&#45;&gt;Node8</title>
<path fill="none" stroke="midnightblue" d="M371.5,-270.348C371.5,-246.254 371.5,-205.308 371.5,-187.591"/>
<polygon fill="midnightblue" stroke="midnightblue" points="368,-270.368 371.5,-280.368 375,-270.369 368,-270.368"/>
</g>
<!-- Node12 -->
<g id="node12" class="node"><title>Node12</title>
<g id="a_node12"><a xlink:href="reporter_8cc.xhtml" target="_top" xlink:title="Implements Reporter class. ">
<polygon fill="white" stroke="black" points="535.5,-0.5 535.5,-19.5 603.5,-19.5 603.5,-0.5 535.5,-0.5"/>
<text text-anchor="middle" x="569.5" y="-7.5" font-family="Helvetica,sans-Serif" font-size="10.00">reporter.cc</text>
</a>
</g>
</g>
<!-- Node1&#45;&gt;Node12 -->
<g id="edge28" class="edge"><title>Node1&#45;&gt;Node12</title>
<path fill="none" stroke="midnightblue" d="M419.869,-289.177C494.825,-286.63 630.5,-269.517 630.5,-179 630.5,-179 630.5,-179 630.5,-121 630.5,-78.4177 595.107,-36.8832 578.24,-19.5071"/>
<polygon fill="midnightblue" stroke="midnightblue" points="419.62,-285.682 409.716,-289.446 419.806,-292.68 419.62,-285.682"/>
</g>
<!-- Node17 -->
<g id="node17" class="node"><title>Node17</title>
<g id="a_node17"><a xlink:href="parameter_8cc.xhtml" target="_top" xlink:title="Implementation of expression parameters. ">
<polygon fill="white" stroke="black" points="658.5,-224.5 658.5,-243.5 738.5,-243.5 738.5,-224.5 658.5,-224.5"/>
<text text-anchor="middle" x="698.5" y="-231.5" font-family="Helvetica,sans-Serif" font-size="10.00">parameter.cc</text>
</a>
</g>
</g>
<!-- Node1&#45;&gt;Node17 -->
<g id="edge26" class="edge"><title>Node1&#45;&gt;Node17</title>
<path fill="none" stroke="midnightblue" d="M420.016,-281.03C474.605,-272.055 565.923,-257.024 644.5,-244 649.001,-243.254 653.712,-242.471 658.397,-241.692"/>
<polygon fill="midnightblue" stroke="midnightblue" points="419.233,-277.611 409.933,-282.687 420.368,-284.519 419.233,-277.611"/>
</g>
<!-- Node18 -->
<g id="node18" class="node"><title>Node18</title>
<g id="a_node18"><a xlink:href="probability__analysis_8cc.xhtml" target="_top" xlink:title="Implementations of functions to provide probability analysis. ">
<polygon fill="white" stroke="black" points="757,-224.5 757,-243.5 880,-243.5 880,-224.5 757,-224.5"/>
<text text-anchor="middle" x="818.5" y="-231.5" font-family="Helvetica,sans-Serif" font-size="10.00">probability_analysis.cc</text>
</a>
</g>
</g>
<!-- Node1&#45;&gt;Node18 -->
<g id="edge27" class="edge"><title>Node1&#45;&gt;Node18</title>
<path fill="none" stroke="midnightblue" d="M419.734,-283.336C491.293,-274.909 629.803,-258.503 747.5,-244 750.583,-243.62 753.741,-243.229 756.93,-242.831"/>
<polygon fill="midnightblue" stroke="midnightblue" points="419.194,-279.876 409.672,-284.521 420.013,-286.828 419.194,-279.876"/>
</g>
<!-- Node3 -->
<g id="node3" class="node"><title>Node3</title>
<g id="a_node3"><a xlink:href="initializer_8cc.xhtml" target="_top" xlink:title="Implementation of input file processing into analysis constructs. ">
<polygon fill="white" stroke="black" points="0,-56.5 0,-75.5 71,-75.5 71,-56.5 0,-56.5"/>
<text text-anchor="middle" x="35.5" y="-63.5" font-family="Helvetica,sans-Serif" font-size="10.00">initializer.cc</text>
</a>
</g>
</g>
<!-- Node2&#45;&gt;Node3 -->
<g id="edge2" class="edge"><title>Node2&#45;&gt;Node3</title>
<path fill="none" stroke="midnightblue" d="M36.3304,-158.348C36.1114,-134.254 35.7392,-93.3079 35.5781,-75.5914"/>
<polygon fill="midnightblue" stroke="midnightblue" points="32.8307,-158.401 36.4215,-168.368 39.8304,-158.337 32.8307,-158.401"/>
</g>
<!-- Node5 -->
<g id="node5" class="node"><title>Node5</title>
<g id="a_node5"><a xlink:href="fault__tree_8cc.xhtml" target="_top" xlink:title="Implementation of fault tree and component containers. ">
<polygon fill="white" stroke="black" points="157.5,-168.5 157.5,-187.5 233.5,-187.5 233.5,-168.5 157.5,-168.5"/>
<text text-anchor="middle" x="195.5" y="-175.5" font-family="Helvetica,sans-Serif" font-size="10.00">fault_tree.cc</text>
</a>
</g>
</g>
<!-- Node4&#45;&gt;Node5 -->
<g id="edge4" class="edge"><title>Node4&#45;&gt;Node5</title>
<path fill="none" stroke="midnightblue" d="M259.045,-218.901C243.276,-208.999 222.686,-196.071 209.283,-187.655"/>
<polygon fill="midnightblue" stroke="midnightblue" points="257.352,-221.97 267.683,-224.324 261.075,-216.042 257.352,-221.97"/>
</g>
<!-- Node4&#45;&gt;Node6 -->
<g id="edge5" class="edge"><title>Node4&#45;&gt;Node6</title>
<path fill="none" stroke="midnightblue" d="M235.787,-224.542C208.586,-217.884 174.435,-206.542 148.5,-188 127.19,-172.765 110.683,-145.851 103.083,-131.917"/>
<polygon fill="midnightblue" stroke="midnightblue" points="235.309,-228.024 245.841,-226.87 236.888,-221.205 235.309,-228.024"/>
</g>
<!-- Node4&#45;&gt;Node8 -->
<g id="edge8" class="edge"><title>Node4&#45;&gt;Node8</title>
<path fill="none" stroke="midnightblue" d="M304.538,-219.177C321.099,-209.241 342.918,-196.149 357.076,-187.655"/>
<polygon fill="midnightblue" stroke="midnightblue" points="302.734,-216.178 295.96,-224.324 306.336,-222.18 302.734,-216.178"/>
</g>
<!-- Node14 -->
<g id="node14" class="node"><title>Node14</title>
<g id="a_node14"><a xlink:href="risk__analysis_8cc.xhtml" target="_top" xlink:title="Implementation of risk analysis handler. ">
<polygon fill="white" stroke="black" points="271.5,-56.5 271.5,-75.5 361.5,-75.5 361.5,-56.5 271.5,-56.5"/>
<text text-anchor="middle" x="316.5" y="-63.5" font-family="Helvetica,sans-Serif" font-size="10.00">risk_analysis.cc</text>
</a>
</g>
</g>
<!-- Node4&#45;&gt;Node14 -->
<g id="edge22" class="edge"><title>Node4&#45;&gt;Node14</title>
<path fill="none" stroke="midnightblue" d="M285.521,-213.93C293.113,-177.92 309.283,-101.231 314.693,-75.5681"/>
<polygon fill="midnightblue" stroke="midnightblue" points="282.02,-213.568 283.382,-224.075 288.87,-215.012 282.02,-213.568"/>
</g>
<!-- Node16 -->
<g id="node16" class="node"><title>Node16</title>
<g id="a_node16"><a xlink:href="serialization_8cc.xhtml" target="_top" xlink:title="serialization.cc">
<polygon fill="white" stroke="black" points="128,-56.5 128,-75.5 215,-75.5 215,-56.5 128,-56.5"/>
<text text-anchor="middle" x="171.5" y="-63.5" font-family="Helvetica,sans-Serif" font-size="10.00">serialization.cc</text>
</a>
</g>
</g>
<!-- Node4&#45;&gt;Node16 -->
<g id="edge23" class="edge"><title>Node4&#45;&gt;Node16</title>
<path fill="none" stroke="midnightblue" d="M273.973,-215.348C267.287,-201.238 256.424,-181.631 242.5,-168 219.455,-145.44 197.363,-158.85 179.5,-132 168.038,-114.771 168.83,-89.1866 170.246,-75.835"/>
<polygon fill="midnightblue" stroke="midnightblue" points="270.79,-216.805 278.087,-224.487 277.174,-213.932 270.79,-216.805"/>
</g>
<!-- Node6&#45;&gt;Node3 -->
<g id="edge6" class="edge"><title>Node6&#45;&gt;Node3</title>
<path fill="none" stroke="midnightblue" d="M80.4601,-105.537C69.2269,-95.9087 55.1809,-83.8694 45.8062,-75.8339"/>
<polygon fill="midnightblue" stroke="midnightblue" points="78.5076,-108.473 88.378,-112.324 83.0632,-103.159 78.5076,-108.473"/>
</g>
<!-- Node7 -->
<g id="node7" class="node"><title>Node7</title>
<g id="a_node7"><a xlink:href="scram_8cc.xhtml" target="_top" xlink:title="Main entrance. ">
<polygon fill="white" stroke="black" points="286.5,-0.5 286.5,-19.5 346.5,-19.5 346.5,-0.5 286.5,-0.5"/>
<text text-anchor="middle" x="316.5" y="-7.5" font-family="Helvetica,sans-Serif" font-size="10.00">scram.cc</text>
</a>
</g>
</g>
<!-- Node6&#45;&gt;Node7 -->
<g id="edge7" class="edge"><title>Node6&#45;&gt;Node7</title>
<path fill="none" stroke="midnightblue" d="M99.3777,-102.033C101.085,-87.4211 105.796,-67.7849 118.5,-56 142.664,-33.584 237.176,-19.9051 286.368,-14.1597"/>
<polygon fill="midnightblue" stroke="midnightblue" points="95.855,-102.184 98.557,-112.428 102.833,-102.735 95.855,-102.184"/>
</g>
<!-- Node8&#45;&gt;Node6 -->
<g id="edge9" class="edge"><title>Node8&#45;&gt;Node6</title>
<path fill="none" stroke="midnightblue" d="M333.185,-169.421C279.553,-158.813 182.967,-139.708 132.035,-129.633"/>
<polygon fill="midnightblue" stroke="midnightblue" points="332.823,-172.917 343.312,-171.424 334.182,-166.05 332.823,-172.917"/>
</g>
<!-- Node9 -->
<g id="node9" class="node"><title>Node9</title>
<g id="a_node9"><a xlink:href="model_8cc.xhtml" target="_top" xlink:title="Implementation of functions in Model class. ">
<polygon fill="white" stroke="black" points="432.5,-112.5 432.5,-131.5 492.5,-131.5 492.5,-112.5 432.5,-112.5"/>
<text text-anchor="middle" x="462.5" y="-119.5" font-family="Helvetica,sans-Serif" font-size="10.00">model.cc</text>
</a>
</g>
</g>
<!-- Node8&#45;&gt;Node9 -->
<g id="edge10" class="edge"><title>Node8&#45;&gt;Node9</title>
<path fill="none" stroke="midnightblue" d="M394.794,-163.177C411.539,-153.241 433.6,-140.149 447.916,-131.655"/>
<polygon fill="midnightblue" stroke="midnightblue" points="392.934,-160.211 386.121,-168.324 396.507,-166.231 392.934,-160.211"/>
</g>
<!-- Node10 -->
<g id="node10" class="node"><title>Node10</title>
<g id="a_node10"><a xlink:href="pdag_8cc.xhtml" target="_top" xlink:title="Implementation of a Propositional Directed Acyclic Graph with indexed nodes, variables, and gates. ">
<polygon fill="white" stroke="black" points="510.5,-112.5 510.5,-131.5 564.5,-131.5 564.5,-112.5 510.5,-112.5"/>
<text text-anchor="middle" x="537.5" y="-119.5" font-family="Helvetica,sans-Serif" font-size="10.00">pdag.cc</text>
</a>
</g>
</g>
<!-- Node8&#45;&gt;Node10 -->
<g id="edge11" class="edge"><title>Node8&#45;&gt;Node10</title>
<path fill="none" stroke="midnightblue" d="M407.453,-165.304C438.732,-155.129 483.321,-140.625 511.32,-131.516"/>
<polygon fill="midnightblue" stroke="midnightblue" points="406.23,-162.022 397.803,-168.444 408.395,-168.678 406.23,-162.022"/>
</g>
<!-- Node11 -->
<g id="node11" class="node"><title>Node11</title>
<g id="a_node11"><a xlink:href="reporter_8h.xhtml" target="_top" xlink:title="Reporter of results. ">
<polygon fill="white" stroke="black" points="477.5,-56.5 477.5,-75.5 541.5,-75.5 541.5,-56.5 477.5,-56.5"/>
<text text-anchor="middle" x="509.5" y="-63.5" font-family="Helvetica,sans-Serif" font-size="10.00">reporter.h</text>
</a>
</g>
</g>
<!-- Node8&#45;&gt;Node11 -->
<g id="edge12" class="edge"><title>Node8&#45;&gt;Node11</title>
<path fill="none" stroke="midnightblue" d="M409.816,-174.05C462.577,-169.102 553.378,-157.097 573.5,-132 591.034,-110.13 553.727,-87.4294 529.032,-75.5015"/>
<polygon fill="midnightblue" stroke="midnightblue" points="409.451,-170.569 399.804,-174.948 410.076,-177.541 409.451,-170.569"/>
</g>
<!-- Node13 -->
<g id="node13" class="node"><title>Node13</title>
<g id="a_node13"><a xlink:href="risk__analysis_8h.xhtml" target="_top" xlink:title="Contains the main system for performing analysis. ">
<polygon fill="white" stroke="black" points="328.5,-112.5 328.5,-131.5 414.5,-131.5 414.5,-112.5 328.5,-112.5"/>
<text text-anchor="middle" x="371.5" y="-119.5" font-family="Helvetica,sans-Serif" font-size="10.00">risk_analysis.h</text>
</a>
</g>
</g>
<!-- Node8&#45;&gt;Node13 -->
<g id="edge15" class="edge"><title>Node8&#45;&gt;Node13</title>
<path fill="none" stroke="midnightblue" d="M371.5,-157.805C371.5,-148.91 371.5,-138.78 371.5,-131.751"/>
<polygon fill="midnightblue" stroke="midnightblue" points="368,-158.083 371.5,-168.083 375,-158.083 368,-158.083"/>
</g>
<!-- Node15 -->
<g id="node15" class="node"><title>Node15</title>
<g id="a_node15"><a xlink:href="serialization_8h.xhtml" target="_top" xlink:title="The MEF Model serialization facilities. ">
<polygon fill="white" stroke="black" points="189,-112.5 189,-131.5 272,-131.5 272,-112.5 189,-112.5"/>
<text text-anchor="middle" x="230.5" y="-119.5" font-family="Helvetica,sans-Serif" font-size="10.00">serialization.h</text>
</a>
</g>
</g>
<!-- Node8&#45;&gt;Node15 -->
<g id="edge19" class="edge"><title>Node8&#45;&gt;Node15</title>
<path fill="none" stroke="midnightblue" d="M339.571,-164.772C313.086,-154.629 276.108,-140.467 252.737,-131.516"/>
<polygon fill="midnightblue" stroke="midnightblue" points="338.568,-168.136 349.158,-168.444 341.071,-161.599 338.568,-168.136"/>
</g>
<!-- Node11&#45;&gt;Node7 -->
<g id="edge14" class="edge"><title>Node11&#45;&gt;Node7</title>
<path fill="none" stroke="midnightblue" d="M469.078,-53.6902C432.536,-43.4661 379.565,-28.6453 346.621,-19.4275"/>
<polygon fill="midnightblue" stroke="midnightblue" points="468.345,-57.1196 478.919,-56.4435 470.231,-50.3785 468.345,-57.1196"/>
</g>
<!-- Node11&#45;&gt;Node12 -->
<g id="edge13" class="edge"><title>Node11&#45;&gt;Node12</title>
<path fill="none" stroke="midnightblue" d="M526.681,-49.5372C537.379,-39.9087 550.756,-27.8694 559.685,-19.8339"/>
<polygon fill="midnightblue" stroke="midnightblue" points="524.232,-47.0327 519.14,-56.324 528.914,-52.2358 524.232,-47.0327"/>
</g>
<!-- Node13&#45;&gt;Node7 -->
<g id="edge18" class="edge"><title>Node13&#45;&gt;Node7</title>
<path fill="none" stroke="midnightblue" d="M375.185,-102.467C376.96,-88.9266 377.418,-70.4795 370.5,-56 362.714,-39.7034 345.882,-27.2094 333.066,-19.5681"/>
<polygon fill="midnightblue" stroke="midnightblue" points="371.706,-102.053 373.517,-112.492 378.611,-103.202 371.706,-102.053"/>
</g>
<!-- Node13&#45;&gt;Node11 -->
<g id="edge16" class="edge"><title>Node13&#45;&gt;Node11</title>
<path fill="none" stroke="midnightblue" d="M402.749,-108.772C428.671,-98.6287 464.862,-84.4669 487.736,-75.5164"/>
<polygon fill="midnightblue" stroke="midnightblue" points="401.404,-105.54 393.367,-112.444 403.954,-112.059 401.404,-105.54"/>
</g>
<!-- Node13&#45;&gt;Node14 -->
<g id="edge17" class="edge"><title>Node13&#45;&gt;Node14</title>
<path fill="none" stroke="midnightblue" d="M355.206,-105.002C345.459,-95.4329 333.447,-83.6389 325.413,-75.7511"/>
<polygon fill="midnightblue" stroke="midnightblue" points="352.83,-107.575 362.418,-112.083 357.734,-102.58 352.83,-107.575"/>
</g>
<!-- Node15&#45;&gt;Node7 -->
<g id="edge20" class="edge"><title>Node15&#45;&gt;Node7</title>
<path fill="none" stroke="midnightblue" d="M237.128,-102.623C242.621,-88.9186 251.329,-70.1947 262.5,-56 274.123,-41.2317 291.303,-27.947 303.149,-19.7053"/>
<polygon fill="midnightblue" stroke="midnightblue" points="233.71,-101.765 233.427,-112.356 240.253,-104.253 233.71,-101.765"/>
</g>
<!-- Node15&#45;&gt;Node16 -->
<g id="edge21" class="edge"><title>Node15&#45;&gt;Node16</title>
<path fill="none" stroke="midnightblue" d="M213.605,-105.537C203.085,-95.9087 189.931,-83.8694 181.152,-75.8339"/>
<polygon fill="midnightblue" stroke="midnightblue" points="211.281,-108.154 221.021,-112.324 216.007,-102.99 211.281,-108.154"/>
</g>
</g>
</svg>
