<?xml version="1.0" encoding="UTF-8" standalone="no"?>
<!DOCTYPE svg PUBLIC "-//W3C//DTD SVG 1.1//EN"
 "http://www.w3.org/Graphics/SVG/1.1/DTD/svg11.dtd">
<!-- Generated by graphviz version 2.38.0 (20140413.2041)
 -->
<!-- Title: parameter.cc Pages: 1 -->
<svg width="1547pt" height="207pt"
 viewBox="0.00 0.00 1546.50 207.00" xmlns="http://www.w3.org/2000/svg" xmlns:xlink="http://www.w3.org/1999/xlink">
<g id="graph0" class="graph" transform="scale(1 1) rotate(0) translate(4 203)">
<title>parameter.cc</title>
<polygon fill="white" stroke="none" points="-4,4 -4,-203 1542.5,-203 1542.5,4 -4,4"/>
<!-- Node1 -->
<g id="node1" class="node"><title>Node1</title>
<polygon fill="#bfbfbf" stroke="black" points="863.5,-179.5 863.5,-198.5 943.5,-198.5 943.5,-179.5 863.5,-179.5"/>
<text text-anchor="middle" x="903.5" y="-186.5" font-family="Helvetica,sans-Serif" font-size="10.00">parameter.cc</text>
</g>
<!-- Node2 -->
<g id="node2" class="node"><title>Node2</title>
<g id="a_node2"><a xlink:href="parameter_8h.xhtml" target="_top" xlink:title="Parameter expressions that act like a shareable variable. ">
<polygon fill="white" stroke="black" points="631.5,-123.5 631.5,-142.5 707.5,-142.5 707.5,-123.5 631.5,-123.5"/>
<text text-anchor="middle" x="669.5" y="-130.5" font-family="Helvetica,sans-Serif" font-size="10.00">parameter.h</text>
</a>
</g>
</g>
<!-- Node1&#45;&gt;Node2 -->
<g id="edge1" class="edge"><title>Node1&#45;&gt;Node2</title>
<path fill="none" stroke="midnightblue" d="M866.422,-179.444C825.772,-170.063 760.468,-154.993 716.316,-144.804"/>
<polygon fill="midnightblue" stroke="midnightblue" points="716.935,-141.355 706.405,-142.516 715.361,-148.175 716.935,-141.355"/>
</g>
<!-- Node16 -->
<g id="node16" class="node"><title>Node16</title>
<g id="a_node16"><a xlink:href="error_8h.xhtml" target="_top" xlink:title="Exceptions for SCRAM. ">
<polygon fill="white" stroke="black" points="1085.5,-123.5 1085.5,-142.5 1133.5,-142.5 1133.5,-123.5 1085.5,-123.5"/>
<text text-anchor="middle" x="1109.5" y="-130.5" font-family="Helvetica,sans-Serif" font-size="10.00">error.h</text>
</a>
</g>
</g>
<!-- Node1&#45;&gt;Node16 -->
<g id="edge20" class="edge"><title>Node1&#45;&gt;Node16</title>
<path fill="none" stroke="midnightblue" d="M936.141,-179.444C974.258,-169.452 1037,-153.005 1075.63,-142.878"/>
<polygon fill="midnightblue" stroke="midnightblue" points="1076.59,-146.244 1085.38,-140.323 1074.82,-139.473 1076.59,-146.244"/>
</g>
<!-- Node3 -->
<g id="node3" class="node"><title>Node3</title>
<polygon fill="white" stroke="#bfbfbf" points="0,-6 0,-25 49,-25 49,-6 0,-6"/>
<text text-anchor="middle" x="24.5" y="-13" font-family="Helvetica,sans-Serif" font-size="10.00">cstdint</text>
</g>
<!-- Node2&#45;&gt;Node3 -->
<g id="edge2" class="edge"><title>Node2&#45;&gt;Node3</title>
<path fill="none" stroke="midnightblue" d="M631.253,-128.88C533.973,-120.261 269.853,-92.57 58.5,-31 56.3475,-30.3729 54.1492,-29.647 51.9578,-28.8608"/>
<polygon fill="midnightblue" stroke="midnightblue" points="53.1439,-25.5662 42.5573,-25.1483 50.5727,-32.0769 53.1439,-25.5662"/>
</g>
<!-- Node4 -->
<g id="node4" class="node"><title>Node4</title>
<polygon fill="white" stroke="#bfbfbf" points="613,-67.5 613,-86.5 670,-86.5 670,-67.5 613,-67.5"/>
<text text-anchor="middle" x="641.5" y="-74.5" font-family="Helvetica,sans-Serif" font-size="10.00">memory</text>
</g>
<!-- Node2&#45;&gt;Node4 -->
<g id="edge3" class="edge"><title>Node2&#45;&gt;Node4</title>
<path fill="none" stroke="midnightblue" d="M664.876,-123.083C661.044,-115.691 655.476,-104.953 650.735,-95.8111"/>
<polygon fill="midnightblue" stroke="midnightblue" points="653.748,-94.0175 646.038,-86.7511 647.534,-97.2398 653.748,-94.0175"/>
</g>
<!-- Node5 -->
<g id="node5" class="node"><title>Node5</title>
<polygon fill="white" stroke="#bfbfbf" points="775.5,-6 775.5,-25 819.5,-25 819.5,-6 775.5,-6"/>
<text text-anchor="middle" x="797.5" y="-13" font-family="Helvetica,sans-Serif" font-size="10.00">string</text>
</g>
<!-- Node2&#45;&gt;Node5 -->
<g id="edge4" class="edge"><title>Node2&#45;&gt;Node5</title>
<path fill="none" stroke="midnightblue" d="M674.526,-123.204C682.428,-109.902 698.8,-84.3826 717.5,-67 733.49,-52.137 754.441,-39.0946 770.891,-29.9889"/>
<polygon fill="midnightblue" stroke="midnightblue" points="772.836,-32.9172 779.986,-25.0984 769.521,-26.7521 772.836,-32.9172"/>
</g>
<!-- Node6 -->
<g id="node6" class="node"><title>Node6</title>
<g id="a_node6"><a xlink:href="element_8h.xhtml" target="_top" xlink:title="Helper classes, structs, and properties common to all other classes. ">
<polygon fill="white" stroke="black" points="486,-67.5 486,-86.5 551,-86.5 551,-67.5 486,-67.5"/>
<text text-anchor="middle" x="518.5" y="-74.5" font-family="Helvetica,sans-Serif" font-size="10.00">element.h</text>
</a>
</g>
</g>
<!-- Node2&#45;&gt;Node6 -->
<g id="edge5" class="edge"><title>Node2&#45;&gt;Node6</title>
<path fill="none" stroke="midnightblue" d="M645.574,-123.444C620.281,-114.399 580.198,-100.064 551.82,-89.9158"/>
<polygon fill="midnightblue" stroke="midnightblue" points="552.909,-86.5882 542.314,-86.5164 550.552,-93.1794 552.909,-86.5882"/>
</g>
<!-- Node12 -->
<g id="node12" class="node"><title>Node12</title>
<g id="a_node12"><a xlink:href="expression_8h.xhtml" target="_top" xlink:title="Provides the base class for all expressions and units for expression values. ">
<polygon fill="white" stroke="black" points="727,-67.5 727,-86.5 804,-86.5 804,-67.5 727,-67.5"/>
<text text-anchor="middle" x="765.5" y="-74.5" font-family="Helvetica,sans-Serif" font-size="10.00">expression.h</text>
</a>
</g>
</g>
<!-- Node2&#45;&gt;Node12 -->
<g id="edge13" class="edge"><title>Node2&#45;&gt;Node12</title>
<path fill="none" stroke="midnightblue" d="M684.924,-123.324C700.04,-114.822 723.315,-101.729 740.971,-91.7975"/>
<polygon fill="midnightblue" stroke="midnightblue" points="743.114,-94.6077 750.114,-86.6545 739.683,-88.5066 743.114,-94.6077"/>
</g>
<!-- Node6&#45;&gt;Node3 -->
<g id="edge6" class="edge"><title>Node6&#45;&gt;Node3</title>
<path fill="none" stroke="midnightblue" d="M485.848,-76.1946C409.703,-75.9205 214.955,-71.0021 58.5,-31 56.1394,-30.3965 53.7312,-29.653 51.3413,-28.8243"/>
<polygon fill="midnightblue" stroke="midnightblue" points="52.3773,-25.4712 41.7897,-25.079 49.8219,-31.9881 52.3773,-25.4712"/>
</g>
<!-- Node6&#45;&gt;Node5 -->
<g id="edge7" class="edge"><title>Node6&#45;&gt;Node5</title>
<path fill="none" stroke="midnightblue" d="M551.082,-72.6432C598.922,-67.1398 690.612,-54.3979 765.5,-31 767.378,-30.4134 769.29,-29.7445 771.198,-29.0233"/>
<polygon fill="midnightblue" stroke="midnightblue" points="772.655,-32.2077 780.531,-25.1208 769.955,-25.7496 772.655,-32.2077"/>
</g>
<!-- Node7 -->
<g id="node7" class="node"><title>Node7</title>
<polygon fill="white" stroke="#bfbfbf" points="710,-6 710,-25 757,-25 757,-6 710,-6"/>
<text text-anchor="middle" x="733.5" y="-13" font-family="Helvetica,sans-Serif" font-size="10.00">vector</text>
</g>
<!-- Node6&#45;&gt;Node7 -->
<g id="edge8" class="edge"><title>Node6&#45;&gt;Node7</title>
<path fill="none" stroke="midnightblue" d="M551.202,-69.6828C588.011,-62.1669 649.353,-48.416 700.5,-31 702.366,-30.3646 704.272,-29.666 706.181,-28.9295"/>
<polygon fill="midnightblue" stroke="midnightblue" points="707.664,-32.1038 715.566,-25.0464 704.988,-25.6356 707.664,-32.1038"/>
</g>
<!-- Node8 -->
<g id="node8" class="node"><title>Node8</title>
<polygon fill="white" stroke="#bfbfbf" points="405.5,-0.5 405.5,-30.5 545.5,-30.5 545.5,-0.5 405.5,-0.5"/>
<text text-anchor="start" x="413.5" y="-18.5" font-family="Helvetica,sans-Serif" font-size="10.00">boost/multi_index/hashed</text>
<text text-anchor="middle" x="475.5" y="-7.5" font-family="Helvetica,sans-Serif" font-size="10.00">_index.hpp</text>
</g>
<!-- Node6&#45;&gt;Node8 -->
<g id="edge9" class="edge"><title>Node6&#45;&gt;Node8</title>
<path fill="none" stroke="midnightblue" d="M512.339,-67.4751C506.951,-60.0192 498.88,-48.8519 491.665,-38.8685"/>
<polygon fill="midnightblue" stroke="midnightblue" points="494.328,-36.5779 485.634,-30.523 488.655,-40.6781 494.328,-36.5779"/>
</g>
<!-- Node9 -->
<g id="node9" class="node"><title>Node9</title>
<polygon fill="white" stroke="#bfbfbf" points="67.5,-0.5 67.5,-30.5 197.5,-30.5 197.5,-0.5 67.5,-0.5"/>
<text text-anchor="start" x="75.5" y="-18.5" font-family="Helvetica,sans-Serif" font-size="10.00">boost/multi_index/mem</text>
<text text-anchor="middle" x="132.5" y="-7.5" font-family="Helvetica,sans-Serif" font-size="10.00">_fun.hpp</text>
</g>
<!-- Node6&#45;&gt;Node9 -->
<g id="edge10" class="edge"><title>Node6&#45;&gt;Node9</title>
<path fill="none" stroke="midnightblue" d="M485.624,-71.811C430.374,-64.6517 315.183,-49.2132 207.863,-31.1834"/>
<polygon fill="midnightblue" stroke="midnightblue" points="208.281,-27.7044 197.837,-29.4874 207.113,-34.6064 208.281,-27.7044"/>
</g>
<!-- Node10 -->
<g id="node10" class="node"><title>Node10</title>
<polygon fill="white" stroke="#bfbfbf" points="215.5,-6 215.5,-25 387.5,-25 387.5,-6 215.5,-6"/>
<text text-anchor="middle" x="301.5" y="-13" font-family="Helvetica,sans-Serif" font-size="10.00">boost/multi_index_container.hpp</text>
</g>
<!-- Node6&#45;&gt;Node10 -->
<g id="edge11" class="edge"><title>Node6&#45;&gt;Node10</title>
<path fill="none" stroke="midnightblue" d="M487.409,-67.4751C449.219,-57.0036 384.331,-39.2118 342.201,-27.6601"/>
<polygon fill="midnightblue" stroke="midnightblue" points="343.103,-24.2781 332.533,-25.0091 341.252,-31.0289 343.103,-24.2781"/>
</g>
<!-- Node11 -->
<g id="node11" class="node"><title>Node11</title>
<polygon fill="white" stroke="#bfbfbf" points="563.5,-6 563.5,-25 691.5,-25 691.5,-6 563.5,-6"/>
<text text-anchor="middle" x="627.5" y="-13" font-family="Helvetica,sans-Serif" font-size="10.00">boost/noncopyable.hpp</text>
</g>
<!-- Node6&#45;&gt;Node11 -->
<g id="edge12" class="edge"><title>Node6&#45;&gt;Node11</title>
<path fill="none" stroke="midnightblue" d="M534.117,-67.4751C552.086,-57.6664 581.821,-41.4346 602.906,-29.925"/>
<polygon fill="midnightblue" stroke="midnightblue" points="604.811,-32.8726 611.912,-25.0091 601.458,-26.7284 604.811,-32.8726"/>
</g>
<!-- Node12&#45;&gt;Node5 -->
<g id="edge15" class="edge"><title>Node12&#45;&gt;Node5</title>
<path fill="none" stroke="midnightblue" d="M770.085,-67.4751C774.742,-58.8152 782.092,-45.1486 788.01,-34.1453"/>
<polygon fill="midnightblue" stroke="midnightblue" points="791.27,-35.474 792.924,-25.0091 785.105,-32.1584 791.27,-35.474"/>
</g>
<!-- Node12&#45;&gt;Node7 -->
<g id="edge17" class="edge"><title>Node12&#45;&gt;Node7</title>
<path fill="none" stroke="midnightblue" d="M760.915,-67.4751C756.258,-58.8152 748.908,-45.1486 742.99,-34.1453"/>
<polygon fill="midnightblue" stroke="midnightblue" points="745.895,-32.1584 738.076,-25.0091 739.73,-35.474 745.895,-32.1584"/>
</g>
<!-- Node12&#45;&gt;Node11 -->
<g id="edge19" class="edge"><title>Node12&#45;&gt;Node11</title>
<path fill="none" stroke="midnightblue" d="M745.728,-67.4751C722.364,-57.4013 683.286,-40.5525 656.497,-29.0023"/>
<polygon fill="midnightblue" stroke="midnightblue" points="657.804,-25.7544 647.235,-25.0091 655.032,-32.1824 657.804,-25.7544"/>
</g>
<!-- Node13 -->
<g id="node13" class="node"><title>Node13</title>
<polygon fill="white" stroke="#bfbfbf" points="837.5,-6 837.5,-25 899.5,-25 899.5,-6 837.5,-6"/>
<text text-anchor="middle" x="868.5" y="-13" font-family="Helvetica,sans-Serif" font-size="10.00">algorithm</text>
</g>
<!-- Node12&#45;&gt;Node13 -->
<g id="edge14" class="edge"><title>Node12&#45;&gt;Node13</title>
<path fill="none" stroke="midnightblue" d="M780.257,-67.4751C797.161,-57.7106 825.083,-41.5807 844.99,-30.0808"/>
<polygon fill="midnightblue" stroke="midnightblue" points="846.862,-33.0419 853.77,-25.0091 843.36,-26.9805 846.862,-33.0419"/>
</g>
<!-- Node14 -->
<g id="node14" class="node"><title>Node14</title>
<polygon fill="white" stroke="#bfbfbf" points="917.5,-6 917.5,-25 959.5,-25 959.5,-6 917.5,-6"/>
<text text-anchor="middle" x="938.5" y="-13" font-family="Helvetica,sans-Serif" font-size="10.00">utility</text>
</g>
<!-- Node12&#45;&gt;Node14 -->
<g id="edge16" class="edge"><title>Node12&#45;&gt;Node14</title>
<path fill="none" stroke="midnightblue" d="M797.201,-67.4581C826.487,-59.2313 871,-45.8716 908.5,-31 909.878,-30.4535 911.281,-29.8712 912.689,-29.2656"/>
<polygon fill="midnightblue" stroke="midnightblue" points="914.234,-32.4078 921.873,-25.0664 911.323,-26.0417 914.234,-32.4078"/>
</g>
<!-- Node15 -->
<g id="node15" class="node"><title>Node15</title>
<polygon fill="white" stroke="#bfbfbf" points="977.5,-0.5 977.5,-30.5 1089.5,-30.5 1089.5,-0.5 977.5,-0.5"/>
<text text-anchor="start" x="985.5" y="-18.5" font-family="Helvetica,sans-Serif" font-size="10.00">boost/icl/continuous</text>
<text text-anchor="middle" x="1033.5" y="-7.5" font-family="Helvetica,sans-Serif" font-size="10.00">_interval.hpp</text>
</g>
<!-- Node12&#45;&gt;Node15 -->
<g id="edge18" class="edge"><title>Node12&#45;&gt;Node15</title>
<path fill="none" stroke="midnightblue" d="M804.042,-67.4722C842.804,-58.8922 904.565,-45.2119 967.392,-31.2448"/>
<polygon fill="midnightblue" stroke="midnightblue" points="968.479,-34.5886 977.481,-29.0015 966.96,-27.7555 968.479,-34.5886"/>
</g>
<!-- Node16&#45;&gt;Node5 -->
<g id="edge22" class="edge"><title>Node16&#45;&gt;Node5</title>
<path fill="none" stroke="midnightblue" d="M1085.15,-130.015C1028.7,-125.06 890.772,-110.804 851.5,-87 830.755,-74.4256 815.112,-50.676 806.135,-34.2384"/>
<polygon fill="midnightblue" stroke="midnightblue" points="809.121,-32.3922 801.422,-25.1139 802.902,-35.6049 809.121,-32.3922"/>
</g>
<!-- Node17 -->
<g id="node17" class="node"><title>Node17</title>
<polygon fill="white" stroke="#bfbfbf" points="1311,-67.5 1311,-86.5 1374,-86.5 1374,-67.5 1311,-67.5"/>
<text text-anchor="middle" x="1342.5" y="-74.5" font-family="Helvetica,sans-Serif" font-size="10.00">exception</text>
</g>
<!-- Node16&#45;&gt;Node17 -->
<g id="edge21" class="edge"><title>Node16&#45;&gt;Node17</title>
<path fill="none" stroke="midnightblue" d="M1133.56,-126.424C1173.07,-117.267 1252.18,-98.9331 1300.91,-87.6382"/>
<polygon fill="midnightblue" stroke="midnightblue" points="1301.87,-91.0081 1310.83,-85.3406 1300.29,-84.1888 1301.87,-91.0081"/>
</g>
<!-- Node18 -->
<g id="node18" class="node"><title>Node18</title>
<polygon fill="white" stroke="#bfbfbf" points="1392.5,-67.5 1392.5,-86.5 1538.5,-86.5 1538.5,-67.5 1392.5,-67.5"/>
<text text-anchor="middle" x="1465.5" y="-74.5" font-family="Helvetica,sans-Serif" font-size="10.00">boost/current_function.hpp</text>
</g>
<!-- Node16&#45;&gt;Node18 -->
<g id="edge23" class="edge"><title>Node16&#45;&gt;Node18</title>
<path fill="none" stroke="midnightblue" d="M1133.69,-128.331C1187.57,-120.158 1319.01,-100.22 1399.35,-88.0337"/>
<polygon fill="midnightblue" stroke="midnightblue" points="1400.01,-91.4744 1409.37,-86.5142 1398.96,-84.5536 1400.01,-91.4744"/>
</g>
<!-- Node19 -->
<g id="node19" class="node"><title>Node19</title>
<polygon fill="white" stroke="#bfbfbf" points="860.5,-67.5 860.5,-86.5 1024.5,-86.5 1024.5,-67.5 860.5,-67.5"/>
<text text-anchor="middle" x="942.5" y="-74.5" font-family="Helvetica,sans-Serif" font-size="10.00">boost/exception/exception.hpp</text>
</g>
<!-- Node16&#45;&gt;Node19 -->
<g id="edge24" class="edge"><title>Node16&#45;&gt;Node19</title>
<path fill="none" stroke="midnightblue" d="M1085.22,-124.148C1057.18,-115.082 1010.79,-100.081 978.539,-89.6534"/>
<polygon fill="midnightblue" stroke="midnightblue" points="979.613,-86.3221 969.021,-86.5756 977.459,-92.9826 979.613,-86.3221"/>
</g>
<!-- Node20 -->
<g id="node20" class="node"><title>Node20</title>
<polygon fill="white" stroke="#bfbfbf" points="1042.5,-67.5 1042.5,-86.5 1176.5,-86.5 1176.5,-67.5 1042.5,-67.5"/>
<text text-anchor="middle" x="1109.5" y="-74.5" font-family="Helvetica,sans-Serif" font-size="10.00">boost/exception/info.hpp</text>
</g>
<!-- Node16&#45;&gt;Node20 -->
<g id="edge25" class="edge"><title>Node16&#45;&gt;Node20</title>
<path fill="none" stroke="midnightblue" d="M1109.5,-123.083C1109.5,-116.006 1109.5,-105.861 1109.5,-96.9865"/>
<polygon fill="midnightblue" stroke="midnightblue" points="1113,-96.751 1109.5,-86.7511 1106,-96.7511 1113,-96.751"/>
</g>
<!-- Node21 -->
<g id="node21" class="node"><title>Node21</title>
<g id="a_node21"><a xlink:href="source__info_8h.xhtml" target="_top" xlink:title="Helper facilities to get source file information. ">
<polygon fill="white" stroke="black" points="1194.5,-67.5 1194.5,-86.5 1292.5,-86.5 1292.5,-67.5 1194.5,-67.5"/>
<text text-anchor="middle" x="1243.5" y="-74.5" font-family="Helvetica,sans-Serif" font-size="10.00">ext/source_info.h</text>
</a>
</g>
</g>
<!-- Node16&#45;&gt;Node21 -->
<g id="edge26" class="edge"><title>Node16&#45;&gt;Node21</title>
<path fill="none" stroke="midnightblue" d="M1130.73,-123.444C1152.88,-114.517 1187.82,-100.439 1212.94,-90.3168"/>
<polygon fill="midnightblue" stroke="midnightblue" points="1214.4,-93.5006 1222.37,-86.5164 1211.78,-87.0079 1214.4,-93.5006"/>
</g>
</g>
</svg>
