<?xml version="1.0" encoding="UTF-8" standalone="no"?>
<!DOCTYPE svg PUBLIC "-//W3C//DTD SVG 1.1//EN"
 "http://www.w3.org/Graphics/SVG/1.1/DTD/svg11.dtd">
<!-- Generated by graphviz version 2.38.0 (20140413.2041)
 -->
<!-- Title: parameter.h Pages: 1 -->
<svg width="1098pt" height="151pt"
 viewBox="0.00 0.00 1097.50 151.00" xmlns="http://www.w3.org/2000/svg" xmlns:xlink="http://www.w3.org/1999/xlink">
<g id="graph0" class="graph" transform="scale(1 1) rotate(0) translate(4 147)">
<title>parameter.h</title>
<polygon fill="white" stroke="none" points="-4,4 -4,-147 1093.5,-147 1093.5,4 -4,4"/>
<!-- Node1 -->
<g id="node1" class="node"><title>Node1</title>
<polygon fill="#bfbfbf" stroke="black" points="473.5,-123.5 473.5,-142.5 549.5,-142.5 549.5,-123.5 473.5,-123.5"/>
<text text-anchor="middle" x="511.5" y="-130.5" font-family="Helvetica,sans-Serif" font-size="10.00">parameter.h</text>
</g>
<!-- Node2 -->
<g id="node2" class="node"><title>Node2</title>
<polygon fill="white" stroke="#bfbfbf" points="0,-6 0,-25 49,-25 49,-6 0,-6"/>
<text text-anchor="middle" x="24.5" y="-13" font-family="Helvetica,sans-Serif" font-size="10.00">cstdint</text>
</g>
<!-- Node1&#45;&gt;Node2 -->
<g id="edge1" class="edge"><title>Node1&#45;&gt;Node2</title>
<path fill="none" stroke="midnightblue" d="M473.288,-125.927C394.513,-112.875 208.843,-79.365 58.5,-31 56.5757,-30.381 54.6102,-29.6947 52.6428,-28.9672"/>
<polygon fill="midnightblue" stroke="midnightblue" points="53.5561,-25.5632 42.9711,-25.1055 50.9603,-32.0642 53.5561,-25.5632"/>
</g>
<!-- Node3 -->
<g id="node3" class="node"><title>Node3</title>
<polygon fill="white" stroke="#bfbfbf" points="404,-67.5 404,-86.5 461,-86.5 461,-67.5 404,-67.5"/>
<text text-anchor="middle" x="432.5" y="-74.5" font-family="Helvetica,sans-Serif" font-size="10.00">memory</text>
</g>
<!-- Node1&#45;&gt;Node3 -->
<g id="edge2" class="edge"><title>Node1&#45;&gt;Node3</title>
<path fill="none" stroke="midnightblue" d="M498.807,-123.324C486.599,-114.979 467.922,-102.212 453.497,-92.3524"/>
<polygon fill="midnightblue" stroke="midnightblue" points="455.392,-89.4082 445.161,-86.6545 451.442,-95.1871 455.392,-89.4082"/>
</g>
<!-- Node4 -->
<g id="node4" class="node"><title>Node4</title>
<polygon fill="white" stroke="#bfbfbf" points="709.5,-6 709.5,-25 753.5,-25 753.5,-6 709.5,-6"/>
<text text-anchor="middle" x="731.5" y="-13" font-family="Helvetica,sans-Serif" font-size="10.00">string</text>
</g>
<!-- Node1&#45;&gt;Node4 -->
<g id="edge3" class="edge"><title>Node1&#45;&gt;Node4</title>
<path fill="none" stroke="midnightblue" d="M528.036,-123.319C566.193,-103.286 660.601,-53.7221 706.135,-29.8164"/>
<polygon fill="midnightblue" stroke="midnightblue" points="707.845,-32.8717 715.072,-25.1245 704.592,-26.674 707.845,-32.8717"/>
</g>
<!-- Node5 -->
<g id="node5" class="node"><title>Node5</title>
<g id="a_node5"><a xlink:href="element_8h.xhtml" target="_top" xlink:title="Helper classes, structs, and properties common to all other classes. ">
<polygon fill="white" stroke="black" points="479,-67.5 479,-86.5 544,-86.5 544,-67.5 479,-67.5"/>
<text text-anchor="middle" x="511.5" y="-74.5" font-family="Helvetica,sans-Serif" font-size="10.00">element.h</text>
</a>
</g>
</g>
<!-- Node1&#45;&gt;Node5 -->
<g id="edge4" class="edge"><title>Node1&#45;&gt;Node5</title>
<path fill="none" stroke="midnightblue" d="M511.5,-123.083C511.5,-116.006 511.5,-105.861 511.5,-96.9865"/>
<polygon fill="midnightblue" stroke="midnightblue" points="515,-96.751 511.5,-86.7511 508,-96.7511 515,-96.751"/>
</g>
<!-- Node11 -->
<g id="node11" class="node"><title>Node11</title>
<g id="a_node11"><a xlink:href="expression_8h.xhtml" target="_top" xlink:title="Provides the base class for all expressions and units for expression values. ">
<polygon fill="white" stroke="black" points="757,-67.5 757,-86.5 834,-86.5 834,-67.5 757,-67.5"/>
<text text-anchor="middle" x="795.5" y="-74.5" font-family="Helvetica,sans-Serif" font-size="10.00">expression.h</text>
</a>
</g>
</g>
<!-- Node1&#45;&gt;Node11 -->
<g id="edge12" class="edge"><title>Node1&#45;&gt;Node11</title>
<path fill="none" stroke="midnightblue" d="M549.507,-124.773C600.447,-115.088 690.911,-97.8866 746.794,-87.2609"/>
<polygon fill="midnightblue" stroke="midnightblue" points="747.639,-90.6631 756.809,-85.3567 746.331,-83.7863 747.639,-90.6631"/>
</g>
<!-- Node5&#45;&gt;Node2 -->
<g id="edge5" class="edge"><title>Node5&#45;&gt;Node2</title>
<path fill="none" stroke="midnightblue" d="M478.556,-68.5377C475.503,-67.9681 472.45,-67.4435 469.5,-67 288.172,-39.7376 236.379,-75.5196 58.5,-31 56.1364,-30.4084 53.726,-29.6734 51.3347,-28.8504"/>
<polygon fill="midnightblue" stroke="midnightblue" points="52.3686,-25.4967 41.7807,-25.1149 49.8196,-32.0161 52.3686,-25.4967"/>
</g>
<!-- Node5&#45;&gt;Node4 -->
<g id="edge6" class="edge"><title>Node5&#45;&gt;Node4</title>
<path fill="none" stroke="midnightblue" d="M544.178,-70.3196C582.32,-63.2111 646.996,-49.6635 700.5,-31 702.12,-30.4349 703.769,-29.8129 705.419,-29.1539"/>
<polygon fill="midnightblue" stroke="midnightblue" points="706.931,-32.3134 714.704,-25.1149 704.138,-25.8944 706.931,-32.3134"/>
</g>
<!-- Node6 -->
<g id="node6" class="node"><title>Node6</title>
<polygon fill="white" stroke="#bfbfbf" points="772,-6 772,-25 819,-25 819,-6 772,-6"/>
<text text-anchor="middle" x="795.5" y="-13" font-family="Helvetica,sans-Serif" font-size="10.00">vector</text>
</g>
<!-- Node5&#45;&gt;Node6 -->
<g id="edge7" class="edge"><title>Node5&#45;&gt;Node6</title>
<path fill="none" stroke="midnightblue" d="M544.171,-72.6428C592.631,-67.1063 686.059,-54.2863 762.5,-31 764.431,-30.4119 766.398,-29.7418 768.364,-29.0198"/>
<polygon fill="midnightblue" stroke="midnightblue" points="770.032,-32.12 777.981,-25.1156 767.399,-25.6341 770.032,-32.12"/>
</g>
<!-- Node7 -->
<g id="node7" class="node"><title>Node7</title>
<polygon fill="white" stroke="#bfbfbf" points="67.5,-0.5 67.5,-30.5 207.5,-30.5 207.5,-0.5 67.5,-0.5"/>
<text text-anchor="start" x="75.5" y="-18.5" font-family="Helvetica,sans-Serif" font-size="10.00">boost/multi_index/hashed</text>
<text text-anchor="middle" x="137.5" y="-7.5" font-family="Helvetica,sans-Serif" font-size="10.00">_index.hpp</text>
</g>
<!-- Node5&#45;&gt;Node7 -->
<g id="edge8" class="edge"><title>Node5&#45;&gt;Node7</title>
<path fill="none" stroke="midnightblue" d="M478.985,-68.7983C475.786,-68.1602 472.584,-67.5491 469.5,-67 360.849,-47.6529 330.314,-49.1506 217.742,-31.1574"/>
<polygon fill="midnightblue" stroke="midnightblue" points="218.116,-27.6725 207.686,-29.5334 217,-34.583 218.116,-27.6725"/>
</g>
<!-- Node8 -->
<g id="node8" class="node"><title>Node8</title>
<polygon fill="white" stroke="#bfbfbf" points="225.5,-0.5 225.5,-30.5 355.5,-30.5 355.5,-0.5 225.5,-0.5"/>
<text text-anchor="start" x="233.5" y="-18.5" font-family="Helvetica,sans-Serif" font-size="10.00">boost/multi_index/mem</text>
<text text-anchor="middle" x="290.5" y="-7.5" font-family="Helvetica,sans-Serif" font-size="10.00">_fun.hpp</text>
</g>
<!-- Node5&#45;&gt;Node8 -->
<g id="edge9" class="edge"><title>Node5&#45;&gt;Node8</title>
<path fill="none" stroke="midnightblue" d="M479.836,-67.4751C446.688,-58.5506 393.79,-44.3087 352.322,-33.1444"/>
<polygon fill="midnightblue" stroke="midnightblue" points="353.151,-29.7431 342.585,-30.523 351.332,-36.5024 353.151,-29.7431"/>
</g>
<!-- Node9 -->
<g id="node9" class="node"><title>Node9</title>
<polygon fill="white" stroke="#bfbfbf" points="373.5,-6 373.5,-25 545.5,-25 545.5,-6 373.5,-6"/>
<text text-anchor="middle" x="459.5" y="-13" font-family="Helvetica,sans-Serif" font-size="10.00">boost/multi_index_container.hpp</text>
</g>
<!-- Node5&#45;&gt;Node9 -->
<g id="edge10" class="edge"><title>Node5&#45;&gt;Node9</title>
<path fill="none" stroke="midnightblue" d="M504.05,-67.4751C496.172,-58.4617 483.555,-44.0246 473.756,-32.8118"/>
<polygon fill="midnightblue" stroke="midnightblue" points="476.153,-30.2356 466.937,-25.0091 470.882,-34.842 476.153,-30.2356"/>
</g>
<!-- Node10 -->
<g id="node10" class="node"><title>Node10</title>
<polygon fill="white" stroke="#bfbfbf" points="563.5,-6 563.5,-25 691.5,-25 691.5,-6 563.5,-6"/>
<text text-anchor="middle" x="627.5" y="-13" font-family="Helvetica,sans-Serif" font-size="10.00">boost/noncopyable.hpp</text>
</g>
<!-- Node5&#45;&gt;Node10 -->
<g id="edge11" class="edge"><title>Node5&#45;&gt;Node10</title>
<path fill="none" stroke="midnightblue" d="M528.12,-67.4751C547.415,-57.578 579.459,-41.1416 601.931,-29.6151"/>
<polygon fill="midnightblue" stroke="midnightblue" points="603.61,-32.6873 610.911,-25.0091 600.416,-26.4589 603.61,-32.6873"/>
</g>
<!-- Node11&#45;&gt;Node4 -->
<g id="edge14" class="edge"><title>Node11&#45;&gt;Node4</title>
<path fill="none" stroke="midnightblue" d="M786.33,-67.4751C776.35,-58.1966 760.188,-43.1706 747.991,-31.831"/>
<polygon fill="midnightblue" stroke="midnightblue" points="750.36,-29.2547 740.653,-25.0091 745.593,-34.3814 750.36,-29.2547"/>
</g>
<!-- Node11&#45;&gt;Node6 -->
<g id="edge16" class="edge"><title>Node11&#45;&gt;Node6</title>
<path fill="none" stroke="midnightblue" d="M795.5,-67.4751C795.5,-59.0803 795.5,-45.9806 795.5,-35.1631"/>
<polygon fill="midnightblue" stroke="midnightblue" points="799,-35.0091 795.5,-25.0091 792,-35.0091 799,-35.0091"/>
</g>
<!-- Node11&#45;&gt;Node10 -->
<g id="edge18" class="edge"><title>Node11&#45;&gt;Node10</title>
<path fill="none" stroke="midnightblue" d="M771.43,-67.4751C742.487,-57.2246 693.738,-39.9593 661.098,-28.3994"/>
<polygon fill="midnightblue" stroke="midnightblue" points="662.12,-25.0484 651.526,-25.0091 659.783,-31.6468 662.12,-25.0484"/>
</g>
<!-- Node12 -->
<g id="node12" class="node"><title>Node12</title>
<polygon fill="white" stroke="#bfbfbf" points="837.5,-6 837.5,-25 899.5,-25 899.5,-6 837.5,-6"/>
<text text-anchor="middle" x="868.5" y="-13" font-family="Helvetica,sans-Serif" font-size="10.00">algorithm</text>
</g>
<!-- Node11&#45;&gt;Node12 -->
<g id="edge13" class="edge"><title>Node11&#45;&gt;Node12</title>
<path fill="none" stroke="midnightblue" d="M805.959,-67.4751C817.451,-58.1082 836.13,-42.8839 850.087,-31.5081"/>
<polygon fill="midnightblue" stroke="midnightblue" points="852.52,-34.04 858.06,-25.0091 848.098,-28.614 852.52,-34.04"/>
</g>
<!-- Node13 -->
<g id="node13" class="node"><title>Node13</title>
<polygon fill="white" stroke="#bfbfbf" points="917.5,-6 917.5,-25 959.5,-25 959.5,-6 917.5,-6"/>
<text text-anchor="middle" x="938.5" y="-13" font-family="Helvetica,sans-Serif" font-size="10.00">utility</text>
</g>
<!-- Node11&#45;&gt;Node13 -->
<g id="edge15" class="edge"><title>Node11&#45;&gt;Node13</title>
<path fill="none" stroke="midnightblue" d="M818.64,-67.3393C841.621,-58.6085 877.769,-44.5249 908.5,-31 909.662,-30.4888 910.844,-29.9587 912.036,-29.4168"/>
<polygon fill="midnightblue" stroke="midnightblue" points="913.579,-32.5592 921.148,-25.1458 910.608,-26.221 913.579,-32.5592"/>
</g>
<!-- Node14 -->
<g id="node14" class="node"><title>Node14</title>
<polygon fill="white" stroke="#bfbfbf" points="977.5,-0.5 977.5,-30.5 1089.5,-30.5 1089.5,-0.5 977.5,-0.5"/>
<text text-anchor="start" x="985.5" y="-18.5" font-family="Helvetica,sans-Serif" font-size="10.00">boost/icl/continuous</text>
<text text-anchor="middle" x="1033.5" y="-7.5" font-family="Helvetica,sans-Serif" font-size="10.00">_interval.hpp</text>
</g>
<!-- Node11&#45;&gt;Node14 -->
<g id="edge17" class="edge"><title>Node11&#45;&gt;Node14</title>
<path fill="none" stroke="midnightblue" d="M829.6,-67.4751C865.448,-58.5129 922.746,-44.1885 967.487,-33.0032"/>
<polygon fill="midnightblue" stroke="midnightblue" points="968.556,-36.3439 977.408,-30.523 966.858,-29.5529 968.556,-36.3439"/>
</g>
</g>
</svg>
