<?xml version="1.0" encoding="UTF-8" standalone="no"?>
<!DOCTYPE svg PUBLIC "-//W3C//DTD SVG 1.1//EN"
 "http://www.w3.org/Graphics/SVG/1.1/DTD/svg11.dtd">
<!-- Generated by graphviz version 2.38.0 (20140413.2041)
 -->
<!-- Title: pdag.h Pages: 1 -->
<!--zoomable 151 -->
<svg id="main" version="1.1" xmlns="http://www.w3.org/2000/svg" xmlns:xlink="http://www.w3.org/1999/xlink" xml:space="preserve" onload="init(evt)">
<style type="text/css"><![CDATA[
.edge:hover path { stroke: red; }
.edge:hover polygon { stroke: red; fill: red; }
]]></style>
<script type="text/javascript"><![CDATA[
var edges = document.getElementsByTagName('g');
if (edges && edges.length) {
  for (var i=0;i<edges.length;i++) {
    if (edges[i].id.substr(0,4)=='edge') {
      edges[i].setAttribute('class','edge');
    }
  }
}
]]></script>
        <defs>
                <circle id="rim" cx="0" cy="0" r="7"/>
                <circle id="rim2" cx="0" cy="0" r="3.5"/>
                <g id="zoomPlus">
                        <use xlink:href="#rim" fill="#404040">
                                <set attributeName="fill" to="#808080" begin="zoomplus.mouseover" end="zoomplus.mouseout"/>
                        </use>
                        <path d="M-4,0h8M0,-4v8" fill="none" stroke="white" stroke-width="1.5" pointer-events="none"/>
                </g>
                <g id="zoomMin">
                        <use xlink:href="#rim" fill="#404040">
                                <set attributeName="fill" to="#808080" begin="zoomminus.mouseover" end="zoomminus.mouseout"/>
                        </use>
                        <path d="M-4,0h8" fill="none" stroke="white" stroke-width="1.5" pointer-events="none"/>
                </g>
                <g id="dirArrow">
                        <path fill="none" stroke="white" stroke-width="1.5" d="M0,-3.0v7 M-2.5,-0.5L0,-3.0L2.5,-0.5"/>
                </g>
               <g id="resetDef">
                       <use xlink:href="#rim2" fill="#404040">
                               <set attributeName="fill" to="#808080" begin="reset.mouseover" end="reset.mouseout"/>
                       </use>
               </g>
        </defs>

<script type="text/javascript">
var viewWidth = 1331;
var viewHeight = 151;
var sectionId = 'dynsection-0';
</script>
<script xlink:href="svgpan.js"/>
<svg id="graph" class="graph">
<g id="viewport">
<title>pdag.h</title>
<polygon fill="white" stroke="none" points="-4,4 -4,-147 1327,-147 1327,4 -4,4"/>
<!-- Node1 -->
<g id="node1" class="node"><title>Node1</title>
<polygon fill="#bfbfbf" stroke="black" points="503.5,-123.5 503.5,-142.5 553.5,-142.5 553.5,-123.5 503.5,-123.5"/>
<text text-anchor="middle" x="528.5" y="-130.5" font-family="Helvetica,sans-Serif" font-size="10.00">pdag.h</text>
</g>
<!-- Node2 -->
<g id="node2" class="node"><title>Node2</title>
<polygon fill="white" stroke="#bfbfbf" points="0,-62 0,-81 49,-81 49,-62 0,-62"/>
<text text-anchor="middle" x="24.5" y="-69" font-family="Helvetica,sans-Serif" font-size="10.00">cstdint</text>
</g>
<!-- Node1&#45;&gt;Node2 -->
<g id="edge1" class="edge"><title>Node1&#45;&gt;Node2</title>
<path fill="none" stroke="midnightblue" d="M503.247,-132.381C431.937,-132.865 223.445,-130.191 57.5,-87 55.2006,-86.4015 52.8573,-85.6616 50.5338,-84.8354"/>
<polygon fill="midnightblue" stroke="midnightblue" points="51.8398,-81.5882 41.2565,-81.0942 49.2218,-88.0802 51.8398,-81.5882"/>
</g>
<!-- Node3 -->
<g id="node3" class="node"><title>Node3</title>
<polygon fill="white" stroke="#bfbfbf" points="67,-62 67,-81 114,-81 114,-62 67,-62"/>
<text text-anchor="middle" x="90.5" y="-69" font-family="Helvetica,sans-Serif" font-size="10.00">cstdlib</text>
</g>
<!-- Node1&#45;&gt;Node3 -->
<g id="edge2" class="edge"><title>Node1&#45;&gt;Node3</title>
<path fill="none" stroke="midnightblue" d="M503.36,-131.832C439.014,-130.842 263.566,-124.61 123.5,-87 121.205,-86.3838 118.865,-85.6315 116.544,-84.7969"/>
<polygon fill="midnightblue" stroke="midnightblue" points="117.853,-81.5509 107.271,-81.0413 115.225,-88.0391 117.853,-81.5509"/>
</g>
<!-- Node4 -->
<g id="node4" class="node"><title>Node4</title>
<polygon fill="white" stroke="#bfbfbf" points="312.5,-0.5 312.5,-19.5 374.5,-19.5 374.5,-0.5 312.5,-0.5"/>
<text text-anchor="middle" x="343.5" y="-7.5" font-family="Helvetica,sans-Serif" font-size="10.00">algorithm</text>
</g>
<!-- Node1&#45;&gt;Node4 -->
<g id="edge3" class="edge"><title>Node1&#45;&gt;Node4</title>
<path fill="none" stroke="midnightblue" d="M503.473,-130.454C452.933,-126.756 341.531,-115.489 318.5,-87 304.648,-69.8657 317.561,-44.7858 329.388,-28.1855"/>
<polygon fill="midnightblue" stroke="midnightblue" points="332.394,-30.0153 335.67,-19.9397 326.826,-25.7731 332.394,-30.0153"/>
</g>
<!-- Node5 -->
<g id="node5" class="node"><title>Node5</title>
<polygon fill="white" stroke="#bfbfbf" points="595.5,-62 595.5,-81 641.5,-81 641.5,-62 595.5,-62"/>
<text text-anchor="middle" x="618.5" y="-69" font-family="Helvetica,sans-Serif" font-size="10.00">iosfwd</text>
</g>
<!-- Node1&#45;&gt;Node5 -->
<g id="edge4" class="edge"><title>Node1&#45;&gt;Node5</title>
<path fill="none" stroke="midnightblue" d="M541.395,-123.475C555.964,-113.843 579.902,-98.0175 597.245,-86.5517"/>
<polygon fill="midnightblue" stroke="midnightblue" points="599.217,-89.4437 605.629,-81.0091 595.357,-83.6044 599.217,-89.4437"/>
</g>
<!-- Node6 -->
<g id="node6" class="node"><title>Node6</title>
<polygon fill="white" stroke="#bfbfbf" points="660,-62 660,-81 717,-81 717,-62 660,-62"/>
<text text-anchor="middle" x="688.5" y="-69" font-family="Helvetica,sans-Serif" font-size="10.00">memory</text>
</g>
<!-- Node1&#45;&gt;Node6 -->
<g id="edge5" class="edge"><title>Node1&#45;&gt;Node6</title>
<path fill="none" stroke="midnightblue" d="M551.917,-123.451C576.499,-114.455 616.259,-99.8474 650.5,-87 652.384,-86.2931 654.32,-85.5638 656.272,-84.826"/>
<polygon fill="midnightblue" stroke="midnightblue" points="657.904,-87.9502 666.011,-81.1289 655.42,-81.4059 657.904,-87.9502"/>
</g>
<!-- Node7 -->
<g id="node7" class="node"><title>Node7</title>
<polygon fill="white" stroke="#bfbfbf" points="735.5,-62 735.5,-81 803.5,-81 803.5,-62 735.5,-62"/>
<text text-anchor="middle" x="769.5" y="-69" font-family="Helvetica,sans-Serif" font-size="10.00">type_traits</text>
</g>
<!-- Node1&#45;&gt;Node7 -->
<g id="edge6" class="edge"><title>Node1&#45;&gt;Node7</title>
<path fill="none" stroke="midnightblue" d="M553.711,-127.127C591.533,-119.624 665.081,-104.287 726.5,-87 729.512,-86.1522 732.625,-85.2185 735.734,-84.2458"/>
<polygon fill="midnightblue" stroke="midnightblue" points="737.098,-87.4828 745.528,-81.0643 734.935,-80.8252 737.098,-87.4828"/>
</g>
<!-- Node8 -->
<g id="node8" class="node"><title>Node8</title>
<polygon fill="white" stroke="#bfbfbf" points="822,-62 822,-81 915,-81 915,-62 822,-62"/>
<text text-anchor="middle" x="868.5" y="-69" font-family="Helvetica,sans-Serif" font-size="10.00">unordered_map</text>
</g>
<!-- Node1&#45;&gt;Node8 -->
<g id="edge7" class="edge"><title>Node1&#45;&gt;Node8</title>
<path fill="none" stroke="midnightblue" d="M553.721,-128.833C603.479,-122.404 717.687,-106.739 812.5,-87 817.533,-85.9522 822.792,-84.7438 827.985,-83.4807"/>
<polygon fill="midnightblue" stroke="midnightblue" points="828.969,-86.8425 837.816,-81.0126 827.264,-80.0532 828.969,-86.8425"/>
</g>
<!-- Node9 -->
<g id="node9" class="node"><title>Node9</title>
<polygon fill="white" stroke="#bfbfbf" points="240.5,-0.5 240.5,-19.5 282.5,-19.5 282.5,-0.5 240.5,-0.5"/>
<text text-anchor="middle" x="261.5" y="-7.5" font-family="Helvetica,sans-Serif" font-size="10.00">utility</text>
</g>
<!-- Node1&#45;&gt;Node9 -->
<g id="edge8" class="edge"><title>Node1&#45;&gt;Node9</title>
<path fill="none" stroke="midnightblue" d="M503.461,-129.39C452.719,-123.703 339.909,-108.922 308.5,-87 288.273,-72.8823 275.041,-46.9839 267.918,-29.3846"/>
<polygon fill="midnightblue" stroke="midnightblue" points="271.063,-27.8043 264.264,-19.6785 264.512,-30.2705 271.063,-27.8043"/>
</g>
<!-- Node10 -->
<g id="node10" class="node"><title>Node10</title>
<polygon fill="white" stroke="#bfbfbf" points="416,-0.5 416,-19.5 463,-19.5 463,-0.5 416,-0.5"/>
<text text-anchor="middle" x="439.5" y="-7.5" font-family="Helvetica,sans-Serif" font-size="10.00">vector</text>
</g>
<!-- Node1&#45;&gt;Node10 -->
<g id="edge9" class="edge"><title>Node1&#45;&gt;Node10</title>
<path fill="none" stroke="midnightblue" d="M513.668,-123.305C501.024,-115.255 483.106,-102.25 471.5,-87 458.257,-69.5979 449.425,-45.9047 444.454,-29.6236"/>
<polygon fill="midnightblue" stroke="midnightblue" points="447.734,-28.3603 441.624,-19.7046 441.002,-30.2812 447.734,-28.3603"/>
</g>
<!-- Node11 -->
<g id="node11" class="node"><title>Node11</title>
<polygon fill="white" stroke="#bfbfbf" points="933.5,-56.5 933.5,-86.5 1043.5,-86.5 1043.5,-56.5 933.5,-56.5"/>
<text text-anchor="start" x="941.5" y="-74.5" font-family="Helvetica,sans-Serif" font-size="10.00">boost/container/flat</text>
<text text-anchor="middle" x="988.5" y="-63.5" font-family="Helvetica,sans-Serif" font-size="10.00">_set.hpp</text>
</g>
<!-- Node1&#45;&gt;Node11 -->
<g id="edge10" class="edge"><title>Node1&#45;&gt;Node11</title>
<path fill="none" stroke="midnightblue" d="M553.653,-130.105C615.088,-125.274 777.803,-111.248 923.41,-87.0655"/>
<polygon fill="midnightblue" stroke="midnightblue" points="924.137,-90.4924 933.418,-85.3825 922.976,-83.5894 924.137,-90.4924"/>
</g>
<!-- Node12 -->
<g id="node12" class="node"><title>Node12</title>
<polygon fill="white" stroke="#bfbfbf" points="1061.5,-62 1061.5,-81 1189.5,-81 1189.5,-62 1061.5,-62"/>
<text text-anchor="middle" x="1125.5" y="-69" font-family="Helvetica,sans-Serif" font-size="10.00">boost/noncopyable.hpp</text>
</g>
<!-- Node1&#45;&gt;Node12 -->
<g id="edge11" class="edge"><title>Node1&#45;&gt;Node12</title>
<path fill="none" stroke="midnightblue" d="M553.699,-130.825C629.467,-127.08 861.751,-114.051 1052.5,-87 1060.33,-85.8902 1068.58,-84.4829 1076.61,-82.9835"/>
<polygon fill="midnightblue" stroke="midnightblue" points="1077.46,-86.3842 1086.61,-81.0507 1076.13,-79.5113 1077.46,-86.3842"/>
</g>
<!-- Node13 -->
<g id="node13" class="node"><title>Node13</title>
<polygon fill="white" stroke="#bfbfbf" points="1208,-56.5 1208,-86.5 1323,-86.5 1323,-56.5 1208,-56.5"/>
<text text-anchor="start" x="1216" y="-74.5" font-family="Helvetica,sans-Serif" font-size="10.00">boost/range/adaptor</text>
<text text-anchor="middle" x="1265.5" y="-63.5" font-family="Helvetica,sans-Serif" font-size="10.00">/transformed.hpp</text>
</g>
<!-- Node1&#45;&gt;Node13 -->
<g id="edge12" class="edge"><title>Node1&#45;&gt;Node13</title>
<path fill="none" stroke="midnightblue" d="M553.58,-131.634C641.013,-130.082 940.533,-122.45 1197.57,-86.9722"/>
<polygon fill="midnightblue" stroke="midnightblue" points="1198.43,-90.3862 1207.85,-85.5353 1197.46,-83.4536 1198.43,-90.3862"/>
</g>
<!-- Node14 -->
<g id="node14" class="node"><title>Node14</title>
<g id="a_node14"><a xlink:href="find__iterator_8h.xhtml" target="_top" xlink:title="Convenience iterator adaptor to wrap find calls and results. ">
<polygon fill="white" stroke="black" points="132,-62 132,-81 233,-81 233,-62 132,-62"/>
<text text-anchor="middle" x="182.5" y="-69" font-family="Helvetica,sans-Serif" font-size="10.00">ext/find_iterator.h</text>
</a>
</g>
</g>
<!-- Node1&#45;&gt;Node14 -->
<g id="edge13" class="edge"><title>Node1&#45;&gt;Node14</title>
<path fill="none" stroke="midnightblue" d="M503.221,-128.477C453.89,-121.486 341.396,-104.974 247.5,-87 241.389,-85.8302 234.975,-84.5115 228.656,-83.1582"/>
<polygon fill="midnightblue" stroke="midnightblue" points="229.376,-79.7331 218.86,-81.0195 227.883,-86.5721 229.376,-79.7331"/>
</g>
<!-- Node15 -->
<g id="node15" class="node"><title>Node15</title>
<g id="a_node15"><a xlink:href="index__map_8h.xhtml" target="_top" xlink:title="Non&#45;zero based Index&#45;&gt;Value map adapter on sequential containers. ">
<polygon fill="white" stroke="black" points="327.5,-62 327.5,-81 423.5,-81 423.5,-62 327.5,-62"/>
<text text-anchor="middle" x="375.5" y="-69" font-family="Helvetica,sans-Serif" font-size="10.00">ext/index_map.h</text>
</a>
</g>
</g>
<!-- Node1&#45;&gt;Node15 -->
<g id="edge15" class="edge"><title>Node1&#45;&gt;Node15</title>
<path fill="none" stroke="midnightblue" d="M506.579,-123.475C480.448,-113.313 436.588,-96.2564 406.87,-84.6996"/>
<polygon fill="midnightblue" stroke="midnightblue" points="407.969,-81.3716 397.381,-81.0091 405.432,-87.8956 407.969,-81.3716"/>
</g>
<!-- Node16 -->
<g id="node16" class="node"><title>Node16</title>
<g id="a_node16"><a xlink:href="linear__map_8h.xhtml" target="_top" xlink:title="Implementation of a vector&#45;based map for a small number of entries. ">
<polygon fill="white" stroke="black" points="480,-62 480,-81 577,-81 577,-62 480,-62"/>
<text text-anchor="middle" x="528.5" y="-69" font-family="Helvetica,sans-Serif" font-size="10.00">ext/linear_map.h</text>
</a>
</g>
</g>
<!-- Node1&#45;&gt;Node16 -->
<g id="edge17" class="edge"><title>Node1&#45;&gt;Node16</title>
<path fill="none" stroke="midnightblue" d="M528.5,-123.475C528.5,-115.08 528.5,-101.981 528.5,-91.1631"/>
<polygon fill="midnightblue" stroke="midnightblue" points="532,-91.0091 528.5,-81.0091 525,-91.0091 532,-91.0091"/>
</g>
<!-- Node14&#45;&gt;Node9 -->
<g id="edge14" class="edge"><title>Node14&#45;&gt;Node9</title>
<path fill="none" stroke="midnightblue" d="M193.819,-61.9751C206.373,-52.5199 226.851,-37.0961 241.999,-25.6871"/>
<polygon fill="midnightblue" stroke="midnightblue" points="244.32,-28.321 250.202,-19.5091 240.109,-22.7295 244.32,-28.321"/>
</g>
<!-- Node15&#45;&gt;Node10 -->
<g id="edge16" class="edge"><title>Node15&#45;&gt;Node10</title>
<path fill="none" stroke="midnightblue" d="M384.67,-61.9751C394.65,-52.6966 410.812,-37.6706 423.009,-26.331"/>
<polygon fill="midnightblue" stroke="midnightblue" points="425.407,-28.8814 430.347,-19.5091 420.64,-23.7547 425.407,-28.8814"/>
</g>
<!-- Node16&#45;&gt;Node4 -->
<g id="edge19" class="edge"><title>Node16&#45;&gt;Node4</title>
<path fill="none" stroke="midnightblue" d="M501.994,-61.9751C469.848,-51.6362 415.513,-34.1611 379.573,-22.6017"/>
<polygon fill="midnightblue" stroke="midnightblue" points="380.548,-19.239 369.957,-19.5091 378.405,-25.9028 380.548,-19.239"/>
</g>
<!-- Node16&#45;&gt;Node9 -->
<g id="edge22" class="edge"><title>Node16&#45;&gt;Node9</title>
<path fill="none" stroke="midnightblue" d="M490.245,-61.9751C437.048,-50.1201 341.747,-28.8827 292.64,-17.9394"/>
<polygon fill="midnightblue" stroke="midnightblue" points="293.133,-14.4636 282.611,-15.7046 291.611,-21.296 293.133,-14.4636"/>
</g>
<!-- Node16&#45;&gt;Node10 -->
<g id="edge23" class="edge"><title>Node16&#45;&gt;Node10</title>
<path fill="none" stroke="midnightblue" d="M515.748,-61.9751C501.473,-52.4315 478.103,-36.8073 460.992,-25.3683"/>
<polygon fill="midnightblue" stroke="midnightblue" points="462.486,-22.1572 452.228,-19.5091 458.596,-27.9766 462.486,-22.1572"/>
</g>
<!-- Node17 -->
<g id="node17" class="node"><title>Node17</title>
<polygon fill="white" stroke="#bfbfbf" points="481.5,-0.5 481.5,-19.5 533.5,-19.5 533.5,-0.5 481.5,-0.5"/>
<text text-anchor="middle" x="507.5" y="-7.5" font-family="Helvetica,sans-Serif" font-size="10.00">cassert</text>
</g>
<!-- Node16&#45;&gt;Node17 -->
<g id="edge18" class="edge"><title>Node16&#45;&gt;Node17</title>
<path fill="none" stroke="midnightblue" d="M525.491,-61.9751C522.466,-53.4035 517.71,-39.9269 513.847,-28.983"/>
<polygon fill="midnightblue" stroke="midnightblue" points="517.132,-27.7741 510.503,-19.5091 510.531,-30.1039 517.132,-27.7741"/>
</g>
<!-- Node18 -->
<g id="node18" class="node"><title>Node18</title>
<polygon fill="white" stroke="#bfbfbf" points="552,-0.5 552,-19.5 629,-19.5 629,-0.5 552,-0.5"/>
<text text-anchor="middle" x="590.5" y="-7.5" font-family="Helvetica,sans-Serif" font-size="10.00">initializer_list</text>
</g>
<!-- Node16&#45;&gt;Node18 -->
<g id="edge20" class="edge"><title>Node16&#45;&gt;Node18</title>
<path fill="none" stroke="midnightblue" d="M537.383,-61.9751C546.959,-52.785 562.411,-37.9563 574.186,-26.656"/>
<polygon fill="midnightblue" stroke="midnightblue" points="576.842,-28.9585 581.633,-19.5091 571.995,-23.908 576.842,-28.9585"/>
</g>
<!-- Node19 -->
<g id="node19" class="node"><title>Node19</title>
<polygon fill="white" stroke="#bfbfbf" points="647.5,-0.5 647.5,-19.5 711.5,-19.5 711.5,-0.5 647.5,-0.5"/>
<text text-anchor="middle" x="679.5" y="-7.5" font-family="Helvetica,sans-Serif" font-size="10.00">stdexcept</text>
</g>
<!-- Node16&#45;&gt;Node19 -->
<g id="edge21" class="edge"><title>Node16&#45;&gt;Node19</title>
<path fill="none" stroke="midnightblue" d="M550.135,-61.9751C575.924,-51.8129 619.211,-34.7564 648.54,-23.1996"/>
<polygon fill="midnightblue" stroke="midnightblue" points="649.885,-26.4315 657.906,-19.5091 647.319,-19.9189 649.885,-26.4315"/>
</g>
</g>
</svg>
        <g id="navigator" transform="translate(0 0)" fill="#404254">
                <rect fill="#f2f5e9" fill-opacity="0.5" stroke="#606060" stroke-width=".5" x="0" y="0" width="60" height="60"/>
                <use id="zoomplus" xlink:href="#zoomPlus" x="17" y="9" onmousedown="handleZoom(evt,'in')"/>
                <use id="zoomminus" xlink:href="#zoomMin" x="42" y="9" onmousedown="handleZoom(evt,'out')"/>
                <use id="reset" xlink:href="#resetDef" x="30" y="36" onmousedown="handleReset()"/>
                <g id="arrowUp" xlink:href="#dirArrow" transform="translate(30 24)" onmousedown="handlePan(0,-1)">
                  <use xlink:href="#rim" fill="#404040">
                        <set attributeName="fill" to="#808080" begin="arrowUp.mouseover" end="arrowUp.mouseout"/>
                  </use>
                  <path fill="none" stroke="white" stroke-width="1.5" d="M0,-3.0v7 M-2.5,-0.5L0,-3.0L2.5,-0.5"/>
                </g>
                <g id="arrowRight" xlink:href="#dirArrow" transform="rotate(90) translate(36 -43)" onmousedown="handlePan(1,0)">
                  <use xlink:href="#rim" fill="#404040">
                        <set attributeName="fill" to="#808080" begin="arrowRight.mouseover" end="arrowRight.mouseout"/>
                  </use>
                  <path fill="none" stroke="white" stroke-width="1.5" d="M0,-3.0v7 M-2.5,-0.5L0,-3.0L2.5,-0.5"/>
                </g>
                <g id="arrowDown" xlink:href="#dirArrow" transform="rotate(180) translate(-30 -48)" onmousedown="handlePan(0,1)">
                  <use xlink:href="#rim" fill="#404040">
                        <set attributeName="fill" to="#808080" begin="arrowDown.mouseover" end="arrowDown.mouseout"/>
                  </use>
                  <path fill="none" stroke="white" stroke-width="1.5" d="M0,-3.0v7 M-2.5,-0.5L0,-3.0L2.5,-0.5"/>
                </g>
                <g id="arrowLeft" xlink:href="#dirArrow" transform="rotate(270) translate(-36 17)" onmousedown="handlePan(-1,0)">
                  <use xlink:href="#rim" fill="#404040">
                        <set attributeName="fill" to="#808080" begin="arrowLeft.mouseover" end="arrowLeft.mouseout"/>
                  </use>
                  <path fill="none" stroke="white" stroke-width="1.5" d="M0,-3.0v7 M-2.5,-0.5L0,-3.0L2.5,-0.5"/>
                </g>
        </g>
        <svg viewBox="0 0 15 15" width="100%" height="30px" preserveAspectRatio="xMaxYMin meet">
         <g id="arrow_out" transform="scale(0.3 0.3)">
          <a xlink:href="pdag_8h__incl_org.svg" target="_base">
           <rect id="button" ry="5" rx="5" y="6" x="6" height="38" width="38"
                fill="#f2f5e9" fill-opacity="0.5" stroke="#606060" stroke-width="1.0"/>
           <path id="arrow"
             d="M 11.500037,31.436501 C 11.940474,20.09759 22.043105,11.32322 32.158766,21.979434 L 37.068811,17.246167 C 37.068811,17.246167 37.088388,32 37.088388,32 L 22.160133,31.978069 C 22.160133,31.978069 26.997745,27.140456 26.997745,27.140456 C 18.528582,18.264221 13.291696,25.230495 11.500037,31.436501 z"
             style="fill:#404040;"/>
          </a>
         </g>
        </svg>
</svg>
