<?xml version="1.0" encoding="UTF-8" standalone="no"?>
<!DOCTYPE svg PUBLIC "-//W3C//DTD SVG 1.1//EN"
 "http://www.w3.org/Graphics/SVG/1.1/DTD/svg11.dtd">
<!-- Generated by graphviz version 2.38.0 (20140413.2041)
 -->
<!-- Title: preprocessor.cc Pages: 1 -->
<svg width="2150pt" height="274pt"
 viewBox="0.00 0.00 2149.56 274.00" xmlns="http://www.w3.org/2000/svg" xmlns:xlink="http://www.w3.org/1999/xlink">
<g id="graph0" class="graph" transform="scale(1 1) rotate(0) translate(4 270)">
<title>preprocessor.cc</title>
<polygon fill="white" stroke="none" points="-4,4 -4,-270 2145.56,-270 2145.56,4 -4,4"/>
<!-- Node1 -->
<g id="node1" class="node"><title>Node1</title>
<polygon fill="#bfbfbf" stroke="black" points="1405.06,-246.5 1405.06,-265.5 1497.06,-265.5 1497.06,-246.5 1405.06,-246.5"/>
<text text-anchor="middle" x="1451.06" y="-253.5" font-family="Helvetica,sans-Serif" font-size="10.00">preprocessor.cc</text>
</g>
<!-- Node2 -->
<g id="node2" class="node"><title>Node2</title>
<g id="a_node2"><a xlink:href="preprocessor_8h.xhtml" target="_top" xlink:title="A collection of PDAG transformation/preprocessing algorithms that simplify fault trees for analysis...">
<polygon fill="white" stroke="black" points="256.059,-185 256.059,-204 344.059,-204 344.059,-185 256.059,-185"/>
<text text-anchor="middle" x="300.059" y="-192" font-family="Helvetica,sans-Serif" font-size="10.00">preprocessor.h</text>
</a>
</g>
</g>
<!-- Node1&#45;&gt;Node2 -->
<g id="edge1" class="edge"><title>Node1&#45;&gt;Node2</title>
<path fill="none" stroke="midnightblue" d="M1404.87,-252.612C1222.16,-243.167 550.341,-208.438 354.175,-198.297"/>
<polygon fill="midnightblue" stroke="midnightblue" points="354.274,-194.798 344.107,-197.777 353.913,-201.789 354.274,-194.798"/>
</g>
<!-- Node12 -->
<g id="node12" class="node"><title>Node12</title>
<polygon fill="white" stroke="#bfbfbf" points="1115.56,-62 1115.56,-81 1162.56,-81 1162.56,-62 1115.56,-62"/>
<text text-anchor="middle" x="1139.06" y="-69" font-family="Helvetica,sans-Serif" font-size="10.00">cstdlib</text>
</g>
<!-- Node1&#45;&gt;Node12 -->
<g id="edge33" class="edge"><title>Node1&#45;&gt;Node12</title>
<path fill="none" stroke="midnightblue" d="M1405.02,-255.724C1357.15,-254.32 1281.96,-245.851 1229.06,-210 1185.1,-180.206 1157.48,-121.044 1145.69,-90.9736"/>
<polygon fill="midnightblue" stroke="midnightblue" points="1148.85,-89.4468 1142.05,-81.3195 1142.3,-91.9115 1148.85,-89.4468"/>
</g>
<!-- Node13 -->
<g id="node13" class="node"><title>Node13</title>
<polygon fill="white" stroke="#bfbfbf" points="1195.06,-0.5 1195.06,-19.5 1257.06,-19.5 1257.06,-0.5 1195.06,-0.5"/>
<text text-anchor="middle" x="1226.06" y="-7.5" font-family="Helvetica,sans-Serif" font-size="10.00">algorithm</text>
</g>
<!-- Node1&#45;&gt;Node13 -->
<g id="edge34" class="edge"><title>Node1&#45;&gt;Node13</title>
<path fill="none" stroke="midnightblue" d="M1405.05,-252.299C1370.36,-248.027 1323.53,-237.204 1292.06,-210 1261.12,-183.252 1242.46,-158.899 1262.06,-123 1276.24,-97.0301 1303.88,-112.97 1318.06,-87 1324.66,-74.9071 1325.35,-67.6883 1318.06,-56 1306.84,-38.017 1286.11,-27.0239 1267.17,-20.4104"/>
<polygon fill="midnightblue" stroke="midnightblue" points="1268.08,-17.0266 1257.49,-17.3374 1265.96,-23.6987 1268.08,-17.0266"/>
</g>
<!-- Node18 -->
<g id="node18" class="node"><title>Node18</title>
<g id="a_node18"><a xlink:href="find__iterator_8h.xhtml" target="_top" xlink:title="Convenience iterator adaptor to wrap find calls and results. ">
<polygon fill="white" stroke="black" points="14.5586,-62 14.5586,-81 115.559,-81 115.559,-62 14.5586,-62"/>
<text text-anchor="middle" x="65.0586" y="-69" font-family="Helvetica,sans-Serif" font-size="10.00">ext/find_iterator.h</text>
</a>
</g>
</g>
<!-- Node1&#45;&gt;Node18 -->
<g id="edge46" class="edge"><title>Node1&#45;&gt;Node18</title>
<path fill="none" stroke="midnightblue" d="M1404.76,-254.997C1212.36,-254.717 475.471,-250.938 247.059,-210 153.124,-193.164 99.0293,-220.295 43.0586,-143 31.4756,-127.004 41.7957,-104.734 51.8548,-89.5316"/>
<polygon fill="midnightblue" stroke="midnightblue" points="54.9158,-91.2681 57.8861,-81.0981 49.2221,-87.1961 54.9158,-91.2681"/>
</g>
<!-- Node24 -->
<g id="node24" class="node"><title>Node24</title>
<polygon fill="white" stroke="#bfbfbf" points="1455.56,-185 1455.56,-204 1496.56,-204 1496.56,-185 1455.56,-185"/>
<text text-anchor="middle" x="1476.06" y="-192" font-family="Helvetica,sans-Serif" font-size="10.00">array</text>
</g>
<!-- Node1&#45;&gt;Node24 -->
<g id="edge35" class="edge"><title>Node1&#45;&gt;Node24</title>
<path fill="none" stroke="midnightblue" d="M1454.64,-246.475C1458.24,-237.904 1463.9,-224.427 1468.5,-213.483"/>
<polygon fill="midnightblue" stroke="midnightblue" points="1471.84,-214.584 1472.48,-204.009 1465.38,-211.873 1471.84,-214.584"/>
</g>
<!-- Node25 -->
<g id="node25" class="node"><title>Node25</title>
<polygon fill="white" stroke="#bfbfbf" points="1515.06,-185 1515.06,-204 1545.06,-204 1545.06,-185 1515.06,-185"/>
<text text-anchor="middle" x="1530.06" y="-192" font-family="Helvetica,sans-Serif" font-size="10.00">list</text>
</g>
<!-- Node1&#45;&gt;Node25 -->
<g id="edge36" class="edge"><title>Node1&#45;&gt;Node25</title>
<path fill="none" stroke="midnightblue" d="M1462.38,-246.475C1474.93,-237.02 1495.41,-221.596 1510.56,-210.187"/>
<polygon fill="midnightblue" stroke="midnightblue" points="1512.88,-212.821 1518.76,-204.009 1508.67,-207.23 1512.88,-212.821"/>
</g>
<!-- Node26 -->
<g id="node26" class="node"><title>Node26</title>
<polygon fill="white" stroke="#bfbfbf" points="1563.56,-185 1563.56,-204 1610.56,-204 1610.56,-185 1563.56,-185"/>
<text text-anchor="middle" x="1587.06" y="-192" font-family="Helvetica,sans-Serif" font-size="10.00">queue</text>
</g>
<!-- Node1&#45;&gt;Node26 -->
<g id="edge37" class="edge"><title>Node1&#45;&gt;Node26</title>
<path fill="none" stroke="midnightblue" d="M1470.81,-246.385C1491.55,-237.337 1525.1,-222.687 1554.06,-210 1555.42,-209.404 1556.81,-208.793 1558.22,-208.176"/>
<polygon fill="midnightblue" stroke="midnightblue" points="1559.77,-211.319 1567.52,-204.094 1556.95,-204.909 1559.77,-211.319"/>
</g>
<!-- Node27 -->
<g id="node27" class="node"><title>Node27</title>
<polygon fill="white" stroke="#bfbfbf" points="1629.06,-185 1629.06,-204 1715.06,-204 1715.06,-185 1629.06,-185"/>
<text text-anchor="middle" x="1672.06" y="-192" font-family="Helvetica,sans-Serif" font-size="10.00">unordered_set</text>
</g>
<!-- Node1&#45;&gt;Node27 -->
<g id="edge38" class="edge"><title>Node1&#45;&gt;Node27</title>
<path fill="none" stroke="midnightblue" d="M1483.28,-246.424C1517.11,-237.407 1571.84,-222.782 1619.06,-210 1622.94,-208.95 1626.97,-207.854 1631.01,-206.754"/>
<polygon fill="midnightblue" stroke="midnightblue" points="1632.23,-210.048 1640.96,-204.038 1630.39,-203.295 1632.23,-210.048"/>
</g>
<!-- Node28 -->
<g id="node28" class="node"><title>Node28</title>
<polygon fill="white" stroke="#bfbfbf" points="1733.06,-185 1733.06,-204 1873.06,-204 1873.06,-185 1733.06,-185"/>
<text text-anchor="middle" x="1803.06" y="-192" font-family="Helvetica,sans-Serif" font-size="10.00">boost/functional/hash.hpp</text>
</g>
<!-- Node1&#45;&gt;Node28 -->
<g id="edge39" class="edge"><title>Node1&#45;&gt;Node28</title>
<path fill="none" stroke="midnightblue" d="M1497.47,-247.612C1551.83,-238.9 1644.56,-223.847 1724.06,-210 1731.51,-208.702 1739.35,-207.304 1747.08,-205.905"/>
<polygon fill="midnightblue" stroke="midnightblue" points="1747.92,-209.309 1757.13,-204.075 1746.67,-202.422 1747.92,-209.309"/>
</g>
<!-- Node29 -->
<g id="node29" class="node"><title>Node29</title>
<polygon fill="white" stroke="#bfbfbf" points="1891.56,-179.5 1891.56,-209.5 2000.56,-209.5 2000.56,-179.5 1891.56,-179.5"/>
<text text-anchor="start" x="1899.56" y="-197.5" font-family="Helvetica,sans-Serif" font-size="10.00">boost/math/special</text>
<text text-anchor="middle" x="1946.06" y="-186.5" font-family="Helvetica,sans-Serif" font-size="10.00">_functions/sign.hpp</text>
</g>
<!-- Node1&#45;&gt;Node29 -->
<g id="edge40" class="edge"><title>Node1&#45;&gt;Node29</title>
<path fill="none" stroke="midnightblue" d="M1497.22,-251.988C1574.59,-246.546 1735.44,-233.551 1881.3,-209.99"/>
<polygon fill="midnightblue" stroke="midnightblue" points="1882.03,-213.418 1891.33,-208.349 1880.9,-206.509 1882.03,-213.418"/>
</g>
<!-- Node30 -->
<g id="node30" class="node"><title>Node30</title>
<polygon fill="white" stroke="#bfbfbf" points="1271.06,-123.5 1271.06,-142.5 1415.06,-142.5 1415.06,-123.5 1271.06,-123.5"/>
<text text-anchor="middle" x="1343.06" y="-130.5" font-family="Helvetica,sans-Serif" font-size="10.00">boost/range/algorithm.hpp</text>
</g>
<!-- Node1&#45;&gt;Node30 -->
<g id="edge41" class="edge"><title>Node1&#45;&gt;Node30</title>
<path fill="none" stroke="midnightblue" d="M1404.96,-254.979C1370,-252.223 1324.01,-242.13 1300.06,-210 1285.37,-190.29 1306.54,-165.055 1324.04,-149.203"/>
<polygon fill="midnightblue" stroke="midnightblue" points="1326.38,-151.808 1331.68,-142.634 1321.81,-146.5 1326.38,-151.808"/>
</g>
<!-- Node31 -->
<g id="node31" class="node"><title>Node31</title>
<polygon fill="white" stroke="#bfbfbf" points="2018.56,-179.5 2018.56,-209.5 2141.56,-209.5 2141.56,-179.5 2018.56,-179.5"/>
<text text-anchor="start" x="2026.56" y="-197.5" font-family="Helvetica,sans-Serif" font-size="10.00">boost/range/algorithm</text>
<text text-anchor="middle" x="2080.06" y="-186.5" font-family="Helvetica,sans-Serif" font-size="10.00">_ext.hpp</text>
</g>
<!-- Node1&#45;&gt;Node31 -->
<g id="edge42" class="edge"><title>Node1&#45;&gt;Node31</title>
<path fill="none" stroke="midnightblue" d="M1497.29,-253.218C1591.62,-249.165 1813.17,-237.504 2008.15,-210.167"/>
<polygon fill="midnightblue" stroke="midnightblue" points="2008.89,-213.597 2018.3,-208.727 2007.9,-206.667 2008.89,-213.597"/>
</g>
<!-- Node32 -->
<g id="node32" class="node"><title>Node32</title>
<g id="a_node32"><a xlink:href="algorithm_8h.xhtml" target="_top" xlink:title="Helpful algorithm facilities as an extension to the STL or Boost. ">
<polygon fill="white" stroke="black" points="1309.56,-185 1309.56,-204 1398.56,-204 1398.56,-185 1309.56,-185"/>
<text text-anchor="middle" x="1354.06" y="-192" font-family="Helvetica,sans-Serif" font-size="10.00">ext/algorithm.h</text>
</a>
</g>
</g>
<!-- Node1&#45;&gt;Node32 -->
<g id="edge43" class="edge"><title>Node1&#45;&gt;Node32</title>
<path fill="none" stroke="midnightblue" d="M1437.16,-246.475C1421.39,-236.799 1395.42,-220.872 1376.71,-209.394"/>
<polygon fill="midnightblue" stroke="midnightblue" points="1378.28,-206.254 1367.93,-204.009 1374.62,-212.221 1378.28,-206.254"/>
</g>
<!-- Node33 -->
<g id="node33" class="node"><title>Node33</title>
<g id="a_node33"><a xlink:href="logger_8h.xhtml" target="_top" xlink:title="Logging capability for various purposes, such as warnings and debugging. ">
<polygon fill="white" stroke="black" points="1471.56,-123.5 1471.56,-142.5 1526.56,-142.5 1526.56,-123.5 1471.56,-123.5"/>
<text text-anchor="middle" x="1499.06" y="-130.5" font-family="Helvetica,sans-Serif" font-size="10.00">logger.h</text>
</a>
</g>
</g>
<!-- Node1&#45;&gt;Node33 -->
<g id="edge47" class="edge"><title>Node1&#45;&gt;Node33</title>
<path fill="none" stroke="midnightblue" d="M1447.82,-246.067C1443.05,-231.326 1435.73,-201.321 1446.06,-179 1451.98,-166.207 1463.53,-155.722 1474.34,-148.1"/>
<polygon fill="midnightblue" stroke="midnightblue" points="1476.27,-151.016 1482.73,-142.613 1472.44,-145.158 1476.27,-151.016"/>
</g>
<!-- Node3 -->
<g id="node3" class="node"><title>Node3</title>
<polygon fill="white" stroke="#bfbfbf" points="172.559,-62 172.559,-81 229.559,-81 229.559,-62 172.559,-62"/>
<text text-anchor="middle" x="201.059" y="-69" font-family="Helvetica,sans-Serif" font-size="10.00">memory</text>
</g>
<!-- Node2&#45;&gt;Node3 -->
<g id="edge2" class="edge"><title>Node2&#45;&gt;Node3</title>
<path fill="none" stroke="midnightblue" d="M292.939,-184.798C276.528,-164.74 235.822,-114.989 214.528,-88.9628"/>
<polygon fill="midnightblue" stroke="midnightblue" points="217.155,-86.6464 208.114,-81.1232 211.737,-91.0791 217.155,-86.6464"/>
</g>
<!-- Node4 -->
<g id="node4" class="node"><title>Node4</title>
<polygon fill="white" stroke="#bfbfbf" points="750.059,-123.5 750.059,-142.5 782.059,-142.5 782.059,-123.5 750.059,-123.5"/>
<text text-anchor="middle" x="766.059" y="-130.5" font-family="Helvetica,sans-Serif" font-size="10.00">set</text>
</g>
<!-- Node2&#45;&gt;Node4 -->
<g id="edge3" class="edge"><title>Node2&#45;&gt;Node4</title>
<path fill="none" stroke="midnightblue" d="M344.093,-190.972C423.229,-185.86 594.448,-172.205 736.059,-143 737.347,-142.734 738.659,-142.439 739.98,-142.121"/>
<polygon fill="midnightblue" stroke="midnightblue" points="741.274,-145.396 750,-139.386 739.431,-138.643 741.274,-145.396"/>
</g>
<!-- Node5 -->
<g id="node5" class="node"><title>Node5</title>
<polygon fill="white" stroke="#bfbfbf" points="247.559,-62 247.559,-81 340.559,-81 340.559,-62 247.559,-62"/>
<text text-anchor="middle" x="294.059" y="-69" font-family="Helvetica,sans-Serif" font-size="10.00">unordered_map</text>
</g>
<!-- Node2&#45;&gt;Node5 -->
<g id="edge4" class="edge"><title>Node2&#45;&gt;Node5</title>
<path fill="none" stroke="midnightblue" d="M299.627,-184.798C298.663,-165.35 296.314,-117.99 294.996,-91.4036"/>
<polygon fill="midnightblue" stroke="midnightblue" points="298.477,-90.9375 294.486,-81.1232 291.486,-91.2843 298.477,-90.9375"/>
</g>
<!-- Node6 -->
<g id="node6" class="node"><title>Node6</title>
<polygon fill="white" stroke="#bfbfbf" points="196.059,-0.5 196.059,-19.5 238.059,-19.5 238.059,-0.5 196.059,-0.5"/>
<text text-anchor="middle" x="217.059" y="-7.5" font-family="Helvetica,sans-Serif" font-size="10.00">utility</text>
</g>
<!-- Node2&#45;&gt;Node6 -->
<g id="edge5" class="edge"><title>Node2&#45;&gt;Node6</title>
<path fill="none" stroke="midnightblue" d="M255.911,-188.912C191.959,-181.589 77.4302,-165.732 43.0586,-143 17.9707,-126.408 13.8927,-115.752 5.05862,-87 1.01203,-73.8299 -3.61352,-66.7061 5.05862,-56 27.4364,-28.3737 132.304,-17.0125 185.678,-12.9574"/>
<polygon fill="midnightblue" stroke="midnightblue" points="186.209,-16.4283 195.932,-12.2203 185.707,-9.44633 186.209,-16.4283"/>
</g>
<!-- Node7 -->
<g id="node7" class="node"><title>Node7</title>
<polygon fill="white" stroke="#bfbfbf" points="770.559,-0.5 770.559,-19.5 817.559,-19.5 817.559,-0.5 770.559,-0.5"/>
<text text-anchor="middle" x="794.059" y="-7.5" font-family="Helvetica,sans-Serif" font-size="10.00">vector</text>
</g>
<!-- Node2&#45;&gt;Node7 -->
<g id="edge6" class="edge"><title>Node2&#45;&gt;Node7</title>
<path fill="none" stroke="midnightblue" d="M288.251,-184.764C255.642,-160.58 166.517,-94.0697 163.059,-87 157.004,-74.624 153.669,-66.0829 163.059,-56 203.967,-12.07 635.218,-10.3534 760.258,-10.7884"/>
<polygon fill="midnightblue" stroke="midnightblue" points="760.379,-14.2888 770.393,-10.8309 760.408,-7.28891 760.379,-14.2888"/>
</g>
<!-- Node8 -->
<g id="node8" class="node"><title>Node8</title>
<polygon fill="white" stroke="#bfbfbf" points="1181.06,-62 1181.06,-81 1309.06,-81 1309.06,-62 1181.06,-62"/>
<text text-anchor="middle" x="1245.06" y="-69" font-family="Helvetica,sans-Serif" font-size="10.00">boost/noncopyable.hpp</text>
</g>
<!-- Node2&#45;&gt;Node8 -->
<g id="edge7" class="edge"><title>Node2&#45;&gt;Node8</title>
<path fill="none" stroke="midnightblue" d="M344.088,-193.104C419.375,-191.308 576.933,-182.648 703.059,-143 721.265,-137.277 722.738,-128.348 741.059,-123 925.156,-69.2634 981.116,-113.479 1171.06,-87 1179.08,-85.882 1187.54,-84.4578 1195.77,-82.9407"/>
<polygon fill="midnightblue" stroke="midnightblue" points="1196.47,-86.3699 1205.64,-81.0583 1195.16,-79.4939 1196.47,-86.3699"/>
</g>
<!-- Node9 -->
<g id="node9" class="node"><title>Node9</title>
<polygon fill="white" stroke="#bfbfbf" points="52.0586,-123.5 52.0586,-142.5 196.059,-142.5 196.059,-123.5 52.0586,-123.5"/>
<text text-anchor="middle" x="124.059" y="-130.5" font-family="Helvetica,sans-Serif" font-size="10.00">boost/unordered_map.hpp</text>
</g>
<!-- Node2&#45;&gt;Node9 -->
<g id="edge8" class="edge"><title>Node2&#45;&gt;Node9</title>
<path fill="none" stroke="midnightblue" d="M274.842,-184.975C244.39,-174.68 193.01,-157.31 158.816,-145.75"/>
<polygon fill="midnightblue" stroke="midnightblue" points="159.823,-142.396 149.228,-142.509 157.581,-149.027 159.823,-142.396"/>
</g>
<!-- Node10 -->
<g id="node10" class="node"><title>Node10</title>
<g id="a_node10"><a xlink:href="pdag_8h.xhtml" target="_top" xlink:title="Classes and facilities to represent fault trees as PDAGs with event and gate indices instead of ID na...">
<polygon fill="white" stroke="black" points="644.059,-123.5 644.059,-142.5 694.059,-142.5 694.059,-123.5 644.059,-123.5"/>
<text text-anchor="middle" x="669.059" y="-130.5" font-family="Helvetica,sans-Serif" font-size="10.00">pdag.h</text>
</a>
</g>
</g>
<!-- Node2&#45;&gt;Node10 -->
<g id="edge9" class="edge"><title>Node2&#45;&gt;Node10</title>
<path fill="none" stroke="midnightblue" d="M344.202,-186.382C418.288,-174.436 566.164,-150.591 633.81,-139.684"/>
<polygon fill="midnightblue" stroke="midnightblue" points="634.639,-143.095 643.954,-138.048 633.525,-136.185 634.639,-143.095"/>
</g>
<!-- Node10&#45;&gt;Node3 -->
<g id="edge14" class="edge"><title>Node10&#45;&gt;Node3</title>
<path fill="none" stroke="midnightblue" d="M643.879,-131.724C576.872,-130.489 389.008,-123.742 238.059,-87 235.231,-86.3116 232.33,-85.4564 229.457,-84.5079"/>
<polygon fill="midnightblue" stroke="midnightblue" points="230.538,-81.1767 219.945,-81.0313 228.135,-87.7514 230.538,-81.1767"/>
</g>
<!-- Node10&#45;&gt;Node5 -->
<g id="edge16" class="edge"><title>Node10&#45;&gt;Node5</title>
<path fill="none" stroke="midnightblue" d="M643.695,-129.16C590.13,-122.987 461.639,-107.261 355.059,-87 349.304,-85.906 343.273,-84.6313 337.337,-83.3001"/>
<polygon fill="midnightblue" stroke="midnightblue" points="338.032,-79.8686 327.501,-81.0285 336.457,-86.689 338.032,-79.8686"/>
</g>
<!-- Node10&#45;&gt;Node6 -->
<g id="edge17" class="edge"><title>Node10&#45;&gt;Node6</title>
<path fill="none" stroke="midnightblue" d="M643.814,-132.172C593.111,-131.63 476.215,-125.862 388.059,-87 367.798,-78.0685 368.489,-66.617 349.059,-56 316.465,-38.1909 275.536,-25.5669 247.964,-18.3086"/>
<polygon fill="midnightblue" stroke="midnightblue" points="248.651,-14.8719 238.096,-15.7899 246.92,-21.6544 248.651,-14.8719"/>
</g>
<!-- Node10&#45;&gt;Node7 -->
<g id="edge18" class="edge"><title>Node10&#45;&gt;Node7</title>
<path fill="none" stroke="midnightblue" d="M694.199,-126.17C743.349,-114.717 847.622,-90.1169 850.059,-87 858.545,-76.1458 856.013,-68.4244 850.059,-56 843.806,-42.9542 831.723,-32.4921 820.376,-24.9506"/>
<polygon fill="midnightblue" stroke="midnightblue" points="821.913,-21.7869 811.56,-19.5351 818.249,-27.7515 821.913,-21.7869"/>
</g>
<!-- Node10&#45;&gt;Node8 -->
<g id="edge20" class="edge"><title>Node10&#45;&gt;Node8</title>
<path fill="none" stroke="midnightblue" d="M694.127,-125.635C698.737,-124.63 703.525,-123.695 708.059,-123 912.072,-91.7076 966.553,-114.891 1171.06,-87 1179.17,-85.8932 1187.74,-84.4614 1196.06,-82.9295"/>
<polygon fill="midnightblue" stroke="midnightblue" points="1196.86,-86.3394 1206.03,-81.0265 1195.55,-79.4636 1196.86,-86.3394"/>
</g>
<!-- Node11 -->
<g id="node11" class="node"><title>Node11</title>
<polygon fill="white" stroke="#bfbfbf" points="1365.56,-62 1365.56,-81 1414.56,-81 1414.56,-62 1365.56,-62"/>
<text text-anchor="middle" x="1390.06" y="-69" font-family="Helvetica,sans-Serif" font-size="10.00">cstdint</text>
</g>
<!-- Node10&#45;&gt;Node11 -->
<g id="edge10" class="edge"><title>Node10&#45;&gt;Node11</title>
<path fill="none" stroke="midnightblue" d="M694.341,-128.45C708.127,-126.613 725.506,-124.456 741.059,-123 996.883,-99.0535 1063.3,-120.441 1318.06,-87 1330.38,-85.3827 1343.75,-82.8955 1355.59,-80.435"/>
<polygon fill="midnightblue" stroke="midnightblue" points="1356.49,-83.8214 1365.54,-78.3022 1355.03,-76.977 1356.49,-83.8214"/>
</g>
<!-- Node10&#45;&gt;Node12 -->
<g id="edge11" class="edge"><title>Node10&#45;&gt;Node12</title>
<path fill="none" stroke="midnightblue" d="M694.135,-125.687C698.745,-124.677 703.53,-123.726 708.059,-123 881.242,-95.2164 930.197,-126.634 1101.06,-87 1104.06,-86.3044 1107.14,-85.4253 1110.18,-84.4452"/>
<polygon fill="midnightblue" stroke="midnightblue" points="1111.41,-87.7238 1119.66,-81.0722 1109.06,-81.1293 1111.41,-87.7238"/>
</g>
<!-- Node10&#45;&gt;Node13 -->
<g id="edge12" class="edge"><title>Node10&#45;&gt;Node13</title>
<path fill="none" stroke="midnightblue" d="M694.14,-125.718C698.749,-124.705 703.533,-123.745 708.059,-123 866.719,-96.8687 919.457,-148.428 1068.06,-87 1088.2,-78.6735 1087.16,-66.8589 1106.06,-56 1131.04,-41.6447 1161.46,-30.2977 1185.41,-22.5889"/>
<polygon fill="midnightblue" stroke="midnightblue" points="1186.75,-25.8371 1195.25,-19.5097 1184.66,-19.1567 1186.75,-25.8371"/>
</g>
<!-- Node14 -->
<g id="node14" class="node"><title>Node14</title>
<polygon fill="white" stroke="#bfbfbf" points="1013.06,-62 1013.06,-81 1059.06,-81 1059.06,-62 1013.06,-62"/>
<text text-anchor="middle" x="1036.06" y="-69" font-family="Helvetica,sans-Serif" font-size="10.00">iosfwd</text>
</g>
<!-- Node10&#45;&gt;Node14 -->
<g id="edge13" class="edge"><title>Node10&#45;&gt;Node14</title>
<path fill="none" stroke="midnightblue" d="M694.154,-125.799C698.762,-124.778 703.542,-123.795 708.059,-123 838.145,-100.118 875.68,-121.94 1003.06,-87 1005.35,-86.3715 1007.69,-85.6104 1010.01,-84.77"/>
<polygon fill="midnightblue" stroke="midnightblue" points="1011.33,-88.0104 1019.28,-81.0044 1008.7,-81.5249 1011.33,-88.0104"/>
</g>
<!-- Node15 -->
<g id="node15" class="node"><title>Node15</title>
<polygon fill="white" stroke="#bfbfbf" points="397.059,-62 397.059,-81 465.059,-81 465.059,-62 397.059,-62"/>
<text text-anchor="middle" x="431.059" y="-69" font-family="Helvetica,sans-Serif" font-size="10.00">type_traits</text>
</g>
<!-- Node10&#45;&gt;Node15 -->
<g id="edge15" class="edge"><title>Node10&#45;&gt;Node15</title>
<path fill="none" stroke="midnightblue" d="M643.925,-127.026C606.591,-119.452 534.398,-104.091 474.059,-87 471.048,-86.1472 467.936,-85.21 464.828,-84.2351"/>
<polygon fill="midnightblue" stroke="midnightblue" points="465.627,-80.8148 455.035,-81.0499 463.462,-87.4715 465.627,-80.8148"/>
</g>
<!-- Node16 -->
<g id="node16" class="node"><title>Node16</title>
<polygon fill="white" stroke="#bfbfbf" points="483.059,-56.5 483.059,-86.5 593.059,-86.5 593.059,-56.5 483.059,-56.5"/>
<text text-anchor="start" x="491.059" y="-74.5" font-family="Helvetica,sans-Serif" font-size="10.00">boost/container/flat</text>
<text text-anchor="middle" x="538.059" y="-63.5" font-family="Helvetica,sans-Serif" font-size="10.00">_set.hpp</text>
</g>
<!-- Node10&#45;&gt;Node16 -->
<g id="edge19" class="edge"><title>Node10&#45;&gt;Node16</title>
<path fill="none" stroke="midnightblue" d="M650.29,-123.475C631.553,-114.965 602.17,-101.619 578.169,-90.718"/>
<polygon fill="midnightblue" stroke="midnightblue" points="579.485,-87.4717 568.933,-86.523 576.59,-93.8451 579.485,-87.4717"/>
</g>
<!-- Node17 -->
<g id="node17" class="node"><title>Node17</title>
<polygon fill="white" stroke="#bfbfbf" points="611.559,-56.5 611.559,-86.5 726.559,-86.5 726.559,-56.5 611.559,-56.5"/>
<text text-anchor="start" x="619.559" y="-74.5" font-family="Helvetica,sans-Serif" font-size="10.00">boost/range/adaptor</text>
<text text-anchor="middle" x="669.059" y="-63.5" font-family="Helvetica,sans-Serif" font-size="10.00">/transformed.hpp</text>
</g>
<!-- Node10&#45;&gt;Node17 -->
<g id="edge21" class="edge"><title>Node10&#45;&gt;Node17</title>
<path fill="none" stroke="midnightblue" d="M669.059,-123.475C669.059,-116.471 669.059,-106.192 669.059,-96.6956"/>
<polygon fill="midnightblue" stroke="midnightblue" points="672.559,-96.5229 669.059,-86.523 665.559,-96.523 672.559,-96.5229"/>
</g>
<!-- Node10&#45;&gt;Node18 -->
<g id="edge22" class="edge"><title>Node10&#45;&gt;Node18</title>
<path fill="none" stroke="midnightblue" d="M643.997,-130.29C570.18,-125.142 347.201,-108.792 163.059,-87 150.983,-85.5709 138.102,-83.8251 125.782,-82.0466"/>
<polygon fill="midnightblue" stroke="midnightblue" points="125.997,-78.5408 115.595,-80.5513 124.981,-85.4666 125.997,-78.5408"/>
</g>
<!-- Node19 -->
<g id="node19" class="node"><title>Node19</title>
<g id="a_node19"><a xlink:href="index__map_8h.xhtml" target="_top" xlink:title="Non&#45;zero based Index&#45;&gt;Value map adapter on sequential containers. ">
<polygon fill="white" stroke="black" points="745.059,-62 745.059,-81 841.059,-81 841.059,-62 745.059,-62"/>
<text text-anchor="middle" x="793.059" y="-69" font-family="Helvetica,sans-Serif" font-size="10.00">ext/index_map.h</text>
</a>
</g>
</g>
<!-- Node10&#45;&gt;Node19 -->
<g id="edge24" class="edge"><title>Node10&#45;&gt;Node19</title>
<path fill="none" stroke="midnightblue" d="M686.825,-123.475C707.543,-113.534 742.011,-96.9947 766.047,-85.461"/>
<polygon fill="midnightblue" stroke="midnightblue" points="767.824,-88.4908 775.325,-81.0091 764.795,-82.1797 767.824,-88.4908"/>
</g>
<!-- Node20 -->
<g id="node20" class="node"><title>Node20</title>
<g id="a_node20"><a xlink:href="linear__map_8h.xhtml" target="_top" xlink:title="Implementation of a vector&#45;based map for a small number of entries. ">
<polygon fill="white" stroke="black" points="897.559,-62 897.559,-81 994.559,-81 994.559,-62 897.559,-62"/>
<text text-anchor="middle" x="946.059" y="-69" font-family="Helvetica,sans-Serif" font-size="10.00">ext/linear_map.h</text>
</a>
</g>
</g>
<!-- Node10&#45;&gt;Node20 -->
<g id="edge26" class="edge"><title>Node10&#45;&gt;Node20</title>
<path fill="none" stroke="midnightblue" d="M694.214,-126.102C698.815,-125.05 703.578,-123.978 708.059,-123 785.64,-106.071 805.473,-103.906 883.059,-87 888.473,-85.8201 894.143,-84.556 899.767,-83.284"/>
<polygon fill="midnightblue" stroke="midnightblue" points="900.806,-86.6371 909.778,-81.0024 899.251,-79.8121 900.806,-86.6371"/>
</g>
<!-- Node18&#45;&gt;Node6 -->
<g id="edge23" class="edge"><title>Node18&#45;&gt;Node6</title>
<path fill="none" stroke="midnightblue" d="M86.8365,-61.9751C112.945,-51.7552 156.866,-34.5624 186.395,-23.0032"/>
<polygon fill="midnightblue" stroke="midnightblue" points="187.775,-26.2217 195.811,-19.3173 185.223,-19.7033 187.775,-26.2217"/>
</g>
<!-- Node19&#45;&gt;Node7 -->
<g id="edge25" class="edge"><title>Node19&#45;&gt;Node7</title>
<path fill="none" stroke="midnightblue" d="M793.202,-61.9751C793.343,-53.5803 793.563,-40.4806 793.745,-29.6631"/>
<polygon fill="midnightblue" stroke="midnightblue" points="797.247,-29.5665 793.916,-19.5091 790.248,-29.4488 797.247,-29.5665"/>
</g>
<!-- Node20&#45;&gt;Node6 -->
<g id="edge31" class="edge"><title>Node20&#45;&gt;Node6</title>
<path fill="none" stroke="midnightblue" d="M897.319,-62.3763C882.205,-60.0625 865.471,-57.7091 850.059,-56 619.646,-30.4494 340.354,-16.4994 248.202,-12.3418"/>
<polygon fill="midnightblue" stroke="midnightblue" points="248.296,-8.8426 238.15,-11.8938 247.985,-15.8357 248.296,-8.8426"/>
</g>
<!-- Node20&#45;&gt;Node7 -->
<g id="edge32" class="edge"><title>Node20&#45;&gt;Node7</title>
<path fill="none" stroke="midnightblue" d="M924.281,-61.9751C898.32,-51.8129 854.747,-34.7564 825.224,-23.1996"/>
<polygon fill="midnightblue" stroke="midnightblue" points="826.384,-19.8951 815.796,-19.5091 823.832,-26.4135 826.384,-19.8951"/>
</g>
<!-- Node20&#45;&gt;Node13 -->
<g id="edge28" class="edge"><title>Node20&#45;&gt;Node13</title>
<path fill="none" stroke="midnightblue" d="M979.123,-61.961C987.259,-59.9353 995.96,-57.8322 1004.06,-56 1066.87,-41.7912 1140.15,-27.3485 1184.82,-18.7843"/>
<polygon fill="midnightblue" stroke="midnightblue" points="1185.55,-22.2077 1194.71,-16.8928 1184.23,-15.3321 1185.55,-22.2077"/>
</g>
<!-- Node21 -->
<g id="node21" class="node"><title>Node21</title>
<polygon fill="white" stroke="#bfbfbf" points="837.059,-0.5 837.059,-19.5 889.059,-19.5 889.059,-0.5 837.059,-0.5"/>
<text text-anchor="middle" x="863.059" y="-7.5" font-family="Helvetica,sans-Serif" font-size="10.00">cassert</text>
</g>
<!-- Node20&#45;&gt;Node21 -->
<g id="edge27" class="edge"><title>Node20&#45;&gt;Node21</title>
<path fill="none" stroke="midnightblue" d="M934.167,-61.9751C920.854,-52.4315 899.059,-36.8073 883.102,-25.3683"/>
<polygon fill="midnightblue" stroke="midnightblue" points="885.095,-22.4908 874.928,-19.5091 881.017,-28.18 885.095,-22.4908"/>
</g>
<!-- Node22 -->
<g id="node22" class="node"><title>Node22</title>
<polygon fill="white" stroke="#bfbfbf" points="907.559,-0.5 907.559,-19.5 984.559,-19.5 984.559,-0.5 907.559,-0.5"/>
<text text-anchor="middle" x="946.059" y="-7.5" font-family="Helvetica,sans-Serif" font-size="10.00">initializer_list</text>
</g>
<!-- Node20&#45;&gt;Node22 -->
<g id="edge29" class="edge"><title>Node20&#45;&gt;Node22</title>
<path fill="none" stroke="midnightblue" d="M946.059,-61.9751C946.059,-53.5803 946.059,-40.4806 946.059,-29.6631"/>
<polygon fill="midnightblue" stroke="midnightblue" points="949.559,-29.5091 946.059,-19.5091 942.559,-29.5091 949.559,-29.5091"/>
</g>
<!-- Node23 -->
<g id="node23" class="node"><title>Node23</title>
<polygon fill="white" stroke="#bfbfbf" points="1003.06,-0.5 1003.06,-19.5 1067.06,-19.5 1067.06,-0.5 1003.06,-0.5"/>
<text text-anchor="middle" x="1035.06" y="-7.5" font-family="Helvetica,sans-Serif" font-size="10.00">stdexcept</text>
</g>
<!-- Node20&#45;&gt;Node23 -->
<g id="edge30" class="edge"><title>Node20&#45;&gt;Node23</title>
<path fill="none" stroke="midnightblue" d="M958.81,-61.9751C973.085,-52.4315 996.456,-36.8073 1013.57,-25.3683"/>
<polygon fill="midnightblue" stroke="midnightblue" points="1015.96,-27.9766 1022.33,-19.5091 1012.07,-22.1572 1015.96,-27.9766"/>
</g>
<!-- Node32&#45;&gt;Node13 -->
<g id="edge44" class="edge"><title>Node32&#45;&gt;Node13</title>
<path fill="none" stroke="midnightblue" d="M1374.86,-184.988C1391.55,-176.909 1413.82,-163.011 1424.06,-143 1432.73,-126.044 1450.66,-90.0904 1423.06,-56 1403.8,-32.2129 1319.28,-19.9469 1267.41,-14.547"/>
<polygon fill="midnightblue" stroke="midnightblue" points="1267.48,-11.037 1257.18,-13.5272 1266.79,-18.0025 1267.48,-11.037"/>
</g>
<!-- Node32&#45;&gt;Node30 -->
<g id="edge45" class="edge"><title>Node32&#45;&gt;Node30</title>
<path fill="none" stroke="midnightblue" d="M1352.48,-184.975C1350.93,-176.58 1348.51,-163.481 1346.51,-152.663"/>
<polygon fill="midnightblue" stroke="midnightblue" points="1349.89,-151.706 1344.63,-142.509 1343.01,-152.979 1349.89,-151.706"/>
</g>
<!-- Node33&#45;&gt;Node8 -->
<g id="edge51" class="edge"><title>Node33&#45;&gt;Node8</title>
<path fill="none" stroke="midnightblue" d="M1471.39,-125.519C1428.15,-115.389 1344.06,-95.6902 1291.44,-83.3646"/>
<polygon fill="midnightblue" stroke="midnightblue" points="1292.21,-79.951 1281.68,-81.0779 1290.61,-86.7665 1292.21,-79.951"/>
</g>
<!-- Node33&#45;&gt;Node11 -->
<g id="edge48" class="edge"><title>Node33&#45;&gt;Node11</title>
<path fill="none" stroke="midnightblue" d="M1483.44,-123.475C1465.47,-113.666 1435.74,-97.4346 1414.65,-85.925"/>
<polygon fill="midnightblue" stroke="midnightblue" points="1416.1,-82.7284 1405.65,-81.0091 1412.75,-88.8726 1416.1,-82.7284"/>
</g>
<!-- Node34 -->
<g id="node34" class="node"><title>Node34</title>
<polygon fill="white" stroke="#bfbfbf" points="1673.06,-62 1673.06,-81 1723.06,-81 1723.06,-62 1673.06,-62"/>
<text text-anchor="middle" x="1698.06" y="-69" font-family="Helvetica,sans-Serif" font-size="10.00">chrono</text>
</g>
<!-- Node33&#45;&gt;Node34 -->
<g id="edge49" class="edge"><title>Node33&#45;&gt;Node34</title>
<path fill="none" stroke="midnightblue" d="M1526.56,-125.721C1559.6,-117.899 1616.52,-103.531 1664.06,-87 1665.92,-86.3518 1667.83,-85.6502 1669.74,-84.9172"/>
<polygon fill="midnightblue" stroke="midnightblue" points="1671.22,-88.0932 1679.18,-81.0945 1668.59,-81.6054 1671.22,-88.0932"/>
</g>
<!-- Node35 -->
<g id="node35" class="node"><title>Node35</title>
<polygon fill="white" stroke="#bfbfbf" points="1471.06,-62 1471.06,-81 1527.06,-81 1527.06,-62 1471.06,-62"/>
<text text-anchor="middle" x="1499.06" y="-69" font-family="Helvetica,sans-Serif" font-size="10.00">sstream</text>
</g>
<!-- Node33&#45;&gt;Node35 -->
<g id="edge50" class="edge"><title>Node33&#45;&gt;Node35</title>
<path fill="none" stroke="midnightblue" d="M1499.06,-123.475C1499.06,-115.08 1499.06,-101.981 1499.06,-91.1631"/>
<polygon fill="midnightblue" stroke="midnightblue" points="1502.56,-91.0091 1499.06,-81.0091 1495.56,-91.0091 1502.56,-91.0091"/>
</g>
<!-- Node36 -->
<g id="node36" class="node"><title>Node36</title>
<polygon fill="white" stroke="#bfbfbf" points="1545.06,-56.5 1545.06,-86.5 1655.06,-86.5 1655.06,-56.5 1545.06,-56.5"/>
<text text-anchor="start" x="1553.06" y="-74.5" font-family="Helvetica,sans-Serif" font-size="10.00">boost/preprocessor</text>
<text text-anchor="middle" x="1600.06" y="-63.5" font-family="Helvetica,sans-Serif" font-size="10.00">/cat.hpp</text>
</g>
<!-- Node33&#45;&gt;Node36 -->
<g id="edge52" class="edge"><title>Node33&#45;&gt;Node36</title>
<path fill="none" stroke="midnightblue" d="M1513.53,-123.475C1527.46,-115.266 1549.04,-102.558 1567.15,-91.8845"/>
<polygon fill="midnightblue" stroke="midnightblue" points="1569.42,-94.6144 1576.25,-86.523 1565.86,-88.5832 1569.42,-94.6144"/>
</g>
</g>
</svg>
