<?xml version="1.0" encoding="UTF-8" standalone="no"?>
<!DOCTYPE svg PUBLIC "-//W3C//DTD SVG 1.1//EN"
 "http://www.w3.org/Graphics/SVG/1.1/DTD/svg11.dtd">
<!-- Generated by graphviz version 2.38.0 (20140413.2041)
 -->
<!-- Title: preprocessor.h Pages: 1 -->
<!--zoomable 207 -->
<svg id="main" version="1.1" xmlns="http://www.w3.org/2000/svg" xmlns:xlink="http://www.w3.org/1999/xlink" xml:space="preserve" onload="init(evt)">
<style type="text/css"><![CDATA[
.edge:hover path { stroke: red; }
.edge:hover polygon { stroke: red; fill: red; }
]]></style>
<script type="text/javascript"><![CDATA[
var edges = document.getElementsByTagName('g');
if (edges && edges.length) {
  for (var i=0;i<edges.length;i++) {
    if (edges[i].id.substr(0,4)=='edge') {
      edges[i].setAttribute('class','edge');
    }
  }
}
]]></script>
        <defs>
                <circle id="rim" cx="0" cy="0" r="7"/>
                <circle id="rim2" cx="0" cy="0" r="3.5"/>
                <g id="zoomPlus">
                        <use xlink:href="#rim" fill="#404040">
                                <set attributeName="fill" to="#808080" begin="zoomplus.mouseover" end="zoomplus.mouseout"/>
                        </use>
                        <path d="M-4,0h8M0,-4v8" fill="none" stroke="white" stroke-width="1.5" pointer-events="none"/>
                </g>
                <g id="zoomMin">
                        <use xlink:href="#rim" fill="#404040">
                                <set attributeName="fill" to="#808080" begin="zoomminus.mouseover" end="zoomminus.mouseout"/>
                        </use>
                        <path d="M-4,0h8" fill="none" stroke="white" stroke-width="1.5" pointer-events="none"/>
                </g>
                <g id="dirArrow">
                        <path fill="none" stroke="white" stroke-width="1.5" d="M0,-3.0v7 M-2.5,-0.5L0,-3.0L2.5,-0.5"/>
                </g>
               <g id="resetDef">
                       <use xlink:href="#rim2" fill="#404040">
                               <set attributeName="fill" to="#808080" begin="reset.mouseover" end="reset.mouseout"/>
                       </use>
               </g>
        </defs>

<script type="text/javascript">
var viewWidth = 1600;
var viewHeight = 207;
var sectionId = 'dynsection-0';
</script>
<script xlink:href="svgpan.js"/>
<svg id="graph" class="graph">
<g id="viewport">
<title>preprocessor.h</title>
<polygon fill="white" stroke="none" points="-4,4 -4,-203 1596.23,-203 1596.23,4 -4,4"/>
<!-- Node1 -->
<g id="node1" class="node"><title>Node1</title>
<polygon fill="#bfbfbf" stroke="black" points="769.234,-179.5 769.234,-198.5 857.234,-198.5 857.234,-179.5 769.234,-179.5"/>
<text text-anchor="middle" x="813.234" y="-186.5" font-family="Helvetica,sans-Serif" font-size="10.00">preprocessor.h</text>
</g>
<!-- Node2 -->
<g id="node2" class="node"><title>Node2</title>
<polygon fill="white" stroke="#bfbfbf" points="19.7337,-62 19.7337,-81 76.7337,-81 76.7337,-62 19.7337,-62"/>
<text text-anchor="middle" x="48.2337" y="-69" font-family="Helvetica,sans-Serif" font-size="10.00">memory</text>
</g>
<!-- Node1&#45;&gt;Node2 -->
<g id="edge1" class="edge"><title>Node1&#45;&gt;Node2</title>
<path fill="none" stroke="midnightblue" d="M768.952,-185.829C654.138,-179.353 338.177,-156.12 85.2337,-87 82.6402,-86.2913 79.979,-85.4624 77.3307,-84.5662"/>
<polygon fill="midnightblue" stroke="midnightblue" points="78.5342,-81.2797 67.9405,-81.1212 76.1231,-87.8514 78.5342,-81.2797"/>
</g>
<!-- Node3 -->
<g id="node3" class="node"><title>Node3</title>
<polygon fill="white" stroke="#bfbfbf" points="1398.23,-123.5 1398.23,-142.5 1430.23,-142.5 1430.23,-123.5 1398.23,-123.5"/>
<text text-anchor="middle" x="1414.23" y="-130.5" font-family="Helvetica,sans-Serif" font-size="10.00">set</text>
</g>
<!-- Node1&#45;&gt;Node3 -->
<g id="edge2" class="edge"><title>Node1&#45;&gt;Node3</title>
<path fill="none" stroke="midnightblue" d="M857.349,-187.706C953.775,-186.37 1190.22,-179.319 1384.23,-143 1385.53,-142.758 1386.84,-142.481 1388.17,-142.179"/>
<polygon fill="midnightblue" stroke="midnightblue" points="1389.44,-145.461 1398.2,-139.497 1387.63,-138.699 1389.44,-145.461"/>
</g>
<!-- Node4 -->
<g id="node4" class="node"><title>Node4</title>
<polygon fill="white" stroke="#bfbfbf" points="94.7337,-62 94.7337,-81 187.734,-81 187.734,-62 94.7337,-62"/>
<text text-anchor="middle" x="141.234" y="-69" font-family="Helvetica,sans-Serif" font-size="10.00">unordered_map</text>
</g>
<!-- Node1&#45;&gt;Node4 -->
<g id="edge3" class="edge"><title>Node1&#45;&gt;Node4</title>
<path fill="none" stroke="midnightblue" d="M768.974,-180.41C670.997,-163.607 428.365,-121.978 225.234,-87 216.439,-85.4855 207.126,-83.88 198.028,-82.3103"/>
<polygon fill="midnightblue" stroke="midnightblue" points="198.335,-78.8116 187.885,-80.56 197.144,-85.7097 198.335,-78.8116"/>
</g>
<!-- Node5 -->
<g id="node5" class="node"><title>Node5</title>
<polygon fill="white" stroke="#bfbfbf" points="1049.23,-0.5 1049.23,-19.5 1091.23,-19.5 1091.23,-0.5 1049.23,-0.5"/>
<text text-anchor="middle" x="1070.23" y="-7.5" font-family="Helvetica,sans-Serif" font-size="10.00">utility</text>
</g>
<!-- Node1&#45;&gt;Node5 -->
<g id="edge4" class="edge"><title>Node1&#45;&gt;Node5</title>
<path fill="none" stroke="midnightblue" d="M857.492,-186.653C974.679,-182.063 1288.36,-162.794 1351.23,-87 1360.03,-76.3961 1360.26,-66.411 1351.23,-56 1316.13,-15.5 1170.5,-30.4486 1101.44,-19.6625"/>
<polygon fill="midnightblue" stroke="midnightblue" points="1101.91,-16.1894 1091.44,-17.787 1100.62,-23.0696 1101.91,-16.1894"/>
</g>
<!-- Node6 -->
<g id="node6" class="node"><title>Node6</title>
<polygon fill="white" stroke="#bfbfbf" points="230.734,-0.5 230.734,-19.5 277.734,-19.5 277.734,-0.5 230.734,-0.5"/>
<text text-anchor="middle" x="254.234" y="-7.5" font-family="Helvetica,sans-Serif" font-size="10.00">vector</text>
</g>
<!-- Node1&#45;&gt;Node6 -->
<g id="edge5" class="edge"><title>Node1&#45;&gt;Node6</title>
<path fill="none" stroke="midnightblue" d="M769.086,-185.995C607.824,-178.202 57.5389,-147.33 10.2337,-87 -45.3946,-16.0553 141.003,-9.85176 220.269,-10.3112"/>
<polygon fill="midnightblue" stroke="midnightblue" points="220.672,-13.8152 230.706,-10.4142 220.741,-6.81558 220.672,-13.8152"/>
</g>
<!-- Node7 -->
<g id="node7" class="node"><title>Node7</title>
<polygon fill="white" stroke="#bfbfbf" points="1214.23,-62 1214.23,-81 1342.23,-81 1342.23,-62 1214.23,-62"/>
<text text-anchor="middle" x="1278.23" y="-69" font-family="Helvetica,sans-Serif" font-size="10.00">boost/noncopyable.hpp</text>
</g>
<!-- Node1&#45;&gt;Node7 -->
<g id="edge6" class="edge"><title>Node1&#45;&gt;Node7</title>
<path fill="none" stroke="midnightblue" d="M847.804,-179.413C930.881,-158.778 1141.67,-106.42 1233.89,-83.5137"/>
<polygon fill="midnightblue" stroke="midnightblue" points="1234.89,-86.8724 1243.75,-81.065 1233.2,-80.0789 1234.89,-86.8724"/>
</g>
<!-- Node8 -->
<g id="node8" class="node"><title>Node8</title>
<polygon fill="white" stroke="#bfbfbf" points="1448.23,-123.5 1448.23,-142.5 1592.23,-142.5 1592.23,-123.5 1448.23,-123.5"/>
<text text-anchor="middle" x="1520.23" y="-130.5" font-family="Helvetica,sans-Serif" font-size="10.00">boost/unordered_map.hpp</text>
</g>
<!-- Node1&#45;&gt;Node8 -->
<g id="edge7" class="edge"><title>Node1&#45;&gt;Node8</title>
<path fill="none" stroke="midnightblue" d="M857.301,-185.423C958.109,-179.402 1213.5,-163.425 1437.84,-143.096"/>
<polygon fill="midnightblue" stroke="midnightblue" points="1438.18,-146.58 1447.82,-142.187 1437.55,-139.608 1438.18,-146.58"/>
</g>
<!-- Node9 -->
<g id="node9" class="node"><title>Node9</title>
<g id="a_node9"><a xlink:href="pdag_8h.xhtml" target="_top" xlink:title="Classes and facilities to represent fault trees as PDAGs with event and gate indices instead of ID na...">
<polygon fill="white" stroke="black" points="600.234,-123.5 600.234,-142.5 650.234,-142.5 650.234,-123.5 600.234,-123.5"/>
<text text-anchor="middle" x="625.234" y="-130.5" font-family="Helvetica,sans-Serif" font-size="10.00">pdag.h</text>
</a>
</g>
</g>
<!-- Node1&#45;&gt;Node9 -->
<g id="edge8" class="edge"><title>Node1&#45;&gt;Node9</title>
<path fill="none" stroke="midnightblue" d="M783.445,-179.444C749.991,-169.835 695.754,-154.256 660.287,-144.069"/>
<polygon fill="midnightblue" stroke="midnightblue" points="660.949,-140.617 650.371,-141.22 659.016,-147.345 660.949,-140.617"/>
</g>
<!-- Node9&#45;&gt;Node2 -->
<g id="edge13" class="edge"><title>Node9&#45;&gt;Node2</title>
<path fill="none" stroke="midnightblue" d="M600.077,-132.469C522.339,-133.378 279.497,-132.141 85.2337,-87 82.3986,-86.3412 79.4931,-85.5058 76.6174,-84.5698"/>
<polygon fill="midnightblue" stroke="midnightblue" points="77.6947,-81.2374 67.1007,-81.1108 75.3035,-87.8163 77.6947,-81.2374"/>
</g>
<!-- Node9&#45;&gt;Node4 -->
<g id="edge15" class="edge"><title>Node9&#45;&gt;Node4</title>
<path fill="none" stroke="midnightblue" d="M599.809,-130.429C533.824,-126.108 351.82,-112.628 202.234,-87 196.254,-85.9755 189.987,-84.7098 183.84,-83.3565"/>
<polygon fill="midnightblue" stroke="midnightblue" points="184.213,-79.851 173.683,-81.0234 182.646,-86.6733 184.213,-79.851"/>
</g>
<!-- Node9&#45;&gt;Node5 -->
<g id="edge16" class="edge"><title>Node9&#45;&gt;Node5</title>
<path fill="none" stroke="midnightblue" d="M650.29,-130.985C736.865,-127.258 1019.76,-113.161 1050.23,-87 1066.54,-73.0013 1070.35,-47.4606 1070.87,-29.8786"/>
<polygon fill="midnightblue" stroke="midnightblue" points="1074.37,-29.6631 1070.84,-19.6753 1067.37,-29.6874 1074.37,-29.6631"/>
</g>
<!-- Node9&#45;&gt;Node6 -->
<g id="edge17" class="edge"><title>Node9&#45;&gt;Node6</title>
<path fill="none" stroke="midnightblue" d="M600.016,-130.999C517.522,-127.47 259.58,-114.317 235.234,-87 220.727,-70.7231 231.84,-45.0285 242.174,-28.0943"/>
<polygon fill="midnightblue" stroke="midnightblue" points="245.119,-29.9868 247.668,-19.7032 239.262,-26.1525 245.119,-29.9868"/>
</g>
<!-- Node9&#45;&gt;Node7 -->
<g id="edge19" class="edge"><title>Node9&#45;&gt;Node7</title>
<path fill="none" stroke="midnightblue" d="M650.457,-131.085C731.314,-127.928 991.198,-116.051 1204.23,-87 1212.35,-85.8934 1220.92,-84.4616 1229.23,-82.9298"/>
<polygon fill="midnightblue" stroke="midnightblue" points="1230.04,-86.3397 1239.2,-81.0267 1228.72,-79.4638 1230.04,-86.3397"/>
</g>
<!-- Node10 -->
<g id="node10" class="node"><title>Node10</title>
<polygon fill="white" stroke="#bfbfbf" points="396.734,-62 396.734,-81 445.734,-81 445.734,-62 396.734,-62"/>
<text text-anchor="middle" x="421.234" y="-69" font-family="Helvetica,sans-Serif" font-size="10.00">cstdint</text>
</g>
<!-- Node9&#45;&gt;Node10 -->
<g id="edge9" class="edge"><title>Node9&#45;&gt;Node10</title>
<path fill="none" stroke="midnightblue" d="M600.232,-126.714C566.591,-119.31 505.102,-104.746 454.234,-87 452.568,-86.419 450.869,-85.7901 449.165,-85.131"/>
<polygon fill="midnightblue" stroke="midnightblue" points="450.109,-81.734 439.53,-81.1474 447.434,-88.2029 450.109,-81.734"/>
</g>
<!-- Node11 -->
<g id="node11" class="node"><title>Node11</title>
<polygon fill="white" stroke="#bfbfbf" points="463.734,-62 463.734,-81 510.734,-81 510.734,-62 463.734,-62"/>
<text text-anchor="middle" x="487.234" y="-69" font-family="Helvetica,sans-Serif" font-size="10.00">cstdlib</text>
</g>
<!-- Node9&#45;&gt;Node11 -->
<g id="edge10" class="edge"><title>Node9&#45;&gt;Node11</title>
<path fill="none" stroke="midnightblue" d="M604.453,-123.351C583.036,-114.397 548.709,-99.9324 519.234,-87 517.872,-86.4027 516.48,-85.7876 515.075,-85.1637"/>
<polygon fill="midnightblue" stroke="midnightblue" points="516.37,-81.9085 505.813,-81.0097 513.505,-88.2955 516.37,-81.9085"/>
</g>
<!-- Node12 -->
<g id="node12" class="node"><title>Node12</title>
<polygon fill="white" stroke="#bfbfbf" points="653.234,-0.5 653.234,-19.5 715.234,-19.5 715.234,-0.5 653.234,-0.5"/>
<text text-anchor="middle" x="684.234" y="-7.5" font-family="Helvetica,sans-Serif" font-size="10.00">algorithm</text>
</g>
<!-- Node9&#45;&gt;Node12 -->
<g id="edge11" class="edge"><title>Node9&#45;&gt;Node12</title>
<path fill="none" stroke="midnightblue" d="M600.226,-132.213C527.938,-132.026 327.562,-125.394 387.234,-56 419.723,-18.2172 569.209,-11.7672 642.913,-10.9252"/>
<polygon fill="midnightblue" stroke="midnightblue" points="643.245,-14.4226 653.215,-10.8386 643.186,-7.42286 643.245,-14.4226"/>
</g>
<!-- Node13 -->
<g id="node13" class="node"><title>Node13</title>
<polygon fill="white" stroke="#bfbfbf" points="648.234,-62 648.234,-81 694.234,-81 694.234,-62 648.234,-62"/>
<text text-anchor="middle" x="671.234" y="-69" font-family="Helvetica,sans-Serif" font-size="10.00">iosfwd</text>
</g>
<!-- Node9&#45;&gt;Node13 -->
<g id="edge12" class="edge"><title>Node9&#45;&gt;Node13</title>
<path fill="none" stroke="midnightblue" d="M631.824,-123.475C638.724,-114.55 649.736,-100.307 658.367,-89.1425"/>
<polygon fill="midnightblue" stroke="midnightblue" points="661.308,-91.0612 664.655,-81.0091 655.77,-86.7798 661.308,-91.0612"/>
</g>
<!-- Node14 -->
<g id="node14" class="node"><title>Node14</title>
<polygon fill="white" stroke="#bfbfbf" points="712.234,-62 712.234,-81 780.234,-81 780.234,-62 712.234,-62"/>
<text text-anchor="middle" x="746.234" y="-69" font-family="Helvetica,sans-Serif" font-size="10.00">type_traits</text>
</g>
<!-- Node9&#45;&gt;Node14 -->
<g id="edge14" class="edge"><title>Node9&#45;&gt;Node14</title>
<path fill="none" stroke="midnightblue" d="M642.57,-123.475C662.787,-113.534 696.421,-96.9947 719.876,-85.461"/>
<polygon fill="midnightblue" stroke="midnightblue" points="721.5,-88.5627 728.929,-81.0091 718.411,-82.281 721.5,-88.5627"/>
</g>
<!-- Node15 -->
<g id="node15" class="node"><title>Node15</title>
<polygon fill="white" stroke="#bfbfbf" points="798.234,-56.5 798.234,-86.5 908.234,-86.5 908.234,-56.5 798.234,-56.5"/>
<text text-anchor="start" x="806.234" y="-74.5" font-family="Helvetica,sans-Serif" font-size="10.00">boost/container/flat</text>
<text text-anchor="middle" x="853.234" y="-63.5" font-family="Helvetica,sans-Serif" font-size="10.00">_set.hpp</text>
</g>
<!-- Node9&#45;&gt;Node15 -->
<g id="edge18" class="edge"><title>Node9&#45;&gt;Node15</title>
<path fill="none" stroke="midnightblue" d="M650.505,-125.405C683.774,-116.723 743.428,-101.155 789.443,-89.1471"/>
<polygon fill="midnightblue" stroke="midnightblue" points="790.544,-92.4771 799.336,-86.5653 788.777,-85.7039 790.544,-92.4771"/>
</g>
<!-- Node16 -->
<g id="node16" class="node"><title>Node16</title>
<polygon fill="white" stroke="#bfbfbf" points="926.734,-56.5 926.734,-86.5 1041.73,-86.5 1041.73,-56.5 926.734,-56.5"/>
<text text-anchor="start" x="934.734" y="-74.5" font-family="Helvetica,sans-Serif" font-size="10.00">boost/range/adaptor</text>
<text text-anchor="middle" x="984.234" y="-63.5" font-family="Helvetica,sans-Serif" font-size="10.00">/transformed.hpp</text>
</g>
<!-- Node9&#45;&gt;Node16 -->
<g id="edge20" class="edge"><title>Node9&#45;&gt;Node16</title>
<path fill="none" stroke="midnightblue" d="M650.318,-128.653C699.359,-122 811.577,-106.231 916.414,-87.0814"/>
<polygon fill="midnightblue" stroke="midnightblue" points="917.334,-90.4711 926.535,-85.2179 916.066,-83.5868 917.334,-90.4711"/>
</g>
<!-- Node17 -->
<g id="node17" class="node"><title>Node17</title>
<g id="a_node17"><a xlink:href="find__iterator_8h.xhtml" target="_top" xlink:title="Convenience iterator adaptor to wrap find calls and results. ">
<polygon fill="white" stroke="black" points="528.734,-62 528.734,-81 629.734,-81 629.734,-62 528.734,-62"/>
<text text-anchor="middle" x="579.234" y="-69" font-family="Helvetica,sans-Serif" font-size="10.00">ext/find_iterator.h</text>
</a>
</g>
</g>
<!-- Node9&#45;&gt;Node17 -->
<g id="edge21" class="edge"><title>Node9&#45;&gt;Node17</title>
<path fill="none" stroke="midnightblue" d="M618.643,-123.475C611.743,-114.55 600.732,-100.307 592.1,-89.1425"/>
<polygon fill="midnightblue" stroke="midnightblue" points="594.698,-86.7798 585.812,-81.0091 589.16,-91.0612 594.698,-86.7798"/>
</g>
<!-- Node18 -->
<g id="node18" class="node"><title>Node18</title>
<g id="a_node18"><a xlink:href="index__map_8h.xhtml" target="_top" xlink:title="Non&#45;zero based Index&#45;&gt;Value map adapter on sequential containers. ">
<polygon fill="white" stroke="black" points="244.234,-62 244.234,-81 340.234,-81 340.234,-62 244.234,-62"/>
<text text-anchor="middle" x="292.234" y="-69" font-family="Helvetica,sans-Serif" font-size="10.00">ext/index_map.h</text>
</a>
</g>
</g>
<!-- Node9&#45;&gt;Node18 -->
<g id="edge23" class="edge"><title>Node9&#45;&gt;Node18</title>
<path fill="none" stroke="midnightblue" d="M600.102,-128.387C552.13,-121.366 444.264,-104.983 354.234,-87 348.539,-85.8626 342.571,-84.5814 336.681,-83.2634"/>
<polygon fill="midnightblue" stroke="midnightblue" points="337.434,-79.8452 326.906,-81.0293 335.875,-86.6693 337.434,-79.8452"/>
</g>
<!-- Node19 -->
<g id="node19" class="node"><title>Node19</title>
<g id="a_node19"><a xlink:href="linear__map_8h.xhtml" target="_top" xlink:title="Implementation of a vector&#45;based map for a small number of entries. ">
<polygon fill="white" stroke="black" points="1098.73,-62 1098.73,-81 1195.73,-81 1195.73,-62 1098.73,-62"/>
<text text-anchor="middle" x="1147.23" y="-69" font-family="Helvetica,sans-Serif" font-size="10.00">ext/linear_map.h</text>
</a>
</g>
</g>
<!-- Node9&#45;&gt;Node19 -->
<g id="edge25" class="edge"><title>Node9&#45;&gt;Node19</title>
<path fill="none" stroke="midnightblue" d="M650.257,-130.68C719.585,-126.779 919.869,-113.858 1084.23,-87 1090.56,-85.9666 1097.19,-84.673 1103.69,-83.2865"/>
<polygon fill="midnightblue" stroke="midnightblue" points="1104.71,-86.6442 1113.72,-81.0555 1103.19,-79.8113 1104.71,-86.6442"/>
</g>
<!-- Node17&#45;&gt;Node5 -->
<g id="edge22" class="edge"><title>Node17&#45;&gt;Node5</title>
<path fill="none" stroke="midnightblue" d="M611.142,-61.9549C620.173,-59.7642 630.046,-57.5826 639.234,-56 787.681,-30.4301 967.567,-17.3307 1038.91,-12.8363"/>
<polygon fill="midnightblue" stroke="midnightblue" points="1039.25,-16.3218 1049.02,-12.2117 1038.82,-9.3351 1039.25,-16.3218"/>
</g>
<!-- Node18&#45;&gt;Node6 -->
<g id="edge24" class="edge"><title>Node18&#45;&gt;Node6</title>
<path fill="none" stroke="midnightblue" d="M286.789,-61.9751C281.146,-53.1384 272.173,-39.0886 265.075,-27.975"/>
<polygon fill="midnightblue" stroke="midnightblue" points="268,-26.0531 259.668,-19.5091 262.101,-29.8208 268,-26.0531"/>
</g>
<!-- Node19&#45;&gt;Node5 -->
<g id="edge30" class="edge"><title>Node19&#45;&gt;Node5</title>
<path fill="none" stroke="midnightblue" d="M1136.2,-61.9751C1123.97,-52.5199 1104.01,-37.0961 1089.24,-25.6871"/>
<polygon fill="midnightblue" stroke="midnightblue" points="1091.3,-22.8541 1081.25,-19.5091 1087.02,-28.3931 1091.3,-22.8541"/>
</g>
<!-- Node19&#45;&gt;Node6 -->
<g id="edge31" class="edge"><title>Node19&#45;&gt;Node6</title>
<path fill="none" stroke="midnightblue" d="M1098.5,-62.3198C1083.09,-59.9755 1065.99,-57.6192 1050.23,-56 755.746,-25.7299 397.72,-14.629 287.875,-11.7954"/>
<polygon fill="midnightblue" stroke="midnightblue" points="287.823,-8.29313 277.738,-11.5395 287.647,-15.2909 287.823,-8.29313"/>
</g>
<!-- Node19&#45;&gt;Node12 -->
<g id="edge27" class="edge"><title>Node19&#45;&gt;Node12</title>
<path fill="none" stroke="midnightblue" d="M1098.42,-62.9495C1083.02,-60.6349 1065.92,-58.137 1050.23,-56 932.818,-40.0087 793.855,-23.6167 725.887,-15.7635"/>
<polygon fill="midnightblue" stroke="midnightblue" points="725.938,-12.2462 715.603,-14.5778 725.136,-19.2002 725.938,-12.2462"/>
</g>
<!-- Node20 -->
<g id="node20" class="node"><title>Node20</title>
<polygon fill="white" stroke="#bfbfbf" points="1109.23,-0.5 1109.23,-19.5 1161.23,-19.5 1161.23,-0.5 1109.23,-0.5"/>
<text text-anchor="middle" x="1135.23" y="-7.5" font-family="Helvetica,sans-Serif" font-size="10.00">cassert</text>
</g>
<!-- Node19&#45;&gt;Node20 -->
<g id="edge26" class="edge"><title>Node19&#45;&gt;Node20</title>
<path fill="none" stroke="midnightblue" d="M1145.51,-61.9751C1143.8,-53.4919 1141.12,-40.2043 1138.93,-29.3222"/>
<polygon fill="midnightblue" stroke="midnightblue" points="1142.36,-28.6197 1136.95,-19.5091 1135.5,-30.0037 1142.36,-28.6197"/>
</g>
<!-- Node21 -->
<g id="node21" class="node"><title>Node21</title>
<polygon fill="white" stroke="#bfbfbf" points="1179.73,-0.5 1179.73,-19.5 1256.73,-19.5 1256.73,-0.5 1179.73,-0.5"/>
<text text-anchor="middle" x="1218.23" y="-7.5" font-family="Helvetica,sans-Serif" font-size="10.00">initializer_list</text>
</g>
<!-- Node19&#45;&gt;Node21 -->
<g id="edge28" class="edge"><title>Node19&#45;&gt;Node21</title>
<path fill="none" stroke="midnightblue" d="M1157.41,-61.9751C1168.58,-52.6082 1186.75,-37.3839 1200.32,-26.0081"/>
<polygon fill="midnightblue" stroke="midnightblue" points="1202.66,-28.6148 1208.08,-19.5091 1198.17,-23.2496 1202.66,-28.6148"/>
</g>
<!-- Node22 -->
<g id="node22" class="node"><title>Node22</title>
<polygon fill="white" stroke="#bfbfbf" points="1275.23,-0.5 1275.23,-19.5 1339.23,-19.5 1339.23,-0.5 1275.23,-0.5"/>
<text text-anchor="middle" x="1307.23" y="-7.5" font-family="Helvetica,sans-Serif" font-size="10.00">stdexcept</text>
</g>
<!-- Node19&#45;&gt;Node22 -->
<g id="edge29" class="edge"><title>Node19&#45;&gt;Node22</title>
<path fill="none" stroke="midnightblue" d="M1170.16,-61.9751C1197.6,-51.7687 1243.75,-34.608 1274.83,-23.0492"/>
<polygon fill="midnightblue" stroke="midnightblue" points="1276.2,-26.2752 1284.35,-19.5091 1273.76,-19.7142 1276.2,-26.2752"/>
</g>
</g>
</svg>
        <g id="navigator" transform="translate(0 0)" fill="#404254">
                <rect fill="#f2f5e9" fill-opacity="0.5" stroke="#606060" stroke-width=".5" x="0" y="0" width="60" height="60"/>
                <use id="zoomplus" xlink:href="#zoomPlus" x="17" y="9" onmousedown="handleZoom(evt,'in')"/>
                <use id="zoomminus" xlink:href="#zoomMin" x="42" y="9" onmousedown="handleZoom(evt,'out')"/>
                <use id="reset" xlink:href="#resetDef" x="30" y="36" onmousedown="handleReset()"/>
                <g id="arrowUp" xlink:href="#dirArrow" transform="translate(30 24)" onmousedown="handlePan(0,-1)">
                  <use xlink:href="#rim" fill="#404040">
                        <set attributeName="fill" to="#808080" begin="arrowUp.mouseover" end="arrowUp.mouseout"/>
                  </use>
                  <path fill="none" stroke="white" stroke-width="1.5" d="M0,-3.0v7 M-2.5,-0.5L0,-3.0L2.5,-0.5"/>
                </g>
                <g id="arrowRight" xlink:href="#dirArrow" transform="rotate(90) translate(36 -43)" onmousedown="handlePan(1,0)">
                  <use xlink:href="#rim" fill="#404040">
                        <set attributeName="fill" to="#808080" begin="arrowRight.mouseover" end="arrowRight.mouseout"/>
                  </use>
                  <path fill="none" stroke="white" stroke-width="1.5" d="M0,-3.0v7 M-2.5,-0.5L0,-3.0L2.5,-0.5"/>
                </g>
                <g id="arrowDown" xlink:href="#dirArrow" transform="rotate(180) translate(-30 -48)" onmousedown="handlePan(0,1)">
                  <use xlink:href="#rim" fill="#404040">
                        <set attributeName="fill" to="#808080" begin="arrowDown.mouseover" end="arrowDown.mouseout"/>
                  </use>
                  <path fill="none" stroke="white" stroke-width="1.5" d="M0,-3.0v7 M-2.5,-0.5L0,-3.0L2.5,-0.5"/>
                </g>
                <g id="arrowLeft" xlink:href="#dirArrow" transform="rotate(270) translate(-36 17)" onmousedown="handlePan(-1,0)">
                  <use xlink:href="#rim" fill="#404040">
                        <set attributeName="fill" to="#808080" begin="arrowLeft.mouseover" end="arrowLeft.mouseout"/>
                  </use>
                  <path fill="none" stroke="white" stroke-width="1.5" d="M0,-3.0v7 M-2.5,-0.5L0,-3.0L2.5,-0.5"/>
                </g>
        </g>
        <svg viewBox="0 0 15 15" width="100%" height="30px" preserveAspectRatio="xMaxYMin meet">
         <g id="arrow_out" transform="scale(0.3 0.3)">
          <a xlink:href="preprocessor_8h__incl_org.svg" target="_base">
           <rect id="button" ry="5" rx="5" y="6" x="6" height="38" width="38"
                fill="#f2f5e9" fill-opacity="0.5" stroke="#606060" stroke-width="1.0"/>
           <path id="arrow"
             d="M 11.500037,31.436501 C 11.940474,20.09759 22.043105,11.32322 32.158766,21.979434 L 37.068811,17.246167 C 37.068811,17.246167 37.088388,32 37.088388,32 L 22.160133,31.978069 C 22.160133,31.978069 26.997745,27.140456 26.997745,27.140456 C 18.528582,18.264221 13.291696,25.230495 11.500037,31.436501 z"
             style="fill:#404040;"/>
          </a>
         </g>
        </svg>
</svg>
