<?xml version="1.0" encoding="UTF-8" standalone="no"?>
<!DOCTYPE svg PUBLIC "-//W3C//DTD SVG 1.1//EN"
 "http://www.w3.org/Graphics/SVG/1.1/DTD/svg11.dtd">
<!-- Generated by graphviz version 2.38.0 (20140413.2041)
 -->
<!-- Title: probability_analysis.h Pages: 1 -->
<svg width="1819pt" height="408pt"
 viewBox="0.00 0.00 1819.00 408.00" xmlns="http://www.w3.org/2000/svg" xmlns:xlink="http://www.w3.org/1999/xlink">
<g id="graph0" class="graph" transform="scale(1 1) rotate(0) translate(4 404)">
<title>probability_analysis.h</title>
<polygon fill="white" stroke="none" points="-4,4 -4,-404 1815,-404 1815,4 -4,4"/>
<!-- Node1 -->
<g id="node1" class="node"><title>Node1</title>
<polygon fill="#bfbfbf" stroke="black" points="992.5,-380.5 992.5,-399.5 1111.5,-399.5 1111.5,-380.5 992.5,-380.5"/>
<text text-anchor="middle" x="1052" y="-387.5" font-family="Helvetica,sans-Serif" font-size="10.00">probability_analysis.h</text>
</g>
<!-- Node2 -->
<g id="node2" class="node"><title>Node2</title>
<polygon fill="white" stroke="#bfbfbf" points="506,-0.5 506,-19.5 548,-19.5 548,-0.5 506,-0.5"/>
<text text-anchor="middle" x="527" y="-7.5" font-family="Helvetica,sans-Serif" font-size="10.00">utility</text>
</g>
<!-- Node1&#45;&gt;Node2 -->
<g id="edge1" class="edge"><title>Node1&#45;&gt;Node2</title>
<path fill="none" stroke="midnightblue" d="M992.426,-388.763C769.882,-387.104 0,-374.096 0,-273.5 0,-273.5 0,-273.5 0,-137.5 0,-77.3664 52.0833,-78.1217 108,-56 178.786,-27.9958 411.36,-15.7847 495.916,-12.1955"/>
<polygon fill="midnightblue" stroke="midnightblue" points="496.082,-15.6917 505.929,-11.7817 495.793,-8.69771 496.082,-15.6917"/>
</g>
<!-- Node3 -->
<g id="node3" class="node"><title>Node3</title>
<polygon fill="white" stroke="#bfbfbf" points="1560.5,-0.5 1560.5,-19.5 1607.5,-19.5 1607.5,-0.5 1560.5,-0.5"/>
<text text-anchor="middle" x="1584" y="-7.5" font-family="Helvetica,sans-Serif" font-size="10.00">vector</text>
</g>
<!-- Node1&#45;&gt;Node3 -->
<g id="edge2" class="edge"><title>Node1&#45;&gt;Node3</title>
<path fill="none" stroke="midnightblue" d="M1111.56,-386.197C1290.48,-376.992 1811,-344.143 1811,-273.5 1811,-273.5 1811,-273.5 1811,-137.5 1811,-50.2835 1681.56,-22.6534 1618.16,-14.3516"/>
<polygon fill="midnightblue" stroke="midnightblue" points="1618.21,-10.8318 1607.86,-13.0971 1617.37,-17.7805 1618.21,-10.8318"/>
</g>
<!-- Node4 -->
<g id="node4" class="node"><title>Node4</title>
<g id="a_node4"><a xlink:href="analysis_8h.xhtml" target="_top" xlink:title="Common facilities for all analysis classes. ">
<polygon fill="white" stroke="black" points="148,-196 148,-215 212,-215 212,-196 148,-196"/>
<text text-anchor="middle" x="180" y="-203" font-family="Helvetica,sans-Serif" font-size="10.00">analysis.h</text>
</a>
</g>
</g>
<!-- Node1&#45;&gt;Node4 -->
<g id="edge3" class="edge"><title>Node1&#45;&gt;Node4</title>
<path fill="none" stroke="midnightblue" d="M992.268,-385.577C809.509,-374.599 266.585,-338.044 206,-288 187.422,-272.654 181.949,-244.024 180.432,-225.112"/>
<polygon fill="midnightblue" stroke="midnightblue" points="183.923,-224.846 179.922,-215.035 176.932,-225.2 183.923,-224.846"/>
</g>
<!-- Node11 -->
<g id="node11" class="node"><title>Node11</title>
<g id="a_node11"><a xlink:href="bdd_8h.xhtml" target="_top" xlink:title="Fault tree analysis with the Binary Decision Diagram algorithms. ">
<polygon fill="white" stroke="black" points="1301,-196 1301,-215 1345,-215 1345,-196 1301,-196"/>
<text text-anchor="middle" x="1323" y="-203" font-family="Helvetica,sans-Serif" font-size="10.00">bdd.h</text>
</a>
</g>
</g>
<!-- Node1&#45;&gt;Node11 -->
<g id="edge10" class="edge"><title>Node1&#45;&gt;Node11</title>
<path fill="none" stroke="midnightblue" d="M1111.6,-384.757C1172.68,-379.191 1262.12,-367.267 1287,-344 1320.25,-312.9 1324.27,-255.204 1323.93,-225.405"/>
<polygon fill="midnightblue" stroke="midnightblue" points="1327.42,-225.029 1323.61,-215.14 1320.42,-225.241 1327.42,-225.029"/>
</g>
<!-- Node19 -->
<g id="node19" class="node"><title>Node19</title>
<g id="a_node19"><a xlink:href="pdag_8h.xhtml" target="_top" xlink:title="Classes and facilities to represent fault trees as PDAGs with event and gate indices instead of ID na...">
<polygon fill="white" stroke="black" points="958,-129 958,-148 1008,-148 1008,-129 958,-129"/>
<text text-anchor="middle" x="983" y="-136" font-family="Helvetica,sans-Serif" font-size="10.00">pdag.h</text>
</a>
</g>
</g>
<!-- Node1&#45;&gt;Node19 -->
<g id="edge78" class="edge"><title>Node1&#45;&gt;Node19</title>
<path fill="none" stroke="midnightblue" d="M1073.76,-380.499C1138.4,-354.066 1320.7,-270.273 1254,-190 1246.46,-180.922 1089.58,-155.841 1018.02,-144.816"/>
<polygon fill="midnightblue" stroke="midnightblue" points="1018.53,-141.353 1008.11,-143.295 1017.47,-148.272 1018.53,-141.353"/>
</g>
<!-- Node30 -->
<g id="node30" class="node"><title>Node30</title>
<g id="a_node30"><a xlink:href="fault__tree__analysis_8h.xhtml" target="_top" xlink:title="Fault Tree Analysis. ">
<polygon fill="white" stroke="black" points="702.5,-324.5 702.5,-343.5 817.5,-343.5 817.5,-324.5 702.5,-324.5"/>
<text text-anchor="middle" x="760" y="-331.5" font-family="Helvetica,sans-Serif" font-size="10.00">fault_tree_analysis.h</text>
</a>
</g>
</g>
<!-- Node1&#45;&gt;Node30 -->
<g id="edge46" class="edge"><title>Node1&#45;&gt;Node30</title>
<path fill="none" stroke="midnightblue" d="M1005.73,-380.444C954.259,-370.925 871.107,-355.547 816.001,-345.356"/>
<polygon fill="midnightblue" stroke="midnightblue" points="816.522,-341.893 806.052,-343.516 815.249,-348.777 816.522,-341.893"/>
</g>
<!-- Node5 -->
<g id="node5" class="node"><title>Node5</title>
<polygon fill="white" stroke="#bfbfbf" points="588,-0.5 588,-19.5 640,-19.5 640,-0.5 588,-0.5"/>
<text text-anchor="middle" x="614" y="-7.5" font-family="Helvetica,sans-Serif" font-size="10.00">cassert</text>
</g>
<!-- Node4&#45;&gt;Node5 -->
<g id="edge4" class="edge"><title>Node4&#45;&gt;Node5</title>
<path fill="none" stroke="midnightblue" d="M147.74,-200.615C119.52,-195.321 80.1394,-182.914 61,-154 25.8142,-100.845 127.455,-58.4568 133,-56 219.455,-17.6946 463.126,-31.3814 557,-20 563.816,-19.1736 571.067,-18.1447 578.033,-17.081"/>
<polygon fill="midnightblue" stroke="midnightblue" points="578.616,-20.5323 587.949,-15.517 577.526,-13.6177 578.616,-20.5323"/>
</g>
<!-- Node6 -->
<g id="node6" class="node"><title>Node6</title>
<polygon fill="white" stroke="#bfbfbf" points="70,-129 70,-148 114,-148 114,-129 70,-129"/>
<text text-anchor="middle" x="92" y="-136" font-family="Helvetica,sans-Serif" font-size="10.00">string</text>
</g>
<!-- Node4&#45;&gt;Node6 -->
<g id="edge5" class="edge"><title>Node4&#45;&gt;Node6</title>
<path fill="none" stroke="midnightblue" d="M168.132,-195.734C153.75,-185.111 129.296,-167.049 111.988,-154.264"/>
<polygon fill="midnightblue" stroke="midnightblue" points="113.803,-151.253 103.68,-148.127 109.644,-156.884 113.803,-151.253"/>
</g>
<!-- Node7 -->
<g id="node7" class="node"><title>Node7</title>
<polygon fill="white" stroke="#bfbfbf" points="230,-62 230,-81 358,-81 358,-62 230,-62"/>
<text text-anchor="middle" x="294" y="-69" font-family="Helvetica,sans-Serif" font-size="10.00">boost/noncopyable.hpp</text>
</g>
<!-- Node4&#45;&gt;Node7 -->
<g id="edge6" class="edge"><title>Node4&#45;&gt;Node7</title>
<path fill="none" stroke="midnightblue" d="M186.107,-195.598C196.786,-180.242 219.831,-148.013 242,-123 252.933,-110.664 266.291,-97.7311 276.731,-88.0415"/>
<polygon fill="midnightblue" stroke="midnightblue" points="279.366,-90.3748 284.376,-81.0394 274.637,-85.2129 279.366,-90.3748"/>
</g>
<!-- Node8 -->
<g id="node8" class="node"><title>Node8</title>
<g id="a_node8"><a xlink:href="settings_8h.xhtml" target="_top" xlink:title="Builder for settings. ">
<polygon fill="white" stroke="black" points="610,-129 610,-148 674,-148 674,-129 610,-129"/>
<text text-anchor="middle" x="642" y="-136" font-family="Helvetica,sans-Serif" font-size="10.00">settings.h</text>
</a>
</g>
</g>
<!-- Node4&#45;&gt;Node8 -->
<g id="edge7" class="edge"><title>Node4&#45;&gt;Node8</title>
<path fill="none" stroke="midnightblue" d="M212.12,-199.981C293.595,-188.518 508.316,-158.308 599.775,-145.441"/>
<polygon fill="midnightblue" stroke="midnightblue" points="600.371,-148.891 609.786,-144.032 599.396,-141.96 600.371,-148.891"/>
</g>
<!-- Node9 -->
<g id="node9" class="node"><title>Node9</title>
<polygon fill="white" stroke="#bfbfbf" points="867.5,-62 867.5,-81 916.5,-81 916.5,-62 867.5,-62"/>
<text text-anchor="middle" x="892" y="-69" font-family="Helvetica,sans-Serif" font-size="10.00">cstdint</text>
</g>
<!-- Node8&#45;&gt;Node9 -->
<g id="edge8" class="edge"><title>Node8&#45;&gt;Node9</title>
<path fill="none" stroke="midnightblue" d="M674.137,-131.075C715.787,-122.46 790.48,-106.028 853,-87 855.568,-86.2185 858.212,-85.3584 860.856,-84.459"/>
<polygon fill="midnightblue" stroke="midnightblue" points="862.047,-87.7502 870.295,-81.0997 859.7,-81.1554 862.047,-87.7502"/>
</g>
<!-- Node10 -->
<g id="node10" class="node"><title>Node10</title>
<polygon fill="white" stroke="#bfbfbf" points="142.5,-62 142.5,-81 211.5,-81 211.5,-62 142.5,-62"/>
<text text-anchor="middle" x="177" y="-69" font-family="Helvetica,sans-Serif" font-size="10.00">string_view</text>
</g>
<!-- Node8&#45;&gt;Node10 -->
<g id="edge9" class="edge"><title>Node8&#45;&gt;Node10</title>
<path fill="none" stroke="midnightblue" d="M609.807,-134.476C524.731,-126.351 295.373,-103.542 221,-87 217.33,-86.1836 213.532,-85.1818 209.777,-84.0896"/>
<polygon fill="midnightblue" stroke="midnightblue" points="210.639,-80.6922 200.05,-81.0524 208.553,-87.374 210.639,-80.6922"/>
</g>
<!-- Node11&#45;&gt;Node2 -->
<g id="edge16" class="edge"><title>Node11&#45;&gt;Node2</title>
<path fill="none" stroke="midnightblue" d="M1300.72,-199.289C1287.25,-196.271 1269.7,-192.572 1254,-190 1119.3,-167.942 1079.77,-193.106 949,-154 919.483,-145.174 916.57,-131.645 887,-123 813.862,-101.619 603.512,-136.986 546,-87 529.832,-72.9481 526.367,-47.4196 526.093,-29.8549"/>
<polygon fill="midnightblue" stroke="midnightblue" points="529.596,-29.7234 526.273,-19.6631 522.597,-29.5998 529.596,-29.7234"/>
</g>
<!-- Node11&#45;&gt;Node3 -->
<g id="edge17" class="edge"><title>Node11&#45;&gt;Node3</title>
<path fill="none" stroke="midnightblue" d="M1345.12,-202.431C1384.89,-198.031 1470.35,-185.445 1535,-154 1554.91,-144.315 1555.59,-135.295 1574,-123 1601.46,-104.663 1622.23,-115.451 1639,-87 1645.99,-75.1299 1644.9,-68.4506 1639,-56 1632.87,-43.0681 1621.01,-32.6167 1609.86,-25.0528"/>
<polygon fill="midnightblue" stroke="midnightblue" points="1611.53,-21.9678 1601.2,-19.6136 1607.81,-27.8958 1611.53,-21.9678"/>
</g>
<!-- Node11&#45;&gt;Node7 -->
<g id="edge19" class="edge"><title>Node11&#45;&gt;Node7</title>
<path fill="none" stroke="midnightblue" d="M1300.75,-199.101C1287.29,-196.017 1269.74,-192.314 1254,-190 1066.89,-162.502 1013.88,-198.219 830,-154 794.532,-145.471 789.434,-131.672 754,-123 586.21,-81.9344 537.944,-111.86 367,-87 359.268,-85.8755 351.116,-84.4733 343.173,-82.9872"/>
<polygon fill="midnightblue" stroke="midnightblue" points="343.755,-79.5349 333.272,-81.0746 342.427,-86.4078 343.755,-79.5349"/>
</g>
<!-- Node11&#45;&gt;Node8 -->
<g id="edge45" class="edge"><title>Node11&#45;&gt;Node8</title>
<path fill="none" stroke="midnightblue" d="M1300.75,-199.072C1287.3,-195.976 1269.75,-192.273 1254,-190 1054.54,-161.219 1002.8,-171.095 802,-154 762.002,-150.595 716.406,-146.435 684.15,-143.446"/>
<polygon fill="midnightblue" stroke="midnightblue" points="684.45,-139.959 674.169,-142.519 683.803,-146.929 684.45,-139.959"/>
</g>
<!-- Node12 -->
<g id="node12" class="node"><title>Node12</title>
<polygon fill="white" stroke="#bfbfbf" points="1583.5,-129 1583.5,-148 1630.5,-148 1630.5,-129 1583.5,-129"/>
<text text-anchor="middle" x="1607" y="-136" font-family="Helvetica,sans-Serif" font-size="10.00">cmath</text>
</g>
<!-- Node11&#45;&gt;Node12 -->
<g id="edge11" class="edge"><title>Node11&#45;&gt;Node12</title>
<path fill="none" stroke="midnightblue" d="M1345.01,-201.212C1388.39,-194.461 1487.79,-177.659 1569,-154 1571.58,-153.248 1574.23,-152.399 1576.88,-151.499"/>
<polygon fill="midnightblue" stroke="midnightblue" points="1578.09,-154.785 1586.3,-148.094 1575.71,-148.202 1578.09,-154.785"/>
</g>
<!-- Node13 -->
<g id="node13" class="node"><title>Node13</title>
<polygon fill="white" stroke="#bfbfbf" points="1326,-0.5 1326,-19.5 1388,-19.5 1388,-0.5 1326,-0.5"/>
<text text-anchor="middle" x="1357" y="-7.5" font-family="Helvetica,sans-Serif" font-size="10.00">algorithm</text>
</g>
<!-- Node11&#45;&gt;Node13 -->
<g id="edge12" class="edge"><title>Node11&#45;&gt;Node13</title>
<path fill="none" stroke="midnightblue" d="M1345.33,-204.501C1410.96,-203.985 1600.96,-198.596 1639,-154 1667.26,-120.86 1667.27,-89.1363 1639,-56 1608.59,-20.348 1469.31,-12.8116 1398.54,-11.3082"/>
<polygon fill="midnightblue" stroke="midnightblue" points="1398.27,-7.80279 1388.2,-11.1214 1398.14,-14.8016 1398.27,-7.80279"/>
</g>
<!-- Node14 -->
<g id="node14" class="node"><title>Node14</title>
<polygon fill="white" stroke="#bfbfbf" points="1300.5,-129 1300.5,-148 1371.5,-148 1371.5,-129 1300.5,-129"/>
<text text-anchor="middle" x="1336" y="-136" font-family="Helvetica,sans-Serif" font-size="10.00">forward_list</text>
</g>
<!-- Node11&#45;&gt;Node14 -->
<g id="edge13" class="edge"><title>Node11&#45;&gt;Node14</title>
<path fill="none" stroke="midnightblue" d="M1324.75,-195.734C1326.66,-186.183 1329.78,-170.618 1332.24,-158.283"/>
<polygon fill="midnightblue" stroke="midnightblue" points="1335.75,-158.62 1334.27,-148.127 1328.88,-157.247 1335.75,-158.62"/>
</g>
<!-- Node15 -->
<g id="node15" class="node"><title>Node15</title>
<polygon fill="white" stroke="#bfbfbf" points="441.5,-62 441.5,-81 498.5,-81 498.5,-62 441.5,-62"/>
<text text-anchor="middle" x="470" y="-69" font-family="Helvetica,sans-Serif" font-size="10.00">memory</text>
</g>
<!-- Node11&#45;&gt;Node15 -->
<g id="edge14" class="edge"><title>Node11&#45;&gt;Node15</title>
<path fill="none" stroke="midnightblue" d="M1300.73,-199.224C1287.27,-196.183 1269.72,-192.482 1254,-190 1104.78,-166.436 1063.23,-187.858 916,-154 876.404,-144.894 869.564,-132.244 830,-123 691.924,-90.7398 651.403,-117.827 513,-87 509.511,-86.2228 505.907,-85.2656 502.34,-84.2166"/>
<polygon fill="midnightblue" stroke="midnightblue" points="503.097,-80.7848 492.507,-81.0904 500.977,-87.4558 503.097,-80.7848"/>
</g>
<!-- Node16 -->
<g id="node16" class="node"><title>Node16</title>
<polygon fill="white" stroke="#bfbfbf" points="1537.5,-62 1537.5,-81 1630.5,-81 1630.5,-62 1537.5,-62"/>
<text text-anchor="middle" x="1584" y="-69" font-family="Helvetica,sans-Serif" font-size="10.00">unordered_map</text>
</g>
<!-- Node11&#45;&gt;Node16 -->
<g id="edge15" class="edge"><title>Node11&#45;&gt;Node16</title>
<path fill="none" stroke="midnightblue" d="M1314.43,-195.916C1299.49,-179.91 1271.98,-145.133 1291,-123 1325.72,-82.6023 1475.81,-97.6906 1528,-87 1533.04,-85.9684 1538.3,-84.7695 1543.49,-83.5117"/>
<polygon fill="midnightblue" stroke="midnightblue" points="1544.47,-86.8739 1553.32,-81.0483 1542.77,-80.0838 1544.47,-86.8739"/>
</g>
<!-- Node17 -->
<g id="node17" class="node"><title>Node17</title>
<polygon fill="white" stroke="#bfbfbf" points="1103,-129 1103,-148 1243,-148 1243,-129 1103,-129"/>
<text text-anchor="middle" x="1173" y="-136" font-family="Helvetica,sans-Serif" font-size="10.00">boost/functional/hash.hpp</text>
</g>
<!-- Node11&#45;&gt;Node17 -->
<g id="edge18" class="edge"><title>Node11&#45;&gt;Node17</title>
<path fill="none" stroke="midnightblue" d="M1303.08,-195.869C1277.31,-184.699 1232.18,-165.147 1202.45,-152.26"/>
<polygon fill="midnightblue" stroke="midnightblue" points="1203.57,-148.932 1193,-148.167 1200.79,-155.355 1203.57,-148.932"/>
</g>
<!-- Node18 -->
<g id="node18" class="node"><title>Node18</title>
<polygon fill="white" stroke="#bfbfbf" points="1389.5,-123.5 1389.5,-153.5 1526.5,-153.5 1526.5,-123.5 1389.5,-123.5"/>
<text text-anchor="start" x="1397.5" y="-141.5" font-family="Helvetica,sans-Serif" font-size="10.00">boost/smart_ptr/intrusive</text>
<text text-anchor="middle" x="1458" y="-130.5" font-family="Helvetica,sans-Serif" font-size="10.00">_ptr.hpp</text>
</g>
<!-- Node11&#45;&gt;Node18 -->
<g id="edge20" class="edge"><title>Node11&#45;&gt;Node18</title>
<path fill="none" stroke="midnightblue" d="M1340.93,-195.869C1360.92,-186.242 1393.85,-170.388 1419.7,-157.942"/>
<polygon fill="midnightblue" stroke="midnightblue" points="1421.37,-161.02 1428.86,-153.528 1418.34,-154.713 1421.37,-161.02"/>
</g>
<!-- Node11&#45;&gt;Node19 -->
<g id="edge21" class="edge"><title>Node11&#45;&gt;Node19</title>
<path fill="none" stroke="midnightblue" d="M1303.84,-195.882C1298.47,-193.717 1292.58,-191.567 1287,-190 1236.78,-175.898 1086.7,-153.981 1018.01,-144.335"/>
<polygon fill="midnightblue" stroke="midnightblue" points="1018.49,-140.868 1008.1,-142.949 1017.52,-147.8 1018.49,-140.868"/>
</g>
<!-- Node19&#45;&gt;Node2 -->
<g id="edge29" class="edge"><title>Node19&#45;&gt;Node2</title>
<path fill="none" stroke="midnightblue" d="M962.205,-128.862C956.391,-126.697 950.015,-124.552 944,-123 839.558,-96.0618 802.91,-130.019 704,-87 683.695,-78.1689 684.501,-66.4872 665,-56 630.408,-37.3974 586.785,-24.7662 557.949,-17.7307"/>
<polygon fill="midnightblue" stroke="midnightblue" points="558.576,-14.2824 548.039,-15.3912 556.967,-21.0951 558.576,-14.2824"/>
</g>
<!-- Node19&#45;&gt;Node3 -->
<g id="edge30" class="edge"><title>Node19&#45;&gt;Node3</title>
<path fill="none" stroke="midnightblue" d="M1002.95,-128.994C1008.97,-126.723 1015.67,-124.489 1022,-123 1169.06,-88.407 1216.3,-133.607 1360,-87 1386.32,-78.4625 1388.4,-66.52 1414,-56 1459.55,-37.278 1515.2,-24.2828 1550.13,-17.2309"/>
<polygon fill="midnightblue" stroke="midnightblue" points="1551.14,-20.6 1560.27,-15.2334 1549.78,-13.7319 1551.14,-20.6"/>
</g>
<!-- Node19&#45;&gt;Node7 -->
<g id="edge32" class="edge"><title>Node19&#45;&gt;Node7</title>
<path fill="none" stroke="midnightblue" d="M957.833,-134.984C927.523,-131.983 875.058,-126.887 830,-123 624.365,-105.263 571.47,-115.155 367,-87 358.992,-85.8973 350.538,-84.4675 342.334,-82.9365"/>
<polygon fill="midnightblue" stroke="midnightblue" points="342.982,-79.4969 332.499,-81.0338 341.652,-86.3695 342.982,-79.4969"/>
</g>
<!-- Node19&#45;&gt;Node9 -->
<g id="edge22" class="edge"><title>Node19&#45;&gt;Node9</title>
<path fill="none" stroke="midnightblue" d="M970.727,-128.734C955.855,-118.111 930.568,-100.049 912.67,-87.2642"/>
<polygon fill="midnightblue" stroke="midnightblue" points="914.25,-84.0917 904.078,-81.1273 910.181,-89.7878 914.25,-84.0917"/>
</g>
<!-- Node19&#45;&gt;Node13 -->
<g id="edge24" class="edge"><title>Node19&#45;&gt;Node13</title>
<path fill="none" stroke="midnightblue" d="M1003.36,-128.874C1009.28,-126.655 1015.82,-124.479 1022,-123 1090.52,-106.603 1283.74,-133.119 1337,-87 1353.25,-72.9338 1357.07,-47.4086 1357.61,-29.8486"/>
<polygon fill="midnightblue" stroke="midnightblue" points="1361.11,-29.652 1357.59,-19.6599 1354.11,-29.6677 1361.11,-29.652"/>
</g>
<!-- Node19&#45;&gt;Node15 -->
<g id="edge26" class="edge"><title>Node19&#45;&gt;Node15</title>
<path fill="none" stroke="midnightblue" d="M957.887,-134.23C934.598,-131.222 898.973,-126.684 868,-123 725.005,-105.992 688.387,-108.51 546,-87 533.878,-85.1688 520.74,-82.8004 508.851,-80.5105"/>
<polygon fill="midnightblue" stroke="midnightblue" points="509.268,-77.0257 498.781,-78.5339 507.92,-83.8946 509.268,-77.0257"/>
</g>
<!-- Node19&#45;&gt;Node16 -->
<g id="edge28" class="edge"><title>Node19&#45;&gt;Node16</title>
<path fill="none" stroke="midnightblue" d="M1002.91,-128.854C1008.94,-126.579 1015.65,-124.377 1022,-123 1242.34,-75.2314 1305.5,-123.408 1528,-87 1533.57,-86.0878 1539.4,-84.8763 1545.11,-83.5413"/>
<polygon fill="midnightblue" stroke="midnightblue" points="1546.29,-86.8533 1555.15,-81.0425 1544.6,-80.0604 1546.29,-86.8533"/>
</g>
<!-- Node20 -->
<g id="node20" class="node"><title>Node20</title>
<polygon fill="white" stroke="#bfbfbf" points="376.5,-62 376.5,-81 423.5,-81 423.5,-62 376.5,-62"/>
<text text-anchor="middle" x="400" y="-69" font-family="Helvetica,sans-Serif" font-size="10.00">cstdlib</text>
</g>
<!-- Node19&#45;&gt;Node20 -->
<g id="edge23" class="edge"><title>Node19&#45;&gt;Node20</title>
<path fill="none" stroke="midnightblue" d="M957.825,-135.081C927.506,-132.175 875.032,-127.171 830,-123 653.146,-106.621 603.74,-132.287 432,-87 429.844,-86.4314 427.651,-85.7294 425.475,-84.9438"/>
<polygon fill="midnightblue" stroke="midnightblue" points="426.799,-81.7038 416.22,-81.1181 424.125,-88.1729 426.799,-81.7038"/>
</g>
<!-- Node21 -->
<g id="node21" class="node"><title>Node21</title>
<polygon fill="white" stroke="#bfbfbf" points="935,-62 935,-81 981,-81 981,-62 935,-62"/>
<text text-anchor="middle" x="958" y="-69" font-family="Helvetica,sans-Serif" font-size="10.00">iosfwd</text>
</g>
<!-- Node19&#45;&gt;Node21 -->
<g id="edge25" class="edge"><title>Node19&#45;&gt;Node21</title>
<path fill="none" stroke="midnightblue" d="M979.628,-128.734C975.88,-118.988 969.723,-102.981 964.935,-90.5318"/>
<polygon fill="midnightblue" stroke="midnightblue" points="968.175,-89.2043 961.318,-81.1273 961.641,-91.7172 968.175,-89.2043"/>
</g>
<!-- Node22 -->
<g id="node22" class="node"><title>Node22</title>
<polygon fill="white" stroke="#bfbfbf" points="999,-62 999,-81 1067,-81 1067,-62 999,-62"/>
<text text-anchor="middle" x="1033" y="-69" font-family="Helvetica,sans-Serif" font-size="10.00">type_traits</text>
</g>
<!-- Node19&#45;&gt;Node22 -->
<g id="edge27" class="edge"><title>Node19&#45;&gt;Node22</title>
<path fill="none" stroke="midnightblue" d="M989.743,-128.734C997.54,-118.598 1010.55,-101.69 1020.26,-89.0556"/>
<polygon fill="midnightblue" stroke="midnightblue" points="1023.04,-91.1876 1026.36,-81.1273 1017.49,-86.9196 1023.04,-91.1876"/>
</g>
<!-- Node23 -->
<g id="node23" class="node"><title>Node23</title>
<polygon fill="white" stroke="#bfbfbf" points="1085,-56.5 1085,-86.5 1195,-86.5 1195,-56.5 1085,-56.5"/>
<text text-anchor="start" x="1093" y="-74.5" font-family="Helvetica,sans-Serif" font-size="10.00">boost/container/flat</text>
<text text-anchor="middle" x="1140" y="-63.5" font-family="Helvetica,sans-Serif" font-size="10.00">_set.hpp</text>
</g>
<!-- Node19&#45;&gt;Node23 -->
<g id="edge31" class="edge"><title>Node19&#45;&gt;Node23</title>
<path fill="none" stroke="midnightblue" d="M1003.85,-128.869C1027.41,-119.115 1066.4,-102.97 1096.64,-90.452"/>
<polygon fill="midnightblue" stroke="midnightblue" points="1098.22,-93.5872 1106.12,-86.5281 1095.54,-87.1196 1098.22,-93.5872"/>
</g>
<!-- Node24 -->
<g id="node24" class="node"><title>Node24</title>
<polygon fill="white" stroke="#bfbfbf" points="1213.5,-56.5 1213.5,-86.5 1328.5,-86.5 1328.5,-56.5 1213.5,-56.5"/>
<text text-anchor="start" x="1221.5" y="-74.5" font-family="Helvetica,sans-Serif" font-size="10.00">boost/range/adaptor</text>
<text text-anchor="middle" x="1271" y="-63.5" font-family="Helvetica,sans-Serif" font-size="10.00">/transformed.hpp</text>
</g>
<!-- Node19&#45;&gt;Node24 -->
<g id="edge33" class="edge"><title>Node19&#45;&gt;Node24</title>
<path fill="none" stroke="midnightblue" d="M1004.25,-128.895C1009.96,-126.78 1016.16,-124.651 1022,-123 1098.24,-101.437 1121.46,-103.513 1203.03,-87.1517"/>
<polygon fill="midnightblue" stroke="midnightblue" points="1204.17,-90.4902 1213.27,-85.0622 1202.77,-83.6314 1204.17,-90.4902"/>
</g>
<!-- Node25 -->
<g id="node25" class="node"><title>Node25</title>
<g id="a_node25"><a xlink:href="find__iterator_8h.xhtml" target="_top" xlink:title="Convenience iterator adaptor to wrap find calls and results. ">
<polygon fill="white" stroke="black" points="555.5,-62 555.5,-81 656.5,-81 656.5,-62 555.5,-62"/>
<text text-anchor="middle" x="606" y="-69" font-family="Helvetica,sans-Serif" font-size="10.00">ext/find_iterator.h</text>
</a>
</g>
</g>
<!-- Node19&#45;&gt;Node25 -->
<g id="edge34" class="edge"><title>Node19&#45;&gt;Node25</title>
<path fill="none" stroke="midnightblue" d="M962.628,-128.943C956.706,-126.725 950.169,-124.533 944,-123 825.228,-93.4891 791.508,-108.344 671,-87 664.724,-85.8884 658.137,-84.5832 651.664,-83.2194"/>
<polygon fill="midnightblue" stroke="midnightblue" points="652.161,-79.7459 641.647,-81.0472 650.678,-86.587 652.161,-79.7459"/>
</g>
<!-- Node26 -->
<g id="node26" class="node"><title>Node26</title>
<g id="a_node26"><a xlink:href="index__map_8h.xhtml" target="_top" xlink:title="Non&#45;zero based Index&#45;&gt;Value map adapter on sequential containers. ">
<polygon fill="white" stroke="black" points="1423,-62 1423,-81 1519,-81 1519,-62 1423,-62"/>
<text text-anchor="middle" x="1471" y="-69" font-family="Helvetica,sans-Serif" font-size="10.00">ext/index_map.h</text>
</a>
</g>
</g>
<!-- Node19&#45;&gt;Node26 -->
<g id="edge36" class="edge"><title>Node19&#45;&gt;Node26</title>
<path fill="none" stroke="midnightblue" d="M1002.93,-128.941C1008.96,-126.668 1015.66,-124.446 1022,-123 1190.41,-84.5683 1238.5,-114.734 1409,-87 1415.3,-85.9751 1421.91,-84.6747 1428.38,-83.2752"/>
<polygon fill="midnightblue" stroke="midnightblue" points="1429.37,-86.6404 1438.35,-81.02 1427.82,-79.8129 1429.37,-86.6404"/>
</g>
<!-- Node27 -->
<g id="node27" class="node"><title>Node27</title>
<g id="a_node27"><a xlink:href="linear__map_8h.xhtml" target="_top" xlink:title="Implementation of a vector&#45;based map for a small number of entries. ">
<polygon fill="white" stroke="black" points="713.5,-62 713.5,-81 810.5,-81 810.5,-62 713.5,-62"/>
<text text-anchor="middle" x="762" y="-69" font-family="Helvetica,sans-Serif" font-size="10.00">ext/linear_map.h</text>
</a>
</g>
</g>
<!-- Node19&#45;&gt;Node27 -->
<g id="edge38" class="edge"><title>Node19&#45;&gt;Node27</title>
<path fill="none" stroke="midnightblue" d="M960.841,-128.889C955.368,-126.865 949.498,-124.781 944,-123 897.38,-107.896 843.165,-93.2162 806.112,-83.613"/>
<polygon fill="midnightblue" stroke="midnightblue" points="806.694,-80.1486 796.137,-81.0429 804.947,-86.9272 806.694,-80.1486"/>
</g>
<!-- Node25&#45;&gt;Node2 -->
<g id="edge35" class="edge"><title>Node25&#45;&gt;Node2</title>
<path fill="none" stroke="midnightblue" d="M594.681,-61.9751C582.127,-52.5199 561.649,-37.0961 546.501,-25.6871"/>
<polygon fill="midnightblue" stroke="midnightblue" points="548.391,-22.7295 538.298,-19.5091 544.18,-28.321 548.391,-22.7295"/>
</g>
<!-- Node26&#45;&gt;Node3 -->
<g id="edge37" class="edge"><title>Node26&#45;&gt;Node3</title>
<path fill="none" stroke="midnightblue" d="M1487.19,-61.9751C1505.9,-52.1222 1536.92,-35.7883 1558.8,-24.2697"/>
<polygon fill="midnightblue" stroke="midnightblue" points="1560.62,-27.2651 1567.84,-19.5091 1557.36,-21.0713 1560.62,-27.2651"/>
</g>
<!-- Node27&#45;&gt;Node2 -->
<g id="edge43" class="edge"><title>Node27&#45;&gt;Node2</title>
<path fill="none" stroke="midnightblue" d="M728.33,-61.9751C682.743,-50.4327 602.026,-29.996 557.91,-18.8261"/>
<polygon fill="midnightblue" stroke="midnightblue" points="558.595,-15.3893 548.042,-16.3277 556.877,-22.1751 558.595,-15.3893"/>
</g>
<!-- Node27&#45;&gt;Node3 -->
<g id="edge44" class="edge"><title>Node27&#45;&gt;Node3</title>
<path fill="none" stroke="midnightblue" d="M794.503,-61.9286C804.247,-59.6554 815.002,-57.4367 825,-56 897.274,-45.6145 1411.59,-19.5663 1549.85,-12.6876"/>
<polygon fill="midnightblue" stroke="midnightblue" points="1550.43,-16.1634 1560.24,-12.1716 1550.08,-9.17202 1550.43,-16.1634"/>
</g>
<!-- Node27&#45;&gt;Node5 -->
<g id="edge39" class="edge"><title>Node27&#45;&gt;Node5</title>
<path fill="none" stroke="midnightblue" d="M740.795,-61.9751C715.628,-51.8571 673.46,-34.9046 644.721,-23.3507"/>
<polygon fill="midnightblue" stroke="midnightblue" points="645.749,-19.9919 635.165,-19.5091 643.138,-26.4867 645.749,-19.9919"/>
</g>
<!-- Node27&#45;&gt;Node13 -->
<g id="edge40" class="edge"><title>Node27&#45;&gt;Node13</title>
<path fill="none" stroke="midnightblue" d="M795.178,-61.936C804.749,-59.7185 815.242,-57.5277 825,-56 1006.68,-27.5555 1226.28,-16.1721 1315.91,-12.4894"/>
<polygon fill="midnightblue" stroke="midnightblue" points="1316.08,-15.9854 1325.93,-12.0876 1315.8,-8.99098 1316.08,-15.9854"/>
</g>
<!-- Node28 -->
<g id="node28" class="node"><title>Node28</title>
<polygon fill="white" stroke="#bfbfbf" points="680.5,-0.5 680.5,-19.5 757.5,-19.5 757.5,-0.5 680.5,-0.5"/>
<text text-anchor="middle" x="719" y="-7.5" font-family="Helvetica,sans-Serif" font-size="10.00">initializer_list</text>
</g>
<!-- Node27&#45;&gt;Node28 -->
<g id="edge41" class="edge"><title>Node27&#45;&gt;Node28</title>
<path fill="none" stroke="midnightblue" d="M755.839,-61.9751C749.389,-53.0501 739.096,-38.8071 731.027,-27.6425"/>
<polygon fill="midnightblue" stroke="midnightblue" points="733.844,-25.564 725.149,-19.5091 728.17,-29.6642 733.844,-25.564"/>
</g>
<!-- Node29 -->
<g id="node29" class="node"><title>Node29</title>
<polygon fill="white" stroke="#bfbfbf" points="776,-0.5 776,-19.5 840,-19.5 840,-0.5 776,-0.5"/>
<text text-anchor="middle" x="808" y="-7.5" font-family="Helvetica,sans-Serif" font-size="10.00">stdexcept</text>
</g>
<!-- Node27&#45;&gt;Node29 -->
<g id="edge42" class="edge"><title>Node27&#45;&gt;Node29</title>
<path fill="none" stroke="midnightblue" d="M768.591,-61.9751C775.491,-53.0501 786.502,-38.8071 795.134,-27.6425"/>
<polygon fill="midnightblue" stroke="midnightblue" points="798.074,-29.5612 801.422,-19.5091 792.536,-25.2798 798.074,-29.5612"/>
</g>
<!-- Node30&#45;&gt;Node3 -->
<g id="edge50" class="edge"><title>Node30&#45;&gt;Node3</title>
<path fill="none" stroke="midnightblue" d="M817.732,-328.682C980.954,-315.919 1443.05,-275.81 1584,-221 1632.83,-202.01 1656.66,-200.398 1681,-154 1687.4,-141.799 1681.51,-136.768 1681,-123 1679.89,-93.1601 1692.74,-80.7259 1676,-56 1662.55,-36.1354 1637.72,-24.71 1617.25,-18.346"/>
<polygon fill="midnightblue" stroke="midnightblue" points="1618.19,-14.9752 1607.61,-15.6136 1616.28,-21.7095 1618.19,-14.9752"/>
</g>
<!-- Node30&#45;&gt;Node4 -->
<g id="edge53" class="edge"><title>Node30&#45;&gt;Node4</title>
<path fill="none" stroke="midnightblue" d="M702.1,-333.77C583.974,-334.416 319.779,-330.851 242,-288 216.13,-273.747 197.725,-243.668 187.992,-224.307"/>
<polygon fill="midnightblue" stroke="midnightblue" points="191.049,-222.587 183.591,-215.061 184.729,-225.595 191.049,-222.587"/>
</g>
<!-- Node30&#45;&gt;Node8 -->
<g id="edge64" class="edge"><title>Node30&#45;&gt;Node8</title>
<path fill="none" stroke="midnightblue" d="M738.152,-324.353C722.114,-316.953 700.952,-304.817 688,-288 657.479,-248.372 647.041,-188.296 643.604,-158.145"/>
<polygon fill="midnightblue" stroke="midnightblue" points="647.083,-157.76 642.602,-148.159 640.118,-158.459 647.083,-157.76"/>
</g>
<!-- Node30&#45;&gt;Node15 -->
<g id="edge48" class="edge"><title>Node30&#45;&gt;Node15</title>
<path fill="none" stroke="midnightblue" d="M759.612,-324.192C757.692,-291.9 746.51,-178.97 683,-123 629.292,-75.6677 595.547,-103.974 526,-87 520.312,-85.6118 514.311,-84.104 508.434,-82.6029"/>
<polygon fill="midnightblue" stroke="midnightblue" points="509.295,-79.2104 498.738,-80.1055 507.549,-85.9892 509.295,-79.2104"/>
</g>
<!-- Node30&#45;&gt;Node19 -->
<g id="edge54" class="edge"><title>Node30&#45;&gt;Node19</title>
<path fill="none" stroke="midnightblue" d="M765.913,-324.278C782.499,-300.313 831.809,-232.429 886,-190 906.169,-174.208 932.022,-161.035 951.966,-152.106"/>
<polygon fill="midnightblue" stroke="midnightblue" points="953.46,-155.273 961.23,-148.071 950.664,-148.856 953.46,-155.273"/>
</g>
<!-- Node30&#45;&gt;Node20 -->
<g id="edge47" class="edge"><title>Node30&#45;&gt;Node20</title>
<path fill="none" stroke="midnightblue" d="M702.435,-332.859C594.266,-329.003 363.594,-302.854 275,-154 267.953,-142.161 267.233,-134.38 275,-123 299.753,-86.7341 326.448,-103.835 367,-87 368.409,-86.4152 369.848,-85.8102 371.3,-85.1943"/>
<polygon fill="midnightblue" stroke="midnightblue" points="373.068,-88.2437 380.862,-81.0676 370.294,-81.8167 373.068,-88.2437"/>
</g>
<!-- Node31 -->
<g id="node31" class="node"><title>Node31</title>
<polygon fill="white" stroke="#bfbfbf" points="550,-263 550,-282 636,-282 636,-263 550,-263"/>
<text text-anchor="middle" x="593" y="-270" font-family="Helvetica,sans-Serif" font-size="10.00">unordered_set</text>
</g>
<!-- Node30&#45;&gt;Node31 -->
<g id="edge49" class="edge"><title>Node30&#45;&gt;Node31</title>
<path fill="none" stroke="midnightblue" d="M736.073,-324.475C707.303,-314.225 658.844,-296.959 626.398,-285.399"/>
<polygon fill="midnightblue" stroke="midnightblue" points="627.477,-282.068 616.883,-282.009 625.128,-288.662 627.477,-282.068"/>
</g>
<!-- Node32 -->
<g id="node32" class="node"><title>Node32</title>
<polygon fill="white" stroke="#bfbfbf" points="1125,-190.5 1125,-220.5 1245,-220.5 1245,-190.5 1125,-190.5"/>
<text text-anchor="start" x="1133" y="-208.5" font-family="Helvetica,sans-Serif" font-size="10.00">boost/iterator/iterator</text>
<text text-anchor="middle" x="1185" y="-197.5" font-family="Helvetica,sans-Serif" font-size="10.00">_facade.hpp</text>
</g>
<!-- Node30&#45;&gt;Node32 -->
<g id="edge51" class="edge"><title>Node30&#45;&gt;Node32</title>
<path fill="none" stroke="midnightblue" d="M817.513,-331.023C878.052,-327.391 975.3,-317.104 1054,-288 1093.72,-273.309 1134.36,-245.673 1159.62,-226.688"/>
<polygon fill="midnightblue" stroke="midnightblue" points="1161.75,-229.464 1167.57,-220.612 1157.5,-223.901 1161.75,-229.464"/>
</g>
<!-- Node33 -->
<g id="node33" class="node"><title>Node33</title>
<polygon fill="white" stroke="#bfbfbf" points="846,-257.5 846,-287.5 978,-287.5 978,-257.5 846,-257.5"/>
<text text-anchor="start" x="854" y="-275.5" font-family="Helvetica,sans-Serif" font-size="10.00">boost/iterator/transform</text>
<text text-anchor="middle" x="912" y="-264.5" font-family="Helvetica,sans-Serif" font-size="10.00">_iterator.hpp</text>
</g>
<!-- Node30&#45;&gt;Node33 -->
<g id="edge52" class="edge"><title>Node30&#45;&gt;Node33</title>
<path fill="none" stroke="midnightblue" d="M781.778,-324.475C803.807,-315.852 838.518,-302.264 866.566,-291.285"/>
<polygon fill="midnightblue" stroke="midnightblue" points="868.14,-294.427 876.177,-287.523 865.589,-287.909 868.14,-294.427"/>
</g>
<!-- Node34 -->
<g id="node34" class="node"><title>Node34</title>
<g id="a_node34"><a xlink:href="preprocessor_8h.xhtml" target="_top" xlink:title="A collection of PDAG transformation/preprocessing algorithms that simplify fault trees for analysis...">
<polygon fill="white" stroke="black" points="478,-196 478,-215 566,-215 566,-196 478,-196"/>
<text text-anchor="middle" x="522" y="-203" font-family="Helvetica,sans-Serif" font-size="10.00">preprocessor.h</text>
</a>
</g>
</g>
<!-- Node30&#45;&gt;Node34 -->
<g id="edge55" class="edge"><title>Node30&#45;&gt;Node34</title>
<path fill="none" stroke="midnightblue" d="M702.476,-328.155C645.492,-322.168 563.558,-309.97 541,-288 524.279,-271.714 521.062,-243.772 520.985,-225.217"/>
<polygon fill="midnightblue" stroke="midnightblue" points="524.488,-225.153 521.251,-215.065 517.49,-224.97 524.488,-225.153"/>
</g>
<!-- Node37 -->
<g id="node37" class="node"><title>Node37</title>
<g id="a_node37"><a xlink:href="zbdd_8h.xhtml" target="_top" xlink:title="Zero&#45;Suppressed Binary Decision Diagram facilities. ">
<polygon fill="white" stroke="black" points="996.5,-263 996.5,-282 1045.5,-282 1045.5,-263 996.5,-263"/>
<text text-anchor="middle" x="1021" y="-270" font-family="Helvetica,sans-Serif" font-size="10.00">zbdd.h</text>
</a>
</g>
</g>
<!-- Node30&#45;&gt;Node37 -->
<g id="edge65" class="edge"><title>Node30&#45;&gt;Node37</title>
<path fill="none" stroke="midnightblue" d="M817.722,-324.947C864.096,-317.672 930.568,-305.42 987,-288 989.142,-287.339 991.333,-286.588 993.519,-285.784"/>
<polygon fill="midnightblue" stroke="midnightblue" points="994.919,-288.994 1002.91,-282.037 992.324,-282.493 994.919,-288.994"/>
</g>
<!-- Node34&#45;&gt;Node2 -->
<g id="edge59" class="edge"><title>Node34&#45;&gt;Node2</title>
<path fill="none" stroke="midnightblue" d="M477.894,-198.737C427.832,-191.452 344.147,-177.012 275,-154 202.242,-129.786 81.9468,-113.216 133,-56 157.088,-29.0042 407.264,-16.0014 495.999,-12.2132"/>
<polygon fill="midnightblue" stroke="midnightblue" points="496.148,-15.7101 505.994,-11.7966 495.857,-8.7162 496.148,-15.7101"/>
</g>
<!-- Node34&#45;&gt;Node3 -->
<g id="edge60" class="edge"><title>Node34&#45;&gt;Node3</title>
<path fill="none" stroke="midnightblue" d="M527.52,-195.859C538.94,-178.781 566.958,-140.823 601,-123 687.999,-77.4511 729.239,-126.83 819,-87 839.239,-78.0192 837.33,-63.9399 858,-56 874.372,-49.7109 1409.32,-20.4348 1550.25,-12.8162"/>
<polygon fill="midnightblue" stroke="midnightblue" points="1550.65,-16.2998 1560.45,-12.2656 1550.27,-9.31001 1550.65,-16.2998"/>
</g>
<!-- Node34&#45;&gt;Node7 -->
<g id="edge61" class="edge"><title>Node34&#45;&gt;Node7</title>
<path fill="none" stroke="midnightblue" d="M520.82,-195.903C518.068,-179.242 509.645,-142.485 487,-123 476.055,-113.582 397.48,-95.0068 344.024,-83.1997"/>
<polygon fill="midnightblue" stroke="midnightblue" points="344.545,-79.7306 334.027,-81.0054 343.044,-86.5679 344.545,-79.7306"/>
</g>
<!-- Node34&#45;&gt;Node15 -->
<g id="edge56" class="edge"><title>Node34&#45;&gt;Node15</title>
<path fill="none" stroke="midnightblue" d="M523.77,-195.976C526.533,-180.652 530.534,-147.743 520,-123 513.975,-108.847 501.96,-96.5025 491.218,-87.561"/>
<polygon fill="midnightblue" stroke="midnightblue" points="493.049,-84.5503 483.015,-81.1503 488.739,-90.0658 493.049,-84.5503"/>
</g>
<!-- Node34&#45;&gt;Node16 -->
<g id="edge58" class="edge"><title>Node34&#45;&gt;Node16</title>
<path fill="none" stroke="midnightblue" d="M566.326,-202.908C671.807,-198.651 935.039,-185.146 1017,-154 1039.02,-145.631 1037.87,-131.094 1060,-123 1255.92,-51.3287 1322.22,-121.279 1528,-87 1533.57,-86.0717 1539.4,-84.8514 1545.1,-83.512"/>
<polygon fill="midnightblue" stroke="midnightblue" points="1546.29,-86.8237 1555.14,-81.0102 1544.59,-80.0312 1546.29,-86.8237"/>
</g>
<!-- Node34&#45;&gt;Node19 -->
<g id="edge63" class="edge"><title>Node34&#45;&gt;Node19</title>
<path fill="none" stroke="midnightblue" d="M566.203,-198.268C657.512,-185.393 865.319,-156.093 948.062,-144.426"/>
<polygon fill="midnightblue" stroke="midnightblue" points="948.56,-147.891 957.973,-143.029 947.582,-140.959 948.56,-147.891"/>
</g>
<!-- Node35 -->
<g id="node35" class="node"><title>Node35</title>
<polygon fill="white" stroke="#bfbfbf" points="284,-129 284,-148 316,-148 316,-129 284,-129"/>
<text text-anchor="middle" x="300" y="-136" font-family="Helvetica,sans-Serif" font-size="10.00">set</text>
</g>
<!-- Node34&#45;&gt;Node35 -->
<g id="edge57" class="edge"><title>Node34&#45;&gt;Node35</title>
<path fill="none" stroke="midnightblue" d="M477.857,-196.795C437.187,-188.861 375.653,-174.718 325,-154 324.126,-153.643 323.246,-153.26 322.365,-152.856"/>
<polygon fill="midnightblue" stroke="midnightblue" points="323.63,-149.568 313.148,-148.029 320.383,-155.769 323.63,-149.568"/>
</g>
<!-- Node36 -->
<g id="node36" class="node"><title>Node36</title>
<polygon fill="white" stroke="#bfbfbf" points="334,-129 334,-148 478,-148 478,-129 334,-129"/>
<text text-anchor="middle" x="406" y="-136" font-family="Helvetica,sans-Serif" font-size="10.00">boost/unordered_map.hpp</text>
</g>
<!-- Node34&#45;&gt;Node36 -->
<g id="edge62" class="edge"><title>Node34&#45;&gt;Node36</title>
<path fill="none" stroke="midnightblue" d="M506.356,-195.734C486.789,-184.769 453.08,-165.881 430.181,-153.049"/>
<polygon fill="midnightblue" stroke="midnightblue" points="431.831,-149.962 421.396,-148.127 428.409,-156.069 431.831,-149.962"/>
</g>
<!-- Node37&#45;&gt;Node2 -->
<g id="edge71" class="edge"><title>Node37&#45;&gt;Node2</title>
<path fill="none" stroke="midnightblue" d="M1004.08,-262.973C998.745,-260.643 992.74,-258.382 987,-257 630.752,-171.234 478.429,-350.27 169,-154 137.169,-133.81 129.215,-122.66 117,-87 112.535,-73.9657 107.804,-66.2601 117,-56 142.227,-27.8523 404.739,-15.5244 495.967,-12.0682"/>
<polygon fill="midnightblue" stroke="midnightblue" points="496.108,-15.5654 505.972,-11.6989 495.85,-8.5702 496.108,-15.5654"/>
</g>
<!-- Node37&#45;&gt;Node3 -->
<g id="edge72" class="edge"><title>Node37&#45;&gt;Node3</title>
<path fill="none" stroke="midnightblue" d="M1045.57,-271.065C1153.48,-268.587 1583.51,-252.568 1663,-154 1674.19,-140.127 1669.55,-77.6961 1656,-56 1646.91,-41.4354 1631.18,-30.8082 1616.74,-23.5508"/>
<polygon fill="midnightblue" stroke="midnightblue" points="1618.07,-20.3061 1607.52,-19.2607 1615.11,-26.6527 1618.07,-20.3061"/>
</g>
<!-- Node37&#45;&gt;Node7 -->
<g id="edge75" class="edge"><title>Node37&#45;&gt;Node7</title>
<path fill="none" stroke="midnightblue" d="M1002.53,-262.901C997.554,-260.786 992.13,-258.656 987,-257 917.635,-234.611 893.864,-250.016 827,-221 755.984,-190.182 755.575,-149.945 683,-123 550.485,-73.8014 506.664,-108.788 367,-87 359.543,-85.8367 351.689,-84.4495 344.008,-83.0011"/>
<polygon fill="midnightblue" stroke="midnightblue" points="344.539,-79.539 334.056,-81.0754 343.209,-86.4115 344.539,-79.539"/>
</g>
<!-- Node37&#45;&gt;Node9 -->
<g id="edge66" class="edge"><title>Node37&#45;&gt;Node9</title>
<path fill="none" stroke="midnightblue" d="M1001.31,-262.862C996.639,-260.881 991.662,-258.823 987,-257 942.617,-239.645 913.464,-259.945 886,-221 858.321,-181.749 874.066,-121.067 884.72,-90.8713"/>
<polygon fill="midnightblue" stroke="midnightblue" points="888.104,-91.8145 888.325,-81.2219 881.546,-89.3646 888.104,-91.8145"/>
</g>
<!-- Node37&#45;&gt;Node11 -->
<g id="edge76" class="edge"><title>Node37&#45;&gt;Node11</title>
<path fill="none" stroke="midnightblue" d="M1045.71,-266.181C1100.18,-254.458 1230.51,-226.408 1291.06,-213.374"/>
<polygon fill="midnightblue" stroke="midnightblue" points="1291.81,-216.794 1300.84,-211.268 1290.33,-209.951 1291.81,-216.794"/>
</g>
<!-- Node37&#45;&gt;Node15 -->
<g id="edge69" class="edge"><title>Node37&#45;&gt;Node15</title>
<path fill="none" stroke="midnightblue" d="M1001.72,-262.865C996.949,-260.842 991.821,-258.764 987,-257 935.908,-238.303 917.746,-247.083 870,-221 810.771,-188.644 815.49,-150.821 754,-123 655.33,-78.3575 618.278,-112.402 513,-87 509.604,-86.1806 506.094,-85.21 502.612,-84.1651"/>
<polygon fill="midnightblue" stroke="midnightblue" points="503.58,-80.8001 492.989,-81.0879 501.448,-87.4675 503.58,-80.8001"/>
</g>
<!-- Node37&#45;&gt;Node16 -->
<g id="edge70" class="edge"><title>Node37&#45;&gt;Node16</title>
<path fill="none" stroke="midnightblue" d="M1022.27,-262.888C1026.64,-236.632 1043.68,-157.305 1094,-123 1173.96,-68.4896 1432.59,-103.188 1528,-87 1533.51,-86.0656 1539.27,-84.8526 1544.91,-83.5263"/>
<polygon fill="midnightblue" stroke="midnightblue" points="1545.99,-86.8632 1554.85,-81.0522 1544.3,-80.0703 1545.99,-86.8632"/>
</g>
<!-- Node37&#45;&gt;Node17 -->
<g id="edge73" class="edge"><title>Node37&#45;&gt;Node17</title>
<path fill="none" stroke="midnightblue" d="M1030.97,-262.839C1056.32,-240.831 1123.44,-182.536 1155.49,-154.705"/>
<polygon fill="midnightblue" stroke="midnightblue" points="1157.93,-157.221 1163.19,-148.021 1153.34,-151.935 1157.93,-157.221"/>
</g>
<!-- Node37&#45;&gt;Node19 -->
<g id="edge77" class="edge"><title>Node37&#45;&gt;Node19</title>
<path fill="none" stroke="midnightblue" d="M1019.37,-262.837C1016.46,-247.84 1009.93,-216.138 1002,-190 998.721,-179.188 994.315,-167.355 990.571,-157.862"/>
<polygon fill="midnightblue" stroke="midnightblue" points="993.708,-156.283 986.721,-148.319 987.216,-158.902 993.708,-156.283"/>
</g>
<!-- Node37&#45;&gt;Node32 -->
<g id="edge74" class="edge"><title>Node37&#45;&gt;Node32</title>
<path fill="none" stroke="midnightblue" d="M1042.78,-262.869C1067.49,-253.073 1108.48,-236.83 1140.12,-224.29"/>
<polygon fill="midnightblue" stroke="midnightblue" points="1141.6,-227.466 1149.61,-220.528 1139.02,-220.959 1141.6,-227.466"/>
</g>
<!-- Node38 -->
<g id="node38" class="node"><title>Node38</title>
<polygon fill="white" stroke="#bfbfbf" points="895.5,-196 895.5,-215 936.5,-215 936.5,-196 895.5,-196"/>
<text text-anchor="middle" x="916" y="-203" font-family="Helvetica,sans-Serif" font-size="10.00">array</text>
</g>
<!-- Node37&#45;&gt;Node38 -->
<g id="edge67" class="edge"><title>Node37&#45;&gt;Node38</title>
<path fill="none" stroke="midnightblue" d="M1006.84,-262.734C989.285,-251.867 959.157,-233.216 938.443,-220.393"/>
<polygon fill="midnightblue" stroke="midnightblue" points="940.281,-217.415 929.936,-215.127 936.597,-223.367 940.281,-217.415"/>
</g>
<!-- Node39 -->
<g id="node39" class="node"><title>Node39</title>
<polygon fill="white" stroke="#bfbfbf" points="955,-196 955,-215 993,-215 993,-196 955,-196"/>
<text text-anchor="middle" x="974" y="-203" font-family="Helvetica,sans-Serif" font-size="10.00">map</text>
</g>
<!-- Node37&#45;&gt;Node39 -->
<g id="edge68" class="edge"><title>Node37&#45;&gt;Node39</title>
<path fill="none" stroke="midnightblue" d="M1014.66,-262.734C1007.4,-252.695 995.341,-236.014 986.235,-223.421"/>
<polygon fill="midnightblue" stroke="midnightblue" points="988.934,-221.18 980.238,-215.127 983.261,-225.282 988.934,-221.18"/>
</g>
</g>
</svg>
