<?xml version="1.0" encoding="UTF-8" standalone="no"?>
<!DOCTYPE svg PUBLIC "-//W3C//DTD SVG 1.1//EN"
 "http://www.w3.org/Graphics/SVG/1.1/DTD/svg11.dtd">
<!-- Generated by graphviz version 2.38.0 (20140413.2041)
 -->
<!-- Title: random_deviate.cc Pages: 1 -->
<!--zoomable 229 -->
<svg id="main" version="1.1" xmlns="http://www.w3.org/2000/svg" xmlns:xlink="http://www.w3.org/1999/xlink" xml:space="preserve" onload="init(evt)">
<style type="text/css"><![CDATA[
.edge:hover path { stroke: red; }
.edge:hover polygon { stroke: red; fill: red; }
]]></style>
<script type="text/javascript"><![CDATA[
var edges = document.getElementsByTagName('g');
if (edges && edges.length) {
  for (var i=0;i<edges.length;i++) {
    if (edges[i].id.substr(0,4)=='edge') {
      edges[i].setAttribute('class','edge');
    }
  }
}
]]></script>
        <defs>
                <circle id="rim" cx="0" cy="0" r="7"/>
                <circle id="rim2" cx="0" cy="0" r="3.5"/>
                <g id="zoomPlus">
                        <use xlink:href="#rim" fill="#404040">
                                <set attributeName="fill" to="#808080" begin="zoomplus.mouseover" end="zoomplus.mouseout"/>
                        </use>
                        <path d="M-4,0h8M0,-4v8" fill="none" stroke="white" stroke-width="1.5" pointer-events="none"/>
                </g>
                <g id="zoomMin">
                        <use xlink:href="#rim" fill="#404040">
                                <set attributeName="fill" to="#808080" begin="zoomminus.mouseover" end="zoomminus.mouseout"/>
                        </use>
                        <path d="M-4,0h8" fill="none" stroke="white" stroke-width="1.5" pointer-events="none"/>
                </g>
                <g id="dirArrow">
                        <path fill="none" stroke="white" stroke-width="1.5" d="M0,-3.0v7 M-2.5,-0.5L0,-3.0L2.5,-0.5"/>
                </g>
               <g id="resetDef">
                       <use xlink:href="#rim2" fill="#404040">
                               <set attributeName="fill" to="#808080" begin="reset.mouseover" end="reset.mouseout"/>
                       </use>
               </g>
        </defs>

<script type="text/javascript">
var viewWidth = 1682;
var viewHeight = 229;
var sectionId = 'dynsection-0';
</script>
<script xlink:href="svgpan.js"/>
<svg id="graph" class="graph">
<g id="viewport">
<title>random_deviate.cc</title>
<polygon fill="white" stroke="none" points="-4,4 -4,-225 1678.24,-225 1678.24,4 -4,4"/>
<!-- Node1 -->
<g id="node1" class="node"><title>Node1</title>
<polygon fill="#bfbfbf" stroke="black" points="567.241,-201.5 567.241,-220.5 675.241,-220.5 675.241,-201.5 567.241,-201.5"/>
<text text-anchor="middle" x="621.241" y="-208.5" font-family="Helvetica,sans-Serif" font-size="10.00">random_deviate.cc</text>
</g>
<!-- Node2 -->
<g id="node2" class="node"><title>Node2</title>
<g id="a_node2"><a xlink:href="random__deviate_8h.xhtml" target="_top" xlink:title="A collection of deviate expressions with random distributions sampled at run&#45;time. ">
<polygon fill="white" stroke="black" points="18.2409,-140 18.2409,-159 122.241,-159 122.241,-140 18.2409,-140"/>
<text text-anchor="middle" x="70.2409" y="-147" font-family="Helvetica,sans-Serif" font-size="10.00">random_deviate.h</text>
</a>
</g>
</g>
<!-- Node1&#45;&gt;Node2 -->
<g id="edge1" class="edge"><title>Node1&#45;&gt;Node2</title>
<path fill="none" stroke="midnightblue" d="M566.905,-207.531C476.164,-202.844 288.254,-190.738 131.241,-165 125.037,-163.983 118.528,-162.687 112.168,-161.29"/>
<polygon fill="midnightblue" stroke="midnightblue" points="112.889,-157.864 102.359,-159.036 111.321,-164.687 112.889,-157.864"/>
</g>
<!-- Node13 -->
<g id="node13" class="node"><title>Node13</title>
<polygon fill="white" stroke="#bfbfbf" points="140.741,-140 140.741,-159 187.741,-159 187.741,-140 140.741,-140"/>
<text text-anchor="middle" x="164.241" y="-147" font-family="Helvetica,sans-Serif" font-size="10.00">cmath</text>
</g>
<!-- Node1&#45;&gt;Node13 -->
<g id="edge13" class="edge"><title>Node1&#45;&gt;Node13</title>
<path fill="none" stroke="midnightblue" d="M567.227,-209.762C485.506,-208.184 326.191,-200.332 196.241,-165 194.089,-164.415 191.899,-163.701 189.726,-162.907"/>
<polygon fill="midnightblue" stroke="midnightblue" points="191.052,-159.669 180.475,-159.067 188.369,-166.134 191.052,-159.669"/>
</g>
<!-- Node14 -->
<g id="node14" class="node"><title>Node14</title>
<polygon fill="white" stroke="#bfbfbf" points="205.741,-140 205.741,-159 268.741,-159 268.741,-140 205.741,-140"/>
<text text-anchor="middle" x="237.241" y="-147" font-family="Helvetica,sans-Serif" font-size="10.00">functional</text>
</g>
<!-- Node1&#45;&gt;Node14 -->
<g id="edge14" class="edge"><title>Node1&#45;&gt;Node14</title>
<path fill="none" stroke="midnightblue" d="M567.135,-206.42C499.002,-201.111 378.698,-189.072 278.241,-165 275.01,-164.226 271.679,-163.29 268.377,-162.27"/>
<polygon fill="midnightblue" stroke="midnightblue" points="269.283,-158.882 258.69,-159.037 267.068,-165.522 269.283,-158.882"/>
</g>
<!-- Node15 -->
<g id="node15" class="node"><title>Node15</title>
<polygon fill="white" stroke="#bfbfbf" points="287.241,-134.5 287.241,-164.5 419.241,-164.5 419.241,-134.5 287.241,-134.5"/>
<text text-anchor="start" x="295.241" y="-152.5" font-family="Helvetica,sans-Serif" font-size="10.00">boost/iterator/transform</text>
<text text-anchor="middle" x="353.241" y="-141.5" font-family="Helvetica,sans-Serif" font-size="10.00">_iterator.hpp</text>
</g>
<!-- Node1&#45;&gt;Node15 -->
<g id="edge15" class="edge"><title>Node1&#45;&gt;Node15</title>
<path fill="none" stroke="midnightblue" d="M582.843,-201.475C542.136,-192.438 476.869,-177.947 426.308,-166.722"/>
<polygon fill="midnightblue" stroke="midnightblue" points="426.924,-163.274 416.403,-164.523 425.407,-170.107 426.924,-163.274"/>
</g>
<!-- Node16 -->
<g id="node16" class="node"><title>Node16</title>
<polygon fill="white" stroke="#bfbfbf" points="437.741,-134.5 437.741,-164.5 548.741,-164.5 548.741,-134.5 437.741,-134.5"/>
<text text-anchor="start" x="445.741" y="-152.5" font-family="Helvetica,sans-Serif" font-size="10.00">boost/math/special</text>
<text text-anchor="middle" x="493.241" y="-141.5" font-family="Helvetica,sans-Serif" font-size="10.00">_functions/beta.hpp</text>
</g>
<!-- Node1&#45;&gt;Node16 -->
<g id="edge16" class="edge"><title>Node1&#45;&gt;Node16</title>
<path fill="none" stroke="midnightblue" d="M602.902,-201.475C584.675,-193.002 556.138,-179.737 532.744,-168.863"/>
<polygon fill="midnightblue" stroke="midnightblue" points="533.951,-165.564 523.408,-164.523 531.001,-171.912 533.951,-165.564"/>
</g>
<!-- Node17 -->
<g id="node17" class="node"><title>Node17</title>
<polygon fill="white" stroke="#bfbfbf" points="567.241,-134.5 567.241,-164.5 675.241,-164.5 675.241,-134.5 567.241,-134.5"/>
<text text-anchor="start" x="575.241" y="-152.5" font-family="Helvetica,sans-Serif" font-size="10.00">boost/math/special</text>
<text text-anchor="middle" x="621.241" y="-141.5" font-family="Helvetica,sans-Serif" font-size="10.00">_functions/erf.hpp</text>
</g>
<!-- Node1&#45;&gt;Node17 -->
<g id="edge17" class="edge"><title>Node1&#45;&gt;Node17</title>
<path fill="none" stroke="midnightblue" d="M621.241,-201.475C621.241,-194.471 621.241,-184.192 621.241,-174.696"/>
<polygon fill="midnightblue" stroke="midnightblue" points="624.741,-174.523 621.241,-164.523 617.741,-174.523 624.741,-174.523"/>
</g>
<!-- Node18 -->
<g id="node18" class="node"><title>Node18</title>
<polygon fill="white" stroke="#bfbfbf" points="693.741,-134.5 693.741,-164.5 820.741,-164.5 820.741,-134.5 693.741,-134.5"/>
<text text-anchor="start" x="701.741" y="-152.5" font-family="Helvetica,sans-Serif" font-size="10.00">boost/math/special</text>
<text text-anchor="middle" x="757.241" y="-141.5" font-family="Helvetica,sans-Serif" font-size="10.00">_functions/gamma.hpp</text>
</g>
<!-- Node1&#45;&gt;Node18 -->
<g id="edge18" class="edge"><title>Node1&#45;&gt;Node18</title>
<path fill="none" stroke="midnightblue" d="M640.726,-201.475C660.265,-192.927 690.953,-179.501 715.93,-168.573"/>
<polygon fill="midnightblue" stroke="midnightblue" points="717.43,-171.738 725.188,-164.523 714.624,-165.325 717.43,-171.738"/>
</g>
<!-- Node19 -->
<g id="node19" class="node"><title>Node19</title>
<polygon fill="white" stroke="#bfbfbf" points="839.241,-140 839.241,-159 1027.24,-159 1027.24,-140 839.241,-140"/>
<text text-anchor="middle" x="933.241" y="-147" font-family="Helvetica,sans-Serif" font-size="10.00">boost/random/beta_distribution.hpp</text>
</g>
<!-- Node1&#45;&gt;Node19 -->
<g id="edge19" class="edge"><title>Node1&#45;&gt;Node19</title>
<path fill="none" stroke="midnightblue" d="M665.943,-201.475C722.01,-190.783 818.101,-172.458 878.51,-160.937"/>
<polygon fill="midnightblue" stroke="midnightblue" points="879.455,-164.32 888.622,-159.009 878.143,-157.444 879.455,-164.32"/>
</g>
<!-- Node20 -->
<g id="node20" class="node"><title>Node20</title>
<polygon fill="white" stroke="#bfbfbf" points="1045.74,-134.5 1045.74,-164.5 1168.74,-164.5 1168.74,-134.5 1045.74,-134.5"/>
<text text-anchor="start" x="1053.74" y="-152.5" font-family="Helvetica,sans-Serif" font-size="10.00">boost/range/algorithm</text>
<text text-anchor="middle" x="1107.24" y="-141.5" font-family="Helvetica,sans-Serif" font-size="10.00">_ext/is_sorted.hpp</text>
</g>
<!-- Node1&#45;&gt;Node20 -->
<g id="edge20" class="edge"><title>Node1&#45;&gt;Node20</title>
<path fill="none" stroke="midnightblue" d="M675.504,-205.745C753.028,-199.306 900.125,-185.759 1035.58,-165"/>
<polygon fill="midnightblue" stroke="midnightblue" points="1036.38,-168.418 1045.73,-163.428 1035.31,-161.501 1036.38,-168.418"/>
</g>
<!-- Node21 -->
<g id="node21" class="node"><title>Node21</title>
<g id="a_node21"><a xlink:href="error_8h.xhtml" target="_top" xlink:title="Exceptions for SCRAM. ">
<polygon fill="white" stroke="black" points="1186.74,-140 1186.74,-159 1251.74,-159 1251.74,-140 1186.74,-140"/>
<text text-anchor="middle" x="1219.24" y="-147" font-family="Helvetica,sans-Serif" font-size="10.00">src/error.h</text>
</a>
</g>
</g>
<!-- Node1&#45;&gt;Node21 -->
<g id="edge21" class="edge"><title>Node1&#45;&gt;Node21</title>
<path fill="none" stroke="midnightblue" d="M675.558,-210.108C775.807,-209.317 996.203,-202.942 1177.24,-165 1180.74,-164.266 1184.36,-163.321 1187.93,-162.267"/>
<polygon fill="midnightblue" stroke="midnightblue" points="1189.3,-165.5 1197.74,-159.087 1187.14,-158.841 1189.3,-165.5"/>
</g>
<!-- Node27 -->
<g id="node27" class="node"><title>Node27</title>
<g id="a_node27"><a xlink:href="algorithm_8h.xhtml" target="_top" xlink:title="Helpful algorithm facilities as an extension to the STL or Boost. ">
<polygon fill="white" stroke="black" points="1448.74,-140 1448.74,-159 1555.74,-159 1555.74,-140 1448.74,-140"/>
<text text-anchor="middle" x="1502.24" y="-147" font-family="Helvetica,sans-Serif" font-size="10.00">src/ext/algorithm.h</text>
</a>
</g>
</g>
<!-- Node1&#45;&gt;Node27 -->
<g id="edge28" class="edge"><title>Node1&#45;&gt;Node27</title>
<path fill="none" stroke="midnightblue" d="M675.355,-206.345C829.917,-195.907 1272.87,-165.991 1438.62,-154.797"/>
<polygon fill="midnightblue" stroke="midnightblue" points="1438.92,-158.285 1448.66,-154.119 1438.45,-151.301 1438.92,-158.285"/>
</g>
<!-- Node3 -->
<g id="node3" class="node"><title>Node3</title>
<polygon fill="white" stroke="#bfbfbf" points="144.741,-73 144.741,-92 201.741,-92 201.741,-73 144.741,-73"/>
<text text-anchor="middle" x="173.241" y="-80" font-family="Helvetica,sans-Serif" font-size="10.00">memory</text>
</g>
<!-- Node2&#45;&gt;Node3 -->
<g id="edge2" class="edge"><title>Node2&#45;&gt;Node3</title>
<path fill="none" stroke="midnightblue" d="M84.1319,-139.734C101.275,-128.916 130.641,-110.383 150.952,-97.5659"/>
<polygon fill="midnightblue" stroke="midnightblue" points="152.981,-100.424 159.57,-92.1273 149.245,-94.5043 152.981,-100.424"/>
</g>
<!-- Node4 -->
<g id="node4" class="node"><title>Node4</title>
<polygon fill="white" stroke="#bfbfbf" points="333.241,-73 333.241,-92 387.241,-92 387.241,-73 333.241,-73"/>
<text text-anchor="middle" x="360.241" y="-80" font-family="Helvetica,sans-Serif" font-size="10.00">random</text>
</g>
<!-- Node2&#45;&gt;Node4 -->
<g id="edge3" class="edge"><title>Node2&#45;&gt;Node4</title>
<path fill="none" stroke="midnightblue" d="M105.014,-139.929C113.571,-137.905 122.723,-135.81 131.241,-134 216.165,-115.956 239.788,-121.945 323.241,-98 325.825,-97.2585 328.48,-96.4067 331.124,-95.4955"/>
<polygon fill="midnightblue" stroke="midnightblue" points="332.342,-98.7768 340.507,-92.0254 329.914,-92.2114 332.342,-98.7768"/>
</g>
<!-- Node5 -->
<g id="node5" class="node"><title>Node5</title>
<polygon fill="white" stroke="#bfbfbf" points="23.7409,-6 23.7409,-25 70.7409,-25 70.7409,-6 23.7409,-6"/>
<text text-anchor="middle" x="47.2409" y="-13" font-family="Helvetica,sans-Serif" font-size="10.00">vector</text>
</g>
<!-- Node2&#45;&gt;Node5 -->
<g id="edge4" class="edge"><title>Node2&#45;&gt;Node5</title>
<path fill="none" stroke="midnightblue" d="M50.9094,-139.84C35.1185,-131.593 13.8899,-117.533 4.24086,-98 -1.86136,-85.6473 -0.518146,-79.9298 4.24086,-67 9.21267,-53.4921 19.5812,-41.1353 28.8908,-32.0261"/>
<polygon fill="midnightblue" stroke="midnightblue" points="31.3353,-34.5331 36.3202,-25.1842 26.5932,-29.384 31.3353,-34.5331"/>
</g>
<!-- Node6 -->
<g id="node6" class="node"><title>Node6</title>
<polygon fill="white" stroke="#bfbfbf" points="13.7409,-67.5 13.7409,-97.5 126.741,-97.5 126.741,-67.5 13.7409,-67.5"/>
<text text-anchor="start" x="21.7409" y="-85.5" font-family="Helvetica,sans-Serif" font-size="10.00">boost/range/iterator</text>
<text text-anchor="middle" x="70.2409" y="-74.5" font-family="Helvetica,sans-Serif" font-size="10.00">_range.hpp</text>
</g>
<!-- Node2&#45;&gt;Node6 -->
<g id="edge5" class="edge"><title>Node2&#45;&gt;Node6</title>
<path fill="none" stroke="midnightblue" d="M70.2409,-139.734C70.2409,-131.541 70.2409,-118.923 70.2409,-107.714"/>
<polygon fill="midnightblue" stroke="midnightblue" points="73.741,-107.589 70.2409,-97.589 66.741,-107.589 73.741,-107.589"/>
</g>
<!-- Node7 -->
<g id="node7" class="node"><title>Node7</title>
<g id="a_node7"><a xlink:href="expression_8h.xhtml" target="_top" xlink:title="Provides the base class for all expressions and units for expression values. ">
<polygon fill="white" stroke="black" points="219.741,-73 219.741,-92 314.741,-92 314.741,-73 219.741,-73"/>
<text text-anchor="middle" x="267.241" y="-80" font-family="Helvetica,sans-Serif" font-size="10.00">src/expression.h</text>
</a>
</g>
</g>
<!-- Node2&#45;&gt;Node7 -->
<g id="edge6" class="edge"><title>Node2&#45;&gt;Node7</title>
<path fill="none" stroke="midnightblue" d="M96.4009,-139.869C131.085,-128.424 192.439,-108.181 231.41,-95.3223"/>
<polygon fill="midnightblue" stroke="midnightblue" points="232.887,-98.5208 241.286,-92.0637 230.693,-91.8733 232.887,-98.5208"/>
</g>
<!-- Node7&#45;&gt;Node5 -->
<g id="edge10" class="edge"><title>Node7&#45;&gt;Node5</title>
<path fill="none" stroke="midnightblue" d="M238.027,-72.8685C197.232,-60.8156 123.4,-39.0014 80.5284,-26.3349"/>
<polygon fill="midnightblue" stroke="midnightblue" points="81.4294,-22.9517 70.8475,-23.4747 79.446,-29.6648 81.4294,-22.9517"/>
</g>
<!-- Node8 -->
<g id="node8" class="node"><title>Node8</title>
<polygon fill="white" stroke="#bfbfbf" points="1141.24,-6 1141.24,-25 1203.24,-25 1203.24,-6 1141.24,-6"/>
<text text-anchor="middle" x="1172.24" y="-13" font-family="Helvetica,sans-Serif" font-size="10.00">algorithm</text>
</g>
<!-- Node7&#45;&gt;Node8 -->
<g id="edge7" class="edge"><title>Node7&#45;&gt;Node8</title>
<path fill="none" stroke="midnightblue" d="M296.311,-72.9737C305.203,-70.673 315.059,-68.428 324.241,-67 482.567,-42.3759 983.036,-23.1714 1130.79,-17.9261"/>
<polygon fill="midnightblue" stroke="midnightblue" points="1130.94,-21.4231 1140.81,-17.5726 1130.69,-14.4274 1130.94,-21.4231"/>
</g>
<!-- Node9 -->
<g id="node9" class="node"><title>Node9</title>
<polygon fill="white" stroke="#bfbfbf" points="750.241,-6 750.241,-25 794.241,-25 794.241,-6 750.241,-6"/>
<text text-anchor="middle" x="772.241" y="-13" font-family="Helvetica,sans-Serif" font-size="10.00">string</text>
</g>
<!-- Node7&#45;&gt;Node9 -->
<g id="edge8" class="edge"><title>Node7&#45;&gt;Node9</title>
<path fill="none" stroke="midnightblue" d="M297.54,-72.9728C306.12,-70.7823 315.502,-68.5963 324.241,-67 478.721,-38.7815 666.233,-23.7758 740.116,-18.6049"/>
<polygon fill="midnightblue" stroke="midnightblue" points="740.439,-22.0911 750.175,-17.913 739.958,-15.1076 740.439,-22.0911"/>
</g>
<!-- Node10 -->
<g id="node10" class="node"><title>Node10</title>
<polygon fill="white" stroke="#bfbfbf" points="151.241,-6 151.241,-25 193.241,-25 193.241,-6 151.241,-6"/>
<text text-anchor="middle" x="172.241" y="-13" font-family="Helvetica,sans-Serif" font-size="10.00">utility</text>
</g>
<!-- Node7&#45;&gt;Node10 -->
<g id="edge9" class="edge"><title>Node7&#45;&gt;Node10</title>
<path fill="none" stroke="midnightblue" d="M254.429,-72.7338C238.76,-62.0131 212.019,-43.7165 193.307,-30.9137"/>
<polygon fill="midnightblue" stroke="midnightblue" points="195.079,-27.8856 184.85,-25.1273 191.127,-33.6628 195.079,-27.8856"/>
</g>
<!-- Node11 -->
<g id="node11" class="node"><title>Node11</title>
<polygon fill="white" stroke="#bfbfbf" points="211.241,-0.5 211.241,-30.5 323.241,-30.5 323.241,-0.5 211.241,-0.5"/>
<text text-anchor="start" x="219.241" y="-18.5" font-family="Helvetica,sans-Serif" font-size="10.00">boost/icl/continuous</text>
<text text-anchor="middle" x="267.241" y="-7.5" font-family="Helvetica,sans-Serif" font-size="10.00">_interval.hpp</text>
</g>
<!-- Node7&#45;&gt;Node11 -->
<g id="edge11" class="edge"><title>Node7&#45;&gt;Node11</title>
<path fill="none" stroke="midnightblue" d="M267.241,-72.7338C267.241,-64.5406 267.241,-51.9225 267.241,-40.7136"/>
<polygon fill="midnightblue" stroke="midnightblue" points="270.741,-40.589 267.241,-30.589 263.741,-40.5891 270.741,-40.589"/>
</g>
<!-- Node12 -->
<g id="node12" class="node"><title>Node12</title>
<polygon fill="white" stroke="#bfbfbf" points="341.241,-6 341.241,-25 469.241,-25 469.241,-6 341.241,-6"/>
<text text-anchor="middle" x="405.241" y="-13" font-family="Helvetica,sans-Serif" font-size="10.00">boost/noncopyable.hpp</text>
</g>
<!-- Node7&#45;&gt;Node12 -->
<g id="edge12" class="edge"><title>Node7&#45;&gt;Node12</title>
<path fill="none" stroke="midnightblue" d="M285.566,-72.8685C309.177,-61.7476 350.43,-42.3167 377.792,-29.4286"/>
<polygon fill="midnightblue" stroke="midnightblue" points="379.284,-32.5947 386.84,-25.1672 376.302,-26.262 379.284,-32.5947"/>
</g>
<!-- Node21&#45;&gt;Node9 -->
<g id="edge23" class="edge"><title>Node21&#45;&gt;Node9</title>
<path fill="none" stroke="midnightblue" d="M1194.87,-139.878C1189.11,-137.896 1182.97,-135.834 1177.24,-134 1123.4,-116.771 1105.24,-124.387 1055.24,-98 1035.96,-87.8267 1036.93,-76.3583 1017.24,-67 946.136,-33.1956 852.873,-21.9438 804.493,-18.2554"/>
<polygon fill="midnightblue" stroke="midnightblue" points="804.536,-14.7499 794.316,-17.5419 804.046,-21.7328 804.536,-14.7499"/>
</g>
<!-- Node22 -->
<g id="node22" class="node"><title>Node22</title>
<polygon fill="white" stroke="#bfbfbf" points="1064.74,-73 1064.74,-92 1127.74,-92 1127.74,-73 1064.74,-73"/>
<text text-anchor="middle" x="1096.24" y="-80" font-family="Helvetica,sans-Serif" font-size="10.00">exception</text>
</g>
<!-- Node21&#45;&gt;Node22 -->
<g id="edge22" class="edge"><title>Node21&#45;&gt;Node22</title>
<path fill="none" stroke="midnightblue" d="M1202.91,-139.869C1182.14,-128.893 1146.05,-109.824 1121.67,-96.9385"/>
<polygon fill="midnightblue" stroke="midnightblue" points="1123.12,-93.745 1112.64,-92.1672 1119.85,-99.934 1123.12,-93.745"/>
</g>
<!-- Node23 -->
<g id="node23" class="node"><title>Node23</title>
<polygon fill="white" stroke="#bfbfbf" points="1146.24,-73 1146.24,-92 1292.24,-92 1292.24,-73 1146.24,-73"/>
<text text-anchor="middle" x="1219.24" y="-80" font-family="Helvetica,sans-Serif" font-size="10.00">boost/current_function.hpp</text>
</g>
<!-- Node21&#45;&gt;Node23 -->
<g id="edge24" class="edge"><title>Node21&#45;&gt;Node23</title>
<path fill="none" stroke="midnightblue" d="M1219.24,-139.734C1219.24,-130.183 1219.24,-114.618 1219.24,-102.283"/>
<polygon fill="midnightblue" stroke="midnightblue" points="1222.74,-102.127 1219.24,-92.1273 1215.74,-102.127 1222.74,-102.127"/>
</g>
<!-- Node24 -->
<g id="node24" class="node"><title>Node24</title>
<polygon fill="white" stroke="#bfbfbf" points="1310.24,-73 1310.24,-92 1474.24,-92 1474.24,-73 1310.24,-73"/>
<text text-anchor="middle" x="1392.24" y="-80" font-family="Helvetica,sans-Serif" font-size="10.00">boost/exception/exception.hpp</text>
</g>
<!-- Node21&#45;&gt;Node24 -->
<g id="edge25" class="edge"><title>Node21&#45;&gt;Node24</title>
<path fill="none" stroke="midnightblue" d="M1242.21,-139.869C1272.41,-128.522 1325.64,-108.525 1359.9,-95.6522"/>
<polygon fill="midnightblue" stroke="midnightblue" points="1361.32,-98.8573 1369.45,-92.0637 1358.86,-92.3045 1361.32,-98.8573"/>
</g>
<!-- Node25 -->
<g id="node25" class="node"><title>Node25</title>
<polygon fill="white" stroke="#bfbfbf" points="758.241,-73 758.241,-92 892.241,-92 892.241,-73 758.241,-73"/>
<text text-anchor="middle" x="825.241" y="-80" font-family="Helvetica,sans-Serif" font-size="10.00">boost/exception/info.hpp</text>
</g>
<!-- Node21&#45;&gt;Node25 -->
<g id="edge26" class="edge"><title>Node21&#45;&gt;Node25</title>
<path fill="none" stroke="midnightblue" d="M1197.25,-139.971C1190.88,-137.754 1183.85,-135.555 1177.24,-134 1056.82,-105.67 1023.38,-117.6 901.241,-98 893.594,-96.7729 885.537,-95.3631 877.641,-93.915"/>
<polygon fill="midnightblue" stroke="midnightblue" points="878.243,-90.467 867.771,-92.0713 876.958,-97.348 878.243,-90.467"/>
</g>
<!-- Node26 -->
<g id="node26" class="node"><title>Node26</title>
<g id="a_node26"><a xlink:href="source__info_8h.xhtml" target="_top" xlink:title="Helper facilities to get source file information. ">
<polygon fill="white" stroke="black" points="910.241,-73 910.241,-92 1008.24,-92 1008.24,-73 910.241,-73"/>
<text text-anchor="middle" x="959.241" y="-80" font-family="Helvetica,sans-Serif" font-size="10.00">ext/source_info.h</text>
</a>
</g>
</g>
<!-- Node21&#45;&gt;Node26 -->
<g id="edge27" class="edge"><title>Node21&#45;&gt;Node26</title>
<path fill="none" stroke="midnightblue" d="M1195.83,-139.933C1189.81,-137.864 1183.32,-135.748 1177.24,-134 1173.09,-132.805 1069.22,-108.834 1006.37,-94.3539"/>
<polygon fill="midnightblue" stroke="midnightblue" points="1006.82,-90.864 996.285,-92.0294 1005.24,-97.6853 1006.82,-90.864"/>
</g>
<!-- Node27&#45;&gt;Node8 -->
<g id="edge29" class="edge"><title>Node27&#45;&gt;Node8</title>
<path fill="none" stroke="midnightblue" d="M1503.06,-139.86C1504.13,-123.123 1503.84,-86.2406 1483.24,-67 1444.83,-31.1141 1288.78,-20.6475 1213.39,-17.6595"/>
<polygon fill="midnightblue" stroke="midnightblue" points="1213.43,-14.1588 1203.31,-17.2857 1213.18,-21.154 1213.43,-14.1588"/>
</g>
<!-- Node28 -->
<g id="node28" class="node"><title>Node28</title>
<polygon fill="white" stroke="#bfbfbf" points="1530.24,-73 1530.24,-92 1674.24,-92 1674.24,-73 1530.24,-73"/>
<text text-anchor="middle" x="1602.24" y="-80" font-family="Helvetica,sans-Serif" font-size="10.00">boost/range/algorithm.hpp</text>
</g>
<!-- Node27&#45;&gt;Node28 -->
<g id="edge30" class="edge"><title>Node27&#45;&gt;Node28</title>
<path fill="none" stroke="midnightblue" d="M1515.73,-139.734C1532.3,-128.964 1560.63,-110.55 1580.33,-97.7395"/>
<polygon fill="midnightblue" stroke="midnightblue" points="1582.49,-100.512 1588.97,-92.1273 1578.68,-94.6427 1582.49,-100.512"/>
</g>
</g>
</svg>
        <g id="navigator" transform="translate(0 0)" fill="#404254">
                <rect fill="#f2f5e9" fill-opacity="0.5" stroke="#606060" stroke-width=".5" x="0" y="0" width="60" height="60"/>
                <use id="zoomplus" xlink:href="#zoomPlus" x="17" y="9" onmousedown="handleZoom(evt,'in')"/>
                <use id="zoomminus" xlink:href="#zoomMin" x="42" y="9" onmousedown="handleZoom(evt,'out')"/>
                <use id="reset" xlink:href="#resetDef" x="30" y="36" onmousedown="handleReset()"/>
                <g id="arrowUp" xlink:href="#dirArrow" transform="translate(30 24)" onmousedown="handlePan(0,-1)">
                  <use xlink:href="#rim" fill="#404040">
                        <set attributeName="fill" to="#808080" begin="arrowUp.mouseover" end="arrowUp.mouseout"/>
                  </use>
                  <path fill="none" stroke="white" stroke-width="1.5" d="M0,-3.0v7 M-2.5,-0.5L0,-3.0L2.5,-0.5"/>
                </g>
                <g id="arrowRight" xlink:href="#dirArrow" transform="rotate(90) translate(36 -43)" onmousedown="handlePan(1,0)">
                  <use xlink:href="#rim" fill="#404040">
                        <set attributeName="fill" to="#808080" begin="arrowRight.mouseover" end="arrowRight.mouseout"/>
                  </use>
                  <path fill="none" stroke="white" stroke-width="1.5" d="M0,-3.0v7 M-2.5,-0.5L0,-3.0L2.5,-0.5"/>
                </g>
                <g id="arrowDown" xlink:href="#dirArrow" transform="rotate(180) translate(-30 -48)" onmousedown="handlePan(0,1)">
                  <use xlink:href="#rim" fill="#404040">
                        <set attributeName="fill" to="#808080" begin="arrowDown.mouseover" end="arrowDown.mouseout"/>
                  </use>
                  <path fill="none" stroke="white" stroke-width="1.5" d="M0,-3.0v7 M-2.5,-0.5L0,-3.0L2.5,-0.5"/>
                </g>
                <g id="arrowLeft" xlink:href="#dirArrow" transform="rotate(270) translate(-36 17)" onmousedown="handlePan(-1,0)">
                  <use xlink:href="#rim" fill="#404040">
                        <set attributeName="fill" to="#808080" begin="arrowLeft.mouseover" end="arrowLeft.mouseout"/>
                  </use>
                  <path fill="none" stroke="white" stroke-width="1.5" d="M0,-3.0v7 M-2.5,-0.5L0,-3.0L2.5,-0.5"/>
                </g>
        </g>
        <svg viewBox="0 0 15 15" width="100%" height="30px" preserveAspectRatio="xMaxYMin meet">
         <g id="arrow_out" transform="scale(0.3 0.3)">
          <a xlink:href="random__deviate_8cc__incl_org.svg" target="_base">
           <rect id="button" ry="5" rx="5" y="6" x="6" height="38" width="38"
                fill="#f2f5e9" fill-opacity="0.5" stroke="#606060" stroke-width="1.0"/>
           <path id="arrow"
             d="M 11.500037,31.436501 C 11.940474,20.09759 22.043105,11.32322 32.158766,21.979434 L 37.068811,17.246167 C 37.068811,17.246167 37.088388,32 37.088388,32 L 22.160133,31.978069 C 22.160133,31.978069 26.997745,27.140456 26.997745,27.140456 C 18.528582,18.264221 13.291696,25.230495 11.500037,31.436501 z"
             style="fill:#404040;"/>
          </a>
         </g>
        </svg>
</svg>
