<?xml version="1.0" encoding="UTF-8" standalone="no"?>
<!DOCTYPE svg PUBLIC "-//W3C//DTD SVG 1.1//EN"
 "http://www.w3.org/Graphics/SVG/1.1/DTD/svg11.dtd">
<!-- Generated by graphviz version 2.38.0 (20140413.2041)
 -->
<!-- Title: random_deviate.h Pages: 1 -->
<svg width="670pt" height="162pt"
 viewBox="0.00 0.00 669.50 162.00" xmlns="http://www.w3.org/2000/svg" xmlns:xlink="http://www.w3.org/1999/xlink">
<g id="graph0" class="graph" transform="scale(1 1) rotate(0) translate(4 158)">
<title>random_deviate.h</title>
<polygon fill="white" stroke="none" points="-4,4 -4,-158 665.5,-158 665.5,4 -4,4"/>
<!-- Node1 -->
<g id="node1" class="node"><title>Node1</title>
<polygon fill="#bfbfbf" stroke="black" points="105.5,-134.5 105.5,-153.5 209.5,-153.5 209.5,-134.5 105.5,-134.5"/>
<text text-anchor="middle" x="157.5" y="-141.5" font-family="Helvetica,sans-Serif" font-size="10.00">random_deviate.h</text>
</g>
<!-- Node2 -->
<g id="node2" class="node"><title>Node2</title>
<polygon fill="white" stroke="#bfbfbf" points="0,-73 0,-92 57,-92 57,-73 0,-73"/>
<text text-anchor="middle" x="28.5" y="-80" font-family="Helvetica,sans-Serif" font-size="10.00">memory</text>
</g>
<!-- Node1&#45;&gt;Node2 -->
<g id="edge1" class="edge"><title>Node1&#45;&gt;Node2</title>
<path fill="none" stroke="midnightblue" d="M139.017,-134.475C117.368,-124.49 81.2872,-107.848 56.2675,-96.3075"/>
<polygon fill="midnightblue" stroke="midnightblue" points="57.4948,-93.0193 46.9483,-92.0091 54.563,-99.3757 57.4948,-93.0193"/>
</g>
<!-- Node3 -->
<g id="node3" class="node"><title>Node3</title>
<polygon fill="white" stroke="#bfbfbf" points="75.5,-73 75.5,-92 129.5,-92 129.5,-73 75.5,-73"/>
<text text-anchor="middle" x="102.5" y="-80" font-family="Helvetica,sans-Serif" font-size="10.00">random</text>
</g>
<!-- Node1&#45;&gt;Node3 -->
<g id="edge2" class="edge"><title>Node1&#45;&gt;Node3</title>
<path fill="none" stroke="midnightblue" d="M149.62,-134.475C141.206,-125.373 127.681,-110.741 117.274,-99.483"/>
<polygon fill="midnightblue" stroke="midnightblue" points="119.724,-96.9766 110.366,-92.0091 114.583,-101.728 119.724,-96.9766"/>
</g>
<!-- Node4 -->
<g id="node4" class="node"><title>Node4</title>
<polygon fill="white" stroke="#bfbfbf" points="135,-6 135,-25 182,-25 182,-6 135,-6"/>
<text text-anchor="middle" x="158.5" y="-13" font-family="Helvetica,sans-Serif" font-size="10.00">vector</text>
</g>
<!-- Node1&#45;&gt;Node4 -->
<g id="edge3" class="edge"><title>Node1&#45;&gt;Node4</title>
<path fill="none" stroke="midnightblue" d="M157.569,-134.305C157.729,-113.994 158.132,-63.0532 158.352,-35.2768"/>
<polygon fill="midnightblue" stroke="midnightblue" points="161.852,-35.2831 158.431,-25.2557 154.852,-35.2277 161.852,-35.2831"/>
</g>
<!-- Node5 -->
<g id="node5" class="node"><title>Node5</title>
<polygon fill="white" stroke="#bfbfbf" points="186,-67.5 186,-97.5 299,-97.5 299,-67.5 186,-67.5"/>
<text text-anchor="start" x="194" y="-85.5" font-family="Helvetica,sans-Serif" font-size="10.00">boost/range/iterator</text>
<text text-anchor="middle" x="242.5" y="-74.5" font-family="Helvetica,sans-Serif" font-size="10.00">_range.hpp</text>
</g>
<!-- Node1&#45;&gt;Node5 -->
<g id="edge4" class="edge"><title>Node1&#45;&gt;Node5</title>
<path fill="none" stroke="midnightblue" d="M169.678,-134.475C181.19,-126.417 198.896,-114.023 213.966,-103.474"/>
<polygon fill="midnightblue" stroke="midnightblue" points="216.282,-106.125 222.467,-97.523 212.268,-100.39 216.282,-106.125"/>
</g>
<!-- Node6 -->
<g id="node6" class="node"><title>Node6</title>
<g id="a_node6"><a xlink:href="expression_8h.xhtml" target="_top" xlink:title="Provides the base class for all expressions and units for expression values. ">
<polygon fill="white" stroke="black" points="317,-73 317,-92 412,-92 412,-73 317,-73"/>
<text text-anchor="middle" x="364.5" y="-80" font-family="Helvetica,sans-Serif" font-size="10.00">src/expression.h</text>
</a>
</g>
</g>
<!-- Node1&#45;&gt;Node6 -->
<g id="edge5" class="edge"><title>Node1&#45;&gt;Node6</title>
<path fill="none" stroke="midnightblue" d="M187.158,-134.475C223.434,-124.048 284.964,-106.362 325.164,-94.8066"/>
<polygon fill="midnightblue" stroke="midnightblue" points="326.253,-98.1355 334.897,-92.0091 324.319,-91.4079 326.253,-98.1355"/>
</g>
<!-- Node6&#45;&gt;Node4 -->
<g id="edge9" class="edge"><title>Node6&#45;&gt;Node4</title>
<path fill="none" stroke="midnightblue" d="M331.155,-72.9581C296.229,-63.7218 239.957,-48.0199 192.5,-31 190.643,-30.3339 188.741,-29.6185 186.832,-28.8755"/>
<polygon fill="midnightblue" stroke="midnightblue" points="187.986,-25.5662 177.405,-25.028 185.341,-32.0472 187.986,-25.5662"/>
</g>
<!-- Node7 -->
<g id="node7" class="node"><title>Node7</title>
<polygon fill="white" stroke="#bfbfbf" points="201.5,-6 201.5,-25 263.5,-25 263.5,-6 201.5,-6"/>
<text text-anchor="middle" x="232.5" y="-13" font-family="Helvetica,sans-Serif" font-size="10.00">algorithm</text>
</g>
<!-- Node6&#45;&gt;Node7 -->
<g id="edge6" class="edge"><title>Node6&#45;&gt;Node7</title>
<path fill="none" stroke="midnightblue" d="M346.971,-72.8685C324.486,-61.7961 285.272,-42.4862 259.099,-29.5978"/>
<polygon fill="midnightblue" stroke="midnightblue" points="260.619,-26.445 250.101,-25.1672 257.526,-32.7249 260.619,-26.445"/>
</g>
<!-- Node8 -->
<g id="node8" class="node"><title>Node8</title>
<polygon fill="white" stroke="#bfbfbf" points="281.5,-6 281.5,-25 325.5,-25 325.5,-6 281.5,-6"/>
<text text-anchor="middle" x="303.5" y="-13" font-family="Helvetica,sans-Serif" font-size="10.00">string</text>
</g>
<!-- Node6&#45;&gt;Node8 -->
<g id="edge7" class="edge"><title>Node6&#45;&gt;Node8</title>
<path fill="none" stroke="midnightblue" d="M356.273,-72.7338C346.67,-62.5004 330.588,-45.3642 318.696,-32.6924"/>
<polygon fill="midnightblue" stroke="midnightblue" points="320.992,-30.0241 311.596,-25.1273 315.887,-34.8143 320.992,-30.0241"/>
</g>
<!-- Node9 -->
<g id="node9" class="node"><title>Node9</title>
<polygon fill="white" stroke="#bfbfbf" points="343.5,-6 343.5,-25 385.5,-25 385.5,-6 343.5,-6"/>
<text text-anchor="middle" x="364.5" y="-13" font-family="Helvetica,sans-Serif" font-size="10.00">utility</text>
</g>
<!-- Node6&#45;&gt;Node9 -->
<g id="edge8" class="edge"><title>Node6&#45;&gt;Node9</title>
<path fill="none" stroke="midnightblue" d="M364.5,-72.7338C364.5,-63.1826 364.5,-47.6183 364.5,-35.2829"/>
<polygon fill="midnightblue" stroke="midnightblue" points="368,-35.1273 364.5,-25.1273 361,-35.1273 368,-35.1273"/>
</g>
<!-- Node10 -->
<g id="node10" class="node"><title>Node10</title>
<polygon fill="white" stroke="#bfbfbf" points="403.5,-0.5 403.5,-30.5 515.5,-30.5 515.5,-0.5 403.5,-0.5"/>
<text text-anchor="start" x="411.5" y="-18.5" font-family="Helvetica,sans-Serif" font-size="10.00">boost/icl/continuous</text>
<text text-anchor="middle" x="459.5" y="-7.5" font-family="Helvetica,sans-Serif" font-size="10.00">_interval.hpp</text>
</g>
<!-- Node6&#45;&gt;Node10 -->
<g id="edge10" class="edge"><title>Node6&#45;&gt;Node10</title>
<path fill="none" stroke="midnightblue" d="M377.312,-72.7338C390.892,-63.4425 412.788,-48.4609 430.566,-36.2968"/>
<polygon fill="midnightblue" stroke="midnightblue" points="432.632,-39.1245 438.908,-30.589 428.679,-33.3473 432.632,-39.1245"/>
</g>
<!-- Node11 -->
<g id="node11" class="node"><title>Node11</title>
<polygon fill="white" stroke="#bfbfbf" points="533.5,-6 533.5,-25 661.5,-25 661.5,-6 533.5,-6"/>
<text text-anchor="middle" x="597.5" y="-13" font-family="Helvetica,sans-Serif" font-size="10.00">boost/noncopyable.hpp</text>
</g>
<!-- Node6&#45;&gt;Node11 -->
<g id="edge11" class="edge"><title>Node6&#45;&gt;Node11</title>
<path fill="none" stroke="midnightblue" d="M395.441,-72.8685C437.074,-61.254 511.198,-40.5757 557.163,-27.7528"/>
<polygon fill="midnightblue" stroke="midnightblue" points="558.111,-31.1221 566.803,-25.0637 556.23,-24.3796 558.111,-31.1221"/>
</g>
</g>
</svg>
