<?xml version="1.0" encoding="UTF-8" standalone="no"?>
<!DOCTYPE svg PUBLIC "-//W3C//DTD SVG 1.1//EN"
 "http://www.w3.org/Graphics/SVG/1.1/DTD/svg11.dtd">
<!-- Generated by graphviz version 2.38.0 (20140413.2041)
 -->
<!-- Title: %3 Pages: 1 -->
<svg width="1687pt" height="1196pt"
 viewBox="0.00 0.00 1687.00 1196.00" xmlns="http://www.w3.org/2000/svg" xmlns:xlink="http://www.w3.org/1999/xlink">
<g id="graph0" class="graph" transform="scale(1 1) rotate(0) translate(4 1192)">
<title>%3</title>
<polygon fill="white" stroke="none" points="-4,4 -4,-1192 1683,-1192 1683,4 -4,4"/>
<!-- expression/extern -->
<g id="node1" class="node"><title>expression/extern</title>
<ellipse fill="none" stroke="black" cx="1246" cy="-450" rx="94.4839" ry="18"/>
<text text-anchor="middle" x="1246" y="-446.3" font-family="Times,serif" font-size="14.00">expression/extern</text>
</g>
<!-- expression -->
<g id="node10" class="node"><title>expression</title>
<ellipse fill="none" stroke="black" cx="695" cy="-162" rx="61.1893" ry="18"/>
<text text-anchor="middle" x="695" y="-158.3" font-family="Times,serif" font-size="14.00">expression</text>
</g>
<!-- expression/extern&#45;&gt;expression -->
<g id="edge1" class="edge"><title>expression/extern&#45;&gt;expression</title>
<path fill="none" stroke="black" d="M1235.26,-431.92C1223.36,-413.484 1203.18,-383.594 1183,-360 1115.28,-280.816 1094.98,-254.095 998,-216 986.85,-211.62 842.439,-187.337 757.077,-173.207"/>
<polygon fill="black" stroke="black" points="757.41,-169.714 746.973,-171.536 756.268,-176.621 757.41,-169.714"/>
</g>
<!-- element -->
<g id="node37" class="node"><title>element</title>
<ellipse fill="none" stroke="black" cx="1258" cy="-234" rx="48.1917" ry="18"/>
<text text-anchor="middle" x="1258" y="-230.3" font-family="Times,serif" font-size="14.00">element</text>
</g>
<!-- expression/extern&#45;&gt;element -->
<g id="edge2" class="edge"><title>expression/extern&#45;&gt;element</title>
<path fill="none" stroke="black" d="M1246.96,-431.849C1249.04,-394.832 1253.95,-307.181 1256.46,-262.386"/>
<polygon fill="black" stroke="black" points="1259.97,-262.413 1257.03,-252.232 1252.98,-262.021 1259.97,-262.413"/>
</g>
<!-- zbdd -->
<g id="node2" class="node"><title>zbdd</title>
<ellipse fill="none" stroke="black" cx="718" cy="-738" rx="33.2948" ry="18"/>
<text text-anchor="middle" x="718" y="-734.3" font-family="Times,serif" font-size="14.00">zbdd</text>
</g>
<!-- pdag -->
<g id="node35" class="node"><title>pdag</title>
<ellipse fill="none" stroke="black" cx="676" cy="-594" rx="33.5952" ry="18"/>
<text text-anchor="middle" x="676" y="-590.3" font-family="Times,serif" font-size="14.00">pdag</text>
</g>
<!-- zbdd&#45;&gt;pdag -->
<g id="edge3" class="edge"><title>zbdd&#45;&gt;pdag</title>
<path fill="none" stroke="black" d="M719.151,-719.756C719.804,-701.44 719.212,-671.892 711,-648 707.452,-637.676 701.413,-627.411 695.342,-618.703"/>
<polygon fill="black" stroke="black" points="698.099,-616.545 689.35,-610.57 692.463,-620.697 698.099,-616.545"/>
</g>
<!-- bdd -->
<g id="node46" class="node"><title>bdd</title>
<ellipse fill="none" stroke="black" cx="673" cy="-666" rx="28.6953" ry="18"/>
<text text-anchor="middle" x="673" y="-662.3" font-family="Times,serif" font-size="14.00">bdd</text>
</g>
<!-- zbdd&#45;&gt;bdd -->
<g id="edge4" class="edge"><title>zbdd&#45;&gt;bdd</title>
<path fill="none" stroke="black" d="M702.557,-721.811C696.126,-713.401 688.967,-702.715 683.177,-693.016"/>
<polygon fill="black" stroke="black" points="686.104,-691.084 678.113,-684.127 680.021,-694.548 686.104,-691.084"/>
</g>
<!-- version -->
<g id="node3" class="node"><title>version</title>
<ellipse fill="none" stroke="black" cx="948" cy="-1026" rx="44.6926" ry="18"/>
<text text-anchor="middle" x="948" y="-1022.3" font-family="Times,serif" font-size="14.00">version</text>
</g>
<!-- probability_analysis -->
<g id="node4" class="node"><title>probability_analysis</title>
<ellipse fill="none" stroke="black" cx="595" cy="-882" rx="103.982" ry="18"/>
<text text-anchor="middle" x="595" y="-878.3" font-family="Times,serif" font-size="14.00">probability_analysis</text>
</g>
<!-- fault_tree_analysis -->
<g id="node11" class="node"><title>fault_tree_analysis</title>
<ellipse fill="none" stroke="black" cx="595" cy="-810" rx="98.5829" ry="18"/>
<text text-anchor="middle" x="595" y="-806.3" font-family="Times,serif" font-size="14.00">fault_tree_analysis</text>
</g>
<!-- probability_analysis&#45;&gt;fault_tree_analysis -->
<g id="edge5" class="edge"><title>probability_analysis&#45;&gt;fault_tree_analysis</title>
<path fill="none" stroke="black" d="M595,-863.697C595,-855.983 595,-846.712 595,-838.112"/>
<polygon fill="black" stroke="black" points="598.5,-838.104 595,-828.104 591.5,-838.104 598.5,-838.104"/>
</g>
<!-- instruction -->
<g id="node5" class="node"><title>instruction</title>
<ellipse fill="none" stroke="black" cx="1419" cy="-378" rx="61.99" ry="18"/>
<text text-anchor="middle" x="1419" y="-374.3" font-family="Times,serif" font-size="14.00">instruction</text>
</g>
<!-- event -->
<g id="node33" class="node"><title>event</title>
<ellipse fill="none" stroke="black" cx="1334" cy="-306" rx="36.2938" ry="18"/>
<text text-anchor="middle" x="1334" y="-302.3" font-family="Times,serif" font-size="14.00">event</text>
</g>
<!-- instruction&#45;&gt;event -->
<g id="edge6" class="edge"><title>instruction&#45;&gt;event</title>
<path fill="none" stroke="black" d="M1399.29,-360.765C1387.54,-351.09 1372.49,-338.701 1359.81,-328.254"/>
<polygon fill="black" stroke="black" points="1361.81,-325.372 1351.87,-321.717 1357.36,-330.776 1361.81,-325.372"/>
</g>
<!-- scram -->
<g id="node6" class="node"><title>scram</title>
<ellipse fill="none" stroke="black" cx="629" cy="-1170" rx="39.7935" ry="18"/>
<text text-anchor="middle" x="629" y="-1166.3" font-family="Times,serif" font-size="14.00">scram</text>
</g>
<!-- serialization -->
<g id="node14" class="node"><title>serialization</title>
<ellipse fill="none" stroke="black" cx="1132" cy="-594" rx="67.6881" ry="18"/>
<text text-anchor="middle" x="1132" y="-590.3" font-family="Times,serif" font-size="14.00">serialization</text>
</g>
<!-- scram&#45;&gt;serialization -->
<g id="edge10" class="edge"><title>scram&#45;&gt;serialization</title>
<path fill="none" stroke="black" d="M668.766,-1168.12C802.55,-1164.11 1228,-1142.29 1228,-1027 1228,-1027 1228,-1027 1228,-737 1228,-688.311 1188.79,-643.854 1160.48,-618.108"/>
<polygon fill="black" stroke="black" points="1162.64,-615.348 1152.83,-611.355 1158.01,-620.596 1162.64,-615.348"/>
</g>
<!-- config -->
<g id="node21" class="node"><title>config</title>
<ellipse fill="none" stroke="black" cx="70" cy="-594" rx="38.9931" ry="18"/>
<text text-anchor="middle" x="70" y="-590.3" font-family="Times,serif" font-size="14.00">config</text>
</g>
<!-- scram&#45;&gt;config -->
<g id="edge7" class="edge"><title>scram&#45;&gt;config</title>
<path fill="none" stroke="black" d="M591,-1164.55C486.928,-1151.33 205,-1108.03 205,-1027 205,-1027 205,-1027 205,-737 205,-678.934 144.974,-635.168 104.974,-612.449"/>
<polygon fill="black" stroke="black" points="106.478,-609.281 96.0294,-607.526 103.103,-615.414 106.478,-609.281"/>
</g>
<!-- reporter -->
<g id="node24" class="node"><title>reporter</title>
<ellipse fill="none" stroke="black" cx="881" cy="-1098" rx="50.0912" ry="18"/>
<text text-anchor="middle" x="881" y="-1094.3" font-family="Times,serif" font-size="14.00">reporter</text>
</g>
<!-- scram&#45;&gt;reporter -->
<g id="edge8" class="edge"><title>scram&#45;&gt;reporter</title>
<path fill="none" stroke="black" d="M661.945,-1159.85C705.596,-1147.72 782.913,-1126.25 833.043,-1112.32"/>
<polygon fill="black" stroke="black" points="833.99,-1115.69 842.688,-1109.64 832.116,-1108.95 833.99,-1115.69"/>
</g>
<!-- initializer -->
<g id="node32" class="node"><title>initializer</title>
<ellipse fill="none" stroke="black" cx="354" cy="-594" rx="55.4913" ry="18"/>
<text text-anchor="middle" x="354" y="-590.3" font-family="Times,serif" font-size="14.00">initializer</text>
</g>
<!-- scram&#45;&gt;initializer -->
<g id="edge9" class="edge"><title>scram&#45;&gt;initializer</title>
<path fill="none" stroke="black" d="M590.727,-1165.04C520.23,-1155.41 377,-1123.92 377,-1027 377,-1027 377,-1027 377,-737 377,-696.696 367.86,-650.776 361.103,-622.337"/>
<polygon fill="black" stroke="black" points="364.433,-621.222 358.654,-612.342 357.635,-622.888 364.433,-621.222"/>
</g>
<!-- Boost -->
<g id="node7" class="node"><title>Boost</title>
<ellipse fill="none" stroke="black" cx="311" cy="-18" rx="37.0935" ry="18"/>
<text text-anchor="middle" x="311" y="-14.3" font-family="Times,serif" font-size="14.00">Boost</text>
</g>
<!-- xml_stream -->
<g id="node8" class="node"><title>xml_stream</title>
<ellipse fill="none" stroke="black" cx="1322" cy="-522" rx="65.7887" ry="18"/>
<text text-anchor="middle" x="1322" y="-518.3" font-family="Times,serif" font-size="14.00">xml_stream</text>
</g>
<!-- error -->
<g id="node38" class="node"><title>error</title>
<ellipse fill="none" stroke="black" cx="399" cy="-90" rx="34.394" ry="18"/>
<text text-anchor="middle" x="399" y="-86.3" font-family="Times,serif" font-size="14.00">error</text>
</g>
<!-- xml_stream&#45;&gt;error -->
<g id="edge11" class="edge"><title>xml_stream&#45;&gt;error</title>
<path fill="none" stroke="black" d="M1385.76,-517.475C1466.94,-511.804 1601.36,-498.084 1640,-468 1674.08,-441.471 1679,-422.187 1679,-379 1679,-379 1679,-379 1679,-233 1679,-105.966 670.2,-92.5706 443.753,-91.164"/>
<polygon fill="black" stroke="black" points="443.588,-87.6631 433.568,-91.1057 443.548,-94.663 443.588,-87.6631"/>
</g>
<!-- settings -->
<g id="node9" class="node"><title>settings</title>
<ellipse fill="none" stroke="black" cx="154" cy="-522" rx="48.1917" ry="18"/>
<text text-anchor="middle" x="154" y="-518.3" font-family="Times,serif" font-size="14.00">settings</text>
</g>
<!-- settings&#45;&gt;error -->
<g id="edge12" class="edge"><title>settings&#45;&gt;error</title>
<path fill="none" stroke="black" d="M164.846,-504.338C196.435,-455.512 290.407,-308.137 358,-180 368.983,-159.179 380.072,-134.863 387.943,-116.914"/>
<polygon fill="black" stroke="black" points="391.189,-118.227 391.964,-107.66 384.769,-115.437 391.189,-118.227"/>
</g>
<!-- expression&#45;&gt;error -->
<g id="edge13" class="edge"><title>expression&#45;&gt;error</title>
<path fill="none" stroke="black" d="M648.75,-150.062C591.468,-136.516 494.771,-113.648 440.02,-100.701"/>
<polygon fill="black" stroke="black" points="440.516,-97.2214 429.978,-98.326 438.905,-104.034 440.516,-97.2214"/>
</g>
<!-- fault_tree_analysis&#45;&gt;zbdd -->
<g id="edge15" class="edge"><title>fault_tree_analysis&#45;&gt;zbdd</title>
<path fill="none" stroke="black" d="M623.528,-792.765C642.52,-781.956 667.468,-767.758 686.958,-756.666"/>
<polygon fill="black" stroke="black" points="688.801,-759.644 695.761,-751.656 685.339,-753.561 688.801,-759.644"/>
</g>
<!-- preprocessor -->
<g id="node15" class="node"><title>preprocessor</title>
<ellipse fill="none" stroke="black" cx="595" cy="-738" rx="72.2875" ry="18"/>
<text text-anchor="middle" x="595" y="-734.3" font-family="Times,serif" font-size="14.00">preprocessor</text>
</g>
<!-- fault_tree_analysis&#45;&gt;preprocessor -->
<g id="edge14" class="edge"><title>fault_tree_analysis&#45;&gt;preprocessor</title>
<path fill="none" stroke="black" d="M595,-791.697C595,-783.983 595,-774.712 595,-766.112"/>
<polygon fill="black" stroke="black" points="598.5,-766.104 595,-756.104 591.5,-766.104 598.5,-766.104"/>
</g>
<!-- analysis -->
<g id="node31" class="node"><title>analysis</title>
<ellipse fill="none" stroke="black" cx="195" cy="-594" rx="48.1917" ry="18"/>
<text text-anchor="middle" x="195" y="-590.3" font-family="Times,serif" font-size="14.00">analysis</text>
</g>
<!-- fault_tree_analysis&#45;&gt;analysis -->
<g id="edge16" class="edge"><title>fault_tree_analysis&#45;&gt;analysis</title>
<path fill="none" stroke="black" d="M564.607,-792.74C491.813,-753.795 307.785,-655.34 230.276,-613.873"/>
<polygon fill="black" stroke="black" points="231.835,-610.738 221.367,-609.106 228.533,-616.91 231.835,-610.738"/>
</g>
<!-- importance_analysis -->
<g id="node12" class="node"><title>importance_analysis</title>
<ellipse fill="none" stroke="black" cx="582" cy="-954" rx="106.681" ry="18"/>
<text text-anchor="middle" x="582" y="-950.3" font-family="Times,serif" font-size="14.00">importance_analysis</text>
</g>
<!-- importance_analysis&#45;&gt;probability_analysis -->
<g id="edge17" class="edge"><title>importance_analysis&#45;&gt;probability_analysis</title>
<path fill="none" stroke="black" d="M585.213,-935.697C586.646,-927.983 588.368,-918.712 589.965,-910.112"/>
<polygon fill="black" stroke="black" points="593.439,-910.575 591.823,-900.104 586.556,-909.297 593.439,-910.575"/>
</g>
<!-- env -->
<g id="node13" class="node"><title>env</title>
<ellipse fill="none" stroke="black" cx="206" cy="-162" rx="27.0966" ry="18"/>
<text text-anchor="middle" x="206" y="-158.3" font-family="Times,serif" font-size="14.00">env</text>
</g>
<!-- env&#45;&gt;Boost -->
<g id="edge19" class="edge"><title>env&#45;&gt;Boost</title>
<path fill="none" stroke="black" d="M213.779,-144.41C222.852,-125.874 238.932,-95.3981 257,-72 265.552,-60.9247 276.337,-49.8897 286.016,-40.7791"/>
<polygon fill="black" stroke="black" points="288.483,-43.2653 293.477,-33.9212 283.746,-38.1116 288.483,-43.2653"/>
</g>
<!-- STL -->
<g id="node40" class="node"><title>STL</title>
<ellipse fill="none" stroke="black" cx="227" cy="-18" rx="28.6953" ry="18"/>
<text text-anchor="middle" x="227" y="-14.3" font-family="Times,serif" font-size="14.00">STL</text>
</g>
<!-- env&#45;&gt;STL -->
<g id="edge18" class="edge"><title>env&#45;&gt;STL</title>
<path fill="none" stroke="black" d="M208.533,-143.871C212.112,-119.67 218.687,-75.2108 222.949,-46.3932"/>
<polygon fill="black" stroke="black" points="226.457,-46.5937 224.458,-36.1893 219.533,-45.5696 226.457,-46.5937"/>
</g>
<!-- serialization&#45;&gt;xml_stream -->
<g id="edge20" class="edge"><title>serialization&#45;&gt;xml_stream</title>
<path fill="none" stroke="black" d="M1169.99,-579.003C1200.12,-567.902 1242.39,-552.329 1274.71,-540.422"/>
<polygon fill="black" stroke="black" points="1276.22,-543.595 1284.4,-536.854 1273.8,-537.027 1276.22,-543.595"/>
</g>
<!-- model -->
<g id="node23" class="node"><title>model</title>
<ellipse fill="none" stroke="black" cx="1161" cy="-522" rx="38.9931" ry="18"/>
<text text-anchor="middle" x="1161" y="-518.3" font-family="Times,serif" font-size="14.00">model</text>
</g>
<!-- serialization&#45;&gt;model -->
<g id="edge22" class="edge"><title>serialization&#45;&gt;model</title>
<path fill="none" stroke="black" d="M1139.02,-576.055C1142.37,-567.973 1146.45,-558.121 1150.18,-549.112"/>
<polygon fill="black" stroke="black" points="1153.45,-550.367 1154.04,-539.789 1146.98,-547.688 1153.45,-550.367"/>
</g>
<!-- expression/exponential -->
<g id="node45" class="node"><title>expression/exponential</title>
<ellipse fill="none" stroke="black" cx="822" cy="-522" rx="118.079" ry="18"/>
<text text-anchor="middle" x="822" y="-518.3" font-family="Times,serif" font-size="14.00">expression/exponential</text>
</g>
<!-- serialization&#45;&gt;expression/exponential -->
<g id="edge21" class="edge"><title>serialization&#45;&gt;expression/exponential</title>
<path fill="none" stroke="black" d="M1082.19,-581.753C1031.55,-570.318 952.547,-552.478 894.872,-539.455"/>
<polygon fill="black" stroke="black" points="895.612,-536.034 885.086,-537.245 894.07,-542.862 895.612,-536.034"/>
</g>
<!-- preprocessor&#45;&gt;pdag -->
<g id="edge23" class="edge"><title>preprocessor&#45;&gt;pdag</title>
<path fill="none" stroke="black" d="M601.247,-720.009C608.311,-701.648 620.707,-671.823 635,-648 641.078,-637.87 648.785,-627.437 655.873,-618.536"/>
<polygon fill="black" stroke="black" points="658.794,-620.491 662.405,-610.531 653.371,-616.066 658.794,-620.491"/>
</g>
<!-- expression/numerical -->
<g id="node16" class="node"><title>expression/numerical</title>
<ellipse fill="none" stroke="black" cx="852" cy="-306" rx="110.48" ry="18"/>
<text text-anchor="middle" x="852" y="-302.3" font-family="Times,serif" font-size="14.00">expression/numerical</text>
</g>
<!-- expression/constant -->
<g id="node27" class="node"><title>expression/constant</title>
<ellipse fill="none" stroke="black" cx="849" cy="-234" rx="104.782" ry="18"/>
<text text-anchor="middle" x="849" y="-230.3" font-family="Times,serif" font-size="14.00">expression/constant</text>
</g>
<!-- expression/numerical&#45;&gt;expression/constant -->
<g id="edge24" class="edge"><title>expression/numerical&#45;&gt;expression/constant</title>
<path fill="none" stroke="black" d="M851.258,-287.697C850.928,-279.983 850.531,-270.712 850.162,-262.112"/>
<polygon fill="black" stroke="black" points="853.658,-261.945 849.733,-252.104 846.665,-262.245 853.658,-261.945"/>
</g>
<!-- fault_tree -->
<g id="node17" class="node"><title>fault_tree</title>
<ellipse fill="none" stroke="black" cx="1078" cy="-450" rx="55.7903" ry="18"/>
<text text-anchor="middle" x="1078" y="-446.3" font-family="Times,serif" font-size="14.00">fault_tree</text>
</g>
<!-- parameter -->
<g id="node30" class="node"><title>parameter</title>
<ellipse fill="none" stroke="black" cx="1040" cy="-306" rx="59.5901" ry="18"/>
<text text-anchor="middle" x="1040" y="-302.3" font-family="Times,serif" font-size="14.00">parameter</text>
</g>
<!-- fault_tree&#45;&gt;parameter -->
<g id="edge25" class="edge"><title>fault_tree&#45;&gt;parameter</title>
<path fill="none" stroke="black" d="M1067.4,-431.979C1061.62,-421.889 1054.87,-408.639 1051,-396 1044.82,-375.81 1042.1,-352.034 1040.91,-334.137"/>
<polygon fill="black" stroke="black" points="1044.4,-333.889 1040.36,-324.096 1037.41,-334.272 1044.4,-333.889"/>
</g>
<!-- ccf_group -->
<g id="node48" class="node"><title>ccf_group</title>
<ellipse fill="none" stroke="black" cx="1117" cy="-378" rx="57.3905" ry="18"/>
<text text-anchor="middle" x="1117" y="-374.3" font-family="Times,serif" font-size="14.00">ccf_group</text>
</g>
<!-- fault_tree&#45;&gt;ccf_group -->
<g id="edge26" class="edge"><title>fault_tree&#45;&gt;ccf_group</title>
<path fill="none" stroke="black" d="M1087.44,-432.055C1092.04,-423.801 1097.67,-413.701 1102.77,-404.538"/>
<polygon fill="black" stroke="black" points="1105.84,-406.228 1107.65,-395.789 1099.72,-402.821 1105.84,-406.228"/>
</g>
<!-- logger -->
<g id="node18" class="node"><title>logger</title>
<ellipse fill="none" stroke="black" cx="306" cy="-90" rx="40.0939" ry="18"/>
<text text-anchor="middle" x="306" y="-86.3" font-family="Times,serif" font-size="14.00">logger</text>
</g>
<!-- logger&#45;&gt;Boost -->
<g id="edge28" class="edge"><title>logger&#45;&gt;Boost</title>
<path fill="none" stroke="black" d="M307.236,-71.6966C307.787,-63.9827 308.449,-54.7125 309.063,-46.1124"/>
<polygon fill="black" stroke="black" points="312.557,-46.3283 309.778,-36.1043 305.575,-45.8295 312.557,-46.3283"/>
</g>
<!-- logger&#45;&gt;STL -->
<g id="edge27" class="edge"><title>logger&#45;&gt;STL</title>
<path fill="none" stroke="black" d="M288.467,-73.4647C277.281,-63.5525 262.647,-50.5861 250.465,-39.7916"/>
<polygon fill="black" stroke="black" points="252.68,-37.0779 242.874,-33.0656 248.037,-42.3171 252.68,-37.0779"/>
</g>
<!-- cycle -->
<g id="node19" class="node"><title>cycle</title>
<ellipse fill="none" stroke="black" cx="1069" cy="-522" rx="35.194" ry="18"/>
<text text-anchor="middle" x="1069" y="-518.3" font-family="Times,serif" font-size="14.00">cycle</text>
</g>
<!-- cycle&#45;&gt;parameter -->
<g id="edge29" class="edge"><title>cycle&#45;&gt;parameter</title>
<path fill="none" stroke="black" d="M1047.8,-507.588C1035.1,-498.225 1020.09,-484.476 1013,-468 993.808,-423.411 1012.38,-366.416 1026.78,-333.577"/>
<polygon fill="black" stroke="black" points="1030.09,-334.751 1031.07,-324.201 1023.73,-331.84 1030.09,-334.751"/>
</g>
<!-- event_tree -->
<g id="node41" class="node"><title>event_tree</title>
<ellipse fill="none" stroke="black" cx="1419" cy="-450" rx="60.3893" ry="18"/>
<text text-anchor="middle" x="1419" y="-446.3" font-family="Times,serif" font-size="14.00">event_tree</text>
</g>
<!-- cycle&#45;&gt;event_tree -->
<g id="edge30" class="edge"><title>cycle&#45;&gt;event_tree</title>
<path fill="none" stroke="black" d="M1095.22,-509.803C1101,-507.636 1107.14,-505.558 1113,-504 1215.54,-476.72 1244.9,-488.539 1349,-468 1354.08,-466.997 1359.36,-465.873 1364.62,-464.694"/>
<polygon fill="black" stroke="black" points="1365.73,-468.03 1374.69,-462.375 1364.16,-461.209 1365.73,-468.03"/>
</g>
<!-- mocus -->
<g id="node20" class="node"><title>mocus</title>
<ellipse fill="none" stroke="black" cx="870" cy="-882" rx="40.8928" ry="18"/>
<text text-anchor="middle" x="870" y="-878.3" font-family="Times,serif" font-size="14.00">mocus</text>
</g>
<!-- mocus&#45;&gt;zbdd -->
<g id="edge31" class="edge"><title>mocus&#45;&gt;zbdd</title>
<path fill="none" stroke="black" d="M853.444,-865.533C826.348,-840.22 772.45,-789.868 741.438,-760.896"/>
<polygon fill="black" stroke="black" points="743.773,-758.288 734.077,-754.019 738.995,-763.403 743.773,-758.288"/>
</g>
<!-- config&#45;&gt;settings -->
<g id="edge34" class="edge"><title>config&#45;&gt;settings</title>
<path fill="none" stroke="black" d="M88.2267,-577.811C99.6263,-568.311 114.51,-555.909 127.235,-545.304"/>
<polygon fill="black" stroke="black" points="129.786,-547.735 135.227,-538.644 125.304,-542.357 129.786,-547.735"/>
</g>
<!-- config&#45;&gt;env -->
<g id="edge32" class="edge"><title>config&#45;&gt;env</title>
<path fill="none" stroke="black" d="M52.5105,-577.377C42.5154,-567.559 30.5127,-554.113 23,-540 3.80204,-503.937 0,-491.855 0,-451 0,-451 0,-451 0,-305 0,-223.455 110.777,-185.146 169.862,-170.512"/>
<polygon fill="black" stroke="black" points="170.988,-173.842 179.91,-168.128 169.372,-167.031 170.988,-173.842"/>
</g>
<!-- xml -->
<g id="node36" class="node"><title>xml</title>
<ellipse fill="none" stroke="black" cx="60" cy="-522" rx="27.8951" ry="18"/>
<text text-anchor="middle" x="60" y="-518.3" font-family="Times,serif" font-size="14.00">xml</text>
</g>
<!-- config&#45;&gt;xml -->
<g id="edge33" class="edge"><title>config&#45;&gt;xml</title>
<path fill="none" stroke="black" d="M67.5281,-575.697C66.4261,-567.983 65.1018,-558.712 63.8732,-550.112"/>
<polygon fill="black" stroke="black" points="67.3226,-549.509 62.4435,-540.104 60.393,-550.499 67.3226,-549.509"/>
</g>
<!-- ext -->
<g id="node22" class="node"><title>ext</title>
<ellipse fill="none" stroke="black" cx="399" cy="-18" rx="27" ry="18"/>
<text text-anchor="middle" x="399" y="-14.3" font-family="Times,serif" font-size="14.00">ext</text>
</g>
<!-- model&#45;&gt;expression/extern -->
<g id="edge35" class="edge"><title>model&#45;&gt;expression/extern</title>
<path fill="none" stroke="black" d="M1179.44,-505.811C1190.66,-496.575 1205.21,-484.595 1217.84,-474.192"/>
<polygon fill="black" stroke="black" points="1220.31,-476.687 1225.81,-467.628 1215.86,-471.283 1220.31,-476.687"/>
</g>
<!-- model&#45;&gt;fault_tree -->
<g id="edge37" class="edge"><title>model&#45;&gt;fault_tree</title>
<path fill="none" stroke="black" d="M1142.99,-505.811C1131.88,-496.443 1117.43,-484.252 1104.97,-473.747"/>
<polygon fill="black" stroke="black" points="1107.03,-470.905 1097.13,-467.134 1102.52,-476.256 1107.03,-470.905"/>
</g>
<!-- substitution -->
<g id="node34" class="node"><title>substitution</title>
<ellipse fill="none" stroke="black" cx="1575" cy="-378" rx="66.8882" ry="18"/>
<text text-anchor="middle" x="1575" y="-374.3" font-family="Times,serif" font-size="14.00">substitution</text>
</g>
<!-- model&#45;&gt;substitution -->
<g id="edge40" class="edge"><title>model&#45;&gt;substitution</title>
<path fill="none" stroke="black" d="M1195.6,-513.346C1211.23,-510.097 1229.98,-506.492 1247,-504 1288.42,-497.934 1593.85,-498.98 1622,-468 1639.53,-448.705 1620.66,-421.671 1601.87,-402.473"/>
<polygon fill="black" stroke="black" points="1604.08,-399.742 1594.48,-395.278 1599.2,-404.76 1604.08,-399.742"/>
</g>
<!-- model&#45;&gt;event_tree -->
<g id="edge39" class="edge"><title>model&#45;&gt;event_tree</title>
<path fill="none" stroke="black" d="M1191.74,-510.812C1199.01,-508.492 1206.76,-506.095 1214,-504 1264.4,-489.415 1322.33,-474.618 1363.72,-464.379"/>
<polygon fill="black" stroke="black" points="1364.73,-467.734 1373.61,-461.942 1363.06,-460.937 1364.73,-467.734"/>
</g>
<!-- alignment -->
<g id="node42" class="node"><title>alignment</title>
<ellipse fill="none" stroke="black" cx="1555" cy="-450" rx="57.6901" ry="18"/>
<text text-anchor="middle" x="1555" y="-446.3" font-family="Times,serif" font-size="14.00">alignment</text>
</g>
<!-- model&#45;&gt;alignment -->
<g id="edge36" class="edge"><title>model&#45;&gt;alignment</title>
<path fill="none" stroke="black" d="M1196.08,-513.679C1211.64,-510.531 1230.2,-506.913 1247,-504 1353.71,-485.494 1381.82,-489.344 1488,-468 1492.75,-467.045 1497.67,-465.969 1502.58,-464.832"/>
<polygon fill="black" stroke="black" points="1503.7,-468.164 1512.61,-462.437 1502.07,-461.356 1503.7,-468.164"/>
</g>
<!-- expression/test_event -->
<g id="node47" class="node"><title>expression/test_event</title>
<ellipse fill="none" stroke="black" cx="816" cy="-450" rx="112.38" ry="18"/>
<text text-anchor="middle" x="816" y="-446.3" font-family="Times,serif" font-size="14.00">expression/test_event</text>
</g>
<!-- model&#45;&gt;expression/test_event -->
<g id="edge38" class="edge"><title>model&#45;&gt;expression/test_event</title>
<path fill="none" stroke="black" d="M1132.05,-509.888C1125.82,-507.741 1119.24,-505.65 1113,-504 1045.75,-486.218 968.334,-472.621 909.406,-463.653"/>
<polygon fill="black" stroke="black" points="909.78,-460.17 899.37,-462.143 908.738,-467.092 909.78,-460.17"/>
</g>
<!-- reporter&#45;&gt;version -->
<g id="edge42" class="edge"><title>reporter&#45;&gt;version</title>
<path fill="none" stroke="black" d="M896.54,-1080.76C905.165,-1071.75 916.046,-1060.39 925.578,-1050.43"/>
<polygon fill="black" stroke="black" points="928.159,-1052.79 932.545,-1043.15 923.102,-1047.95 928.159,-1052.79"/>
</g>
<!-- reporter&#45;&gt;xml_stream -->
<g id="edge43" class="edge"><title>reporter&#45;&gt;xml_stream</title>
<path fill="none" stroke="black" d="M914.829,-1084.65C1008.78,-1047.94 1266,-929.987 1266,-739 1266,-739 1266,-739 1266,-665 1266,-621.905 1288.6,-576.262 1305.08,-548.697"/>
<polygon fill="black" stroke="black" points="1308.13,-550.421 1310.4,-540.072 1302.17,-546.749 1308.13,-550.421"/>
</g>
<!-- risk_analysis -->
<g id="node26" class="node"><title>risk_analysis</title>
<ellipse fill="none" stroke="black" cx="814" cy="-1026" rx="71.4873" ry="18"/>
<text text-anchor="middle" x="814" y="-1022.3" font-family="Times,serif" font-size="14.00">risk_analysis</text>
</g>
<!-- reporter&#45;&gt;risk_analysis -->
<g id="edge41" class="edge"><title>reporter&#45;&gt;risk_analysis</title>
<path fill="none" stroke="black" d="M865.46,-1080.76C857.042,-1071.97 846.474,-1060.93 837.109,-1051.14"/>
<polygon fill="black" stroke="black" points="839.364,-1048.44 829.921,-1043.63 834.307,-1053.28 839.364,-1048.44"/>
</g>
<!-- expression/random_deviate -->
<g id="node25" class="node"><title>expression/random_deviate</title>
<ellipse fill="none" stroke="black" cx="510" cy="-522" rx="138.375" ry="18"/>
<text text-anchor="middle" x="510" y="-518.3" font-family="Times,serif" font-size="14.00">expression/random_deviate</text>
</g>
<!-- expression/random_deviate&#45;&gt;expression -->
<g id="edge44" class="edge"><title>expression/random_deviate&#45;&gt;expression</title>
<path fill="none" stroke="black" d="M519.257,-503.648C532.093,-479.547 555.98,-434.548 576,-396 614.925,-321.049 660.083,-232.058 681.886,-188.962"/>
<polygon fill="black" stroke="black" points="685.029,-190.5 686.419,-179.997 678.783,-187.342 685.029,-190.5"/>
</g>
<!-- risk_analysis&#45;&gt;importance_analysis -->
<g id="edge47" class="edge"><title>risk_analysis&#45;&gt;importance_analysis</title>
<path fill="none" stroke="black" d="M770.09,-1011.75C733.682,-1000.77 681.577,-985.045 641.437,-972.934"/>
<polygon fill="black" stroke="black" points="642.352,-969.554 631.768,-970.016 640.33,-976.256 642.352,-969.554"/>
</g>
<!-- risk_analysis&#45;&gt;mocus -->
<g id="edge48" class="edge"><title>risk_analysis&#45;&gt;mocus</title>
<path fill="none" stroke="black" d="M867.977,-1014.07C891.213,-1006.4 916.176,-993.515 930,-972 938.649,-958.539 936.577,-950.586 930,-936 924.081,-922.875 913.128,-911.693 902.183,-903.032"/>
<polygon fill="black" stroke="black" points="904.021,-900.038 893.899,-896.909 899.861,-905.667 904.021,-900.038"/>
</g>
<!-- risk_analysis&#45;&gt;expression/random_deviate -->
<g id="edge49" class="edge"><title>risk_analysis&#45;&gt;expression/random_deviate</title>
<path fill="none" stroke="black" d="M743.216,-1023.46C653.246,-1019.98 504.914,-1008.68 466,-972 436.566,-944.259 447,-923.447 447,-883 447,-883 447,-883 447,-665 447,-621.195 472.36,-575.814 490.9,-548.491"/>
<polygon fill="black" stroke="black" points="493.78,-550.48 496.639,-540.279 488.042,-546.47 493.78,-550.48"/>
</g>
<!-- event_tree_analysis -->
<g id="node28" class="node"><title>event_tree_analysis</title>
<ellipse fill="none" stroke="black" cx="987" cy="-666" rx="102.882" ry="18"/>
<text text-anchor="middle" x="987" y="-662.3" font-family="Times,serif" font-size="14.00">event_tree_analysis</text>
</g>
<!-- risk_analysis&#45;&gt;event_tree_analysis -->
<g id="edge45" class="edge"><title>risk_analysis&#45;&gt;event_tree_analysis</title>
<path fill="none" stroke="black" d="M867.171,-1013.88C893.867,-1005.99 925.099,-992.975 947,-972 978.32,-942.004 987,-926.367 987,-883 987,-883 987,-883 987,-809 987,-768.996 987,-722.653 987,-694.08"/>
<polygon fill="black" stroke="black" points="990.5,-694.049 987,-684.049 983.5,-694.049 990.5,-694.049"/>
</g>
<!-- uncertainty_analysis -->
<g id="node29" class="node"><title>uncertainty_analysis</title>
<ellipse fill="none" stroke="black" cx="814" cy="-954" rx="107.482" ry="18"/>
<text text-anchor="middle" x="814" y="-950.3" font-family="Times,serif" font-size="14.00">uncertainty_analysis</text>
</g>
<!-- risk_analysis&#45;&gt;uncertainty_analysis -->
<g id="edge46" class="edge"><title>risk_analysis&#45;&gt;uncertainty_analysis</title>
<path fill="none" stroke="black" d="M814,-1007.7C814,-999.983 814,-990.712 814,-982.112"/>
<polygon fill="black" stroke="black" points="817.5,-982.104 814,-972.104 810.5,-982.104 817.5,-982.104"/>
</g>
<!-- expression/constant&#45;&gt;expression -->
<g id="edge50" class="edge"><title>expression/constant&#45;&gt;expression</title>
<path fill="none" stroke="black" d="M813.669,-216.941C790.543,-206.429 760.24,-192.655 736.045,-181.657"/>
<polygon fill="black" stroke="black" points="737.316,-178.39 726.764,-177.438 734.419,-184.762 737.316,-178.39"/>
</g>
<!-- event_tree_analysis&#45;&gt;expression/numerical -->
<g id="edge51" class="edge"><title>event_tree_analysis&#45;&gt;expression/numerical</title>
<path fill="none" stroke="black" d="M989.766,-647.878C992.247,-629.914 995.063,-600.883 992,-576 987.97,-543.262 985.615,-534.872 974,-504 948.755,-436.899 899.535,-367.752 871.954,-331.927"/>
<polygon fill="black" stroke="black" points="874.666,-329.712 865.762,-323.971 869.142,-334.012 874.666,-329.712"/>
</g>
<!-- event_tree_analysis&#45;&gt;analysis -->
<g id="edge53" class="edge"><title>event_tree_analysis&#45;&gt;analysis</title>
<path fill="none" stroke="black" d="M892.141,-658.982C729.455,-648.461 403.766,-626.467 290,-612 275.823,-610.197 260.546,-607.708 246.477,-605.191"/>
<polygon fill="black" stroke="black" points="246.946,-601.719 236.479,-603.362 245.686,-608.604 246.946,-601.719"/>
</g>
<!-- event_tree_analysis&#45;&gt;event_tree -->
<g id="edge54" class="edge"><title>event_tree_analysis&#45;&gt;event_tree</title>
<path fill="none" stroke="black" d="M1065.41,-654.363C1120.45,-645.43 1187.84,-631.065 1209,-612 1246.8,-577.937 1210.32,-539.265 1247,-504 1255.81,-495.534 1318.03,-477.635 1365.13,-464.986"/>
<polygon fill="black" stroke="black" points="1366.17,-468.332 1374.93,-462.372 1364.36,-461.568 1366.17,-468.332"/>
</g>
<!-- event_tree_analysis&#45;&gt;expression/test_event -->
<g id="edge52" class="edge"><title>event_tree_analysis&#45;&gt;expression/test_event</title>
<path fill="none" stroke="black" d="M987.815,-647.673C988.382,-615.441 985.013,-545.756 949,-504 934.5,-487.188 913.927,-475.655 893.285,-467.765"/>
<polygon fill="black" stroke="black" points="894.412,-464.451 883.817,-464.39 892.061,-471.044 894.412,-464.451"/>
</g>
<!-- uncertainty_analysis&#45;&gt;probability_analysis -->
<g id="edge55" class="edge"><title>uncertainty_analysis&#45;&gt;probability_analysis</title>
<path fill="none" stroke="black" d="M766.48,-937.811C732.903,-927.079 687.733,-912.641 652.182,-901.277"/>
<polygon fill="black" stroke="black" points="653.018,-897.87 642.427,-898.159 650.887,-904.538 653.018,-897.87"/>
</g>
<!-- parameter&#45;&gt;expression -->
<g id="edge56" class="edge"><title>parameter&#45;&gt;expression</title>
<path fill="none" stroke="black" d="M1030.16,-287.886C1017.42,-267.367 993.208,-233.554 963,-216 902.583,-180.892 822.943,-168.64 766.216,-164.564"/>
<polygon fill="black" stroke="black" points="766.106,-161.05 755.901,-163.895 765.653,-168.035 766.106,-161.05"/>
</g>
<!-- parameter&#45;&gt;element -->
<g id="edge57" class="edge"><title>parameter&#45;&gt;element</title>
<path fill="none" stroke="black" d="M1079.23,-292.405C1116.86,-280.321 1173.63,-262.091 1213.06,-249.429"/>
<polygon fill="black" stroke="black" points="1214.24,-252.727 1222.69,-246.337 1212.1,-246.062 1214.24,-252.727"/>
</g>
<!-- analysis&#45;&gt;settings -->
<g id="edge58" class="edge"><title>analysis&#45;&gt;settings</title>
<path fill="none" stroke="black" d="M185.075,-576.055C180.24,-567.801 174.325,-557.701 168.958,-548.538"/>
<polygon fill="black" stroke="black" points="171.908,-546.649 163.834,-539.789 165.868,-550.187 171.908,-546.649"/>
</g>
<!-- initializer&#45;&gt;settings -->
<g id="edge59" class="edge"><title>initializer&#45;&gt;settings</title>
<path fill="none" stroke="black" d="M317.782,-580.324C284.032,-568.511 233.649,-550.877 197.684,-538.289"/>
<polygon fill="black" stroke="black" points="198.543,-534.882 187.949,-534.882 196.231,-541.489 198.543,-534.882"/>
</g>
<!-- initializer&#45;&gt;env -->
<g id="edge60" class="edge"><title>initializer&#45;&gt;env</title>
<path fill="none" stroke="black" d="M315.269,-581.049C294.295,-572.703 269.563,-559.506 254,-540 228.45,-507.975 230,-491.969 230,-451 230,-451 230,-451 230,-305 230,-264.429 220.357,-218.237 213.296,-189.852"/>
<polygon fill="black" stroke="black" points="216.617,-188.71 210.742,-179.893 209.836,-190.449 216.617,-188.71"/>
</g>
<!-- initializer&#45;&gt;logger -->
<g id="edge61" class="edge"><title>initializer&#45;&gt;logger</title>
<path fill="none" stroke="black" d="M335.762,-576.602C310.517,-552.006 268,-502.879 268,-451 268,-451 268,-451 268,-233 268,-191.633 283.235,-145.722 294.412,-117.605"/>
<polygon fill="black" stroke="black" points="297.756,-118.673 298.31,-108.093 291.279,-116.019 297.756,-118.673"/>
</g>
<!-- initializer&#45;&gt;cycle -->
<g id="edge62" class="edge"><title>initializer&#45;&gt;cycle</title>
<path fill="none" stroke="black" d="M407.43,-589.175C511.722,-581.503 749.646,-562.984 949,-540 974.559,-537.053 1003.08,-533.043 1025.9,-529.658"/>
<polygon fill="black" stroke="black" points="1026.58,-533.095 1035.95,-528.152 1025.54,-526.172 1026.58,-533.095"/>
</g>
<!-- initializer&#45;&gt;model -->
<g id="edge63" class="edge"><title>initializer&#45;&gt;model</title>
<path fill="none" stroke="black" d="M407.839,-589.641C575.405,-579.134 1078.55,-547.165 1113,-540 1116.25,-539.325 1119.57,-538.483 1122.88,-537.537"/>
<polygon fill="black" stroke="black" points="1124.19,-540.794 1132.68,-534.453 1122.09,-534.117 1124.19,-540.794"/>
</g>
<!-- initializer&#45;&gt;expression/random_deviate -->
<g id="edge64" class="edge"><title>initializer&#45;&gt;expression/random_deviate</title>
<path fill="none" stroke="black" d="M385.194,-579.003C407.743,-568.884 438.574,-555.05 463.95,-543.663"/>
<polygon fill="black" stroke="black" points="465.69,-546.719 473.38,-539.432 462.824,-540.333 465.69,-546.719"/>
</g>
<!-- initializer&#45;&gt;xml -->
<g id="edge65" class="edge"><title>initializer&#45;&gt;xml</title>
<path fill="none" stroke="black" d="M306.627,-584.564C243.501,-573.094 135.309,-552.569 97,-540 95.0857,-539.372 93.139,-538.673 91.191,-537.927"/>
<polygon fill="black" stroke="black" points="92.1583,-534.538 81.582,-533.911 89.4588,-540.996 92.1583,-534.538"/>
</g>
<!-- expression/boolean -->
<g id="node39" class="node"><title>expression/boolean</title>
<ellipse fill="none" stroke="black" cx="472" cy="-234" rx="100.182" ry="18"/>
<text text-anchor="middle" x="472" y="-230.3" font-family="Times,serif" font-size="14.00">expression/boolean</text>
</g>
<!-- initializer&#45;&gt;expression/boolean -->
<g id="edge66" class="edge"><title>initializer&#45;&gt;expression/boolean</title>
<path fill="none" stroke="black" d="M344.286,-576.137C330.261,-550.153 306,-498.362 306,-451 306,-451 306,-451 306,-377 306,-316.379 370.717,-276.1 419.334,-254.394"/>
<polygon fill="black" stroke="black" points="421.025,-257.476 428.819,-250.3 418.251,-251.049 421.025,-257.476"/>
</g>
<!-- expression/conditional -->
<g id="node43" class="node"><title>expression/conditional</title>
<ellipse fill="none" stroke="black" cx="451" cy="-378" rx="115.88" ry="18"/>
<text text-anchor="middle" x="451" y="-374.3" font-family="Times,serif" font-size="14.00">expression/conditional</text>
</g>
<!-- initializer&#45;&gt;expression/conditional -->
<g id="edge67" class="edge"><title>initializer&#45;&gt;expression/conditional</title>
<path fill="none" stroke="black" d="M353.197,-575.687C352.922,-557.314 354.151,-527.717 363,-504 377.503,-465.128 407.108,-427.118 427.963,-403.413"/>
<polygon fill="black" stroke="black" points="430.594,-405.723 434.666,-395.942 425.383,-401.048 430.594,-405.723"/>
</g>
<!-- initializer&#45;&gt;expression/exponential -->
<g id="edge68" class="edge"><title>initializer&#45;&gt;expression/exponential</title>
<path fill="none" stroke="black" d="M403.2,-585.641C480.796,-574.035 632.829,-551.295 730.797,-536.642"/>
<polygon fill="black" stroke="black" points="731.321,-540.102 740.694,-535.161 730.286,-533.179 731.321,-540.102"/>
</g>
<!-- event&#45;&gt;expression -->
<g id="edge70" class="edge"><title>event&#45;&gt;expression</title>
<path fill="none" stroke="black" d="M1335.81,-287.992C1336.93,-267.579 1335.26,-233.873 1315,-216 1274.56,-180.327 920.06,-168.059 765.989,-164.388"/>
<polygon fill="black" stroke="black" points="765.771,-160.882 755.693,-164.148 765.608,-167.88 765.771,-160.882"/>
</g>
<!-- event&#45;&gt;element -->
<g id="edge69" class="edge"><title>event&#45;&gt;element</title>
<path fill="none" stroke="black" d="M1317.51,-289.811C1307.36,-280.467 1294.17,-268.315 1282.78,-257.827"/>
<polygon fill="black" stroke="black" points="1284.98,-255.089 1275.25,-250.888 1280.23,-260.237 1284.98,-255.089"/>
</g>
<!-- substitution&#45;&gt;event -->
<g id="edge71" class="edge"><title>substitution&#45;&gt;event</title>
<path fill="none" stroke="black" d="M1531.36,-364.324C1486.68,-351.348 1417.82,-331.346 1374.37,-318.727"/>
<polygon fill="black" stroke="black" points="1375.29,-315.347 1364.71,-315.919 1373.33,-322.07 1375.29,-315.347"/>
</g>
<!-- pdag&#45;&gt;logger -->
<g id="edge72" class="edge"><title>pdag&#45;&gt;logger</title>
<path fill="none" stroke="black" d="M673.904,-575.835C671.318,-557.585 666.105,-528.09 657,-504 631.039,-435.312 629.03,-410.791 576,-360 499.347,-286.583 433.059,-331.734 363,-252 328.945,-213.242 314.851,-152.793 309.316,-118.044"/>
<polygon fill="black" stroke="black" points="312.777,-117.522 307.86,-108.137 305.851,-118.54 312.777,-117.522"/>
</g>
<!-- pdag&#45;&gt;model -->
<g id="edge73" class="edge"><title>pdag&#45;&gt;model</title>
<path fill="none" stroke="black" d="M709.604,-591.441C783.461,-587.469 965.126,-574.708 1113,-540 1116.18,-539.253 1119.45,-538.366 1122.71,-537.396"/>
<polygon fill="black" stroke="black" points="1123.92,-540.684 1132.37,-534.293 1121.78,-534.019 1123.92,-540.684"/>
</g>
<!-- xml&#45;&gt;error -->
<g id="edge74" class="edge"><title>xml&#45;&gt;error</title>
<path fill="none" stroke="black" d="M80.2542,-509.426C96.2453,-499.675 118.53,-484.675 135,-468 257.843,-343.627 254.923,-285.189 358,-144 364.966,-134.459 372.856,-124.148 379.842,-115.179"/>
<polygon fill="black" stroke="black" points="382.791,-117.09 386.203,-107.06 377.281,-112.773 382.791,-117.09"/>
</g>
<!-- LibXML -->
<g id="node44" class="node"><title>LibXML</title>
<ellipse fill="none" stroke="black" cx="77" cy="-450" rx="48.9926" ry="18"/>
<text text-anchor="middle" x="77" y="-446.3" font-family="Times,serif" font-size="14.00">LibXML</text>
</g>
<!-- xml&#45;&gt;LibXML -->
<g id="edge75" class="edge"><title>xml&#45;&gt;LibXML</title>
<path fill="none" stroke="black" d="M64.1152,-504.055C66.0081,-496.261 68.3004,-486.822 70.4237,-478.079"/>
<polygon fill="black" stroke="black" points="73.8457,-478.819 72.8046,-468.275 67.0434,-477.167 73.8457,-478.819"/>
</g>
<!-- element&#45;&gt;error -->
<g id="edge76" class="edge"><title>element&#45;&gt;error</title>
<path fill="none" stroke="black" d="M1221.11,-222.22C1212.88,-220.003 1204.18,-217.799 1196,-216 911.518,-153.408 563.251,-110.017 442.59,-95.9387"/>
<polygon fill="black" stroke="black" points="442.632,-92.4202 432.295,-94.7445 441.825,-99.3736 442.632,-92.4202"/>
</g>
<!-- error&#45;&gt;Boost -->
<g id="edge79" class="edge"><title>error&#45;&gt;Boost</title>
<path fill="none" stroke="black" d="M380.766,-74.496C368.225,-64.5202 351.373,-51.1145 337.372,-39.978"/>
<polygon fill="black" stroke="black" points="339.518,-37.2125 329.513,-33.7263 335.16,-42.6907 339.518,-37.2125"/>
</g>
<!-- error&#45;&gt;ext -->
<g id="edge77" class="edge"><title>error&#45;&gt;ext</title>
<path fill="none" stroke="black" d="M399,-71.6966C399,-63.9827 399,-54.7125 399,-46.1124"/>
<polygon fill="black" stroke="black" points="402.5,-46.1043 399,-36.1043 395.5,-46.1044 402.5,-46.1043"/>
</g>
<!-- error&#45;&gt;STL -->
<g id="edge78" class="edge"><title>error&#45;&gt;STL</title>
<path fill="none" stroke="black" d="M372.166,-78.5479C339.127,-65.651 284.943,-44.4002 265,-36 262.944,-35.1338 260.83,-34.2293 258.704,-33.3083"/>
<polygon fill="black" stroke="black" points="259.996,-30.0531 249.433,-29.2324 257.179,-36.4612 259.996,-30.0531"/>
</g>
<!-- expression/boolean&#45;&gt;expression -->
<g id="edge80" class="edge"><title>expression/boolean&#45;&gt;expression</title>
<path fill="none" stroke="black" d="M519.566,-218.069C556.436,-206.495 607.394,-190.5 644.893,-178.729"/>
<polygon fill="black" stroke="black" points="646.111,-182.015 654.603,-175.681 644.014,-175.336 646.111,-182.015"/>
</g>
<!-- event_tree&#45;&gt;instruction -->
<g id="edge81" class="edge"><title>event_tree&#45;&gt;instruction</title>
<path fill="none" stroke="black" d="M1419,-431.697C1419,-423.983 1419,-414.712 1419,-406.112"/>
<polygon fill="black" stroke="black" points="1422.5,-406.104 1419,-396.104 1415.5,-406.104 1422.5,-406.104"/>
</g>
<!-- alignment&#45;&gt;instruction -->
<g id="edge82" class="edge"><title>alignment&#45;&gt;instruction</title>
<path fill="none" stroke="black" d="M1526.49,-434.326C1506.45,-424.012 1479.42,-410.096 1457.47,-398.801"/>
<polygon fill="black" stroke="black" points="1458.9,-395.603 1448.41,-394.138 1455.7,-401.827 1458.9,-395.603"/>
</g>
<!-- expression/conditional&#45;&gt;expression -->
<g id="edge83" class="edge"><title>expression/conditional&#45;&gt;expression</title>
<path fill="none" stroke="black" d="M468.112,-359.897C498.539,-329.759 564.46,-265.68 624,-216 636.763,-205.351 651.402,-194.248 664.059,-184.973"/>
<polygon fill="black" stroke="black" points="666.425,-187.58 672.458,-178.871 662.31,-181.917 666.425,-187.58"/>
</g>
<!-- expression/exponential&#45;&gt;expression -->
<g id="edge84" class="edge"><title>expression/exponential&#45;&gt;expression</title>
<path fill="none" stroke="black" d="M756.318,-506.892C733.89,-498.972 710.566,-486.75 695,-468 669.164,-436.88 676,-419.447 676,-379 676,-379 676,-379 676,-305 676,-264.86 683.551,-218.897 689.132,-190.405"/>
<polygon fill="black" stroke="black" points="692.606,-190.883 691.155,-180.388 685.745,-189.498 692.606,-190.883"/>
</g>
<!-- bdd&#45;&gt;zbdd -->
<g id="edge86" class="edge"><title>bdd&#45;&gt;zbdd</title>
<path fill="none" stroke="black" d="M687.855,-681.424C694.489,-690.015 701.978,-701.17 707.97,-711.23"/>
<polygon fill="black" stroke="black" points="705.002,-713.09 712.985,-720.055 711.088,-709.631 705.002,-713.09"/>
</g>
<!-- bdd&#45;&gt;settings -->
<g id="edge85" class="edge"><title>bdd&#45;&gt;settings</title>
<path fill="none" stroke="black" d="M644.911,-662.115C561.974,-653.458 321.954,-627.354 290,-612 269.031,-601.924 270.838,-589.651 252,-576 233.509,-562.601 211.232,-550.289 192.593,-540.911"/>
<polygon fill="black" stroke="black" points="194.009,-537.707 183.493,-536.418 190.91,-543.983 194.009,-537.707"/>
</g>
<!-- bdd&#45;&gt;pdag -->
<g id="edge87" class="edge"><title>bdd&#45;&gt;pdag</title>
<path fill="none" stroke="black" d="M673.742,-647.697C674.072,-639.983 674.469,-630.712 674.838,-622.112"/>
<polygon fill="black" stroke="black" points="678.335,-622.245 675.267,-612.104 671.342,-621.945 678.335,-622.245"/>
</g>
<!-- expression/test_event&#45;&gt;expression -->
<g id="edge88" class="edge"><title>expression/test_event&#45;&gt;expression</title>
<path fill="none" stroke="black" d="M801.775,-431.939C783.258,-408.882 751.128,-365.828 733,-324 713.607,-279.255 703.222,-223.034 698.427,-190.247"/>
<polygon fill="black" stroke="black" points="701.857,-189.499 697.011,-180.077 694.924,-190.465 701.857,-189.499"/>
</g>
<!-- ccf_group&#45;&gt;expression/numerical -->
<g id="edge89" class="edge"><title>ccf_group&#45;&gt;expression/numerical</title>
<path fill="none" stroke="black" d="M1074.72,-365.831C1032.34,-354.636 966.508,-337.248 917.393,-324.274"/>
<polygon fill="black" stroke="black" points="918.056,-320.829 907.493,-321.659 916.268,-327.597 918.056,-320.829"/>
</g>
<!-- ccf_group&#45;&gt;event -->
<g id="edge90" class="edge"><title>ccf_group&#45;&gt;event</title>
<path fill="none" stroke="black" d="M1155.8,-364.485C1195.02,-351.833 1255.31,-332.383 1294.71,-319.674"/>
<polygon fill="black" stroke="black" points="1295.81,-322.997 1304.25,-316.596 1293.66,-316.335 1295.81,-322.997"/>
</g>
</g>
</svg>
