<?xml version="1.0" encoding="UTF-8" standalone="no"?>
<!DOCTYPE svg PUBLIC "-//W3C//DTD SVG 1.1//EN"
 "http://www.w3.org/Graphics/SVG/1.1/DTD/svg11.dtd">
<!-- Generated by graphviz version 2.38.0 (20140413.2041)
 -->
<!-- Title: serialization.cc Pages: 1 -->
<svg width="3027pt" height="453pt"
 viewBox="0.00 0.00 3026.58 453.00" xmlns="http://www.w3.org/2000/svg" xmlns:xlink="http://www.w3.org/1999/xlink">
<g id="graph0" class="graph" transform="scale(1 1) rotate(0) translate(4 449)">
<title>serialization.cc</title>
<polygon fill="white" stroke="none" points="-4,4 -4,-449 3022.58,-449 3022.58,4 -4,4"/>
<!-- Node1 -->
<g id="node1" class="node"><title>Node1</title>
<polygon fill="#bfbfbf" stroke="black" points="1876.58,-425.5 1876.58,-444.5 1963.58,-444.5 1963.58,-425.5 1876.58,-425.5"/>
<text text-anchor="middle" x="1920.08" y="-432.5" font-family="Helvetica,sans-Serif" font-size="10.00">serialization.cc</text>
</g>
<!-- Node2 -->
<g id="node2" class="node"><title>Node2</title>
<g id="a_node2"><a xlink:href="serialization_8h.xhtml" target="_top" xlink:title="The MEF Model serialization facilities. ">
<polygon fill="white" stroke="black" points="2328.58,-364 2328.58,-383 2411.58,-383 2411.58,-364 2328.58,-364"/>
<text text-anchor="middle" x="2370.08" y="-371" font-family="Helvetica,sans-Serif" font-size="10.00">serialization.h</text>
</a>
</g>
</g>
<!-- Node1&#45;&gt;Node2 -->
<g id="edge1" class="edge"><title>Node1&#45;&gt;Node2</title>
<path fill="none" stroke="midnightblue" d="M1963.64,-428.241C2047.02,-417.216 2228.84,-393.174 2318.29,-381.348"/>
<polygon fill="midnightblue" stroke="midnightblue" points="2319.01,-384.783 2328.46,-380.002 2318.09,-377.843 2319.01,-384.783"/>
</g>
<!-- Node6 -->
<g id="node6" class="node"><title>Node6</title>
<polygon fill="white" stroke="#bfbfbf" points="1243.58,-73 1243.58,-92 1300.58,-92 1300.58,-73 1243.58,-73"/>
<text text-anchor="middle" x="1272.08" y="-80" font-family="Helvetica,sans-Serif" font-size="10.00">memory</text>
</g>
<!-- Node1&#45;&gt;Node6 -->
<g id="edge111" class="edge"><title>Node1&#45;&gt;Node6</title>
<path fill="none" stroke="midnightblue" d="M1922.41,-425.268C1927.48,-405.459 1939.08,-355.529 1939.08,-313 1939.08,-313 1939.08,-313 1939.08,-255 1939.08,-163.703 1858.48,-166.274 1773.08,-134 1611.49,-72.935 1557.78,-116.901 1386.08,-98 1360.91,-95.2298 1332.68,-91.6429 1310.61,-88.7298"/>
<polygon fill="midnightblue" stroke="midnightblue" points="1311,-85.2506 1300.63,-87.4023 1310.08,-92.1896 1311,-85.2506"/>
</g>
<!-- Node9 -->
<g id="node9" class="node"><title>Node9</title>
<g id="a_node9"><a xlink:href="element_8h.xhtml" target="_top" xlink:title="Helper classes, structs, and properties common to all other classes. ">
<polygon fill="white" stroke="black" points="549.579,-73 549.579,-92 614.579,-92 614.579,-73 549.579,-73"/>
<text text-anchor="middle" x="582.079" y="-80" font-family="Helvetica,sans-Serif" font-size="10.00">element.h</text>
</a>
</g>
</g>
<!-- Node1&#45;&gt;Node9 -->
<g id="edge115" class="edge"><title>Node1&#45;&gt;Node9</title>
<path fill="none" stroke="midnightblue" d="M1876.55,-433.383C1603.73,-429.237 141.079,-402.823 141.079,-313 141.079,-313 141.079,-313 141.079,-255 141.079,-182.62 186.36,-168.334 250.079,-134 299.282,-107.487 461.012,-92.3611 539.115,-86.4373"/>
<polygon fill="midnightblue" stroke="midnightblue" points="539.847,-89.8927 549.56,-85.6623 539.329,-82.9119 539.847,-89.8927"/>
</g>
<!-- Node16 -->
<g id="node16" class="node"><title>Node16</title>
<g id="a_node16"><a xlink:href="event_8h.xhtml" target="_top" xlink:title="Contains event classes for fault trees. ">
<polygon fill="white" stroke="black" points="587.579,-134.5 587.579,-153.5 640.579,-153.5 640.579,-134.5 587.579,-134.5"/>
<text text-anchor="middle" x="614.079" y="-141.5" font-family="Helvetica,sans-Serif" font-size="10.00">event.h</text>
</a>
</g>
</g>
<!-- Node1&#45;&gt;Node16 -->
<g id="edge116" class="edge"><title>Node1&#45;&gt;Node16</title>
<path fill="none" stroke="midnightblue" d="M1876.25,-433.058C1622.56,-427.166 349.639,-391.453 236.079,-266 137.638,-157.25 464.311,-145.694 577.145,-144.886"/>
<polygon fill="midnightblue" stroke="midnightblue" points="577.391,-148.385 587.375,-144.839 577.359,-141.385 577.391,-148.385"/>
</g>
<!-- Node19 -->
<g id="node19" class="node"><title>Node19</title>
<g id="a_node19"><a xlink:href="expression_8h.xhtml" target="_top" xlink:title="Provides the base class for all expressions and units for expression values. ">
<polygon fill="white" stroke="black" points="1071.58,-73 1071.58,-92 1148.58,-92 1148.58,-73 1071.58,-73"/>
<text text-anchor="middle" x="1110.08" y="-80" font-family="Helvetica,sans-Serif" font-size="10.00">expression.h</text>
</a>
</g>
</g>
<!-- Node1&#45;&gt;Node19 -->
<g id="edge117" class="edge"><title>Node1&#45;&gt;Node19</title>
<path fill="none" stroke="midnightblue" d="M1913.01,-425.094C1883.87,-389.054 1768.6,-252.945 1641.08,-190 1568.31,-154.082 1540,-176.646 1462.08,-154 1438.3,-147.09 1433.96,-140.532 1410.08,-134 1323.15,-110.225 1218.83,-95.7087 1158.91,-88.6706"/>
<polygon fill="midnightblue" stroke="midnightblue" points="1159.31,-85.1931 1148.97,-87.5239 1158.51,-92.147 1159.31,-85.1931"/>
</g>
<!-- Node41 -->
<g id="node41" class="node"><title>Node41</title>
<g id="a_node41"><a xlink:href="fault__tree_8h.xhtml" target="_top" xlink:title="Fault Tree and Component containers. ">
<polygon fill="white" stroke="black" points="1184.58,-246.5 1184.58,-265.5 1255.58,-265.5 1255.58,-246.5 1184.58,-246.5"/>
<text text-anchor="middle" x="1220.08" y="-253.5" font-family="Helvetica,sans-Serif" font-size="10.00">fault_tree.h</text>
</a>
</g>
</g>
<!-- Node1&#45;&gt;Node41 -->
<g id="edge123" class="edge"><title>Node1&#45;&gt;Node41</title>
<path fill="none" stroke="midnightblue" d="M1883.84,-425.457C1846.14,-416.528 1785.41,-402.028 1733.08,-389 1557.96,-345.403 1349.89,-291.085 1262.28,-268.097"/>
<polygon fill="midnightblue" stroke="midnightblue" points="1263.01,-264.67 1252.44,-265.516 1261.23,-271.441 1263.01,-264.67"/>
</g>
<!-- Node45 -->
<g id="node45" class="node"><title>Node45</title>
<polygon fill="white" stroke="#bfbfbf" points="2532.58,-67.5 2532.58,-97.5 2659.58,-97.5 2659.58,-67.5 2532.58,-67.5"/>
<text text-anchor="start" x="2540.58" y="-85.5" font-family="Helvetica,sans-Serif" font-size="10.00">boost/exception/errinfo</text>
<text text-anchor="middle" x="2596.08" y="-74.5" font-family="Helvetica,sans-Serif" font-size="10.00">_errno.hpp</text>
</g>
<!-- Node1&#45;&gt;Node45 -->
<g id="edge112" class="edge"><title>Node1&#45;&gt;Node45</title>
<path fill="none" stroke="midnightblue" d="M1963.81,-432.289C2069.26,-427.806 2335.08,-414.285 2420.08,-389 2489.07,-368.479 2563.08,-384.974 2563.08,-313 2563.08,-313 2563.08,-313 2563.08,-199 2563.08,-166.119 2575.6,-129.929 2585.21,-106.978"/>
<polygon fill="midnightblue" stroke="midnightblue" points="2588.46,-108.278 2589.24,-97.7122 2582.04,-105.487 2588.46,-108.278"/>
</g>
<!-- Node46 -->
<g id="node46" class="node"><title>Node46</title>
<polygon fill="white" stroke="#bfbfbf" points="1967.58,-358.5 1967.58,-388.5 2094.58,-388.5 2094.58,-358.5 1967.58,-358.5"/>
<text text-anchor="start" x="1975.58" y="-376.5" font-family="Helvetica,sans-Serif" font-size="10.00">boost/exception/errinfo</text>
<text text-anchor="middle" x="2031.08" y="-365.5" font-family="Helvetica,sans-Serif" font-size="10.00">_file_name.hpp</text>
</g>
<!-- Node1&#45;&gt;Node46 -->
<g id="edge113" class="edge"><title>Node1&#45;&gt;Node46</title>
<path fill="none" stroke="midnightblue" d="M1935.98,-425.475C1951.58,-417.115 1975.88,-404.09 1996.01,-393.299"/>
<polygon fill="midnightblue" stroke="midnightblue" points="1997.76,-396.332 2004.92,-388.523 1994.45,-390.163 1997.76,-396.332"/>
</g>
<!-- Node47 -->
<g id="node47" class="node"><title>Node47</title>
<polygon fill="white" stroke="#bfbfbf" points="2112.58,-358.5 2112.58,-388.5 2239.58,-388.5 2239.58,-358.5 2112.58,-358.5"/>
<text text-anchor="start" x="2120.58" y="-376.5" font-family="Helvetica,sans-Serif" font-size="10.00">boost/exception/errinfo</text>
<text text-anchor="middle" x="2176.08" y="-365.5" font-family="Helvetica,sans-Serif" font-size="10.00">_file_open_mode.hpp</text>
</g>
<!-- Node1&#45;&gt;Node47 -->
<g id="edge114" class="edge"><title>Node1&#45;&gt;Node47</title>
<path fill="none" stroke="midnightblue" d="M1956.76,-425.475C1995.56,-416.456 2057.73,-402.008 2105.98,-390.792"/>
<polygon fill="midnightblue" stroke="midnightblue" points="2106.8,-394.196 2115.74,-388.523 2105.21,-387.378 2106.8,-394.196"/>
</g>
<!-- Node48 -->
<g id="node48" class="node"><title>Node48</title>
<g id="a_node48"><a xlink:href="constant_8h.xhtml" target="_top" xlink:title="Constant expressions that cannot have uncertainties. ">
<polygon fill="white" stroke="black" points="1637.08,-302.5 1637.08,-321.5 1759.08,-321.5 1759.08,-302.5 1637.08,-302.5"/>
<text text-anchor="middle" x="1698.08" y="-309.5" font-family="Helvetica,sans-Serif" font-size="10.00">expression/constant.h</text>
</a>
</g>
</g>
<!-- Node1&#45;&gt;Node48 -->
<g id="edge118" class="edge"><title>Node1&#45;&gt;Node48</title>
<path fill="none" stroke="midnightblue" d="M1876.57,-426.578C1846.01,-420 1805.04,-408.356 1773.08,-389 1747.29,-373.381 1724,-346.931 1710.44,-329.717"/>
<polygon fill="midnightblue" stroke="midnightblue" points="1713.13,-327.477 1704.27,-321.663 1707.57,-331.731 1713.13,-327.477"/>
</g>
<!-- Node49 -->
<g id="node49" class="node"><title>Node49</title>
<g id="a_node49"><a xlink:href="exponential_8h.xhtml" target="_top" xlink:title="Expressions and distributions that are described with exponential formulas. ">
<polygon fill="white" stroke="black" points="1471.08,-134.5 1471.08,-153.5 1607.08,-153.5 1607.08,-134.5 1471.08,-134.5"/>
<text text-anchor="middle" x="1539.08" y="-141.5" font-family="Helvetica,sans-Serif" font-size="10.00">expression/exponential.h</text>
</a>
</g>
</g>
<!-- Node1&#45;&gt;Node49 -->
<g id="edge120" class="edge"><title>Node1&#45;&gt;Node49</title>
<path fill="none" stroke="midnightblue" d="M1917.28,-425.019C1905.44,-388.687 1855.8,-251.605 1763.08,-190 1720.15,-161.481 1663.1,-150.319 1617.32,-146.242"/>
<polygon fill="midnightblue" stroke="midnightblue" points="1617.38,-142.736 1607.14,-145.434 1616.83,-149.714 1617.38,-142.736"/>
</g>
<!-- Node50 -->
<g id="node50" class="node"><title>Node50</title>
<g id="a_node50"><a xlink:href="xml__stream_8h.xhtml" target="_top" xlink:title="Facilities to stream data in XML format. ">
<polygon fill="white" stroke="black" points="2665.58,-134.5 2665.58,-153.5 2748.58,-153.5 2748.58,-134.5 2665.58,-134.5"/>
<text text-anchor="middle" x="2707.08" y="-141.5" font-family="Helvetica,sans-Serif" font-size="10.00">xml_stream.h</text>
</a>
</g>
</g>
<!-- Node1&#45;&gt;Node50 -->
<g id="edge124" class="edge"><title>Node1&#45;&gt;Node50</title>
<path fill="none" stroke="midnightblue" d="M1963.79,-432.765C2101.64,-428.628 2521.45,-414.085 2577.08,-389 2620.91,-369.234 2654.08,-361.084 2654.08,-313 2654.08,-313 2654.08,-313 2654.08,-255 2654.08,-218.992 2677.41,-182.339 2693.12,-161.75"/>
<polygon fill="midnightblue" stroke="midnightblue" points="2696.01,-163.729 2699.49,-153.719 2690.53,-159.379 2696.01,-163.729"/>
</g>
<!-- Node3 -->
<g id="node3" class="node"><title>Node3</title>
<polygon fill="white" stroke="#bfbfbf" points="2469.58,-73 2469.58,-92 2514.58,-92 2514.58,-73 2469.58,-73"/>
<text text-anchor="middle" x="2492.08" y="-80" font-family="Helvetica,sans-Serif" font-size="10.00">cstdio</text>
</g>
<!-- Node2&#45;&gt;Node3 -->
<g id="edge2" class="edge"><title>Node2&#45;&gt;Node3</title>
<path fill="none" stroke="midnightblue" d="M2391.69,-363.973C2410.47,-355.646 2437.37,-341.396 2455.08,-322 2476.66,-298.362 2486.08,-289.006 2486.08,-257 2486.08,-257 2486.08,-257 2486.08,-199 2486.08,-164.818 2488.73,-125.021 2490.51,-102.194"/>
<polygon fill="midnightblue" stroke="midnightblue" points="2494,-102.435 2491.32,-92.1854 2487.02,-101.871 2494,-102.435"/>
</g>
<!-- Node4 -->
<g id="node4" class="node"><title>Node4</title>
<polygon fill="white" stroke="#bfbfbf" points="1345.08,-6 1345.08,-25 1389.08,-25 1389.08,-6 1345.08,-6"/>
<text text-anchor="middle" x="1367.08" y="-13" font-family="Helvetica,sans-Serif" font-size="10.00">string</text>
</g>
<!-- Node2&#45;&gt;Node4 -->
<g id="edge3" class="edge"><title>Node2&#45;&gt;Node4</title>
<path fill="none" stroke="midnightblue" d="M2380.25,-363.77C2399.88,-345.888 2441.08,-302.899 2441.08,-257 2441.08,-257 2441.08,-257 2441.08,-143 2441.08,-87.5298 2394.12,-86.189 2342.08,-67 2296.95,-50.3599 1565.03,-23.516 1399.97,-17.6542"/>
<polygon fill="midnightblue" stroke="midnightblue" points="1399.62,-14.1398 1389.5,-17.2838 1399.37,-21.1354 1399.62,-14.1398"/>
</g>
<!-- Node5 -->
<g id="node5" class="node"><title>Node5</title>
<g id="a_node5"><a xlink:href="model_8h.xhtml" target="_top" xlink:title="Representation for a model container for risk analysis. ">
<polygon fill="white" stroke="black" points="950.079,-302.5 950.079,-321.5 1006.08,-321.5 1006.08,-302.5 950.079,-302.5"/>
<text text-anchor="middle" x="978.079" y="-309.5" font-family="Helvetica,sans-Serif" font-size="10.00">model.h</text>
</a>
</g>
</g>
<!-- Node2&#45;&gt;Node5 -->
<g id="edge4" class="edge"><title>Node2&#45;&gt;Node5</title>
<path fill="none" stroke="midnightblue" d="M2328.38,-366.676C2304.85,-363.608 2274.87,-360.064 2248.08,-358 1763.13,-320.654 1171.58,-314.258 1016.68,-313.202"/>
<polygon fill="midnightblue" stroke="midnightblue" points="1016.31,-309.699 1006.28,-313.135 1016.26,-316.699 1016.31,-309.699"/>
</g>
<!-- Node5&#45;&gt;Node4 -->
<g id="edge6" class="edge"><title>Node5&#45;&gt;Node4</title>
<path fill="none" stroke="midnightblue" d="M1006.27,-310.221C1131.6,-306.641 1638.91,-290.863 1796.08,-266 1988.17,-235.612 2038.07,-225.123 2219.08,-154 2268.3,-134.658 2296.87,-143.352 2324.08,-98 2331.17,-86.1857 2333.56,-76.9958 2324.08,-67 2307.8,-49.8367 1564.64,-23.2957 1399.4,-17.5998"/>
<polygon fill="midnightblue" stroke="midnightblue" points="1399.48,-14.1006 1389.37,-17.2551 1399.24,-21.0965 1399.48,-14.1006"/>
</g>
<!-- Node5&#45;&gt;Node6 -->
<g id="edge5" class="edge"><title>Node5&#45;&gt;Node6</title>
<path fill="none" stroke="midnightblue" d="M1006.14,-310.295C1106.02,-307.552 1443.76,-296.206 1547.08,-266 1648.61,-236.317 1702.66,-244.704 1757.08,-154 1799.98,-82.5036 1468.94,-107.288 1386.08,-98 1360.92,-95.1797 1332.69,-91.5925 1310.62,-88.6916"/>
<polygon fill="midnightblue" stroke="midnightblue" points="1311,-85.2122 1300.63,-87.3708 1310.08,-92.1518 1311,-85.2122"/>
</g>
<!-- Node7 -->
<g id="node7" class="node"><title>Node7</title>
<polygon fill="white" stroke="#bfbfbf" points="175.579,-6 175.579,-25 222.579,-25 222.579,-6 175.579,-6"/>
<text text-anchor="middle" x="199.079" y="-13" font-family="Helvetica,sans-Serif" font-size="10.00">vector</text>
</g>
<!-- Node5&#45;&gt;Node7 -->
<g id="edge7" class="edge"><title>Node5&#45;&gt;Node7</title>
<path fill="none" stroke="midnightblue" d="M949.876,-310.33C797.006,-306.406 72.3333,-283.971 10.0788,-210 -3.1093,-194.33 -1.82409,-77.2368 6.07878,-67 25.3938,-41.9808 115.271,-26.9672 165.277,-20.4096"/>
<polygon fill="midnightblue" stroke="midnightblue" points="165.822,-23.8686 175.302,-19.1381 164.941,-16.9242 165.822,-23.8686"/>
</g>
<!-- Node8 -->
<g id="node8" class="node"><title>Node8</title>
<g id="a_node8"><a xlink:href="alignment_8h.xhtml" target="_top" xlink:title="Mission and phase constructs. ">
<polygon fill="white" stroke="black" points="848.079,-246.5 848.079,-265.5 922.079,-265.5 922.079,-246.5 848.079,-246.5"/>
<text text-anchor="middle" x="885.079" y="-253.5" font-family="Helvetica,sans-Serif" font-size="10.00">alignment.h</text>
</a>
</g>
</g>
<!-- Node5&#45;&gt;Node8 -->
<g id="edge8" class="edge"><title>Node5&#45;&gt;Node8</title>
<path fill="none" stroke="midnightblue" d="M963.137,-302.324C948.494,-293.822 925.945,-280.729 908.841,-270.797"/>
<polygon fill="midnightblue" stroke="midnightblue" points="910.389,-267.649 899.984,-265.655 906.874,-273.703 910.389,-267.649"/>
</g>
<!-- Node5&#45;&gt;Node9 -->
<g id="edge53" class="edge"><title>Node5&#45;&gt;Node9</title>
<path fill="none" stroke="midnightblue" d="M949.99,-311.297C841.028,-311.742 449.302,-306.536 388.079,-210 369.974,-181.453 364.355,-160.706 385.079,-134 403.799,-109.876 487.156,-95.2972 539.258,-88.3779"/>
<polygon fill="midnightblue" stroke="midnightblue" points="539.762,-91.8421 549.234,-87.0957 538.869,-84.8993 539.762,-91.8421"/>
</g>
<!-- Node15 -->
<g id="node15" class="node"><title>Node15</title>
<g id="a_node15"><a xlink:href="instruction_8h.xhtml" target="_top" xlink:title="Model and event tree modifier instructions. ">
<polygon fill="white" stroke="black" points="665.079,-190.5 665.079,-209.5 741.079,-209.5 741.079,-190.5 665.079,-190.5"/>
<text text-anchor="middle" x="703.079" y="-197.5" font-family="Helvetica,sans-Serif" font-size="10.00">instruction.h</text>
</a>
</g>
</g>
<!-- Node5&#45;&gt;Node15 -->
<g id="edge102" class="edge"><title>Node5&#45;&gt;Node15</title>
<path fill="none" stroke="midnightblue" d="M950.002,-303.104C921.648,-294.853 876.776,-281.033 839.079,-266 799.461,-250.201 755.164,-228.172 728.204,-214.25"/>
<polygon fill="midnightblue" stroke="midnightblue" points="729.584,-211.023 719.097,-209.514 726.354,-217.233 729.584,-211.023"/>
</g>
<!-- Node5&#45;&gt;Node16 -->
<g id="edge54" class="edge"><title>Node5&#45;&gt;Node16</title>
<path fill="none" stroke="midnightblue" d="M949.686,-309.256C889.023,-304.141 745.066,-284.42 656.079,-210 640.819,-197.238 629.161,-177.495 622.044,-163.115"/>
<polygon fill="midnightblue" stroke="midnightblue" points="625.081,-161.347 617.677,-153.769 618.739,-164.311 625.081,-161.347"/>
</g>
<!-- Node5&#45;&gt;Node19 -->
<g id="edge64" class="edge"><title>Node5&#45;&gt;Node19</title>
<path fill="none" stroke="midnightblue" d="M1006.09,-310.33C1101.21,-307.787 1411.08,-297.244 1505.08,-266 1549.79,-251.141 1572.2,-251.183 1595.08,-210 1654.55,-102.955 1726.28,-225.532 1391.08,-154 1305.13,-135.658 1205.59,-109.509 1151.06,-94.7567"/>
<polygon fill="midnightblue" stroke="midnightblue" points="1151.66,-91.2932 1141.1,-92.0514 1149.83,-98.0488 1151.66,-91.2932"/>
</g>
<!-- Node22 -->
<g id="node22" class="node"><title>Node22</title>
<g id="a_node22"><a xlink:href="ccf__group_8h.xhtml" target="_top" xlink:title="Functional containers for basic events grouped by common cause failure. ">
<polygon fill="white" stroke="black" points="897.079,-190.5 897.079,-209.5 969.079,-209.5 969.079,-190.5 897.079,-190.5"/>
<text text-anchor="middle" x="933.079" y="-197.5" font-family="Helvetica,sans-Serif" font-size="10.00">ccf_group.h</text>
</a>
</g>
</g>
<!-- Node5&#45;&gt;Node22 -->
<g id="edge43" class="edge"><title>Node5&#45;&gt;Node22</title>
<path fill="none" stroke="midnightblue" d="M974.548,-302.368C967.22,-284.456 950.229,-242.923 940.421,-218.948"/>
<polygon fill="midnightblue" stroke="midnightblue" points="943.619,-217.522 936.593,-209.591 937.14,-220.172 943.619,-217.522"/>
</g>
<!-- Node25 -->
<g id="node25" class="node"><title>Node25</title>
<g id="a_node25"><a xlink:href="event__tree_8h.xhtml" target="_top" xlink:title="Event Tree facilities. ">
<polygon fill="white" stroke="black" points="245.579,-246.5 245.579,-265.5 322.579,-265.5 322.579,-246.5 245.579,-246.5"/>
<text text-anchor="middle" x="284.079" y="-253.5" font-family="Helvetica,sans-Serif" font-size="10.00">event_tree.h</text>
</a>
</g>
</g>
<!-- Node5&#45;&gt;Node25 -->
<g id="edge55" class="edge"><title>Node5&#45;&gt;Node25</title>
<path fill="none" stroke="midnightblue" d="M949.869,-310.008C860.087,-306.641 573.014,-294.245 337.079,-266 335.776,-265.844 334.456,-265.678 333.125,-265.503"/>
<polygon fill="midnightblue" stroke="midnightblue" points="333.197,-261.978 322.802,-264.027 332.206,-268.908 333.197,-261.978"/>
</g>
<!-- Node27 -->
<g id="node27" class="node"><title>Node27</title>
<g id="a_node27"><a xlink:href="extern_8h.xhtml" target="_top" xlink:title="The MEF facilities to call external functions in expressions. ">
<polygon fill="white" stroke="black" points="1891.58,-134.5 1891.58,-153.5 2002.58,-153.5 2002.58,-134.5 1891.58,-134.5"/>
<text text-anchor="middle" x="1947.08" y="-141.5" font-family="Helvetica,sans-Serif" font-size="10.00">expression/extern.h</text>
</a>
</g>
</g>
<!-- Node5&#45;&gt;Node27 -->
<g id="edge65" class="edge"><title>Node5&#45;&gt;Node27</title>
<path fill="none" stroke="midnightblue" d="M1006.23,-311.329C1129.07,-312.468 1618.41,-313.858 1763.08,-266 1798.68,-254.222 1887.76,-189.448 1927.46,-159.811"/>
<polygon fill="midnightblue" stroke="midnightblue" points="1929.67,-162.526 1935.57,-153.728 1925.47,-156.925 1929.67,-162.526"/>
</g>
<!-- Node39 -->
<g id="node39" class="node"><title>Node39</title>
<g id="a_node39"><a xlink:href="test__event_8h.xhtml" target="_top" xlink:title="Event tree analysis expressions to test functional and initiating events. ">
<polygon fill="white" stroke="black" points="1055.58,-134.5 1055.58,-153.5 1186.58,-153.5 1186.58,-134.5 1055.58,-134.5"/>
<text text-anchor="middle" x="1121.08" y="-141.5" font-family="Helvetica,sans-Serif" font-size="10.00">expression/test_event.h</text>
</a>
</g>
</g>
<!-- Node5&#45;&gt;Node39 -->
<g id="edge84" class="edge"><title>Node5&#45;&gt;Node39</title>
<path fill="none" stroke="midnightblue" d="M1006.28,-310.851C1114.87,-309.622 1503.56,-298.983 1578.08,-210 1583.79,-203.185 1584.05,-196.586 1578.08,-190 1565.45,-176.071 1323.29,-158.235 1196.72,-149.814"/>
<polygon fill="midnightblue" stroke="midnightblue" points="1196.91,-146.319 1186.7,-149.151 1196.45,-153.303 1196.91,-146.319"/>
</g>
<!-- Node5&#45;&gt;Node41 -->
<g id="edge88" class="edge"><title>Node5&#45;&gt;Node41</title>
<path fill="none" stroke="midnightblue" d="M1006.31,-304.7C1047.61,-295.486 1124.92,-278.234 1174.38,-267.198"/>
<polygon fill="midnightblue" stroke="midnightblue" points="1175.18,-270.604 1184.18,-265.01 1173.66,-263.772 1175.18,-270.604"/>
</g>
<!-- Node43 -->
<g id="node43" class="node"><title>Node43</title>
<g id="a_node43"><a xlink:href="parameter_8h.xhtml" target="_top" xlink:title="Parameter expressions that act like a shareable variable. ">
<polygon fill="white" stroke="black" points="961.079,-134.5 961.079,-153.5 1037.08,-153.5 1037.08,-134.5 961.079,-134.5"/>
<text text-anchor="middle" x="999.079" y="-141.5" font-family="Helvetica,sans-Serif" font-size="10.00">parameter.h</text>
</a>
</g>
</g>
<!-- Node5&#45;&gt;Node43 -->
<g id="edge103" class="edge"><title>Node5&#45;&gt;Node43</title>
<path fill="none" stroke="midnightblue" d="M979.208,-302.075C982.513,-275.945 992.221,-199.211 996.729,-163.577"/>
<polygon fill="midnightblue" stroke="midnightblue" points="1000.21,-163.928 997.995,-153.568 993.267,-163.05 1000.21,-163.928"/>
</g>
<!-- Node44 -->
<g id="node44" class="node"><title>Node44</title>
<g id="a_node44"><a xlink:href="substitution_8h.xhtml" target="_top" xlink:title="The MEF Substitution constructs. ">
<polygon fill="white" stroke="black" points="397.079,-190.5 397.079,-209.5 479.079,-209.5 479.079,-190.5 397.079,-190.5"/>
<text text-anchor="middle" x="438.079" y="-197.5" font-family="Helvetica,sans-Serif" font-size="10.00">substitution.h</text>
</a>
</g>
</g>
<!-- Node5&#45;&gt;Node44 -->
<g id="edge104" class="edge"><title>Node5&#45;&gt;Node44</title>
<path fill="none" stroke="midnightblue" d="M949.873,-310.017C864.274,-306.744 608.595,-294.751 531.079,-266 501.24,-254.933 472.023,-231.946 454.527,-216.492"/>
<polygon fill="midnightblue" stroke="midnightblue" points="456.686,-213.725 446.929,-209.596 451.982,-218.908 456.686,-213.725"/>
</g>
<!-- Node8&#45;&gt;Node4 -->
<g id="edge10" class="edge"><title>Node8&#45;&gt;Node4</title>
<path fill="none" stroke="midnightblue" d="M922.196,-252.392C1001.51,-246.609 1193.31,-231.5 1353.08,-210 1357.59,-209.393 1673.15,-157.484 1676.08,-154 1681.8,-147.199 1681.96,-140.661 1676.08,-134 1590.08,-36.6696 1482.63,-184.866 1386.08,-98 1368.64,-82.315 1365.64,-54.0084 1365.8,-35.2323"/>
<polygon fill="midnightblue" stroke="midnightblue" points="1369.3,-35.3375 1366.2,-25.2084 1362.31,-35.0641 1369.3,-35.3375"/>
</g>
<!-- Node8&#45;&gt;Node6 -->
<g id="edge9" class="edge"><title>Node8&#45;&gt;Node6</title>
<path fill="none" stroke="midnightblue" d="M922.096,-251.408C991.999,-244.483 1148.17,-228.34 1279.08,-210 1281.43,-209.671 1614.54,-155.81 1616.08,-154 1670.35,-89.9618 1893.71,-183.355 1353.08,-98 1339.25,-95.8163 1324.13,-93.1792 1310.75,-90.756"/>
<polygon fill="midnightblue" stroke="midnightblue" points="1311.36,-87.3106 1300.9,-88.9557 1310.1,-94.1966 1311.36,-87.3106"/>
</g>
<!-- Node8&#45;&gt;Node7 -->
<g id="edge11" class="edge"><title>Node8&#45;&gt;Node7</title>
<path fill="none" stroke="midnightblue" d="M847.813,-255.787C760.374,-256.784 535.779,-254.401 355.079,-210 230.112,-179.294 159.332,-205.157 88.0788,-98 80.45,-86.5271 80.6217,-78.5853 88.0788,-67 105.074,-40.5968 139.633,-27.8369 165.701,-21.7739"/>
<polygon fill="midnightblue" stroke="midnightblue" points="166.507,-25.181 175.572,-19.6972 165.065,-18.331 166.507,-25.181"/>
</g>
<!-- Node8&#45;&gt;Node9 -->
<g id="edge12" class="edge"><title>Node8&#45;&gt;Node9</title>
<path fill="none" stroke="midnightblue" d="M847.859,-252.435C775.34,-246.995 617.944,-232.887 569.079,-210 529.602,-191.51 486.598,-172.481 507.079,-134 516.141,-116.972 533.785,-104.656 549.683,-96.4509"/>
<polygon fill="midnightblue" stroke="midnightblue" points="551.264,-99.5744 558.763,-92.0907 548.234,-93.2641 551.264,-99.5744"/>
</g>
<!-- Node8&#45;&gt;Node15 -->
<g id="edge20" class="edge"><title>Node8&#45;&gt;Node15</title>
<path fill="none" stroke="midnightblue" d="M856.24,-246.444C825.223,-237.241 775.75,-222.562 741.46,-212.388"/>
<polygon fill="midnightblue" stroke="midnightblue" points="742.365,-209.006 731.782,-209.516 740.374,-215.716 742.365,-209.006"/>
</g>
<!-- Node9&#45;&gt;Node4 -->
<g id="edge14" class="edge"><title>Node9&#45;&gt;Node4</title>
<path fill="none" stroke="midnightblue" d="M614.81,-78.7898C742.675,-68.2022 1207.67,-29.6992 1334.78,-19.1745"/>
<polygon fill="midnightblue" stroke="midnightblue" points="1335.34,-22.6403 1345.01,-18.327 1334.76,-15.6642 1335.34,-22.6403"/>
</g>
<!-- Node9&#45;&gt;Node7 -->
<g id="edge15" class="edge"><title>Node9&#45;&gt;Node7</title>
<path fill="none" stroke="midnightblue" d="M557.42,-72.9742C550.281,-70.7573 542.43,-68.5573 535.079,-67 402.409,-38.8955 362.919,-66.6662 232.079,-31 229.786,-30.3751 227.448,-29.6166 225.128,-28.7779"/>
<polygon fill="midnightblue" stroke="midnightblue" points="226.439,-25.5326 215.856,-25.0152 223.806,-32.0188 226.439,-25.5326"/>
</g>
<!-- Node10 -->
<g id="node10" class="node"><title>Node10</title>
<polygon fill="white" stroke="#bfbfbf" points="737.579,-6 737.579,-25 786.579,-25 786.579,-6 737.579,-6"/>
<text text-anchor="middle" x="762.079" y="-13" font-family="Helvetica,sans-Serif" font-size="10.00">cstdint</text>
</g>
<!-- Node9&#45;&gt;Node10 -->
<g id="edge13" class="edge"><title>Node9&#45;&gt;Node10</title>
<path fill="none" stroke="midnightblue" d="M608.656,-72.9293C638.073,-63.299 686.789,-46.923 728.079,-31 729.725,-30.365 731.41,-29.6992 733.107,-29.0164"/>
<polygon fill="midnightblue" stroke="midnightblue" points="734.858,-32.0794 742.756,-25.0178 732.178,-25.6126 734.858,-32.0794"/>
</g>
<!-- Node11 -->
<g id="node11" class="node"><title>Node11</title>
<polygon fill="white" stroke="#bfbfbf" points="431.079,-0.5 431.079,-30.5 571.079,-30.5 571.079,-0.5 431.079,-0.5"/>
<text text-anchor="start" x="439.079" y="-18.5" font-family="Helvetica,sans-Serif" font-size="10.00">boost/multi_index/hashed</text>
<text text-anchor="middle" x="501.079" y="-7.5" font-family="Helvetica,sans-Serif" font-size="10.00">_index.hpp</text>
</g>
<!-- Node9&#45;&gt;Node11 -->
<g id="edge16" class="edge"><title>Node9&#45;&gt;Node11</title>
<path fill="none" stroke="midnightblue" d="M571.155,-72.7338C559.787,-63.6115 541.584,-49.0038 526.579,-36.9631"/>
<polygon fill="midnightblue" stroke="midnightblue" points="528.626,-34.118 518.636,-30.589 524.245,-39.5775 528.626,-34.118"/>
</g>
<!-- Node12 -->
<g id="node12" class="node"><title>Node12</title>
<polygon fill="white" stroke="#bfbfbf" points="589.079,-0.5 589.079,-30.5 719.079,-30.5 719.079,-0.5 589.079,-0.5"/>
<text text-anchor="start" x="597.079" y="-18.5" font-family="Helvetica,sans-Serif" font-size="10.00">boost/multi_index/mem</text>
<text text-anchor="middle" x="654.079" y="-7.5" font-family="Helvetica,sans-Serif" font-size="10.00">_fun.hpp</text>
</g>
<!-- Node9&#45;&gt;Node12 -->
<g id="edge17" class="edge"><title>Node9&#45;&gt;Node12</title>
<path fill="none" stroke="midnightblue" d="M591.789,-72.7338C601.8,-63.6959 617.775,-49.2739 631.041,-37.2982"/>
<polygon fill="midnightblue" stroke="midnightblue" points="633.395,-39.888 638.472,-30.589 628.704,-34.6921 633.395,-39.888"/>
</g>
<!-- Node13 -->
<g id="node13" class="node"><title>Node13</title>
<polygon fill="white" stroke="#bfbfbf" points="241.079,-6 241.079,-25 413.079,-25 413.079,-6 241.079,-6"/>
<text text-anchor="middle" x="327.079" y="-13" font-family="Helvetica,sans-Serif" font-size="10.00">boost/multi_index_container.hpp</text>
</g>
<!-- Node9&#45;&gt;Node13 -->
<g id="edge18" class="edge"><title>Node9&#45;&gt;Node13</title>
<path fill="none" stroke="midnightblue" d="M555.319,-72.9348C548.725,-70.9098 541.665,-68.8137 535.079,-67 480.518,-51.9754 417.263,-36.9552 374.967,-27.2513"/>
<polygon fill="midnightblue" stroke="midnightblue" points="375.742,-23.8383 365.213,-25.0226 374.182,-30.6624 375.742,-23.8383"/>
</g>
<!-- Node14 -->
<g id="node14" class="node"><title>Node14</title>
<polygon fill="white" stroke="#bfbfbf" points="805.079,-6 805.079,-25 933.079,-25 933.079,-6 805.079,-6"/>
<text text-anchor="middle" x="869.079" y="-13" font-family="Helvetica,sans-Serif" font-size="10.00">boost/noncopyable.hpp</text>
</g>
<!-- Node9&#45;&gt;Node14 -->
<g id="edge19" class="edge"><title>Node9&#45;&gt;Node14</title>
<path fill="none" stroke="midnightblue" d="M614.722,-74.107C665.31,-62.6497 762.894,-40.5487 821.384,-27.3018"/>
<polygon fill="midnightblue" stroke="midnightblue" points="822.499,-30.6382 831.479,-25.0157 820.952,-23.8111 822.499,-30.6382"/>
</g>
<!-- Node15&#45;&gt;Node4 -->
<g id="edge22" class="edge"><title>Node15&#45;&gt;Node4</title>
<path fill="none" stroke="midnightblue" d="M741.235,-196.562C853.609,-189.245 1176.65,-167.166 1195.08,-154 1229.56,-129.369 1203.25,-96.0733 1234.08,-67 1262.08,-40.5879 1305.29,-27.6178 1334.8,-21.5121"/>
<polygon fill="midnightblue" stroke="midnightblue" points="1335.84,-24.8774 1345,-19.5611 1334.52,-18.002 1335.84,-24.8774"/>
</g>
<!-- Node15&#45;&gt;Node6 -->
<g id="edge21" class="edge"><title>Node15&#45;&gt;Node6</title>
<path fill="none" stroke="midnightblue" d="M741.271,-196.679C858.793,-189.414 1208.35,-166.828 1229.08,-154 1248.08,-142.24 1259.88,-118.668 1266.21,-102.025"/>
<polygon fill="midnightblue" stroke="midnightblue" points="1269.62,-102.878 1269.6,-92.2831 1263.01,-100.579 1269.62,-102.878"/>
</g>
<!-- Node15&#45;&gt;Node7 -->
<g id="edge23" class="edge"><title>Node15&#45;&gt;Node7</title>
<path fill="none" stroke="midnightblue" d="M664.894,-195.161C617.81,-189.638 535.827,-177.432 469.079,-154 390.856,-126.54 378.114,-104.306 304.079,-67 277.918,-53.8178 247.754,-39.3889 226.487,-29.3425"/>
<polygon fill="midnightblue" stroke="midnightblue" points="227.927,-26.1517 217.389,-25.0552 224.943,-32.4839 227.927,-26.1517"/>
</g>
<!-- Node15&#45;&gt;Node9 -->
<g id="edge25" class="edge"><title>Node15&#45;&gt;Node9</title>
<path fill="none" stroke="midnightblue" d="M664.996,-196.56C635.897,-192.46 597.575,-181.739 578.079,-154 567.528,-138.988 570.682,-117.431 575.122,-102.114"/>
<polygon fill="midnightblue" stroke="midnightblue" points="578.569,-102.84 578.404,-92.2463 571.926,-100.63 578.569,-102.84"/>
</g>
<!-- Node15&#45;&gt;Node14 -->
<g id="edge24" class="edge"><title>Node15&#45;&gt;Node14</title>
<path fill="none" stroke="midnightblue" d="M704.598,-190.318C707.223,-177.166 713.571,-151.838 726.079,-134 758.485,-87.7859 813.747,-49.6706 845.242,-30.2989"/>
<polygon fill="midnightblue" stroke="midnightblue" points="847.073,-33.2819 853.829,-25.1204 843.458,-27.2875 847.073,-33.2819"/>
</g>
<!-- Node15&#45;&gt;Node16 -->
<g id="edge26" class="edge"><title>Node15&#45;&gt;Node16</title>
<path fill="none" stroke="midnightblue" d="M688.779,-190.324C674.896,-181.9 653.586,-168.971 637.275,-159.074"/>
<polygon fill="midnightblue" stroke="midnightblue" points="638.708,-155.85 628.343,-153.655 635.077,-161.834 638.708,-155.85"/>
</g>
<!-- Node15&#45;&gt;Node19 -->
<g id="edge42" class="edge"><title>Node15&#45;&gt;Node19</title>
<path fill="none" stroke="midnightblue" d="M734.349,-190.419C796.763,-173.244 941.186,-133.262 1062.08,-98 1065.44,-97.0196 1068.93,-95.9894 1072.42,-94.9492"/>
<polygon fill="midnightblue" stroke="midnightblue" points="1073.61,-98.2475 1082.19,-92.0244 1071.6,-91.542 1073.61,-98.2475"/>
</g>
<!-- Node16&#45;&gt;Node4 -->
<g id="edge29" class="edge"><title>Node16&#45;&gt;Node4</title>
<path fill="none" stroke="midnightblue" d="M640.86,-136.952C678.773,-128.374 750.255,-112.143 811.079,-98 869.354,-84.4492 883.166,-77.4357 942.079,-67 1087.53,-41.2359 1263.36,-25.0332 1334.69,-19.0785"/>
<polygon fill="midnightblue" stroke="midnightblue" points="1335.15,-22.5525 1344.83,-18.2425 1334.57,-15.5761 1335.15,-22.5525"/>
</g>
<!-- Node16&#45;&gt;Node6 -->
<g id="edge28" class="edge"><title>Node16&#45;&gt;Node6</title>
<path fill="none" stroke="midnightblue" d="M640.748,-139.72C656.049,-137.899 675.627,-135.671 693.079,-134 898.98,-114.29 951.3,-118.944 1157.08,-98 1182.48,-95.4143 1210.96,-91.829 1233.22,-88.8706"/>
<polygon fill="midnightblue" stroke="midnightblue" points="1233.85,-92.318 1243.29,-87.5186 1232.92,-85.3802 1233.85,-92.318"/>
</g>
<!-- Node16&#45;&gt;Node7 -->
<g id="edge32" class="edge"><title>Node16&#45;&gt;Node7</title>
<path fill="none" stroke="midnightblue" d="M599.124,-134.37C584.023,-125.549 560.129,-111.295 540.079,-98 520.443,-84.9805 518.959,-75.7351 497.079,-67 386.691,-22.9314 346.488,-63.22 232.079,-31 229.925,-30.3936 227.73,-29.6737 225.546,-28.884"/>
<polygon fill="midnightblue" stroke="midnightblue" points="226.796,-25.6141 216.213,-25.1091 224.171,-32.1034 226.796,-25.6141"/>
</g>
<!-- Node16&#45;&gt;Node9 -->
<g id="edge34" class="edge"><title>Node16&#45;&gt;Node9</title>
<path fill="none" stroke="midnightblue" d="M609.494,-134.475C604.837,-125.815 597.486,-112.149 591.569,-101.145"/>
<polygon fill="midnightblue" stroke="midnightblue" points="594.474,-99.1584 586.655,-92.0091 588.309,-102.474 594.474,-99.1584"/>
</g>
<!-- Node16&#45;&gt;Node10 -->
<g id="edge27" class="edge"><title>Node16&#45;&gt;Node10</title>
<path fill="none" stroke="midnightblue" d="M618.27,-134.493C626.091,-119.317 644.206,-87.2726 667.079,-67 677.89,-57.4176 710.322,-40.9771 734.299,-29.4653"/>
<polygon fill="midnightblue" stroke="midnightblue" points="736.121,-32.4741 743.649,-25.0185 733.115,-26.1526 736.121,-32.4741"/>
</g>
<!-- Node16&#45;&gt;Node14 -->
<g id="edge33" class="edge"><title>Node16&#45;&gt;Node14</title>
<path fill="none" stroke="midnightblue" d="M627.266,-134.324C650.209,-119.438 699.221,-88.5544 743.079,-67 773.327,-52.1341 809.103,-38.1172 834.789,-28.6403"/>
<polygon fill="midnightblue" stroke="midnightblue" points="836.255,-31.8313 844.449,-25.1149 833.855,-25.2556 836.255,-31.8313"/>
</g>
<!-- Node17 -->
<g id="node17" class="node"><title>Node17</title>
<polygon fill="white" stroke="#bfbfbf" points="951.079,-6 951.079,-25 993.079,-25 993.079,-6 951.079,-6"/>
<text text-anchor="middle" x="972.079" y="-13" font-family="Helvetica,sans-Serif" font-size="10.00">utility</text>
</g>
<!-- Node16&#45;&gt;Node17 -->
<g id="edge30" class="edge"><title>Node16&#45;&gt;Node17</title>
<path fill="none" stroke="midnightblue" d="M639.727,-134.442C711.822,-110.357 912.926,-42.9713 942.079,-31 943.283,-30.5056 944.507,-29.9861 945.738,-29.4497"/>
<polygon fill="midnightblue" stroke="midnightblue" points="947.482,-32.5003 955.107,-25.1443 944.559,-26.1398 947.482,-32.5003"/>
</g>
<!-- Node18 -->
<g id="node18" class="node"><title>Node18</title>
<polygon fill="white" stroke="#bfbfbf" points="97.0788,-73 97.0788,-92 147.079,-92 147.079,-73 97.0788,-73"/>
<text text-anchor="middle" x="122.079" y="-80" font-family="Helvetica,sans-Serif" font-size="10.00">variant</text>
</g>
<!-- Node16&#45;&gt;Node18 -->
<g id="edge31" class="edge"><title>Node16&#45;&gt;Node18</title>
<path fill="none" stroke="midnightblue" d="M587.277,-139.759C504.154,-129.706 250.698,-99.0546 157.204,-87.7479"/>
<polygon fill="midnightblue" stroke="midnightblue" points="157.474,-84.2551 147.126,-86.5291 156.633,-91.2045 157.474,-84.2551"/>
</g>
<!-- Node16&#45;&gt;Node19 -->
<g id="edge35" class="edge"><title>Node16&#45;&gt;Node19</title>
<path fill="none" stroke="midnightblue" d="M640.761,-139.851C656.066,-138.073 675.645,-135.843 693.079,-134 856.944,-116.674 900.433,-129.979 1062.08,-98 1066.31,-97.1637 1070.69,-96.1087 1075.02,-94.9509"/>
<polygon fill="midnightblue" stroke="midnightblue" points="1076.26,-98.2376 1084.9,-92.117 1074.33,-91.5087 1076.26,-98.2376"/>
</g>
<!-- Node19&#45;&gt;Node4 -->
<g id="edge37" class="edge"><title>Node19&#45;&gt;Node4</title>
<path fill="none" stroke="midnightblue" d="M1140.87,-72.9388C1148.15,-70.9548 1155.88,-68.8759 1163.08,-67 1223.82,-51.1764 1295.04,-33.8156 1335.23,-24.1287"/>
<polygon fill="midnightblue" stroke="midnightblue" points="1336.09,-27.5219 1345,-21.7796 1334.46,-20.7162 1336.09,-27.5219"/>
</g>
<!-- Node19&#45;&gt;Node7 -->
<g id="edge39" class="edge"><title>Node19&#45;&gt;Node7</title>
<path fill="none" stroke="midnightblue" d="M1085.94,-72.9243C1078.39,-70.5921 1069.97,-68.342 1062.08,-67 698.064,-5.12995 591.703,-114.7 232.079,-31 229.713,-30.4494 227.306,-29.7325 224.925,-28.9123"/>
<polygon fill="midnightblue" stroke="midnightblue" points="226.037,-25.5874 215.452,-25.1211 223.436,-32.0863 226.037,-25.5874"/>
</g>
<!-- Node19&#45;&gt;Node14 -->
<g id="edge41" class="edge"><title>Node19&#45;&gt;Node14</title>
<path fill="none" stroke="midnightblue" d="M1082.46,-72.9651C1075.8,-70.9599 1068.7,-68.8651 1062.08,-67 1011.17,-52.656 952.323,-37.4555 913.122,-27.5243"/>
<polygon fill="midnightblue" stroke="midnightblue" points="913.902,-24.1115 903.349,-25.0546 912.187,-30.8982 913.902,-24.1115"/>
</g>
<!-- Node19&#45;&gt;Node17 -->
<g id="edge38" class="edge"><title>Node19&#45;&gt;Node17</title>
<path fill="none" stroke="midnightblue" d="M1091.75,-72.8685C1068.14,-61.7476 1026.89,-42.3167 999.527,-29.4286"/>
<polygon fill="midnightblue" stroke="midnightblue" points="1001.02,-26.262 990.48,-25.1672 998.035,-32.5947 1001.02,-26.262"/>
</g>
<!-- Node20 -->
<g id="node20" class="node"><title>Node20</title>
<polygon fill="white" stroke="#bfbfbf" points="1876.08,-6 1876.08,-25 1938.08,-25 1938.08,-6 1876.08,-6"/>
<text text-anchor="middle" x="1907.08" y="-13" font-family="Helvetica,sans-Serif" font-size="10.00">algorithm</text>
</g>
<!-- Node19&#45;&gt;Node20 -->
<g id="edge36" class="edge"><title>Node19&#45;&gt;Node20</title>
<path fill="none" stroke="midnightblue" d="M1148.85,-76.5472C1173.28,-73.5307 1205.49,-69.7428 1234.08,-67 1472.85,-44.0913 1760.12,-25.5275 1865.63,-19.0096"/>
<polygon fill="midnightblue" stroke="midnightblue" points="1866.08,-22.4885 1875.84,-18.381 1865.65,-15.5017 1866.08,-22.4885"/>
</g>
<!-- Node21 -->
<g id="node21" class="node"><title>Node21</title>
<polygon fill="white" stroke="#bfbfbf" points="1054.08,-0.5 1054.08,-30.5 1166.08,-30.5 1166.08,-0.5 1054.08,-0.5"/>
<text text-anchor="start" x="1062.08" y="-18.5" font-family="Helvetica,sans-Serif" font-size="10.00">boost/icl/continuous</text>
<text text-anchor="middle" x="1110.08" y="-7.5" font-family="Helvetica,sans-Serif" font-size="10.00">_interval.hpp</text>
</g>
<!-- Node19&#45;&gt;Node21 -->
<g id="edge40" class="edge"><title>Node19&#45;&gt;Node21</title>
<path fill="none" stroke="midnightblue" d="M1110.08,-72.7338C1110.08,-64.5406 1110.08,-51.9225 1110.08,-40.7136"/>
<polygon fill="midnightblue" stroke="midnightblue" points="1113.58,-40.589 1110.08,-30.589 1106.58,-40.5891 1113.58,-40.589"/>
</g>
<!-- Node22&#45;&gt;Node4 -->
<g id="edge46" class="edge"><title>Node22&#45;&gt;Node4</title>
<path fill="none" stroke="midnightblue" d="M969.089,-198.261C1132.17,-194.798 1802.58,-179.268 2011.08,-154 2135.77,-138.889 2208.55,-195.216 2288.08,-98 2296.8,-87.336 2297.55,-77.0055 2288.08,-67 2272.47,-50.5164 1561.71,-23.6054 1399.71,-17.6786"/>
<polygon fill="midnightblue" stroke="midnightblue" points="1399.55,-14.1705 1389.42,-17.3037 1399.29,-21.1659 1399.55,-14.1705"/>
</g>
<!-- Node22&#45;&gt;Node6 -->
<g id="edge44" class="edge"><title>Node22&#45;&gt;Node6</title>
<path fill="none" stroke="midnightblue" d="M969.16,-199.612C1047.06,-200.102 1227.18,-196.498 1267.08,-154 1279.78,-140.467 1279.22,-118.309 1276.63,-102.445"/>
<polygon fill="midnightblue" stroke="midnightblue" points="1279.97,-101.321 1274.55,-92.2202 1273.11,-102.717 1279.97,-101.321"/>
</g>
<!-- Node22&#45;&gt;Node7 -->
<g id="edge49" class="edge"><title>Node22&#45;&gt;Node7</title>
<path fill="none" stroke="midnightblue" d="M897.055,-197.188C832.353,-193.328 692.534,-182.218 578.079,-154 470.754,-127.54 449.549,-103.121 345.079,-67 295.263,-49.776 281.387,-49.6277 232.079,-31 230.469,-30.3918 228.824,-29.747 227.17,-29.0804"/>
<polygon fill="midnightblue" stroke="midnightblue" points="228.359,-25.7832 217.784,-25.1282 225.642,-32.2346 228.359,-25.7832"/>
</g>
<!-- Node22&#45;&gt;Node9 -->
<g id="edge50" class="edge"><title>Node22&#45;&gt;Node9</title>
<path fill="none" stroke="midnightblue" d="M918.28,-190.457C894.071,-176.797 844.173,-149.959 799.079,-134 740.047,-113.109 668.897,-98.4447 624.562,-90.4865"/>
<polygon fill="midnightblue" stroke="midnightblue" points="625.164,-87.0388 614.708,-88.7491 623.949,-93.9324 625.164,-87.0388"/>
</g>
<!-- Node22&#45;&gt;Node16 -->
<g id="edge51" class="edge"><title>Node22&#45;&gt;Node16</title>
<path fill="none" stroke="midnightblue" d="M896.796,-192.858C835.511,-182.484 712.173,-161.605 650.676,-151.195"/>
<polygon fill="midnightblue" stroke="midnightblue" points="651.092,-147.716 640.648,-149.498 649.924,-154.618 651.092,-147.716"/>
</g>
<!-- Node22&#45;&gt;Node17 -->
<g id="edge48" class="edge"><title>Node22&#45;&gt;Node17</title>
<path fill="none" stroke="midnightblue" d="M932.299,-190.406C930.642,-168.977 927.996,-111.692 942.079,-67 945.849,-55.0367 952.921,-42.9115 959.253,-33.5416"/>
<polygon fill="midnightblue" stroke="midnightblue" points="962.243,-35.3758 965.188,-25.1983 956.539,-31.3184 962.243,-35.3758"/>
</g>
<!-- Node22&#45;&gt;Node19 -->
<g id="edge52" class="edge"><title>Node22&#45;&gt;Node19</title>
<path fill="none" stroke="midnightblue" d="M933.158,-190.142C933.767,-176.29 936.974,-149.486 952.079,-134 954.268,-131.755 1026.65,-109.178 1072.68,-94.9815"/>
<polygon fill="midnightblue" stroke="midnightblue" points="1073.82,-98.2924 1082.34,-92.0033 1071.76,-91.6027 1073.82,-98.2924"/>
</g>
<!-- Node23 -->
<g id="node23" class="node"><title>Node23</title>
<polygon fill="white" stroke="#bfbfbf" points="735.579,-134.5 735.579,-153.5 790.579,-153.5 790.579,-134.5 735.579,-134.5"/>
<text text-anchor="middle" x="763.079" y="-141.5" font-family="Helvetica,sans-Serif" font-size="10.00">optional</text>
</g>
<!-- Node22&#45;&gt;Node23 -->
<g id="edge45" class="edge"><title>Node22&#45;&gt;Node23</title>
<path fill="none" stroke="midnightblue" d="M906.142,-190.444C877.418,-181.32 831.75,-166.813 799.758,-156.651"/>
<polygon fill="midnightblue" stroke="midnightblue" points="800.48,-153.208 789.89,-153.516 798.361,-159.88 800.48,-153.208"/>
</g>
<!-- Node24 -->
<g id="node24" class="node"><title>Node24</title>
<polygon fill="white" stroke="#bfbfbf" points="1395.08,-73 1395.08,-92 1463.08,-92 1463.08,-73 1395.08,-73"/>
<text text-anchor="middle" x="1429.08" y="-80" font-family="Helvetica,sans-Serif" font-size="10.00">type_traits</text>
</g>
<!-- Node22&#45;&gt;Node24 -->
<g id="edge47" class="edge"><title>Node22&#45;&gt;Node24</title>
<path fill="none" stroke="midnightblue" d="M969.432,-199.432C1104.46,-200.663 1571.66,-201.439 1616.08,-154 1683.61,-81.8749 1767.96,-179.567 1477.08,-98 1473.66,-97.0426 1470.12,-96.0227 1466.58,-94.9845"/>
<polygon fill="midnightblue" stroke="midnightblue" points="1467.27,-91.5402 1456.69,-92.0468 1465.28,-98.2502 1467.27,-91.5402"/>
</g>
<!-- Node25&#45;&gt;Node4 -->
<g id="edge57" class="edge"><title>Node25&#45;&gt;Node4</title>
<path fill="none" stroke="midnightblue" d="M322.741,-253.765C442.334,-249.768 816.817,-235.912 1126.08,-210 1139.73,-208.856 1606.96,-164.222 1616.08,-154 1622,-147.367 1621.9,-140.718 1616.08,-134 1542.58,-49.1537 1439.58,-182.846 1366.08,-98 1351.28,-80.9145 1355.34,-53.416 1360.48,-35.1536"/>
<polygon fill="midnightblue" stroke="midnightblue" points="1363.9,-35.9745 1363.59,-25.3841 1357.22,-33.8554 1363.9,-35.9745"/>
</g>
<!-- Node25&#45;&gt;Node6 -->
<g id="edge56" class="edge"><title>Node25&#45;&gt;Node6</title>
<path fill="none" stroke="midnightblue" d="M322.593,-254.058C427.911,-251.145 729.416,-240.564 978.079,-210 1116.17,-193.026 1196.93,-260.82 1286.08,-154 1298.28,-139.382 1290.96,-117.146 1283.06,-101.565"/>
<polygon fill="midnightblue" stroke="midnightblue" points="1285.9,-99.4719 1277.98,-92.4338 1279.78,-102.874 1285.9,-99.4719"/>
</g>
<!-- Node25&#45;&gt;Node7 -->
<g id="edge59" class="edge"><title>Node25&#45;&gt;Node7</title>
<path fill="none" stroke="midnightblue" d="M245.315,-248.404C172.233,-235.964 21.3236,-210.252 21.0788,-210 2.98007,-191.395 10.0586,-70.9495 13.0788,-67 31.4941,-42.9181 117.03,-27.6263 165.44,-20.7464"/>
<polygon fill="midnightblue" stroke="midnightblue" points="166.026,-24.1988 175.455,-19.3677 165.071,-17.2642 166.026,-24.1988"/>
</g>
<!-- Node25&#45;&gt;Node9 -->
<g id="edge60" class="edge"><title>Node25&#45;&gt;Node9</title>
<path fill="none" stroke="midnightblue" d="M271.581,-246.302C261.205,-238.251 247.191,-225.245 241.079,-210 227.024,-174.948 247.282,-154.375 279.079,-134 321.502,-106.816 466.377,-92.2487 539.349,-86.4832"/>
<polygon fill="midnightblue" stroke="midnightblue" points="539.871,-89.9535 549.573,-85.696 539.333,-82.9741 539.871,-89.9535"/>
</g>
<!-- Node25&#45;&gt;Node15 -->
<g id="edge63" class="edge"><title>Node25&#45;&gt;Node15</title>
<path fill="none" stroke="midnightblue" d="M322.746,-250.017C399.469,-240.129 570.772,-218.051 654.767,-207.226"/>
<polygon fill="midnightblue" stroke="midnightblue" points="655.337,-210.682 664.808,-205.932 654.442,-203.739 655.337,-210.682"/>
</g>
<!-- Node25&#45;&gt;Node18 -->
<g id="edge58" class="edge"><title>Node25&#45;&gt;Node18</title>
<path fill="none" stroke="midnightblue" d="M262.259,-246.434C244.793,-238.795 220.431,-226.302 203.079,-210 168.681,-177.686 142.437,-127.84 130.009,-101.399"/>
<polygon fill="midnightblue" stroke="midnightblue" points="133.145,-99.8416 125.803,-92.2031 126.779,-102.753 133.145,-99.8416"/>
</g>
<!-- Node26 -->
<g id="node26" class="node"><title>Node26</title>
<g id="a_node26"><a xlink:href="variant_8h.xhtml" target="_top" xlink:title="Extra helper functions for std::variant. ">
<polygon fill="white" stroke="black" points="30.5788,-190.5 30.5788,-209.5 107.579,-209.5 107.579,-190.5 30.5788,-190.5"/>
<text text-anchor="middle" x="69.0788" y="-197.5" font-family="Helvetica,sans-Serif" font-size="10.00">ext/variant.h</text>
</a>
</g>
</g>
<!-- Node25&#45;&gt;Node26 -->
<g id="edge61" class="edge"><title>Node25&#45;&gt;Node26</title>
<path fill="none" stroke="midnightblue" d="M250.011,-246.444C212.898,-237.122 153.418,-222.183 112.864,-211.997"/>
<polygon fill="midnightblue" stroke="midnightblue" points="113.538,-208.558 102.987,-209.516 111.833,-215.347 113.538,-208.558"/>
</g>
<!-- Node26&#45;&gt;Node18 -->
<g id="edge62" class="edge"><title>Node26&#45;&gt;Node18</title>
<path fill="none" stroke="midnightblue" d="M70.9337,-190.302C73.8317,-177.559 80.0525,-153.24 89.0788,-134 94.6745,-122.072 102.739,-109.673 109.495,-100.145"/>
<polygon fill="midnightblue" stroke="midnightblue" points="112.374,-102.139 115.448,-92.0001 106.722,-98.0084 112.374,-102.139"/>
</g>
<!-- Node27&#45;&gt;Node4 -->
<g id="edge67" class="edge"><title>Node27&#45;&gt;Node4</title>
<path fill="none" stroke="midnightblue" d="M2002.6,-143.642C2085.63,-143.282 2236.07,-137.078 2270.08,-98 2279.12,-87.6072 2279.55,-77.0107 2270.08,-67 2254.8,-50.8467 1559.41,-23.7353 1399.58,-17.7103"/>
<polygon fill="midnightblue" stroke="midnightblue" points="1399.56,-14.2068 1389.43,-17.3288 1399.29,-21.2019 1399.56,-14.2068"/>
</g>
<!-- Node27&#45;&gt;Node6 -->
<g id="edge66" class="edge"><title>Node27&#45;&gt;Node6</title>
<path fill="none" stroke="midnightblue" d="M1891.33,-135.553C1886.51,-134.994 1881.71,-134.467 1877.08,-134 1659.38,-112.04 1603.8,-119.812 1386.08,-98 1360.89,-95.4761 1332.66,-91.8914 1310.59,-88.9177"/>
<polygon fill="midnightblue" stroke="midnightblue" points="1310.99,-85.4397 1300.61,-87.5575 1310.05,-92.3756 1310.99,-85.4397"/>
</g>
<!-- Node27&#45;&gt;Node7 -->
<g id="edge69" class="edge"><title>Node27&#45;&gt;Node7</title>
<path fill="none" stroke="midnightblue" d="M1891.31,-135.676C1886.5,-135.091 1881.71,-134.524 1877.08,-134 1714.23,-115.548 1661.6,-160.468 1510.08,-98 1489.93,-89.6925 1492.5,-74.61 1472.08,-67 1342.92,-18.8752 366.547,-61.2832 232.079,-31 229.568,-30.4346 227.012,-29.6766 224.491,-28.8026"/>
<polygon fill="midnightblue" stroke="midnightblue" points="225.688,-25.5113 215.104,-25.0181 223.07,-32.0035 225.688,-25.5113"/>
</g>
<!-- Node27&#45;&gt;Node9 -->
<g id="edge75" class="edge"><title>Node27&#45;&gt;Node9</title>
<path fill="none" stroke="midnightblue" d="M1891.45,-140.575C1666.25,-130.759 824.748,-94.0779 624.867,-85.3651"/>
<polygon fill="midnightblue" stroke="midnightblue" points="624.904,-81.8635 614.761,-84.9246 624.6,-88.8569 624.904,-81.8635"/>
</g>
<!-- Node27&#45;&gt;Node19 -->
<g id="edge83" class="edge"><title>Node27&#45;&gt;Node19</title>
<path fill="none" stroke="midnightblue" d="M1891.53,-140.505C1771.43,-134.89 1478.67,-120.004 1234.08,-98 1209.27,-95.7686 1181.76,-92.6192 1158.96,-89.8253"/>
<polygon fill="midnightblue" stroke="midnightblue" points="1159.19,-86.3282 1148.84,-88.5713 1158.33,-93.275 1159.19,-86.3282"/>
</g>
<!-- Node27&#45;&gt;Node24 -->
<g id="edge68" class="edge"><title>Node27&#45;&gt;Node24</title>
<path fill="none" stroke="midnightblue" d="M1891.32,-135.636C1886.5,-135.059 1881.71,-134.506 1877.08,-134 1699.64,-114.615 1652.31,-131.984 1477.08,-98 1472.63,-97.1376 1468.01,-96.0268 1463.47,-94.8042"/>
<polygon fill="midnightblue" stroke="midnightblue" points="1464.33,-91.4098 1453.75,-92.002 1462.39,-98.1357 1464.33,-91.4098"/>
</g>
<!-- Node28 -->
<g id="node28" class="node"><title>Node28</title>
<polygon fill="white" stroke="#bfbfbf" points="1817.58,-73 1817.58,-92 1964.58,-92 1964.58,-73 1817.58,-73"/>
<text text-anchor="middle" x="1891.08" y="-80" font-family="Helvetica,sans-Serif" font-size="10.00">boost/dll/shared_library.hpp</text>
</g>
<!-- Node27&#45;&gt;Node28 -->
<g id="edge70" class="edge"><title>Node27&#45;&gt;Node28</title>
<path fill="none" stroke="midnightblue" d="M1939.06,-134.475C1930.49,-125.373 1916.72,-110.741 1906.12,-99.483"/>
<polygon fill="midnightblue" stroke="midnightblue" points="1908.49,-96.8923 1899.09,-92.0091 1903.39,-101.69 1908.49,-96.8923"/>
</g>
<!-- Node29 -->
<g id="node29" class="node"><title>Node29</title>
<polygon fill="white" stroke="#bfbfbf" points="1983.08,-67.5 1983.08,-97.5 2111.08,-97.5 2111.08,-67.5 1983.08,-67.5"/>
<text text-anchor="start" x="1991.08" y="-85.5" font-family="Helvetica,sans-Serif" font-size="10.00">boost/exception/errinfo</text>
<text text-anchor="middle" x="2047.08" y="-74.5" font-family="Helvetica,sans-Serif" font-size="10.00">_nested_exception.hpp</text>
</g>
<!-- Node27&#45;&gt;Node29 -->
<g id="edge71" class="edge"><title>Node27&#45;&gt;Node29</title>
<path fill="none" stroke="midnightblue" d="M1961.41,-134.475C1975.2,-126.266 1996.56,-113.558 2014.5,-102.885"/>
<polygon fill="midnightblue" stroke="midnightblue" points="2016.71,-105.644 2023.51,-97.523 2013.13,-99.6285 2016.71,-105.644"/>
</g>
<!-- Node30 -->
<g id="node30" class="node"><title>Node30</title>
<polygon fill="white" stroke="#bfbfbf" points="2129.08,-73 2129.08,-92 2261.08,-92 2261.08,-73 2129.08,-73"/>
<text text-anchor="middle" x="2195.08" y="-80" font-family="Helvetica,sans-Serif" font-size="10.00">boost/exception_ptr.hpp</text>
</g>
<!-- Node27&#45;&gt;Node30 -->
<g id="edge72" class="edge"><title>Node27&#45;&gt;Node30</title>
<path fill="none" stroke="midnightblue" d="M1982.61,-134.475C2026.63,-123.915 2101.67,-105.911 2149.78,-94.3689"/>
<polygon fill="midnightblue" stroke="midnightblue" points="2150.7,-97.7456 2159.61,-92.0091 2149.07,-90.9387 2150.7,-97.7456"/>
</g>
<!-- Node31 -->
<g id="node31" class="node"><title>Node31</title>
<polygon fill="white" stroke="#bfbfbf" points="1519.58,-73 1519.58,-92 1660.58,-92 1660.58,-73 1519.58,-73"/>
<text text-anchor="middle" x="1590.08" y="-80" font-family="Helvetica,sans-Serif" font-size="10.00">boost/filesystem/path.hpp</text>
</g>
<!-- Node27&#45;&gt;Node31 -->
<g id="edge73" class="edge"><title>Node27&#45;&gt;Node31</title>
<path fill="none" stroke="midnightblue" d="M1892.89,-134.497C1837.02,-125.658 1747.39,-111.284 1670.08,-98 1662.35,-96.6722 1654.21,-95.2379 1646.2,-93.8059"/>
<polygon fill="midnightblue" stroke="midnightblue" points="1646.63,-90.3263 1636.16,-92.0014 1645.39,-97.2159 1646.63,-90.3263"/>
</g>
<!-- Node32 -->
<g id="node32" class="node"><title>Node32</title>
<polygon fill="white" stroke="#bfbfbf" points="1679.08,-67.5 1679.08,-97.5 1799.08,-97.5 1799.08,-67.5 1679.08,-67.5"/>
<text text-anchor="start" x="1687.08" y="-85.5" font-family="Helvetica,sans-Serif" font-size="10.00">boost/system/system</text>
<text text-anchor="middle" x="1739.08" y="-74.5" font-family="Helvetica,sans-Serif" font-size="10.00">_error.hpp</text>
</g>
<!-- Node27&#45;&gt;Node32 -->
<g id="edge74" class="edge"><title>Node27&#45;&gt;Node32</title>
<path fill="none" stroke="midnightblue" d="M1917.28,-134.475C1886.21,-125.588 1836.71,-111.429 1797.76,-100.286"/>
<polygon fill="midnightblue" stroke="midnightblue" points="1798.68,-96.9083 1788.1,-97.523 1796.75,-103.638 1798.68,-96.9083"/>
</g>
<!-- Node33 -->
<g id="node33" class="node"><title>Node33</title>
<g id="a_node33"><a xlink:href="error_8h.xhtml" target="_top" xlink:title="Exceptions for SCRAM. ">
<polygon fill="white" stroke="black" points="2754.58,-73 2754.58,-92 2819.58,-92 2819.58,-73 2754.58,-73"/>
<text text-anchor="middle" x="2787.08" y="-80" font-family="Helvetica,sans-Serif" font-size="10.00">src/error.h</text>
</a>
</g>
</g>
<!-- Node27&#45;&gt;Node33 -->
<g id="edge76" class="edge"><title>Node27&#45;&gt;Node33</title>
<path fill="none" stroke="midnightblue" d="M2002.8,-140.643C2123.98,-135.27 2420.49,-120.791 2668.08,-98 2693.51,-95.6591 2721.9,-92.2309 2744.57,-89.2955"/>
<polygon fill="midnightblue" stroke="midnightblue" points="2745.1,-92.7571 2754.56,-87.9872 2744.19,-85.8164 2745.1,-92.7571"/>
</g>
<!-- Node33&#45;&gt;Node4 -->
<g id="edge78" class="edge"><title>Node33&#45;&gt;Node4</title>
<path fill="none" stroke="midnightblue" d="M2754.52,-74.9164C2738.75,-71.9916 2719.5,-68.8076 2702.08,-67 2568.98,-53.1906 1591.02,-23.2415 1399.54,-17.4724"/>
<polygon fill="midnightblue" stroke="midnightblue" points="1399.4,-13.9665 1389.3,-17.1641 1399.19,-20.9633 1399.4,-13.9665"/>
</g>
<!-- Node34 -->
<g id="node34" class="node"><title>Node34</title>
<polygon fill="white" stroke="#bfbfbf" points="2955.58,-6 2955.58,-25 3018.58,-25 3018.58,-6 2955.58,-6"/>
<text text-anchor="middle" x="2987.08" y="-13" font-family="Helvetica,sans-Serif" font-size="10.00">exception</text>
</g>
<!-- Node33&#45;&gt;Node34 -->
<g id="edge77" class="edge"><title>Node33&#45;&gt;Node34</title>
<path fill="none" stroke="midnightblue" d="M2814.26,-72.9827C2852.8,-60.8898 2921.37,-39.292 2946.08,-31 2948.52,-30.1804 2951.04,-29.3217 2953.57,-28.4488"/>
<polygon fill="midnightblue" stroke="midnightblue" points="2954.99,-31.6632 2963.28,-25.0649 2952.68,-25.0538 2954.99,-31.6632"/>
</g>
<!-- Node35 -->
<g id="node35" class="node"><title>Node35</title>
<polygon fill="white" stroke="#bfbfbf" points="2457.08,-6 2457.08,-25 2603.08,-25 2603.08,-6 2457.08,-6"/>
<text text-anchor="middle" x="2530.08" y="-13" font-family="Helvetica,sans-Serif" font-size="10.00">boost/current_function.hpp</text>
</g>
<!-- Node33&#45;&gt;Node35 -->
<g id="edge79" class="edge"><title>Node33&#45;&gt;Node35</title>
<path fill="none" stroke="midnightblue" d="M2760.32,-72.9246C2753.73,-70.8999 2746.67,-68.8065 2740.08,-67 2685.17,-51.945 2621.53,-36.9846 2578.82,-27.3021"/>
<polygon fill="midnightblue" stroke="midnightblue" points="2579.5,-23.8661 2568.97,-25.0778 2577.95,-30.6943 2579.5,-23.8661"/>
</g>
<!-- Node36 -->
<g id="node36" class="node"><title>Node36</title>
<polygon fill="white" stroke="#bfbfbf" points="2621.08,-6 2621.08,-25 2785.08,-25 2785.08,-6 2621.08,-6"/>
<text text-anchor="middle" x="2703.08" y="-13" font-family="Helvetica,sans-Serif" font-size="10.00">boost/exception/exception.hpp</text>
</g>
<!-- Node33&#45;&gt;Node36 -->
<g id="edge80" class="edge"><title>Node33&#45;&gt;Node36</title>
<path fill="none" stroke="midnightblue" d="M2775.75,-72.7338C2762.02,-62.1106 2738.68,-44.0485 2722.16,-31.2642"/>
<polygon fill="midnightblue" stroke="midnightblue" points="2724.28,-28.4791 2714.23,-25.1273 2719.99,-34.0152 2724.28,-28.4791"/>
</g>
<!-- Node37 -->
<g id="node37" class="node"><title>Node37</title>
<polygon fill="white" stroke="#bfbfbf" points="2803.08,-6 2803.08,-25 2937.08,-25 2937.08,-6 2803.08,-6"/>
<text text-anchor="middle" x="2870.08" y="-13" font-family="Helvetica,sans-Serif" font-size="10.00">boost/exception/info.hpp</text>
</g>
<!-- Node33&#45;&gt;Node37 -->
<g id="edge81" class="edge"><title>Node33&#45;&gt;Node37</title>
<path fill="none" stroke="midnightblue" d="M2798.27,-72.7338C2811.71,-62.208 2834.48,-44.3793 2850.78,-31.6174"/>
<polygon fill="midnightblue" stroke="midnightblue" points="2853.35,-34.0486 2859.06,-25.1273 2849.03,-28.5374 2853.35,-34.0486"/>
</g>
<!-- Node38 -->
<g id="node38" class="node"><title>Node38</title>
<g id="a_node38"><a xlink:href="source__info_8h.xhtml" target="_top" xlink:title="Helper facilities to get source file information. ">
<polygon fill="white" stroke="black" points="2341.08,-6 2341.08,-25 2439.08,-25 2439.08,-6 2341.08,-6"/>
<text text-anchor="middle" x="2390.08" y="-13" font-family="Helvetica,sans-Serif" font-size="10.00">ext/source_info.h</text>
</a>
</g>
</g>
<!-- Node33&#45;&gt;Node38 -->
<g id="edge82" class="edge"><title>Node33&#45;&gt;Node38</title>
<path fill="none" stroke="midnightblue" d="M2762.42,-72.9952C2755.28,-70.7786 2747.43,-68.5735 2740.08,-67 2612.22,-39.6193 2576.64,-54.9017 2448.08,-31 2442.59,-29.9802 2436.86,-28.7495 2431.21,-27.4413"/>
<polygon fill="midnightblue" stroke="midnightblue" points="2431.77,-23.9762 2421.23,-25.0318 2430.13,-30.7807 2431.77,-23.9762"/>
</g>
<!-- Node39&#45;&gt;Node4 -->
<g id="edge85" class="edge"><title>Node39&#45;&gt;Node4</title>
<path fill="none" stroke="midnightblue" d="M1127.82,-134.352C1140.49,-118.66 1169.46,-85.4198 1201.08,-67 1243.77,-42.1255 1299.91,-28.3944 1334.73,-21.7389"/>
<polygon fill="midnightblue" stroke="midnightblue" points="1335.61,-25.1368 1344.81,-19.896 1334.35,-18.2508 1335.61,-25.1368"/>
</g>
<!-- Node39&#45;&gt;Node19 -->
<g id="edge87" class="edge"><title>Node39&#45;&gt;Node19</title>
<path fill="none" stroke="midnightblue" d="M1119.5,-134.475C1117.95,-126.08 1115.53,-112.981 1113.53,-102.163"/>
<polygon fill="midnightblue" stroke="midnightblue" points="1116.91,-101.206 1111.65,-92.0091 1110.03,-102.479 1116.91,-101.206"/>
</g>
<!-- Node40 -->
<g id="node40" class="node"><title>Node40</title>
<polygon fill="white" stroke="#bfbfbf" points="960.579,-73 960.579,-92 1053.58,-92 1053.58,-73 960.579,-73"/>
<text text-anchor="middle" x="1007.08" y="-80" font-family="Helvetica,sans-Serif" font-size="10.00">unordered_map</text>
</g>
<!-- Node39&#45;&gt;Node40 -->
<g id="edge86" class="edge"><title>Node39&#45;&gt;Node40</title>
<path fill="none" stroke="midnightblue" d="M1104.75,-134.475C1085.87,-124.622 1054.57,-108.288 1032.5,-96.7697"/>
<polygon fill="midnightblue" stroke="midnightblue" points="1033.87,-93.5333 1023.38,-92.0091 1030.63,-99.7389 1033.87,-93.5333"/>
</g>
<!-- Node41&#45;&gt;Node4 -->
<g id="edge90" class="edge"><title>Node41&#45;&gt;Node4</title>
<path fill="none" stroke="midnightblue" d="M1255.65,-251.588C1414.6,-236.277 2055.91,-173.796 2144.08,-154 2218.41,-137.312 2261.88,-160.046 2306.08,-98 2314.07,-86.7785 2315.56,-77.0005 2306.08,-67 2290.14,-50.1855 1563.95,-23.4765 1399.81,-17.6475"/>
<polygon fill="midnightblue" stroke="midnightblue" points="1399.52,-14.1351 1389.4,-17.2792 1399.27,-21.1307 1399.52,-14.1351"/>
</g>
<!-- Node41&#45;&gt;Node6 -->
<g id="edge89" class="edge"><title>Node41&#45;&gt;Node6</title>
<path fill="none" stroke="midnightblue" d="M1249.18,-246.458C1296.14,-232.92 1391.71,-206.396 1474.08,-190 1529.34,-178.999 1688.17,-196.579 1725.08,-154 1760.2,-113.482 1869.52,-154.409 1386.08,-98 1360.93,-95.0657 1332.7,-91.4775 1310.63,-88.6046"/>
<polygon fill="midnightblue" stroke="midnightblue" points="1311.01,-85.1247 1300.64,-87.299 1310.1,-92.0656 1311.01,-85.1247"/>
</g>
<!-- Node41&#45;&gt;Node7 -->
<g id="edge92" class="edge"><title>Node41&#45;&gt;Node7</title>
<path fill="none" stroke="midnightblue" d="M1184.54,-253.759C1030.32,-248.288 425.188,-225.89 388.079,-210 301.14,-172.774 234.019,-74.3632 209.341,-34.0746"/>
<polygon fill="midnightblue" stroke="midnightblue" points="212.26,-32.1368 204.115,-25.3612 206.257,-35.7373 212.26,-32.1368"/>
</g>
<!-- Node41&#45;&gt;Node9 -->
<g id="edge94" class="edge"><title>Node41&#45;&gt;Node9</title>
<path fill="none" stroke="midnightblue" d="M1184.57,-254.399C1076.8,-252.227 754.81,-243.067 656.079,-210 612.12,-195.277 590.387,-194.638 568.079,-154 559.102,-137.646 565.384,-116.35 572.165,-101.461"/>
<polygon fill="midnightblue" stroke="midnightblue" points="575.397,-102.824 576.757,-92.3168 569.142,-99.6822 575.397,-102.824"/>
</g>
<!-- Node41&#45;&gt;Node16 -->
<g id="edge95" class="edge"><title>Node41&#45;&gt;Node16</title>
<path fill="none" stroke="midnightblue" d="M1184.52,-251.34C1123.56,-244.808 995.303,-229.935 888.079,-210 802.236,-194.04 702.813,-168.714 650.537,-154.857"/>
<polygon fill="midnightblue" stroke="midnightblue" points="651.293,-151.436 640.729,-152.245 649.491,-158.2 651.293,-151.436"/>
</g>
<!-- Node41&#45;&gt;Node22 -->
<g id="edge93" class="edge"><title>Node41&#45;&gt;Node22</title>
<path fill="none" stroke="midnightblue" d="M1184.31,-248.27C1132.43,-238.508 1036.27,-220.416 979.147,-209.668"/>
<polygon fill="midnightblue" stroke="midnightblue" points="979.773,-206.224 969.298,-207.815 978.478,-213.104 979.773,-206.224"/>
</g>
<!-- Node42 -->
<g id="node42" class="node"><title>Node42</title>
<polygon fill="white" stroke="#bfbfbf" points="1483.08,-190.5 1483.08,-209.5 1569.08,-209.5 1569.08,-190.5 1483.08,-190.5"/>
<text text-anchor="middle" x="1526.08" y="-197.5" font-family="Helvetica,sans-Serif" font-size="10.00">unordered_set</text>
</g>
<!-- Node41&#45;&gt;Node42 -->
<g id="edge91" class="edge"><title>Node41&#45;&gt;Node42</title>
<path fill="none" stroke="midnightblue" d="M1255.78,-248.7C1309.32,-239.252 1410.75,-221.352 1472.99,-210.369"/>
<polygon fill="midnightblue" stroke="midnightblue" points="1473.76,-213.787 1483,-208.602 1472.54,-206.893 1473.76,-213.787"/>
</g>
<!-- Node41&#45;&gt;Node43 -->
<g id="edge96" class="edge"><title>Node41&#45;&gt;Node43</title>
<path fill="none" stroke="midnightblue" d="M1202.74,-246.368C1164.17,-227.171 1071.09,-180.842 1025.35,-158.074"/>
<polygon fill="midnightblue" stroke="midnightblue" points="1026.85,-154.914 1016.34,-153.591 1023.73,-161.181 1026.85,-154.914"/>
</g>
<!-- Node43&#45;&gt;Node4 -->
<g id="edge99" class="edge"><title>Node43&#45;&gt;Node4</title>
<path fill="none" stroke="midnightblue" d="M986.6,-134.41C966.63,-119.654 931.623,-88.9601 951.079,-67 963.825,-52.6133 1239.08,-27.5601 1334.7,-19.2593"/>
<polygon fill="midnightblue" stroke="midnightblue" points="1335.27,-22.7234 1344.93,-18.3758 1334.66,-15.7494 1335.27,-22.7234"/>
</g>
<!-- Node43&#45;&gt;Node6 -->
<g id="edge98" class="edge"><title>Node43&#45;&gt;Node6</title>
<path fill="none" stroke="midnightblue" d="M1037.33,-134.664C1089.19,-123.36 1181.32,-103.282 1233.4,-91.9295"/>
<polygon fill="midnightblue" stroke="midnightblue" points="1234.24,-95.3299 1243.26,-89.7806 1232.75,-88.4905 1234.24,-95.3299"/>
</g>
<!-- Node43&#45;&gt;Node9 -->
<g id="edge100" class="edge"><title>Node43&#45;&gt;Node9</title>
<path fill="none" stroke="midnightblue" d="M960.967,-137.562C883.072,-126.447 706.114,-101.198 624.617,-89.5697"/>
<polygon fill="midnightblue" stroke="midnightblue" points="625.094,-86.1023 614.7,-88.1545 624.105,-93.0321 625.094,-86.1023"/>
</g>
<!-- Node43&#45;&gt;Node10 -->
<g id="edge97" class="edge"><title>Node43&#45;&gt;Node10</title>
<path fill="none" stroke="midnightblue" d="M982.789,-134.305C942.101,-112.588 835.805,-55.8517 787.105,-29.8578"/>
<polygon fill="midnightblue" stroke="midnightblue" points="788.639,-26.7096 778.169,-25.0884 785.343,-32.885 788.639,-26.7096"/>
</g>
<!-- Node43&#45;&gt;Node19 -->
<g id="edge101" class="edge"><title>Node43&#45;&gt;Node19</title>
<path fill="none" stroke="midnightblue" d="M1014.98,-134.475C1033.36,-124.622 1063.84,-108.288 1085.32,-96.7697"/>
<polygon fill="midnightblue" stroke="midnightblue" points="1087.04,-99.8183 1094.2,-92.0091 1083.74,-93.6488 1087.04,-99.8183"/>
</g>
<!-- Node44&#45;&gt;Node6 -->
<g id="edge105" class="edge"><title>Node44&#45;&gt;Node6</title>
<path fill="none" stroke="midnightblue" d="M479.439,-190.74C522.067,-182.095 590.392,-167.873 649.079,-154 683.488,-145.866 691.223,-139.938 726.079,-134 915.572,-101.72 965.902,-118.028 1157.08,-98 1182.48,-95.3393 1210.95,-91.7534 1233.22,-88.8134"/>
<polygon fill="midnightblue" stroke="midnightblue" points="1233.84,-92.2615 1243.29,-87.4714 1232.91,-85.3228 1233.84,-92.2615"/>
</g>
<!-- Node44&#45;&gt;Node7 -->
<g id="edge108" class="edge"><title>Node44&#45;&gt;Node7</title>
<path fill="none" stroke="midnightblue" d="M427.118,-190.204C400.37,-168.79 329.515,-112.377 269.079,-67 252.662,-54.6742 233.77,-41.079 219.753,-31.1025"/>
<polygon fill="midnightblue" stroke="midnightblue" points="221.502,-28.0517 211.321,-25.1188 217.451,-33.7604 221.502,-28.0517"/>
</g>
<!-- Node44&#45;&gt;Node9 -->
<g id="edge109" class="edge"><title>Node44&#45;&gt;Node9</title>
<path fill="none" stroke="midnightblue" d="M424.557,-190.396C406.392,-177.769 378.032,-153.595 393.079,-134 410.786,-110.94 489.34,-96.1377 539.436,-88.8614"/>
<polygon fill="midnightblue" stroke="midnightblue" points="539.941,-92.3249 549.356,-87.4644 538.965,-85.3933 539.941,-92.3249"/>
</g>
<!-- Node44&#45;&gt;Node16 -->
<g id="edge110" class="edge"><title>Node44&#45;&gt;Node16</title>
<path fill="none" stroke="midnightblue" d="M465.967,-190.444C496.184,-181.172 544.515,-166.343 577.698,-156.162"/>
<polygon fill="midnightblue" stroke="midnightblue" points="578.94,-159.442 587.474,-153.163 576.887,-152.75 578.94,-159.442"/>
</g>
<!-- Node44&#45;&gt;Node18 -->
<g id="edge107" class="edge"><title>Node44&#45;&gt;Node18</title>
<path fill="none" stroke="midnightblue" d="M414.586,-190.413C359.055,-170.116 219.558,-119.129 155.359,-95.6642"/>
<polygon fill="midnightblue" stroke="midnightblue" points="156.32,-92.2891 145.727,-92.1434 153.917,-98.8637 156.32,-92.2891"/>
</g>
<!-- Node44&#45;&gt;Node23 -->
<g id="edge106" class="edge"><title>Node44&#45;&gt;Node23</title>
<path fill="none" stroke="midnightblue" d="M479.441,-193.13C534.673,-185.13 635.494,-169.963 721.079,-154 722.545,-153.727 724.038,-153.441 725.546,-153.147"/>
<polygon fill="midnightblue" stroke="midnightblue" points="726.453,-156.534 735.559,-151.117 725.063,-149.673 726.453,-156.534"/>
</g>
<!-- Node48&#45;&gt;Node19 -->
<g id="edge119" class="edge"><title>Node48&#45;&gt;Node19</title>
<path fill="none" stroke="midnightblue" d="M1694.84,-302.249C1685.97,-279.59 1658.96,-218.775 1615.08,-190 1544.67,-143.83 1510.85,-174.067 1429.08,-154 1398.9,-146.594 1392.23,-141.506 1362.08,-134 1292,-116.558 1209.81,-100.985 1158.83,-91.89"/>
<polygon fill="midnightblue" stroke="midnightblue" points="1159.21,-88.4028 1148.75,-90.1039 1157.98,-95.2954 1159.21,-88.4028"/>
</g>
<!-- Node49&#45;&gt;Node6 -->
<g id="edge121" class="edge"><title>Node49&#45;&gt;Node6</title>
<path fill="none" stroke="midnightblue" d="M1487.04,-134.479C1441.37,-126.541 1373.32,-113.602 1315.08,-98 1311.88,-97.1438 1308.58,-96.1782 1305.29,-95.1622"/>
<polygon fill="midnightblue" stroke="midnightblue" points="1306.16,-91.7675 1295.57,-92.022 1304.01,-98.4281 1306.16,-91.7675"/>
</g>
<!-- Node49&#45;&gt;Node19 -->
<g id="edge122" class="edge"><title>Node49&#45;&gt;Node19</title>
<path fill="none" stroke="midnightblue" d="M1477.61,-134.475C1391.69,-122.558 1237.42,-101.161 1158.89,-90.2694"/>
<polygon fill="midnightblue" stroke="midnightblue" points="1159.17,-86.7748 1148.78,-88.8677 1158.2,-93.7084 1159.17,-86.7748"/>
</g>
<!-- Node50&#45;&gt;Node3 -->
<g id="edge126" class="edge"><title>Node50&#45;&gt;Node3</title>
<path fill="none" stroke="midnightblue" d="M2665.47,-135.275C2627.73,-127.693 2570.85,-114.826 2523.08,-98 2521.46,-97.43 2519.81,-96.8041 2518.16,-96.1422"/>
<polygon fill="midnightblue" stroke="midnightblue" points="2519.45,-92.8835 2508.88,-92.0954 2516.65,-99.3002 2519.45,-92.8835"/>
</g>
<!-- Node50&#45;&gt;Node4 -->
<g id="edge129" class="edge"><title>Node50&#45;&gt;Node4</title>
<path fill="none" stroke="midnightblue" d="M2705.54,-134.254C2702.12,-117.772 2692.21,-82.391 2668.08,-67 2654.27,-58.1932 1598.28,-23.9143 1399.24,-17.5276"/>
<polygon fill="midnightblue" stroke="midnightblue" points="1399.24,-14.026 1389.13,-17.2037 1399.01,-21.0224 1399.24,-14.026"/>
</g>
<!-- Node50&#45;&gt;Node20 -->
<g id="edge127" class="edge"><title>Node50&#45;&gt;Node20</title>
<path fill="none" stroke="midnightblue" d="M2709.67,-134.487C2713.88,-118.716 2720.05,-84.9318 2702.08,-67 2675.19,-40.1739 2108.92,-22.1982 1948.87,-17.6399"/>
<polygon fill="midnightblue" stroke="midnightblue" points="1948.59,-14.1307 1938.5,-17.347 1948.39,-21.1279 1948.59,-14.1307"/>
</g>
<!-- Node50&#45;&gt;Node33 -->
<g id="edge131" class="edge"><title>Node50&#45;&gt;Node33</title>
<path fill="none" stroke="midnightblue" d="M2718.54,-134.475C2731.25,-125.02 2751.99,-109.596 2767.33,-98.1871"/>
<polygon fill="midnightblue" stroke="midnightblue" points="2769.7,-100.785 2775.64,-92.0091 2765.53,-95.1686 2769.7,-100.785"/>
</g>
<!-- Node50&#45;&gt;Node34 -->
<g id="edge128" class="edge"><title>Node50&#45;&gt;Node34</title>
<path fill="none" stroke="midnightblue" d="M2738.09,-134.436C2763.26,-126.797 2799.19,-114.304 2828.08,-98 2847.36,-87.1168 2848.03,-78.2884 2867.08,-67 2882.54,-57.8376 2925.1,-40.5718 2955.12,-28.8055"/>
<polygon fill="midnightblue" stroke="midnightblue" points="2956.72,-31.939 2964.77,-25.0457 2954.18,-25.417 2956.72,-31.939"/>
</g>
<!-- Node50&#45;&gt;Node45 -->
<g id="edge130" class="edge"><title>Node50&#45;&gt;Node45</title>
<path fill="none" stroke="midnightblue" d="M2691.18,-134.475C2675.58,-126.115 2651.28,-113.09 2631.15,-102.299"/>
<polygon fill="midnightblue" stroke="midnightblue" points="2632.71,-99.1627 2622.24,-97.523 2629.4,-105.332 2632.71,-99.1627"/>
</g>
<!-- Node51 -->
<g id="node51" class="node"><title>Node51</title>
<polygon fill="white" stroke="#bfbfbf" points="2876.08,-73 2876.08,-92 2928.08,-92 2928.08,-73 2876.08,-73"/>
<text text-anchor="middle" x="2902.08" y="-80" font-family="Helvetica,sans-Serif" font-size="10.00">cassert</text>
</g>
<!-- Node50&#45;&gt;Node51 -->
<g id="edge125" class="edge"><title>Node50&#45;&gt;Node51</title>
<path fill="none" stroke="midnightblue" d="M2738.73,-134.462C2770.19,-125.825 2819.72,-111.81 2862.08,-98 2864.62,-97.17 2867.25,-96.2843 2869.89,-95.3754"/>
<polygon fill="midnightblue" stroke="midnightblue" points="2871.06,-98.6722 2879.32,-92.0397 2868.73,-92.0724 2871.06,-98.6722"/>
</g>
</g>
</svg>
