<?xml version="1.0" encoding="UTF-8" standalone="no"?>
<!DOCTYPE svg PUBLIC "-//W3C//DTD SVG 1.1//EN"
 "http://www.w3.org/Graphics/SVG/1.1/DTD/svg11.dtd">
<!-- Generated by graphviz version 2.38.0 (20140413.2041)
 -->
<!-- Title: scram::mef::Serialize Pages: 1 -->
<!--zoomable 849 -->
<svg id="main" version="1.1" xmlns="http://www.w3.org/2000/svg" xmlns:xlink="http://www.w3.org/1999/xlink" xml:space="preserve" onload="init(evt)">
<style type="text/css"><![CDATA[
.edge:hover path { stroke: red; }
.edge:hover polygon { stroke: red; fill: red; }
]]></style>
<script type="text/javascript"><![CDATA[
var edges = document.getElementsByTagName('g');
if (edges && edges.length) {
  for (var i=0;i<edges.length;i++) {
    if (edges[i].id.substr(0,4)=='edge') {
      edges[i].setAttribute('class','edge');
    }
  }
}
]]></script>
        <defs>
                <circle id="rim" cx="0" cy="0" r="7"/>
                <circle id="rim2" cx="0" cy="0" r="3.5"/>
                <g id="zoomPlus">
                        <use xlink:href="#rim" fill="#404040">
                                <set attributeName="fill" to="#808080" begin="zoomplus.mouseover" end="zoomplus.mouseout"/>
                        </use>
                        <path d="M-4,0h8M0,-4v8" fill="none" stroke="white" stroke-width="1.5" pointer-events="none"/>
                </g>
                <g id="zoomMin">
                        <use xlink:href="#rim" fill="#404040">
                                <set attributeName="fill" to="#808080" begin="zoomminus.mouseover" end="zoomminus.mouseout"/>
                        </use>
                        <path d="M-4,0h8" fill="none" stroke="white" stroke-width="1.5" pointer-events="none"/>
                </g>
                <g id="dirArrow">
                        <path fill="none" stroke="white" stroke-width="1.5" d="M0,-3.0v7 M-2.5,-0.5L0,-3.0L2.5,-0.5"/>
                </g>
               <g id="resetDef">
                       <use xlink:href="#rim2" fill="#404040">
                               <set attributeName="fill" to="#808080" begin="reset.mouseover" end="reset.mouseout"/>
                       </use>
               </g>
        </defs>

<script type="text/javascript">
var viewWidth = 661;
var viewHeight = 849;
var sectionId = 'dynsection-1';
</script>
<script xlink:href="svgpan.js"/>
<svg id="graph" class="graph">
<g id="viewport">
<title>scram::mef::Serialize</title>
<polygon fill="white" stroke="none" points="-4,4 -4,-845 657,-845 657,4 -4,4"/>
<!-- Node1 -->
<g id="node1" class="node"><title>Node1</title>
<polygon fill="#bfbfbf" stroke="black" points="0,-405 0,-424 118,-424 118,-405 0,-405"/>
<text text-anchor="middle" x="59" y="-412" font-family="Helvetica,sans-Serif" font-size="10.00">scram::mef::Serialize</text>
</g>
<!-- Node1&#45;&gt;Node1 -->
<g id="edge21" class="edge"><title>Node1&#45;&gt;Node1</title>
<path fill="none" stroke="midnightblue" d="M32.7981,-424.257C20.0512,-433.065 28.7852,-442.5 59,-442.5 79.3006,-442.5 89.9044,-438.241 90.8114,-432.775"/>
<polygon fill="midnightblue" stroke="midnightblue" points="93.6252,-430.684 85.2019,-424.257 87.7791,-434.534 93.6252,-430.684"/>
</g>
<!-- Node2 -->
<g id="node2" class="node"><title>Node2</title>
<g id="a_node2"><a xlink:href="classscram_1_1xml_1_1StreamElement.xhtml#a12256127d75537b64e53ccc1d7c0e07c" target="_top" xlink:title="Adds a child element to the element. ">
<polygon fill="white" stroke="black" points="154,-810.5 154,-840.5 306,-840.5 306,-810.5 154,-810.5"/>
<text text-anchor="start" x="162" y="-828.5" font-family="Helvetica,sans-Serif" font-size="10.00">scram::xml::StreamElement</text>
<text text-anchor="middle" x="230" y="-817.5" font-family="Helvetica,sans-Serif" font-size="10.00">::AddChild</text>
</a>
</g>
</g>
<!-- Node1&#45;&gt;Node2 -->
<g id="edge1" class="edge"><title>Node1&#45;&gt;Node2</title>
<path fill="none" stroke="midnightblue" d="M61.0753,-424.215C67.261,-478.452 99.9374,-743.431 154,-801.5 154.891,-802.457 155.82,-803.376 156.783,-804.258"/>
<polygon fill="midnightblue" stroke="midnightblue" points="154.686,-807.061 164.763,-810.333 158.926,-801.491 154.686,-807.061"/>
</g>
<!-- Node3 -->
<g id="node3" class="node"><title>Node3</title>
<g id="a_node3"><a xlink:href="classscram_1_1xml_1_1StreamElement.xhtml#a7e3c09c8d2041452e04f31dd332b65a6" target="_top" xlink:title="Adds text to the element. ">
<polygon fill="white" stroke="black" points="154,-761.5 154,-791.5 306,-791.5 306,-761.5 154,-761.5"/>
<text text-anchor="start" x="162" y="-779.5" font-family="Helvetica,sans-Serif" font-size="10.00">scram::xml::StreamElement</text>
<text text-anchor="middle" x="230" y="-768.5" font-family="Helvetica,sans-Serif" font-size="10.00">::AddText</text>
</a>
</g>
</g>
<!-- Node1&#45;&gt;Node3 -->
<g id="edge2" class="edge"><title>Node1&#45;&gt;Node3</title>
<path fill="none" stroke="midnightblue" d="M59.6129,-424.118C58.3771,-468.315 59.1886,-653.971 154,-752.5 154.933,-753.47 155.905,-754.4 156.912,-755.293"/>
<polygon fill="midnightblue" stroke="midnightblue" points="155.114,-758.316 165.24,-761.432 159.267,-752.681 155.114,-758.316"/>
</g>
<!-- Node4 -->
<g id="node4" class="node"><title>Node4</title>
<g id="a_node4"><a xlink:href="classscram_1_1mef_1_1Expression.xhtml#ac22fdb9ced7ef6942f666337b6a34110" target="_top" xlink:title="scram::mef::Expression\l::args">
<polygon fill="white" stroke="black" points="165.5,-712.5 165.5,-742.5 294.5,-742.5 294.5,-712.5 165.5,-712.5"/>
<text text-anchor="start" x="173.5" y="-730.5" font-family="Helvetica,sans-Serif" font-size="10.00">scram::mef::Expression</text>
<text text-anchor="middle" x="230" y="-719.5" font-family="Helvetica,sans-Serif" font-size="10.00">::args</text>
</a>
</g>
</g>
<!-- Node1&#45;&gt;Node4 -->
<g id="edge3" class="edge"><title>Node1&#45;&gt;Node4</title>
<path fill="none" stroke="midnightblue" d="M60.1406,-424.067C61.2585,-464.221 70.9801,-620.875 154,-703.5 155.09,-704.585 156.229,-705.621 157.411,-706.61"/>
<polygon fill="midnightblue" stroke="midnightblue" points="155.568,-709.593 165.761,-712.482 159.595,-703.867 155.568,-709.593"/>
</g>
<!-- Node5 -->
<g id="node5" class="node"><title>Node5</title>
<g id="a_node5"><a xlink:href="classscram_1_1mef_1_1Element.xhtml#a25474d50f8cc2c6a728c88e4c7d1b9f1" target="_top" xlink:title="scram::mef::Element\l::attributes">
<polygon fill="white" stroke="black" points="171.5,-663.5 171.5,-693.5 288.5,-693.5 288.5,-663.5 171.5,-663.5"/>
<text text-anchor="start" x="179.5" y="-681.5" font-family="Helvetica,sans-Serif" font-size="10.00">scram::mef::Element</text>
<text text-anchor="middle" x="230" y="-670.5" font-family="Helvetica,sans-Serif" font-size="10.00">::attributes</text>
</a>
</g>
</g>
<!-- Node1&#45;&gt;Node5 -->
<g id="edge4" class="edge"><title>Node1&#45;&gt;Node5</title>
<path fill="none" stroke="midnightblue" d="M60.8963,-424.382C64.716,-460.645 82.8621,-587.748 154,-654.5 156.57,-656.912 159.383,-659.081 162.365,-661.033"/>
<polygon fill="midnightblue" stroke="midnightblue" points="160.717,-664.122 171.149,-665.975 164.15,-658.021 160.717,-664.122"/>
</g>
<!-- Node6 -->
<g id="node6" class="node"><title>Node6</title>
<g id="a_node6"><a xlink:href="classscram_1_1mef_1_1Component.xhtml#a483f7a67e2197449902bddc48756e2cd" target="_top" xlink:title="scram::mef::Component\l::components">
<polygon fill="white" stroke="black" points="163,-614.5 163,-644.5 297,-644.5 297,-614.5 163,-614.5"/>
<text text-anchor="start" x="171" y="-632.5" font-family="Helvetica,sans-Serif" font-size="10.00">scram::mef::Component</text>
<text text-anchor="middle" x="230" y="-621.5" font-family="Helvetica,sans-Serif" font-size="10.00">::components</text>
</a>
</g>
</g>
<!-- Node1&#45;&gt;Node6 -->
<g id="edge5" class="edge"><title>Node1&#45;&gt;Node6</title>
<path fill="none" stroke="midnightblue" d="M62.2715,-424.023C69.8998,-454.035 97.3637,-547.724 154,-599.5 158.14,-603.285 162.818,-606.619 167.763,-609.552"/>
<polygon fill="midnightblue" stroke="midnightblue" points="166.424,-612.804 176.897,-614.407 169.71,-606.623 166.424,-612.804"/>
</g>
<!-- Node10 -->
<g id="node10" class="node"><title>Node10</title>
<g id="a_node10"><a xlink:href="classscram_1_1mef_1_1Element.xhtml#adb401e2ca84aa98cb60797bec2500a81" target="_top" xlink:title="scram::mef::Element\l::name">
<polygon fill="white" stroke="black" points="536,-578.5 536,-608.5 653,-608.5 653,-578.5 536,-578.5"/>
<text text-anchor="start" x="544" y="-596.5" font-family="Helvetica,sans-Serif" font-size="10.00">scram::mef::Element</text>
<text text-anchor="middle" x="594.5" y="-585.5" font-family="Helvetica,sans-Serif" font-size="10.00">::name</text>
</a>
</g>
</g>
<!-- Node1&#45;&gt;Node10 -->
<g id="edge19" class="edge"><title>Node1&#45;&gt;Node10</title>
<path fill="none" stroke="midnightblue" d="M64.7022,-424.281C76.2554,-447.103 108.445,-503.805 154,-528.5 222.024,-565.375 424.042,-552.755 500,-567.5 511.385,-569.71 523.408,-572.611 534.902,-575.673"/>
<polygon fill="midnightblue" stroke="midnightblue" points="534.269,-579.128 544.838,-578.39 536.116,-572.376 534.269,-579.128"/>
</g>
<!-- Node11 -->
<g id="node11" class="node"><title>Node11</title>
<g id="a_node11"><a xlink:href="classscram_1_1mef_1_1Component.xhtml#ad246305a79904f65b36157096464703b" target="_top" xlink:title="scram::mef::Component\l::gates">
<polygon fill="white" stroke="black" points="354,-576.5 354,-606.5 488,-606.5 488,-576.5 354,-576.5"/>
<text text-anchor="start" x="362" y="-594.5" font-family="Helvetica,sans-Serif" font-size="10.00">scram::mef::Component</text>
<text text-anchor="middle" x="421" y="-583.5" font-family="Helvetica,sans-Serif" font-size="10.00">::gates</text>
</a>
</g>
</g>
<!-- Node1&#45;&gt;Node11 -->
<g id="edge16" class="edge"><title>Node1&#45;&gt;Node11</title>
<path fill="none" stroke="midnightblue" d="M62.9078,-424.16C71.6151,-451.231 100.261,-528.026 154,-561.5 210.538,-596.718 287.149,-601.904 343.633,-599.647"/>
<polygon fill="midnightblue" stroke="midnightblue" points="344.119,-603.128 353.936,-599.145 343.778,-596.136 344.119,-603.128"/>
</g>
<!-- Node12 -->
<g id="node12" class="node"><title>Node12</title>
<g id="a_node12"><a xlink:href="classscram_1_1mef_1_1Formula.xhtml#a4e86a729bae4629de0217c9f8c6960a0" target="_top" xlink:title="scram::mef::Formula\l::event_args">
<polygon fill="white" stroke="black" points="172,-488.5 172,-518.5 288,-518.5 288,-488.5 172,-488.5"/>
<text text-anchor="start" x="180" y="-506.5" font-family="Helvetica,sans-Serif" font-size="10.00">scram::mef::Formula</text>
<text text-anchor="middle" x="230" y="-495.5" font-family="Helvetica,sans-Serif" font-size="10.00">::event_args</text>
</a>
</g>
</g>
<!-- Node1&#45;&gt;Node12 -->
<g id="edge11" class="edge"><title>Node1&#45;&gt;Node12</title>
<path fill="none" stroke="midnightblue" d="M71.4625,-424.115C88.502,-438.001 121.956,-463.73 154,-479.5 157.795,-481.368 161.768,-483.134 165.821,-484.797"/>
<polygon fill="midnightblue" stroke="midnightblue" points="164.785,-488.15 175.375,-488.488 167.308,-481.62 164.785,-488.15"/>
</g>
<!-- Node13 -->
<g id="node13" class="node"><title>Node13</title>
<g id="a_node13"><a xlink:href="classscram_1_1mef_1_1BasicEvent.xhtml#ab9764640b00bcc3f7241c5bf185d8f2a" target="_top" xlink:title="Sets the expression of this basic event. ">
<polygon fill="white" stroke="black" points="165,-421.5 165,-451.5 295,-451.5 295,-421.5 165,-421.5"/>
<text text-anchor="start" x="173" y="-439.5" font-family="Helvetica,sans-Serif" font-size="10.00">scram::mef::BasicEvent</text>
<text text-anchor="middle" x="230" y="-428.5" font-family="Helvetica,sans-Serif" font-size="10.00">::expression</text>
</a>
</g>
</g>
<!-- Node1&#45;&gt;Node13 -->
<g id="edge12" class="edge"><title>Node1&#45;&gt;Node13</title>
<path fill="none" stroke="midnightblue" d="M118.16,-422.071C129.946,-423.605 142.491,-425.239 154.745,-426.834"/>
<polygon fill="midnightblue" stroke="midnightblue" points="154.578,-430.341 164.946,-428.162 155.482,-423.4 154.578,-430.341"/>
</g>
<!-- Node14 -->
<g id="node14" class="node"><title>Node14</title>
<g id="a_node14"><a xlink:href="classscram_1_1mef_1_1Gate.xhtml#abde84a63a060e2424ab92431634f21d9" target="_top" xlink:title="scram::mef::Gate::formula">
<polygon fill="white" stroke="black" points="158.5,-383 158.5,-402 301.5,-402 301.5,-383 158.5,-383"/>
<text text-anchor="middle" x="230" y="-390" font-family="Helvetica,sans-Serif" font-size="10.00">scram::mef::Gate::formula</text>
</a>
</g>
</g>
<!-- Node1&#45;&gt;Node14 -->
<g id="edge14" class="edge"><title>Node1&#45;&gt;Node14</title>
<path fill="none" stroke="midnightblue" d="M118.16,-406.929C127.899,-405.661 138.157,-404.326 148.34,-403"/>
<polygon fill="midnightblue" stroke="midnightblue" points="149.012,-406.442 158.476,-401.681 148.108,-399.501 149.012,-406.442"/>
</g>
<!-- Node15 -->
<g id="node15" class="node"><title>Node15</title>
<g id="a_node15"><a xlink:href="classscram_1_1mef_1_1Formula.xhtml#af3c5953f817cc202b5009cc4557c7d72" target="_top" xlink:title="scram::mef::Formula\l::formula_args">
<polygon fill="white" stroke="black" points="172,-333.5 172,-363.5 288,-363.5 288,-333.5 172,-333.5"/>
<text text-anchor="start" x="180" y="-351.5" font-family="Helvetica,sans-Serif" font-size="10.00">scram::mef::Formula</text>
<text text-anchor="middle" x="230" y="-340.5" font-family="Helvetica,sans-Serif" font-size="10.00">::formula_args</text>
</a>
</g>
</g>
<!-- Node1&#45;&gt;Node15 -->
<g id="edge15" class="edge"><title>Node1&#45;&gt;Node15</title>
<path fill="none" stroke="midnightblue" d="M80.6857,-404.84C99.5856,-396.167 128.403,-383.326 154,-373.5 159.802,-371.273 165.898,-369.051 172.003,-366.903"/>
<polygon fill="midnightblue" stroke="midnightblue" points="173.254,-370.174 181.561,-363.598 170.967,-363.558 173.254,-370.174"/>
</g>
<!-- Node16 -->
<g id="node16" class="node"><title>Node16</title>
<g id="a_node16"><a xlink:href="classscram_1_1mef_1_1BasicEvent.xhtml#ab6b4e5fd2ce8a81ae887902be30c2b29" target="_top" xlink:title="scram::mef::BasicEvent\l::HasExpression">
<polygon fill="white" stroke="black" points="165,-284.5 165,-314.5 295,-314.5 295,-284.5 165,-284.5"/>
<text text-anchor="start" x="173" y="-302.5" font-family="Helvetica,sans-Serif" font-size="10.00">scram::mef::BasicEvent</text>
<text text-anchor="middle" x="230" y="-291.5" font-family="Helvetica,sans-Serif" font-size="10.00">::HasExpression</text>
</a>
</g>
</g>
<!-- Node1&#45;&gt;Node16 -->
<g id="edge17" class="edge"><title>Node1&#45;&gt;Node16</title>
<path fill="none" stroke="midnightblue" d="M67.4924,-404.923C82.1945,-386.738 116.66,-347.02 154,-324.5 157.407,-322.445 161.003,-320.536 164.703,-318.764"/>
<polygon fill="midnightblue" stroke="midnightblue" points="166.322,-321.876 174.063,-314.642 163.501,-315.469 166.322,-321.876"/>
</g>
<!-- Node17 -->
<g id="node17" class="node"><title>Node17</title>
<g id="a_node17"><a xlink:href="classscram_1_1mef_1_1Element.xhtml#a87e90b86d7599c2f60d7a7b99ab52d20" target="_top" xlink:title="scram::mef::Element\l::label">
<polygon fill="white" stroke="black" points="171.5,-235.5 171.5,-265.5 288.5,-265.5 288.5,-235.5 171.5,-235.5"/>
<text text-anchor="start" x="179.5" y="-253.5" font-family="Helvetica,sans-Serif" font-size="10.00">scram::mef::Element</text>
<text text-anchor="middle" x="230" y="-242.5" font-family="Helvetica,sans-Serif" font-size="10.00">::label</text>
</a>
</g>
</g>
<!-- Node1&#45;&gt;Node17 -->
<g id="edge18" class="edge"><title>Node1&#45;&gt;Node17</title>
<path fill="none" stroke="midnightblue" d="M63.8851,-404.815C74.4563,-379.673 106.188,-311.769 154,-275.5 156.624,-273.509 159.416,-271.672 162.32,-269.977"/>
<polygon fill="midnightblue" stroke="midnightblue" points="164.053,-273.021 171.316,-265.307 160.828,-266.808 164.053,-273.021"/>
</g>
<!-- Node18 -->
<g id="node18" class="node"><title>Node18</title>
<g id="a_node18"><a xlink:href="classscram_1_1mef_1_1Role.xhtml#aa1843c29411c29b27d79414d34525bbc" target="_top" xlink:title="scram::mef::Role::role">
<polygon fill="white" stroke="black" points="169.5,-197 169.5,-216 290.5,-216 290.5,-197 169.5,-197"/>
<text text-anchor="middle" x="230" y="-204" font-family="Helvetica,sans-Serif" font-size="10.00">scram::mef::Role::role</text>
</a>
</g>
</g>
<!-- Node1&#45;&gt;Node18 -->
<g id="edge20" class="edge"><title>Node1&#45;&gt;Node18</title>
<path fill="none" stroke="midnightblue" d="M61.8724,-404.964C68.4518,-374.062 93.4689,-275.838 154,-226.5 156.747,-224.261 159.721,-222.271 162.846,-220.503"/>
<polygon fill="midnightblue" stroke="midnightblue" points="164.512,-223.585 171.992,-216.082 161.465,-217.282 164.512,-223.585"/>
</g>
<!-- Node19 -->
<g id="node19" class="node"><title>Node19</title>
<g id="a_node19"><a xlink:href="classscram_1_1xml_1_1StreamElement.xhtml#a42273d1e66d736a9c2810fbee7dc4cb9" target="_top" xlink:title="Sets the attributes for the element. ">
<polygon fill="white" stroke="black" points="154,-147.5 154,-177.5 306,-177.5 306,-147.5 154,-147.5"/>
<text text-anchor="start" x="162" y="-165.5" font-family="Helvetica,sans-Serif" font-size="10.00">scram::xml::StreamElement</text>
<text text-anchor="middle" x="230" y="-154.5" font-family="Helvetica,sans-Serif" font-size="10.00">::SetAttribute</text>
</a>
</g>
</g>
<!-- Node1&#45;&gt;Node19 -->
<g id="edge22" class="edge"><title>Node1&#45;&gt;Node19</title>
<path fill="none" stroke="midnightblue" d="M61.1645,-404.693C65.8232,-369.828 86.2722,-250.592 154,-187.5 155.673,-185.942 157.445,-184.48 159.298,-183.11"/>
<polygon fill="midnightblue" stroke="midnightblue" points="161.304,-185.982 167.868,-177.665 157.55,-180.074 161.304,-185.982"/>
</g>
<!-- Node20 -->
<g id="node20" class="node"><title>Node20</title>
<g id="a_node20"><a xlink:href="classscram_1_1mef_1_1HouseEvent.xhtml#a15ab4daf36b62127703cf610bdc80183" target="_top" xlink:title="Sets the state for House event. ">
<polygon fill="white" stroke="black" points="162.5,-98.5 162.5,-128.5 297.5,-128.5 297.5,-98.5 162.5,-98.5"/>
<text text-anchor="start" x="170.5" y="-116.5" font-family="Helvetica,sans-Serif" font-size="10.00">scram::mef::HouseEvent</text>
<text text-anchor="middle" x="230" y="-105.5" font-family="Helvetica,sans-Serif" font-size="10.00">::state</text>
</a>
</g>
</g>
<!-- Node1&#45;&gt;Node20 -->
<g id="edge23" class="edge"><title>Node1&#45;&gt;Node20</title>
<path fill="none" stroke="midnightblue" d="M60.3405,-404.855C62.246,-365.75 74.6397,-217.346 154,-138.5 155.461,-137.049 157.007,-135.682 158.625,-134.395"/>
<polygon fill="midnightblue" stroke="midnightblue" points="160.898,-137.084 167.239,-128.596 156.989,-131.277 160.898,-137.084"/>
</g>
<!-- Node21 -->
<g id="node21" class="node"><title>Node21</title>
<g id="a_node21"><a xlink:href="classscram_1_1mef_1_1Formula.xhtml#aaf6992ab41ab8ae013211fd861e726db" target="_top" xlink:title="scram::mef::Formula\l::type">
<polygon fill="white" stroke="black" points="172,-49.5 172,-79.5 288,-79.5 288,-49.5 172,-49.5"/>
<text text-anchor="start" x="180" y="-67.5" font-family="Helvetica,sans-Serif" font-size="10.00">scram::mef::Formula</text>
<text text-anchor="middle" x="230" y="-56.5" font-family="Helvetica,sans-Serif" font-size="10.00">::type</text>
</a>
</g>
</g>
<!-- Node1&#45;&gt;Node21 -->
<g id="edge24" class="edge"><title>Node1&#45;&gt;Node21</title>
<path fill="none" stroke="midnightblue" d="M59.7295,-404.928C59.0472,-361.754 62.0637,-183.139 154,-88.5 156.682,-85.739 159.682,-83.295 162.896,-81.1317"/>
<polygon fill="midnightblue" stroke="midnightblue" points="164.882,-84.0284 171.837,-76.0359 161.416,-77.9468 164.882,-84.0284"/>
</g>
<!-- Node22 -->
<g id="node22" class="node"><title>Node22</title>
<g id="a_node22"><a xlink:href="classscram_1_1mef_1_1Formula.xhtml#a73f9de40978aad0665e3a6d95e85e7a2" target="_top" xlink:title="scram::mef::Formula\l::vote_number">
<polygon fill="white" stroke="black" points="172,-0.5 172,-30.5 288,-30.5 288,-0.5 172,-0.5"/>
<text text-anchor="start" x="180" y="-18.5" font-family="Helvetica,sans-Serif" font-size="10.00">scram::mef::Formula</text>
<text text-anchor="middle" x="230" y="-7.5" font-family="Helvetica,sans-Serif" font-size="10.00">::vote_number</text>
</a>
</g>
</g>
<!-- Node1&#45;&gt;Node22 -->
<g id="edge25" class="edge"><title>Node1&#45;&gt;Node22</title>
<path fill="none" stroke="midnightblue" d="M61.1619,-404.736C67.693,-351.394 101.428,-95.5549 154,-39.5 156.633,-36.6923 159.595,-34.2119 162.78,-32.0208"/>
<polygon fill="midnightblue" stroke="midnightblue" points="164.768,-34.914 171.663,-26.8701 161.257,-28.8582 164.768,-34.914"/>
</g>
<!-- Node7 -->
<g id="node7" class="node"><title>Node7</title>
<g id="a_node7"><a xlink:href="classscram_1_1mef_1_1Component.xhtml#a29871b1caf2fb961509b42872e6b5213" target="_top" xlink:title="Adds MEF constructs into this component container. ">
<polygon fill="white" stroke="black" points="342,-724 342,-743 500,-743 500,-724 342,-724"/>
<text text-anchor="middle" x="421" y="-731" font-family="Helvetica,sans-Serif" font-size="10.00">scram::mef::Component::Add</text>
</a>
</g>
</g>
<!-- Node6&#45;&gt;Node7 -->
<g id="edge6" class="edge"><title>Node6&#45;&gt;Node7</title>
<path fill="none" stroke="midnightblue" d="M290.044,-644.578C295.741,-647.357 301.182,-650.635 306,-654.5 330.258,-673.959 316.957,-696.062 342,-714.5 344.638,-716.442 347.448,-718.187 350.378,-719.756"/>
<polygon fill="midnightblue" stroke="midnightblue" points="348.923,-722.94 359.47,-723.952 351.857,-716.584 348.923,-722.94"/>
</g>
<!-- Node8 -->
<g id="node8" class="node"><title>Node8</title>
<g id="a_node8"><a xlink:href="classscram_1_1mef_1_1Component.xhtml#ab9230b43d6903a2e26bf55f7584a1f56" target="_top" xlink:title="Removes Event from the component container. ">
<polygon fill="white" stroke="black" points="354,-674.5 354,-704.5 488,-704.5 488,-674.5 354,-674.5"/>
<text text-anchor="start" x="362" y="-692.5" font-family="Helvetica,sans-Serif" font-size="10.00">scram::mef::Component</text>
<text text-anchor="middle" x="421" y="-681.5" font-family="Helvetica,sans-Serif" font-size="10.00">::Remove</text>
</a>
</g>
</g>
<!-- Node6&#45;&gt;Node8 -->
<g id="edge7" class="edge"><title>Node6&#45;&gt;Node8</title>
<path fill="none" stroke="midnightblue" d="M276.854,-644.544C296.841,-651.056 320.558,-658.724 342,-665.5 348.029,-667.405 354.326,-669.375 360.614,-671.33"/>
<polygon fill="midnightblue" stroke="midnightblue" points="359.862,-674.761 370.45,-674.377 361.934,-668.074 359.862,-674.761"/>
</g>
<!-- Node9 -->
<g id="node9" class="node"><title>Node9</title>
<g id="a_node9"><a xlink:href="classscram_1_1mef_1_1Component.xhtml#a63441da08667fe6826f3ae0c0a5a94fe" target="_top" xlink:title="Recursively traverses components to gather gates relevant to the whole component. ...">
<polygon fill="white" stroke="black" points="354,-625.5 354,-655.5 488,-655.5 488,-625.5 354,-625.5"/>
<text text-anchor="start" x="362" y="-643.5" font-family="Helvetica,sans-Serif" font-size="10.00">scram::mef::Component</text>
<text text-anchor="middle" x="421" y="-632.5" font-family="Helvetica,sans-Serif" font-size="10.00">::GatherGates</text>
</a>
</g>
</g>
<!-- Node6&#45;&gt;Node9 -->
<g id="edge8" class="edge"><title>Node6&#45;&gt;Node9</title>
<path fill="none" stroke="midnightblue" d="M297.103,-633.347C312.21,-634.226 328.384,-635.168 343.873,-636.069"/>
<polygon fill="midnightblue" stroke="midnightblue" points="343.748,-639.568 353.934,-636.655 344.155,-632.58 343.748,-639.568"/>
</g>
<!-- Node6&#45;&gt;Node11 -->
<g id="edge10" class="edge"><title>Node6&#45;&gt;Node11</title>
<path fill="none" stroke="midnightblue" d="M297.103,-616.209C312.21,-613.172 328.384,-609.92 343.873,-606.806"/>
<polygon fill="midnightblue" stroke="midnightblue" points="344.82,-610.186 353.934,-604.783 343.441,-603.323 344.82,-610.186"/>
</g>
<!-- Node9&#45;&gt;Node10 -->
<g id="edge9" class="edge"><title>Node9&#45;&gt;Node10</title>
<path fill="none" stroke="midnightblue" d="M476.735,-625.5C493.288,-620.963 511.623,-615.939 528.765,-611.241"/>
<polygon fill="midnightblue" stroke="midnightblue" points="529.977,-614.538 538.697,-608.519 528.127,-607.787 529.977,-614.538"/>
</g>
<!-- Node13&#45;&gt;Node13 -->
<g id="edge13" class="edge"><title>Node13&#45;&gt;Node13</title>
<path fill="none" stroke="midnightblue" d="M200.374,-451.659C193.23,-461.057 203.105,-470 230,-470 246.389,-470 256.458,-466.679 260.207,-461.958"/>
<polygon fill="midnightblue" stroke="midnightblue" points="263.684,-461.446 259.626,-451.659 256.695,-461.84 263.684,-461.446"/>
</g>
</g>
</svg>
        <g id="navigator" transform="translate(0 0)" fill="#404254">
                <rect fill="#f2f5e9" fill-opacity="0.5" stroke="#606060" stroke-width=".5" x="0" y="0" width="60" height="60"/>
                <use id="zoomplus" xlink:href="#zoomPlus" x="17" y="9" onmousedown="handleZoom(evt,'in')"/>
                <use id="zoomminus" xlink:href="#zoomMin" x="42" y="9" onmousedown="handleZoom(evt,'out')"/>
                <use id="reset" xlink:href="#resetDef" x="30" y="36" onmousedown="handleReset()"/>
                <g id="arrowUp" xlink:href="#dirArrow" transform="translate(30 24)" onmousedown="handlePan(0,-1)">
                  <use xlink:href="#rim" fill="#404040">
                        <set attributeName="fill" to="#808080" begin="arrowUp.mouseover" end="arrowUp.mouseout"/>
                  </use>
                  <path fill="none" stroke="white" stroke-width="1.5" d="M0,-3.0v7 M-2.5,-0.5L0,-3.0L2.5,-0.5"/>
                </g>
                <g id="arrowRight" xlink:href="#dirArrow" transform="rotate(90) translate(36 -43)" onmousedown="handlePan(1,0)">
                  <use xlink:href="#rim" fill="#404040">
                        <set attributeName="fill" to="#808080" begin="arrowRight.mouseover" end="arrowRight.mouseout"/>
                  </use>
                  <path fill="none" stroke="white" stroke-width="1.5" d="M0,-3.0v7 M-2.5,-0.5L0,-3.0L2.5,-0.5"/>
                </g>
                <g id="arrowDown" xlink:href="#dirArrow" transform="rotate(180) translate(-30 -48)" onmousedown="handlePan(0,1)">
                  <use xlink:href="#rim" fill="#404040">
                        <set attributeName="fill" to="#808080" begin="arrowDown.mouseover" end="arrowDown.mouseout"/>
                  </use>
                  <path fill="none" stroke="white" stroke-width="1.5" d="M0,-3.0v7 M-2.5,-0.5L0,-3.0L2.5,-0.5"/>
                </g>
                <g id="arrowLeft" xlink:href="#dirArrow" transform="rotate(270) translate(-36 17)" onmousedown="handlePan(-1,0)">
                  <use xlink:href="#rim" fill="#404040">
                        <set attributeName="fill" to="#808080" begin="arrowLeft.mouseover" end="arrowLeft.mouseout"/>
                  </use>
                  <path fill="none" stroke="white" stroke-width="1.5" d="M0,-3.0v7 M-2.5,-0.5L0,-3.0L2.5,-0.5"/>
                </g>
        </g>
        <svg viewBox="0 0 15 15" width="100%" height="30px" preserveAspectRatio="xMaxYMin meet">
         <g id="arrow_out" transform="scale(0.3 0.3)">
          <a xlink:href="serialization_8cc_a83f7058a5caad9ec3ffb5fd6c7d7b8f6_cgraph_org.svg" target="_base">
           <rect id="button" ry="5" rx="5" y="6" x="6" height="38" width="38"
                fill="#f2f5e9" fill-opacity="0.5" stroke="#606060" stroke-width="1.0"/>
           <path id="arrow"
             d="M 11.500037,31.436501 C 11.940474,20.09759 22.043105,11.32322 32.158766,21.979434 L 37.068811,17.246167 C 37.068811,17.246167 37.088388,32 37.088388,32 L 22.160133,31.978069 C 22.160133,31.978069 26.997745,27.140456 26.997745,27.140456 C 18.528582,18.264221 13.291696,25.230495 11.500037,31.436501 z"
             style="fill:#404040;"/>
          </a>
         </g>
        </svg>
</svg>
