<?xml version="1.0" encoding="UTF-8" standalone="no"?>
<!DOCTYPE svg PUBLIC "-//W3C//DTD SVG 1.1//EN"
 "http://www.w3.org/Graphics/SVG/1.1/DTD/svg11.dtd">
<!-- Generated by graphviz version 2.38.0 (20140413.2041)
 -->
<!-- Title: scram::mef::Serialize Pages: 1 -->
<!--zoomable 1130 -->
<svg id="main" version="1.1" xmlns="http://www.w3.org/2000/svg" xmlns:xlink="http://www.w3.org/1999/xlink" xml:space="preserve" onload="init(evt)">
<style type="text/css"><![CDATA[
.edge:hover path { stroke: red; }
.edge:hover polygon { stroke: red; fill: red; }
]]></style>
<script type="text/javascript"><![CDATA[
var edges = document.getElementsByTagName('g');
if (edges && edges.length) {
  for (var i=0;i<edges.length;i++) {
    if (edges[i].id.substr(0,4)=='edge') {
      edges[i].setAttribute('class','edge');
    }
  }
}
]]></script>
        <defs>
                <circle id="rim" cx="0" cy="0" r="7"/>
                <circle id="rim2" cx="0" cy="0" r="3.5"/>
                <g id="zoomPlus">
                        <use xlink:href="#rim" fill="#404040">
                                <set attributeName="fill" to="#808080" begin="zoomplus.mouseover" end="zoomplus.mouseout"/>
                        </use>
                        <path d="M-4,0h8M0,-4v8" fill="none" stroke="white" stroke-width="1.5" pointer-events="none"/>
                </g>
                <g id="zoomMin">
                        <use xlink:href="#rim" fill="#404040">
                                <set attributeName="fill" to="#808080" begin="zoomminus.mouseover" end="zoomminus.mouseout"/>
                        </use>
                        <path d="M-4,0h8" fill="none" stroke="white" stroke-width="1.5" pointer-events="none"/>
                </g>
                <g id="dirArrow">
                        <path fill="none" stroke="white" stroke-width="1.5" d="M0,-3.0v7 M-2.5,-0.5L0,-3.0L2.5,-0.5"/>
                </g>
               <g id="resetDef">
                       <use xlink:href="#rim2" fill="#404040">
                               <set attributeName="fill" to="#808080" begin="reset.mouseover" end="reset.mouseout"/>
                       </use>
               </g>
        </defs>

<script type="text/javascript">
var viewWidth = 815;
var viewHeight = 1130;
var sectionId = 'dynsection-3';
</script>
<script xlink:href="svgpan.js"/>
<svg id="graph" class="graph">
<g id="viewport">
<title>scram::mef::Serialize</title>
<polygon fill="white" stroke="none" points="-4,4 -4,-1126.16 811,-1126.16 811,4 -4,4"/>
<!-- Node1 -->
<g id="node1" class="node"><title>Node1</title>
<polygon fill="#bfbfbf" stroke="black" points="0,-775 0,-794 118,-794 118,-775 0,-775"/>
<text text-anchor="middle" x="59" y="-782" font-family="Helvetica,sans-Serif" font-size="10.00">scram::mef::Serialize</text>
</g>
<!-- Node2 -->
<g id="node2" class="node"><title>Node2</title>
<g id="a_node2"><a xlink:href="classscram_1_1xml_1_1StreamElement.xhtml#a12256127d75537b64e53ccc1d7c0e07c" target="_top" xlink:title="Adds a child element to the element. ">
<polygon fill="white" stroke="black" points="308,-810.5 308,-840.5 460,-840.5 460,-810.5 308,-810.5"/>
<text text-anchor="start" x="316" y="-828.5" font-family="Helvetica,sans-Serif" font-size="10.00">scram::xml::StreamElement</text>
<text text-anchor="middle" x="384" y="-817.5" font-family="Helvetica,sans-Serif" font-size="10.00">::AddChild</text>
</a>
</g>
</g>
<!-- Node1&#45;&gt;Node2 -->
<g id="edge1" class="edge"><title>Node1&#45;&gt;Node2</title>
<path fill="none" stroke="midnightblue" d="M90.1607,-794.089C108.443,-799.507 132.345,-805.897 154,-809.5 201.133,-817.341 254.343,-821.347 297.602,-823.39"/>
<polygon fill="midnightblue" stroke="midnightblue" points="297.66,-826.896 307.806,-823.845 297.972,-819.903 297.66,-826.896"/>
</g>
<!-- Node3 -->
<g id="node3" class="node"><title>Node3</title>
<g id="a_node3"><a xlink:href="classscram_1_1mef_1_1Model.xhtml#ada7804d62fc594bff7b080c680586209" target="_top" xlink:title="scram::mef::Model::\lbasic_events">
<polygon fill="white" stroke="black" points="157,-1042.5 157,-1072.5 269,-1072.5 269,-1042.5 157,-1042.5"/>
<text text-anchor="start" x="165" y="-1060.5" font-family="Helvetica,sans-Serif" font-size="10.00">scram::mef::Model::</text>
<text text-anchor="middle" x="213" y="-1049.5" font-family="Helvetica,sans-Serif" font-size="10.00">basic_events</text>
</a>
</g>
</g>
<!-- Node1&#45;&gt;Node3 -->
<g id="edge2" class="edge"><title>Node1&#45;&gt;Node3</title>
<path fill="none" stroke="midnightblue" d="M60.9099,-794.047C64.8515,-830.27 83.5767,-960.832 154,-1033.5 155.043,-1034.58 156.141,-1035.61 157.285,-1036.59"/>
<polygon fill="midnightblue" stroke="midnightblue" points="155.261,-1039.45 165.416,-1042.47 159.362,-1033.77 155.261,-1039.45"/>
</g>
<!-- Node4 -->
<g id="node4" class="node"><title>Node4</title>
<g id="a_node4"><a xlink:href="classscram_1_1mef_1_1Model.xhtml#a5c8b03561207b374fc06dd61c0cf3ace" target="_top" xlink:title="scram::mef::Model::\lccf_groups">
<polygon fill="white" stroke="black" points="157,-993.5 157,-1023.5 269,-1023.5 269,-993.5 157,-993.5"/>
<text text-anchor="start" x="165" y="-1011.5" font-family="Helvetica,sans-Serif" font-size="10.00">scram::mef::Model::</text>
<text text-anchor="middle" x="213" y="-1000.5" font-family="Helvetica,sans-Serif" font-size="10.00">ccf_groups</text>
</a>
</g>
</g>
<!-- Node1&#45;&gt;Node4 -->
<g id="edge3" class="edge"><title>Node1&#45;&gt;Node4</title>
<path fill="none" stroke="midnightblue" d="M61.9634,-794.307C68.8215,-826.145 94.5954,-927.825 154,-984.5 155.109,-985.558 156.271,-986.572 157.477,-987.544"/>
<polygon fill="midnightblue" stroke="midnightblue" points="155.749,-990.602 165.977,-993.363 159.703,-984.826 155.749,-990.602"/>
</g>
<!-- Node5 -->
<g id="node5" class="node"><title>Node5</title>
<g id="a_node5"><a xlink:href="classscram_1_1mef_1_1Model.xhtml#a97786aaa61d59617a0b08dcd518d0d68" target="_top" xlink:title="scram::mef::Model::\levent_trees">
<polygon fill="white" stroke="black" points="157,-944.5 157,-974.5 269,-974.5 269,-944.5 157,-944.5"/>
<text text-anchor="start" x="165" y="-962.5" font-family="Helvetica,sans-Serif" font-size="10.00">scram::mef::Model::</text>
<text text-anchor="middle" x="213" y="-951.5" font-family="Helvetica,sans-Serif" font-size="10.00">event_trees</text>
</a>
</g>
</g>
<!-- Node1&#45;&gt;Node5 -->
<g id="edge4" class="edge"><title>Node1&#45;&gt;Node5</title>
<path fill="none" stroke="midnightblue" d="M63.5074,-794.055C73.5723,-820.241 105.005,-893.967 154,-935.5 155.496,-936.768 157.069,-937.977 158.7,-939.128"/>
<polygon fill="midnightblue" stroke="midnightblue" points="156.908,-942.135 167.255,-944.414 160.587,-936.18 156.908,-942.135"/>
</g>
<!-- Node6 -->
<g id="node6" class="node"><title>Node6</title>
<g id="a_node6"><a xlink:href="classscram_1_1mef_1_1Model.xhtml#a9bac9a7746026484f3dc69a3ccb2ac4a" target="_top" xlink:title="scram::mef::Model::\lfault_trees">
<polygon fill="white" stroke="black" points="157,-895.5 157,-925.5 269,-925.5 269,-895.5 157,-895.5"/>
<text text-anchor="start" x="165" y="-913.5" font-family="Helvetica,sans-Serif" font-size="10.00">scram::mef::Model::</text>
<text text-anchor="middle" x="213" y="-902.5" font-family="Helvetica,sans-Serif" font-size="10.00">fault_trees</text>
</a>
</g>
</g>
<!-- Node1&#45;&gt;Node6 -->
<g id="edge5" class="edge"><title>Node1&#45;&gt;Node6</title>
<path fill="none" stroke="midnightblue" d="M67.6995,-794.218C82.7556,-812.763 117.8,-853.736 154,-880.5 158.789,-884.04 164.054,-887.391 169.399,-890.481"/>
<polygon fill="midnightblue" stroke="midnightblue" points="167.95,-893.677 178.4,-895.421 171.318,-887.541 167.95,-893.677"/>
</g>
<!-- Node7 -->
<g id="node7" class="node"><title>Node7</title>
<g id="a_node7"><a xlink:href="classscram_1_1mef_1_1Model.xhtml#a742b8f5f989b633eeeeb192d2e793181" target="_top" xlink:title="scram::mef::Model::\lHasDefaultName">
<polygon fill="white" stroke="black" points="519,-832.5 519,-862.5 631,-862.5 631,-832.5 519,-832.5"/>
<text text-anchor="start" x="527" y="-850.5" font-family="Helvetica,sans-Serif" font-size="10.00">scram::mef::Model::</text>
<text text-anchor="middle" x="575" y="-839.5" font-family="Helvetica,sans-Serif" font-size="10.00">HasDefaultName</text>
</a>
</g>
</g>
<!-- Node1&#45;&gt;Node7 -->
<g id="edge6" class="edge"><title>Node1&#45;&gt;Node7</title>
<path fill="none" stroke="midnightblue" d="M76.017,-794.08C94.2456,-804.52 125.228,-820.883 154,-829.5 275.144,-865.784 424.707,-861.196 508.72,-854.443"/>
<polygon fill="midnightblue" stroke="midnightblue" points="509.212,-857.914 518.884,-853.589 508.626,-850.938 509.212,-857.914"/>
</g>
<!-- Node8 -->
<g id="node8" class="node"><title>Node8</title>
<g id="a_node8"><a xlink:href="classscram_1_1mef_1_1Element.xhtml#adb401e2ca84aa98cb60797bec2500a81" target="_top" xlink:title="scram::mef::Element\l::name">
<polygon fill="white" stroke="black" points="690,-799.5 690,-829.5 807,-829.5 807,-799.5 690,-799.5"/>
<text text-anchor="start" x="698" y="-817.5" font-family="Helvetica,sans-Serif" font-size="10.00">scram::mef::Element</text>
<text text-anchor="middle" x="748.5" y="-806.5" font-family="Helvetica,sans-Serif" font-size="10.00">::name</text>
</a>
</g>
</g>
<!-- Node1&#45;&gt;Node8 -->
<g id="edge10" class="edge"><title>Node1&#45;&gt;Node8</title>
<path fill="none" stroke="midnightblue" d="M61.4832,-794.012C68.9966,-840.851 104.452,-1046.17 154,-1082.5 354.929,-1229.81 649.722,-924.912 727.887,-837.189"/>
<polygon fill="midnightblue" stroke="midnightblue" points="730.568,-839.441 734.565,-829.629 725.322,-834.807 730.568,-839.441"/>
</g>
<!-- Node9 -->
<g id="node9" class="node"><title>Node9</title>
<g id="a_node9"><a xlink:href="classscram_1_1mef_1_1Model.xhtml#a2ddd6d121e1ab6fbe140fc3fb449cd96" target="_top" xlink:title="scram::mef::Model::\lhouse_events">
<polygon fill="white" stroke="black" points="157,-769.5 157,-799.5 269,-799.5 269,-769.5 157,-769.5"/>
<text text-anchor="start" x="165" y="-787.5" font-family="Helvetica,sans-Serif" font-size="10.00">scram::mef::Model::</text>
<text text-anchor="middle" x="213" y="-776.5" font-family="Helvetica,sans-Serif" font-size="10.00">house_events</text>
</a>
</g>
</g>
<!-- Node1&#45;&gt;Node9 -->
<g id="edge8" class="edge"><title>Node1&#45;&gt;Node9</title>
<path fill="none" stroke="midnightblue" d="M118.332,-784.5C127.555,-784.5 137.145,-784.5 146.517,-784.5"/>
<polygon fill="midnightblue" stroke="midnightblue" points="146.574,-788 156.573,-784.5 146.573,-781 146.574,-788"/>
</g>
<!-- Node10 -->
<g id="node10" class="node"><title>Node10</title>
<g id="a_node10"><a xlink:href="classscram_1_1mef_1_1Model.xhtml#a04f7628e1d3a27295d2ac7bbdc7ab26b" target="_top" xlink:title="scram::mef::Model::\linitiating_events">
<polygon fill="white" stroke="black" points="157,-720.5 157,-750.5 269,-750.5 269,-720.5 157,-720.5"/>
<text text-anchor="start" x="165" y="-738.5" font-family="Helvetica,sans-Serif" font-size="10.00">scram::mef::Model::</text>
<text text-anchor="middle" x="213" y="-727.5" font-family="Helvetica,sans-Serif" font-size="10.00">initiating_events</text>
</a>
</g>
</g>
<!-- Node1&#45;&gt;Node10 -->
<g id="edge9" class="edge"><title>Node1&#45;&gt;Node10</title>
<path fill="none" stroke="midnightblue" d="M89.668,-774.936C108.407,-768.895 133.224,-760.895 155.606,-753.68"/>
<polygon fill="midnightblue" stroke="midnightblue" points="156.911,-756.936 165.355,-750.537 154.763,-750.274 156.911,-756.936"/>
</g>
<!-- Node11 -->
<g id="node11" class="node"><title>Node11</title>
<g id="a_node11"><a xlink:href="classscram_1_1mef_1_1Model.xhtml#a698156baa445c530089d57601e19bb35" target="_top" xlink:title="scram::mef::Model::\lparameters">
<polygon fill="white" stroke="black" points="157,-671.5 157,-701.5 269,-701.5 269,-671.5 157,-671.5"/>
<text text-anchor="start" x="165" y="-689.5" font-family="Helvetica,sans-Serif" font-size="10.00">scram::mef::Model::</text>
<text text-anchor="middle" x="213" y="-678.5" font-family="Helvetica,sans-Serif" font-size="10.00">parameters</text>
</a>
</g>
</g>
<!-- Node1&#45;&gt;Node11 -->
<g id="edge11" class="edge"><title>Node1&#45;&gt;Node11</title>
<path fill="none" stroke="midnightblue" d="M70.6298,-774.77C87.3992,-759.773 121.445,-730.734 154,-711.5 157.21,-709.604 160.59,-707.77 164.039,-706.016"/>
<polygon fill="midnightblue" stroke="midnightblue" points="165.771,-709.066 173.258,-701.57 162.731,-702.761 165.771,-709.066"/>
</g>
<!-- Node12 -->
<g id="node12" class="node"><title>Node12</title>
<g id="a_node12"><a xlink:href="classscram_1_1xml_1_1Stream.xhtml#aef4e5bae1f92709e708c515a255fb5e4" target="_top" xlink:title="Creates a root element for the document. ">
<polygon fill="white" stroke="black" points="157,-622.5 157,-652.5 269,-652.5 269,-622.5 157,-622.5"/>
<text text-anchor="start" x="165" y="-640.5" font-family="Helvetica,sans-Serif" font-size="10.00">scram::xml::Stream</text>
<text text-anchor="middle" x="213" y="-629.5" font-family="Helvetica,sans-Serif" font-size="10.00">::root</text>
</a>
</g>
</g>
<!-- Node1&#45;&gt;Node12 -->
<g id="edge12" class="edge"><title>Node1&#45;&gt;Node12</title>
<path fill="none" stroke="midnightblue" d="M65.0902,-774.929C77.4819,-752.442 111.353,-695.643 154,-662.5 156.273,-660.734 158.689,-659.067 161.196,-657.498"/>
<polygon fill="midnightblue" stroke="midnightblue" points="163.001,-660.498 169.99,-652.535 159.561,-654.402 163.001,-660.498"/>
</g>
<!-- Node13 -->
<g id="node13" class="node"><title>Node13</title>
<g id="a_node13"><a xlink:href="classscram_1_1mef_1_1Model.xhtml#a52198e362df1827d583eceed7306eb6f" target="_top" xlink:title="scram::mef::Model::\lrules">
<polygon fill="white" stroke="black" points="157,-573.5 157,-603.5 269,-603.5 269,-573.5 157,-573.5"/>
<text text-anchor="start" x="165" y="-591.5" font-family="Helvetica,sans-Serif" font-size="10.00">scram::mef::Model::</text>
<text text-anchor="middle" x="213" y="-580.5" font-family="Helvetica,sans-Serif" font-size="10.00">rules</text>
</a>
</g>
</g>
<!-- Node1&#45;&gt;Node13 -->
<g id="edge13" class="edge"><title>Node1&#45;&gt;Node13</title>
<path fill="none" stroke="midnightblue" d="M62.7392,-774.87C71.357,-746.208 100.566,-660.462 154,-612.5 155.31,-611.324 156.686,-610.201 158.114,-609.128"/>
<polygon fill="midnightblue" stroke="midnightblue" points="160.274,-611.9 166.769,-603.529 156.471,-606.023 160.274,-611.9"/>
</g>
<!-- Node14 -->
<g id="node14" class="node"><title>Node14</title>
<g id="a_node14"><a xlink:href="classscram_1_1mef_1_1Model.xhtml#afbb8bfee9de066a3341d34ef5ce885e4" target="_top" xlink:title="scram::mef::Model::\lsequences">
<polygon fill="white" stroke="black" points="157,-524.5 157,-554.5 269,-554.5 269,-524.5 157,-524.5"/>
<text text-anchor="start" x="165" y="-542.5" font-family="Helvetica,sans-Serif" font-size="10.00">scram::mef::Model::</text>
<text text-anchor="middle" x="213" y="-531.5" font-family="Helvetica,sans-Serif" font-size="10.00">sequences</text>
</a>
</g>
</g>
<!-- Node1&#45;&gt;Node14 -->
<g id="edge14" class="edge"><title>Node1&#45;&gt;Node14</title>
<path fill="none" stroke="midnightblue" d="M61.4805,-774.641C67.082,-740.636 90.006,-626.869 154,-563.5 155.089,-562.422 156.233,-561.389 157.424,-560.401"/>
<polygon fill="midnightblue" stroke="midnightblue" points="159.663,-563.106 165.848,-554.504 155.649,-557.372 159.663,-563.106"/>
</g>
<!-- Node15 -->
<g id="node15" class="node"><title>Node15</title>
<g id="a_node15"><a xlink:href="serialization_8cc.xhtml#a83f7058a5caad9ec3ffb5fd6c7d7b8f6" target="_top" xlink:title="Convenience function for serialization into a file. ">
<polygon fill="white" stroke="black" points="154,-445 154,-464 272,-464 272,-445 154,-445"/>
<text text-anchor="middle" x="213" y="-452" font-family="Helvetica,sans-Serif" font-size="10.00">scram::mef::Serialize</text>
</a>
</g>
</g>
<!-- Node1&#45;&gt;Node15 -->
<g id="edge15" class="edge"><title>Node1&#45;&gt;Node15</title>
<path fill="none" stroke="midnightblue" d="M61.8007,-774.762C68.8677,-738.25 97.1532,-606.859 154,-514.5 164.216,-497.901 179.713,-482.178 192.118,-470.995"/>
<polygon fill="midnightblue" stroke="midnightblue" points="194.51,-473.553 199.737,-464.338 189.904,-468.282 194.51,-473.553"/>
</g>
<!-- Node31 -->
<g id="node31" class="node"><title>Node31</title>
<g id="a_node31"><a xlink:href="classscram_1_1xml_1_1StreamElement.xhtml#a42273d1e66d736a9c2810fbee7dc4cb9" target="_top" xlink:title="Sets the attributes for the element. ">
<polygon fill="white" stroke="black" points="308,-0.5 308,-30.5 460,-30.5 460,-0.5 308,-0.5"/>
<text text-anchor="start" x="316" y="-18.5" font-family="Helvetica,sans-Serif" font-size="10.00">scram::xml::StreamElement</text>
<text text-anchor="middle" x="384" y="-7.5" font-family="Helvetica,sans-Serif" font-size="10.00">::SetAttribute</text>
</a>
</g>
</g>
<!-- Node1&#45;&gt;Node31 -->
<g id="edge41" class="edge"><title>Node1&#45;&gt;Node31</title>
<path fill="none" stroke="midnightblue" d="M60.0221,-774.714C60.7358,-703.296 74.6566,-258.985 308,-39.5 309.267,-38.3087 310.592,-37.1765 311.968,-36.1005"/>
<polygon fill="midnightblue" stroke="midnightblue" points="313.95,-38.9858 320.337,-30.532 310.072,-33.1581 313.95,-38.9858"/>
</g>
<!-- Node7&#45;&gt;Node8 -->
<g id="edge7" class="edge"><title>Node7&#45;&gt;Node8</title>
<path fill="none" stroke="midnightblue" d="M631.208,-836.877C646.696,-833.897 663.713,-830.622 679.837,-827.52"/>
<polygon fill="midnightblue" stroke="midnightblue" points="680.58,-830.941 689.739,-825.614 679.257,-824.067 680.58,-830.941"/>
</g>
<!-- Node15&#45;&gt;Node2 -->
<g id="edge16" class="edge"><title>Node15&#45;&gt;Node2</title>
<path fill="none" stroke="midnightblue" d="M227.352,-464.075C241.055,-474.71 261.772,-493.214 272,-514.5 326.532,-627.988 230.917,-695.944 308,-795.5 310.656,-798.931 313.766,-801.97 317.18,-804.663"/>
<polygon fill="midnightblue" stroke="midnightblue" points="315.378,-807.669 325.631,-810.338 319.281,-801.857 315.378,-807.669"/>
</g>
<!-- Node15&#45;&gt;Node8 -->
<g id="edge34" class="edge"><title>Node15&#45;&gt;Node8</title>
<path fill="none" stroke="midnightblue" d="M227.282,-464.109C240.926,-474.773 261.594,-493.301 272,-514.5 321.076,-614.482 228.212,-684.79 308,-762.5 334.114,-787.934 563.027,-804.235 679.72,-810.967"/>
<polygon fill="midnightblue" stroke="midnightblue" points="679.787,-814.476 689.97,-811.55 680.185,-807.487 679.787,-814.476"/>
</g>
<!-- Node15&#45;&gt;Node15 -->
<g id="edge36" class="edge"><title>Node15&#45;&gt;Node15</title>
<path fill="none" stroke="midnightblue" d="M189.264,-464.257C177.717,-473.065 185.629,-482.5 213,-482.5 230.962,-482.5 240.544,-478.437 241.746,-473.154"/>
<polygon fill="midnightblue" stroke="midnightblue" points="244.692,-471.253 236.736,-464.257 238.593,-474.688 244.692,-471.253"/>
</g>
<!-- Node16 -->
<g id="node16" class="node"><title>Node16</title>
<g id="a_node16"><a xlink:href="classscram_1_1xml_1_1StreamElement.xhtml#a7e3c09c8d2041452e04f31dd332b65a6" target="_top" xlink:title="Adds text to the element. ">
<polygon fill="white" stroke="black" points="308,-537.5 308,-567.5 460,-567.5 460,-537.5 308,-537.5"/>
<text text-anchor="start" x="316" y="-555.5" font-family="Helvetica,sans-Serif" font-size="10.00">scram::xml::StreamElement</text>
<text text-anchor="middle" x="384" y="-544.5" font-family="Helvetica,sans-Serif" font-size="10.00">::AddText</text>
</a>
</g>
</g>
<!-- Node15&#45;&gt;Node16 -->
<g id="edge17" class="edge"><title>Node15&#45;&gt;Node16</title>
<path fill="none" stroke="midnightblue" d="M223.902,-464.071C240.212,-479.379 274.291,-509.475 308,-527.5 311.988,-529.633 316.193,-531.631 320.491,-533.493"/>
<polygon fill="midnightblue" stroke="midnightblue" points="319.423,-536.837 330.005,-537.354 322.055,-530.35 319.423,-536.837"/>
</g>
<!-- Node17 -->
<g id="node17" class="node"><title>Node17</title>
<g id="a_node17"><a xlink:href="classscram_1_1mef_1_1Expression.xhtml#ac22fdb9ced7ef6942f666337b6a34110" target="_top" xlink:title="scram::mef::Expression\l::args">
<polygon fill="white" stroke="black" points="319.5,-488.5 319.5,-518.5 448.5,-518.5 448.5,-488.5 319.5,-488.5"/>
<text text-anchor="start" x="327.5" y="-506.5" font-family="Helvetica,sans-Serif" font-size="10.00">scram::mef::Expression</text>
<text text-anchor="middle" x="384" y="-495.5" font-family="Helvetica,sans-Serif" font-size="10.00">::args</text>
</a>
</g>
</g>
<!-- Node15&#45;&gt;Node17 -->
<g id="edge18" class="edge"><title>Node15&#45;&gt;Node17</title>
<path fill="none" stroke="midnightblue" d="M246.986,-464.064C268.102,-470.186 296.157,-478.321 321.302,-485.611"/>
<polygon fill="midnightblue" stroke="midnightblue" points="320.559,-489.04 331.138,-488.463 322.508,-482.317 320.559,-489.04"/>
</g>
<!-- Node18 -->
<g id="node18" class="node"><title>Node18</title>
<g id="a_node18"><a xlink:href="classscram_1_1mef_1_1Element.xhtml#a25474d50f8cc2c6a728c88e4c7d1b9f1" target="_top" xlink:title="scram::mef::Element\l::attributes">
<polygon fill="white" stroke="black" points="325.5,-439.5 325.5,-469.5 442.5,-469.5 442.5,-439.5 325.5,-439.5"/>
<text text-anchor="start" x="333.5" y="-457.5" font-family="Helvetica,sans-Serif" font-size="10.00">scram::mef::Element</text>
<text text-anchor="middle" x="384" y="-446.5" font-family="Helvetica,sans-Serif" font-size="10.00">::attributes</text>
</a>
</g>
</g>
<!-- Node15&#45;&gt;Node18 -->
<g id="edge19" class="edge"><title>Node15&#45;&gt;Node18</title>
<path fill="none" stroke="midnightblue" d="M272.16,-454.5C285.99,-454.5 300.865,-454.5 315.088,-454.5"/>
<polygon fill="midnightblue" stroke="midnightblue" points="315.305,-458 325.305,-454.5 315.305,-451 315.305,-458"/>
</g>
<!-- Node19 -->
<g id="node19" class="node"><title>Node19</title>
<g id="a_node19"><a xlink:href="classscram_1_1mef_1_1Component.xhtml#a483f7a67e2197449902bddc48756e2cd" target="_top" xlink:title="scram::mef::Component\l::components">
<polygon fill="white" stroke="black" points="317,-390.5 317,-420.5 451,-420.5 451,-390.5 317,-390.5"/>
<text text-anchor="start" x="325" y="-408.5" font-family="Helvetica,sans-Serif" font-size="10.00">scram::mef::Component</text>
<text text-anchor="middle" x="384" y="-397.5" font-family="Helvetica,sans-Serif" font-size="10.00">::components</text>
</a>
</g>
</g>
<!-- Node15&#45;&gt;Node19 -->
<g id="edge20" class="edge"><title>Node15&#45;&gt;Node19</title>
<path fill="none" stroke="midnightblue" d="M246.986,-444.936C268.102,-438.814 296.157,-430.679 321.302,-423.389"/>
<polygon fill="midnightblue" stroke="midnightblue" points="322.508,-426.683 331.138,-420.537 320.559,-419.96 322.508,-426.683"/>
</g>
<!-- Node23 -->
<g id="node23" class="node"><title>Node23</title>
<g id="a_node23"><a xlink:href="classscram_1_1mef_1_1Component.xhtml#ad246305a79904f65b36157096464703b" target="_top" xlink:title="scram::mef::Component\l::gates">
<polygon fill="white" stroke="black" points="508,-344.5 508,-374.5 642,-374.5 642,-344.5 508,-344.5"/>
<text text-anchor="start" x="516" y="-362.5" font-family="Helvetica,sans-Serif" font-size="10.00">scram::mef::Component</text>
<text text-anchor="middle" x="575" y="-351.5" font-family="Helvetica,sans-Serif" font-size="10.00">::gates</text>
</a>
</g>
</g>
<!-- Node15&#45;&gt;Node23 -->
<g id="edge31" class="edge"><title>Node15&#45;&gt;Node23</title>
<path fill="none" stroke="midnightblue" d="M222.434,-444.885C237.629,-428.319 271.443,-394.799 308,-380.5 368.693,-356.761 443.01,-352.771 497.649,-353.993"/>
<polygon fill="midnightblue" stroke="midnightblue" points="497.862,-357.501 507.959,-354.291 498.064,-350.504 497.862,-357.501"/>
</g>
<!-- Node24 -->
<g id="node24" class="node"><title>Node24</title>
<g id="a_node24"><a xlink:href="classscram_1_1mef_1_1Formula.xhtml#a4e86a729bae4629de0217c9f8c6960a0" target="_top" xlink:title="scram::mef::Formula\l::event_args">
<polygon fill="white" stroke="black" points="326,-302.5 326,-332.5 442,-332.5 442,-302.5 326,-302.5"/>
<text text-anchor="start" x="334" y="-320.5" font-family="Helvetica,sans-Serif" font-size="10.00">scram::mef::Formula</text>
<text text-anchor="middle" x="384" y="-309.5" font-family="Helvetica,sans-Serif" font-size="10.00">::event_args</text>
</a>
</g>
</g>
<!-- Node15&#45;&gt;Node24 -->
<g id="edge26" class="edge"><title>Node15&#45;&gt;Node24</title>
<path fill="none" stroke="midnightblue" d="M220.132,-444.863C233.652,-424.312 268.019,-375.757 308,-347.5 313.617,-343.53 319.835,-339.98 326.217,-336.835"/>
<polygon fill="midnightblue" stroke="midnightblue" points="328.004,-339.866 335.634,-332.515 325.085,-333.504 328.004,-339.866"/>
</g>
<!-- Node25 -->
<g id="node25" class="node"><title>Node25</title>
<g id="a_node25"><a xlink:href="classscram_1_1mef_1_1BasicEvent.xhtml#ab9764640b00bcc3f7241c5bf185d8f2a" target="_top" xlink:title="Sets the expression of this basic event. ">
<polygon fill="white" stroke="black" points="319,-235.5 319,-265.5 449,-265.5 449,-235.5 319,-235.5"/>
<text text-anchor="start" x="327" y="-253.5" font-family="Helvetica,sans-Serif" font-size="10.00">scram::mef::BasicEvent</text>
<text text-anchor="middle" x="384" y="-242.5" font-family="Helvetica,sans-Serif" font-size="10.00">::expression</text>
</a>
</g>
</g>
<!-- Node15&#45;&gt;Node25 -->
<g id="edge27" class="edge"><title>Node15&#45;&gt;Node25</title>
<path fill="none" stroke="midnightblue" d="M217.446,-444.946C227.568,-417.986 259.579,-340.186 308,-292.5 316.722,-283.91 327.556,-276.513 338.251,-270.426"/>
<polygon fill="midnightblue" stroke="midnightblue" points="340.015,-273.451 347.154,-265.623 336.691,-267.29 340.015,-273.451"/>
</g>
<!-- Node26 -->
<g id="node26" class="node"><title>Node26</title>
<g id="a_node26"><a xlink:href="classscram_1_1mef_1_1Gate.xhtml#abde84a63a060e2424ab92431634f21d9" target="_top" xlink:title="scram::mef::Gate::formula">
<polygon fill="white" stroke="black" points="312.5,-197 312.5,-216 455.5,-216 455.5,-197 312.5,-197"/>
<text text-anchor="middle" x="384" y="-204" font-family="Helvetica,sans-Serif" font-size="10.00">scram::mef::Gate::formula</text>
</a>
</g>
</g>
<!-- Node15&#45;&gt;Node26 -->
<g id="edge29" class="edge"><title>Node15&#45;&gt;Node26</title>
<path fill="none" stroke="midnightblue" d="M214.921,-444.92C218.828,-409.79 237.239,-286.902 308,-225.5 309.953,-223.805 312.036,-222.258 314.219,-220.846"/>
<polygon fill="midnightblue" stroke="midnightblue" points="315.951,-223.888 323.069,-216.04 312.611,-217.736 315.951,-223.888"/>
</g>
<!-- Node27 -->
<g id="node27" class="node"><title>Node27</title>
<g id="a_node27"><a xlink:href="classscram_1_1mef_1_1Formula.xhtml#af3c5953f817cc202b5009cc4557c7d72" target="_top" xlink:title="scram::mef::Formula\l::formula_args">
<polygon fill="white" stroke="black" points="326,-147.5 326,-177.5 442,-177.5 442,-147.5 326,-147.5"/>
<text text-anchor="start" x="334" y="-165.5" font-family="Helvetica,sans-Serif" font-size="10.00">scram::mef::Formula</text>
<text text-anchor="middle" x="384" y="-154.5" font-family="Helvetica,sans-Serif" font-size="10.00">::formula_args</text>
</a>
</g>
</g>
<!-- Node15&#45;&gt;Node27 -->
<g id="edge30" class="edge"><title>Node15&#45;&gt;Node27</title>
<path fill="none" stroke="midnightblue" d="M214.464,-444.904C216.835,-406.656 230.738,-263.478 308,-187.5 310.703,-184.842 313.697,-182.466 316.886,-180.342"/>
<polygon fill="midnightblue" stroke="midnightblue" points="318.776,-183.293 325.721,-175.291 315.302,-177.216 318.776,-183.293"/>
</g>
<!-- Node28 -->
<g id="node28" class="node"><title>Node28</title>
<g id="a_node28"><a xlink:href="classscram_1_1mef_1_1BasicEvent.xhtml#ab6b4e5fd2ce8a81ae887902be30c2b29" target="_top" xlink:title="scram::mef::BasicEvent\l::HasExpression">
<polygon fill="white" stroke="black" points="319,-98.5 319,-128.5 449,-128.5 449,-98.5 319,-98.5"/>
<text text-anchor="start" x="327" y="-116.5" font-family="Helvetica,sans-Serif" font-size="10.00">scram::mef::BasicEvent</text>
<text text-anchor="middle" x="384" y="-105.5" font-family="Helvetica,sans-Serif" font-size="10.00">::HasExpression</text>
</a>
</g>
</g>
<!-- Node15&#45;&gt;Node28 -->
<g id="edge32" class="edge"><title>Node15&#45;&gt;Node28</title>
<path fill="none" stroke="midnightblue" d="M216.306,-444.792C228.431,-394.064 285.113,-160.883 308,-137.5 308.941,-136.538 309.921,-135.615 310.935,-134.729"/>
<polygon fill="midnightblue" stroke="midnightblue" points="313.283,-137.348 319.305,-128.632 309.162,-131.69 313.283,-137.348"/>
</g>
<!-- Node29 -->
<g id="node29" class="node"><title>Node29</title>
<g id="a_node29"><a xlink:href="classscram_1_1mef_1_1Element.xhtml#a87e90b86d7599c2f60d7a7b99ab52d20" target="_top" xlink:title="scram::mef::Element\l::label">
<polygon fill="white" stroke="black" points="325.5,-49.5 325.5,-79.5 442.5,-79.5 442.5,-49.5 325.5,-49.5"/>
<text text-anchor="start" x="333.5" y="-67.5" font-family="Helvetica,sans-Serif" font-size="10.00">scram::mef::Element</text>
<text text-anchor="middle" x="384" y="-56.5" font-family="Helvetica,sans-Serif" font-size="10.00">::label</text>
</a>
</g>
</g>
<!-- Node15&#45;&gt;Node29 -->
<g id="edge33" class="edge"><title>Node15&#45;&gt;Node29</title>
<path fill="none" stroke="midnightblue" d="M216.562,-444.679C224.713,-413.415 250.762,-313.387 272,-230.5 288.16,-167.43 263.397,-135.93 308,-88.5 310.587,-85.7488 313.49,-83.3118 316.609,-81.1534"/>
<polygon fill="midnightblue" stroke="midnightblue" points="318.44,-84.1367 325.304,-76.0658 314.905,-78.0949 318.44,-84.1367"/>
</g>
<!-- Node30 -->
<g id="node30" class="node"><title>Node30</title>
<g id="a_node30"><a xlink:href="classscram_1_1mef_1_1Role.xhtml#aa1843c29411c29b27d79414d34525bbc" target="_top" xlink:title="scram::mef::Role::role">
<polygon fill="white" stroke="black" points="323.5,-734 323.5,-753 444.5,-753 444.5,-734 323.5,-734"/>
<text text-anchor="middle" x="384" y="-741" font-family="Helvetica,sans-Serif" font-size="10.00">scram::mef::Role::role</text>
</a>
</g>
</g>
<!-- Node15&#45;&gt;Node30 -->
<g id="edge35" class="edge"><title>Node15&#45;&gt;Node30</title>
<path fill="none" stroke="midnightblue" d="M227.425,-464.36C240.981,-475.099 261.389,-493.565 272,-514.5 314.811,-598.965 243.714,-654.97 308,-724.5 310.009,-726.673 312.228,-728.612 314.605,-730.343"/>
<polygon fill="midnightblue" stroke="midnightblue" points="312.839,-733.365 323.225,-735.455 316.409,-727.344 312.839,-733.365"/>
</g>
<!-- Node15&#45;&gt;Node31 -->
<g id="edge37" class="edge"><title>Node15&#45;&gt;Node31</title>
<path fill="none" stroke="midnightblue" d="M216.78,-444.732C225.58,-413.623 253.341,-314.006 272,-230.5 290.837,-146.195 250.8,-104.233 308,-39.5 308.747,-38.6548 309.523,-37.8392 310.327,-37.052"/>
<polygon fill="midnightblue" stroke="midnightblue" points="312.616,-39.703 318.218,-30.7104 308.231,-34.2467 312.616,-39.703"/>
</g>
<!-- Node32 -->
<g id="node32" class="node"><title>Node32</title>
<g id="a_node32"><a xlink:href="classscram_1_1mef_1_1HouseEvent.xhtml#a15ab4daf36b62127703cf610bdc80183" target="_top" xlink:title="Sets the state for House event. ">
<polygon fill="white" stroke="black" points="316.5,-684.5 316.5,-714.5 451.5,-714.5 451.5,-684.5 316.5,-684.5"/>
<text text-anchor="start" x="324.5" y="-702.5" font-family="Helvetica,sans-Serif" font-size="10.00">scram::mef::HouseEvent</text>
<text text-anchor="middle" x="384" y="-691.5" font-family="Helvetica,sans-Serif" font-size="10.00">::state</text>
</a>
</g>
</g>
<!-- Node15&#45;&gt;Node32 -->
<g id="edge38" class="edge"><title>Node15&#45;&gt;Node32</title>
<path fill="none" stroke="midnightblue" d="M226.716,-464.076C240.086,-474.847 260.716,-493.59 272,-514.5 306.617,-578.644 259.112,-620.438 308,-674.5 309.203,-675.83 310.478,-677.089 311.815,-678.281"/>
<polygon fill="midnightblue" stroke="midnightblue" points="309.959,-681.262 320.077,-684.405 314.127,-675.639 309.959,-681.262"/>
</g>
<!-- Node33 -->
<g id="node33" class="node"><title>Node33</title>
<g id="a_node33"><a xlink:href="classscram_1_1mef_1_1Formula.xhtml#aaf6992ab41ab8ae013211fd861e726db" target="_top" xlink:title="scram::mef::Formula\l::type">
<polygon fill="white" stroke="black" points="326,-635.5 326,-665.5 442,-665.5 442,-635.5 326,-635.5"/>
<text text-anchor="start" x="334" y="-653.5" font-family="Helvetica,sans-Serif" font-size="10.00">scram::mef::Formula</text>
<text text-anchor="middle" x="384" y="-642.5" font-family="Helvetica,sans-Serif" font-size="10.00">::type</text>
</a>
</g>
</g>
<!-- Node15&#45;&gt;Node33 -->
<g id="edge39" class="edge"><title>Node15&#45;&gt;Node33</title>
<path fill="none" stroke="midnightblue" d="M226.347,-464.286C239.401,-475.237 259.763,-494.133 272,-514.5 298.711,-558.956 271.477,-588.679 308,-625.5 310.802,-628.324 313.93,-630.83 317.276,-633.052"/>
<polygon fill="midnightblue" stroke="midnightblue" points="315.556,-636.1 325.976,-638.013 319.023,-630.019 315.556,-636.1"/>
</g>
<!-- Node34 -->
<g id="node34" class="node"><title>Node34</title>
<g id="a_node34"><a xlink:href="classscram_1_1mef_1_1Formula.xhtml#a73f9de40978aad0665e3a6d95e85e7a2" target="_top" xlink:title="scram::mef::Formula\l::vote_number">
<polygon fill="white" stroke="black" points="326,-586.5 326,-616.5 442,-616.5 442,-586.5 326,-586.5"/>
<text text-anchor="start" x="334" y="-604.5" font-family="Helvetica,sans-Serif" font-size="10.00">scram::mef::Formula</text>
<text text-anchor="middle" x="384" y="-593.5" font-family="Helvetica,sans-Serif" font-size="10.00">::vote_number</text>
</a>
</g>
</g>
<!-- Node15&#45;&gt;Node34 -->
<g id="edge40" class="edge"><title>Node15&#45;&gt;Node34</title>
<path fill="none" stroke="midnightblue" d="M224.646,-464.012C236.931,-475.311 257.323,-495.083 272,-514.5 291.214,-539.919 283.289,-556.384 308,-576.5 310.744,-578.734 313.696,-580.771 316.787,-582.629"/>
<polygon fill="midnightblue" stroke="midnightblue" points="315.329,-585.818 325.804,-587.404 318.605,-579.632 315.329,-585.818"/>
</g>
<!-- Node20 -->
<g id="node20" class="node"><title>Node20</title>
<g id="a_node20"><a xlink:href="classscram_1_1mef_1_1Component.xhtml#a29871b1caf2fb961509b42872e6b5213" target="_top" xlink:title="Adds MEF constructs into this component container. ">
<polygon fill="white" stroke="black" points="496,-443 496,-462 654,-462 654,-443 496,-443"/>
<text text-anchor="middle" x="575" y="-450" font-family="Helvetica,sans-Serif" font-size="10.00">scram::mef::Component::Add</text>
</a>
</g>
</g>
<!-- Node19&#45;&gt;Node20 -->
<g id="edge21" class="edge"><title>Node19&#45;&gt;Node20</title>
<path fill="none" stroke="midnightblue" d="M445.32,-420.5C471.337,-426.97 501.347,-434.433 525.839,-440.523"/>
<polygon fill="midnightblue" stroke="midnightblue" points="525.074,-443.94 535.623,-442.957 526.763,-437.147 525.074,-443.94"/>
</g>
<!-- Node21 -->
<g id="node21" class="node"><title>Node21</title>
<g id="a_node21"><a xlink:href="classscram_1_1mef_1_1Component.xhtml#ab9230b43d6903a2e26bf55f7584a1f56" target="_top" xlink:title="Removes Event from the component container. ">
<polygon fill="white" stroke="black" points="508,-393.5 508,-423.5 642,-423.5 642,-393.5 508,-393.5"/>
<text text-anchor="start" x="516" y="-411.5" font-family="Helvetica,sans-Serif" font-size="10.00">scram::mef::Component</text>
<text text-anchor="middle" x="575" y="-400.5" font-family="Helvetica,sans-Serif" font-size="10.00">::Remove</text>
</a>
</g>
</g>
<!-- Node19&#45;&gt;Node21 -->
<g id="edge22" class="edge"><title>Node19&#45;&gt;Node21</title>
<path fill="none" stroke="midnightblue" d="M451.103,-406.549C466.21,-406.789 482.384,-407.046 497.873,-407.292"/>
<polygon fill="midnightblue" stroke="midnightblue" points="497.88,-410.792 507.934,-407.451 497.991,-403.793 497.88,-410.792"/>
</g>
<!-- Node22 -->
<g id="node22" class="node"><title>Node22</title>
<g id="a_node22"><a xlink:href="classscram_1_1mef_1_1Component.xhtml#a63441da08667fe6826f3ae0c0a5a94fe" target="_top" xlink:title="Recursively traverses components to gather gates relevant to the whole component. ...">
<polygon fill="white" stroke="black" points="508,-602.5 508,-632.5 642,-632.5 642,-602.5 508,-602.5"/>
<text text-anchor="start" x="516" y="-620.5" font-family="Helvetica,sans-Serif" font-size="10.00">scram::mef::Component</text>
<text text-anchor="middle" x="575" y="-609.5" font-family="Helvetica,sans-Serif" font-size="10.00">::GatherGates</text>
</a>
</g>
</g>
<!-- Node19&#45;&gt;Node22 -->
<g id="edge23" class="edge"><title>Node19&#45;&gt;Node22</title>
<path fill="none" stroke="midnightblue" d="M445.531,-420.506C450.683,-423.055 455.599,-426.029 460,-429.5 488.972,-452.345 539.195,-547.892 562.053,-593.313"/>
<polygon fill="midnightblue" stroke="midnightblue" points="559.021,-595.075 566.624,-602.454 565.282,-591.944 559.021,-595.075"/>
</g>
<!-- Node19&#45;&gt;Node23 -->
<g id="edge25" class="edge"><title>Node19&#45;&gt;Node23</title>
<path fill="none" stroke="midnightblue" d="M446.886,-390.438C464.681,-386.107 484.234,-381.348 502.556,-376.888"/>
<polygon fill="midnightblue" stroke="midnightblue" points="503.41,-380.283 512.298,-374.517 501.754,-373.482 503.41,-380.283"/>
</g>
<!-- Node22&#45;&gt;Node8 -->
<g id="edge24" class="edge"><title>Node22&#45;&gt;Node8</title>
<path fill="none" stroke="midnightblue" d="M589.173,-632.631C619.038,-666.937 692.049,-750.804 727.514,-791.542"/>
<polygon fill="midnightblue" stroke="midnightblue" points="725.077,-794.073 734.283,-799.317 730.356,-789.477 725.077,-794.073"/>
</g>
<!-- Node25&#45;&gt;Node25 -->
<g id="edge28" class="edge"><title>Node25&#45;&gt;Node25</title>
<path fill="none" stroke="midnightblue" d="M354.374,-265.659C347.23,-275.057 357.105,-284 384,-284 400.389,-284 410.458,-280.679 414.207,-275.958"/>
<polygon fill="midnightblue" stroke="midnightblue" points="417.684,-275.446 413.626,-265.659 410.695,-275.84 417.684,-275.446"/>
</g>
</g>
</svg>
        <g id="navigator" transform="translate(0 0)" fill="#404254">
                <rect fill="#f2f5e9" fill-opacity="0.5" stroke="#606060" stroke-width=".5" x="0" y="0" width="60" height="60"/>
                <use id="zoomplus" xlink:href="#zoomPlus" x="17" y="9" onmousedown="handleZoom(evt,'in')"/>
                <use id="zoomminus" xlink:href="#zoomMin" x="42" y="9" onmousedown="handleZoom(evt,'out')"/>
                <use id="reset" xlink:href="#resetDef" x="30" y="36" onmousedown="handleReset()"/>
                <g id="arrowUp" xlink:href="#dirArrow" transform="translate(30 24)" onmousedown="handlePan(0,-1)">
                  <use xlink:href="#rim" fill="#404040">
                        <set attributeName="fill" to="#808080" begin="arrowUp.mouseover" end="arrowUp.mouseout"/>
                  </use>
                  <path fill="none" stroke="white" stroke-width="1.5" d="M0,-3.0v7 M-2.5,-0.5L0,-3.0L2.5,-0.5"/>
                </g>
                <g id="arrowRight" xlink:href="#dirArrow" transform="rotate(90) translate(36 -43)" onmousedown="handlePan(1,0)">
                  <use xlink:href="#rim" fill="#404040">
                        <set attributeName="fill" to="#808080" begin="arrowRight.mouseover" end="arrowRight.mouseout"/>
                  </use>
                  <path fill="none" stroke="white" stroke-width="1.5" d="M0,-3.0v7 M-2.5,-0.5L0,-3.0L2.5,-0.5"/>
                </g>
                <g id="arrowDown" xlink:href="#dirArrow" transform="rotate(180) translate(-30 -48)" onmousedown="handlePan(0,1)">
                  <use xlink:href="#rim" fill="#404040">
                        <set attributeName="fill" to="#808080" begin="arrowDown.mouseover" end="arrowDown.mouseout"/>
                  </use>
                  <path fill="none" stroke="white" stroke-width="1.5" d="M0,-3.0v7 M-2.5,-0.5L0,-3.0L2.5,-0.5"/>
                </g>
                <g id="arrowLeft" xlink:href="#dirArrow" transform="rotate(270) translate(-36 17)" onmousedown="handlePan(-1,0)">
                  <use xlink:href="#rim" fill="#404040">
                        <set attributeName="fill" to="#808080" begin="arrowLeft.mouseover" end="arrowLeft.mouseout"/>
                  </use>
                  <path fill="none" stroke="white" stroke-width="1.5" d="M0,-3.0v7 M-2.5,-0.5L0,-3.0L2.5,-0.5"/>
                </g>
        </g>
        <svg viewBox="0 0 15 15" width="100%" height="30px" preserveAspectRatio="xMaxYMin meet">
         <g id="arrow_out" transform="scale(0.3 0.3)">
          <a xlink:href="serialization_8cc_a04bd5db90ad7b35c9bd60f945d76fe6c_cgraph_org.svg" target="_base">
           <rect id="button" ry="5" rx="5" y="6" x="6" height="38" width="38"
                fill="#f2f5e9" fill-opacity="0.5" stroke="#606060" stroke-width="1.0"/>
           <path id="arrow"
             d="M 11.500037,31.436501 C 11.940474,20.09759 22.043105,11.32322 32.158766,21.979434 L 37.068811,17.246167 C 37.068811,17.246167 37.088388,32 37.088388,32 L 22.160133,31.978069 C 22.160133,31.978069 26.997745,27.140456 26.997745,27.140456 C 18.528582,18.264221 13.291696,25.230495 11.500037,31.436501 z"
             style="fill:#404040;"/>
          </a>
         </g>
        </svg>
</svg>
