<?xml version="1.0" encoding="UTF-8" standalone="no"?>
<!DOCTYPE svg PUBLIC "-//W3C//DTD SVG 1.1//EN"
 "http://www.w3.org/Graphics/SVG/1.1/DTD/svg11.dtd">
<!-- Generated by graphviz version 2.38.0 (20140413.2041)
 -->
<!-- Title: settings.cc Pages: 1 -->
<svg width="903pt" height="140pt"
 viewBox="0.00 0.00 902.50 140.00" xmlns="http://www.w3.org/2000/svg" xmlns:xlink="http://www.w3.org/1999/xlink">
<g id="graph0" class="graph" transform="scale(1 1) rotate(0) translate(4 136)">
<title>settings.cc</title>
<polygon fill="white" stroke="none" points="-4,4 -4,-136 898.5,-136 898.5,4 -4,4"/>
<!-- Node1 -->
<g id="node1" class="node"><title>Node1</title>
<polygon fill="#bfbfbf" stroke="black" points="184.5,-112.5 184.5,-131.5 252.5,-131.5 252.5,-112.5 184.5,-112.5"/>
<text text-anchor="middle" x="218.5" y="-119.5" font-family="Helvetica,sans-Serif" font-size="10.00">settings.cc</text>
</g>
<!-- Node2 -->
<g id="node2" class="node"><title>Node2</title>
<g id="a_node2"><a xlink:href="settings_8h.xhtml" target="_top" xlink:title="Builder for settings. ">
<polygon fill="white" stroke="black" points="69.5,-56.5 69.5,-75.5 133.5,-75.5 133.5,-56.5 69.5,-56.5"/>
<text text-anchor="middle" x="101.5" y="-63.5" font-family="Helvetica,sans-Serif" font-size="10.00">settings.h</text>
</a>
</g>
</g>
<!-- Node1&#45;&gt;Node2 -->
<g id="edge1" class="edge"><title>Node1&#45;&gt;Node2</title>
<path fill="none" stroke="midnightblue" d="M199.961,-112.444C180.877,-103.636 150.925,-89.8116 129.064,-79.722"/>
<polygon fill="midnightblue" stroke="midnightblue" points="130.499,-76.5292 119.952,-75.5164 127.565,-82.8849 130.499,-76.5292"/>
</g>
<!-- Node5 -->
<g id="node5" class="node"><title>Node5</title>
<polygon fill="white" stroke="#bfbfbf" points="154.5,-0.5 154.5,-19.5 198.5,-19.5 198.5,-0.5 154.5,-0.5"/>
<text text-anchor="middle" x="176.5" y="-7.5" font-family="Helvetica,sans-Serif" font-size="10.00">string</text>
</g>
<!-- Node1&#45;&gt;Node5 -->
<g id="edge4" class="edge"><title>Node1&#45;&gt;Node5</title>
<path fill="none" stroke="midnightblue" d="M210.827,-112.372C203.623,-103.776 193.135,-89.8895 187.5,-76 181.509,-61.2352 178.781,-43.3059 177.539,-30.0206"/>
<polygon fill="midnightblue" stroke="midnightblue" points="181.007,-29.4546 176.785,-19.7374 174.026,-29.9666 181.007,-29.4546"/>
</g>
<!-- Node6 -->
<g id="node6" class="node"><title>Node6</title>
<polygon fill="white" stroke="#bfbfbf" points="196.5,-56.5 196.5,-75.5 340.5,-75.5 340.5,-56.5 196.5,-56.5"/>
<text text-anchor="middle" x="268.5" y="-63.5" font-family="Helvetica,sans-Serif" font-size="10.00">boost/range/algorithm.hpp</text>
</g>
<!-- Node1&#45;&gt;Node6 -->
<g id="edge5" class="edge"><title>Node1&#45;&gt;Node6</title>
<path fill="none" stroke="midnightblue" d="M226.756,-112.083C233.965,-104.298 244.61,-92.8015 253.346,-83.3665"/>
<polygon fill="midnightblue" stroke="midnightblue" points="256.171,-85.4666 260.397,-75.7511 251.035,-80.7108 256.171,-85.4666"/>
</g>
<!-- Node7 -->
<g id="node7" class="node"><title>Node7</title>
<g id="a_node7"><a xlink:href="error_8h.xhtml" target="_top" xlink:title="Exceptions for SCRAM. ">
<polygon fill="white" stroke="black" points="358.5,-56.5 358.5,-75.5 406.5,-75.5 406.5,-56.5 358.5,-56.5"/>
<text text-anchor="middle" x="382.5" y="-63.5" font-family="Helvetica,sans-Serif" font-size="10.00">error.h</text>
</a>
</g>
</g>
<!-- Node1&#45;&gt;Node7 -->
<g id="edge6" class="edge"><title>Node1&#45;&gt;Node7</title>
<path fill="none" stroke="midnightblue" d="M244.486,-112.444C272.685,-103.159 317.812,-88.2996 348.737,-78.117"/>
<polygon fill="midnightblue" stroke="midnightblue" points="349.835,-81.4403 358.239,-74.9883 347.646,-74.7915 349.835,-81.4403"/>
</g>
<!-- Node3 -->
<g id="node3" class="node"><title>Node3</title>
<polygon fill="white" stroke="#bfbfbf" points="0,-0.5 0,-19.5 49,-19.5 49,-0.5 0,-0.5"/>
<text text-anchor="middle" x="24.5" y="-7.5" font-family="Helvetica,sans-Serif" font-size="10.00">cstdint</text>
</g>
<!-- Node2&#45;&gt;Node3 -->
<g id="edge2" class="edge"><title>Node2&#45;&gt;Node3</title>
<path fill="none" stroke="midnightblue" d="M89.1286,-56.324C77.3415,-48.0577 59.3677,-35.4527 45.3645,-25.6322"/>
<polygon fill="midnightblue" stroke="midnightblue" points="47.0376,-22.5307 36.8407,-19.6545 43.0184,-28.2619 47.0376,-22.5307"/>
</g>
<!-- Node4 -->
<g id="node4" class="node"><title>Node4</title>
<polygon fill="white" stroke="#bfbfbf" points="67,-0.5 67,-19.5 136,-19.5 136,-0.5 67,-0.5"/>
<text text-anchor="middle" x="101.5" y="-7.5" font-family="Helvetica,sans-Serif" font-size="10.00">string_view</text>
</g>
<!-- Node2&#45;&gt;Node4 -->
<g id="edge3" class="edge"><title>Node2&#45;&gt;Node4</title>
<path fill="none" stroke="midnightblue" d="M101.5,-56.083C101.5,-49.0059 101.5,-38.8611 101.5,-29.9865"/>
<polygon fill="midnightblue" stroke="midnightblue" points="105,-29.751 101.5,-19.7511 98.0001,-29.7511 105,-29.751"/>
</g>
<!-- Node7&#45;&gt;Node5 -->
<g id="edge8" class="edge"><title>Node7&#45;&gt;Node5</title>
<path fill="none" stroke="midnightblue" d="M358.363,-58.3635C355.38,-57.5592 352.371,-56.7555 349.5,-56 289.487,-40.2104 271.95,-37.3309 208.526,-20.2127"/>
<polygon fill="midnightblue" stroke="midnightblue" points="209.393,-16.8214 198.825,-17.5806 207.56,-23.5771 209.393,-16.8214"/>
</g>
<!-- Node8 -->
<g id="node8" class="node"><title>Node8</title>
<polygon fill="white" stroke="#bfbfbf" points="217,-0.5 217,-19.5 280,-19.5 280,-0.5 217,-0.5"/>
<text text-anchor="middle" x="248.5" y="-7.5" font-family="Helvetica,sans-Serif" font-size="10.00">exception</text>
</g>
<!-- Node7&#45;&gt;Node8 -->
<g id="edge7" class="edge"><title>Node7&#45;&gt;Node8</title>
<path fill="none" stroke="midnightblue" d="M361.267,-56.4435C339.116,-47.5171 304.181,-33.4387 279.064,-23.3168"/>
<polygon fill="midnightblue" stroke="midnightblue" points="280.217,-20.0079 269.633,-19.5164 277.6,-26.5006 280.217,-20.0079"/>
</g>
<!-- Node9 -->
<g id="node9" class="node"><title>Node9</title>
<polygon fill="white" stroke="#bfbfbf" points="298.5,-0.5 298.5,-19.5 444.5,-19.5 444.5,-0.5 298.5,-0.5"/>
<text text-anchor="middle" x="371.5" y="-7.5" font-family="Helvetica,sans-Serif" font-size="10.00">boost/current_function.hpp</text>
</g>
<!-- Node7&#45;&gt;Node9 -->
<g id="edge9" class="edge"><title>Node7&#45;&gt;Node9</title>
<path fill="none" stroke="midnightblue" d="M380.684,-56.083C379.226,-48.9272 377.129,-38.6353 375.307,-29.6911"/>
<polygon fill="midnightblue" stroke="midnightblue" points="378.708,-28.8512 373.283,-19.7511 371.849,-30.2485 378.708,-28.8512"/>
</g>
<!-- Node10 -->
<g id="node10" class="node"><title>Node10</title>
<polygon fill="white" stroke="#bfbfbf" points="462.5,-0.5 462.5,-19.5 626.5,-19.5 626.5,-0.5 462.5,-0.5"/>
<text text-anchor="middle" x="544.5" y="-7.5" font-family="Helvetica,sans-Serif" font-size="10.00">boost/exception/exception.hpp</text>
</g>
<!-- Node7&#45;&gt;Node10 -->
<g id="edge10" class="edge"><title>Node7&#45;&gt;Node10</title>
<path fill="none" stroke="midnightblue" d="M406.753,-56.9157C433.913,-47.8625 478.178,-33.1073 509.18,-22.7735"/>
<polygon fill="midnightblue" stroke="midnightblue" points="510.36,-26.0693 518.74,-19.5865 508.147,-19.4285 510.36,-26.0693"/>
</g>
<!-- Node11 -->
<g id="node11" class="node"><title>Node11</title>
<polygon fill="white" stroke="#bfbfbf" points="644.5,-0.5 644.5,-19.5 778.5,-19.5 778.5,-0.5 644.5,-0.5"/>
<text text-anchor="middle" x="711.5" y="-7.5" font-family="Helvetica,sans-Serif" font-size="10.00">boost/exception/info.hpp</text>
</g>
<!-- Node7&#45;&gt;Node11 -->
<g id="edge11" class="edge"><title>Node7&#45;&gt;Node11</title>
<path fill="none" stroke="midnightblue" d="M406.692,-61.0293C457.36,-52.7129 576.005,-33.2393 649.429,-21.188"/>
<polygon fill="midnightblue" stroke="midnightblue" points="650.176,-24.6122 659.478,-19.5386 649.043,-17.7046 650.176,-24.6122"/>
</g>
<!-- Node12 -->
<g id="node12" class="node"><title>Node12</title>
<g id="a_node12"><a xlink:href="source__info_8h.xhtml" target="_top" xlink:title="Helper facilities to get source file information. ">
<polygon fill="white" stroke="black" points="796.5,-0.5 796.5,-19.5 894.5,-19.5 894.5,-0.5 796.5,-0.5"/>
<text text-anchor="middle" x="845.5" y="-7.5" font-family="Helvetica,sans-Serif" font-size="10.00">ext/source_info.h</text>
</a>
</g>
</g>
<!-- Node7&#45;&gt;Node12 -->
<g id="edge12" class="edge"><title>Node7&#45;&gt;Node12</title>
<path fill="none" stroke="midnightblue" d="M406.739,-62.6764C468.255,-56.7008 635.641,-39.9533 786.129,-20.1313"/>
<polygon fill="midnightblue" stroke="midnightblue" points="787.02,-23.5438 796.474,-18.7602 786.101,-16.6045 787.02,-23.5438"/>
</g>
</g>
</svg>
