<?xml version="1.0" encoding="UTF-8" standalone="no"?>
<!DOCTYPE svg PUBLIC "-//W3C//DTD SVG 1.1//EN"
 "http://www.w3.org/Graphics/SVG/1.1/DTD/svg11.dtd">
<!-- Generated by graphviz version 2.38.0 (20140413.2041)
 -->
<!-- Title: settings.h Pages: 1 -->
<!--zoomable 476 -->
<svg id="main" version="1.1" xmlns="http://www.w3.org/2000/svg" xmlns:xlink="http://www.w3.org/1999/xlink" xml:space="preserve" onload="init(evt)">
<style type="text/css"><![CDATA[
.edge:hover path { stroke: red; }
.edge:hover polygon { stroke: red; fill: red; }
]]></style>
<script type="text/javascript"><![CDATA[
var edges = document.getElementsByTagName('g');
if (edges && edges.length) {
  for (var i=0;i<edges.length;i++) {
    if (edges[i].id.substr(0,4)=='edge') {
      edges[i].setAttribute('class','edge');
    }
  }
}
]]></script>
        <defs>
                <circle id="rim" cx="0" cy="0" r="7"/>
                <circle id="rim2" cx="0" cy="0" r="3.5"/>
                <g id="zoomPlus">
                        <use xlink:href="#rim" fill="#404040">
                                <set attributeName="fill" to="#808080" begin="zoomplus.mouseover" end="zoomplus.mouseout"/>
                        </use>
                        <path d="M-4,0h8M0,-4v8" fill="none" stroke="white" stroke-width="1.5" pointer-events="none"/>
                </g>
                <g id="zoomMin">
                        <use xlink:href="#rim" fill="#404040">
                                <set attributeName="fill" to="#808080" begin="zoomminus.mouseover" end="zoomminus.mouseout"/>
                        </use>
                        <path d="M-4,0h8" fill="none" stroke="white" stroke-width="1.5" pointer-events="none"/>
                </g>
                <g id="dirArrow">
                        <path fill="none" stroke="white" stroke-width="1.5" d="M0,-3.0v7 M-2.5,-0.5L0,-3.0L2.5,-0.5"/>
                </g>
               <g id="resetDef">
                       <use xlink:href="#rim2" fill="#404040">
                               <set attributeName="fill" to="#808080" begin="reset.mouseover" end="reset.mouseout"/>
                       </use>
               </g>
        </defs>

<script type="text/javascript">
var viewWidth = 1510;
var viewHeight = 476;
var sectionId = 'dynsection-1';
</script>
<script xlink:href="svgpan.js"/>
<svg id="graph" class="graph">
<g id="viewport">
<title>settings.h</title>
<polygon fill="white" stroke="none" points="-4,4 -4,-472 1505.5,-472 1505.5,4 -4,4"/>
<!-- Node1 -->
<g id="node1" class="node"><title>Node1</title>
<polygon fill="#bfbfbf" stroke="black" points="555.5,-448.5 555.5,-467.5 619.5,-467.5 619.5,-448.5 555.5,-448.5"/>
<text text-anchor="middle" x="587.5" y="-455.5" font-family="Helvetica,sans-Serif" font-size="10.00">settings.h</text>
</g>
<!-- Node2 -->
<g id="node2" class="node"><title>Node2</title>
<g id="a_node2"><a xlink:href="analysis_8h.xhtml" target="_top" xlink:title="Common facilities for all analysis classes. ">
<polygon fill="white" stroke="black" points="593.5,-336.5 593.5,-355.5 657.5,-355.5 657.5,-336.5 593.5,-336.5"/>
<text text-anchor="middle" x="625.5" y="-343.5" font-family="Helvetica,sans-Serif" font-size="10.00">analysis.h</text>
</a>
</g>
</g>
<!-- Node1&#45;&gt;Node2 -->
<g id="edge1" class="edge"><title>Node1&#45;&gt;Node2</title>
<path fill="none" stroke="midnightblue" d="M593.831,-438.674C602.139,-414.625 616.384,-373.388 622.532,-355.591"/>
<polygon fill="midnightblue" stroke="midnightblue" points="590.439,-437.774 590.482,-448.368 597.055,-440.059 590.439,-437.774"/>
</g>
<!-- Node4 -->
<g id="node4" class="node"><title>Node4</title>
<g id="a_node4"><a xlink:href="event__tree__analysis_8h.xhtml" target="_top" xlink:title="Event tree analysis facilities. ">
<polygon fill="white" stroke="black" points="400,-280.5 400,-299.5 521,-299.5 521,-280.5 400,-280.5"/>
<text text-anchor="middle" x="460.5" y="-287.5" font-family="Helvetica,sans-Serif" font-size="10.00">event_tree_analysis.h</text>
</a>
</g>
</g>
<!-- Node1&#45;&gt;Node4 -->
<g id="edge48" class="edge"><title>Node1&#45;&gt;Node4</title>
<path fill="none" stroke="midnightblue" d="M567.411,-442.003C557.179,-433.8 544.942,-423.071 535.5,-412 502.943,-373.826 474.859,-320.109 464.626,-299.503"/>
<polygon fill="midnightblue" stroke="midnightblue" points="565.389,-444.865 575.428,-448.252 569.692,-439.344 565.389,-444.865"/>
</g>
<!-- Node6 -->
<g id="node6" class="node"><title>Node6</title>
<g id="a_node6"><a xlink:href="risk__analysis_8h.xhtml" target="_top" xlink:title="Contains the main system for performing analysis. ">
<polygon fill="white" stroke="black" points="582.5,-112.5 582.5,-131.5 668.5,-131.5 668.5,-112.5 582.5,-112.5"/>
<text text-anchor="middle" x="625.5" y="-119.5" font-family="Helvetica,sans-Serif" font-size="10.00">risk_analysis.h</text>
</a>
</g>
</g>
<!-- Node1&#45;&gt;Node6 -->
<g id="edge56" class="edge"><title>Node1&#45;&gt;Node6</title>
<path fill="none" stroke="midnightblue" d="M586.778,-438.303C586.035,-418.033 584.927,-384.726 584.5,-356 584.368,-347.112 583.656,-344.849 584.5,-336 592.151,-255.776 615.661,-160.834 623.169,-131.84"/>
<polygon fill="midnightblue" stroke="midnightblue" points="583.283,-438.494 587.157,-448.355 590.278,-438.231 583.283,-438.494"/>
</g>
<!-- Node7 -->
<g id="node7" class="node"><title>Node7</title>
<g id="a_node7"><a xlink:href="reporter_8h.xhtml" target="_top" xlink:title="Reporter of results. ">
<polygon fill="white" stroke="black" points="593.5,-56.5 593.5,-75.5 657.5,-75.5 657.5,-56.5 593.5,-56.5"/>
<text text-anchor="middle" x="625.5" y="-63.5" font-family="Helvetica,sans-Serif" font-size="10.00">reporter.h</text>
</a>
</g>
</g>
<!-- Node1&#45;&gt;Node7 -->
<g id="edge58" class="edge"><title>Node1&#45;&gt;Node7</title>
<path fill="none" stroke="midnightblue" d="M545.333,-457.917C494.073,-457.171 406.611,-449.763 343.5,-412 311.753,-393.004 291.5,-383.996 291.5,-347 291.5,-347 291.5,-347 291.5,-177 291.5,-132.553 327.289,-130.936 367.5,-112 442.983,-76.4539 542.814,-68.7456 593.305,-67.2305"/>
<polygon fill="midnightblue" stroke="midnightblue" points="545.368,-461.417 555.392,-457.984 545.415,-454.417 545.368,-461.417"/>
</g>
<!-- Node9 -->
<g id="node9" class="node"><title>Node9</title>
<g id="a_node9"><a xlink:href="scram_8cc.xhtml" target="_top" xlink:title="Main entrance. ">
<polygon fill="white" stroke="black" points="223.5,-0.5 223.5,-19.5 283.5,-19.5 283.5,-0.5 223.5,-0.5"/>
<text text-anchor="middle" x="253.5" y="-7.5" font-family="Helvetica,sans-Serif" font-size="10.00">scram.cc</text>
</a>
</g>
</g>
<!-- Node1&#45;&gt;Node9 -->
<g id="edge59" class="edge"><title>Node1&#45;&gt;Node9</title>
<path fill="none" stroke="midnightblue" d="M544.945,-453.685C477.364,-447.833 349.091,-434.149 309.5,-412 276.222,-393.383 253.5,-385.132 253.5,-347 253.5,-347 253.5,-347 253.5,-121 253.5,-83.1875 253.5,-38.0636 253.5,-19.5578"/>
<polygon fill="midnightblue" stroke="midnightblue" points="544.988,-457.201 555.247,-454.558 545.578,-450.226 544.988,-457.201"/>
</g>
<!-- Node11 -->
<g id="node11" class="node"><title>Node11</title>
<g id="a_node11"><a xlink:href="fault__tree__analysis_8h.xhtml" target="_top" xlink:title="Fault Tree Analysis. ">
<polygon fill="white" stroke="black" points="816,-280.5 816,-299.5 931,-299.5 931,-280.5 816,-280.5"/>
<text text-anchor="middle" x="873.5" y="-287.5" font-family="Helvetica,sans-Serif" font-size="10.00">fault_tree_analysis.h</text>
</a>
</g>
</g>
<!-- Node1&#45;&gt;Node11 -->
<g id="edge49" class="edge"><title>Node1&#45;&gt;Node11</title>
<path fill="none" stroke="midnightblue" d="M611.163,-443.265C668.214,-410.152 812.064,-326.659 858.674,-299.605"/>
<polygon fill="midnightblue" stroke="midnightblue" points="609.366,-440.262 602.474,-448.309 612.88,-446.316 609.366,-440.262"/>
</g>
<!-- Node14 -->
<g id="node14" class="node"><title>Node14</title>
<g id="a_node14"><a xlink:href="importance__analysis_8h.xhtml" target="_top" xlink:title="Contains functionality to do numerical analysis of importance factors. ">
<polygon fill="white" stroke="black" points="873.5,-168.5 873.5,-187.5 997.5,-187.5 997.5,-168.5 873.5,-168.5"/>
<text text-anchor="middle" x="935.5" y="-175.5" font-family="Helvetica,sans-Serif" font-size="10.00">importance_analysis.h</text>
</a>
</g>
</g>
<!-- Node1&#45;&gt;Node14 -->
<g id="edge50" class="edge"><title>Node1&#45;&gt;Node14</title>
<path fill="none" stroke="midnightblue" d="M629.608,-447.01C700.542,-428.416 845.322,-382.682 939.5,-300 967.446,-275.465 987.497,-258.842 974.5,-224 968.936,-209.083 955.953,-195.829 946.49,-187.635"/>
<polygon fill="midnightblue" stroke="midnightblue" points="628.507,-443.679 619.693,-449.557 630.249,-450.459 628.507,-443.679"/>
</g>
<!-- Node16 -->
<g id="node16" class="node"><title>Node16</title>
<g id="a_node16"><a xlink:href="probability__analysis_8cc.xhtml" target="_top" xlink:title="Implementations of functions to provide probability analysis. ">
<polygon fill="white" stroke="black" points="1098,-168.5 1098,-187.5 1221,-187.5 1221,-168.5 1098,-168.5"/>
<text text-anchor="middle" x="1159.5" y="-175.5" font-family="Helvetica,sans-Serif" font-size="10.00">probability_analysis.cc</text>
</a>
</g>
</g>
<!-- Node1&#45;&gt;Node16 -->
<g id="edge55" class="edge"><title>Node1&#45;&gt;Node16</title>
<path fill="none" stroke="midnightblue" d="M629.722,-455.817C797.175,-450.574 1405.5,-426.085 1405.5,-347 1405.5,-347 1405.5,-347 1405.5,-289 1405.5,-258.902 1408.7,-244.318 1386.5,-224 1362.75,-202.269 1279.79,-190.111 1221.05,-184.056"/>
<polygon fill="midnightblue" stroke="midnightblue" points="629.455,-452.323 619.567,-456.128 629.669,-459.32 629.455,-452.323"/>
</g>
<!-- Node17 -->
<g id="node17" class="node"><title>Node17</title>
<g id="a_node17"><a xlink:href="uncertainty__analysis_8h.xhtml" target="_top" xlink:title="Provides functionality for uncertainty analysis with Monte Carlo method. ">
<polygon fill="white" stroke="black" points="379,-168.5 379,-187.5 502,-187.5 502,-168.5 379,-168.5"/>
<text text-anchor="middle" x="440.5" y="-175.5" font-family="Helvetica,sans-Serif" font-size="10.00">uncertainty_analysis.h</text>
</a>
</g>
</g>
<!-- Node1&#45;&gt;Node17 -->
<g id="edge57" class="edge"><title>Node1&#45;&gt;Node17</title>
<path fill="none" stroke="midnightblue" d="M545.068,-457.288C471.839,-455.321 329.5,-439.589 329.5,-347 329.5,-347 329.5,-347 329.5,-289 329.5,-258.902 329.107,-247.017 348.5,-224 363.851,-205.779 388.339,-194.304 408.192,-187.505"/>
<polygon fill="midnightblue" stroke="midnightblue" points="545.28,-460.793 555.346,-457.486 545.415,-453.794 545.28,-460.793"/>
</g>
<!-- Node19 -->
<g id="node19" class="node"><title>Node19</title>
<g id="a_node19"><a xlink:href="bdd_8h.xhtml" target="_top" xlink:title="Fault tree analysis with the Binary Decision Diagram algorithms. ">
<polygon fill="white" stroke="black" points="1004.5,-392.5 1004.5,-411.5 1048.5,-411.5 1048.5,-392.5 1004.5,-392.5"/>
<text text-anchor="middle" x="1026.5" y="-399.5" font-family="Helvetica,sans-Serif" font-size="10.00">bdd.h</text>
</a>
</g>
</g>
<!-- Node1&#45;&gt;Node19 -->
<g id="edge30" class="edge"><title>Node1&#45;&gt;Node19</title>
<path fill="none" stroke="midnightblue" d="M629.941,-452.784C701.116,-445.549 848.988,-429.817 973.5,-412 983.663,-410.546 994.878,-408.68 1004.36,-407.024"/>
<polygon fill="midnightblue" stroke="midnightblue" points="629.196,-449.341 619.599,-453.83 629.901,-456.306 629.196,-449.341"/>
</g>
<!-- Node22 -->
<g id="node22" class="node"><title>Node22</title>
<g id="a_node22"><a xlink:href="mocus_8h.xhtml" target="_top" xlink:title="Fault tree analysis with the MOCUS algorithm. ">
<polygon fill="white" stroke="black" points="1278.5,-280.5 1278.5,-299.5 1336.5,-299.5 1336.5,-280.5 1278.5,-280.5"/>
<text text-anchor="middle" x="1307.5" y="-287.5" font-family="Helvetica,sans-Serif" font-size="10.00">mocus.h</text>
</a>
</g>
</g>
<!-- Node1&#45;&gt;Node22 -->
<g id="edge54" class="edge"><title>Node1&#45;&gt;Node22</title>
<path fill="none" stroke="midnightblue" d="M629.654,-457.906C713.034,-458.626 904.218,-454.936 1057.5,-412 1153.61,-385.078 1257.75,-322.581 1294.09,-299.643"/>
<polygon fill="midnightblue" stroke="midnightblue" points="629.598,-454.405 619.559,-457.792 629.519,-461.404 629.598,-454.405"/>
</g>
<!-- Node25 -->
<g id="node25" class="node"><title>Node25</title>
<g id="a_node25"><a xlink:href="config_8h.xhtml" target="_top" xlink:title="Configuration management facilities to make various setups for analysis possible. ...">
<polygon fill="white" stroke="black" points="168.5,-392.5 168.5,-411.5 222.5,-411.5 222.5,-392.5 168.5,-392.5"/>
<text text-anchor="middle" x="195.5" y="-399.5" font-family="Helvetica,sans-Serif" font-size="10.00">config.h</text>
</a>
</g>
</g>
<!-- Node1&#45;&gt;Node25 -->
<g id="edge45" class="edge"><title>Node1&#45;&gt;Node25</title>
<path fill="none" stroke="midnightblue" d="M545.275,-452.549C479.65,-445.404 349.3,-430.304 239.5,-412 234.116,-411.103 228.387,-410.023 222.904,-408.928"/>
<polygon fill="midnightblue" stroke="midnightblue" points="544.921,-456.031 555.239,-453.627 545.673,-449.071 544.921,-456.031"/>
</g>
<!-- Node27 -->
<g id="node27" class="node"><title>Node27</title>
<g id="a_node27"><a xlink:href="initializer_8h.xhtml" target="_top" xlink:title="A facility that processes input files into analysis constructs. ">
<polygon fill="white" stroke="black" points="66,-392.5 66,-411.5 133,-411.5 133,-392.5 66,-392.5"/>
<text text-anchor="middle" x="99.5" y="-399.5" font-family="Helvetica,sans-Serif" font-size="10.00">initializer.h</text>
</a>
</g>
</g>
<!-- Node1&#45;&gt;Node27 -->
<g id="edge51" class="edge"><title>Node1&#45;&gt;Node27</title>
<path fill="none" stroke="midnightblue" d="M545.267,-453.183C468.398,-446.097 300.54,-429.984 159.5,-412 150.932,-410.908 141.697,-409.592 133.101,-408.307"/>
<polygon fill="midnightblue" stroke="midnightblue" points="545.22,-456.693 555.498,-454.122 545.86,-449.723 545.22,-456.693"/>
</g>
<!-- Node29 -->
<g id="node29" class="node"><title>Node29</title>
<g id="a_node29"><a xlink:href="settings_8cc.xhtml" target="_top" xlink:title="Implementation of Settings Builder. ">
<polygon fill="white" stroke="black" points="1433.5,-392.5 1433.5,-411.5 1501.5,-411.5 1501.5,-392.5 1433.5,-392.5"/>
<text text-anchor="middle" x="1467.5" y="-399.5" font-family="Helvetica,sans-Serif" font-size="10.00">settings.cc</text>
</a>
</g>
</g>
<!-- Node1&#45;&gt;Node29 -->
<g id="edge60" class="edge"><title>Node1&#45;&gt;Node29</title>
<path fill="none" stroke="midnightblue" d="M629.852,-456.67C752.505,-455.292 1118.41,-448.21 1419.5,-412 1424.05,-411.453 1428.81,-410.737 1433.5,-409.946"/>
<polygon fill="midnightblue" stroke="midnightblue" points="629.717,-453.171 619.755,-456.776 629.791,-460.17 629.717,-453.171"/>
</g>
<!-- Node3 -->
<g id="node3" class="node"><title>Node3</title>
<g id="a_node3"><a xlink:href="analysis_8cc.xhtml" target="_top" xlink:title="Implementation of common facilities for all analysis classes. ">
<polygon fill="white" stroke="black" points="653.5,-280.5 653.5,-299.5 721.5,-299.5 721.5,-280.5 653.5,-280.5"/>
<text text-anchor="middle" x="687.5" y="-287.5" font-family="Helvetica,sans-Serif" font-size="10.00">analysis.cc</text>
</a>
</g>
</g>
<!-- Node2&#45;&gt;Node3 -->
<g id="edge2" class="edge"><title>Node2&#45;&gt;Node3</title>
<path fill="none" stroke="midnightblue" d="M643.254,-329.537C654.308,-319.909 668.131,-307.869 677.357,-299.834"/>
<polygon fill="midnightblue" stroke="midnightblue" points="640.703,-327.117 635.461,-336.324 645.301,-332.395 640.703,-327.117"/>
</g>
<!-- Node2&#45;&gt;Node4 -->
<g id="edge3" class="edge"><title>Node2&#45;&gt;Node4</title>
<path fill="none" stroke="midnightblue" d="M589.764,-333.304C558.673,-323.129 514.353,-308.625 486.522,-299.516"/>
<polygon fill="midnightblue" stroke="midnightblue" points="588.763,-336.659 599.355,-336.444 590.94,-330.007 588.763,-336.659"/>
</g>
<!-- Node2&#45;&gt;Node6 -->
<g id="edge28" class="edge"><title>Node2&#45;&gt;Node6</title>
<path fill="none" stroke="midnightblue" d="M625.5,-326.295C625.5,-280.644 625.5,-164.854 625.5,-131.884"/>
<polygon fill="midnightblue" stroke="midnightblue" points="622,-326.297 625.5,-336.297 629,-326.297 622,-326.297"/>
</g>
<!-- Node2&#45;&gt;Node11 -->
<g id="edge11" class="edge"><title>Node2&#45;&gt;Node11</title>
<path fill="none" stroke="midnightblue" d="M667.467,-335.862C714.152,-325.697 788.975,-309.405 834.448,-299.503"/>
<polygon fill="midnightblue" stroke="midnightblue" points="666.694,-332.448 657.667,-337.996 668.183,-339.288 666.694,-332.448"/>
</g>
<!-- Node13 -->
<g id="node13" class="node"><title>Node13</title>
<g id="a_node13"><a xlink:href="probability__analysis_8h.xhtml" target="_top" xlink:title="Contains functionality to do numerical analysis of probabilities. ">
<polygon fill="white" stroke="black" points="654,-224.5 654,-243.5 773,-243.5 773,-224.5 654,-224.5"/>
<text text-anchor="middle" x="713.5" y="-231.5" font-family="Helvetica,sans-Serif" font-size="10.00">probability_analysis.h</text>
</a>
</g>
</g>
<!-- Node2&#45;&gt;Node13 -->
<g id="edge27" class="edge"><title>Node2&#45;&gt;Node13</title>
<path fill="none" stroke="midnightblue" d="M667.492,-338.402C690.254,-332.452 716.52,-321.202 730.5,-300 742.186,-282.277 728.664,-256.901 719.87,-243.711"/>
<polygon fill="midnightblue" stroke="midnightblue" points="666.602,-335.016 657.668,-340.71 668.203,-341.83 666.602,-335.016"/>
</g>
<!-- Node2&#45;&gt;Node17 -->
<g id="edge29" class="edge"><title>Node2&#45;&gt;Node17</title>
<path fill="none" stroke="midnightblue" d="M608.459,-329.498C583.059,-306.419 533.728,-261.694 491.5,-224 477.229,-211.262 460.597,-196.625 450.307,-187.594"/>
<polygon fill="midnightblue" stroke="midnightblue" points="606.357,-332.317 616.111,-336.454 611.066,-327.138 606.357,-332.317"/>
</g>
<!-- Node5 -->
<g id="node5" class="node"><title>Node5</title>
<g id="a_node5"><a xlink:href="event__tree__analysis_8cc.xhtml" target="_top" xlink:title="Implementation of event tree analysis facilities. ">
<polygon fill="white" stroke="black" points="358,-224.5 358,-243.5 483,-243.5 483,-224.5 358,-224.5"/>
<text text-anchor="middle" x="420.5" y="-231.5" font-family="Helvetica,sans-Serif" font-size="10.00">event_tree_analysis.cc</text>
</a>
</g>
</g>
<!-- Node4&#45;&gt;Node5 -->
<g id="edge4" class="edge"><title>Node4&#45;&gt;Node5</title>
<path fill="none" stroke="midnightblue" d="M447.8,-271.855C440.874,-262.505 432.594,-251.327 426.982,-243.751"/>
<polygon fill="midnightblue" stroke="midnightblue" points="445.13,-274.131 453.895,-280.083 450.755,-269.964 445.13,-274.131"/>
</g>
<!-- Node4&#45;&gt;Node6 -->
<g id="edge5" class="edge"><title>Node4&#45;&gt;Node6</title>
<path fill="none" stroke="midnightblue" d="M474.643,-272.79C495.548,-249.08 536.25,-203.866 573.5,-168 587.261,-154.751 604.133,-140.485 614.852,-131.649"/>
<polygon fill="midnightblue" stroke="midnightblue" points="471.846,-270.671 467.88,-280.495 477.107,-275.289 471.846,-270.671"/>
</g>
<!-- Node6&#45;&gt;Node7 -->
<g id="edge6" class="edge"><title>Node6&#45;&gt;Node7</title>
<path fill="none" stroke="midnightblue" d="M625.5,-101.805C625.5,-92.9102 625.5,-82.7798 625.5,-75.7511"/>
<polygon fill="midnightblue" stroke="midnightblue" points="622,-102.083 625.5,-112.083 629,-102.083 622,-102.083"/>
</g>
<!-- Node6&#45;&gt;Node9 -->
<g id="edge10" class="edge"><title>Node6&#45;&gt;Node9</title>
<path fill="none" stroke="midnightblue" d="M586.644,-109.51C511.674,-87.3417 348.62,-39.127 282.362,-19.5345"/>
<polygon fill="midnightblue" stroke="midnightblue" points="586.037,-112.981 596.619,-112.46 588.022,-106.268 586.037,-112.981"/>
</g>
<!-- Node10 -->
<g id="node10" class="node"><title>Node10</title>
<g id="a_node10"><a xlink:href="risk__analysis_8cc.xhtml" target="_top" xlink:title="Implementation of risk analysis handler. ">
<polygon fill="white" stroke="black" points="1223.5,-56.5 1223.5,-75.5 1313.5,-75.5 1313.5,-56.5 1223.5,-56.5"/>
<text text-anchor="middle" x="1268.5" y="-63.5" font-family="Helvetica,sans-Serif" font-size="10.00">risk_analysis.cc</text>
</a>
</g>
</g>
<!-- Node6&#45;&gt;Node10 -->
<g id="edge9" class="edge"><title>Node6&#45;&gt;Node10</title>
<path fill="none" stroke="midnightblue" d="M678.686,-116.533C802.448,-106.14 1107.96,-80.4827 1223.37,-70.79"/>
<polygon fill="midnightblue" stroke="midnightblue" points="678.359,-113.048 668.687,-117.373 678.945,-120.024 678.359,-113.048"/>
</g>
<!-- Node8 -->
<g id="node8" class="node"><title>Node8</title>
<g id="a_node8"><a xlink:href="reporter_8cc.xhtml" target="_top" xlink:title="Implements Reporter class. ">
<polygon fill="white" stroke="black" points="591.5,-0.5 591.5,-19.5 659.5,-19.5 659.5,-0.5 591.5,-0.5"/>
<text text-anchor="middle" x="625.5" y="-7.5" font-family="Helvetica,sans-Serif" font-size="10.00">reporter.cc</text>
</a>
</g>
</g>
<!-- Node7&#45;&gt;Node8 -->
<g id="edge7" class="edge"><title>Node7&#45;&gt;Node8</title>
<path fill="none" stroke="midnightblue" d="M625.5,-45.8045C625.5,-36.9102 625.5,-26.7798 625.5,-19.7511"/>
<polygon fill="midnightblue" stroke="midnightblue" points="622,-46.083 625.5,-56.083 629,-46.083 622,-46.083"/>
</g>
<!-- Node7&#45;&gt;Node9 -->
<g id="edge8" class="edge"><title>Node7&#45;&gt;Node9</title>
<path fill="none" stroke="midnightblue" d="M583.31,-58.8756C507.382,-47.8539 349.497,-24.935 283.506,-15.3558"/>
<polygon fill="midnightblue" stroke="midnightblue" points="583.062,-62.3763 593.462,-60.3493 584.068,-55.4489 583.062,-62.3763"/>
</g>
<!-- Node11&#45;&gt;Node6 -->
<g id="edge26" class="edge"><title>Node11&#45;&gt;Node6</title>
<path fill="none" stroke="midnightblue" d="M911.279,-276.998C940.839,-265.555 974.341,-246.726 957.5,-224 948.252,-211.521 738.406,-153.591 657.194,-131.547"/>
<polygon fill="midnightblue" stroke="midnightblue" points="910.068,-273.714 901.889,-280.449 912.482,-280.284 910.068,-273.714"/>
</g>
<!-- Node11&#45;&gt;Node7 -->
<g id="edge25" class="edge"><title>Node11&#45;&gt;Node7</title>
<path fill="none" stroke="midnightblue" d="M854.641,-273.895C844.304,-265.393 831.412,-254.42 820.5,-244 762.504,-188.622 759.364,-163.021 697.5,-112 679.76,-97.369 656.904,-83.8594 641.755,-75.5374"/>
<polygon fill="midnightblue" stroke="midnightblue" points="852.657,-276.793 862.623,-280.388 857.075,-271.363 852.657,-276.793"/>
</g>
<!-- Node12 -->
<g id="node12" class="node"><title>Node12</title>
<g id="a_node12"><a xlink:href="fault__tree__analysis_8cc.xhtml" target="_top" xlink:title="Implementation of fault tree analysis. ">
<polygon fill="white" stroke="black" points="830,-224.5 830,-243.5 949,-243.5 949,-224.5 830,-224.5"/>
<text text-anchor="middle" x="889.5" y="-231.5" font-family="Helvetica,sans-Serif" font-size="10.00">fault_tree_analysis.cc</text>
</a>
</g>
</g>
<!-- Node11&#45;&gt;Node12 -->
<g id="edge12" class="edge"><title>Node11&#45;&gt;Node12</title>
<path fill="none" stroke="midnightblue" d="M879.012,-270.396C881.689,-261.362 884.778,-250.936 886.907,-243.751"/>
<polygon fill="midnightblue" stroke="midnightblue" points="875.627,-269.501 876.142,-280.083 882.339,-271.489 875.627,-269.501"/>
</g>
<!-- Node11&#45;&gt;Node13 -->
<g id="edge13" class="edge"><title>Node11&#45;&gt;Node13</title>
<path fill="none" stroke="midnightblue" d="M838.454,-277.172C808.326,-267.004 765.604,-252.585 738.734,-243.516"/>
<polygon fill="midnightblue" stroke="midnightblue" points="837.553,-280.562 848.148,-280.444 839.792,-273.929 837.553,-280.562"/>
</g>
<!-- Node13&#45;&gt;Node6 -->
<g id="edge20" class="edge"><title>Node13&#45;&gt;Node6</title>
<path fill="none" stroke="midnightblue" d="M700.118,-216.272C681.095,-192.494 646.931,-149.789 632.373,-131.591"/>
<polygon fill="midnightblue" stroke="midnightblue" points="697.615,-218.746 706.595,-224.368 703.081,-214.373 697.615,-218.746"/>
</g>
<!-- Node13&#45;&gt;Node7 -->
<g id="edge19" class="edge"><title>Node13&#45;&gt;Node7</title>
<path fill="none" stroke="midnightblue" d="M711.283,-214.447C707.597,-189.465 698.428,-144.414 677.5,-112 667.657,-96.7545 651.17,-83.7488 639.4,-75.6977"/>
<polygon fill="midnightblue" stroke="midnightblue" points="707.818,-214.947 712.613,-224.395 714.757,-214.019 707.818,-214.947"/>
</g>
<!-- Node13&#45;&gt;Node14 -->
<g id="edge14" class="edge"><title>Node13&#45;&gt;Node14</title>
<path fill="none" stroke="midnightblue" d="M758.625,-222.024C800.56,-211.823 862.152,-196.841 900.488,-187.516"/>
<polygon fill="midnightblue" stroke="midnightblue" points="757.566,-218.679 748.677,-224.444 759.22,-225.481 757.566,-218.679"/>
</g>
<!-- Node13&#45;&gt;Node16 -->
<g id="edge18" class="edge"><title>Node13&#45;&gt;Node16</title>
<path fill="none" stroke="midnightblue" d="M783.15,-224.567C869.444,-214.119 1015.15,-196.478 1097.66,-186.487"/>
<polygon fill="midnightblue" stroke="midnightblue" points="782.694,-221.097 773.187,-225.773 783.535,-228.046 782.694,-221.097"/>
</g>
<!-- Node13&#45;&gt;Node17 -->
<g id="edge21" class="edge"><title>Node13&#45;&gt;Node17</title>
<path fill="none" stroke="midnightblue" d="M660.282,-222.473C608.687,-212.268 531.396,-196.979 483.555,-187.516"/>
<polygon fill="midnightblue" stroke="midnightblue" points="659.753,-225.937 670.242,-224.444 661.112,-219.07 659.753,-225.937"/>
</g>
<!-- Node14&#45;&gt;Node6 -->
<g id="edge17" class="edge"><title>Node14&#45;&gt;Node6</title>
<path fill="none" stroke="midnightblue" d="M876.199,-166.67C815.606,-156.115 722.958,-139.977 668.888,-130.558"/>
<polygon fill="midnightblue" stroke="midnightblue" points="875.927,-170.175 886.38,-168.444 877.129,-163.279 875.927,-170.175"/>
</g>
<!-- Node14&#45;&gt;Node7 -->
<g id="edge16" class="edge"><title>Node14&#45;&gt;Node7</title>
<path fill="none" stroke="midnightblue" d="M913.92,-163.034C890.518,-148.443 851.654,-125.794 815.5,-112 761.816,-91.5177 695.928,-78.431 657.531,-71.9256"/>
<polygon fill="midnightblue" stroke="midnightblue" points="912.056,-165.997 922.379,-168.38 915.795,-160.079 912.056,-165.997"/>
</g>
<!-- Node15 -->
<g id="node15" class="node"><title>Node15</title>
<g id="a_node15"><a xlink:href="importance__analysis_8cc.xhtml" target="_top" xlink:title="Implementations of functions to provide quantitative importance informations. ">
<polygon fill="white" stroke="black" points="916.5,-112.5 916.5,-131.5 1044.5,-131.5 1044.5,-112.5 916.5,-112.5"/>
<text text-anchor="middle" x="980.5" y="-119.5" font-family="Helvetica,sans-Serif" font-size="10.00">importance_analysis.cc</text>
</a>
</g>
</g>
<!-- Node14&#45;&gt;Node15 -->
<g id="edge15" class="edge"><title>Node14&#45;&gt;Node15</title>
<path fill="none" stroke="midnightblue" d="M949.547,-160.144C957.387,-150.736 966.829,-139.405 973.207,-131.751"/>
<polygon fill="midnightblue" stroke="midnightblue" points="946.644,-158.16 942.931,-168.083 952.021,-162.641 946.644,-158.16"/>
</g>
<!-- Node17&#45;&gt;Node6 -->
<g id="edge22" class="edge"><title>Node17&#45;&gt;Node6</title>
<path fill="none" stroke="midnightblue" d="M479.666,-165.568C514.565,-155.381 564.849,-140.703 596.323,-131.516"/>
<polygon fill="midnightblue" stroke="midnightblue" points="478.433,-162.282 469.814,-168.444 480.394,-169.001 478.433,-162.282"/>
</g>
<!-- Node17&#45;&gt;Node7 -->
<g id="edge23" class="edge"><title>Node17&#45;&gt;Node7</title>
<path fill="none" stroke="midnightblue" d="M464.031,-163.009C502.863,-139.919 579.232,-94.5104 611.051,-75.5914"/>
<polygon fill="midnightblue" stroke="midnightblue" points="461.823,-160.249 455.017,-168.368 465.401,-166.266 461.823,-160.249"/>
</g>
<!-- Node18 -->
<g id="node18" class="node"><title>Node18</title>
<g id="a_node18"><a xlink:href="uncertainty__analysis_8cc.xhtml" target="_top" xlink:title="Implements the functionality to run Monte Carlo simulations. ">
<polygon fill="white" stroke="black" points="376.5,-112.5 376.5,-131.5 504.5,-131.5 504.5,-112.5 376.5,-112.5"/>
<text text-anchor="middle" x="440.5" y="-119.5" font-family="Helvetica,sans-Serif" font-size="10.00">uncertainty_analysis.cc</text>
</a>
</g>
</g>
<!-- Node17&#45;&gt;Node18 -->
<g id="edge24" class="edge"><title>Node17&#45;&gt;Node18</title>
<path fill="none" stroke="midnightblue" d="M440.5,-157.805C440.5,-148.91 440.5,-138.78 440.5,-131.751"/>
<polygon fill="midnightblue" stroke="midnightblue" points="437,-158.083 440.5,-168.083 444,-158.083 437,-158.083"/>
</g>
<!-- Node19&#45;&gt;Node10 -->
<g id="edge44" class="edge"><title>Node19&#45;&gt;Node10</title>
<path fill="none" stroke="midnightblue" d="M1058.73,-400.6C1138.73,-397.573 1343.1,-376.732 1386.5,-244 1410.37,-170.985 1317.55,-99.7717 1281.91,-75.6337"/>
<polygon fill="midnightblue" stroke="midnightblue" points="1058.62,-397.101 1048.73,-400.908 1058.83,-404.098 1058.62,-397.101"/>
</g>
<!-- Node19&#45;&gt;Node13 -->
<g id="edge43" class="edge"><title>Node19&#45;&gt;Node13</title>
<path fill="none" stroke="midnightblue" d="M995.165,-388.703C951.687,-371.179 871.12,-337.016 806.5,-300 775.391,-282.18 741.51,-256.845 724.522,-243.687"/>
<polygon fill="midnightblue" stroke="midnightblue" points="994.04,-392.023 1004.62,-392.489 996.641,-385.524 994.04,-392.023"/>
</g>
<!-- Node19&#45;&gt;Node14 -->
<g id="edge42" class="edge"><title>Node19&#45;&gt;Node14</title>
<path fill="none" stroke="midnightblue" d="M1022.09,-382.632C1017.03,-358.806 1010.19,-316.028 1016.5,-280 1020.91,-254.832 1043.12,-245.619 1029.5,-224 1017.64,-205.17 995.475,-194.047 975.647,-187.571"/>
<polygon fill="midnightblue" stroke="midnightblue" points="1018.69,-383.44 1024.3,-392.424 1025.51,-381.898 1018.69,-383.44"/>
</g>
<!-- Node20 -->
<g id="node20" class="node"><title>Node20</title>
<g id="a_node20"><a xlink:href="bdd_8cc.xhtml" target="_top" xlink:title="Implementation of BDD fault tree analysis algorithms. ">
<polygon fill="white" stroke="black" points="1025.5,-280.5 1025.5,-299.5 1073.5,-299.5 1073.5,-280.5 1025.5,-280.5"/>
<text text-anchor="middle" x="1049.5" y="-287.5" font-family="Helvetica,sans-Serif" font-size="10.00">bdd.cc</text>
</a>
</g>
</g>
<!-- Node19&#45;&gt;Node20 -->
<g id="edge31" class="edge"><title>Node19&#45;&gt;Node20</title>
<path fill="none" stroke="midnightblue" d="M1030.4,-382.348C1035.44,-358.254 1044,-317.308 1047.7,-299.591"/>
<polygon fill="midnightblue" stroke="midnightblue" points="1026.93,-381.864 1028.3,-392.368 1033.78,-383.297 1026.93,-381.864"/>
</g>
<!-- Node21 -->
<g id="node21" class="node"><title>Node21</title>
<g id="a_node21"><a xlink:href="zbdd_8h.xhtml" target="_top" xlink:title="Zero&#45;Suppressed Binary Decision Diagram facilities. ">
<polygon fill="white" stroke="black" points="1080,-336.5 1080,-355.5 1129,-355.5 1129,-336.5 1080,-336.5"/>
<text text-anchor="middle" x="1104.5" y="-343.5" font-family="Helvetica,sans-Serif" font-size="10.00">zbdd.h</text>
</a>
</g>
</g>
<!-- Node19&#45;&gt;Node21 -->
<g id="edge32" class="edge"><title>Node19&#45;&gt;Node21</title>
<path fill="none" stroke="midnightblue" d="M1047.27,-386.622C1061.52,-376.757 1079.96,-363.992 1092,-355.655"/>
<polygon fill="midnightblue" stroke="midnightblue" points="1045.26,-383.754 1039.03,-392.324 1049.25,-389.51 1045.26,-383.754"/>
</g>
<!-- Node21&#45;&gt;Node10 -->
<g id="edge40" class="edge"><title>Node21&#45;&gt;Node10</title>
<path fill="none" stroke="midnightblue" d="M1138.88,-335.532C1181.76,-321.385 1249.5,-290.287 1249.5,-235 1249.5,-235 1249.5,-235 1249.5,-177 1249.5,-138.821 1260.75,-94.2624 1265.94,-75.7514"/>
<polygon fill="midnightblue" stroke="midnightblue" points="1137.59,-332.271 1129.1,-338.612 1139.69,-338.949 1137.59,-332.271"/>
</g>
<!-- Node21&#45;&gt;Node11 -->
<g id="edge34" class="edge"><title>Node21&#45;&gt;Node11</title>
<path fill="none" stroke="midnightblue" d="M1069.79,-336.887C1026.83,-326.844 953.991,-309.816 910.15,-299.568"/>
<polygon fill="midnightblue" stroke="midnightblue" points="1069.24,-340.353 1079.78,-339.221 1070.84,-333.537 1069.24,-340.353"/>
</g>
<!-- Node21&#45;&gt;Node15 -->
<g id="edge35" class="edge"><title>Node21&#45;&gt;Node15</title>
<path fill="none" stroke="midnightblue" d="M1099.55,-326.49C1095.69,-313.219 1089.77,-295.094 1082.5,-280 1053.44,-219.674 1005.1,-154.774 987.328,-131.724"/>
<polygon fill="midnightblue" stroke="midnightblue" points="1096.24,-327.632 1102.29,-336.324 1102.98,-325.751 1096.24,-327.632"/>
</g>
<!-- Node21&#45;&gt;Node16 -->
<g id="edge39" class="edge"><title>Node21&#45;&gt;Node16</title>
<path fill="none" stroke="midnightblue" d="M1138.88,-336.666C1157.94,-330.095 1180.06,-318.802 1191.5,-300 1214.43,-262.32 1180.87,-208.313 1166,-187.566"/>
<polygon fill="midnightblue" stroke="midnightblue" points="1137.75,-333.352 1129.26,-339.686 1139.84,-340.03 1137.75,-333.352"/>
</g>
<!-- Node21&#45;&gt;Node20 -->
<g id="edge33" class="edge"><title>Node21&#45;&gt;Node20</title>
<path fill="none" stroke="midnightblue" d="M1088.21,-329.002C1078.46,-319.433 1066.45,-307.639 1058.41,-299.751"/>
<polygon fill="midnightblue" stroke="midnightblue" points="1085.83,-331.575 1095.42,-336.083 1090.73,-326.58 1085.83,-331.575"/>
</g>
<!-- Node21&#45;&gt;Node22 -->
<g id="edge36" class="edge"><title>Node21&#45;&gt;Node22</title>
<path fill="none" stroke="midnightblue" d="M1139.06,-335.806C1178.31,-325.365 1241.67,-308.511 1278.47,-298.723"/>
<polygon fill="midnightblue" stroke="midnightblue" points="1138.16,-332.425 1129.39,-338.379 1139.96,-339.19 1138.16,-332.425"/>
</g>
<!-- Node24 -->
<g id="node24" class="node"><title>Node24</title>
<g id="a_node24"><a xlink:href="zbdd_8cc.xhtml" target="_top" xlink:title="Implementation of Zero&#45;Suppressed BDD algorithms. ">
<polygon fill="white" stroke="black" points="1130,-280.5 1130,-299.5 1183,-299.5 1183,-280.5 1130,-280.5"/>
<text text-anchor="middle" x="1156.5" y="-287.5" font-family="Helvetica,sans-Serif" font-size="10.00">zbdd.cc</text>
</a>
</g>
</g>
<!-- Node21&#45;&gt;Node24 -->
<g id="edge41" class="edge"><title>Node21&#45;&gt;Node24</title>
<path fill="none" stroke="midnightblue" d="M1120.18,-328.718C1129.34,-319.2 1140.55,-307.561 1148.07,-299.751"/>
<polygon fill="midnightblue" stroke="midnightblue" points="1117.5,-326.452 1113.09,-336.083 1122.54,-331.308 1117.5,-326.452"/>
</g>
<!-- Node22&#45;&gt;Node10 -->
<g id="edge38" class="edge"><title>Node22&#45;&gt;Node10</title>
<path fill="none" stroke="midnightblue" d="M1304.21,-270.295C1296.19,-224.644 1275.85,-108.854 1270.06,-75.8837"/>
<polygon fill="midnightblue" stroke="midnightblue" points="1300.79,-271.054 1305.97,-280.297 1307.69,-269.843 1300.79,-271.054"/>
</g>
<!-- Node23 -->
<g id="node23" class="node"><title>Node23</title>
<g id="a_node23"><a xlink:href="mocus_8cc.xhtml" target="_top" xlink:title="Implementation of the MOCUS algorithm. ">
<polygon fill="white" stroke="black" points="1315.5,-224.5 1315.5,-243.5 1377.5,-243.5 1377.5,-224.5 1315.5,-224.5"/>
<text text-anchor="middle" x="1346.5" y="-231.5" font-family="Helvetica,sans-Serif" font-size="10.00">mocus.cc</text>
</a>
</g>
</g>
<!-- Node22&#45;&gt;Node23 -->
<g id="edge37" class="edge"><title>Node22&#45;&gt;Node23</title>
<path fill="none" stroke="midnightblue" d="M1319.88,-271.855C1326.64,-262.505 1334.71,-251.327 1340.18,-243.751"/>
<polygon fill="midnightblue" stroke="midnightblue" points="1316.96,-269.927 1313.94,-280.083 1322.63,-274.025 1316.96,-269.927"/>
</g>
<!-- Node25&#45;&gt;Node9 -->
<g id="edge47" class="edge"><title>Node25&#45;&gt;Node9</title>
<path fill="none" stroke="midnightblue" d="M178.614,-384.999C170.935,-376.932 162.291,-366.619 156.5,-356 142.09,-329.576 137.5,-321.098 137.5,-291 137.5,-291 137.5,-291 137.5,-121 137.5,-69.3778 198.736,-34.7008 232.224,-19.5966"/>
<polygon fill="midnightblue" stroke="midnightblue" points="176.295,-387.63 185.831,-392.247 181.255,-382.691 176.295,-387.63"/>
</g>
<!-- Node26 -->
<g id="node26" class="node"><title>Node26</title>
<g id="a_node26"><a xlink:href="config_8cc.xhtml" target="_top" xlink:title="Implementation of configuration facilities. ">
<polygon fill="white" stroke="black" points="166,-336.5 166,-355.5 225,-355.5 225,-336.5 166,-336.5"/>
<text text-anchor="middle" x="195.5" y="-343.5" font-family="Helvetica,sans-Serif" font-size="10.00">config.cc</text>
</a>
</g>
</g>
<!-- Node25&#45;&gt;Node26 -->
<g id="edge46" class="edge"><title>Node25&#45;&gt;Node26</title>
<path fill="none" stroke="midnightblue" d="M195.5,-381.805C195.5,-372.91 195.5,-362.78 195.5,-355.751"/>
<polygon fill="midnightblue" stroke="midnightblue" points="192,-382.083 195.5,-392.083 199,-382.083 192,-382.083"/>
</g>
<!-- Node27&#45;&gt;Node9 -->
<g id="edge53" class="edge"><title>Node27&#45;&gt;Node9</title>
<path fill="none" stroke="midnightblue" d="M99.5,-382.251C99.5,-360.357 99.5,-323.052 99.5,-291 99.5,-291 99.5,-291 99.5,-121 99.5,-60.7091 178.625,-30.3331 223.442,-17.9635"/>
<polygon fill="midnightblue" stroke="midnightblue" points="96.0001,-382.442 99.5,-392.442 103,-382.442 96.0001,-382.442"/>
</g>
<!-- Node28 -->
<g id="node28" class="node"><title>Node28</title>
<g id="a_node28"><a xlink:href="initializer_8cc.xhtml" target="_top" xlink:title="Implementation of input file processing into analysis constructs. ">
<polygon fill="white" stroke="black" points="0,-336.5 0,-355.5 71,-355.5 71,-336.5 0,-336.5"/>
<text text-anchor="middle" x="35.5" y="-343.5" font-family="Helvetica,sans-Serif" font-size="10.00">initializer.cc</text>
</a>
</g>
</g>
<!-- Node27&#45;&gt;Node28 -->
<g id="edge52" class="edge"><title>Node27&#45;&gt;Node28</title>
<path fill="none" stroke="midnightblue" d="M81.5085,-385.82C70.0424,-376.145 55.5867,-363.948 45.9698,-355.834"/>
<polygon fill="midnightblue" stroke="midnightblue" points="79.3173,-388.55 89.2173,-392.324 83.8314,-383.2 79.3173,-388.55"/>
</g>
</g>
</svg>
        <g id="navigator" transform="translate(0 0)" fill="#404254">
                <rect fill="#f2f5e9" fill-opacity="0.5" stroke="#606060" stroke-width=".5" x="0" y="0" width="60" height="60"/>
                <use id="zoomplus" xlink:href="#zoomPlus" x="17" y="9" onmousedown="handleZoom(evt,'in')"/>
                <use id="zoomminus" xlink:href="#zoomMin" x="42" y="9" onmousedown="handleZoom(evt,'out')"/>
                <use id="reset" xlink:href="#resetDef" x="30" y="36" onmousedown="handleReset()"/>
                <g id="arrowUp" xlink:href="#dirArrow" transform="translate(30 24)" onmousedown="handlePan(0,-1)">
                  <use xlink:href="#rim" fill="#404040">
                        <set attributeName="fill" to="#808080" begin="arrowUp.mouseover" end="arrowUp.mouseout"/>
                  </use>
                  <path fill="none" stroke="white" stroke-width="1.5" d="M0,-3.0v7 M-2.5,-0.5L0,-3.0L2.5,-0.5"/>
                </g>
                <g id="arrowRight" xlink:href="#dirArrow" transform="rotate(90) translate(36 -43)" onmousedown="handlePan(1,0)">
                  <use xlink:href="#rim" fill="#404040">
                        <set attributeName="fill" to="#808080" begin="arrowRight.mouseover" end="arrowRight.mouseout"/>
                  </use>
                  <path fill="none" stroke="white" stroke-width="1.5" d="M0,-3.0v7 M-2.5,-0.5L0,-3.0L2.5,-0.5"/>
                </g>
                <g id="arrowDown" xlink:href="#dirArrow" transform="rotate(180) translate(-30 -48)" onmousedown="handlePan(0,1)">
                  <use xlink:href="#rim" fill="#404040">
                        <set attributeName="fill" to="#808080" begin="arrowDown.mouseover" end="arrowDown.mouseout"/>
                  </use>
                  <path fill="none" stroke="white" stroke-width="1.5" d="M0,-3.0v7 M-2.5,-0.5L0,-3.0L2.5,-0.5"/>
                </g>
                <g id="arrowLeft" xlink:href="#dirArrow" transform="rotate(270) translate(-36 17)" onmousedown="handlePan(-1,0)">
                  <use xlink:href="#rim" fill="#404040">
                        <set attributeName="fill" to="#808080" begin="arrowLeft.mouseover" end="arrowLeft.mouseout"/>
                  </use>
                  <path fill="none" stroke="white" stroke-width="1.5" d="M0,-3.0v7 M-2.5,-0.5L0,-3.0L2.5,-0.5"/>
                </g>
        </g>
        <svg viewBox="0 0 15 15" width="100%" height="30px" preserveAspectRatio="xMaxYMin meet">
         <g id="arrow_out" transform="scale(0.3 0.3)">
          <a xlink:href="settings_8h__dep__incl_org.svg" target="_base">
           <rect id="button" ry="5" rx="5" y="6" x="6" height="38" width="38"
                fill="#f2f5e9" fill-opacity="0.5" stroke="#606060" stroke-width="1.0"/>
           <path id="arrow"
             d="M 11.500037,31.436501 C 11.940474,20.09759 22.043105,11.32322 32.158766,21.979434 L 37.068811,17.246167 C 37.068811,17.246167 37.088388,32 37.088388,32 L 22.160133,31.978069 C 22.160133,31.978069 26.997745,27.140456 26.997745,27.140456 C 18.528582,18.264221 13.291696,25.230495 11.500037,31.436501 z"
             style="fill:#404040;"/>
          </a>
         </g>
        </svg>
</svg>
