<?xml version="1.0" encoding="UTF-8" standalone="no"?>
<!DOCTYPE svg PUBLIC "-//W3C//DTD SVG 1.1//EN"
 "http://www.w3.org/Graphics/SVG/1.1/DTD/svg11.dtd">
<!-- Generated by graphviz version 2.38.0 (20140413.2041)
 -->
<!-- Title: source_info.h Pages: 1 -->
<!--zoomable 364 -->
<svg id="main" version="1.1" xmlns="http://www.w3.org/2000/svg" xmlns:xlink="http://www.w3.org/1999/xlink" xml:space="preserve" onload="init(evt)">
<style type="text/css"><![CDATA[
.edge:hover path { stroke: red; }
.edge:hover polygon { stroke: red; fill: red; }
]]></style>
<script type="text/javascript"><![CDATA[
var edges = document.getElementsByTagName('g');
if (edges && edges.length) {
  for (var i=0;i<edges.length;i++) {
    if (edges[i].id.substr(0,4)=='edge') {
      edges[i].setAttribute('class','edge');
    }
  }
}
]]></script>
        <defs>
                <circle id="rim" cx="0" cy="0" r="7"/>
                <circle id="rim2" cx="0" cy="0" r="3.5"/>
                <g id="zoomPlus">
                        <use xlink:href="#rim" fill="#404040">
                                <set attributeName="fill" to="#808080" begin="zoomplus.mouseover" end="zoomplus.mouseout"/>
                        </use>
                        <path d="M-4,0h8M0,-4v8" fill="none" stroke="white" stroke-width="1.5" pointer-events="none"/>
                </g>
                <g id="zoomMin">
                        <use xlink:href="#rim" fill="#404040">
                                <set attributeName="fill" to="#808080" begin="zoomminus.mouseover" end="zoomminus.mouseout"/>
                        </use>
                        <path d="M-4,0h8" fill="none" stroke="white" stroke-width="1.5" pointer-events="none"/>
                </g>
                <g id="dirArrow">
                        <path fill="none" stroke="white" stroke-width="1.5" d="M0,-3.0v7 M-2.5,-0.5L0,-3.0L2.5,-0.5"/>
                </g>
               <g id="resetDef">
                       <use xlink:href="#rim2" fill="#404040">
                               <set attributeName="fill" to="#808080" begin="reset.mouseover" end="reset.mouseout"/>
                       </use>
               </g>
        </defs>

<script type="text/javascript">
var viewWidth = 1688;
var viewHeight = 364;
var sectionId = 'dynsection-0';
</script>
<script xlink:href="svgpan.js"/>
<svg id="graph" class="graph">
<g id="viewport">
<title>source_info.h</title>
<polygon fill="white" stroke="none" points="-4,4 -4,-360 1684,-360 1684,4 -4,4"/>
<!-- Node1 -->
<g id="node1" class="node"><title>Node1</title>
<polygon fill="#bfbfbf" stroke="black" points="749,-336.5 749,-355.5 829,-355.5 829,-336.5 749,-336.5"/>
<text text-anchor="middle" x="789" y="-343.5" font-family="Helvetica,sans-Serif" font-size="10.00">source_info.h</text>
</g>
<!-- Node2 -->
<g id="node2" class="node"><title>Node2</title>
<g id="a_node2"><a xlink:href="error_8h.xhtml" target="_top" xlink:title="Exceptions for SCRAM. ">
<polygon fill="white" stroke="black" points="765,-280.5 765,-299.5 813,-299.5 813,-280.5 765,-280.5"/>
<text text-anchor="middle" x="789" y="-287.5" font-family="Helvetica,sans-Serif" font-size="10.00">error.h</text>
</a>
</g>
</g>
<!-- Node1&#45;&gt;Node2 -->
<g id="edge1" class="edge"><title>Node1&#45;&gt;Node2</title>
<path fill="none" stroke="midnightblue" d="M789,-325.805C789,-316.91 789,-306.78 789,-299.751"/>
<polygon fill="midnightblue" stroke="midnightblue" points="785.5,-326.083 789,-336.083 792.5,-326.083 785.5,-326.083"/>
</g>
<!-- Node3 -->
<g id="node3" class="node"><title>Node3</title>
<g id="a_node3"><a xlink:href="alignment_8cc.xhtml" target="_top" xlink:title="Implementation of alignment and phase classes. ">
<polygon fill="white" stroke="black" points="0,-224.5 0,-243.5 78,-243.5 78,-224.5 0,-224.5"/>
<text text-anchor="middle" x="39" y="-231.5" font-family="Helvetica,sans-Serif" font-size="10.00">alignment.cc</text>
</a>
</g>
</g>
<!-- Node2&#45;&gt;Node3 -->
<g id="edge2" class="edge"><title>Node2&#45;&gt;Node3</title>
<path fill="none" stroke="midnightblue" d="M754.95,-288.281C653.165,-285.817 342.43,-276.013 87,-244 84.1397,-243.642 81.1924,-243.219 78.2318,-242.757"/>
<polygon fill="midnightblue" stroke="midnightblue" points="754.881,-291.78 764.96,-288.515 755.045,-284.782 754.881,-291.78"/>
</g>
<!-- Node4 -->
<g id="node4" class="node"><title>Node4</title>
<g id="a_node4"><a xlink:href="ccf__group_8cc.xhtml" target="_top" xlink:title="Implementation of various common cause failure models. ">
<polygon fill="white" stroke="black" points="96.5,-224.5 96.5,-243.5 173.5,-243.5 173.5,-224.5 96.5,-224.5"/>
<text text-anchor="middle" x="135" y="-231.5" font-family="Helvetica,sans-Serif" font-size="10.00">ccf_group.cc</text>
</a>
</g>
</g>
<!-- Node2&#45;&gt;Node4 -->
<g id="edge3" class="edge"><title>Node2&#45;&gt;Node4</title>
<path fill="none" stroke="midnightblue" d="M754.752,-287.559C662.776,-283.445 402.797,-270.221 188,-244 183.368,-243.435 178.523,-242.747 173.726,-242.006"/>
<polygon fill="midnightblue" stroke="midnightblue" points="754.73,-291.061 764.874,-288.005 755.038,-284.068 754.73,-291.061"/>
</g>
<!-- Node5 -->
<g id="node5" class="node"><title>Node5</title>
<g id="a_node5"><a xlink:href="xml_8h.xhtml" target="_top" xlink:title="XML helper facilities to work with libxml2. ">
<polygon fill="white" stroke="black" points="300.5,-224.5 300.5,-243.5 343.5,-243.5 343.5,-224.5 300.5,-224.5"/>
<text text-anchor="middle" x="322" y="-231.5" font-family="Helvetica,sans-Serif" font-size="10.00">xml.h</text>
</a>
</g>
</g>
<!-- Node2&#45;&gt;Node5 -->
<g id="edge4" class="edge"><title>Node2&#45;&gt;Node5</title>
<path fill="none" stroke="midnightblue" d="M754.464,-287.052C681.039,-282.547 504.178,-269.771 358,-244 353.305,-243.172 348.316,-242.071 343.596,-240.924"/>
<polygon fill="midnightblue" stroke="midnightblue" points="754.338,-290.551 764.53,-287.657 754.758,-283.563 754.338,-290.551"/>
</g>
<!-- Node7 -->
<g id="node7" class="node"><title>Node7</title>
<g id="a_node7"><a xlink:href="config_8cc.xhtml" target="_top" xlink:title="Implementation of configuration facilities. ">
<polygon fill="white" stroke="black" points="248.5,-112.5 248.5,-131.5 307.5,-131.5 307.5,-112.5 248.5,-112.5"/>
<text text-anchor="middle" x="278" y="-119.5" font-family="Helvetica,sans-Serif" font-size="10.00">config.cc</text>
</a>
</g>
</g>
<!-- Node2&#45;&gt;Node7 -->
<g id="edge12" class="edge"><title>Node2&#45;&gt;Node7</title>
<path fill="none" stroke="midnightblue" d="M754.85,-287.702C648.969,-283.433 330.971,-268.666 292,-244 260.884,-224.305 251.693,-204.092 259,-168 261.692,-154.701 268.441,-140.448 273.124,-131.628"/>
<polygon fill="midnightblue" stroke="midnightblue" points="754.857,-291.205 764.988,-288.105 755.135,-284.211 754.857,-291.205"/>
</g>
<!-- Node8 -->
<g id="node8" class="node"><title>Node8</title>
<g id="a_node8"><a xlink:href="scram_8cc.xhtml" target="_top" xlink:title="Main entrance. ">
<polygon fill="white" stroke="black" points="484,-0.5 484,-19.5 544,-19.5 544,-0.5 484,-0.5"/>
<text text-anchor="middle" x="514" y="-7.5" font-family="Helvetica,sans-Serif" font-size="10.00">scram.cc</text>
</a>
</g>
</g>
<!-- Node2&#45;&gt;Node8 -->
<g id="edge47" class="edge"><title>Node2&#45;&gt;Node8</title>
<path fill="none" stroke="midnightblue" d="M754.853,-289.186C652.71,-289.262 351.23,-285.843 264,-244 228.004,-226.733 202,-218.923 202,-179 202,-179 202,-179 202,-121 202,-61.627 405.501,-26.4083 483.801,-15.0548"/>
<polygon fill="midnightblue" stroke="midnightblue" points="754.936,-292.686 764.929,-289.167 754.923,-285.686 754.936,-292.686"/>
</g>
<!-- Node10 -->
<g id="node10" class="node"><title>Node10</title>
<g id="a_node10"><a xlink:href="initializer_8cc.xhtml" target="_top" xlink:title="Implementation of input file processing into analysis constructs. ">
<polygon fill="white" stroke="black" points="477.5,-56.5 477.5,-75.5 548.5,-75.5 548.5,-56.5 477.5,-56.5"/>
<text text-anchor="middle" x="513" y="-63.5" font-family="Helvetica,sans-Serif" font-size="10.00">initializer.cc</text>
</a>
</g>
</g>
<!-- Node2&#45;&gt;Node10 -->
<g id="edge40" class="edge"><title>Node2&#45;&gt;Node10</title>
<path fill="none" stroke="midnightblue" d="M754.915,-287.265C669.281,-282.559 450.408,-268.251 429,-244 394.879,-205.348 469.265,-237.286 503,-188 527.288,-152.516 519.217,-96.7485 514.936,-75.5569"/>
<polygon fill="midnightblue" stroke="midnightblue" points="754.737,-290.76 764.911,-287.804 755.113,-283.77 754.737,-290.76"/>
</g>
<!-- Node12 -->
<g id="node12" class="node"><title>Node12</title>
<g id="a_node12"><a xlink:href="cycle_8h.xhtml" target="_top" xlink:title="Validation facilities to detect and print cycles in graphs. ">
<polygon fill="white" stroke="black" points="444,-168.5 444,-187.5 494,-187.5 494,-168.5 444,-168.5"/>
<text text-anchor="middle" x="469" y="-175.5" font-family="Helvetica,sans-Serif" font-size="10.00">cycle.h</text>
</a>
</g>
</g>
<!-- Node2&#45;&gt;Node12 -->
<g id="edge13" class="edge"><title>Node2&#45;&gt;Node12</title>
<path fill="none" stroke="midnightblue" d="M754.625,-287.631C663.259,-283.642 419.718,-270.589 396,-244 376.119,-221.712 418.078,-199.348 446.244,-187.546"/>
<polygon fill="midnightblue" stroke="midnightblue" points="754.598,-291.133 764.738,-288.063 754.897,-284.139 754.598,-291.133"/>
</g>
<!-- Node13 -->
<g id="node13" class="node"><title>Node13</title>
<g id="a_node13"><a xlink:href="element_8cc.xhtml" target="_top" xlink:title="Implementation of helper features for all elements of the analysis. ">
<polygon fill="white" stroke="black" points="438,-224.5 438,-243.5 508,-243.5 508,-224.5 438,-224.5"/>
<text text-anchor="middle" x="473" y="-231.5" font-family="Helvetica,sans-Serif" font-size="10.00">element.cc</text>
</a>
</g>
</g>
<!-- Node2&#45;&gt;Node13 -->
<g id="edge15" class="edge"><title>Node2&#45;&gt;Node13</title>
<path fill="none" stroke="midnightblue" d="M754.738,-283.68C703.257,-275.604 602.928,-259.54 518,-244 514.865,-243.426 511.611,-242.812 508.352,-242.184"/>
<polygon fill="midnightblue" stroke="midnightblue" points="754.24,-287.145 764.661,-285.233 755.322,-280.229 754.24,-287.145"/>
</g>
<!-- Node14 -->
<g id="node14" class="node"><title>Node14</title>
<g id="a_node14"><a xlink:href="event_8cc.xhtml" target="_top" xlink:title="Implementation of Event Class and its derived classes. ">
<polygon fill="white" stroke="black" points="526.5,-224.5 526.5,-243.5 583.5,-243.5 583.5,-224.5 526.5,-224.5"/>
<text text-anchor="middle" x="555" y="-231.5" font-family="Helvetica,sans-Serif" font-size="10.00">event.cc</text>
</a>
</g>
</g>
<!-- Node2&#45;&gt;Node14 -->
<g id="edge16" class="edge"><title>Node2&#45;&gt;Node14</title>
<path fill="none" stroke="midnightblue" d="M755.041,-281.278C715.945,-272.37 649.805,-257.248 593,-244 589.963,-243.292 586.79,-242.547 583.629,-241.803"/>
<polygon fill="midnightblue" stroke="midnightblue" points="754.321,-284.703 764.848,-283.511 755.875,-277.878 754.321,-284.703"/>
</g>
<!-- Node15 -->
<g id="node15" class="node"><title>Node15</title>
<g id="a_node15"><a xlink:href="event__tree_8cc.xhtml" target="_top" xlink:title="Implementation of event tree facilities. ">
<polygon fill="white" stroke="black" points="602,-224.5 602,-243.5 684,-243.5 684,-224.5 602,-224.5"/>
<text text-anchor="middle" x="643" y="-231.5" font-family="Helvetica,sans-Serif" font-size="10.00">event_tree.cc</text>
</a>
</g>
</g>
<!-- Node2&#45;&gt;Node15 -->
<g id="edge17" class="edge"><title>Node2&#45;&gt;Node15</title>
<path fill="none" stroke="midnightblue" d="M756.301,-276.906C728.852,-266.754 690.332,-252.506 666.026,-243.516"/>
<polygon fill="midnightblue" stroke="midnightblue" points="755.273,-280.257 765.866,-280.444 757.701,-273.692 755.273,-280.257"/>
</g>
<!-- Node16 -->
<g id="node16" class="node"><title>Node16</title>
<g id="a_node16"><a xlink:href="exponential_8cc.xhtml" target="_top" xlink:title="Implementation of various exponential expressions. ">
<polygon fill="white" stroke="black" points="702,-224.5 702,-243.5 788,-243.5 788,-224.5 702,-224.5"/>
<text text-anchor="middle" x="745" y="-231.5" font-family="Helvetica,sans-Serif" font-size="10.00">exponential.cc</text>
</a>
</g>
</g>
<!-- Node2&#45;&gt;Node16 -->
<g id="edge18" class="edge"><title>Node2&#45;&gt;Node16</title>
<path fill="none" stroke="midnightblue" d="M775.265,-272.144C767.599,-262.736 758.367,-251.405 752.131,-243.751"/>
<polygon fill="midnightblue" stroke="midnightblue" points="772.704,-274.541 781.734,-280.083 778.131,-270.12 772.704,-274.541"/>
</g>
<!-- Node17 -->
<g id="node17" class="node"><title>Node17</title>
<g id="a_node17"><a xlink:href="extern_8h.xhtml" target="_top" xlink:title="The MEF facilities to call external functions in expressions. ">
<polygon fill="white" stroke="black" points="806,-224.5 806,-243.5 862,-243.5 862,-224.5 806,-224.5"/>
<text text-anchor="middle" x="834" y="-231.5" font-family="Helvetica,sans-Serif" font-size="10.00">extern.h</text>
</a>
</g>
</g>
<!-- Node2&#45;&gt;Node17 -->
<g id="edge19" class="edge"><title>Node2&#45;&gt;Node17</title>
<path fill="none" stroke="midnightblue" d="M803.047,-272.144C810.887,-262.736 820.329,-251.405 826.707,-243.751"/>
<polygon fill="midnightblue" stroke="midnightblue" points="800.144,-270.16 796.431,-280.083 805.521,-274.641 800.144,-270.16"/>
</g>
<!-- Node20 -->
<g id="node20" class="node"><title>Node20</title>
<g id="a_node20"><a xlink:href="model_8cc.xhtml" target="_top" xlink:title="Implementation of functions in Model class. ">
<polygon fill="white" stroke="black" points="904,-112.5 904,-131.5 964,-131.5 964,-112.5 904,-112.5"/>
<text text-anchor="middle" x="934" y="-119.5" font-family="Helvetica,sans-Serif" font-size="10.00">model.cc</text>
</a>
</g>
</g>
<!-- Node2&#45;&gt;Node20 -->
<g id="edge41" class="edge"><title>Node2&#45;&gt;Node20</title>
<path fill="none" stroke="midnightblue" d="M821.811,-276.413C838.122,-268.904 857.235,-258.07 871,-244 888.391,-226.225 919.643,-156.19 930.313,-131.595"/>
<polygon fill="midnightblue" stroke="midnightblue" points="820.349,-273.232 812.593,-280.449 823.157,-279.644 820.349,-273.232"/>
</g>
<!-- Node23 -->
<g id="node23" class="node"><title>Node23</title>
<g id="a_node23"><a xlink:href="reporter_8cc.xhtml" target="_top" xlink:title="Implements Reporter class. ">
<polygon fill="white" stroke="black" points="1094,-0.5 1094,-19.5 1162,-19.5 1162,-0.5 1094,-0.5"/>
<text text-anchor="middle" x="1128" y="-7.5" font-family="Helvetica,sans-Serif" font-size="10.00">reporter.cc</text>
</a>
</g>
</g>
<!-- Node2&#45;&gt;Node23 -->
<g id="edge46" class="edge"><title>Node2&#45;&gt;Node23</title>
<path fill="none" stroke="midnightblue" d="M823.331,-288.966C953.392,-288.533 1411.01,-284.148 1461,-244 1484.47,-225.154 1480,-209.098 1480,-179 1480,-179 1480,-179 1480,-121 1480,-54.8136 1250.41,-23.7867 1162.07,-14.2983"/>
<polygon fill="midnightblue" stroke="midnightblue" points="823.145,-285.466 813.155,-288.994 823.164,-292.466 823.145,-285.466"/>
</g>
<!-- Node28 -->
<g id="node28" class="node"><title>Node28</title>
<g id="a_node28"><a xlink:href="numerical_8cc.xhtml" target="_top" xlink:title="Implementation of various numerical expressions. ">
<polygon fill="white" stroke="black" points="956.5,-224.5 956.5,-243.5 1033.5,-243.5 1033.5,-224.5 956.5,-224.5"/>
<text text-anchor="middle" x="995" y="-231.5" font-family="Helvetica,sans-Serif" font-size="10.00">numerical.cc</text>
</a>
</g>
</g>
<!-- Node2&#45;&gt;Node28 -->
<g id="edge36" class="edge"><title>Node2&#45;&gt;Node28</title>
<path fill="none" stroke="midnightblue" d="M822.772,-280.147C861.386,-270.025 924.168,-253.568 962.32,-243.567"/>
<polygon fill="midnightblue" stroke="midnightblue" points="821.82,-276.778 813.034,-282.7 823.595,-283.55 821.82,-276.778"/>
</g>
<!-- Node29 -->
<g id="node29" class="node"><title>Node29</title>
<g id="a_node29"><a xlink:href="random__deviate_8cc.xhtml" target="_top" xlink:title="Implementations of random deviate expressions. ">
<polygon fill="white" stroke="black" points="1052,-224.5 1052,-243.5 1160,-243.5 1160,-224.5 1052,-224.5"/>
<text text-anchor="middle" x="1106" y="-231.5" font-family="Helvetica,sans-Serif" font-size="10.00">random_deviate.cc</text>
</a>
</g>
</g>
<!-- Node2&#45;&gt;Node29 -->
<g id="edge37" class="edge"><title>Node2&#45;&gt;Node29</title>
<path fill="none" stroke="midnightblue" d="M823.204,-283.174C879.255,-273.625 990.914,-254.604 1055.9,-243.534"/>
<polygon fill="midnightblue" stroke="midnightblue" points="822.357,-279.767 813.087,-284.897 823.532,-286.668 822.357,-279.767"/>
</g>
<!-- Node30 -->
<g id="node30" class="node"><title>Node30</title>
<g id="a_node30"><a xlink:href="expression_8cc.xhtml" target="_top" xlink:title="Implementation of the expression base class. ">
<polygon fill="white" stroke="black" points="1178,-224.5 1178,-243.5 1260,-243.5 1260,-224.5 1178,-224.5"/>
<text text-anchor="middle" x="1219" y="-231.5" font-family="Helvetica,sans-Serif" font-size="10.00">expression.cc</text>
</a>
</g>
</g>
<!-- Node2&#45;&gt;Node30 -->
<g id="edge38" class="edge"><title>Node2&#45;&gt;Node30</title>
<path fill="none" stroke="midnightblue" d="M823.422,-285.625C890.221,-278.922 1042.03,-262.928 1169,-244 1171.88,-243.571 1174.85,-243.103 1177.83,-242.613"/>
<polygon fill="midnightblue" stroke="midnightblue" points="822.678,-282.182 813.075,-286.658 823.373,-289.148 822.678,-282.182"/>
</g>
<!-- Node31 -->
<g id="node31" class="node"><title>Node31</title>
<g id="a_node31"><a xlink:href="fault__tree_8cc.xhtml" target="_top" xlink:title="Implementation of fault tree and component containers. ">
<polygon fill="white" stroke="black" points="1278,-224.5 1278,-243.5 1354,-243.5 1354,-224.5 1278,-224.5"/>
<text text-anchor="middle" x="1316" y="-231.5" font-family="Helvetica,sans-Serif" font-size="10.00">fault_tree.cc</text>
</a>
</g>
</g>
<!-- Node2&#45;&gt;Node31 -->
<g id="edge39" class="edge"><title>Node2&#45;&gt;Node31</title>
<path fill="none" stroke="midnightblue" d="M823.394,-286.91C902.393,-281.863 1102.8,-267.648 1269,-244 1271.88,-243.59 1274.85,-243.125 1277.83,-242.626"/>
<polygon fill="midnightblue" stroke="midnightblue" points="822.829,-283.439 813.069,-287.562 823.27,-290.425 822.829,-283.439"/>
</g>
<!-- Node32 -->
<g id="node32" class="node"><title>Node32</title>
<g id="a_node32"><a xlink:href="parameter_8cc.xhtml" target="_top" xlink:title="Implementation of expression parameters. ">
<polygon fill="white" stroke="black" points="1372,-224.5 1372,-243.5 1452,-243.5 1452,-224.5 1372,-224.5"/>
<text text-anchor="middle" x="1412" y="-231.5" font-family="Helvetica,sans-Serif" font-size="10.00">parameter.cc</text>
</a>
</g>
</g>
<!-- Node2&#45;&gt;Node32 -->
<g id="edge42" class="edge"><title>Node2&#45;&gt;Node32</title>
<path fill="none" stroke="midnightblue" d="M823.236,-287.553C912.428,-283.516 1159.18,-270.635 1363,-244 1365.92,-243.619 1368.92,-243.18 1371.94,-242.706"/>
<polygon fill="midnightblue" stroke="midnightblue" points="822.987,-284.061 813.153,-288.002 823.299,-291.054 822.987,-284.061"/>
</g>
<!-- Node33 -->
<g id="node33" class="node"><title>Node33</title>
<g id="a_node33"><a xlink:href="xml__stream_8h.xhtml" target="_top" xlink:title="Facilities to stream data in XML format. ">
<polygon fill="white" stroke="black" points="982.5,-112.5 982.5,-131.5 1065.5,-131.5 1065.5,-112.5 982.5,-112.5"/>
<text text-anchor="middle" x="1024" y="-119.5" font-family="Helvetica,sans-Serif" font-size="10.00">xml_stream.h</text>
</a>
</g>
</g>
<!-- Node2&#45;&gt;Node33 -->
<g id="edge43" class="edge"><title>Node2&#45;&gt;Node33</title>
<path fill="none" stroke="midnightblue" d="M822.779,-277.269C843.342,-269.372 869.669,-257.879 891,-244 944.377,-209.27 997.141,-153.055 1016.37,-131.65"/>
<polygon fill="midnightblue" stroke="midnightblue" points="821.336,-274.072 813.194,-280.851 823.787,-280.629 821.336,-274.072"/>
</g>
<!-- Node34 -->
<g id="node34" class="node"><title>Node34</title>
<g id="a_node34"><a xlink:href="settings_8cc.xhtml" target="_top" xlink:title="Implementation of Settings Builder. ">
<polygon fill="white" stroke="black" points="1508,-224.5 1508,-243.5 1576,-243.5 1576,-224.5 1508,-224.5"/>
<text text-anchor="middle" x="1542" y="-231.5" font-family="Helvetica,sans-Serif" font-size="10.00">settings.cc</text>
</a>
</g>
</g>
<!-- Node2&#45;&gt;Node34 -->
<g id="edge48" class="edge"><title>Node2&#45;&gt;Node34</title>
<path fill="none" stroke="midnightblue" d="M823.195,-288.29C925.416,-285.852 1237.48,-276.115 1494,-244 1498.54,-243.431 1503.31,-242.702 1507.99,-241.905"/>
<polygon fill="midnightblue" stroke="midnightblue" points="823.059,-284.792 813.143,-288.522 823.221,-291.79 823.059,-284.792"/>
</g>
<!-- Node35 -->
<g id="node35" class="node"><title>Node35</title>
<g id="a_node35"><a xlink:href="substitution_8cc.xhtml" target="_top" xlink:title="Implementation of Substitution members. ">
<polygon fill="white" stroke="black" points="1594,-224.5 1594,-243.5 1680,-243.5 1680,-224.5 1594,-224.5"/>
<text text-anchor="middle" x="1637" y="-231.5" font-family="Helvetica,sans-Serif" font-size="10.00">substitution.cc</text>
</a>
</g>
</g>
<!-- Node2&#45;&gt;Node35 -->
<g id="edge49" class="edge"><title>Node2&#45;&gt;Node35</title>
<path fill="none" stroke="midnightblue" d="M823.421,-288.466C934.228,-286.444 1291.55,-277.577 1585,-244 1587.91,-243.667 1590.91,-243.276 1593.92,-242.848"/>
<polygon fill="midnightblue" stroke="midnightblue" points="823.12,-284.97 813.183,-288.646 823.243,-291.969 823.12,-284.97"/>
</g>
<!-- Node6 -->
<g id="node6" class="node"><title>Node6</title>
<g id="a_node6"><a xlink:href="config_8h.xhtml" target="_top" xlink:title="Configuration management facilities to make various setups for analysis possible. ...">
<polygon fill="white" stroke="black" points="268,-168.5 268,-187.5 322,-187.5 322,-168.5 268,-168.5"/>
<text text-anchor="middle" x="295" y="-175.5" font-family="Helvetica,sans-Serif" font-size="10.00">config.h</text>
</a>
</g>
</g>
<!-- Node5&#45;&gt;Node6 -->
<g id="edge5" class="edge"><title>Node5&#45;&gt;Node6</title>
<path fill="none" stroke="midnightblue" d="M312.991,-214.983C308.408,-205.817 303.046,-195.092 299.376,-187.751"/>
<polygon fill="midnightblue" stroke="midnightblue" points="309.939,-216.704 317.541,-224.083 316.2,-213.573 309.939,-216.704"/>
</g>
<!-- Node9 -->
<g id="node9" class="node"><title>Node9</title>
<g id="a_node9"><a xlink:href="initializer_8h.xhtml" target="_top" xlink:title="A facility that processes input files into analysis constructs. ">
<polygon fill="white" stroke="black" points="388.5,-112.5 388.5,-131.5 455.5,-131.5 455.5,-112.5 388.5,-112.5"/>
<text text-anchor="middle" x="422" y="-119.5" font-family="Helvetica,sans-Serif" font-size="10.00">initializer.h</text>
</a>
</g>
</g>
<!-- Node5&#45;&gt;Node9 -->
<g id="edge8" class="edge"><title>Node5&#45;&gt;Node9</title>
<path fill="none" stroke="midnightblue" d="M333.218,-215.706C342.385,-202.124 356.064,-183.057 370,-168 382.813,-154.156 399.618,-140.259 410.606,-131.648"/>
<polygon fill="midnightblue" stroke="midnightblue" points="330.252,-213.846 327.645,-224.115 336.086,-217.713 330.252,-213.846"/>
</g>
<!-- Node11 -->
<g id="node11" class="node"><title>Node11</title>
<g id="a_node11"><a xlink:href="xml_8cc.xhtml" target="_top" xlink:title="XML facility expensive wrappers implemented out&#45;of&#45;line. ">
<polygon fill="white" stroke="black" points="378.5,-168.5 378.5,-187.5 425.5,-187.5 425.5,-168.5 378.5,-168.5"/>
<text text-anchor="middle" x="402" y="-175.5" font-family="Helvetica,sans-Serif" font-size="10.00">xml.cc</text>
</a>
</g>
</g>
<!-- Node5&#45;&gt;Node11 -->
<g id="edge11" class="edge"><title>Node5&#45;&gt;Node11</title>
<path fill="none" stroke="midnightblue" d="M343.301,-218.622C357.915,-208.757 376.827,-195.992 389.179,-187.655"/>
<polygon fill="midnightblue" stroke="midnightblue" points="341.184,-215.828 334.853,-224.324 345.1,-221.63 341.184,-215.828"/>
</g>
<!-- Node6&#45;&gt;Node7 -->
<g id="edge6" class="edge"><title>Node6&#45;&gt;Node7</title>
<path fill="none" stroke="midnightblue" d="M289.143,-158.396C286.299,-149.362 283.017,-138.936 280.755,-131.751"/>
<polygon fill="midnightblue" stroke="midnightblue" points="285.851,-159.596 292.193,-168.083 292.528,-157.493 285.851,-159.596"/>
</g>
<!-- Node6&#45;&gt;Node8 -->
<g id="edge7" class="edge"><title>Node6&#45;&gt;Node8</title>
<path fill="none" stroke="midnightblue" d="M313.609,-161.785C342.28,-138.479 399.165,-92.7768 449,-56 466.67,-42.9603 487.643,-28.6421 500.888,-19.7372"/>
<polygon fill="midnightblue" stroke="midnightblue" points="311.198,-159.234 305.656,-168.264 315.619,-164.661 311.198,-159.234"/>
</g>
<!-- Node9&#45;&gt;Node8 -->
<g id="edge10" class="edge"><title>Node9&#45;&gt;Node8</title>
<path fill="none" stroke="midnightblue" d="M433.489,-103.562C442.593,-90.1405 455.918,-71.3527 469,-56 480.465,-42.5448 495.177,-28.3304 504.599,-19.5619"/>
<polygon fill="midnightblue" stroke="midnightblue" points="430.321,-102.002 427.669,-112.26 436.139,-105.895 430.321,-102.002"/>
</g>
<!-- Node9&#45;&gt;Node10 -->
<g id="edge9" class="edge"><title>Node9&#45;&gt;Node10</title>
<path fill="none" stroke="midnightblue" d="M445.294,-107.177C462.039,-97.2407 484.1,-84.1492 498.416,-75.6545"/>
<polygon fill="midnightblue" stroke="midnightblue" points="443.434,-104.211 436.621,-112.324 447.007,-110.231 443.434,-104.211"/>
</g>
<!-- Node12&#45;&gt;Node10 -->
<g id="edge14" class="edge"><title>Node12&#45;&gt;Node10</title>
<path fill="none" stroke="midnightblue" d="M476.201,-158.998C485.801,-134.997 502.413,-93.4683 509.563,-75.5914"/>
<polygon fill="midnightblue" stroke="midnightblue" points="472.917,-157.784 472.453,-168.368 479.416,-160.384 472.917,-157.784"/>
</g>
<!-- Node17&#45;&gt;Node10 -->
<g id="edge35" class="edge"><title>Node17&#45;&gt;Node10</title>
<path fill="none" stroke="midnightblue" d="M796.064,-223.156C744.183,-208.58 649.504,-177.935 579,-132 554.207,-115.847 530.958,-89.3346 519.842,-75.6994"/>
<polygon fill="midnightblue" stroke="midnightblue" points="795.278,-226.57 805.849,-225.857 797.141,-219.822 795.278,-226.57"/>
</g>
<!-- Node18 -->
<g id="node18" class="node"><title>Node18</title>
<g id="a_node18"><a xlink:href="extern_8cc.xhtml" target="_top" xlink:title="Implementation of foreign function calls with MEF expressions. ">
<polygon fill="white" stroke="black" points="550.5,-168.5 550.5,-187.5 611.5,-187.5 611.5,-168.5 550.5,-168.5"/>
<text text-anchor="middle" x="581" y="-175.5" font-family="Helvetica,sans-Serif" font-size="10.00">extern.cc</text>
</a>
</g>
</g>
<!-- Node17&#45;&gt;Node18 -->
<g id="edge20" class="edge"><title>Node17&#45;&gt;Node18</title>
<path fill="none" stroke="midnightblue" d="M795.717,-223.78C748.207,-213.265 658.811,-194.898 611.595,-185.243"/>
<polygon fill="midnightblue" stroke="midnightblue" points="795.218,-227.255 805.741,-226.024 796.747,-220.424 795.218,-227.255"/>
</g>
<!-- Node19 -->
<g id="node19" class="node"><title>Node19</title>
<g id="a_node19"><a xlink:href="model_8h.xhtml" target="_top" xlink:title="Representation for a model container for risk analysis. ">
<polygon fill="white" stroke="black" points="746,-168.5 746,-187.5 802,-187.5 802,-168.5 746,-168.5"/>
<text text-anchor="middle" x="774" y="-175.5" font-family="Helvetica,sans-Serif" font-size="10.00">model.h</text>
</a>
</g>
</g>
<!-- Node17&#45;&gt;Node19 -->
<g id="edge21" class="edge"><title>Node17&#45;&gt;Node19</title>
<path fill="none" stroke="midnightblue" d="M816.819,-217.537C806.121,-207.909 792.744,-195.869 783.815,-187.834"/>
<polygon fill="midnightblue" stroke="midnightblue" points="814.586,-220.236 824.36,-224.324 819.268,-215.033 814.586,-220.236"/>
</g>
<!-- Node19&#45;&gt;Node9 -->
<g id="edge22" class="edge"><title>Node19&#45;&gt;Node9</title>
<path fill="none" stroke="midnightblue" d="M735.744,-171.131C666.492,-160.507 521.443,-138.256 455.688,-128.168"/>
<polygon fill="midnightblue" stroke="midnightblue" points="735.374,-174.615 745.789,-172.672 736.436,-167.696 735.374,-174.615"/>
</g>
<!-- Node19&#45;&gt;Node20 -->
<g id="edge23" class="edge"><title>Node19&#45;&gt;Node20</title>
<path fill="none" stroke="midnightblue" d="M809.046,-165.172C839.174,-155.004 881.896,-140.585 908.766,-131.516"/>
<polygon fill="midnightblue" stroke="midnightblue" points="807.708,-161.929 799.352,-168.444 809.947,-168.562 807.708,-161.929"/>
</g>
<!-- Node21 -->
<g id="node21" class="node"><title>Node21</title>
<g id="a_node21"><a xlink:href="pdag_8cc.xhtml" target="_top" xlink:title="Implementation of a Propositional Directed Acyclic Graph with indexed nodes, variables, and gates. ">
<polygon fill="white" stroke="black" points="588,-112.5 588,-131.5 642,-131.5 642,-112.5 588,-112.5"/>
<text text-anchor="middle" x="615" y="-119.5" font-family="Helvetica,sans-Serif" font-size="10.00">pdag.cc</text>
</a>
</g>
</g>
<!-- Node19&#45;&gt;Node21 -->
<g id="edge24" class="edge"><title>Node19&#45;&gt;Node21</title>
<path fill="none" stroke="midnightblue" d="M739.173,-165.172C709.234,-155.004 666.779,-140.585 640.076,-131.516"/>
<polygon fill="midnightblue" stroke="midnightblue" points="738.212,-168.542 748.806,-168.444 740.463,-161.914 738.212,-168.542"/>
</g>
<!-- Node22 -->
<g id="node22" class="node"><title>Node22</title>
<g id="a_node22"><a xlink:href="reporter_8h.xhtml" target="_top" xlink:title="Reporter of results. ">
<polygon fill="white" stroke="black" points="744,-56.5 744,-75.5 808,-75.5 808,-56.5 744,-56.5"/>
<text text-anchor="middle" x="776" y="-63.5" font-family="Helvetica,sans-Serif" font-size="10.00">reporter.h</text>
</a>
</g>
</g>
<!-- Node19&#45;&gt;Node22 -->
<g id="edge25" class="edge"><title>Node19&#45;&gt;Node22</title>
<path fill="none" stroke="midnightblue" d="M774.339,-158.348C774.777,-134.254 775.522,-93.3079 775.844,-75.5914"/>
<polygon fill="midnightblue" stroke="midnightblue" points="770.839,-158.306 774.157,-168.368 777.838,-158.434 770.839,-158.306"/>
</g>
<!-- Node24 -->
<g id="node24" class="node"><title>Node24</title>
<g id="a_node24"><a xlink:href="risk__analysis_8h.xhtml" target="_top" xlink:title="Contains the main system for performing analysis. ">
<polygon fill="white" stroke="black" points="660,-112.5 660,-131.5 746,-131.5 746,-112.5 660,-112.5"/>
<text text-anchor="middle" x="703" y="-119.5" font-family="Helvetica,sans-Serif" font-size="10.00">risk_analysis.h</text>
</a>
</g>
</g>
<!-- Node19&#45;&gt;Node24 -->
<g id="edge28" class="edge"><title>Node19&#45;&gt;Node24</title>
<path fill="none" stroke="midnightblue" d="M754.41,-162.101C741.632,-152.382 725.387,-140.027 714.615,-131.834"/>
<polygon fill="midnightblue" stroke="midnightblue" points="752.514,-165.056 762.593,-168.324 756.752,-159.484 752.514,-165.056"/>
</g>
<!-- Node26 -->
<g id="node26" class="node"><title>Node26</title>
<g id="a_node26"><a xlink:href="serialization_8h.xhtml" target="_top" xlink:title="The MEF Model serialization facilities. ">
<polygon fill="white" stroke="black" points="802.5,-112.5 802.5,-131.5 885.5,-131.5 885.5,-112.5 802.5,-112.5"/>
<text text-anchor="middle" x="844" y="-119.5" font-family="Helvetica,sans-Serif" font-size="10.00">serialization.h</text>
</a>
</g>
</g>
<!-- Node19&#45;&gt;Node26 -->
<g id="edge32" class="edge"><title>Node19&#45;&gt;Node26</title>
<path fill="none" stroke="midnightblue" d="M793.314,-162.101C805.912,-152.382 821.928,-140.027 832.549,-131.834"/>
<polygon fill="midnightblue" stroke="midnightblue" points="791.027,-159.445 785.247,-168.324 795.302,-164.987 791.027,-159.445"/>
</g>
<!-- Node22&#45;&gt;Node8 -->
<g id="edge27" class="edge"><title>Node22&#45;&gt;Node8</title>
<path fill="none" stroke="midnightblue" d="M733.845,-55.7789C659.989,-40.2035 584.776,-25.0894 544.057,-16.9695"/>
<polygon fill="midnightblue" stroke="midnightblue" points="733.273,-59.2355 743.781,-57.8791 734.721,-52.3868 733.273,-59.2355"/>
</g>
<!-- Node22&#45;&gt;Node23 -->
<g id="edge26" class="edge"><title>Node22&#45;&gt;Node23</title>
<path fill="none" stroke="midnightblue" d="M818.481,-58.483C889.129,-47.645 1029.37,-26.13 1093.97,-16.22"/>
<polygon fill="midnightblue" stroke="midnightblue" points="817.524,-55.0887 808.171,-60.0647 818.586,-62.0078 817.524,-55.0887"/>
</g>
<!-- Node24&#45;&gt;Node8 -->
<g id="edge31" class="edge"><title>Node24&#45;&gt;Node8</title>
<path fill="none" stroke="midnightblue" d="M679.463,-107.301C639.95,-84.3043 561.406,-38.5906 528.762,-19.5914"/>
<polygon fill="midnightblue" stroke="midnightblue" points="677.766,-110.363 688.169,-112.368 681.287,-104.313 677.766,-110.363"/>
</g>
<!-- Node24&#45;&gt;Node22 -->
<g id="edge29" class="edge"><title>Node24&#45;&gt;Node22</title>
<path fill="none" stroke="midnightblue" d="M723.142,-106.101C736.279,-96.3824 752.982,-84.0269 764.058,-75.8339"/>
<polygon fill="midnightblue" stroke="midnightblue" points="720.687,-103.563 714.729,-112.324 724.85,-109.191 720.687,-103.563"/>
</g>
<!-- Node25 -->
<g id="node25" class="node"><title>Node25</title>
<g id="a_node25"><a xlink:href="risk__analysis_8cc.xhtml" target="_top" xlink:title="Implementation of risk analysis handler. ">
<polygon fill="white" stroke="black" points="636,-56.5 636,-75.5 726,-75.5 726,-56.5 636,-56.5"/>
<text text-anchor="middle" x="681" y="-63.5" font-family="Helvetica,sans-Serif" font-size="10.00">risk_analysis.cc</text>
</a>
</g>
</g>
<!-- Node24&#45;&gt;Node25 -->
<g id="edge30" class="edge"><title>Node24&#45;&gt;Node25</title>
<path fill="none" stroke="midnightblue" d="M695.54,-102.69C691.833,-93.589 687.524,-83.0141 684.565,-75.7511"/>
<polygon fill="midnightblue" stroke="midnightblue" points="692.353,-104.143 699.367,-112.083 698.835,-101.502 692.353,-104.143"/>
</g>
<!-- Node26&#45;&gt;Node8 -->
<g id="edge33" class="edge"><title>Node26&#45;&gt;Node8</title>
<path fill="none" stroke="midnightblue" d="M841.267,-102.059C838.078,-87.1669 831.283,-67.137 817,-56 774.852,-23.1351 612.099,-14.1372 544.112,-11.7879"/>
<polygon fill="midnightblue" stroke="midnightblue" points="837.876,-102.978 843.068,-112.213 844.768,-101.755 837.876,-102.978"/>
</g>
<!-- Node27 -->
<g id="node27" class="node"><title>Node27</title>
<g id="a_node27"><a xlink:href="serialization_8cc.xhtml" target="_top" xlink:title="serialization.cc">
<polygon fill="white" stroke="black" points="926.5,-56.5 926.5,-75.5 1013.5,-75.5 1013.5,-56.5 926.5,-56.5"/>
<text text-anchor="middle" x="970" y="-63.5" font-family="Helvetica,sans-Serif" font-size="10.00">serialization.cc</text>
</a>
</g>
</g>
<!-- Node26&#45;&gt;Node27 -->
<g id="edge34" class="edge"><title>Node26&#45;&gt;Node27</title>
<path fill="none" stroke="midnightblue" d="M873.16,-108.503C896.781,-98.3795 929.428,-84.388 950.128,-75.5164"/>
<polygon fill="midnightblue" stroke="midnightblue" points="871.778,-105.287 863.965,-112.444 874.535,-111.721 871.778,-105.287"/>
</g>
<!-- Node33&#45;&gt;Node22 -->
<g id="edge44" class="edge"><title>Node33&#45;&gt;Node22</title>
<path fill="none" stroke="midnightblue" d="M974.849,-110.298C925.321,-99.5134 850.337,-83.1864 808.015,-73.971"/>
<polygon fill="midnightblue" stroke="midnightblue" points="974.188,-113.736 984.704,-112.444 975.677,-106.896 974.188,-113.736"/>
</g>
<!-- Node33&#45;&gt;Node27 -->
<g id="edge45" class="edge"><title>Node33&#45;&gt;Node27</title>
<path fill="none" stroke="midnightblue" d="M1008,-105.002C998.433,-95.4329 986.639,-83.6389 978.751,-75.7511"/>
<polygon fill="midnightblue" stroke="midnightblue" points="1005.54,-107.487 1015.08,-112.083 1010.49,-102.537 1005.54,-107.487"/>
</g>
</g>
</svg>
        <g id="navigator" transform="translate(0 0)" fill="#404254">
                <rect fill="#f2f5e9" fill-opacity="0.5" stroke="#606060" stroke-width=".5" x="0" y="0" width="60" height="60"/>
                <use id="zoomplus" xlink:href="#zoomPlus" x="17" y="9" onmousedown="handleZoom(evt,'in')"/>
                <use id="zoomminus" xlink:href="#zoomMin" x="42" y="9" onmousedown="handleZoom(evt,'out')"/>
                <use id="reset" xlink:href="#resetDef" x="30" y="36" onmousedown="handleReset()"/>
                <g id="arrowUp" xlink:href="#dirArrow" transform="translate(30 24)" onmousedown="handlePan(0,-1)">
                  <use xlink:href="#rim" fill="#404040">
                        <set attributeName="fill" to="#808080" begin="arrowUp.mouseover" end="arrowUp.mouseout"/>
                  </use>
                  <path fill="none" stroke="white" stroke-width="1.5" d="M0,-3.0v7 M-2.5,-0.5L0,-3.0L2.5,-0.5"/>
                </g>
                <g id="arrowRight" xlink:href="#dirArrow" transform="rotate(90) translate(36 -43)" onmousedown="handlePan(1,0)">
                  <use xlink:href="#rim" fill="#404040">
                        <set attributeName="fill" to="#808080" begin="arrowRight.mouseover" end="arrowRight.mouseout"/>
                  </use>
                  <path fill="none" stroke="white" stroke-width="1.5" d="M0,-3.0v7 M-2.5,-0.5L0,-3.0L2.5,-0.5"/>
                </g>
                <g id="arrowDown" xlink:href="#dirArrow" transform="rotate(180) translate(-30 -48)" onmousedown="handlePan(0,1)">
                  <use xlink:href="#rim" fill="#404040">
                        <set attributeName="fill" to="#808080" begin="arrowDown.mouseover" end="arrowDown.mouseout"/>
                  </use>
                  <path fill="none" stroke="white" stroke-width="1.5" d="M0,-3.0v7 M-2.5,-0.5L0,-3.0L2.5,-0.5"/>
                </g>
                <g id="arrowLeft" xlink:href="#dirArrow" transform="rotate(270) translate(-36 17)" onmousedown="handlePan(-1,0)">
                  <use xlink:href="#rim" fill="#404040">
                        <set attributeName="fill" to="#808080" begin="arrowLeft.mouseover" end="arrowLeft.mouseout"/>
                  </use>
                  <path fill="none" stroke="white" stroke-width="1.5" d="M0,-3.0v7 M-2.5,-0.5L0,-3.0L2.5,-0.5"/>
                </g>
        </g>
        <svg viewBox="0 0 15 15" width="100%" height="30px" preserveAspectRatio="xMaxYMin meet">
         <g id="arrow_out" transform="scale(0.3 0.3)">
          <a xlink:href="source__info_8h__dep__incl_org.svg" target="_base">
           <rect id="button" ry="5" rx="5" y="6" x="6" height="38" width="38"
                fill="#f2f5e9" fill-opacity="0.5" stroke="#606060" stroke-width="1.0"/>
           <path id="arrow"
             d="M 11.500037,31.436501 C 11.940474,20.09759 22.043105,11.32322 32.158766,21.979434 L 37.068811,17.246167 C 37.068811,17.246167 37.088388,32 37.088388,32 L 22.160133,31.978069 C 22.160133,31.978069 26.997745,27.140456 26.997745,27.140456 C 18.528582,18.264221 13.291696,25.230495 11.500037,31.436501 z"
             style="fill:#404040;"/>
          </a>
         </g>
        </svg>
</svg>
