<?xml version="1.0" encoding="UTF-8" standalone="no"?>
<!DOCTYPE svg PUBLIC "-//W3C//DTD SVG 1.1//EN"
 "http://www.w3.org/Graphics/SVG/1.1/DTD/svg11.dtd">
<!-- Generated by graphviz version 2.38.0 (20140413.2041)
 -->
<!-- Title: scram::mef::ValidityError Pages: 1 -->
<svg width="812pt" height="392pt"
 viewBox="0.00 0.00 812.00 392.00" xmlns="http://www.w3.org/2000/svg" xmlns:xlink="http://www.w3.org/1999/xlink">
<g id="graph0" class="graph" transform="scale(1 1) rotate(0) translate(4 388)">
<title>scram::mef::ValidityError</title>
<polygon fill="white" stroke="none" points="-4,4 -4,-388 808,-388 808,4 -4,4"/>
<!-- Node1 -->
<g id="node1" class="node"><title>Node1</title>
<polygon fill="#bfbfbf" stroke="black" points="318,-105.5 318,-162.5 452,-162.5 452,-105.5 318,-105.5"/>
<text text-anchor="middle" x="385" y="-150.5" font-family="Helvetica,sans-Serif" font-size="10.00">scram::mef::ValidityError</text>
<polyline fill="none" stroke="black" points="318,-143.5 452,-143.5 "/>
<text text-anchor="middle" x="385" y="-131.5" font-family="Helvetica,sans-Serif" font-size="10.00"> </text>
<polyline fill="none" stroke="black" points="318,-124.5 452,-124.5 "/>
<text text-anchor="middle" x="385" y="-112.5" font-family="Helvetica,sans-Serif" font-size="10.00"> </text>
</g>
<!-- Node5 -->
<g id="node5" class="node"><title>Node5</title>
<g id="a_node5"><a xlink:href="structscram_1_1mef_1_1CycleError.xhtml" target="_top" xlink:title="Signals unacceptable cycles in invalid structures. ">
<polygon fill="white" stroke="black" points="0,-6 0,-63 126,-63 126,-6 0,-6"/>
<text text-anchor="middle" x="63" y="-51" font-family="Helvetica,sans-Serif" font-size="10.00">scram::mef::CycleError</text>
<polyline fill="none" stroke="black" points="0,-44 126,-44 "/>
<text text-anchor="middle" x="63" y="-32" font-family="Helvetica,sans-Serif" font-size="10.00"> </text>
<polyline fill="none" stroke="black" points="0,-25 126,-25 "/>
<text text-anchor="middle" x="63" y="-13" font-family="Helvetica,sans-Serif" font-size="10.00"> </text>
</a>
</g>
</g>
<!-- Node1&#45;&gt;Node5 -->
<g id="edge4" class="edge"><title>Node1&#45;&gt;Node5</title>
<path fill="none" stroke="midnightblue" d="M308.157,-117.199C258.136,-105.972 191.86,-89.309 135,-69 129.936,-67.1914 124.745,-65.1564 119.581,-63.0059"/>
<polygon fill="none" stroke="midnightblue" points="307.416,-120.619 317.937,-119.371 308.934,-113.786 307.416,-120.619"/>
</g>
<!-- Node6 -->
<g id="node6" class="node"><title>Node6</title>
<g id="a_node6"><a xlink:href="structscram_1_1mef_1_1DomainError.xhtml" target="_top" xlink:title="Invalid domain for values or arguments. ">
<polygon fill="white" stroke="black" points="144,-6 144,-63 282,-63 282,-6 144,-6"/>
<text text-anchor="middle" x="213" y="-51" font-family="Helvetica,sans-Serif" font-size="10.00">scram::mef::DomainError</text>
<polyline fill="none" stroke="black" points="144,-44 282,-44 "/>
<text text-anchor="middle" x="213" y="-32" font-family="Helvetica,sans-Serif" font-size="10.00"> </text>
<polyline fill="none" stroke="black" points="144,-25 282,-25 "/>
<text text-anchor="middle" x="213" y="-13" font-family="Helvetica,sans-Serif" font-size="10.00"> </text>
</a>
</g>
</g>
<!-- Node1&#45;&gt;Node6 -->
<g id="edge5" class="edge"><title>Node1&#45;&gt;Node6</title>
<path fill="none" stroke="midnightblue" d="M327.225,-100.25C305.937,-88.1826 282.055,-74.6444 261.652,-63.0791"/>
<polygon fill="none" stroke="midnightblue" points="325.746,-103.435 336.172,-105.321 329.198,-97.3449 325.746,-103.435"/>
</g>
<!-- Node7 -->
<g id="node7" class="node"><title>Node7</title>
<g id="a_node7"><a xlink:href="structscram_1_1mef_1_1DuplicateArgumentError.xhtml" target="_top" xlink:title="This error indicates that arguments must be unique. ">
<polygon fill="white" stroke="black" points="300,-0.5 300,-68.5 470,-68.5 470,-0.5 300,-0.5"/>
<text text-anchor="start" x="308" y="-56.5" font-family="Helvetica,sans-Serif" font-size="10.00">scram::mef::DuplicateArgument</text>
<text text-anchor="middle" x="385" y="-45.5" font-family="Helvetica,sans-Serif" font-size="10.00">Error</text>
<polyline fill="none" stroke="black" points="300,-38.5 470,-38.5 "/>
<text text-anchor="middle" x="385" y="-26.5" font-family="Helvetica,sans-Serif" font-size="10.00"> </text>
<polyline fill="none" stroke="black" points="300,-19.5 470,-19.5 "/>
<text text-anchor="middle" x="385" y="-7.5" font-family="Helvetica,sans-Serif" font-size="10.00"> </text>
</a>
</g>
</g>
<!-- Node1&#45;&gt;Node7 -->
<g id="edge6" class="edge"><title>Node1&#45;&gt;Node7</title>
<path fill="none" stroke="midnightblue" d="M385,-95.0631C385,-86.3933 385,-77.2431 385,-68.7855"/>
<polygon fill="none" stroke="midnightblue" points="381.5,-95.3212 385,-105.321 388.5,-95.3212 381.5,-95.3212"/>
</g>
<!-- Node8 -->
<g id="node8" class="node"><title>Node8</title>
<g id="a_node8"><a xlink:href="structscram_1_1mef_1_1RedefinitionError.xhtml" target="_top" xlink:title="For cases when events or practically anything is redefined. ">
<polygon fill="white" stroke="black" points="488,-0.5 488,-68.5 620,-68.5 620,-0.5 488,-0.5"/>
<text text-anchor="start" x="496" y="-56.5" font-family="Helvetica,sans-Serif" font-size="10.00">scram::mef::Redefinition</text>
<text text-anchor="middle" x="554" y="-45.5" font-family="Helvetica,sans-Serif" font-size="10.00">Error</text>
<polyline fill="none" stroke="black" points="488,-38.5 620,-38.5 "/>
<text text-anchor="middle" x="554" y="-26.5" font-family="Helvetica,sans-Serif" font-size="10.00"> </text>
<polyline fill="none" stroke="black" points="488,-19.5 620,-19.5 "/>
<text text-anchor="middle" x="554" y="-7.5" font-family="Helvetica,sans-Serif" font-size="10.00"> </text>
</a>
</g>
</g>
<!-- Node1&#45;&gt;Node8 -->
<g id="edge7" class="edge"><title>Node1&#45;&gt;Node8</title>
<path fill="none" stroke="midnightblue" d="M441.999,-100.116C459.599,-89.9624 478.985,-78.7779 496.611,-68.609"/>
<polygon fill="none" stroke="midnightblue" points="439.889,-97.2923 432.977,-105.321 443.387,-103.356 439.889,-97.2923"/>
</g>
<!-- Node9 -->
<g id="node9" class="node"><title>Node9</title>
<g id="a_node9"><a xlink:href="structscram_1_1mef_1_1UndefinedElement.xhtml" target="_top" xlink:title="The error for undefined elements in a model. ">
<polygon fill="white" stroke="black" points="638,-6 638,-63 804,-63 804,-6 638,-6"/>
<text text-anchor="middle" x="721" y="-51" font-family="Helvetica,sans-Serif" font-size="10.00">scram::mef::UndefinedElement</text>
<polyline fill="none" stroke="black" points="638,-44 804,-44 "/>
<text text-anchor="middle" x="721" y="-32" font-family="Helvetica,sans-Serif" font-size="10.00"> </text>
<polyline fill="none" stroke="black" points="638,-25 804,-25 "/>
<text text-anchor="middle" x="721" y="-13" font-family="Helvetica,sans-Serif" font-size="10.00"> </text>
</a>
</g>
</g>
<!-- Node1&#45;&gt;Node9 -->
<g id="edge8" class="edge"><title>Node1&#45;&gt;Node9</title>
<path fill="none" stroke="midnightblue" d="M461.774,-114.801C510.088,-102.872 573.566,-86.3216 629,-69 634.922,-67.1495 641.025,-65.1457 647.138,-63.07"/>
<polygon fill="none" stroke="midnightblue" points="460.889,-111.414 452.013,-117.2 462.559,-118.212 460.889,-111.414"/>
</g>
<!-- Node2 -->
<g id="node2" class="node"><title>Node2</title>
<g id="a_node2"><a xlink:href="classscram_1_1Error.xhtml" target="_top" xlink:title="The Error class is the base class for common exceptions specific to the SCRAM code. ">
<polygon fill="white" stroke="black" points="347,-199.5 347,-289.5 423,-289.5 423,-199.5 347,-199.5"/>
<text text-anchor="middle" x="385" y="-277.5" font-family="Helvetica,sans-Serif" font-size="10.00">scram::Error</text>
<polyline fill="none" stroke="black" points="347,-270.5 423,-270.5 "/>
<text text-anchor="middle" x="385" y="-258.5" font-family="Helvetica,sans-Serif" font-size="10.00"> </text>
<polyline fill="none" stroke="black" points="347,-251.5 423,-251.5 "/>
<text text-anchor="start" x="355" y="-239.5" font-family="Helvetica,sans-Serif" font-size="10.00">+ Error()</text>
<text text-anchor="start" x="355" y="-228.5" font-family="Helvetica,sans-Serif" font-size="10.00">+ Error()</text>
<text text-anchor="start" x="355" y="-217.5" font-family="Helvetica,sans-Serif" font-size="10.00">+ ~Error()</text>
<text text-anchor="start" x="355" y="-206.5" font-family="Helvetica,sans-Serif" font-size="10.00">+ what()</text>
</a>
</g>
</g>
<!-- Node2&#45;&gt;Node1 -->
<g id="edge1" class="edge"><title>Node2&#45;&gt;Node1</title>
<path fill="none" stroke="midnightblue" d="M385,-189.353C385,-180.074 385,-170.791 385,-162.59"/>
<polygon fill="none" stroke="midnightblue" points="381.5,-189.369 385,-199.369 388.5,-189.369 381.5,-189.369"/>
</g>
<!-- Node3 -->
<g id="node3" class="node"><title>Node3</title>
<polygon fill="white" stroke="#bfbfbf" points="289,-326.5 289,-383.5 373,-383.5 373,-326.5 289,-326.5"/>
<text text-anchor="middle" x="331" y="-371.5" font-family="Helvetica,sans-Serif" font-size="10.00">std::exception</text>
<polyline fill="none" stroke="#bfbfbf" points="289,-364.5 373,-364.5 "/>
<text text-anchor="middle" x="331" y="-352.5" font-family="Helvetica,sans-Serif" font-size="10.00"> </text>
<polyline fill="none" stroke="#bfbfbf" points="289,-345.5 373,-345.5 "/>
<text text-anchor="middle" x="331" y="-333.5" font-family="Helvetica,sans-Serif" font-size="10.00"> </text>
</g>
<!-- Node3&#45;&gt;Node2 -->
<g id="edge2" class="edge"><title>Node3&#45;&gt;Node2</title>
<path fill="none" stroke="midnightblue" d="M349.243,-317.345C353.685,-308.42 358.481,-298.783 363.074,-289.554"/>
<polygon fill="none" stroke="midnightblue" points="346.089,-315.828 344.766,-326.34 352.355,-318.947 346.089,-315.828"/>
</g>
<!-- Node4 -->
<g id="node4" class="node"><title>Node4</title>
<polygon fill="white" stroke="#bfbfbf" points="391,-326.5 391,-383.5 487,-383.5 487,-326.5 391,-326.5"/>
<text text-anchor="middle" x="439" y="-371.5" font-family="Helvetica,sans-Serif" font-size="10.00">boost::exception</text>
<polyline fill="none" stroke="#bfbfbf" points="391,-364.5 487,-364.5 "/>
<text text-anchor="middle" x="439" y="-352.5" font-family="Helvetica,sans-Serif" font-size="10.00"> </text>
<polyline fill="none" stroke="#bfbfbf" points="391,-345.5 487,-345.5 "/>
<text text-anchor="middle" x="439" y="-333.5" font-family="Helvetica,sans-Serif" font-size="10.00"> </text>
</g>
<!-- Node4&#45;&gt;Node2 -->
<g id="edge3" class="edge"><title>Node4&#45;&gt;Node2</title>
<path fill="none" stroke="midnightblue" d="M420.757,-317.345C416.315,-308.42 411.519,-298.783 406.926,-289.554"/>
<polygon fill="none" stroke="midnightblue" points="417.645,-318.947 425.234,-326.34 423.911,-315.828 417.645,-318.947"/>
</g>
</g>
</svg>
