<?xml version="1.0" encoding="UTF-8" standalone="no"?>
<!DOCTYPE svg PUBLIC "-//W3C//DTD SVG 1.1//EN"
 "http://www.w3.org/Graphics/SVG/1.1/DTD/svg11.dtd">
<!-- Generated by graphviz version 2.38.0 (20140413.2041)
 -->
<!-- Title: scram::mef::CycleError Pages: 1 -->
<svg width="206pt" height="381pt"
 viewBox="0.00 0.00 206.00 381.00" xmlns="http://www.w3.org/2000/svg" xmlns:xlink="http://www.w3.org/1999/xlink">
<g id="graph0" class="graph" transform="scale(1 1) rotate(0) translate(4 377)">
<title>scram::mef::CycleError</title>
<polygon fill="white" stroke="none" points="-4,4 -4,-377 202,-377 202,4 -4,4"/>
<!-- Node1 -->
<g id="node1" class="node"><title>Node1</title>
<polygon fill="#bfbfbf" stroke="black" points="33,-0.5 33,-57.5 159,-57.5 159,-0.5 33,-0.5"/>
<text text-anchor="middle" x="96" y="-45.5" font-family="Helvetica,sans-Serif" font-size="10.00">scram::mef::CycleError</text>
<polyline fill="none" stroke="black" points="33,-38.5 159,-38.5 "/>
<text text-anchor="middle" x="96" y="-26.5" font-family="Helvetica,sans-Serif" font-size="10.00"> </text>
<polyline fill="none" stroke="black" points="33,-19.5 159,-19.5 "/>
<text text-anchor="middle" x="96" y="-7.5" font-family="Helvetica,sans-Serif" font-size="10.00"> </text>
</g>
<!-- Node2 -->
<g id="node2" class="node"><title>Node2</title>
<g id="a_node2"><a xlink:href="structscram_1_1mef_1_1ValidityError.xhtml" target="_top" xlink:title="For validating input parameters or user arguments. ">
<polygon fill="white" stroke="black" points="29,-94.5 29,-151.5 163,-151.5 163,-94.5 29,-94.5"/>
<text text-anchor="middle" x="96" y="-139.5" font-family="Helvetica,sans-Serif" font-size="10.00">scram::mef::ValidityError</text>
<polyline fill="none" stroke="black" points="29,-132.5 163,-132.5 "/>
<text text-anchor="middle" x="96" y="-120.5" font-family="Helvetica,sans-Serif" font-size="10.00"> </text>
<polyline fill="none" stroke="black" points="29,-113.5 163,-113.5 "/>
<text text-anchor="middle" x="96" y="-101.5" font-family="Helvetica,sans-Serif" font-size="10.00"> </text>
</a>
</g>
</g>
<!-- Node2&#45;&gt;Node1 -->
<g id="edge1" class="edge"><title>Node2&#45;&gt;Node1</title>
<path fill="none" stroke="midnightblue" d="M96,-84.2092C96,-75.2929 96,-65.9513 96,-57.5836"/>
<polygon fill="none" stroke="midnightblue" points="92.5001,-84.3969 96,-94.397 99.5001,-84.397 92.5001,-84.3969"/>
</g>
<!-- Node3 -->
<g id="node3" class="node"><title>Node3</title>
<g id="a_node3"><a xlink:href="classscram_1_1Error.xhtml" target="_top" xlink:title="The Error class is the base class for common exceptions specific to the SCRAM code. ">
<polygon fill="white" stroke="black" points="58,-188.5 58,-278.5 134,-278.5 134,-188.5 58,-188.5"/>
<text text-anchor="middle" x="96" y="-266.5" font-family="Helvetica,sans-Serif" font-size="10.00">scram::Error</text>
<polyline fill="none" stroke="black" points="58,-259.5 134,-259.5 "/>
<text text-anchor="middle" x="96" y="-247.5" font-family="Helvetica,sans-Serif" font-size="10.00"> </text>
<polyline fill="none" stroke="black" points="58,-240.5 134,-240.5 "/>
<text text-anchor="start" x="66" y="-228.5" font-family="Helvetica,sans-Serif" font-size="10.00">+ Error()</text>
<text text-anchor="start" x="66" y="-217.5" font-family="Helvetica,sans-Serif" font-size="10.00">+ Error()</text>
<text text-anchor="start" x="66" y="-206.5" font-family="Helvetica,sans-Serif" font-size="10.00">+ ~Error()</text>
<text text-anchor="start" x="66" y="-195.5" font-family="Helvetica,sans-Serif" font-size="10.00">+ what()</text>
</a>
</g>
</g>
<!-- Node3&#45;&gt;Node2 -->
<g id="edge2" class="edge"><title>Node3&#45;&gt;Node2</title>
<path fill="none" stroke="midnightblue" d="M96,-178.353C96,-169.074 96,-159.791 96,-151.59"/>
<polygon fill="none" stroke="midnightblue" points="92.5001,-178.369 96,-188.369 99.5001,-178.369 92.5001,-178.369"/>
</g>
<!-- Node4 -->
<g id="node4" class="node"><title>Node4</title>
<polygon fill="white" stroke="#bfbfbf" points="0,-315.5 0,-372.5 84,-372.5 84,-315.5 0,-315.5"/>
<text text-anchor="middle" x="42" y="-360.5" font-family="Helvetica,sans-Serif" font-size="10.00">std::exception</text>
<polyline fill="none" stroke="#bfbfbf" points="0,-353.5 84,-353.5 "/>
<text text-anchor="middle" x="42" y="-341.5" font-family="Helvetica,sans-Serif" font-size="10.00"> </text>
<polyline fill="none" stroke="#bfbfbf" points="0,-334.5 84,-334.5 "/>
<text text-anchor="middle" x="42" y="-322.5" font-family="Helvetica,sans-Serif" font-size="10.00"> </text>
</g>
<!-- Node4&#45;&gt;Node3 -->
<g id="edge3" class="edge"><title>Node4&#45;&gt;Node3</title>
<path fill="none" stroke="midnightblue" d="M60.2433,-306.345C64.685,-297.42 69.4814,-287.783 74.0745,-278.554"/>
<polygon fill="none" stroke="midnightblue" points="57.0885,-304.828 55.7662,-315.34 63.3553,-307.947 57.0885,-304.828"/>
</g>
<!-- Node5 -->
<g id="node5" class="node"><title>Node5</title>
<polygon fill="white" stroke="#bfbfbf" points="102,-315.5 102,-372.5 198,-372.5 198,-315.5 102,-315.5"/>
<text text-anchor="middle" x="150" y="-360.5" font-family="Helvetica,sans-Serif" font-size="10.00">boost::exception</text>
<polyline fill="none" stroke="#bfbfbf" points="102,-353.5 198,-353.5 "/>
<text text-anchor="middle" x="150" y="-341.5" font-family="Helvetica,sans-Serif" font-size="10.00"> </text>
<polyline fill="none" stroke="#bfbfbf" points="102,-334.5 198,-334.5 "/>
<text text-anchor="middle" x="150" y="-322.5" font-family="Helvetica,sans-Serif" font-size="10.00"> </text>
</g>
<!-- Node5&#45;&gt;Node3 -->
<g id="edge4" class="edge"><title>Node5&#45;&gt;Node3</title>
<path fill="none" stroke="midnightblue" d="M131.757,-306.345C127.315,-297.42 122.519,-287.783 117.926,-278.554"/>
<polygon fill="none" stroke="midnightblue" points="128.645,-307.947 136.234,-315.34 134.911,-304.828 128.645,-307.947"/>
</g>
</g>
</svg>
