<?xml version="1.0" encoding="UTF-8" standalone="no"?>
<!DOCTYPE svg PUBLIC "-//W3C//DTD SVG 1.1//EN"
 "http://www.w3.org/Graphics/SVG/1.1/DTD/svg11.dtd">
<!-- Generated by graphviz version 2.38.0 (20140413.2041)
 -->
<!-- Title: scram::mef::RedefinitionError Pages: 1 -->
<svg width="206pt" height="392pt"
 viewBox="0.00 0.00 206.00 392.00" xmlns="http://www.w3.org/2000/svg" xmlns:xlink="http://www.w3.org/1999/xlink">
<g id="graph0" class="graph" transform="scale(1 1) rotate(0) translate(4 388)">
<title>scram::mef::RedefinitionError</title>
<polygon fill="white" stroke="none" points="-4,4 -4,-388 202,-388 202,4 -4,4"/>
<!-- Node1 -->
<g id="node1" class="node"><title>Node1</title>
<polygon fill="#bfbfbf" stroke="black" points="30,-0.5 30,-68.5 162,-68.5 162,-0.5 30,-0.5"/>
<text text-anchor="start" x="38" y="-56.5" font-family="Helvetica,sans-Serif" font-size="10.00">scram::mef::Redefinition</text>
<text text-anchor="middle" x="96" y="-45.5" font-family="Helvetica,sans-Serif" font-size="10.00">Error</text>
<polyline fill="none" stroke="black" points="30,-38.5 162,-38.5 "/>
<text text-anchor="middle" x="96" y="-26.5" font-family="Helvetica,sans-Serif" font-size="10.00"> </text>
<polyline fill="none" stroke="black" points="30,-19.5 162,-19.5 "/>
<text text-anchor="middle" x="96" y="-7.5" font-family="Helvetica,sans-Serif" font-size="10.00"> </text>
</g>
<!-- Node2 -->
<g id="node2" class="node"><title>Node2</title>
<g id="a_node2"><a xlink:href="structscram_1_1mef_1_1ValidityError.xhtml" target="_top" xlink:title="For validating input parameters or user arguments. ">
<polygon fill="white" stroke="black" points="29,-105.5 29,-162.5 163,-162.5 163,-105.5 29,-105.5"/>
<text text-anchor="middle" x="96" y="-150.5" font-family="Helvetica,sans-Serif" font-size="10.00">scram::mef::ValidityError</text>
<polyline fill="none" stroke="black" points="29,-143.5 163,-143.5 "/>
<text text-anchor="middle" x="96" y="-131.5" font-family="Helvetica,sans-Serif" font-size="10.00"> </text>
<polyline fill="none" stroke="black" points="29,-124.5 163,-124.5 "/>
<text text-anchor="middle" x="96" y="-112.5" font-family="Helvetica,sans-Serif" font-size="10.00"> </text>
</a>
</g>
</g>
<!-- Node2&#45;&gt;Node1 -->
<g id="edge1" class="edge"><title>Node2&#45;&gt;Node1</title>
<path fill="none" stroke="midnightblue" d="M96,-95.0631C96,-86.3933 96,-77.2431 96,-68.7855"/>
<polygon fill="none" stroke="midnightblue" points="92.5001,-95.3212 96,-105.321 99.5001,-95.3212 92.5001,-95.3212"/>
</g>
<!-- Node3 -->
<g id="node3" class="node"><title>Node3</title>
<g id="a_node3"><a xlink:href="classscram_1_1Error.xhtml" target="_top" xlink:title="The Error class is the base class for common exceptions specific to the SCRAM code. ">
<polygon fill="white" stroke="black" points="58,-199.5 58,-289.5 134,-289.5 134,-199.5 58,-199.5"/>
<text text-anchor="middle" x="96" y="-277.5" font-family="Helvetica,sans-Serif" font-size="10.00">scram::Error</text>
<polyline fill="none" stroke="black" points="58,-270.5 134,-270.5 "/>
<text text-anchor="middle" x="96" y="-258.5" font-family="Helvetica,sans-Serif" font-size="10.00"> </text>
<polyline fill="none" stroke="black" points="58,-251.5 134,-251.5 "/>
<text text-anchor="start" x="66" y="-239.5" font-family="Helvetica,sans-Serif" font-size="10.00">+ Error()</text>
<text text-anchor="start" x="66" y="-228.5" font-family="Helvetica,sans-Serif" font-size="10.00">+ Error()</text>
<text text-anchor="start" x="66" y="-217.5" font-family="Helvetica,sans-Serif" font-size="10.00">+ ~Error()</text>
<text text-anchor="start" x="66" y="-206.5" font-family="Helvetica,sans-Serif" font-size="10.00">+ what()</text>
</a>
</g>
</g>
<!-- Node3&#45;&gt;Node2 -->
<g id="edge2" class="edge"><title>Node3&#45;&gt;Node2</title>
<path fill="none" stroke="midnightblue" d="M96,-189.353C96,-180.074 96,-170.791 96,-162.59"/>
<polygon fill="none" stroke="midnightblue" points="92.5001,-189.369 96,-199.369 99.5001,-189.369 92.5001,-189.369"/>
</g>
<!-- Node4 -->
<g id="node4" class="node"><title>Node4</title>
<polygon fill="white" stroke="#bfbfbf" points="0,-326.5 0,-383.5 84,-383.5 84,-326.5 0,-326.5"/>
<text text-anchor="middle" x="42" y="-371.5" font-family="Helvetica,sans-Serif" font-size="10.00">std::exception</text>
<polyline fill="none" stroke="#bfbfbf" points="0,-364.5 84,-364.5 "/>
<text text-anchor="middle" x="42" y="-352.5" font-family="Helvetica,sans-Serif" font-size="10.00"> </text>
<polyline fill="none" stroke="#bfbfbf" points="0,-345.5 84,-345.5 "/>
<text text-anchor="middle" x="42" y="-333.5" font-family="Helvetica,sans-Serif" font-size="10.00"> </text>
</g>
<!-- Node4&#45;&gt;Node3 -->
<g id="edge3" class="edge"><title>Node4&#45;&gt;Node3</title>
<path fill="none" stroke="midnightblue" d="M60.2433,-317.345C64.685,-308.42 69.4814,-298.783 74.0745,-289.554"/>
<polygon fill="none" stroke="midnightblue" points="57.0885,-315.828 55.7662,-326.34 63.3553,-318.947 57.0885,-315.828"/>
</g>
<!-- Node5 -->
<g id="node5" class="node"><title>Node5</title>
<polygon fill="white" stroke="#bfbfbf" points="102,-326.5 102,-383.5 198,-383.5 198,-326.5 102,-326.5"/>
<text text-anchor="middle" x="150" y="-371.5" font-family="Helvetica,sans-Serif" font-size="10.00">boost::exception</text>
<polyline fill="none" stroke="#bfbfbf" points="102,-364.5 198,-364.5 "/>
<text text-anchor="middle" x="150" y="-352.5" font-family="Helvetica,sans-Serif" font-size="10.00"> </text>
<polyline fill="none" stroke="#bfbfbf" points="102,-345.5 198,-345.5 "/>
<text text-anchor="middle" x="150" y="-333.5" font-family="Helvetica,sans-Serif" font-size="10.00"> </text>
</g>
<!-- Node5&#45;&gt;Node3 -->
<g id="edge4" class="edge"><title>Node5&#45;&gt;Node3</title>
<path fill="none" stroke="midnightblue" d="M131.757,-317.345C127.315,-308.42 122.519,-298.783 117.926,-289.554"/>
<polygon fill="none" stroke="midnightblue" points="128.645,-318.947 136.234,-326.34 134.911,-315.828 128.645,-318.947"/>
</g>
</g>
</svg>
