<?xml version="1.0" encoding="UTF-8" standalone="no"?>
<!DOCTYPE svg PUBLIC "-//W3C//DTD SVG 1.1//EN"
 "http://www.w3.org/Graphics/SVG/1.1/DTD/svg11.dtd">
<!-- Generated by graphviz version 2.38.0 (20140413.2041)
 -->
<!-- Title: substitution.cc Pages: 1 -->
<svg width="1711pt" height="263pt"
 viewBox="0.00 0.00 1710.50 263.00" xmlns="http://www.w3.org/2000/svg" xmlns:xlink="http://www.w3.org/1999/xlink">
<g id="graph0" class="graph" transform="scale(1 1) rotate(0) translate(4 259)">
<title>substitution.cc</title>
<polygon fill="white" stroke="none" points="-4,4 -4,-259 1706.5,-259 1706.5,4 -4,4"/>
<!-- Node1 -->
<g id="node1" class="node"><title>Node1</title>
<polygon fill="#bfbfbf" stroke="black" points="1022.5,-235.5 1022.5,-254.5 1108.5,-254.5 1108.5,-235.5 1022.5,-235.5"/>
<text text-anchor="middle" x="1065.5" y="-242.5" font-family="Helvetica,sans-Serif" font-size="10.00">substitution.cc</text>
</g>
<!-- Node2 -->
<g id="node2" class="node"><title>Node2</title>
<g id="a_node2"><a xlink:href="substitution_8h.xhtml" target="_top" xlink:title="The MEF Substitution constructs. ">
<polygon fill="white" stroke="black" points="346.5,-179.5 346.5,-198.5 428.5,-198.5 428.5,-179.5 346.5,-179.5"/>
<text text-anchor="middle" x="387.5" y="-186.5" font-family="Helvetica,sans-Serif" font-size="10.00">substitution.h</text>
</a>
</g>
</g>
<!-- Node1&#45;&gt;Node2 -->
<g id="edge1" class="edge"><title>Node1&#45;&gt;Node2</title>
<path fill="none" stroke="midnightblue" d="M1022.32,-240.561C902.756,-231.038 567.755,-204.357 438.901,-194.094"/>
<polygon fill="midnightblue" stroke="midnightblue" points="439.141,-190.602 428.895,-193.297 438.585,-197.58 439.141,-190.602"/>
</g>
<!-- Node19 -->
<g id="node19" class="node"><title>Node19</title>
<g id="a_node19"><a xlink:href="error_8h.xhtml" target="_top" xlink:title="Exceptions for SCRAM. ">
<polygon fill="white" stroke="black" points="1041.5,-179.5 1041.5,-198.5 1089.5,-198.5 1089.5,-179.5 1041.5,-179.5"/>
<text text-anchor="middle" x="1065.5" y="-186.5" font-family="Helvetica,sans-Serif" font-size="10.00">error.h</text>
</a>
</g>
</g>
<!-- Node1&#45;&gt;Node19 -->
<g id="edge30" class="edge"><title>Node1&#45;&gt;Node19</title>
<path fill="none" stroke="midnightblue" d="M1065.5,-235.083C1065.5,-228.006 1065.5,-217.861 1065.5,-208.986"/>
<polygon fill="midnightblue" stroke="midnightblue" points="1069,-208.751 1065.5,-198.751 1062,-208.751 1069,-208.751"/>
</g>
<!-- Node25 -->
<g id="node25" class="node"><title>Node25</title>
<g id="a_node25"><a xlink:href="algorithm_8h.xhtml" target="_top" xlink:title="Helpful algorithm facilities as an extension to the STL or Boost. ">
<polygon fill="white" stroke="black" points="1486,-179.5 1486,-198.5 1575,-198.5 1575,-179.5 1486,-179.5"/>
<text text-anchor="middle" x="1530.5" y="-186.5" font-family="Helvetica,sans-Serif" font-size="10.00">ext/algorithm.h</text>
</a>
</g>
</g>
<!-- Node1&#45;&gt;Node25 -->
<g id="edge37" class="edge"><title>Node1&#45;&gt;Node25</title>
<path fill="none" stroke="midnightblue" d="M1108.83,-238.968C1193.8,-229.101 1382.15,-207.228 1475.65,-196.37"/>
<polygon fill="midnightblue" stroke="midnightblue" points="1476.22,-199.827 1485.75,-195.197 1475.41,-192.874 1476.22,-199.827"/>
</g>
<!-- Node3 -->
<g id="node3" class="node"><title>Node3</title>
<polygon fill="white" stroke="#bfbfbf" points="222,-67.5 222,-86.5 279,-86.5 279,-67.5 222,-67.5"/>
<text text-anchor="middle" x="250.5" y="-74.5" font-family="Helvetica,sans-Serif" font-size="10.00">memory</text>
</g>
<!-- Node2&#45;&gt;Node3 -->
<g id="edge2" class="edge"><title>Node2&#45;&gt;Node3</title>
<path fill="none" stroke="midnightblue" d="M346.191,-185.287C316.4,-180.988 277.82,-170.134 256.5,-143 246.334,-130.062 245.77,-110.893 247.185,-96.721"/>
<polygon fill="midnightblue" stroke="midnightblue" points="250.676,-97.0311 248.6,-86.6417 243.744,-96.0583 250.676,-97.0311"/>
</g>
<!-- Node4 -->
<g id="node4" class="node"><title>Node4</title>
<polygon fill="white" stroke="#bfbfbf" points="266,-123.5 266,-142.5 321,-142.5 321,-123.5 266,-123.5"/>
<text text-anchor="middle" x="293.5" y="-130.5" font-family="Helvetica,sans-Serif" font-size="10.00">optional</text>
</g>
<!-- Node2&#45;&gt;Node4 -->
<g id="edge3" class="edge"><title>Node2&#45;&gt;Node4</title>
<path fill="none" stroke="midnightblue" d="M372.397,-179.324C357.597,-170.822 334.806,-157.729 317.518,-147.797"/>
<polygon fill="midnightblue" stroke="midnightblue" points="318.98,-144.601 308.565,-142.655 315.493,-150.671 318.98,-144.601"/>
</g>
<!-- Node5 -->
<g id="node5" class="node"><title>Node5</title>
<polygon fill="white" stroke="#bfbfbf" points="309.5,-67.5 309.5,-86.5 359.5,-86.5 359.5,-67.5 309.5,-67.5"/>
<text text-anchor="middle" x="334.5" y="-74.5" font-family="Helvetica,sans-Serif" font-size="10.00">variant</text>
</g>
<!-- Node2&#45;&gt;Node5 -->
<g id="edge4" class="edge"><title>Node2&#45;&gt;Node5</title>
<path fill="none" stroke="midnightblue" d="M383.341,-179.368C374.672,-161.376 354.52,-119.55 342.993,-95.6267"/>
<polygon fill="midnightblue" stroke="midnightblue" points="346.133,-94.081 338.64,-86.5914 339.827,-97.1195 346.133,-94.081"/>
</g>
<!-- Node6 -->
<g id="node6" class="node"><title>Node6</title>
<polygon fill="white" stroke="#bfbfbf" points="0,-6 0,-25 47,-25 47,-6 0,-6"/>
<text text-anchor="middle" x="23.5" y="-13" font-family="Helvetica,sans-Serif" font-size="10.00">vector</text>
</g>
<!-- Node2&#45;&gt;Node6 -->
<g id="edge5" class="edge"><title>Node2&#45;&gt;Node6</title>
<path fill="none" stroke="midnightblue" d="M389.226,-179.427C393.149,-157.198 400.107,-97.3293 368.5,-67 317.982,-18.5239 122.978,-49.6737 55.5,-31 53.3507,-30.4052 51.1626,-29.6846 48.9907,-28.8861"/>
<polygon fill="midnightblue" stroke="midnightblue" points="50.3194,-25.6481 39.7422,-25.0369 47.6296,-32.1107 50.3194,-25.6481"/>
</g>
<!-- Node7 -->
<g id="node7" class="node"><title>Node7</title>
<g id="a_node7"><a xlink:href="element_8h.xhtml" target="_top" xlink:title="Helper classes, structs, and properties common to all other classes. ">
<polygon fill="white" stroke="black" points="492,-67.5 492,-86.5 557,-86.5 557,-67.5 492,-67.5"/>
<text text-anchor="middle" x="524.5" y="-74.5" font-family="Helvetica,sans-Serif" font-size="10.00">element.h</text>
</a>
</g>
</g>
<!-- Node2&#45;&gt;Node7 -->
<g id="edge6" class="edge"><title>Node2&#45;&gt;Node7</title>
<path fill="none" stroke="midnightblue" d="M428.564,-180.056C452.018,-173.62 480.454,-162.331 499.5,-143 511.82,-130.495 518.207,-111.268 521.428,-96.9644"/>
<polygon fill="midnightblue" stroke="midnightblue" points="524.936,-97.2526 523.385,-86.772 518.062,-95.9325 524.936,-97.2526"/>
</g>
<!-- Node14 -->
<g id="node14" class="node"><title>Node14</title>
<g id="a_node14"><a xlink:href="event_8h.xhtml" target="_top" xlink:title="Contains event classes for fault trees. ">
<polygon fill="white" stroke="black" points="438,-123.5 438,-142.5 491,-142.5 491,-123.5 438,-123.5"/>
<text text-anchor="middle" x="464.5" y="-130.5" font-family="Helvetica,sans-Serif" font-size="10.00">event.h</text>
</a>
</g>
</g>
<!-- Node2&#45;&gt;Node14 -->
<g id="edge14" class="edge"><title>Node2&#45;&gt;Node14</title>
<path fill="none" stroke="midnightblue" d="M399.871,-179.324C411.658,-171.058 429.632,-158.453 443.636,-148.632"/>
<polygon fill="midnightblue" stroke="midnightblue" points="445.982,-151.262 452.159,-142.655 441.962,-145.531 445.982,-151.262"/>
</g>
<!-- Node7&#45;&gt;Node6 -->
<g id="edge9" class="edge"><title>Node7&#45;&gt;Node6</title>
<path fill="none" stroke="midnightblue" d="M491.815,-72.4465C476.016,-70.7525 456.776,-68.7244 439.5,-67 268.933,-49.9752 221.177,-74.9785 55.5,-31 53.3446,-30.4279 51.1521,-29.7234 48.9771,-28.936"/>
<polygon fill="midnightblue" stroke="midnightblue" points="50.3016,-25.6963 39.7231,-25.1071 47.6253,-32.1645 50.3016,-25.6963"/>
</g>
<!-- Node8 -->
<g id="node8" class="node"><title>Node8</title>
<polygon fill="white" stroke="#bfbfbf" points="65,-6 65,-25 114,-25 114,-6 65,-6"/>
<text text-anchor="middle" x="89.5" y="-13" font-family="Helvetica,sans-Serif" font-size="10.00">cstdint</text>
</g>
<!-- Node7&#45;&gt;Node8 -->
<g id="edge7" class="edge"><title>Node7&#45;&gt;Node8</title>
<path fill="none" stroke="midnightblue" d="M491.947,-69.3826C487.115,-68.512 482.186,-67.6855 477.5,-67 321.021,-44.1066 276.641,-70.4674 123.5,-31 121.141,-30.3919 118.733,-29.6453 116.344,-28.8145"/>
<polygon fill="midnightblue" stroke="midnightblue" points="117.381,-25.4616 106.793,-25.0655 114.823,-31.9775 117.381,-25.4616"/>
</g>
<!-- Node9 -->
<g id="node9" class="node"><title>Node9</title>
<polygon fill="white" stroke="#bfbfbf" points="774.5,-6 774.5,-25 818.5,-25 818.5,-6 774.5,-6"/>
<text text-anchor="middle" x="796.5" y="-13" font-family="Helvetica,sans-Serif" font-size="10.00">string</text>
</g>
<!-- Node7&#45;&gt;Node9 -->
<g id="edge8" class="edge"><title>Node7&#45;&gt;Node9</title>
<path fill="none" stroke="midnightblue" d="M557.108,-72.5645C604.041,-67.0283 692.968,-54.3184 765.5,-31 767.172,-30.4624 768.872,-29.8556 770.57,-29.2028"/>
<polygon fill="midnightblue" stroke="midnightblue" points="772.271,-32.2813 780.08,-25.1214 769.511,-25.8486 772.271,-32.2813"/>
</g>
<!-- Node10 -->
<g id="node10" class="node"><title>Node10</title>
<polygon fill="white" stroke="#bfbfbf" points="132.5,-0.5 132.5,-30.5 272.5,-30.5 272.5,-0.5 132.5,-0.5"/>
<text text-anchor="start" x="140.5" y="-18.5" font-family="Helvetica,sans-Serif" font-size="10.00">boost/multi_index/hashed</text>
<text text-anchor="middle" x="202.5" y="-7.5" font-family="Helvetica,sans-Serif" font-size="10.00">_index.hpp</text>
</g>
<!-- Node7&#45;&gt;Node10 -->
<g id="edge10" class="edge"><title>Node7&#45;&gt;Node10</title>
<path fill="none" stroke="midnightblue" d="M491.89,-69.7224C487.066,-68.8034 482.154,-67.873 477.5,-67 472.632,-66.0869 362.119,-45.7981 282.695,-31.2191"/>
<polygon fill="midnightblue" stroke="midnightblue" points="283.153,-27.7448 272.685,-29.3818 281.889,-34.6298 283.153,-27.7448"/>
</g>
<!-- Node11 -->
<g id="node11" class="node"><title>Node11</title>
<polygon fill="white" stroke="#bfbfbf" points="290.5,-0.5 290.5,-30.5 420.5,-30.5 420.5,-0.5 290.5,-0.5"/>
<text text-anchor="start" x="298.5" y="-18.5" font-family="Helvetica,sans-Serif" font-size="10.00">boost/multi_index/mem</text>
<text text-anchor="middle" x="355.5" y="-7.5" font-family="Helvetica,sans-Serif" font-size="10.00">_fun.hpp</text>
</g>
<!-- Node7&#45;&gt;Node11 -->
<g id="edge11" class="edge"><title>Node7&#45;&gt;Node11</title>
<path fill="none" stroke="midnightblue" d="M500.286,-67.4751C475.473,-58.7388 436.186,-44.9073 404.794,-33.855"/>
<polygon fill="midnightblue" stroke="midnightblue" points="405.925,-30.5426 395.33,-30.523 403.6,-37.1453 405.925,-30.5426"/>
</g>
<!-- Node12 -->
<g id="node12" class="node"><title>Node12</title>
<polygon fill="white" stroke="#bfbfbf" points="438.5,-6 438.5,-25 610.5,-25 610.5,-6 438.5,-6"/>
<text text-anchor="middle" x="524.5" y="-13" font-family="Helvetica,sans-Serif" font-size="10.00">boost/multi_index_container.hpp</text>
</g>
<!-- Node7&#45;&gt;Node12 -->
<g id="edge12" class="edge"><title>Node7&#45;&gt;Node12</title>
<path fill="none" stroke="midnightblue" d="M524.5,-67.4751C524.5,-59.0803 524.5,-45.9806 524.5,-35.1631"/>
<polygon fill="midnightblue" stroke="midnightblue" points="528,-35.0091 524.5,-25.0091 521,-35.0091 528,-35.0091"/>
</g>
<!-- Node13 -->
<g id="node13" class="node"><title>Node13</title>
<polygon fill="white" stroke="#bfbfbf" points="628.5,-6 628.5,-25 756.5,-25 756.5,-6 628.5,-6"/>
<text text-anchor="middle" x="692.5" y="-13" font-family="Helvetica,sans-Serif" font-size="10.00">boost/noncopyable.hpp</text>
</g>
<!-- Node7&#45;&gt;Node13 -->
<g id="edge13" class="edge"><title>Node7&#45;&gt;Node13</title>
<path fill="none" stroke="midnightblue" d="M548.57,-67.4751C577.513,-57.2246 626.262,-39.9593 658.902,-28.3994"/>
<polygon fill="midnightblue" stroke="midnightblue" points="660.217,-31.6468 668.474,-25.0091 657.88,-25.0484 660.217,-31.6468"/>
</g>
<!-- Node14&#45;&gt;Node3 -->
<g id="edge16" class="edge"><title>Node14&#45;&gt;Node3</title>
<path fill="none" stroke="midnightblue" d="M437.829,-125.27C400.384,-115.821 332.006,-98.5669 289.033,-87.7232"/>
<polygon fill="midnightblue" stroke="midnightblue" points="289.768,-84.2992 279.216,-85.2461 288.056,-91.0865 289.768,-84.2992"/>
</g>
<!-- Node14&#45;&gt;Node5 -->
<g id="edge19" class="edge"><title>Node14&#45;&gt;Node5</title>
<path fill="none" stroke="midnightblue" d="M443.901,-123.444C422.507,-114.557 388.819,-100.563 364.476,-90.4514"/>
<polygon fill="midnightblue" stroke="midnightblue" points="365.58,-87.1203 355.003,-86.5164 362.895,-93.5848 365.58,-87.1203"/>
</g>
<!-- Node14&#45;&gt;Node6 -->
<g id="edge20" class="edge"><title>Node14&#45;&gt;Node6</title>
<path fill="none" stroke="midnightblue" d="M459.151,-123.411C449.593,-108.915 428.073,-79.9135 401.5,-67 262.442,0.575742 204.729,-71.4278 55.5,-31 53.3475,-30.4169 51.1572,-29.7045 48.9836,-28.9118"/>
<polygon fill="midnightblue" stroke="midnightblue" points="50.3101,-25.6729 39.7322,-25.073 47.6273,-32.1384 50.3101,-25.6729"/>
</g>
<!-- Node14&#45;&gt;Node7 -->
<g id="edge22" class="edge"><title>Node14&#45;&gt;Node7</title>
<path fill="none" stroke="midnightblue" d="M474.14,-123.324C483.01,-115.341 496.375,-103.313 507.108,-93.6529"/>
<polygon fill="midnightblue" stroke="midnightblue" points="509.593,-96.1251 514.685,-86.8339 504.91,-90.922 509.593,-96.1251"/>
</g>
<!-- Node14&#45;&gt;Node8 -->
<g id="edge15" class="edge"><title>Node14&#45;&gt;Node8</title>
<path fill="none" stroke="midnightblue" d="M463.904,-123.165C462.424,-108.839 457.286,-80.762 439.5,-67 383.602,-23.7493 191.832,-49.0517 123.5,-31 121.144,-30.3777 118.739,-29.621 116.352,-28.7835"/>
<polygon fill="midnightblue" stroke="midnightblue" points="117.391,-25.4312 106.804,-25.0229 114.826,-31.9442 117.391,-25.4312"/>
</g>
<!-- Node14&#45;&gt;Node9 -->
<g id="edge17" class="edge"><title>Node14&#45;&gt;Node9</title>
<path fill="none" stroke="midnightblue" d="M491.231,-123.684C518.256,-115.107 561.112,-101.038 597.5,-87 618.299,-78.976 622.547,-74.6136 643.5,-67 696.635,-47.6927 712.635,-51.033 765.5,-31 766.924,-30.4605 768.373,-29.8837 769.829,-29.2825"/>
<polygon fill="midnightblue" stroke="midnightblue" points="771.581,-32.3349 779.318,-25.0972 768.756,-25.9301 771.581,-32.3349"/>
</g>
<!-- Node14&#45;&gt;Node13 -->
<g id="edge21" class="edge"><title>Node14&#45;&gt;Node13</title>
<path fill="none" stroke="midnightblue" d="M485.251,-123.385C505.843,-114.689 538.191,-100.631 565.5,-87 602.314,-68.625 643.788,-45.0356 669.03,-30.342"/>
<polygon fill="midnightblue" stroke="midnightblue" points="670.999,-33.2448 677.865,-25.1756 667.466,-27.202 670.999,-33.2448"/>
</g>
<!-- Node15 -->
<g id="node15" class="node"><title>Node15</title>
<polygon fill="white" stroke="#bfbfbf" points="966.5,-6 966.5,-25 1008.5,-25 1008.5,-6 966.5,-6"/>
<text text-anchor="middle" x="987.5" y="-13" font-family="Helvetica,sans-Serif" font-size="10.00">utility</text>
</g>
<!-- Node14&#45;&gt;Node15 -->
<g id="edge18" class="edge"><title>Node14&#45;&gt;Node15</title>
<path fill="none" stroke="midnightblue" d="M491.177,-129.344C566.456,-121.261 786.194,-93.5867 957.5,-31 958.926,-30.4789 960.376,-29.9122 961.828,-29.3148"/>
<polygon fill="midnightblue" stroke="midnightblue" points="963.563,-32.3725 971.251,-25.0828 960.695,-25.9868 963.563,-32.3725"/>
</g>
<!-- Node16 -->
<g id="node16" class="node"><title>Node16</title>
<g id="a_node16"><a xlink:href="expression_8h.xhtml" target="_top" xlink:title="Provides the base class for all expressions and units for expression values. ">
<polygon fill="white" stroke="black" points="653,-67.5 653,-86.5 730,-86.5 730,-67.5 653,-67.5"/>
<text text-anchor="middle" x="691.5" y="-74.5" font-family="Helvetica,sans-Serif" font-size="10.00">expression.h</text>
</a>
</g>
</g>
<!-- Node14&#45;&gt;Node16 -->
<g id="edge23" class="edge"><title>Node14&#45;&gt;Node16</title>
<path fill="none" stroke="midnightblue" d="M491.431,-125.593C529.507,-116.536 599.584,-99.8655 645.867,-88.8554"/>
<polygon fill="midnightblue" stroke="midnightblue" points="646.73,-92.2479 655.649,-86.5285 645.11,-85.4379 646.73,-92.2479"/>
</g>
<!-- Node16&#45;&gt;Node6 -->
<g id="edge27" class="edge"><title>Node16&#45;&gt;Node6</title>
<path fill="none" stroke="midnightblue" d="M652.899,-73.2344C627.962,-71.4498 594.813,-69.0815 565.5,-67 338.84,-50.9052 275.781,-86.7686 55.5,-31 53.2901,-30.4405 51.0434,-29.7353 48.8178,-28.9389"/>
<polygon fill="midnightblue" stroke="midnightblue" points="49.9531,-25.621 39.3746,-25.0324 47.2772,-32.0893 49.9531,-25.621"/>
</g>
<!-- Node16&#45;&gt;Node9 -->
<g id="edge25" class="edge"><title>Node16&#45;&gt;Node9</title>
<path fill="none" stroke="midnightblue" d="M706.544,-67.4751C723.775,-57.7106 752.24,-41.5807 772.534,-30.0808"/>
<polygon fill="midnightblue" stroke="midnightblue" points="774.509,-32.9843 781.484,-25.0091 771.058,-26.8942 774.509,-32.9843"/>
</g>
<!-- Node16&#45;&gt;Node13 -->
<g id="edge29" class="edge"><title>Node16&#45;&gt;Node13</title>
<path fill="none" stroke="midnightblue" d="M691.643,-67.4751C691.784,-59.0803 692.005,-45.9806 692.186,-35.1631"/>
<polygon fill="midnightblue" stroke="midnightblue" points="695.688,-35.0665 692.357,-25.0091 688.689,-34.9488 695.688,-35.0665"/>
</g>
<!-- Node16&#45;&gt;Node15 -->
<g id="edge26" class="edge"><title>Node16&#45;&gt;Node15</title>
<path fill="none" stroke="midnightblue" d="M730.287,-69.41C735.073,-68.5978 739.899,-67.7795 744.5,-67 839.16,-50.9633 866.033,-60.1813 957.5,-31 959.167,-30.4681 960.859,-29.8595 962.547,-29.1997"/>
<polygon fill="midnightblue" stroke="midnightblue" points="964.231,-32.2819 971.964,-25.0388 961.402,-25.8791 964.231,-32.2819"/>
</g>
<!-- Node17 -->
<g id="node17" class="node"><title>Node17</title>
<polygon fill="white" stroke="#bfbfbf" points="1263.5,-6 1263.5,-25 1325.5,-25 1325.5,-6 1263.5,-6"/>
<text text-anchor="middle" x="1294.5" y="-13" font-family="Helvetica,sans-Serif" font-size="10.00">algorithm</text>
</g>
<!-- Node16&#45;&gt;Node17 -->
<g id="edge24" class="edge"><title>Node16&#45;&gt;Node17</title>
<path fill="none" stroke="midnightblue" d="M730.138,-72.1875C838.041,-61.5404 1141.95,-31.5526 1253.11,-20.5841"/>
<polygon fill="midnightblue" stroke="midnightblue" points="1253.64,-24.0485 1263.25,-19.5833 1252.96,-17.0823 1253.64,-24.0485"/>
</g>
<!-- Node18 -->
<g id="node18" class="node"><title>Node18</title>
<polygon fill="white" stroke="#bfbfbf" points="836.5,-0.5 836.5,-30.5 948.5,-30.5 948.5,-0.5 836.5,-0.5"/>
<text text-anchor="start" x="844.5" y="-18.5" font-family="Helvetica,sans-Serif" font-size="10.00">boost/icl/continuous</text>
<text text-anchor="middle" x="892.5" y="-7.5" font-family="Helvetica,sans-Serif" font-size="10.00">_interval.hpp</text>
</g>
<!-- Node16&#45;&gt;Node18 -->
<g id="edge28" class="edge"><title>Node16&#45;&gt;Node18</title>
<path fill="none" stroke="midnightblue" d="M720.298,-67.4751C750.192,-58.6259 797.747,-44.5487 835.316,-33.4277"/>
<polygon fill="midnightblue" stroke="midnightblue" points="836.533,-36.7175 845.128,-30.523 834.546,-30.0054 836.533,-36.7175"/>
</g>
<!-- Node19&#45;&gt;Node9 -->
<g id="edge32" class="edge"><title>Node19&#45;&gt;Node9</title>
<path fill="none" stroke="midnightblue" d="M1041.38,-187.122C984.93,-184.543 846.612,-175.028 815.5,-143 787.473,-114.147 789.594,-62.7985 793.232,-35.2296"/>
<polygon fill="midnightblue" stroke="midnightblue" points="796.744,-35.4203 794.801,-25.0052 789.825,-34.3587 796.744,-35.4203"/>
</g>
<!-- Node20 -->
<g id="node20" class="node"><title>Node20</title>
<polygon fill="white" stroke="#bfbfbf" points="825,-123.5 825,-142.5 888,-142.5 888,-123.5 825,-123.5"/>
<text text-anchor="middle" x="856.5" y="-130.5" font-family="Helvetica,sans-Serif" font-size="10.00">exception</text>
</g>
<!-- Node19&#45;&gt;Node20 -->
<g id="edge31" class="edge"><title>Node19&#45;&gt;Node20</title>
<path fill="none" stroke="midnightblue" d="M1041.12,-181.7C1006.03,-172.633 940.816,-155.785 898.042,-144.733"/>
<polygon fill="midnightblue" stroke="midnightblue" points="898.772,-141.307 888.214,-142.194 897.021,-148.084 898.772,-141.307"/>
</g>
<!-- Node21 -->
<g id="node21" class="node"><title>Node21</title>
<polygon fill="white" stroke="#bfbfbf" points="906.5,-123.5 906.5,-142.5 1052.5,-142.5 1052.5,-123.5 906.5,-123.5"/>
<text text-anchor="middle" x="979.5" y="-130.5" font-family="Helvetica,sans-Serif" font-size="10.00">boost/current_function.hpp</text>
</g>
<!-- Node19&#45;&gt;Node21 -->
<g id="edge33" class="edge"><title>Node19&#45;&gt;Node21</title>
<path fill="none" stroke="midnightblue" d="M1051.68,-179.324C1038.27,-170.9 1017.68,-157.971 1001.91,-148.074"/>
<polygon fill="midnightblue" stroke="midnightblue" points="1003.61,-145.008 993.283,-142.655 999.891,-150.936 1003.61,-145.008"/>
</g>
<!-- Node22 -->
<g id="node22" class="node"><title>Node22</title>
<polygon fill="white" stroke="#bfbfbf" points="1070.5,-123.5 1070.5,-142.5 1234.5,-142.5 1234.5,-123.5 1070.5,-123.5"/>
<text text-anchor="middle" x="1152.5" y="-130.5" font-family="Helvetica,sans-Serif" font-size="10.00">boost/exception/exception.hpp</text>
</g>
<!-- Node19&#45;&gt;Node22 -->
<g id="edge34" class="edge"><title>Node19&#45;&gt;Node22</title>
<path fill="none" stroke="midnightblue" d="M1079.48,-179.324C1093.05,-170.9 1113.88,-157.971 1129.82,-148.074"/>
<polygon fill="midnightblue" stroke="midnightblue" points="1131.91,-150.902 1138.56,-142.655 1128.21,-144.954 1131.91,-150.902"/>
</g>
<!-- Node23 -->
<g id="node23" class="node"><title>Node23</title>
<polygon fill="white" stroke="#bfbfbf" points="1252.5,-123.5 1252.5,-142.5 1386.5,-142.5 1386.5,-123.5 1252.5,-123.5"/>
<text text-anchor="middle" x="1319.5" y="-130.5" font-family="Helvetica,sans-Serif" font-size="10.00">boost/exception/info.hpp</text>
</g>
<!-- Node19&#45;&gt;Node23 -->
<g id="edge35" class="edge"><title>Node19&#45;&gt;Node23</title>
<path fill="none" stroke="midnightblue" d="M1089.85,-182.822C1131.03,-174.068 1215.21,-156.172 1269.41,-144.649"/>
<polygon fill="midnightblue" stroke="midnightblue" points="1270.44,-148.008 1279.5,-142.505 1268.99,-141.161 1270.44,-148.008"/>
</g>
<!-- Node24 -->
<g id="node24" class="node"><title>Node24</title>
<g id="a_node24"><a xlink:href="source__info_8h.xhtml" target="_top" xlink:title="Helper facilities to get source file information. ">
<polygon fill="white" stroke="black" points="1404.5,-123.5 1404.5,-142.5 1502.5,-142.5 1502.5,-123.5 1404.5,-123.5"/>
<text text-anchor="middle" x="1453.5" y="-130.5" font-family="Helvetica,sans-Serif" font-size="10.00">ext/source_info.h</text>
</a>
</g>
</g>
<!-- Node19&#45;&gt;Node24 -->
<g id="edge36" class="edge"><title>Node19&#45;&gt;Node24</title>
<path fill="none" stroke="midnightblue" d="M1089.54,-184.877C1142.53,-177.958 1273.63,-160.66 1394.31,-143.151"/>
<polygon fill="midnightblue" stroke="midnightblue" points="1395.07,-146.578 1404.46,-141.674 1394.06,-139.651 1395.07,-146.578"/>
</g>
<!-- Node25&#45;&gt;Node17 -->
<g id="edge38" class="edge"><title>Node25&#45;&gt;Node17</title>
<path fill="none" stroke="midnightblue" d="M1530.14,-179.395C1529.15,-165.89 1525.43,-139.553 1511.5,-123 1465.47,-68.2874 1384.59,-39.2278 1335.63,-25.9099"/>
<polygon fill="midnightblue" stroke="midnightblue" points="1336.26,-22.4552 1325.7,-23.3033 1334.48,-29.2261 1336.26,-22.4552"/>
</g>
<!-- Node26 -->
<g id="node26" class="node"><title>Node26</title>
<polygon fill="white" stroke="#bfbfbf" points="1558.5,-123.5 1558.5,-142.5 1702.5,-142.5 1702.5,-123.5 1558.5,-123.5"/>
<text text-anchor="middle" x="1630.5" y="-130.5" font-family="Helvetica,sans-Serif" font-size="10.00">boost/range/algorithm.hpp</text>
</g>
<!-- Node25&#45;&gt;Node26 -->
<g id="edge39" class="edge"><title>Node25&#45;&gt;Node26</title>
<path fill="none" stroke="midnightblue" d="M1546.57,-179.324C1562.46,-170.743 1587.01,-157.486 1605.46,-147.522"/>
<polygon fill="midnightblue" stroke="midnightblue" points="1607.34,-150.486 1614.47,-142.655 1604.01,-144.326 1607.34,-150.486"/>
</g>
</g>
</svg>
