<?xml version="1.0" encoding="UTF-8" standalone="no"?>
<!DOCTYPE svg PUBLIC "-//W3C//DTD SVG 1.1//EN"
 "http://www.w3.org/Graphics/SVG/1.1/DTD/svg11.dtd">
<!-- Generated by graphviz version 2.38.0 (20140413.2041)
 -->
<!-- Title: substitution.h Pages: 1 -->
<!--zoomable 207 -->
<svg id="main" version="1.1" xmlns="http://www.w3.org/2000/svg" xmlns:xlink="http://www.w3.org/1999/xlink" xml:space="preserve" onload="init(evt)">
<style type="text/css"><![CDATA[
.edge:hover path { stroke: red; }
.edge:hover polygon { stroke: red; fill: red; }
]]></style>
<script type="text/javascript"><![CDATA[
var edges = document.getElementsByTagName('g');
if (edges && edges.length) {
  for (var i=0;i<edges.length;i++) {
    if (edges[i].id.substr(0,4)=='edge') {
      edges[i].setAttribute('class','edge');
    }
  }
}
]]></script>
        <defs>
                <circle id="rim" cx="0" cy="0" r="7"/>
                <circle id="rim2" cx="0" cy="0" r="3.5"/>
                <g id="zoomPlus">
                        <use xlink:href="#rim" fill="#404040">
                                <set attributeName="fill" to="#808080" begin="zoomplus.mouseover" end="zoomplus.mouseout"/>
                        </use>
                        <path d="M-4,0h8M0,-4v8" fill="none" stroke="white" stroke-width="1.5" pointer-events="none"/>
                </g>
                <g id="zoomMin">
                        <use xlink:href="#rim" fill="#404040">
                                <set attributeName="fill" to="#808080" begin="zoomminus.mouseover" end="zoomminus.mouseout"/>
                        </use>
                        <path d="M-4,0h8" fill="none" stroke="white" stroke-width="1.5" pointer-events="none"/>
                </g>
                <g id="dirArrow">
                        <path fill="none" stroke="white" stroke-width="1.5" d="M0,-3.0v7 M-2.5,-0.5L0,-3.0L2.5,-0.5"/>
                </g>
               <g id="resetDef">
                       <use xlink:href="#rim2" fill="#404040">
                               <set attributeName="fill" to="#808080" begin="reset.mouseover" end="reset.mouseout"/>
                       </use>
               </g>
        </defs>

<script type="text/javascript">
var viewWidth = 1098;
var viewHeight = 207;
var sectionId = 'dynsection-0';
</script>
<script xlink:href="svgpan.js"/>
<svg id="graph" class="graph">
<g id="viewport">
<title>substitution.h</title>
<polygon fill="white" stroke="none" points="-4,4 -4,-203 1093.5,-203 1093.5,4 -4,4"/>
<!-- Node1 -->
<g id="node1" class="node"><title>Node1</title>
<polygon fill="#bfbfbf" stroke="black" points="174.5,-179.5 174.5,-198.5 256.5,-198.5 256.5,-179.5 174.5,-179.5"/>
<text text-anchor="middle" x="215.5" y="-186.5" font-family="Helvetica,sans-Serif" font-size="10.00">substitution.h</text>
</g>
<!-- Node2 -->
<g id="node2" class="node"><title>Node2</title>
<polygon fill="white" stroke="#bfbfbf" points="52,-67.5 52,-86.5 109,-86.5 109,-67.5 52,-67.5"/>
<text text-anchor="middle" x="80.5" y="-74.5" font-family="Helvetica,sans-Serif" font-size="10.00">memory</text>
</g>
<!-- Node1&#45;&gt;Node2 -->
<g id="edge1" class="edge"><title>Node1&#45;&gt;Node2</title>
<path fill="none" stroke="midnightblue" d="M204.907,-179.368C182.036,-160.733 127.79,-116.532 99.0734,-93.1338"/>
<polygon fill="midnightblue" stroke="midnightblue" points="101.007,-90.1949 91.044,-86.5914 96.5855,-95.6215 101.007,-90.1949"/>
</g>
<!-- Node3 -->
<g id="node3" class="node"><title>Node3</title>
<polygon fill="white" stroke="#bfbfbf" points="327,-123.5 327,-142.5 382,-142.5 382,-123.5 327,-123.5"/>
<text text-anchor="middle" x="354.5" y="-130.5" font-family="Helvetica,sans-Serif" font-size="10.00">optional</text>
</g>
<!-- Node1&#45;&gt;Node3 -->
<g id="edge2" class="edge"><title>Node1&#45;&gt;Node3</title>
<path fill="none" stroke="midnightblue" d="M237.525,-179.444C260.604,-170.478 297.062,-156.314 323.141,-146.183"/>
<polygon fill="midnightblue" stroke="midnightblue" points="324.524,-149.4 332.578,-142.516 321.989,-142.875 324.524,-149.4"/>
</g>
<!-- Node4 -->
<g id="node4" class="node"><title>Node4</title>
<polygon fill="white" stroke="#bfbfbf" points="127.5,-67.5 127.5,-86.5 177.5,-86.5 177.5,-67.5 127.5,-67.5"/>
<text text-anchor="middle" x="152.5" y="-74.5" font-family="Helvetica,sans-Serif" font-size="10.00">variant</text>
</g>
<!-- Node1&#45;&gt;Node4 -->
<g id="edge3" class="edge"><title>Node1&#45;&gt;Node4</title>
<path fill="none" stroke="midnightblue" d="M210.556,-179.368C200.206,-161.296 176.083,-119.176 162.412,-95.3074"/>
<polygon fill="midnightblue" stroke="midnightblue" points="165.428,-93.5295 157.421,-86.5914 159.353,-97.0085 165.428,-93.5295"/>
</g>
<!-- Node5 -->
<g id="node5" class="node"><title>Node5</title>
<polygon fill="white" stroke="#bfbfbf" points="0,-6 0,-25 47,-25 47,-6 0,-6"/>
<text text-anchor="middle" x="23.5" y="-13" font-family="Helvetica,sans-Serif" font-size="10.00">vector</text>
</g>
<!-- Node1&#45;&gt;Node5 -->
<g id="edge4" class="edge"><title>Node1&#45;&gt;Node5</title>
<path fill="none" stroke="midnightblue" d="M187.384,-179.427C148.628,-166.116 79.4065,-136.702 42.5,-87 31.2988,-71.9154 26.699,-50.6653 24.8113,-35.4458"/>
<polygon fill="midnightblue" stroke="midnightblue" points="28.2663,-34.807 23.832,-25.1848 21.298,-35.4721 28.2663,-34.807"/>
</g>
<!-- Node6 -->
<g id="node6" class="node"><title>Node6</title>
<g id="a_node6"><a xlink:href="element_8h.xhtml" target="_top" xlink:title="Helper classes, structs, and properties common to all other classes. ">
<polygon fill="white" stroke="black" points="482,-67.5 482,-86.5 547,-86.5 547,-67.5 482,-67.5"/>
<text text-anchor="middle" x="514.5" y="-74.5" font-family="Helvetica,sans-Serif" font-size="10.00">element.h</text>
</a>
</g>
</g>
<!-- Node1&#45;&gt;Node6 -->
<g id="edge5" class="edge"><title>Node1&#45;&gt;Node6</title>
<path fill="none" stroke="midnightblue" d="M226.126,-179.457C243.948,-165.551 281.465,-138.064 317.5,-123 331.64,-117.089 418.26,-98.2816 471.826,-86.9373"/>
<polygon fill="midnightblue" stroke="midnightblue" points="472.683,-90.3338 481.743,-84.8424 471.236,-83.4849 472.683,-90.3338"/>
</g>
<!-- Node13 -->
<g id="node13" class="node"><title>Node13</title>
<g id="a_node13"><a xlink:href="event_8h.xhtml" target="_top" xlink:title="Contains event classes for fault trees. ">
<polygon fill="white" stroke="black" points="217,-123.5 217,-142.5 270,-142.5 270,-123.5 217,-123.5"/>
<text text-anchor="middle" x="243.5" y="-130.5" font-family="Helvetica,sans-Serif" font-size="10.00">event.h</text>
</a>
</g>
</g>
<!-- Node1&#45;&gt;Node13 -->
<g id="edge13" class="edge"><title>Node1&#45;&gt;Node13</title>
<path fill="none" stroke="midnightblue" d="M220.124,-179.083C223.956,-171.691 229.524,-160.953 234.265,-151.811"/>
<polygon fill="midnightblue" stroke="midnightblue" points="237.466,-153.24 238.962,-142.751 231.252,-150.018 237.466,-153.24"/>
</g>
<!-- Node6&#45;&gt;Node5 -->
<g id="edge8" class="edge"><title>Node6&#45;&gt;Node5</title>
<path fill="none" stroke="midnightblue" d="M481.697,-74.1247C390.816,-68.7155 137.175,-52.1135 56.5,-31 54.2014,-30.3984 51.8587,-29.6563 49.5356,-28.8287"/>
<polygon fill="midnightblue" stroke="midnightblue" points="50.8421,-25.5817 40.2589,-25.085 48.2224,-32.073 50.8421,-25.5817"/>
</g>
<!-- Node7 -->
<g id="node7" class="node"><title>Node7</title>
<polygon fill="white" stroke="#bfbfbf" points="544,-6 544,-25 593,-25 593,-6 544,-6"/>
<text text-anchor="middle" x="568.5" y="-13" font-family="Helvetica,sans-Serif" font-size="10.00">cstdint</text>
</g>
<!-- Node6&#45;&gt;Node7 -->
<g id="edge6" class="edge"><title>Node6&#45;&gt;Node7</title>
<path fill="none" stroke="midnightblue" d="M522.237,-67.4751C530.497,-58.3733 543.777,-43.741 553.994,-32.483"/>
<polygon fill="midnightblue" stroke="midnightblue" points="556.649,-34.7663 560.777,-25.0091 551.465,-30.0619 556.649,-34.7663"/>
</g>
<!-- Node8 -->
<g id="node8" class="node"><title>Node8</title>
<polygon fill="white" stroke="#bfbfbf" points="481.5,-6 481.5,-25 525.5,-25 525.5,-6 481.5,-6"/>
<text text-anchor="middle" x="503.5" y="-13" font-family="Helvetica,sans-Serif" font-size="10.00">string</text>
</g>
<!-- Node6&#45;&gt;Node8 -->
<g id="edge7" class="edge"><title>Node6&#45;&gt;Node8</title>
<path fill="none" stroke="midnightblue" d="M512.924,-67.4751C511.372,-59.0803 508.95,-45.9806 506.95,-35.1631"/>
<polygon fill="midnightblue" stroke="midnightblue" points="510.333,-34.2062 505.073,-25.0091 503.449,-35.4788 510.333,-34.2062"/>
</g>
<!-- Node9 -->
<g id="node9" class="node"><title>Node9</title>
<polygon fill="white" stroke="#bfbfbf" points="611.5,-0.5 611.5,-30.5 751.5,-30.5 751.5,-0.5 611.5,-0.5"/>
<text text-anchor="start" x="619.5" y="-18.5" font-family="Helvetica,sans-Serif" font-size="10.00">boost/multi_index/hashed</text>
<text text-anchor="middle" x="681.5" y="-7.5" font-family="Helvetica,sans-Serif" font-size="10.00">_index.hpp</text>
</g>
<!-- Node6&#45;&gt;Node9 -->
<g id="edge9" class="edge"><title>Node6&#45;&gt;Node9</title>
<path fill="none" stroke="midnightblue" d="M538.427,-67.4751C562.842,-58.7765 601.434,-45.0264 632.388,-33.9981"/>
<polygon fill="midnightblue" stroke="midnightblue" points="633.896,-37.1762 642.141,-30.523 631.547,-30.5823 633.896,-37.1762"/>
</g>
<!-- Node10 -->
<g id="node10" class="node"><title>Node10</title>
<polygon fill="white" stroke="#bfbfbf" points="769.5,-0.5 769.5,-30.5 899.5,-30.5 899.5,-0.5 769.5,-0.5"/>
<text text-anchor="start" x="777.5" y="-18.5" font-family="Helvetica,sans-Serif" font-size="10.00">boost/multi_index/mem</text>
<text text-anchor="middle" x="834.5" y="-7.5" font-family="Helvetica,sans-Serif" font-size="10.00">_fun.hpp</text>
</g>
<!-- Node6&#45;&gt;Node10 -->
<g id="edge10" class="edge"><title>Node6&#45;&gt;Node10</title>
<path fill="none" stroke="midnightblue" d="M547.154,-70.1615C592.453,-62.0325 677.187,-46.7212 759.159,-31.2416"/>
<polygon fill="midnightblue" stroke="midnightblue" points="759.964,-34.6515 769.139,-29.3535 758.662,-27.7735 759.964,-34.6515"/>
</g>
<!-- Node11 -->
<g id="node11" class="node"><title>Node11</title>
<polygon fill="white" stroke="#bfbfbf" points="917.5,-6 917.5,-25 1089.5,-25 1089.5,-6 917.5,-6"/>
<text text-anchor="middle" x="1003.5" y="-13" font-family="Helvetica,sans-Serif" font-size="10.00">boost/multi_index_container.hpp</text>
</g>
<!-- Node6&#45;&gt;Node11 -->
<g id="edge11" class="edge"><title>Node6&#45;&gt;Node11</title>
<path fill="none" stroke="midnightblue" d="M547.242,-72.6828C614.846,-65.7405 774.743,-48.8397 908.5,-31 918.651,-29.6461 929.396,-28.1078 939.867,-26.5514"/>
<polygon fill="midnightblue" stroke="midnightblue" points="940.424,-30.007 949.793,-25.0591 939.384,-23.0848 940.424,-30.007"/>
</g>
<!-- Node12 -->
<g id="node12" class="node"><title>Node12</title>
<polygon fill="white" stroke="#bfbfbf" points="335.5,-6 335.5,-25 463.5,-25 463.5,-6 335.5,-6"/>
<text text-anchor="middle" x="399.5" y="-13" font-family="Helvetica,sans-Serif" font-size="10.00">boost/noncopyable.hpp</text>
</g>
<!-- Node6&#45;&gt;Node12 -->
<g id="edge12" class="edge"><title>Node6&#45;&gt;Node12</title>
<path fill="none" stroke="midnightblue" d="M498.023,-67.4751C478.895,-57.578 447.127,-41.1416 424.848,-29.6151"/>
<polygon fill="midnightblue" stroke="midnightblue" points="426.436,-26.4958 415.946,-25.0091 423.219,-32.713 426.436,-26.4958"/>
</g>
<!-- Node13&#45;&gt;Node2 -->
<g id="edge15" class="edge"><title>Node13&#45;&gt;Node2</title>
<path fill="none" stroke="midnightblue" d="M217.672,-123.444C190.251,-114.359 146.723,-99.9388 116.068,-89.7831"/>
<polygon fill="midnightblue" stroke="midnightblue" points="116.8,-86.3389 106.207,-86.5164 114.599,-92.9837 116.8,-86.3389"/>
</g>
<!-- Node13&#45;&gt;Node4 -->
<g id="edge18" class="edge"><title>Node13&#45;&gt;Node4</title>
<path fill="none" stroke="midnightblue" d="M228.879,-123.324C214.551,-114.822 192.487,-101.729 175.751,-91.7975"/>
<polygon fill="midnightblue" stroke="midnightblue" points="177.47,-88.7478 167.084,-86.6545 173.898,-94.7677 177.47,-88.7478"/>
</g>
<!-- Node13&#45;&gt;Node5 -->
<g id="edge19" class="edge"><title>Node13&#45;&gt;Node5</title>
<path fill="none" stroke="midnightblue" d="M238.349,-123.407C229.521,-109.429 210.145,-81.8413 186.5,-67 135.722,-35.128 112.979,-51.1106 56.5,-31 54.8383,-30.4083 53.1424,-29.7711 51.4401,-29.1056"/>
<polygon fill="midnightblue" stroke="midnightblue" points="52.3894,-25.71 41.8119,-25.1044 49.7031,-32.174 52.3894,-25.71"/>
</g>
<!-- Node13&#45;&gt;Node6 -->
<g id="edge21" class="edge"><title>Node13&#45;&gt;Node6</title>
<path fill="none" stroke="midnightblue" d="M270.387,-126.006C275.087,-124.984 279.933,-123.948 284.5,-123 319.66,-115.702 415.681,-97.0744 471.918,-86.2102"/>
<polygon fill="midnightblue" stroke="midnightblue" points="472.777,-89.609 481.932,-84.2765 471.45,-82.736 472.777,-89.609"/>
</g>
<!-- Node13&#45;&gt;Node7 -->
<g id="edge14" class="edge"><title>Node13&#45;&gt;Node7</title>
<path fill="none" stroke="midnightblue" d="M270.03,-124.493C271.88,-123.983 273.717,-123.482 275.5,-123 337.109,-106.36 354.366,-108.364 414.5,-87 461.254,-70.3894 513.28,-45.0468 543.316,-29.6999"/>
<polygon fill="midnightblue" stroke="midnightblue" points="544.973,-32.7831 552.26,-25.0921 541.768,-26.5603 544.973,-32.7831"/>
</g>
<!-- Node13&#45;&gt;Node8 -->
<g id="edge16" class="edge"><title>Node13&#45;&gt;Node8</title>
<path fill="none" stroke="midnightblue" d="M270.104,-124.999C298.152,-117.22 343.336,-103.548 380.5,-87 417.619,-70.4719 458.015,-45.943 482.025,-30.6055"/>
<polygon fill="midnightblue" stroke="midnightblue" points="484.169,-33.3869 490.674,-25.0237 480.374,-27.5053 484.169,-33.3869"/>
</g>
<!-- Node13&#45;&gt;Node12 -->
<g id="edge20" class="edge"><title>Node13&#45;&gt;Node12</title>
<path fill="none" stroke="midnightblue" d="M270.043,-126.725C294.94,-120.664 332.052,-108.642 357.5,-87 374.078,-72.9017 385.826,-50.5279 392.605,-34.7735"/>
<polygon fill="midnightblue" stroke="midnightblue" points="396.009,-35.6906 396.503,-25.1073 389.517,-33.0726 396.009,-35.6906"/>
</g>
<!-- Node14 -->
<g id="node14" class="node"><title>Node14</title>
<polygon fill="white" stroke="#bfbfbf" points="65.5,-6 65.5,-25 107.5,-25 107.5,-6 65.5,-6"/>
<text text-anchor="middle" x="86.5" y="-13" font-family="Helvetica,sans-Serif" font-size="10.00">utility</text>
</g>
<!-- Node13&#45;&gt;Node14 -->
<g id="edge17" class="edge"><title>Node13&#45;&gt;Node14</title>
<path fill="none" stroke="midnightblue" d="M242.619,-123.149C240.779,-109.306 235.287,-82.5139 219.5,-67 184.912,-33.0107 161.292,-49.5816 116.5,-31 115.298,-30.5013 114.075,-29.9782 112.845,-29.4389"/>
<polygon fill="midnightblue" stroke="midnightblue" points="114.028,-26.1301 103.481,-25.1225 111.097,-32.4873 114.028,-26.1301"/>
</g>
<!-- Node15 -->
<g id="node15" class="node"><title>Node15</title>
<g id="a_node15"><a xlink:href="expression_8h.xhtml" target="_top" xlink:title="Provides the base class for all expressions and units for expression values. ">
<polygon fill="white" stroke="black" points="272,-67.5 272,-86.5 349,-86.5 349,-67.5 272,-67.5"/>
<text text-anchor="middle" x="310.5" y="-74.5" font-family="Helvetica,sans-Serif" font-size="10.00">expression.h</text>
</a>
</g>
</g>
<!-- Node13&#45;&gt;Node15 -->
<g id="edge22" class="edge"><title>Node13&#45;&gt;Node15</title>
<path fill="none" stroke="midnightblue" d="M254.265,-123.324C264.266,-115.263 279.387,-103.077 291.43,-93.3695"/>
<polygon fill="midnightblue" stroke="midnightblue" points="293.95,-95.8343 299.539,-86.8339 289.557,-90.3841 293.95,-95.8343"/>
</g>
<!-- Node15&#45;&gt;Node5 -->
<g id="edge26" class="edge"><title>Node15&#45;&gt;Node5</title>
<path fill="none" stroke="midnightblue" d="M271.965,-72.0726C221.61,-66.287 131.065,-53.6312 56.5,-31 54.5688,-30.4139 52.6005,-29.7453 50.6351,-29.0244"/>
<polygon fill="midnightblue" stroke="midnightblue" points="51.5991,-25.6385 41.0168,-25.1225 48.9676,-32.1251 51.5991,-25.6385"/>
</g>
<!-- Node15&#45;&gt;Node8 -->
<g id="edge24" class="edge"><title>Node15&#45;&gt;Node8</title>
<path fill="none" stroke="midnightblue" d="M348.055,-67.4527C381.253,-59.454 430.749,-46.4406 472.5,-31 473.928,-30.4719 475.381,-29.9042 476.839,-29.3102"/>
<polygon fill="midnightblue" stroke="midnightblue" points="478.583,-32.3673 486.337,-25.1478 475.773,-25.9559 478.583,-32.3673"/>
</g>
<!-- Node15&#45;&gt;Node12 -->
<g id="edge28" class="edge"><title>Node15&#45;&gt;Node12</title>
<path fill="none" stroke="midnightblue" d="M323.252,-67.4751C337.527,-57.9315 360.897,-42.3073 378.008,-30.8683"/>
<polygon fill="midnightblue" stroke="midnightblue" points="380.404,-33.4766 386.772,-25.0091 376.514,-27.6572 380.404,-33.4766"/>
</g>
<!-- Node15&#45;&gt;Node14 -->
<g id="edge25" class="edge"><title>Node15&#45;&gt;Node14</title>
<path fill="none" stroke="midnightblue" d="M271.855,-68.1001C223.84,-58.0997 144.786,-40.9764 116.5,-31 114.887,-30.4312 113.247,-29.8004 111.607,-29.1295"/>
<polygon fill="midnightblue" stroke="midnightblue" points="112.967,-25.9038 102.411,-25.0012 110.1,-32.2898 112.967,-25.9038"/>
</g>
<!-- Node16 -->
<g id="node16" class="node"><title>Node16</title>
<polygon fill="white" stroke="#bfbfbf" points="255.5,-6 255.5,-25 317.5,-25 317.5,-6 255.5,-6"/>
<text text-anchor="middle" x="286.5" y="-13" font-family="Helvetica,sans-Serif" font-size="10.00">algorithm</text>
</g>
<!-- Node15&#45;&gt;Node16 -->
<g id="edge23" class="edge"><title>Node15&#45;&gt;Node16</title>
<path fill="none" stroke="midnightblue" d="M307.061,-67.4751C303.604,-58.9035 298.168,-45.4269 293.754,-34.483"/>
<polygon fill="midnightblue" stroke="midnightblue" points="296.919,-32.9738 289.932,-25.0091 290.427,-35.5924 296.919,-32.9738"/>
</g>
<!-- Node17 -->
<g id="node17" class="node"><title>Node17</title>
<polygon fill="white" stroke="#bfbfbf" points="125.5,-0.5 125.5,-30.5 237.5,-30.5 237.5,-0.5 125.5,-0.5"/>
<text text-anchor="start" x="133.5" y="-18.5" font-family="Helvetica,sans-Serif" font-size="10.00">boost/icl/continuous</text>
<text text-anchor="middle" x="181.5" y="-7.5" font-family="Helvetica,sans-Serif" font-size="10.00">_interval.hpp</text>
</g>
<!-- Node15&#45;&gt;Node17 -->
<g id="edge27" class="edge"><title>Node15&#45;&gt;Node17</title>
<path fill="none" stroke="midnightblue" d="M292.017,-67.4751C273.566,-58.9648 244.633,-45.6193 220.998,-34.718"/>
<polygon fill="midnightblue" stroke="midnightblue" points="222.449,-31.5332 211.903,-30.523 219.517,-37.8896 222.449,-31.5332"/>
</g>
</g>
</svg>
        <g id="navigator" transform="translate(0 0)" fill="#404254">
                <rect fill="#f2f5e9" fill-opacity="0.5" stroke="#606060" stroke-width=".5" x="0" y="0" width="60" height="60"/>
                <use id="zoomplus" xlink:href="#zoomPlus" x="17" y="9" onmousedown="handleZoom(evt,'in')"/>
                <use id="zoomminus" xlink:href="#zoomMin" x="42" y="9" onmousedown="handleZoom(evt,'out')"/>
                <use id="reset" xlink:href="#resetDef" x="30" y="36" onmousedown="handleReset()"/>
                <g id="arrowUp" xlink:href="#dirArrow" transform="translate(30 24)" onmousedown="handlePan(0,-1)">
                  <use xlink:href="#rim" fill="#404040">
                        <set attributeName="fill" to="#808080" begin="arrowUp.mouseover" end="arrowUp.mouseout"/>
                  </use>
                  <path fill="none" stroke="white" stroke-width="1.5" d="M0,-3.0v7 M-2.5,-0.5L0,-3.0L2.5,-0.5"/>
                </g>
                <g id="arrowRight" xlink:href="#dirArrow" transform="rotate(90) translate(36 -43)" onmousedown="handlePan(1,0)">
                  <use xlink:href="#rim" fill="#404040">
                        <set attributeName="fill" to="#808080" begin="arrowRight.mouseover" end="arrowRight.mouseout"/>
                  </use>
                  <path fill="none" stroke="white" stroke-width="1.5" d="M0,-3.0v7 M-2.5,-0.5L0,-3.0L2.5,-0.5"/>
                </g>
                <g id="arrowDown" xlink:href="#dirArrow" transform="rotate(180) translate(-30 -48)" onmousedown="handlePan(0,1)">
                  <use xlink:href="#rim" fill="#404040">
                        <set attributeName="fill" to="#808080" begin="arrowDown.mouseover" end="arrowDown.mouseout"/>
                  </use>
                  <path fill="none" stroke="white" stroke-width="1.5" d="M0,-3.0v7 M-2.5,-0.5L0,-3.0L2.5,-0.5"/>
                </g>
                <g id="arrowLeft" xlink:href="#dirArrow" transform="rotate(270) translate(-36 17)" onmousedown="handlePan(-1,0)">
                  <use xlink:href="#rim" fill="#404040">
                        <set attributeName="fill" to="#808080" begin="arrowLeft.mouseover" end="arrowLeft.mouseout"/>
                  </use>
                  <path fill="none" stroke="white" stroke-width="1.5" d="M0,-3.0v7 M-2.5,-0.5L0,-3.0L2.5,-0.5"/>
                </g>
        </g>
        <svg viewBox="0 0 15 15" width="100%" height="30px" preserveAspectRatio="xMaxYMin meet">
         <g id="arrow_out" transform="scale(0.3 0.3)">
          <a xlink:href="substitution_8h__incl_org.svg" target="_base">
           <rect id="button" ry="5" rx="5" y="6" x="6" height="38" width="38"
                fill="#f2f5e9" fill-opacity="0.5" stroke="#606060" stroke-width="1.0"/>
           <path id="arrow"
             d="M 11.500037,31.436501 C 11.940474,20.09759 22.043105,11.32322 32.158766,21.979434 L 37.068811,17.246167 C 37.068811,17.246167 37.088388,32 37.088388,32 L 22.160133,31.978069 C 22.160133,31.978069 26.997745,27.140456 26.997745,27.140456 C 18.528582,18.264221 13.291696,25.230495 11.500037,31.436501 z"
             style="fill:#404040;"/>
          </a>
         </g>
        </svg>
</svg>
