<?xml version="1.0" encoding="UTF-8" standalone="no"?>
<!DOCTYPE svg PUBLIC "-//W3C//DTD SVG 1.1//EN"
 "http://www.w3.org/Graphics/SVG/1.1/DTD/svg11.dtd">
<!-- Generated by graphviz version 2.38.0 (20140413.2041)
 -->
<!-- Title: version.cc.in Pages: 1 -->
<svg width="314pt" height="84pt"
 viewBox="0.00 0.00 314.00 84.00" xmlns="http://www.w3.org/2000/svg" xmlns:xlink="http://www.w3.org/1999/xlink">
<g id="graph0" class="graph" transform="scale(1 1) rotate(0) translate(4 80)">
<title>version.cc.in</title>
<polygon fill="white" stroke="none" points="-4,4 -4,-80 310,-80 310,4 -4,4"/>
<!-- Node1 -->
<g id="node1" class="node"><title>Node1</title>
<polygon fill="#bfbfbf" stroke="black" points="91,-56.5 91,-75.5 167,-75.5 167,-56.5 91,-56.5"/>
<text text-anchor="middle" x="129" y="-63.5" font-family="Helvetica,sans-Serif" font-size="10.00">version.cc.in</text>
</g>
<!-- Node2 -->
<g id="node2" class="node"><title>Node2</title>
<g id="a_node2"><a xlink:href="version_8h.xhtml" target="_top" xlink:title="Set of functions with version information of the core and dependencies. ">
<polygon fill="white" stroke="black" points="0,-0.5 0,-19.5 60,-19.5 60,-0.5 0,-0.5"/>
<text text-anchor="middle" x="30" y="-7.5" font-family="Helvetica,sans-Serif" font-size="10.00">version.h</text>
</a>
</g>
</g>
<!-- Node1&#45;&gt;Node2 -->
<g id="edge1" class="edge"><title>Node1&#45;&gt;Node2</title>
<path fill="none" stroke="midnightblue" d="M113.094,-56.324C97.3618,-47.7428 73.0577,-34.486 54.7911,-24.5224"/>
<polygon fill="midnightblue" stroke="midnightblue" points="56.3216,-21.3704 45.8666,-19.6545 52.9696,-27.5157 56.3216,-21.3704"/>
</g>
<!-- Node3 -->
<g id="node3" class="node"><title>Node3</title>
<polygon fill="white" stroke="#bfbfbf" points="78,-0.5 78,-19.5 180,-19.5 180,-0.5 78,-0.5"/>
<text text-anchor="middle" x="129" y="-7.5" font-family="Helvetica,sans-Serif" font-size="10.00">boost/version.hpp</text>
</g>
<!-- Node1&#45;&gt;Node3 -->
<g id="edge2" class="edge"><title>Node1&#45;&gt;Node3</title>
<path fill="none" stroke="midnightblue" d="M129,-56.083C129,-49.0059 129,-38.8611 129,-29.9865"/>
<polygon fill="midnightblue" stroke="midnightblue" points="132.5,-29.751 129,-19.7511 125.5,-29.7511 132.5,-29.751"/>
</g>
<!-- Node4 -->
<g id="node4" class="node"><title>Node4</title>
<polygon fill="white" stroke="#bfbfbf" points="198,-0.5 198,-19.5 306,-19.5 306,-0.5 198,-0.5"/>
<text text-anchor="middle" x="252" y="-7.5" font-family="Helvetica,sans-Serif" font-size="10.00">libxml/xmlversion.h</text>
</g>
<!-- Node1&#45;&gt;Node4 -->
<g id="edge3" class="edge"><title>Node1&#45;&gt;Node4</title>
<path fill="none" stroke="midnightblue" d="M148.49,-56.4435C168.642,-47.5961 200.323,-33.6875 223.331,-23.5865"/>
<polygon fill="midnightblue" stroke="midnightblue" points="224.852,-26.7411 232.601,-19.5164 222.038,-20.3316 224.852,-26.7411"/>
</g>
</g>
</svg>
