<?xml version="1.0" encoding="UTF-8" standalone="no"?>
<!DOCTYPE svg PUBLIC "-//W3C//DTD SVG 1.1//EN"
 "http://www.w3.org/Graphics/SVG/1.1/DTD/svg11.dtd">
<!-- Generated by graphviz version 2.38.0 (20140413.2041)
 -->
<!-- Title: xml_stream.h Pages: 1 -->
<svg width="892pt" height="151pt"
 viewBox="0.00 0.00 892.00 151.00" xmlns="http://www.w3.org/2000/svg" xmlns:xlink="http://www.w3.org/1999/xlink">
<g id="graph0" class="graph" transform="scale(1 1) rotate(0) translate(4 147)">
<title>xml_stream.h</title>
<polygon fill="white" stroke="none" points="-4,4 -4,-147 888,-147 888,4 -4,4"/>
<!-- Node1 -->
<g id="node1" class="node"><title>Node1</title>
<polygon fill="#bfbfbf" stroke="black" points="182.5,-123.5 182.5,-142.5 265.5,-142.5 265.5,-123.5 182.5,-123.5"/>
<text text-anchor="middle" x="224" y="-130.5" font-family="Helvetica,sans-Serif" font-size="10.00">xml_stream.h</text>
</g>
<!-- Node2 -->
<g id="node2" class="node"><title>Node2</title>
<polygon fill="white" stroke="#bfbfbf" points="0,-62 0,-81 52,-81 52,-62 0,-62"/>
<text text-anchor="middle" x="26" y="-69" font-family="Helvetica,sans-Serif" font-size="10.00">cassert</text>
</g>
<!-- Node1&#45;&gt;Node2 -->
<g id="edge1" class="edge"><title>Node1&#45;&gt;Node2</title>
<path fill="none" stroke="midnightblue" d="M187.999,-123.42C154.71,-115.168 104.033,-101.791 61,-87 59.0873,-86.3426 57.1292,-85.6339 55.164,-84.8958"/>
<polygon fill="midnightblue" stroke="midnightblue" points="56.0452,-81.4806 45.4587,-81.0603 53.4724,-87.9907 56.0452,-81.4806"/>
</g>
<!-- Node3 -->
<g id="node3" class="node"><title>Node3</title>
<polygon fill="white" stroke="#bfbfbf" points="70.5,-62 70.5,-81 115.5,-81 115.5,-62 70.5,-62"/>
<text text-anchor="middle" x="93" y="-69" font-family="Helvetica,sans-Serif" font-size="10.00">cstdio</text>
</g>
<!-- Node1&#45;&gt;Node3 -->
<g id="edge2" class="edge"><title>Node1&#45;&gt;Node3</title>
<path fill="none" stroke="midnightblue" d="M205.231,-123.475C183.149,-113.445 146.281,-96.7002 120.861,-85.1546"/>
<polygon fill="midnightblue" stroke="midnightblue" points="122.287,-81.9579 111.734,-81.0091 119.392,-88.3313 122.287,-81.9579"/>
</g>
<!-- Node4 -->
<g id="node4" class="node"><title>Node4</title>
<polygon fill="white" stroke="#bfbfbf" points="134,-62 134,-81 196,-81 196,-62 134,-62"/>
<text text-anchor="middle" x="165" y="-69" font-family="Helvetica,sans-Serif" font-size="10.00">algorithm</text>
</g>
<!-- Node1&#45;&gt;Node4 -->
<g id="edge3" class="edge"><title>Node1&#45;&gt;Node4</title>
<path fill="none" stroke="midnightblue" d="M215.547,-123.475C206.434,-114.285 191.73,-99.4563 180.524,-88.156"/>
<polygon fill="midnightblue" stroke="midnightblue" points="182.964,-85.6455 173.438,-81.0091 177.993,-90.5744 182.964,-85.6455"/>
</g>
<!-- Node5 -->
<g id="node5" class="node"><title>Node5</title>
<polygon fill="white" stroke="#bfbfbf" points="144.5,-0.5 144.5,-19.5 207.5,-19.5 207.5,-0.5 144.5,-0.5"/>
<text text-anchor="middle" x="176" y="-7.5" font-family="Helvetica,sans-Serif" font-size="10.00">exception</text>
</g>
<!-- Node1&#45;&gt;Node5 -->
<g id="edge4" class="edge"><title>Node1&#45;&gt;Node5</title>
<path fill="none" stroke="midnightblue" d="M222.77,-123.267C220.528,-108.815 215.054,-79.2133 205,-56 200.76,-46.2093 194.491,-36.1506 188.865,-28.0329"/>
<polygon fill="midnightblue" stroke="midnightblue" points="191.621,-25.8701 182.93,-19.8104 185.945,-29.9672 191.621,-25.8701"/>
</g>
<!-- Node6 -->
<g id="node6" class="node"><title>Node6</title>
<polygon fill="white" stroke="#bfbfbf" points="226,-0.5 226,-19.5 270,-19.5 270,-0.5 226,-0.5"/>
<text text-anchor="middle" x="248" y="-7.5" font-family="Helvetica,sans-Serif" font-size="10.00">string</text>
</g>
<!-- Node1&#45;&gt;Node6 -->
<g id="edge5" class="edge"><title>Node1&#45;&gt;Node6</title>
<path fill="none" stroke="midnightblue" d="M227.126,-123.49C230.305,-114.528 235.156,-99.946 238,-87 242.232,-67.7341 244.916,-45.3008 246.425,-29.8261"/>
<polygon fill="midnightblue" stroke="midnightblue" points="249.943,-29.7911 247.357,-19.5166 242.971,-29.1609 249.943,-29.7911"/>
</g>
<!-- Node7 -->
<g id="node7" class="node"><title>Node7</title>
<polygon fill="white" stroke="#bfbfbf" points="383.5,-56.5 383.5,-86.5 510.5,-86.5 510.5,-56.5 383.5,-56.5"/>
<text text-anchor="start" x="391.5" y="-74.5" font-family="Helvetica,sans-Serif" font-size="10.00">boost/exception/errinfo</text>
<text text-anchor="middle" x="447" y="-63.5" font-family="Helvetica,sans-Serif" font-size="10.00">_errno.hpp</text>
</g>
<!-- Node1&#45;&gt;Node7 -->
<g id="edge6" class="edge"><title>Node1&#45;&gt;Node7</title>
<path fill="none" stroke="midnightblue" d="M255.95,-123.475C289.399,-114.551 342.776,-100.309 384.618,-89.1444"/>
<polygon fill="midnightblue" stroke="midnightblue" points="385.684,-92.4827 394.443,-86.523 383.879,-85.7193 385.684,-92.4827"/>
</g>
<!-- Node8 -->
<g id="node8" class="node"><title>Node8</title>
<g id="a_node8"><a xlink:href="error_8h.xhtml" target="_top" xlink:title="Exceptions for SCRAM. ">
<polygon fill="white" stroke="black" points="317,-62 317,-81 365,-81 365,-62 317,-62"/>
<text text-anchor="middle" x="341" y="-69" font-family="Helvetica,sans-Serif" font-size="10.00">error.h</text>
</a>
</g>
</g>
<!-- Node1&#45;&gt;Node8 -->
<g id="edge7" class="edge"><title>Node1&#45;&gt;Node8</title>
<path fill="none" stroke="midnightblue" d="M240.763,-123.475C260.225,-113.578 292.545,-97.1416 315.211,-85.6151"/>
<polygon fill="midnightblue" stroke="midnightblue" points="316.941,-88.6619 324.268,-81.0091 313.768,-82.4224 316.941,-88.6619"/>
</g>
<!-- Node8&#45;&gt;Node5 -->
<g id="edge8" class="edge"><title>Node8&#45;&gt;Node5</title>
<path fill="none" stroke="midnightblue" d="M317.36,-61.9751C289.056,-51.7687 241.467,-34.608 209.414,-23.0492"/>
<polygon fill="midnightblue" stroke="midnightblue" points="210.191,-19.6089 199.597,-19.5091 207.816,-26.1939 210.191,-19.6089"/>
</g>
<!-- Node8&#45;&gt;Node6 -->
<g id="edge9" class="edge"><title>Node8&#45;&gt;Node6</title>
<path fill="none" stroke="midnightblue" d="M327.675,-61.9751C312.62,-52.3431 287.884,-36.5175 269.963,-25.0517"/>
<polygon fill="midnightblue" stroke="midnightblue" points="271.61,-21.9501 261.3,-19.5091 267.837,-27.8466 271.61,-21.9501"/>
</g>
<!-- Node9 -->
<g id="node9" class="node"><title>Node9</title>
<polygon fill="white" stroke="#bfbfbf" points="556,-0.5 556,-19.5 702,-19.5 702,-0.5 556,-0.5"/>
<text text-anchor="middle" x="629" y="-7.5" font-family="Helvetica,sans-Serif" font-size="10.00">boost/current_function.hpp</text>
</g>
<!-- Node8&#45;&gt;Node9 -->
<g id="edge10" class="edge"><title>Node8&#45;&gt;Node9</title>
<path fill="none" stroke="midnightblue" d="M358.516,-61.8752C363.436,-59.7099 368.85,-57.5613 374,-56 430.147,-38.9796 495.32,-27.6178 545.724,-20.5688"/>
<polygon fill="midnightblue" stroke="midnightblue" points="546.49,-23.9966 555.923,-19.1728 545.541,-17.0612 546.49,-23.9966"/>
</g>
<!-- Node10 -->
<g id="node10" class="node"><title>Node10</title>
<polygon fill="white" stroke="#bfbfbf" points="720,-0.5 720,-19.5 884,-19.5 884,-0.5 720,-0.5"/>
<text text-anchor="middle" x="802" y="-7.5" font-family="Helvetica,sans-Serif" font-size="10.00">boost/exception/exception.hpp</text>
</g>
<!-- Node8&#45;&gt;Node10 -->
<g id="edge11" class="edge"><title>Node8&#45;&gt;Node10</title>
<path fill="none" stroke="midnightblue" d="M357.765,-61.9384C362.862,-59.6655 368.556,-57.4445 374,-56 382.045,-53.8653 586.365,-32.8889 709.748,-20.3427"/>
<polygon fill="midnightblue" stroke="midnightblue" points="710.361,-23.7985 719.955,-19.3051 709.653,-16.8344 710.361,-23.7985"/>
</g>
<!-- Node11 -->
<g id="node11" class="node"><title>Node11</title>
<polygon fill="white" stroke="#bfbfbf" points="288,-0.5 288,-19.5 422,-19.5 422,-0.5 288,-0.5"/>
<text text-anchor="middle" x="355" y="-7.5" font-family="Helvetica,sans-Serif" font-size="10.00">boost/exception/info.hpp</text>
</g>
<!-- Node8&#45;&gt;Node11 -->
<g id="edge12" class="edge"><title>Node8&#45;&gt;Node11</title>
<path fill="none" stroke="midnightblue" d="M343.006,-61.9751C345.002,-53.4919 348.128,-40.2043 350.689,-29.3222"/>
<polygon fill="midnightblue" stroke="midnightblue" points="354.114,-30.0449 352.998,-19.5091 347.3,-28.4416 354.114,-30.0449"/>
</g>
<!-- Node12 -->
<g id="node12" class="node"><title>Node12</title>
<g id="a_node12"><a xlink:href="source__info_8h.xhtml" target="_top" xlink:title="Helper facilities to get source file information. ">
<polygon fill="white" stroke="black" points="440,-0.5 440,-19.5 538,-19.5 538,-0.5 440,-0.5"/>
<text text-anchor="middle" x="489" y="-7.5" font-family="Helvetica,sans-Serif" font-size="10.00">ext/source_info.h</text>
</a>
</g>
</g>
<!-- Node8&#45;&gt;Node12 -->
<g id="edge13" class="edge"><title>Node8&#45;&gt;Node12</title>
<path fill="none" stroke="midnightblue" d="M360.138,-61.9324C364.667,-59.9487 369.492,-57.8715 374,-56 401.895,-44.4198 433.913,-31.9576 457.07,-23.0908"/>
<polygon fill="midnightblue" stroke="midnightblue" points="458.32,-26.3602 466.414,-19.524 455.823,-19.8205 458.32,-26.3602"/>
</g>
</g>
</svg>
