<?xml version="1.0" encoding="UTF-8" standalone="no"?>
<!DOCTYPE svg PUBLIC "-//W3C//DTD SVG 1.1//EN"
 "http://www.w3.org/Graphics/SVG/1.1/DTD/svg11.dtd">
<!-- Generated by graphviz version 2.38.0 (20140413.2041)
 -->
<!-- Title: xml.h Pages: 1 -->
<svg width="2232pt" height="151pt"
 viewBox="0.00 0.00 2231.50 151.00" xmlns="http://www.w3.org/2000/svg" xmlns:xlink="http://www.w3.org/1999/xlink">
<g id="graph0" class="graph" transform="scale(1 1) rotate(0) translate(4 147)">
<title>xml.h</title>
<polygon fill="white" stroke="none" points="-4,4 -4,-147 2227.5,-147 2227.5,4 -4,4"/>
<!-- Node1 -->
<g id="node1" class="node"><title>Node1</title>
<polygon fill="#bfbfbf" stroke="black" points="673,-123.5 673,-142.5 716,-142.5 716,-123.5 673,-123.5"/>
<text text-anchor="middle" x="694.5" y="-130.5" font-family="Helvetica,sans-Serif" font-size="10.00">xml.h</text>
</g>
<!-- Node2 -->
<g id="node2" class="node"><title>Node2</title>
<polygon fill="white" stroke="#bfbfbf" points="0,-62 0,-81 47,-81 47,-62 0,-62"/>
<text text-anchor="middle" x="23.5" y="-69" font-family="Helvetica,sans-Serif" font-size="10.00">cmath</text>
</g>
<!-- Node1&#45;&gt;Node2 -->
<g id="edge1" class="edge"><title>Node1&#45;&gt;Node2</title>
<path fill="none" stroke="midnightblue" d="M672.703,-131.499C574.922,-129.093 176.251,-117.56 55.5,-87 53.2901,-86.4407 51.0433,-85.7357 48.8177,-84.9393"/>
<polygon fill="midnightblue" stroke="midnightblue" points="49.953,-81.6214 39.3745,-81.0329 47.2771,-88.0898 49.953,-81.6214"/>
</g>
<!-- Node3 -->
<g id="node3" class="node"><title>Node3</title>
<polygon fill="white" stroke="#bfbfbf" points="65,-62 65,-81 114,-81 114,-62 65,-62"/>
<text text-anchor="middle" x="89.5" y="-69" font-family="Helvetica,sans-Serif" font-size="10.00">cstdint</text>
</g>
<!-- Node1&#45;&gt;Node3 -->
<g id="edge2" class="edge"><title>Node1&#45;&gt;Node3</title>
<path fill="none" stroke="midnightblue" d="M672.894,-131.267C581.928,-128.032 229.855,-113.984 122.5,-87 120.144,-86.4079 117.745,-85.6621 115.368,-84.8227"/>
<polygon fill="midnightblue" stroke="midnightblue" points="116.486,-81.4996 105.903,-81 113.865,-87.9902 116.486,-81.4996"/>
</g>
<!-- Node4 -->
<g id="node4" class="node"><title>Node4</title>
<polygon fill="white" stroke="#bfbfbf" points="132,-62 132,-81 179,-81 179,-62 132,-62"/>
<text text-anchor="middle" x="155.5" y="-69" font-family="Helvetica,sans-Serif" font-size="10.00">cstdlib</text>
</g>
<!-- Node1&#45;&gt;Node4 -->
<g id="edge3" class="edge"><title>Node1&#45;&gt;Node4</title>
<path fill="none" stroke="midnightblue" d="M672.871,-132.554C602.071,-133.848 371.305,-133.94 188.5,-87 186.199,-86.4091 183.854,-85.6744 181.53,-84.8518"/>
<polygon fill="midnightblue" stroke="midnightblue" points="182.834,-81.6041 172.251,-81.1167 180.22,-88.0978 182.834,-81.6041"/>
</g>
<!-- Node5 -->
<g id="node5" class="node"><title>Node5</title>
<polygon fill="white" stroke="#bfbfbf" points="197.5,-62 197.5,-81 249.5,-81 249.5,-62 197.5,-62"/>
<text text-anchor="middle" x="223.5" y="-69" font-family="Helvetica,sans-Serif" font-size="10.00">iterator</text>
</g>
<!-- Node1&#45;&gt;Node5 -->
<g id="edge4" class="edge"><title>Node1&#45;&gt;Node5</title>
<path fill="none" stroke="midnightblue" d="M672.793,-131.964C608.489,-131.391 413.79,-126.289 258.5,-87 255.989,-86.3648 253.423,-85.582 250.878,-84.7119"/>
<polygon fill="midnightblue" stroke="midnightblue" points="251.916,-81.3616 241.325,-81.0522 249.411,-87.8983 251.916,-81.3616"/>
</g>
<!-- Node6 -->
<g id="node6" class="node"><title>Node6</title>
<polygon fill="white" stroke="#bfbfbf" points="267.5,-62 267.5,-81 309.5,-81 309.5,-62 267.5,-62"/>
<text text-anchor="middle" x="288.5" y="-69" font-family="Helvetica,sans-Serif" font-size="10.00">limits</text>
</g>
<!-- Node1&#45;&gt;Node6 -->
<g id="edge5" class="edge"><title>Node1&#45;&gt;Node6</title>
<path fill="none" stroke="midnightblue" d="M672.803,-131.886C614.338,-131.053 449.112,-125.219 318.5,-87 316.626,-86.4517 314.725,-85.7959 312.836,-85.0706"/>
<polygon fill="midnightblue" stroke="midnightblue" points="314.243,-81.8658 303.68,-81.0393 311.422,-88.2723 314.243,-81.8658"/>
</g>
<!-- Node7 -->
<g id="node7" class="node"><title>Node7</title>
<polygon fill="white" stroke="#bfbfbf" points="328,-62 328,-81 385,-81 385,-62 328,-62"/>
<text text-anchor="middle" x="356.5" y="-69" font-family="Helvetica,sans-Serif" font-size="10.00">memory</text>
</g>
<!-- Node1&#45;&gt;Node7 -->
<g id="edge6" class="edge"><title>Node1&#45;&gt;Node7</title>
<path fill="none" stroke="midnightblue" d="M672.998,-130.455C623.147,-126.515 496.108,-114.4 393.5,-87 390.842,-86.2902 388.114,-85.4498 385.403,-84.5366"/>
<polygon fill="midnightblue" stroke="midnightblue" points="386.405,-81.1758 375.811,-81.014 383.992,-87.7467 386.405,-81.1758"/>
</g>
<!-- Node8 -->
<g id="node8" class="node"><title>Node8</title>
<polygon fill="white" stroke="#bfbfbf" points="403,-62 403,-81 458,-81 458,-62 403,-62"/>
<text text-anchor="middle" x="430.5" y="-69" font-family="Helvetica,sans-Serif" font-size="10.00">optional</text>
</g>
<!-- Node1&#45;&gt;Node8 -->
<g id="edge7" class="edge"><title>Node1&#45;&gt;Node8</title>
<path fill="none" stroke="midnightblue" d="M672.847,-128.592C632.877,-122.084 544.966,-106.76 472.5,-87 469.472,-86.1743 466.345,-85.2448 463.228,-84.2653"/>
<polygon fill="midnightblue" stroke="midnightblue" points="464.029,-80.8438 453.436,-81.0325 461.834,-87.491 464.029,-80.8438"/>
</g>
<!-- Node9 -->
<g id="node9" class="node"><title>Node9</title>
<polygon fill="white" stroke="#bfbfbf" points="973.5,-0.5 973.5,-19.5 1017.5,-19.5 1017.5,-0.5 973.5,-0.5"/>
<text text-anchor="middle" x="995.5" y="-7.5" font-family="Helvetica,sans-Serif" font-size="10.00">string</text>
</g>
<!-- Node1&#45;&gt;Node9 -->
<g id="edge8" class="edge"><title>Node1&#45;&gt;Node9</title>
<path fill="none" stroke="midnightblue" d="M672.69,-130.777C613.179,-126.705 455.681,-110.603 505.5,-56 536.329,-22.2103 858.529,-13.462 962.998,-11.5053"/>
<polygon fill="midnightblue" stroke="midnightblue" points="963.313,-15.0003 973.249,-11.3222 963.188,-8.00142 963.313,-15.0003"/>
</g>
<!-- Node10 -->
<g id="node10" class="node"><title>Node10</title>
<polygon fill="white" stroke="#bfbfbf" points="515,-62 515,-81 584,-81 584,-62 515,-62"/>
<text text-anchor="middle" x="549.5" y="-69" font-family="Helvetica,sans-Serif" font-size="10.00">string_view</text>
</g>
<!-- Node1&#45;&gt;Node10 -->
<g id="edge9" class="edge"><title>Node1&#45;&gt;Node10</title>
<path fill="none" stroke="midnightblue" d="M673.725,-123.475C649.068,-113.357 607.755,-96.4046 579.598,-84.8507"/>
<polygon fill="midnightblue" stroke="midnightblue" points="580.817,-81.5674 570.236,-81.0091 578.159,-88.0434 580.817,-81.5674"/>
</g>
<!-- Node11 -->
<g id="node11" class="node"><title>Node11</title>
<polygon fill="white" stroke="#bfbfbf" points="602.5,-62 602.5,-81 670.5,-81 670.5,-62 602.5,-62"/>
<text text-anchor="middle" x="636.5" y="-69" font-family="Helvetica,sans-Serif" font-size="10.00">type_traits</text>
</g>
<!-- Node1&#45;&gt;Node11 -->
<g id="edge10" class="edge"><title>Node1&#45;&gt;Node11</title>
<path fill="none" stroke="midnightblue" d="M686.19,-123.475C677.318,-114.373 663.054,-99.741 652.08,-88.483"/>
<polygon fill="midnightblue" stroke="midnightblue" points="654.281,-85.7268 644.795,-81.0091 649.269,-90.613 654.281,-85.7268"/>
</g>
<!-- Node12 -->
<g id="node12" class="node"><title>Node12</title>
<polygon fill="white" stroke="#bfbfbf" points="689,-56.5 689,-86.5 816,-86.5 816,-56.5 689,-56.5"/>
<text text-anchor="start" x="697" y="-74.5" font-family="Helvetica,sans-Serif" font-size="10.00">boost/exception/errinfo</text>
<text text-anchor="middle" x="752.5" y="-63.5" font-family="Helvetica,sans-Serif" font-size="10.00">_at_line.hpp</text>
</g>
<!-- Node1&#45;&gt;Node12 -->
<g id="edge11" class="edge"><title>Node1&#45;&gt;Node12</title>
<path fill="none" stroke="midnightblue" d="M702.81,-123.475C710.298,-115.793 721.627,-104.172 731.577,-93.9643"/>
<polygon fill="midnightblue" stroke="midnightblue" points="734.357,-96.1268 738.831,-86.523 729.344,-91.2407 734.357,-96.1268"/>
</g>
<!-- Node13 -->
<g id="node13" class="node"><title>Node13</title>
<polygon fill="white" stroke="#bfbfbf" points="834,-56.5 834,-86.5 961,-86.5 961,-56.5 834,-56.5"/>
<text text-anchor="start" x="842" y="-74.5" font-family="Helvetica,sans-Serif" font-size="10.00">boost/exception/errinfo</text>
<text text-anchor="middle" x="897.5" y="-63.5" font-family="Helvetica,sans-Serif" font-size="10.00">_errno.hpp</text>
</g>
<!-- Node1&#45;&gt;Node13 -->
<g id="edge12" class="edge"><title>Node1&#45;&gt;Node13</title>
<path fill="none" stroke="midnightblue" d="M716.225,-125.632C745.484,-117.056 798.637,-101.477 839.849,-89.3976"/>
<polygon fill="midnightblue" stroke="midnightblue" points="840.901,-92.7368 849.512,-86.5653 838.932,-86.0194 840.901,-92.7368"/>
</g>
<!-- Node14 -->
<g id="node14" class="node"><title>Node14</title>
<polygon fill="white" stroke="#bfbfbf" points="979,-56.5 979,-86.5 1106,-86.5 1106,-56.5 979,-56.5"/>
<text text-anchor="start" x="987" y="-74.5" font-family="Helvetica,sans-Serif" font-size="10.00">boost/exception/errinfo</text>
<text text-anchor="middle" x="1042.5" y="-63.5" font-family="Helvetica,sans-Serif" font-size="10.00">_file_name.hpp</text>
</g>
<!-- Node1&#45;&gt;Node14 -->
<g id="edge13" class="edge"><title>Node1&#45;&gt;Node14</title>
<path fill="none" stroke="midnightblue" d="M716.019,-128.77C761.043,-121.952 868.69,-105.343 968.934,-87.2493"/>
<polygon fill="midnightblue" stroke="midnightblue" points="969.707,-90.6663 978.921,-85.4371 968.457,-83.7788 969.707,-90.6663"/>
</g>
<!-- Node15 -->
<g id="node15" class="node"><title>Node15</title>
<polygon fill="white" stroke="#bfbfbf" points="1124,-56.5 1124,-86.5 1251,-86.5 1251,-56.5 1124,-56.5"/>
<text text-anchor="start" x="1132" y="-74.5" font-family="Helvetica,sans-Serif" font-size="10.00">boost/exception/errinfo</text>
<text text-anchor="middle" x="1187.5" y="-63.5" font-family="Helvetica,sans-Serif" font-size="10.00">_file_open_mode.hpp</text>
</g>
<!-- Node1&#45;&gt;Node15 -->
<g id="edge14" class="edge"><title>Node1&#45;&gt;Node15</title>
<path fill="none" stroke="midnightblue" d="M716.059,-130.402C776.982,-125.739 955.756,-111.03 1114.04,-87.1409"/>
<polygon fill="midnightblue" stroke="midnightblue" points="1114.6,-90.5966 1123.95,-85.6283 1113.54,-83.6767 1114.6,-90.5966"/>
</g>
<!-- Node16 -->
<g id="node16" class="node"><title>Node16</title>
<polygon fill="white" stroke="#bfbfbf" points="1269.5,-56.5 1269.5,-86.5 1389.5,-86.5 1389.5,-56.5 1269.5,-56.5"/>
<text text-anchor="start" x="1277.5" y="-74.5" font-family="Helvetica,sans-Serif" font-size="10.00">boost/iterator/iterator</text>
<text text-anchor="middle" x="1329.5" y="-63.5" font-family="Helvetica,sans-Serif" font-size="10.00">_facade.hpp</text>
</g>
<!-- Node1&#45;&gt;Node16 -->
<g id="edge15" class="edge"><title>Node1&#45;&gt;Node16</title>
<path fill="none" stroke="midnightblue" d="M716.202,-131.273C790.558,-128.576 1041.99,-117.729 1259.37,-87.0375"/>
<polygon fill="midnightblue" stroke="midnightblue" points="1259.97,-90.4883 1269.37,-85.6083 1258.98,-83.5587 1259.97,-90.4883"/>
</g>
<!-- Node17 -->
<g id="node17" class="node"><title>Node17</title>
<polygon fill="white" stroke="#bfbfbf" points="1408,-56.5 1408,-86.5 1523,-86.5 1523,-56.5 1408,-56.5"/>
<text text-anchor="start" x="1416" y="-74.5" font-family="Helvetica,sans-Serif" font-size="10.00">boost/range/adaptor</text>
<text text-anchor="middle" x="1465.5" y="-63.5" font-family="Helvetica,sans-Serif" font-size="10.00">/filtered.hpp</text>
</g>
<!-- Node1&#45;&gt;Node17 -->
<g id="edge16" class="edge"><title>Node1&#45;&gt;Node17</title>
<path fill="none" stroke="midnightblue" d="M716.223,-131.791C801.722,-130.722 1123.35,-124.393 1397.71,-86.9498"/>
<polygon fill="midnightblue" stroke="midnightblue" points="1398.43,-90.3833 1407.85,-85.5473 1397.47,-83.4492 1398.43,-90.3833"/>
</g>
<!-- Node18 -->
<g id="node18" class="node"><title>Node18</title>
<polygon fill="white" stroke="#bfbfbf" points="1541.5,-62 1541.5,-81 1627.5,-81 1627.5,-62 1541.5,-62"/>
<text text-anchor="middle" x="1584.5" y="-69" font-family="Helvetica,sans-Serif" font-size="10.00">libxml/parser.h</text>
</g>
<!-- Node1&#45;&gt;Node18 -->
<g id="edge17" class="edge"><title>Node1&#45;&gt;Node18</title>
<path fill="none" stroke="midnightblue" d="M716.122,-131.478C830.758,-128.615 1368.42,-113.949 1532.5,-87 1537.68,-86.1484 1543.09,-84.9744 1548.38,-83.6601"/>
<polygon fill="midnightblue" stroke="midnightblue" points="1549.54,-86.9722 1558.3,-81.0074 1547.73,-80.2098 1549.54,-86.9722"/>
</g>
<!-- Node19 -->
<g id="node19" class="node"><title>Node19</title>
<polygon fill="white" stroke="#bfbfbf" points="1645.5,-62 1645.5,-81 1737.5,-81 1737.5,-62 1645.5,-62"/>
<text text-anchor="middle" x="1691.5" y="-69" font-family="Helvetica,sans-Serif" font-size="10.00">libxml/relaxng.h</text>
</g>
<!-- Node1&#45;&gt;Node19 -->
<g id="edge18" class="edge"><title>Node1&#45;&gt;Node19</title>
<path fill="none" stroke="midnightblue" d="M716.319,-131.58C839.657,-129.114 1450.61,-115.619 1636.5,-87 1642.11,-86.136 1647.98,-84.9287 1653.7,-83.5757"/>
<polygon fill="midnightblue" stroke="midnightblue" points="1654.93,-86.8757 1663.76,-81.026 1653.21,-80.0903 1654.93,-86.8757"/>
</g>
<!-- Node20 -->
<g id="node20" class="node"><title>Node20</title>
<polygon fill="white" stroke="#bfbfbf" points="1755.5,-62 1755.5,-81 1831.5,-81 1831.5,-62 1755.5,-62"/>
<text text-anchor="middle" x="1793.5" y="-69" font-family="Helvetica,sans-Serif" font-size="10.00">libxml/tree.h</text>
</g>
<!-- Node1&#45;&gt;Node20 -->
<g id="edge19" class="edge"><title>Node1&#45;&gt;Node20</title>
<path fill="none" stroke="midnightblue" d="M716.257,-131.828C847.807,-130.674 1538.21,-122.968 1746.5,-87 1750.98,-86.2271 1755.62,-85.1495 1760.17,-83.9271"/>
<polygon fill="midnightblue" stroke="midnightblue" points="1761.27,-87.2532 1769.88,-81.082 1759.3,-80.5357 1761.27,-87.2532"/>
</g>
<!-- Node21 -->
<g id="node21" class="node"><title>Node21</title>
<g id="a_node21"><a xlink:href="error_8h.xhtml" target="_top" xlink:title="Exceptions for SCRAM. ">
<polygon fill="white" stroke="black" points="1849.5,-62 1849.5,-81 1897.5,-81 1897.5,-62 1849.5,-62"/>
<text text-anchor="middle" x="1873.5" y="-69" font-family="Helvetica,sans-Serif" font-size="10.00">error.h</text>
</a>
</g>
</g>
<!-- Node1&#45;&gt;Node21 -->
<g id="edge20" class="edge"><title>Node1&#45;&gt;Node21</title>
<path fill="none" stroke="midnightblue" d="M716.397,-131.632C865.341,-129.062 1727.12,-113.144 1840.5,-87 1842.87,-86.4543 1845.27,-85.7407 1847.66,-84.9228"/>
<polygon fill="midnightblue" stroke="midnightblue" points="1849.14,-88.0975 1857.13,-81.1353 1846.54,-81.5977 1849.14,-88.0975"/>
</g>
<!-- Node21&#45;&gt;Node9 -->
<g id="edge22" class="edge"><title>Node21&#45;&gt;Node9</title>
<path fill="none" stroke="midnightblue" d="M1857.12,-61.9129C1851.94,-59.5802 1846.1,-57.3327 1840.5,-56 1681.87,-18.2543 1162.96,-12.1333 1027.88,-11.1731"/>
<polygon fill="midnightblue" stroke="midnightblue" points="1027.79,-7.67249 1017.77,-11.1059 1027.74,-14.6723 1027.79,-7.67249"/>
</g>
<!-- Node22 -->
<g id="node22" class="node"><title>Node22</title>
<polygon fill="white" stroke="#bfbfbf" points="1546,-0.5 1546,-19.5 1609,-19.5 1609,-0.5 1546,-0.5"/>
<text text-anchor="middle" x="1577.5" y="-7.5" font-family="Helvetica,sans-Serif" font-size="10.00">exception</text>
</g>
<!-- Node21&#45;&gt;Node22 -->
<g id="edge21" class="edge"><title>Node21&#45;&gt;Node22</title>
<path fill="none" stroke="midnightblue" d="M1856.34,-61.9788C1851.33,-59.762 1845.78,-57.5609 1840.5,-56 1747.64,-28.5538 1718.5,-38.0703 1619.09,-19.989"/>
<polygon fill="midnightblue" stroke="midnightblue" points="1619.72,-16.5459 1609.25,-18.1509 1618.44,-23.427 1619.72,-16.5459"/>
</g>
<!-- Node23 -->
<g id="node23" class="node"><title>Node23</title>
<polygon fill="white" stroke="#bfbfbf" points="1627.5,-0.5 1627.5,-19.5 1773.5,-19.5 1773.5,-0.5 1627.5,-0.5"/>
<text text-anchor="middle" x="1700.5" y="-7.5" font-family="Helvetica,sans-Serif" font-size="10.00">boost/current_function.hpp</text>
</g>
<!-- Node21&#45;&gt;Node23 -->
<g id="edge23" class="edge"><title>Node21&#45;&gt;Node23</title>
<path fill="none" stroke="midnightblue" d="M1854.79,-61.8803C1850.16,-59.857 1845.18,-57.7753 1840.5,-56 1807.02,-43.3006 1768.19,-31.0074 1739.93,-22.4882"/>
<polygon fill="midnightblue" stroke="midnightblue" points="1740.61,-19.0385 1730.03,-19.5265 1738.61,-25.745 1740.61,-19.0385"/>
</g>
<!-- Node24 -->
<g id="node24" class="node"><title>Node24</title>
<polygon fill="white" stroke="#bfbfbf" points="1791.5,-0.5 1791.5,-19.5 1955.5,-19.5 1955.5,-0.5 1791.5,-0.5"/>
<text text-anchor="middle" x="1873.5" y="-7.5" font-family="Helvetica,sans-Serif" font-size="10.00">boost/exception/exception.hpp</text>
</g>
<!-- Node21&#45;&gt;Node24 -->
<g id="edge24" class="edge"><title>Node21&#45;&gt;Node24</title>
<path fill="none" stroke="midnightblue" d="M1873.5,-61.9751C1873.5,-53.5803 1873.5,-40.4806 1873.5,-29.6631"/>
<polygon fill="midnightblue" stroke="midnightblue" points="1877,-29.5091 1873.5,-19.5091 1870,-29.5091 1877,-29.5091"/>
</g>
<!-- Node25 -->
<g id="node25" class="node"><title>Node25</title>
<polygon fill="white" stroke="#bfbfbf" points="1973.5,-0.5 1973.5,-19.5 2107.5,-19.5 2107.5,-0.5 1973.5,-0.5"/>
<text text-anchor="middle" x="2040.5" y="-7.5" font-family="Helvetica,sans-Serif" font-size="10.00">boost/exception/info.hpp</text>
</g>
<!-- Node21&#45;&gt;Node25 -->
<g id="edge25" class="edge"><title>Node21&#45;&gt;Node25</title>
<path fill="none" stroke="midnightblue" d="M1897.43,-61.9751C1926.2,-51.7246 1974.66,-34.4593 2007.1,-22.8994"/>
<polygon fill="midnightblue" stroke="midnightblue" points="2008.37,-26.1624 2016.62,-19.5091 2006.02,-19.5684 2008.37,-26.1624"/>
</g>
<!-- Node26 -->
<g id="node26" class="node"><title>Node26</title>
<g id="a_node26"><a xlink:href="source__info_8h.xhtml" target="_top" xlink:title="Helper facilities to get source file information. ">
<polygon fill="white" stroke="black" points="2125.5,-0.5 2125.5,-19.5 2223.5,-19.5 2223.5,-0.5 2125.5,-0.5"/>
<text text-anchor="middle" x="2174.5" y="-7.5" font-family="Helvetica,sans-Serif" font-size="10.00">ext/source_info.h</text>
</a>
</g>
</g>
<!-- Node21&#45;&gt;Node26 -->
<g id="edge26" class="edge"><title>Node21&#45;&gt;Node26</title>
<path fill="none" stroke="midnightblue" d="M1897.62,-65.7314C1945.89,-56.1903 2055.36,-34.5509 2121.27,-21.5213"/>
<polygon fill="midnightblue" stroke="midnightblue" points="2122.33,-24.8801 2131.46,-19.5072 2120.97,-18.013 2122.33,-24.8801"/>
</g>
</g>
</svg>
