<?xml version="1.0" encoding="UTF-8" standalone="no"?>
<!DOCTYPE svg PUBLIC "-//W3C//DTD SVG 1.1//EN"
 "http://www.w3.org/Graphics/SVG/1.1/DTD/svg11.dtd">
<!-- Generated by graphviz version 2.38.0 (20140413.2041)
 -->
<!-- Title: xml.h Pages: 1 -->
<svg width="254pt" height="140pt"
 viewBox="0.00 0.00 254.00 140.00" xmlns="http://www.w3.org/2000/svg" xmlns:xlink="http://www.w3.org/1999/xlink">
<g id="graph0" class="graph" transform="scale(1 1) rotate(0) translate(4 136)">
<title>xml.h</title>
<polygon fill="white" stroke="none" points="-4,4 -4,-136 250,-136 250,4 -4,4"/>
<!-- Node1 -->
<g id="node1" class="node"><title>Node1</title>
<polygon fill="#bfbfbf" stroke="black" points="126,-112.5 126,-131.5 169,-131.5 169,-112.5 126,-112.5"/>
<text text-anchor="middle" x="147.5" y="-119.5" font-family="Helvetica,sans-Serif" font-size="10.00">xml.h</text>
</g>
<!-- Node2 -->
<g id="node2" class="node"><title>Node2</title>
<g id="a_node2"><a xlink:href="config_8h.xhtml" target="_top" xlink:title="Configuration management facilities to make various setups for analysis possible. ...">
<polygon fill="white" stroke="black" points="41.5,-56.5 41.5,-75.5 95.5,-75.5 95.5,-56.5 41.5,-56.5"/>
<text text-anchor="middle" x="68.5" y="-63.5" font-family="Helvetica,sans-Serif" font-size="10.00">config.h</text>
</a>
</g>
</g>
<!-- Node1&#45;&gt;Node2 -->
<g id="edge1" class="edge"><title>Node1&#45;&gt;Node2</title>
<path fill="none" stroke="midnightblue" d="M126.466,-106.622C112.034,-96.7574 93.3585,-83.9919 81.1612,-75.6545"/>
<polygon fill="midnightblue" stroke="midnightblue" points="124.577,-109.57 134.807,-112.324 128.527,-103.791 124.577,-109.57"/>
</g>
<!-- Node5 -->
<g id="node5" class="node"><title>Node5</title>
<g id="a_node5"><a xlink:href="initializer_8h.xhtml" target="_top" xlink:title="A facility that processes input files into analysis constructs. ">
<polygon fill="white" stroke="black" points="114,-56.5 114,-75.5 181,-75.5 181,-56.5 114,-56.5"/>
<text text-anchor="middle" x="147.5" y="-63.5" font-family="Helvetica,sans-Serif" font-size="10.00">initializer.h</text>
</a>
</g>
</g>
<!-- Node1&#45;&gt;Node5 -->
<g id="edge4" class="edge"><title>Node1&#45;&gt;Node5</title>
<path fill="none" stroke="midnightblue" d="M147.5,-101.805C147.5,-92.9102 147.5,-82.7798 147.5,-75.7511"/>
<polygon fill="midnightblue" stroke="midnightblue" points="144,-102.083 147.5,-112.083 151,-102.083 144,-102.083"/>
</g>
<!-- Node7 -->
<g id="node7" class="node"><title>Node7</title>
<g id="a_node7"><a xlink:href="xml_8cc.xhtml" target="_top" xlink:title="XML facility expensive wrappers implemented out&#45;of&#45;line. ">
<polygon fill="white" stroke="black" points="199,-56.5 199,-75.5 246,-75.5 246,-56.5 199,-56.5"/>
<text text-anchor="middle" x="222.5" y="-63.5" font-family="Helvetica,sans-Serif" font-size="10.00">xml.cc</text>
</a>
</g>
</g>
<!-- Node1&#45;&gt;Node7 -->
<g id="edge7" class="edge"><title>Node1&#45;&gt;Node7</title>
<path fill="none" stroke="midnightblue" d="M167.805,-106.38C181.361,-96.6204 198.742,-84.1057 210.231,-75.8339"/>
<polygon fill="midnightblue" stroke="midnightblue" points="165.62,-103.641 159.55,-112.324 169.71,-109.321 165.62,-103.641"/>
</g>
<!-- Node3 -->
<g id="node3" class="node"><title>Node3</title>
<g id="a_node3"><a xlink:href="config_8cc.xhtml" target="_top" xlink:title="Implementation of configuration facilities. ">
<polygon fill="white" stroke="black" points="0,-0.5 0,-19.5 59,-19.5 59,-0.5 0,-0.5"/>
<text text-anchor="middle" x="29.5" y="-7.5" font-family="Helvetica,sans-Serif" font-size="10.00">config.cc</text>
</a>
</g>
</g>
<!-- Node2&#45;&gt;Node3 -->
<g id="edge2" class="edge"><title>Node2&#45;&gt;Node3</title>
<path fill="none" stroke="midnightblue" d="M56.1178,-47.8554C49.3646,-38.5048 41.2914,-27.3265 35.8202,-19.7511"/>
<polygon fill="midnightblue" stroke="midnightblue" points="53.3676,-50.0254 62.0599,-56.083 59.0424,-45.927 53.3676,-50.0254"/>
</g>
<!-- Node4 -->
<g id="node4" class="node"><title>Node4</title>
<g id="a_node4"><a xlink:href="scram_8cc.xhtml" target="_top" xlink:title="Main entrance. ">
<polygon fill="white" stroke="black" points="77.5,-0.5 77.5,-19.5 137.5,-19.5 137.5,-0.5 77.5,-0.5"/>
<text text-anchor="middle" x="107.5" y="-7.5" font-family="Helvetica,sans-Serif" font-size="10.00">scram.cc</text>
</a>
</g>
</g>
<!-- Node2&#45;&gt;Node4 -->
<g id="edge3" class="edge"><title>Node2&#45;&gt;Node4</title>
<path fill="none" stroke="midnightblue" d="M80.8822,-47.8554C87.6354,-38.5048 95.7086,-27.3265 101.18,-19.7511"/>
<polygon fill="midnightblue" stroke="midnightblue" points="77.9576,-45.927 74.9401,-56.083 83.6324,-50.0254 77.9576,-45.927"/>
</g>
<!-- Node5&#45;&gt;Node4 -->
<g id="edge6" class="edge"><title>Node5&#45;&gt;Node4</title>
<path fill="none" stroke="midnightblue" d="M134.8,-47.8554C127.874,-38.5048 119.594,-27.3265 113.982,-19.7511"/>
<polygon fill="midnightblue" stroke="midnightblue" points="132.13,-50.1307 140.895,-56.083 137.755,-45.9641 132.13,-50.1307"/>
</g>
<!-- Node6 -->
<g id="node6" class="node"><title>Node6</title>
<g id="a_node6"><a xlink:href="initializer_8cc.xhtml" target="_top" xlink:title="Implementation of input file processing into analysis constructs. ">
<polygon fill="white" stroke="black" points="156,-0.5 156,-19.5 227,-19.5 227,-0.5 156,-0.5"/>
<text text-anchor="middle" x="191.5" y="-7.5" font-family="Helvetica,sans-Serif" font-size="10.00">initializer.cc</text>
</a>
</g>
</g>
<!-- Node5&#45;&gt;Node6 -->
<g id="edge5" class="edge"><title>Node5&#45;&gt;Node6</title>
<path fill="none" stroke="midnightblue" d="M161.235,-48.144C168.901,-38.7357 178.133,-27.4046 184.369,-19.7511"/>
<polygon fill="midnightblue" stroke="midnightblue" points="158.369,-46.1198 154.766,-56.083 163.796,-50.5415 158.369,-46.1198"/>
</g>
</g>
</svg>
