<?xml version="1.0" encoding="UTF-8" standalone="no"?>
<!DOCTYPE svg PUBLIC "-//W3C//DTD SVG 1.1//EN"
 "http://www.w3.org/Graphics/SVG/1.1/DTD/svg11.dtd">
<!-- Generated by graphviz version 2.38.0 (20140413.2041)
 -->
<!-- Title: xml.cc Pages: 1 -->
<!--zoomable 207 -->
<svg id="main" version="1.1" xmlns="http://www.w3.org/2000/svg" xmlns:xlink="http://www.w3.org/1999/xlink" xml:space="preserve" onload="init(evt)">
<style type="text/css"><![CDATA[
.edge:hover path { stroke: red; }
.edge:hover polygon { stroke: red; fill: red; }
]]></style>
<script type="text/javascript"><![CDATA[
var edges = document.getElementsByTagName('g');
if (edges && edges.length) {
  for (var i=0;i<edges.length;i++) {
    if (edges[i].id.substr(0,4)=='edge') {
      edges[i].setAttribute('class','edge');
    }
  }
}
]]></script>
        <defs>
                <circle id="rim" cx="0" cy="0" r="7"/>
                <circle id="rim2" cx="0" cy="0" r="3.5"/>
                <g id="zoomPlus">
                        <use xlink:href="#rim" fill="#404040">
                                <set attributeName="fill" to="#808080" begin="zoomplus.mouseover" end="zoomplus.mouseout"/>
                        </use>
                        <path d="M-4,0h8M0,-4v8" fill="none" stroke="white" stroke-width="1.5" pointer-events="none"/>
                </g>
                <g id="zoomMin">
                        <use xlink:href="#rim" fill="#404040">
                                <set attributeName="fill" to="#808080" begin="zoomminus.mouseover" end="zoomminus.mouseout"/>
                        </use>
                        <path d="M-4,0h8" fill="none" stroke="white" stroke-width="1.5" pointer-events="none"/>
                </g>
                <g id="dirArrow">
                        <path fill="none" stroke="white" stroke-width="1.5" d="M0,-3.0v7 M-2.5,-0.5L0,-3.0L2.5,-0.5"/>
                </g>
               <g id="resetDef">
                       <use xlink:href="#rim2" fill="#404040">
                               <set attributeName="fill" to="#808080" begin="reset.mouseover" end="reset.mouseout"/>
                       </use>
               </g>
        </defs>

<script type="text/javascript">
var viewWidth = 2232;
var viewHeight = 207;
var sectionId = 'dynsection-0';
</script>
<script xlink:href="svgpan.js"/>
<svg id="graph" class="graph">
<g id="viewport">
<title>xml.cc</title>
<polygon fill="white" stroke="none" points="-4,4 -4,-203 2227.5,-203 2227.5,4 -4,4"/>
<!-- Node1 -->
<g id="node1" class="node"><title>Node1</title>
<polygon fill="#bfbfbf" stroke="black" points="714,-179.5 714,-198.5 761,-198.5 761,-179.5 714,-179.5"/>
<text text-anchor="middle" x="737.5" y="-186.5" font-family="Helvetica,sans-Serif" font-size="10.00">xml.cc</text>
</g>
<!-- Node2 -->
<g id="node2" class="node"><title>Node2</title>
<g id="a_node2"><a xlink:href="xml_8h.xhtml" target="_top" xlink:title="XML helper facilities to work with libxml2. ">
<polygon fill="white" stroke="black" points="673,-123.5 673,-142.5 716,-142.5 716,-123.5 673,-123.5"/>
<text text-anchor="middle" x="694.5" y="-130.5" font-family="Helvetica,sans-Serif" font-size="10.00">xml.h</text>
</a>
</g>
</g>
<!-- Node1&#45;&gt;Node2 -->
<g id="edge1" class="edge"><title>Node1&#45;&gt;Node2</title>
<path fill="none" stroke="midnightblue" d="M730.399,-179.083C724.263,-171.377 715.23,-160.033 707.761,-150.653"/>
<polygon fill="midnightblue" stroke="midnightblue" points="710.436,-148.394 701.468,-142.751 704.96,-152.754 710.436,-148.394"/>
</g>
<!-- Node28 -->
<g id="node28" class="node"><title>Node28</title>
<polygon fill="white" stroke="#bfbfbf" points="734,-123.5 734,-142.5 829,-142.5 829,-123.5 734,-123.5"/>
<text text-anchor="middle" x="781.5" y="-130.5" font-family="Helvetica,sans-Serif" font-size="10.00">libxml/xinclude.h</text>
</g>
<!-- Node1&#45;&gt;Node28 -->
<g id="edge28" class="edge"><title>Node1&#45;&gt;Node28</title>
<path fill="none" stroke="midnightblue" d="M744.766,-179.083C751.045,-171.377 760.288,-160.033 767.931,-150.653"/>
<polygon fill="midnightblue" stroke="midnightblue" points="770.766,-152.714 774.369,-142.751 765.339,-148.293 770.766,-152.714"/>
</g>
<!-- Node3 -->
<g id="node3" class="node"><title>Node3</title>
<polygon fill="white" stroke="#bfbfbf" points="0,-62 0,-81 47,-81 47,-62 0,-62"/>
<text text-anchor="middle" x="23.5" y="-69" font-family="Helvetica,sans-Serif" font-size="10.00">cmath</text>
</g>
<!-- Node2&#45;&gt;Node3 -->
<g id="edge2" class="edge"><title>Node2&#45;&gt;Node3</title>
<path fill="none" stroke="midnightblue" d="M672.703,-131.499C574.922,-129.093 176.251,-117.56 55.5,-87 53.2901,-86.4407 51.0433,-85.7357 48.8177,-84.9393"/>
<polygon fill="midnightblue" stroke="midnightblue" points="49.953,-81.6214 39.3745,-81.0329 47.2771,-88.0898 49.953,-81.6214"/>
</g>
<!-- Node4 -->
<g id="node4" class="node"><title>Node4</title>
<polygon fill="white" stroke="#bfbfbf" points="65,-62 65,-81 114,-81 114,-62 65,-62"/>
<text text-anchor="middle" x="89.5" y="-69" font-family="Helvetica,sans-Serif" font-size="10.00">cstdint</text>
</g>
<!-- Node2&#45;&gt;Node4 -->
<g id="edge3" class="edge"><title>Node2&#45;&gt;Node4</title>
<path fill="none" stroke="midnightblue" d="M672.894,-131.267C581.928,-128.032 229.855,-113.984 122.5,-87 120.144,-86.4079 117.745,-85.6621 115.368,-84.8227"/>
<polygon fill="midnightblue" stroke="midnightblue" points="116.486,-81.4996 105.903,-81 113.865,-87.9902 116.486,-81.4996"/>
</g>
<!-- Node5 -->
<g id="node5" class="node"><title>Node5</title>
<polygon fill="white" stroke="#bfbfbf" points="132,-62 132,-81 179,-81 179,-62 132,-62"/>
<text text-anchor="middle" x="155.5" y="-69" font-family="Helvetica,sans-Serif" font-size="10.00">cstdlib</text>
</g>
<!-- Node2&#45;&gt;Node5 -->
<g id="edge4" class="edge"><title>Node2&#45;&gt;Node5</title>
<path fill="none" stroke="midnightblue" d="M672.871,-132.554C602.071,-133.848 371.305,-133.94 188.5,-87 186.199,-86.4091 183.854,-85.6744 181.53,-84.8518"/>
<polygon fill="midnightblue" stroke="midnightblue" points="182.834,-81.6041 172.251,-81.1167 180.22,-88.0978 182.834,-81.6041"/>
</g>
<!-- Node6 -->
<g id="node6" class="node"><title>Node6</title>
<polygon fill="white" stroke="#bfbfbf" points="197.5,-62 197.5,-81 249.5,-81 249.5,-62 197.5,-62"/>
<text text-anchor="middle" x="223.5" y="-69" font-family="Helvetica,sans-Serif" font-size="10.00">iterator</text>
</g>
<!-- Node2&#45;&gt;Node6 -->
<g id="edge5" class="edge"><title>Node2&#45;&gt;Node6</title>
<path fill="none" stroke="midnightblue" d="M672.793,-131.964C608.489,-131.391 413.79,-126.289 258.5,-87 255.989,-86.3648 253.423,-85.582 250.878,-84.7119"/>
<polygon fill="midnightblue" stroke="midnightblue" points="251.916,-81.3616 241.325,-81.0522 249.411,-87.8983 251.916,-81.3616"/>
</g>
<!-- Node7 -->
<g id="node7" class="node"><title>Node7</title>
<polygon fill="white" stroke="#bfbfbf" points="267.5,-62 267.5,-81 309.5,-81 309.5,-62 267.5,-62"/>
<text text-anchor="middle" x="288.5" y="-69" font-family="Helvetica,sans-Serif" font-size="10.00">limits</text>
</g>
<!-- Node2&#45;&gt;Node7 -->
<g id="edge6" class="edge"><title>Node2&#45;&gt;Node7</title>
<path fill="none" stroke="midnightblue" d="M672.803,-131.886C614.338,-131.053 449.112,-125.219 318.5,-87 316.626,-86.4517 314.725,-85.7959 312.836,-85.0706"/>
<polygon fill="midnightblue" stroke="midnightblue" points="314.243,-81.8658 303.68,-81.0393 311.422,-88.2723 314.243,-81.8658"/>
</g>
<!-- Node8 -->
<g id="node8" class="node"><title>Node8</title>
<polygon fill="white" stroke="#bfbfbf" points="328,-62 328,-81 385,-81 385,-62 328,-62"/>
<text text-anchor="middle" x="356.5" y="-69" font-family="Helvetica,sans-Serif" font-size="10.00">memory</text>
</g>
<!-- Node2&#45;&gt;Node8 -->
<g id="edge7" class="edge"><title>Node2&#45;&gt;Node8</title>
<path fill="none" stroke="midnightblue" d="M672.998,-130.455C623.147,-126.515 496.108,-114.4 393.5,-87 390.842,-86.2902 388.114,-85.4498 385.403,-84.5366"/>
<polygon fill="midnightblue" stroke="midnightblue" points="386.405,-81.1758 375.811,-81.014 383.992,-87.7467 386.405,-81.1758"/>
</g>
<!-- Node9 -->
<g id="node9" class="node"><title>Node9</title>
<polygon fill="white" stroke="#bfbfbf" points="403,-62 403,-81 458,-81 458,-62 403,-62"/>
<text text-anchor="middle" x="430.5" y="-69" font-family="Helvetica,sans-Serif" font-size="10.00">optional</text>
</g>
<!-- Node2&#45;&gt;Node9 -->
<g id="edge8" class="edge"><title>Node2&#45;&gt;Node9</title>
<path fill="none" stroke="midnightblue" d="M672.847,-128.592C632.877,-122.084 544.966,-106.76 472.5,-87 469.472,-86.1743 466.345,-85.2448 463.228,-84.2653"/>
<polygon fill="midnightblue" stroke="midnightblue" points="464.029,-80.8438 453.436,-81.0325 461.834,-87.491 464.029,-80.8438"/>
</g>
<!-- Node10 -->
<g id="node10" class="node"><title>Node10</title>
<polygon fill="white" stroke="#bfbfbf" points="973.5,-0.5 973.5,-19.5 1017.5,-19.5 1017.5,-0.5 973.5,-0.5"/>
<text text-anchor="middle" x="995.5" y="-7.5" font-family="Helvetica,sans-Serif" font-size="10.00">string</text>
</g>
<!-- Node2&#45;&gt;Node10 -->
<g id="edge9" class="edge"><title>Node2&#45;&gt;Node10</title>
<path fill="none" stroke="midnightblue" d="M672.69,-130.777C613.179,-126.705 455.681,-110.603 505.5,-56 536.329,-22.2103 858.529,-13.462 962.998,-11.5053"/>
<polygon fill="midnightblue" stroke="midnightblue" points="963.313,-15.0003 973.249,-11.3222 963.188,-8.00142 963.313,-15.0003"/>
</g>
<!-- Node11 -->
<g id="node11" class="node"><title>Node11</title>
<polygon fill="white" stroke="#bfbfbf" points="515,-62 515,-81 584,-81 584,-62 515,-62"/>
<text text-anchor="middle" x="549.5" y="-69" font-family="Helvetica,sans-Serif" font-size="10.00">string_view</text>
</g>
<!-- Node2&#45;&gt;Node11 -->
<g id="edge10" class="edge"><title>Node2&#45;&gt;Node11</title>
<path fill="none" stroke="midnightblue" d="M673.725,-123.475C649.068,-113.357 607.755,-96.4046 579.598,-84.8507"/>
<polygon fill="midnightblue" stroke="midnightblue" points="580.817,-81.5674 570.236,-81.0091 578.159,-88.0434 580.817,-81.5674"/>
</g>
<!-- Node12 -->
<g id="node12" class="node"><title>Node12</title>
<polygon fill="white" stroke="#bfbfbf" points="602.5,-62 602.5,-81 670.5,-81 670.5,-62 602.5,-62"/>
<text text-anchor="middle" x="636.5" y="-69" font-family="Helvetica,sans-Serif" font-size="10.00">type_traits</text>
</g>
<!-- Node2&#45;&gt;Node12 -->
<g id="edge11" class="edge"><title>Node2&#45;&gt;Node12</title>
<path fill="none" stroke="midnightblue" d="M686.19,-123.475C677.318,-114.373 663.054,-99.741 652.08,-88.483"/>
<polygon fill="midnightblue" stroke="midnightblue" points="654.281,-85.7268 644.795,-81.0091 649.269,-90.613 654.281,-85.7268"/>
</g>
<!-- Node13 -->
<g id="node13" class="node"><title>Node13</title>
<polygon fill="white" stroke="#bfbfbf" points="689,-56.5 689,-86.5 816,-86.5 816,-56.5 689,-56.5"/>
<text text-anchor="start" x="697" y="-74.5" font-family="Helvetica,sans-Serif" font-size="10.00">boost/exception/errinfo</text>
<text text-anchor="middle" x="752.5" y="-63.5" font-family="Helvetica,sans-Serif" font-size="10.00">_at_line.hpp</text>
</g>
<!-- Node2&#45;&gt;Node13 -->
<g id="edge12" class="edge"><title>Node2&#45;&gt;Node13</title>
<path fill="none" stroke="midnightblue" d="M702.81,-123.475C710.298,-115.793 721.627,-104.172 731.577,-93.9643"/>
<polygon fill="midnightblue" stroke="midnightblue" points="734.357,-96.1268 738.831,-86.523 729.344,-91.2407 734.357,-96.1268"/>
</g>
<!-- Node14 -->
<g id="node14" class="node"><title>Node14</title>
<polygon fill="white" stroke="#bfbfbf" points="834,-56.5 834,-86.5 961,-86.5 961,-56.5 834,-56.5"/>
<text text-anchor="start" x="842" y="-74.5" font-family="Helvetica,sans-Serif" font-size="10.00">boost/exception/errinfo</text>
<text text-anchor="middle" x="897.5" y="-63.5" font-family="Helvetica,sans-Serif" font-size="10.00">_errno.hpp</text>
</g>
<!-- Node2&#45;&gt;Node14 -->
<g id="edge13" class="edge"><title>Node2&#45;&gt;Node14</title>
<path fill="none" stroke="midnightblue" d="M716.124,-125.492C718.941,-124.65 721.789,-123.802 724.5,-123 762.729,-111.686 805.762,-99.1238 839.345,-89.3589"/>
<polygon fill="midnightblue" stroke="midnightblue" points="840.375,-92.7046 849.001,-86.5527 838.421,-85.9827 840.375,-92.7046"/>
</g>
<!-- Node15 -->
<g id="node15" class="node"><title>Node15</title>
<polygon fill="white" stroke="#bfbfbf" points="979,-56.5 979,-86.5 1106,-86.5 1106,-56.5 979,-56.5"/>
<text text-anchor="start" x="987" y="-74.5" font-family="Helvetica,sans-Serif" font-size="10.00">boost/exception/errinfo</text>
<text text-anchor="middle" x="1042.5" y="-63.5" font-family="Helvetica,sans-Serif" font-size="10.00">_file_name.hpp</text>
</g>
<!-- Node2&#45;&gt;Node15 -->
<g id="edge14" class="edge"><title>Node2&#45;&gt;Node15</title>
<path fill="none" stroke="midnightblue" d="M716.031,-125.13C718.863,-124.348 721.74,-123.613 724.5,-123 829.213,-99.7618 859.851,-105.539 968.844,-87.2196"/>
<polygon fill="midnightblue" stroke="midnightblue" points="969.665,-90.6301 978.931,-85.4936 968.484,-83.7304 969.665,-90.6301"/>
</g>
<!-- Node16 -->
<g id="node16" class="node"><title>Node16</title>
<polygon fill="white" stroke="#bfbfbf" points="1124,-56.5 1124,-86.5 1251,-86.5 1251,-56.5 1124,-56.5"/>
<text text-anchor="start" x="1132" y="-74.5" font-family="Helvetica,sans-Serif" font-size="10.00">boost/exception/errinfo</text>
<text text-anchor="middle" x="1187.5" y="-63.5" font-family="Helvetica,sans-Serif" font-size="10.00">_file_open_mode.hpp</text>
</g>
<!-- Node2&#45;&gt;Node16 -->
<g id="edge15" class="edge"><title>Node2&#45;&gt;Node16</title>
<path fill="none" stroke="midnightblue" d="M716.001,-124.989C718.838,-124.23 721.724,-123.539 724.5,-123 892.639,-90.3783 941.038,-111.447 1114.02,-87.109"/>
<polygon fill="midnightblue" stroke="midnightblue" points="1114.56,-90.5666 1123.96,-85.6793 1113.56,-83.6378 1114.56,-90.5666"/>
</g>
<!-- Node17 -->
<g id="node17" class="node"><title>Node17</title>
<polygon fill="white" stroke="#bfbfbf" points="1269.5,-56.5 1269.5,-86.5 1389.5,-86.5 1389.5,-56.5 1269.5,-56.5"/>
<text text-anchor="start" x="1277.5" y="-74.5" font-family="Helvetica,sans-Serif" font-size="10.00">boost/iterator/iterator</text>
<text text-anchor="middle" x="1329.5" y="-63.5" font-family="Helvetica,sans-Serif" font-size="10.00">_facade.hpp</text>
</g>
<!-- Node2&#45;&gt;Node17 -->
<g id="edge16" class="edge"><title>Node2&#45;&gt;Node17</title>
<path fill="none" stroke="midnightblue" d="M716.317,-124.838C719.05,-124.124 721.825,-123.485 724.5,-123 956.221,-81.0109 1022.18,-118.574 1259.41,-87.0053"/>
<polygon fill="midnightblue" stroke="midnightblue" points="1259.94,-90.4661 1269.38,-85.6523 1259,-83.5297 1259.94,-90.4661"/>
</g>
<!-- Node18 -->
<g id="node18" class="node"><title>Node18</title>
<polygon fill="white" stroke="#bfbfbf" points="1408,-56.5 1408,-86.5 1523,-86.5 1523,-56.5 1408,-56.5"/>
<text text-anchor="start" x="1416" y="-74.5" font-family="Helvetica,sans-Serif" font-size="10.00">boost/range/adaptor</text>
<text text-anchor="middle" x="1465.5" y="-63.5" font-family="Helvetica,sans-Serif" font-size="10.00">/filtered.hpp</text>
</g>
<!-- Node2&#45;&gt;Node18 -->
<g id="edge17" class="edge"><title>Node2&#45;&gt;Node18</title>
<path fill="none" stroke="midnightblue" d="M716.311,-124.802C719.045,-124.094 721.821,-123.466 724.5,-123 1016.72,-72.114 1099.33,-125.624 1397.61,-86.9403"/>
<polygon fill="midnightblue" stroke="midnightblue" points="1398.4,-90.3661 1407.86,-85.5862 1397.49,-83.4264 1398.4,-90.3661"/>
</g>
<!-- Node19 -->
<g id="node19" class="node"><title>Node19</title>
<polygon fill="white" stroke="#bfbfbf" points="1541.5,-62 1541.5,-81 1627.5,-81 1627.5,-62 1541.5,-62"/>
<text text-anchor="middle" x="1584.5" y="-69" font-family="Helvetica,sans-Serif" font-size="10.00">libxml/parser.h</text>
</g>
<!-- Node2&#45;&gt;Node19 -->
<g id="edge18" class="edge"><title>Node2&#45;&gt;Node19</title>
<path fill="none" stroke="midnightblue" d="M716.307,-124.779C719.042,-124.075 721.819,-123.455 724.5,-123 1078.91,-62.8964 1177.52,-143.642 1532.5,-87 1537.69,-86.1721 1543.1,-85.0114 1548.38,-83.7033"/>
<polygon fill="midnightblue" stroke="midnightblue" points="1549.54,-87.0161 1558.3,-81.0552 1547.74,-80.2529 1549.54,-87.0161"/>
</g>
<!-- Node20 -->
<g id="node20" class="node"><title>Node20</title>
<polygon fill="white" stroke="#bfbfbf" points="1645.5,-62 1645.5,-81 1737.5,-81 1737.5,-62 1645.5,-62"/>
<text text-anchor="middle" x="1691.5" y="-69" font-family="Helvetica,sans-Serif" font-size="10.00">libxml/relaxng.h</text>
</g>
<!-- Node2&#45;&gt;Node20 -->
<g id="edge19" class="edge"><title>Node2&#45;&gt;Node20</title>
<path fill="none" stroke="midnightblue" d="M716.304,-124.766C719.04,-124.064 721.818,-123.448 724.5,-123 1124.61,-56.1892 1235.32,-147.063 1636.5,-87 1642.12,-86.1593 1647.98,-84.9647 1653.71,-83.6177"/>
<polygon fill="midnightblue" stroke="midnightblue" points="1654.93,-86.9182 1663.77,-81.0718 1653.21,-80.1321 1654.93,-86.9182"/>
</g>
<!-- Node21 -->
<g id="node21" class="node"><title>Node21</title>
<polygon fill="white" stroke="#bfbfbf" points="1755.5,-62 1755.5,-81 1831.5,-81 1831.5,-62 1755.5,-62"/>
<text text-anchor="middle" x="1793.5" y="-69" font-family="Helvetica,sans-Serif" font-size="10.00">libxml/tree.h</text>
</g>
<!-- Node2&#45;&gt;Node21 -->
<g id="edge20" class="edge"><title>Node2&#45;&gt;Node21</title>
<path fill="none" stroke="midnightblue" d="M716.303,-124.755C719.038,-124.055 721.817,-123.442 724.5,-123 1172.95,-49.0939 1298.34,-162.652 1746.5,-87 1750.98,-86.244 1755.62,-85.1763 1760.18,-83.9589"/>
<polygon fill="midnightblue" stroke="midnightblue" points="1761.27,-87.2855 1769.88,-81.118 1759.3,-80.5672 1761.27,-87.2855"/>
</g>
<!-- Node22 -->
<g id="node22" class="node"><title>Node22</title>
<g id="a_node22"><a xlink:href="error_8h.xhtml" target="_top" xlink:title="Exceptions for SCRAM. ">
<polygon fill="white" stroke="black" points="1849.5,-62 1849.5,-81 1897.5,-81 1897.5,-62 1849.5,-62"/>
<text text-anchor="middle" x="1873.5" y="-69" font-family="Helvetica,sans-Serif" font-size="10.00">error.h</text>
</a>
</g>
</g>
<!-- Node2&#45;&gt;Node22 -->
<g id="edge21" class="edge"><title>Node2&#45;&gt;Node22</title>
<path fill="none" stroke="midnightblue" d="M716.301,-124.747C719.037,-124.048 721.817,-123.438 724.5,-123 969.386,-83.015 1598.52,-141.905 1840.5,-87 1843.01,-86.4305 1845.56,-85.6698 1848.09,-84.794"/>
<polygon fill="midnightblue" stroke="midnightblue" points="1849.51,-87.9944 1857.47,-81.007 1846.89,-81.5029 1849.51,-87.9944"/>
</g>
<!-- Node22&#45;&gt;Node10 -->
<g id="edge23" class="edge"><title>Node22&#45;&gt;Node10</title>
<path fill="none" stroke="midnightblue" d="M1857.12,-61.9129C1851.94,-59.5802 1846.1,-57.3327 1840.5,-56 1681.87,-18.2543 1162.96,-12.1333 1027.88,-11.1731"/>
<polygon fill="midnightblue" stroke="midnightblue" points="1027.79,-7.67249 1017.77,-11.1059 1027.74,-14.6723 1027.79,-7.67249"/>
</g>
<!-- Node23 -->
<g id="node23" class="node"><title>Node23</title>
<polygon fill="white" stroke="#bfbfbf" points="1546,-0.5 1546,-19.5 1609,-19.5 1609,-0.5 1546,-0.5"/>
<text text-anchor="middle" x="1577.5" y="-7.5" font-family="Helvetica,sans-Serif" font-size="10.00">exception</text>
</g>
<!-- Node22&#45;&gt;Node23 -->
<g id="edge22" class="edge"><title>Node22&#45;&gt;Node23</title>
<path fill="none" stroke="midnightblue" d="M1856.34,-61.9788C1851.33,-59.762 1845.78,-57.5609 1840.5,-56 1747.64,-28.5538 1718.5,-38.0703 1619.09,-19.989"/>
<polygon fill="midnightblue" stroke="midnightblue" points="1619.72,-16.5459 1609.25,-18.1509 1618.44,-23.427 1619.72,-16.5459"/>
</g>
<!-- Node24 -->
<g id="node24" class="node"><title>Node24</title>
<polygon fill="white" stroke="#bfbfbf" points="1627.5,-0.5 1627.5,-19.5 1773.5,-19.5 1773.5,-0.5 1627.5,-0.5"/>
<text text-anchor="middle" x="1700.5" y="-7.5" font-family="Helvetica,sans-Serif" font-size="10.00">boost/current_function.hpp</text>
</g>
<!-- Node22&#45;&gt;Node24 -->
<g id="edge24" class="edge"><title>Node22&#45;&gt;Node24</title>
<path fill="none" stroke="midnightblue" d="M1854.79,-61.8803C1850.16,-59.857 1845.18,-57.7753 1840.5,-56 1807.02,-43.3006 1768.19,-31.0074 1739.93,-22.4882"/>
<polygon fill="midnightblue" stroke="midnightblue" points="1740.61,-19.0385 1730.03,-19.5265 1738.61,-25.745 1740.61,-19.0385"/>
</g>
<!-- Node25 -->
<g id="node25" class="node"><title>Node25</title>
<polygon fill="white" stroke="#bfbfbf" points="1791.5,-0.5 1791.5,-19.5 1955.5,-19.5 1955.5,-0.5 1791.5,-0.5"/>
<text text-anchor="middle" x="1873.5" y="-7.5" font-family="Helvetica,sans-Serif" font-size="10.00">boost/exception/exception.hpp</text>
</g>
<!-- Node22&#45;&gt;Node25 -->
<g id="edge25" class="edge"><title>Node22&#45;&gt;Node25</title>
<path fill="none" stroke="midnightblue" d="M1873.5,-61.9751C1873.5,-53.5803 1873.5,-40.4806 1873.5,-29.6631"/>
<polygon fill="midnightblue" stroke="midnightblue" points="1877,-29.5091 1873.5,-19.5091 1870,-29.5091 1877,-29.5091"/>
</g>
<!-- Node26 -->
<g id="node26" class="node"><title>Node26</title>
<polygon fill="white" stroke="#bfbfbf" points="1973.5,-0.5 1973.5,-19.5 2107.5,-19.5 2107.5,-0.5 1973.5,-0.5"/>
<text text-anchor="middle" x="2040.5" y="-7.5" font-family="Helvetica,sans-Serif" font-size="10.00">boost/exception/info.hpp</text>
</g>
<!-- Node22&#45;&gt;Node26 -->
<g id="edge26" class="edge"><title>Node22&#45;&gt;Node26</title>
<path fill="none" stroke="midnightblue" d="M1897.43,-61.9751C1926.2,-51.7246 1974.66,-34.4593 2007.1,-22.8994"/>
<polygon fill="midnightblue" stroke="midnightblue" points="2008.37,-26.1624 2016.62,-19.5091 2006.02,-19.5684 2008.37,-26.1624"/>
</g>
<!-- Node27 -->
<g id="node27" class="node"><title>Node27</title>
<g id="a_node27"><a xlink:href="source__info_8h.xhtml" target="_top" xlink:title="Helper facilities to get source file information. ">
<polygon fill="white" stroke="black" points="2125.5,-0.5 2125.5,-19.5 2223.5,-19.5 2223.5,-0.5 2125.5,-0.5"/>
<text text-anchor="middle" x="2174.5" y="-7.5" font-family="Helvetica,sans-Serif" font-size="10.00">ext/source_info.h</text>
</a>
</g>
</g>
<!-- Node22&#45;&gt;Node27 -->
<g id="edge27" class="edge"><title>Node22&#45;&gt;Node27</title>
<path fill="none" stroke="midnightblue" d="M1897.62,-65.7314C1945.89,-56.1903 2055.36,-34.5509 2121.27,-21.5213"/>
<polygon fill="midnightblue" stroke="midnightblue" points="2122.33,-24.8801 2131.46,-19.5072 2120.97,-18.013 2122.33,-24.8801"/>
</g>
</g>
</svg>
        <g id="navigator" transform="translate(0 0)" fill="#404254">
                <rect fill="#f2f5e9" fill-opacity="0.5" stroke="#606060" stroke-width=".5" x="0" y="0" width="60" height="60"/>
                <use id="zoomplus" xlink:href="#zoomPlus" x="17" y="9" onmousedown="handleZoom(evt,'in')"/>
                <use id="zoomminus" xlink:href="#zoomMin" x="42" y="9" onmousedown="handleZoom(evt,'out')"/>
                <use id="reset" xlink:href="#resetDef" x="30" y="36" onmousedown="handleReset()"/>
                <g id="arrowUp" xlink:href="#dirArrow" transform="translate(30 24)" onmousedown="handlePan(0,-1)">
                  <use xlink:href="#rim" fill="#404040">
                        <set attributeName="fill" to="#808080" begin="arrowUp.mouseover" end="arrowUp.mouseout"/>
                  </use>
                  <path fill="none" stroke="white" stroke-width="1.5" d="M0,-3.0v7 M-2.5,-0.5L0,-3.0L2.5,-0.5"/>
                </g>
                <g id="arrowRight" xlink:href="#dirArrow" transform="rotate(90) translate(36 -43)" onmousedown="handlePan(1,0)">
                  <use xlink:href="#rim" fill="#404040">
                        <set attributeName="fill" to="#808080" begin="arrowRight.mouseover" end="arrowRight.mouseout"/>
                  </use>
                  <path fill="none" stroke="white" stroke-width="1.5" d="M0,-3.0v7 M-2.5,-0.5L0,-3.0L2.5,-0.5"/>
                </g>
                <g id="arrowDown" xlink:href="#dirArrow" transform="rotate(180) translate(-30 -48)" onmousedown="handlePan(0,1)">
                  <use xlink:href="#rim" fill="#404040">
                        <set attributeName="fill" to="#808080" begin="arrowDown.mouseover" end="arrowDown.mouseout"/>
                  </use>
                  <path fill="none" stroke="white" stroke-width="1.5" d="M0,-3.0v7 M-2.5,-0.5L0,-3.0L2.5,-0.5"/>
                </g>
                <g id="arrowLeft" xlink:href="#dirArrow" transform="rotate(270) translate(-36 17)" onmousedown="handlePan(-1,0)">
                  <use xlink:href="#rim" fill="#404040">
                        <set attributeName="fill" to="#808080" begin="arrowLeft.mouseover" end="arrowLeft.mouseout"/>
                  </use>
                  <path fill="none" stroke="white" stroke-width="1.5" d="M0,-3.0v7 M-2.5,-0.5L0,-3.0L2.5,-0.5"/>
                </g>
        </g>
        <svg viewBox="0 0 15 15" width="100%" height="30px" preserveAspectRatio="xMaxYMin meet">
         <g id="arrow_out" transform="scale(0.3 0.3)">
          <a xlink:href="xml_8cc__incl_org.svg" target="_base">
           <rect id="button" ry="5" rx="5" y="6" x="6" height="38" width="38"
                fill="#f2f5e9" fill-opacity="0.5" stroke="#606060" stroke-width="1.0"/>
           <path id="arrow"
             d="M 11.500037,31.436501 C 11.940474,20.09759 22.043105,11.32322 32.158766,21.979434 L 37.068811,17.246167 C 37.068811,17.246167 37.088388,32 37.088388,32 L 22.160133,31.978069 C 22.160133,31.978069 26.997745,27.140456 26.997745,27.140456 C 18.528582,18.264221 13.291696,25.230495 11.500037,31.436501 z"
             style="fill:#404040;"/>
          </a>
         </g>
        </svg>
</svg>
