<?xml version="1.0" encoding="UTF-8" standalone="no"?>
<!DOCTYPE svg PUBLIC "-//W3C//DTD SVG 1.1//EN"
 "http://www.w3.org/Graphics/SVG/1.1/DTD/svg11.dtd">
<!-- Generated by graphviz version 2.38.0 (20140413.2041)
 -->
<!-- Title: zbdd.h Pages: 1 -->
<!--zoomable 285 -->
<svg id="main" version="1.1" xmlns="http://www.w3.org/2000/svg" xmlns:xlink="http://www.w3.org/1999/xlink" xml:space="preserve" onload="init(evt)">
<style type="text/css"><![CDATA[
.edge:hover path { stroke: red; }
.edge:hover polygon { stroke: red; fill: red; }
]]></style>
<script type="text/javascript"><![CDATA[
var edges = document.getElementsByTagName('g');
if (edges && edges.length) {
  for (var i=0;i<edges.length;i++) {
    if (edges[i].id.substr(0,4)=='edge') {
      edges[i].setAttribute('class','edge');
    }
  }
}
]]></script>
        <defs>
                <circle id="rim" cx="0" cy="0" r="7"/>
                <circle id="rim2" cx="0" cy="0" r="3.5"/>
                <g id="zoomPlus">
                        <use xlink:href="#rim" fill="#404040">
                                <set attributeName="fill" to="#808080" begin="zoomplus.mouseover" end="zoomplus.mouseout"/>
                        </use>
                        <path d="M-4,0h8M0,-4v8" fill="none" stroke="white" stroke-width="1.5" pointer-events="none"/>
                </g>
                <g id="zoomMin">
                        <use xlink:href="#rim" fill="#404040">
                                <set attributeName="fill" to="#808080" begin="zoomminus.mouseover" end="zoomminus.mouseout"/>
                        </use>
                        <path d="M-4,0h8" fill="none" stroke="white" stroke-width="1.5" pointer-events="none"/>
                </g>
                <g id="dirArrow">
                        <path fill="none" stroke="white" stroke-width="1.5" d="M0,-3.0v7 M-2.5,-0.5L0,-3.0L2.5,-0.5"/>
                </g>
               <g id="resetDef">
                       <use xlink:href="#rim2" fill="#404040">
                               <set attributeName="fill" to="#808080" begin="reset.mouseover" end="reset.mouseout"/>
                       </use>
               </g>
        </defs>

<script type="text/javascript">
var viewWidth = 2156;
var viewHeight = 285;
var sectionId = 'dynsection-0';
</script>
<script xlink:href="svgpan.js"/>
<svg id="graph" class="graph">
<g id="viewport">
<title>zbdd.h</title>
<polygon fill="white" stroke="none" points="-4,4 -4,-281 2151.92,-281 2151.92,4 -4,4"/>
<!-- Node1 -->
<g id="node1" class="node"><title>Node1</title>
<polygon fill="#bfbfbf" stroke="black" points="1378.42,-257.5 1378.42,-276.5 1427.42,-276.5 1427.42,-257.5 1378.42,-257.5"/>
<text text-anchor="middle" x="1402.92" y="-264.5" font-family="Helvetica,sans-Serif" font-size="10.00">zbdd.h</text>
</g>
<!-- Node2 -->
<g id="node2" class="node"><title>Node2</title>
<polygon fill="white" stroke="#bfbfbf" points="1488.42,-62 1488.42,-81 1537.42,-81 1537.42,-62 1488.42,-62"/>
<text text-anchor="middle" x="1512.92" y="-69" font-family="Helvetica,sans-Serif" font-size="10.00">cstdint</text>
</g>
<!-- Node1&#45;&gt;Node2 -->
<g id="edge1" class="edge"><title>Node1&#45;&gt;Node2</title>
<path fill="none" stroke="midnightblue" d="M1427.67,-263.38C1510.75,-254.024 1777.25,-219.29 1826.92,-154 1835.26,-143.035 1836.02,-133.343 1826.92,-123 1785.33,-75.7404 1606.58,-103.835 1545.92,-87 1543.77,-86.4017 1541.57,-85.6878 1539.38,-84.9022"/>
<polygon fill="midnightblue" stroke="midnightblue" points="1540.63,-81.6316 1530.05,-81.1352 1538.01,-88.123 1540.63,-81.6316"/>
</g>
<!-- Node3 -->
<g id="node3" class="node"><title>Node3</title>
<polygon fill="white" stroke="#bfbfbf" points="1912.42,-196 1912.42,-215 1953.42,-215 1953.42,-196 1912.42,-196"/>
<text text-anchor="middle" x="1932.92" y="-203" font-family="Helvetica,sans-Serif" font-size="10.00">array</text>
</g>
<!-- Node1&#45;&gt;Node3 -->
<g id="edge2" class="edge"><title>Node1&#45;&gt;Node3</title>
<path fill="none" stroke="midnightblue" d="M1427.56,-266.361C1500.55,-266.881 1721.56,-264.479 1897.92,-221 1900.44,-220.38 1903,-219.608 1905.55,-218.745"/>
<polygon fill="midnightblue" stroke="midnightblue" points="1907.01,-221.933 1915.11,-215.096 1904.52,-215.394 1907.01,-221.933"/>
</g>
<!-- Node4 -->
<g id="node4" class="node"><title>Node4</title>
<polygon fill="white" stroke="#bfbfbf" points="1971.92,-196 1971.92,-215 2009.92,-215 2009.92,-196 1971.92,-196"/>
<text text-anchor="middle" x="1990.92" y="-203" font-family="Helvetica,sans-Serif" font-size="10.00">map</text>
</g>
<!-- Node1&#45;&gt;Node4 -->
<g id="edge3" class="edge"><title>Node1&#45;&gt;Node4</title>
<path fill="none" stroke="midnightblue" d="M1427.55,-265.314C1521.88,-262.489 1860.01,-250.481 1962.92,-221 1964.59,-220.523 1966.27,-219.943 1967.93,-219.292"/>
<polygon fill="midnightblue" stroke="midnightblue" points="1969.54,-222.407 1977.13,-215.02 1966.59,-216.058 1969.54,-222.407"/>
</g>
<!-- Node5 -->
<g id="node5" class="node"><title>Node5</title>
<polygon fill="white" stroke="#bfbfbf" points="1001.42,-62 1001.42,-81 1058.42,-81 1058.42,-62 1001.42,-62"/>
<text text-anchor="middle" x="1029.92" y="-69" font-family="Helvetica,sans-Serif" font-size="10.00">memory</text>
</g>
<!-- Node1&#45;&gt;Node5 -->
<g id="edge4" class="edge"><title>Node1&#45;&gt;Node5</title>
<path fill="none" stroke="midnightblue" d="M1378.14,-264.894C1334.97,-262.161 1244.01,-252.787 1174.92,-221 1111.76,-191.941 1061.44,-122.324 1040.48,-89.7967"/>
<polygon fill="midnightblue" stroke="midnightblue" points="1043.44,-87.9232 1035.15,-81.323 1037.51,-91.651 1043.44,-87.9232"/>
</g>
<!-- Node6 -->
<g id="node6" class="node"><title>Node6</title>
<polygon fill="white" stroke="#bfbfbf" points="1076.42,-62 1076.42,-81 1169.42,-81 1169.42,-62 1076.42,-62"/>
<text text-anchor="middle" x="1122.92" y="-69" font-family="Helvetica,sans-Serif" font-size="10.00">unordered_map</text>
</g>
<!-- Node1&#45;&gt;Node6 -->
<g id="edge5" class="edge"><title>Node1&#45;&gt;Node6</title>
<path fill="none" stroke="midnightblue" d="M1378.13,-263.84C1324.39,-257.681 1197.52,-234.85 1141.92,-154 1129.02,-135.244 1124.79,-108.918 1123.46,-91.3139"/>
<polygon fill="midnightblue" stroke="midnightblue" points="1126.94,-90.9781 1122.93,-81.1722 1119.95,-91.3397 1126.94,-90.9781"/>
</g>
<!-- Node7 -->
<g id="node7" class="node"><title>Node7</title>
<polygon fill="white" stroke="#bfbfbf" points="362.921,-0.5 362.921,-19.5 404.921,-19.5 404.921,-0.5 362.921,-0.5"/>
<text text-anchor="middle" x="383.921" y="-7.5" font-family="Helvetica,sans-Serif" font-size="10.00">utility</text>
</g>
<!-- Node1&#45;&gt;Node7 -->
<g id="edge6" class="edge"><title>Node1&#45;&gt;Node7</title>
<path fill="none" stroke="midnightblue" d="M1378.09,-264.624C1308.37,-260.538 1105,-247.106 937.921,-221 660.241,-177.612 496.344,-305.777 319.921,-87 311.272,-76.275 313.571,-68.2273 319.921,-56 327.124,-42.1292 340.783,-31.6361 353.638,-24.2866"/>
<polygon fill="midnightblue" stroke="midnightblue" points="355.535,-27.2434 362.753,-19.4874 352.273,-21.0495 355.535,-27.2434"/>
</g>
<!-- Node8 -->
<g id="node8" class="node"><title>Node8</title>
<polygon fill="white" stroke="#bfbfbf" points="47.4207,-0.5 47.4207,-19.5 94.4207,-19.5 94.4207,-0.5 47.4207,-0.5"/>
<text text-anchor="middle" x="70.9207" y="-7.5" font-family="Helvetica,sans-Serif" font-size="10.00">vector</text>
</g>
<!-- Node1&#45;&gt;Node8 -->
<g id="edge7" class="edge"><title>Node1&#45;&gt;Node8</title>
<path fill="none" stroke="midnightblue" d="M1378.25,-266.236C1268.19,-267 811.143,-267.081 439.921,-221 239.163,-196.079 102.159,-264.396 4.92073,-87 -1.70183,-74.9182 -1.51707,-68.1812 4.92073,-56 12.3445,-41.9533 26.3413,-31.4667 39.5415,-24.167"/>
<polygon fill="midnightblue" stroke="midnightblue" points="41.1437,-27.2788 48.4622,-19.6178 37.9636,-21.0428 41.1437,-27.2788"/>
</g>
<!-- Node9 -->
<g id="node9" class="node"><title>Node9</title>
<polygon fill="white" stroke="#bfbfbf" points="1677.92,-129 1677.92,-148 1817.92,-148 1817.92,-129 1677.92,-129"/>
<text text-anchor="middle" x="1747.92" y="-136" font-family="Helvetica,sans-Serif" font-size="10.00">boost/functional/hash.hpp</text>
</g>
<!-- Node1&#45;&gt;Node9 -->
<g id="edge8" class="edge"><title>Node1&#45;&gt;Node9</title>
<path fill="none" stroke="midnightblue" d="M1426.36,-257.405C1486.35,-235.409 1645.57,-177.029 1714.89,-151.61"/>
<polygon fill="midnightblue" stroke="midnightblue" points="1716.26,-154.836 1724.45,-148.107 1713.85,-148.264 1716.26,-154.836"/>
</g>
<!-- Node10 -->
<g id="node10" class="node"><title>Node10</title>
<polygon fill="white" stroke="#bfbfbf" points="2027.92,-190.5 2027.92,-220.5 2147.92,-220.5 2147.92,-190.5 2027.92,-190.5"/>
<text text-anchor="start" x="2035.92" y="-208.5" font-family="Helvetica,sans-Serif" font-size="10.00">boost/iterator/iterator</text>
<text text-anchor="middle" x="2087.92" y="-197.5" font-family="Helvetica,sans-Serif" font-size="10.00">_facade.hpp</text>
</g>
<!-- Node1&#45;&gt;Node10 -->
<g id="edge9" class="edge"><title>Node1&#45;&gt;Node10</title>
<path fill="none" stroke="midnightblue" d="M1427.69,-265.383C1510.13,-263.08 1782.76,-253.455 2017.69,-221.042"/>
<polygon fill="midnightblue" stroke="midnightblue" points="2018.37,-224.481 2027.79,-219.631 2017.41,-217.549 2018.37,-224.481"/>
</g>
<!-- Node11 -->
<g id="node11" class="node"><title>Node11</title>
<polygon fill="white" stroke="#bfbfbf" points="1642.92,-62 1642.92,-81 1770.92,-81 1770.92,-62 1642.92,-62"/>
<text text-anchor="middle" x="1706.92" y="-69" font-family="Helvetica,sans-Serif" font-size="10.00">boost/noncopyable.hpp</text>
</g>
<!-- Node1&#45;&gt;Node11 -->
<g id="edge10" class="edge"><title>Node1&#45;&gt;Node11</title>
<path fill="none" stroke="midnightblue" d="M1427.48,-266.334C1484.33,-266.343 1628.57,-261.964 1739.92,-221 1791.52,-202.016 1817.6,-202.273 1843.92,-154 1850.52,-141.904 1851.8,-134.302 1843.92,-123 1829.33,-102.073 1805.04,-89.7957 1780.93,-82.6009"/>
<polygon fill="midnightblue" stroke="midnightblue" points="1781.57,-79.1476 1771,-79.9071 1779.74,-85.9034 1781.57,-79.1476"/>
</g>
<!-- Node12 -->
<g id="node12" class="node"><title>Node12</title>
<g id="a_node12"><a xlink:href="bdd_8h.xhtml" target="_top" xlink:title="Fault tree analysis with the Binary Decision Diagram algorithms. ">
<polygon fill="white" stroke="black" points="1249.92,-196 1249.92,-215 1293.92,-215 1293.92,-196 1249.92,-196"/>
<text text-anchor="middle" x="1271.92" y="-203" font-family="Helvetica,sans-Serif" font-size="10.00">bdd.h</text>
</a>
</g>
</g>
<!-- Node1&#45;&gt;Node12 -->
<g id="edge11" class="edge"><title>Node1&#45;&gt;Node12</title>
<path fill="none" stroke="midnightblue" d="M1384.15,-257.475C1362.07,-247.445 1325.2,-230.7 1299.78,-219.155"/>
<polygon fill="midnightblue" stroke="midnightblue" points="1301.21,-215.958 1290.66,-215.009 1298.31,-222.331 1301.21,-215.958"/>
</g>
<!-- Node17 -->
<g id="node17" class="node"><title>Node17</title>
<g id="a_node17"><a xlink:href="pdag_8h.xhtml" target="_top" xlink:title="Classes and facilities to represent fault trees as PDAGs with event and gate indices instead of ID na...">
<polygon fill="white" stroke="black" points="826.921,-129 826.921,-148 876.921,-148 876.921,-129 826.921,-129"/>
<text text-anchor="middle" x="851.921" y="-136" font-family="Helvetica,sans-Serif" font-size="10.00">pdag.h</text>
</a>
</g>
</g>
<!-- Node1&#45;&gt;Node17 -->
<g id="edge49" class="edge"><title>Node1&#45;&gt;Node17</title>
<path fill="none" stroke="midnightblue" d="M1378.34,-266.047C1316.23,-265.549 1148.53,-260.353 1015.92,-221 962.056,-205.015 904.408,-172.262 873.867,-153.509"/>
<polygon fill="midnightblue" stroke="midnightblue" points="875.633,-150.486 865.294,-148.173 871.934,-156.428 875.633,-150.486"/>
</g>
<!-- Node12&#45;&gt;Node5 -->
<g id="edge15" class="edge"><title>Node12&#45;&gt;Node5</title>
<path fill="none" stroke="midnightblue" d="M1249.53,-197.761C1222.99,-189.337 1177.83,-173.61 1141.92,-154 1106.3,-134.552 1068.98,-105.33 1047.67,-87.6706"/>
<polygon fill="midnightblue" stroke="midnightblue" points="1049.73,-84.8322 1039.82,-81.0855 1045.23,-90.1945 1049.73,-84.8322"/>
</g>
<!-- Node12&#45;&gt;Node6 -->
<g id="edge16" class="edge"><title>Node12&#45;&gt;Node6</title>
<path fill="none" stroke="midnightblue" d="M1249.69,-198.127C1226.89,-190.659 1191.51,-176.382 1167.92,-154 1149.19,-136.227 1136.31,-108.899 1129.28,-90.8622"/>
<polygon fill="midnightblue" stroke="midnightblue" points="1132.47,-89.4041 1125.73,-81.2293 1125.9,-91.8227 1132.47,-89.4041"/>
</g>
<!-- Node12&#45;&gt;Node7 -->
<g id="edge17" class="edge"><title>Node12&#45;&gt;Node7</title>
<path fill="none" stroke="midnightblue" d="M1263.09,-195.744C1253.65,-186.082 1238.6,-169.801 1227.92,-154 1200.54,-113.486 1218.88,-82.7073 1177.92,-56 1113.24,-13.8271 555.359,-10.9968 415.577,-10.9542"/>
<polygon fill="midnightblue" stroke="midnightblue" points="415.158,-7.45416 405.158,-10.9561 415.159,-14.4542 415.158,-7.45416"/>
</g>
<!-- Node12&#45;&gt;Node8 -->
<g id="edge18" class="edge"><title>Node12&#45;&gt;Node8</title>
<path fill="none" stroke="midnightblue" d="M1249.67,-204.181C1088.23,-201.643 100.705,-182.268 13.9207,-87 4.64243,-76.8147 7.91232,-68.3986 13.9207,-56 20.3176,-42.7996 32.673,-32.3032 44.2498,-24.7794"/>
<polygon fill="midnightblue" stroke="midnightblue" points="46.0761,-27.7653 52.8392,-19.6099 42.4664,-21.7678 46.0761,-27.7653"/>
</g>
<!-- Node12&#45;&gt;Node9 -->
<g id="edge19" class="edge"><title>Node12&#45;&gt;Node9</title>
<path fill="none" stroke="midnightblue" d="M1294.07,-201.983C1353.85,-195.118 1523.47,-175.16 1663.92,-154 1672.53,-152.703 1681.62,-151.235 1690.52,-149.745"/>
<polygon fill="midnightblue" stroke="midnightblue" points="1691.17,-153.185 1700.44,-148.06 1690,-146.283 1691.17,-153.185"/>
</g>
<!-- Node12&#45;&gt;Node11 -->
<g id="edge20" class="edge"><title>Node12&#45;&gt;Node11</title>
<path fill="none" stroke="midnightblue" d="M1294.36,-203.296C1363.4,-199.291 1571.6,-184.883 1630.92,-154 1646,-146.147 1676.21,-110.653 1693.65,-89.1793"/>
<polygon fill="midnightblue" stroke="midnightblue" points="1696.52,-91.196 1700.07,-81.2109 1691.07,-86.8074 1696.52,-91.196"/>
</g>
<!-- Node13 -->
<g id="node13" class="node"><title>Node13</title>
<polygon fill="white" stroke="#bfbfbf" points="1248.42,-129 1248.42,-148 1295.42,-148 1295.42,-129 1248.42,-129"/>
<text text-anchor="middle" x="1271.92" y="-136" font-family="Helvetica,sans-Serif" font-size="10.00">cmath</text>
</g>
<!-- Node12&#45;&gt;Node13 -->
<g id="edge12" class="edge"><title>Node12&#45;&gt;Node13</title>
<path fill="none" stroke="midnightblue" d="M1271.92,-195.734C1271.92,-186.183 1271.92,-170.618 1271.92,-158.283"/>
<polygon fill="midnightblue" stroke="midnightblue" points="1275.42,-158.127 1271.92,-148.127 1268.42,-158.127 1275.42,-158.127"/>
</g>
<!-- Node14 -->
<g id="node14" class="node"><title>Node14</title>
<polygon fill="white" stroke="#bfbfbf" points="941.921,-0.5 941.921,-19.5 1003.92,-19.5 1003.92,-0.5 941.921,-0.5"/>
<text text-anchor="middle" x="972.921" y="-7.5" font-family="Helvetica,sans-Serif" font-size="10.00">algorithm</text>
</g>
<!-- Node12&#45;&gt;Node14 -->
<g id="edge13" class="edge"><title>Node12&#45;&gt;Node14</title>
<path fill="none" stroke="midnightblue" d="M1264.93,-195.688C1257.54,-185.978 1245.98,-169.657 1238.92,-154 1220.34,-112.819 1245.16,-86.5975 1211.92,-56 1183.66,-29.9822 1074.81,-18.2153 1014.23,-13.5856"/>
<polygon fill="midnightblue" stroke="midnightblue" points="1014.45,-10.0927 1004.22,-12.8524 1013.94,-17.074 1014.45,-10.0927"/>
</g>
<!-- Node15 -->
<g id="node15" class="node"><title>Node15</title>
<polygon fill="white" stroke="#bfbfbf" points="1313.42,-129 1313.42,-148 1384.42,-148 1384.42,-129 1313.42,-129"/>
<text text-anchor="middle" x="1348.92" y="-136" font-family="Helvetica,sans-Serif" font-size="10.00">forward_list</text>
</g>
<!-- Node12&#45;&gt;Node15 -->
<g id="edge14" class="edge"><title>Node12&#45;&gt;Node15</title>
<path fill="none" stroke="midnightblue" d="M1282.31,-195.734C1294.77,-185.208 1315.89,-167.379 1331.01,-154.617"/>
<polygon fill="midnightblue" stroke="midnightblue" points="1333.32,-157.252 1338.7,-148.127 1328.8,-151.903 1333.32,-157.252"/>
</g>
<!-- Node16 -->
<g id="node16" class="node"><title>Node16</title>
<polygon fill="white" stroke="#bfbfbf" points="1402.42,-123.5 1402.42,-153.5 1539.42,-153.5 1539.42,-123.5 1402.42,-123.5"/>
<text text-anchor="start" x="1410.42" y="-141.5" font-family="Helvetica,sans-Serif" font-size="10.00">boost/smart_ptr/intrusive</text>
<text text-anchor="middle" x="1470.92" y="-130.5" font-family="Helvetica,sans-Serif" font-size="10.00">_ptr.hpp</text>
</g>
<!-- Node12&#45;&gt;Node16 -->
<g id="edge21" class="edge"><title>Node12&#45;&gt;Node16</title>
<path fill="none" stroke="midnightblue" d="M1293.98,-197.296C1323.71,-187.585 1377.57,-169.99 1418.09,-156.756"/>
<polygon fill="midnightblue" stroke="midnightblue" points="1419.4,-160.01 1427.82,-153.578 1417.23,-153.356 1419.4,-160.01"/>
</g>
<!-- Node12&#45;&gt;Node17 -->
<g id="edge22" class="edge"><title>Node12&#45;&gt;Node17</title>
<path fill="none" stroke="midnightblue" d="M1249.64,-201.051C1180.76,-190.392 970.909,-157.915 887.069,-144.94"/>
<polygon fill="midnightblue" stroke="midnightblue" points="887.441,-141.456 877.024,-143.385 886.371,-148.373 887.441,-141.456"/>
</g>
<!-- Node29 -->
<g id="node29" class="node"><title>Node29</title>
<g id="a_node29"><a xlink:href="settings_8h.xhtml" target="_top" xlink:title="Builder for settings. ">
<polygon fill="white" stroke="black" points="1557.92,-129 1557.92,-148 1621.92,-148 1621.92,-129 1557.92,-129"/>
<text text-anchor="middle" x="1589.92" y="-136" font-family="Helvetica,sans-Serif" font-size="10.00">settings.h</text>
</a>
</g>
</g>
<!-- Node12&#45;&gt;Node29 -->
<g id="edge46" class="edge"><title>Node12&#45;&gt;Node29</title>
<path fill="none" stroke="midnightblue" d="M1293.99,-201.62C1341.12,-195.22 1454.87,-178.426 1547.92,-154 1550.96,-153.203 1554.09,-152.293 1557.21,-151.327"/>
<polygon fill="midnightblue" stroke="midnightblue" points="1558.6,-154.555 1567.01,-148.113 1556.41,-147.904 1558.6,-154.555"/>
</g>
<!-- Node17&#45;&gt;Node2 -->
<g id="edge23" class="edge"><title>Node17&#45;&gt;Node2</title>
<path fill="none" stroke="midnightblue" d="M877.026,-135.031C978.674,-125.036 1359.87,-87.5503 1477.88,-75.946"/>
<polygon fill="midnightblue" stroke="midnightblue" points="1478.53,-79.3984 1488.14,-74.9365 1477.85,-72.432 1478.53,-79.3984"/>
</g>
<!-- Node17&#45;&gt;Node5 -->
<g id="edge27" class="edge"><title>Node17&#45;&gt;Node5</title>
<path fill="none" stroke="midnightblue" d="M875.558,-128.869C906.63,-117.522 961.392,-97.5246 996.642,-84.6522"/>
<polygon fill="midnightblue" stroke="midnightblue" points="998.277,-87.7815 1006.47,-81.0637 995.876,-81.2062 998.277,-87.7815"/>
</g>
<!-- Node17&#45;&gt;Node6 -->
<g id="edge29" class="edge"><title>Node17&#45;&gt;Node6</title>
<path fill="none" stroke="midnightblue" d="M877.121,-131.776C917.324,-122.6 998.427,-103.909 1066.92,-87 1071.32,-85.9146 1075.9,-84.7616 1080.47,-83.5986"/>
<polygon fill="midnightblue" stroke="midnightblue" points="1081.56,-86.933 1090.38,-81.0589 1079.82,-80.1523 1081.56,-86.933"/>
</g>
<!-- Node17&#45;&gt;Node7 -->
<g id="edge30" class="edge"><title>Node17&#45;&gt;Node7</title>
<path fill="none" stroke="midnightblue" d="M867.505,-128.819C893.08,-113.527 938.928,-81.0359 915.921,-56 881.93,-19.0124 524.023,-12.3988 415.159,-11.2406"/>
<polygon fill="midnightblue" stroke="midnightblue" points="415.168,-7.74056 405.134,-11.1421 415.099,-14.7402 415.168,-7.74056"/>
</g>
<!-- Node17&#45;&gt;Node8 -->
<g id="edge31" class="edge"><title>Node17&#45;&gt;Node8</title>
<path fill="none" stroke="midnightblue" d="M826.829,-137.654C718.354,-138.017 289.63,-136.252 165.921,-87 145.671,-78.9379 144.919,-69.6422 127.921,-56 115.351,-45.9125 101.123,-34.6792 90.0258,-25.9594"/>
<polygon fill="midnightblue" stroke="midnightblue" points="91.9171,-22.9945 81.8892,-19.5751 87.5959,-28.5017 91.9171,-22.9945"/>
</g>
<!-- Node17&#45;&gt;Node11 -->
<g id="edge33" class="edge"><title>Node17&#45;&gt;Node11</title>
<path fill="none" stroke="midnightblue" d="M876.986,-137.053C974.413,-135.069 1337.16,-125.376 1632.92,-87 1641.14,-85.9341 1649.81,-84.5093 1658.22,-82.9682"/>
<polygon fill="midnightblue" stroke="midnightblue" points="1659.12,-86.3591 1668.29,-81.0469 1657.81,-79.4831 1659.12,-86.3591"/>
</g>
<!-- Node17&#45;&gt;Node14 -->
<g id="edge25" class="edge"><title>Node17&#45;&gt;Node14</title>
<path fill="none" stroke="midnightblue" d="M877.322,-130.358C899.244,-122.941 930.244,-109.249 948.921,-87 962.654,-70.6398 968.552,-46.3741 971.07,-29.6866"/>
<polygon fill="midnightblue" stroke="midnightblue" points="974.571,-29.8893 972.328,-19.5348 967.625,-29.0283 974.571,-29.8893"/>
</g>
<!-- Node18 -->
<g id="node18" class="node"><title>Node18</title>
<polygon fill="white" stroke="#bfbfbf" points="581.421,-62 581.421,-81 628.421,-81 628.421,-62 581.421,-62"/>
<text text-anchor="middle" x="604.921" y="-69" font-family="Helvetica,sans-Serif" font-size="10.00">cstdlib</text>
</g>
<!-- Node17&#45;&gt;Node18 -->
<g id="edge24" class="edge"><title>Node17&#45;&gt;Node18</title>
<path fill="none" stroke="midnightblue" d="M826.796,-133.112C786.384,-125.713 704.711,-109.347 637.921,-87 636.051,-86.3746 634.142,-85.6835 632.232,-84.9524"/>
<polygon fill="midnightblue" stroke="midnightblue" points="633.422,-81.6573 622.843,-81.0823 630.754,-88.1291 633.422,-81.6573"/>
</g>
<!-- Node19 -->
<g id="node19" class="node"><title>Node19</title>
<polygon fill="white" stroke="#bfbfbf" points="646.921,-62 646.921,-81 692.921,-81 692.921,-62 646.921,-62"/>
<text text-anchor="middle" x="669.921" y="-69" font-family="Helvetica,sans-Serif" font-size="10.00">iosfwd</text>
</g>
<!-- Node17&#45;&gt;Node19 -->
<g id="edge26" class="edge"><title>Node17&#45;&gt;Node19</title>
<path fill="none" stroke="midnightblue" d="M826.695,-129.862C796.66,-120.572 745.13,-104.013 701.921,-87 700.502,-86.4414 699.055,-85.8535 697.599,-85.2476"/>
<polygon fill="midnightblue" stroke="midnightblue" points="698.627,-81.8783 688.061,-81.1021 695.837,-88.2981 698.627,-81.8783"/>
</g>
<!-- Node20 -->
<g id="node20" class="node"><title>Node20</title>
<polygon fill="white" stroke="#bfbfbf" points="710.921,-62 710.921,-81 778.921,-81 778.921,-62 710.921,-62"/>
<text text-anchor="middle" x="744.921" y="-69" font-family="Helvetica,sans-Serif" font-size="10.00">type_traits</text>
</g>
<!-- Node17&#45;&gt;Node20 -->
<g id="edge28" class="edge"><title>Node17&#45;&gt;Node20</title>
<path fill="none" stroke="midnightblue" d="M837.49,-128.734C819.602,-117.867 788.9,-99.2161 767.791,-86.3931"/>
<polygon fill="midnightblue" stroke="midnightblue" points="769.486,-83.3279 759.123,-81.1273 765.852,-89.3105 769.486,-83.3279"/>
</g>
<!-- Node21 -->
<g id="node21" class="node"><title>Node21</title>
<polygon fill="white" stroke="#bfbfbf" points="796.921,-56.5 796.921,-86.5 906.921,-86.5 906.921,-56.5 796.921,-56.5"/>
<text text-anchor="start" x="804.921" y="-74.5" font-family="Helvetica,sans-Serif" font-size="10.00">boost/container/flat</text>
<text text-anchor="middle" x="851.921" y="-63.5" font-family="Helvetica,sans-Serif" font-size="10.00">_set.hpp</text>
</g>
<!-- Node17&#45;&gt;Node21 -->
<g id="edge32" class="edge"><title>Node17&#45;&gt;Node21</title>
<path fill="none" stroke="midnightblue" d="M851.921,-128.734C851.921,-120.541 851.921,-107.923 851.921,-96.7136"/>
<polygon fill="midnightblue" stroke="midnightblue" points="855.421,-96.589 851.921,-86.589 848.421,-96.5891 855.421,-96.589"/>
</g>
<!-- Node22 -->
<g id="node22" class="node"><title>Node22</title>
<polygon fill="white" stroke="#bfbfbf" points="448.421,-56.5 448.421,-86.5 563.421,-86.5 563.421,-56.5 448.421,-56.5"/>
<text text-anchor="start" x="456.421" y="-74.5" font-family="Helvetica,sans-Serif" font-size="10.00">boost/range/adaptor</text>
<text text-anchor="middle" x="505.921" y="-63.5" font-family="Helvetica,sans-Serif" font-size="10.00">/transformed.hpp</text>
</g>
<!-- Node17&#45;&gt;Node22 -->
<g id="edge34" class="edge"><title>Node17&#45;&gt;Node22</title>
<path fill="none" stroke="midnightblue" d="M826.761,-133.291C779.238,-125.27 672.8,-106.971 573.392,-87.2553"/>
<polygon fill="midnightblue" stroke="midnightblue" points="573.978,-83.8034 563.487,-85.2814 572.61,-90.6684 573.978,-83.8034"/>
</g>
<!-- Node23 -->
<g id="node23" class="node"><title>Node23</title>
<g id="a_node23"><a xlink:href="find__iterator_8h.xhtml" target="_top" xlink:title="Convenience iterator adaptor to wrap find calls and results. ">
<polygon fill="white" stroke="black" points="329.421,-62 329.421,-81 430.421,-81 430.421,-62 329.421,-62"/>
<text text-anchor="middle" x="379.921" y="-69" font-family="Helvetica,sans-Serif" font-size="10.00">ext/find_iterator.h</text>
</a>
</g>
</g>
<!-- Node17&#45;&gt;Node23 -->
<g id="edge35" class="edge"><title>Node17&#45;&gt;Node23</title>
<path fill="none" stroke="midnightblue" d="M826.62,-135.465C761.792,-130.023 584.575,-113.705 438.921,-87 433.344,-85.9776 427.508,-84.7453 421.768,-83.4363"/>
<polygon fill="midnightblue" stroke="midnightblue" points="422.153,-79.9306 411.615,-81.0261 420.537,-86.7413 422.153,-79.9306"/>
</g>
<!-- Node24 -->
<g id="node24" class="node"><title>Node24</title>
<g id="a_node24"><a xlink:href="index__map_8h.xhtml" target="_top" xlink:title="Non&#45;zero based Index&#45;&gt;Value map adapter on sequential containers. ">
<polygon fill="white" stroke="black" points="22.9207,-62 22.9207,-81 118.921,-81 118.921,-62 22.9207,-62"/>
<text text-anchor="middle" x="70.9207" y="-69" font-family="Helvetica,sans-Serif" font-size="10.00">ext/index_map.h</text>
</a>
</g>
</g>
<!-- Node17&#45;&gt;Node24 -->
<g id="edge37" class="edge"><title>Node17&#45;&gt;Node24</title>
<path fill="none" stroke="midnightblue" d="M826.607,-137.181C733.626,-135.699 402.343,-127.7 132.921,-87 126.465,-86.0248 119.688,-84.7277 113.081,-83.3093"/>
<polygon fill="midnightblue" stroke="midnightblue" points="113.437,-79.8013 102.911,-81.0091 111.893,-86.6288 113.437,-79.8013"/>
</g>
<!-- Node25 -->
<g id="node25" class="node"><title>Node25</title>
<g id="a_node25"><a xlink:href="linear__map_8h.xhtml" target="_top" xlink:title="Implementation of a vector&#45;based map for a small number of entries. ">
<polygon fill="white" stroke="black" points="175.421,-62 175.421,-81 272.421,-81 272.421,-62 175.421,-62"/>
<text text-anchor="middle" x="223.921" y="-69" font-family="Helvetica,sans-Serif" font-size="10.00">ext/linear_map.h</text>
</a>
</g>
</g>
<!-- Node17&#45;&gt;Node25 -->
<g id="edge39" class="edge"><title>Node17&#45;&gt;Node25</title>
<path fill="none" stroke="midnightblue" d="M826.668,-135.602C750.193,-129.745 514.447,-110.905 319.921,-87 307.896,-85.5223 295.056,-83.7314 282.807,-81.9196"/>
<polygon fill="midnightblue" stroke="midnightblue" points="283.096,-78.4239 272.687,-80.3992 282.056,-85.3462 283.096,-78.4239"/>
</g>
<!-- Node23&#45;&gt;Node7 -->
<g id="edge36" class="edge"><title>Node23&#45;&gt;Node7</title>
<path fill="none" stroke="midnightblue" d="M380.494,-61.9751C381.058,-53.5803 381.939,-40.4806 382.666,-29.6631"/>
<polygon fill="midnightblue" stroke="midnightblue" points="386.17,-29.7214 383.349,-19.5091 379.186,-29.2518 386.17,-29.7214"/>
</g>
<!-- Node24&#45;&gt;Node8 -->
<g id="edge38" class="edge"><title>Node24&#45;&gt;Node8</title>
<path fill="none" stroke="midnightblue" d="M70.9207,-61.9751C70.9207,-53.5803 70.9207,-40.4806 70.9207,-29.6631"/>
<polygon fill="midnightblue" stroke="midnightblue" points="74.4208,-29.5091 70.9207,-19.5091 67.4208,-29.5091 74.4208,-29.5091"/>
</g>
<!-- Node25&#45;&gt;Node7 -->
<g id="edge44" class="edge"><title>Node25&#45;&gt;Node7</title>
<path fill="none" stroke="midnightblue" d="M246.845,-61.9751C274.836,-51.5658 322.28,-33.9227 353.356,-22.3663"/>
<polygon fill="midnightblue" stroke="midnightblue" points="354.672,-25.6112 362.825,-18.845 352.232,-19.0501 354.672,-25.6112"/>
</g>
<!-- Node25&#45;&gt;Node8 -->
<g id="edge45" class="edge"><title>Node25&#45;&gt;Node8</title>
<path fill="none" stroke="midnightblue" d="M202,-61.9751C175.868,-51.8129 132.009,-34.7564 102.291,-23.1996"/>
<polygon fill="midnightblue" stroke="midnightblue" points="103.39,-19.8716 92.8012,-19.5091 100.853,-26.3956 103.39,-19.8716"/>
</g>
<!-- Node25&#45;&gt;Node14 -->
<g id="edge41" class="edge"><title>Node25&#45;&gt;Node14</title>
<path fill="none" stroke="midnightblue" d="M272.658,-62.3558C287.772,-60.0411 304.506,-57.6924 319.921,-56 550.622,-30.6704 828.839,-17.115 931.919,-12.6687"/>
<polygon fill="midnightblue" stroke="midnightblue" points="932.069,-16.1656 941.911,-12.2427 931.771,-9.17192 932.069,-16.1656"/>
</g>
<!-- Node26 -->
<g id="node26" class="node"><title>Node26</title>
<polygon fill="white" stroke="#bfbfbf" points="196.921,-0.5 196.921,-19.5 248.921,-19.5 248.921,-0.5 196.921,-0.5"/>
<text text-anchor="middle" x="222.921" y="-7.5" font-family="Helvetica,sans-Serif" font-size="10.00">cassert</text>
</g>
<!-- Node25&#45;&gt;Node26 -->
<g id="edge40" class="edge"><title>Node25&#45;&gt;Node26</title>
<path fill="none" stroke="midnightblue" d="M223.777,-61.9751C223.636,-53.5803 223.416,-40.4806 223.234,-29.6631"/>
<polygon fill="midnightblue" stroke="midnightblue" points="226.731,-29.4488 223.064,-19.5091 219.732,-29.5665 226.731,-29.4488"/>
</g>
<!-- Node27 -->
<g id="node27" class="node"><title>Node27</title>
<polygon fill="white" stroke="#bfbfbf" points="267.421,-0.5 267.421,-19.5 344.421,-19.5 344.421,-0.5 267.421,-0.5"/>
<text text-anchor="middle" x="305.921" y="-7.5" font-family="Helvetica,sans-Serif" font-size="10.00">initializer_list</text>
</g>
<!-- Node25&#45;&gt;Node27 -->
<g id="edge42" class="edge"><title>Node25&#45;&gt;Node27</title>
<path fill="none" stroke="midnightblue" d="M235.669,-61.9751C248.7,-52.5199 269.956,-37.0961 285.68,-25.6871"/>
<polygon fill="midnightblue" stroke="midnightblue" points="288.156,-28.2149 294.194,-19.5091 284.045,-22.5492 288.156,-28.2149"/>
</g>
<!-- Node28 -->
<g id="node28" class="node"><title>Node28</title>
<polygon fill="white" stroke="#bfbfbf" points="114.921,-0.5 114.921,-19.5 178.921,-19.5 178.921,-0.5 114.921,-0.5"/>
<text text-anchor="middle" x="146.921" y="-7.5" font-family="Helvetica,sans-Serif" font-size="10.00">stdexcept</text>
</g>
<!-- Node25&#45;&gt;Node28 -->
<g id="edge43" class="edge"><title>Node25&#45;&gt;Node28</title>
<path fill="none" stroke="midnightblue" d="M212.889,-61.9751C200.652,-52.5199 180.692,-37.0961 165.928,-25.6871"/>
<polygon fill="midnightblue" stroke="midnightblue" points="167.985,-22.8541 157.932,-19.5091 163.705,-28.3931 167.985,-22.8541"/>
</g>
<!-- Node29&#45;&gt;Node2 -->
<g id="edge47" class="edge"><title>Node29&#45;&gt;Node2</title>
<path fill="none" stroke="midnightblue" d="M1579.54,-128.734C1567.07,-118.208 1545.95,-100.379 1530.83,-87.6174"/>
<polygon fill="midnightblue" stroke="midnightblue" points="1533.04,-84.9034 1523.14,-81.1273 1528.52,-90.2524 1533.04,-84.9034"/>
</g>
<!-- Node30 -->
<g id="node30" class="node"><title>Node30</title>
<polygon fill="white" stroke="#bfbfbf" points="1555.42,-62 1555.42,-81 1624.42,-81 1624.42,-62 1555.42,-62"/>
<text text-anchor="middle" x="1589.92" y="-69" font-family="Helvetica,sans-Serif" font-size="10.00">string_view</text>
</g>
<!-- Node29&#45;&gt;Node30 -->
<g id="edge48" class="edge"><title>Node29&#45;&gt;Node30</title>
<path fill="none" stroke="midnightblue" d="M1589.92,-128.734C1589.92,-119.183 1589.92,-103.618 1589.92,-91.2829"/>
<polygon fill="midnightblue" stroke="midnightblue" points="1593.42,-91.1273 1589.92,-81.1273 1586.42,-91.1273 1593.42,-91.1273"/>
</g>
</g>
</svg>
        <g id="navigator" transform="translate(0 0)" fill="#404254">
                <rect fill="#f2f5e9" fill-opacity="0.5" stroke="#606060" stroke-width=".5" x="0" y="0" width="60" height="60"/>
                <use id="zoomplus" xlink:href="#zoomPlus" x="17" y="9" onmousedown="handleZoom(evt,'in')"/>
                <use id="zoomminus" xlink:href="#zoomMin" x="42" y="9" onmousedown="handleZoom(evt,'out')"/>
                <use id="reset" xlink:href="#resetDef" x="30" y="36" onmousedown="handleReset()"/>
                <g id="arrowUp" xlink:href="#dirArrow" transform="translate(30 24)" onmousedown="handlePan(0,-1)">
                  <use xlink:href="#rim" fill="#404040">
                        <set attributeName="fill" to="#808080" begin="arrowUp.mouseover" end="arrowUp.mouseout"/>
                  </use>
                  <path fill="none" stroke="white" stroke-width="1.5" d="M0,-3.0v7 M-2.5,-0.5L0,-3.0L2.5,-0.5"/>
                </g>
                <g id="arrowRight" xlink:href="#dirArrow" transform="rotate(90) translate(36 -43)" onmousedown="handlePan(1,0)">
                  <use xlink:href="#rim" fill="#404040">
                        <set attributeName="fill" to="#808080" begin="arrowRight.mouseover" end="arrowRight.mouseout"/>
                  </use>
                  <path fill="none" stroke="white" stroke-width="1.5" d="M0,-3.0v7 M-2.5,-0.5L0,-3.0L2.5,-0.5"/>
                </g>
                <g id="arrowDown" xlink:href="#dirArrow" transform="rotate(180) translate(-30 -48)" onmousedown="handlePan(0,1)">
                  <use xlink:href="#rim" fill="#404040">
                        <set attributeName="fill" to="#808080" begin="arrowDown.mouseover" end="arrowDown.mouseout"/>
                  </use>
                  <path fill="none" stroke="white" stroke-width="1.5" d="M0,-3.0v7 M-2.5,-0.5L0,-3.0L2.5,-0.5"/>
                </g>
                <g id="arrowLeft" xlink:href="#dirArrow" transform="rotate(270) translate(-36 17)" onmousedown="handlePan(-1,0)">
                  <use xlink:href="#rim" fill="#404040">
                        <set attributeName="fill" to="#808080" begin="arrowLeft.mouseover" end="arrowLeft.mouseout"/>
                  </use>
                  <path fill="none" stroke="white" stroke-width="1.5" d="M0,-3.0v7 M-2.5,-0.5L0,-3.0L2.5,-0.5"/>
                </g>
        </g>
        <svg viewBox="0 0 15 15" width="100%" height="30px" preserveAspectRatio="xMaxYMin meet">
         <g id="arrow_out" transform="scale(0.3 0.3)">
          <a xlink:href="zbdd_8h__incl_org.svg" target="_base">
           <rect id="button" ry="5" rx="5" y="6" x="6" height="38" width="38"
                fill="#f2f5e9" fill-opacity="0.5" stroke="#606060" stroke-width="1.0"/>
           <path id="arrow"
             d="M 11.500037,31.436501 C 11.940474,20.09759 22.043105,11.32322 32.158766,21.979434 L 37.068811,17.246167 C 37.068811,17.246167 37.088388,32 37.088388,32 L 22.160133,31.978069 C 22.160133,31.978069 26.997745,27.140456 26.997745,27.140456 C 18.528582,18.264221 13.291696,25.230495 11.500037,31.436501 z"
             style="fill:#404040;"/>
          </a>
         </g>
        </svg>
</svg>
