<?xml version="1.0" encoding="UTF-8" standalone="no"?>
<!DOCTYPE svg PUBLIC "-//W3C//DTD SVG 1.1//EN"
 "http://www.w3.org/Graphics/SVG/1.1/DTD/svg11.dtd">
<!-- Generated by graphviz version 2.38.0 (20140413.2041)
 -->
<!-- Title: zbdd.cc Pages: 1 -->
<svg width="2260pt" height="341pt"
 viewBox="0.00 0.00 2259.74 341.00" xmlns="http://www.w3.org/2000/svg" xmlns:xlink="http://www.w3.org/1999/xlink">
<g id="graph0" class="graph" transform="scale(1 1) rotate(0) translate(4 337)">
<title>zbdd.cc</title>
<polygon fill="white" stroke="none" points="-4,4 -4,-337 2255.74,-337 2255.74,4 -4,4"/>
<!-- Node1 -->
<g id="node1" class="node"><title>Node1</title>
<polygon fill="#bfbfbf" stroke="black" points="1998.5,-313.5 1998.5,-332.5 2051.5,-332.5 2051.5,-313.5 1998.5,-313.5"/>
<text text-anchor="middle" x="2025" y="-320.5" font-family="Helvetica,sans-Serif" font-size="10.00">zbdd.cc</text>
</g>
<!-- Node2 -->
<g id="node2" class="node"><title>Node2</title>
<g id="a_node2"><a xlink:href="zbdd_8h.xhtml" target="_top" xlink:title="Zero&#45;Suppressed Binary Decision Diagram facilities. ">
<polygon fill="white" stroke="black" points="1066.5,-257.5 1066.5,-276.5 1115.5,-276.5 1115.5,-257.5 1066.5,-257.5"/>
<text text-anchor="middle" x="1091" y="-264.5" font-family="Helvetica,sans-Serif" font-size="10.00">zbdd.h</text>
</a>
</g>
</g>
<!-- Node1&#45;&gt;Node2 -->
<g id="edge1" class="edge"><title>Node1&#45;&gt;Node2</title>
<path fill="none" stroke="midnightblue" d="M1998.05,-320.442C1864.72,-312.733 1275.91,-278.691 1125.88,-270.017"/>
<polygon fill="midnightblue" stroke="midnightblue" points="1126.04,-266.52 1115.85,-269.437 1125.63,-273.508 1126.04,-266.52"/>
</g>
<!-- Node15 -->
<g id="node15" class="node"><title>Node15</title>
<polygon fill="white" stroke="#bfbfbf" points="1942,-0.5 1942,-19.5 2004,-19.5 2004,-0.5 1942,-0.5"/>
<text text-anchor="middle" x="1973" y="-7.5" font-family="Helvetica,sans-Serif" font-size="10.00">algorithm</text>
</g>
<!-- Node1&#45;&gt;Node15 -->
<g id="edge52" class="edge"><title>Node1&#45;&gt;Node15</title>
<path fill="none" stroke="midnightblue" d="M2029.66,-313.384C2047.91,-278.329 2111.05,-144.105 2058,-56 2048.28,-39.8569 2030.61,-29.2016 2013.89,-22.3329"/>
<polygon fill="midnightblue" stroke="midnightblue" points="2014.82,-18.9419 2004.22,-18.7134 2012.36,-25.4975 2014.82,-18.9419"/>
</g>
<!-- Node19 -->
<g id="node19" class="node"><title>Node19</title>
<polygon fill="white" stroke="#bfbfbf" points="2001.5,-62 2001.5,-81 2048.5,-81 2048.5,-62 2001.5,-62"/>
<text text-anchor="middle" x="2025" y="-69" font-family="Helvetica,sans-Serif" font-size="10.00">cstdlib</text>
</g>
<!-- Node1&#45;&gt;Node19 -->
<g id="edge51" class="edge"><title>Node1&#45;&gt;Node19</title>
<path fill="none" stroke="midnightblue" d="M2025,-313.412C2025,-277.798 2025,-141.252 2025,-91.1085"/>
<polygon fill="midnightblue" stroke="midnightblue" points="2028.5,-91.0522 2025,-81.0522 2021.5,-91.0523 2028.5,-91.0522"/>
</g>
<!-- Node24 -->
<g id="node24" class="node"><title>Node24</title>
<g id="a_node24"><a xlink:href="find__iterator_8h.xhtml" target="_top" xlink:title="Convenience iterator adaptor to wrap find calls and results. ">
<polygon fill="white" stroke="black" points="1049.5,-62 1049.5,-81 1150.5,-81 1150.5,-62 1049.5,-62"/>
<text text-anchor="middle" x="1100" y="-69" font-family="Helvetica,sans-Serif" font-size="10.00">ext/find_iterator.h</text>
</a>
</g>
</g>
<!-- Node1&#45;&gt;Node24 -->
<g id="edge57" class="edge"><title>Node1&#45;&gt;Node24</title>
<path fill="none" stroke="midnightblue" d="M1998.38,-321.931C1851.63,-321.396 1144.84,-316.758 1057,-277 1015.54,-258.235 987.606,-232.827 1003,-190 1018.54,-146.768 1057.64,-108.116 1081.18,-87.7268"/>
<polygon fill="midnightblue" stroke="midnightblue" points="1083.69,-90.1894 1089.07,-81.0666 1079.17,-84.8385 1083.69,-90.1894"/>
</g>
<!-- Node32 -->
<g id="node32" class="node"><title>Node32</title>
<polygon fill="white" stroke="#bfbfbf" points="2094,-196 2094,-215 2238,-215 2238,-196 2094,-196"/>
<text text-anchor="middle" x="2166" y="-203" font-family="Helvetica,sans-Serif" font-size="10.00">boost/range/algorithm.hpp</text>
</g>
<!-- Node1&#45;&gt;Node32 -->
<g id="edge53" class="edge"><title>Node1&#45;&gt;Node32</title>
<path fill="none" stroke="midnightblue" d="M2035.55,-313.376C2046.62,-304.32 2064.54,-289.664 2080,-277 2103.15,-258.042 2129.79,-236.199 2147.21,-221.913"/>
<polygon fill="midnightblue" stroke="midnightblue" points="2149.9,-224.234 2155.41,-215.186 2145.46,-218.821 2149.9,-224.234"/>
</g>
<!-- Node33 -->
<g id="node33" class="node"><title>Node33</title>
<g id="a_node33"><a xlink:href="algorithm_8h.xhtml" target="_top" xlink:title="Helpful algorithm facilities as an extension to the STL or Boost. ">
<polygon fill="white" stroke="black" points="2132.5,-257.5 2132.5,-276.5 2221.5,-276.5 2221.5,-257.5 2132.5,-257.5"/>
<text text-anchor="middle" x="2177" y="-264.5" font-family="Helvetica,sans-Serif" font-size="10.00">ext/algorithm.h</text>
</a>
</g>
</g>
<!-- Node1&#45;&gt;Node33 -->
<g id="edge54" class="edge"><title>Node1&#45;&gt;Node33</title>
<path fill="none" stroke="midnightblue" d="M2049.08,-313.444C2074.54,-304.399 2114.89,-290.064 2143.46,-279.916"/>
<polygon fill="midnightblue" stroke="midnightblue" points="2144.78,-283.162 2153.03,-276.516 2142.43,-276.566 2144.78,-283.162"/>
</g>
<!-- Node34 -->
<g id="node34" class="node"><title>Node34</title>
<g id="a_node34"><a xlink:href="logger_8h.xhtml" target="_top" xlink:title="Logging capability for various purposes, such as warnings and debugging. ">
<polygon fill="white" stroke="black" points="196.5,-129 196.5,-148 251.5,-148 251.5,-129 196.5,-129"/>
<text text-anchor="middle" x="224" y="-136" font-family="Helvetica,sans-Serif" font-size="10.00">logger.h</text>
</a>
</g>
</g>
<!-- Node1&#45;&gt;Node34 -->
<g id="edge58" class="edge"><title>Node1&#45;&gt;Node34</title>
<path fill="none" stroke="midnightblue" d="M1998.35,-321.323C1876.13,-318.13 1357.06,-303.608 932,-277 635.536,-258.442 512.922,-386.121 266,-221 244.33,-206.509 233.198,-177.205 227.988,-157.971"/>
<polygon fill="midnightblue" stroke="midnightblue" points="231.386,-157.128 225.623,-148.238 224.584,-158.782 231.386,-157.128"/>
</g>
<!-- Node3 -->
<g id="node3" class="node"><title>Node3</title>
<polygon fill="white" stroke="#bfbfbf" points="454.5,-62 454.5,-81 503.5,-81 503.5,-62 454.5,-62"/>
<text text-anchor="middle" x="479" y="-69" font-family="Helvetica,sans-Serif" font-size="10.00">cstdint</text>
</g>
<!-- Node2&#45;&gt;Node3 -->
<g id="edge2" class="edge"><title>Node2&#45;&gt;Node3</title>
<path fill="none" stroke="midnightblue" d="M1066.21,-265.913C955.307,-264.951 506.352,-254.805 421,-154 402.193,-131.788 432.867,-103.73 456.296,-86.9996"/>
<polygon fill="midnightblue" stroke="midnightblue" points="458.527,-89.7141 464.803,-81.1779 454.574,-83.9374 458.527,-89.7141"/>
</g>
<!-- Node4 -->
<g id="node4" class="node"><title>Node4</title>
<polygon fill="white" stroke="#bfbfbf" points="1012.5,-196 1012.5,-215 1053.5,-215 1053.5,-196 1012.5,-196"/>
<text text-anchor="middle" x="1033" y="-203" font-family="Helvetica,sans-Serif" font-size="10.00">array</text>
</g>
<!-- Node2&#45;&gt;Node4 -->
<g id="edge3" class="edge"><title>Node2&#45;&gt;Node4</title>
<path fill="none" stroke="midnightblue" d="M1082.69,-257.475C1073.82,-248.373 1059.55,-233.741 1048.58,-222.483"/>
<polygon fill="midnightblue" stroke="midnightblue" points="1050.78,-219.727 1041.29,-215.009 1045.77,-224.613 1050.78,-219.727"/>
</g>
<!-- Node5 -->
<g id="node5" class="node"><title>Node5</title>
<polygon fill="white" stroke="#bfbfbf" points="1072,-196 1072,-215 1110,-215 1110,-196 1072,-196"/>
<text text-anchor="middle" x="1091" y="-203" font-family="Helvetica,sans-Serif" font-size="10.00">map</text>
</g>
<!-- Node2&#45;&gt;Node5 -->
<g id="edge4" class="edge"><title>Node2&#45;&gt;Node5</title>
<path fill="none" stroke="midnightblue" d="M1091,-257.475C1091,-249.08 1091,-235.981 1091,-225.163"/>
<polygon fill="midnightblue" stroke="midnightblue" points="1094.5,-225.009 1091,-215.009 1087.5,-225.009 1094.5,-225.009"/>
</g>
<!-- Node6 -->
<g id="node6" class="node"><title>Node6</title>
<polygon fill="white" stroke="#bfbfbf" points="1887.5,-62 1887.5,-81 1944.5,-81 1944.5,-62 1887.5,-62"/>
<text text-anchor="middle" x="1916" y="-69" font-family="Helvetica,sans-Serif" font-size="10.00">memory</text>
</g>
<!-- Node2&#45;&gt;Node6 -->
<g id="edge5" class="edge"><title>Node2&#45;&gt;Node6</title>
<path fill="none" stroke="midnightblue" d="M1115.56,-266.208C1237.8,-266.726 1779.43,-262.78 1897,-154 1914.13,-138.148 1917.24,-110.094 1917.19,-91.3972"/>
<polygon fill="midnightblue" stroke="midnightblue" points="1920.68,-91.0322 1916.84,-81.1572 1913.68,-91.2707 1920.68,-91.0322"/>
</g>
<!-- Node7 -->
<g id="node7" class="node"><title>Node7</title>
<polygon fill="white" stroke="#bfbfbf" points="861.5,-62 861.5,-81 954.5,-81 954.5,-62 861.5,-62"/>
<text text-anchor="middle" x="908" y="-69" font-family="Helvetica,sans-Serif" font-size="10.00">unordered_map</text>
</g>
<!-- Node2&#45;&gt;Node7 -->
<g id="edge6" class="edge"><title>Node2&#45;&gt;Node7</title>
<path fill="none" stroke="midnightblue" d="M1066.49,-257.543C1047.56,-250.109 1021.55,-237.841 1003,-221 960.637,-182.537 929.482,-121.052 915.759,-90.6851"/>
<polygon fill="midnightblue" stroke="midnightblue" points="918.874,-89.0734 911.642,-81.3304 912.467,-91.8931 918.874,-89.0734"/>
</g>
<!-- Node8 -->
<g id="node8" class="node"><title>Node8</title>
<polygon fill="white" stroke="#bfbfbf" points="1079,-0.5 1079,-19.5 1121,-19.5 1121,-0.5 1079,-0.5"/>
<text text-anchor="middle" x="1100" y="-7.5" font-family="Helvetica,sans-Serif" font-size="10.00">utility</text>
</g>
<!-- Node2&#45;&gt;Node8 -->
<g id="edge7" class="edge"><title>Node2&#45;&gt;Node8</title>
<path fill="none" stroke="midnightblue" d="M1115.64,-262.972C1157.55,-257.259 1239.86,-243.411 1257,-221 1265.37,-210.057 1264.36,-201.645 1257,-190 1199.95,-99.7663 1097.05,-177.234 1040,-87 1032.64,-75.3547 1033.84,-68.3232 1040,-56 1046.73,-42.5432 1059.61,-32.0665 1071.71,-24.6212"/>
<polygon fill="midnightblue" stroke="midnightblue" points="1073.73,-27.4985 1080.7,-19.5195 1070.28,-21.4101 1073.73,-27.4985"/>
</g>
<!-- Node9 -->
<g id="node9" class="node"><title>Node9</title>
<polygon fill="white" stroke="#bfbfbf" points="997.5,-0.5 997.5,-19.5 1044.5,-19.5 1044.5,-0.5 997.5,-0.5"/>
<text text-anchor="middle" x="1021" y="-7.5" font-family="Helvetica,sans-Serif" font-size="10.00">vector</text>
</g>
<!-- Node2&#45;&gt;Node9 -->
<g id="edge8" class="edge"><title>Node2&#45;&gt;Node9</title>
<path fill="none" stroke="midnightblue" d="M1066.27,-265.477C951.539,-262.902 474.229,-250.483 415,-221 344.483,-185.898 326.51,-160.811 299,-87 294.188,-74.0898 289.566,-66.0408 299,-56 322.861,-30.6052 848.138,-15.4173 987.378,-11.828"/>
<polygon fill="midnightblue" stroke="midnightblue" points="987.551,-15.3248 997.458,-11.5711 987.373,-8.3271 987.551,-15.3248"/>
</g>
<!-- Node10 -->
<g id="node10" class="node"><title>Node10</title>
<polygon fill="white" stroke="#bfbfbf" points="1748,-129 1748,-148 1888,-148 1888,-129 1748,-129"/>
<text text-anchor="middle" x="1818" y="-136" font-family="Helvetica,sans-Serif" font-size="10.00">boost/functional/hash.hpp</text>
</g>
<!-- Node2&#45;&gt;Node10 -->
<g id="edge9" class="edge"><title>Node2&#45;&gt;Node10</title>
<path fill="none" stroke="midnightblue" d="M1115.61,-261.719C1217.62,-243.968 1609.01,-175.866 1759.01,-149.764"/>
<polygon fill="midnightblue" stroke="midnightblue" points="1759.71,-153.195 1768.97,-148.032 1758.51,-146.298 1759.71,-153.195"/>
</g>
<!-- Node11 -->
<g id="node11" class="node"><title>Node11</title>
<polygon fill="white" stroke="#bfbfbf" points="1128,-190.5 1128,-220.5 1248,-220.5 1248,-190.5 1128,-190.5"/>
<text text-anchor="start" x="1136" y="-208.5" font-family="Helvetica,sans-Serif" font-size="10.00">boost/iterator/iterator</text>
<text text-anchor="middle" x="1188" y="-197.5" font-family="Helvetica,sans-Serif" font-size="10.00">_facade.hpp</text>
</g>
<!-- Node2&#45;&gt;Node11 -->
<g id="edge10" class="edge"><title>Node2&#45;&gt;Node11</title>
<path fill="none" stroke="midnightblue" d="M1104.9,-257.475C1118.28,-249.266 1139,-236.558 1156.4,-225.885"/>
<polygon fill="midnightblue" stroke="midnightblue" points="1158.44,-228.735 1165.14,-220.523 1154.78,-222.768 1158.44,-228.735"/>
</g>
<!-- Node12 -->
<g id="node12" class="node"><title>Node12</title>
<polygon fill="white" stroke="#bfbfbf" points="308,-62 308,-81 436,-81 436,-62 308,-62"/>
<text text-anchor="middle" x="372" y="-69" font-family="Helvetica,sans-Serif" font-size="10.00">boost/noncopyable.hpp</text>
</g>
<!-- Node2&#45;&gt;Node12 -->
<g id="edge11" class="edge"><title>Node2&#45;&gt;Node12</title>
<path fill="none" stroke="midnightblue" d="M1066.19,-266.089C965.375,-266.162 586.526,-263.544 476,-221 430.782,-203.594 415.867,-194.97 390,-154 377.88,-134.803 373.853,-108.576 372.553,-91.1147"/>
<polygon fill="midnightblue" stroke="midnightblue" points="376.045,-90.8746 372.034,-81.0682 369.054,-91.2353 376.045,-90.8746"/>
</g>
<!-- Node13 -->
<g id="node13" class="node"><title>Node13</title>
<g id="a_node13"><a xlink:href="bdd_8h.xhtml" target="_top" xlink:title="Fault tree analysis with the Binary Decision Diagram algorithms. ">
<polygon fill="white" stroke="black" points="848,-196 848,-215 892,-215 892,-196 848,-196"/>
<text text-anchor="middle" x="870" y="-203" font-family="Helvetica,sans-Serif" font-size="10.00">bdd.h</text>
</a>
</g>
</g>
<!-- Node2&#45;&gt;Node13 -->
<g id="edge12" class="edge"><title>Node2&#45;&gt;Node13</title>
<path fill="none" stroke="midnightblue" d="M1066.08,-259.29C1025.76,-248.435 946.27,-227.034 901.884,-215.084"/>
<polygon fill="midnightblue" stroke="midnightblue" points="902.752,-211.693 892.185,-212.473 900.932,-218.452 902.752,-211.693"/>
</g>
<!-- Node18 -->
<g id="node18" class="node"><title>Node18</title>
<g id="a_node18"><a xlink:href="pdag_8h.xhtml" target="_top" xlink:title="Classes and facilities to represent fault trees as PDAGs with event and gate indices instead of ID na...">
<polygon fill="white" stroke="black" points="1289,-129 1289,-148 1339,-148 1339,-129 1289,-129"/>
<text text-anchor="middle" x="1314" y="-136" font-family="Helvetica,sans-Serif" font-size="10.00">pdag.h</text>
</a>
</g>
</g>
<!-- Node2&#45;&gt;Node18 -->
<g id="edge50" class="edge"><title>Node2&#45;&gt;Node18</title>
<path fill="none" stroke="midnightblue" d="M1115.59,-263.537C1163.06,-258.299 1264.88,-244.566 1290,-221 1307.28,-204.788 1312.33,-176.827 1313.68,-158.248"/>
<polygon fill="midnightblue" stroke="midnightblue" points="1317.19,-158.225 1314.13,-148.081 1310.2,-157.918 1317.19,-158.225"/>
</g>
<!-- Node13&#45;&gt;Node6 -->
<g id="edge16" class="edge"><title>Node13&#45;&gt;Node6</title>
<path fill="none" stroke="midnightblue" d="M892.118,-202.057C918.508,-199.15 963.968,-194.164 1003,-190 1390.17,-148.695 1493.54,-174.282 1873,-87 1876.48,-86.1987 1880.08,-85.2259 1883.65,-84.1676"/>
<polygon fill="midnightblue" stroke="midnightblue" points="1885.02,-87.4049 1893.48,-81.0299 1882.89,-80.7363 1885.02,-87.4049"/>
</g>
<!-- Node13&#45;&gt;Node7 -->
<g id="edge17" class="edge"><title>Node13&#45;&gt;Node7</title>
<path fill="none" stroke="midnightblue" d="M872.493,-195.839C878.613,-174.58 894.48,-119.463 902.775,-90.6506"/>
<polygon fill="midnightblue" stroke="midnightblue" points="906.144,-91.5992 905.547,-81.0212 899.417,-89.6626 906.144,-91.5992"/>
</g>
<!-- Node13&#45;&gt;Node8 -->
<g id="edge18" class="edge"><title>Node13&#45;&gt;Node8</title>
<path fill="none" stroke="midnightblue" d="M865.075,-195.89C851.535,-170.958 817.001,-97.8248 852,-56 881.121,-21.1996 1008.38,-28.2673 1053,-20 1058.18,-19.0407 1063.67,-18.0049 1069.01,-16.9891"/>
<polygon fill="midnightblue" stroke="midnightblue" points="1069.79,-20.4032 1078.95,-15.0859 1068.47,-13.528 1069.79,-20.4032"/>
</g>
<!-- Node13&#45;&gt;Node9 -->
<g id="edge19" class="edge"><title>Node13&#45;&gt;Node9</title>
<path fill="none" stroke="midnightblue" d="M861.87,-195.816C839.907,-171.3 783.363,-100.45 819,-56 839.711,-30.168 935.298,-18.207 987.215,-13.5334"/>
<polygon fill="midnightblue" stroke="midnightblue" points="987.621,-17.0115 997.285,-12.6691 987.022,-10.0372 987.621,-17.0115"/>
</g>
<!-- Node13&#45;&gt;Node10 -->
<g id="edge20" class="edge"><title>Node13&#45;&gt;Node10</title>
<path fill="none" stroke="midnightblue" d="M892.083,-201.686C918.44,-198.422 963.868,-193.094 1003,-190 1327.27,-164.362 1410.69,-189.732 1734,-154 1743.93,-152.903 1754.46,-151.376 1764.59,-149.723"/>
<polygon fill="midnightblue" stroke="midnightblue" points="1765.27,-153.157 1774.55,-148.038 1764.1,-146.255 1765.27,-153.157"/>
</g>
<!-- Node13&#45;&gt;Node12 -->
<g id="edge21" class="edge"><title>Node13&#45;&gt;Node12</title>
<path fill="none" stroke="midnightblue" d="M847.737,-204.545C767.326,-204.325 492.868,-200.14 421,-154 398.248,-139.393 384.553,-110.121 377.638,-90.9253"/>
<polygon fill="midnightblue" stroke="midnightblue" points="380.885,-89.5974 374.406,-81.2144 374.243,-91.8079 380.885,-89.5974"/>
</g>
<!-- Node14 -->
<g id="node14" class="node"><title>Node14</title>
<polygon fill="white" stroke="#bfbfbf" points="512.5,-129 512.5,-148 559.5,-148 559.5,-129 512.5,-129"/>
<text text-anchor="middle" x="536" y="-136" font-family="Helvetica,sans-Serif" font-size="10.00">cmath</text>
</g>
<!-- Node13&#45;&gt;Node14 -->
<g id="edge13" class="edge"><title>Node13&#45;&gt;Node14</title>
<path fill="none" stroke="midnightblue" d="M847.949,-202.786C797.459,-198.438 669.961,-185.046 568,-154 566.075,-153.414 564.114,-152.738 562.159,-152.005"/>
<polygon fill="midnightblue" stroke="midnightblue" points="563.198,-148.646 552.622,-148.018 560.498,-155.104 563.198,-148.646"/>
</g>
<!-- Node13&#45;&gt;Node15 -->
<g id="edge14" class="edge"><title>Node13&#45;&gt;Node15</title>
<path fill="none" stroke="midnightblue" d="M892.09,-201.764C918.453,-198.575 963.887,-193.319 1003,-190 1265.65,-167.709 1333.85,-189.84 1595,-154 1659.86,-145.099 1674.7,-135.322 1739,-123 1833.72,-104.846 1881.78,-152.038 1953,-87 1968.87,-72.5093 1972.78,-47.0819 1973.44,-29.6601"/>
<polygon fill="midnightblue" stroke="midnightblue" points="1976.94,-29.583 1973.5,-19.5628 1969.94,-29.5423 1976.94,-29.583"/>
</g>
<!-- Node16 -->
<g id="node16" class="node"><title>Node16</title>
<polygon fill="white" stroke="#bfbfbf" points="577.5,-129 577.5,-148 648.5,-148 648.5,-129 577.5,-129"/>
<text text-anchor="middle" x="613" y="-136" font-family="Helvetica,sans-Serif" font-size="10.00">forward_list</text>
</g>
<!-- Node13&#45;&gt;Node16 -->
<g id="edge15" class="edge"><title>Node13&#45;&gt;Node16</title>
<path fill="none" stroke="midnightblue" d="M847.762,-199.884C808.837,-191.659 725.935,-173.492 657,-154 653.827,-153.103 650.541,-152.121 647.261,-151.105"/>
<polygon fill="midnightblue" stroke="midnightblue" points="648.144,-147.713 637.553,-148.003 646.013,-154.381 648.144,-147.713"/>
</g>
<!-- Node17 -->
<g id="node17" class="node"><title>Node17</title>
<polygon fill="white" stroke="#bfbfbf" points="666.5,-123.5 666.5,-153.5 803.5,-153.5 803.5,-123.5 666.5,-123.5"/>
<text text-anchor="start" x="674.5" y="-141.5" font-family="Helvetica,sans-Serif" font-size="10.00">boost/smart_ptr/intrusive</text>
<text text-anchor="middle" x="735" y="-130.5" font-family="Helvetica,sans-Serif" font-size="10.00">_ptr.hpp</text>
</g>
<!-- Node13&#45;&gt;Node17 -->
<g id="edge22" class="edge"><title>Node13&#45;&gt;Node17</title>
<path fill="none" stroke="midnightblue" d="M852.073,-195.869C832.079,-186.242 799.152,-170.388 773.302,-157.942"/>
<polygon fill="midnightblue" stroke="midnightblue" points="774.664,-154.713 764.135,-153.528 771.627,-161.02 774.664,-154.713"/>
</g>
<!-- Node13&#45;&gt;Node18 -->
<g id="edge23" class="edge"><title>Node13&#45;&gt;Node18</title>
<path fill="none" stroke="midnightblue" d="M892.018,-201.277C963.732,-190.778 1191.02,-157.504 1278.87,-144.643"/>
<polygon fill="midnightblue" stroke="midnightblue" points="1279.48,-148.091 1288.87,-143.179 1278.47,-141.164 1279.48,-148.091"/>
</g>
<!-- Node30 -->
<g id="node30" class="node"><title>Node30</title>
<g id="a_node30"><a xlink:href="settings_8h.xhtml" target="_top" xlink:title="Builder for settings. ">
<polygon fill="white" stroke="black" points="430,-129 430,-148 494,-148 494,-129 430,-129"/>
<text text-anchor="middle" x="462" y="-136" font-family="Helvetica,sans-Serif" font-size="10.00">settings.h</text>
</a>
</g>
</g>
<!-- Node13&#45;&gt;Node30 -->
<g id="edge47" class="edge"><title>Node13&#45;&gt;Node30</title>
<path fill="none" stroke="midnightblue" d="M847.784,-203.023C790.159,-198.852 631.433,-185.203 503,-154 499.772,-153.216 496.442,-152.273 493.141,-151.249"/>
<polygon fill="midnightblue" stroke="midnightblue" points="494.049,-147.862 483.455,-148.011 491.83,-154.501 494.049,-147.862"/>
</g>
<!-- Node18&#45;&gt;Node3 -->
<g id="edge24" class="edge"><title>Node18&#45;&gt;Node3</title>
<path fill="none" stroke="midnightblue" d="M1288.67,-137.096C1169.58,-135.012 664.68,-124.111 512,-87 509.64,-86.4263 507.237,-85.6933 504.858,-84.8625"/>
<polygon fill="midnightblue" stroke="midnightblue" points="505.973,-81.5385 495.39,-81.0538 503.361,-88.0328 505.973,-81.5385"/>
</g>
<!-- Node18&#45;&gt;Node6 -->
<g id="edge28" class="edge"><title>Node18&#45;&gt;Node6</title>
<path fill="none" stroke="midnightblue" d="M1339.19,-135.575C1441.14,-127.737 1820.26,-98.1126 1873,-87 1876.69,-86.2234 1880.49,-85.2311 1884.25,-84.1307"/>
<polygon fill="midnightblue" stroke="midnightblue" points="1885.49,-87.4091 1893.96,-81.0396 1883.37,-80.7391 1885.49,-87.4091"/>
</g>
<!-- Node18&#45;&gt;Node7 -->
<g id="edge30" class="edge"><title>Node18&#45;&gt;Node7</title>
<path fill="none" stroke="midnightblue" d="M1288.91,-133.483C1224.9,-123.236 1054.29,-95.921 964.717,-81.5803"/>
<polygon fill="midnightblue" stroke="midnightblue" points="965.16,-78.1067 954.732,-79.9818 964.053,-85.0187 965.16,-78.1067"/>
</g>
<!-- Node18&#45;&gt;Node8 -->
<g id="edge31" class="edge"><title>Node18&#45;&gt;Node8</title>
<path fill="none" stroke="midnightblue" d="M1312.27,-128.874C1308.45,-112.161 1297.7,-75.3173 1274,-56 1232.83,-22.4504 1169.5,-13.6205 1131.66,-11.4703"/>
<polygon fill="midnightblue" stroke="midnightblue" points="1131.39,-7.95521 1121.25,-11.0115 1131.09,-14.9484 1131.39,-7.95521"/>
</g>
<!-- Node18&#45;&gt;Node9 -->
<g id="edge32" class="edge"><title>Node18&#45;&gt;Node9</title>
<path fill="none" stroke="midnightblue" d="M1288.68,-136.251C1227.86,-132.731 1075.88,-120.693 1040,-87 1024.39,-72.3355 1020.79,-46.9482 1020.34,-29.5829"/>
<polygon fill="midnightblue" stroke="midnightblue" points="1023.84,-29.5441 1020.4,-19.5231 1016.84,-29.5018 1023.84,-29.5441"/>
</g>
<!-- Node18&#45;&gt;Node12 -->
<g id="edge34" class="edge"><title>Node18&#45;&gt;Node12</title>
<path fill="none" stroke="midnightblue" d="M1289,-137.307C1185.05,-136.239 777.038,-129.418 445,-87 436.799,-85.9523 428.137,-84.5226 419.757,-82.9671"/>
<polygon fill="midnightblue" stroke="midnightblue" points="420.209,-79.4895 409.726,-81.0248 418.878,-86.3619 420.209,-79.4895"/>
</g>
<!-- Node18&#45;&gt;Node15 -->
<g id="edge26" class="edge"><title>Node18&#45;&gt;Node15</title>
<path fill="none" stroke="midnightblue" d="M1339.1,-135.485C1440.48,-127.295 1815.52,-96.4813 1839,-87 1859.53,-78.71 1859.2,-67.705 1878,-56 1898.45,-43.2661 1923.06,-31.7006 1942.12,-23.4837"/>
<polygon fill="midnightblue" stroke="midnightblue" points="1943.67,-26.6246 1951.52,-19.5037 1940.95,-20.1783 1943.67,-26.6246"/>
</g>
<!-- Node18&#45;&gt;Node19 -->
<g id="edge25" class="edge"><title>Node18&#45;&gt;Node19</title>
<path fill="none" stroke="midnightblue" d="M1339.09,-136.599C1425.04,-133.284 1715.49,-120.179 1953,-87 1965.6,-85.2399 1979.31,-82.6492 1991.36,-80.1428"/>
<polygon fill="midnightblue" stroke="midnightblue" points="1992.4,-83.4993 2001.45,-77.9848 1990.94,-76.6542 1992.4,-83.4993"/>
</g>
<!-- Node20 -->
<g id="node20" class="node"><title>Node20</title>
<polygon fill="white" stroke="#bfbfbf" points="1437,-62 1437,-81 1483,-81 1483,-62 1437,-62"/>
<text text-anchor="middle" x="1460" y="-69" font-family="Helvetica,sans-Serif" font-size="10.00">iosfwd</text>
</g>
<!-- Node18&#45;&gt;Node20 -->
<g id="edge27" class="edge"><title>Node18&#45;&gt;Node20</title>
<path fill="none" stroke="midnightblue" d="M1333.39,-128.869C1358.48,-117.699 1402.39,-98.1468 1431.34,-85.2602"/>
<polygon fill="midnightblue" stroke="midnightblue" points="1432.82,-88.4319 1440.53,-81.1672 1429.97,-82.037 1432.82,-88.4319"/>
</g>
<!-- Node21 -->
<g id="node21" class="node"><title>Node21</title>
<polygon fill="white" stroke="#bfbfbf" points="1501,-62 1501,-81 1569,-81 1569,-62 1501,-62"/>
<text text-anchor="middle" x="1535" y="-69" font-family="Helvetica,sans-Serif" font-size="10.00">type_traits</text>
</g>
<!-- Node18&#45;&gt;Node21 -->
<g id="edge29" class="edge"><title>Node18&#45;&gt;Node21</title>
<path fill="none" stroke="midnightblue" d="M1339.17,-130.775C1373.76,-121.439 1437.85,-103.8 1492,-87 1494.75,-86.1464 1497.59,-85.2409 1500.45,-84.3157"/>
<polygon fill="midnightblue" stroke="midnightblue" points="1501.66,-87.6011 1510.06,-81.141 1499.46,-80.9544 1501.66,-87.6011"/>
</g>
<!-- Node22 -->
<g id="node22" class="node"><title>Node22</title>
<polygon fill="white" stroke="#bfbfbf" points="1587,-56.5 1587,-86.5 1697,-86.5 1697,-56.5 1587,-56.5"/>
<text text-anchor="start" x="1595" y="-74.5" font-family="Helvetica,sans-Serif" font-size="10.00">boost/container/flat</text>
<text text-anchor="middle" x="1642" y="-63.5" font-family="Helvetica,sans-Serif" font-size="10.00">_set.hpp</text>
</g>
<!-- Node18&#45;&gt;Node22 -->
<g id="edge33" class="edge"><title>Node18&#45;&gt;Node22</title>
<path fill="none" stroke="midnightblue" d="M1339.17,-132.978C1384.59,-124.756 1483.46,-106.57 1576.96,-87.1781"/>
<polygon fill="midnightblue" stroke="midnightblue" points="1577.79,-90.5808 1586.87,-85.1152 1576.36,-83.7279 1577.79,-90.5808"/>
</g>
<!-- Node23 -->
<g id="node23" class="node"><title>Node23</title>
<polygon fill="white" stroke="#bfbfbf" points="1715.5,-56.5 1715.5,-86.5 1830.5,-86.5 1830.5,-56.5 1715.5,-56.5"/>
<text text-anchor="start" x="1723.5" y="-74.5" font-family="Helvetica,sans-Serif" font-size="10.00">boost/range/adaptor</text>
<text text-anchor="middle" x="1773" y="-63.5" font-family="Helvetica,sans-Serif" font-size="10.00">/transformed.hpp</text>
</g>
<!-- Node18&#45;&gt;Node23 -->
<g id="edge35" class="edge"><title>Node18&#45;&gt;Node23</title>
<path fill="none" stroke="midnightblue" d="M1339.33,-134.991C1400.45,-128.779 1560.96,-111.51 1705.39,-87.0096"/>
<polygon fill="midnightblue" stroke="midnightblue" points="1706.05,-90.4471 1715.32,-85.3094 1704.87,-83.5475 1706.05,-90.4471"/>
</g>
<!-- Node18&#45;&gt;Node24 -->
<g id="edge36" class="edge"><title>Node18&#45;&gt;Node24</title>
<path fill="none" stroke="midnightblue" d="M1288.61,-129.788C1251.22,-118.432 1181.1,-97.1346 1137.7,-83.9496"/>
<polygon fill="midnightblue" stroke="midnightblue" points="1138.65,-80.5822 1128.07,-81.0247 1136.62,-87.28 1138.65,-80.5822"/>
</g>
<!-- Node25 -->
<g id="node25" class="node"><title>Node25</title>
<g id="a_node25"><a xlink:href="index__map_8h.xhtml" target="_top" xlink:title="Non&#45;zero based Index&#45;&gt;Value map adapter on sequential containers. ">
<polygon fill="white" stroke="black" points="1169,-62 1169,-81 1265,-81 1265,-62 1169,-62"/>
<text text-anchor="middle" x="1217" y="-69" font-family="Helvetica,sans-Serif" font-size="10.00">ext/index_map.h</text>
</a>
</g>
</g>
<!-- Node18&#45;&gt;Node25 -->
<g id="edge38" class="edge"><title>Node18&#45;&gt;Node25</title>
<path fill="none" stroke="midnightblue" d="M1300.92,-128.734C1284.85,-117.964 1257.37,-99.55 1238.25,-86.7395"/>
<polygon fill="midnightblue" stroke="midnightblue" points="1240.13,-83.7865 1229.87,-81.1273 1236.23,-89.6017 1240.13,-83.7865"/>
</g>
<!-- Node26 -->
<g id="node26" class="node"><title>Node26</title>
<g id="a_node26"><a xlink:href="linear__map_8h.xhtml" target="_top" xlink:title="Implementation of a vector&#45;based map for a small number of entries. ">
<polygon fill="white" stroke="black" points="1321.5,-62 1321.5,-81 1418.5,-81 1418.5,-62 1321.5,-62"/>
<text text-anchor="middle" x="1370" y="-69" font-family="Helvetica,sans-Serif" font-size="10.00">ext/linear_map.h</text>
</a>
</g>
</g>
<!-- Node18&#45;&gt;Node26 -->
<g id="edge40" class="edge"><title>Node18&#45;&gt;Node26</title>
<path fill="none" stroke="midnightblue" d="M1321.55,-128.734C1330.28,-118.598 1344.85,-101.69 1355.74,-89.0556"/>
<polygon fill="midnightblue" stroke="midnightblue" points="1358.69,-90.9879 1362.57,-81.1273 1353.39,-86.4189 1358.69,-90.9879"/>
</g>
<!-- Node24&#45;&gt;Node8 -->
<g id="edge37" class="edge"><title>Node24&#45;&gt;Node8</title>
<path fill="none" stroke="midnightblue" d="M1100,-61.9751C1100,-53.5803 1100,-40.4806 1100,-29.6631"/>
<polygon fill="midnightblue" stroke="midnightblue" points="1103.5,-29.5091 1100,-19.5091 1096.5,-29.5091 1103.5,-29.5091"/>
</g>
<!-- Node25&#45;&gt;Node9 -->
<g id="edge39" class="edge"><title>Node25&#45;&gt;Node9</title>
<path fill="none" stroke="midnightblue" d="M1188.92,-61.9751C1153.51,-51.225 1092.68,-32.7597 1054.77,-21.2514"/>
<polygon fill="midnightblue" stroke="midnightblue" points="1055.31,-17.7579 1044.72,-18.2021 1053.28,-24.456 1055.31,-17.7579"/>
</g>
<!-- Node26&#45;&gt;Node8 -->
<g id="edge45" class="edge"><title>Node26&#45;&gt;Node8</title>
<path fill="none" stroke="midnightblue" d="M1333.37,-61.9906C1324.73,-60.0045 1315.54,-57.9116 1307,-56 1244.6,-42.0372 1171.48,-26.2837 1130.98,-17.6123"/>
<polygon fill="midnightblue" stroke="midnightblue" points="1131.69,-14.1841 1121.18,-15.5147 1130.22,-21.0292 1131.69,-14.1841"/>
</g>
<!-- Node26&#45;&gt;Node9 -->
<g id="edge46" class="edge"><title>Node26&#45;&gt;Node9</title>
<path fill="none" stroke="midnightblue" d="M1321.38,-62.5438C1262.01,-52.7762 1158.56,-35.5857 1070,-20 1065.14,-19.1455 1060.02,-18.2253 1054.99,-17.3111"/>
<polygon fill="midnightblue" stroke="midnightblue" points="1055.38,-13.8239 1044.91,-15.4658 1054.12,-20.7095 1055.38,-13.8239"/>
</g>
<!-- Node26&#45;&gt;Node15 -->
<g id="edge42" class="edge"><title>Node26&#45;&gt;Node15</title>
<path fill="none" stroke="midnightblue" d="M1400.21,-61.9608C1409.1,-59.7165 1418.89,-57.5053 1428,-56 1614.29,-25.2329 1840.05,-15.1113 1931.53,-12.1261"/>
<polygon fill="midnightblue" stroke="midnightblue" points="1931.87,-15.6173 1941.75,-11.8042 1931.65,-8.62073 1931.87,-15.6173"/>
</g>
<!-- Node27 -->
<g id="node27" class="node"><title>Node27</title>
<polygon fill="white" stroke="#bfbfbf" points="1420,-0.5 1420,-19.5 1472,-19.5 1472,-0.5 1420,-0.5"/>
<text text-anchor="middle" x="1446" y="-7.5" font-family="Helvetica,sans-Serif" font-size="10.00">cassert</text>
</g>
<!-- Node26&#45;&gt;Node27 -->
<g id="edge41" class="edge"><title>Node26&#45;&gt;Node27</title>
<path fill="none" stroke="midnightblue" d="M1380.89,-61.9751C1392.97,-52.5199 1412.67,-37.0961 1427.24,-25.6871"/>
<polygon fill="midnightblue" stroke="midnightblue" points="1429.41,-28.4295 1435.13,-19.5091 1425.1,-22.9177 1429.41,-28.4295"/>
</g>
<!-- Node28 -->
<g id="node28" class="node"><title>Node28</title>
<polygon fill="white" stroke="#bfbfbf" points="1242.5,-0.5 1242.5,-19.5 1319.5,-19.5 1319.5,-0.5 1242.5,-0.5"/>
<text text-anchor="middle" x="1281" y="-7.5" font-family="Helvetica,sans-Serif" font-size="10.00">initializer_list</text>
</g>
<!-- Node26&#45;&gt;Node28 -->
<g id="edge43" class="edge"><title>Node26&#45;&gt;Node28</title>
<path fill="none" stroke="midnightblue" d="M1357.25,-61.9751C1342.97,-52.4315 1319.6,-36.8073 1302.49,-25.3683"/>
<polygon fill="midnightblue" stroke="midnightblue" points="1303.99,-22.1572 1293.73,-19.5091 1300.1,-27.9766 1303.99,-22.1572"/>
</g>
<!-- Node29 -->
<g id="node29" class="node"><title>Node29</title>
<polygon fill="white" stroke="#bfbfbf" points="1338,-0.5 1338,-19.5 1402,-19.5 1402,-0.5 1338,-0.5"/>
<text text-anchor="middle" x="1370" y="-7.5" font-family="Helvetica,sans-Serif" font-size="10.00">stdexcept</text>
</g>
<!-- Node26&#45;&gt;Node29 -->
<g id="edge44" class="edge"><title>Node26&#45;&gt;Node29</title>
<path fill="none" stroke="midnightblue" d="M1370,-61.9751C1370,-53.5803 1370,-40.4806 1370,-29.6631"/>
<polygon fill="midnightblue" stroke="midnightblue" points="1373.5,-29.5091 1370,-19.5091 1366.5,-29.5091 1373.5,-29.5091"/>
</g>
<!-- Node30&#45;&gt;Node3 -->
<g id="edge48" class="edge"><title>Node30&#45;&gt;Node3</title>
<path fill="none" stroke="midnightblue" d="M464.293,-128.734C466.816,-119.085 470.945,-103.3 474.186,-90.9063"/>
<polygon fill="midnightblue" stroke="midnightblue" points="477.599,-91.6875 476.744,-81.1273 470.827,-89.9163 477.599,-91.6875"/>
</g>
<!-- Node31 -->
<g id="node31" class="node"><title>Node31</title>
<polygon fill="white" stroke="#bfbfbf" points="521.5,-62 521.5,-81 590.5,-81 590.5,-62 521.5,-62"/>
<text text-anchor="middle" x="556" y="-69" font-family="Helvetica,sans-Serif" font-size="10.00">string_view</text>
</g>
<!-- Node30&#45;&gt;Node31 -->
<g id="edge49" class="edge"><title>Node30&#45;&gt;Node31</title>
<path fill="none" stroke="midnightblue" d="M474.677,-128.734C490.181,-118.013 516.641,-99.7165 535.156,-86.9137"/>
<polygon fill="midnightblue" stroke="midnightblue" points="537.289,-89.6937 543.524,-81.1273 533.308,-83.9361 537.289,-89.6937"/>
</g>
<!-- Node33&#45;&gt;Node15 -->
<g id="edge55" class="edge"><title>Node33&#45;&gt;Node15</title>
<path fill="none" stroke="midnightblue" d="M2201.47,-257.438C2217.57,-250.378 2237.38,-238.626 2247,-221 2253.6,-208.907 2252.75,-202.52 2247,-190 2203.1,-94.4251 2079.44,-43.4804 2014.31,-22.5923"/>
<polygon fill="midnightblue" stroke="midnightblue" points="2014.97,-19.1317 2004.38,-19.4958 2012.88,-25.8143 2014.97,-19.1317"/>
</g>
<!-- Node33&#45;&gt;Node32 -->
<g id="edge56" class="edge"><title>Node33&#45;&gt;Node32</title>
<path fill="none" stroke="midnightblue" d="M2175.42,-257.475C2173.87,-249.08 2171.45,-235.981 2169.45,-225.163"/>
<polygon fill="midnightblue" stroke="midnightblue" points="2172.83,-224.206 2167.57,-215.009 2165.95,-225.479 2172.83,-224.206"/>
</g>
<!-- Node34&#45;&gt;Node3 -->
<g id="edge59" class="edge"><title>Node34&#45;&gt;Node3</title>
<path fill="none" stroke="midnightblue" d="M251.644,-132.824C293.912,-125.31 376.87,-109.116 445,-87 446.923,-86.3759 448.887,-85.6858 450.853,-84.9555"/>
<polygon fill="midnightblue" stroke="midnightblue" points="452.538,-88.0512 460.523,-81.0871 449.938,-81.552 452.538,-88.0512"/>
</g>
<!-- Node34&#45;&gt;Node12 -->
<g id="edge62" class="edge"><title>Node34&#45;&gt;Node12</title>
<path fill="none" stroke="midnightblue" d="M243.653,-128.869C269.085,-117.699 313.604,-98.1468 342.946,-85.2602"/>
<polygon fill="midnightblue" stroke="midnightblue" points="344.517,-88.393 352.265,-81.1672 341.702,-81.9839 344.517,-88.393"/>
</g>
<!-- Node35 -->
<g id="node35" class="node"><title>Node35</title>
<polygon fill="white" stroke="#bfbfbf" points="128,-62 128,-81 178,-81 178,-62 128,-62"/>
<text text-anchor="middle" x="153" y="-69" font-family="Helvetica,sans-Serif" font-size="10.00">chrono</text>
</g>
<!-- Node34&#45;&gt;Node35 -->
<g id="edge60" class="edge"><title>Node34&#45;&gt;Node35</title>
<path fill="none" stroke="midnightblue" d="M214.425,-128.734C203.034,-118.305 183.813,-100.709 169.901,-87.9732"/>
<polygon fill="midnightblue" stroke="midnightblue" points="172.163,-85.2983 162.424,-81.1273 167.436,-90.4614 172.163,-85.2983"/>
</g>
<!-- Node36 -->
<g id="node36" class="node"><title>Node36</title>
<polygon fill="white" stroke="#bfbfbf" points="196,-62 196,-81 252,-81 252,-62 196,-62"/>
<text text-anchor="middle" x="224" y="-69" font-family="Helvetica,sans-Serif" font-size="10.00">sstream</text>
</g>
<!-- Node34&#45;&gt;Node36 -->
<g id="edge61" class="edge"><title>Node34&#45;&gt;Node36</title>
<path fill="none" stroke="midnightblue" d="M224,-128.734C224,-119.183 224,-103.618 224,-91.2829"/>
<polygon fill="midnightblue" stroke="midnightblue" points="227.5,-91.1273 224,-81.1273 220.5,-91.1273 227.5,-91.1273"/>
</g>
<!-- Node37 -->
<g id="node37" class="node"><title>Node37</title>
<polygon fill="white" stroke="#bfbfbf" points="0,-56.5 0,-86.5 110,-86.5 110,-56.5 0,-56.5"/>
<text text-anchor="start" x="8" y="-74.5" font-family="Helvetica,sans-Serif" font-size="10.00">boost/preprocessor</text>
<text text-anchor="middle" x="55" y="-63.5" font-family="Helvetica,sans-Serif" font-size="10.00">/cat.hpp</text>
</g>
<!-- Node34&#45;&gt;Node37 -->
<g id="edge63" class="edge"><title>Node34&#45;&gt;Node37</title>
<path fill="none" stroke="midnightblue" d="M201.558,-128.869C175.979,-119.031 133.493,-102.689 100.832,-90.1277"/>
<polygon fill="midnightblue" stroke="midnightblue" points="102.063,-86.8512 91.473,-86.5281 99.55,-93.3846 102.063,-86.8512"/>
</g>
</g>
</svg>
